<svg xmlns="http://www.w3.org/2000/svg" viewBox="0 0 640 360" width="640" height="360">
  <defs>
    <linearGradient id="bg" x1="0" x2="1" y1="0" y2="1">
      <stop offset="0%" stop-color="#064e3b"/>
      <stop offset="100%" stop-color="#0f172a"/>
    </linearGradient>
    <radialGradient id="glow" cx="0.5" cy="0.5" r="0.5">
      <stop offset="0%" stop-color="#34d399" stop-opacity="0.4"/>
      <stop offset="100%" stop-color="#34d399" stop-opacity="0"/>
    </radialGradient>
  </defs>
  <rect width="640" height="360" rx="28" fill="url(#bg)"/>
  <circle cx="320" cy="180" r="160" fill="url(#glow)"/>
  <g transform="translate(320 180)">
    <circle r="130" fill="#0b3a2a" stroke="#10b981" stroke-width="3"/>
    <g fill="#22c55e" stroke="#052e1d" stroke-width="2">
      <path d="M -110 -30 Q -80 -60 -45 -50 L -20 -20 L -40 20 L -90 35 L -115 -5 Z"/>
      <path d="M -45 -50 L 10 -65 L 30 -30 L 20 -10 L -20 -20 Z" fill="#4ade80"/>
      <path d="M 10 -65 L 65 -55 L 90 -25 L 60 -5 L 30 -30 Z" fill="#16a34a"/>
      <path d="M -20 -20 L 20 -10 L 30 30 L -10 60 L -40 20 Z" fill="#15803d"/>
      <path d="M 20 -10 L 60 -5 L 90 25 L 60 60 L 30 30 Z" fill="#22c55e"/>
      <path d="M -90 35 L -40 20 L -10 60 L -30 100 L -80 95 Z" fill="#16a34a"/>
      <path d="M -10 60 L 30 30 L 60 60 L 40 105 L -5 110 Z" fill="#4ade80"/>
      <path d="M 60 60 L 90 25 L 120 50 L 110 95 L 70 100 Z" fill="#15803d"/>
    </g>
    <g fill="none" stroke="#fef3c7" stroke-width="2.5" stroke-linejoin="round" opacity="0.85">
      <path d="M -45 -50 L -20 -20 L 20 -10 L 60 -5 L 90 -25"/>
      <path d="M -20 -20 L -40 20 L -10 60 L 30 30 L 60 60"/>
      <path d="M -40 20 L -90 35 L -80 95 L -30 100"/>
      <path d="M -10 60 L -5 110 L 40 105 L 70 100"/>
    </g>
    <circle r="130" fill="none" stroke="#064e3b" stroke-width="8"/>
  </g>
  <g fill="#fef3c7">
    <circle cx="120" cy="110" r="5"/>
    <circle cx="520" cy="110" r="5"/>
    <circle cx="145" cy="280" r="5"/>
    <circle cx="505" cy="275" r="5"/>
  </g>
  <g transform="translate(320 332)" fill="#bbf7d0" font-family="Inter, Segoe UI, Helvetica, Arial, sans-serif" font-weight="900" font-size="22" text-anchor="middle" letter-spacing="4">
    <text>BORDERING NATIONS</text>
  </g>
</svg>
