<svg xmlns="http://www.w3.org/2000/svg" viewBox="0 0 640 360" width="640" height="360">
  <defs>
    <linearGradient id="bg" x1="0" x2="1" y1="0" y2="1">
      <stop offset="0%" stop-color="#0f766e"/>
      <stop offset="100%" stop-color="#0f172a"/>
    </linearGradient>
  </defs>
  <rect width="640" height="360" rx="28" fill="url(#bg)"/>
  <circle cx="196" cy="176" r="92" fill="#e0f2fe"/>
  <path d="M124 176 h144 M196 104 v144 M140 132 c18 16 32 45 32 88 c0 43-14 72-32 88 M252 132 c-18 16-32 45-32 88 c0 43 14 72 32 88 M128 144 c24 10 46 14 68 14 c22 0 44-4 72-14 M128 208 c26-12 48-16 68-16 c20 0 42 4 72 16" fill="none" stroke="#0891b2" stroke-width="6" stroke-linecap="round"/>
  <g transform="translate(364 86)">
    <rect x="0" y="0" width="168" height="112" rx="16" fill="#ffffff"/>
    <rect x="0" y="0" width="168" height="34" rx="16" fill="#dc2626"/>
    <rect x="0" y="78" width="168" height="34" rx="16" fill="#2563eb"/>
    <circle cx="84" cy="56" r="18" fill="#fbbf24"/>
  </g>
  <g transform="translate(404 214)">
    <rect x="0" y="0" width="140" height="86" rx="16" fill="#f8fafc" stroke="#cbd5e1" stroke-width="4"/>
    <rect x="16" y="18" width="108" height="10" rx="5" fill="#94a3b8"/>
    <rect x="16" y="38" width="82" height="10" rx="5" fill="#94a3b8"/>
    <rect x="16" y="58" width="94" height="10" rx="5" fill="#94a3b8"/>
  </g>
</svg>
