<svg xmlns="http://www.w3.org/2000/svg" viewBox="0 0 640 360" width="640" height="360">
  <defs>
    <linearGradient id="sky" x1="0" x2="0" y1="0" y2="1">
      <stop offset="0%" stop-color="#60a5fa"/>
      <stop offset="100%" stop-color="#1d4ed8"/>
    </linearGradient>
  </defs>
  <rect width="640" height="360" rx="28" fill="url(#sky)"/>
  <circle cx="520" cy="72" r="64" fill="#ffffff20"/>
  <path d="M0 280 C80 238 130 234 202 256 C264 224 332 220 404 248 C458 232 516 232 640 274 L640 360 L0 360 Z" fill="#14532d"/>
  <path d="M0 298 C74 262 138 262 216 286 C292 254 360 256 430 286 C504 266 570 270 640 296 L640 360 L0 360 Z" fill="#166534"/>
  <rect x="208" y="140" width="50" height="98" fill="#1f2937"/>
  <rect x="262" y="116" width="72" height="122" fill="#334155"/>
  <rect x="340" y="152" width="44" height="86" fill="#0f172a"/>
  <polygon points="470,76 514,106 470,136 426,106" fill="#f43f5e" stroke="#ffffff" stroke-width="6"/>
  <line x1="470" y1="24" x2="470" y2="76" stroke="#ffffff" stroke-width="8" stroke-linecap="round"/>
  <text x="320" y="118" text-anchor="middle" font-family="Bebas Neue, Arial Black, sans-serif" font-size="88" letter-spacing="4" fill="#ffffff">FORTNITE</text>
</svg>
