<svg xmlns="http://www.w3.org/2000/svg" viewBox="0 0 360 440" width="360" height="440" role="img" aria-label="Regional map with Armenia highlighted"><rect width="100%" height="100%" fill="#7FA6D6"/><path d="M402,228.2L400.7,227.3L398.9,226L395.8,223.7L394.3,222.3L393.7,221.8L393.2,220.9L392.4,216.2L391.5,214L390.1,212.8L389,210.5L388,207.1L387.3,204.9L386.7,203.9L385.4,202.7L383.5,201.5L381.7,200.9L381,200.9L380.7,201.1L380.3,201.3L379.6,202.2L378.5,202.3L377.8,202.3L377.1,201.9L374.8,201.7L374,201.3L372.6,201.4L369.7,201.8L368.9,201.8L365.8,199.7L364.5,198.9L364.2,198.4L364.2,197.6L364.6,196.5L365,195.7L364.9,194.9L364.3,193.9L364.3,193L364.7,192.4L365.5,192.6L365.8,192.3L365.7,191.8L365.2,191.4L364.7,190.6L362.9,189.8L362.6,189.5L362.7,189.1L363,188.7L363.1,187.9L363.1,186.9L363.4,186.3L363.4,185.9L363.2,185.5L362.6,185.1L361.6,184.2L360.4,184.1L356.7,184.1L355.5,183.7L354.5,183.2L353.6,181.1L353.1,180.6L352.6,180.4L351.6,180.3L350.3,180.1L349.6,179.7L347.8,177.8L346.1,176.1L345.4,177.7L344.7,178.1L343.2,177.9L342.1,177.6L341.4,178L340.8,178.6L340.8,179.1L341.4,179.5L342.4,180.3L344,182.3L344.7,183.4L344.8,183.8L344.7,184.1L344.5,184.2L344.2,184.2L343.8,184.2L343.5,183.9L343.4,183.3L342.9,182.4L342.3,182L341.7,181.6L340.9,181.4L339.8,181L339.2,181L338.7,181.5L338.2,182.1L337.9,183.5L337.1,185.2L336.6,185.9L335,186.3L331.3,186.5L330.2,187L329.4,187.6L328,189.8L327.1,190.4L326.2,191.4L326.4,194.5L326.9,198L327.6,199L328,199.3L328.1,199.7L327.8,200L327.5,200.4L326.9,201.1L326.2,201.1L324.9,200.9L323.9,200.7L320.3,200.5L317.4,200.3L314.2,200.1L314.2,196.4L314.2,192.6L314.2,188.9L314.1,185.1L314.1,181.3L314.1,177.5L314.1,173.6L314.1,169.8L314.1,165.9L314.1,162.1L314.1,158.2L314.1,154.3L314.1,150.3L314.1,146.4L314.1,142.5L314.1,138.5L315.7,138L317.6,137.4L319.4,136.8L321.6,136.1L324.1,135.3L326.2,134.6L328.7,133.8L330.7,133.2L332.5,132.6L334.8,131.9L338.4,130.8L340.4,130.2L342.4,129.6L344.4,129L345.7,128.8L347.1,129.6L348.8,130.7L350.4,131.9L352.1,133L353.8,134.2L355.5,135.3L357.2,136.5L358.9,137.6L360.6,138.8L362.3,139.9L364,141L365.6,142.1L367.4,143.3L369,144.4L370.7,145.6L372.4,146.7L374.1,147.8L375.7,148.9L376.4,149.6L376.8,151.3L377.5,152.7L378.9,154.2L380.3,155.7L382,157.7L383.2,159L384.5,160.4L386.4,162.7L387.7,164.2L388.7,164.2L390.7,163.9L393.4,163.4L395.6,163.1L398.2,162.6L400.7,162.2L402,162L402,228.2ZM318.1,431.4L318.9,432.5L319,439.9L319.2,440.5L318.7,440.6L318.3,441.1L317.7,442L316.9,442.4L316.3,442.9L315.7,443.6L315.2,443.7L314.5,442.9L314.1,442.1L314.2,441.9L314.5,441.9L314.6,441.4L314.4,440.8L314,440.6L313.4,440.6L312.8,440.8L312.3,441.4L311.9,442L311.9,443.1L312,444.5L312,445.1L311.7,445.9L311.6,447.1L311.8,448L312,448.5L312,448.9L311.5,450.4L312,450.6L313.5,450.8L314,451.7L314.3,452.4L314.2,452.8L313.1,453.1L311.7,453.4L310.7,453.3L308.9,453.7L307.9,454.4L308.2,454.9L308.5,455.2L308.7,456.1L308.4,457.3L307.9,458.5L307.2,460.1L306.5,461.8L305.5,464.4L304.6,466.5L304.6,468L304.6,469L304.5,470.9L303.6,472L303.5,472L302.5,471.9L302.2,471.8L301.3,471.7L299.8,471.5L297.9,471.3L295.7,471L293.2,470.6L290.6,470.3L287.9,469.9L285.2,469.6L282.5,469.2L280.1,468.9L277.9,468.6L276,468.4L274.6,468.2L273.6,468L273.3,468L272.3,467.9L271.7,467.1L271,466.3L270.4,465.4L269.7,464.5L269,463.7L268.4,462.8L267.7,461.9L267,461L266.3,460.2L265.7,459.3L265,458.4L264.3,457.5L263.6,456.7L263,455.8L262.3,454.9L261.6,454L261,453.2L260.5,452.6L260.2,451.9L260.2,450.2L260.2,449.8L260.6,449.1L260.9,449.6L261.4,450.3L262.2,450.1L262.6,450.2L262.9,452.6L263.6,453.5L264.3,453.8L266.9,454L268.5,453.7L271.7,452.1L273.4,451.6L278,451.7L281.7,452.3L287.5,452.7L288.7,452.6L291.7,451.3L293.7,450.2L294.8,449.9L295.6,448.8L296.1,447.4L296.5,446.5L297.1,446.1L297.6,445.3L298,444L299.1,442.8L303.4,439.6L305.9,437L306.1,436.1L307.5,434.8L308.6,433.5L313.7,429.4L314.7,427.8L315.3,425.9L315.4,425.8L315.8,425.7L316.4,426L316.5,427.4L316.3,428.7L316.3,430.1L316.2,430.8L316.7,431.5L317.5,431.7L317.8,431.7ZM317.9,437L317.9,436.4L317.8,436.1L317.3,436.1L317.1,436.6L317,437.3L317.4,437.4ZM281.8,450.2L280.9,450.2L280.1,449.7L281.8,449.1L282.3,448.8L282.8,448.1L283.1,448.7L282.7,449.5L282.4,449.9ZM273,449.8L272.8,449.9L272.6,449.1L272.6,448.9L273.2,448.6L273.5,449.2ZM289.1,451.2L289.1,451.7L287.8,451.6L287.5,451.8L286.5,451.7L285.5,451.4L286.1,450.8L287.9,450.2L288.7,450.8ZM295.7,447.7L295.5,448L295.2,447.9L294.3,447.7L294,447.3L294.6,446.9L294.8,446.8L295.2,447.3ZM-42,13.61L-40.97,13.76L-39.47,13.62L-38.63,13.79L-37.09,16.53L-36.74,16.84L-36.12,16.91L-34.84,16.67L-33.04,16.77L-31.94,17.35L-32.11,18.96L-31.81,19.2L-31.32,19.13L-30.7,18.21L-30.22,17.25L-29.87,16.94L-28.02,17.59L-27.18,17.49L-26.39,16.77L-25.9,16.64L-24.58,17.15L-22.95,17.52L-21.63,17.56L-20.8,17.93L-20.22,19.64L-19.69,19.98L-19.21,20.08L-18.42,18.58L-17.76,17.97L-16.79,17.56L-16.17,17.35L-15.73,16.84L-15.16,16.29L-14.67,16.26L-14.23,16.46L-13.79,17.18L-13.09,18.82L-12.25,20.49L-11.68,21.07L-10.18,20.56L-9.124,20.05L-7.274,19.95L-4.807,19.61L-2.913,19.13L-1.724,19.2L-0.976,19.74L0.126,20.73L0.39,22.19L1.843,23.21L2.988,23.38L3.385,22.33L4.045,21.61L3.825,20.59L3.693,19.33L3.209,18.14L2.856,16.87L3.473,15.06L4.134,13.45L4.486,12.59L5.587,10.97L6.688,9.838L8.318,7.975L9.551,7.353L10.61,7.63L11.22,7.906L12.81,6.8L15.59,6.731L17.92,6.869L18.14,6.904L19.29,7.491L20.47,7.975L21.31,8.009L22.28,7.871L23.47,7.249L24.26,6.627L25.23,3.474L25.58,3.023L26.11,2.78L26.99,2.745L28.71,3.335L30.65,3.856L31.79,3.787L34.83,2.085L36.55,1.841L38.58,2.224L40.51,2.259L42.01,2.015L43.07,2.606L44.3,3.891L45.45,5.797L46.64,9.286L50.12,13.24L50.2,14L49.9,14.51L48.18,14.99L46.72,15.23L46.68,15.92L47.08,16.64L47.74,17.73L47.83,19.09L47.78,20.36L48.09,21.44L48.62,21.92L48.71,22.46L48.05,23.14L47.87,23.55L48.13,23.79L51.26,23.92L52.8,24.6L53.99,25.18L54.56,25.25L55.88,24.87L57.38,24.6L58.26,24.57L58.62,25.01L58.92,26.19L59.45,27.34L59.94,27.68L60.77,27.65L61.3,27.68L61.61,28.12L61.26,28.8L61.35,29.5L61.74,30.41L62.18,32.43L62.62,33.04L62.89,33.81L62.89,34.71L62.53,35.48L62.27,36.09L62.53,37.46L63.46,38.99L64.17,39.36L64.74,40.73L65.75,41.16L67.25,40.03L68.39,39.43L69.85,39.76L71.17,39.96L72.05,40.76L72.71,41.83L73.46,42.42L74.25,42.13L75.84,42.42L76.58,43.29L77.29,43.79L78.26,43.09L79.01,42.19L81.83,41.29L83.59,41.06L84.07,40.89L85.09,40.23L86.14,39.8L87.16,39.93L88.08,41.26L89.09,42.19L89.36,43.69L90.59,45.71L93.59,48.45L94.78,49.31L95.57,49.15L96.01,48.91L96.19,48.65L96.36,47.3L96.76,46.8L97.37,46.77L99.71,48.45L100.9,48.65L102.1,48.68L103.7,49.97L105.4,51.12L106.8,51.22L107.9,50.79L108.6,50.53L109,50.96L109.4,51.91L110.1,52.67L110.9,52.9L112.1,52.93L114.1,54.41L116,55.88L117.2,55.98L118.2,55.52L119,55.43L119.7,55.79L119.8,56.44L119.4,57.29L119.4,58.53L120.2,59.71L120.2,60.88L120,61.92L119.5,62.87L118.4,64.2L117.3,65.43L115.7,65.95L114.8,66.47L115.1,67.37L115.7,68.22L117,68.89L118.5,69.38L118.7,69.93L118.5,70.22L117.5,70.44L116.1,70.18L115.7,70.67L115,71.47L114.6,72.89L114.3,74.21L115.8,74.56L116.7,75.11L116.9,76.19L117.2,77.38L117.3,78.47L116.8,78.98L116.8,79.52L117,79.81L117.7,79.91L118.2,80.16L118.2,80.73L117.3,82.01L116.4,84.43L115.9,85.73L116,87.12L115.4,87.91L114.5,87.98L111.2,88.1L108.4,88.04L107.2,87.85L105.2,87.72L104.2,88.07L103,90.28L102,91.17L100.5,91.95L98.69,92.18L97.73,93.12L97.37,94.54L97.33,95.82L97.2,96.45L96.8,97.02L96.67,97.42L96.76,97.86L97.15,98.02L97.64,98.21L97.64,98.52L97.46,98.92L96.89,99.36L96.67,100.1L96.71,100.8L96.8,101.5L96.8,101.5L96.36,101.7L92.09,101.5L91.3,101.5L88.61,101.9L86.14,104.7L84.64,104.7L82.53,105.4L81.12,106.3L79.45,108.3L78.17,107.4L76.58,107.4L75,108L73.15,109.3L72.09,109.5L70.02,109.2L67.6,109.9L62.4,114.2L60.64,117.4L59.98,118L59.1,118.7L58.17,119.1L57.69,119.1L60.16,116.9L60.91,116L61.04,115.4L61.08,114.4L60.33,113.2L58.26,116.3L57.12,116.7L55.66,117.6L55.58,119.7L55.75,121.2L56.37,123.1L57.52,125.6L56.85,125.7L55.05,124.6L54.96,122.9L53.68,121.4L51.66,121.4L50.78,121.6L49.59,119.9L48,119.2L46.81,119.4L45.58,119.1L42.89,117.3L41.09,117.1L41.04,118.4L40.29,119.3L39.15,119.6L38.27,120L36.24,118.7L35.49,117.8L32.32,118.8L30.56,118.6L26.64,119.5L24.83,118.7L21.22,116.3L19.9,115.9L18.71,116L18.09,115.2L18.89,114.8L19.77,114.8L20.69,114.5L20.96,114.1L20.91,113.4L19.02,112.8L17.3,112.6L16.2,111.9L15.37,111.1L17.3,111.1L19.29,111.7L22.41,111.9L25.23,112.6L25.93,111.8L27.57,110.5L27.87,110.1L25.14,111L22.37,110.4L21.36,109.6L20.47,108.4L20.12,107.1L20.34,105.8L20.08,103.5L19.15,101.5L18.8,100.4L17.83,99.36L18.8,101.6L19.15,103.1L19.73,104.5L19.59,108.2L19.24,109.4L18.09,109.8L16.6,109.6L15.06,109.2L15.45,107.2L14.66,107.9L13.47,109.8L12.46,110.1L10.26,109.9L6.071,111.2L5.763,112.6L5.147,114.5L4.53,115.6L4.354,116.3L2.592,119.1L2.372,119.4L-0.976,123.3L-1.416,123.6L-3.574,124.5L-4.895,125.3L-5.864,125.7L-7.538,125.3L-8.199,125.9L-8.551,126.6L-8.551,128L-7.714,129L-7.009,132.5L-7.274,133.9L-7.934,133L-8.947,132L-10.97,131.1L-13.18,131.4L-15.55,132.9L-17.18,133.4L-18.06,133L-18.59,133L-18.77,133.5L-18.73,133.8L-18.46,134.1L-18.5,134.2L-18.81,134.4L-22.6,133.3L-24.27,132.4L-25.55,130.6L-24.89,130L-24.36,129.8L-22.38,129.6L-22.03,129.4L-21.98,129L-21.85,128.5L-21.9,127.7L-22.12,126.8L-21.28,125.6L-19.96,124.6L-19.21,123.6L-19.12,122.1L-17.76,121.3L-16.57,120.1L-16.26,118.7L-15.82,117.8L-16.61,115.9L-16.74,114.6L-16.79,113.5L-16.43,112.9L-15.29,112.2L-14.1,111.6L-13.62,111.7L-13.44,112L-13.4,114.3L-13.18,114.3L-12.78,114L-12.16,112.7L-11.77,113.1L-11.11,113.2L-10.62,112.9L-10.31,112.9L-9.916,113.3L-9.124,113.8L-8.375,113.9L-7.758,113.6L-7.274,113L-6.701,113.2L-5.644,114.8L-5.16,114.6L-2.737,114.3L-2.341,113.9L-2.077,113.5L-4.587,111.4L-4.455,109.9L-4.367,108.1L-4.675,107.1L-5.16,106.2L-7.098,105.3L-8.595,104.3L-8.903,103.8L-8.947,103.3L-9.035,102.3L-9.608,101.5L-9.652,100.9L-9.3,99.86L-9.168,98.77L-9.3,98.33L-9.652,97.95L-10.31,97.92L-11.24,97.3L-11.81,96.42L-13.44,95.2L-13.97,94.98L-14.28,94.38L-14.41,93.62L-14.06,92.71L-13.62,91.29L-13.31,89.97L-13.31,89.18L-13.53,87.22L-14.37,85.73L-14.76,85.54L-15.47,85.95L-16.21,86.3L-16.83,85.98L-17.54,85.16L-18.68,82.9L-20.8,82.42L-21.63,82.33L-22.47,83.41L-22.73,83.09L-22.95,82.39L-23.39,82.1L-23.97,82.42L-24.14,82.14L-23.88,81.18L-24.58,80.7L-26.21,80.73L-27.05,80.38L-27.18,79.65L-27.67,79.2L-28.59,78.98L-29.47,78.37L-30.35,77.44L-31.63,76.84L-33.35,76.55L-33.48,76.45L-33.66,76.29L-34.76,76.93L-35.42,77.44L-36.25,77.12L-37.58,78.28L-40.26,78.34L-41.58,78.24L-42,78.08L-42,13.61ZM20.96,117.4L22.63,118.2L20.91,118L17.13,117.2L15.45,116.4L15.01,115.5L14.79,114.4L15.72,115.6L16.38,116.2ZM279.1,240.4L278.9,241.1L278.3,238.9L278,236.5L278.4,235.8L278.8,235.8L278.4,236.7ZM402,285.8L401.6,285.9L401.4,286.3L401.6,287.1L401.9,287.7L402,288.1L402,288.5L402,288.5L401.5,289.1L401.1,290.1L400.7,291.9L399.8,292.5L398.3,293.4L396.7,294.6L396.3,294.8L395.3,295.1L394.4,295L393.5,294.9L392.6,295.2L391.6,296.1L391.1,295.8L390.9,294.9L390.4,294.3L388.9,292.9L387.6,292L387,291.9L385.9,292.2L384.4,292.4L383.2,292.1L382.2,291.8L380.8,290.4L380.2,289.7L379.8,289.2L378.8,289.3L378.5,288.7L378.5,288L378.8,287.2L378.7,285.6L378.1,284.5L377.4,283.9L377.5,283.6L377.8,282.8L378.2,282.1L378.2,280.7L377.7,279.2L377.5,277L377.7,274.9L377.1,273.8L372,273.8L367.5,273.9L367.3,273.7L365.6,271L364.1,268.9L362.7,267.7L359.5,266.2L358,265.6L356.7,264.5L355.6,263.3L355.3,261.5L355.1,261L354.8,260.5L354.5,260.3L354.1,260.4L350.4,258.4L348.9,257.8L347.5,258.3L346.8,258.4L345.6,257.8L344.2,258.5L343.6,258.6L342.8,258.4L342.1,258.1L340.2,256.3L338.6,255.6L337.5,255.1L335.3,254.4L333,254.1L331.8,253.8L331,253.4L330.8,253.1L330.8,252.4L330.7,251.6L330.4,250.9L329.8,250.2L329,249.6L327.6,249.7L325.5,249.6L323.9,249.1L322.6,249L321.1,249.1L319.8,249.1L318.9,249.5L318.4,250L318,251.5L317.7,251.7L317.2,251.8L316.5,251.7L315,251.7L312.5,251.5L309.3,251.4L306.8,252.2L305,253.2L303.1,254.5L300.9,256.4L300.3,257.3L299.1,260.7L298.5,261.1L297.8,261.5L297,261.6L295.6,262.1L293.6,262.9L292.3,263.3L288.9,263.1L288.7,262L288.1,258.1L287.8,254.1L287.8,252.2L288.2,248.5L288.1,246.6L288,244.9L288.1,243.3L288.4,241.4L288.6,239.4L288.3,238.1L287.7,237L286.6,235.7L286.4,234.9L286.3,234L285.3,233.9L284.3,233L283.5,232.5L281.8,231.9L281,231.9L280.2,232.3L279.6,233.1L279.2,231.8L279.2,230.5L280.6,227.7L281.4,228.5L282.5,228.8L283.8,228.9L285.1,228.7L284.8,227.7L284.3,227.2L283.5,226.7L283.2,225.5L283.3,224.1L283.7,222.9L283.3,222.4L282.7,222.1L281.3,222.1L279.4,221.8L277.6,221.7L277.1,223.1L278.1,225.1L277.3,224.1L276.5,222.8L275.3,220.6L274.6,217.9L274.5,215.1L275.1,212.7L275.9,210.5L276.4,207.6L277,204.8L277.7,206L278.4,207.1L279.5,208.2L280.1,208.5L281.8,208.9L282.9,208.7L284.1,208.1L285.2,208.3L286.2,209.5L287.1,210.8L288.3,211L291,210.1L292.3,209.9L293.4,210.3L294,210.4L294.6,210.3L294.1,209.2L293.9,208L294.5,207.5L296.6,208.1L298,207.7L298.3,207.4L298.7,207.1L298.8,206.2L298.7,205.1L298.6,204.2L298.2,203.4L297.2,202.2L293.4,199.4L292.2,198.3L291.1,196.9L290.4,194.9L289.9,192.8L289.4,191.2L288.1,187.5L287.6,187.1L286.9,186.9L285.4,186.8L283.8,187.1L281.2,187.7L279.7,187.5L279.1,187.9L277.3,189.4L276.5,190.8L275.4,193.8L276.3,194.7L276.3,195.4L275.6,199.8L276,202L275.9,202.1L275.6,201.6L274.6,199.4L272.9,196.8L271.5,192.6L274,190L276.1,188L277.9,186.9L278.4,186.6L280.8,185.6L283.9,184.8L286.1,184.1L289.1,183.6L290,183.5L291.4,183.5L292.6,184L293.3,184.4L295.7,186.1L298.3,187.8L300.4,189.6L301,190.4L301.3,191.3L301.6,192.2L303.4,195L304.2,196.2L305.2,197.9L306.1,198.7L306.9,199.7L307.5,200.6L308.1,200.9L308.9,201.1L310.5,200.8L312.4,200.3L313.6,200.1L314.2,200.1L314.2,200.1L317.4,200.3L320.3,200.5L323.9,200.7L324.9,200.9L326.2,201.1L326.9,201.1L327.5,200.4L327.8,200L328.1,199.7L328,199.3L327.6,199L326.9,198L326.4,194.5L326.2,191.4L327.1,190.4L328,189.8L329.4,187.6L330.2,187L331.3,186.5L335,186.3L336.6,185.9L337.1,185.2L337.9,183.5L338.2,182.1L338.7,181.5L339.2,181L339.8,181L340.9,181.4L341.7,181.6L342.3,182L342.9,182.4L343.4,183.3L343.5,183.9L343.8,184.2L344.2,184.2L344.5,184.2L344.7,184.1L344.8,183.8L344.7,183.4L344,182.3L342.4,180.3L341.4,179.5L340.8,179.1L340.8,178.6L341.4,178L342.1,177.6L343.2,177.9L344.7,178.1L345.4,177.7L346.1,176.1L347.8,177.8L349.6,179.7L350.3,180.1L351.6,180.3L352.6,180.4L353.1,180.6L353.6,181.1L354.5,183.2L355.5,183.7L356.7,184.1L360.4,184.1L361.6,184.2L362.6,185.1L363.2,185.5L363.4,185.9L363.4,186.3L363.1,186.9L363.1,187.9L363,188.7L362.7,189.1L362.6,189.5L362.9,189.8L364.7,190.6L365.2,191.4L365.7,191.8L365.8,192.3L365.5,192.6L364.7,192.4L364.3,193L364.3,193.9L364.9,194.9L365,195.7L364.6,196.5L364.2,197.6L364.2,198.4L364.5,198.9L365.8,199.7L368.9,201.8L369.7,201.8L372.6,201.4L374,201.3L374.8,201.7L377.1,201.9L377.8,202.3L378.5,202.3L379.6,202.2L380.3,201.3L380.7,201.1L381,200.9L381.7,200.9L383.5,201.5L385.4,202.7L386.7,203.9L387.3,204.9L388,207.1L389,210.5L390.1,212.8L391.5,214L392.4,216.2L393.2,220.9L393.7,221.8L394.3,222.3L395.8,223.7L398.9,226L400.7,227.3L402,228.2L402,285.8ZM-42,247.1L-39.16,246.5L-38.63,245.9L-40.75,246L-41.5,245.5L-42,244.8L-42,241.1L-42,241.1L-41.5,240.8L-40.22,239.1L-40.75,238.6L-41.36,238.4L-42,238.5L-42,229.9L-42,229.9L-41.45,229.1L-41.63,228.6L-42,228.5L-42,215.1L-42,215.1L-40.22,215.1L-38.9,214.2L-36.91,214.1L-36.52,214.8L-36.3,215.4L-34.54,216.3L-31.45,216.2L-30.7,215.8L-30,215.3L-31.41,213.8L-30.97,213.3L-29.69,213.2L-28.28,213.6L-28.19,214L-28.59,214.5L-29.03,215.4L-28.59,215.5L-24.63,215L-20.44,215.4L-19.12,215.2L-15.82,215.2L-15.25,214.7L-16.21,214L-17.18,213.7L-17.84,213.4L-18.5,212.9L-16.43,211.4L-15.25,211L-9.696,210.1L-5.556,209.6L-5.512,209.3L-6.129,209.3L-11.46,208.5L-12.73,207.8L-14.5,206.4L-14.89,206L-15.33,205.3L-15.07,203.7L-14.76,202.5L-14.1,201.8L-11.99,201.7L-4.675,202.9L0.566,202.2L6.248,204L11.66,203.6L12.81,202.8L14.18,200.2L21.84,195.8L24.53,193.5L27.43,192.2L32.37,190.8L36.51,189L37.7,188.8L47.6,189.6L54.43,189.8L57.56,188L59.41,188.6L59.23,189.2L58.88,189.8L59.01,190.8L60.07,192.4L61.13,193.5L64.34,195.1L68.75,193.7L69.45,193.9L70.38,194.3L71.92,198.4L73.15,199.9L74.69,200.9L75.97,201.1L76.89,200.1L77.64,199.6L79.23,199.5L81.87,200.9L82.8,202.4L87.24,203.5L91.34,204.1L93.1,205.3L98.87,206.6L101,206.4L104.6,205.1L111.6,203.7L116.3,205.7L117.6,205.9L118.7,205.7L120.2,206.3L121.9,206L127.1,203.6L128.7,202.3L130.4,201.9L131.9,201.1L136,198.5L137.1,197L137.1,197L137.9,197.3L139.5,197.7L140.4,198.2L141,198.3L142.2,197.3L144.1,197.3L145.7,197.5L146.6,197.6L147.6,198L148.9,198.2L149.3,197.7L150.1,196.3L150.4,196.1L150.6,195.9L151.5,195.8L152.4,195.9L152.8,196.2L153.2,197.4L154.2,197.8L156.1,199.6L157.2,200.4L157.4,200.7L157.1,201.1L157.2,201.5L157.9,202.1L158.8,202.4L159.8,202.3L160.3,202.5L160.7,202.8L160.8,203.3L160.8,203.6L160.9,204.3L161.7,205.3L162.6,205.9L163.1,206.5L163.9,208.7L164.2,209.9L164.1,211.1L163.5,212.2L162.3,213.7L162.6,214.3L162.9,215.2L162.8,215.8L163.7,217.6L164.1,218.8L163.7,219.1L163.5,219.4L165.1,220.3L166.9,221.1L167.7,221.2L169.8,220.9L171.1,220.8L172.5,221.5L174.4,223.3L176.6,225.5L177,226.2L177.2,226.5L177.6,227L177.2,227L176.5,226.5L174.8,225.1L173.9,225.8L173.2,226.8L172.4,230.7L171.7,231.1L170.5,231L169.1,230.9L168.2,231.1L167.9,231.4L168,231.8L168.3,232.4L168.5,233.2L168.6,233.9L169.1,234.5L169.8,235L169.8,235.6L169.7,236.4L169.6,237L169.4,237.4L169.7,238.4L170.4,239.5L170.9,239.9L170.8,242L171,243L171.2,244.3L171.1,246.4L171.3,246.9L171.5,247.1L172.2,247.2L172.9,247.4L173.1,247.7L173.1,248L172.2,249L172.2,249.7L171.9,250.7L171.6,251.3L170.9,252.4L170.4,253.5L170.2,254.4L170.4,254.8L171.7,254.9L172.5,255.6L174.4,256.9L174.8,257.4L174.3,258.2L174.3,258.6L174.5,259L174.7,259.7L174.6,260.6L174.6,261.7L175,261.9L176.3,262.9L177.3,263.9L177.4,264.2L176.9,265L177,266L177,266.2L176.6,265.8L175.8,265.7L175,265.7L174.5,265.9L173.7,266.7L172.5,267.5L171.6,268.2L171.1,268.7L170.6,268.6L170.3,268.2L170.1,267.6L170.1,265.3L170,264.5L169.5,264L169,263.7L168.4,263.6L167.8,263.5L166.9,264.2L165.6,264.9L163.7,264.9L162.3,264.7L161.7,264.6L159.1,263.5L158.6,263.5L157.6,263.1L156.5,262.7L154.6,263.4L153.8,263.2L152.6,262.7L152.2,262.8L150.9,264.5L148.7,266.4L147.5,266.7L147,264.9L146.4,264.1L146.2,264L145.6,263.8L145.2,263.9L143.9,265.2L141.8,266L140,266.4L137.2,267L135.1,267.3L134.2,267.3L132.2,267.1L130.4,266.7L128.6,266.7L127.3,266.9L124.2,268.2L118.9,271L114.8,272.4L112.6,272.9L110.8,273.2L107.8,273.3L105.3,273L103.6,273.1L102.6,272.7L101.3,271.6L99.62,270.5L98.92,270.2L97.95,270L96.54,269.9L93.06,271.5L91.96,272L90.77,272.3L88.39,273.3L87.29,273.8L85.97,273.8L84.25,273.6L82.8,273.7L81.78,272.9L81.25,272.1L79.23,271.5L77.78,271.4L77.42,271.8L77.03,272.9L76.41,275.9L76.32,276.7L77.6,279.6L77.51,280L76.63,280.2L75.57,280.3L74.87,280.5L74.34,281L73.99,283.5L72.8,284L72.18,284.5L71.61,286.1L71.3,286.1L69.32,285L68.44,284.8L69.19,283.6L68.35,281.2L67.42,278.9L68.31,277.4L70.11,275.7L72.05,273.6L72.05,272.3L71.92,271.3L71.39,270.7L70.33,269.8L68.57,270.7L67.29,271.8L66.5,272L65.58,272.6L65.13,273.7L64.08,274.5L62.31,274.9L59.67,273.9L56.81,272.6L55.18,271.4L53.86,271.2L52.63,271.7L48.93,274.4L45.53,278.4L44.7,279.1L41.53,280.8L39.41,281.4L38.44,281.3L34.26,282L32.15,282.1L30.52,283L27.34,282.1L25.41,280.8L24.26,279.5L22.41,276.8L21.05,275.5L18.09,274.3L12.85,271.4L11.49,271.1L7.965,270.7L4.222,270.4L3.429,271.5L3.165,275.6L2.504,276.7L2.24,278.9L1.799,279.5L1.051,279.9L-0.051,279.2L-0.843,278.9L-2.649,279.8L-6.261,281L-7.494,281.2L-11.63,279.7L-13.18,278.7L-14.14,277.6L-14.5,275.7L-15.11,274.6L-15.2,273.9L-15.42,273.1L-16.26,272.7L-17.18,273.4L-18.15,273.3L-19.34,272.9L-22.2,271.4L-24.41,271.2L-25.73,273.2L-26.79,273.8L-27.89,274L-27.97,273.4L-27.09,272.2L-30.53,272.4L-32.34,273.3L-33.74,273.2L-34.8,272.8L-34.67,272.2L-33.57,272.1L-32.64,271.6L-28.94,271.3L-28.06,270.9L-27.14,269.6L-25.38,268.4L-25.16,267.9L-26.52,267.9L-32.2,268.3L-36.12,268.1L-36.56,268.6L-37.18,268.7L-37.31,267.1L-36.7,266.4L-35.86,266.5L-33.83,265.9L-34.01,264.6L-35.46,263.7L-35.77,263.1L-36.83,263L-37.71,262.4L-37.88,260.8L-38.55,259.1L-39.56,258.2L-39.43,257.8L-37.62,257.2L-37.27,254.8L-37.53,253.3L-38.41,253.2L-41.05,252L-41.85,252.1L-42,251.9L-42,247.1ZM-42,189.2L-41.8,189.2L-40.75,188.6L-40.22,188.1L-38.02,187.8L-37.4,187.5L-36.78,187.7L-35.95,188.6L-34.58,189.9L-33.83,190.3L-33.26,190.2L-32.29,189.7L-31.32,189.7L-30.57,189.8L-30.18,189.4L-29.6,189.3L-27.97,189.6L-27.97,189.6L-28.28,191.4L-27.53,193.5L-25.73,196.3L-23.92,197.8L-16.57,201.3L-15.2,201.7L-15.51,203.1L-15.95,204.4L-16.43,205.2L-18.59,205.8L-24.54,204.2L-26.04,204.1L-27.09,204.4L-29.07,205.5L-31.23,205.1L-34.27,205.8L-35.11,208L-37.22,210.4L-40.7,212.4L-42,213L-42,189.2ZM68.44,284.8L69.32,285L71.3,286.1L71.61,286.1L72.18,284.5L72.8,284L73.99,283.5L74.34,281L74.87,280.5L75.57,280.3L76.63,280.2L77.51,280L77.6,279.6L76.32,276.7L76.41,275.9L77.03,272.9L77.42,271.8L77.78,271.4L79.23,271.5L81.25,272.1L81.78,272.9L82.8,273.7L84.25,273.6L85.97,273.8L87.29,273.8L88.39,273.3L90.77,272.3L91.96,272L93.06,271.5L96.54,269.9L97.95,270L98.92,270.2L99.62,270.5L101.3,271.6L102.6,272.7L103.6,273.1L105.3,273L107.8,273.3L110.8,273.2L112.6,272.9L114.8,272.4L118.9,271L124.2,268.2L127.3,266.9L128.6,266.7L130.4,266.7L132.2,267.1L134.2,267.3L135.1,267.3L137.2,267L140,266.4L141.8,266L143.9,265.2L145.2,263.9L145.6,263.8L146.2,264L146.4,264.1L147,264.9L147.5,266.7L147.5,266.9L147.4,267.4L146,269L144.1,271L142.8,272.3L140.5,274.5L138.9,275L136,275.8L135.3,276.6L134.5,277.8L134.1,279.5L134,280.5L133.9,282.5L134.6,284.5L135.2,286.5L135.3,287.8L135.3,289L134.6,290.4L133.9,292.2L133.5,294.3L133.4,298.2L133.4,301.5L133.3,302.1L132.1,304.4L130.8,307.1L130.1,307.7L127.1,308.6L123.8,310.5L120.1,312.8L116.8,314.8L113.4,316.9L109.7,319.1L107.1,320.6L103.7,322.7L100.5,324.7L97.33,326.7L94.86,328.2L91.21,330.6L89.05,332L85.83,334.1L83.06,335.9L79.76,338L75.62,337.4L74.3,337L73.19,336L72.4,335.5L70.46,334.9L69.19,333L68.44,332.3L67.12,332L67.29,331.3L68,330.1L68.66,328.9L68.31,328.2L68.17,327.6L68.13,326.8L68.57,326.2L68.35,325.3L68,324.5L67.73,324.1L67.73,323.3L67.91,322.7L68.13,321.8L68.7,321.3L68.83,320.8L69.32,320.3L70.02,319.9L70.16,319.6L70.07,319.4L69.41,319L69.01,318.4L69.36,317.4L69.58,317.1L69.98,316.7L70.86,315.9L71.56,315.8L72.18,315.8L73.19,315.9L73.99,316L74.21,315.8L74.16,315.6L73.19,315L73.15,314.6L73.37,314.1L74.08,313.3L74.91,312.7L75.31,312.6L76.28,311.5L76.89,310.2L75.92,307.1L75.31,306.6L74.34,306.1L73.77,306.1L73.72,305.9L74.47,305.1L75.04,304.4L74.43,303.7L73.37,303.4L72.97,304.1L71.56,304.2L69.45,304.2L68.48,300.8L68.35,299.4L68.39,297.7L69.05,295.3L68.75,294.1L68.7,293.4L68.53,292.3L66.85,290.1L67.78,285.9ZM-42,480.3L-41.72,480.3L-37.05,480.3L-32.38,480.3L-27.71,480.3L-23.04,480.3L-18.33,480.3L-13.66,480.3L-8.991,480.3L-4.323,480.3L0.346,480.3L5.014,480.3L9.683,480.3L11.14,480.3L11.75,480.2L12.94,477.7L13.47,477.5L14.22,477.7L14.53,478.3L14.26,479.1L13.87,480.3L16.16,480.3L20.16,480.3L24.17,480.3L28.23,480.3L32.23,480.3L36.24,480.3L40.25,480.3L44.26,480.3L48.27,480.3L52.27,480.3L56.33,480.3L60.33,480.3L64.34,480.3L68.35,480.3L72.36,480.3L76.36,480.3L80.37,480.2L80.47,482L-42,482ZM80.77,435L80.46,435L79.58,434.1L79.1,433.4L78.57,433L76.23,432L75.88,431.5L76.28,430.9L76.5,431.5L76.94,431.8L78.88,432.6L81.03,434.4L81.43,434.6ZM106.4,482L106.3,481.8L106.7,479.8L106.8,477.5L107.3,476.3L107.6,475L107.2,472.4L106.4,471L106.5,470L105.7,469.6L105,468.5L105.7,468.6L104.4,467.1L103.9,466.3L103.5,464.4L102.8,462.9L100.9,459.5L99.89,457.5L97.73,454.8L95.39,452.9L93.94,452L93.23,451.2L92,451.1L90.68,449.9L89.75,449.9L88.61,449.7L87.24,447.5L86.1,445.4L84.16,442.6L84.64,441.9L85.22,440.7L84.95,439.2L84.64,438.2L83.81,436.3L80.99,431.5L80.24,430.8L79.05,430L78.35,427.9L78,426.1L76.06,425.2L72.8,418.5L70.86,416.2L70.11,414.6L67.91,412L66.85,409.4L64.61,407L62.67,402.9L59.72,398.7L58.44,398L55.4,397.7L54.08,397.4L52.89,398.3L52.8,397.1L53.64,395.5L54.78,392.1L55.05,389.1L56.9,380.3L59.5,380.7L61.66,381.1L64.78,381.7L68.04,382.2L69.94,382.6L70.55,382.4L73.19,380.3L75.57,378.3L76.98,375.9L78.35,373.6L78.96,373.1L81.08,372.7L84.42,371.9L87.73,371.3L87.95,371L88.74,369.1L89.71,366.8L89.93,366.5L90.15,366.3L92.53,364.9L93.94,364.1L91.91,361.7L89.97,359.4L87.82,356.9L86.01,354.9L83.24,351.9L81.47,350L84.6,349L87.99,348L91.43,347L95.57,345.8L98.78,344.8L103.6,343.4L106,342.7L106.4,342.5L108.2,340.8L110.9,341.3L115,342L119,342.7L123.2,343.5L124.5,344.2L128.6,346.6L131.2,348.2L134.2,350L138.1,352.3L140.7,353.8L144.1,355.8L146.7,358.1L150,361L153.6,364.2L156.6,366.6L160.8,370L164.8,373.3L168.8,376.6L172,379.2L176,382.4L176.4,382.5L180.4,382.9L185.9,383.4L191.5,383.9L196.4,384.4L198.6,383.9L200.9,384.2L204.1,384.6L206,384.9L209.6,385.4L210.7,387.5L211.1,389L211.4,390.5L212.5,391.8L215,391.7L217.1,391.7L219.8,391.7L222,391.6L222.6,392.9L222.9,394.2L224.2,397.3L226,399.7L226.4,400.6L226.7,401.9L226.4,402.4L226.3,403L227.6,404.3L229.9,405.4L230.7,405.7L231.7,406.2L230.9,406.9L232.2,408.7L233.7,410.5L235.4,410.9L237.6,413.6L240.8,415.3L242.8,417.6L242.7,417.6L242.1,417.4L241.4,417.1L241.1,417.4L241.1,418.3L241.4,419.4L242.4,420.4L243.3,421.1L243.6,422.4L242.9,425.3L242.7,425.3L242.2,425L241.7,425L241.4,425.1L242,427.2L242.6,428.7L243.3,429.9L244,431.8L244.4,432.5L246.6,434.4L247.2,436L247.8,439L249.1,440.7L249.9,442L250.9,443L251.5,444.5L252.4,445.7L252.8,445.9L253.5,446L254.4,446L255.4,445.8L256.5,445.5L257.4,446L258.3,446L258.4,446.5L257.8,447.2L257,449.1L258.1,449.4L259.1,449.5L259.8,449.8L260.2,449.8L260.2,450.2L260.2,451.9L260.5,452.6L261,453.2L261.6,454L262.3,454.9L263,455.8L263.6,456.7L264.3,457.5L265,458.4L265.7,459.3L266.3,460.2L267,461L267.7,461.9L268.4,462.8L269,463.7L269.7,464.5L270.4,465.4L271,466.3L271.7,467.1L272.3,467.9L273.3,468L273.6,468L274.6,468.2L276,468.4L277.9,468.6L280.1,468.9L282.5,469.2L285.2,469.6L287.9,469.9L290.6,470.3L293.2,470.6L295.7,471L297.9,471.3L299.8,471.5L301.3,471.7L302.2,471.8L302.5,471.9L303.5,472L303.6,472L304.5,470.9L305.3,472.4L306.1,473.6L307.1,475.4L308.2,477.2L309.3,478.9L310,480.2L309.6,481.5L309.5,482L106.4,482ZM77.03,430.5L76.89,430.7L76.36,430.2L76.41,429.2L76.85,428.6L76.81,429.4L77.03,430.2ZM402,-35.03L401.6,-34.69L401,-33.96L395.6,-33.2L395,-32.7L393.9,-32.05L388.3,-31.83L387.8,-31.36L387.7,-30.82L387,-30.67L382.9,-31.68L379.6,-32.8L378.4,-32.19L377.4,-31.04L377,-29.34L377,-27.9L377,-26.68L376.5,-25.78L375.4,-24.67L375.3,-23.95L376.8,-23.13L378.6,-22.48L379.7,-22.77L380.6,-23.23L381.4,-23.09L381.9,-22.56L382.1,-21.91L382,-21.45L381.7,-21.13L380.5,-20.52L379.4,-20.73L378.4,-20.31L377.8,-19.52L377.6,-18.1L378,-17.07L379.4,-16.82L380.9,-16.07L382.6,-15.75L383.7,-15.86L385,-14.76L388,-13.42L388.8,-12.39L388.9,-11.33L388.3,-10.52L387.5,-10.06L386.5,-10.31L384.4,-10.59L382.1,-10.77L380.5,-11.12L378.1,-10.98L376.2,-10.66L375.7,-9.85L374.9,-8.371L374.3,-7.562L373.2,-6.017L372.8,-4.65L373.4,-2.516L375.3,1.007L375.5,2.154L374.8,3.301L373.5,4.238L371.5,5.901L369.5,5.97L368.6,6.385L366.2,8.389L364.1,9.355L363.7,10.22L364.2,11.08L366.8,12.18L368.1,13.38L368.5,14.75L369,15.78L371.1,16.46L375.2,18.04L375.5,18.21L375.8,18.92L380,19.91L380.6,20.46L382.4,22.23L382.7,24.06L381.9,25.89L381.3,28.73L380.4,31.25L378.4,32.9L374.9,34.45L371.1,35.05L369.6,34.95L368.6,34.75L366.9,34.28L365.6,33L364.7,31.76L364.1,31.46L363.4,31.66L362.8,32.43L362,34.55L361.1,36.62L360.3,37.36L357.5,38.36L357.2,37.99L357.5,36.62L357.2,36.19L356.7,35.89L353.2,35.35L351.9,34.98L350.9,34.81L349.7,34.48L348.9,33.64L347,31.09L345.6,29.1L343.3,27.31L341.2,26.94L341,27.14L339.4,27.21L336.9,26.77L336.8,26.8L336,27.65L335.4,28.93L334.6,30.01L333.5,30.58L332.1,30.72L330.5,29.57L328.8,27.85L326.8,27.28L324.8,27.65L324.1,27.92L322,28.93L321.3,28.46L320.4,28.15L318.4,29.77L316.2,31.56L315.7,32.87L315,34.11L313.5,35.25L312,36.26L310.6,36.62L308.8,36.26L306.6,35.02L304.6,33.51L302.4,31.09L300.5,29.67L298.8,28.59L297.8,28.32L297,28.73L296.6,29.61L296.8,30.28L297.4,30.89L297.8,32.8L297.9,35.12L297.7,36.45L297.2,37.23L296.8,37.52L296.3,37.42L295.7,36.59L295.4,34.85L295.1,32.8L293.6,30.21L292.3,28.63L291.7,27.75L290.5,26.3L289.4,25.41L287.2,24.36L286.1,23.62L284.3,20.73L283.2,19.84L281.8,19.13L280.7,18.89L280.5,19.06L278.2,19.47L276.5,19.43L275.5,18.89L274.5,18.82L274.4,18.82L273.2,19.16L273,19.16L272.4,19.13L271.6,18.55L270.6,16.91L269.5,15.2L268.2,14.65L265.6,15.37L262.7,17.7L260.7,19.09L259.1,19.13L258.1,19.33L257.5,19.26L256.9,18.82L256.8,17.97L256.5,16.91L255.2,15.88L253.5,15.2L251.8,14.44L250.7,14.24L250.3,15.33L248.9,17.01L247.3,18.65L245.4,21.34L244.8,22.26L244,22.91L242.3,23.59L240.2,24.7L238.8,25.99L236.9,26.57L234.9,26.9L234,28.02L233.4,29.81L232.7,31.42L229.5,33.84L227.7,35.42L226.4,36.26L225.5,36.15L224.6,35.92L224.2,36.05L224.7,37.26L225.1,41.03L225.7,43.42L226.2,44.78L226.6,45.87L226.9,47.53L226.5,48.49L225.8,49.15L223.9,50.17L221.8,51.02L220.7,50.47L219.3,49.08L218.8,48.35L217.3,46.01L214.7,42.39L212.9,40.56L211.6,39.86L210.5,40.09L209.6,40.93L208.9,41.69L208.3,42.56L207.9,43.62L208,45.11L207.9,46.67L207.4,47.76L205.9,48.95L204.2,50.56L202.9,53.52L202.2,57.19L201.9,59.74L202.5,60.95L203.7,61.89L204.5,62.87L204.7,63.81L204.5,64.78L203.8,65.92L202.5,67.18L200.7,70.25L199.5,74.53L200.2,77.51L202.5,79.14L204.4,79.87L205.1,80.83L205.8,82.74L205.7,84.71L205.5,86.04L205.9,87.34L206.8,88.86L207.9,89.81L209.1,89.31L210.2,88.67L211.7,88.93L215.8,89.43L217.9,89.72L218.6,90.38L219.9,92.55L221.6,94.98L223.3,97.42L223.9,98.49L225.3,101.4L226.7,104L228.3,107.2L228.2,108.1L227.3,108.5L226,108.4L225,107.9L224.4,107.5L224,107.4L223.4,107.6L222.9,108L222.7,108.6L222.8,109.4L223.2,110.2L223.7,110.7L224,110.9L226,112L228.3,113.1L231,114.8L231.6,115L231.8,115.8L230.3,116L230.1,116.9L229.8,117.6L226.5,119.2L225.6,119.2L224.9,119.4L225,120.5L225.1,121.4L225.7,122.3L225.5,122.8L225,122.9L224.4,122.6L223.7,122.1L223.1,122L222.5,122.1L219.7,124.9L218.5,125.6L217.2,125.9L214.5,126.9L213.6,126.8L212.9,126.5L212.2,127L212.1,128.3L211.3,127.4L210.5,126.7L210.2,126.5L210,126.6L210.7,128L210.8,129.2L210.6,129.9L210.3,130.5L209.9,130.9L209.4,131.1L209.1,133.3L208.6,134.6L207.9,135.8L207,138L206.3,138.9L205.7,140L205.3,141.6L204.8,141.2L204.4,140.6L204.1,141.4L203.8,142.2L202.4,143.3L201.3,144.4L200.8,146L200.7,147L200.9,147.9L201.3,148.4L203.3,149L204.6,149.7L205.8,151.1L207.1,152.3L208.1,153.8L208.7,155.7L209.6,159.3L209.9,163.1L211.2,158.4L212.2,157.5L212,158.9L211.3,160.9L210.5,163.9L210.3,166L210.6,167.9L210.6,168.8L210,171.9L210.3,172.4L210.8,173L212.1,174L213,175.6L213.2,177.8L213.7,178.4L214.4,178.9L217.5,183.2L219.3,186.1L220.3,187.7L221.2,189.8L221.8,190.3L222.4,190.6L223.6,191.6L222.9,192.7L221.8,194.6L221.3,195.6L220.2,196.5L218.3,197.5L217.2,197.9L216.1,200L214.8,201.9L214,202.1L211.5,201.8L210.7,201.7L208.2,200.8L207.5,200.2L206.8,197.9L206.1,197L205.1,196.3L204.4,195.8L204.2,195.3L203.5,194.5L202.2,193.3L201.2,192.1L200.5,191.8L199.6,192.2L199.1,192.3L198.9,192.1L198.7,191.2L197.4,190.8L197.1,190.6L195.4,189.7L194.7,189.2L194.1,189.2L192.7,188.9L191.5,188.4L191,187.9L190.2,187.2L188.7,186.4L187.7,185.7L187.6,185.2L188.3,183.1L188.7,181.2L188.5,180.8L187.8,180.5L186.7,180.2L184.1,180.3L182.4,178.3L181.8,177.9L180.7,177.5L179.2,176.9L178.3,176.5L178,176.7L177,178.8L176.1,177.3L175.5,176.9L174.7,176.6L173.8,176.6L171.6,177.4L170,178.2L168.9,178.8L167.7,179.2L167.1,179.7L165.5,179.6L164.7,179.2L164.4,178.8L164.5,178.2L165.1,177.4L165.2,177L164.9,176.7L163,175.7L162.2,175L159.6,174.2L156.5,172.6L155.4,171.6L155.2,170.9L154,170.2L152.4,169.6L151.2,169.8L150.1,169.8L148.2,168.7L146.6,168.6L144.6,169L144.2,169.1L143.8,169.2L138,168.8L136.5,167.8L135.3,166.9L131.9,166.2L130.2,165.4L128.5,164.4L126.6,163.5L125,163.8L122.9,163.3L120.5,162.9L119.7,163.1L119,164.3L118.4,165.4L117.1,164.5L112.7,160.2L110.5,157.3L103,150.7L102,150.2L98.03,149.2L96.41,148.4L92.4,143.6L90.59,144.3L88.96,144.1L88.04,143.7L86.98,143L86.28,142.1L85.44,140L84.47,138.9L81.3,137.2L77.69,136.2L77.42,135.8L77.29,135.2L80.42,134.1L81.25,133.4L79.67,132.5L79.05,132.4L78.57,132L79.45,131.3L80.33,131L81.69,131.8L83.24,133.2L84.6,133.7L85.22,133L89.89,131.9L90.19,131L90.19,129.9L89.71,130L89.45,129.7L89.45,128.6L90.15,127L92.27,124.5L93.37,120.9L94.38,120.1L95.08,120.7L95.04,121.5L95.17,122.1L95.83,120.9L96.45,119.3L98.03,119.3L99.09,119.6L100.2,119.4L98.08,116.7L95.17,114L93.94,114.2L93.15,113.8L91.87,111.5L91.34,109.7L92.57,109.8L93.81,110L96.14,108.7L97.02,108.5L98.39,108.9L100.3,109.2L100.2,108L99.58,106.5L101.9,105.5L104,104.9L108,102.8L109.8,102.4L110,101.9L110,101.3L109.4,99.61L108.8,98.36L106.7,98.3L105.6,100L102.4,100.6L100.9,100.5L102.1,99.36L103.2,98.96L103.5,98.49L101.3,98.89L100.1,100.1L96.8,101.5L96.71,100.8L96.67,100.1L96.89,99.36L97.46,98.92L97.64,98.52L97.64,98.21L97.15,98.02L96.76,97.86L96.67,97.42L96.8,97.02L97.2,96.45L97.33,95.82L97.37,94.54L97.73,93.12L98.69,92.18L100.5,91.95L102,91.17L103,90.28L104.2,88.07L105.2,87.72L107.2,87.85L108.4,88.04L111.2,88.1L114.5,87.98L115.4,87.91L116,87.12L115.9,85.73L116.4,84.43L117.3,82.01L118.2,80.73L118.2,80.16L117.7,79.91L117,79.81L116.8,79.52L116.8,78.98L117.3,78.47L117.2,77.38L116.9,76.19L116.7,75.11L115.8,74.56L114.3,74.21L114.6,72.89L115,71.47L115.7,70.67L116.1,70.18L117.5,70.44L118.5,70.22L118.7,69.93L118.5,69.38L117,68.89L115.7,68.22L115.1,67.37L114.8,66.47L115.7,65.95L117.3,65.43L118.4,64.2L119.5,62.87L120,61.92L120.2,60.88L120.2,59.71L119.4,58.53L119.4,57.29L119.8,56.44L119.7,55.79L119,55.43L118.2,55.52L117.2,55.98L116,55.88L114.1,54.41L112.1,52.93L110.9,52.9L110.1,52.67L109.4,51.91L109,50.96L108.6,50.53L107.9,50.79L106.8,51.22L105.4,51.12L103.7,49.97L102.1,48.68L100.9,48.65L99.71,48.45L97.37,46.77L96.76,46.8L96.36,47.3L96.19,48.65L96.01,48.91L95.57,49.15L94.78,49.31L93.59,48.45L90.59,45.71L89.36,43.69L89.09,42.19L88.08,41.26L87.16,39.93L86.14,39.8L85.09,40.23L84.07,40.89L83.59,41.06L81.83,41.29L79.01,42.19L78.26,43.09L77.29,43.79L76.58,43.29L75.84,42.42L74.25,42.13L73.46,42.42L72.71,41.83L72.05,40.76L71.17,39.96L69.85,39.76L68.39,39.43L67.25,40.03L65.75,41.16L64.74,40.73L64.17,39.36L63.46,38.99L62.53,37.46L62.27,36.09L62.53,35.48L62.89,34.71L62.89,33.81L62.62,33.04L62.18,32.43L61.74,30.41L61.35,29.5L61.26,28.8L61.61,28.12L61.3,27.68L60.77,27.65L59.94,27.68L59.45,27.34L58.92,26.19L58.62,25.01L58.26,24.57L57.38,24.6L55.88,24.87L54.56,25.25L53.99,25.18L52.8,24.6L51.26,23.92L48.13,23.79L47.87,23.55L48.05,23.14L48.71,22.46L48.62,21.92L48.09,21.44L47.78,20.36L47.83,19.09L47.74,17.73L47.08,16.64L46.68,15.92L46.72,15.23L48.18,14.99L49.9,14.51L50.2,14L50.12,13.24L46.64,9.286L45.45,5.797L44.3,3.891L43.07,2.606L42.01,2.015L40.51,2.259L38.58,2.224L36.55,1.841L34.83,2.085L31.79,3.787L30.65,3.856L28.71,3.335L26.99,2.745L26.11,2.78L25.58,3.023L25.23,3.474L24.26,6.627L23.47,7.249L22.28,7.871L21.31,8.009L20.47,7.975L19.29,7.491L18.14,6.904L17.92,6.869L17.83,6.385L16.99,4.48L16.51,3.648L15.94,3.197L15.63,2.676L15.63,0.38L15.72,-1.747L16.11,-2.027L15.01,-3.775L14.92,-5.105L15.45,-5.772L15.45,-6.333L15.1,-7.105L14,-8.406L12.9,-9.85L12.19,-11.01L11.71,-11.54L12.28,-12.46L13.03,-14.05L13.29,-14.97L13.69,-15.19L15.45,-15.33L16.73,-15.29L17.7,-14.97L18.05,-14.19L18.98,-13.38L21.49,-13.03L22.54,-13.06L23.86,-13.8L26.02,-15.51L26.55,-16.71L27.87,-17.57L28.67,-17.92L29.41,-18.06L29.5,-18.77L29.46,-19.77L29.19,-20.38L26.55,-22.41L26.2,-23.06L25.98,-23.84L26.33,-24.6L26.29,-25.42L23.25,-27.25L20.69,-27.58L18.62,-27.47L17.79,-27.83L18.14,-28.76L18.67,-30.42L18.8,-31.79L18.67,-32.41L18.27,-32.95L16.25,-34.11L13.52,-35.85L12.24,-37.88L11.58,-39.96L10.83,-41.24L9.593,-42L402,-42ZM216.3,130L216.2,130.3L215.6,128.6L215.5,127.7L215.9,127.2L216.4,128.8ZM40.29,119.3L41.04,118.4L41.09,117.1L42.89,117.3L45.58,119.1L46.81,119.4L48,119.2L49.59,119.9L50.78,121.6L51.66,121.4L53.68,121.4L54.96,122.9L55.05,124.6L56.85,125.7L57.52,125.6L57.78,126.2L60.69,130.6L62.05,132.3L63.11,132.9L64.34,133L66.68,131.6L67.69,131.4L69.89,132L70.68,131L71.83,130.6L73.28,130.5L74.96,130.9L76.76,131.6L76.01,133.2L75.26,134.4L74.96,135.8L74.56,137.3L72.53,138L70.42,137.9L68.13,138.3L67.34,137.7L66.81,137.2L65.8,136.7L64.47,136.4L63.28,136.7L61.88,138.8L59.41,140.2L58.57,141.8L56.1,141.5L54.03,141.8L51,143.2L48.71,146.4L46.2,148.3L44.17,149L42.27,148.8L41.04,148.2L38.53,146.1L38.71,145.4L39.06,145L39.5,143.9L40.51,140L40.38,138.7L39.81,136.7L37.83,135.2L36.24,135.4L35.32,135.1L32.01,132.4L30.25,132.2L28.27,132.7L27.57,132.3L26.99,131.4L30.91,128.1L34.79,125.4L36.46,125.1L38.75,123.8L41.17,121.9L40.82,120.4ZM-42,80.97L-41.58,81.21L-40.62,82.23L-40.22,83.06L-39.38,84.2L-38.5,85.82L-37.53,87.98L-37.36,89.05L-36.96,90.22L-36.25,91.64L-34.89,93.22L-34.67,93.53L-34.05,94.63L-32.86,97.08L-31.85,98.05L-30.97,99.11L-30.57,100.2L-29.91,101.1L-28.46,102.4L-27.27,103.6L-26.3,106.9L-25.64,108.5L-25.2,109.6L-25.42,112L-25.16,113L-25.68,114.8L-26.7,118.5L-26.92,121.4L-26.74,123L-26.74,124L-26.48,124.7L-26.21,126L-26.17,127.2L-26.52,127.5L-27.05,127.8L-27.23,128L-26.79,128.5L-26.17,129.5L-25.55,130.6L-25.55,130.6L-24.27,132.4L-22.6,133.3L-18.81,134.4L-18.5,134.2L-18.46,134.1L-18.73,133.8L-18.77,133.5L-18.59,133L-18.06,133L-17.18,133.4L-15.55,132.9L-13.18,131.4L-10.97,131.1L-8.947,132L-7.934,133L-7.274,133.9L-7.494,135.1L-7.626,135.8L-8.155,138.8L-8.507,139.9L-9.08,141.1L-15.33,142.6L-14.94,141.9L-15.07,140.6L-15.33,139.7L-14.76,138.8L-16.13,138.5L-16.74,139L-17.23,139.8L-16.83,141.7L-17.49,142.7L-17.76,143.3L-17.8,144.7L-18.2,145.3L-18.29,145.9L-17.27,145.8L-17.71,146.9L-19.61,149.2L-20.27,150.5L-20.09,155.8L-20.93,159L-20.97,159.9L-22.95,160L-23.57,159.9L-25.42,159.4L-27.53,158.6L-28.77,157L-29.56,155.8L-31.32,156.3L-31.67,156.2L-32.16,155.6L-33.52,155.2L-35.15,155.2L-38.9,153.1L-39.29,152.7L-42,153.1L-42,80.97ZM256.5,445.5L255.4,445.8L254.4,446L253.5,446L252.8,445.9L252.4,445.7L251.5,444.5L250.9,443L251.2,442.2L251.4,441.7L250.5,437.8L250.3,434.8L250.3,434.2L250.8,433.5L251.7,431.9L252.1,430.4L253.3,426.9L254.6,425.5L256.5,424.5L258,426.5L259.9,428L260.2,429.6L259.7,431L259.2,433.1L259.5,434.1L259.6,434.9L260.1,436.4L260.6,438.2L260.7,439.5L260.4,440.7L259.8,441.7L258.5,444.7L258.1,445ZM402,436.8L400.3,437.1L395.9,436.6L394.8,436.8L393.3,437.5L392.6,438.1L391.7,438.4L390.9,437.5L390.3,437.1L389.7,437.4L388.9,438.1L386.7,438.4L384.7,438.3L382.5,437.7L382.8,437.5L383.1,436.3L383.4,432.3L383.8,430.8L383.7,430L383.8,429.8L384.6,429.1L384.8,428.8L385.2,426.7L385.5,424.4L385.9,423.5L386.2,423.3L388.9,422.3L389.4,421.6L390.7,421.8L390.9,421.6L391,420.8L391.6,419.9L392.6,419.2L393.2,419L395.6,418.5L397,417.9L397.4,417.9L401.2,418L402,417.8L402,417.7L402,436.8ZM402,409.5L399,410L397.8,409.8L397.1,409.5L397,409.3L397.1,408.8L397.2,408.1L397.6,406.8L397.8,406.1L397.4,401.9L396.9,399.1L397.1,396.4L397.1,395.8L397,395.7L396.6,395.7L394.7,395.9L393.1,394.1L392.2,393.4L389.4,392.5L388.2,392.4L386.5,391.6L384.8,389.9L383.2,388.1L382.6,387.1L381.8,385.2L379.7,381.5L379.7,380.6L379.5,380L377.4,377.6L376,375.9L373.7,373.2L378.3,374.7L382,375.9L387.8,377.8L392.4,379.3L393.7,379.5L402,378.7L402,409.5ZM309.5,482L309.6,481.5L310,480.2L309.3,478.9L308.2,477.2L307.1,475.4L306.1,473.6L305.3,472.4L304.5,470.9L304.6,469L304.6,468L304.6,466.5L305.5,464.4L306.5,461.8L307.2,460.1L307.9,458.5L308.4,457.3L308.7,456.1L308.5,455.2L308.2,454.9L307.9,454.4L308.9,453.7L310.7,453.3L311.7,453.4L313.1,453.1L314.2,452.8L314.3,452.4L314,451.7L313.5,450.8L312,450.6L311.5,450.4L312,448.9L312,448.5L311.8,448L311.6,447.1L311.7,445.9L312,445.1L312,444.5L311.9,443.1L311.9,442L312.3,441.4L312.8,440.8L313.4,440.6L314,440.6L314.4,440.8L314.6,441.4L314.5,441.9L314.2,441.9L314.1,442.1L314.5,442.9L315.2,443.7L315.7,443.6L316.3,442.9L316.9,442.4L317.7,442L318.3,441.1L318.7,440.6L319.2,440.5L320.4,444L322.3,447.3L323.9,449.2L325.6,451.6L328.2,453.9L329.4,454.7L334.1,456.3L336.8,456.8L340.4,457.4L342.9,458.7L343.7,458.7L345,458.4L346,458.4L348.3,460.1L349,461.7L350.1,462.5L350.9,463.8L351.5,465.2L353.5,467.4L354.9,469.7L356.4,471.5L357.7,472.6L359.6,473L361.2,473.5L361.4,474.7L361.2,476.2L360.9,477.3L359.4,479.5L359.1,480.9L358.2,482L309.5,482ZM318.1,431.4L317.8,431.7L317.5,431.7L316.7,431.5L316.2,430.8L316.3,430.1L316.3,428.7L316.5,427.4L316.4,426L315.8,425.7L315.4,425.8L316.4,423.8L316.8,423.5L317.2,423.6L318.2,423.4L318.6,422.4L319,421.8L319.5,421.8L319.7,422.2L319.5,423.8L319.5,425.2L319,429.3L318.4,430L318.2,430.6ZM317.9,437L317.4,437.4L317,437.3L317.1,436.6L317.3,436.1L317.8,436.1L317.9,436.4ZM-42,78.08L-41.58,78.24L-40.26,78.34L-37.58,78.28L-36.25,77.12L-35.42,77.44L-34.76,76.93L-33.66,76.29L-33.48,76.45L-33.35,76.55L-31.63,76.84L-30.35,77.44L-29.47,78.37L-28.59,78.98L-27.67,79.2L-27.18,79.65L-27.05,80.38L-26.21,80.73L-24.58,80.7L-23.88,81.18L-24.14,82.14L-23.97,82.42L-23.39,82.1L-22.95,82.39L-22.73,83.09L-22.47,83.41L-21.63,82.33L-20.8,82.42L-18.68,82.9L-17.54,85.16L-16.83,85.98L-16.21,86.3L-15.47,85.95L-14.76,85.54L-14.37,85.73L-13.53,87.22L-13.31,89.18L-13.31,89.97L-13.62,91.29L-14.06,92.71L-14.41,93.62L-14.28,94.38L-13.97,94.98L-13.44,95.2L-11.81,96.42L-11.24,97.3L-10.31,97.92L-9.652,97.95L-9.3,98.33L-9.168,98.77L-9.3,99.86L-9.652,100.9L-9.608,101.5L-9.035,102.3L-8.947,103.3L-8.903,103.8L-8.595,104.3L-7.098,105.3L-5.16,106.2L-4.675,107.1L-4.367,108.1L-4.455,109.9L-4.587,111.4L-2.077,113.5L-2.341,113.9L-2.737,114.3L-5.16,114.6L-5.644,114.8L-6.701,113.2L-7.274,113L-7.758,113.6L-8.375,113.9L-9.124,113.8L-9.916,113.3L-10.31,112.9L-10.62,112.9L-11.11,113.2L-11.77,113.1L-12.16,112.7L-12.78,114L-13.18,114.3L-13.4,114.3L-13.44,112L-13.62,111.7L-14.1,111.6L-15.29,112.2L-16.43,112.9L-16.79,113.5L-16.74,114.6L-16.61,115.9L-15.82,117.8L-16.26,118.7L-16.57,120.1L-17.76,121.3L-19.12,122.1L-19.21,123.6L-19.96,124.6L-21.28,125.6L-22.12,126.8L-21.9,127.7L-21.85,128.5L-21.98,129L-22.03,129.4L-22.38,129.6L-24.36,129.8L-24.89,130L-25.55,130.6L-26.17,129.5L-26.79,128.5L-27.23,128L-27.05,127.8L-26.52,127.5L-26.17,127.2L-26.21,126L-26.48,124.7L-26.74,124L-26.74,123L-26.92,121.4L-26.7,118.5L-25.68,114.8L-25.16,113L-25.42,112L-25.2,109.6L-25.64,108.5L-26.3,106.9L-27.27,103.6L-28.46,102.4L-29.91,101.1L-30.57,100.2L-30.97,99.11L-31.85,98.05L-32.86,97.08L-34.05,94.63L-34.67,93.53L-34.89,93.22L-36.25,91.64L-36.96,90.22L-37.36,89.05L-37.53,87.98L-38.5,85.82L-39.38,84.2L-40.22,83.06L-40.62,82.23L-41.58,81.21L-42,80.97L-42,78.08ZM69.45,304.2L71.56,304.2L72.97,304.1L73.37,303.4L74.43,303.7L75.04,304.4L74.47,305.1L73.72,305.9L73.77,306.1L74.34,306.1L75.31,306.6L75.92,307.1L76.89,310.2L76.28,311.5L75.31,312.6L74.91,312.7L74.08,313.3L73.37,314.1L73.15,314.6L73.19,315L74.16,315.6L74.21,315.8L73.99,316L73.19,315.9L72.18,315.8L71.56,315.8L70.86,315.9L69.98,316.7L69.58,317.1L69.36,317.4L69.01,318.4L69.41,319L70.07,319.4L70.16,319.6L70.02,319.9L69.32,320.3L68.83,320.8L68.7,321.3L68.13,321.8L67.78,322.1L67.12,322.7L66.5,323.3L65.18,324.1L64.87,324.6L64.61,324.2L64.03,324.5L63.55,326.4L62.53,327L61.26,327L60.24,326.8L58.84,326.9L59.41,325.8L59.98,324.4L60.55,322.4L61.61,320.8L63.77,315.2L65,313L65.44,309.8L67.34,307L68.79,306.2L69.45,305.4ZM219.9,376.5L219.2,376.8L218.8,376.7L218.3,375.9L217.5,374L218,373.3L217.9,373L218,372.8L218.2,372.7L218.5,371.8L218.8,371.5L219.3,372.1L220.8,374.2L220.8,375.1L220.7,375.5ZM222,391.6L219.8,391.7L217.1,391.7L215,391.7L212.5,391.8L211.4,390.5L211.1,389L210.7,387.5L209.6,385.4L206,384.9L204.1,384.6L200.9,384.2L198.6,383.9L200.6,381.6L201.5,380.4L203.2,377.7L204,375.8L204.8,373.7L205.5,372L205.7,371.7L206.1,371.2L207,370.6L208.4,370.1L210.6,369.8L212.2,369.8L212.5,369.8L213.5,370.1L216.3,371.4L216.2,371.9L216.6,373.5L217.5,375.2L218.2,376.6L218.3,377.2L217.7,377.1L217.1,376.9L216.2,376.6L214.3,378.4L213.2,379.4L213.2,379.7L214.7,380.1L215.8,380.1L216.5,379.8L217.2,380.3L217.6,381.4L217.8,382.3L218.8,385.5L219.6,386.6L220.7,388.6L221.1,389.6L221.3,390.4ZM243.2,140.9L242.8,141.4L242.2,141.3L241,139.5L241.3,137.6L241.7,137.3L242.4,137L242.5,137.4L241.6,138.2L241.5,139.3L242.2,140.5ZM244.8,138.9L244.4,139.1L244.1,138L244.6,137.1L245.3,137L245.1,138.5ZM273.8,131.3L273.6,131.5L272.8,131L272.3,130.2L272.9,129.3L273.5,129.4L273.9,130.4ZM402,162L400.7,162.2L398.2,162.6L395.6,163.1L393.4,163.4L390.7,163.9L388.7,164.2L387.7,164.2L386.4,162.7L384.5,160.4L383.2,159L382,157.7L380.3,155.7L378.9,154.2L377.5,152.7L376.8,151.3L376.4,149.6L375.7,148.9L374.1,147.8L372.4,146.7L370.7,145.6L369,144.4L367.4,143.3L365.6,142.1L364,141L362.3,139.9L360.6,138.8L358.9,137.6L357.2,136.5L355.5,135.3L353.8,134.2L352.1,133L350.4,131.9L348.8,130.7L347.1,129.6L345.7,128.8L344.4,129L342.4,129.6L340.4,130.2L338.4,130.8L334.8,131.9L332.5,132.6L330.7,133.2L328.7,133.8L326.2,134.6L324.1,135.3L321.6,136.1L319.4,136.8L317.6,137.4L315.7,138L314.1,138.5L314.1,142.5L314.1,146.4L314.1,150.3L314.1,154.3L314.1,158.2L314.1,162.1L314.1,165.9L314.1,169.8L314.1,173.6L314.1,177.5L314.1,181.3L314.1,185.1L314.2,188.9L314.2,192.6L314.2,196.4L314.2,200.1L313.6,200.1L312.4,200.3L310.5,200.8L308.9,201.1L308.1,200.9L307.5,200.6L306.9,199.7L306.1,198.7L305.2,197.9L304.2,196.2L303.4,195L301.6,192.2L301.3,191.3L301,190.4L300.4,189.6L298.3,187.8L295.7,186.1L293.3,184.4L292.6,184L291.4,183.5L290,183.5L289.1,183.6L286.1,184.1L283.9,184.8L280.8,185.6L278.4,186.6L277.9,186.9L276.1,188L274,190L271.5,192.6L271.2,190.9L271.1,188.2L271.1,187.4L271.8,185.1L272.5,183.6L273.1,182L273.3,179.9L272.8,176.4L272.2,175.7L271.5,175.4L270.8,175.4L269.5,175.5L268.8,175.8L267.7,174.6L266.4,174.4L265.7,174.8L265,174.9L264.3,174.6L263.6,173.9L263.2,173.2L262.8,172.4L261.8,170.7L260.8,169.8L259.5,169.6L257.5,169.6L256.9,169.5L256.8,168.6L257.1,166.5L257.1,165.4L256.9,164.3L256.6,163.5L256.2,162.8L255,161.5L254,159.8L252.5,156.3L251.2,152.3L250.6,151.7L249.4,151.1L246.8,150.5L245.1,150L244.4,149.5L244.1,148.6L244.1,147.7L244.3,146.6L244.7,145.6L246,144.9L249,144.7L251.5,144.8L253.9,146.5L254.6,146.9L255.4,147L257,146.5L257.9,146.3L259.9,146.5L259.3,145.7L258.5,145.3L257.7,145.3L257,145L255.9,143.4L253.9,141.7L253.5,140.9L253.4,139.8L253.7,138.8L255.1,137.7L256.3,136.3L256.9,134.4L257.3,133.6L258.4,132.2L259.9,132.5L262.2,131.5L266.1,131.7L270.7,131.4L272,131.5L274.9,132.5L276.6,132.9L278.7,133.1L280.2,132.7L278.7,131.3L275.7,129.8L275,128.5L276.3,124.8L278.2,121.5L279.4,117.6L279.1,113.6L278.5,112.6L278.7,111.3L279.3,110.2L279.8,109.1L279.4,107.8L278.6,105.8L278.1,105.1L276.7,104L273.8,103.9L271.4,103.4L270.6,103.9L270.2,104.6L269.6,105.1L267.8,106.1L267.2,106.2L266.5,106.1L265.6,104.9L264.8,105.1L262.4,104.4L261.2,102.9L260.8,102.6L256.8,101.5L255.4,101.2L252.3,102.5L250,104.1L249.3,104.3L248.1,105.3L247.5,105.5L246.8,105.3L246.2,105.3L244.7,106.9L242.2,108.6L241,109.7L239.6,110.4L238.1,110.9L236.5,110.9L235.9,111.3L234.1,111.4L233,111.8L233,112.4L233.2,113.7L232.3,113.2L231.3,114.2L231.6,115L231,114.8L228.3,113.1L226,112L224,110.9L223.7,110.7L223.2,110.2L222.8,109.4L222.7,108.6L222.9,108L223.4,107.6L224,107.4L224.4,107.5L225,107.9L226,108.4L227.3,108.5L228.2,108.1L228.3,107.2L226.7,104L225.3,101.4L223.9,98.49L223.3,97.42L221.6,94.98L219.9,92.55L218.6,90.38L217.9,89.72L215.8,89.43L211.7,88.93L210.2,88.67L209.1,89.31L207.9,89.81L206.8,88.86L205.9,87.34L205.5,86.04L205.7,84.71L205.8,82.74L205.1,80.83L204.4,79.87L202.5,79.14L200.2,77.51L199.5,74.53L200.7,70.25L202.5,67.18L203.8,65.92L204.5,64.78L204.7,63.81L204.5,62.87L203.7,61.89L202.5,60.95L201.9,59.74L202.2,57.19L202.9,53.52L204.2,50.56L205.9,48.95L207.4,47.76L207.9,46.67L208,45.11L207.9,43.62L208.3,42.56L208.9,41.69L209.6,40.93L210.5,40.09L211.6,39.86L212.9,40.56L214.7,42.39L217.3,46.01L218.8,48.35L219.3,49.08L220.7,50.47L221.8,51.02L223.9,50.17L225.8,49.15L226.5,48.49L226.9,47.53L226.6,45.87L226.2,44.78L225.7,43.42L225.1,41.03L224.7,37.26L224.2,36.05L224.6,35.92L225.5,36.15L226.4,36.26L227.7,35.42L229.5,33.84L232.7,31.42L233.4,29.81L234,28.02L234.9,26.9L236.9,26.57L238.8,25.99L240.2,24.7L242.3,23.59L244,22.91L244.8,22.26L245.4,21.34L247.3,18.65L248.9,17.01L250.3,15.33L250.7,14.24L251.8,14.44L253.5,15.2L255.2,15.88L256.5,16.91L256.8,17.97L256.9,18.82L257.5,19.26L258.1,19.33L259.1,19.13L260.7,19.09L262.7,17.7L265.6,15.37L268.2,14.65L269.5,15.2L270.6,16.91L271.6,18.55L272.4,19.13L273,19.16L273.2,19.16L274.4,18.82L274.5,18.82L275.5,18.89L276.5,19.43L278.2,19.47L280.5,19.06L280.7,18.89L281.8,19.13L283.2,19.84L284.3,20.73L286.1,23.62L287.2,24.36L289.4,25.41L290.5,26.3L291.7,27.75L292.3,28.63L293.6,30.21L295.1,32.8L295.4,34.85L295.7,36.59L296.3,37.42L296.8,37.52L297.2,37.23L297.7,36.45L297.9,35.12L297.8,32.8L297.4,30.89L296.8,30.28L296.6,29.61L297,28.73L297.8,28.32L298.8,28.59L300.5,29.67L302.4,31.09L304.6,33.51L306.6,35.02L308.8,36.26L310.6,36.62L312,36.26L313.5,35.25L315,34.11L315.7,32.87L316.2,31.56L318.4,29.77L320.4,28.15L321.3,28.46L322,28.93L324.1,27.92L324.8,27.65L326.8,27.28L328.8,27.85L330.5,29.57L332.1,30.72L333.5,30.58L334.6,30.01L335.4,28.93L336,27.65L336.8,26.8L336.9,26.77L339.4,27.21L341,27.14L341.2,26.94L343.3,27.31L345.6,29.1L347,31.09L348.9,33.64L349.7,34.48L350.9,34.81L351.9,34.98L353.2,35.35L356.7,35.89L357.2,36.19L357.5,36.62L357.2,37.99L357.5,38.36L360.3,37.36L361.1,36.62L362,34.55L362.8,32.43L363.4,31.66L364.1,31.46L364.7,31.76L365.6,33L366.9,34.28L368.6,34.75L369.6,34.95L371.1,35.05L374.9,34.45L378.4,32.9L380.4,31.25L381.3,28.73L381.9,25.89L382.7,24.06L382.4,22.23L380.6,20.46L380,19.91L375.8,18.92L375.5,18.21L375.2,18.04L371.1,16.46L369,15.78L368.5,14.75L368.1,13.38L366.8,12.18L364.2,11.08L363.7,10.22L364.1,9.355L366.2,8.389L368.6,6.385L369.5,5.97L371.5,5.901L373.5,4.238L374.8,3.301L375.5,2.154L375.3,1.007L373.4,-2.516L372.8,-4.65L373.2,-6.017L374.3,-7.562L374.9,-8.371L375.7,-9.85L376.2,-10.66L378.1,-10.98L380.5,-11.12L382.1,-10.77L384.4,-10.59L386.5,-10.31L387.5,-10.06L388.3,-10.52L388.9,-11.33L388.8,-12.39L388,-13.42L385,-14.76L383.7,-15.86L382.6,-15.75L380.9,-16.07L379.4,-16.82L378,-17.07L377.6,-18.1L377.8,-19.52L378.4,-20.31L379.4,-20.73L380.5,-20.52L381.7,-21.13L382,-21.45L382.1,-21.91L381.9,-22.56L381.4,-23.09L380.6,-23.23L379.7,-22.77L378.6,-22.48L376.8,-23.13L375.3,-23.95L375.4,-24.67L376.5,-25.78L377,-26.68L377,-27.9L377,-29.34L377.4,-31.04L378.4,-32.19L379.6,-32.8L382.9,-31.68L387,-30.67L387.7,-30.82L387.8,-31.36L388.3,-31.83L393.9,-32.05L395,-32.7L395.6,-33.2L401,-33.96L401.6,-34.69L402,-35.03L402,162ZM67.12,332L68.44,332.3L69.19,333L70.46,334.9L72.4,335.5L73.19,336L74.3,337L75.62,337.4L79.76,338L83.06,335.9L85.83,334.1L89.05,332L91.21,330.6L94.86,328.2L97.33,326.7L100.5,324.7L103.7,322.7L104.6,325.9L105.4,329.1L106.3,332.4L107.2,335.5L106.2,335.8L106.9,338.2L108.2,337.8L109.4,337.6L110,339.1L108.2,340.8L106.4,342.5L106,342.7L103.6,343.4L98.78,344.8L95.57,345.8L91.43,347L87.99,348L84.6,349L81.47,350L83.24,351.9L86.01,354.9L87.82,356.9L89.97,359.4L91.91,361.7L93.94,364.1L92.53,364.9L90.15,366.3L89.93,366.5L89.71,366.8L88.74,369.1L87.95,371L87.73,371.3L84.42,371.9L81.08,372.7L78.96,373.1L78.35,373.6L76.98,375.9L75.57,378.3L73.19,380.3L70.55,382.4L69.94,382.6L68.04,382.2L64.78,381.7L61.66,381.1L59.5,380.7L56.9,380.3L57.29,378.4L57.16,377.5L57.78,374.2L58.13,372.7L58.35,371.5L59.23,369.2L59.1,368.4L59.32,365.8L59.23,365.2L59.63,363.8L60.38,361.6L61.13,359.8L61.43,359L62.18,357.2L62.89,355.1L62.49,353.9L62.4,353.7L62.67,352.3L63.02,350.1L63.2,348.9L63.59,347.4L64.34,346L63.99,342.9L64.03,341.2L64.52,339.2L64.25,336.9L64.47,333.7L64.52,333.4L64.78,333L64.96,332.8L66.5,332.1ZM68.13,321.8L67.91,322.7L67.73,323.3L67.73,324.1L68,324.5L68.35,325.3L68.57,326.2L68.13,326.8L68.17,327.6L68.31,328.2L68.66,328.9L68,330.1L67.29,331.3L67.12,332L66.5,332.1L64.96,332.8L64.78,333L64.52,333.4L64.47,333.7L64.25,336.9L63.42,336.8L62.4,336.1L62.23,335.5L61.92,335.3L61.21,335.2L59.85,334.9L58.31,336L57.65,337.7L57.47,338.6L56.94,340.3L57.16,341.4L57.25,342.8L57.38,343.9L57.25,344.6L56.94,344.9L57.03,345.2L57.29,345.3L58.13,345L59.06,345.3L59.94,345.9L59.98,346.2L59.36,346.5L57.91,347.3L56.9,348.4L56.63,349.3L55.93,351.3L56.02,351.7L56.37,352L58.75,351.7L60.86,350.9L62.49,350.1L63.02,350.1L62.67,352.3L62.4,353.7L62.49,353.9L62.89,355.1L62.18,357.2L61.43,359L61.13,359.8L60.38,361.6L59.63,363.8L59.23,365.2L59.32,365.8L59.1,368.4L59.23,369.2L58.35,371.5L58.13,372.7L57.78,374.2L57.16,377.5L56.33,378.5L55.88,377.3L54.96,373.9L54.26,371.5L53.33,368.5L51.74,364.9L51.61,364L51.26,362.7L50.16,359.4L49.28,357.1L48.27,354L49.54,352.8L49.54,351.8L51.7,349.5L51.66,349.2L51.08,348.6L51.17,348.5L53.55,344.1L55.09,339.8L56.55,333.7L57.56,330.7L58.44,328.6L58.84,326.9L60.24,326.8L61.26,327L62.53,327L63.55,326.4L64.03,324.5L64.61,324.2L64.87,324.6L65.18,324.1L66.5,323.3L67.12,322.7L67.78,322.1ZM51.08,348.6L51.66,349.2L51.7,349.5L49.54,351.8L49.54,352.8L48.27,354L47.87,352.8L47.69,352.4L49.98,350.1ZM64.25,336.9L64.52,339.2L64.03,341.2L63.99,342.9L64.34,346L63.59,347.4L63.2,348.9L63.02,350.1L62.49,350.1L60.86,350.9L58.75,351.7L56.37,352L56.02,351.7L55.93,351.3L56.63,349.3L56.9,348.4L57.91,347.3L59.36,346.5L59.98,346.2L59.94,345.9L59.06,345.3L58.13,345L57.29,345.3L57.03,345.2L56.94,344.9L57.25,344.6L57.38,343.9L57.25,342.8L57.16,341.4L56.94,340.3L57.47,338.6L57.65,337.7L58.31,336L59.85,334.9L61.21,335.2L61.92,335.3L62.23,335.5L62.4,336.1L63.42,336.8ZM147.5,266.7L148.7,266.4L150.9,264.5L152.2,262.8L152.6,262.7L153.8,263.2L154.6,263.4L156.5,262.7L157.6,263.1L158.6,263.5L159.1,263.5L161.7,264.6L162.3,264.7L163.7,264.9L165.6,264.9L166.9,264.2L167.8,263.5L168.4,263.6L169,263.7L169.5,264L170,264.5L170.1,265.3L170.1,267.6L170.3,268.2L170.6,268.6L171.1,268.7L171.6,268.2L172.5,267.5L173.7,266.7L174.5,265.9L175,265.7L175.8,265.7L176.6,265.8L177,266.2L177,266.3L177.4,267.4L178.4,271.4L178.9,272L179.6,272.4L180.1,273L180.3,273.6L180.2,274.5L180.2,275.6L180.5,276.4L180.9,277.1L181.2,277.4L181.8,277.4L182.4,277.6L182.8,278.2L184.1,282.8L184.3,283.4L184.8,283.5L185.8,283.5L186.7,283.9L187.8,284.7L188.7,286.1L189.3,286.3L191.4,286.1L194.1,286.3L195.4,287L195.3,287.4L194.3,287.9L192.6,288.5L192,289.5L191.7,290.8L191.8,291.5L192.2,292.2L193.4,293.8L193.5,294.4L193.7,295.1L194,295.7L193.7,296.7L192.6,297.4L191.1,298.2L188.1,301.6L187.9,302.4L187.9,304.4L187.6,305L186.7,305L185.9,304.8L185.9,305.6L185.5,306.5L185.2,307.3L186.3,309.3L186.5,310.3L186.3,311.2L185.3,312.8L184.7,313.9L184.8,314.1L185.6,314.6L188.1,318.1L188.9,319.3L189.9,319L190.3,319L190.6,319.2L190.8,319.6L190.8,320.2L190.5,320.9L191.8,321.2L192.3,322.1L193.9,324.8L193.8,325.6L193.1,326.9L193.1,327.7L193.2,328.5L193.4,328.8L195.7,328.9L196.7,329.2L199,330.6L201.7,332.7L203.9,334.4L205.8,335.9L207.8,335.8L208.4,336.1L208.8,336.5L209.4,337.7L210.6,340.5L211.5,341.4L213,343.6L214.4,345.6L213.5,348.4L212.6,351.3L212.6,355L212.6,357L214.5,357L216.7,357.1L216.7,359.5L216.7,361.9L216.7,364.6L217.3,364.7L218.4,365.3L218.8,366.2L219.3,366.6L219.9,366.7L220.6,367.2L221.2,367.9L221.4,368.5L221.3,368.9L221.4,369.6L221.8,370.7L222.4,371.1L223.2,371.7L222.1,372.1L220.9,371.8L218.3,370.6L217.4,370.6L216.3,371L216.3,371.4L213.5,370.1L212.5,369.8L212.2,369.8L210.6,369.8L208.4,370.1L207,370.6L206.1,371.2L205.7,371.7L205.5,372L204.8,373.7L204,375.8L203.2,377.7L201.5,380.4L200.6,381.6L198.6,383.9L196.4,384.4L191.5,383.9L185.9,383.4L180.4,382.9L176.4,382.5L176,382.4L172,379.2L168.8,376.6L164.8,373.3L160.8,370L156.6,366.6L153.6,364.2L150,361L146.7,358.1L144.1,355.8L140.7,353.8L138.1,352.3L134.2,350L131.2,348.2L128.6,346.6L124.5,344.2L123.2,343.5L119,342.7L115,342L110.9,341.3L108.2,340.8L110,339.1L109.4,337.6L108.2,337.8L106.9,338.2L106.2,335.8L107.2,335.5L106.3,332.4L105.4,329.1L104.6,325.9L103.7,322.7L107.1,320.6L109.7,319.1L113.4,316.9L116.8,314.8L120.1,312.8L123.8,310.5L127.1,308.6L130.1,307.7L130.8,307.1L132.1,304.4L133.3,302.1L133.4,301.5L133.4,298.2L133.5,294.3L133.9,292.2L134.6,290.4L135.3,289L135.3,287.8L135.2,286.5L134.6,284.5L133.9,282.5L134,280.5L134.1,279.5L134.5,277.8L135.3,276.6L136,275.8L138.9,275L140.5,274.5L142.8,272.3L144.1,271L146,269L147.4,267.4L147.5,266.9ZM316.7,414L315.6,415.7L313.8,417.1L313.1,416.6L312.6,416.6L311.3,417.2L310.5,417.3L308.8,418.2L307.4,418.7L306.4,418.6L306,418.5L305.8,417.9L305.8,417.7L306.4,417.8L308.7,416.9L311.5,415.5L311.8,414.9L311.3,413.9L311.5,413.7L313.3,414.2L315.3,413.2L317,412.9L317.9,413.6ZM402,417.7L402,417.8L401.2,418L397.4,417.9L397,417.9L395.6,418.5L393.2,419L392.6,419.2L391.6,419.9L391,420.8L390.9,421.6L390.7,421.8L389.4,421.6L388.9,422.3L386.2,423.3L385.9,423.5L385.5,424.4L385.2,426.7L384.8,428.8L384.6,429.1L383.8,429.8L383.7,430L383.8,430.8L383.4,432.3L383.1,436.3L382.8,437.5L382.1,437.5L381.6,438.1L380.6,438.8L378.5,438.3L376.9,437.7L371.5,436.4L370.9,435.7L370.5,434.6L369.6,434.3L368.2,436L363.7,435L362.1,435.3L361.2,434.8L358.6,434.7L356.7,433.7L353.9,434.4L351.7,434.5L348.6,432.7L345.4,432.2L342.7,432.3L341.4,432.2L339.2,431.5L338.1,430.8L336.4,431.3L335.6,430.4L330.8,429.5L329.8,427.7L329.2,426.1L329.1,424.5L327.9,421.6L327.5,417.4L327.1,415.7L326.4,414.3L325.6,413L324.4,411.7L323.3,411.2L318.8,410.2L317.9,410.4L315.9,411L313.7,412.5L310.1,413.3L309.4,413.9L308.5,415.3L307.4,416.1L305.8,415.9L304.1,416.7L300.9,419L299.2,419.7L297.8,419.7L296.3,418.6L293,417.1L290.8,416.6L287.8,417L286.4,416.7L283.9,415L283.3,413.7L281.9,412.9L277.5,411L273.9,408.5L273.3,407.6L272.8,406.2L271.3,404.5L267.8,403.1L265.8,401.6L263.6,401.3L261.4,401.3L260.5,401.1L259.6,400.4L256.6,397.4L256.6,396.1L254.8,393.1L254.4,392L254,389.1L253.5,388.3L251.6,387.1L251.3,386.3L251.7,385.2L251.7,384.4L250.7,383.6L249.3,383.2L248.9,382.3L249.2,380.5L249,379.4L247.7,377.6L245.8,375.7L243.8,373L243.1,372.3L242.6,370.5L241.9,368.4L240.8,368.2L235.6,370.8L234,369.3L229.5,366.8L229.1,366.5L228.8,365.9L229.4,365.6L229.9,365.4L231.1,365.9L231.8,365.4L231.5,364.5L230.4,364L228.8,364L229.2,364.8L227.7,365.6L227.4,366.6L227.7,367.8L227.8,369.5L227.2,370.3L226.7,370.7L224.7,370.8L223.8,371.6L223.2,371.7L222.4,371.1L221.8,370.7L221.4,369.6L221.3,368.9L221.4,368.5L221.2,367.9L220.6,367.2L219.9,366.7L219.3,366.6L218.8,366.2L218.4,365.3L217.3,364.7L216.7,364.6L216.7,361.9L216.7,359.5L216.7,357.1L214.5,357L212.6,357L212.6,355L212.6,351.3L213.5,348.4L214.4,345.6L213,343.6L211.5,341.4L210.6,340.5L209.4,337.7L208.8,336.5L208.4,336.1L207.8,335.8L205.8,335.9L203.9,334.4L201.7,332.7L199,330.6L196.7,329.2L195.7,328.9L193.4,328.8L193.2,328.5L193.1,327.7L193.1,326.9L193.8,325.6L193.9,324.8L192.3,322.1L191.8,321.2L190.5,320.9L190.8,320.2L190.8,319.6L190.6,319.2L190.3,319L189.9,319L188.9,319.3L188.1,318.1L185.6,314.6L184.8,314.1L184.7,313.9L185.3,312.8L186.3,311.2L186.5,310.3L186.3,309.3L185.2,307.3L185.5,306.5L185.9,305.6L185.9,304.8L186.7,305L187.6,305L187.9,304.4L187.9,302.4L188.1,301.6L191.1,298.2L192.6,297.4L193.7,296.7L194,295.7L193.7,295.1L193.5,294.4L193.4,293.8L192.2,292.2L191.8,291.5L191.7,290.8L192,289.5L192.6,288.5L194.3,287.9L195.3,287.4L195.4,287L194.1,286.3L191.4,286.1L189.3,286.3L188.7,286.1L187.8,284.7L186.7,283.9L185.8,283.5L184.8,283.5L184.3,283.4L184.1,282.8L182.8,278.2L182.4,277.6L181.8,277.4L181.2,277.4L180.9,277.1L180.5,276.4L180.2,275.6L180.2,274.5L180.3,273.6L180.1,273L179.6,272.4L178.9,272L178.4,271.4L177.4,267.4L177,266.3L177,266.2L177,266L176.9,265L177.4,264.2L177.3,263.9L176.3,262.9L175,261.9L174.6,261.7L174.6,260.6L174.7,259.7L174.5,259L174.3,258.6L174.3,258.2L174.8,257.4L174.4,256.9L172.5,255.6L171.7,254.9L170.4,254.8L170.2,254.4L170.4,253.5L170.9,252.4L171.6,251.3L171.9,250.7L172.2,249.7L172.2,249L173.1,248L173.1,247.7L172.9,247.4L172.2,247.2L171.5,247.1L171.3,246.9L171.1,246.4L171.2,244.3L171,243L170.8,242L170.9,239.9L170.4,239.5L169.7,238.4L169.4,237.4L169.6,237L169.7,236.4L169.8,235.6L169.8,235L169.1,234.5L168.6,233.9L168.5,233.2L168.3,232.4L168,231.8L167.9,231.4L168.2,231.1L169.1,230.9L170.5,231L171.7,231.1L172.4,230.7L173.2,226.8L173.9,225.8L174.8,225.1L176.5,226.5L177.2,227L177.6,227L177.8,227.4L179.8,230.6L180.7,231.6L181.2,232.4L181.6,233.3L182.2,233.9L183,234.3L184,235.1L184.6,235.8L185.7,237.2L186.9,237.8L191.1,238.8L193.5,239.2L194.1,239.4L195.9,238.7L198.1,238.8L198.9,238.8L201.7,235.9L202.5,235L204.2,234.5L205.1,233.3L206.6,231.9L208.5,230.6L210.1,229.4L211.4,228.7L213.8,227L215.2,226.5L216.5,226.5L218.4,228.5L220,230.2L220.5,231L219.7,231.7L218.2,232.4L217.9,232.9L217.8,233.5L217.9,234.1L218.1,234.6L219.9,235.8L220.1,236.4L220.1,237L219.9,237.4L219.5,237.6L218.2,238L217.2,238.3L216.8,238.7L216.5,239.1L216.5,239.6L216.8,240.2L219.1,241.7L219.3,242.2L219.7,242.9L220.3,243.4L221.2,243.5L221.7,243.8L223.8,246.5L224.3,246.7L226.8,246.1L227.2,246.2L227.2,246.8L227.6,250.7L227.9,252.7L228.3,254.6L229,256.4L229.8,258.1L230.9,259.1L233.3,260.4L234.5,260.7L237.7,261L240.8,261.5L242.6,262.1L243.2,262.5L243.6,263.1L245.1,266.1L247.5,268.2L252.4,271.3L254.7,272.3L262.6,274.3L267.8,274.2L282.3,270.4L287.1,269.4L288.9,269.4L287.8,270.2L286,270.6L287.1,271.2L288.8,271.2L289.6,271.2L290.2,270.7L290.2,269.9L290.2,269.1L289.4,265.6L288.9,263.1L288.9,263.1L292.3,263.3L293.6,262.9L295.6,262.1L297,261.6L297.8,261.5L298.5,261.1L299.1,260.7L300.3,257.3L300.9,256.4L303.1,254.5L305,253.2L306.8,252.2L309.3,251.4L312.5,251.5L315,251.7L316.5,251.7L317.2,251.8L317.7,251.7L318,251.5L318.4,250L318.9,249.5L319.8,249.1L321.1,249.1L322.6,249L323.9,249.1L325.5,249.6L327.6,249.7L329,249.6L329.8,250.2L330.4,250.9L330.7,251.6L330.8,252.4L330.8,253.1L331,253.4L331.8,253.8L333,254.1L335.3,254.4L337.5,255.1L338.6,255.6L340.2,256.3L342.1,258.1L342.8,258.4L343.6,258.6L344.2,258.5L345.6,257.8L346.8,258.4L347.5,258.3L348.9,257.8L350.4,258.4L354.1,260.4L354.5,260.3L354.8,260.5L355.1,261L355.3,261.5L355.6,263.3L356.7,264.5L358,265.6L359.5,266.2L362.7,267.7L364.1,268.9L365.6,271L367.3,273.7L367.5,273.9L372,273.8L377.1,273.8L377.7,274.9L377.5,277L377.7,279.2L378.2,280.7L378.2,282.1L377.8,282.8L377.5,283.6L377.4,283.9L378.1,284.5L378.7,285.6L378.8,287.2L378.5,288L378.5,288.7L378.8,289.3L379,290.3L379,290.9L378.6,291.5L378.3,292.3L378,293.2L377.9,293.9L377.3,294.3L376.8,294.5L376.9,295.5L377.1,296.3L377.4,297.2L377.1,297.9L376.9,298.6L376.4,299.8L376.6,300.8L376.1,301.6L375.5,302.3L375.1,302.9L375,303.8L374.5,304.1L373.7,304.8L373.2,305.3L372.4,305.4L372.3,305.8L372.3,306.2L372.7,306.4L373.2,307.3L374.2,308.7L371.2,308.9L370.3,310.2L369.3,312.1L369.8,315.8L369.3,317.7L369.6,318.8L370.4,319.5L371.4,319.9L373.2,319.9L374.5,320.3L374.6,320.7L373.9,321.5L372.7,322.8L372.1,323.4L370.2,326.1L370.2,327.3L370.4,328.2L371.2,331.1L372,334L373.5,339.1L373.5,340.2L373,342.8L373,344.4L373.2,346.5L373,347.5L373.4,349.9L373.8,350.1L377,350.5L379.8,350.9L383.7,351.5L384.8,352.9L385.6,355.9L385.5,358.2L385.2,359.4L382.4,362.7L379.6,366L376.9,369.4L373.7,373.2L376,375.9L377.4,377.6L379.5,380L379.7,380.6L379.7,381.5L381.8,385.2L382.6,387.1L383.2,388.1L384.8,389.9L386.5,391.6L388.2,392.4L389.4,392.5L392.2,393.4L393.1,394.1L394.7,395.9L396.6,395.7L397,395.7L397.1,395.8L397.1,396.4L396.9,399.1L397.4,401.9L397.8,406.1L397.6,406.8L397.2,408.1L397.1,408.8L397,409.3L397.1,409.5L397.8,409.8L399,410L402,409.5L402,417.7ZM-29.87,275.2L-30.13,275.4L-30.75,274.7L-30.75,274.4L-30.13,273.9L-29.82,273.9L-29.74,274.1L-29.74,274.7ZM-38.24,291.6L-38.68,292.5L-39.16,291.8L-38.94,291L-39.51,289.7L-38.46,287.7L-38.46,286.8L-37.66,286.3L-37.84,287.9L-38.46,289.2L-37.84,290.2L-37.53,291.4ZM-40.13,269L-41.36,269.2L-41.14,268L-41.72,267L-40.79,267.6L-40.17,268.2L-39.87,268.3L-39.95,268.7ZM-41.01,272.5L-41.36,272.6L-40.92,271.8L-39.65,270.8L-37.75,269.9L-37.13,269.8L-36.08,270.4L-38.02,271.3L-38.55,271.8L-39.95,271.9ZM-42,256.1L-41.01,256.4L-40.62,256.3L-39.91,256.5L-39.69,257.4L-40.66,257.6L-42,258.3L-42,256.1ZM-30.04,284.7L-30.97,285L-31.23,284.9L-31.63,284.2L-31.1,282.5L-31.59,281.5L-31.63,281L-30.88,280.4L-30.4,279.4L-29.21,278.4L-26.04,277.1L-25.29,277L-25.33,278L-26.39,280.4L-27.31,281.6L-27.05,282.6L-28.55,282.9ZM160.8,203.6L160.8,203.3L160.7,202.8L160.3,202.5L159.8,202.3L158.8,202.4L157.9,202.1L157.2,201.5L157.1,201.1L157.4,200.7L157.2,200.4L156.1,199.6L154.2,197.8L153.2,197.4L152.8,196.2L152.4,195.9L151.5,195.8L150.6,195.9L150.4,196.1L150.1,196.3L149.3,197.7L148.9,198.2L147.6,198L146.6,197.6L145.7,197.5L144.1,197.3L142.2,197.3L141,198.3L140.4,198.2L139.5,197.7L137.9,197.3L137.1,197L139.5,193.9L140.2,192L140.2,190.9L140.2,189.5L139,186.6L138,182.5L136.9,178.1L136,176.8L132.5,175.3L131.6,173.6L128.9,171.4L125.1,170.4L124.3,170L121,167.2L118.4,165.4L119,164.3L119.7,163.1L120.5,162.9L122.9,163.3L125,163.8L126.6,163.5L128.5,164.4L130.2,165.4L131.9,166.2L135.3,166.9L136.5,167.8L138,168.8L143.8,169.2L144.2,169.1L144.6,169L146.6,168.6L148.2,168.7L150.1,169.8L151.2,169.8L152.4,169.6L154,170.2L155.2,170.9L155.4,171.6L156.5,172.6L159.6,174.2L162.2,175L163,175.7L164.9,176.7L165.2,177L165.1,177.4L164.5,178.2L164.4,178.8L164.7,179.2L165.5,179.6L167.1,179.7L167.7,179.2L168.9,178.8L170,178.2L171.6,177.4L173.8,176.6L174.7,176.6L175.5,176.9L176.1,177.3L177,178.8L178,176.7L178.3,176.5L179.2,176.9L180.7,177.5L181.8,177.9L182.4,178.3L184.1,180.3L186.7,180.2L187.8,180.5L188.5,180.8L188.7,181.2L188.3,183.1L187.6,185.2L187.7,185.7L188.7,186.4L190.2,187.2L191,187.9L191.5,188.4L192.7,188.9L194.1,189.2L194.7,189.2L195.4,189.7L197.1,190.6L197.4,190.8L197,191.4L196.3,192.5L195.8,193L195.2,193.1L194.5,193.3L194.3,193.9L194.3,194.7L194.4,195.2L194.6,195.4L195.2,195.6L195.8,197.1L196.8,197.9L198.3,198.8L199.6,199.8L200.3,200.7L200.2,201.4L199.7,202.8L198.6,203.9L197.7,204.2L197.4,204.1L196.7,203.8L195.5,202.9L194.2,202.2L193.1,202.4L192.5,202.7L191.1,202.3L189.6,201.7L188.7,201.1L188.4,200.7L188.6,199.9L185,198.5L183.3,198.1L182.5,198.5L179.9,200.6L179.6,200.9L177.5,201.1L177.5,201.3L178,201.8L177.9,201.9L174.5,202L173.4,202.3L170.4,201.9L169.4,202.1L168.5,202.4L166.5,202.8L165.1,203.2L163.3,203.5L161.4,203.5ZM-42,350.5L-37.36,351.6L-33.79,354L-32.77,354.3L-30.22,354.2L-28.55,355.6L-21.85,356.3L-18.29,357.8L-16.26,359L-15.03,359.4L-13.97,359.4L-12.52,358.9L-10.66,358L-8.683,356.8L-4.543,353.7L-3.09,353.2L-2.121,353.3L-0.931,353.3L-0.447,352.5L0.17,351.9L0.522,351.2L1.183,350.5L3.297,350.2L7.613,348.9L7.129,349.5L3.209,351L4.882,351.2L6.6,350.7L8.582,350.4L8.934,349.7L9.199,348.5L9.595,348.4L10.92,348.6L14.97,350.4L15.98,350.5L18.84,349.5L19.42,349.2L20.34,349.8L22.46,352.1L21.71,352.1L19.46,350.1L19.29,351.1L18.01,352.8L19.59,353.6L20.91,353.8L21.62,354.8L22.06,355.7L23.34,355.3L24.26,354.1L23.78,353.5L23.43,352.8L23.86,352.8L24.75,353.3L27.3,355.5L28.18,356L29.15,355.9L31.26,355.3L31.84,355.4L34.61,354.6L34.96,355.2L35.41,355.8L37.65,355.1L41.17,355.1L44.08,354.4L47.43,352.6L47.69,352.4L47.87,352.8L48.27,354L49.28,357.1L50.16,359.4L51.26,362.7L51.61,364L51.74,364.9L53.33,368.5L54.26,371.5L54.96,373.9L55.88,377.3L56.33,378.5L55.66,379.2L54.26,381.4L52.8,388.6L50.73,394.2L50.51,397.7L50.16,398.9L49.15,400.7L47.96,402.4L45.8,401.5L42.32,398.5L40.29,395.6L38.13,393.8L36.06,391.3L35.49,389.5L35.54,388.3L34.61,385.6L33.95,384.2L31.44,381.2L30.74,379.6L30.16,378.9L29.64,377.9L28.71,374L27.7,371.6L26.6,372.2L26.77,373.3L25.8,374.7L25.19,376.4L25.67,377.8L27.7,379.8L28.14,380.7L28.62,382.7L28.53,385.4L28.84,386.3L30.38,388.2L30.96,389.4L31.26,390.4L31.79,391.3L33.29,393L35.49,396.3L37.56,398.5L39.1,399.5L39.72,400.6L39.85,403.3L39.77,404.6L41.09,407L41.57,408.3L42.85,409.3L43.42,410.4L43.95,412.3L44.74,417.8L45.89,419.1L49.28,426.3L52.19,430.8L53.59,434.2L55.71,438.3L59.89,447.3L62.36,450L63.33,451.6L65.13,452.7L67.07,454.5L65.22,454.3L64.78,454.4L64.12,454.7L63.81,455.7L63.68,456.6L63.9,461.1L64.39,463.4L66.02,467.7L67.25,469L67.86,469.8L68.66,470.4L72.53,471.9L74.82,475L79.89,478.9L80.37,480L80.37,480.2L80.37,480.2L76.36,480.3L72.36,480.3L68.35,480.3L64.34,480.3L60.33,480.3L56.33,480.3L52.27,480.3L48.27,480.3L44.26,480.3L40.25,480.3L36.24,480.3L32.23,480.3L28.23,480.3L24.17,480.3L20.16,480.3L16.16,480.3L13.87,480.3L14.26,479.1L14.53,478.3L14.22,477.7L13.47,477.5L12.94,477.7L11.75,480.2L11.14,480.3L9.683,480.3L5.014,480.3L0.346,480.3L-4.323,480.3L-8.991,480.3L-13.66,480.3L-18.33,480.3L-23.04,480.3L-27.71,480.3L-32.38,480.3L-37.05,480.3L-41.72,480.3L-42,480.3L-42,350.5ZM29.5,296.1L29.59,296.4L30.38,296.9L31.44,297.3L32.06,297.3L32.85,296.9L33.99,296.4L35.36,296L36.06,296.3L37.03,296.3L37.74,296.2L38.22,296.5L38.62,297.1L38.71,298.5L38.84,298.6L39.46,298L40.56,298.3L41.31,298.4L41.92,298.1L42.27,298L42.72,297.9L43.2,297.6L43.64,297.2L44.08,297.3L44.83,297.8L45.31,297.7L45.53,297.9L45.89,298.8L44.48,299.1L43.11,299.1L42.32,299L41.57,299.1L39.32,301.5L38.09,302.3L36.64,302.8L35.18,303.1L34.44,303.1L33.77,303.5L33.34,304L33.34,304.6L33.11,305L32.32,304.9L31.97,304L31.4,303.7L29.99,303.9L29.28,303.8L26.99,303L26.29,302.7L25.85,301.9L24.66,299.3L24.48,297.4L25.58,297.9L26.6,297.3L27.61,296.3L28.8,295.9ZM-42,153.1L-39.29,152.7L-38.9,153.1L-35.15,155.2L-33.52,155.2L-32.16,155.6L-31.67,156.2L-31.32,156.3L-29.56,155.8L-28.77,157L-27.53,158.6L-25.42,159.4L-23.57,159.9L-22.95,160L-20.97,159.9L-21.28,164L-22.47,165.9L-24.23,165.3L-26.52,165.8L-27.71,167.9L-28.41,168.6L-29.03,169.3L-29.43,172.1L-29.52,176.6L-30.35,177.2L-31.14,177.3L-34.45,181.3L-32.55,182.4L-31.72,183.3L-30.31,185.6L-28.37,188.3L-27.97,189.6L-27.97,189.6L-29.6,189.3L-30.18,189.4L-30.57,189.8L-31.32,189.7L-32.29,189.7L-33.26,190.2L-33.83,190.3L-34.58,189.9L-35.95,188.6L-36.78,187.7L-37.4,187.5L-38.02,187.8L-40.22,188.1L-40.75,188.6L-41.8,189.2L-42,189.2L-42,153.1ZM9.593,-42L10.83,-41.24L11.58,-39.96L12.24,-37.88L13.52,-35.85L16.25,-34.11L18.27,-32.95L18.67,-32.41L18.8,-31.79L18.67,-30.42L18.14,-28.76L17.79,-27.83L18.62,-27.47L20.69,-27.58L23.25,-27.25L26.29,-25.42L26.33,-24.6L25.98,-23.84L26.2,-23.06L26.55,-22.41L29.19,-20.38L29.46,-19.77L29.5,-18.77L29.41,-18.06L28.67,-17.92L27.87,-17.57L26.55,-16.71L26.02,-15.51L23.86,-13.8L22.54,-13.06L21.49,-13.03L18.98,-13.38L18.05,-14.19L17.7,-14.97L16.73,-15.29L15.45,-15.33L13.69,-15.19L13.29,-14.97L13.03,-14.05L12.28,-12.46L11.71,-11.54L12.19,-11.01L12.9,-9.85L14,-8.406L15.1,-7.105L15.45,-6.333L15.45,-5.772L14.92,-5.105L15.01,-3.775L16.11,-2.027L15.72,-1.747L15.63,0.38L15.63,2.676L15.94,3.197L16.51,3.648L16.99,4.48L17.83,6.385L17.92,6.869L17.92,6.869L15.59,6.731L12.81,6.8L11.22,7.906L10.61,7.63L9.551,7.353L8.318,7.975L6.688,9.838L5.587,10.97L4.486,12.59L4.134,13.45L3.473,15.06L2.856,16.87L3.209,18.14L3.693,19.33L3.825,20.59L4.045,21.61L3.385,22.33L2.988,23.38L1.843,23.21L0.39,22.19L0.126,20.73L-0.976,19.74L-1.724,19.2L-2.913,19.13L-4.807,19.61L-7.274,19.95L-9.124,20.05L-10.18,20.56L-11.68,21.07L-12.25,20.49L-13.09,18.82L-13.79,17.18L-14.23,16.46L-14.67,16.26L-15.16,16.29L-15.73,16.84L-16.17,17.35L-16.79,17.56L-17.76,17.97L-18.42,18.58L-19.21,20.08L-19.69,19.98L-20.22,19.64L-20.8,17.93L-21.63,17.56L-22.95,17.52L-24.58,17.15L-25.9,16.64L-26.39,16.77L-27.18,17.49L-28.02,17.59L-29.87,16.94L-30.22,17.25L-30.7,18.21L-31.32,19.13L-31.81,19.2L-32.11,18.96L-31.94,17.35L-33.04,16.77L-34.84,16.67L-36.12,16.91L-36.74,16.84L-37.09,16.53L-38.63,13.79L-39.47,13.62L-40.97,13.76L-42,13.61L-42,-42ZM248.4,428.2L248,429.3L247.7,428.9L246.7,427.1L247,425.8L246.6,424L246.8,423.5L247.9,423.3L248.2,423.4L247.8,423.9L248.5,424.9L248.6,426.6ZM177.6,227L177.2,226.5L177,226.2L178.2,225.9L180.2,225.2L180.8,225.6L181.4,226.3L181.7,226.9L181.7,228.1L181.9,228.3L183,227.9L183.3,228.4L184.1,228.9L185.4,229.5L187.3,228.6L188.2,228.4L189,228.4L189.4,228.7L189.6,229.6L189.4,230.7L189.2,231.3L189.6,231.8L191.1,232.9L191.8,233.5L191.5,234.5L192.6,237L193,238L193.5,239.2L191.1,238.8L186.9,237.8L185.7,237.2L184.6,235.8L184,235.1L183,234.3L182.2,233.9L181.6,233.3L181.2,232.4L180.7,231.6L179.8,230.6L177.8,227.4ZM227.2,246.2L226.8,246.1L224.3,246.7L223.8,246.5L221.7,243.8L221.2,243.5L220.3,243.4L219.7,242.9L219.3,242.2L219.1,241.7L216.8,240.2L216.5,239.6L216.5,239.1L216.8,238.7L217.2,238.3L218.2,238L219.5,237.6L219.9,237.4L220.1,237L220.1,236.4L219.9,235.8L218.1,234.6L217.9,234.1L217.8,233.5L217.9,232.9L218.2,232.4L219.7,231.7L220.5,231L220,230.2L218.4,228.5L216.5,226.5L215.2,226.5L213.8,227L211.4,228.7L210.1,229.4L208.5,230.6L206.6,231.9L205.1,233.3L204.2,234.5L202.5,235L201.7,235.9L198.9,238.8L198.1,238.8L198,237.3L198.1,236.2L197.9,235.6L197,234.7L197,234.3L197.2,234.1L197.9,234.2L198.8,234.1L199.2,233.8L198.3,232.6L197.4,231.8L196.7,231.3L196.6,231L196.6,230.7L196.7,230.5L197.9,229.8L198.1,229.2L198,228.5L196,227.5L194.5,227.9L193.2,226.8L192.4,225.9L191.3,225L190.4,224.5L189.5,223.3L187.9,222.2L186.9,221.8L187,221.6L187.1,221.4L187.5,221.2L190.3,221.3L190.7,221.1L190.8,220.5L191.2,219.8L191.7,218.7L191.6,217.7L188.9,216.2L186.8,214.8L185.4,212.9L184.4,211.2L184.5,210.7L184.8,210.1L186.9,208.5L187.1,208.1L187,207.8L186.3,207L185.3,206.2L185,205.6L184.4,205.3L183.2,205.3L181.1,204.2L180.7,204.1L180.6,203.9L180.7,203.7L182.2,203.3L182.2,203L181.7,202.5L180.9,202.2L180.1,201.4L179.9,200.6L182.5,198.5L183.3,198.1L185,198.5L188.6,199.9L188.4,200.7L188.7,201.1L189.6,201.7L191.1,202.3L192.5,202.7L193.1,202.4L194.2,202.2L195.5,202.9L196.7,203.8L197.4,204.1L197.7,204.2L198.6,203.9L199.7,202.8L200.2,201.4L200.3,200.7L199.6,199.8L198.3,198.8L196.8,197.9L195.8,197.1L195.2,195.6L194.6,195.4L194.4,195.2L194.3,194.7L194.3,193.9L194.5,193.3L195.2,193.1L195.8,193L196.3,192.5L197,191.4L197.4,190.8L198.7,191.2L198.9,192.1L199.1,192.3L199.6,192.2L200.5,191.8L201.2,192.1L202.2,193.3L203.5,194.5L204.2,195.3L204.4,195.8L205.1,196.3L206.1,197L206.8,197.9L207.5,200.2L208.2,200.8L210.7,201.7L211.5,201.8L214,202.1L214.8,201.9L216.1,200L217.2,197.9L218.3,197.5L220.2,196.5L221.3,195.6L221.8,194.6L222.9,192.7L223.6,191.6L224.7,192.5L226.6,195.1L229.4,199.3L230.1,200.5L230.5,201.8L230.9,203.5L231.5,205L234.3,208.6L235.6,210L237.6,211.7L238.3,212.1L239.2,212.2L240.9,212.2L242.5,212.9L243.2,213.4L244,214.1L244.7,214.8L245.5,217L242.8,216.3L240,216.4L238.4,216.8L236.9,217.5L235.5,218.4L234.6,220.1L233.9,224L232.8,227.7L232.8,229.4L233.3,231L233.2,231.8L232.7,232.1L232.1,232.8L231.2,236.2L230.8,236.9L230.3,237.3L230.1,236.9L230.1,236L228.9,235.2L228.3,236.1L227.9,237.9L227,239.9L227,240.2ZM186.6,211.6L186.7,211L186.4,210.8L186,210.8L185.7,211L185.7,211.7L186.1,211.9ZM180.1,204.9L179.9,205.1L179.5,204.9L179.3,204.5L179.4,204.1L179.8,204L180.1,204.1L180.2,204.5ZM402,378.7L393.7,379.5L392.4,379.3L387.8,377.8L382,375.9L378.3,374.7L373.7,373.2L376.9,369.4L379.6,366L382.4,362.7L385.2,359.4L385.5,358.2L385.6,355.9L384.8,352.9L383.7,351.5L379.8,350.9L377,350.5L373.8,350.1L373.4,349.9L373,347.5L373.2,346.5L373,344.4L373,342.8L373.5,340.2L373.5,339.1L372,334L371.2,331.1L370.4,328.2L370.2,327.3L370.2,326.1L372.1,323.4L372.7,322.8L373.9,321.5L374.6,320.7L374.5,320.3L373.2,319.9L371.4,319.9L370.4,319.5L369.6,318.8L369.3,317.7L369.8,315.8L369.3,312.1L370.3,310.2L371.2,308.9L374.2,308.7L373.2,307.3L372.7,306.4L372.3,306.2L372.3,305.8L372.4,305.4L373.2,305.3L373.7,304.8L374.5,304.1L375,303.8L375.1,302.9L375.5,302.3L376.1,301.6L376.6,300.8L376.4,299.8L376.9,298.6L377.1,297.9L377.4,297.2L377.1,296.3L376.9,295.5L376.8,294.5L377.3,294.3L377.9,293.9L378,293.2L378.3,292.3L378.6,291.5L379,290.9L379,290.3L378.8,289.3L379.8,289.2L380.2,289.7L380.8,290.4L382.2,291.8L383.2,292.1L384.4,292.4L385.9,292.2L387,291.9L387.6,292L388.9,292.9L390.4,294.3L390.9,294.9L391.1,295.8L391.6,296.1L392.6,295.2L393.5,294.9L394.4,295L395.3,295.1L396.3,294.8L396.7,294.6L398.3,293.4L399.8,292.5L400.7,291.9L401.1,290.1L401.5,289.1L402,288.5L402,378.7ZM402,288.1L401.9,287.7L401.6,287.1L401.4,286.3L401.6,285.9L402,285.8L402,288.1Z" fill="#D8E2E7" stroke="#3F464B" stroke-width="0.85" vector-effect="non-scaling-stroke"/><path d="M177,226.2L176.6,225.5L174.4,223.3L172.5,221.5L171.1,220.8L169.8,220.9L167.7,221.2L166.9,221.1L165.1,220.3L163.5,219.4L163.7,219.1L164.1,218.8L163.7,217.6L162.8,215.8L162.9,215.2L162.6,214.3L162.3,213.7L163.5,212.2L164.1,211.1L164.2,209.9L163.9,208.7L163.1,206.5L162.6,205.9L161.7,205.3L160.9,204.3L160.8,203.6L161.4,203.5L163.3,203.5L165.1,203.2L166.5,202.8L168.5,202.4L169.4,202.1L170.4,201.9L173.4,202.3L174.5,202L177.9,201.9L178,201.8L177.5,201.3L177.5,201.1L179.6,200.9L179.9,200.6L180.1,201.4L180.9,202.2L181.7,202.5L182.2,203L182.2,203.3L180.7,203.7L180.6,203.9L180.7,204.1L181.1,204.2L183.2,205.3L184.4,205.3L185,205.6L185.3,206.2L186.3,207L187,207.8L187.1,208.1L186.9,208.5L184.8,210.1L184.5,210.7L184.4,211.2L185.4,212.9L186.8,214.8L188.9,216.2L191.6,217.7L191.7,218.7L191.2,219.8L190.8,220.5L190.7,221.1L190.3,221.3L187.5,221.2L187.1,221.4L187,221.6L186.9,221.8L187.9,222.2L189.5,223.3L190.4,224.5L191.3,225L192.4,225.9L193.2,226.8L194.5,227.9L196,227.5L198,228.5L198.1,229.2L197.9,229.8L196.7,230.5L196.6,230.7L196.6,231L196.7,231.3L197.4,231.8L198.3,232.6L199.2,233.8L198.8,234.1L197.9,234.2L197.2,234.1L197,234.3L197,234.7L197.9,235.6L198.1,236.2L198,237.3L198.1,238.8L195.9,238.7L194.1,239.4L193.5,239.2L193,238L192.6,237L191.5,234.5L191.8,233.5L191.1,232.9L189.6,231.8L189.2,231.3L189.4,230.7L189.6,229.6L189.4,228.7L189,228.4L188.2,228.4L187.3,228.6L185.4,229.5L184.1,228.9L183.3,228.4L183,227.9L181.9,228.3L181.7,228.1L181.7,226.9L181.4,226.3L180.8,225.6L180.2,225.2L178.2,225.9ZM180.1,204.9L180.2,204.5L180.1,204.1L179.8,204L179.4,204.1L179.3,204.5L179.5,204.9L179.9,205.1ZM186.6,211.6L186.1,211.9L185.7,211.7L185.7,211L186,210.8L186.4,210.8L186.7,211Z" fill="#8B341D" stroke="#2C160F" stroke-width="1.1" vector-effect="non-scaling-stroke"/></svg>