<svg xmlns="http://www.w3.org/2000/svg" viewBox="0 0 360 440" width="360" height="440" role="img" aria-label="Regional map with Bangladesh highlighted"><rect width="100%" height="100%" fill="#7FA6D6"/><path d="M344.8,387.6L345,388.2L344.9,389.6L344.4,391L344.6,391.6L344.2,392L343.4,389.4L342.4,388.3L342.2,387.8L342.8,387.9L343.8,387.1L344.3,387.1ZM402,376.3L401.8,376.3L400.4,377.7L398.6,378.2L397,379.7L395.2,381L394.1,381.1L393.1,381.4L392,383.6L390.1,383.8L386.7,385.6L385.6,386.4L384.6,386.8L383.1,387.5L382.8,387.2L382.3,386.6L381,386.3L380.4,385.6L380.2,384.7L380,384.3L379.8,384.8L379.6,387L379.3,387.5L378.8,387.7L377.7,387.1L376.7,385.8L375.2,386.7L375.7,386.8L376.4,386.7L376.9,386.9L377.3,387.8L377.3,388.2L377.1,388.7L375.7,388.8L373.9,388.6L373.6,388.7L375.2,389.5L376.7,390L377.4,390.5L377.4,390.9L376.5,391.6L375.9,392.4L375.9,393L375.9,393.5L375.1,394.1L374.6,394L373.3,393.1L369.6,389.6L370.2,390.6L374.1,394.5L374.7,395.8L374.9,396.7L374.4,397.2L373.8,397.7L372.5,397.8L370.4,396.3L367.1,392.8L366,392.3L369.3,396.3L369.9,397.3L370.5,398.4L370.3,399.1L370,399.7L362,403.4L360.8,405L359.8,406.9L358.3,408L357.4,409L354.7,409.6L353.2,409.4L354.7,407.6L353.8,406.9L353.7,402.2L354.1,397.1L354.8,394.6L355.8,394L357.1,393.5L357.1,393L357,392.4L356.3,391.5L355.6,391.1L354.5,390.9L353.6,389.9L353,389.9L351.9,390.3L351.3,389.8L351.1,389.1L350.2,388.2L349.1,387.3L349.6,387.2L350.2,386.7L350.8,386.1L352.3,386L353.8,386L354.2,385.8L354.8,385.1L355.8,384.3L356.6,383.8L356.7,383.4L356.4,382.5L356.2,381.5L356.6,381.2L357.9,381.4L359.4,381.8L359.7,382L360.6,380.9L360.9,380.7L361.4,380.7L362.9,380.5L364.4,380.2L365.1,380.3L365.7,381.1L366.2,381.8L366.5,381.9L367.2,381.5L367.9,381.9L369.2,382.6L369.9,382.6L369.5,381.1L370,380L369.9,379.7L369.2,379.2L366.7,377.2L366.3,376.5L366.3,375.6L366.2,374.2L366,373.3L366.1,372.8L366.2,372.4L366.7,372.2L367.1,372.2L367.4,371.8L368,370.9L369.2,371L370.8,371.5L372.1,371.8L372.8,371.7L372.9,371.6L372.9,371.1L373,369L373,368.5L374,368.3L375.5,368.3L376.4,368.2L377.1,367.3L379.1,366.9L380.6,365.8L381.9,364.5L382.5,364.2L383.3,364L383.9,364L384.7,364.7L385.3,364.3L386,363.4L386.4,362.6L386.6,361.3L386.5,359.2L386.1,357.7L385.7,356.4L385.7,355.2L386.5,352.8L387.2,350.2L387.1,349.2L386.3,347.6L385.5,345.6L384.7,343.4L384.3,343.1L384.1,342.4L383.9,341.7L384.3,339.5L384.4,338.7L385.4,337.7L385.9,336.5L386.4,335.2L386.2,334.6L386.1,333.2L386.3,332.5L386,331.9L385.7,331.1L385.9,330.6L386.6,330.2L387,329.4L387.6,328.5L387.8,327.7L387.4,327L386.7,326L385.5,325.1L384.1,323.9L383.3,323.2L382.8,322.5L382.2,321.6L382,320.9L382.2,320.5L384.3,319.4L384.7,319.1L384.9,318.5L384.7,317.9L384.2,317.6L383.5,317.4L382.6,316.7L380.8,315L380,314.6L379.1,314L378.7,313.5L378.2,312L378,311.9L377.5,312.3L376.8,312.8L376.3,312.7L375.9,312.3L375.6,311.7L375.1,311L374.5,310.3L374.4,308.2L374.3,307.5L374,306.5L373.6,306.2L373.1,305.9L372,304.1L371.2,303.2L368,300.7L367.6,300.3L366.8,299.3L365.3,297.9L364.3,296.7L363.5,295.5L363.2,294.4L363,293.6L362.2,292.4L361.5,291.4L360.8,291.1L360,291L359.3,290.4L357.9,289.1L357.4,288.2L357,287.7L357,287.1L357.3,286.1L357.7,285.6L357.8,285.1L357.4,284.8L355.9,284.2L352.6,283.2L351.3,282.5L350.2,281.6L349.3,280.9L345.3,278.2L344.1,277.8L343,277.3L342.7,276.8L342.7,276.4L343.2,276.1L344.3,275.4L344.8,274.6L344.6,273.6L344.2,272.5L344.4,272.1L344.8,272.1L345.5,272.1L347.1,272L350.5,273L351,272.9L352.9,271.1L353.6,270.1L353.8,269.2L354.1,268.7L355.1,267.8L355.1,266.9L354.7,265.8L354.2,265.4L353.7,265.2L352.4,265.4L352.1,265.1L351.9,264.3L351.8,263.8L351.4,263.2L349.9,262.7L348.7,262.6L348.4,262.3L348.9,261.8L349.7,261.2L350.4,260.9L350.9,260.3L351,259.7L350.3,259.2L349.5,258.6L348.2,257.5L346.3,256.3L345.2,255.9L344.6,255.9L342.6,257L341.5,257.6L340.6,258.8L339.6,259.1L338.6,258.6L337.6,258L334.5,257.2L333.2,256.6L330.6,252.6L330.2,251.8L330.5,250.8L330.6,249.5L330.9,248.7L331.4,247.8L331.5,247.1L331.4,246.4L331,246L330.5,245.9L330.1,245.7L329.8,244.8L329.6,244.9L329.3,246.1L328.9,246.5L328.4,246.7L327.9,246.5L327.7,246L327.6,245.3L327.3,244.2L327,243.5L325.9,242.9L325.3,242L323.6,240L322.2,238.6L321.5,237.4L322.1,236.9L322.8,236.3L323.6,235.2L324.5,233.9L324.9,233.1L325.1,232.8L325.6,232.6L326.2,232.7L327.2,233.2L328.7,233.9L330,234.7L330.5,235.5L331.2,236.3L331.8,236.5L332.1,236.4L332.9,235.9L333.6,235.3L333.7,234.6L334.3,234L335.2,233.1L335.6,232.4L335.9,232.3L336.3,232.5L337.6,234.5L337.9,234.7L338.3,234.4L338.8,232.8L339.5,232.2L339.6,232.3L342.9,235.3L343.3,235.3L343.6,235.2L343.9,234.7L344.2,233.7L344.6,232.5L345.7,231.9L346.5,231.8L346.8,232.3L347.6,233.1L348.4,233.2L350.3,231.9L350.9,231.7L351.6,231.7L352.2,231.6L352.9,231.1L353.5,230.5L353.7,229.2L353.9,228L354.3,227.5L354.9,227.2L355.9,226.8L358.2,225.7L358.8,225.1L359.3,224.8L360.2,225.3L361.3,226.3L361.9,227L362.3,227.7L362.6,228.4L364.3,228.9L365.4,229.7L366.1,230.3L366.8,230.3L367.5,230.1L368,229.6L368.8,229.6L369.8,229.7L370.2,229.9L371,231L371.3,231.2L372.1,231.1L373.4,230.7L374.5,230.5L375.5,231L377.3,232.2L376.8,233.1L376.4,234L375.6,234.7L374.9,234.9L374.6,235.8L374.4,237.2L374.6,237.9L375.1,238.1L375.6,238.6L375.8,239.2L375.9,240.5L375.9,242.1L375.9,242.6L376.3,242.5L376.7,242.3L377.5,242.5L378.5,242.9L379.1,243.3L379.6,243.3L380,243.7L380.2,244.4L380.7,245L382.1,246L383.2,246L384.2,247.4L385.2,246.9L385.6,247.5L387.6,247.3L389.1,246.8L389.6,246.9L390.9,248L391.7,248.7L391.7,248.7L391.1,248.8L389.7,248.8L388.5,250L387.6,250.5L386.3,250.9L384.9,251.5L384.5,252.7L384.4,253.6L384.2,254.5L381.9,255.8L381.3,255.7L380.9,255.2L380.2,255.3L379.7,255.6L379.2,255.5L378.6,255.8L377.8,255.7L377.1,255.3L376.7,255.2L376.2,255.2L376.1,255.7L376.8,257.7L377,258.6L374.6,261.3L374.9,263L374.2,264.3L372.7,265.4L370,268.1L368.7,268.2L367.8,268.8L365.7,273.3L365.7,274.8L365.4,275.9L365.5,277L364.6,279.1L363.6,280L363.5,281.1L364.8,283.5L364.9,283.9L365.7,285.2L366.1,286.1L366.7,287L368.8,289.4L369.7,290.1L370.8,290.6L372.9,292.7L374,294.1L373.5,294.9L373.7,296.9L372.2,296.3L372.4,296.6L374.2,297.6L376.8,301.3L379.1,303.2L381.4,305.3L382.2,307.2L384.2,308.5L386.6,310.4L386.5,310.8L387.1,311.4L388.7,312.4L389.6,313.4L390,314.4L390.5,314.6L391.2,314.3L391.9,314.3L392.3,314.3L393,315.4L394,316.4L394.5,317.3L394.8,317.2L395.2,317.3L395.2,318.1L395.4,318.6L396.7,320L397.3,321.4L398.9,323.6L400,324.9L400.9,325.6L401.8,326.2L402,326.7L402,376.3ZM375.4,408.4L375,408.4L374.8,408.1L375.9,407.3L375.8,407.9L375.8,408.1ZM382,387.5L381,388.2L380.9,387.6L381.8,387.2L382.1,386.9L382.3,386.9ZM378.4,257.6L378.2,257.8L377.6,257.2L377.2,256.9L377.5,256.1L378.2,257ZM387.2,252.4L385.5,254L384.8,254L385.4,252.2L385.7,251.7L386.7,252.4ZM386.2,256.1L385.6,256.5L384.7,256.4L385.7,255.8L386.2,255L386.6,254.8L386.6,255.4ZM380.3,258.4L379.9,258.5L378.9,257.5L379.4,256.9L380.5,257.3L380.7,257.5L380.7,257.8L380.5,258.3ZM-42,-33.13L-41.89,-32.88L-41.5,-32.08L-41.24,-30.23L-40.29,-30.11L-39.17,-29.75L-38.43,-30.11L-37.83,-29.89L-37.61,-29.01L-37.66,-28.21L-37.57,-27.55L-37.27,-27.35L-36.27,-27.77L-35.45,-27.82L-34.68,-27.43L-33.73,-26.86L-32.34,-25.28L-31.91,-25.06L-29.84,-24.95L-29.41,-24.62L-28.67,-24.62L-27.94,-24.93L-26.21,-24.4L-26.17,-24.13L-26.47,-23.74L-30.53,-21.6L-30.83,-20.94L-31.65,-20.09L-32.56,-19.63L-32.99,-19.6L-34.98,-20.45L-35.19,-20.26L-35.37,-19.9L-35.37,-19.52L-34.94,-18.64L-35.15,-18.07L-35.5,-17.66L-36.75,-18.01L-37.01,-18.26L-37.01,-18.5L-37.48,-18.5L-38.22,-18.26L-39.64,-16.7L-40.16,-15.91L-40.33,-15.42L-40.98,-15.14L-41.67,-15.03L-42,-14.75L-42,-33.13ZM327.3,371.9L327.1,373.1L326.4,372.6L326.5,372L326.8,371.7ZM325.1,368L325.2,368.3L324.6,368.1L324.3,368.2L323.6,368.1L323.3,366.4L323.3,366L323.8,366.2L324.6,367L324.9,367.6ZM276.9,417.8L276.8,418.7L276.3,418.7L275.8,419.3L275.6,419.3L275.2,417.5L275.6,415L275.9,414.6L276.2,415.3L277.2,415.6L276.8,417.1ZM297.5,263.9L297.4,264.7L297.7,264.9L298.1,264.5L298.6,263.7L299.2,263.2L299.8,263.1L300.5,263.7L301.2,264.9L301.9,265.7L302.2,265.7L302.5,266.3L302.5,266.9L302.2,268.1L301.6,269.4L300.8,271.1L301.1,272.5L302.2,273.7L303.5,274.4L305,274.2L305.7,273.8L306.3,273.3L306.9,273L307.6,273L309.9,273.4L310.6,273.8L310.7,274.5L310.4,276.6L310.7,278L311.4,279.6L311.4,281L310.7,283.3L310,285.6L309.3,286.6L308.8,287.3L308.6,287.8L308.6,288.2L309.1,288.9L309.7,289.7L309.8,290.6L309.7,291.6L309.4,292.9L308,295.9L306.9,298.6L307.5,299.1L308.5,299.5L309.3,299.9L310,299.7L311.6,298.1L313,296.9L314.7,295.7L314.8,295.6L316.3,294.8L316.9,294L317.3,292.9L317.8,292.5L318.5,292.8L319.4,292.3L320.4,291.2L321.2,290.7L321.8,290.8L322.8,291.5L324.2,292.8L325.5,293.6L326.6,293.8L327.2,294.3L327.1,295L327.4,295.5L327.9,295.7L328.1,295.6L328.1,295.2L328.6,294.7L329.7,294.1L330.8,293.7L331.9,293.6L332.6,293L333.1,291.6L333.8,290.6L334.4,290.1L335.1,289.8L335.4,289.5L335,289.1L335,288.7L335.4,288.2L336.4,288L337.9,288.1L339.5,288.5L341.5,289.4L342.8,289.6L343.4,289.3L344.6,290.6L346.4,293.5L347.9,295.7L349.1,297.2L350.5,298.3L351.8,299.1L352.9,300.2L353.8,302.2L353.1,305L352.9,307.4L353,310.4L353.8,312.6L355.4,314.2L356.3,315.5L356.6,316.4L357.8,317.3L360,318L360.9,318.6L360.5,319.2L360.5,319.8L360.8,320.6L361.5,321.2L362.7,321.7L363.5,322.2L363.7,322.7L363.6,323.6L363.4,324.8L362.9,325.8L362.1,326.4L362,326.9L361.9,327.7L361.9,329.3L362.4,330.4L362.6,331.7L362.3,332.8L362,335.1L361.9,336L361.7,336.7L361,337.4L360.1,338.1L358.9,338.7L358.2,339L358,339.1L357.5,339.8L356.9,340.5L356.4,340.5L356,340.1L355.8,339.7L355.6,338.8L354.5,338.3L353.3,338L350.9,338.5L348.9,338.7L346.7,338.4L344.6,338.8L343.8,338.9L342.8,338.8L341.8,338.8L340.9,338.7L339.2,338.1L338.5,338.1L337.2,338.6L335.7,338.9L334.4,339.2L332.4,340.2L330.9,341.6L330.5,342.6L329.7,343.6L328.7,345.2L327.4,346.8L326.5,347.5L326.8,347.9L326.5,348.4L325.2,348.6L324,348.7L323.8,349L324,352.1L324.3,353.3L325.1,354.7L325.6,355.4L325.9,357.7L326,359.7L327.5,360.9L328.4,361.9L329,362.7L328.8,363.2L328.5,364.8L328.8,366.8L331,371.2L331.2,371.5L330.9,371.5L330.6,370.7L329.5,369.3L329.1,367.8L327.8,366.1L327.1,365.4L326.9,366L326.5,366.6L325.2,365.7L324.1,364.8L323.1,363.1L323,363.5L322.7,363.8L321.6,362.5L320.4,361.4L319.3,361L318.7,360.6L318,360L316.7,359.4L313.3,360.3L309.1,359.6L307.5,360.3L306.8,359.9L306.4,359.1L306.8,357.9L306.9,355.2L307.4,353.3L307.1,351.9L307.4,351.2L307.5,350.3L306.9,349.9L303.9,349.2L303.2,348.6L302.4,349.3L298.8,349.7L297.5,350.2L296.2,351.3L295.9,352.6L296.6,353.5L297.1,355.1L295.8,358.4L295.6,359.4L296.1,363.6L295.9,365.8L295.2,367.3L294.1,368.7L293.6,371L292.7,372.1L291.5,374.5L290.7,377.5L290.2,378.9L289.8,381.5L287.4,385.4L286.9,387.6L286,388.5L286.3,389.1L286.3,390.2L286,393.1L286,395.6L286.3,396.9L287.5,399.5L287.2,400.2L287.1,401.3L288,401.8L288.8,401.9L292.7,400.7L294,401L294.5,402.1L294.9,403.1L295.5,408.5L295.9,409.5L296.7,410.4L297.6,411.4L297.9,411.3L297.9,410.9L298,410.5L298.8,411.5L299.4,413.4L301.5,423.4L302.1,424.7L302.5,426L301.3,425.3L300.9,423.1L300.6,422.2L300.1,422.1L299.4,422.1L299.4,421.7L299.9,420.9L299.8,420.1L299.1,419.4L297.9,419.9L298,421.5L298.5,422.7L300.5,425.3L301.1,426.5L301.9,426.8L303.1,426.6L304.4,427.7L305.5,428.8L308.2,430.4L309.9,430.2L311.6,429.8L312.8,429.9L314,430.4L315.4,431.7L317.6,435.1L321.2,437.9L320.8,438.6L320.7,439.6L319.2,441L319,441.9L318.5,442.9L317.5,443.5L316.7,443.6L316.1,443.5L315.8,443.3L315.2,442.3L314.9,442L314.7,441.9L312.9,442.6L311.1,443.3L310.8,444L310.3,444.8L309.8,445.1L309.4,445.2L309,444.7L308.3,444.1L307.8,443.6L307.9,442.7L308.9,441.3L309.1,440.4L308.9,438.8L308.7,437.9L308.4,437.8L307.9,437.7L306.5,437.8L305.8,436.8L305.5,435.7L305.1,435.2L304.6,435L303.6,435.4L302.8,435.2L300.2,434.2L299.2,432.6L298.6,432.5L298.1,432.7L298,433.1L297.7,434.9L297.4,435.5L294.5,431.7L292.4,430.2L292.6,427.4L292,426.9L291.3,426.9L290.7,426.1L291.2,424.4L290.4,424.7L289.2,424.7L288.3,424.2L287.6,421.9L287.2,421.3L286.2,420L285,420L284.5,419.5L284.6,418L283.7,417.1L282.5,416.3L281.5,415.9L280.5,413.5L279.7,412.9L279,412.5L278,412.8L277.7,413.6L277.1,414.5L276.4,414.4L275.7,413.9L274.9,411.5L274.7,410L274.9,407.3L275.9,404.9L276.5,401L277.4,398.5L277.9,397.7L278.8,394.3L280.5,390L280.6,389.1L281,388.1L281.3,387.1L281.3,385.6L281.1,384.7L281.1,384.3L281.5,383.7L282.7,382.7L284.3,381.1L286.3,378.9L288.3,375.4L289.3,373.4L289.8,372.7L290.2,372.4L290.9,371.7L291.4,371L291.4,370.6L290.3,366.8L289.6,365.6L289.2,364.1L289,363.1L288.8,362.1L288.9,361.2L288.5,360.6L287.6,359.9L286.6,358.8L286.1,357.1L286.1,356.1L285.5,355.2L285.3,354.3L285.7,353.5L286.1,352.8L286.1,349.5L285.9,348.5L285.7,346.8L285.1,345.5L284.2,343.9L283.2,342.7L280.7,340.4L278.9,338.8L278,337.4L276.8,335.8L276,334.7L275,333.2L274.5,331.2L274.2,329.1L274.3,328.4L274.8,327.9L275.5,327.5L276,327.4L277.4,326.5L278.5,326.5L278.7,326.3L278.8,325.9L278.7,323.9L278.7,321.3L278.9,319.2L279.1,317.8L281.9,316.2L282.4,315.5L282.7,314.7L282.7,314.1L282.5,313.5L282.1,313.2L280.3,314.6L280,314.3L279.1,312L278.8,311.3L278.3,310.5L277.8,309.3L277.7,307.3L277.3,306.3L275.1,304.1L274.1,302.9L272.8,301.3L271.2,299.3L269.5,297.4L268.8,296.2L268.5,295.9L268.4,295.5L268.9,294.2L268.7,292.9L267.9,291.2L267.5,290.1L267.6,289.7L267.2,289.5L266.3,289.6L265.4,288.8L264.6,287.1L264.5,286.8L264.8,286.8L265.8,287.1L266.2,287.1L267,286.7L268.1,286.3L268.8,286.1L269,285.9L269.1,285.5L268.5,281.6L268.6,280.8L269.7,279.1L269.5,277.4L269.9,274.9L271,273.2L271.9,272.4L272.2,271.2L272.6,270.9L273.3,271L274.9,271.9L275.6,272L276.5,272L277.5,271.9L278,271.8L281.2,270.9L281.9,270.8L282.5,270.9L283,270.9L283.5,270.5L283.9,269.8L284.3,267.5L284.5,267.1L284.9,266.7L285.6,266.5L286.4,266.5L287.4,267L288.1,267L288.8,266.8L289.5,266.5L289.8,266.1L290.1,265.6L289.9,264.7L289.4,263.5L289.5,263.4L290.4,263.6L291.7,263.9L292.6,263.8L293.3,263.6L293.9,263.1L294.7,262.6L295.5,262.7L296.1,263.1ZM296.9,396L296.8,396.2L296.3,395.9L296,395.4L295.8,394.9L296.5,394.9L296.9,395.4ZM296.9,397.4L296.9,398.1L296.7,398.9L295.6,399.4L295.2,398.7L295.3,397.7L295.5,397.4L296.5,397.5ZM292,434.5L291.7,434.6L291.3,433.6L291.9,432.2L292.4,433.9ZM279.1,417.4L279,417.6L278.4,415.3L279.3,415.9ZM275.7,403.9L275,404L275.1,403.3L275.3,402.9L275.6,402.8L275.8,403.5ZM285,421.6L285.3,423L284.8,422.7L284.5,422.1L284.5,421.2L284.6,421ZM-42,-0.159L-39.9,-1.241L-39.3,-1.268L-38.78,-0.622L-38.04,0.158L-37.05,0.964L-36.79,0.857L-36.36,-0.057L-35.5,-1.026L-33.94,-1.349L-33.03,-1.645L-32.13,-1.78L-29.32,-1.403L-28.41,-1.349L-26.52,-1.43L-25,-1.618L-23.8,-2.211L-23.15,-2.669L-22.16,-2.939L-20.9,-2.912L-20.21,-2.777L-20.17,-1.969L-20.34,-0.434L-20.51,0.642L-19.52,2.575L-18.87,3.487L-18.27,4.157L-18.14,4.666L-18.27,5.094L-19.05,5.496L-19.35,5.951L-19.48,6.432L-19.22,6.993L-18.74,8.809L-18.18,10.22L-17.36,10.91L-16.15,11.37L-15.51,11.26L-15.03,10.2L-14.25,9.396L-13.56,9.449L-12.48,9.422L-9.633,10.33L-6.87,11.71L-6.093,12.48L-5.791,13.34L-6.568,15.33L-6.525,16.57L-6.352,17.92L-5.704,18.93L-5.143,20.64L-5.013,22.04L-4.754,22.46L-4.582,22.96L-4.884,24.25L-5.1,25.57L-4.841,25.99L-3.977,26.65L-2.639,27.83L-2.38,28.82L-2.854,29.45L-3.718,30.21L-4.797,30.86L-5.143,31.15L-5.316,31L-5.834,30.32L-7.043,29.24L-7.906,28.69L-9.547,28.88L-10.5,28.67L-11.62,28.32L-12.7,28.38L-13.39,29.01L-13.82,29.66L-14.9,29.87L-16.41,30.37L-18.83,31.15L-19.95,31.02L-20.3,30.68L-20.04,30.24L-19.22,29.66L-19,28.98L-19.18,28.32L-19.91,28.14L-20.21,28.04L-20.56,27.91L-22.02,27.51L-23.23,27.67L-25.26,28.48L-29.06,30.6L-30.7,32.04L-31.91,34.18L-35.5,34.89L-37.96,36.11L-40.51,38.14L-42,39.09L-42,-0.159ZM55.78,396.8L55.05,397L54.44,396.2L54.31,395.8L54.44,395.6L54.61,395.5L54.83,395.5L55.09,396.3ZM54.66,403.9L55,404.8L54.01,404.2L53.36,403.7L53.1,403.2L54.48,403.7ZM55.95,394.6L57.08,394.7L58.33,394.6L59.19,394.8L60.66,396.7L64.67,400.1L66.88,403.5L67.05,404.2L67.35,404.8L67.87,405L68.34,405.3L70.5,408.6L70.76,409.3L70.72,410L70.85,410.5L71.45,410.8L72.14,410.9L72.62,411.4L73.22,414L73.22,414.8L73.35,415.2L76.12,419.3L76.29,419.8L76.25,420.1L76.33,420.5L76.85,421.2L77.71,423.1L78.1,423.5L78.62,425.2L78.66,428.5L78.49,429.9L77.97,431.7L77.37,433.4L76.68,434.6L75.77,435.7L72.7,437.9L71.8,438.3L67.78,439.7L64.85,441L62.08,441.4L59.36,440.7L57.29,439L56.26,436.4L55.52,433.7L54.44,430.8L53.66,421.7L53.28,419.1L52.63,415.8L52.71,414.4L53.15,413.1L53.15,416L53.53,416.4L53.84,416L54.14,412.9L54.35,411.6L55.43,408.3L55.48,407.6L55.26,406.4L55.3,405.7L56.95,403.3L57.33,402L57.55,400.5L57.46,399L57.16,397.5L58.5,398L59.23,398.5L59.97,398.9L60.57,398.7L61.26,398.7L60.79,397.8L59.23,397.1L56.69,396.6L55.91,396L55.61,395.5L55.74,394.9ZM-42,42.41L-41.93,42.32L-40.76,41.59L-38.65,40.11L-37.91,39.1L-36.79,38.61L-35.88,38.48L-34.63,38.14L-33.42,37.59L-32.34,37.18L-30.62,37.1L-27.9,36.87L-26.39,36.6L-22.89,36.4L-19.05,36.32L-18.57,36.29L-16.93,36.84L-15.81,37.28L-15.33,37.23L-13.48,36.16L-10.63,34.86L-9.331,34.29L-8.597,34.08L-7.518,34.08L-6.611,34.44L-5.704,34.94L-5.143,35.33L-4.452,35.09L-3.157,34.81L-2.077,35.02L0.341,35.93L0.686,36.37L1.247,38.55L1.679,38.74L3.061,38.24L4.183,38.5L5.436,39.2L6.256,39.88L6.774,40.61L7.378,41.8L7.594,42.73L7.853,43.87L7.81,47.05L7.378,47.56L7.033,48.23L7.119,48.82L7.508,49.29L8.285,49.6L9.019,49.8L9.408,50.29L9.926,52.09L10.31,52.35L11.18,52.35L12.82,51.96L14.2,51.34L14.8,51.22L14.93,52.91L15.76,53.55L16.88,54.3L17.35,54.55L17.35,54.55L17.91,55.88L18.73,57.88L19.3,59.18L19.9,60.66L20.2,61.4L20.76,62.67L20.55,63.36L20.16,64.4L18.86,65.17L17.57,65.75L17.27,66.05L17.14,66.51L16.53,67.4L15.32,68.13L14.29,68.06L13.64,67.86L10.23,69.15L8.674,69.1L7.422,69.93L6.515,70.69L4.701,71.52L3.449,71.55L1.593,71.04L-0.652,70.11L-1.559,69.55L-2.38,69.58L-4.409,69.45L-6.352,69L-8.683,68.44L-9.849,68.18L-12.22,67.7L-13.73,68.36L-15.16,68.94L-16.28,69.35L-17.23,71.14L-17.62,71.8L-18.05,72.71L-18.27,73.34L-18.1,74.12L-16.71,74.65L-16.15,75.41L-16.07,76.06L-16.54,76.74L-16.97,77.27L-16.97,77.75L-16.76,78.2L-16.41,78.55L-14.47,78.78L-13.3,78.78L-12.87,78.98L-12.79,79.61L-13.22,80.46L-14.86,81.16L-15.81,81.89L-16.11,82.86L-16.07,83.62L-15.76,84.14L-14.99,84.72L-14.25,85.39L-13.99,85.94L-14.12,86.69L-14.38,87.71L-15.2,88.91L-15.89,89.75L-15.94,90.05L-15.76,90.5L-15.25,91.17L-14.3,92.14L-13.13,92.91L-12.4,93.14L-12.18,93.33L-11.92,94.25L-11.84,95.19L-12.14,95.91L-11.58,96.51L-10.02,96.48L-8.77,96.73L-8.208,96.48L-7.863,96.68L-8.079,98.81L-7.906,100.1L-7.604,100.4L-6.352,101L-3.977,100.9L-2.552,101.5L-0.998,102.2L-0.178,102.9L0.168,103.5L0.082,104.4L-0.782,105.4L-2.164,106L-2.984,106.2L-6.956,108.2L-8.208,109L-9.158,110L-9.504,110.8L-9.676,111.5L-8.856,114.1L-8.683,115L-9.417,117.8L-9.59,118.9L-9.331,119.6L-8.511,119.9L-8.295,120.5L-8.208,121L-9.72,122.1L-11.23,123L-11.75,123L-13.22,124.7L-15.72,128.2L-17.02,129.4L-17.1,129.9L-17.23,130.5L-16.71,131.5L-16.63,132.3L-17.19,133.2L-18.1,134.1L-19.91,135L-22.2,135.8L-23.23,136.3L-24.01,138.6L-24.7,140.8L-25.05,141.6L-26.26,144.2L-28.41,148L-28.98,148.8L-32.3,150.6L-35.71,152.6L-36.32,153.4L-37.01,155.1L-37.66,157.1L-38.26,158.1L-40.42,160.4L-41.15,162.2L-41.37,163.4L-42,163.6L-42,42.41ZM153.4,164.6L153.9,165L154,165.6L153.9,166.3L153.4,167.7L152.9,168.7L152.4,170.9L151.9,174.6L152,175.2L153.4,177.3L154,179L154.1,180.1L153.4,181.9L152.8,184L152.4,184.5L152,184.7L150.3,183.9L149.1,184L147.7,184.4L146.2,184.4L145.1,184.1L143.6,185L142.1,184.5L141.2,184L140.5,182.5L140.3,182.3L137.3,183.9L136.5,184L134.6,183.1L133.1,182.3L132.5,182.1L131,181.8L129.7,181.6L128.2,181.1L126.4,181.8L125.6,181.7L124.9,181.2L124.6,180.2L124.5,179.3L123.9,178.7L122.9,178.5L121.6,179.1L119.6,179.9L119,179.7L118.4,179.5L118.2,179.3L117.9,178.4L117.6,178.2L117.2,178.2L116.4,178L115.4,177.4L112.3,175.8L112,175.1L112,173.6L111.8,173L111.4,172.3L109.9,171.7L106.9,170.6L105.2,169.7L104.4,170.1L102.9,170.5L102.1,171.3L101.1,171L98.74,170.2L97.49,170.1L96.71,170.4L96.54,170.8L95.59,171.4L94.68,171L92.91,170.4L91.31,170.1L88.94,169.4L88.68,168.3L88.25,167.3L87.69,167.1L85.53,167.3L83.59,166.2L81.47,164.7L80.56,164.2L80,164L79.48,164.2L78.88,164.6L78.36,164.7L77.24,164L75.77,163.1L73.96,162L71.89,160.5L71.02,159.6L70.63,158.9L70.16,158.3L68.34,157.3L66.88,156.5L65.15,155.5L64.85,155.3L64.2,154.7L63.21,154L62.34,153.8L62.08,154.2L61.91,154.6L61.18,154.5L60.05,153.8L58.84,153L57.94,152.3L56.99,151.5L56.77,151L57.16,149.3L57.72,147.8L58.2,147.5L58.93,146.5L59.23,144.8L59.19,143.4L59.97,141.3L60.96,139.2L62.73,136.8L63.51,136L64.37,135.5L65.97,133.8L66.31,133.5L67.05,133L67.74,132.9L68.26,133.2L68.82,134L69.47,134.9L70.24,134.9L71.19,134.1L73.14,130.7L75.86,130L78.41,130.4L80.65,130.9L81.34,132L81.77,133.2L82.03,133.8L82.77,134.5L85.96,136.2L87.82,137.8L90.36,139.8L92.31,140.7L93.99,140.8L94.94,141.6L96.37,143.2L97.62,145L99.13,146.7L100.2,146.6L101.6,146.1L103.4,145.4L104.4,145.7L105.3,146.2L105.6,147.1L106.2,148.7L106.9,150.4L107.9,151L109.1,151.9L109.7,152.6L111.9,153.9L112.3,154.4L112.7,154.7L113.2,155L113.7,155.2L114.4,155.3L117,154.5L117.6,154.6L118,154.8L118,155.1L117.6,156.2L117.2,157.8L117.6,158.5L118.6,158.9L121,159.1L124.3,159.1L125.2,159.8L126.2,161L127.2,163L127.5,163.8L128.1,164.1L128.9,163.7L129,162.9L129.1,161.7L129.7,161.3L130.2,161.6L130.7,162.6L132,163.4L133,163.8L133.9,163.7L134.3,163.3L134.8,161.7L135.5,161.4L136.4,161.6L136.7,161.9L137.1,162.6L138.2,162.9L139.3,163.3L140.4,163.8L141.8,165L143.6,165.3L145.7,165.2L146.8,165.3L147.6,165.4L148.3,165.3L150.4,164.4L151.3,164.3L152.4,164.4ZM364.4,-42L362.8,-41.13L362.2,-40.79L359.7,-39.45L358.4,-38.92L357.4,-37.72L356.6,-36.97L355.8,-36.64L354.3,-37.42L353.3,-37.36L349.9,-37.67L349.9,-41.16L347.7,-40.68L343.9,-39.87L340.5,-39.15L337.4,-40.82L335.2,-42L364.4,-42ZM-22.8,474.1L-23.06,474.1L-23.23,473.9L-23.19,473.6L-22.98,473.4L-22.67,473.4L-22.5,473.6L-22.59,473.9ZM-21.68,462.9L-21.85,463L-22.07,463L-22.16,462.8L-22.02,462.6L-21.9,462.3L-21.77,462.1L-21.59,461.9L-21.46,462L-21.46,462.1L-21.55,462.3L-21.59,462.6ZM317.3,482L314.2,480.7L312.9,479.1L312.2,478.8L311.6,478.3L312.3,476.8L311.9,475.2L311.6,473.8L309.4,471.2L308.3,469.4L306.2,467.6L305.4,466.5L304.6,465.3L305.1,464.9L305.6,464.6L305.1,463.7L304,462.2L303.4,460.4L303.4,457L301.7,452.3L300.2,445.8L300.5,443.5L300.1,441L299.2,438.6L297.9,436.9L297.4,435.5L297.4,435.5L297.7,434.9L298,433.1L298.1,432.7L298.6,432.5L299.2,432.6L300.2,434.2L302.8,435.2L303.6,435.4L304.6,435L305.1,435.2L305.5,435.7L305.8,436.8L306.5,437.8L307.9,437.7L308.4,437.8L308.7,437.9L308.9,438.8L309.1,440.4L308.9,441.3L307.9,442.7L307.8,443.6L308.3,444.1L309,444.7L309.4,445.2L309.8,445.1L310.3,444.8L310.8,444L311.1,443.3L312.9,442.6L314.7,441.9L314.9,442L315.2,442.3L315.8,443.3L316.1,443.5L316.7,443.6L317.5,443.5L318.5,442.9L319,441.9L319.2,441L320.7,439.6L320.8,438.6L321.2,437.9L323.3,438.3L324.1,438.7L326.4,442.4L329.5,445.1L330.8,446.1L331.8,446.5L333.1,447.9L334.4,449.7L337,454.6L337.4,456.8L337.6,460.2L337,465.2L336.3,467.7L336.5,468.8L337.4,470.6L337.2,472.3L337.3,473.8L337.3,477.7L337.8,478.9L338.5,479.6L341.7,481.9L341.8,482L317.3,482ZM346.7,480.1L346.1,480.2L345.8,480.2L345.5,479.7L346,478.6L346.2,478.4L346.7,479.6ZM299.5,449.3L299.2,449.6L298.3,449.4L298.5,447.5L299,447.2L299.7,447.6L300.1,447.9ZM294.2,435.2L295,436.5L294.6,437L294.4,437.2L293.9,437L293.4,437.5L293,437.6L292.5,436.7L291.9,436.4L291.8,435.7L292.6,435.6L293,435.9L293.9,435.4ZM311.8,477L311.2,477.2L311.2,476.9L311.3,476.5L311.7,476.1L311.9,476.3ZM321.5,237.4L322.2,238.6L323.6,240L325.3,242L325.9,242.9L327,243.5L327.3,244.2L327.6,245.3L327.7,246L327.9,246.5L328.4,246.7L328.9,246.5L329.3,246.1L329.6,244.9L329.8,244.8L330.1,245.7L330.5,245.9L331,246L331.4,246.4L331.5,247.1L331.4,247.8L330.9,248.7L330.6,249.5L330.5,250.8L330.2,251.8L330.6,252.6L333.2,256.6L334.5,257.2L337.6,258L338.6,258.6L339.6,259.1L340.6,258.8L341.5,257.6L342.6,257L344.6,255.9L345.2,255.9L346.3,256.3L348.2,257.5L349.5,258.6L350.3,259.2L351,259.7L350.9,260.3L350.4,260.9L349.7,261.2L348.9,261.8L348.4,262.3L348.7,262.6L349.9,262.7L351.4,263.2L351.8,263.8L351.9,264.3L352.1,265.1L352.4,265.4L353.7,265.2L354.2,265.4L354.7,265.8L355.1,266.9L355.1,267.8L354.1,268.7L353.8,269.2L353.6,270.1L352.9,271.1L351,272.9L350.5,273L347.1,272L345.5,272.1L344.8,272.1L344.4,272.1L344.2,272.5L344.6,273.6L344.8,274.6L344.3,275.4L343.2,276.1L342.7,276.4L342.7,276.8L343,277.3L344.1,277.8L345.3,278.2L349.3,280.9L350.2,281.6L351.3,282.5L352.6,283.2L355.9,284.2L357.4,284.8L357.8,285.1L357.7,285.6L357.3,286.1L357,287.1L357,287.7L357.4,288.2L357.9,289.1L359.3,290.4L360,291L360.8,291.1L361.5,291.4L362.2,292.4L363,293.6L363.2,294.4L363.5,295.5L364.3,296.7L365.3,297.9L366.8,299.3L367.6,300.3L368,300.7L371.2,303.2L372,304.1L373.1,305.9L373.6,306.2L374,306.5L374.3,307.5L374.4,308.2L374.5,310.3L375.1,311L375.6,311.7L375.9,312.3L376.3,312.7L376.8,312.8L377.5,312.3L378,311.9L378.2,312L378.7,313.5L379.1,314L380,314.6L380.8,315L382.6,316.7L383.5,317.4L384.2,317.6L384.7,317.9L384.9,318.5L384.7,319.1L384.3,319.4L382.2,320.5L382,320.9L382.2,321.6L382.8,322.5L383.3,323.2L384.1,323.9L385.5,325.1L386.7,326L387.4,327L387.8,327.7L387.6,328.5L387,329.4L386.6,330.2L385.9,330.6L385.7,331.1L386,331.9L386.3,332.5L386.1,333.2L386.2,334.6L385.6,335.1L385,336.3L384.5,336.4L383.5,336L383.1,336.2L382.5,337.1L381.3,338.1L380.7,338.1L380.3,338L379.9,338.5L379.2,339.2L378.9,339.2L377.8,339.4L377.4,339.1L376.8,338.5L375.9,337.8L375.2,337.4L374.7,337L374.3,336.5L374,336.1L373.3,336.9L372.2,337.7L371.2,337.5L370.7,337.4L370.3,338.5L370,338.7L368.1,338.9L367.7,339L368,340L369.2,341.7L369.5,342.7L368.8,344.3L366.8,344.2L366,343.6L365.1,342.7L364.8,342.2L362.4,341.4L360.7,342L360.2,341.9L359.4,341.3L358.9,340.8L358.4,340.1L358.2,339.3L358.2,339L358.9,338.7L360.1,338.1L361,337.4L361.7,336.7L361.9,336L362,335.1L362.3,332.8L362.6,331.7L362.4,330.4L361.9,329.3L361.9,327.7L362,326.9L362.1,326.4L362.9,325.8L363.4,324.8L363.6,323.6L363.7,322.7L363.5,322.2L362.7,321.7L361.5,321.2L360.8,320.6L360.5,319.8L360.5,319.2L360.9,318.6L360,318L357.8,317.3L356.6,316.4L356.3,315.5L355.4,314.2L353.8,312.6L353,310.4L352.9,307.4L353.1,305L353.8,302.2L352.9,300.2L351.8,299.1L350.5,298.3L349.1,297.2L347.9,295.7L346.4,293.5L344.6,290.6L343.4,289.3L342.8,289.6L341.5,289.4L339.5,288.5L337.9,288.1L336.4,288L335.4,288.2L335,288.7L335,289.1L335.4,289.5L335.1,289.8L334.4,290.1L333.8,290.6L333.1,291.6L332.6,293L331.9,293.6L330.8,293.7L329.7,294.1L328.6,294.7L328.1,295.2L328.1,295.6L327.9,295.7L327.4,295.5L327.1,295L327.2,294.3L326.6,293.8L325.5,293.6L324.2,292.8L322.8,291.5L321.8,290.8L321.2,290.7L320.4,291.2L319.4,292.3L318.5,292.8L317.8,292.5L317.3,292.9L316.9,294L316.3,294.8L314.8,295.6L314.7,295.7L313,296.9L311.6,298.1L310,299.7L309.3,299.9L308.5,299.5L307.5,299.1L306.9,298.6L308,295.9L309.4,292.9L309.7,291.6L309.8,290.6L309.7,289.7L309.1,288.9L308.6,288.2L308.6,287.8L308.8,287.3L309.3,286.6L310,285.6L310.7,283.3L311.4,281L311.4,279.6L310.7,278L310.4,276.6L310.7,274.5L310.6,273.8L309.9,273.4L307.6,273L306.9,273L306.3,273.3L305.7,273.8L305,274.2L303.5,274.4L302.2,273.7L301.1,272.5L300.8,271.1L301.6,269.4L302.2,268.1L302.5,266.9L302.5,266.3L302.2,265.7L301.9,265.7L301.2,264.9L300.5,263.7L299.8,263.1L299.2,263.2L298.6,263.7L298.1,264.5L297.7,264.9L297.4,264.7L297.5,263.9L297.6,263.2L298.2,260.5L299,258.7L299.9,257.8L300.9,257.5L301.9,257.6L302.8,257.4L303.5,257L303.4,256.7L302.6,256.7L302.3,256.2L302.4,255.3L302.8,254.7L303.4,254.4L303.9,253.5L304.4,252L305.1,251.2L305.9,251.2L307.2,250.5L309,249.2L309.7,247.9L310.4,248.5L310.1,250L310.5,250.3L310.7,250.8L310.6,251.6L310.7,252.3L311,252.7L311.4,252.8L313.3,252.2L314.5,252.2L315,252.6L315.4,252.8L316,253L316.5,253.3L316.7,253.2L317.4,252.6L317.6,252.5L317.6,252.2L317.2,251.6L316.7,251.1L316.7,250.1L316.9,248.3L317,247.4L316.9,245.2L316.8,244.6L316.4,243.8L315.2,242.4L314.9,241.6L314.7,240.7L314.8,240.2L314.5,239.6L314.3,239L314.8,238.7L315.4,238.1L315.7,237.1L316.1,236.3L316.5,236L316.9,235.9L317.1,235.9L318.1,237.3L319.3,236.6L320.3,236.6L321.1,237ZM-42,-14.75L-41.67,-15.03L-40.98,-15.14L-40.33,-15.42L-40.16,-15.91L-39.64,-16.7L-38.22,-18.26L-37.48,-18.5L-37.01,-18.5L-37.01,-18.26L-36.75,-18.01L-35.5,-17.66L-35.15,-18.07L-34.94,-18.64L-35.37,-19.52L-35.37,-19.9L-35.19,-20.26L-34.98,-20.45L-32.99,-19.6L-32.56,-19.63L-31.65,-20.09L-30.83,-20.94L-30.53,-21.6L-26.47,-23.74L-26.17,-24.13L-26.21,-24.4L-27.94,-24.93L-28.67,-24.62L-29.41,-24.62L-29.84,-24.95L-31.91,-25.06L-32.34,-25.28L-33.73,-26.86L-34.68,-27.43L-35.45,-27.82L-36.27,-27.77L-37.27,-27.35L-37.57,-27.55L-37.66,-28.21L-37.61,-29.01L-37.83,-29.89L-38.43,-30.11L-39.17,-29.75L-40.29,-30.11L-41.24,-30.23L-41.5,-32.08L-41.89,-32.88L-42,-33.13L-42,-42L53.63,-42L53.36,-41.52L50.21,-40.26L48.4,-39.62L47.66,-39.65L45.94,-38.62L41.06,-36.08L38.68,-34.47L37.47,-33.8L36.52,-33.05L36.35,-32.3L36.31,-31.61L33.63,-28.34L31.64,-27.93L29.96,-28.01L28.79,-27.52L27.15,-27.02L23.57,-27.35L22.36,-27.3L19.99,-27.77L19.08,-27.52L18.04,-26.86L16.66,-24.24L16.1,-23.63L15.84,-23.06L15.63,-21.79L15.11,-20.45L14.42,-19.41L13.94,-18.42L12.95,-17.49L12,-16.89L11.26,-18.12L10.66,-17.77L10.05,-17.27L8.933,-17.44L8.242,-17.19L6.644,-16.13L4.313,-16.15L4.054,-16.54L3.579,-19.49L3.19,-20.89L2.845,-21.19L2.413,-21.24L-0.912,-18.91L-2.466,-18.5L-3.761,-18.42L-5.445,-19.11L-5.791,-18.94L-6.093,-18.56L-6.222,-18.09L-5.704,-16.78L-5.834,-16.51L-6.611,-16.54L-7.647,-16.23L-8.467,-15.63L-10.88,-13.51L-12.91,-12.8L-14.77,-12.53L-15.55,-12.28L-15.89,-12.04L-16.54,-11.03L-17.19,-9.458L-17.54,-8.671L-17.79,-8.238L-17.75,-7.642L-17.23,-6.911L-16.84,-5.207L-16.93,-4.774L-17.32,-4.072L-17.92,-3.398L-19.22,-2.966L-20.21,-2.777L-20.9,-2.912L-22.16,-2.939L-23.15,-2.669L-23.8,-2.211L-25,-1.618L-26.52,-1.43L-28.41,-1.349L-29.32,-1.403L-32.13,-1.78L-33.03,-1.645L-33.94,-1.349L-35.5,-1.026L-36.36,-0.057L-36.79,0.857L-37.05,0.964L-38.04,0.158L-38.78,-0.622L-39.3,-1.268L-39.9,-1.241L-42,-0.159L-42,-14.75ZM395.8,468.6L394.1,469L393.2,468.4L394.2,467.7L394.5,467.6L394.8,467.5L394.9,467.1L393,466.6L392.5,466.2L392,465.1L392,464.4L394.4,462.5L394.9,462.3L395,463.1L396.7,465L396.7,466.4L396.7,466.9ZM267.9,482L267.7,480.8L267.4,479.5L267.1,478.7L264.7,477.2L263.8,476L263,474.6L262.3,473.6L259.7,470L258.8,469L257.6,468.4L254.4,467.7L253.4,467.1L251.8,465L250.8,464L247.9,461.7L243,456.9L242,455.7L241.2,454.5L240.6,453.1L238.5,449.4L238.7,448.7L239,447.9L239,447.3L238.7,446.6L238.8,446.1L239.4,445.7L240.8,445.3L242.3,445.3L243.6,445.5L244.9,445.9L246.1,446.7L248.3,448.6L249.6,449.3L251.1,449.6L254,450.1L254,450.1L255.4,450.2L258.1,449.5L259.7,449.6L261,450.1L262.3,450.4L265.4,450L266.1,450.1L266.6,450.4L267.1,450.8L268.5,452.4L270.9,454.3L271.6,455.5L272,456.9L272.3,457.2L275,459.9L275.3,461L274.9,462.5L275.7,463.8L278.4,464.9L279.9,465.8L280.3,466.3L280.5,466.9L281.4,467.8L282.5,468.4L285.8,469.9L290.3,473.2L292.8,474.7L294.9,477L295.7,478.2L296.3,479.4L297.5,481.1L298.4,482L267.9,482ZM248.7,482L248.3,481.7L247.3,481.7L246.6,481.2L245.8,481L244.9,479.7L244.6,479L245.3,478.6L245.7,477.9L246.8,478.2L248,479.5L249.3,480L249.6,480.2L250.2,481L251.9,482L248.7,482ZM371.4,475L371.4,475.8L370.5,475.3L370.4,474.4L370.7,474.1L371.2,474.3ZM365.1,478.5L364.6,478.6L364.5,478.2L364.5,477.6L364.4,477.1L364.3,476.8L364.3,476.1L364.8,476.5L365.1,476.7L365.5,477L365.8,477.1L366,477.2L365.7,478.1ZM402,478.7L401.4,478.3L402,477.5L402,478.7ZM240.4,443.1L240.1,443.4L239.5,443.2L238.7,442.1L238.9,441.9L239.5,442L240.4,442.3L240.4,442.7ZM-42,163.6L-41.37,163.4L-41.15,162.2L-40.42,160.4L-38.26,158.1L-37.66,157.1L-37.01,155.1L-36.32,153.4L-35.71,152.6L-32.3,150.6L-28.98,148.8L-28.41,148L-26.26,144.2L-25.05,141.6L-24.7,140.8L-24.01,138.6L-23.23,136.3L-22.2,135.8L-19.91,135L-18.1,134.1L-17.19,133.2L-16.63,132.3L-16.71,131.5L-17.23,130.5L-17.1,129.9L-17.02,129.4L-15.72,128.2L-13.22,124.7L-11.75,123L-11.23,123L-9.72,122.1L-8.208,121L-8.295,120.5L-8.511,119.9L-9.331,119.6L-9.59,118.9L-9.417,117.8L-8.683,115L-8.856,114.1L-9.676,111.5L-9.504,110.8L-9.158,110L-8.208,109L-6.956,108.2L-2.984,106.2L-2.164,106L-0.782,105.4L0.082,104.4L0.168,103.5L-0.178,102.9L-0.998,102.2L-2.552,101.5L-3.977,100.9L-6.352,101L-7.604,100.4L-7.906,100.1L-8.079,98.81L-7.863,96.68L-8.208,96.48L-8.77,96.73L-10.02,96.48L-11.58,96.51L-12.14,95.91L-11.84,95.19L-11.92,94.25L-12.18,93.33L-12.4,93.14L-13.13,92.91L-14.3,92.14L-15.25,91.17L-15.76,90.5L-15.94,90.05L-15.89,89.75L-15.2,88.91L-14.38,87.71L-14.12,86.69L-13.99,85.94L-14.25,85.39L-14.99,84.72L-15.76,84.14L-16.07,83.62L-16.11,82.86L-15.81,81.89L-14.86,81.16L-13.22,80.46L-12.79,79.61L-12.87,78.98L-13.3,78.78L-14.47,78.78L-16.41,78.55L-16.76,78.2L-16.97,77.75L-16.97,77.27L-16.54,76.74L-16.07,76.06L-16.15,75.41L-16.71,74.65L-18.1,74.12L-18.27,73.34L-18.05,72.71L-17.62,71.8L-17.23,71.14L-16.28,69.35L-15.16,68.94L-13.73,68.36L-12.22,67.7L-9.849,68.18L-8.683,68.44L-6.352,69L-4.409,69.45L-2.38,69.58L-1.559,69.55L-0.652,70.11L1.593,71.04L3.449,71.55L4.701,71.52L6.515,70.69L7.422,69.93L8.674,69.1L10.23,69.15L13.64,67.86L14.29,68.06L15.32,68.13L16.53,67.4L17.14,66.51L17.27,66.05L17.57,65.75L18.86,65.17L20.16,64.4L20.55,63.36L20.76,62.67L22.19,61.76L23.7,60.81L25.25,59.84L27.02,58.72L28.54,57.78L29.74,56.98L29.79,57.04L29.87,57.16L30.39,57.52L30.91,57.67L31.51,57.34L32.29,57.09L32.68,57.24L32.72,57.67L32.25,59.77L32.29,60.61L33.07,62.29L34.06,65.06L35.01,67.65L35.53,69.32L36.09,70.03L38.34,70.74L40.19,71.32L41.32,72.26L42.52,73.17L43.39,73.72L43.78,74.45L43.86,75.08L43.82,75.53L43.34,76.09L41.19,77.57L40.93,78.03L40.88,78.63L41.32,80.46L41.58,81.59L41.62,83.89L41.79,86.04L42.52,87.04L43.17,87.66L43.52,88.26L44.3,89.03L44.94,89.63L45.5,89.98L45.76,90.75L45.63,91.67L45.37,92.47L45.46,92.89L45.89,93.19L46.58,93.98L46.67,95.15L46.63,95.94L46.88,96.66L46.97,97.45L46.76,99.43L46.8,100.2L46.8,100.3L46.2,100.4L45.68,100.7L44.94,101.9L44.12,102.3L43.17,102.4L42.22,101.6L41.4,100.8L41.19,100.4L41.01,99.53L40.58,98.96L39.72,99.23L38.47,99.33L37.13,99.53L36.87,99.7L36.83,100.1L37.17,100.8L37.47,101.8L37.6,103.2L37.99,104.1L38.12,104.4L40.28,107.1L40.84,107.7L40.97,108L40.8,109L40.41,110.2L40.49,111.1L41.19,112.1L41.79,112.8L41.23,113.8L40.88,114.9L41.27,115.4L41.06,117L41.23,117.3L41.66,117.4L42.31,117.3L42.96,116.8L43.52,116.8L43.82,116.9L44.3,115.7L44.68,115.5L45.42,115.8L46.93,118.1L48.22,120L48.57,120.4L48.83,120.6L50.08,121.6L50.94,122.2L52.11,122L53.66,122L54.61,122.6L55.13,123L55.17,123L55.26,123L57.12,124.6L57.94,124.4L58.46,124.9L58.63,125.9L58.37,127L58.46,127.5L59.28,127.6L61.05,128.4L62.65,129L63.47,129.2L64.33,129.7L65.11,130.4L66.62,131.4L67.96,132.1L68.26,133.2L67.74,132.9L67.05,133L66.31,133.5L65.97,133.8L64.37,135.5L63.51,136L62.73,136.8L60.96,139.2L59.97,141.3L59.19,143.4L59.23,144.8L58.93,146.5L58.2,147.5L57.72,147.8L57.16,149.3L56.77,151L56.99,151.5L57.94,152.3L58.84,153L60.05,153.8L61.18,154.5L61.91,154.6L62.08,154.2L62.34,153.8L63.21,154L64.2,154.7L64.85,155.3L65.15,155.5L66.88,156.5L68.34,157.3L70.16,158.3L70.63,158.9L71.02,159.6L71.89,160.5L73.96,162L75.77,163.1L77.24,164L78.36,164.7L78.88,164.6L79.48,164.2L80,164L80.56,164.2L81.47,164.7L83.59,166.2L85.53,167.3L87.69,167.1L88.25,167.3L88.68,168.3L88.94,169.4L91.31,170.1L92.91,170.4L94.68,171L95.59,171.4L96.54,170.8L96.71,170.4L97.49,170.1L98.74,170.2L101.1,171L102.1,171.3L102.9,170.5L104.4,170.1L105.2,169.7L106.9,170.6L109.9,171.7L111.4,172.3L111.8,173L112,173.6L112,175.1L112.3,175.8L115.4,177.4L116.4,178L117.2,178.2L117.6,178.2L117.9,178.4L118.2,179.3L118.4,179.5L119,179.7L119.6,179.9L121.6,179.1L122.9,178.5L123.9,178.7L124.5,179.3L124.6,180.2L124.9,181.2L125.6,181.7L126.4,181.8L128.2,181.1L129.7,181.6L131,181.8L132.5,182.1L133.1,182.3L134.6,183.1L136.5,184L137.3,183.9L140.3,182.3L140.5,182.5L141.2,184L142.1,184.5L143.6,185L145.1,184.1L146.2,184.4L147.7,184.4L149.1,184L150.3,183.9L152,184.7L152.4,184.5L152.8,184L153.4,181.9L154.1,180.1L154,179L153.4,177.3L152,175.2L151.9,174.6L152.4,170.9L152.9,168.7L153.4,167.7L153.9,166.3L154,165.6L153.9,165L153.4,164.6L153.3,164.1L153.4,163.8L153.8,163.5L155.4,163.3L157.2,162.7L157.9,162.4L158.5,162.1L159,161.6L159.5,161.6L161.2,162.3L161.7,162.7L162,164.1L162.3,164.6L162,166L161.1,169.3L161.3,170.6L162.1,171.5L162.8,172.1L162.7,172.4L161.2,173.4L161,174L161.3,174.6L161.9,175L162.1,175.5L162.4,176.9L163.1,177.3L164.6,178.2L165.9,178.8L168.1,178.4L168.7,178.7L169.8,179L170.6,179.1L171.1,179.4L171.4,179.6L171.4,179.9L171.4,180.1L172.6,180.2L173.3,180.4L175.4,180.1L177.5,179.7L178.5,178.4L179,178.3L180.2,177.9L181.5,178.4L182.8,179.1L183.5,179.3L185,179.4L186.3,179.4L189.7,179L191.5,179.2L193.2,178.2L193.6,178.2L194.3,179L196.1,179L197.1,178.7L198.2,178.3L198.9,178.3L199.4,178.3L200,178.3L200.7,178L200.9,177.5L200.9,176.7L200.4,175.8L200,175.3L200,175L200.1,174.4L200.4,173.5L201.1,172.5L200.6,171.4L199.9,170.3L199.5,170.2L198.3,170.5L197,170.4L196,169.7L195.2,168.8L195,168.1L195.2,167.2L195.6,166.4L195.7,166.1L196.6,166.1L198,166.3L199,166.5L199.8,166.5L201.3,165.5L202,165.4L202.8,165.2L203.1,165L203.3,165.2L204.2,165.3L205,165.2L205.8,164.9L206.6,164.5L208,163.5L208.3,163L208.3,162.5L208.1,162.2L207.8,162L207.9,161.6L208.5,160.9L210.7,159.8L212.5,158.4L213.5,157.4L213.9,156.2L214.5,154.8L215.1,154.3L216.4,153.9L220,153.4L221.2,152.9L222.9,151.9L223.7,151.1L224.2,150.5L224.3,149.8L225.4,149.5L226.4,148.4L227.6,147.2L229.7,146.2L231.5,144.9L232.2,145.1L232.8,145.7L233.2,146.4L233.3,146.8L235.7,147.2L236,147.1L237.8,147.8L239.4,148.5L240.3,148.7L240.7,148.7L241.1,148.5L241.5,147.8L242,147.3L242.3,147.1L242.2,146.4L244.6,144.9L246.7,143.8L248.5,143.1L249,143.4L249.6,144L250.4,145.5L250.9,145.8L252.1,145.6L252.3,145.8L252.1,146.3L251.3,147L250.2,147.6L249.5,148.1L249.7,149.7L249.7,150.3L250,150.4L252.2,148.8L253.3,148.5L253.7,148.9L253.7,149.8L254.7,151.5L255,152.4L252.8,154.6L252,155.7L252,156.1L252,156.5L251.4,157L251.4,157.2L251.9,157.6L252.5,157.9L252.7,157.8L253.2,157.3L255.3,156.6L255.9,156.7L257.3,157.9L258,157.9L259.8,158.3L261,157.8L261.8,158.2L263.5,159.6L263.9,159.9L263.8,160.7L263.7,161.7L264.1,162.4L264.2,163.1L264.1,163.7L263.7,164.1L262.7,164.3L261.9,165.1L260.6,166.1L259.6,166.9L258.8,167.7L258.5,168.4L258.6,169.4L258.8,170.4L261.3,174.2L261.3,174.8L260.5,175L259.5,174.6L258.6,174L257.6,172.4L256.8,171.9L256,171.8L251.3,172.6L250.3,172.9L248.8,173.4L247.7,174.7L246.9,175.8L246.1,176.2L244.9,177L241.6,179.7L239.7,180.8L238.5,181.2L237.6,181.8L237.1,182.8L236.8,183.4L236.6,185.1L236.9,187.2L237.3,188.6L237.6,188.8L237.6,189.2L237.2,189.9L236.5,190.6L236.2,190.9L236,192.8L235.4,193.8L234.4,195.1L233.5,196.2L232.1,197L231.5,197.6L231,198.8L230.7,199.8L230.7,200.2L230.9,200.5L231.4,200.9L232.2,201.2L232.5,201.8L232.5,202.4L232,204L231.1,206.2L230,207.8L228.8,209.5L228.6,210L227.6,212L226.7,214.7L226.1,216.6L225.6,217.9L224.9,217.9L224.2,217.5L222.3,217L221.1,216.6L220.2,216.2L219.6,216.2L218.8,216.4L218,216.6L217.5,216.4L216.3,215.3L216,215.4L215.8,216L216.5,219.2L217,220.4L217,222.4L216.7,224.9L216.4,227.6L216.3,228.2L215.8,228.9L215.1,229.1L214.5,228.8L214,228.9L213.9,229.4L214,230.5L213.4,231.8L213,233L213.1,234.1L213.3,235.2L214,237.6L214,238.5L213.9,239.3L213.5,239.6L212.9,239.6L212.6,239.9L212.3,240.4L211.6,242.2L211,242.4L210.3,242.2L209.3,240.9L208.7,240.6L208.3,240.6L208.2,240.9L207.9,241.7L207.6,242.2L206.9,242.6L206.8,241.7L206.5,237L206.2,235.5L205.9,233.4L205.6,232.8L205.2,231.6L204.8,230.7L204.4,230.2L204.2,228.4L204.1,226.2L204.1,225.1L203.5,222.9L203,220.4L202.3,220.5L201.9,219.9L201.6,219.9L200.6,220.5L199.8,220.3L199.2,220.4L199.2,221.5L199.3,222.7L199.1,223.2L197.5,224.6L197.1,225.6L197.2,226.6L197.4,227.9L197.1,228.6L196.4,229.3L195.5,229.6L194.7,229.4L194.2,228.9L193.7,227.5L193.3,226.7L192.9,226.5L192.5,226.7L192.5,227.6L192.5,228.4L192.4,228.4L192.1,228.3L191.9,228L191.1,224.4L190.1,221.7L190,220.7L190.4,219.3L190.8,217.3L192.1,216L192.3,215.5L192.5,215L192.8,214.9L194.4,215L194.9,214.8L195.4,214.2L196.1,213.7L196.8,213.5L197.4,213.5L198.2,213.9L198.6,213.7L198.9,212.8L199.3,212L199.5,211.6L200.1,211.4L200.9,211.3L201.1,211.2L201.3,210.9L201.5,209.7L202.5,207.2L202.8,206.1L202.8,205.9L202.8,204.6L203.1,204.5L204.7,205.1L205.4,205L205.8,204.8L205.9,204.3L205.7,203.8L204.6,202.9L202.5,201.6L200.7,200.8L197.2,200.9L193.8,201.2L192.8,201.1L191.6,200.7L188.5,200.8L184.8,201L183.5,200.8L182.7,200.8L181.3,201L179.1,200.6L177.5,200.2L176.1,199.6L174.5,199.2L174.1,199.2L173.9,199L173.7,198.6L173.7,198.1L174,195.6L173.7,191.9L174,190.6L172.6,187.5L172.1,186.9L171.5,186.9L171.1,187.3L171,188L171.2,188.8L170.7,189.7L169.7,190L168.5,189.7L167.6,189.3L166.3,188.3L165.4,187.1L165.3,185.7L164.9,184.7L164.3,184.3L163.9,184.2L163.5,184.3L163.2,184.8L163.5,185.3L163.9,186L163.7,186.4L163.4,186.5L162.9,186.3L162,186.4L161.2,186L160.7,186L160.3,185.9L160.3,185.1L159.5,184L158.3,182.8L157.1,182.1L156.5,182.2L156.3,183L156.3,183.3L156.7,183.5L157.3,183.9L157.5,184.4L157.4,184.8L156.6,185.6L156.1,186.3L154.9,187.4L153.9,188.6L153.7,189.5L153.3,190.4L153.1,191.3L153.4,191.9L153.9,192.3L155.1,192.6L156.5,193.8L157.5,195.5L158.1,195.9L159.2,196.5L161.3,196.6L161.7,197L162,198.2L162.3,198.6L163.4,199.2L163.5,199.6L163.2,200.1L162.8,200.5L161.9,200.7L161,200.8L160.2,200.7L159,200.6L157.5,200.6L156.6,203.6L155.9,204.6L155.4,204.6L154.4,204.1L153.9,204.2L152.6,206.9L152.5,207.5L152.4,208L153.1,209L153.8,209.9L154.8,210.2L155.5,209.9L156.1,210.3L156.9,211.1L158.1,211.7L159.8,212L160.8,212.6L160.9,213.2L160.8,213.8L160.7,215.3L160.5,216.2L159.6,218.5L158.9,220.5L159.2,221.5L159.5,221.9L159.7,222.1L160.4,222.9L161,223.6L160.5,225.5L160.8,226L161.8,226.3L162.9,226.6L163.2,226.9L162.3,228.8L162.5,230.1L162.9,231.4L163.2,233.4L163.2,233.6L163.1,234.1L163.8,235.7L164.7,238.7L164.8,239.9L164.7,241.1L164.4,243.1L163.5,243.1L164.3,244.4L164.6,245.4L164.7,246.8L163.7,246.9L163,246.8L162.4,245.6L162.1,246.7L161,247.7L160.7,247.2L160.4,246.7L160.4,245.7L161,242.2L160.9,241.8L160.6,241.6L160,241.4L159.8,240.7L158.9,244.5L159.3,246L159.1,246.7L157.5,247.3L155.8,245.9L155.6,245.4L155.4,246.2L155.1,247.2L153.6,247L152.8,246.3L153.3,245L154.3,241.9L154.4,240.5L153.1,239.5L152,238.9L151.4,237.5L151.6,239L152.2,239.5L153.1,239.9L154,240.7L153.4,241.7L152.7,242.3L151.5,244.6L150,245.8L148.2,246.8L142.5,248.2L141.3,248.7L139.5,250.5L138.4,252.1L138.2,253.8L138.9,255.6L139.4,258.5L139.8,259L139.2,260.1L138.1,261.2L137.3,262.6L137.3,263.5L137.1,264L134.1,265.8L133.5,266.9L132.6,267.9L131.6,267.3L131,267.3L131.9,268.2L131.7,268.7L131.5,269L130.7,269.3L126.3,270.7L123,271.9L122.1,271.9L122.2,271.5L122.8,271.1L122.8,269.7L122.1,269.4L121.6,269.3L119.1,271.1L118.1,272.8L118.3,273.2L118.9,273.1L120.5,272.1L121.4,272.4L121.4,272.8L118.8,274.3L113.4,279.1L113.1,280.1L112.4,281.2L111.4,282.2L109.7,284.6L106.3,288.3L105.4,289.7L99.99,292.5L99,293.3L96.8,296.1L94.51,298.3L91.83,300.2L87.26,302.5L84.45,304.7L83.59,306.2L83.5,306.8L83.8,307.5L84.32,308.1L84.45,308.7L84.19,309.6L84.06,310.1L83.24,311.5L81.82,312.4L77.28,314.3L76.68,314.3L72.96,313.9L71.58,314.3L71.02,315.2L69.73,318.9L68.52,319.9L68.04,320.8L67.87,321.5L67.14,321.4L66.53,321.2L66.06,321.4L65.54,320.1L64.63,319.8L63.9,319.8L60.74,321L59.67,322.1L57.38,326.9L56.77,330L57.33,333.4L58.11,336.1L58.28,337.4L58.2,339L57.77,339.7L57.51,340.7L57.85,342.6L58.84,345.1L59.06,346.1L59.1,347.2L59.84,349.6L59.32,349.2L58.93,348.2L58.02,346.8L56.9,348.2L57.51,349.1L59.62,350.2L60.27,351.2L58.89,359.4L57.85,362.4L56.6,364.3L55.91,365L54.44,368L53.41,371.7L53.19,373.1L53.66,374.7L53.15,375.6L52.45,376.3L53.75,376L54.18,376.9L54.31,377.7L54.35,383L54.23,388.4L53.23,388.6L52.15,388.7L51.2,388.5L50.51,388.3L48.83,388.6L47.92,389.2L47.19,390.2L47.23,391.9L44.12,396.2L43.43,397.6L43.17,399L43.6,399.7L44.38,400.5L45.42,400.8L47.45,401L48.44,401.4L49.09,402.2L46.71,401.4L43.91,401.2L37.21,403.2L35.44,404.6L34.45,405.8L33.8,408.6L33.67,410.4L32.9,412L29.4,414.3L27.2,415.1L26.38,415.7L23.79,414.9L20.94,412.8L19.77,411.7L15.58,406.4L14.8,405.7L13.98,403.4L13.81,402.5L13.6,402.2L13.21,402L12.99,401.6L12.09,399L11.7,396.3L11.09,393.2L11.57,393.4L12.3,394.4L12.65,395.9L12.69,397.9L13.21,398.2L13.68,398L12.34,393.3L11.13,392.1L10.83,392L10.53,391.3L10.49,390.4L10.57,389.9L9.667,388.4L9.321,387.4L7.249,382.8L6.299,379.4L4.874,375.7L3.924,374.4L2.456,371.5L1.247,370.2L-0.048,368.4L-1.084,367.6L-1.473,367.2L-4.495,361L-5.402,357.5L-6.179,355.9L-6.568,354.7L-7.647,349.4L-7.647,348.4L-7.777,347.4L-8.511,345.1L-9.849,342.7L-10.24,341.2L-10.2,340.6L-11.06,338.2L-11.23,337.2L-11.79,336.2L-12.44,335.3L-13.13,334.5L-14.73,332.1L-15.33,331.5L-16.41,330L-17.19,327.1L-18.18,326L-16.63,326L-17.58,324.9L-18.05,324.2L-18.57,323.8L-17.84,322.7L-19,322.7L-19.65,322.1L-20.51,320.1L-22.11,317.8L-22.37,316.6L-23.75,312.7L-24.92,303.4L-26.04,299.3L-25.95,298.1L-27.25,294.5L-27.9,292.1L-28.16,290.1L-28.5,288.8L-28.8,286.1L-29.32,285.2L-29.36,284.7L-29.02,283.5L-28.07,281.7L-27.72,280.5L-28.16,278.8L-29.02,280.5L-29.8,281L-30.18,279.7L-30.18,278L-30.27,277.5L-30.06,276.9L-27.94,277.2L-30.36,276.1L-30.62,275.5L-30.75,275L-30.23,274.1L-31.09,273.4L-31.44,271.1L-31.7,270.6L-31.78,270.2L-31.31,267L-29.24,260.8L-29.06,259.4L-29.28,257.4L-29.71,255.8L-29.93,254.1L-30.06,253.7L-30.79,253.5L-31.48,252.9L-32.3,250.4L-31.57,249.6L-31.01,249.1L-31.78,249.3L-32.43,249.3L-31.18,248.1L-30.1,247.2L-27.55,246.2L-26.47,245.5L-28.07,246.1L-29.71,246.3L-33.29,246.2L-32.69,243.9L-32.09,243.1L-31.39,242.7L-32.39,242.8L-33.55,242.6L-33.16,240.2L-32.26,239.7L-31.31,239.6L-30.1,239.3L-31.39,238.9L-32.73,238.7L-34.33,239.1L-35.8,238.8L-37.61,238.8L-36.88,239.1L-36.14,239.9L-36.49,241.1L-36.88,242L-37.87,242.5L-38.65,243.3L-38.91,244.1L-39.34,244.6L-38.56,245L-37.74,245.2L-37.27,245.8L-36.7,246.7L-36.75,248.4L-38.86,252.3L-39.6,253.2L-42,254.3L-42,163.6ZM222.7,430.8L222,431.8L220.6,428.7L219.9,428.5L219.9,427.1L220.3,426.5L221.9,425.9L222.4,426.2L223.2,429ZM220.8,424.4L219.7,425.6L219.2,424.9L219.4,424.4L219.9,424.1L220.4,423.8ZM213.8,413.6L214.1,414.1L213.5,414L212.8,413.3L213,412.7L213.2,412.4ZM217.4,418.1L216.4,418.1L216.2,417.6L215.8,417.1L216.1,416.5L216.6,416.4L217.3,417.3L217.4,417.8ZM218.5,415.9L218,416.4L217.8,416.3L217.7,416L217.7,415.7L217.6,415.3L217.5,414.5L218,413.9L218.4,414L218.2,414.7ZM209.5,402.8L209,402.9L208.7,402.5L208.6,402L208.9,401.7L209.2,401.6L209.5,401.6L209.8,402.4ZM206.1,385.6L205.7,386L204.5,385.7L204.6,384.4L204.3,383.2L204.5,382.7L205.4,381.8L206.2,381.4L206.7,382.6L206.9,383.8ZM208.4,375.5L207.8,375.7L207.2,375.4L207.7,374.9L207.8,373.9L208.3,374.5L208.3,375.1ZM208.8,373.6L208.5,373.9L208.1,373.6L207,371.4L206.8,370L206.5,369.5L206.9,368.8L207.4,368.5L207.6,367.7L207.8,366.5L208.2,365.5L208.4,365.3L209.3,365.3L209.5,365.1L209.4,364.2L208.9,363.8L208.7,363.5L208.7,361.3L208.8,360.3L209.2,359.7L208.9,358.3L209.1,357.8L209.7,357.1L210.1,355.6L209.8,355.1L210.4,352.8L210.4,351.2L211.2,349.6L212.4,348.9L212.8,348.9L212.9,350.2L213,350.7L212.3,351.5L212.9,352.5L212.9,352.9L212.6,353.7L212.1,354.5L211.5,354.9L211,355.9L210.7,356.3L211.6,357.5L212,361.3L211.3,362.3L210.4,362.6L210.6,365.1L210.5,365.7L209.7,366.9L209.5,367.5L209,368L209.2,368.6L209.6,368.9L209.6,369.4L209.3,370.8L209.2,372.3ZM212.3,367.5L212.8,369.1L211.9,368.4L211.5,367.9L212,367.5ZM208.7,357.3L208.3,358.1L208.2,356.4L208.4,356.2L208.6,356.1L208.8,356.3ZM-30.45,377.7L-30.53,377.7L-30.53,377.5L-30.45,377.2L-30.32,376.9L-30.27,377L-30.27,377.2L-30.36,377.5ZM-26.99,413.4L-27.16,413.5L-27.34,413.6L-27.46,413.6L-27.51,413.4L-27.51,413.3L-27.34,413.4L-27.12,413.3L-26.9,412.9L-26.86,412.8L-26.82,412.9L-26.86,413.1ZM335.2,-42L337.4,-40.82L340.5,-39.15L343.9,-39.87L347.7,-40.68L349.9,-41.16L349.9,-37.67L353.3,-37.36L354.3,-37.42L355.8,-36.64L356.6,-36.97L357.4,-37.72L358.4,-38.92L359.7,-39.45L362.2,-40.79L362.8,-41.13L364.4,-42L402,-42L402,247L401.2,247.1L400.9,246.8L400.1,245.9L399.3,245.3L399,244.7L399.3,244L399.1,243.6L397.7,243.5L397.7,244.5L397.9,245.7L398.3,246.6L398,247L397.3,247.4L396.6,246.4L396.2,246.2L395.8,246.3L395.6,247.2L394.9,248L393.7,247.9L392.8,248.4L391.7,248.7L391.7,248.7L390.9,248L389.6,246.9L389.1,246.8L387.6,247.3L385.6,247.5L385.2,246.9L384.2,247.4L383.2,246L382.1,246L380.7,245L380.2,244.4L380,243.7L379.6,243.3L379.1,243.3L378.5,242.9L377.5,242.5L376.7,242.3L376.3,242.5L375.9,242.6L375.9,242.1L375.9,240.5L375.8,239.2L375.6,238.6L375.1,238.1L374.6,237.9L374.4,237.2L374.6,235.8L374.9,234.9L375.6,234.7L376.4,234L376.8,233.1L377.3,232.2L375.5,231L374.5,230.5L373.4,230.7L372.1,231.1L371.3,231.2L371,231L370.2,229.9L369.8,229.7L368.8,229.6L368,229.6L367.5,230.1L366.8,230.3L366.1,230.3L365.4,229.7L364.3,228.9L362.6,228.4L362.3,227.7L361.9,227L361.3,226.3L360.2,225.3L359.3,224.8L358.8,225.1L358.2,225.7L355.9,226.8L354.9,227.2L354.3,227.5L353.9,228L353.7,229.2L353.5,230.5L352.9,231.1L352.2,231.6L351.6,231.7L350.9,231.7L350.3,231.9L348.4,233.2L347.6,233.1L346.8,232.3L346.5,231.8L345.7,231.9L344.6,232.5L344.2,233.7L343.9,234.7L343.6,235.2L343.3,235.3L342.9,235.3L339.6,232.3L339.5,232.2L338.8,232.8L338.3,234.4L337.9,234.7L337.6,234.5L336.3,232.5L335.9,232.3L335.6,232.4L335.2,233.1L334.3,234L333.7,234.6L333.6,235.3L332.9,235.9L332.1,236.4L331.8,236.5L331.2,236.3L330.5,235.5L330,234.7L328.7,233.9L327.2,233.2L326.2,232.7L325.6,232.6L325.1,232.8L324.9,233.1L324.5,233.9L323.6,235.2L322.8,236.3L322.1,236.9L321.5,237.4L321.1,237L320.3,236.6L319.3,236.6L318.1,237.3L317.1,235.9L316.9,235.9L316.5,236L316.1,236.3L315.7,237.1L315.4,238.1L314.8,238.7L314.3,239L314.5,239.6L314.8,240.2L314.7,240.7L314.9,241.6L315.2,242.4L316.4,243.8L316.8,244.6L316.9,245.2L317,247.4L316.9,248.3L316.7,250.1L316.7,251.1L317.2,251.6L317.6,252.2L317.6,252.5L317.4,252.6L316.7,253.2L316.5,253.3L316,253L315.4,252.8L315,252.6L314.5,252.2L313.3,252.2L311.4,252.8L311,252.7L310.7,252.3L310.6,251.6L310.7,250.8L310.5,250.3L310.1,250L310.4,248.5L309.7,247.9L309.8,247.7L309.5,246.1L309.6,245.7L309.4,245.6L309,245.5L308.2,245.7L306,246.8L304.1,248.7L303.3,249.1L302.4,249.3L301.4,249L300.2,248.7L298.6,249.2L297.8,249L297.4,248.6L297.1,248L297.3,247.2L297.2,246.7L296.5,246.4L295.8,246.1L295.3,245.4L295.1,244.6L295.3,243.6L295.4,242.4L295,241.9L293.9,241.7L291.1,241.1L288.7,240.9L287.6,241L286.8,240.9L286.3,240.7L286.1,240.3L286.1,239.8L286.5,238.6L286.9,237.5L288.1,235.9L288.2,234.7L288.1,233.4L288.6,231.6L289.6,230.3L290.1,229.9L290,229.3L289.6,228.7L289,228.4L288.1,228.1L286.6,228L284.7,227.6L282.4,226.8L282.6,225.3L282.6,224.3L282.3,223.6L281.9,223L281.6,222.5L282,221.2L281.5,219.7L280.9,219.1L280.2,218.3L280.1,217.5L280.4,216.7L282,215L282,214.7L281.6,214.7L281.2,214.7L279,215.3L278.8,215L278,214.7L276.4,214.7L274.6,214.8L272.2,215.4L270.1,216.4L269.1,217.1L268.3,217.6L267.6,217.7L266.8,217.4L266.9,216.4L268.3,214.5L268.5,213.2L268.1,212.1L268,211.3L267.5,210.7L266.8,210.4L266.4,209.8L266.4,207.9L267,206L268.1,205.4L268.7,205.1L268.9,204.8L268.6,203.5L268.6,202.6L269.2,201L269.9,199.7L271.1,199.9L271.6,199.6L272.1,199.2L272.8,198.4L273.2,197.6L273.7,195.5L274.1,195.2L275.6,195.5L276,195.3L276.8,194.1L277.6,192.6L278.7,192.1L279.5,192.1L279.9,191.6L279.9,190.9L279.1,189.7L278.8,188.8L278.9,188.3L280,187.9L280.3,187.2L280.1,185.8L280.6,184L280.8,182L280.9,180.4L280.9,179.3L280.8,178L280.6,175.8L280.1,173.8L280.2,173.1L280.1,170.7L279.8,168.7L279.2,168.3L278.1,167.6L277.4,167.5L276.9,167.7L276.7,168.4L276.2,169.1L275.6,169L275.3,168.3L274.9,167.4L273.6,163.3L273.4,162.1L273.2,160.9L272.8,160.3L272.3,160L271.2,158.6L270.7,158L270.4,157.9L269.8,158L269.2,158L268.8,157.3L268.4,156.5L268,156L267.2,155.8L266.5,155.9L266.1,156.6L265.7,157.1L265.2,158L264.3,159.4L263.9,159.9L263.5,159.6L261.8,158.2L261,157.8L259.8,158.3L258,157.9L257.3,157.9L255.9,156.7L255.3,156.6L253.2,157.3L252.7,157.8L252.5,157.9L251.9,157.6L251.4,157.2L251.4,157L252,156.5L252,156.1L252,155.7L252.8,154.6L255,152.4L254.7,151.5L253.7,149.8L253.7,148.9L253.3,148.5L252.2,148.8L250,150.4L249.7,150.3L249.7,149.7L249.5,148.1L250.2,147.6L251.3,147L252.1,146.3L252.3,145.8L252.1,145.6L250.9,145.8L250.4,145.5L249.6,144L249,143.4L248.5,143.1L246.7,143.8L244.6,144.9L242.2,146.4L242.3,147.1L242,147.3L241.5,147.8L241.1,148.5L240.7,148.7L240.3,148.7L239.4,148.5L237.8,147.8L236,147.1L235.7,147.2L233.3,146.8L233.2,146.4L232.8,145.7L232.2,145.1L231.5,144.9L229.7,146.2L227.6,147.2L226.4,148.4L225.4,149.5L224.3,149.8L224.2,150.5L223.7,151.1L222.9,151.9L221.2,152.9L220,153.4L216.4,153.9L215.1,154.3L214.5,154.8L213.9,156.2L213.5,157.4L212.5,158.4L210.7,159.8L208.5,160.9L207.9,161.6L207.8,162L208.1,162.2L208.3,162.5L208.3,163L208,163.5L206.6,164.5L205.8,164.9L205,165.2L204.2,165.3L203.3,165.2L203.1,165L202.8,165.2L202,165.4L201.3,165.5L199.8,166.5L199,166.5L198,166.3L196.6,166.1L195.7,166.1L195.6,165.6L195.8,163.9L195.3,163.5L194,163.1L192.5,162.6L191.7,162L191.4,161.8L190.8,161.9L189.9,162.5L189,163.2L188.3,163.3L187.6,162.9L187,162.5L184.7,161.9L183.6,161.8L181.8,161.9L180.3,161.8L180.1,161.6L180.1,161.2L180.3,160.6L180.4,159.9L180.3,159.5L178.7,159.1L177.3,158.7L175.9,158.6L174.9,158.9L173.9,159.4L173.1,160.3L171.9,160.7L170.5,161.4L169.9,162L168.8,163.4L167.3,165.1L166,166.8L165.3,168.4L164.4,169.4L163.5,170.1L162.8,172.1L162.1,171.5L161.3,170.6L161.1,169.3L162,166L162.3,164.6L162,164.1L161.7,162.7L161.2,162.3L159.5,161.6L159,161.6L158.5,162.1L157.9,162.4L157.2,162.7L155.4,163.3L153.8,163.5L153.4,163.8L153.3,164.1L153.4,164.6L152.4,164.4L151.3,164.3L150.4,164.4L148.3,165.3L147.6,165.4L146.8,165.3L145.7,165.2L143.6,165.3L141.8,165L140.4,163.8L139.3,163.3L138.2,162.9L137.1,162.6L136.7,161.9L136.4,161.6L135.5,161.4L134.8,161.7L134.3,163.3L133.9,163.7L133,163.8L132,163.4L130.7,162.6L130.2,161.6L129.7,161.3L129.1,161.7L129,162.9L128.9,163.7L128.1,164.1L127.5,163.8L127.2,163L126.2,161L125.2,159.8L124.3,159.1L121,159.1L118.6,158.9L117.6,158.5L117.2,157.8L117.6,156.2L118,155.1L118,154.8L117.6,154.6L117,154.5L114.4,155.3L113.7,155.2L113.2,155L112.7,154.7L112.3,154.4L111.9,153.9L109.7,152.6L109.1,151.9L107.9,151L106.9,150.4L106.2,148.7L105.6,147.1L105.3,146.2L104.4,145.7L103.4,145.4L101.6,146.1L100.2,146.6L99.13,146.7L97.62,145L96.37,143.2L94.94,141.6L93.99,140.8L92.31,140.7L90.36,139.8L87.82,137.8L85.96,136.2L82.77,134.5L82.03,133.8L81.77,133.2L81.34,132L80.65,130.9L78.41,130.4L75.86,130L73.14,130.7L71.19,134.1L70.24,134.9L69.47,134.9L68.82,134L68.26,133.2L67.96,132.1L66.62,131.4L65.11,130.4L64.33,129.7L63.47,129.2L62.65,129L61.05,128.4L59.28,127.6L58.46,127.5L58.37,127L58.63,125.9L58.46,124.9L57.94,124.4L57.12,124.6L55.26,123L55.17,123L55.13,123L54.61,122.6L53.66,122L52.11,122L50.94,122.2L50.08,121.6L48.83,120.6L48.57,120.4L48.22,120L46.93,118.1L45.42,115.8L44.68,115.5L44.3,115.7L43.82,116.9L43.52,116.8L42.96,116.8L42.31,117.3L41.66,117.4L41.23,117.3L41.06,117L41.27,115.4L40.88,114.9L41.23,113.8L41.79,112.8L41.19,112.1L40.49,111.1L40.41,110.2L40.8,109L40.97,108L40.84,107.7L40.28,107.1L38.12,104.4L37.99,104.1L37.6,103.2L37.47,101.8L37.17,100.8L36.83,100.1L36.87,99.7L37.13,99.53L38.47,99.33L39.72,99.23L40.58,98.96L41.01,99.53L41.19,100.4L41.4,100.8L42.22,101.6L43.17,102.4L44.12,102.3L44.94,101.9L45.68,100.7L46.2,100.4L46.8,100.3L46.8,100.2L46.76,99.43L46.97,97.45L46.88,96.66L46.63,95.94L46.67,95.15L46.58,93.98L45.89,93.19L45.46,92.89L45.37,92.47L45.63,91.67L45.76,90.75L45.5,89.98L44.94,89.63L44.3,89.03L43.52,88.26L43.17,87.66L42.52,87.04L41.79,86.04L41.62,83.89L41.58,81.59L41.32,80.46L40.88,78.63L40.93,78.03L41.19,77.57L43.34,76.09L43.82,75.53L43.86,75.08L43.78,74.45L43.39,73.72L42.52,73.17L41.32,72.26L40.19,71.32L38.34,70.74L36.09,70.03L35.53,69.32L35.01,67.65L34.06,65.06L33.07,62.29L32.29,60.61L32.25,59.77L32.72,57.67L32.68,57.24L32.29,57.09L31.51,57.34L30.91,57.67L30.39,57.52L29.87,57.16L29.79,57.04L29.74,56.98L28.84,57.22L27.02,57.34L26.42,57.32L25.51,57.29L23.7,56.81L21.24,56.17L18.73,55.27L17.35,54.55L16.88,54.3L15.76,53.55L14.93,52.91L14.8,51.22L14.2,51.34L12.82,51.96L11.18,52.35L10.31,52.35L9.926,52.09L9.408,50.29L9.019,49.8L8.285,49.6L7.508,49.29L7.119,48.82L7.033,48.23L7.378,47.56L7.81,47.05L7.853,43.87L7.594,42.73L7.378,41.8L6.774,40.61L6.256,39.88L5.436,39.2L4.183,38.5L3.061,38.24L1.679,38.74L1.247,38.55L0.686,36.37L0.341,35.93L-2.077,35.02L-3.157,34.81L-4.452,35.09L-5.143,35.33L-5.704,34.94L-6.611,34.44L-7.518,34.08L-8.597,34.08L-9.331,34.29L-9.504,34.16L-9.849,33.77L-11.32,32.56L-11.36,32.25L-9.115,31.07L-7.777,30.6L-7.086,30.26L-6.956,30.32L-6.611,30.89L-5.747,31.23L-5.143,31.15L-4.797,30.86L-3.718,30.21L-2.854,29.45L-2.38,28.82L-2.639,27.83L-3.977,26.65L-4.841,25.99L-5.1,25.57L-4.884,24.25L-4.582,22.96L-4.754,22.46L-5.013,22.04L-5.143,20.64L-5.704,18.93L-6.352,17.92L-6.525,16.57L-6.568,15.33L-5.791,13.34L-6.093,12.48L-6.87,11.71L-9.633,10.33L-12.48,9.422L-13.56,9.449L-14.25,9.396L-15.03,10.2L-15.51,11.26L-16.15,11.37L-17.36,10.91L-18.18,10.22L-18.74,8.809L-19.22,6.993L-19.48,6.432L-19.35,5.951L-19.05,5.496L-18.27,5.094L-18.14,4.666L-18.27,4.157L-18.87,3.487L-19.52,2.575L-20.51,0.642L-20.34,-0.434L-20.17,-1.969L-20.21,-2.777L-19.22,-2.966L-17.92,-3.398L-17.32,-4.072L-16.93,-4.774L-16.84,-5.207L-17.23,-6.911L-17.75,-7.642L-17.79,-8.238L-17.54,-8.671L-17.19,-9.458L-16.54,-11.03L-15.89,-12.04L-15.55,-12.28L-14.77,-12.53L-12.91,-12.8L-10.88,-13.51L-8.467,-15.63L-7.647,-16.23L-6.611,-16.54L-5.834,-16.51L-5.704,-16.78L-6.222,-18.09L-6.093,-18.56L-5.791,-18.94L-5.445,-19.11L-3.761,-18.42L-2.466,-18.5L-0.912,-18.91L2.413,-21.24L2.845,-21.19L3.19,-20.89L3.579,-19.49L4.054,-16.54L4.313,-16.15L6.644,-16.13L8.242,-17.19L8.933,-17.44L10.05,-17.27L10.66,-17.77L11.26,-18.12L12,-16.89L12.95,-17.49L13.94,-18.42L14.42,-19.41L15.11,-20.45L15.63,-21.79L15.84,-23.06L16.1,-23.63L16.66,-24.24L18.04,-26.86L19.08,-27.52L19.99,-27.77L22.36,-27.3L23.57,-27.35L27.15,-27.02L28.79,-27.52L29.96,-28.01L31.64,-27.93L33.63,-28.34L36.31,-31.61L36.35,-32.3L36.52,-33.05L37.47,-33.8L38.68,-34.47L41.06,-36.08L45.94,-38.62L47.66,-39.65L48.4,-39.62L50.21,-40.26L53.36,-41.52L53.63,-42L335.2,-42ZM402,287.5L400.4,286.6L400.1,283.9L399.6,282.4L399.6,281.9L399.8,277.4L399.9,276.9L400.3,276.4L401.5,275.4L402,275.1L402,287.5ZM332.5,376.7L332.3,376.8L332.1,376.8L331.9,376.6L331.9,375.9L332.1,375.5L332.5,375.4ZM335.8,383.6L335.4,384L334.7,383.1L334.7,382.8ZM386.2,334.6L386.4,335.2L385.9,336.5L385.4,337.7L384.4,338.7L384.3,339.5L383.9,341.7L384.1,342.4L384.3,343.1L384.7,343.4L385.5,345.6L386.3,347.6L387.1,349.2L387.2,350.2L386.5,352.8L385.7,355.2L385.7,356.4L386.1,357.7L386.5,359.2L386.6,361.3L386.4,362.6L386,363.4L385.3,364.3L384.7,364.7L383.9,364L383.3,364L382.5,364.2L381.9,364.5L380.6,365.8L379.1,366.9L377.1,367.3L376.4,368.2L375.5,368.3L374,368.3L373,368.5L373,369L372.9,371.1L372.9,371.6L372.8,371.7L372.1,371.8L370.8,371.5L369.2,371L368,370.9L367.4,371.8L367.1,372.2L366.7,372.2L366.2,372.4L366.1,372.8L366,373.3L366.2,374.2L366.3,375.6L366.3,376.5L366.7,377.2L369.2,379.2L369.9,379.7L370,380L369.5,381.1L369.9,382.6L369.2,382.6L367.9,381.9L367.2,381.5L366.5,381.9L366.2,381.8L365.7,381.1L365.1,380.3L364.4,380.2L362.9,380.5L361.4,380.7L360.9,380.7L360.6,380.9L359.7,382L359.4,381.8L357.9,381.4L356.6,381.2L356.2,381.5L356.4,382.5L356.7,383.4L356.6,383.8L355.8,384.3L354.8,385.1L354.2,385.8L353.8,386L352.3,386L350.8,386.1L350.2,386.7L349.6,387.2L349.1,387.3L347.1,385.7L343.3,385.2L342.8,384.5L342.4,384.4L342.1,385.3L339.9,386.1L339,385.6L338.4,385L338.5,384.2L339.1,383.6L340.1,383.1L340.7,381.5L339.8,379.4L339.1,378.8L338.4,378.3L337.6,379.1L336.9,380.4L336.3,381.1L335.3,381.3L333.8,381.2L333.3,379.2L333.1,377.6L333.3,375.6L333.5,374.5L332.1,372.9L332,371.5L331.4,370.7L331.2,371.1L331.2,371.5L331,371.2L328.8,366.8L328.5,364.8L328.8,363.2L329,362.7L328.4,361.9L327.5,360.9L326,359.7L325.9,357.7L325.6,355.4L325.1,354.7L324.3,353.3L324,352.1L323.8,349L324,348.7L325.2,348.6L326.5,348.4L326.8,347.9L326.5,347.5L327.4,346.8L328.7,345.2L329.7,343.6L330.5,342.6L330.9,341.6L332.4,340.2L334.4,339.2L335.7,338.9L337.2,338.6L338.5,338.1L339.2,338.1L340.9,338.7L341.8,338.8L342.8,338.8L343.8,338.9L344.6,338.8L346.7,338.4L348.9,338.7L350.9,338.5L353.3,338L354.5,338.3L355.6,338.8L355.8,339.7L356,340.1L356.4,340.5L356.9,340.5L357.5,339.8L358,339.1L358.2,339L358.2,339.3L358.4,340.1L358.9,340.8L359.4,341.3L360.2,341.9L360.7,342L362.4,341.4L364.8,342.2L365.1,342.7L366,343.6L366.8,344.2L368.8,344.3L369.5,342.7L369.2,341.7L368,340L367.7,339L368.1,338.9L370,338.7L370.3,338.5L370.7,337.4L371.2,337.5L372.2,337.7L373.3,336.9L374,336.1L374.3,336.5L374.7,337L375.2,337.4L375.9,337.8L376.8,338.5L377.4,339.1L377.8,339.4L378.9,339.2L379.2,339.2L379.9,338.5L380.3,338L380.7,338.1L381.3,338.1L382.5,337.1L383.1,336.2L383.5,336L384.5,336.4L385,336.3L385.6,335.1ZM297.5,263.9L296.1,263.1L295.5,262.7L294.7,262.6L293.9,263.1L293.3,263.6L292.6,263.8L291.7,263.9L290.4,263.6L289.5,263.4L289.4,263.5L289.9,264.7L290.1,265.6L289.8,266.1L289.5,266.5L288.8,266.8L288.1,267L287.4,267L286.4,266.5L285.6,266.5L284.9,266.7L284.5,267.1L284.3,267.5L283.9,269.8L283.5,270.5L283,270.9L282.5,270.9L281.9,270.8L281.2,270.9L278,271.8L277.5,271.9L276.5,272L275.6,272L274.9,271.9L273.3,271L272.6,270.9L272.2,271.2L271.9,272.4L271,273.2L269.9,274.9L269.5,277.4L269.7,279.1L268.6,280.8L268.5,281.6L269.1,285.5L269,285.9L268.8,286.1L268.1,286.3L267,286.7L266.2,287.1L265.8,287.1L264.8,286.8L264.5,286.8L264.6,287.1L265.4,288.8L266.3,289.6L267.2,289.5L267.6,289.7L267.5,290.1L267.9,291.2L268.7,292.9L268.9,294.2L268.4,295.5L268.5,295.9L268.8,296.2L269.5,297.4L271.2,299.3L272.8,301.3L274.1,302.9L275.1,304.1L277.3,306.3L277.7,307.3L277.8,309.3L278.3,310.5L278.8,311.3L279.1,312L280,314.3L280.3,314.6L282.1,313.2L282.5,313.5L282.7,314.1L282.7,314.7L282.4,315.5L281.9,316.2L279.1,317.8L278.9,319.2L278.7,321.3L278.7,323.9L278.8,325.9L278.7,326.3L278.5,326.5L277.4,326.5L276,327.4L275.5,327.5L274.8,327.9L274.3,328.4L274.2,329.1L274.5,331.2L275,333.2L276,334.7L276.8,335.8L278,337.4L278.9,338.8L280.7,340.4L283.2,342.7L284.2,343.9L285.1,345.5L285.7,346.8L285.9,348.5L286.1,349.5L286.1,352.8L285.7,353.5L285.3,354.3L285.5,355.2L286.1,356.1L286.1,357.1L286.6,358.8L287.6,359.9L288.5,360.6L288.9,361.2L288.8,362.1L289,363.1L289.2,364.1L289.6,365.6L290.3,366.8L291.4,370.6L291.4,371L290.9,371.7L290.2,372.4L289.8,372.7L289.3,373.4L288.3,375.4L286.3,378.9L284.3,381.1L282.7,382.7L281.5,383.7L281.1,384.3L281.1,384.7L281.3,385.6L281.3,387.1L281,388.1L280.6,389.1L280.5,390L279.9,390.2L278.8,391.9L278.3,391L278,390.1L278.3,388.1L277.6,384.1L278.1,383.6L278.4,383.3L279.2,381.8L280.1,380.3L280.2,378.5L280.9,377.2L280.8,376.1L280.8,374.8L281,373.8L280.9,372.9L281.5,372L282.5,371.3L282.1,371.1L281.7,370.6L280.3,371.4L279.7,371.1L279.5,370.3L279.7,369.5L279.8,369L280.3,368.4L280.3,367.3L280,366.4L280.4,365.1L279.6,365.1L279.2,364.9L279.4,364.2L280.2,363.6L279.5,362.5L280,361.3L280,359.8L279.7,358.4L279.7,357.5L279.2,355.8L278.9,353.6L277.9,352L277.1,349.7L275,346.6L275,345.3L274.9,344.1L274.4,343.5L273.8,347.6L273.3,346.8L273.2,344.5L272.9,343.5L273.2,341.3L272,339.1L271.8,337.6L270.9,335.2L271.2,334.7L272.3,335.2L271.3,333.8L270.5,334.1L269.8,332.6L269.6,328.6L268.9,327.1L269.3,325.6L268.6,320L267,318.2L267.3,316.7L267.7,315.3L267.6,312.7L268,312L268.7,311.3L268,311.6L267.5,311.7L266.1,311.9L264.5,311.9L264,310.1L263.2,309.2L262.6,307.3L262.2,305.2L262.4,304.8L261.3,303.9L260.9,303.4L259.7,302L258.2,300.9L258.6,301.7L259,302.1L258.2,303.4L258.9,305.6L258.3,306.9L257.8,308.7L257.2,309.6L255.5,311.4L254.1,312L253.2,312.1L252.4,312L251.4,311L251.2,310.2L251,308.9L250.7,308.7L250.3,308.8L250.9,310.6L250.9,311.4L251.9,312.9L251.5,313.3L249.6,314.2L249,314L248.6,314.2L248.4,314.9L248.2,315.3L245.2,316.3L244.6,317.5L244.2,318.7L242.7,320.5L240.7,321.9L240.2,321.8L239.7,321.5L239.8,320L240.4,318.6L240.2,317.2L240.1,318L238.8,320L238.2,320.6L237,320.4L235.4,320.7L234.7,318.7L234.7,318L234.6,317.4L234.8,316.7L234.7,316.2L234.4,317.2L234.2,318L233.6,318.8L232,319.6L231.9,318.6L231.9,317.6L232.2,316.8L232.2,315.4L232.7,313.5L232.6,312.8L232.5,312.1L232.2,313.1L232,314.3L231.7,314.6L231.1,314.8L230,316.1L229.4,317.3L227.6,318.3L226.8,318.2L226.6,316.9L227.3,312L228,311.3L228.3,310.5L228.8,307.6L229.5,306.5L229.7,304.3L230,303.9L230.8,302.1L231.1,298.8L230.8,297.2L230,295.6L229.2,290.8L227.2,287L227.1,285.7L226.1,284.1L227,284L225.2,282.6L224.9,282.1L224.5,278.9L224.6,277.1L224.3,277.3L224.1,278.4L223.3,278.9L223.7,280.8L223.6,281.3L223.2,282L221.7,281.2L220.5,280.4L219.2,278.3L218,276L218.4,275.7L219,275.6L220.8,277.3L222,277.7L222.7,277.3L223.6,276.5L224,275.1L223.6,274.6L222.7,274.3L222.1,273.9L221.3,273L221.2,272.5L220.9,271.9L220.1,271.4L219.4,270.9L220,269.9L220.5,269.1L219,269.2L217.3,267.9L217,267.5L216.4,267.3L215.1,267.1L213.9,267.5L214.5,269.3L214.4,269.9L213.6,269.8L212.1,267.1L212.6,266.3L213.2,265.7L212.9,265.6L212.3,265.6L212.9,263.2L212.5,262.8L212.3,263.6L212,264.3L210.7,266.1L210,265.7L209.6,265.3L210.2,264.4L210.5,264.1L210.7,263.7L210.3,262.7L209.5,262L208.9,260.8L208.6,260.8L208.8,262.2L208.8,264.2L207.4,262L204.6,258.8L204,257.9L203.8,256.9L203.5,256.1L203.3,255.1L203.2,254.4L202.6,253.8L202.4,252.6L202.2,251.4L202.6,250.6L203.4,249.7L204.1,249.5L204.5,249.9L205.7,250.5L206.6,251.1L206.9,251.8L207.2,251.7L207.6,251.3L207.5,250.7L207.2,249.2L207.1,247.4L207.1,243.1L206.9,242.6L207.6,242.2L207.9,241.7L208.2,240.9L208.3,240.6L208.7,240.6L209.3,240.9L210.3,242.2L211,242.4L211.6,242.2L212.3,240.4L212.6,239.9L212.9,239.6L213.5,239.6L213.9,239.3L214,238.5L214,237.6L213.3,235.2L213.1,234.1L213,233L213.4,231.8L214,230.5L213.9,229.4L214,228.9L214.5,228.8L215.1,229.1L215.8,228.9L216.3,228.2L216.4,227.6L216.7,224.9L217,222.4L217,220.4L216.5,219.2L215.8,216L216,215.4L216.3,215.3L217.5,216.4L218,216.6L218.8,216.4L219.6,216.2L220.2,216.2L221.1,216.6L222.3,217L224.2,217.5L224.9,217.9L225.6,217.9L226.1,216.6L226.7,214.7L227.6,212L228.6,210L228.8,209.5L230,207.8L231.1,206.2L232,204L232.5,202.4L232.5,201.8L232.2,201.2L231.4,200.9L230.9,200.5L230.7,200.2L230.7,199.8L231,198.8L231.5,197.6L232.1,197L233.5,196.2L234.4,195.1L235.4,193.8L236,192.8L236.2,190.9L236.5,190.6L237.2,189.9L237.6,189.2L237.6,188.8L237.3,188.6L236.9,187.2L236.6,185.1L236.8,183.4L237.1,182.8L237.6,181.8L238.5,181.2L239.7,180.8L241.6,179.7L244.9,177L246.1,176.2L246.9,175.8L247.7,174.7L248.8,173.4L250.3,172.9L251.3,172.6L256,171.8L256.8,171.9L257.6,172.4L258.6,174L259.5,174.6L260.5,175L261.3,174.8L261.3,174.2L258.8,170.4L258.6,169.4L258.5,168.4L258.8,167.7L259.6,166.9L260.6,166.1L261.9,165.1L262.7,164.3L263.7,164.1L264.1,163.7L264.2,163.1L264.1,162.4L263.7,161.7L263.8,160.7L263.9,159.9L264.3,159.4L265.2,158L265.7,157.1L266.1,156.6L266.5,155.9L267.2,155.8L268,156L268.4,156.5L268.8,157.3L269.2,158L269.8,158L270.4,157.9L270.7,158L271.2,158.6L272.3,160L272.8,160.3L273.2,160.9L273.4,162.1L273.6,163.3L274.9,167.4L275.3,168.3L275.6,169L276.2,169.1L276.7,168.4L276.9,167.7L277.4,167.5L278.1,167.6L279.2,168.3L279.8,168.7L280.1,170.7L280.2,173.1L280.1,173.8L280.6,175.8L280.8,178L280.9,179.3L280.9,180.4L280.8,182L280.6,184L280.1,185.8L280.3,187.2L280,187.9L278.9,188.3L278.8,188.8L279.1,189.7L279.9,190.9L279.9,191.6L279.5,192.1L278.7,192.1L277.6,192.6L276.8,194.1L276,195.3L275.6,195.5L274.1,195.2L273.7,195.5L273.2,197.6L272.8,198.4L272.1,199.2L271.6,199.6L271.1,199.9L269.9,199.7L269.2,201L268.6,202.6L268.6,203.5L268.9,204.8L268.7,205.1L268.1,205.4L267,206L266.4,207.9L266.4,209.8L266.8,210.4L267.5,210.7L268,211.3L268.1,212.1L268.5,213.2L268.3,214.5L266.9,216.4L266.8,217.4L267.6,217.7L268.3,217.6L269.1,217.1L270.1,216.4L272.2,215.4L274.6,214.8L276.4,214.7L278,214.7L278.8,215L279,215.3L281.2,214.7L281.6,214.7L282,214.7L282,215L280.4,216.7L280.1,217.5L280.2,218.3L280.9,219.1L281.5,219.7L282,221.2L281.6,222.5L281.9,223L282.3,223.6L282.6,224.3L282.6,225.3L282.4,226.8L284.7,227.6L286.6,228L288.1,228.1L289,228.4L289.6,228.7L290,229.3L290.1,229.9L289.6,230.3L288.6,231.6L288.1,233.4L288.2,234.7L288.1,235.9L286.9,237.5L286.5,238.6L286.1,239.8L286.1,240.3L286.3,240.7L286.8,240.9L287.6,241L288.7,240.9L291.1,241.1L293.9,241.7L295,241.9L295.4,242.4L295.3,243.6L295.1,244.6L295.3,245.4L295.8,246.1L296.5,246.4L297.2,246.7L297.3,247.2L297.1,248L297.4,248.6L297.8,249L298.6,249.2L300.2,248.7L301.4,249L302.4,249.3L303.3,249.1L304.1,248.7L306,246.8L308.2,245.7L309,245.5L309.4,245.6L309.6,245.7L309.5,246.1L309.8,247.7L309.7,247.9L309,249.2L307.2,250.5L305.9,251.2L305.1,251.2L304.4,252L303.9,253.5L303.4,254.4L302.8,254.7L302.4,255.3L302.3,256.2L302.6,256.7L303.4,256.7L303.5,257L302.8,257.4L301.9,257.6L300.9,257.5L299.9,257.8L299,258.7L298.2,260.5L297.6,263.2ZM274.6,380.7L275.6,382.8L275.4,383.2L275.3,383.3L275,383.3L274.6,382.1L273.9,381.4L273,381.5L273.7,380.6L274,380.4ZM274.2,393.1L273.7,393.9L273.4,393.8L273.7,392.7L274.7,391.8L275.5,391.7L275.4,392.3L274.8,392.9ZM274.7,374.3L274.6,374.6L274.6,374.6L274.3,374.4L274.4,373.2L274.9,372.3L275.4,370.9L275.6,370.6L275.7,371.3L275.4,372.9L275.2,373.7ZM278.2,369.1L277.7,369.1L277.5,367.2L277.6,366.9L278.3,367.8L279.4,368.4L279,368.8ZM278.7,371L278.4,373.6L277.6,373.2L277.2,373.2L276.8,371.8L276.8,371.4L276.5,370.5L278.3,370.3ZM277,360.6L277.3,360.9L277.7,360.9L277.5,362.1L276.6,363.6L276,363.8L275.8,363.8L276,361.6L275.6,360.4L275.8,359.6L276.8,360ZM273.7,366.1L273.5,366.1L273.3,366.1L272.9,365.9L272.5,365.1L272.7,364.5L272.9,364.3L273.3,364.4L273.5,364.5L273.6,364.7L273.4,365.2L273.5,365.6ZM229.8,319.1L229,320.3L228.7,318.5L230,317.5L230.6,316.6L231.3,315.9L231.5,316.7L230.9,318.2ZM266.9,315.3L266.5,315.4L265.8,314.6L265.7,312.7L266.2,312.3L266.5,312.1L267,312.4L267.1,312.7L267.2,313.1L267.1,313.5ZM220.3,284.7L220.2,284.8L218.9,283.8L217.9,282.4L219.5,282.1L221,282.4L221,283.1L220.7,284.3ZM218,269.4L218.2,271.1L217.4,270.5L217.1,269.6L217,268.6ZM220.6,273.6L222,274.7L222.6,274.6L223.4,275.3L223.4,275.5L223.3,276.1L222.9,276.5L221.8,276.9L221.1,276.6L220.8,275.4L220,274.9L219.8,274.4L220.3,273.8ZM278.5,380.6L278.3,380.6L278,380.6L277.8,380.4L278.4,379.1ZM272.9,371.7L273,372.4L272.3,371.6L272.1,369.6L272.7,370.9L273,371.2ZM272.8,363.1L272.7,363.6L272.1,364.5L271.4,363.9L271.3,363.7L271.9,363.1L272.6,363.2L272.7,363ZM275.8,354.4L275.7,356.4L275.1,355.5L275,354.3L275.1,353.3L275.2,353.1L275.2,353.3L275.6,353.8ZM233.7,320.7L233.5,321L233,320.8L232.8,320.7L234,319.3L234.1,319.8ZM212.2,269L212.3,270.2L211.8,269.7L211,268L211,266.9L211.6,267.4ZM195.7,166.1L195.6,166.4L195.2,167.2L195,168.1L195.2,168.8L196,169.7L197,170.4L198.3,170.5L199.5,170.2L199.9,170.3L200.6,171.4L201.1,172.5L200.4,173.5L200.1,174.4L200,175L200,175.3L200.4,175.8L200.9,176.7L200.9,177.5L200.7,178L200,178.3L199.4,178.3L198.9,178.3L198.2,178.3L197.1,178.7L196.1,179L194.3,179L193.6,178.2L193.2,178.2L191.5,179.2L189.7,179L186.3,179.4L185,179.4L183.5,179.3L182.8,179.1L181.5,178.4L180.2,177.9L179,178.3L178.5,178.4L177.5,179.7L175.4,180.1L173.3,180.4L172.6,180.2L171.4,180.1L171.4,179.9L171.4,179.6L171.1,179.4L170.6,179.1L169.8,179L168.7,178.7L168.1,178.4L165.9,178.8L164.6,178.2L163.1,177.3L162.4,176.9L162.1,175.5L161.9,175L161.3,174.6L161,174L161.2,173.4L162.7,172.4L162.8,172.1L163.5,170.1L164.4,169.4L165.3,168.4L166,166.8L167.3,165.1L168.8,163.4L169.9,162L170.5,161.4L171.9,160.7L173.1,160.3L173.9,159.4L174.9,158.9L175.9,158.6L177.3,158.7L178.7,159.1L180.3,159.5L180.4,159.9L180.3,160.6L180.1,161.2L180.1,161.6L180.3,161.8L181.8,161.9L183.6,161.8L184.7,161.9L187,162.5L187.6,162.9L188.3,163.3L189,163.2L189.9,162.5L190.8,161.9L191.4,161.8L191.7,162L192.5,162.6L194,163.1L195.3,163.5L195.8,163.9L195.6,165.6ZM-42,39.09L-40.51,38.14L-37.96,36.11L-35.5,34.89L-31.91,34.18L-30.7,32.04L-29.06,30.6L-25.26,28.48L-23.23,27.67L-22.02,27.51L-20.56,27.91L-20.21,28.04L-19.91,28.14L-19.18,28.32L-19,28.98L-19.22,29.66L-20.04,30.24L-20.3,30.68L-19.95,31.02L-18.83,31.15L-16.41,30.37L-14.9,29.87L-13.82,29.66L-13.39,29.01L-12.7,28.38L-11.62,28.32L-10.5,28.67L-9.547,28.88L-7.906,28.69L-7.043,29.24L-5.834,30.32L-5.316,31L-5.143,31.15L-5.747,31.23L-6.611,30.89L-6.956,30.32L-7.086,30.26L-7.777,30.6L-9.115,31.07L-11.36,32.25L-11.32,32.56L-9.849,33.77L-9.504,34.16L-9.331,34.29L-10.63,34.86L-13.48,36.16L-15.33,37.23L-15.81,37.28L-16.93,36.84L-18.57,36.29L-19.05,36.32L-22.89,36.4L-26.39,36.6L-27.9,36.87L-30.62,37.1L-32.34,37.18L-33.42,37.59L-34.63,38.14L-35.88,38.48L-36.79,38.61L-37.91,39.1L-38.65,40.11L-40.76,41.59L-41.93,42.32L-42,42.41L-42,39.09Z" fill="#D8E2E7" stroke="#3F464B" stroke-width="0.85" vector-effect="non-scaling-stroke"/><path d="M164.7,241.1L164.8,239.9L164.7,238.7L163.8,235.7L163.1,234.1L163.2,233.6L163.2,233.4L162.9,231.4L162.5,230.1L162.3,228.8L163.2,226.9L162.9,226.6L161.8,226.3L160.8,226L160.5,225.5L161,223.6L160.4,222.9L159.7,222.1L159.5,221.9L159.2,221.5L158.9,220.5L159.6,218.5L160.5,216.2L160.7,215.3L160.8,213.8L160.9,213.2L160.8,212.6L159.8,212L158.1,211.7L156.9,211.1L156.1,210.3L155.5,209.9L154.8,210.2L153.8,209.9L153.1,209L152.4,208L152.5,207.5L152.6,206.9L153.9,204.2L154.4,204.1L155.4,204.6L155.9,204.6L156.6,203.6L157.5,200.6L159,200.6L160.2,200.7L161,200.8L161.9,200.7L162.8,200.5L163.2,200.1L163.5,199.6L163.4,199.2L162.3,198.6L162,198.2L161.7,197L161.3,196.6L159.2,196.5L158.1,195.9L157.5,195.5L156.5,193.8L155.1,192.6L153.9,192.3L153.4,191.9L153.1,191.3L153.3,190.4L153.7,189.5L153.9,188.6L154.9,187.4L156.1,186.3L156.6,185.6L157.4,184.8L157.5,184.4L157.3,183.9L156.7,183.5L156.3,183.3L156.3,183L156.5,182.2L157.1,182.1L158.3,182.8L159.5,184L160.3,185.1L160.3,185.9L160.7,186L161.2,186L162,186.4L162.9,186.3L163.4,186.5L163.7,186.4L163.9,186L163.5,185.3L163.2,184.8L163.5,184.3L163.9,184.2L164.3,184.3L164.9,184.7L165.3,185.7L165.4,187.1L166.3,188.3L167.6,189.3L168.5,189.7L169.7,190L170.7,189.7L171.2,188.8L171,188L171.1,187.3L171.5,186.9L172.1,186.9L172.6,187.5L174,190.6L173.7,191.9L174,195.6L173.7,198.1L173.7,198.6L173.9,199L174.1,199.2L174.5,199.2L176.1,199.6L177.5,200.2L179.1,200.6L181.3,201L182.7,200.8L183.5,200.8L184.8,201L188.5,200.8L191.6,200.7L192.8,201.1L193.8,201.2L197.2,200.9L200.7,200.8L202.5,201.6L204.6,202.9L205.7,203.8L205.9,204.3L205.8,204.8L205.4,205L204.7,205.1L203.1,204.5L202.8,204.6L202.8,205.9L202.8,206.1L202.5,207.2L201.5,209.7L201.3,210.9L201.1,211.2L200.9,211.3L200.1,211.4L199.5,211.6L199.3,212L198.9,212.8L198.6,213.7L198.2,213.9L197.4,213.5L196.8,213.5L196.1,213.7L195.4,214.2L194.9,214.8L194.4,215L192.8,214.9L192.5,215L192.3,215.5L192.1,216L190.8,217.3L190.4,219.3L190,220.7L190.1,221.7L191.1,224.4L191.9,228L192.1,228.3L192.4,228.4L192.5,228.4L192.5,227.6L192.5,226.7L192.9,226.5L193.3,226.7L193.7,227.5L194.2,228.9L194.7,229.4L195.5,229.6L196.4,229.3L197.1,228.6L197.4,227.9L197.2,226.6L197.1,225.6L197.5,224.6L199.1,223.2L199.3,222.7L199.2,221.5L199.2,220.4L199.8,220.3L200.6,220.5L201.6,219.9L201.9,219.9L202.3,220.5L203,220.4L203.5,222.9L204.1,225.1L204.1,226.2L204.2,228.4L204.4,230.2L204.8,230.7L205.2,231.6L205.6,232.8L205.9,233.4L206.2,235.5L206.5,237L206.8,241.7L206.9,242.6L207.1,243.1L207.1,247.4L207.2,249.2L207.5,250.7L207.6,251.3L207.2,251.7L206.9,251.8L206.6,251.1L205.7,250.5L204.5,249.9L204.1,249.5L203.4,249.7L202.6,250.6L202.2,251.4L202.4,252.6L202.6,253.8L203.2,254.4L203.3,255.1L203.5,256.1L203.8,256.9L204,257.9L203.7,257.9L203.1,256.7L202.4,255.4L200.7,252.9L200.2,248.5L200.2,246.4L199,243.8L198.3,240.3L198,239.3L198.3,238.2L198.4,237.8L198.2,237.9L197.6,238.4L196.9,237L196.4,235.8L194.4,233.1L193.9,232L193.8,230.8L193,232L191.8,232.8L190.7,234L189.9,234.3L187.4,234.6L186,232.9L184,229L183.7,228.1L183.9,225.8L183.5,223.6L183.5,222.4L183.3,221.6L183,221.8L182.8,222.3L182.9,223.1L182.8,223.8L181,223.7L179.3,223.4L180.8,224.5L182.3,224.8L183.2,225.8L183.3,226.7L183.2,227.6L182.4,228.2L181.7,228.6L181.8,229.5L182.7,230.6L181.6,230.9L181.3,231.6L181.3,232.5L181.9,233.4L182.1,234.1L181.9,234.7L182.5,235.3L183.2,236.7L183.5,237.6L183.2,239L182.7,239.5L182,240L180.3,241.7L179.5,243.6L178.8,244.5L178,244.7L177.7,244.3L176.9,243.8L176.9,242.8L177.2,242.1L178.6,240.3L177.8,240.5L176.9,241L175.6,242L175.1,240.8L174.8,239.7L174.8,238.3L175.9,236.3L174.6,237.3L174.3,238.6L174.5,240.1L174.3,241.1L173.8,242.5L173.2,243.3L172.1,243.9L171.6,244.7L170.9,245.3L170.9,244.1L170.7,242.5L169.9,238.7L169.7,239.5L170.1,241.9L170.1,243.4L169.5,244.6L168.3,245.9L167.4,246.1L166.9,245.9L166.1,245.1L165.2,244L165.1,242.1ZM189.9,240L188.6,240.9L189,235.6L190,237.6L190.2,238.6ZM194.8,237.3L194.2,237.7L193.7,237.4L193,236.1L193.3,234.5L193.6,234.3L193.9,234.8L194.3,235.9L194.6,236.8ZM185.4,241.1L183.3,241.6L182.2,241.5L184.2,238.1L184.2,236.5L183.9,235.3L182.8,234.3L182.8,233.6L182.3,232.6L182.1,231.5L183.2,231.1L184.1,231.8L184.3,232.1L184.4,233.1L184.9,234L186.5,236L186.5,237.3L186,240.2ZM198.6,244.5L198.1,245.5L197.9,244.8L198.1,243.8L198.3,243.3L198.4,243.3L198.7,243.8ZM199.5,248.7L198.7,248.7L198.4,248.3L198.6,247.8L198.3,246.1L199,245.9L199.3,245.9L199.5,246.4L199.6,247.3ZM183.8,229.8L184,230.4L183.3,230L182.8,229.6L182.5,229.1L183,228.9Z" fill="#8B341D" stroke="#2C160F" stroke-width="1.1" vector-effect="non-scaling-stroke"/></svg>