<svg xmlns="http://www.w3.org/2000/svg" viewBox="0 0 360 440" width="360" height="440" role="img" aria-label="Regional map with Bahrain highlighted"><rect width="100%" height="100%" fill="#7FA6D6"/><path d="M324.4,482L321.6,478.4L316.5,471.7L311,464.8L305.8,457.9L300.6,451.1L295.1,444.2L289.9,437.3L284.8,430.4L281.3,425.9L279.3,420.8L278.9,407.1L278.9,404.2L282.4,398.7L284.1,402.5L288.2,407.8L294.8,406.6L297.9,407.5L300.3,426.2L305.1,433L311.3,435.7L331.6,437.1L344,434.6L369.2,422.4L382.3,417.9L402,418.4L402,482ZM379.2,403.8L377.5,404.6L376.1,398.9L376.1,397.3L380.6,394.5L383,399.3ZM-15.7,-42L-15.07,-40.76L-12.65,-30.55L-2.659,-6.408L11.47,12.42L14.57,19.19L16.99,29.53L14.57,33.48L13.54,37.8L23.88,48.12L41.45,56.74L48,58.99L55.59,62.93L49.73,68.73L60.06,82.58L71.78,96.42L84.53,99.59L101.8,120.7L127.3,134.3L143.1,152.1L141.7,152.5L136.9,150.7L131.4,148.2L129.7,150.5L129.7,157.9L131.4,166.6L139.3,174.3L146.6,179.6L149.3,190L143.5,212.3L141.7,212.1L138,210.2L133.8,209.8L131.8,211.1L136.6,227L141.1,239.2L146.9,248.8L151.7,263L155.5,268.9L172.4,284L177.2,296.5L182.1,319.9L192.4,332.7L198.3,342.8L205.8,351.2L210.7,362.7L217.6,371.7L221.4,373.9L226.5,374.8L233.4,374.8L241.3,372.6L250,370.4L256.9,374.8L263.7,374.3L264.4,378.5L260,384.1L254.1,398.4L262.4,400.7L270,401.8L275.8,404.2L278.9,404.2L278.9,407.1L279.3,420.8L281.3,425.9L284.8,430.4L289.9,437.3L295.1,444.2L300.6,451.1L305.8,457.9L311,464.8L316.5,471.7L321.6,478.4L324.4,482L-42,482L-42,-42ZM250,370.4L241.3,372.6L233.4,374.8L226.5,374.8L221.4,373.9L217.6,371.7L210.7,362.7L205.8,351.2L208.6,344.8L209.6,340.8L203.1,310.1L201,286.6L201.7,281.8L205.5,276.3L212.1,264.1L215.2,252.2L224.8,224.8L234.8,214.3L249.6,206.5L261.7,221.7L276.5,233.3L279.3,246.3L274.8,256.8L271,273.4L273.4,281.1L274.1,287.7L278.2,298.9L282,313.3L282.7,323.4L280.6,332.7L275.5,340.4L265.5,364L262.4,366.4ZM402,92.03L386.4,81.08L381.3,73.79L377.8,62.74L365.8,49.43L338.5,38.55L323,27.09L305.1,24.46L288.2,24.83L281,22.77L274.1,17.69L251,-6.22L251,-15.84L236.9,-39.25L235.8,-42L402,-42Z" fill="#D8E2E7" stroke="#3F464B" stroke-width="0.85" vector-effect="non-scaling-stroke"/><path d="M186.9,235.4L183.8,243.5L180.7,240.5L173.5,226.5L175.5,216.7L172.1,202.6L173.8,198.6L182.8,196.5L184.8,197.3L182.1,201.7L187.2,209.7L187.9,222.6Z" fill="#8B341D" stroke="#2C160F" stroke-width="1.1" vector-effect="non-scaling-stroke"/></svg>