<svg xmlns="http://www.w3.org/2000/svg" viewBox="0 0 360 440" width="360" height="440" role="img" aria-label="Regional map with Brunei highlighted"><rect width="100%" height="100%" fill="#7FA6D6"/><path d="M-40.93,-42L-42,-40.93L-42,-42ZM371.6,-42L371.8,-41.13L370.8,-36.78L370.8,-34.68L371.9,-32.44L370.5,-28.85L374,-19.23L376.6,-13.2L376.7,-11.17L373.1,-7.586L371.1,-6.504L366.5,-5.489L364.4,-4.474L361.3,-1.498L359.2,2.356L358.6,4.384L357.7,5.939L348.3,8.574L344,10.26L341.9,11.55L341,13.64L341.7,17.36L333.8,30.79L331.3,34.23L328.7,37.26L325.4,39.35L320.8,40.63L317.1,43.26L314.6,47.84L311.6,51.95L307.7,54.98L303.6,57.67L299.7,59.7L295.6,61.04L294.3,62.86L293.5,65.08L291.6,66.16L289.5,66.69L285.6,68.91L285.6,68.91L282.1,71.74L282.5,68.24L283.4,64.94L287,58.28L289.6,56.19L293.9,50.94L296.4,48.38L302.2,43.33L307.6,37.8L309.4,37.4L311.3,37.33L313,36.72L316.4,33.69L325.1,23.77L332.4,16.34L339.9,6.952L343.5,4.181L344.4,3.167L351.2,-5.489L353.4,-6.706L355.7,-7.654L357.4,-8.804L358.9,-10.29L361.3,-14.08L362.4,-18.48L361.7,-20.99L360.3,-24.65L362.1,-29.66L363.3,-31.97L368.1,-42L371.6,-42ZM276.7,90.43L274.7,93.38L272.5,90.02L272.7,85.25L273.4,83.98L276.7,83.24ZM385.4,-10.63L380.7,-9.413L379.6,-13.2L382.9,-16.66L386.8,-15.23L389,-13.88L387.9,-12.66ZM398.2,191.8L397.3,194.1L396,195.2L394.4,194.6L393.1,193.4L392.5,195.2L389.1,195.9L387.1,198.6L383.9,199.4L381.8,199L382.1,196.5L388,192.9L391.8,191.5L394.9,188.9L396.6,188.6L397.4,190.8ZM287.3,77.59L284.7,78.53L284.1,76.11L284.4,73.76L286.3,73.96L287.2,74.7ZM295.7,233.6L294.2,233.5L290.9,232.7L284.3,228.7L277.5,227.2L267.7,227L262,226.5L259.8,227.1L257.9,227.1L256.5,226.3L255,225.9L251.3,228.3L249.5,227.6L247.6,226.5L244.4,226.2L240.5,226.5L236.1,229L231.4,226.7L230,226.8L229.1,227.3L227,230.4L223,232.7L221.1,237L219.8,241.1L218.8,242.5L218.4,250.4L217.9,254.2L218.8,259.3L218.7,261.4L216.9,264.7L216.6,265.4L215.8,270.5L216.1,271.9L215.9,273.6L214.4,277.2L211.7,278.2L208.9,278.8L206.4,277.5L204.2,279.5L201.5,282.6L200.4,284.7L200.4,286.6L200.6,287.9L200.1,289.2L199.9,290.6L200.1,292.6L202,293.5L203.9,295.2L203.8,296.9L202.8,298L200.4,299.8L195.8,303.4L190.7,306.6L188.8,307.3L188.1,308.8L187.8,310.7L188.9,315L189.9,316.2L190.6,317.7L189.9,319.4L189.3,321L187.4,322L185.6,322.6L184.9,323.9L183.9,328.9L182.8,331.6L180.3,335.5L179.5,337.3L178.3,337.9L173.4,336.1L169.2,337.2L163.5,337.9L158.7,337.8L155,338.6L152.3,340.7L149.4,343.3L146.4,345.3L144.2,346.2L140,343.5L137.8,343.7L134.1,342.7L125.1,339.6L122.9,338.7L120.6,338.6L119.9,337.7L120.3,336.2L119.9,334.3L118.1,333.5L100.3,333.8L95.06,335.5L91.61,336.9L89.13,338.4L88.44,342.3L86.92,345.9L84.99,349.8L79.05,350.9L74.64,354.8L73.12,355.3L70.22,354.7L66.91,354.4L64.56,355.5L62.22,355.4L54.63,353.6L47.59,353.3L43.45,354.2L41.24,354.6L28.96,360L24.68,360.6L23.02,359.8L20.68,357.6L17.36,355.4L9.775,348L6.877,346.3L4.945,344.5L3.151,342.3L0.667,340L-1.679,338.4L-4.853,335.2L-7.889,331.7L-8.579,325.5L-11.06,324.4L-12.03,322.8L-12.3,320.9L-8.855,315.8L-6.371,321.2L-5.405,322.4L0.115,326L4.669,327.8L9.637,328.5L14.74,328.6L16.81,328.3L18.75,327.7L20.68,328.4L31.16,334.3L35.3,335.3L39.58,334.9L41.38,335.4L47.45,339.9L49.24,340.4L52.28,340.1L48.42,338.1L45.93,336.6L44.83,333.9L45.38,330.9L47.86,329L49.52,327L50.21,320.7L51.31,317.5L53.25,314.4L53.94,311.6L51.73,309.3L51.18,305.5L51.59,302.4L52.97,300.2L55.04,301.6L57.11,302.9L59.18,302.8L60.7,302.3L60.97,300.6L60.56,297.8L60.7,292.6L63.32,288.4L67.6,285.5L71.6,284.1L86.5,281.8L110.2,275.9L117.3,273.5L119.9,272.3L122,270.7L125.7,265.3L132.6,257L137.4,250.1L147.6,240.1L155.8,230.8L156.9,229.1L158.1,224L158.3,221.6L158,219.2L159.1,218L160.7,217.4L161.2,217.4L162.3,218.4L165.2,219.9L167.2,221.8L168.6,224.2L169.7,226.5L169.7,228.4L171.1,230.1L174.7,230.3L175.8,232.3L178.3,235.8L180.6,238.3L182,239.2L183.8,238.7L186.4,236.5L188.3,233.7L189.7,229.9L188.6,229.3L190.6,226.5L190.8,225L190,223.6L188.9,222.3L188.5,218.9L187.8,214.5L187.2,212.6L188.8,211.1L191.8,209.3L194.8,207.2L198,205.6L198.1,208.6L198,213.6L199,217.8L201,225.1L203.5,226.1L206.4,226.8L208.1,226.6L209.2,226.1L209.5,225.5L207.7,222.6L207.3,215.8L205.7,211.3L203.4,206.8L202.4,205.6L211.4,204.3L213.3,202.9L216.9,199.8L218.3,198.1L219.3,194.2L214.8,191.9L213.2,189L213.1,185.8L218.3,179.9L220.1,178.5L220.9,180.6L223.3,181.1L225.3,181.2L227.5,181L230.6,178.1L232.2,173.8L237.6,167.7L239.5,163L240.7,158.2L254.3,143.1L256,140.7L264.1,125.5L265.1,125L267.3,126.5L267.8,131.3L267.6,133.4L266.3,136.5L265.5,139.8L266.5,139.7L270.3,137.7L274.3,132.4L276.7,127.8L278.6,125.8L282.5,126.9L283.3,127.7L283,131L283.4,133L284.9,137.1L288.3,139.5L292.8,141.1L297.1,143.4L298.5,144.9L299.3,146.7L300.3,149.7L300.3,152.7L297.2,155.6L298.6,160.4L298.3,163.1L297.4,165.4L292.8,167.7L305,165.4L308,164.2L312.1,161.1L314.3,163.8L316.4,168.5L314.8,169.7L309.5,171.4L309.2,172.1L311,174.5L313.2,174.3L317.5,172.7L321.5,170.1L323.5,170.1L325.5,170.7L329.5,172.3L331.7,173.6L333.5,175.3L334.8,178.9L339.3,180.2L348.7,185.2L350.4,185.6L352.3,185.7L357.1,185.1L358.9,185.8L360.2,187.6L360.6,189.8L360.4,192.3L359.9,194.1L358.8,195.5L355.3,197.8L346.9,200.8L337.8,203.1L333.1,202.9L326.6,201L324.3,201.2L321.9,202.1L319,208.3L324.4,214.4L333.5,220.8L334.8,222.4L334.5,224.4L333,225.6L331,226.2L325.9,227.2L320.7,228L316.6,229.1L312.3,230.5L308,230.1L302.1,227.2L300.4,227L298.6,228.4L296.8,232.5ZM279.2,118.1L276.8,120.2L276,117.7L276.1,114.5L279.3,111.6L283.8,111L284.4,113.4L283.8,116.1L282.9,117.5ZM58.63,301L57.39,301.5L55.59,300.1L55.18,288.5L56.42,287.5L57.25,287.6L58.21,289.7L58.08,294.8L58.21,299.3ZM307.6,233L302.2,233.7L298.5,233.7L299.2,232.3L299,230.5L300.8,230.1L302.9,230.5ZM402,376.4L402,376.4L400.5,377.9L396,383.3L393.6,387.2L391.6,392L390.1,397L389.1,401.1L389.1,405.4L389.8,410.1L391.1,414.9L392.5,418.5L397.8,426.9L398.9,428L402,429.3L402,482L355.6,482L355.6,480.2L357,475.6L359.6,471.5L362.6,467.6L363.6,463.6L362.1,457.2L362.8,454.3L362.2,450.9L362.2,447.6L364,441.3L369.8,428.4L375.3,421.5L377.5,419.7L380.4,422.9L382.7,426.6L382.8,423.3L382.1,419.9L379.9,412.1L378,397L378.5,395.6L380.4,395.8L382.5,394.4L383.5,392L381.4,386.5L381.4,384.5L385.3,376.5L388.6,373.7L390,371.9L390.8,367L392.5,365.2L394.7,363.9L397.4,360.6L398.9,356.4L399.9,356L401,355.9L402,358.1L402,376.4ZM10.66,482L10.05,479.2L9.085,470.3L8.257,468.3L3.841,465L3.979,460.4L6.187,456.6L6.739,452.1L6.049,447.2L4.669,442.5L3.013,438.9L0.529,435.8L-2.783,432.4L-6.923,429.8L-15.62,426.9L-20.17,427.2L-21.96,426.1L-23.07,424.5L-22.66,421.7L-21,419.7L-18.93,419.2L-18.65,418.1L-23.21,415.7L-26.8,412.5L-28.04,410.7L-28.31,408.6L-28.31,403.8L-27.21,400.7L-26.66,399L-25.55,394L-23.07,392.4L-23.48,391.4L-24.59,390.8L-26.11,389.1L-27.35,387.2L-30.11,383.9L-35.08,379.9L-35.9,373.1L-36.59,363.2L-36.18,358.6L-34.66,350.1L-31.76,347.5L-29.55,346.7L-27.9,345.5L-29.28,345.4L-30.52,345.8L-32.59,346.1L-30.93,338.5L-30.11,336.3L-26.66,332L-22.52,328.2L-20.86,323.8L-18.52,319.9L-8.855,315.8L-8.855,315.8L-12.3,320.9L-12.03,322.8L-11.06,324.4L-8.579,325.5L-7.889,331.7L-4.853,335.2L-1.679,338.4L0.667,340L3.151,342.3L4.945,344.5L6.877,346.3L9.775,348L17.36,355.4L20.68,357.6L23.02,359.8L24.68,360.6L28.96,360L41.24,354.6L43.45,354.2L47.59,353.3L54.63,353.6L62.22,355.4L64.56,355.5L66.91,354.4L70.22,354.7L73.12,355.3L74.64,354.8L79.05,350.9L84.99,349.8L86.92,345.9L88.44,342.3L89.13,338.4L91.61,336.9L95.06,335.5L100.3,333.8L118.1,333.5L119.9,334.3L120.3,336.2L119.9,337.7L120.6,338.6L122.9,338.7L125.1,339.6L134.1,342.7L137.8,343.7L140,343.5L144.2,346.2L146.4,345.3L149.4,343.3L152.3,340.7L155,338.6L158.7,337.8L163.5,337.9L169.2,337.2L173.4,336.1L178.3,337.9L179.5,337.3L180.3,335.5L182.8,331.6L183.9,328.9L184.9,323.9L185.6,322.6L187.4,322L189.3,321L189.9,319.4L190.6,317.7L189.9,316.2L188.9,315L187.8,310.7L188.1,308.8L188.8,307.3L190.7,306.6L195.8,303.4L200.4,299.8L202.8,298L203.8,296.9L203.9,295.2L202,293.5L200.1,292.6L199.9,290.6L200.1,289.2L200.6,287.9L200.4,286.6L200.4,284.7L201.5,282.6L204.2,279.5L206.4,277.5L208.9,278.8L211.7,278.2L214.4,277.2L215.9,273.6L216.1,271.9L215.8,270.5L216.6,265.4L216.9,264.7L218.7,261.4L218.8,259.3L217.9,254.2L218.4,250.4L218.8,242.5L219.8,241.1L221.1,237L223,232.7L227,230.4L229.1,227.3L230,226.8L231.4,226.7L236.1,229L240.5,226.5L244.4,226.2L247.6,226.5L249.5,227.6L251.3,228.3L255,225.9L256.5,226.3L257.9,227.1L259.8,227.1L262,226.5L267.7,227L277.5,227.2L284.3,228.7L290.9,232.7L294.2,233.5L295.7,233.6L295.3,233.9L292.7,235L291.4,237.2L295.2,240.6L295.3,242.9L298.2,244.9L301.5,247.9L301.6,249L302.9,250.4L303.4,252.1L301.1,253.8L297.8,254.1L295.4,252.5L293.2,250.5L292.7,253L290.9,254.4L284.7,254L280.3,254L275.8,254.7L278.1,255L280,255.8L286.9,262.2L288.4,264.5L286.1,269.2L287.2,271.1L289.8,272.2L293.1,274.5L295.4,274.8L297.1,276.1L297.1,278.3L298.1,280.5L295.4,281.3L298.1,281.8L300.4,282.9L299.2,283.9L298.2,285.3L299.2,285.9L302.3,287.2L303.7,288.3L304.5,291.3L307.6,296.1L313.2,302.4L314.5,304.7L314.5,306.8L313.7,308.6L310.3,310.8L307.7,313.6L307.4,314.6L303.9,315.9L305.5,316.8L306.8,318.1L309.2,322L315,328.3L318.1,330.7L330.1,339.3L336.4,343.1L344.7,351.6L349,353.6L349.8,356L346.2,359.6L341,361.4L332.4,362.4L323.9,361.1L319.5,360.1L315.6,358L312.6,353.8L308.5,351.4L310.2,354L311.2,356.6L310.6,359.5L309.1,361.7L306.3,363.4L303.4,364.7L302.2,365.6L294.9,380.5L293.6,384.5L291.4,401.3L291.4,406L294.7,414.9L295,419.5L295.7,421.5L295.2,423.1L293.6,424.1L287.3,426.9L282.9,429.1L279.3,432.3L276.4,436.2L273.8,439.2L270.3,440.5L267.8,440.3L265.9,439L264.5,436.4L263.7,433.6L263.1,435.7L263.3,437.7L264.4,439.9L264.9,442.2L264.3,444.5L262.7,446.4L258.7,448.3L256.5,450.1L256.2,453.1L255.1,454.9L253.6,456.2L248.1,459.3L246.9,460.5L245.9,462.1L248.9,461.8L251.6,462.1L251.8,465.1L252.7,467.3L251.6,472.3L247.4,475.6L249.5,476.4L251.4,477.4L255.6,478.2L256.9,481.8L256.9,482L10.66,482ZM-5.819,438.8L-13.41,442.8L-15.2,442.6L-16.58,441.2L-15.76,433.6L-14.79,431.4L-9.407,431.1L-6.233,432.2L-4.577,433.4L-3.887,436L-4.163,437.5ZM-37.28,282.2L-39.22,284.2L-41.15,282.9L-38.11,278.9L-37.42,278.6ZM-34.8,455.7L-39.22,457.3L-40.59,453.7L-37.7,452.6L-34.66,453.5ZM298.5,233.7L302.2,233.7L307.6,233L308.8,236.7L309.1,238.1L301.9,240L297.6,235.5ZM298.9,267.8L298.5,269.1L295.2,265.9L294.2,263.7L294.6,261.9L298.1,261.8L299.7,262.9Z" fill="#D8E2E7" stroke="#3F464B" stroke-width="0.85" vector-effect="non-scaling-stroke"/><path d="M202.4,205.6L203.4,206.8L205.7,211.3L207.3,215.8L207.7,222.6L209.5,225.5L209.2,226.1L208.1,226.6L206.4,226.8L203.5,226.1L201,225.1L199,217.8L198,213.6L198.1,208.6L198,205.6ZM198,205.6L194.8,207.2L191.8,209.3L188.8,211.1L187.2,212.6L187.8,214.5L188.5,218.9L188.9,222.3L190,223.6L190.8,225L190.6,226.5L188.6,229.3L189.7,229.9L188.3,233.7L186.4,236.5L183.8,238.7L182,239.2L180.6,238.3L178.3,235.8L175.8,232.3L174.7,230.3L171.1,230.1L169.7,228.4L169.7,226.5L168.6,224.2L167.2,221.8L165.2,219.9L162.3,218.4L161.2,217.4L165.4,217.4L170.1,216.8L175,214.8L179.5,212.3L183.4,209.4L187.1,206.3L190.8,203.7L196.8,200.8L198.8,201.1L198.8,203.1Z" fill="#8B341D" stroke="#2C160F" stroke-width="1.1" vector-effect="non-scaling-stroke"/></svg>