<svg xmlns="http://www.w3.org/2000/svg" viewBox="0 0 360 440" width="360" height="440" role="img" aria-label="Regional map with Bhutan highlighted"><rect width="100%" height="100%" fill="#7FA6D6"/><path d="M338.1,430.6L338.3,431.2L338.2,432.5L337.8,433.9L337.9,434.5L337.6,434.8L336.8,432.3L335.8,431.2L335.6,430.8L336.2,430.8L337.2,430.1L337.7,430.1ZM383.4,296.4L382.8,296.5L381.5,296.6L380.3,297.7L379.5,298.2L378.2,298.6L376.8,299.2L376.5,300.3L376.4,301.2L376.2,302.1L374,303.4L373.4,303.2L373,302.8L372.3,302.9L371.9,303.1L371.4,303.1L370.8,303.4L370,303.3L369.3,302.9L368.9,302.8L368.4,302.7L368.3,303.2L369,305.1L369.2,306L366.9,308.6L367.2,310.3L366.5,311.5L365.1,312.6L362.5,315.2L361.2,315.3L360.3,315.9L358.4,320.2L358.3,321.7L358,322.7L358.1,323.8L357.2,325.8L356.3,326.7L356.2,327.8L357.4,330.1L357.6,330.5L358.3,331.7L358.7,332.6L359.2,333.5L361.3,335.7L362.2,336.4L363.3,336.9L365.3,339L366.3,340.3L365.8,341.1L366.1,343L364.6,342.5L364.8,342.7L366.5,343.7L369,347.3L371.2,349.1L373.5,351.1L374.2,353L376.2,354.3L378.5,356.1L378.4,356.5L379,357L380.5,357.9L381.4,359L381.8,359.9L382.3,360.1L383,359.9L383.6,359.8L384,359.8L384.7,360.9L385.6,361.9L386.1,362.7L386.5,362.6L386.8,362.7L386.8,363.5L387,364L388.3,365.4L388.8,366.7L390.4,368.8L391.5,370L392.3,370.7L393.2,371.3L394.1,373.7L394.6,375.8L395.5,378.2L396.3,379.2L396.3,381.2L396.8,383.2L397.5,384.6L397.7,386L397.8,386.6L398.1,387.2L398.8,389.5L398.6,390.6L398.1,389.5L398.2,392.7L398.6,394.3L398.4,396.4L398.8,397.1L399.6,399.4L400.2,400.2L400.1,403.1L400.4,404.5L399.7,403.6L399.1,402.7L398.4,403.2L397.8,403.9L398.8,406.9L397.6,406.7L397.8,410.7L398.2,411.7L398.3,412.1L398.1,412.7L397.8,412.1L397.8,411.5L397.6,411.6L397.6,411.9L397.2,412.6L397.1,413.5L397.5,414.2L397.6,414.8L397.3,415.5L396.8,416.3L395.7,416.4L395.5,417.9L395.1,419.4L393.2,419.7L391.8,421L390.1,421.5L388.5,422.9L386.8,424.2L385.7,424.3L384.8,424.6L383.7,426.7L381.9,426.9L378.6,428.6L377.5,429.4L376.5,429.8L375.1,430.5L374.8,430.2L374.3,429.6L373.1,429.3L372.5,428.6L372.3,427.8L372.2,427.4L371.9,427.9L371.7,430L371.5,430.5L371,430.7L369.9,430.1L369,428.9L367.5,429.7L368,429.8L368.6,429.7L369.1,429.9L369.5,430.7L369.5,431.2L369.3,431.7L368,431.8L366.2,431.6L365.9,431.7L367.5,432.5L369,432.9L369.6,433.4L369.6,433.8L368.8,434.5L368.2,435.3L368.1,435.8L368.1,436.3L367.4,436.8L367,436.7L365.7,435.9L362.1,432.6L362.7,433.5L366.4,437.3L367,438.5L367.2,439.4L366.7,439.8L366.1,440.4L364.9,440.4L362.9,439L359.7,435.6L358.6,435.2L361.8,439L362.4,439.9L362.9,441L362.7,441.7L362.5,442.3L354.7,445.8L353.6,447.4L352.7,449.3L351.2,450.3L350.3,451.3L347.7,451.8L346.3,451.6L347.7,449.9L346.8,449.2L346.8,444.7L347.2,439.8L347.8,437.3L348.8,436.7L350,436.3L350,435.8L349.9,435.2L349.3,434.4L348.5,434L347.5,433.8L346.7,432.8L346,432.8L345,433.2L344.4,432.7L344.2,432L343.3,431.2L342.3,430.3L342.8,430.2L343.3,429.7L343.9,429.1L345.4,429L346.8,429L347.2,428.9L347.8,428.2L348.7,427.4L349.5,426.9L349.7,426.5L349.4,425.6L349.2,424.7L349.5,424.4L350.8,424.6L352.2,425L352.6,425.2L353.4,424.1L353.7,424L354.2,424L355.6,423.8L357,423.5L357.7,423.5L358.3,424.3L358.8,425L359.1,425.1L359.8,424.7L360.4,425.1L361.7,425.8L362.4,425.8L362,424.3L362.5,423.2L362.4,423L361.7,422.5L359.3,420.5L358.9,419.9L358.9,419L358.8,417.6L358.6,416.8L358.7,416.3L358.8,415.9L359.2,415.7L359.7,415.7L360,415.3L360.6,414.4L361.7,414.5L363.3,415L364.5,415.3L365.2,415.3L365.3,415.1L365.3,414.7L365.4,412.6L365.3,412.2L366.3,412L367.8,411.9L368.6,411.8L369.4,411L371.3,410.6L372.7,409.5L374,408.3L374.5,408L375.3,407.8L375.9,407.8L376.7,408.5L377.3,408.1L378,407.3L378.3,406.5L378.5,405.2L378.4,403.2L378,401.7L377.7,400.5L377.6,399.3L378.4,397L379.1,394.5L379,393.5L378.2,391.9L377.5,390L376.6,387.9L376.3,387.6L376.1,387L375.9,386.3L376.3,384.1L376.3,383.4L377.3,382.4L377.8,381.3L378.3,380L378.1,379.4L378,378L378.2,377.4L378,376.8L377.7,376.1L377.8,375.6L378.5,375.2L378.9,374.4L379.4,373.6L379.7,372.8L379.3,372.1L378.6,371.1L377.4,370.2L376,369.1L375.3,368.4L374.8,367.7L374.3,366.9L374,366.2L374.3,365.8L376.3,364.8L376.6,364.4L376.8,363.9L376.7,363.3L376.2,363L375.5,362.8L374.6,362.2L372.9,360.5L372.1,360.1L371.3,359.6L370.9,359L370.4,357.6L370.2,357.5L369.7,357.9L369.1,358.4L368.6,358.3L368.1,357.9L367.9,357.3L367.4,356.6L366.8,356L366.7,353.9L366.6,353.2L366.3,352.3L365.9,352L365.5,351.7L364.4,350L363.7,349.1L360.6,346.7L360.2,346.3L359.4,345.3L357.9,343.9L356.9,342.8L356.2,341.6L355.9,340.6L355.7,339.8L354.9,338.7L354.2,337.7L353.6,337.4L352.8,337.3L352.1,336.7L350.8,335.5L350.3,334.7L349.9,334.1L349.9,333.6L350.2,332.6L350.6,332.1L350.7,331.7L350.3,331.3L348.9,330.7L345.7,329.8L344.4,329.1L343.4,328.2L342.5,327.6L338.6,325L337.4,324.6L336.4,324.1L336.1,323.7L336.1,323.2L336.6,322.9L337.7,322.2L338.1,321.5L337.9,320.5L337.5,319.5L337.7,319.1L338.1,319.1L338.8,319L340.4,319L343.7,319.9L344.2,319.8L346,318.1L346.7,317.1L346.8,316.3L347.2,315.8L348.1,314.9L348.1,314.1L347.7,313L347.2,312.6L346.8,312.4L345.4,312.6L345.2,312.3L345,311.5L344.9,311L344.5,310.5L343.1,310L341.9,309.9L341.6,309.7L342.1,309.1L342.9,308.6L343.5,308.3L344,307.7L344.1,307.1L343.5,306.6L342.7,306L341.4,305L339.6,303.8L338.5,303.4L338,303.5L336,304.5L334.9,305.1L334.1,306.3L333.1,306.5L332.2,306L331.1,305.5L328.2,304.7L327,304.1L324.4,300.2L324.1,299.4L324.3,298.5L324.5,297.3L324.7,296.5L325.2,295.7L325.3,295L325.2,294.3L324.8,293.9L324.3,293.8L324,293.6L323.6,292.7L323.4,292.8L323.1,293.9L322.8,294.3L322.3,294.5L321.8,294.3L321.6,293.9L321.5,293.1L321.3,292.1L320.9,291.5L319.8,290.8L319.3,290L317.7,288.1L316.3,286.7L315.7,285.6L316.2,285.1L316.9,284.5L317.7,283.5L318.6,282.2L318.9,281.4L319.1,281.1L319.6,280.9L320.2,281L321.1,281.5L322.6,282.2L323.8,282.9L324.3,283.7L325,284.5L325.6,284.7L325.8,284.6L326.6,284.1L327.4,283.5L327.4,282.9L328,282.3L328.9,281.4L329.3,280.7L329.6,280.7L329.9,280.9L331.2,282.8L331.5,282.9L331.9,282.6L332.4,281.1L333,280.5L333.1,280.7L336.4,283.6L336.7,283.5L337,283.4L337.3,283L337.5,282L338,280.9L339,280.3L339.8,280.2L340.1,280.7L340.8,281.4L341.6,281.5L343.4,280.2L344.1,280L344.7,280L345.3,280L345.9,279.5L346.6,278.9L346.8,277.6L346.9,276.5L347.4,276L347.9,275.7L348.9,275.3L351.1,274.2L351.7,273.7L352.1,273.4L353,273.9L354,274.8L354.7,275.5L355.1,276.2L355.3,276.9L356.9,277.4L358,278.1L358.7,278.7L359.4,278.7L360.1,278.6L360.5,278.1L361.3,278.1L362.2,278.1L362.7,278.3L363.4,279.4L363.7,279.6L364.5,279.5L365.7,279.1L366.8,278.9L367.7,279.3L369.5,280.5L369,281.4L368.7,282.3L367.9,283L367.2,283.1L366.9,284L366.7,285.4L366.9,286L367.4,286.2L367.9,286.7L368.1,287.3L368.2,288.6L368.1,290.1L368.2,290.6L368.6,290.5L369,290.3L369.7,290.5L370.7,290.9L371.2,291.3L371.7,291.2L372.2,291.6L372.3,292.4L372.8,292.9L374.2,293.8L375.3,293.9L376.2,295.2L377.1,294.8L377.5,295.3L379.5,295.1L380.9,294.6L381.4,294.7L382.6,295.8ZM367.7,450.6L367.3,450.7L367.1,450.4L368.2,449.7L368,450.2L368.1,450.4ZM374,430.5L373.1,431.2L373,430.6L373.8,430.2L374.1,429.9L374.4,429.9ZM370.5,305L370.4,305.3L369.8,304.7L369.4,304.4L369.7,303.6L370.4,304.5ZM379.1,300.1L377.4,301.6L376.8,301.6L377.3,299.8L377.6,299.4L378.6,300ZM378.1,303.7L377.5,304L376.7,303.9L377.6,303.3L378.1,302.6L378.5,302.3L378.5,303ZM372.5,305.9L372,305.9L371.1,304.9L371.5,304.4L372.6,304.8L372.8,305L372.8,305.2L372.6,305.7ZM-42,27.95L-41.31,27.8L-40.22,28.26L-40.06,28.07L-39.93,24.89L-39.01,25.42L-38.47,25.4L-38.01,25.02L-37.76,24.49L-37.6,23.44L-37.8,22.39L-37.39,21.91L-37.1,21.8L-36.85,21.94L-36.72,22.21L-36.68,23.15L-36.01,23.55L-35.59,23.79L-35.22,24.59L-34.84,25.37L-34.59,27.16L-33.68,27.27L-32.59,27.62L-31.89,27.27L-31.3,27.48L-31.09,28.34L-31.13,29.11L-31.05,29.75L-30.76,29.94L-29.8,29.54L-29.01,29.48L-28.26,29.86L-27.34,30.42L-26.01,31.93L-25.59,32.15L-23.59,32.25L-23.17,32.57L-22.46,32.57L-21.75,32.28L-20.09,32.78L-20.05,33.05L-20.34,33.42L-24.26,35.49L-24.55,36.13L-25.34,36.95L-26.21,37.4L-26.63,37.42L-28.55,36.6L-28.76,36.79L-28.93,37.13L-28.93,37.5L-28.51,38.35L-28.72,38.9L-29.05,39.3L-30.26,38.95L-30.51,38.72L-30.51,38.48L-30.97,38.48L-31.68,38.72L-33.05,40.22L-33.55,40.99L-33.72,41.46L-34.34,41.72L-35.01,41.83L-35.84,42.54L-36.76,43.07L-37.05,42.67L-37.26,42.22L-37.51,42.09L-38.05,42.2L-38.76,42.22L-39.47,41.72L-40.43,41.2L-41.27,41.04L-42,41.11L-42,27.95ZM-35.76,46.14L-36.05,46.77L-36.6,46.61L-37.05,46.19L-36.89,45.85L-36.26,45.67L-35.93,45.48L-35.64,45.46ZM321.2,415.4L321,416.6L320.4,416.1L320.5,415.5L320.8,415.2ZM319.1,411.7L319.2,412L318.6,411.8L318.4,411.9L317.7,411.8L317.3,410.2L317.4,409.8L317.9,409.9L318.6,410.7L318.9,411.3ZM272.6,459.8L272.5,460.6L272,460.6L271.5,461.2L271.3,461.2L270.9,459.5L271.4,457L271.6,456.7L271.9,457.3L272.9,457.6L272.5,459ZM303.6,482L303.6,481.6L303.5,480L303.3,479.1L303,479.1L302.5,479L301.2,479.1L300.5,478.1L300.2,477L299.8,476.6L299.3,476.4L298.3,476.7L297.6,476.5L295,475.5L294.1,474L293.5,474L293.1,474.1L292.9,474.5L292.6,476.3L292.4,476.8L289.5,473.2L287.5,471.7L287.8,469.1L287.2,468.5L286.5,468.5L285.9,467.7L286.4,466.1L285.6,466.4L284.5,466.4L283.6,466L283,463.8L282.5,463.1L281.6,461.9L280.4,461.9L279.9,461.4L280,459.9L279.2,459.1L278,458.3L277,457.9L276,455.6L275.2,455L274.6,454.6L273.7,454.9L273.4,455.7L272.7,456.5L272.1,456.4L271.4,456L270.7,453.7L270.5,452.3L270.7,449.6L271.7,447.3L272.2,443.5L273,441.1L273.6,440.3L274.4,437.1L276,432.9L276.2,432L276.5,431L276.8,430.1L276.9,428.6L276.7,427.8L276.7,427.4L277,426.8L278.2,425.9L279.7,424.3L281.7,422.1L283.6,418.8L284.6,416.9L285,416.2L285.4,415.9L286.1,415.3L286.5,414.5L286.6,414.2L285.5,410.5L284.8,409.3L284.5,407.9L284.3,406.9L284,406L284.2,405.1L283.8,404.5L282.9,403.8L282,402.8L281.4,401.1L281.4,400.2L280.9,399.3L280.7,398.5L281,397.7L281.5,396.9L281.4,393.8L281.3,392.9L281,391.2L280.4,389.9L279.6,388.4L278.7,387.2L276.2,385L274.5,383.5L273.6,382.1L272.5,380.6L271.7,379.5L270.7,378.1L270.2,376.1L269.9,374.1L270.1,373.4L270.6,373L271.2,372.6L271.7,372.5L273.1,371.6L274.1,371.6L274.3,371.4L274.4,371L274.3,369.1L274.4,366.6L274.5,364.6L274.7,363.2L277.4,361.7L277.9,361L278.2,360.2L278.2,359.6L277.9,359.1L277.6,358.8L275.9,360.1L275.5,359.8L274.7,357.6L274.4,356.9L273.9,356.1L273.4,355L273.3,353L272.9,352L270.9,350L269.9,348.8L268.6,347.2L267.1,345.3L265.5,343.5L264.7,342.3L264.5,342.1L264.4,341.6L264.9,340.4L264.6,339.1L263.9,337.5L263.5,336.5L263.6,336.1L263.2,335.9L262.4,336L261.5,335.2L260.7,333.6L260.6,333.3L260.9,333.3L261.9,333.6L262.3,333.5L263,333.2L264.1,332.8L264.7,332.6L264.9,332.4L265,332L264.5,328.2L264.6,327.4L265.6,325.8L265.5,324.1L265.8,321.8L266.9,320.1L267.8,319.4L268.1,318.2L268.4,317.9L269.2,318L270.7,318.9L271.3,319L272.2,318.9L273.2,318.9L273.6,318.8L276.7,317.9L277.4,317.8L278,317.9L278.5,317.9L279,317.5L279.3,316.8L279.7,314.6L279.9,314.2L280.3,313.9L281,313.7L281.7,313.7L282.7,314.1L283.4,314.1L284.1,314L284.7,313.6L285.1,313.3L285.3,312.8L285.1,311.9L284.7,310.8L284.8,310.6L285.6,310.9L286.9,311.2L287.8,311.1L288.4,310.9L289,310.4L289.8,309.9L290.5,310L291.1,310.4L292.5,311.2L292.5,311.2L292.4,311.9L292.7,312.1L293,311.8L293.6,310.9L294.1,310.4L294.7,310.3L295.4,310.9L296,312.1L296.8,312.8L297,312.9L297.3,313.5L297.3,314L297,315.2L296.5,316.5L295.6,318.1L295.9,319.5L297,320.6L298.3,321.3L299.7,321.1L300.4,320.8L301,320.2L301.5,320L302.2,319.9L304.4,320.3L305.1,320.7L305.2,321.4L304.9,323.4L305.3,324.8L305.9,326.3L305.9,327.7L305.2,329.9L304.5,332.1L303.8,333.1L303.3,333.8L303.2,334.2L303.2,334.6L303.7,335.3L304.2,336.1L304.3,336.9L304.3,337.9L303.9,339.2L302.6,342.1L301.5,344.7L302.1,345.2L303.1,345.6L303.8,345.9L304.5,345.7L306.1,344.2L307.4,343L309,341.9L309.1,341.8L310.6,340.9L311.2,340.2L311.6,339.2L312.1,338.8L312.8,339L313.6,338.6L314.6,337.5L315.4,337L315.9,337.1L316.9,337.8L318.3,339L319.5,339.8L320.6,340L321.1,340.5L321.1,341.2L321.3,341.6L321.8,341.8L322.1,341.7L322,341.4L322.5,340.9L323.6,340.3L324.6,339.9L325.7,339.8L326.4,339.3L326.9,337.9L327.5,336.9L328.1,336.4L328.8,336.2L329,335.9L328.6,335.5L328.7,335.1L329.1,334.6L330,334.4L331.4,334.5L333.1,334.9L334.9,335.7L336.2,336L336.8,335.7L337.9,337L339.6,339.7L341.1,341.9L342.3,343.3L343.6,344.4L344.9,345.1L345.9,346.2L346.8,348.1L346.2,350.8L346,353.1L346.1,356L346.9,358.2L348.4,359.7L349.2,361L349.5,361.9L350.7,362.7L352.8,363.4L353.7,364L353.3,364.5L353.3,365.1L353.6,365.9L354.3,366.5L355.4,366.9L356.2,367.4L356.4,368L356.3,368.8L356.1,370L355.6,370.9L354.9,371.5L354.8,372L354.6,372.8L354.6,374.3L355.1,375.3L355.3,376.7L355,377.7L354.7,379.9L354.7,380.8L354.4,381.5L353.8,382.2L352.9,382.8L351.8,383.4L351.1,383.7L350.9,383.8L350.4,384.4L349.8,385.1L349.3,385.1L349,384.8L348.7,384.3L348.6,383.4L347.5,383L346.4,382.7L344,383.1L342.1,383.4L340,383.1L338,383.5L337.1,383.5L336.2,383.5L335.3,383.5L334.4,383.3L332.7,382.8L332.1,382.8L330.8,383.3L329.4,383.6L328.1,383.8L326.1,384.8L324.7,386.2L324.3,387.1L323.6,388.1L322.6,389.7L321.4,391.2L320.5,391.9L320.8,392.3L320.5,392.8L319.2,393L318.1,393L317.9,393.3L318,396.3L318.4,397.4L319.1,398.8L319.6,399.5L319.9,401.8L320,403.6L321.5,404.8L322.3,405.7L322.9,406.5L322.7,407L322.4,408.6L322.7,410.5L324.8,414.7L325,415L324.8,415.1L324.4,414.3L323.3,412.9L323,411.4L321.8,409.8L321.1,409.2L320.8,409.7L320.5,410.3L319.2,409.5L318.2,408.6L317.2,406.9L317.1,407.3L316.8,407.6L315.8,406.3L314.6,405.3L313.6,404.9L312.9,404.5L312.3,404L311,403.4L307.8,404.2L303.7,403.6L302.1,404.2L301.4,403.8L301,403.1L301.4,401.9L301.5,399.3L302,397.5L301.8,396.1L302,395.5L302.2,394.6L301.5,394.2L298.6,393.5L298,393L297.3,393.6L293.7,394L292.5,394.5L291.2,395.5L290.9,396.8L291.6,397.7L292.1,399.2L290.8,402.4L290.6,403.4L291.1,407.4L290.9,409.6L290.2,411L289.2,412.3L288.7,414.6L287.9,415.6L286.7,417.9L286,420.9L285.4,422.2L285.1,424.7L282.7,428.5L282.2,430.6L281.4,431.4L281.7,432L281.7,433.1L281.4,435.9L281.3,438.3L281.7,439.6L282.8,442L282.5,442.8L282.4,443.8L283.3,444.3L284,444.4L287.8,443.2L289.1,443.5L289.6,444.6L290,445.6L290.6,450.8L290.9,451.7L291.7,452.6L292.5,453.6L292.8,453.4L292.9,453.1L292.9,452.7L293.7,453.6L294.3,455.5L296.3,465.1L296.9,466.4L297.3,467.6L296.1,467L295.8,464.9L295.5,464L295,463.9L294.3,463.9L294.3,463.5L294.8,462.8L294.7,461.9L294,461.3L292.9,461.8L292.9,463.3L293.4,464.5L295.3,467L296,468.1L296.7,468.4L297.8,468.3L299.2,469.3L300.2,470.4L302.8,471.9L304.4,471.8L306.1,471.4L307.3,471.5L308.4,471.9L309.7,473.2L311.9,476.4L315.4,479.1L315,479.8L314.8,480.8L313.7,482L303.6,482ZM291.9,438.7L291.8,438.9L291.3,438.6L291,438.1L290.8,437.6L291.5,437.6L291.9,438.1ZM291.9,440L291.9,440.7L291.7,441.5L290.6,442L290.2,441.3L290.3,440.3L290.5,440.1L291.5,440.1ZM287.1,475.9L286.9,475.9L286.5,475L287,473.6L287.6,475.3ZM274.7,459.4L274.6,459.6L274,457.4L274.9,457.9ZM271.4,446.3L270.8,446.4L270.9,445.8L271,445.4L271.4,445.3L271.5,446ZM280.4,463.4L280.7,464.8L280.2,464.5L279.9,463.9L279.9,463L280,462.9ZM-42,52.49L-41.64,52.39L-40.97,51.87L-40.1,51.45L-39.35,51.34L-38.97,51.68L-38.8,52.1L-38.93,52.65L-38.97,53.22L-38.47,53.61L-37.01,53.69L-36.3,54.05L-36.26,54.73L-36.39,55.8L-35.76,56.24L-35.47,56.26L-33.3,55.15L-32.72,55.12L-32.22,55.74L-31.51,56.5L-30.55,57.28L-30.3,57.17L-29.88,56.29L-29.05,55.35L-27.55,55.04L-26.67,54.76L-25.8,54.63L-23.09,54.99L-22.21,55.04L-20.38,54.96L-18.92,54.78L-17.75,54.21L-17.13,53.77L-16.17,53.51L-14.96,53.53L-14.29,53.66L-14.25,54.44L-14.42,55.93L-14.58,56.97L-13.63,58.83L-13,59.71L-12.42,60.36L-12.29,60.85L-12.42,61.26L-13.17,61.65L-13.46,62.09L-13.58,62.55L-13.33,63.1L-12.88,64.85L-12.33,66.22L-11.54,66.88L-10.37,67.32L-9.748,67.22L-9.289,66.19L-8.539,65.42L-7.872,65.47L-6.83,65.44L-4.078,66.32L-1.41,67.66L-0.66,68.4L-0.368,69.22L-1.118,71.14L-1.077,72.35L-0.91,73.65L-0.285,74.62L0.257,76.28L0.382,77.63L0.633,78.03L0.799,78.52L0.508,79.76L0.299,81.03L0.549,81.44L1.383,82.07L2.675,83.21L2.926,84.17L2.467,84.78L1.633,85.52L0.591,86.15L0.257,86.42L0.091,86.27L-0.41,85.62L-1.577,84.58L-2.411,84.05L-3.995,84.22L-4.912,84.02L-5.996,83.69L-7.038,83.75L-7.705,84.35L-8.122,84.98L-9.164,85.19L-10.62,85.67L-12.96,86.42L-14.04,86.3L-14.38,85.97L-14.13,85.54L-13.33,84.98L-13.13,84.33L-13.29,83.69L-14,83.52L-14.29,83.42L-14.63,83.29L-16.04,82.91L-17.21,83.06L-19.17,83.85L-22.84,85.89L-24.42,87.28L-25.59,89.35L-29.05,90.03L-31.43,91.21L-33.89,93.17L-35.51,94.2L-36.3,94.35L-37.1,94.17L-37.89,93.65L-38.64,92.02L-39.31,89.55L-39.76,87.94L-39.51,85.82L-39.22,83.44L-38.93,81.01L-38.47,78.19L-38.05,77.17L-38.05,76.51L-38.39,76.18L-39.14,76.18L-40.26,76.56L-41.1,76.63L-41.56,76.38L-41.52,75.05L-40.93,72.68L-41.81,70.66L-42,70.52L-42,52.49ZM59.08,439.5L58.37,439.6L57.79,438.9L57.66,438.5L57.79,438.3L57.95,438.2L58.16,438.2L58.41,438.9ZM58,446.3L58.33,447.2L57.37,446.6L56.75,446.1L56.5,445.7L57.83,446.1ZM63.11,482L62.54,481.9L60.54,480.2L59.54,477.7L58.83,475.1L57.79,472.3L57.04,463.5L56.66,461L56.04,457.8L56.12,456.5L56.54,455.2L56.54,458.1L56.91,458.4L57.2,458L57.5,455.1L57.7,453.8L58.75,450.5L58.79,449.9L58.58,448.7L58.62,448.1L60.21,445.8L60.58,444.4L60.79,443.1L60.71,441.6L60.41,440.1L61.71,440.6L62.42,441.1L63.13,441.5L63.71,441.3L64.38,441.3L63.92,440.5L62.42,439.7L59.96,439.3L59.21,438.7L58.91,438.2L59.04,437.6L59.25,437.4L59.25,437.4L60.33,437.4L61.54,437.4L62.37,437.6L63.79,439.4L67.67,442.6L69.8,445.9L69.96,446.6L70.25,447.2L70.75,447.4L71.21,447.7L73.3,450.9L73.55,451.5L73.5,452.2L73.63,452.7L74.21,453L74.88,453.1L75.34,453.6L75.92,456.1L75.92,456.9L76.05,457.2L78.72,461.2L78.88,461.6L78.84,462L78.92,462.3L79.42,463L80.26,464.9L80.63,465.3L81.13,466.9L81.18,470.1L81.01,471.5L80.51,473.2L79.92,474.8L79.26,476L78.38,477L75.42,479.1L74.55,479.6L70.67,480.9L68.27,482L63.11,482ZM-42,121.2L-41.39,120.3L-40.64,119.7L-39.51,118.9L-38.8,117.7L-38.47,117L-37.8,116.3L-37.6,115.8L-37.76,115.4L-38.1,114.9L-38.47,114.3L-38.47,113.8L-38.18,113.2L-37.85,112.6L-37.97,111.9L-38.18,110.7L-38.76,109.9L-39.18,108.3L-39.85,106.6L-40.18,105.9L-40.81,105.1L-42,104.3L-42,102.4L-42,102.4L-41.18,101.7L-39.43,99.97L-38.47,98.78L-37.6,97.93L-36.47,98.05L-35.84,97.98L-35.26,97.2L-34.14,96.5L-32.09,95.08L-31.39,94.1L-30.3,93.62L-29.43,93.5L-28.22,93.17L-27.05,92.64L-26.01,92.24L-24.34,92.17L-21.71,91.94L-20.25,91.69L-16.88,91.49L-13.17,91.41L-12.71,91.39L-11.12,91.92L-10.04,92.34L-9.581,92.29L-7.789,91.26L-5.037,90L-3.786,89.45L-3.078,89.25L-2.035,89.25L-1.16,89.6L-0.285,90.08L0.257,90.46L0.924,90.23L2.175,89.95L3.217,90.16L5.552,91.03L5.885,91.46L6.427,93.57L6.844,93.75L8.178,93.27L9.262,93.52L10.47,94.2L11.26,94.85L11.76,95.55L12.35,96.7L12.56,97.6L12.81,98.7L12.76,101.8L12.35,102.3L12.01,102.9L12.1,103.5L12.47,103.9L13.22,104.2L13.93,104.4L14.31,104.9L14.81,106.6L15.18,106.9L16.02,106.9L17.6,106.5L18.93,105.9L19.52,105.8L19.64,107.4L20.43,108.1L21.52,108.8L21.98,109L21.98,109L22.52,110.3L23.31,112.2L23.85,113.5L24.44,114.9L24.73,115.6L25.27,116.9L25.06,117.5L24.69,118.5L23.44,119.3L22.19,119.8L21.89,120.1L21.77,120.6L21.18,121.4L20.02,122.1L19.02,122.1L18.39,121.9L15.1,123.1L13.6,123.1L12.39,123.9L11.51,124.6L9.763,125.4L8.554,125.4L6.761,124.9L4.593,124L3.718,123.5L2.926,123.5L0.966,123.4L-0.91,123L-3.161,122.4L-4.287,122.2L-6.58,121.7L-8.039,122.4L-9.414,122.9L-10.5,123.3L-11.42,125L-11.79,125.7L-12.21,126.5L-12.42,127.2L-12.25,127.9L-10.91,128.4L-10.37,129.2L-10.29,129.8L-10.75,130.4L-11.16,131L-11.16,131.4L-10.96,131.9L-10.62,132.2L-8.747,132.4L-7.622,132.4L-7.205,132.6L-7.122,133.2L-7.538,134L-9.123,134.7L-10.04,135.4L-10.33,136.4L-10.29,137.1L-9.998,137.6L-9.248,138.1L-8.539,138.8L-8.289,139.3L-8.414,140L-8.664,141L-9.456,142.2L-10.12,143L-10.16,143.3L-9.998,143.7L-9.498,144.4L-8.581,145.3L-7.455,146.1L-6.746,146.3L-6.538,146.5L-6.288,147.3L-6.204,148.3L-6.496,149L-5.954,149.5L-4.453,149.5L-3.244,149.7L-2.703,149.5L-2.369,149.7L-2.577,151.7L-2.411,153L-2.119,153.3L-0.91,153.8L1.383,153.8L2.759,154.3L4.26,155L5.052,155.7L5.385,156.3L5.302,157.1L4.468,158.2L3.134,158.7L2.342,158.9L-1.494,160.8L-2.703,161.6L-3.62,162.6L-3.953,163.3L-4.12,164L-3.328,166.6L-3.161,167.4L-3.87,170.1L-4.037,171.1L-3.786,171.9L-2.994,172.1L-2.786,172.7L-2.703,173.2L-4.162,174.2L-5.621,175.1L-6.121,175.1L-7.538,176.8L-9.956,180.1L-11.21,181.3L-11.29,181.8L-11.42,182.4L-10.91,183.3L-10.83,184.1L-11.37,184.9L-12.25,185.9L-14,186.7L-16.21,187.5L-17.21,188L-17.96,190.1L-18.63,192.3L-18.96,193.1L-20.13,195.6L-22.21,199.2L-22.75,200L-25.96,201.8L-29.26,203.7L-29.84,204.4L-30.51,206.1L-31.13,208L-31.72,209L-33.8,211.3L-34.51,213L-34.72,214.1L-36.47,214.7L-38.51,215.3L-41.43,215.5L-42,215.6L-42,121.2ZM153.3,215.3L153.8,215.6L153.9,216.2L153.8,216.9L153.3,218.3L152.9,219.3L152.3,221.3L151.9,224.9L152,225.5L153.4,227.6L153.9,229.1L154,230.2L153.4,232L152.7,234L152.4,234.5L152,234.6L150.3,233.9L149.2,234L147.8,234.4L146.4,234.3L145.3,234.1L143.8,234.9L142.4,234.5L141.5,234L140.9,232.6L140.7,232.4L137.7,233.9L137,234L135.2,233.2L133.7,232.4L133.2,232.2L131.7,231.9L130.4,231.7L129,231.2L127.2,231.8L126.5,231.8L125.9,231.3L125.5,230.4L125.5,229.5L124.8,228.9L123.9,228.7L122.6,229.3L120.7,230L120.1,229.9L119.6,229.7L119.4,229.5L119.1,228.6L118.8,228.4L118.4,228.4L117.6,228.2L116.6,227.6L113.7,226.1L113.3,225.5L113.3,224L113.2,223.4L112.8,222.7L111.3,222.1L108.4,221.1L106.8,220.2L106,220.6L104.6,221L103.8,221.7L102.8,221.5L100.6,220.7L99.35,220.6L98.6,220.8L98.44,221.3L97.52,221.8L96.64,221.4L94.93,220.8L93.39,220.5L91.1,219.9L90.85,218.9L90.43,217.8L89.89,217.7L87.81,217.9L85.93,216.8L83.89,215.3L83.01,214.9L82.47,214.7L81.97,214.9L81.38,215.2L80.88,215.3L79.8,214.7L78.38,213.8L76.63,212.8L74.63,211.3L73.8,210.4L73.42,209.8L72.96,209.2L71.21,208.2L69.8,207.4L68.13,206.5L67.83,206.3L67.21,205.7L66.25,205L65.42,204.8L65.17,205.2L65,205.6L64.29,205.5L63.21,204.8L62.04,204.1L61.16,203.4L60.25,202.7L60.04,202.1L60.41,200.5L60.96,199.1L61.41,198.8L62.12,197.8L62.42,196.2L62.37,194.8L63.13,192.8L64.08,190.7L65.79,188.4L66.54,187.7L67.38,187.2L68.92,185.5L69.25,185.2L69.96,184.8L70.63,184.7L71.13,184.9L71.67,185.8L72.3,186.6L73.05,186.6L73.96,185.9L75.84,182.6L78.47,181.9L80.93,182.3L83.09,182.7L83.76,183.8L84.18,185L84.43,185.6L85.14,186.2L88.22,187.9L90.01,189.4L92.47,191.3L94.35,192.2L95.98,192.3L96.89,193L98.27,194.6L99.48,196.3L100.9,198L101.9,197.9L103.3,197.4L105,196.7L106,197L106.9,197.5L107.2,198.3L107.8,199.9L108.4,201.6L109.4,202.1L110.5,203L111.2,203.7L113.3,204.9L113.6,205.4L114,205.7L114.6,206L115,206.2L115.7,206.3L118.2,205.6L118.8,205.7L119.2,205.8L119.2,206.1L118.7,207.2L118.4,208.7L118.7,209.4L119.8,209.7L122.1,210L125.2,210L126.1,210.7L127.1,211.8L128,213.7L128.4,214.5L128.9,214.8L129.7,214.4L129.8,213.6L129.8,212.5L130.5,212.1L131,212.4L131.5,213.3L132.7,214.1L133.7,214.5L134.5,214.4L134.9,214.1L135.3,212.5L136,212.2L136.9,212.3L137.2,212.7L137.6,213.3L138.7,213.6L139.7,214L140.8,214.5L142.1,215.7L143.9,215.9L145.9,215.9L146.9,215.9L147.7,216L148.4,215.9L150.5,215.1L151.3,215L152.3,215.1ZM402,6.77L400.4,7.548L399.2,7.82L396.8,7.793L393.8,8.011L391.6,8.174L390,7.984L387.5,7.847L385.7,7.684L384.4,8.011L381.4,8.338L380.8,8.419L375.5,9.236L373.2,9.671L371,9.861L369.5,10.19L368.5,10.57L367.2,11.14L366.5,11.38L364.2,12.49L359,14.77L355.5,16.63L354.9,16.96L352.6,18.25L351.2,18.76L350.3,19.92L349.5,20.65L348.7,20.97L347.3,20.22L346.3,20.27L343.1,19.98L343.1,16.61L340.9,17.07L337.3,17.85L334,18.55L331,16.93L328.6,15.66L326.6,14.58L323.6,13.88L320.8,13.25L316,12.22L313.9,11.33L312.8,10.11L310.9,7.411L310.3,6.866L309.3,6.484L308.3,6.266L306.3,6.266L303.7,6.048L300,5.475L297,5.038L292,4.163L290.8,4.081L288.2,4.819L284.9,5.802L278.8,5.038L276.2,4.683L270.7,3.972L264.6,3.151L258.7,2.302L254.4,2.768L252,3.014L249.2,3.397L248.8,2.987L248.7,1.37L248.2,0.108L246.7,-1.266L245.6,-2.559L243.7,-4.295L243.1,-5.399L242.9,-7.112L241.1,-11.6L240,-14.64L239.7,-15.25L239.2,-16.26L238.6,-16.76L237.3,-17.09L236.9,-17.63L236.9,-18.69L237.1,-20.14L237.4,-21.21L237.2,-21.46L233.7,-21.18L231.6,-21.89L229.8,-22.64L227.3,-24.61L225.8,-25.38L223.9,-27.43L221.1,-27.92L220,-28.71L218.7,-30.46L217.6,-31.6L216,-32.31L213.4,-32.96L209,-33.56L207.5,-33.81L205.1,-33.42L203.3,-33.36L200.4,-33.81L198.7,-34.35L196.7,-34.35L195.4,-34.35L193.6,-34.47L192.7,-34.84L191.9,-35.27L190.4,-35.15L189.4,-35.61L188.4,-36.41L187.4,-36.78L186.3,-36.78L185.8,-36.41L185.4,-36.44L185.1,-37.55L184.1,-39.32L183.9,-40.12L183.3,-41.04L182.9,-41.87L182.9,-42L402,-42ZM313.7,482L314.8,480.8L315,479.8L315.4,479.1L317.4,479.6L318.1,480L319.4,482L313.7,482ZM294.9,482L294.1,479.8L292.9,478.2L292.4,476.8L292.4,476.8L292.6,476.3L292.9,474.5L293.1,474.1L293.5,474L294.1,474L295,475.5L297.6,476.5L298.3,476.7L299.3,476.4L299.8,476.6L300.2,477L300.5,478.1L301.2,479.1L302.5,479L303,479.1L303.3,479.1L303.5,480L303.6,481.6L303.6,482L294.9,482ZM289.3,476.5L290.1,477.8L289.7,478.3L289.5,478.5L289,478.3L288.5,478.8L288.1,478.9L287.6,478L287.1,477.7L287,477.1L287.7,477L288.1,477.2L289,476.8ZM315.7,285.6L316.3,286.7L317.7,288.1L319.3,290L319.8,290.8L320.9,291.5L321.3,292.1L321.5,293.1L321.6,293.9L321.8,294.3L322.3,294.5L322.8,294.3L323.1,293.9L323.4,292.8L323.6,292.7L324,293.6L324.3,293.8L324.8,293.9L325.2,294.3L325.3,295L325.2,295.7L324.7,296.5L324.5,297.3L324.3,298.5L324.1,299.4L324.4,300.2L327,304.1L328.2,304.7L331.1,305.5L332.2,306L333.1,306.5L334.1,306.3L334.9,305.1L336,304.5L338,303.5L338.5,303.4L339.6,303.8L341.4,305L342.7,306L343.5,306.6L344.1,307.1L344,307.7L343.5,308.3L342.9,308.6L342.1,309.1L341.6,309.7L341.9,309.9L343.1,310L344.5,310.5L344.9,311L345,311.5L345.2,312.3L345.4,312.6L346.8,312.4L347.2,312.6L347.7,313L348.1,314.1L348.1,314.9L347.2,315.8L346.8,316.3L346.7,317.1L346,318.1L344.2,319.8L343.7,319.9L340.4,319L338.8,319L338.1,319.1L337.7,319.1L337.5,319.5L337.9,320.5L338.1,321.5L337.7,322.2L336.6,322.9L336.1,323.2L336.1,323.7L336.4,324.1L337.4,324.6L338.6,325L342.5,327.6L343.4,328.2L344.4,329.1L345.7,329.8L348.9,330.7L350.3,331.3L350.7,331.7L350.6,332.1L350.2,332.6L349.9,333.6L349.9,334.1L350.3,334.7L350.8,335.5L352.1,336.7L352.8,337.3L353.6,337.4L354.2,337.7L354.9,338.7L355.7,339.8L355.9,340.6L356.2,341.6L356.9,342.8L357.9,343.9L359.4,345.3L360.2,346.3L360.6,346.7L363.7,349.1L364.4,350L365.5,351.7L365.9,352L366.3,352.3L366.6,353.2L366.7,353.9L366.8,356L367.4,356.6L367.9,357.3L368.1,357.9L368.6,358.3L369.1,358.4L369.7,357.9L370.2,357.5L370.4,357.6L370.9,359L371.3,359.6L372.1,360.1L372.9,360.5L374.6,362.2L375.5,362.8L376.2,363L376.7,363.3L376.8,363.9L376.6,364.4L376.3,364.8L374.3,365.8L374,366.2L374.3,366.9L374.8,367.7L375.3,368.4L376,369.1L377.4,370.2L378.6,371.1L379.3,372.1L379.7,372.8L379.4,373.6L378.9,374.4L378.5,375.2L377.8,375.6L377.7,376.1L378,376.8L378.2,377.4L378,378L378.1,379.4L377.5,379.9L376.9,381.1L376.5,381.2L375.5,380.7L375.1,381L374.5,381.9L373.4,382.8L372.8,382.8L372.5,382.7L372,383.1L371.4,383.9L371.1,383.9L370,384.1L369.6,383.8L369.1,383.2L368.2,382.5L367.5,382.1L367,381.8L366.7,381.2L366.3,380.9L365.7,381.6L364.6,382.4L363.6,382.2L363.1,382.1L362.7,383.2L362.5,383.3L360.6,383.5L360.3,383.7L360.6,384.7L361.7,386.3L362,387.2L361.3,388.7L359.4,388.7L358.6,388.1L357.8,387.2L357.5,386.8L355.1,385.9L353.5,386.5L353,386.5L352.2,385.9L351.8,385.4L351.3,384.7L351.1,384L351.1,383.7L351.8,383.4L352.9,382.8L353.8,382.2L354.4,381.5L354.7,380.8L354.7,379.9L355,377.7L355.3,376.7L355.1,375.3L354.6,374.3L354.6,372.8L354.8,372L354.9,371.5L355.6,370.9L356.1,370L356.3,368.8L356.4,368L356.2,367.4L355.4,366.9L354.3,366.5L353.6,365.9L353.3,365.1L353.3,364.5L353.7,364L352.8,363.4L350.7,362.7L349.5,361.9L349.2,361L348.4,359.7L346.9,358.2L346.1,356L346,353.1L346.2,350.8L346.8,348.1L345.9,346.2L344.9,345.1L343.6,344.4L342.3,343.3L341.1,341.9L339.6,339.7L337.9,337L336.8,335.7L336.2,336L334.9,335.7L333.1,334.9L331.4,334.5L330,334.4L329.1,334.6L328.7,335.1L328.6,335.5L329,335.9L328.8,336.2L328.1,336.4L327.5,336.9L326.9,337.9L326.4,339.3L325.7,339.8L324.6,339.9L323.6,340.3L322.5,340.9L322,341.4L322.1,341.7L321.8,341.8L321.3,341.6L321.1,341.2L321.1,340.5L320.6,340L319.5,339.8L318.3,339L316.9,337.8L315.9,337.1L315.4,337L314.6,337.5L313.6,338.6L312.8,339L312.1,338.8L311.6,339.2L311.2,340.2L310.6,340.9L309.1,341.8L309,341.9L307.4,343L306.1,344.2L304.5,345.7L303.8,345.9L303.1,345.6L302.1,345.2L301.5,344.7L302.6,342.1L303.9,339.2L304.3,337.9L304.3,336.9L304.2,336.1L303.7,335.3L303.2,334.6L303.2,334.2L303.3,333.8L303.8,333.1L304.5,332.1L305.2,329.9L305.9,327.7L305.9,326.3L305.3,324.8L304.9,323.4L305.2,321.4L305.1,320.7L304.4,320.3L302.2,319.9L301.5,320L301,320.2L300.4,320.8L299.7,321.1L298.3,321.3L297,320.6L295.9,319.5L295.6,318.1L296.5,316.5L297,315.2L297.3,314L297.3,313.5L297,312.9L296.8,312.8L296,312.1L295.4,310.9L294.7,310.3L294.1,310.4L293.6,310.9L293,311.8L292.7,312.1L292.4,311.9L292.5,311.2L292.5,310.5L293.2,307.8L293.9,306.1L294.8,305.3L295.8,304.9L296.8,305.1L297.6,304.9L298.3,304.5L298.2,304.2L297.4,304.2L297.1,303.7L297.3,302.8L297.6,302.3L298.1,302L298.7,301.1L299.2,299.6L299.8,298.9L300.5,298.9L301.8,298.2L303.5,296.9L304.2,295.7L304.9,296.3L304.6,297.7L305,298L305.2,298.5L305.1,299.3L305.2,300L305.5,300.3L305.9,300.5L307.8,299.9L308.9,299.8L309.4,300.2L309.8,300.4L310.3,300.6L310.8,300.9L311.1,300.8L311.7,300.2L311.9,300.1L311.9,299.8L311.5,299.3L311,298.8L311,297.8L311.2,296.1L311.3,295.2L311.2,293.1L311.1,292.5L310.7,291.8L309.6,290.4L309.3,289.6L309.1,288.8L309.1,288.3L308.8,287.7L308.7,287.1L309.2,286.8L309.8,286.2L310.1,285.2L310.4,284.5L310.8,284.2L311.2,284.1L311.4,284.2L312.4,285.4L313.6,284.8L314.5,284.8L315.3,285.1ZM-35.76,46.14L-35.64,45.46L-35.93,45.48L-36.26,45.67L-36.89,45.85L-37.05,46.19L-36.6,46.61L-36.05,46.77ZM-42,41.11L-41.27,41.04L-40.43,41.2L-39.47,41.72L-38.76,42.22L-38.05,42.2L-37.51,42.09L-37.26,42.22L-37.05,42.67L-36.76,43.07L-35.84,42.54L-35.01,41.83L-34.34,41.72L-33.72,41.46L-33.55,40.99L-33.05,40.22L-31.68,38.72L-30.97,38.48L-30.51,38.48L-30.51,38.72L-30.26,38.95L-29.05,39.3L-28.72,38.9L-28.51,38.35L-28.93,37.5L-28.93,37.13L-28.76,36.79L-28.55,36.6L-26.63,37.42L-26.21,37.4L-25.34,36.95L-24.55,36.13L-24.26,35.49L-20.34,33.42L-20.05,33.05L-20.09,32.78L-21.75,32.28L-22.46,32.57L-23.17,32.57L-23.59,32.25L-25.59,32.15L-26.01,31.93L-27.34,30.42L-28.26,29.86L-29.01,29.48L-29.8,29.54L-30.76,29.94L-31.05,29.75L-31.13,29.11L-31.09,28.34L-31.3,27.48L-31.89,27.27L-32.59,27.62L-33.68,27.27L-34.59,27.16L-34.84,25.37L-35.22,24.59L-35.59,23.79L-36.01,23.55L-36.68,23.15L-36.72,22.21L-36.85,21.94L-37.1,21.8L-37.39,21.91L-37.8,22.39L-37.6,23.44L-37.76,24.49L-38.01,25.02L-38.47,25.4L-39.01,25.42L-39.93,24.89L-40.06,28.07L-40.22,28.26L-41.31,27.8L-42,27.95L-42,3.371L-42,3.371L-41.81,3.178L-39.89,2.412L-38.85,2.658L-37.85,2.466L-36.26,1.836L-35.97,1.809L-35.34,1.782L-31.34,2.768L-30.01,2.795L-26.92,4.054L-25.51,4.327L-24.51,4.683L-24.05,5.229L-23.3,5.911L-19.42,6.43L-18.34,6.784L-17.96,7.384L-16.88,8.12L-15.92,8.283L-16.75,5.393L-16.42,3.671L-15.17,-1.073L-14.54,-1.788L-13.29,-2.421L-11.37,-3.137L-10.62,-4.129L-9.039,-4.019L-8.372,-4.102L-7.872,-4.267L-7.622,-4.847L-5.829,-3.881L-2.828,-1.926L-0.576,-0.688L2.092,0.492L5.76,1.562L8.887,1.919L9.429,1.644L10.68,0.026L11.26,-0.029L12.35,0.108L15.64,0.19L19.02,0.273L20.6,0.108L24.06,-0.579L24.56,-0.606L25.35,-0.551L27.44,0.355L28.98,0.492L30.02,0.492L30.61,0.547L31.9,0.52L33.98,0.63L36.53,1.233L39.65,1.123L40.61,1.014L42.36,1.123L43.7,1.672L45.45,2.275L46.53,2.521L47.24,2.658L48.53,2.713L49.33,2.521L49.78,2.795L50.2,4.245L51.28,5.202L52.12,6.13L52.83,7.112L53.54,7.52L54.79,7.548L57.16,7.82L58.54,8.229L60.25,9.943L61.87,11.71L62.08,12.66L62.29,13.74L62.17,14.01L61.96,14.17L58.37,14.44L57.58,14.74L56.75,16.26L53.7,17.47L51.95,18.09L51.24,18.06L49.58,19.06L44.87,21.51L42.57,23.07L41.41,23.71L40.49,24.43L40.32,25.16L40.28,25.82L37.69,28.98L35.78,29.38L34.15,29.3L33.02,29.78L31.44,30.26L27.98,29.94L26.81,29.99L24.52,29.54L23.64,29.78L22.64,30.42L21.31,32.94L20.77,33.53L20.52,34.08L20.31,35.3L19.81,36.6L19.14,37.61L18.68,38.56L17.73,39.46L16.81,40.04L16.1,38.85L15.52,39.19L14.93,39.67L13.85,39.51L13.18,39.75L11.64,40.77L9.387,40.75L9.137,40.38L8.679,37.53L8.303,36.18L7.97,35.89L7.553,35.83L4.343,38.08L2.842,38.48L1.591,38.56L-0.034,37.9L-0.368,38.06L-0.66,38.43L-0.785,38.88L-0.285,40.14L-0.41,40.41L-1.16,40.38L-2.161,40.67L-2.953,41.25L-5.287,43.3L-7.247,43.99L-9.039,44.25L-9.79,44.48L-10.12,44.72L-10.75,45.69L-11.37,47.21L-11.71,47.97L-11.96,48.39L-11.92,48.97L-11.42,49.67L-11.04,51.32L-11.12,51.73L-11.5,52.41L-12.08,53.06L-13.33,53.48L-14.29,53.66L-14.96,53.53L-16.17,53.51L-17.13,53.77L-17.75,54.21L-18.92,54.78L-20.38,54.96L-22.21,55.04L-23.09,54.99L-25.8,54.63L-26.67,54.76L-27.55,55.04L-29.05,55.35L-29.88,56.29L-30.3,57.17L-30.55,57.28L-31.51,56.5L-32.22,55.74L-32.72,55.12L-33.3,55.15L-35.47,56.26L-35.76,56.24L-36.39,55.8L-36.26,54.73L-36.3,54.05L-37.01,53.69L-38.47,53.61L-38.97,53.22L-38.93,52.65L-38.8,52.1L-38.97,51.68L-39.35,51.34L-40.1,51.45L-40.97,51.87L-41.64,52.39L-42,52.49L-42,41.11ZM86.34,-42L86.39,-41.79L87.85,-40.98L89.35,-40.49L89.68,-40.21L89.85,-39.38L89.81,-38.03L89.51,-36.78L89.06,-35.78L88.64,-35.3L88.14,-35.24L87.18,-35.89L86.34,-36.61L85.68,-36.81L84.01,-36.44L82.47,-35.87L81.97,-35.87L81.05,-36.21L80.17,-36.92L79.8,-38.32L79.01,-38.95L78.01,-38.32L74.88,-37.26L71.46,-36.01L69.34,-35.35L68.46,-35.44L66.79,-35.3L65.33,-34.95L64.25,-34.47L62.08,-33.79L60.12,-33.33L58.87,-32.31L57.95,-31.32L58,-30.95L58.66,-30.38L59.41,-29.9L60.91,-30.01L62.37,-30.09L63.63,-29.47L64.71,-29.08L65,-28.57L64.71,-28.06L64.08,-27.94L63.83,-27.61L63.96,-27.13L63.54,-25.91L63.33,-24.08L63.54,-22.25L63.67,-20.59L63.58,-19.75L63.54,-18.55L64,-17.74L64.42,-16.2L65.17,-15.25L66.29,-11.94L66.96,-9.993L67.58,-7.804L67.13,-6.642L67.17,-5.951L67.88,-5.371L68.21,-4.267L68.54,-3.578L68.46,-2.917L68.13,-2.641L66.58,-3.054L65.29,-2.394L63.96,-1.706L63.79,-1.348L63.75,-0.963L63.88,-0.606L64.67,-0.002L65.75,0.383L65.67,0.986L64.33,1.261L62.33,2.193L61.79,3.178L61.33,4.245L61.29,4.901L61.5,6.566L61.83,8.446L62.37,10.4L62.42,11L62.12,11.44L61.87,11.71L60.25,9.943L58.54,8.229L57.16,7.82L54.79,7.548L53.54,7.52L52.83,7.112L52.12,6.13L51.28,5.202L50.2,4.245L49.78,2.795L49.33,2.521L48.53,2.713L47.24,2.658L46.53,2.521L45.45,2.275L43.7,1.672L42.36,1.123L40.61,1.014L39.65,1.123L36.53,1.233L33.98,0.63L31.9,0.52L30.61,0.547L30.02,0.492L28.98,0.492L27.44,0.355L25.35,-0.551L24.56,-0.606L24.06,-0.579L20.6,0.108L19.02,0.273L15.64,0.19L12.35,0.108L11.26,-0.029L10.68,0.026L9.429,1.644L8.887,1.919L5.76,1.562L2.092,0.492L-0.576,-0.688L-2.828,-1.926L-5.829,-3.881L-7.622,-4.847L-7.872,-4.267L-8.372,-4.102L-9.039,-4.019L-10.62,-4.129L-11.37,-3.137L-13.29,-2.421L-14.54,-1.788L-15.17,-1.073L-16.42,3.671L-16.75,5.393L-15.92,8.283L-16.88,8.12L-17.96,7.384L-18.34,6.784L-19.42,6.43L-23.3,5.911L-24.05,5.229L-24.51,4.683L-25.51,4.327L-26.92,4.054L-30.01,2.795L-31.34,2.768L-35.34,1.782L-35.97,1.809L-36.26,1.836L-37.85,2.466L-38.85,2.658L-39.89,2.412L-41.81,3.178L-42,3.371L-42,-42ZM-42,215.6L-41.43,215.5L-38.51,215.3L-36.47,214.7L-34.72,214.1L-34.51,213L-33.8,211.3L-31.72,209L-31.13,208L-30.51,206.1L-29.84,204.4L-29.26,203.7L-25.96,201.8L-22.75,200L-22.21,199.2L-20.13,195.6L-18.96,193.1L-18.63,192.3L-17.96,190.1L-17.21,188L-16.21,187.5L-14,186.7L-12.25,185.9L-11.37,184.9L-10.83,184.1L-10.91,183.3L-11.42,182.4L-11.29,181.8L-11.21,181.3L-9.956,180.1L-7.538,176.8L-6.121,175.1L-5.621,175.1L-4.162,174.2L-2.703,173.2L-2.786,172.7L-2.994,172.1L-3.786,171.9L-4.037,171.1L-3.87,170.1L-3.161,167.4L-3.328,166.6L-4.12,164L-3.953,163.3L-3.62,162.6L-2.703,161.6L-1.494,160.8L2.342,158.9L3.134,158.7L4.468,158.2L5.302,157.1L5.385,156.3L5.052,155.7L4.26,155L2.759,154.3L1.383,153.8L-0.91,153.8L-2.119,153.3L-2.411,153L-2.577,151.7L-2.369,149.7L-2.703,149.5L-3.244,149.7L-4.453,149.5L-5.954,149.5L-6.496,149L-6.204,148.3L-6.288,147.3L-6.538,146.5L-6.746,146.3L-7.455,146.1L-8.581,145.3L-9.498,144.4L-9.998,143.7L-10.16,143.3L-10.12,143L-9.456,142.2L-8.664,141L-8.414,140L-8.289,139.3L-8.539,138.8L-9.248,138.1L-9.998,137.6L-10.29,137.1L-10.33,136.4L-10.04,135.4L-9.123,134.7L-7.538,134L-7.122,133.2L-7.205,132.6L-7.622,132.4L-8.747,132.4L-10.62,132.2L-10.96,131.9L-11.16,131.4L-11.16,131L-10.75,130.4L-10.29,129.8L-10.37,129.2L-10.91,128.4L-12.25,127.9L-12.42,127.2L-12.21,126.5L-11.79,125.7L-11.42,125L-10.5,123.3L-9.414,122.9L-8.039,122.4L-6.58,121.7L-4.287,122.2L-3.161,122.4L-0.91,123L0.966,123.4L2.926,123.5L3.718,123.5L4.593,124L6.761,124.9L8.554,125.4L9.763,125.4L11.51,124.6L12.39,123.9L13.6,123.1L15.1,123.1L18.39,121.9L19.02,122.1L20.02,122.1L21.18,121.4L21.77,120.6L21.89,120.1L22.19,119.8L23.44,119.3L24.69,118.5L25.06,117.5L25.27,116.9L26.65,116L28.11,115.1L29.61,114.1L31.32,113L32.77,112.1L33.94,111.4L33.98,111.4L34.07,111.5L34.57,111.9L35.07,112L35.65,111.7L36.4,111.5L36.78,111.6L36.82,112L36.36,114.1L36.4,114.9L37.15,116.5L38.11,119.2L39.03,121.7L39.53,123.3L40.07,124L42.24,124.6L44.03,125.2L45.12,126.1L46.28,127L47.12,127.5L47.49,128.2L47.58,128.8L47.53,129.3L47.07,129.8L44.99,131.2L44.74,131.7L44.7,132.3L45.12,134L45.37,135.1L45.41,137.3L45.57,139.4L46.28,140.4L46.91,141L47.24,141.6L47.99,142.3L48.62,142.9L49.16,143.2L49.41,144L49.28,144.9L49.03,145.6L49.12,146L49.53,146.3L50.2,147.1L50.28,148.2L50.24,149L50.49,149.7L50.58,150.4L50.37,152.3L50.41,153.1L50.41,153.2L49.83,153.3L49.33,153.6L48.62,154.8L47.83,155.1L46.91,155.2L45.99,154.4L45.2,153.7L44.99,153.3L44.82,152.4L44.41,151.9L43.57,152.2L42.36,152.3L41.07,152.4L40.82,152.6L40.78,153L41.11,153.7L41.41,154.6L41.53,156L41.91,156.8L42.03,157.1L44.11,159.8L44.66,160.3L44.78,160.6L44.62,161.6L44.24,162.7L44.32,163.6L44.99,164.6L45.57,165.3L45.03,166.2L44.7,167.3L45.07,167.8L44.87,169.3L45.03,169.6L45.45,169.7L46.07,169.6L46.7,169.2L47.24,169.1L47.53,169.2L47.99,168.1L48.37,167.9L49.08,168.2L50.53,170.4L51.78,172.2L52.12,172.6L52.37,172.8L53.58,173.7L54.41,174.4L55.54,174.1L57.04,174.1L57.95,174.7L58.45,175.1L58.5,175.2L58.58,175.2L60.37,176.6L61.16,176.5L61.66,176.9L61.83,177.9L61.58,179L61.66,179.5L62.46,179.6L64.17,180.3L65.71,180.9L66.5,181.1L67.33,181.5L68.09,182.3L69.55,183.2L70.84,183.9L71.13,184.9L70.63,184.7L69.96,184.8L69.25,185.2L68.92,185.5L67.38,187.2L66.54,187.7L65.79,188.4L64.08,190.7L63.13,192.8L62.37,194.8L62.42,196.2L62.12,197.8L61.41,198.8L60.96,199.1L60.41,200.5L60.04,202.1L60.25,202.7L61.16,203.4L62.04,204.1L63.21,204.8L64.29,205.5L65,205.6L65.17,205.2L65.42,204.8L66.25,205L67.21,205.7L67.83,206.3L68.13,206.5L69.8,207.4L71.21,208.2L72.96,209.2L73.42,209.8L73.8,210.4L74.63,211.3L76.63,212.8L78.38,213.8L79.8,214.7L80.88,215.3L81.38,215.2L81.97,214.9L82.47,214.7L83.01,214.9L83.89,215.3L85.93,216.8L87.81,217.9L89.89,217.7L90.43,217.8L90.85,218.9L91.1,219.9L93.39,220.5L94.93,220.8L96.64,221.4L97.52,221.8L98.44,221.3L98.6,220.8L99.35,220.6L100.6,220.7L102.8,221.5L103.8,221.7L104.6,221L106,220.6L106.8,220.2L108.4,221.1L111.3,222.1L112.8,222.7L113.2,223.4L113.3,224L113.3,225.5L113.7,226.1L116.6,227.6L117.6,228.2L118.4,228.4L118.8,228.4L119.1,228.6L119.4,229.5L119.6,229.7L120.1,229.9L120.7,230L122.6,229.3L123.9,228.7L124.8,228.9L125.5,229.5L125.5,230.4L125.9,231.3L126.5,231.8L127.2,231.8L129,231.2L130.4,231.7L131.7,231.9L133.2,232.2L133.7,232.4L135.2,233.2L137,234L137.7,233.9L140.7,232.4L140.9,232.6L141.5,234L142.4,234.5L143.8,234.9L145.3,234.1L146.4,234.3L147.8,234.4L149.2,234L150.3,233.9L152,234.6L152.4,234.5L152.7,234L153.4,232L154,230.2L153.9,229.1L153.4,227.6L152,225.5L151.9,224.9L152.3,221.3L152.9,219.3L153.3,218.3L153.8,216.9L153.9,216.2L153.8,215.6L153.3,215.3L153.2,214.8L153.3,214.5L153.7,214.3L155.3,214L157,213.4L157.7,213.1L158.2,212.8L158.8,212.4L159.3,212.4L160.8,213.1L161.4,213.5L161.7,214.8L161.9,215.3L161.7,216.6L160.8,219.8L160.9,221L161.7,221.9L162.4,222.5L162.3,222.8L160.9,223.8L160.6,224.3L160.9,224.9L161.5,225.3L161.8,225.8L162,227.1L162.7,227.5L164.1,228.4L165.4,229L167.5,228.6L168.1,228.9L169.1,229.2L170,229.3L170.4,229.5L170.7,229.7L170.7,230L170.7,230.3L171.9,230.3L172.5,230.5L174.6,230.2L176.6,229.8L177.6,228.6L178.1,228.5L179.2,228.1L180.4,228.6L181.7,229.3L182.4,229.5L183.8,229.6L185.1,229.5L188.4,229.2L190.2,229.4L191.8,228.4L192.1,228.4L192.8,229.1L194.6,229.2L195.5,228.8L196.6,228.5L197.2,228.5L197.7,228.5L198.4,228.5L199,228.3L199.2,227.7L199.2,227L198.7,226.1L198.4,225.6L198.3,225.3L198.4,224.7L198.7,223.9L199.4,222.9L198.9,221.9L198.3,220.8L197.8,220.7L196.7,220.9L195.4,220.9L194.4,220.2L193.7,219.4L193.5,218.7L193.7,217.8L194.1,217L194.2,216.7L195.1,216.7L196.4,216.9L197.4,217.1L198.2,217.1L199.6,216.1L200.2,216.1L201,215.9L201.3,215.7L201.5,215.8L202.4,215.9L203.2,215.9L203.9,215.6L204.7,215.2L206.1,214.3L206.4,213.7L206.4,213.3L206.1,212.9L205.9,212.8L206,212.4L206.5,211.7L208.6,210.6L210.4,209.3L211.4,208.3L211.8,207.1L212.4,205.8L212.9,205.3L214.2,205L217.7,204.5L218.8,204L220.4,203L221.3,202.3L221.7,201.6L221.8,200.9L222.8,200.7L223.8,199.6L225,198.5L227,197.5L228.8,196.3L229.4,196.5L230,197.1L230.4,197.7L230.5,198.1L232.8,198.5L233.1,198.4L234.8,199L236.4,199.8L237.2,199.9L237.6,199.9L238,199.7L238.4,199L238.8,198.6L239.1,198.4L239.1,197.7L241.3,196.3L243.4,195.2L245.1,194.5L245.6,194.8L246.2,195.4L247,196.8L247.4,197.2L248.6,196.9L248.8,197.1L248.6,197.6L247.8,198.3L246.8,198.9L246.1,199.3L246.3,200.9L246.3,201.4L246.6,201.6L248.7,200.1L249.8,199.7L250.1,200.1L250.2,200.9L251.1,202.7L251.4,203.5L249.3,205.6L248.5,206.7L248.6,207L248.5,207.4L247.9,208L248,208.2L248.4,208.5L249,208.8L249.2,208.7L249.7,208.2L251.7,207.5L252.3,207.7L253.7,208.8L254.4,208.8L256.1,209.2L257.2,208.7L258,209.1L259.6,210.5L260,210.7L259.9,211.5L259.8,212.5L260.2,213.2L260.3,213.8L260.2,214.4L259.9,214.8L258.9,215L258.1,215.7L256.9,216.7L255.9,217.5L255.1,218.3L254.9,219L254.9,219.9L255.1,220.9L257.5,224.5L257.5,225.1L256.7,225.3L255.8,224.9L254.9,224.3L254,222.8L253.2,222.3L252.4,222.2L247.9,223L246.9,223.2L245.4,223.8L244.4,225L243.6,226L242.8,226.4L241.7,227.3L238.5,229.8L236.7,230.9L235.5,231.3L234.6,231.9L234.2,232.8L233.8,233.5L233.7,235.1L233.9,237.1L234.4,238.4L234.6,238.7L234.7,239.1L234.2,239.7L233.6,240.3L233.3,240.7L233,242.5L232.5,243.4L231.5,244.8L230.7,245.8L229.3,246.5L228.8,247.2L228.3,248.3L228,249.3L228,249.6L228.1,250L228.7,250.3L229.4,250.6L229.7,251.2L229.8,251.8L229.3,253.3L228.3,255.4L227.3,257L226.2,258.6L225.9,259.1L225,261L224.1,263.7L223.5,265.5L223,266.7L222.4,266.8L221.7,266.4L219.9,265.9L218.8,265.4L217.9,265.1L217.3,265.1L216.5,265.3L215.7,265.5L215.2,265.3L214.1,264.2L213.7,264.3L213.5,264.9L214.3,268L214.8,269.2L214.7,271.1L214.5,273.5L214.2,276.1L214,276.7L213.5,277.4L212.9,277.6L212.3,277.3L211.9,277.4L211.7,277.8L211.9,278.9L211.3,280.2L210.9,281.3L211,282.4L211.2,283.4L211.9,285.8L211.9,286.6L211.7,287.4L211.4,287.7L210.8,287.7L210.5,288L210.2,288.5L209.6,290.2L208.9,290.4L208.3,290.2L207.3,289L206.7,288.6L206.4,288.7L206.2,289L206,289.7L205.7,290.2L205,290.6L204.9,289.7L204.6,285.2L204.3,283.7L204.1,281.7L203.8,281.1L203.4,280L202.9,279.1L202.6,278.6L202.4,276.9L202.3,274.7L202.3,273.7L201.7,271.6L201.2,269.1L200.6,269.2L200.2,268.7L199.9,268.7L198.9,269.2L198.2,269L197.6,269.1L197.6,270.2L197.7,271.4L197.4,271.8L195.9,273.2L195.6,274.1L195.6,275.1L195.8,276.4L195.5,277.1L194.9,277.7L194,278L193.2,277.9L192.7,277.3L192.3,276L191.9,275.2L191.4,275.1L191.1,275.3L191.1,276.1L191.1,276.8L191,276.9L190.7,276.8L190.5,276.4L189.8,273.1L188.7,270.4L188.7,269.4L189,268.1L189.5,266.1L190.7,264.9L190.9,264.4L191.1,264L191.4,263.9L192.9,264L193.4,263.8L193.9,263.2L194.6,262.7L195.2,262.5L195.8,262.5L196.6,262.9L197,262.7L197.2,261.8L197.6,261L197.8,260.6L198.4,260.4L199.2,260.4L199.4,260.2L199.6,259.9L199.7,258.9L200.7,256.4L201,255.3L201.1,255.1L201,253.9L201.3,253.8L202.9,254.3L203.5,254.3L203.9,254.1L204,253.6L203.8,253.1L202.7,252.2L200.8,251L199,250.2L195.7,250.4L192.4,250.6L191.4,250.5L190.2,250.1L187.3,250.2L183.7,250.4L182.4,250.3L181.6,250.3L180.3,250.4L178.1,250L176.6,249.6L175.3,249.1L173.7,248.7L173.3,248.7L173.1,248.5L172.9,248.1L172.9,247.6L173.2,245.2L172.9,241.6L173.2,240.3L171.9,237.4L171.4,236.8L170.8,236.8L170.4,237.2L170.3,237.9L170.5,238.7L170,239.5L169.1,239.8L167.9,239.5L167,239.1L165.8,238.2L164.9,237L164.8,235.6L164.4,234.7L163.9,234.3L163.5,234.2L163.1,234.3L162.8,234.7L163.1,235.2L163.4,235.9L163.3,236.3L163,236.4L162.5,236.2L161.7,236.3L160.9,236L160.4,235.9L160,235.8L160,235L159.3,234L158.1,232.9L156.9,232.2L156.3,232.3L156.1,233.1L156.1,233.3L156.6,233.5L157.1,233.9L157.3,234.4L157.2,234.8L156.5,235.6L155.9,236.3L154.8,237.3L153.8,238.5L153.6,239.3L153.2,240.2L153,241L153.3,241.6L153.8,242L155,242.3L156.3,243.5L157.3,245.1L157.9,245.5L159,246.1L161,246.1L161.3,246.6L161.6,247.7L162,248.1L163,248.7L163.1,249.1L162.8,249.6L162.4,249.9L161.6,250.2L160.7,250.2L159.9,250.1L158.7,250L157.3,250L156.4,252.9L155.7,253.9L155.3,253.9L154.3,253.4L153.8,253.5L152.6,256.1L152.4,256.7L152.3,257.2L153,258.2L153.8,259L154.7,259.3L155.4,259L156,259.4L156.7,260.2L157.8,260.7L159.5,261L160.5,261.6L160.6,262.2L160.5,262.8L160.3,264.2L160.2,265.1L159.3,267.3L158.6,269.3L159,270.2L159.2,270.6L159.4,270.8L160.1,271.6L160.6,272.3L160.2,274.1L160.5,274.6L161.4,274.9L162.5,275.1L162.8,275.4L161.9,277.2L162.1,278.5L162.5,279.7L162.8,281.7L162.8,281.9L162.7,282.4L163.3,283.9L164.2,286.9L164.3,288L164.3,289.1L164,291.1L163.1,291.1L163.9,292.4L164.1,293.3L164.3,294.6L163.3,294.8L162.6,294.6L162,293.5L161.7,294.5L160.7,295.5L160.3,295L160.1,294.5L160.1,293.6L160.6,290.2L160.6,289.9L160.3,289.6L159.7,289.5L159.5,288.8L158.6,292.4L159,293.9L158.8,294.6L157.3,295.1L155.6,293.8L155.4,293.3L155.3,294.1L155,295L153.5,294.8L152.7,294.1L153.2,292.9L154.2,289.9L154.3,288.6L153.1,287.6L152,287L151.4,285.6L151.6,287.1L152.2,287.6L153,288L153.9,288.8L153.3,289.7L152.7,290.3L151.5,292.5L150,293.7L148.3,294.6L142.8,296L141.7,296.5L140,298.2L138.9,299.8L138.7,301.4L139.3,303.2L139.8,305.9L140.2,306.5L139.6,307.5L138.6,308.5L137.7,309.9L137.8,310.7L137.6,311.2L134.7,313L134.1,314L133.3,315L132.3,314.5L131.7,314.5L132.5,315.3L132.4,315.8L132.2,316.1L131.4,316.4L127.2,317.7L124,318.9L123.1,318.8L123.2,318.5L123.8,318.2L123.8,316.7L123.2,316.5L122.7,316.4L120.2,318.1L119.2,319.8L119.4,320.1L120,320L121.6,319.1L122.4,319.3L122.4,319.7L119.9,321.2L114.7,325.8L114.4,326.8L113.7,327.8L112.8,328.8L111.1,331.2L107.9,334.7L107,336L101.8,338.7L100.8,339.6L98.69,342.2L96.48,344.4L93.89,346.2L89.47,348.4L86.76,350.6L85.93,352L85.84,352.5L86.14,353.2L86.64,353.9L86.76,354.4L86.51,355.3L86.39,355.8L85.59,357.1L84.22,358L79.84,359.9L79.26,359.8L75.67,359.4L74.34,359.8L73.8,360.6L72.55,364.3L71.38,365.3L70.92,366.1L70.75,366.7L70.05,366.7L69.46,366.4L69,366.6L68.5,365.4L67.63,365.2L66.92,365.1L63.88,366.3L62.83,367.3L60.62,371.9L60.04,374.9L60.58,378.3L61.33,380.9L61.5,382.1L61.41,383.6L61,384.4L60.75,385.3L61.08,387.1L62.04,389.5L62.25,390.5L62.29,391.6L63,393.9L62.5,393.5L62.12,392.5L61.25,391.2L60.16,392.5L60.75,393.4L62.79,394.5L63.42,395.4L62.08,403.4L61.08,406.2L59.87,408.1L59.21,408.8L57.79,411.7L56.79,415.2L56.58,416.6L57.04,418.1L56.54,419L55.87,419.7L57.12,419.4L57.54,420.2L57.66,421.1L57.7,426.1L57.58,431.4L56.62,431.6L55.58,431.6L54.66,431.5L53.99,431.3L52.37,431.6L51.49,432.1L50.78,433.1L50.83,434.8L47.83,438.9L47.16,440.3L46.91,441.6L47.32,442.3L48.08,443L49.08,443.3L51.03,443.6L51.99,444L52.62,444.6L50.33,443.9L47.62,443.8L41.15,445.7L39.45,447L38.49,448.2L37.86,450.9L37.74,452.6L36.99,454.1L33.61,456.4L31.48,457.1L30.69,457.7L28.19,456.9L25.44,454.9L24.31,453.8L20.27,448.7L19.52,448L18.73,445.9L18.56,445L18.35,444.7L17.98,444.5L17.77,444.1L16.89,441.6L16.52,439L15.93,436L16.39,436.2L17.1,437.2L17.43,438.6L17.48,440.6L17.98,440.8L18.43,440.6L17.14,436.1L15.97,435L15.68,434.9L15.39,434.1L15.35,433.3L15.43,432.8L14.56,431.3L14.22,430.4L12.22,425.9L11.3,422.7L9.929,419.1L9.012,417.9L7.595,415.1L6.427,413.8L5.177,412.1L4.176,411.3L3.801,410.9L0.883,404.9L0.007,401.6L-0.743,400L-1.118,398.8L-2.161,393.7L-2.161,392.8L-2.286,391.8L-2.994,389.6L-4.287,387.2L-4.662,385.8L-4.62,385.2L-5.454,382.9L-5.621,381.9L-6.163,380.9L-6.788,380L-7.455,379.3L-8.998,377L-9.581,376.4L-10.62,374.9L-11.37,372.2L-12.33,371.1L-10.83,371.1L-11.75,370.1L-12.21,369.4L-12.71,369L-12,367.9L-13.13,367.9L-13.75,367.3L-14.58,365.4L-16.13,363.2L-16.38,362L-17.71,358.3L-18.84,349.3L-19.92,345.4L-19.84,344.2L-21.09,340.7L-21.71,338.4L-21.96,336.4L-22.3,335.1L-22.59,332.6L-23.09,331.8L-23.13,331.3L-22.8,330.1L-21.88,328.3L-21.55,327.1L-21.96,325.5L-22.8,327.2L-23.55,327.7L-23.92,326.4L-23.92,324.7L-24.01,324.3L-23.8,323.7L-21.75,324L-24.09,323L-24.34,322.3L-24.46,321.9L-23.96,321L-24.8,320.3L-25.13,318.1L-25.38,317.6L-25.46,317.2L-25.01,314.2L-23,308.1L-22.84,306.8L-23.05,304.9L-23.46,303.3L-23.67,301.7L-23.8,301.3L-24.51,301.1L-25.17,300.5L-25.96,298.1L-25.26,297.3L-24.71,296.9L-25.46,297.1L-26.09,297L-24.88,295.9L-23.84,295L-21.38,294.1L-20.34,293.4L-21.88,294L-23.46,294.2L-26.92,294.1L-26.34,291.8L-25.76,291.1L-25.09,290.7L-26.05,290.8L-27.17,290.6L-26.8,288.3L-25.92,287.8L-25.01,287.7L-23.84,287.4L-25.09,287L-26.38,286.8L-27.92,287.2L-29.34,286.9L-31.09,286.9L-30.38,287.2L-29.68,287.9L-30.01,289.2L-30.38,290L-31.34,290.5L-32.09,291.3L-32.34,292L-32.76,292.5L-32.01,292.9L-31.22,293.1L-30.76,293.7L-30.22,294.5L-30.26,296.2L-32.3,300L-33.01,300.8L-38.18,303.1L-40.18,304.4L-42,305L-42,215.6ZM220.3,472.3L219.6,473.2L218.2,470.3L217.6,470.1L217.6,468.7L217.9,468.1L219.5,467.5L219.9,467.9L220.8,470.6ZM218.5,466.1L217.4,467.2L216.9,466.6L217.1,466.1L217.5,465.9L218,465.5ZM211.6,455.7L212,456.1L211.3,456.1L210.7,455.4L210.9,454.8L211.1,454.5ZM215.1,460L214.2,460.1L214,459.6L213.6,459L213.8,458.5L214.3,458.4L215,459.2L215.2,459.8ZM216.2,457.9L215.7,458.4L215.5,458.3L215.5,458L215.4,457.8L215.3,457.4L215.2,456.6L215.7,456L216.1,456.1L215.9,456.8ZM207.5,445.3L207,445.4L206.7,445L206.7,444.5L207,444.2L207.2,444.1L207.5,444.1L207.8,444.9ZM204.2,428.6L203.9,429L202.7,428.7L202.8,427.5L202.5,426.3L202.7,425.8L203.6,425L204.3,424.6L204.8,425.7L205,426.9ZM206.4,418.9L205.9,419.1L205.3,418.8L205.7,418.4L205.8,417.4L206.4,417.9L206.4,418.5ZM206.8,417.1L206.5,417.3L206.1,417L205.1,414.9L204.9,413.5L204.6,413.1L205,412.4L205.5,412.2L205.7,411.4L205.8,410.2L206.2,409.3L206.5,409L207.3,409L207.5,408.9L207.4,408L206.9,407.6L206.7,407.3L206.7,405.2L206.9,404.3L207.2,403.7L207,402.3L207.1,401.8L207.7,401.2L208,399.7L207.8,399.2L208.4,397L208.3,395.5L209.1,393.9L210.3,393.3L210.7,393.2L210.7,394.5L210.9,394.9L210.2,395.7L210.8,396.7L210.7,397.1L210.5,397.9L210,398.6L209.4,399L209,400L208.7,400.4L209.6,401.5L209.9,405.2L209.2,406.2L208.4,406.4L208.6,408.9L208.5,409.4L207.7,410.6L207.5,411.2L207,411.7L207.2,412.3L207.6,412.5L207.6,413.1L207.3,414.4L207.2,415.8ZM210.2,411.1L210.7,412.8L209.8,412L209.5,411.6L209.9,411.2ZM206.7,401.3L206.3,402.1L206.3,400.4L206.5,400.2L206.6,400.2L206.9,400.3ZM-24.17,421L-24.26,421.1L-24.26,420.9L-24.17,420.5L-24.05,420.3L-24.01,420.3L-24.01,420.5L-24.09,420.9ZM-20.84,455.5L-21,455.6L-21.17,455.7L-21.3,455.7L-21.34,455.5L-21.34,455.4L-21.17,455.5L-20.96,455.4L-20.75,455L-20.71,454.9L-20.67,455L-20.71,455.2ZM182.9,-42L182.9,-41.87L183.3,-41.04L183.9,-40.12L184.1,-39.32L185.1,-37.55L185.4,-36.44L185.8,-36.41L186.3,-36.78L187.4,-36.78L188.4,-36.41L189.4,-35.61L190.4,-35.15L191.9,-35.27L192.7,-34.84L193.6,-34.47L195.4,-34.35L196.7,-34.35L198.7,-34.35L200.4,-33.81L203.3,-33.36L205.1,-33.42L207.5,-33.81L209,-33.56L213.4,-32.96L216,-32.31L217.6,-31.6L218.7,-30.46L220,-28.71L221.1,-27.92L223.9,-27.43L225.8,-25.38L227.3,-24.61L229.8,-22.64L231.6,-21.89L233.7,-21.18L237.2,-21.46L237.4,-21.21L237.1,-20.14L236.9,-18.69L236.9,-17.63L237.3,-17.09L238.6,-16.76L239.2,-16.26L239.7,-15.25L240,-14.64L241.1,-11.6L242.9,-7.112L243.1,-5.399L243.7,-4.295L245.6,-2.559L246.7,-1.266L248.2,0.108L248.7,1.37L248.8,2.987L249.2,3.397L252,3.014L254.4,2.768L258.7,2.302L264.6,3.151L270.7,3.972L276.2,4.683L278.8,5.038L284.9,5.802L288.2,4.819L290.8,4.081L292,4.163L297,5.038L300,5.475L303.7,6.048L306.3,6.266L308.3,6.266L309.3,6.484L310.3,6.866L310.9,7.411L312.8,10.11L313.9,11.33L316,12.22L320.8,13.25L323.6,13.88L326.6,14.58L328.6,15.66L331,16.93L334,18.55L337.3,17.85L340.9,17.07L343.1,16.61L343.1,19.98L346.3,20.27L347.3,20.22L348.7,20.97L349.5,20.65L350.3,19.92L351.2,18.76L352.6,18.25L354.9,16.96L355.5,16.63L359,14.77L364.2,12.49L366.5,11.38L367.2,11.14L368.5,10.57L369.5,10.19L371,9.861L373.2,9.671L375.5,9.236L380.8,8.419L381.4,8.338L384.4,8.011L385.7,7.684L387.5,7.847L390,7.984L391.6,8.174L393.8,8.011L396.8,7.793L399.2,7.82L400.4,7.548L402,6.77L402,294.3L402,294.3L401.8,294.2L401.3,294.1L401.6,296.1L400.3,296.8L399.3,297.1L397.8,297.2L397,297.4L396.2,297.3L396.4,296.7L396.8,296L396.4,295.4L395.6,295L394.3,295L393.5,294.9L392.6,294.9L392.3,294.6L391.5,293.7L390.8,293.2L390.5,292.6L390.8,291.9L390.6,291.5L389.2,291.5L389.3,292.4L389.4,293.6L389.8,294.4L389.5,294.9L388.8,295.2L388.1,294.3L387.8,294.1L387.4,294.1L387.2,295L386.5,295.8L385.4,295.7L384.5,296.2L383.4,296.4L383.4,296.4L382.6,295.8L381.4,294.7L380.9,294.6L379.5,295.1L377.5,295.3L377.1,294.8L376.2,295.2L375.3,293.9L374.2,293.8L372.8,292.9L372.3,292.4L372.2,291.6L371.7,291.2L371.2,291.3L370.7,290.9L369.7,290.5L369,290.3L368.6,290.5L368.2,290.6L368.1,290.1L368.2,288.6L368.1,287.3L367.9,286.7L367.4,286.2L366.9,286L366.7,285.4L366.9,284L367.2,283.1L367.9,283L368.7,282.3L369,281.4L369.5,280.5L367.7,279.3L366.8,278.9L365.7,279.1L364.5,279.5L363.7,279.6L363.4,279.4L362.7,278.3L362.2,278.1L361.3,278.1L360.5,278.1L360.1,278.6L359.4,278.7L358.7,278.7L358,278.1L356.9,277.4L355.3,276.9L355.1,276.2L354.7,275.5L354,274.8L353,273.9L352.1,273.4L351.7,273.7L351.1,274.2L348.9,275.3L347.9,275.7L347.4,276L346.9,276.5L346.8,277.6L346.6,278.9L345.9,279.5L345.3,280L344.7,280L344.1,280L343.4,280.2L341.6,281.5L340.8,281.4L340.1,280.7L339.8,280.2L339,280.3L338,280.9L337.5,282L337.3,283L337,283.4L336.7,283.5L336.4,283.6L333.1,280.7L333,280.5L332.4,281.1L331.9,282.6L331.5,282.9L331.2,282.8L329.9,280.9L329.6,280.7L329.3,280.7L328.9,281.4L328,282.3L327.4,282.9L327.4,283.5L326.6,284.1L325.8,284.6L325.6,284.7L325,284.5L324.3,283.7L323.8,282.9L322.6,282.2L321.1,281.5L320.2,281L319.6,280.9L319.1,281.1L318.9,281.4L318.6,282.2L317.7,283.5L316.9,284.5L316.2,285.1L315.7,285.6L315.3,285.1L314.5,284.8L313.6,284.8L312.4,285.4L311.4,284.2L311.2,284.1L310.8,284.2L310.4,284.5L310.1,285.2L309.8,286.2L309.2,286.8L308.7,287.1L308.8,287.7L309.1,288.3L309.1,288.8L309.3,289.6L309.6,290.4L310.7,291.8L311.1,292.5L311.2,293.1L311.3,295.2L311.2,296.1L311,297.8L311,298.8L311.5,299.3L311.9,299.8L311.9,300.1L311.7,300.2L311.1,300.8L310.8,300.9L310.3,300.6L309.8,300.4L309.4,300.2L308.9,299.8L307.8,299.9L305.9,300.5L305.5,300.3L305.2,300L305.1,299.3L305.2,298.5L305,298L304.6,297.7L304.9,296.3L304.2,295.7L304.3,295.5L304.1,294L304.1,293.6L304,293.5L303.5,293.3L302.8,293.6L300.7,294.6L298.9,296.5L298,296.9L297.2,297.1L296.2,296.7L295.1,296.5L293.5,297L292.7,296.8L292.4,296.4L292.1,295.8L292.2,295.1L292.2,294.5L291.5,294.2L290.8,294L290.4,293.3L290.2,292.5L290.3,291.5L290.5,290.4L290.1,289.9L289,289.7L286.3,289.2L284,288.9L283,289L282.2,288.9L281.7,288.7L281.4,288.4L281.4,287.9L281.8,286.8L282.3,285.7L283.4,284.1L283.5,283L283.4,281.7L283.9,280L284.9,278.7L285.3,278.3L285.2,277.7L284.8,277.2L284.3,276.9L283.4,276.6L282,276.5L280.1,276.1L277.9,275.3L278.1,273.9L278.1,273L277.8,272.2L277.4,271.7L277.1,271.2L277.5,269.9L277,268.5L276.4,267.9L275.8,267.1L275.7,266.3L276,265.6L277.5,264L277.5,263.6L277.2,263.6L276.7,263.7L274.7,264.2L274.4,263.9L273.7,263.7L272.1,263.6L270.3,263.7L268.1,264.3L266,265.3L265.1,266L264.2,266.4L263.6,266.6L262.8,266.3L262.9,265.3L264.3,263.5L264.5,262.2L264.1,261.2L264,260.3L263.5,259.8L262.8,259.5L262.4,258.9L262.4,257.1L263.1,255.3L264.1,254.7L264.7,254.4L264.9,254.1L264.5,252.8L264.6,252L265.2,250.4L265.8,249.2L266.9,249.4L267.4,249.1L268,248.7L268.6,247.9L269,247.1L269.5,245.1L269.9,244.8L271.3,245.1L271.7,244.9L272.5,243.7L273.3,242.3L274.4,241.8L275.1,241.8L275.5,241.3L275.4,240.6L274.7,239.5L274.4,238.7L274.5,238.1L275.6,237.8L275.8,237.1L275.7,235.7L276.1,234L276.4,232L276.4,230.6L276.4,229.4L276.3,228.2L276.2,226.1L275.7,224.2L275.8,223.4L275.7,221.1L275.4,219.2L274.8,218.8L273.7,218.2L273.1,218.1L272.6,218.3L272.4,219L271.9,219.6L271.3,219.5L271.1,218.8L270.7,218L269.4,214L269.2,212.9L269,211.7L268.6,211.1L268.2,210.8L267.1,209.5L266.6,208.9L266.3,208.8L265.7,208.9L265.2,208.9L264.7,208.2L264.4,207.4L263.9,207L263.2,206.8L262.5,206.9L262.1,207.6L261.8,208L261.3,208.9L260.4,210.2L260,210.7L259.6,210.5L258,209.1L257.2,208.7L256.1,209.2L254.4,208.8L253.7,208.8L252.3,207.7L251.7,207.5L249.7,208.2L249.2,208.7L249,208.8L248.4,208.5L248,208.2L247.9,208L248.5,207.4L248.6,207L248.5,206.7L249.3,205.6L251.4,203.5L251.1,202.7L250.2,200.9L250.1,200.1L249.8,199.7L248.7,200.1L246.6,201.6L246.3,201.4L246.3,200.9L246.1,199.3L246.8,198.9L247.8,198.3L248.6,197.6L248.8,197.1L248.6,196.9L247.4,197.2L247,196.8L246.2,195.4L245.6,194.8L245.1,194.5L243.4,195.2L241.3,196.3L239.1,197.7L239.1,198.4L238.8,198.6L238.4,199L238,199.7L237.6,199.9L237.2,199.9L236.4,199.8L234.8,199L233.1,198.4L232.8,198.5L230.5,198.1L230.4,197.7L230,197.1L229.4,196.5L228.8,196.3L227,197.5L225,198.5L223.8,199.6L222.8,200.7L221.8,200.9L221.7,201.6L221.3,202.3L220.4,203L218.8,204L217.7,204.5L214.2,205L212.9,205.3L212.4,205.8L211.8,207.1L211.4,208.3L210.4,209.3L208.6,210.6L206.5,211.7L206,212.4L205.9,212.8L206.1,212.9L206.4,213.3L206.4,213.7L206.1,214.3L204.7,215.2L203.9,215.6L203.2,215.9L202.4,215.9L201.5,215.8L201.3,215.7L201,215.9L200.2,216.1L199.6,216.1L198.2,217.1L197.4,217.1L196.4,216.9L195.1,216.7L194.2,216.7L194.1,216.2L194.2,214.6L193.8,214.2L192.5,213.8L191.1,213.3L190.4,212.7L190,212.6L189.4,212.6L188.6,213.2L187.7,213.9L187.1,214L186.4,213.6L185.7,213.2L183.5,212.6L182.5,212.6L180.8,212.7L179.3,212.5L179.1,212.3L179.1,212L179.3,211.4L179.4,210.7L179.3,210.4L177.8,209.9L176.4,209.6L175,209.5L174.1,209.7L173.1,210.2L172.3,211.1L171.2,211.5L169.9,212.2L169.2,212.8L168.2,214.1L166.8,215.8L165.5,217.4L164.8,218.9L164,219.9L163.1,220.6L162.4,222.5L161.7,221.9L160.9,221L160.8,219.8L161.7,216.6L161.9,215.3L161.7,214.8L161.4,213.5L160.8,213.1L159.3,212.4L158.8,212.4L158.2,212.8L157.7,213.1L157,213.4L155.3,214L153.7,214.3L153.3,214.5L153.2,214.8L153.3,215.3L152.3,215.1L151.3,215L150.5,215.1L148.4,215.9L147.7,216L146.9,215.9L145.9,215.9L143.9,215.9L142.1,215.7L140.8,214.5L139.7,214L138.7,213.6L137.6,213.3L137.2,212.7L136.9,212.3L136,212.2L135.3,212.5L134.9,214.1L134.5,214.4L133.7,214.5L132.7,214.1L131.5,213.3L131,212.4L130.5,212.1L129.8,212.5L129.8,213.6L129.7,214.4L128.9,214.8L128.4,214.5L128,213.7L127.1,211.8L126.1,210.7L125.2,210L122.1,210L119.8,209.7L118.7,209.4L118.4,208.7L118.7,207.2L119.2,206.1L119.2,205.8L118.8,205.7L118.2,205.6L115.7,206.3L115,206.2L114.6,206L114,205.7L113.6,205.4L113.3,204.9L111.2,203.7L110.5,203L109.4,202.1L108.4,201.6L107.8,199.9L107.2,198.3L106.9,197.5L106,197L105,196.7L103.3,197.4L101.9,197.9L100.9,198L99.48,196.3L98.27,194.6L96.89,193L95.98,192.3L94.35,192.2L92.47,191.3L90.01,189.4L88.22,187.9L85.14,186.2L84.43,185.6L84.18,185L83.76,183.8L83.09,182.7L80.93,182.3L78.47,181.9L75.84,182.6L73.96,185.9L73.05,186.6L72.3,186.6L71.67,185.8L71.13,184.9L70.84,183.9L69.55,183.2L68.09,182.3L67.33,181.5L66.5,181.1L65.71,180.9L64.17,180.3L62.46,179.6L61.66,179.5L61.58,179L61.83,177.9L61.66,176.9L61.16,176.5L60.37,176.6L58.58,175.2L58.5,175.2L58.45,175.1L57.95,174.7L57.04,174.1L55.54,174.1L54.41,174.4L53.58,173.7L52.37,172.8L52.12,172.6L51.78,172.2L50.53,170.4L49.08,168.2L48.37,167.9L47.99,168.1L47.53,169.2L47.24,169.1L46.7,169.2L46.07,169.6L45.45,169.7L45.03,169.6L44.87,169.3L45.07,167.8L44.7,167.3L45.03,166.2L45.57,165.3L44.99,164.6L44.32,163.6L44.24,162.7L44.62,161.6L44.78,160.6L44.66,160.3L44.11,159.8L42.03,157.1L41.91,156.8L41.53,156L41.41,154.6L41.11,153.7L40.78,153L40.82,152.6L41.07,152.4L42.36,152.3L43.57,152.2L44.41,151.9L44.82,152.4L44.99,153.3L45.2,153.7L45.99,154.4L46.91,155.2L47.83,155.1L48.62,154.8L49.33,153.6L49.83,153.3L50.41,153.2L50.41,153.1L50.37,152.3L50.58,150.4L50.49,149.7L50.24,149L50.28,148.2L50.2,147.1L49.53,146.3L49.12,146L49.03,145.6L49.28,144.9L49.41,144L49.16,143.2L48.62,142.9L47.99,142.3L47.24,141.6L46.91,141L46.28,140.4L45.57,139.4L45.41,137.3L45.37,135.1L45.12,134L44.7,132.3L44.74,131.7L44.99,131.2L47.07,129.8L47.53,129.3L47.58,128.8L47.49,128.2L47.12,127.5L46.28,127L45.12,126.1L44.03,125.2L42.24,124.6L40.07,124L39.53,123.3L39.03,121.7L38.11,119.2L37.15,116.5L36.4,114.9L36.36,114.1L36.82,112L36.78,111.6L36.4,111.5L35.65,111.7L35.07,112L34.57,111.9L34.07,111.5L33.98,111.4L33.94,111.4L33.07,111.6L31.32,111.7L30.73,111.7L29.86,111.7L28.11,111.2L25.73,110.6L23.31,109.7L21.98,109L21.52,108.8L20.43,108.1L19.64,107.4L19.52,105.8L18.93,105.9L17.6,106.5L16.02,106.9L15.18,106.9L14.81,106.6L14.31,104.9L13.93,104.4L13.22,104.2L12.47,103.9L12.1,103.5L12.01,102.9L12.35,102.3L12.76,101.8L12.81,98.7L12.56,97.6L12.35,96.7L11.76,95.55L11.26,94.85L10.47,94.2L9.262,93.52L8.178,93.27L6.844,93.75L6.427,93.57L5.885,91.46L5.552,91.03L3.217,90.16L2.175,89.95L0.924,90.23L0.257,90.46L-0.285,90.08L-1.16,89.6L-2.035,89.25L-3.078,89.25L-3.786,89.45L-3.953,89.32L-4.287,88.95L-5.704,87.79L-5.746,87.48L-3.578,86.35L-2.286,85.89L-1.619,85.56L-1.494,85.62L-1.16,86.17L-0.326,86.5L0.257,86.42L0.591,86.15L1.633,85.52L2.467,84.78L2.926,84.17L2.675,83.21L1.383,82.07L0.549,81.44L0.299,81.03L0.508,79.76L0.799,78.52L0.633,78.03L0.382,77.63L0.257,76.28L-0.285,74.62L-0.91,73.65L-1.077,72.35L-1.118,71.14L-0.368,69.22L-0.66,68.4L-1.41,67.66L-4.078,66.32L-6.83,65.44L-7.872,65.47L-8.539,65.42L-9.289,66.19L-9.748,67.22L-10.37,67.32L-11.54,66.88L-12.33,66.22L-12.88,64.85L-13.33,63.1L-13.58,62.55L-13.46,62.09L-13.17,61.65L-12.42,61.26L-12.29,60.85L-12.42,60.36L-13,59.71L-13.63,58.83L-14.58,56.97L-14.42,55.93L-14.25,54.44L-14.29,53.66L-13.33,53.48L-12.08,53.06L-11.5,52.41L-11.12,51.73L-11.04,51.32L-11.42,49.67L-11.92,48.97L-11.96,48.39L-11.71,47.97L-11.37,47.21L-10.75,45.69L-10.12,44.72L-9.79,44.48L-9.039,44.25L-7.247,43.99L-5.287,43.3L-2.953,41.25L-2.161,40.67L-1.16,40.38L-0.41,40.41L-0.285,40.14L-0.785,38.88L-0.66,38.43L-0.368,38.06L-0.034,37.9L1.591,38.56L2.842,38.48L4.343,38.08L7.553,35.83L7.97,35.89L8.303,36.18L8.679,37.53L9.137,40.38L9.387,40.75L11.64,40.77L13.18,39.75L13.85,39.51L14.93,39.67L15.52,39.19L16.1,38.85L16.81,40.04L17.73,39.46L18.68,38.56L19.14,37.61L19.81,36.6L20.31,35.3L20.52,34.08L20.77,33.53L21.31,32.94L22.64,30.42L23.64,29.78L24.52,29.54L26.81,29.99L27.98,29.94L31.44,30.26L33.02,29.78L34.15,29.3L35.78,29.38L37.69,28.98L40.28,25.82L40.32,25.16L40.49,24.43L41.41,23.71L42.57,23.07L44.87,21.51L49.58,19.06L51.24,18.06L51.95,18.09L53.7,17.47L56.75,16.26L57.58,14.74L58.37,14.44L61.96,14.17L62.17,14.01L62.29,13.74L62.08,12.66L61.87,11.71L62.12,11.44L62.42,11L62.37,10.4L61.83,8.446L61.5,6.566L61.29,4.901L61.33,4.245L61.79,3.178L62.33,2.193L64.33,1.261L65.67,0.986L65.75,0.383L64.67,-0.002L63.88,-0.606L63.75,-0.963L63.79,-1.348L63.96,-1.706L65.29,-2.394L66.58,-3.054L68.13,-2.641L68.46,-2.917L68.54,-3.578L68.21,-4.267L67.88,-5.371L67.17,-5.951L67.13,-6.642L67.58,-7.804L66.96,-9.993L66.29,-11.94L65.17,-15.25L64.42,-16.2L64,-17.74L63.54,-18.55L63.58,-19.75L63.67,-20.59L63.54,-22.25L63.33,-24.08L63.54,-25.91L63.96,-27.13L63.83,-27.61L64.08,-27.94L64.71,-28.06L65,-28.57L64.71,-29.08L63.63,-29.47L62.37,-30.09L60.91,-30.01L59.41,-29.9L58.66,-30.38L58,-30.95L57.95,-31.32L58.87,-32.31L60.12,-33.33L62.08,-33.79L64.25,-34.47L65.33,-34.95L66.79,-35.3L68.46,-35.44L69.34,-35.35L71.46,-36.01L74.88,-37.26L78.01,-38.32L79.01,-38.95L79.8,-38.32L80.17,-36.92L81.05,-36.21L81.97,-35.87L82.47,-35.87L84.01,-36.44L85.68,-36.81L86.34,-36.61L87.18,-35.89L88.14,-35.24L88.64,-35.3L89.06,-35.78L89.51,-36.78L89.81,-38.03L89.85,-39.38L89.68,-40.21L89.35,-40.49L87.85,-40.98L86.39,-41.79L86.34,-42L182.9,-42ZM402,336.9L401.3,336.9L399.9,336.2L399.2,335.9L397.4,335.6L395.6,335.1L394.3,334.5L391.8,333.1L391.5,330.5L391.1,329L391.1,328.5L391.2,324.1L391.4,323.7L391.7,323.2L392.8,322.3L394.1,321.5L396,319.9L397.3,319.1L398.5,318L397.8,318.1L397.3,318L397.8,317L398.3,316.5L398.9,316.3L400.1,316.5L401.2,316.3L402,315.5L402,336.9ZM326.3,420L326.1,420.1L325.9,420.1L325.7,420L325.7,419.3L325.8,418.9L326.2,418.8ZM329.5,426.7L329,427.2L328.4,426.2L328.4,426ZM378.1,379.4L378.3,380L377.8,381.3L377.3,382.4L376.3,383.4L376.3,384.1L375.9,386.3L376.1,387L376.3,387.6L376.6,387.9L377.5,390L378.2,391.9L379,393.5L379.1,394.5L378.4,397L377.6,399.3L377.7,400.5L378,401.7L378.4,403.2L378.5,405.2L378.3,406.5L378,407.3L377.3,408.1L376.7,408.5L375.9,407.8L375.3,407.8L374.5,408L374,408.3L372.7,409.5L371.3,410.6L369.4,411L368.6,411.8L367.8,411.9L366.3,412L365.3,412.2L365.4,412.6L365.3,414.7L365.3,415.1L365.2,415.3L364.5,415.3L363.3,415L361.7,414.5L360.6,414.4L360,415.3L359.7,415.7L359.2,415.7L358.8,415.9L358.7,416.3L358.6,416.8L358.8,417.6L358.9,419L358.9,419.9L359.3,420.5L361.7,422.5L362.4,423L362.5,423.2L362,424.3L362.4,425.8L361.7,425.8L360.4,425.1L359.8,424.7L359.1,425.1L358.8,425L358.3,424.3L357.7,423.5L357,423.5L355.6,423.8L354.2,424L353.7,424L353.4,424.1L352.6,425.2L352.2,425L350.8,424.6L349.5,424.4L349.2,424.7L349.4,425.6L349.7,426.5L349.5,426.9L348.7,427.4L347.8,428.2L347.2,428.9L346.8,429L345.4,429L343.9,429.1L343.3,429.7L342.8,430.2L342.3,430.3L340.4,428.8L336.6,428.3L336.2,427.6L335.9,427.5L335.5,428.3L333.4,429.2L332.6,428.7L331.9,428.1L332,427.3L332.6,426.7L333.6,426.2L334.1,424.7L333.4,422.7L332.7,422.1L331.9,421.7L331.2,422.4L330.6,423.7L329.9,424.3L328.9,424.5L327.6,424.4L327,422.5L326.9,420.9L327,419L327.2,418L325.9,416.4L325.8,415L325.2,414.2L325,414.6L325,415L324.8,414.7L322.7,410.5L322.4,408.6L322.7,407L322.9,406.5L322.3,405.7L321.5,404.8L320,403.6L319.9,401.8L319.6,399.5L319.1,398.8L318.4,397.4L318,396.3L317.9,393.3L318.1,393L319.2,393L320.5,392.8L320.8,392.3L320.5,391.9L321.4,391.2L322.6,389.7L323.6,388.1L324.3,387.1L324.7,386.2L326.1,384.8L328.1,383.8L329.4,383.6L330.8,383.3L332.1,382.8L332.7,382.8L334.4,383.3L335.3,383.5L336.2,383.5L337.1,383.5L338,383.5L340,383.1L342.1,383.4L344,383.1L346.4,382.7L347.5,383L348.6,383.4L348.7,384.3L349,384.8L349.3,385.1L349.8,385.1L350.4,384.4L350.9,383.8L351.1,383.7L351.1,384L351.3,384.7L351.8,385.4L352.2,385.9L353,386.5L353.5,386.5L355.1,385.9L357.5,386.8L357.8,387.2L358.6,388.1L359.4,388.7L361.3,388.7L362,387.2L361.7,386.3L360.6,384.7L360.3,383.7L360.6,383.5L362.5,383.3L362.7,383.2L363.1,382.1L363.6,382.2L364.6,382.4L365.7,381.6L366.3,380.9L366.7,381.2L367,381.8L367.5,382.1L368.2,382.5L369.1,383.2L369.6,383.8L370,384.1L371.1,383.9L371.4,383.9L372,383.1L372.5,382.7L372.8,382.8L373.4,382.8L374.5,381.9L375.1,381L375.5,380.7L376.5,381.2L376.9,381.1L377.5,379.9ZM292.5,311.2L291.1,310.4L290.5,310L289.8,309.9L289,310.4L288.4,310.9L287.8,311.1L286.9,311.2L285.6,310.9L284.8,310.6L284.7,310.8L285.1,311.9L285.3,312.8L285.1,313.3L284.7,313.6L284.1,314L283.4,314.1L282.7,314.1L281.7,313.7L281,313.7L280.3,313.9L279.9,314.2L279.7,314.6L279.3,316.8L279,317.5L278.5,317.9L278,317.9L277.4,317.8L276.7,317.9L273.6,318.8L273.2,318.9L272.2,318.9L271.3,319L270.7,318.9L269.2,318L268.4,317.9L268.1,318.2L267.8,319.4L266.9,320.1L265.8,321.8L265.5,324.1L265.6,325.8L264.6,327.4L264.5,328.2L265,332L264.9,332.4L264.7,332.6L264.1,332.8L263,333.2L262.3,333.5L261.9,333.6L260.9,333.3L260.6,333.3L260.7,333.6L261.5,335.2L262.4,336L263.2,335.9L263.6,336.1L263.5,336.5L263.9,337.5L264.6,339.1L264.9,340.4L264.4,341.6L264.5,342.1L264.7,342.3L265.5,343.5L267.1,345.3L268.6,347.2L269.9,348.8L270.9,350L272.9,352L273.3,353L273.4,355L273.9,356.1L274.4,356.9L274.7,357.6L275.5,359.8L275.9,360.1L277.6,358.8L277.9,359.1L278.2,359.6L278.2,360.2L277.9,361L277.4,361.7L274.7,363.2L274.5,364.6L274.4,366.6L274.3,369.1L274.4,371L274.3,371.4L274.1,371.6L273.1,371.6L271.7,372.5L271.2,372.6L270.6,373L270.1,373.4L269.9,374.1L270.2,376.1L270.7,378.1L271.7,379.5L272.5,380.6L273.6,382.1L274.5,383.5L276.2,385L278.7,387.2L279.6,388.4L280.4,389.9L281,391.2L281.3,392.9L281.4,393.8L281.5,396.9L281,397.7L280.7,398.5L280.9,399.3L281.4,400.2L281.4,401.1L282,402.8L282.9,403.8L283.8,404.5L284.2,405.1L284,406L284.3,406.9L284.5,407.9L284.8,409.3L285.5,410.5L286.6,414.2L286.5,414.5L286.1,415.3L285.4,415.9L285,416.2L284.6,416.9L283.6,418.8L281.7,422.1L279.7,424.3L278.2,425.9L277,426.8L276.7,427.4L276.7,427.8L276.9,428.6L276.8,430.1L276.5,431L276.2,432L276,432.9L275.5,433.1L274.4,434.8L273.9,433.9L273.6,433L273.9,431L273.3,427.2L273.7,426.7L274.1,426.4L274.8,425L275.7,423.6L275.8,421.8L276.5,420.6L276.3,419.5L276.4,418.2L276.5,417.2L276.4,416.4L277,415.5L278,414.9L277.6,414.7L277.2,414.2L275.9,414.9L275.2,414.7L275.1,413.9L275.3,413.1L275.4,412.6L275.9,412.1L275.8,411L275.6,410.1L275.9,408.9L275.2,408.9L274.8,408.7L275,408L275.7,407.4L275.1,406.4L275.6,405.2L275.6,403.7L275.2,402.4L275.2,401.5L274.8,399.9L274.5,397.8L273.5,396.2L272.7,394L270.7,391L270.7,389.7L270.7,388.6L270.2,388L269.6,392L269.2,391.2L269,389L268.7,388L269,385.9L267.9,383.8L267.6,382.3L266.8,380L267.1,379.5L268.1,380L267.2,378.7L266.4,379L265.7,377.5L265.6,373.6L264.9,372.2L265.3,370.7L264.5,365.3L263.1,363.6L263.4,362.1L263.7,360.8L263.6,358.3L264,357.5L264.7,357L264,357.2L263.5,357.3L262.1,357.5L260.6,357.5L260.1,355.7L259.4,354.9L258.7,353.1L258.4,351L258.6,350.6L257.5,349.8L257.1,349.2L255.9,347.9L254.6,346.9L254.9,347.6L255.3,348L254.6,349.3L255.2,351.4L254.6,352.7L254.1,354.4L253.6,355.3L251.9,357L250.6,357.6L249.7,357.7L248.9,357.5L248,356.6L247.8,355.9L247.6,354.6L247.3,354.4L246.9,354.5L247.5,356.2L247.5,357L248.5,358.5L248.1,358.9L246.3,359.7L245.6,359.6L245.2,359.7L245.1,360.4L244.8,360.8L242,361.8L241.4,362.9L241,364.1L239.6,365.8L237.6,367.2L237.2,367.1L236.6,366.8L236.7,365.3L237.3,364L237.1,362.7L237,363.4L235.8,365.3L235.2,365.9L234.1,365.8L232.5,366L231.9,364.1L231.9,363.4L231.8,362.8L232,362.1L231.9,361.6L231.5,362.6L231.4,363.4L230.8,364.2L229.2,365L229.2,364L229.1,363L229.4,362.2L229.4,360.9L229.9,359L229.8,358.4L229.7,357.7L229.4,358.7L229.3,359.8L228.9,360.1L228.4,360.3L227.3,361.6L226.7,362.7L225,363.7L224.2,363.6L224,362.3L224.7,357.6L225.3,356.9L225.7,356.1L226.2,353.3L226.8,352.3L227,350.1L227.3,349.7L228.1,348L228.4,344.8L228,343.3L227.3,341.7L226.5,337.2L224.6,333.4L224.5,332.2L223.5,330.7L224.4,330.6L222.6,329.2L222.4,328.7L222,325.6L222.1,323.9L221.8,324.1L221.6,325.2L220.9,325.6L221.2,327.5L221.1,327.9L220.8,328.6L219.3,327.9L218.2,327.1L216.9,325.1L215.7,322.9L216.1,322.5L216.7,322.5L218.4,324.1L219.5,324.5L220.3,324.1L221.1,323.4L221.5,322L221.1,321.5L220.3,321.2L219.7,320.8L218.9,319.9L218.8,319.4L218.5,318.8L217.7,318.4L217,317.9L217.6,316.9L218.2,316.2L216.7,316.2L215.1,315L214.7,314.6L214.2,314.4L212.9,314.2L211.8,314.6L212.3,316.4L212.2,316.9L211.5,316.8L210,314.2L210.5,313.5L211.1,312.9L210.8,312.8L210.2,312.8L210.7,310.4L210.4,310.1L210.2,310.8L209.9,311.6L208.6,313.2L208,312.9L207.6,312.5L208.2,311.6L208.5,311.4L208.7,310.9L208.2,310L207.5,309.3L206.9,308.2L206.6,308.1L206.9,309.5L206.8,311.5L205.5,309.3L202.8,306.2L202.2,305.3L202,304.4L201.7,303.6L201.5,302.7L201.4,302L200.9,301.4L200.6,300.2L200.5,299.1L200.8,298.3L201.6,297.4L202.2,297.3L202.7,297.7L203.9,298.2L204.7,298.8L205,299.5L205.3,299.4L205.7,298.9L205.6,298.4L205.3,296.9L205.2,295.2L205.2,291L205,290.6L205.7,290.2L206,289.7L206.2,289L206.4,288.7L206.7,288.6L207.3,289L208.3,290.2L208.9,290.4L209.6,290.2L210.2,288.5L210.5,288L210.8,287.7L211.4,287.7L211.7,287.4L211.9,286.6L211.9,285.8L211.2,283.4L211,282.4L210.9,281.3L211.3,280.2L211.9,278.9L211.7,277.8L211.9,277.4L212.3,277.3L212.9,277.6L213.5,277.4L214,276.7L214.2,276.1L214.5,273.5L214.7,271.1L214.8,269.2L214.3,268L213.5,264.9L213.7,264.3L214.1,264.2L215.2,265.3L215.7,265.5L216.5,265.3L217.3,265.1L217.9,265.1L218.8,265.4L219.9,265.9L221.7,266.4L222.4,266.8L223,266.7L223.5,265.5L224.1,263.7L225,261L225.9,259.1L226.2,258.6L227.3,257L228.3,255.4L229.3,253.3L229.8,251.8L229.7,251.2L229.4,250.6L228.7,250.3L228.1,250L228,249.6L228,249.3L228.3,248.3L228.8,247.2L229.3,246.5L230.7,245.8L231.5,244.8L232.5,243.4L233,242.5L233.3,240.7L233.6,240.3L234.2,239.7L234.7,239.1L234.6,238.7L234.4,238.4L233.9,237.1L233.7,235.1L233.8,233.5L234.2,232.8L234.6,231.9L235.5,231.3L236.7,230.9L238.5,229.8L241.7,227.3L242.8,226.4L243.6,226L244.4,225L245.4,223.8L246.9,223.2L247.9,223L252.4,222.2L253.2,222.3L254,222.8L254.9,224.3L255.8,224.9L256.7,225.3L257.5,225.1L257.5,224.5L255.1,220.9L254.9,219.9L254.9,219L255.1,218.3L255.9,217.5L256.9,216.7L258.1,215.7L258.9,215L259.9,214.8L260.2,214.4L260.3,213.8L260.2,213.2L259.8,212.5L259.9,211.5L260,210.7L260.4,210.2L261.3,208.9L261.8,208L262.1,207.6L262.5,206.9L263.2,206.8L263.9,207L264.4,207.4L264.7,208.2L265.2,208.9L265.7,208.9L266.3,208.8L266.6,208.9L267.1,209.5L268.2,210.8L268.6,211.1L269,211.7L269.2,212.9L269.4,214L270.7,218L271.1,218.8L271.3,219.5L271.9,219.6L272.4,219L272.6,218.3L273.1,218.1L273.7,218.2L274.8,218.8L275.4,219.2L275.7,221.1L275.8,223.4L275.7,224.2L276.2,226.1L276.3,228.2L276.4,229.4L276.4,230.6L276.4,232L276.1,234L275.7,235.7L275.8,237.1L275.6,237.8L274.5,238.1L274.4,238.7L274.7,239.5L275.4,240.6L275.5,241.3L275.1,241.8L274.4,241.8L273.3,242.3L272.5,243.7L271.7,244.9L271.3,245.1L269.9,244.8L269.5,245.1L269,247.1L268.6,247.9L268,248.7L267.4,249.1L266.9,249.4L265.8,249.2L265.2,250.4L264.6,252L264.5,252.8L264.9,254.1L264.7,254.4L264.1,254.7L263.1,255.3L262.4,257.1L262.4,258.9L262.8,259.5L263.5,259.8L264,260.3L264.1,261.2L264.5,262.2L264.3,263.5L262.9,265.3L262.8,266.3L263.6,266.6L264.2,266.4L265.1,266L266,265.3L268.1,264.3L270.3,263.7L272.1,263.6L273.7,263.7L274.4,263.9L274.7,264.2L276.7,263.7L277.2,263.6L277.5,263.6L277.5,264L276,265.6L275.7,266.3L275.8,267.1L276.4,267.9L277,268.5L277.5,269.9L277.1,271.2L277.4,271.7L277.8,272.2L278.1,273L278.1,273.9L277.9,275.3L280.1,276.1L282,276.5L283.4,276.6L284.3,276.9L284.8,277.2L285.2,277.7L285.3,278.3L284.9,278.7L283.9,280L283.4,281.7L283.5,283L283.4,284.1L282.3,285.7L281.8,286.8L281.4,287.9L281.4,288.4L281.7,288.7L282.2,288.9L283,289L284,288.9L286.3,289.2L289,289.7L290.1,289.9L290.5,290.4L290.3,291.5L290.2,292.5L290.4,293.3L290.8,294L291.5,294.2L292.2,294.5L292.2,295.1L292.1,295.8L292.4,296.4L292.7,296.8L293.5,297L295.1,296.5L296.2,296.7L297.2,297.1L298,296.9L298.9,296.5L300.7,294.6L302.8,293.6L303.5,293.3L304,293.5L304.1,293.6L304.1,294L304.3,295.5L304.2,295.7L303.5,296.9L301.8,298.2L300.5,298.9L299.8,298.9L299.2,299.6L298.7,301.1L298.1,302L297.6,302.3L297.3,302.8L297.1,303.7L297.4,304.2L298.2,304.2L298.3,304.5L297.6,304.9L296.8,305.1L295.8,304.9L294.8,305.3L293.9,306.1L293.2,307.8L292.5,310.5ZM270.3,423.9L271.3,426L271.2,426.3L271,426.5L270.8,426.4L270.4,425.3L269.7,424.6L268.8,424.7L269.5,423.8L269.8,423.6ZM270,435.9L269.4,436.6L269.2,436.6L269.5,435.5L270.4,434.6L271.2,434.6L271.2,435.1L270.6,435.7ZM270.4,417.7L270.4,418L270.3,418L270,417.8L270.2,416.7L270.7,415.8L271.1,414.4L271.4,414.1L271.4,414.9L271.2,416.4L270.9,417.2ZM273.9,412.7L273.4,412.8L273.2,410.9L273.3,410.6L273.9,411.5L274.9,412.1L274.6,412.5ZM274.3,414.6L274,417L273.3,416.7L272.9,416.7L272.5,415.3L272.5,414.9L272.2,414L273.9,413.9ZM272.7,404.5L272.9,404.8L273.3,404.8L273.2,406L272.3,407.4L271.7,407.6L271.5,407.6L271.7,405.5L271.4,404.3L271.5,403.5L272.5,403.9ZM269.4,409.8L269.3,409.8L269.2,409.8L268.7,409.6L268.3,408.8L268.5,408.3L268.7,408.1L269.1,408.2L269.3,408.3L269.4,408.5L269.2,408.9L269.3,409.3ZM227.1,364.5L226.3,365.6L226,363.9L227.3,362.9L227.9,362L228.5,361.3L228.7,362.1L228.1,363.6ZM262.9,360.8L262.5,360.9L261.9,360.1L261.7,358.3L262.3,357.8L262.6,357.7L263,358L263.1,358.3L263.2,358.6L263.1,359ZM218,331.3L217.8,331.4L216.6,330.3L215.6,329L217.1,328.8L218.6,329L218.6,329.7L218.3,330.9ZM215.7,316.4L215.9,318.1L215.1,317.5L214.8,316.6L214.7,315.7ZM218.3,320.5L219.6,321.6L220.1,321.5L220.9,322.1L221,322.4L220.8,322.9L220.4,323.3L219.4,323.7L218.8,323.4L218.5,322.3L217.7,321.8L217.4,321.3L218,320.7ZM274.2,423.8L273.9,423.9L273.7,423.8L273.4,423.6L274,422.4ZM268.7,415.2L268.9,415.9L268.1,415.2L268,413.2L268.6,414.5L268.8,414.7ZM268.7,406.9L268.6,407.4L267.9,408.3L267.3,407.8L267.2,407.5L267.8,406.9L268.4,407L268.6,406.9ZM271.5,398.5L271.4,400.5L270.9,399.6L270.8,398.5L270.8,397.5L270.9,397.3L271,397.5L271.3,397.9ZM230.9,366L230.6,366.3L230.2,366.1L230,366L231.1,364.6L231.3,365.1ZM210.1,316L210.2,317.2L209.7,316.7L209,315.1L209,314L209.5,314.5ZM164.3,289.1L164.3,288L164.2,286.9L163.3,283.9L162.7,282.4L162.8,281.9L162.8,281.7L162.5,279.7L162.1,278.5L161.9,277.2L162.8,275.4L162.5,275.1L161.4,274.9L160.5,274.6L160.2,274.1L160.6,272.3L160.1,271.6L159.4,270.8L159.2,270.6L159,270.2L158.6,269.3L159.3,267.3L160.2,265.1L160.3,264.2L160.5,262.8L160.6,262.2L160.5,261.6L159.5,261L157.8,260.7L156.7,260.2L156,259.4L155.4,259L154.7,259.3L153.8,259L153,258.2L152.3,257.2L152.4,256.7L152.6,256.1L153.8,253.5L154.3,253.4L155.3,253.9L155.7,253.9L156.4,252.9L157.3,250L158.7,250L159.9,250.1L160.7,250.2L161.6,250.2L162.4,249.9L162.8,249.6L163.1,249.1L163,248.7L162,248.1L161.6,247.7L161.3,246.6L161,246.1L159,246.1L157.9,245.5L157.3,245.1L156.3,243.5L155,242.3L153.8,242L153.3,241.6L153,241L153.2,240.2L153.6,239.3L153.8,238.5L154.8,237.3L155.9,236.3L156.5,235.6L157.2,234.8L157.3,234.4L157.1,233.9L156.6,233.5L156.1,233.3L156.1,233.1L156.3,232.3L156.9,232.2L158.1,232.9L159.3,234L160,235L160,235.8L160.4,235.9L160.9,236L161.7,236.3L162.5,236.2L163,236.4L163.3,236.3L163.4,235.9L163.1,235.2L162.8,234.7L163.1,234.3L163.5,234.2L163.9,234.3L164.4,234.7L164.8,235.6L164.9,237L165.8,238.2L167,239.1L167.9,239.5L169.1,239.8L170,239.5L170.5,238.7L170.3,237.9L170.4,237.2L170.8,236.8L171.4,236.8L171.9,237.4L173.2,240.3L172.9,241.6L173.2,245.2L172.9,247.6L172.9,248.1L173.1,248.5L173.3,248.7L173.7,248.7L175.3,249.1L176.6,249.6L178.1,250L180.3,250.4L181.6,250.3L182.4,250.3L183.7,250.4L187.3,250.2L190.2,250.1L191.4,250.5L192.4,250.6L195.7,250.4L199,250.2L200.8,251L202.7,252.2L203.8,253.1L204,253.6L203.9,254.1L203.5,254.3L202.9,254.3L201.3,253.8L201,253.9L201.1,255.1L201,255.3L200.7,256.4L199.7,258.9L199.6,259.9L199.4,260.2L199.2,260.4L198.4,260.4L197.8,260.6L197.6,261L197.2,261.8L197,262.7L196.6,262.9L195.8,262.5L195.2,262.5L194.6,262.7L193.9,263.2L193.4,263.8L192.9,264L191.4,263.9L191.1,264L190.9,264.4L190.7,264.9L189.5,266.1L189,268.1L188.7,269.4L188.7,270.4L189.8,273.1L190.5,276.4L190.7,276.8L191,276.9L191.1,276.8L191.1,276.1L191.1,275.3L191.4,275.1L191.9,275.2L192.3,276L192.7,277.3L193.2,277.9L194,278L194.9,277.7L195.5,277.1L195.8,276.4L195.6,275.1L195.6,274.1L195.9,273.2L197.4,271.8L197.7,271.4L197.6,270.2L197.6,269.1L198.2,269L198.9,269.2L199.9,268.7L200.2,268.7L200.6,269.2L201.2,269.1L201.7,271.6L202.3,273.7L202.3,274.7L202.4,276.9L202.6,278.6L202.9,279.1L203.4,280L203.8,281.1L204.1,281.7L204.3,283.7L204.6,285.2L204.9,289.7L205,290.6L205.2,291L205.2,295.2L205.3,296.9L205.6,298.4L205.7,298.9L205.3,299.4L205,299.5L204.7,298.8L203.9,298.2L202.7,297.7L202.2,297.3L201.6,297.4L200.8,298.3L200.5,299.1L200.6,300.2L200.9,301.4L201.4,302L201.5,302.7L201.7,303.6L202,304.4L202.2,305.3L201.9,305.3L201.3,304.2L200.7,302.9L199,300.6L198.5,296.3L198.5,294.2L197.4,291.8L196.7,288.3L196.4,287.4L196.7,286.3L196.8,285.9L196.6,286L196,286.6L195.3,285.2L194.9,284L192.9,281.4L192.4,280.3L192.4,279.2L191.6,280.3L190.4,281.1L189.3,282.3L188.6,282.6L186.2,282.8L184.8,281.3L182.9,277.4L182.6,276.6L182.8,274.3L182.4,272.2L182.4,271.1L182.2,270.3L181.9,270.5L181.7,271L181.8,271.8L181.7,272.5L180,272.3L178.4,272L179.8,273.1L181.3,273.4L182.1,274.4L182.2,275.2L182.1,276.1L181.4,276.7L180.6,277.1L180.8,277.9L181.6,279L180.6,279.3L180.3,279.9L180.3,280.9L180.8,281.7L181,282.4L180.9,282.9L181.4,283.6L182.1,284.9L182.4,285.8L182.1,287.1L181.6,287.6L181,288.1L179.4,289.7L178.6,291.6L177.9,292.4L177.1,292.6L176.8,292.2L176.1,291.7L176.1,290.8L176.3,290.1L177.6,288.3L176.9,288.6L176,289.1L174.7,290L174.3,288.9L174,287.8L174,286.4L175.1,284.5L173.9,285.4L173.5,286.7L173.7,288.1L173.5,289.2L173.1,290.5L172.4,291.3L171.4,291.8L170.9,292.6L170.2,293.2L170.2,292L170,290.5L169.3,286.9L169.1,287.6L169.5,289.9L169.5,291.4L168.9,292.5L167.8,293.8L166.9,293.9L166.4,293.8L165.6,293L164.8,291.9L164.6,290.1ZM188.6,288.1L187.3,289L187.7,283.8L188.7,285.7L188.9,286.8ZM193.3,285.5L192.7,285.9L192.2,285.6L191.6,284.4L191.9,282.8L192.1,282.6L192.4,283.1L192.9,284.2L193.2,285ZM184.2,289.2L182.2,289.6L181.2,289.5L183.1,286.2L183.1,284.7L182.8,283.5L181.8,282.6L181.7,281.9L181.3,280.9L181.1,279.8L182.1,279.5L183,280.1L183.1,280.5L183.3,281.4L183.8,282.3L185.3,284.2L185.3,285.4L184.9,288.3ZM196.9,292.4L196.5,293.4L196.3,292.7L196.5,291.7L196.7,291.2L196.8,291.2L197,291.8ZM197.8,296.4L197.1,296.5L196.8,296.1L196.9,295.6L196.7,293.9L197.3,293.8L197.6,293.8L197.8,294.2L197.9,295.2ZM182.7,278.2L182.9,278.8L182.2,278.4L181.7,278.1L181.4,277.6L181.9,277.3ZM-42,70.52L-41.81,70.66L-40.93,72.68L-41.52,75.05L-41.56,76.38L-41.1,76.63L-40.26,76.56L-39.14,76.18L-38.39,76.18L-38.05,76.51L-38.05,77.17L-38.47,78.19L-38.93,81.01L-39.22,83.44L-39.51,85.82L-39.76,87.94L-39.31,89.55L-38.64,92.02L-37.89,93.65L-37.1,94.17L-36.3,94.35L-35.51,94.2L-33.89,93.17L-31.43,91.21L-29.05,90.03L-25.59,89.35L-24.42,87.28L-22.84,85.89L-19.17,83.85L-17.21,83.06L-16.04,82.91L-14.63,83.29L-14.29,83.42L-14,83.52L-13.29,83.69L-13.13,84.33L-13.33,84.98L-14.13,85.54L-14.38,85.97L-14.04,86.3L-12.96,86.42L-10.62,85.67L-9.164,85.19L-8.122,84.98L-7.705,84.35L-7.038,83.75L-5.996,83.69L-4.912,84.02L-3.995,84.22L-2.411,84.05L-1.577,84.58L-0.41,85.62L0.091,86.27L0.257,86.42L-0.326,86.5L-1.16,86.17L-1.494,85.62L-1.619,85.56L-2.286,85.89L-3.578,86.35L-5.746,87.48L-5.704,87.79L-4.287,88.95L-3.953,89.32L-3.786,89.45L-5.037,90L-7.789,91.26L-9.581,92.29L-10.04,92.34L-11.12,91.92L-12.71,91.39L-13.17,91.41L-16.88,91.49L-20.25,91.69L-21.71,91.94L-24.34,92.17L-26.01,92.24L-27.05,92.64L-28.22,93.17L-29.43,93.5L-30.3,93.62L-31.39,94.1L-32.09,95.08L-34.14,96.5L-35.26,97.2L-35.84,97.98L-36.47,98.05L-37.6,97.93L-38.47,98.78L-39.43,99.97L-41.18,101.7L-42,102.4L-42,70.52ZM-42,104.3L-40.81,105.1L-40.18,105.9L-39.85,106.6L-39.18,108.3L-38.76,109.9L-38.18,110.7L-37.97,111.9L-37.85,112.6L-38.18,113.2L-38.47,113.8L-38.47,114.3L-38.1,114.9L-37.76,115.4L-37.6,115.8L-37.8,116.3L-38.47,117L-38.8,117.7L-39.51,118.9L-40.64,119.7L-41.39,120.3L-42,121.2L-42,104.3Z" fill="#D8E2E7" stroke="#3F464B" stroke-width="0.85" vector-effect="non-scaling-stroke"/><path d="M194.2,216.7L194.1,217L193.7,217.8L193.5,218.7L193.7,219.4L194.4,220.2L195.4,220.9L196.7,220.9L197.8,220.7L198.3,220.8L198.9,221.9L199.4,222.9L198.7,223.9L198.4,224.7L198.3,225.3L198.4,225.6L198.7,226.1L199.2,227L199.2,227.7L199,228.3L198.4,228.5L197.7,228.5L197.2,228.5L196.6,228.5L195.5,228.8L194.6,229.2L192.8,229.1L192.1,228.4L191.8,228.4L190.2,229.4L188.4,229.2L185.1,229.5L183.8,229.6L182.4,229.5L181.7,229.3L180.4,228.6L179.2,228.1L178.1,228.5L177.6,228.6L176.6,229.8L174.6,230.2L172.5,230.5L171.9,230.3L170.7,230.3L170.7,230L170.7,229.7L170.4,229.5L170,229.3L169.1,229.2L168.1,228.9L167.5,228.6L165.4,229L164.1,228.4L162.7,227.5L162,227.1L161.8,225.8L161.5,225.3L160.9,224.9L160.6,224.3L160.9,223.8L162.3,222.8L162.4,222.5L163.1,220.6L164,219.9L164.8,218.9L165.5,217.4L166.8,215.8L168.2,214.1L169.2,212.8L169.9,212.2L171.2,211.5L172.3,211.1L173.1,210.2L174.1,209.7L175,209.5L176.4,209.6L177.8,209.9L179.3,210.4L179.4,210.7L179.3,211.4L179.1,212L179.1,212.3L179.3,212.5L180.8,212.7L182.5,212.6L183.5,212.6L185.7,213.2L186.4,213.6L187.1,214L187.7,213.9L188.6,213.2L189.4,212.6L190,212.6L190.4,212.7L191.1,213.3L192.5,213.8L193.8,214.2L194.2,214.6L194.1,216.2Z" fill="#8B341D" stroke="#2C160F" stroke-width="1.1" vector-effect="non-scaling-stroke"/></svg>