<svg xmlns="http://www.w3.org/2000/svg" viewBox="0 0 360 440" width="360" height="440" role="img" aria-label="Regional map with Botswana highlighted"><rect width="100%" height="100%" fill="#7FA6D6"/><path d="M243.6,220.1L242.8,219.5L241.6,219.1L240.1,218.9L238.1,219L235.7,219.3L233.1,218.9L230.3,217.8L228,217.4L225.3,217.9L225.1,217.9L224.7,217.5L223.9,216.7L222.7,216.6L222.3,216.4L222.1,216.1L221.8,215.7L221.8,215.3L222,213.9L221.9,213.8L221.5,213.6L220.9,213.5L219.2,212.9L217.1,212.3L213.8,211.7L212.5,211.5L212.1,211.3L211.8,210.8L211.1,209.3L210.5,208.3L209.1,206.7L208.8,206.2L208.9,205L209,204L209.2,203.2L209.1,202.4L209.1,201.4L209.1,200.7L208.9,200.5L208.4,200.3L206.9,200.2L205.1,200.2L205.1,199.2L204.9,197.7L204.5,196.8L204.1,196.3L203.3,195.8L201.6,195.2L199.3,194.2L197.3,192.7L195.1,190.9L194.4,190.6L193.6,188.9L192.3,185.9L192.4,184.9L192.2,184.5L191,183L190.7,182.3L190.5,181.5L188.5,179.4L187.9,178.5L187.4,177.3L186.9,176.4L186.4,176L185.9,175.4L185.5,174.6L185.3,174.1L185.5,173.4L185.7,172.9L187.5,173.4L188.5,173.4L189.3,173.2L190.3,173.5L191.5,174.5L192.8,174.7L194.1,174.1L196,174.2L198.3,175.2L200.3,175.4L202.6,174.5L204.7,172.2L206.6,170L208.5,167.5L209.7,165.5L211.4,163.8L213.6,162.5L215.9,161.5L219.3,160.2L220,159.1L220.3,157.9L220.3,156.3L220.4,155.2L220.8,154.7L221.4,154.3L222.1,153.8L224.4,152.6L226.3,151.8L228.7,151.3L231.2,151.3L233.7,151.3L235.1,151.3L235.1,152.8L235.2,154.6L235.4,154.8L237.3,154.8L240.3,155L243.1,155.1L245,156.4L245.6,156.6L247.5,157L249.9,159.1L252.8,159.3L254.8,160L256.6,160.7L257.6,161.6L258.3,161.8L259.2,161.9L259.6,162L259.5,162.6L258.9,163.7L259,165.3L259.8,167.4L259.9,169.3L259.7,172.6L259.7,175.8L259.8,176.9L259.9,177.7L260.1,178.1L260,178.6L259.5,179.9L259.2,181.4L259.1,181.9L259,182.3L258.7,182.7L257.4,183.3L257.2,183.7L257.2,184.5L257.4,185.1L257.9,185.3L258.4,185.7L258.6,186.2L258.6,186.6L258.5,187.5L258,189.1L258.5,190.8L259.1,191.9L259.8,193.2L260.2,194L260.1,194.6L260,195.1L258.9,197.5L258,199L257,200.6L255.6,201.6L255.2,202.1L255.1,202.6L255.1,203.8L255.1,205L253.9,207L254.6,208.6L254.5,208.8L254,209L252.3,210.9L250.7,212.8L249.4,214.2L247.9,215.7L246.4,217.5L245,219ZM235.1,151.3L233.7,151.3L231.2,151.3L228.7,151.3L226.3,151.8L224.4,152.6L222.1,153.8L221.4,154.3L220.8,154.7L220.4,155.2L220.3,156.3L220.3,157.9L220,159.1L219.3,160.2L215.9,161.5L213.6,162.5L211.4,163.8L209.7,165.5L208.5,167.5L206.6,170L204.7,172.2L202.6,174.5L200.3,175.4L198.3,175.2L196,174.2L194.1,174.1L192.8,174.7L191.5,174.5L190.3,173.5L189.3,173.2L188.5,173.4L187.5,173.4L185.7,172.9L184,171.2L183.2,170.6L182.5,170.3L180.6,170.1L176.2,169.7L175.7,169.8L173.9,170.1L171.6,170.5L169.7,170.9L167.6,171.3L165.7,169.6L163.5,167.7L161.3,165.6L159.6,164L158.7,163L157.2,161.7L156.2,161.1L155.7,160.8L154.7,157.5L154.1,154.4L154.1,152.1L154.1,148.9L154.1,145.7L154.1,142.5L154.1,139.3L154.1,136.1L154.1,132.9L154.1,129.7L154.1,126.6L154.1,125L156.3,125L158.8,125L161.5,125L164.3,125L167.2,125L170,125L172.1,125L172.6,125L173.2,124.9L173.2,124.6L172.4,123L172.5,122.5L172.7,121.4L173,120.5L173.5,119.3L173.5,118.6L173.2,116.3L173.2,115.1L173.3,113.7L173.4,112.5L173.3,111.6L173.4,111.1L173.7,110.4L173.8,109.7L174,109.3L174,109L173.8,108.5L173.6,107.2L173.4,105.4L173.2,104.1L173.6,104.2L174.3,104.3L174.7,104.9L174.9,105.6L175.3,105.7L176.6,106.1L177.1,106.6L177.4,107.9L177.2,108.5L176.8,109L177.2,109.5L178,109.8L178.5,109.7L180,108.8L180.5,108.7L181.3,108.5L182,108.3L183.9,107.9L184.9,107.7L185.5,107.4L185.9,107.4L186.3,107.7L186,108.5L185.9,109.3L186.3,110.8L186.5,111.5L187.2,112L187.6,112.2L188.1,112.8L189.1,112.7L191.4,113.4L192.1,113.7L193,114.1L193.7,114.2L196,114.5L196.9,114.7L198.5,114.9L199.8,114.9L200.7,114.8L201.3,114.6L201.7,114.4L201.9,114.2L202.2,113.5L202.7,111.9L202.8,111.4L203.3,111.2L203.9,111L204.3,111.3L204.7,113L206.5,114.6L207.1,116L207.5,117.1L207.9,117.4L208.6,117.8L209.7,117.9L210.7,118L212.7,118.8L214.3,119.5L215.5,119.9L216,120.3L216.4,120.9L216.6,121.3L216.9,122.5L217.3,123.4L217.9,123.6L218.5,123.7L219,124.3L219.5,124.8L220.3,126.2L220.9,127.1L221.1,128.1L221.8,128.7L222.7,128.9L223.6,129L224.1,128.7L225.3,128.2L226.3,127.7L227,127.5L227.4,127.6L227.7,128L227.9,128.7L227.9,129.1L228.6,129.5L229.1,129.4L229.3,128.9L229.3,128.7L229.3,126.7L229.3,124.9L229.3,123.3L229.3,121.3L229.3,119.6L229.3,118.2L229.3,116.7L228.8,116.8L228.3,117.1L227,117.2L226.5,117.4L226.4,117.8L226.4,118.3L226.5,119L226.3,119.3L225.8,119.4L224.9,119.2L223.5,118.8L222.3,118.6L221.4,117.7L220.2,116.4L219.4,115.7L217.6,114.3L217.2,114L216.6,113.3L216.2,112.2L215.9,111.5L215.7,110.9L215.4,110.1L215.9,108.8L216.5,106.4L217,104.7L217.2,103.4L218.2,102.1L218.2,101L217.9,99.47L218,98.64L218,96.55L218.1,94.79L218.1,93.94L217.8,92.45L217.2,90.79L215.9,88.51L215.9,88.02L216.7,87.47L217.9,86.53L218.6,85.97L219.3,85.17L219.7,84.77L220.4,83.74L220.8,82.91L221,81.85L220.7,80.82L221.4,80.61L223.7,80.26L226.3,79.87L229,79.45L231.7,79.03L234.4,78.61L236.8,78.23L238.5,77.98L238.7,78.69L239.2,79.86L239.8,80.72L240.6,81.46L241.2,81.91L241.6,82.05L244.2,82L245.2,82.45L246,83.05L246.2,83.94L246.8,84.5L247.4,84.94L247.6,84.99L248,84.89L248.7,84.87L249.4,85.07L249.7,85.26L249.8,86.02L249.9,86.36L250.8,86.48L251.7,86.54L252.6,87.05L253.6,87.14L254.7,87.36L255.2,87.9L256.3,88.47L257.7,88.96L258.8,89.54L259.3,89.79L259.4,90.06L259.6,90.55L259.9,90.89L259.9,91.42L260.1,91.89L260.5,92.01L260.8,92.04L261.1,91.7L261.5,91.7L262,91.92L262.1,92.48L262.5,93.23L263.1,93.74L263.5,94.23L263.4,95.13L263.1,95.96L263.9,96.75L264.9,97.53L265.2,97.88L265.3,99.01L265.4,99.4L266.1,100.4L266.5,101L266.4,101.4L264.6,103.2L264,103.4L263.4,103.5L262.9,103.9L262.6,104.3L262.7,104.5L262.9,105.2L263.4,106.2L263.8,106.9L263.4,107.8L262.7,109.3L262.4,109.5L262.3,110.6L262.5,111L262.9,111.4L263,112.1L263,113.2L263,114.1L262.5,116.3L263.4,118.2L263.7,118.4L264.8,118.4L265,118.6L264.7,119.1L264.3,119.7L263.9,120L262.5,120.6L260.3,121.4L259.9,122.1L259.6,123.1L259.8,123.7L260.1,124L260,124.9L259.8,125.9L259.9,126.6L259.8,127.2L259.5,127.6L259.1,128.5L258.7,129.5L258.3,130L257.8,130.5L257,130.9L257,131.1L257.9,131.5L258.2,131.8L258.2,132.1L258,132.3L257.9,132.5L258.3,132.9L258.8,133.1L259.3,133.8L259.8,134.7L259.9,135L260,135.1L260.2,135.2L260.5,135L261.1,134.5L261.5,134.3L262,135.1L260,135.8L258.9,136.1L255.8,137.2L253.1,138.1L252.4,138.3L251,138.8L250.3,139L247.9,139.8L246.9,140.2L246,140.6L244,141.2L242.1,141.8L240.1,142.4L237.7,143.1L236.4,143.5L235.6,143.9L233.5,144.8L233.4,145L233.4,145.5L233.7,146.7L234.2,147.7L234.6,148.3L234.9,149.9ZM268.8,8.556L267.8,8.556L266,8.556L264.3,8.556L262.6,8.556L260.9,8.556L259.2,8.556L257.5,8.556L255.8,8.556L254.1,8.556L252.3,8.556L250.7,8.556L248.9,8.556L247.2,8.556L245.5,8.556L243.8,8.556L242.1,8.556L240.4,8.556L239.4,8.556L239.2,8.523L239.1,8.473L238.4,8.607L237.7,9.024L237,9.208L236.2,9.124L236.1,9.174L235.8,9.158L235.2,9.141L234.7,9.241L234.3,9.625L233.9,10.24L233.2,10.98L232.7,11.61L232.2,12.08L231.2,12.83L230.6,13.05L230.3,13.02L230.1,12.88L229.8,11.91L229.6,11.76L227.5,12.25L227.2,12.26L227.2,11.96L227.1,9.692L227,8.306L227.3,7.438L227.5,6.436L227.5,5.567L227.9,4.065L227.7,3.163L228.2,0.007L228.4,-0.51L228.5,-2.03L228.8,-2.497L229.1,-2.681L229.5,-3.616L230.2,-5.118L230.6,-5.886L230.5,-7.573L230.6,-8.708L230.7,-8.975L231.7,-9.393L233,-10.45L233.5,-11.7L234.3,-12.48L235.8,-13L235.9,-13L240.3,-17.28L242.4,-19.58L243.3,-20.75L243.3,-21.18L243.5,-21.74L243.1,-22.17L242.7,-22.57L242.6,-22.92L242.2,-23.11L241.6,-23.11L241.3,-23.36L240.9,-23.88L240.5,-24.21L239.2,-24.18L238.3,-24.71L238.3,-25.43L238.7,-26.85L239.4,-28.49L239.4,-28.92L239.3,-29.31L239.2,-29.64L238.8,-29.98L238.5,-30.36L238.7,-31.53L239.2,-32.69L239.6,-33.25L240,-33.89L239.8,-34.42L239.3,-34.67L239.6,-35.19L240.2,-36.06L241.3,-36.93L242.3,-37.52L243,-37.52L244.3,-37.07L245.5,-36.52L246.1,-36.48L246.9,-36.72L248.5,-37.69L248.9,-37.38L249.4,-36.78L249.9,-35.81L251,-35.36L251.4,-35.06L251.8,-34.96L252,-35.04L252.4,-35.81L252.8,-36.23L253.7,-36.77L255.6,-37.18L257,-37.3L257.6,-37.4L258.5,-37.65L260.1,-38.44L261.6,-37.42L263.2,-37.22L264.8,-37.23L265.3,-37.54L265.6,-37.77L267.2,-39.44L269.5,-41.72L271,-38.52L271.5,-38.34L271.4,-38.05L271.3,-37.79L272.3,-37.02L273.5,-36.62L273.9,-36.23L274,-35.8L273.6,-33.92L273.6,-33.4L274,-31.53L274.7,-31.11L275.4,-29.22L276.7,-28.44L276.9,-28.2L277.2,-27.28L277.6,-26.3L277.9,-26.06L278,-26L278.4,-24.94L278.2,-24.34L278.5,-22.54L279,-20.93L279.1,-19L279.1,-18.14L279.1,-17.63L279,-16.89L278.8,-16.47L278.3,-16.06L277.9,-15.4L277.5,-14.72L277.3,-14.37L277.4,-13.33L277.4,-13.07L277.3,-12.93L276.7,-12.77L276,-12.48L275.5,-12.21L274.9,-11.68L274.4,-11.11L273.7,-9.426L272.5,-8.124L272.4,-7.69L271.3,-6.905L270.8,-5.953L270.5,-4.768L270.1,-3.916L269.2,-2.764L269,-0.928L269,2.746L268.8,6.903ZM322.6,58.41L323.3,60.48L323.2,60.86L322.7,61.1L322.4,61.11L322.1,60.78L321.9,60.09L321.5,60.26L320.8,59.42L320.1,59.38L319.6,58.39L319.8,57.54L319.7,56.06L320.4,55.3L320.8,54.03L321.2,54.9L321.4,56.24L322,57.84L322.5,58.33ZM326.1,46.15L326.2,46.65L326,47.1L326.1,48.56L326,49.53L325.5,50.87L325,51.34L324.6,51.21L324.3,50.99L324,50.62L324.5,48.16L324.3,46.37L325.3,46.53ZM259.3,89.79L258.8,89.54L257.7,88.96L256.3,88.47L255.2,87.9L254.7,87.36L253.6,87.14L252.6,87.05L251.7,86.54L250.8,86.48L249.9,86.36L249.8,86.02L249.7,85.26L249.4,85.07L248.7,84.87L248,84.89L247.6,84.99L247.4,84.94L246.8,84.5L246.2,83.94L246,83.05L245.2,82.45L244.2,82L241.6,82.05L241.2,81.91L240.6,81.46L239.8,80.72L239.2,79.86L238.7,78.69L238.5,77.98L238.2,77.12L237.5,75.82L236.6,73.99L235.9,72.49L235.2,70.87L234.9,69.69L234.3,68.38L233.3,66.76L232.8,66.14L232.3,65.59L230.9,64.49L229.3,63.42L228.5,62.69L227.3,60.54L226.8,59.75L226.5,58.39L226.2,56.97L226.3,56.4L227.4,54.56L227.5,54.05L227.3,53.34L226.9,51.88L226.5,50.94L226.2,50.12L225.7,48.76L224.9,46.9L224.8,46.08L224.8,45.48L225.2,43.87L225.5,42.21L225.5,41.74L228.5,41.81L229,41.44L230.7,40.38L232.7,38.24L233.1,37.34L233.8,35.97L234.6,35.3L234.9,34.81L235.1,34.08L235.3,33.46L236.3,32.52L237.3,31.82L237.3,31.52L237.1,31.32L237.3,31.13L237.8,30.76L238.8,30.43L239.1,29.71L239.1,28.91L238.9,28.44L238.9,27.92L238.7,27.64L238.1,27.55L237.1,27.15L236.2,26.98L235.6,26.75L235.4,26.57L235.3,26.08L235.5,25.55L235.6,25.4L235.8,24.83L235.4,24.49L235.3,24.33L235.5,24.06L236.4,22.25L236.6,22L237,21.97L237.6,21.75L238.1,21.65L238.6,21.74L238.9,21.64L239.2,21.4L239.5,20.7L239.7,19.53L239.6,18.58L239.1,17.84L239,16.71L239.2,15.2L239.1,13.95L238.6,12.95L238.1,12.35L237.3,12.06L236.1,10.53L235.8,9.792L235.8,9.325L236.1,9.174L236.2,9.124L237,9.208L237.7,9.024L238.4,8.607L239.1,8.473L239.2,8.523L239.4,8.556L240.4,8.556L242.1,8.556L243.8,8.556L245.5,8.556L247.2,8.556L248.9,8.556L250.7,8.556L252.3,8.556L254.1,8.556L255.8,8.556L257.5,8.556L259.2,8.556L260.9,8.556L262.6,8.556L264.3,8.556L266,8.556L267.8,8.556L268.8,8.556L269.5,8.556L270.2,8.907L271,9.341L273.1,10.49L275.1,11.63L277.1,12.78L279.2,13.92L281.2,15.07L283.3,16.21L285.3,17.36L287.4,18.51L289.4,19.65L291.5,20.8L293.5,21.94L295.6,23.09L297.6,24.23L299.7,25.38L301.8,26.52L303.8,27.67L304.8,28.22L304.9,28.45L305.1,29.49L305.2,30.14L305.1,30.73L304.6,31.7L304.4,32.22L304.4,32.57L304.6,32.7L305,32.75L305.4,32.99L305.6,33.17L305.9,33.91L306.3,34.28L307.1,34.9L308.6,35.97L310.1,37.04L311.6,38.09L313,39.16L314.5,40.23L316,41.29L317.4,42.36L318.9,43.43L319.7,43.95L319.9,44.09L319.8,44.91L319,46.87L319,47.69L318.7,48.66L318.4,49.3L317.6,52.06L317,53.1L316.1,55.54L315.9,57.4L316.4,58.71L316.6,59.92L317.6,61.13L318.4,61.55L319,62.1L320,63.35L320.6,64.61L322.4,65.23L323,66.63L322.8,67.6L322,68.41L321.2,69.71L320.6,71.43L320.6,74.04L321,73.65L321.9,74.29L322,76.21L321.1,78.47L320.8,79.52L320.7,80.41L321.5,83.11L322.5,84.48L322.4,84.92L322.1,85.28L324,87.71L323.8,89.83L324.5,91.47L324.8,92.89L325.3,93.99L325.3,94.74L324.8,95.58L326.1,95.79L326.9,96.48L327.3,97.14L328.2,97.11L328.8,97.55L329.5,97.93L331.2,99.03L331.6,99.59L331.8,99.91L331.9,100.1L330.8,101L329,102.3L327.3,103.6L325.7,104.5L324.5,104.9L323.2,105.1L322,105.7L320.9,106.6L319.4,107L317.7,107L315.8,107.6L314,108.8L312.9,109.4L311.2,108.4L309.9,108.1L308.4,108.1L307.4,108.3L307.1,108.5L306.8,109.1L306.6,110.1L305.6,111.1L303.8,112L302.2,112.3L300.7,112.1L299.7,111.7L299.2,111.2L298.4,110.9L297.4,111L296.4,111.3L295.5,112.1L293.9,112.4L291.9,112.3L290.8,111.9L290.6,111.3L289.7,110.6L288.1,109.8L286.9,109.8L286.1,110.6L285.4,111.1L284.8,111.3L284.2,111.3L283.7,111.1L283.4,111.1L281.1,111L278.9,111L278.9,110.7L278.7,109.9L278.3,109.2L277.9,108.8L277.4,108.7L277.2,108.7L277,108.4L276.7,107.7L276.3,107.1L275.9,106.6L275.6,106.1L275.5,105.7L275.5,105.3L276,104.1L276.1,103.3L276.1,102.5L275.9,101.7L275.3,100.7L275.4,100.4L275.2,99.76L275.2,99.28L275.3,98.71L275.2,97.94L274.7,96.3L274.7,95.87L274.3,95.08L272.9,93.19L272.8,92.96L270.6,91.06L269.7,90.66L269.3,91.01L269.2,91.33L269.3,91.94L269.3,92.25L269.2,92.38L268.7,92.36L268.3,92.3L267.5,91.79L266.8,91.65L265.2,91.76L264.6,91.87L264.2,91.76L263.3,90.89L262.3,90.71L261.3,90.66L259.9,89.67L259.5,89.72ZM324.6,75.89L324.1,76.01L323.9,75.89L323.6,75.49L324.2,75.13L324.7,74.47L326,73.48L326.4,72.84L326.5,72.71L326.4,73.46L325.8,75.13L325.1,75.25ZM250,257.6L250.2,257.7L251.1,258.2L251.1,259.2L251.1,260.3L250.9,261L251,261.7L251.2,262.8L251.5,263.6L251.6,267L251.3,266.9L250.7,266.7L250.4,266.8L250.2,268.4L250,270.6L250.1,272.1L248,272.1L245.4,272L243.5,271.4L241.5,270L240.3,267.9L239.7,266.5L239,266.5L238.9,266.2L238.8,264.6L238.8,262.9L239,262.4L240.3,260.4L241.2,259.1L241.7,257.8L242.9,256.3L244.1,255.4L244.6,255.3L244.9,255.3L247,256.6L249.3,257.8L249.8,257.7ZM269.8,-42L269.5,-41.72L269.5,-41.72L267.2,-39.44L265.6,-37.77L265.3,-37.54L264.8,-37.23L263.2,-37.22L261.6,-37.42L260.1,-38.44L258.5,-37.65L257.6,-37.4L257,-37.3L255.6,-37.18L253.7,-36.77L252.8,-36.23L252.4,-35.81L252,-35.04L251.8,-34.96L251.4,-35.06L251,-35.36L249.9,-35.81L249.4,-36.78L248.9,-37.38L248.5,-37.69L246.9,-36.72L246.1,-36.48L245.5,-36.52L244.3,-37.07L243,-37.52L242.3,-37.52L241.3,-36.93L240.2,-36.06L239.6,-35.19L239.3,-34.67L239.1,-35.09L238.9,-35.48L238.5,-35.96L238,-36.16L237.5,-36.06L236.9,-35.96L236.6,-36.25L236.6,-36.92L236.4,-37.54L236.1,-38L235.3,-38.47L233.1,-39.41L231.5,-41.3L230.8,-42L269.8,-42ZM225.1,217.9L225.3,217.9L228,217.4L230.3,217.8L233.1,218.9L235.7,219.3L238.1,219L240.1,218.9L241.6,219.1L242.8,219.5L243.6,220.1L243.7,220.6L243.8,220.9L244.2,222.3L244.9,224.5L245.4,226.5L246,229.2L246,230.8L246.1,231.4L246.7,232.1L247.4,233.4L247.6,234.1L247.8,234.6L248.6,235.7L249.1,237.2L249.6,239.3L250,240.3L250.2,240.8L250.3,241.7L250.3,243.5L250.3,245.7L250.3,248.2L250.4,250.2L250.3,251.2L250.3,254.1L249.7,255.6L249.8,256.8L250,257.6L249.8,257.7L249.3,257.8L247,256.6L244.9,255.3L244.6,255.3L244.1,255.4L242.9,256.3L241.7,257.8L241.2,259.1L240.3,260.4L239,262.4L238.8,262.9L238.8,264.6L238.9,266.2L239,266.5L239.7,266.5L240.3,267.9L241.5,270L243.5,271.4L245.4,272L248,272.1L250.1,272.1L250,270.6L250.2,268.4L250.4,266.8L250.7,266.7L251.3,266.9L251.6,267L252.4,267L253.9,267.3L255.1,267.2L256.2,267.2L258,267.2L259,267.2L258.6,269.6L257.3,273.6L256.8,275.3L255.6,281.8L254.1,285L253.2,286.4L250.8,288.8L250.1,289.3L249.4,289.6L248.4,289.9L244.1,294.7L242.5,297.1L241.1,300.5L239.7,302.4L237.6,306.4L235.8,309.6L234,312.4L231,316.4L229.6,317.5L228.7,318.1L226.3,320.4L222.8,324.1L220.3,327.4L216.3,331.2L214.1,332.8L210.7,336.1L209.7,336.6L205.9,339.6L203.1,341.5L198.7,343.6L196.9,344.2L192.7,343.6L190.9,343.9L189.4,345.2L189.3,347.1L188.7,347.4L187.7,347.3L184.8,346.5L183.2,346.7L182.3,347.7L181.5,349L179.3,349L175.3,347.7L170.6,346.9L169.6,346.8L167.3,347.8L166.5,347.9L163.2,347.7L161.4,347.1L159.6,347.1L158.3,347.6L156.7,347.8L152.3,351.3L150,351.3L148.1,351.7L147.1,351.7L145.3,351.2L144.6,351.3L143.6,351.5L142.5,352.1L140.2,352.4L139.3,352.9L135.3,356.1L134.4,356L133.6,355.8L131.6,355.8L129.2,354L128.3,354.2L128.6,353.6L128.6,352.7L128.2,352.1L127.8,351.8L126.9,351.8L126.4,351.1L125,351L124.5,351.2L123.8,351.2L123.8,350.4L123.8,349.9L123.8,349.2L123.6,348.2L123.1,347.9L122.6,347.8L121.7,347.9L121,348L120.6,348.3L120.3,348.9L120.3,351L119.8,350.4L119.2,349.2L119,347.8L119.3,346.3L120.3,345.7L120.2,344.6L120,343.7L118.8,341.4L118.4,340.3L117.3,339.6L116.6,337.8L115.8,337.2L115.4,336L114.7,335L114.4,333.5L114.8,332.6L115.5,332.1L116.2,332.9L117,332.6L118.2,331.5L119,329.8L119,327.1L118.8,325.4L117.9,321.1L117.4,320.1L115.2,317.1L112.7,313L109.6,306.6L108,302.7L105.7,295L103.7,290.7L101.2,286.6L100.9,286.4L101.3,285.9L102.6,284.9L103.2,284.7L103.6,284.8L103.9,284.6L104.2,283.9L104.3,283.3L104.4,282.5L104.7,282L105,281L105.6,280.4L106.8,279.9L107.7,280.5L108,281.1L108.2,281.8L108.6,282.1L109.2,282.1L109.7,282.6L109.9,283.5L109.9,284.1L109.5,284.6L109.6,285.1L110,285.7L110.2,286.4L110.5,287.3L112.2,287.7L113,288L114.3,288.1L115.6,288.5L116.8,289.1L118.8,289.3L121.6,289L123.9,289.1L125.7,289.8L127,289.9L127.8,289.5L128.2,288.9L128.1,288.1L128.5,287.6L129.4,287.4L130.1,286.8L130.6,285.9L131.9,285.1L133.9,284.5L134.9,284.5L134.9,283L134.9,278.2L134.9,273.3L134.9,268.5L134.9,263.7L134.9,258.9L134.9,254.2L134.9,249.5L134.9,245L135.4,245.3L138.4,247.7L139.2,248.9L139.6,249.7L140.9,252.6L141.9,255.2L142.7,257.1L142.8,258L142.9,258.9L143,259.3L142.9,259.8L142.3,260.8L141.8,261.7L141.1,262.8L141,264.3L141.2,266L141.7,266.9L142.2,267.1L143.5,266.7L144.3,266.8L145.4,267.2L149.1,267L149.5,267.1L150.9,267.2L151.4,267.1L151.8,266.7L152.3,265.6L152.7,265.3L153.5,265.1L154.4,264.9L155.2,264.2L156.4,262.2L158.8,260.4L159.6,259.9L160.1,259.4L160.5,258.8L161.3,256.5L162,254.6L162.2,253.7L162.8,252.2L163.5,251.3L164.1,250.8L164.5,250.7L165.4,250.4L166.5,250.2L167.7,250.5L168.9,251L170.4,252L171.8,253.2L172.5,253.8L173.3,254L174.5,254.1L175.4,254.1L176.7,255.3L177.4,255.3L178.9,255.7L180.7,256.1L181.9,256L183.2,255.4L184.1,255.4L185.2,255.4L186.5,255.2L187.4,255L188.2,254.4L188.8,253.8L189.5,252L189.9,250.6L190.6,248.9L191.4,246.7L191.7,245.1L191.9,244.7L193.1,244.2L194,243.9L196.6,243.3L197.1,242.9L197.6,242.2L198.7,241L200.1,239.9L200.8,239.3L202.1,234.3L202.3,233.7L203.2,232.4L203.8,231.8L204.2,231.8L204.7,231.4L205.4,230.8L206.2,230.3L207.2,230.2L207.8,229.7L208.1,229L208.6,228.6L209.3,228.6L209.7,228.4L209.8,227.9L210.2,227.4L211,227.1L211.4,226.7L211.4,226.2L212.3,225L214.1,223.1L215.7,222.1L217.2,221.9L218.7,221.5L220.1,220.9L221.1,220L221.8,218.8L222.9,218.1ZM219.1,302.7L220.7,302L221.4,301.6L221.9,301.3L222.6,300.7L222.8,299.4L223,298.3L223.5,297.8L224,297.4L224.5,296.8L225,295.4L225.3,294.1L225.4,293.5L225.2,293L224.9,292.4L224.5,291.5L224.1,291.4L223.3,291L222.2,290.1L221.2,289.3L220.3,288.1L219.9,287.9L219,287.1L218.6,286.7L218.3,286.1L218,286L217.6,286.1L216.5,286.3L214.3,287.3L212.8,288.1L211.6,289.2L210.4,289.6L209.5,289.9L208.8,291.1L208.1,292.2L207.5,293.1L207.1,293.6L206.8,293.9L206.5,294.5L205.8,295.6L205.2,296.3L204.4,296.7L203.3,297.2L202.9,297.5L202.9,297.9L203.3,298.9L203.7,299.8L204.3,301L204.7,301.8L205.4,302.8L205.8,303.4L205.8,304.4L205.9,304.7L206.1,305.1L206.3,305.2L206.5,305.4L207.1,305.7L207.3,305.8L207.7,306.2L208.1,306.8L208.8,307.6L209.7,308.3L211.1,308.6L212.2,308.8L212.6,308.6L212.9,308.1L213.3,307.5L213.4,306.6L213.7,306.2L215.1,304L215.8,303.2L216.2,303.2L216.8,303L217.6,303L218.1,303L218.2,303ZM402,-41.94L399.7,-39.28L393.6,-32.7L385.6,-24.89L383.5,-23.31L374.7,-18.5L369.1,-14.47L366.2,-11.73L363.2,-9.343L360.8,-7.072L353.5,0.609L352.8,1.326L352.1,2.011L351.1,3.297L350.5,3.814L348.8,6.002L347.7,7.154L346.5,8.273L346,9.057L345.6,9.976L345.2,10.49L344.1,12.66L343.1,14.1L342.2,15.22L342.2,15.22L342.2,14.44L342.1,14.03L341.2,12.85L339.5,10.64L338.1,8.991L336.8,7.287L336.8,5.918L336.8,1.861L336.8,-6.237L336.8,-14.35L336.7,-22.45L336.7,-26.52L336.7,-28.17L336.8,-28.44L338.4,-29.93L340.3,-31.9L343,-35.65L344.4,-37.69L345.6,-39.38L345.9,-39.9L346.9,-40.92L348.8,-41.54L350.1,-41.64L352.1,-42L402,-42ZM14.13,-16.17L13.75,-15.92L13.34,-16.12L13.23,-16.51L13.79,-17.24L14.03,-17.43L14.24,-17.28L14.38,-17.07L14.41,-16.77ZM6.759,-2.247L5.79,-1.545L5.443,-1.729L5.201,-2.213L4.924,-3.282L5.028,-3.783L5.478,-4.367L6.447,-4.935L7.036,-4.985L7.625,-4.217L7.625,-3.432ZM227.2,12.26L227.5,12.25L229.6,11.76L229.8,11.91L230.1,12.88L230.3,13.02L230.6,13.05L231.2,12.83L232.2,12.08L232.7,11.61L233.2,10.98L233.9,10.24L234.3,9.625L234.7,9.241L235.2,9.141L235.8,9.158L236.1,9.174L235.8,9.325L235.8,9.792L236.1,10.53L237.3,12.06L238.1,12.35L238.6,12.95L239.1,13.95L239.2,15.2L239,16.71L239.1,17.84L239.6,18.58L239.7,19.53L239.5,20.7L239.2,21.4L238.9,21.64L238.6,21.74L238.1,21.65L237.6,21.75L237,21.97L236.6,22L236.3,21.95L235.9,21.77L235.2,21.17L233.9,21.5L233.5,21.48L233,21.79L232.6,22.14L232.4,22.15L232.1,22.1L231,21.4L230.6,21.42L230.4,23.42L230.2,24.54L230,25.05L229.2,25.53L228.4,25.8L227.9,25.78L226.1,25.93L225.4,25.93L225,25.76L224.5,24.63L223.5,24.13L222.6,23.89L222.3,23.96L221.9,24.54L221.8,25.08L220.9,24.71L220.6,24.26L220.6,23.49L220.3,22.45L220.5,22L220.8,21.72L221.5,21.17L222.7,20.4L222.9,20.03L223.1,19.41L223,18.01L222.9,16.81L223,16.37L223.5,15.45L224.2,14.5L225,13.52L225.5,13.42L226.1,13.03L226.8,12.46ZM167.6,171.3L169.7,170.9L171.6,170.5L173.9,170.1L175.7,169.8L176.2,169.7L180.6,170.1L182.5,170.3L183.2,170.6L184,171.2L185.7,172.9L185.2,172.8L182.3,173.1L181.2,173.6L178.6,175.5L178.1,175.2L177.5,174.8L177,174.7L175.9,175.2L174.8,175.7L173.6,176.5L172.6,177.3L172.2,177.7L170.7,179.2L170.1,179.5L169.7,179.6L169.5,179.5L169.3,178.9L168.3,177.3L166.8,175.2L166.3,175L166,174.9L164.9,175.1L161.6,175.6L158.7,176.1L154.4,177L149.8,177.6L146.9,178.1L144.5,178.2L144.5,180.2L144.5,184.4L144.5,188.5L144.5,192.7L144.5,196.9L144.5,201L144.5,205.2L144.5,209.4L144.5,213.7L144.5,215.5L144.4,215.9L143,215.9L139.8,215.9L137,215.9L134.9,215.9L134.9,218.4L134.9,221.4L134.9,224.4L134.9,227.4L134.9,230.4L134.9,233.4L134.9,236.4L134.9,239.4L134.9,242.5L134.9,244.7L134.9,245L134.9,249.5L134.9,254.2L134.9,258.9L134.9,263.7L134.9,268.5L134.9,273.3L134.9,278.2L134.9,283L134.9,284.5L133.9,284.5L131.9,285.1L130.6,285.9L130.1,286.8L129.4,287.4L128.5,287.6L128.1,288.1L128.2,288.9L127.8,289.5L127,289.9L125.7,289.8L123.9,289.1L121.6,289L118.8,289.3L116.8,289.1L115.6,288.5L114.3,288.1L113,288L112.2,287.7L110.5,287.3L110.2,286.4L110,285.7L109.6,285.1L109.5,284.6L109.9,284.1L109.9,283.5L109.7,282.6L109.2,282.1L108.6,282.1L108.2,281.8L108,281.1L107.7,280.5L106.8,279.9L105.6,280.4L105,281L104.7,282L104.4,282.5L104.3,283.3L104.2,283.9L103.9,284.6L103.6,284.8L103.2,284.7L102.6,284.9L101.3,285.9L100.9,286.4L99.83,285.5L96.68,282.1L95.57,281.3L93.91,279.2L90.27,272.9L89.75,271.7L89.06,268.7L88.26,266.5L88.16,265.2L88.54,264.5L88.33,263.5L87.92,262.6L86.67,261.4L86.33,257.6L85.49,255.1L85.67,253L85.29,251.2L85.25,250L85.42,247.7L84.77,245.1L83.42,242.6L82.2,238.9L82.03,237.3L82.14,233L81.93,231.3L81.93,229.2L81.44,227.1L81.23,226L81.58,225.1L81.79,225.3L82.14,225.5L82.38,224.3L82.41,223.2L81.82,220.6L80.47,217.9L77.11,213.5L76.28,211.8L75.83,210.5L72.09,204.7L70.5,200.7L69.36,197.2L68.15,195.6L62.54,184.3L61.29,182.6L59.04,180.4L58.52,179.7L57.66,177.7L55.99,175L55.58,172.4L55.44,169.6L55.65,167.4L57.21,167.1L58.28,166.6L59.25,166.5L60.18,167L61.19,167L61.6,166.9L63.4,167L64.44,166.5L65.69,165.9L66.38,165.5L67.39,165L68.74,164.5L69.46,164.6L70.4,164.8L71.64,164.9L72.34,165.3L73.17,166.3L74.41,167.2L75.38,167.8L76.46,168.5L76.77,168.8L77.25,168.9L77.53,169L79.54,168.9L81.37,168.8L83.31,168.8L86.98,168.8L90.69,168.8L94.36,168.8L98.03,168.8L101.7,168.8L105.4,168.8L109.1,168.8L112.7,168.8L114.3,168.8L116.9,168.9L119.7,168.9L119.9,168.9L120.3,169.1L120.5,169.3L121.5,170.6L122.7,171.9L123.8,172.6L125,173L126.2,173.1L127.3,173L129.1,173.2L131.6,173.6L134.2,173.8L136.9,173.6L138.8,173.8L140,174.5L141.1,174.9L142.2,175.1L143.8,175L145.8,174.5L147.5,174.6L148.2,174.9L148.7,174.9L151.6,174.4L153.9,174L157.4,173.3L160.3,172.7L164.6,171.9ZM243.6,220.1L245,219L246.4,217.5L247.9,215.7L249.4,214.2L250.7,212.8L252.3,210.9L254,209L254.5,208.8L254.6,208.6L253.9,207L255.1,205L255.1,203.8L255.1,202.6L255.2,202.1L255.6,201.6L257,200.6L258,199L258.9,197.5L260,195.1L260.1,194.6L260.2,194L259.8,193.2L259.1,191.9L258.5,190.8L258,189.1L258.5,187.5L258.6,186.6L258.6,186.2L258.4,185.7L257.9,185.3L257.4,185.1L257.2,184.5L257.2,183.7L257.4,183.3L258.7,182.7L259,182.3L259.1,181.9L259.2,181.4L259.5,179.9L260,178.6L260.1,178.1L259.9,177.7L259.8,176.9L259.7,175.8L259.7,172.6L259.9,169.3L259.8,167.4L259,165.3L258.9,163.7L259.5,162.6L259.6,162L259.2,161.9L258.3,161.8L257.6,161.6L256.6,160.7L254.8,160L252.8,159.3L249.9,159.1L247.5,157L245.6,156.6L245,156.4L243.1,155.1L240.3,155L237.3,154.8L235.4,154.8L235.2,154.6L235.1,152.8L235.1,151.3L234.9,149.9L234.6,148.3L234.2,147.7L233.7,146.7L233.4,145.5L233.4,145L233.5,144.8L235.6,143.9L236.4,143.5L237.7,143.1L240.1,142.4L242.1,141.8L244,141.2L246,140.6L246.9,140.2L247.9,139.8L250.3,139L251,138.8L252.4,138.3L253.1,138.1L255.8,137.2L258.9,136.1L260,135.8L262,135.1L262.5,135.4L263.8,137.8L264.9,139.2L266.2,140.6L266.4,140.5L266.8,140.2L267.4,140.1L269.4,139.7L270.2,139.7L270.7,139.4L271.7,139.1L272.9,139L273.3,139.1L274.6,140.8L274.7,142.2L275,144.1L275.1,145L275.1,146.3L274.9,147.8L273.9,149.6L273.7,150.5L273.2,151.9L272.4,152.6L272.1,153.1L272.1,153.7L272.5,154.2L273.3,155.1L273.6,155.6L273.5,156.1L273.5,156.8L273.7,157.3L274,157.6L274.8,158L275.6,159.2L277,160.5L278.7,162.5L279.5,163.1L280.1,163.2L280.4,163.9L280.3,164.6L279.8,165L280,165.7L280.2,166L280.5,166.1L281.3,166.2L281.9,166.1L282.1,165.8L282.1,162.9L281.5,161.2L281.1,160.6L280.9,160.5L281.1,159.9L281.7,158.6L282.2,157.3L282.4,156.8L282.8,156.4L285.1,156.1L286.2,155.8L286.6,155.4L286.9,154.4L287.2,151.6L287.3,149L287.1,147.5L287.4,145.2L287.9,143.8L287.7,143.5L287.5,141.6L286,139.5L284,136.9L283,135.5L281.7,133.9L279.5,131.4L278.5,130.5L277.9,130.1L276.1,129.8L275.6,129.4L275.1,128.6L275,127.2L275,126.1L274.7,124.3L274.4,121.7L274.2,121L273.7,119.1L273.2,117.2L273.2,116.8L273.3,116.4L274.2,115L274.8,114.1L275.1,113.5L275.5,112.1L275.7,111.4L276.1,111.1L277.7,111L278.9,111L281.1,111L283.4,111.1L283.7,111.1L284.2,111.3L284.8,111.3L285.4,111.1L286.1,110.6L286.9,109.8L288.1,109.8L289.7,110.6L290.6,111.3L290.8,111.9L291.9,112.3L293.9,112.4L295.5,112.1L296.4,111.3L297.4,111L298.4,110.9L299.2,111.2L299.7,111.7L300.7,112.1L302.2,112.3L303.8,112L305.6,111.1L306.6,110.1L306.8,109.1L307.1,108.5L307.4,108.3L308.4,108.1L309.9,108.1L311.2,108.4L312.9,109.4L314,108.8L315.8,107.6L317.7,107L319.4,107L320.9,106.6L322,105.7L323.2,105.1L324.5,104.9L325.7,104.5L327.3,103.6L329,102.3L330.8,101L331.9,100.1L332.4,101.1L333.3,102.1L332.8,102.6L332.1,103.1L333.2,103.7L332.4,104.7L332.3,105.3L332.5,105.6L332.7,106L332.2,107.1L331.5,108L331.3,108.6L331.9,109.8L331.6,111.8L332.2,113.6L332.3,114.6L332.5,115.2L332.3,116.4L332.3,118.3L332.5,119L332.1,120L332.7,120.4L333,121.4L332.9,122.7L332.7,123.3L331.7,124.1L331.6,124.4L331.6,124.9L332.9,124.9L333,125.6L332.8,126.2L332.9,127.2L332.7,127.9L333,128.7L332.7,129.6L332.8,130.3L332.8,131.2L333.1,133.4L333.2,136.1L333.2,136.6L333.7,136.9L334.3,137L334.3,137.8L333.6,138.8L333.5,139.4L333.6,140.3L334.4,139.1L334.9,139.1L335.3,139.6L335.2,140.2L335.4,140.6L335.3,141.2L335.5,142.1L335.4,142.8L334.9,143.3L334.2,144.1L334,145L334.1,145.5L333.6,145.7L333.4,146L333.7,146.8L333.7,147.4L332.8,149.6L330.5,152.5L329.4,153.5L328.5,154.6L328.5,155.1L328.4,155.5L327.3,157.1L326.1,157.4L325.4,157.8L325.9,159.2L325.2,159.5L323.8,160.6L320.1,162.8L319.6,163.3L318.6,164.6L317.4,164.9L316.7,165.3L315.5,165.4L315.1,165.3L314.6,165.4L314.3,165.7L311.9,166.6L309.6,167.3L309,167.6L308.6,168.1L306.6,168.8L303.5,170.6L300.9,172.3L299.1,174L298.6,174.3L298,174.9L297.8,175.8L297.6,176.2L296.2,178.1L294.1,180.2L293.8,180.8L292.9,182L292.9,182.7L292.1,183L291.5,182.3L291.2,183.7L290.7,183.8L290.2,183.5L288.8,184.2L287.6,185L285.6,186.8L282.9,190.1L278.8,193.4L278.3,193.5L277.9,193.5L276.7,192.3L276,192.2L276.6,192.9L277,193.5L276.9,194.6L276.9,196.2L276.4,199.4L276.5,200.2L277.1,201.1L278.1,202.2L279.2,203.6L280.5,207.6L280.6,209.6L281.9,212.3L281.9,213.4L282.5,216.3L282.5,218.6L282.4,220L283,220.6L283.3,220.1L283.2,219.2L283.4,217.7L283.7,217.1L284.1,217.2L284.2,217.9L284.4,218.5L284.5,219L284.5,219.8L284.1,222.7L284.2,223.9L284.9,225.9L284.1,228.2L283,233.7L282.9,234.7L283.2,235.1L283.8,235.2L284,234.5L284.4,234.5L284.5,234.9L284.1,237.5L283.5,238.6L281.8,241.3L280.8,242.5L279.3,243.7L275.6,245.5L268.1,248.1L265.2,249.4L263.5,250.1L259.7,252.6L258.1,254.2L257.4,256.1L256.8,257L256.2,258.1L256.7,259L257.3,259.7L257.9,260.2L258.2,260.6L258.6,260.9L259.1,259.4L259.3,258.9L259.7,258.9L259.5,260.7L259,266.9L259,267.2L258,267.2L256.2,267.2L255.1,267.2L253.9,267.3L252.4,267L251.6,267L251.5,263.6L251.2,262.8L251,261.7L250.9,261L251.1,260.3L251.1,259.2L251.1,258.2L250.2,257.7L250,257.6L249.8,256.8L249.7,255.6L250.3,254.1L250.3,251.2L250.4,250.2L250.3,248.2L250.3,245.7L250.3,243.5L250.3,241.7L250.2,240.8L250,240.3L249.6,239.3L249.1,237.2L248.6,235.7L247.8,234.6L247.6,234.1L247.4,233.4L246.7,232.1L246.1,231.4L246,230.8L246,229.2L245.4,226.5L244.9,224.5L244.2,222.3L243.8,220.9L243.7,220.6ZM275.9,115.3L275.7,115L275.4,114.9L275.1,115L274.9,115.4L275.3,115.8L275.7,115.8ZM276.7,116.3L276.9,116.1L277,115.8L277,115.5L276.8,115.3L276.6,115.2L276.3,115.3L276.1,115.6L276.1,116.2L276.3,116.3ZM276.7,116.3L276.3,116.3L276.1,116.2L276.1,115.6L276.3,115.3L276.6,115.2L276.8,115.3L277,115.5L277,115.8L276.9,116.1ZM275.9,115.3L275.7,115.8L275.3,115.8L274.9,115.4L275.1,115L275.4,114.9L275.7,115ZM262,135.1L261.5,134.3L261.1,134.5L260.5,135L260.2,135.2L260,135.1L259.9,135L259.8,134.7L259.3,133.8L258.8,133.1L258.3,132.9L257.9,132.5L258,132.3L258.2,132.1L258.2,131.8L257.9,131.5L257,131.1L257,130.9L257.8,130.5L258.3,130L258.7,129.5L259.1,128.5L259.5,127.6L259.8,127.2L259.9,126.6L259.8,125.9L260,124.9L260.1,124L259.8,123.7L259.6,123.1L259.9,122.1L260.3,121.4L262.5,120.6L263.9,120L264.3,119.7L264.7,119.1L265,118.6L264.8,118.4L263.7,118.4L263.4,118.2L262.5,116.3L263,114.1L263,113.2L263,112.1L262.9,111.4L262.5,111L262.3,110.6L262.4,109.5L262.7,109.3L263.4,107.8L263.8,106.9L263.4,106.2L262.9,105.2L262.7,104.5L262.6,104.3L262.9,103.9L263.4,103.5L264,103.4L264.6,103.2L266.4,101.4L266.5,101L266.1,100.4L265.4,99.4L265.3,99.01L265.2,97.88L264.9,97.53L263.9,96.75L263.1,95.96L263.4,95.13L263.5,94.23L263.1,93.74L262.5,93.23L262.1,92.48L262,91.92L261.5,91.7L261.1,91.7L260.8,92.04L260.5,92.01L260.1,91.89L259.9,91.42L259.9,90.89L259.6,90.55L259.4,90.06L259.3,89.79L259.5,89.72L259.9,89.67L261.3,90.66L262.3,90.71L263.3,90.89L264.2,91.76L264.6,91.87L265.2,91.76L266.8,91.65L267.5,91.79L268.3,92.3L268.7,92.36L269.2,92.38L269.3,92.25L269.3,91.94L269.2,91.33L269.3,91.01L269.7,90.66L270.6,91.06L272.8,92.96L272.9,93.19L274.3,95.08L274.7,95.87L274.7,96.3L275.2,97.94L275.3,98.71L275.2,99.28L275.2,99.76L275.4,100.4L275.3,100.7L275.9,101.7L276.1,102.5L276.1,103.3L276,104.1L275.5,105.3L275.5,105.7L275.6,106.1L275.9,106.6L276.3,107.1L276.7,107.7L277,108.4L277.2,108.7L277.4,108.7L277.9,108.8L278.3,109.2L278.7,109.9L278.9,110.7L278.9,111L277.7,111L276.1,111.1L275.7,111.4L275.5,112.1L275.1,113.5L274.8,114.1L274.2,115L273.3,116.4L273.2,116.8L273.2,117.2L273.7,119.1L274.2,121L274.4,121.7L274.7,124.3L275,126.1L275,127.2L275.1,128.6L275.6,129.4L276.1,129.8L277.9,130.1L278.5,130.5L279.5,131.4L281.7,133.9L283,135.5L284,136.9L286,139.5L287.5,141.6L287.7,143.5L287.9,143.8L287.4,145.2L287.1,147.5L287.3,149L287.2,151.6L286.9,154.4L286.6,155.4L286.2,155.8L285.1,156.1L282.8,156.4L282.4,156.8L282.2,157.3L281.7,158.6L281.1,159.9L280.9,160.5L281.1,160.6L281.5,161.2L282.1,162.9L282.1,165.8L281.9,166.1L281.3,166.2L280.5,166.1L280.2,166L280,165.7L279.8,165L280.3,164.6L280.4,163.9L280.1,163.2L279.5,163.1L278.7,162.5L277,160.5L275.6,159.2L274.8,158L274,157.6L273.7,157.3L273.5,156.8L273.5,156.1L273.6,155.6L273.3,155.1L272.5,154.2L272.1,153.7L272.1,153.1L272.4,152.6L273.2,151.9L273.7,150.5L273.9,149.6L274.9,147.8L275.1,146.3L275.1,145L275,144.1L274.7,142.2L274.6,140.8L273.3,139.1L272.9,139L271.7,139.1L270.7,139.4L270.2,139.7L269.4,139.7L267.4,140.1L266.8,140.2L266.4,140.5L266.2,140.6L264.9,139.2L263.8,137.8L262.5,135.4ZM402,228.2L401.9,228.8L400.6,232.9L400.4,234.2L400.1,235.5L398.9,238.1L398.3,239.1L398,240.1L397.8,241.5L397.4,242.7L396.5,245.1L395.1,247.1L394.2,247.9L392.2,249L391.1,249.2L388.9,249.2L386.7,249.8L384.4,251L382.2,252.3L381.3,253L380.4,253.4L377.5,253.4L376.6,253.1L373.7,250.9L372.6,250.6L370.4,250.2L369.8,250.1L369.2,249.8L368.4,248.6L366.6,247.6L366.2,247.3L366,246.6L365.8,245.9L365.4,245.1L365,243.6L364.5,242.5L362.9,240.6L362.7,240L362.6,237.9L362.7,236.6L362.5,234.1L362.7,232.9L363.2,231.8L363,230.7L362.4,229.5L362.2,228.3L361.8,227.2L360.1,225.1L359.7,224.1L359.4,223.1L358.8,219.9L358.7,218.8L358.9,216.4L359.1,215.2L359.5,214.3L359.6,213.7L359.9,213.2L360.2,212.7L360.5,212.2L361.1,209.2L361.9,208.6L363,208.2L364,207.4L364.5,206.3L365,204.2L366.5,202L367,200.9L368.2,199.2L369.2,196.8L369.5,195.6L369.8,194.5L370.1,192L370.2,190.7L370.2,189.5L369.6,188.2L368.2,185.8L368.2,185.4L368.3,183.7L368.1,182.5L367.6,181.2L367,180L366.3,177.9L365.9,174.3L366,173L365.8,171.8L365.4,170.7L365.7,168.8L370,161.9L370.1,161.1L369.9,159L370,157.7L370.2,157.3L370.5,157L371.2,156.9L374.6,156.6L375.1,156.4L376,155.8L377.1,154.7L377.7,154.3L378.1,154.5L378.4,154.9L378.8,155.2L380.2,154.7L380.7,154.7L381.3,154.8L381.5,154.3L381.7,153.7L381.9,153.2L382.3,153L384,152.8L385.2,152.6L386.7,152.2L387,152.3L388.1,153.9L388.5,154L389,154.1L389.4,153.8L388.4,153L388.3,152.5L388.3,152L388.8,150.8L389.7,150L391.6,148.7L393.6,147.1L394.2,147L394.7,147.3L395.1,149.1L395,149.4L395.3,149.4L395.7,149.2L396,148.5L396,147.9L395.8,147.3L395.7,146.8L395.7,146.3L396.7,145.3L397.5,144.3L397.8,143.1L398.1,142.5L399,141.9L399.2,142L399.4,142.5L399.5,143L399.3,143.6L399,144.1L398.9,144.8L399.4,144.9L399.8,144.8L400.5,143.5L401.2,142.3L401.6,141.7L402,141.4L402,228.2ZM219.1,302.7L218.2,303L218.1,303L217.6,303L216.8,303L216.2,303.2L215.8,303.2L215.1,304L213.7,306.2L213.4,306.6L213.3,307.5L212.9,308.1L212.6,308.6L212.2,308.8L211.1,308.6L209.7,308.3L208.8,307.6L208.1,306.8L207.7,306.2L207.3,305.8L207.1,305.7L206.5,305.4L206.3,305.2L206.1,305.1L205.9,304.7L205.8,304.4L205.8,303.4L205.4,302.8L204.7,301.8L204.3,301L203.7,299.8L203.3,298.9L202.9,297.9L202.9,297.5L203.3,297.2L204.4,296.7L205.2,296.3L205.8,295.6L206.5,294.5L206.8,293.9L207.1,293.6L207.5,293.1L208.1,292.2L208.8,291.1L209.5,289.9L210.4,289.6L211.6,289.2L212.8,288.1L214.3,287.3L216.5,286.3L217.6,286.1L218,286L218.3,286.1L218.6,286.7L219,287.1L219.9,287.9L220.3,288.1L221.2,289.3L222.2,290.1L223.3,291L224.1,291.4L224.5,291.5L224.9,292.4L225.2,293L225.4,293.5L225.3,294.1L225,295.4L224.5,296.8L224,297.4L223.5,297.8L223,298.3L222.8,299.4L222.6,300.7L221.9,301.3L221.4,301.6L220.7,302ZM337,19.68L336.6,19.76L336.8,19.21L337.9,18.49L338.3,18.66L338.4,18.83L338.4,18.96L338.2,19.11ZM300.1,-42L302.2,-40.66L304.1,-39.46L305.9,-38.29L307.7,-37.15L309,-36.2L310.4,-35.91L312.5,-35.78L314,-35.73L315.4,-35.34L317.5,-34.98L319,-34.77L320,-34.58L322.6,-34.34L323,-34.47L324.1,-35.53L325.4,-37.22L325.9,-38.16L327.6,-39.09L330.5,-40.38L332.5,-41.3L334.2,-42L335.1,-42L335.1,-42L335.8,-41.42L337.2,-40.15L337.9,-39.51L338.4,-39.23L339.2,-39.04L340.1,-39.04L340.6,-39.08L341.7,-39.24L344.1,-39.39L345.6,-39.38L344.4,-37.69L343,-35.65L340.3,-31.9L338.4,-29.93L336.8,-28.44L336.7,-28.17L336.7,-26.52L336.7,-22.45L336.8,-14.35L336.8,-6.237L336.8,1.861L336.8,5.918L336.8,7.287L338.1,8.991L339.5,10.64L341.2,12.85L342.1,14.03L342.2,14.44L342.2,15.22L340.8,16.87L339.6,17.63L338.1,17.98L337.6,17.91L337,17.68L336.8,18.08L336.6,18.7L336.2,18.56L336,18.38L336.1,19.48L336.3,20.02L336.1,20.75L335.3,21.39L335.2,21.92L333.6,23.34L331.3,23.51L330.1,24.21L329.6,24.78L329.1,26.03L329.3,27.97L328.7,29.44L328.6,30.19L327.3,31.15L326.8,32.03L326.4,32.94L326.1,33.34L325.7,35.35L325.1,36.57L325,36.99L324.8,37.35L324.4,38.08L324.2,38.56L323.9,38.9L322.5,42.03L321.4,43.45L320.6,43.28L320,43.84L319.9,44.09L319.7,43.95L318.9,43.43L317.4,42.36L316,41.29L314.5,40.23L313,39.16L311.6,38.09L310.1,37.04L308.6,35.97L307.1,34.9L306.3,34.28L305.9,33.91L305.6,33.17L305.4,32.99L305,32.75L304.6,32.7L304.4,32.57L304.4,32.22L304.6,31.7L305.1,30.73L305.2,30.14L305.1,29.49L304.9,28.45L304.8,28.22L303.8,27.67L301.8,26.52L299.7,25.38L297.6,24.23L295.6,23.09L293.5,21.94L291.5,20.8L289.4,19.65L287.4,18.51L285.3,17.36L283.3,16.21L281.2,15.07L279.2,13.92L277.1,12.78L275.1,11.63L273.1,10.49L271,9.341L270.2,8.907L269.5,8.556L268.8,8.556L268.8,8.556L268.8,6.903L269,2.746L269,-0.928L269.2,-2.764L270.1,-3.916L270.5,-4.768L270.8,-5.953L271.3,-6.905L272.4,-7.69L272.5,-8.124L273.7,-9.426L274.4,-11.11L274.9,-11.68L275.5,-12.21L276,-12.48L276.7,-12.77L277.3,-12.93L277.4,-13.07L277.4,-13.33L277.3,-14.37L277.5,-14.72L277.9,-15.4L278.3,-16.06L278.8,-16.47L279,-16.89L279.1,-17.63L279.1,-18.14L279.1,-19L279,-20.93L278.5,-22.54L278.2,-24.34L278.4,-24.94L278,-26L277.9,-26.06L277.6,-26.3L277.2,-27.28L276.9,-28.2L276.7,-28.44L275.4,-29.22L274.7,-31.11L274,-31.53L273.6,-33.4L273.6,-33.92L274,-35.8L273.9,-36.23L273.5,-36.62L272.3,-37.02L271.3,-37.79L271.4,-38.05L271.5,-38.34L271,-38.52L269.5,-41.72L269.8,-42L300.1,-42ZM70.57,-21.89L70.54,-21.22L69.78,-19.56L69.39,-18.3L69.33,-16.94L69.53,-15.86L69.88,-15.09L70.12,-14.24L69.95,-13.65L69.57,-13.4L69.84,-13.1L70.4,-13.03L71.33,-13.28L72.79,-13.73L74.69,-14.39L75.94,-14.74L78.02,-14.52L79.12,-14.27L79.68,-13.8L80.3,-11.86L80.58,-11.58L81.1,-10.74L81.51,-9.76L81.58,-9.259L81.55,-8.892L81.13,-8.358L80.65,-7.573L80.47,-7.089L80.09,-6.738L79.61,-6.387L78.22,-6.254L78.02,-6.037L77.6,-5.202L76.87,-4.484L76.56,-3.816L76.25,-2.931L76.32,-1.812L76.18,-0.21L76.01,0.859L76.39,1.243L78.05,1.51L78.36,1.727L78.81,2.395L79.36,3.03L80.85,3.414L81.44,3.898L81.93,4.432L82,4.866L81.65,6.603L81.3,8.256L81.44,9.525L81.58,10.74L81.75,12.5L81.69,13.58L81.23,14.23L81.23,14.75L81.44,15.37L81.06,17.09L80.82,17.38L80.13,17.71L79.78,18.16L79.68,18.89L79.3,19.88L78.95,20.25L78.95,20.7L79.3,21.05L79.3,21.55L78.6,22.17L78.22,22.64L77.32,22.87L76.28,22.64L76.04,22.29L76.28,21.75L76.22,21.34L75.83,20.88L75.28,19.73L74.8,19.48L74.55,19.95L73.69,20.83L72.23,21.95L71.19,22.05L69.29,21.7L67.66,21.17L66.94,19.85L66.45,18.76L65.76,17.49L65,16.89L64.17,16.51L63.82,16.49L62.64,17.19L62.3,17.46L62.3,18.06L62.4,18.61L62.57,18.88L62.75,19.23L62.71,19.78L62.5,20.52L62.43,21.34L58.76,22.12L58.11,21.84L57.66,21.47L57.1,21.54L55.51,21.95L54.92,21.65L54.33,21.45L54.09,21.62L54.05,21.97L54.33,23.88L54.23,24.61L53.88,25.56L53.67,26.2L54.68,26.38L55.02,26.68L55.37,27.17L55.82,27.62L55.86,27.89L55.34,28.39L55.13,29.01L55.41,29.48L56.06,29.98L57.03,30.51L57.52,30.85L57.45,31.16L57,31.83L56.83,32.38L56.51,32.9L56.58,33.37L57.03,33.81L56.96,34.19L56.69,34.49L56.06,34.43L55.58,34.48L55.13,34.34L53.67,32.84L53.36,32.79L51.28,33.96L50.77,34.43L50.35,35.11L49.76,36.6L48.83,35.75L48,34.16L47.06,33.19L45.05,31.62L44.53,30.46L42.25,27.9L38.96,25.36L36.57,23.14L36.22,22.66L36.64,22.7L38.92,23.81L39.24,23.69L39.48,23.44L38.51,22.87L37.57,22.4L36.67,22.12L35.77,22.15L35.29,21.69L34.98,20.97L34.8,20.37L34.42,19.73L33.14,18.41L32.83,17.91L32.17,17.23L32.59,17.12L33.94,17.79L34.04,17.52L33.94,17.14L32.59,16.51L31.83,16.47L31.65,16.02L31.76,15.52L30.79,13.6L29.78,12.18L29.64,11.5L32.35,14.6L32.73,14.67L33.18,14.64L34.32,14.29L34.11,13.87L33.59,13.43L33.11,13.63L32.45,13.67L32.14,13.48L31.96,13.17L32.62,11.66L32.35,11.73L32.14,12L31.79,12.13L31.24,12.21L29.89,11.39L28.71,9.224L28.4,8.774L28.09,8.005L27.78,7.705L26.43,4.599L26.95,4.833L27.57,5.718L28.78,5.534L29.23,5.016L29.64,5.033L30.06,4.916L30.58,4.432L32.14,2.295L32.55,-0.527L32.41,-2.196L32.17,-3.866L32.69,-4.4L32.9,-4.05L33,-3.449L33.25,-3.015L33.8,-2.631L34.8,-2.514L36.4,-1.913L36.95,-1.512L37.09,-2.297L38.92,-2.965L38.37,-3.198L36.74,-2.948L34.53,-3.933L33.8,-4.567L33.11,-5.77L32.41,-6.404L32.45,-6.972L34.04,-7.489L34.46,-7.423L34.63,-6.805L35.05,-6.554L35.22,-6.638L35.29,-7.155L35.29,-8.591L34.8,-10.63L34.98,-11.01L35.39,-11.16L35.77,-11.43L36.05,-11.48L36.6,-11.43L36.88,-10.95L37.02,-10.7L37.54,-10.58L37.99,-10.33L38.37,-10.39L38.72,-10.68L39.17,-10.74L40.62,-10.74L41.94,-10.73L44.53,-10.73L47.16,-10.71L49.76,-10.71L51.74,-10.71L51.74,-11.86L51.74,-13.67L51.7,-15.79L51.7,-17.83L51.7,-19.71L51.67,-21.94L51.77,-22.57L51.91,-22.84L51.87,-23.21L53.88,-23.24L57.55,-23.07L59.15,-23.09L59.59,-23.07L61.6,-23.17L63.23,-23.04L63.92,-22.87L64.55,-22.8L66.48,-22.7L69.01,-22.82L69.88,-22.79L70.36,-22.49ZM377.2,124.8L376.6,124.9L376.4,124.6L376.2,124L376.4,123.4L376.4,122.9L375.9,122.1L376.4,121.6L376.8,122.2L377,122.2L377.7,122.6L377.5,123.3L377.5,123.5L377.2,124.2ZM352.1,-42L350.1,-41.64L348.8,-41.54L346.9,-40.92L345.9,-39.9L345.6,-39.38L344.1,-39.39L341.7,-39.24L340.6,-39.08L340.1,-39.04L339.2,-39.04L338.4,-39.23L337.9,-39.51L337.2,-40.15L335.8,-41.42L335.1,-42L352.1,-42ZM334.2,-42L332.5,-41.3L330.5,-40.38L327.6,-39.09L325.9,-38.16L325.4,-37.22L324.1,-35.53L323,-34.47L322.6,-34.34L320,-34.58L319,-34.77L317.5,-34.98L315.4,-35.34L314,-35.73L312.5,-35.78L310.4,-35.91L309,-36.2L307.7,-37.15L305.9,-38.29L304.1,-39.46L302.2,-40.66L300.1,-42L334.2,-42ZM26.74,-37.27L26.98,-37.22L28.4,-37.25L28.81,-36.75L28.78,-36L27.29,-33.8L27.01,-32.88L26.43,-32.12L25.94,-32.05L24.24,-32.5L23.93,-32.78L23.83,-33.15L24,-34.02L24.14,-34.29L24.94,-34.46L25.21,-34.61L25.66,-35.55L25.8,-36.4L26.15,-37.05ZM51.67,-21.94L51.7,-19.71L51.7,-17.83L51.7,-15.79L51.74,-13.67L51.74,-11.86L51.74,-10.71L49.76,-10.71L47.16,-10.71L44.53,-10.73L41.94,-10.73L40.62,-10.74L39.17,-10.74L38.72,-10.68L38.37,-10.39L37.99,-10.33L37.54,-10.58L37.02,-10.7L36.88,-10.95L36.6,-11.43L36.05,-11.48L35.77,-11.43L35.39,-11.16L34.98,-11.01L35.05,-11.23L34.18,-11.81L33.56,-11.86L33,-12.05L33.45,-13.55L34.04,-14.89L34.91,-15.91L35.36,-16.14L35.5,-16.64L36.19,-18.3L37.05,-19.63L36.78,-20.98L36.99,-23.26L37.23,-23.19L37.26,-22.97L37.33,-22.66L37.64,-22.39L38.72,-21.94L41.87,-21.94L43.74,-21.94L46.51,-21.94L49.45,-21.94ZM149.7,-42L149.9,-41.95L150,-42L153.6,-42L153.6,-42L158.4,-40.9L158.6,-41.08L158.8,-41.13L159.2,-41.59L159.4,-42L230.8,-42L230.8,-42L231.5,-41.3L233.1,-39.41L235.3,-38.47L236.1,-38L236.4,-37.54L236.6,-36.92L236.6,-36.25L236.9,-35.96L237.5,-36.06L238,-36.16L238.5,-35.96L238.9,-35.48L239.1,-35.09L239.3,-34.67L239.8,-34.42L240,-33.89L239.6,-33.25L239.2,-32.69L238.7,-31.53L238.5,-30.36L238.8,-29.98L239.2,-29.64L239.3,-29.31L239.4,-28.92L239.4,-28.49L238.7,-26.85L238.3,-25.43L238.3,-24.71L239.2,-24.18L240.5,-24.21L240.9,-23.88L241.3,-23.36L241.6,-23.11L242.2,-23.11L242.6,-22.92L242.7,-22.57L243.1,-22.17L243.5,-21.74L243.3,-21.18L243.3,-20.75L242.4,-19.58L240.3,-17.28L235.9,-13L235.8,-13L234.3,-12.48L233.5,-11.7L233,-10.45L231.7,-9.393L230.7,-8.975L230.6,-8.708L230.5,-7.573L230.6,-5.886L230.2,-5.118L229.5,-3.616L229.1,-2.681L228.8,-2.497L228.5,-2.03L228.4,-0.51L228.2,0.007L227.7,3.163L227.9,4.065L227.5,5.567L227.5,6.436L227.3,7.438L227,8.306L227.1,9.692L227.2,11.96L227.2,12.26L226.8,12.46L226.1,13.03L225.5,13.42L225,13.52L224.2,14.5L223.5,15.45L223,16.37L222.9,16.81L223,18.01L223.1,19.41L222.9,20.03L222.7,20.4L221.5,21.17L220.8,21.72L220.5,22L220.3,22.45L220.6,23.49L220.6,24.26L220.9,24.71L221.8,25.08L221.8,25.45L221.8,25.85L222.3,26.35L223.1,27.35L223.8,28.29L223.8,29.11L223.7,30.48L223.6,31.28L223.7,32.35L223.7,34.38L223.7,35.81L223.8,36.55L224.8,38.33L225.3,40.3L225.5,41.74L225.5,42.21L225.2,43.87L224.8,45.48L224.8,46.08L224.9,46.9L225.7,48.76L226.2,50.12L226.5,50.94L226.9,51.88L227.3,53.34L227.5,54.05L227.4,54.56L226.3,56.4L226.2,56.97L226.5,58.39L226.8,59.75L227.3,60.54L228.5,62.69L229.3,63.42L230.9,64.49L232.3,65.59L232.8,66.14L233.3,66.76L234.3,68.38L234.9,69.69L235.2,70.87L235.9,72.49L236.6,73.99L237.5,75.82L238.2,77.12L238.5,77.98L238.5,77.98L236.8,78.23L234.4,78.61L231.7,79.03L229,79.45L226.3,79.87L223.7,80.26L221.4,80.61L220.7,80.82L221,81.85L220.8,82.91L220.4,83.74L219.7,84.77L219.3,85.17L218.6,85.97L217.9,86.53L216.7,87.47L215.9,88.02L215.9,88.51L217.2,90.79L217.8,92.45L218.1,93.94L218.1,94.79L218,96.55L218,98.64L217.9,99.47L218.2,101L218.2,102.1L217.2,103.4L217,104.7L216.5,106.4L215.9,108.8L215.4,110.1L215.7,110.9L215.9,111.5L216.2,112.2L216.6,113.3L217.2,114L217.6,114.3L219.4,115.7L220.2,116.4L221.4,117.7L222.3,118.6L223.5,118.8L224.9,119.2L225.8,119.4L226.3,119.3L226.5,119L226.4,118.3L226.4,117.8L226.5,117.4L227,117.2L228.3,117.1L228.8,116.8L229.3,116.7L229.3,118.2L229.3,119.6L229.3,121.3L229.3,123.3L229.3,124.9L229.3,126.7L229.3,128.7L229.3,128.9L229.1,129.4L228.6,129.5L227.9,129.1L227.9,128.7L227.7,128L227.4,127.6L227,127.5L226.3,127.7L225.3,128.2L224.1,128.7L223.6,129L222.7,128.9L221.8,128.7L221.1,128.1L220.9,127.1L220.3,126.2L219.5,124.8L219,124.3L218.5,123.7L217.9,123.6L217.3,123.4L216.9,122.5L216.6,121.3L216.4,120.9L216,120.3L215.5,119.9L214.3,119.5L212.7,118.8L210.7,118L209.7,117.9L208.6,117.8L207.9,117.4L207.5,117.1L207.1,116L206.5,114.6L204.7,113L204.3,111.3L203.9,111L203.3,111.2L202.8,111.4L202.7,111.9L202.2,113.5L201.9,114.2L201.7,114.4L201.3,114.6L200.7,114.8L199.8,114.9L198.5,114.9L196.9,114.7L196,114.5L193.7,114.2L193,114.1L192.1,113.7L191.4,113.4L189.1,112.7L188.1,112.8L187.6,112.2L187.2,112L186.5,111.5L186.3,110.8L185.9,109.3L186,108.5L186.3,107.7L185.9,107.4L185.5,107.4L184.9,107.7L183.9,107.9L182,108.3L181.3,108.5L180.5,108.7L180,108.8L178.5,109.7L178,109.8L177.2,109.5L176.8,109L177.2,108.5L177.4,107.9L177.1,106.6L176.6,106.1L175.3,105.7L174.9,105.6L174.7,104.9L174.3,104.3L173.6,104.2L173.2,104.1L172.8,104.3L172.6,104.8L172.6,105.2L171.9,105.5L170.6,105.4L169.3,105.1L168.4,105.1L167.8,105.1L165.4,106.1L164.7,106.2L162.2,106.1L160.7,105.9L159.7,105.9L159,106.2L158.1,106.9L157.3,107.3L157,107.3L156.8,107L156.5,106.6L156.4,105.5L156,104.3L156.3,103.7L157,103.2L157.3,102.3L157,101L157,100L157.2,99.45L157,98.11L156.2,95.97L155.2,94.25L153.8,92.91L152.9,91.62L152.5,90.4L152.7,87.47L153.1,84.89L153.4,82.84L153.3,79.42L152.4,77.19L152.2,74.8L152.7,72.23L152.8,70.48L152.5,69.59L152.2,69.46L151.9,69.37L149.6,69.29L146.5,69.17L143.8,69.14L140.9,69.1L140.4,68.77L140.2,68.18L140.2,67.59L140.8,65.77L140.8,65.62L139.7,65.59L136.9,65.89L135,66.17L133.9,66.28L131.8,66.76L130.5,67.81L130.1,69.12L130.2,70.2L130.1,70.99L129.5,71.81L129,72.76L129,73.26L128.7,75.77L126.8,76.11L124.9,76.11L124.5,76.09L122.1,75.49L121.3,75.49L120.5,75.81L119,76.11L117.7,76.33L116.3,77.09L115.9,77.16L115,76.77L113.7,76.8L112.4,76.99L111.8,77.07L111.4,76.83L110.2,74.96L108.6,72.45L107.7,70.87L107.4,70.47L106.8,69.93L106.1,68.9L105.7,67.92L105.9,67L105.4,65.77L104.4,64.21L103.7,62.71L103.4,61.28L103.4,60.07L103.5,59.06L103.3,58.31L102.8,57.84L102.5,57.22L102.2,56.97L101.8,56.4L100.8,55.76L99.62,55.42L97.2,55.42L93.98,55.4L91.07,55.45L87.85,55.51L84.59,55.55L83.69,55.66L81.2,55.69L79.19,55.52L78.47,55.42L77.15,55.34L75.11,55.32L74,55.39L71.33,55.39L71.09,55.4L70.67,55.59L69.53,55.34L68.42,55.42L67.77,55.14L66.42,55.32L65.76,55.54L64.69,56.34L63.09,56.76L62.5,56.73L62.09,56.6L61.15,55.71L60.46,54.87L60.18,54.4L60.6,54.28L61.85,54.09L62.78,54.01L62.99,53.78L63.13,51.16L63.16,48.49L62.81,48.14L62.5,47.94L62.47,47.76L62.95,47.42L63.65,47.03L63.85,46.85L64.62,46.15L66.1,44.52L67.25,44.12L68.29,43.7L68.46,43.53L68.6,43.22L69.08,43.25L69.22,43.4L69.46,43.73L69.88,44.22L70.61,44.79L71.37,45.41L71.75,45.49L72.34,45.17L73.06,44.71L74.1,44.37L74.34,44.05L74.48,43.38L74.55,42.65L74.66,41.79L74.86,41.67L75.25,41.59L75.94,41.84L76.25,42.09L76.8,42.09L77.15,41.86L77.81,41.44L78.67,41.27L79.54,40.87L80.4,40.35L80.82,40.3L81.23,40.97L81.62,41.46L81.69,41.74L81.3,42.31L80.89,43.06L81.23,43.99L81.34,44.89L81.3,45.43L81.62,45.64L81.82,45.76L82.14,45.63L82.72,45.66L83.45,45.95L84.18,45.91L84.87,45.58L86.15,44.22L88.02,41.86L89.55,40.38L90.79,39.78L91.62,39.06L92.04,38.26L92.77,37.71L94.25,37.27L95.36,36.79L96.5,35.16L98.03,32.25L98.44,29.64L98.69,28.07L98.55,22.62L98.44,20.83L98.69,19.86L99.24,19.2L100.8,17.78L101.8,16.61L102.6,15.25L104.1,12.15L104.8,11.14L105.1,10.71L106,9.876L107.3,9.158L108.9,8.523L111.4,6.369L113.5,4.198L113.2,1.577L113.6,-0.577L114.8,-3.349L115.1,-6.254L114.8,-9.326L114.9,-11.85L116,-14.77L116.4,-15.86L116.6,-17.63L116.5,-20.45L117.9,-24.33L119.1,-26.63L120.6,-29.22L121.1,-30.8L121.8,-32.88L121.7,-34.56L121.6,-36.5L121.9,-39.14L121.8,-40.72L121.3,-42L149.7,-42ZM49.76,36.6L50.35,35.11L50.77,34.43L51.28,33.96L53.36,32.79L53.67,32.84L55.13,34.34L55.58,34.48L56.06,34.43L56.69,34.49L56.96,34.19L57.03,33.81L56.58,33.37L56.51,32.9L56.83,32.38L57,31.83L57.45,31.16L57.52,30.85L57.03,30.51L56.06,29.98L55.41,29.48L55.13,29.01L55.34,28.39L55.86,27.89L55.82,27.62L55.37,27.17L55.02,26.68L54.68,26.38L53.67,26.2L53.88,25.56L54.23,24.61L54.33,23.88L54.05,21.97L54.09,21.62L54.33,21.45L54.92,21.65L55.51,21.95L57.1,21.54L57.66,21.47L58.11,21.84L58.76,22.12L62.43,21.34L62.5,20.52L62.71,19.78L62.75,19.23L62.57,18.88L62.4,18.61L62.3,18.06L62.3,17.46L62.64,17.19L63.82,16.49L64.17,16.51L65,16.89L65.76,17.49L66.45,18.76L66.94,19.85L67.66,21.17L69.29,21.7L71.19,22.05L72.23,21.95L73.69,20.83L74.55,19.95L74.8,19.48L75.28,19.73L75.83,20.88L76.22,21.34L76.28,21.75L76.04,22.29L76.28,22.64L77.32,22.87L78.22,22.64L78.6,22.17L79.3,21.55L79.3,21.05L78.95,20.7L78.95,20.25L79.3,19.88L79.68,18.89L79.78,18.16L80.13,17.71L80.82,17.38L81.06,17.09L81.44,15.37L81.23,14.75L81.23,14.23L81.69,13.58L81.75,12.5L81.58,10.74L81.44,9.525L81.3,8.256L81.65,6.603L82,4.866L81.93,4.432L81.44,3.898L80.85,3.414L79.36,3.03L78.81,2.395L78.36,1.727L78.05,1.51L76.39,1.243L76.01,0.859L76.18,-0.21L76.32,-1.812L76.25,-2.931L76.56,-3.816L76.87,-4.484L77.6,-5.202L78.02,-6.037L78.22,-6.254L79.61,-6.387L80.09,-6.738L80.47,-7.089L80.65,-7.573L81.13,-8.358L81.55,-8.892L81.58,-9.259L81.51,-9.76L81.1,-10.74L80.58,-11.58L80.3,-11.86L79.68,-13.8L79.12,-14.27L78.02,-14.52L75.94,-14.74L74.69,-14.39L72.79,-13.73L71.33,-13.28L70.4,-13.03L69.84,-13.1L69.57,-13.4L69.95,-13.65L70.12,-14.24L69.88,-15.09L69.53,-15.86L69.33,-16.94L69.39,-18.3L69.78,-19.56L70.54,-21.22L70.57,-21.89L72.89,-21.87L75.18,-21.84L77.7,-21.85L80.13,-21.87L82.03,-21.82L82.93,-22.24L83.8,-21.6L84.21,-21.45L84.39,-21.5L84.7,-21.05L85.77,-21.1L85.94,-21L86.05,-20.45L87.05,-20.47L87.54,-20.33L87.95,-20.35L88.54,-20.67L88.96,-20.57L89.72,-20.15L90.24,-19.8L91,-19.91L92.77,-19.85L94.11,-19.51L95.47,-18.56L96.37,-18.01L97.16,-17.21L97.47,-17.36L97.75,-17.58L97.92,-17.68L97.89,-18.36L97.44,-19.55L97.27,-20.53L97.37,-21.35L97.72,-21.94L98.31,-22.3L98.37,-22.86L98.37,-22.92L99.03,-24.24L99.69,-25.55L100.5,-27.08L101.1,-28.34L101,-28.96L101.1,-29.89L101.2,-30.93L101.2,-31.55L101.4,-31.96L101.8,-33.52L102.1,-34.41L102.5,-34.83L103.1,-35.11L103.9,-35.13L106.2,-35.31L108.4,-35.71L109.1,-35.9L110.4,-36.55L110.9,-36.58L111.4,-36.33L114,-35.58L114.7,-35.29L115,-35.33L115.3,-35.28L115.9,-35.26L116.6,-35.36L116.9,-35.26L117.4,-34.77L117.7,-34.83L118.1,-35.18L118.9,-35.55L120.4,-35.96L120.6,-35.78L121.2,-34.88L121.7,-34.56L121.8,-32.88L121.1,-30.8L120.6,-29.22L119.1,-26.63L117.9,-24.33L116.5,-20.45L116.6,-17.63L116.4,-15.86L116,-14.77L114.9,-11.85L114.8,-9.326L115.1,-6.254L114.8,-3.349L113.6,-0.577L113.2,1.577L113.5,4.198L111.4,6.369L108.9,8.523L107.3,9.158L106,9.876L105.1,10.71L104.8,11.14L104.1,12.15L102.6,15.25L101.8,16.61L100.8,17.78L99.24,19.2L98.69,19.86L98.44,20.83L98.55,22.62L98.69,28.07L98.44,29.64L98.03,32.25L96.5,35.16L95.36,36.79L94.25,37.27L92.77,37.71L92.04,38.26L91.62,39.06L90.79,39.78L89.55,40.38L88.02,41.86L86.15,44.22L84.87,45.58L84.18,45.91L83.45,45.95L82.72,45.66L82.14,45.63L81.82,45.76L81.62,45.64L81.3,45.43L81.34,44.89L81.23,43.99L80.89,43.06L81.3,42.31L81.69,41.74L81.62,41.46L81.23,40.97L80.82,40.3L80.4,40.35L79.54,40.87L78.67,41.27L77.81,41.44L77.15,41.86L76.8,42.09L76.25,42.09L75.94,41.84L75.25,41.59L74.86,41.67L74.66,41.79L74.55,42.65L74.48,43.38L74.34,44.05L74.1,44.37L73.06,44.71L72.34,45.17L71.75,45.49L71.37,45.41L70.61,44.79L69.88,44.22L69.46,43.73L69.22,43.4L69.08,43.25L68.6,43.22L68.46,43.53L68.22,43.38L67.49,42.73L66.62,41.71L66.28,41.56L65.83,41.57L65.07,41.94L64.3,42.53L62.95,43.08L61.85,43.38L61.74,43.75L61.47,44.4L61.08,44.79L60.12,44.92L59.73,45.49L58.87,46.6L58.31,47.1L58.18,46.88L57.83,46.62L57.1,45.76L56.41,44.71L56.24,44.22L56.03,43.94L55.99,42.86L54.96,41.61L52.29,39.35L52.01,38.68ZM370.5,116L371,117.3L371,118.4L370.8,118.7L370.3,118.5L369.5,117.7L368,116.9L368.7,116.8L369.1,116.9L369.5,116.8L369.8,116.4L369.9,116.1L370.2,115.9ZM363.9,118.2L364.5,118.8L362.7,118.5L362.4,118L362.3,117.6L363,117.7ZM360.8,114.2L360.6,114.3L359.7,113.8L359.2,113.6L358.5,112.7L358.7,109.6L359,109.2L359.2,109L359.6,109L360.1,109.4L359.9,111.4L360.6,112.7L361,113.8ZM159.4,-42L159.2,-41.59L158.8,-41.13L158.6,-41.08L158.4,-40.9L153.6,-42L159.4,-42ZM150,-42L149.9,-41.95L149.7,-42L150,-42ZM121.3,-42L121.8,-40.72L121.9,-39.14L121.6,-36.5L121.7,-34.56L121.2,-34.88L120.6,-35.78L120.4,-35.96L118.9,-35.55L118.1,-35.18L117.7,-34.83L117.4,-34.77L116.9,-35.26L116.6,-35.36L115.9,-35.26L115.3,-35.28L115,-35.33L114.7,-35.29L114,-35.58L111.4,-36.33L110.9,-36.58L110.4,-36.55L109.1,-35.9L108.4,-35.71L106.2,-35.31L103.9,-35.13L103.1,-35.11L102.5,-34.83L102.1,-34.41L101.8,-33.52L101.4,-31.96L101.2,-31.55L101.2,-30.93L101.1,-29.89L101,-28.96L101.1,-28.34L100.5,-27.08L99.69,-25.55L99.03,-24.24L98.37,-22.92L97.92,-23.82L97.65,-24.88L97.51,-26.1L97.58,-26.41L97.41,-26.78L97.41,-26.85L97.16,-27.77L97.41,-28.4L97.23,-29.07L96.68,-29.73L96.19,-30.23L95.92,-30.68L95.67,-30.88L95.15,-30.95L94.43,-31.18L93.49,-32.17L92.56,-33.12L91.38,-34.36L90.44,-35.41L89.3,-36.72L88.23,-37.92L87.57,-39.08L87.33,-39.74L87.64,-39.81L88.09,-39.83L88.3,-39.95L88.3,-40.26L87.81,-41.17L87.67,-42L121.3,-42ZM87.67,-42L87.81,-41.17L88.3,-40.26L88.3,-39.95L88.09,-39.83L87.64,-39.81L87.33,-39.74L87.57,-39.08L88.23,-37.92L89.3,-36.72L90.44,-35.41L91.38,-34.36L92.56,-33.12L93.49,-32.17L94.43,-31.18L95.15,-30.95L95.67,-30.88L95.92,-30.68L96.19,-30.23L96.68,-29.73L97.23,-29.07L97.41,-28.4L97.16,-27.77L97.41,-26.85L97.41,-26.78L97.58,-26.41L97.51,-26.1L97.65,-24.88L97.92,-23.82L98.37,-22.92L98.37,-22.86L98.31,-22.3L97.72,-21.94L97.37,-21.35L97.27,-20.53L97.44,-19.55L97.89,-18.36L97.92,-17.68L97.75,-17.58L97.47,-17.36L97.16,-17.21L96.37,-18.01L95.47,-18.56L94.11,-19.51L92.77,-19.85L91,-19.91L90.24,-19.8L89.72,-20.15L88.96,-20.57L88.54,-20.67L87.95,-20.35L87.54,-20.33L87.05,-20.47L86.05,-20.45L85.94,-21L85.77,-21.1L84.7,-21.05L84.39,-21.5L84.21,-21.45L83.8,-21.6L82.93,-22.24L82.03,-21.82L80.13,-21.87L77.7,-21.85L75.18,-21.84L72.89,-21.87L70.57,-21.89L70.36,-22.49L69.88,-22.79L69.01,-22.82L66.48,-22.7L64.55,-22.8L63.92,-22.87L63.23,-23.04L61.6,-23.17L59.59,-23.07L59.15,-23.09L57.55,-23.07L53.88,-23.24L51.87,-23.21L51.91,-22.84L51.77,-22.57L51.67,-21.94L49.45,-21.94L46.51,-21.94L43.74,-21.94L41.87,-21.94L38.72,-21.94L37.64,-22.39L37.33,-22.66L37.26,-22.97L37.23,-23.19L36.99,-23.26L37.19,-25.51L37.61,-27.4L37.78,-29.16L38.41,-30.71L38.09,-32.27L37.71,-32.94L35.74,-35.13L36.64,-35.96L35.46,-35.85L35.22,-36.67L34.63,-37.64L34.98,-37.8L35.32,-38.34L36.4,-38.17L36.36,-38.44L35.43,-39.26L35.53,-39.68L35.91,-40.13L35.7,-40.33L35.05,-39.84L34.56,-39.86L34.22,-40.18L33.94,-40.23L34.11,-39.59L33.73,-39.04L33.38,-38.84L32.76,-38.87L32.28,-39.01L32.14,-39.33L31.69,-39.58L30.37,-39.98L29.3,-40.48L29.06,-41.82L28.93,-42L87.67,-42ZM236.6,22L236.4,22.25L235.5,24.06L235.3,24.33L235.4,24.49L235.8,24.83L235.6,25.4L235.5,25.55L235.3,26.08L235.4,26.57L235.6,26.75L236.2,26.98L237.1,27.15L238.1,27.55L238.7,27.64L238.9,27.92L238.9,28.44L239.1,28.91L239.1,29.71L238.8,30.43L237.8,30.76L237.3,31.13L237.1,31.32L237.3,31.52L237.3,31.82L236.3,32.52L235.3,33.46L235.1,34.08L234.9,34.81L234.6,35.3L233.8,35.97L233.1,37.34L232.7,38.24L230.7,40.38L229,41.44L228.5,41.81L225.5,41.74L225.3,40.3L224.8,38.33L223.8,36.55L223.7,35.81L223.7,34.38L223.7,32.35L223.6,31.28L223.7,30.48L223.8,29.11L223.8,28.29L223.1,27.35L222.3,26.35L221.8,25.85L221.8,25.45L221.8,25.08L221.9,24.54L222.3,23.96L222.6,23.89L223.5,24.13L224.5,24.63L225,25.76L225.4,25.93L226.1,25.93L227.9,25.78L228.4,25.8L229.2,25.53L230,25.05L230.2,24.54L230.4,23.42L230.6,21.42L231,21.4L232.1,22.1L232.4,22.15L232.6,22.14L233,21.79L233.5,21.48L233.9,21.5L235.2,21.17L235.9,21.77L236.3,21.95ZM68.46,43.53L68.29,43.7L67.25,44.12L66.1,44.52L64.62,46.15L63.85,46.85L63.65,47.03L62.95,47.42L62.47,47.76L62.5,47.94L62.81,48.14L63.16,48.49L63.13,51.16L62.99,53.78L62.78,54.01L61.85,54.09L60.6,54.28L60.18,54.4L60.05,54.13L59.63,53.17L59.87,52.27L60.12,51.58L59.84,50.2L59.21,48.96L58.52,47.4L58.31,47.1L58.87,46.6L59.73,45.49L60.12,44.92L61.08,44.79L61.47,44.4L61.74,43.75L61.85,43.38L62.95,43.08L64.3,42.53L65.07,41.94L65.83,41.57L66.28,41.56L66.62,41.71L67.49,42.73L68.22,43.38ZM173.2,104.1L173.4,105.4L173.6,107.2L173.8,108.5L174,109L174,109.3L173.8,109.7L173.7,110.4L173.4,111.1L173.3,111.6L173.4,112.5L173.3,113.7L173.2,115.1L173.2,116.3L173.5,118.6L173.5,119.3L173,120.5L172.7,121.4L172.5,122.5L172.4,123L173.2,124.6L173.2,124.9L172.6,125L172.1,125L170,125L167.2,125L164.3,125L161.5,125L158.8,125L156.3,125L154.1,125L154.1,126.6L154.1,129.7L154.1,132.9L154.1,136.1L154.1,139.3L154.1,142.5L154.1,145.7L154.1,148.9L154.1,152.1L154.1,154.4L154.7,157.5L155.7,160.8L156.2,161.1L157.2,161.7L158.7,163L159.6,164L161.3,165.6L163.5,167.7L165.7,169.6L167.6,171.3L164.6,171.9L160.3,172.7L157.4,173.3L153.9,174L151.6,174.4L148.7,174.9L148.2,174.9L147.5,174.6L145.8,174.5L143.8,175L142.2,175.1L141.1,174.9L140,174.5L138.8,173.8L136.9,173.6L134.2,173.8L131.6,173.6L129.1,173.2L127.3,173L126.2,173.1L125,173L123.8,172.6L122.7,171.9L121.5,170.6L120.5,169.3L120.3,169.1L119.9,168.9L119.7,168.9L116.9,168.9L114.3,168.8L112.7,168.8L109.1,168.8L105.4,168.8L101.7,168.8L98.03,168.8L94.36,168.8L90.69,168.8L86.98,168.8L83.31,168.8L81.37,168.8L79.54,168.9L77.53,169L77.25,168.9L76.77,168.8L76.46,168.5L75.38,167.8L74.41,167.2L73.17,166.3L72.34,165.3L71.64,164.9L70.4,164.8L69.46,164.6L68.74,164.5L67.39,165L66.38,165.5L65.69,165.9L64.44,166.5L63.4,167L61.6,166.9L61.19,167L60.18,167L59.25,166.5L58.28,166.6L57.21,167.1L55.65,167.4L56.03,163.6L56.41,161.9L56.41,159.9L56.17,154.7L55.92,154L55.75,153.2L56.69,152.5L57.17,152L57.83,151.2L58.28,150L58.83,147.3L60.84,141.2L61.78,135.3L62.99,132.5L63.44,129.4L66.76,125.3L67.59,122.8L69.33,121.6L71.75,120.3L73.51,118L74.34,116.4L75.31,113.3L75.28,110.2L75.9,105.9L75.77,104.7L74.86,103L74.69,101.8L73.86,100.6L72.92,99.69L72.51,98.09L70.95,95.57L70.5,93.89L69.78,92.69L69.64,91.2L69.25,89.62L68.49,88.07L67.73,86.29L67.73,85.75L68.22,85.07L68.63,84.85L68.49,85.19L68.22,85.58L68.29,85.9L71.19,82.79L71.4,82.19L71.3,81.49L71.26,80.67L71.4,79.7L68.63,73.97L66.42,68.65L66.07,65.97L63.16,62.44L62.02,60.14L61.36,58.53L60.84,57.92L61.05,57.62L61.78,57.54L63.47,57.17L65.72,56.76L67.84,55.82L68.42,55.42L69.53,55.34L70.67,55.59L71.09,55.4L71.33,55.39L74,55.39L75.11,55.32L77.15,55.34L78.47,55.42L79.19,55.52L81.2,55.69L83.69,55.66L84.59,55.55L87.85,55.51L91.07,55.45L93.98,55.4L97.2,55.42L99.62,55.42L100.8,55.76L101.8,56.4L102.2,56.97L102.5,57.22L102.8,57.84L103.3,58.31L103.5,59.06L103.4,60.07L103.4,61.28L103.7,62.71L104.4,64.21L105.4,65.77L105.9,67L105.7,67.92L106.1,68.9L106.8,69.93L107.4,70.47L107.7,70.87L108.6,72.45L110.2,74.96L111.4,76.83L111.8,77.07L112.4,76.99L113.7,76.8L115,76.77L115.9,77.16L116.3,77.09L117.7,76.33L119,76.11L120.5,75.81L121.3,75.49L122.1,75.49L124.5,76.09L124.9,76.11L126.8,76.11L128.7,75.77L129,73.26L129,72.76L129.5,71.81L130.1,70.99L130.2,70.2L130.1,69.12L130.5,67.81L131.8,66.76L133.9,66.28L135,66.17L136.9,65.89L139.7,65.59L140.8,65.62L140.8,65.77L140.2,67.59L140.2,68.18L140.4,68.77L140.9,69.1L143.8,69.14L146.5,69.17L149.6,69.29L151.9,69.37L152.2,69.46L152.5,69.59L152.8,70.48L152.7,72.23L152.2,74.8L152.4,77.19L153.3,79.42L153.4,82.84L153.1,84.89L152.7,87.47L152.5,90.4L152.9,91.62L153.8,92.91L155.2,94.25L156.2,95.97L157,98.11L157.2,99.45L157,100L157,101L157.3,102.3L157,103.2L156.3,103.7L156,104.3L156.4,105.5L156.5,106.6L156.8,107L157,107.3L157.3,107.3L158.1,106.9L159,106.2L159.7,105.9L160.7,105.9L162.2,106.1L164.7,106.2L165.4,106.1L167.8,105.1L168.4,105.1L169.3,105.1L170.6,105.4L171.9,105.5L172.6,105.2L172.6,104.8L172.8,104.3Z" fill="#D8E2E7" stroke="#3F464B" stroke-width="0.85" vector-effect="non-scaling-stroke"/><path d="M185.7,172.9L185.5,173.4L185.3,174.1L185.5,174.6L185.9,175.4L186.4,176L186.9,176.4L187.4,177.3L187.9,178.5L188.5,179.4L190.5,181.5L190.7,182.3L191,183L192.2,184.5L192.4,184.9L192.3,185.9L193.6,188.9L194.4,190.6L195.1,190.9L197.3,192.7L199.3,194.2L201.6,195.2L203.3,195.8L204.1,196.3L204.5,196.8L204.9,197.7L205.1,199.2L205.1,200.2L206.9,200.2L208.4,200.3L208.9,200.5L209.1,200.7L209.1,201.4L209.1,202.4L209.2,203.2L209,204L208.9,205L208.8,206.2L209.1,206.7L210.5,208.3L211.1,209.3L211.8,210.8L212.1,211.3L212.5,211.5L213.8,211.7L217.1,212.3L219.2,212.9L220.9,213.5L221.5,213.6L221.9,213.8L222,213.9L221.8,215.3L221.8,215.7L222.1,216.1L222.3,216.4L222.7,216.6L223.9,216.7L224.7,217.5L225.1,217.9L222.9,218.1L221.8,218.8L221.1,220L220.1,220.9L218.7,221.5L217.2,221.9L215.7,222.1L214.1,223.1L212.3,225L211.4,226.2L211.4,226.7L211,227.1L210.2,227.4L209.8,227.9L209.7,228.4L209.3,228.6L208.6,228.6L208.1,229L207.8,229.7L207.2,230.2L206.2,230.3L205.4,230.8L204.7,231.4L204.2,231.8L203.8,231.8L203.2,232.4L202.3,233.7L202.1,234.3L200.8,239.3L200.1,239.9L198.7,241L197.6,242.2L197.1,242.9L196.6,243.3L194,243.9L193.1,244.2L191.9,244.7L191.7,245.1L191.4,246.7L190.6,248.9L189.9,250.6L189.5,252L188.8,253.8L188.2,254.4L187.4,255L186.5,255.2L185.2,255.4L184.1,255.4L183.2,255.4L181.9,256L180.7,256.1L178.9,255.7L177.4,255.3L176.7,255.3L175.4,254.1L174.5,254.1L173.3,254L172.5,253.8L171.8,253.2L170.4,252L168.9,251L167.7,250.5L166.5,250.2L165.4,250.4L164.5,250.7L164.1,250.8L163.5,251.3L162.8,252.2L162.2,253.7L162,254.6L161.3,256.5L160.5,258.8L160.1,259.4L159.6,259.9L158.8,260.4L156.4,262.2L155.2,264.2L154.4,264.9L153.5,265.1L152.7,265.3L152.3,265.6L151.8,266.7L151.4,267.1L150.9,267.2L149.5,267.1L149.1,267L145.4,267.2L144.3,266.8L143.5,266.7L142.2,267.1L141.7,266.9L141.2,266L141,264.3L141.1,262.8L141.8,261.7L142.3,260.8L142.9,259.8L143,259.3L142.9,258.9L142.8,258L142.7,257.1L141.9,255.2L140.9,252.6L139.6,249.7L139.2,248.9L138.4,247.7L135.4,245.3L134.9,245L134.9,244.7L134.9,242.5L134.9,239.4L134.9,236.4L134.9,233.4L134.9,230.4L134.9,227.4L134.9,224.4L134.9,221.4L134.9,218.4L134.9,215.9L137,215.9L139.8,215.9L143,215.9L144.4,215.9L144.5,215.5L144.5,213.7L144.5,209.4L144.5,205.2L144.5,201L144.5,196.9L144.5,192.7L144.5,188.5L144.5,184.4L144.5,180.2L144.5,178.2L146.9,178.1L149.8,177.6L154.4,177L158.7,176.1L161.6,175.6L164.9,175.1L166,174.9L166.3,175L166.8,175.2L168.3,177.3L169.3,178.9L169.5,179.5L169.7,179.6L170.1,179.5L170.7,179.2L172.2,177.7L172.6,177.3L173.6,176.5L174.8,175.7L175.9,175.2L177,174.7L177.5,174.8L178.1,175.2L178.6,175.5L181.2,173.6L182.3,173.1L185.2,172.8Z" fill="#8B341D" stroke="#2C160F" stroke-width="1.1" vector-effect="non-scaling-stroke"/></svg>