<svg xmlns="http://www.w3.org/2000/svg" viewBox="0 0 360 440" width="360" height="440" role="img" aria-label="Regional map with Belize highlighted"><rect width="100%" height="100%" fill="#7FA6D6"/><path d="M310.4,-42L311.1,-38.19L311.9,-35.51L313.5,-28.29L316.1,-21.31L319.8,-12.89L325.9,-2.752L326.6,-1.328L325.8,-0.083L325.5,1.161L325.5,3.08L325.7,4.926L326.4,7.195L327.8,10.67L327,9.958L325,4.997L324.8,2.085L325.1,-2.076L324.6,-1.969L324.2,-0.617L324.1,0.948L323.5,1.588L322.8,-0.83L322.9,-1.933L323.6,-3.215L323.4,-3.678L322.2,-4.319L322,-5.353L322.1,-6.387L321.5,-6.922L320.9,-6.887L321.3,-4.391L321.8,-2.859L322.6,0.841L323.7,3.08L324.3,4.926L332,24.74L333.8,27.27L334.4,29.06L335.1,32.82L335.3,37.65L334,46.44L333.7,52.39L333.6,52.22L333.5,51.59L333.1,51.52L332.1,54.23L330.6,56.7L330.1,60.51L329.4,62.45L327.3,64.45L326,64.42L322.8,65.91L320.5,65.53L317.8,66.39L316,66.29L315,64.49L315.2,63.69L315.6,62.86L316.3,62.69L318.6,64.56L319.1,63.76L318.3,62.83L317,62.31L315.9,61.72L313.9,57.39L311.8,54.44L311.4,52.46L307.8,51.25L305.1,49.4L303.4,46.13L302.4,40.34L301.2,39.67L300.7,39.22L301.9,37.05L303.1,35.27L302.1,35.72L301.4,36.39L300.5,37.96L299.9,38.21L299.3,37.96L298.6,34.92L298.8,31.13L299.7,29.73L298.2,29.66L296.7,30.22L296.9,31.48L296.7,32.19L295.6,31.98L294.7,31.55L293.6,30.22L292,27.73L288.8,20.8L288.2,19.85L287.1,18.83L287.6,18.51L288.5,18.3L290.6,15.19L292.2,13.28L292.8,11.97L292.7,11.41L291.9,10.6L291,11.3L290.6,11.13L289.5,9.463L288.5,9.002L287.8,9.357L288.6,10.7L289.2,11.2L289,13.18L288.7,13.81L288.1,14.38L287.1,14.06L286.6,14.56L286,14.03L285.5,13.18L284.8,11.76L286.5,3.79L288.1,-1.328L288.3,-7.136L288.4,-7.993L288.3,-9.564L286.1,-12.93L276.7,-21.2L269.4,-31.03L263.1,-34.76L258.4,-33.92L257.6,-33.16L257.2,-32.23L257.5,-31.11L257.1,-30.64L255.8,-30.71L254.1,-30.46L249.5,-27.86L247.9,-27.97L246.5,-27.28L245.4,-26.78L242.6,-26.49L240.2,-25.95L239.2,-26.24L238.5,-27.75L238.5,-29.3L239,-28.11L239.9,-27.18L240.3,-27.54L240.4,-28.36L239.5,-29.99L236.9,-32.08L233.8,-35.12L234.7,-35.01L234.9,-35.66L234,-36.53L234.4,-37.5L235.1,-38.55L233.8,-38.41L232.6,-37.65L232.5,-36.78L232.3,-36.06L231.7,-36.16L230.5,-37.03L224.8,-39.5L219.8,-40.91L223.6,-41.53L225.7,-41.02L225.5,-41.78L225.2,-42L310.4,-42ZM218,-42L217,-41.42L215.7,-40.98L210.5,-40.33L206.3,-39.64L207,-40.37L207.7,-40.84L210.2,-41.56L210.3,-42L218,-42ZM206.6,-42L205.4,-40.84L204.8,-39.64L201.3,-38.7L200.9,-39.02L201.9,-40.15L201.9,-40.8L200.6,-40.26L198.7,-38.08L191.8,-37.4L192.1,-37.87L193.6,-37.98L195.7,-38.66L195.2,-39.82L194.5,-41.05L193.8,-41.2L193.2,-41.96L193.2,-42L206.6,-42ZM190,-42L189.8,-41.24L189.5,-40.22L187.4,-40.15L185.6,-40.37L179.4,-39.97L177.1,-41.05L176.2,-41.27L175.6,-41.24L172.9,-40.26L169.8,-39.5L169.1,-39.75L168.1,-39.79L165.9,-37.21L163.3,-36.02L156.7,-38.19L155,-39.9L153.6,-40.26L151.8,-40.48L149.9,-38.37L148.4,-35.51L150.7,-33.92L152.7,-33.16L155.9,-33.81L157.8,-35.19L159.2,-35.15L160,-35.44L160.6,-36.16L161.8,-35.59L161.9,-35.01L161,-34.21L159.9,-33.53L159.2,-32.73L160.5,-31.11L162.5,-30.57L163.3,-30.82L163.7,-32.62L165,-33.78L166.6,-33.53L166.4,-32.8L166.6,-32.12L167.4,-30.93L167.4,-29.23L167.5,-28.83L165.7,-28.11L164.3,-27.82L163.2,-26.85L163.8,-26.31L162.7,-25.81L162,-26.02L161.6,-25.81L161.4,-25.23L160.9,-24.66L161.7,-23L163.4,-21.92L164.6,-20.56L169.4,-18.76L170.6,-18.8L171.8,-17.01L172.7,-16.36L173.6,-16.07L173.5,-14.82L171.9,-13.93L171.4,-12.82L171,-12.21L170.3,-13L169.6,-13.53L167.9,-11.85L167.1,-11.49L167.5,-13.32L166.8,-14.03L165.9,-15.9L164.5,-17.01L163.5,-17.4L162.7,-18.12L161.8,-18.41L160.9,-18.33L159.6,-18.76L159.5,-19.73L159.1,-20.45L158.1,-21.35L153,-22.97L153,-22.28L153.3,-21.78L154.1,-21.46L154.9,-20.77L154.9,-18.84L154.5,-18.01L154.4,-16.83L154.1,-15.61L153.4,-14.68L152,-14.03L151.4,-14.57L150.4,-17.15L149,-17.98L146.8,-18.05L145.3,-17.47L143.7,-14.96L142.3,-14.57L137.8,-15.86L132.6,-17.83L132.7,-18.48L133.6,-18.69L135.1,-18.44L135.1,-19.12L133.4,-21.31L133.2,-22.32L133.4,-23.54L132.8,-23.5L131.9,-22.5L128.6,-23.36L127.7,-24.37L125.7,-27.28L123,-27.39L121.8,-29.16L119.5,-28.44L118.4,-27.61L117.4,-26.35L117.8,-25.66L118.8,-24.62L118.3,-24.12L115.1,-23.36L107.7,-24.23L105.5,-24.98L102.7,-26.64L98.67,-27.97L96.72,-28.18L94.84,-27.93L89.26,-27.79L88.03,-27.43L86.93,-26.85L86.21,-27.5L85.89,-28.62L86.54,-28.8L87.25,-29.48L87.9,-30.78L87.96,-31.58L87.51,-32.12L86.67,-32.15L84.79,-28.73L85.82,-26.82L85.76,-26.13L82,-25.74L73.44,-21.89L70.13,-19.8L70.26,-20.49L74.28,-23.18L72.92,-23.61L70.58,-22.93L69.74,-23.18L70.71,-25.41L70.45,-27.39L68.77,-27.43L67.73,-25.88L67.01,-25.92L66.11,-26.6L65.39,-26.38L65.91,-22.86L66.95,-21.39L67.79,-19.52L65.46,-17.22L63.25,-15.32L63.06,-13.5L60.85,-11.14L58.78,-9.778L53.98,-6.637L52.55,-5.959L50.41,-4.462L47.36,-3.393L44.51,-1.649L43.53,-1.364L45.35,-2.859L47.56,-4.319L45.67,-4.106L42.82,-4.783L41.01,-4.818L41.01,-4.284L39.64,-3.536L38.28,-4.64L37.7,-5.389L37.37,-6.031L36.79,-6.173L36.21,-5.888L38.28,-1.364L39.19,-1.186L40.16,-0.723L38.93,0.308L37.63,1.126L35.56,1.659L33.81,-0.012L33.42,2.085L33.22,4.145L32.64,4.642L31.67,5.422L31.21,4.855L30.95,4.038L30.37,4.748L29.46,5.281L28.03,5.387L26.93,5.671L26.93,6.522L27.19,7.373L29.14,6.699L28.42,8.896L26.67,11.09L25.18,11.59L22.98,11.27L22.46,11.48L21.94,11.94L24.53,15.33L22.91,20.45L21.81,22.28L21.09,22.53L20.32,22.6L17.46,20.94L15.9,19.67L17.27,23.12L21.03,24.14L21.22,25.45L21.16,26.54L20.45,27.87L19.73,29.59L20.25,30.82L20.83,33.8L21.35,35.16L21.87,39.33L22.52,41.11L25.89,47.7L27.06,47.77L27.19,48.46L27.13,49.85L24.66,50.24L23.62,50.86L23.43,51.38L23.3,51.66L22.98,51.63L21.81,51.25L19.15,49.4L15.32,48.22L10.26,47.77L6.76,46.83L4.944,45.4L2.998,44.56L0.922,44.28L-0.764,43.52L-2.061,42.22L-4.007,41.42L-6.537,41.07L-8.223,40.09L-9.39,37.72L-9.39,37.68L-10.43,33.76L-11.72,31.27L-14.26,28.19L-14.51,27.8L-14.51,27.27L-14.26,25.48L-14.51,24.21L-15.29,23.16L-15.49,22.03L-15.03,20.87L-15.03,19.46L-15.42,17.84L-17.04,16.04L-19.9,14.13L-22.3,11.34L-24.31,7.656L-26.32,5.103L-28.27,3.683L-29.63,1.943L-30.34,-0.119L-30.6,-1.328L-30.27,-1.649L-31.51,-3.927L-34.23,-8.207L-35.79,-11.31L-36.18,-13.28L-37.93,-15.64L-40.98,-18.37L-42,-19.48L-42,-42ZM299.3,39.95L298.7,40.48L297.4,40.09L296.7,39.4L296.4,38.07L297.5,39.5L297.9,39.81ZM298.5,37.96L298.4,39.15L297.5,37.16L296.9,34.99L297.8,35.69ZM329.1,66.22L325.5,69.95L325.9,69.01L327.4,67.01L327.8,66.05L328.7,65.46L329.6,64.39L329.7,63.11L331,62.24L331.4,62.1ZM123.6,-22.21L122.9,-21.92L119.9,-23.72L119.7,-24.48L121.2,-25.2L122.1,-25.12L123.5,-24.23L124,-23.94L124.2,-23.58L124.1,-23ZM29.46,10.63L29.07,10.67L29.98,9.002L30.11,8.329L31.54,6.238L32.31,5.919L32.64,6.805L31.15,8.294ZM34,5.493L33.35,5.6L34.13,4.5L35.49,3.932L38.41,1.801L39.58,1.659L40.23,0.948L40.49,0.841L40.29,1.73L37.96,3.009ZM23.36,22.88L22.78,24.04L22.98,22.28L24.4,18.33L27.39,13.14L28.68,12.26L25.25,17.98ZM65.07,-14.89L64.16,-14.68L68.12,-17.87L68.89,-18.91L69.93,-18.87L68.18,-17.08ZM26.67,45.88L26.41,46.79L24.92,42.43L22.52,32.57L22.39,26.92L22.78,24.95L23.43,32.96L26.09,43.06ZM312,75.98L311.4,76.39L311.1,76.25L311.1,75.67L310.4,74.32L310.4,73.98L312.2,75.29L312.2,75.63ZM321.1,72.94L320.7,72.94L320.9,72.64L321.6,72.08L321.8,72.29L321.8,72.6ZM324.5,70.95L324.1,71.05L324.8,70.19L325,70.26ZM317.2,74.67L316.4,75.11L315.6,74.77L316.5,74.32L319.3,73.81L318.2,74.43ZM307.8,76.97L306.6,77.18L307.6,76.39L307.9,75.22L308.4,76.11L308.4,76.7ZM332.7,23.3L332.9,24.78L331.3,21.33L329.2,15.9L328.1,11.66L328.9,12.82L329.6,15.16ZM303.9,78.07L303.4,78.11L303.4,77.8L304.1,77.42L304.7,77.45L304.7,77.87ZM175.8,-26.6L174.9,-25.52L174.9,-25.95L175.7,-27.03L176.2,-27.43ZM181.8,-37.07L181.6,-36.85L180,-37.29L179,-37.69L178.9,-38.08L181.6,-37.36ZM190.6,-37.83L189,-37.4L186.7,-37.43L186.2,-37.58L187.1,-37.87L189.9,-38.26ZM169.8,-34.32L169.9,-33.34L169,-33.85L167.7,-33.89L168.3,-34.21L168.7,-34.54L168.9,-34.9L170.5,-36.09L170.1,-35.19ZM177,-28.58L176.5,-27.93L177,-31.07L176.2,-33.74L177,-32.59L177.3,-31.18ZM247.6,-25.16L245.8,-24.41L243.8,-24.94L245.1,-25.05L245.9,-24.84L248.2,-25.92L249.3,-26.71L250.7,-27.03ZM311.3,179L311.9,179.4L312.6,179.2L312.9,178.8L315.6,179.1L316.1,179.9L313.9,179.9L313,180.4L312.5,180.5L310.7,180.4L310.4,178.5L311,178.3ZM336.4,172.2L336.2,172.3L335.7,172.2L334.3,173L333.8,172.9L333.9,172.6L334.2,172.4L334.5,172.2L334.8,172.1L335.7,172L336.2,171.9L336.4,172.1ZM339.2,172.1L338.4,172.4L337.7,172.3L339.2,171.5L339.6,171.2L339.9,171.1L340.2,171.1L340.7,171.2L340.7,171.3ZM383.3,377.9L383,378.1L382,379.5L381.5,380.8L382.8,382.1L383.1,383.5L383.9,385L385,386.4L386.3,389.2L386.5,390.4L386.2,391.1L385,391.5L383.9,392.8L383.5,394.4L383.7,395.2L380.4,397.7L379.5,398.2L378.9,397.8L378.2,396.5L377.4,395.5L376.8,395.1L376.6,395.1L376.3,395.3L376.2,395.9L376.7,398.3L376.3,399.2L375.2,400L373.9,403.9L373.3,403.4L369,398.2L365.2,391.7L364.5,388.7L365.4,388.6L366.3,388.6L366.9,388.2L367.4,387.3L367,385.3L368.8,383.8L369.5,382.8L370,382.9L371.2,384.7L372.9,385.6L375,387.1L376.4,387.4L374.7,385.9L371.9,383.9L371,382.6L370.2,380.8L369.1,381.6L368.6,382.3L368,382.6L367.5,382.2L367.4,381.6L365.8,381.5L365.3,380.9L364.9,380.7L365,381.8L365.4,382.5L365.2,383.3L364.7,383.4L364.2,382.5L363.6,381.7L362.8,378.4L360.9,376.9L360,376.4L359.3,376.1L358.2,375.1L356.7,374.5L354.9,372.9L352.5,371.7L349.6,371.3L346.1,371.5L344.9,372.2L344.1,373L343.7,373.4L341.6,374.4L340.9,375.7L340.4,376.9L339.4,378.2L340.5,379L333.8,383.5L332.4,384.1L329.4,384.6L328.7,385.1L327.8,386L327.6,387.3L327.8,388.5L328.7,389.3L329.4,389.9L331.3,392.6L334.7,395.9L335.3,397.1L335.8,398.9L334.8,399.8L334,400.1L330.9,400.3L329.8,401L329.3,402.1L328.1,403L324,403.9L320.8,404L319.8,403L319.5,400.1L317.4,395.1L316.9,391.7L316.3,392.1L315.2,392.5L314.8,393.4L314.5,395.9L314.1,396.7L313.2,396.7L311.3,395.8L308.9,394.9L305.8,389.6L305.5,388.6L304.9,387.4L302.5,386.8L300.4,385.9L298.2,385.8L297.1,386.3L296,385.6L295.8,384.2L293.4,384.9L290.4,384.6L287.7,384L285.9,384.3L284.4,385.4L284.6,388L284.2,388.6L284.1,387.5L283.5,386.2L282.9,385.2L281.6,384.1L281.5,383.7L282,383.1L284.5,381.6L284.7,380.9L284.8,379.6L284.6,378.3L283.5,376.4L284.1,375.2L285.3,374.2L286.6,373.5L286.9,373.2L286.6,372.5L285.9,371.8L284.1,370.6L283.1,370.5L283,367.1L283.1,363.4L283.3,363.1L284,362.9L284.5,362.3L284.8,361.2L285.5,360.8L287,361.7L288.4,362.4L289,362.2L289.4,361.8L289.7,361.4L289.8,361.1L291,362.1L293.3,363.8L293.4,364.7L293.2,365.5L293.9,367.8L295.1,368.1L296.3,367.7L296.6,368.1L296.4,368.6L295.8,369L295.6,371.1L297.6,372L298.6,372.8L301.9,372.4L303.1,372.6L303.9,372.4L303,370.8L301.8,369.6L301.9,369.1L302.8,369.5L303.6,370.3L305.2,371.3L308.2,374.8L311.6,375.6L314.3,375.5L316.9,375.1L320.9,373.7L323.9,371.2L326.2,370.1L333.7,367.8L336.4,365.4L337.5,365L338.6,364.7L341,362.9L342.3,361.4L343.6,360.7L347.7,361.2L350.2,361.9L352,361.8L353.8,362.3L354.5,363.4L355.3,363.8L359.5,363.7L363,364.2L370.6,367.3L375.1,370.4L377.5,373.7ZM355.9,384.9L355.5,385.6L354.7,383.9L354.8,383.5L354.7,381.9L355.6,381.5L356.2,381.5L356.6,381.7L356.9,383.5L356.7,384.4ZM307.1,402L306.2,402.1L304.1,401.3L302.6,399.8L302.5,399.3L302.6,398.8L303.4,397.3L304.5,396.7L304.9,396.7L305.9,398.5L305.2,399.2L305.5,400.3L306.9,401.1ZM295.8,364.7L295.6,365.6L294.2,364L295,363.7L295.3,363.8ZM352.9,385.2L352.1,386L351.7,385.3L352.3,384.5L352.5,384.5ZM279.1,261.2L278.7,261.9L278.1,262.3L276.9,264.6L276.5,264.8L276.4,263.1L275.8,262.9L275,263.5L274.5,264.3L275.2,265.4L275.9,265.4L276.6,265.7L278.6,273.4L278.1,274.7L276.9,276.8L275.7,278.6L274.6,279.7L273.1,284.5L271.8,292.3L272.7,299.2L272.2,305.6L272.6,307.2L272.7,309.1L271.8,309.4L271.3,309.4L270.7,308.2L270.7,307.2L271.3,306L271.6,304.4L271.3,303.5L270.7,305.4L269.7,306.2L269.1,306.5L268.4,307.4L269.1,309.2L270,310.5L270.2,311.4L269.9,312.5L269.7,316.2L269.4,316.1L269.1,315.6L268.1,315.6L268,317.1L268.1,317.9L267.3,318.6L267,319.2L267.7,319.7L268.4,320L269.2,319.9L270,321.7L270.2,323.2L268.5,324.6L267.9,325.8L267,327.2L266.5,328.5L266.3,329.5L267,332.7L268.1,334.9L269.1,336.3L270.4,336.6L270.1,338L269.1,339L267.4,339.8L265.4,339.9L262.2,339.2L260.9,339.1L260.4,338.7L260.2,337.9L259.3,336.9L257.7,335.4L256.7,335.5L255.2,335.2L252.5,334.2L251.3,334.1L249.6,334.9L247.6,336L242.7,334.3L239.3,333.1L236.2,332L235.4,331.6L234.7,331.7L234.2,332.2L233.5,333.3L233.3,333.5L232.9,333.8L232.5,333.9L232.5,333.4L231,331.4L228.6,329L219.5,321.5L216.1,317L214.3,313.8L212.6,312.1L207.6,308.7L206.5,307.3L201.6,302.7L197.9,300L197.8,298.8L199.4,297.4L200.1,297.5L200.9,298.5L202.2,299.7L202.9,299.7L203.8,299.1L203.8,298.6L208.9,298.4L209.7,298L210.6,297.2L211.1,296L211.2,294.9L211.4,294.1L212.2,293.3L213.7,293L214.8,292.9L215.1,292.4L214.8,290.7L214.2,286.4L214.1,285.3L214.2,284.4L214.7,284.1L216.9,283.9L221.1,284.2L222,283.9L223.7,281.5L225.2,279.8L226.3,279L227.2,278.7L228.2,280.3L231.8,282.5L232.3,282.4L232.7,282.3L232.8,282L232.8,280.9L233.6,280L235.5,279.2L237.3,277.6L239.2,275.5L240.8,274.3L242.2,273.9L242.7,273.3L242.4,272.5L242.5,271.4L243,269.9L243.8,269.1L244.9,268.8L245.2,268.4L245.1,267.7L245.2,266.9L246.2,265.7L248.4,264.6L249.7,265L250.8,266.4L252.3,267.4L254.3,267.9L255.8,267.7L256.9,266.8L257.8,266.5L258.7,266.9L259.1,266.7L259.2,265.9L259.6,265.8L260.5,266.2L261.3,266.3L261.9,266.1L262.2,265.7L262.3,265.3L262.8,265.1L264.4,265.3L266.3,264.9L268.5,263.8L269.8,263.2L270.5,263.4L271.3,262.8L272.3,261.5L274.5,260.9ZM-42,-19.48L-40.98,-18.37L-37.93,-15.64L-36.18,-13.28L-35.79,-11.31L-34.23,-8.207L-31.51,-3.927L-30.27,-1.649L-30.6,-1.328L-30.34,-0.119L-29.63,1.943L-28.27,3.683L-26.32,5.103L-24.31,7.656L-22.3,11.34L-19.9,14.13L-17.04,16.04L-15.42,17.84L-15.03,19.46L-15.03,20.87L-15.49,22.03L-15.29,23.16L-14.51,24.21L-14.26,25.48L-14.51,27.27L-14.51,27.8L-14.26,28.19L-11.72,31.27L-10.43,33.76L-9.39,37.68L-9.39,37.72L-8.223,40.09L-6.537,41.07L-4.007,41.42L-2.061,42.22L-0.764,43.52L0.922,44.28L2.998,44.56L4.944,45.4L6.76,46.83L10.26,47.77L15.32,48.22L19.15,49.4L21.81,51.25L22.98,51.63L23.3,51.66L23.43,51.38L23.62,50.86L24.66,50.24L27.13,49.85L26.8,53.99L25.7,57.36L22.13,64.39L20.57,68.74L17.72,81.13L16.81,89.22L16.62,93.02L16.36,93.53L16.62,94.11L15.97,102.5L16.29,109.6L16.1,110.7L15,112.8L14.28,115.8L14.61,117.1L14.54,118.1L15.64,122.6L15.97,125.9L19.21,131.7L21.03,133.7L23.23,135.4L24.08,136.4L23.69,138.9L22.78,140.1L22.39,142.1L21.94,140.4L22.07,138.4L22.78,137.2L22.84,136.4L21.48,135.5L19.08,132.6L16.16,127.5L18.24,135.7L18.95,137L19.54,137.5L20.45,138.1L20.7,139L20.7,139.6L23.3,145.3L26.22,151.2L26.41,152.8L27.58,154.7L34.97,163L39.51,169.1L41.13,174.9L42.11,176.7L42.56,179.1L45.55,181.9L46.45,183.7L48.01,184.7L49.31,187.7L51.77,189.4L51.19,189.4L49.05,188.5L49.18,189.1L50.99,190.4L54.5,191.6L55.34,191.6L53.98,191L52.81,190.1L53.2,190L55.66,191L62.47,191.4L65.52,193.9L69.41,194.9L71.49,198.1L73.95,201.4L75.51,201.5L76.74,201.5L80.38,201L86.08,198.9L88.03,197.9L91.86,196.5L97.69,196.3L99.51,196.7L103.9,195.8L106,194.8L106.7,193.8L107,193.1L111.1,192.1L111.9,191.9L116,191.7L118,191.3L120.3,191.1L122,192.6L122,193.3L120.8,194L121.4,194.7L123.4,195.8L127,196.2L128.2,196L129.9,194.4L132.9,192.8L132.8,191L132.3,190L131.4,189.9L131.2,189.4L131.8,188L131.7,187.6L129.8,188.9L129.4,188.9L129.6,188.3L130,187.8L135.4,185L136.8,183.8L138.6,182.8L142.5,179L143.4,171.7L144.1,170.5L146.7,168.3L147,167.6L147.2,166.1L147.1,162.3L147.2,159.3L147.1,155.9L147.6,152.9L148,152L149.5,147.2L152.6,145L157.9,142.5L159.1,142L176,139.3L178.4,138.7L181.4,136.9L183.5,136.3L187.4,136.4L188.6,136.1L188.8,135.9L188.8,135.7L189.5,135.4L191.7,135.7L196,136.7L197.5,137L201.3,138.2L205.4,138.7L206,138.5L206.5,138.1L206.9,137.4L206.5,136.8L206.1,136.8L205.4,137.2L204.6,137.2L203,136.7L203.3,136.2L204.9,136.3L206,136.1L207.6,135.3L209.3,135.9L211.5,138.4L213.1,139.2L213.2,142.8L213.5,143.5L214,144.4L213.2,147.3L212.4,149.6L211.3,151.5L208.9,154.4L205.9,156.8L202.3,162.1L201.5,164.6L201.5,166.6L202.1,168.5L201.9,169.2L201.5,169.9L200.8,169.9L199.3,170.8L197.5,173.5L197.4,174.4L198.3,175.1L199.3,174.8L200.7,174.7L201.5,174.5L202.2,174.6L202.1,176.1L201.2,177.2L200.7,177.6L199.7,177.8L198.6,178.4L198,179L198.1,180.8L198.7,180.9L200,179.6L200.8,179.6L200.9,180.2L199.2,184.8L198.2,189.5L196.7,192.2L196.2,196.2L195.4,197.9L194.5,199.6L194,199.5L192.6,196.3L191.2,195.5L190.9,194.8L191.7,190.9L191.3,188.7L190.6,188.8L189.6,190L188.4,191L188.4,192.5L186.9,194.9L186.6,195.7L185.2,195.5L183.6,195.6L182.5,196.2L181.3,199.2L178.5,203.3L177.3,205.4L176.4,206L175.7,206.3L174.9,205.8L173,204.7L171.4,205.3L170.9,206.5L171,208.2L167.2,208.2L160.7,208.2L152.6,208.2L144.7,208.2L138,208.1L138,211.9L138,215.1L138,218.8L134.3,218.8L130.4,218.7L130.8,219.1L132.1,219.8L133.8,221.5L135.8,224L138.3,226.1L141.1,227.6L143,229.1L143.9,230.5L144.5,231.8L144.5,232.8L145.5,233.6L147.4,234.1L148.3,235L148.3,235.8L147.8,237.5L147.6,239.3L147.8,241L146.5,241L143.2,241L138.2,241L133.6,241L130,241L124.5,241L123.1,243.6L120.6,247.9L118.3,251.8L116.4,255.1L116.1,255.9L116.1,256.6L118.4,259.7L118.1,260.6L117.2,261L117,261.8L117,262.9L116.4,264.4L116.6,265.5L117,266.8L116.4,268L116,269.1L115.6,269.5L115.1,269.1L110.3,264L105.2,258.5L103.3,256.7L101.4,255.3L98.8,252.7L92.05,247.1L88.55,244.5L85.31,241.4L82.39,239.6L79.47,238.5L78.17,237.9L77.07,237L76.42,237L76.09,238.1L77.13,238.7L78.36,239.2L79.27,239.2L80.31,239.6L83.29,241.2L83.75,242L75.32,238.9L71.88,238.6L71.49,238.1L73.24,236.4L72.66,235.9L72.07,235.8L70.26,236.9L69.54,237L69.41,236.2L69.48,235.5L68.31,234.5L67.6,234.5L66.95,235.2L65.33,236.6L65.39,237.2L68.57,237.8L69.61,238.1L69.41,238.4L66.69,238.4L63.38,239.1L57.41,242.8L51.84,244.5L43.92,248.1L40.42,248.3L38.54,248.9L33.22,247.5L26.41,244.1L16.16,243L9.224,238.5L2.349,236.6L-1.996,232.3L-4.656,232.1L-6.342,231.5L-12.57,229.9L-18.73,228.8L-24.76,225.1L-28.72,223.9L-32.09,222.4L-39.55,219.8L-42,218.6L-42,-19.48ZM211,160.8L210,161.4L209.6,159.2L210.3,157.2L211.2,156L213,155.9L214.2,155.5L214.3,156L213.3,157.6ZM215.1,142.7L215.3,143.7L215.1,143.5L214.6,142.8L214.4,142L214.6,141.9L214.8,142.2ZM125.5,191.8L123.5,192.3L123.1,191.8L127.2,189.9L127.9,190L128.2,190.3L126,191.2ZM402,207L400.6,207.2L398.6,207.2L396.8,206.6L396,206L394.2,205.8L394.6,205.4L393.8,205.1L392.7,205.2L392,206.5L391.1,207.6L389.4,207.5L388.8,206.6L387.9,207L387.2,207.6L386.4,210.1L385,208.9L383.5,207.9L381.7,207.4L378,207.4L376.2,207L374.8,204.9L374.2,204.3L372.7,203.8L371.3,201.4L370.8,201.1L366.7,200.6L366,199.2L366.2,198L367.5,196.6L368.2,196.2L370.4,196.2L372.4,195.8L373.3,195.2L374.3,194.8L381.9,195.8L383.7,195.8L385.3,196L385.3,196L387.6,196.7L389.8,197.1L390.8,197.1L391.7,197.3L393.8,198.9L395.5,199.8L401.8,201.8L402,202.2L402,207ZM279.1,261.2L274.5,260.9L272.3,261.5L271.3,262.8L270.5,263.4L269.8,263.2L268.5,263.8L266.3,264.9L264.4,265.3L262.8,265.1L262.3,265.3L262.2,265.7L261.9,266.1L261.3,266.3L260.5,266.2L259.6,265.8L259.2,265.9L259.1,266.7L258.7,266.9L257.8,266.5L256.9,266.8L255.8,267.7L254.3,267.9L252.3,267.4L250.8,266.4L249.7,265L248.4,264.6L246.2,265.7L245.2,266.9L245.1,267.7L245.2,268.4L244.9,268.8L243.8,269.1L243,269.9L242.5,271.4L242.4,272.5L242.7,273.3L242.2,273.9L240.8,274.3L239.2,275.5L237.3,277.6L235.5,279.2L233.6,280L232.8,280.9L232.8,282L232.7,282.3L232.3,282.4L231.8,282.5L228.2,280.3L227.2,278.7L226.3,279L225.2,279.8L223.7,281.5L222,283.9L221.1,284.2L216.9,283.9L214.7,284.1L214.2,284.4L214.1,285.3L214.2,286.4L214.8,290.7L215.1,292.4L214.8,292.9L213.7,293L212.2,293.3L211.4,294.1L211.2,294.9L211.1,296L210.6,297.2L209.7,298L208.9,298.4L203.8,298.6L203.9,296.6L202.4,295.8L201.7,294.2L200.9,293.1L201.1,292.5L201.1,291.7L199.1,291.1L197.1,291.5L196,291.2L195.2,290.8L196.6,289.9L196.7,289.3L196.3,288.8L195.8,288.6L196,287.5L196.2,286.2L197,283.2L196.7,282.6L195.4,281.7L193.8,281.6L192.1,281.9L191.2,281.5L190.4,280.4L189.1,279.9L186.9,280.7L184.5,282L183.8,282.5L183.2,282.4L182.9,281.5L182.8,280.3L182.7,280.1L181.4,279.7L179.9,279.4L179.2,279.1L178.4,278.3L176.6,277.4L176.2,276.6L173.8,275L173.4,274.2L172.9,273.6L171.7,272.8L170.8,273L167.8,272L167.4,271.9L167.7,271.1L168.7,269.8L170.8,268.4L170.9,267.2L170.4,265L169.9,263.6L170.1,262.9L170.8,260.3L171.3,259.7L174.3,258.4L174.6,258.2L177,256.4L179.5,254.3L182.3,252.1L185.3,249.6L187,248.1L187.8,247.4L189.5,248L190.9,246.8L191.7,246.4L193.6,244.9L194.1,244.6L197.3,244L198.7,244.1L200.1,245.5L201.1,246.3L203.1,245.6L204.8,245.5L211.6,246.8L214.3,246.2L219.2,246.1L221.5,246.4L224.7,244.5L226.7,244.1L229.1,243.3L228.8,242.3L228.2,241.9L231.8,242.3L237.2,244.3L243,243.9L245.1,242.9L246.4,242.6L252.3,244.6L253.9,246.1L255.1,246.2L256,245.9L256.3,245.6L255.1,245.2L254.6,244.8L259.3,245.7L268,252.9L268.2,253.5L264.4,251.4L262.4,251.5L261.9,251.9L262,253L262.2,253.6L263.1,253.7L263.7,253.3L265.3,253.7L266.3,254.5L267.5,255.7L268.3,257L269.1,257L269.8,256.2L271.3,256.1L272.3,257L273,256.9L272,255.6L269.8,254.2L270.4,254.2L275.3,256.6L276.7,259.6L277.9,260.3ZM220.3,235.3L217.5,236.7L216.6,236.7L217.9,235.6L220,234.6L221.8,234.1L223.3,234.3ZM230.3,233.7L228.9,234.8L228.6,234.3L229.3,233.3L230.1,232.7L230.9,232.8L230.7,233.2ZM115.6,269.5L116,269.1L116.4,268L117,266.8L116.6,265.5L116.4,264.4L117,262.9L117,261.8L117.2,261L118.1,260.6L118.4,259.7L116.1,256.6L116.1,255.9L116.4,255.1L118.3,251.8L120.6,247.9L123.1,243.6L124.5,241L130,241L133.6,241L138.2,241L143.2,241L146.5,241L147.8,241L147.6,239.3L147.8,237.5L148.3,235.8L148.3,235L147.4,234.1L145.5,233.6L144.5,232.8L144.5,231.8L143.9,230.5L143,229.1L141.1,227.6L138.3,226.1L135.8,224L133.8,221.5L132.1,219.8L130.8,219.1L130.4,218.7L134.3,218.8L138,218.8L138,215.1L138,211.9L138,208.1L144.7,208.2L152.6,208.2L160.7,208.2L167.2,208.2L171,208.2L170.8,212.8L170.6,218.1L170.5,222L170.3,227.2L170.1,232.5L169.8,239.7L169.6,244.4L169.7,244.5L171.8,244.2L175,244.4L175.8,244.4L176.8,244.8L177.5,244.9L179.1,246L181,246.8L182.2,245.2L181.6,244.2L181.1,243.7L181.2,243.3L187.8,247.4L187,248.1L185.3,249.6L182.3,252.1L179.5,254.3L177,256.4L174.6,258.2L174.3,258.4L171.3,259.7L170.8,260.3L170.1,262.9L169.9,263.6L170.4,265L170.9,267.2L170.8,268.4L168.7,269.8L167.7,271.1L167.4,271.9L167,271.7L166.3,271.7L164.8,272L164.1,272.1L163.5,272.4L163.5,273.2L163.8,274.5L164,275.2L163.6,275.5L161.8,276.3L161.1,277L160.3,278.3L159.6,278.7L158.7,278.6L158.1,278.8L156.9,279.7L155,281.5L154,282.7L153.9,283.7L154.1,284.6L147.2,281.5L144.9,281L135.2,281.1L131,279.9L126.3,277.6L123.1,275.4ZM167.4,271.9L167.8,272L170.8,273L171.7,272.8L172.9,273.6L173.4,274.2L173.8,275L176.2,276.6L176.6,277.4L178.4,278.3L179.2,279.1L179.9,279.4L181.4,279.7L182.7,280.1L182.8,280.3L182.9,281.5L183.2,282.4L183.8,282.5L184.5,282L186.9,280.7L189.1,279.9L190.4,280.4L191.2,281.5L192.1,281.9L193.8,281.6L195.4,281.7L196.7,282.6L197,283.2L196.2,286.2L196,287.5L195.8,288.6L196.3,288.8L196.7,289.3L196.6,289.9L195.2,290.8L194.8,291.1L195.1,292.9L194.1,294.1L193.2,294.9L191.5,295.1L188.6,295.2L184.3,294.3L181.2,293L179.5,293L180.1,293.4L181.4,293.7L183.2,294.5L182.7,294.8L176.2,293L168.8,289.4L164.4,288.8L159.4,287.8L156.4,285.5L154.1,284.6L153.9,283.7L154,282.7L155,281.5L156.9,279.7L158.1,278.8L158.7,278.6L159.6,278.7L160.3,278.3L161.1,277L161.8,276.3L163.6,275.5L164,275.2L163.8,274.5L163.5,273.2L163.5,272.4L164.1,272.1L164.8,272L166.3,271.7L167,271.7ZM402,167L398.8,167.4L394,167.7L392,168.1L390.1,168.6L386.3,168.6L381.7,169.2L377.2,169.3L380.1,165L386.3,160.8L387.4,159.9L388.2,158.8L388.4,157.9L388.1,157.1L386.6,155.8L386.4,154.8L385.9,154.2L383.8,153.6L381.6,153.3L379.4,153.3L374.6,152.9L372.1,152.8L370,151.9L366.4,148.7L364.7,147.9L363.9,147.1L363.2,146.3L362.4,141.6L361.7,139.3L360.6,137.4L358.9,135.9L357.2,135.4L350.6,136.6L349.1,136.5L347.6,136L337.6,133L333.5,131.3L331.8,130.5L330.4,129.3L328.9,127.3L327.3,125.6L327.3,126.3L327,126.7L318.7,126.9L317.4,126.5L316.5,126.1L315.9,125.4L315.4,123.9L314.6,122.8L314.4,124L314,125.2L312.9,125.9L311.6,126L310,124.4L303.3,124.1L302.7,123.8L300.5,122.3L298.6,120.4L300.4,119.8L304.3,118.9L305.2,118.3L305.7,117.6L305.4,116.5L304.6,115.7L303.8,115.2L302.9,114.9L301.7,114.7L286.7,114.6L285.9,115.1L284.5,116.4L281.8,118L280,119.6L279.4,120.5L278.6,121.1L276.7,122.1L275.1,123.6L273.2,124.3L272.2,123.9L271.1,123.9L270.4,124.3L269.6,124.5L265.7,124.7L265.2,125.1L264.6,126.2L264,128.4L263.4,129.1L261.5,129.3L259.6,129.9L255.9,132L254.9,132.3L255.1,130.8L254.9,129.3L253.9,129.3L252.6,129.5L251.7,129.9L249.8,131L248.9,131.3L248,130.8L248.2,130L254.3,127.4L255,127.2L256.1,127.4L257.2,127.3L258.1,126.5L257.1,123L257.4,120.6L258.9,118.7L261.8,115.9L263.1,115L277.4,109.1L278.8,108.8L288,107.6L289.4,107.2L293.7,105.5L298.2,104.8L302.9,105.3L302.9,105.3L307.6,106.2L311.5,105.9L313.3,105.4L313.1,105.9L314.8,107.3L315.4,107.4L317.9,106.7L324.3,106.5L325,106.8L326.1,108.2L327.8,109L329.4,109.6L331.3,109.7L333,109.5L334.7,109.6L336.8,110.9L337.4,111L339.2,110.7L338.7,111.9L341.8,113.5L344.2,116.7L345.8,118.1L347.6,119.2L349.1,120.1L350.7,120.4L355.8,120.3L357,120.4L358.1,120.8L359.1,121L359.7,120.8L369.5,125.9L372.6,128.5L374.5,129.9L378.6,131.9L380.2,132.3L381.1,132.1L380.9,131.6L379.8,130.5L379.6,130.1L381.1,130.5L383.9,132.7L384.7,133.6L386.1,134.3L387.5,134.9L386.8,135.8L385.7,135.9L383.5,135.5L385.2,136.9L385.5,138L386.3,138.1L387.6,136.9L388.3,135.9L391.4,138.5L393,139.6L392.6,140.3L392.5,140.9L394.3,140.3L395,140.4L395.7,140.8L396.4,141.9L398.1,142.1L399.9,142.1L402,142.6L402,167ZM378,128.9L377.3,129.5L376.5,128.6L375.9,128.6L375.2,128.2L373.9,127.2L373.5,126.3L374.6,126.2L376.1,126.4L378.7,126.9L378.4,128.1ZM371.6,122.4L371.2,122.8L370.2,122L368.8,121.7L368,120.6L367.2,120.2L367.1,119.7L368.4,119.4L369.3,119.6L370.4,120.5L370.9,122ZM360.7,117.2L363.2,117.7L364,117.4L364.9,117.3L365.7,117.5L366.9,119.1L365.9,119.3L365,119.3L364.4,119L362.2,118.9L360.7,118.5L359.9,118.1L359.5,117.6ZM374.3,125.5L373.6,125.6L371.9,124.8L371.3,124.1L371.9,123.2L372.1,122.2L372.3,122.1L372.6,123.3L374,123.8L374.1,124.1L374.9,125.1ZM289.9,136.3L288.2,137.3L284.6,138.8L282.7,138.8L280.7,138.3L279.4,137.1L278.7,135.9L278.7,135.3L279.9,136.2L281,136.7L281.8,136.4L282.5,135.9L280.5,132L280.6,131.2L282.2,129.1L286.4,129.7L287.1,130.1L287.7,131.5L288.6,132.5L289.7,135.3ZM347.7,115L347.8,115.5L344.6,114.1L343.3,112.6L342.7,112.3L343.6,112.3L347.1,114.7ZM289.8,361.1L289.7,361.4L289.4,361.8L289,362.2L288.4,362.4L287,361.7L285.5,360.8L284.8,361.2L284.5,362.3L284,362.9L283.3,363.1L283.1,363.4L283,367.1L283.1,370.5L284.1,370.6L285.9,371.8L286.6,372.5L286.9,373.2L286.6,373.5L285.3,374.2L284.1,375.2L283.5,376.4L284.6,378.3L284.8,379.6L284.7,380.9L284.5,381.6L282,383.1L281.5,383.7L281.6,384.1L282.9,385.2L283.5,386.2L284.1,387.5L284.2,388.6L282.9,386.5L281.2,384.6L279.8,383.4L279.6,380.7L279,379.1L276.8,377.7L274.9,376.8L273.5,377L274.4,378.6L276.6,380.6L276.8,381.4L276.7,382.5L275.2,382.3L273.9,381.9L272.2,381.7L271.1,381.1L268.7,378.7L270.4,376.6L270.9,375.2L270.9,372.4L270.5,371L268.7,368.9L265.8,366.6L261.9,364.7L260,363.2L255.2,362L253.5,361.3L252.1,359.8L251.9,358.8L252.4,357.2L251.1,355.2L245.5,351.2L242.4,349.8L241.7,349L241.2,348.7L241.7,351.4L243,353.1L246.6,354.6L247.6,355.5L248,356.6L245.9,358.9L244.9,359.4L244.5,360.6L243.9,361L243.2,360.3L240.3,356.8L234.7,355.1L233.6,354.1L231.6,350.9L230.7,348L231,346.1L233.3,343L234,341.7L233.8,340.9L233.9,339.7L233.1,338.9L230.9,337.8L229.6,336.9L229.9,336.5L232.4,335.3L232.5,334.2L232.5,333.9L232.9,333.8L233.3,333.5L233.5,333.3L234.2,332.2L234.7,331.7L235.4,331.6L236.2,332L239.3,333.1L242.7,334.3L247.6,336L249.6,334.9L251.3,334.1L252.5,334.2L255.2,335.2L256.7,335.5L257.7,335.4L259.3,336.9L260.2,337.9L260.4,338.7L260.9,339.1L262.2,339.2L265.4,339.9L267.4,339.8L269.1,339L270.1,338L270.4,336.6L270.9,337.3L271.4,338.5L271.6,339.9L273.9,344.9L275.7,347.6L279.8,352.6L281.4,353.5L284.4,357.6L285.4,358.2L286,359.4L289,360.4ZM378,482L378,481.8L377.4,480.2L377.6,479.7L378.7,479.5L380,479L380.7,477.5L381.6,476.2L382.6,474.2L383.7,474.1L384.2,471.8L385.7,469.8L388.7,463.9L387.8,464L387.1,464.8L386.3,464.7L385.3,464.3L385.6,461.6L385.1,461.3L383.6,463.3L382.4,461.2L382.2,460L382.8,458.7L382.7,457.9L380.7,458.5L380.8,457.7L382,456.9L382.6,456.1L383.7,455.1L384.2,453.8L384.4,451.6L384.9,449.3L384.6,448.1L384,447.2L383.5,442.9L383.6,440.4L383.3,438.4L382.8,436.7L380.4,434.5L384.2,432L385.6,430.1L383.9,426.2L381.6,422.9L381.5,421L382.2,421.2L382.9,421.2L383.6,417L383.4,415.7L382.2,413.6L380.6,413.6L379.2,411L378.4,410.4L377.8,408.7L375.6,405.5L373.9,403.9L375.2,400L376.3,399.2L376.7,398.3L376.2,395.9L376.3,395.3L376.6,395.1L376.8,395.1L377.4,395.5L378.2,396.5L378.9,397.8L379.5,398.2L380.4,397.7L383.7,395.2L383.5,394.4L383.9,392.8L385,391.5L386.2,391.1L386.5,390.4L386.3,389.2L385,386.4L383.9,385L383.1,383.5L382.8,382.1L381.5,380.8L382,379.5L383,378.1L383.3,377.9L383.9,378.2L385.3,380.9L387.7,382.5L390.2,385.3L391.2,387.2L392,387.5L392.7,388.2L392.4,388.7L391.6,389.2L391.4,390.4L392,391L392.5,391.3L393.9,391.1L394.7,389.8L394.2,384.2L393.3,381.4L392.4,380.5L391.5,379.4L392.1,378.6L393.6,378.2L395.7,377.2L402,372.6L402,482ZM378.2,83.91L378.3,84.36L376.5,85.59L377.8,86.48L379,84.56L380,86.14L380.5,89.09L380.4,89.6L380.5,90.01L380.7,90.59L380.7,91.41L379.7,93.98L376.2,93.7L376.1,91.55L375.6,91.14L374.7,88.03L373.6,87.03L372.1,84.5L373,83.84L374.1,84.05L374.8,83.74L376.4,83.5L377.4,83.16ZM386,51L385.6,51.18L384,49.16L382.8,48.57L384.8,47.14L385.6,45.92L385.6,43.27L386.1,41.8L385.9,40.55L386.4,39.26L385.8,37.79L384.1,36.63L380.9,32.05L375.7,30.92L373.1,30.89L374.5,30.15L375.9,30.22L378,30.68L380.5,30.89L382,32.26L383.4,34.04L384.8,34.74L385.3,35.23L385.2,35.72L385.4,36.21L387.2,37.05L388.8,38.42L389.4,42.36L387,44.25L386.6,49.96ZM376.7,74.84L376.7,77.25L376.8,79.04L376.7,79.69L374.7,80.86L374.2,81.54L372.4,82.23L371.3,83.16L370.7,81.61L369.6,80.69L369.5,79.07L368.6,79.62L367.4,79.28L365.4,78.07L364.2,76.42L366,76.15L366.3,77.18L367.7,75.91L367.4,75.25L367.1,75.15L366.7,73.91L368.7,70.67L369.2,68.6L368.2,65.22L369.1,65.01L371.5,66.18L372.5,67.36L372.5,68.94L373.5,70.15L374.9,73.12ZM363.2,34.39L365.4,35.02L366.5,34.95L367.3,34.53L370.4,34.71L373.1,34.11L373.5,35.16L373.4,35.72L367.8,36.25L362.8,37.82L360,38.91L358.6,39.01L357.7,38.45L354.3,35.2L355.2,35.55L357.7,37.37L359.2,37.02L360.6,35.83L360.9,34.92L360.6,34.46L361.3,33.03ZM383.8,68.74L381.8,69.15L380.3,68.77L380,68.43L380.5,67.88L381.9,67.43L384.1,67.39L385.1,67.91L385.2,68.15ZM402,63.46L401.4,62.8L399.1,62.24L396.9,60.44L395.6,60.2L394,60.55L394.6,59.47L395,58.05L395.3,57.77L396.4,59.33L396.4,59.33L399.4,61.58L401.9,62.41L402,62.53L402,63.46Z" fill="#D8E2E7" stroke="#3F464B" stroke-width="0.85" vector-effect="non-scaling-stroke"/><path d="M171,208.2L170.9,206.5L171.4,205.3L173,204.7L174.9,205.8L175.7,206.3L176.4,206L177.3,205.4L178.5,203.3L181.3,199.2L182.5,196.2L183.6,195.6L185.2,195.5L186.6,195.7L185.6,197.9L186.6,198.2L187.5,197.9L189.5,198L190.4,200.4L190.1,202.4L188.2,207.6L187.9,209.4L187,212.1L188.2,213.8L187.1,216.2L186.7,217.7L186.6,220L187.2,224.3L186.2,230.5L184.6,233.2L183.6,234.2L181.8,236.9L179.4,237.7L176,242.1L175.5,243.2L175.8,244.4L175,244.4L171.8,244.2L169.7,244.5L169.6,244.4L169.8,239.7L170.1,232.5L170.3,227.2L170.5,222L170.6,218.1L170.8,212.8ZM192.8,206.1L191.9,206.5L192.6,205.4L192.7,204.7L193.8,201.7L194.4,201.8L194.6,202ZM194.5,215.6L193.2,218.3L193,217.5L193.6,215.5L194.4,214.8L194.9,214.1L195,213.3L195.7,213.7L195.5,214.5Z" fill="#8B341D" stroke="#2C160F" stroke-width="1.1" vector-effect="non-scaling-stroke"/></svg>