<svg xmlns="http://www.w3.org/2000/svg" viewBox="0 0 360 440" width="360" height="440" role="img" aria-label="Regional map with Ecuador highlighted"><rect width="100%" height="100%" fill="#7FA6D6"/><path d="M378.7,94.14L377.3,94.53L377.3,94.22L377.7,93.68L378.4,93.54L378.7,93.33L379.2,93.21L379.4,93.23L379.7,93.39L379,93.7ZM343.9,70.89L344.3,72.41L344.1,72.7L343.1,73.73L342.2,73.8L341.5,73.78L341,73.57L340.3,72.9L339.6,73.11L338,72.86L337.5,72.64L338.1,71.8L339.3,71.48L339.7,71.4L340.1,71.91L340.9,72.35L341.8,72.39L342.1,71.62L343.4,70.46ZM328.2,73.51L327.6,73.78L326.5,73.51L325.9,73.15L326.3,72.72L327.2,72.72L328.1,73.23ZM376.7,97.3L376,97.54L375.8,96.37L376.1,96.06L377.3,95.11L377.6,94.95L377.9,95.13L377.8,95.4L378.4,95.82L378.2,96.34L377.6,96.93ZM387.9,101L390.1,103.8L390.1,104.1L389.9,104.5L388.6,105.2L388.3,105.5L387.8,106.8L386.1,107.5L385,108.3L384.2,109.1L383.8,109.4L382.2,109.6L381.7,110L381.1,111.5L380.7,112.1L379.9,112.8L379.9,113.2L381,114.8L381.2,115.3L380.8,116L380.9,116.5L381.4,117.2L382.1,117.3L382.8,117L383.6,117.1L384.2,117.2L384.4,117.4L384.5,117.9L384.1,118.9L383.6,119.6L381.4,120.6L380.4,121.2L379.9,121.7L378.7,121.4L378.1,121.4L377.6,121.8L377.3,122.1L376.6,122.2L375.4,122.3L375,122.5L374.6,123L374.3,123.7L374.6,124.6L374.9,125.4L374.9,126.1L375.1,128.1L374.8,128.5L374.1,129.1L373.2,130L372.2,131.2L372.3,131.6L374.7,134.3L377.2,137L379.6,139.8L379.9,139.9L380.4,140.2L380.9,141.2L381.2,142.2L381.2,142.7L380.9,143.3L380.3,144.1L379.6,144.7L378.6,145.2L377.7,145.7L377,147L376.6,147.5L376.2,147.6L375.5,147.8L374.2,147.8L373.4,147.7L372.4,148.6L371.1,149L370.3,150.3L367.2,151.4L364.2,152.2L363.4,152.5L360.4,151.8L359.7,152L358.9,152.7L358.1,153.1L357.5,153.2L357,153.4L356.6,154.3L356.4,157.4L355.3,158.3L354,158.3L353.1,157.2L352.1,156.4L350.3,154.5L349.8,154.3L349.3,154.3L347.6,154.8L346.8,154.6L346.1,154.3L345.1,154.4L343.2,154.4L341.9,154.4L341.3,153.9L340.8,152.9L340.4,152.5L339.9,152.2L339.2,152L336.1,152L335.5,152L335.1,151.8L334.5,150.9L333.8,150.5L333.1,150.4L332.8,150.9L334.1,152.6L334.5,153.5L335.6,154.8L339,157.5L339.6,158.4L339.6,159.5L339.5,161.2L339.6,162.8L340.5,165.1L341.7,167.4L342,168.9L341.8,170L341.6,170.6L341.6,170.9L341.9,171.1L343,171.5L345.5,171.7L346.9,171.7L349.2,171.9L349.4,172.7L349.1,174.1L348.7,174.9L348.3,175.1L347.1,175.3L345.8,176.1L343.9,176.9L342.9,177L342.5,177.2L342.1,177.4L341.7,177.7L341.4,179.3L340.8,181L339.8,182.1L338.6,182.9L337.5,183L336.6,183L336.1,183.2L335.5,183.9L334.5,184.8L333.8,185.2L332.8,185.2L331.7,185.6L330.4,186.3L329.5,186.9L328.7,187.9L327.6,188.9L326.5,189.7L326,190.6L325.2,191.7L324.3,191.7L324.2,191.1L324.7,190L324.2,189L323.3,188.5L322.8,188.3L322.4,188.4L321.3,188.9L320,189.7L319.2,190.3L318.5,190.6L317,190.9L315.7,191L315.2,190.8L314.2,190.2L312,188.2L309.1,185.6L308.9,184.8L309,184L308.5,182.9L308.1,181.7L307.9,181.2L307.8,180.3L307.2,178.7L306.7,177.3L306.2,176.6L306.4,176.1L306.2,175.5L305.8,175L305.2,173.5L305.4,172.8L305.2,172.2L304.8,171.7L304.1,171.2L303.2,170.2L302.1,169.3L301.5,168.9L301.2,168.7L300.8,167.8L300.6,167.5L300,167.4L298.9,167.1L297.8,167.5L297.8,166.8L298.1,166.4L301.8,163L303.6,161.4L303.8,161.2L304,160.8L304.1,160.4L303.7,159.8L301.9,157.2L301.3,156.7L300.7,156.3L300.1,155.2L299.2,152.6L298.7,151.3L298.5,150.4L298.5,149.2L298.3,148.4L297.8,147.8L297.8,146L298.3,142.9L298.4,140.6L298.2,139L298.6,137.8L299.7,136.9L300.3,135.6L300.4,133.9L301.1,132.5L302.2,131.3L302.6,130.2L302.3,129.2L302.1,128.5L301.2,127.8L299.3,127.3L297.8,127.2L296.9,127.8L294.5,128.3L290.8,128.7L287.7,128.7L285.4,128.3L283.6,128.4L282.4,129.2L281.6,129.4L281.1,129L280.6,128.8L279.8,129.1L279.6,129L277.9,126.8L276.2,124.8L274.3,122.5L272.1,119.7L271.7,119.5L271,119.5L270.1,119.6L268.7,119.3L267.8,118.9L267,118.5L265.6,118L264.7,117.9L263.9,118.1L261.5,119L260.2,119.1L259.2,119.2L256.4,118.7L254.6,118.6L252.4,118.9L251.4,119.1L250.1,118.6L249.2,117.8L248.4,116.1L247.8,114.7L246.8,114.4L245.7,114.2L245.1,113.7L244.8,112.9L244.7,111.9L244.8,110.2L244.9,109.6L245.1,107.8L245.7,106.8L246.1,106.4L246,105.6L245.7,104.1L245.4,102.9L244.2,101.7L242.6,100.1L241.8,97.52L241,94.49L240.4,94.18L239.8,94.34L239.2,94.18L238.6,92.97L238,92.75L237.1,93.17L236.5,93.5L234.8,93.8L234.5,93.5L234.6,93.11L235.3,92.02L236.1,90.6L237.1,89.31L238,87.97L238.6,86.56L239.1,83.76L239.4,81.81L240.2,78.37L241.7,75.61L242.3,74.34L243.6,72.68L244.2,71.78L245.1,71.07L247.4,70.12L250,65.35L250.7,64.6L253.4,63.88L255.5,63.34L257.1,62.76L257.6,62.44L258,62.3L257.7,62.87L256.9,63.56L256.1,63.99L251.7,65.07L251.2,65.29L250.7,65.74L250.7,66.76L250.8,67.55L252.1,70.18L252.6,70.83L254.3,72.25L253.9,72.45L253.3,72.47L253.8,74.34L254.8,75.63L254.8,76.42L254.1,78.91L252.6,80.42L251.5,82.16L250.7,82.85L248.9,86.25L250.3,88.3L250.5,89.31L251.7,90.79L252.4,91.25L252.9,91.86L252.7,92.85L253.2,94.2L253.8,94.91L254.6,95.19L255.5,95.19L258.3,94.31L258.9,93.9L259.3,93.17L260.7,91.7L260.8,89.81L261.1,87.53L260.8,86.05L259.3,83.94L258.7,82.42L257.2,81.02L256.4,78.63L256,77.88L255.8,76.84L255.4,75L256.4,74.34L256.3,72.84L258.6,72.41L263.7,69.97L266.9,69.34L270.5,68.04L271.4,67.39L272.1,66.33L272.6,66.19L274.5,67.21L275.4,66.86L275.8,66.07L275.3,64.54L274.2,64.54L271,65.09L270.7,64.44L270.7,63.84L269.9,62.03L270.4,60.64L270.9,59.52L271.8,59.07L273.1,58.58L274.2,59.34L274.8,60.05L275.1,60.73L275.4,62.6L275.9,64.5L276.5,65.8L277.4,66.8L278.1,66.72L278.6,66.55L282,66.33L284.1,67L286.7,67.35L289.1,68.79L291.6,70.52L292.2,71.8L292.5,73L293,73.82L292.5,74.65L292.8,76.05L293.5,77.45L294.6,78.34L297.6,78.59L301,77.98L306.2,77.43L307.8,76.97L316.3,76.72L318,77.39L318.1,78.06L318.1,78.59L320.9,81.11L323.1,81.43L325,82.24L327,82.69L329.2,83.29L330.4,83.21L331.3,82.99L332.4,82.95L340,78.75L344.1,78.87L344.7,78.59L345.2,78.22L343.7,77.57L340.3,77.33L339.3,77.76L338.7,76.68L339.8,76.72L343.6,76.36L348,76.58L351.5,75.81L353.3,75.69L354.2,75.85L357.1,75.34L362.4,75.93L366.5,75.44L366,76.13L364.7,76.56L362.5,76.7L360.8,77.72L357.2,77.53L354.7,77.9L355.4,78.18L355.4,79.22L355.8,79.44L356.1,79.44L357,80.21L357.3,80.72L357.6,81.79L357.1,82.93L356.6,83.46L357.7,83.27L358.3,82.75L358.2,82.2L358.3,81.57L358.8,81.77L359.2,82.06L360.5,85.06L361.4,86.64L361.7,86.58L361.9,86.52L362.2,86.21L362.6,85.48L363,85.95L363.2,86.13L363.4,86.19L363.2,85.5L363.4,84.65L363.4,84.35L363.8,84.29L364.3,84.39L365,84.63L366.2,85.62L367,86.66L367.1,87.22L367.4,87.55L367.9,87.87L368.2,88.4L368.2,87.57L367.9,86.96L367.8,86.27L369.5,86.25L369.9,85.34L370.8,85.89L373.1,88.38L373.9,88.8L376.5,89.29L378.1,90.48L379,91.56L378.5,92.69L377,93.25L376.4,93.96L376,94.65L376,95.36L375.6,96.16L375.5,96.45L375.2,97.58L374.6,98.95L373.8,100.4L369.5,100.4L370.6,101L371.5,101.5L373.2,102.6L374.4,101.7L376.2,101.7L378.2,100.7L379,100.5L382.6,101L383.5,100.3L384.2,100.1L386.2,100.2ZM332.4,-14.74L331.6,-14.64L330.4,-15.21L331.3,-15.42L331.9,-15.29ZM334.6,-15.04L333.8,-14.72L333.3,-14.77L333.1,-14.89L333.5,-15.27ZM333.3,-8.279L334.3,-7.735L335.5,-7.735L334.3,-7.211L331.9,-7.148L332,-8.007ZM317.7,-16.15L318,-15.9L318.4,-15.94L318.1,-16.43L318.4,-16.43L320.6,-16.13L322,-15.63L323.4,-15.38L323.5,-13.69L322.4,-13.02L321.7,-12.31L321.1,-11.45L319.5,-10.46L317.6,-10.15L316.3,-10.13L315.9,-10.15L315.4,-10.33L314.5,-10.17L313.3,-10.61L312.3,-10.5L310.3,-10.61L309.6,-10.21L308.8,-10.13L308.1,-10.21L307.5,-10.38L306,-10.36L305.4,-10.69L305.7,-12.6L305.7,-13.46L305.3,-14.2L304.9,-14.64L304.6,-15.16L305.2,-15.52L305.7,-16.03L305.9,-16.81L306.4,-17L307,-17.08L309.8,-16.72L317,-16.51L317.4,-16.45ZM325.8,-12.03L324.9,-11.97L324.3,-12.05L324.1,-12.41L325.2,-12.75L326.4,-12.71L327.2,-12.5L327.3,-12.37ZM297.6,-11.49L297.6,-11.47L297.4,-11.49L297.4,-11.51L297.3,-11.63L297,-11.8L296.9,-11.97L297,-12.16L297.1,-12.22L297.8,-12.24L297.8,-12.22L298,-12.1L298,-12.01L297.9,-11.93L297.8,-11.72L297.8,-11.68L297.7,-11.61L297.7,-11.51ZM353.6,-13.44L351.8,-12.83L351.9,-13.19L353.3,-14.03L353.9,-13.97ZM142.5,-27.12L142.9,-26.89L143.3,-27.04L143.5,-27.29L145.2,-27.1L145.5,-26.59L144.1,-26.57L143.6,-26.25L143.2,-26.19L142.1,-26.28L141.9,-27.44L142.2,-27.57ZM158.5,-31.5L158.4,-31.44L158,-31.48L157.1,-31L156.8,-31.02L156.9,-31.21L157.1,-31.36L157.3,-31.48L157.5,-31.53L158,-31.63L158.3,-31.65L158.5,-31.53ZM160.3,-31.55L159.7,-31.38L159.3,-31.44L160.2,-31.95L160.5,-32.12L160.7,-32.2L160.9,-32.2L161.2,-32.1L161.2,-32.03ZM337.6,-16.39L337.3,-16.3L337.1,-16.32L337.1,-16.49L337.3,-16.97L338.4,-17.02ZM335.3,-15.63L334.4,-15.59L334.2,-15.73L334.7,-16.11L335.6,-16.15L335.9,-16.07ZM338.9,-19.73L339,-19.33L338.9,-19.33L338.3,-19.61L337.7,-19.63L337.5,-19.71L337.4,-19.86L338.4,-19.88ZM363.4,4.406L363.4,5.114L362.6,4.906L362.6,4.281L362.9,3.635L363.1,3.572ZM379.4,70.32L378.8,70.44L378.9,69.97L380,69.16L381.7,68.63L382.1,68.61L381.8,69.32ZM376.5,82.54L374.6,83.19L369.8,83.36L367.8,83.11L366.2,83.29L369,81.88L369.4,81.27L370.6,81.14L370.9,80.96L371.3,77.82L371.1,77.05L370.9,76.64L370.4,76.34L369.4,75.93L369.1,75.71L369.8,75.36L371.3,75.18L372.4,74.79L374.6,74.71L375.7,74.39L377.6,74.28L376.7,75.73L376.3,76.28L376.4,77.59L376.2,78.47L376.5,79.58L377,80.33L376.6,81.04L376.6,82.14ZM374.6,47.05L374.3,47.23L373.4,46.43L373.6,45.51L374.1,45L374.6,44.71L375.1,44.67L375.2,45.45L375.1,46.51ZM374,48.97L373.9,49.09L373.9,49.09L373.9,49.2L373.8,49.09L373.7,49.05L373.6,49.03L373.4,49.03L373.4,48.93L373.6,48.99L373.9,48.93L373.9,48.85L373.8,48.77L373.8,48.7L373.9,48.6L374.2,48.4L374.3,48.3L374.4,48.34L374.4,48.38L374.4,48.42L374.4,48.46L374.2,48.62ZM372.8,52.49L372.7,52.51L372.6,52.47L372.6,52.43L372.7,52.41L372.8,52.33L372.8,52.23L372.8,52.1L372.9,52.04L373,52.02L373,52.06L373,52.19L373,52.27L372.9,52.33L372.9,52.43ZM377.8,39.19L377.2,40.44L375.9,39.66L375.8,38.67L375.9,38.08L376.7,36.97L377.3,36.23L377.7,35.98L378,36.95ZM359,-0.163L358.5,0.088L358,-0.267L358.1,-1.102L358.6,-1.123L359,-0.747ZM357.9,-1.583L357.6,-1.416L357.1,-2.147L356.2,-2.356L355.5,-2.795L355.5,-2.879L355.5,-3.109L355.7,-3.36L356,-3.548L356.9,-2.962L357.4,-2.21L357.8,-1.855ZM273.6,248.4L273.5,249.1L273.1,249.4L272.6,249.5L271.7,249L271.1,249.1L270.4,249.1L269.5,248.5L269.2,247.9L268.5,247.4L267.1,247.6L265.9,247.6L264.9,247.5L264,247.7L263.2,248.3L262.7,249.1L262,249.7L260,250.1L259,250.1L258,250.6L256.7,250.7L255.7,251.1L254,251.3L252,251.5L250.8,252L250.4,252.3L249.3,253.1L247.2,254.3L246.2,254.7L244.8,256.1L243.2,257.3L242.2,258L240.6,258.3L240,258.6L239.8,259L239.9,259.5L239.7,260.7L239.2,262.9L239,264L239,264.5L237.9,266.3L236.8,268L236.3,269.1L236,269.9L236.3,270.6L236.8,271.8L237.1,272.7L237.3,273.4L237.1,274.1L236.7,274.8L235.9,275.3L235,275.4L232.9,276.6L230.7,278.4L230,279.2L229.8,280L229.4,281.2L229.6,281.9L230,282.3L230.4,283.4L230.4,283.9L230.1,284.2L229.4,284.3L228.9,284.4L228.4,284.6L228,284.6L227.6,284.7L227.6,285.1L227.7,285.7L227.7,286.2L227.4,286.5L227.2,286.8L227.4,287.1L227.8,287.4L228.4,287.9L229.3,288.9L229.9,289.1L230.4,289.4L230.5,289.9L230.3,290.5L229.8,290.7L229.8,291.2L230.4,291.7L230.8,292.2L231.3,292.8L231.7,293.6L231.7,294.1L232.1,294.8L232.4,295.4L232.4,295.9L233.1,296.5L233.7,296.9L234.1,297.2L234.6,297.5L234.6,297.9L234.6,298.5L235.2,299.5L236.4,300.3L237.3,301.4L237.9,302.2L239,303.5L239,304.9L237.7,306.6L236.3,308.3L238.5,308.3L240.9,308.3L243.3,308.8L244.9,309.3L245.8,309.5L246.5,310L246.9,310.9L247.1,311.5L247.2,312.6L248.2,313.4L248.1,314.1L248.1,315.2L248.6,315.3L251.5,315.3L254.7,315.3L257.8,315.1L258.9,314.8L260.3,313.5L261.2,313.1L262,312.5L263,311.3L263.8,310.8L264.5,310.2L265.4,309.6L265.9,309.1L266.2,308.9L267,308.6L266.6,309.2L266.4,309.9L266.3,310.8L266.7,311.8L266.3,312.5L265.9,313.1L265.9,314.9L265.9,317.3L265.9,319.4L265.8,322L265.8,325L265.8,327L266.3,326.6L267.1,326.3L268,327.2L268.7,327.6L269.2,327.7L269.9,327.6L270.7,327.4L272.4,326.7L273.6,326.1L275,326.1L276.9,326.3L278,326.3L279.5,328.9L280.5,330.7L281.7,332.8L282.7,334.6L284.1,337.1L285.4,339.4L286.7,341.8L288.3,344.5L287.8,345.2L287.4,345.8L287.5,346.7L286.8,347.2L286.2,347.5L285.4,348.3L284.9,349L284.9,349.9L285,354.9L284.9,356.3L284.5,357.4L284.1,358L283.8,358.4L284.4,359.6L285,361.9L285.4,362.4L285.9,363.3L286.2,364.2L286,364.6L285,365L284.6,365.4L284.5,366.7L284.1,367.2L283.3,367.8L282.8,368.5L282.4,369L282,369.3L281.8,370.2L281.5,371.1L280.5,371.6L280.4,372.7L280.4,373.6L280.9,374.5L282.5,376.4L282.7,376.9L281.7,378.1L281.2,378.8L279.9,381.3L279.8,381.7L280.2,382.9L282.2,387.8L282.5,388.2L283.1,388.7L284.1,388.6L285.7,389.1L286.4,389.8L286.5,390.1L286.3,390.3L285.5,390.7L284.6,391.2L284.3,391.7L284.2,392.5L284.4,393.7L284.1,394.1L283.1,394.6L282.4,395.2L281.6,396.3L280.3,398L279.8,398.5L279.6,399.1L278.9,399.3L277.5,400.4L277.3,401L277.5,401.6L278.2,402L278.7,402.7L278.8,403.5L278.8,404.1L277.9,404.9L276.8,405.8L275.4,406L274.9,406.5L275,407.5L275.5,408.8L275.5,409.9L275,411.2L274,412.6L272.5,413.5L271.1,414L269.9,414L268.8,414.1L268.4,414.2L267.5,413.4L263.8,410.7L262.4,409.2L261.1,408.5L257.8,406.2L257.5,405.5L257.1,403.1L256.7,402.4L255.6,401.6L252.8,400.4L251.7,399.8L250.6,398.8L248.9,398L247.1,396.5L246,395.3L244.8,394.5L241.1,393.4L239.2,392.2L235.7,390.7L234.1,389.6L230.3,388.4L229.2,387.8L225.5,385L222.9,384L220.8,382.4L214.5,379L213.5,377.9L212.5,376.2L211.1,375.2L209.6,372.9L207.2,371.5L205,369.7L204.1,368.1L202.7,366L202.2,364.9L200.9,363.8L200.8,361.6L199.9,360.6L200.5,360.1L201.3,359.9L202.1,356.5L201.6,354.8L199.3,351.7L198.4,350.2L197.8,348.3L196.9,347.2L195.5,344.8L194.6,342.7L192.8,341.2L192.3,340.6L192,339.9L190.9,339.3L190.9,337.7L190.2,334.7L189.2,333.1L185.4,330.3L185.4,329.1L185.1,327.1L184.2,325L180.1,318.2L179.1,316.2L178,313L177.1,311.1L176.1,307.8L174.6,305.4L173.6,303.2L172.5,300.5L172.4,299.1L170.6,296.6L169.6,294.4L167.9,292.5L166.1,291L165.4,290L163,285.2L162.6,283.7L161,281.1L159.3,279.2L158.3,277.6L157,276.3L148.9,272L146,270.2L145.1,269.4L144.7,268.1L144.8,267.3L145.7,266.6L146.8,267.1L147.5,266.9L148.1,266L148.1,264.5L147.4,262.7L144.8,259.1L145,258.4L145.5,257.5L144.5,255.8L143.4,254.4L142.9,253.4L143.5,249.4L144.1,248.4L148,244.3L149.1,242.6L150.7,241.5L152.5,239.9L154.5,238.6L154.8,238.8L155.1,239L155.1,239.5L155.2,239.8L155.4,240.2L155.4,240.8L155.7,241.2L155.7,241.7L155.7,242.3L155.6,242.7L155.7,243.2L156.2,244.3L156,244.6L155.6,244.8L155.1,245.1L154.7,245.7L154.1,245.7L153.2,245.4L152.6,245.8L152.4,246.5L152.5,247L152.6,247.6L153,248L154.2,248.1L153.1,249.5L152.6,250.2L152.7,250.6L153.4,251L153.8,251L154.9,250.5L155.6,249.7L156,249.3L156.6,249.1L157.5,249.4L158.7,250.2L160,250.8L160.6,251.2L161.6,251.1L162.4,250.9L163.1,251.4L163.8,251.9L164,253.4L164.5,254.5L165.1,255.3L165.9,256.4L166.7,256.7L167.6,256.7L168.8,257.1L169.3,256.8L169.8,256.1L170,255.7L170.7,255.6L170.7,255.1L170.6,254.5L170.8,253.9L171.3,253.3L172.7,252.5L173.3,252.1L173.5,251.6L173.7,250.9L173.6,250.6L173.4,250.1L173.4,249.4L173.8,248.5L174.3,247.5L174.7,246.1L174.9,245.5L175.4,245.1L175.6,244.5L175.8,243.9L176.4,243.1L176.4,242.3L176.6,241.9L176.6,241L177.2,239.1L177.2,238.7L177.5,238.6L178,238.7L178.3,239.2L178.4,239.6L178.6,239.8L179,239.7L179.4,239.5L179.4,239.1L179.1,238.8L179,238.5L179.1,238.2L179.7,237.4L180.4,236.5L181.9,234.7L182.8,233.9L185.2,233.1L186.9,232.5L188.6,232L190.9,231.1L194.1,230L196.4,229.1L198.5,227.6L200.1,226.4L201.5,225.4L203.2,224.2L205.5,221.4L207.2,219.5L208.3,218.1L209.2,217.2L209.8,214.8L210.6,212L210.9,210.7L211,210.3L211.3,210.5L211.7,210.8L212.1,210.8L212.6,210.8L212.8,210.6L212.5,207.8L212.5,207.2L212.7,206.4L212.7,206L212,205.5L210.8,204.3L210.4,203.4L210.1,202.5L209.3,202L208.5,201.5L208.5,201.1L209,201.1L210.2,201.5L211.1,201.3L211.8,201.3L212.4,200.9L213.1,200.1L213.6,200.1L214.1,200.2L215.1,201L215.7,201.4L216.4,201.8L217,201.9L217.6,202L218,202L218.2,202.5L218.5,203.1L219.3,203.5L220.1,203.9L220.8,204.6L221.3,205L221.9,205.6L222.4,206.3L222.9,207.6L223.1,208.5L223.4,208.9L223.3,209.4L223.9,210.3L224.4,210.8L225.1,211.1L226.6,211.5L227.4,212.3L228,212.6L228.8,213.4L229.4,213.7L230.3,213.6L231,214L231.7,214.8L232.1,215.8L232.7,216.3L233,217.3L232.7,218.5L233,219.1L233.7,219.6L234.7,220.2L235.6,220L236.1,220.2L236.4,220.7L236.6,221.3L237,222.7L237.3,223.6L236.8,224.4L236.7,225L236.9,225.8L237.9,226.2L238.8,226.5L239.4,227.2L240,227.3L240.9,227.3L242,227.1L242.6,226.8L243,226.7L243.5,226.8L244.5,227.2L245.7,227.6L246.7,227.3L247.7,227.2L248.6,227L249.6,226.4L250.4,226.4L251,226L251.7,225.3L252.4,224.6L253,224.4L254,224.7L255.3,225.2L256,225.8L256.5,226L257.1,226.5L258.2,226.5L259.4,226.2L260.4,225.5L261.4,225.2L262,225L262.7,225.2L265.1,226.6L265.7,227.3L266.6,227.4L267.3,227.8L268.4,228.3L269,228.7L269.8,229L270.4,229.6L271.3,230L272.1,230.2L272.4,230.7L272.4,231L272.3,231.3L271.5,232.6L269.9,235.2L268.4,237.5L266.1,241.1L264.7,243.2L265.1,243.2L267.1,244.1L267.6,244.2L268.3,243.9L268.8,243.6L269.3,243.5L269.7,243.9L270.4,244.3L270.9,245.6L271.3,246.2L272.1,246.7L273,247.5ZM378.2,482L376.3,480.9L375.7,479.7L374.2,478.4L372,477.2L370.8,476.3L370.8,476L370.1,475.4L368.8,474.8L367.4,473.7L366,472.2L364.4,469.8L362.7,466.6L360.9,464.4L358.9,463.3L358,462.6L358,462.2L357.7,461.9L357.9,461.3L358.6,458.9L359.7,455.3L360.7,451.7L362,447.5L362,444.4L362,441.3L363.8,438.7L365,436.8L366.1,435L367.2,432L367.9,430L370.8,429.6L375.6,428.5L377.9,428L383,426.9L388.1,425.8L393.4,425.7L398.6,425.7L402,427.8L402,482ZM188.4,99.74L188.2,99.9L187.6,100.8L187.2,101.6L188,102.4L188.3,103.3L188.8,104.3L189.5,105.2L190.3,107L190.4,107.7L190.2,108.2L189.5,108.5L188.8,109.3L188.5,110.3L188.7,110.8L186.5,112.4L186,112.7L185.6,112.4L185.2,111.6L184.6,111L184.3,110.7L184.1,110.7L184,110.9L183.9,111.2L184.2,112.8L183.9,113.4L183.2,113.8L182.4,116.3L182,116L179.3,112.7L176.9,108.6L176.4,106.7L177,106.6L177.6,106.6L177.9,106.3L178.3,105.8L178,104.5L179.2,103.6L179.6,102.9L179.9,103L180.7,104.1L181.8,104.7L183.1,105.6L184,105.8L182.9,104.9L181.1,103.6L180.6,102.8L180.1,101.6L179.4,102.1L179,102.5L178.7,102.8L178.3,102.5L178.3,102.1L177.2,102L176.9,101.7L176.6,101.5L176.8,102.2L177,102.7L176.9,103.2L176.5,103.2L176.2,102.7L175.8,102.2L175.3,100.1L174.1,99.09L173.5,98.77L173.1,98.63L172.4,97.96L171.5,97.6L170.3,96.55L168.7,95.8L166.9,95.52L164.7,95.7L163.9,96.1L163.4,96.65L163.1,96.89L161.8,97.5L161.3,98.36L161,99.11L160.4,99.96L161.1,100.5L156.8,103.3L155.9,103.7L154,104L153.5,104.3L153,104.9L152.9,105.7L153,106.5L153.5,107.1L154,107.4L155.2,109.1L157.4,111.3L157.8,112L158.1,113.2L157.5,113.7L157,113.9L154.9,114L154.2,114.5L153.9,115.2L153.2,115.8L150.6,116.4L148.5,116.4L147.9,115.8L147.7,113.9L146.3,110.7L146,108.6L145.7,108.8L144.9,109.1L144.7,109.6L144.5,111.2L144.2,111.8L143.6,111.7L142.5,111.1L141,110.6L139,107.2L138.8,106.6L138.4,105.8L136.9,105.5L135.5,104.9L134.1,104.8L133.4,105.1L132.7,104.7L132.6,103.8L131.1,104.2L129.1,104.1L127.4,103.7L126.3,103.9L125.3,104.5L125.4,106.2L125.1,106.6L125.1,105.9L124.7,105.1L124.3,104.4L123.5,103.7L123.4,103.5L123.8,103.1L125.4,102.1L125.5,101.7L125.6,100.8L125.4,100L124.7,98.79L125.1,98.02L125.9,97.42L126.7,96.93L126.9,96.73L126.7,96.33L126.2,95.88L125.1,95.11L124.4,95.05L124.4,92.87L124.4,90.52L124.6,90.3L125,90.16L125.4,89.8L125.6,89.11L126,88.86L126.9,89.39L127.8,89.88L128.2,89.71L128.5,89.49L128.7,89.25L128.7,89.05L129.5,89.67L131,90.77L131.1,91.31L130.9,91.84L131.4,93.33L132.1,93.54L132.9,93.25L133.1,93.54L132.9,93.8L132.6,94.1L132.4,95.4L133.7,96L134.3,96.53L136.4,96.27L137.2,96.41L137.8,96.27L137.2,95.23L136.4,94.47L136.4,94.12L137.1,94.39L137.5,94.89L138.6,95.54L140.5,97.78L142.7,98.31L144.4,98.24L146,97.94L148.6,97.07L150.5,95.5L152,94.81L156.8,93.31L158.5,91.76L159.2,91.56L159.9,91.35L161.4,90.18L162.2,89.25L163.1,88.8L165.7,89.13L167.3,89.57L168.4,89.51L169.6,89.81L170,90.48L170.5,90.77L173.2,90.7L175.4,91.03L180.3,93.01L183.2,94.97L184.7,97.05ZM170.9,104.2L170.7,104.7L170.1,103.6L170.2,103.3L170.2,102.3L170.7,102.1L171.1,102L171.4,102.2L171.6,103.3L171.4,103.9ZM139.8,115.1L139.2,115.2L137.9,114.7L136.9,113.7L136.9,113.4L136.9,113.1L137.4,112.1L138.1,111.8L138.3,111.8L139,112.9L138.6,113.3L138.8,114L139.7,114.6ZM132.6,91.33L132.4,91.88L131.6,90.89L132.1,90.72L132.3,90.75ZM169,104.4L168.5,104.9L168.3,104.5L168.6,104L168.8,104ZM121.9,25.3L121.6,25.73L121.3,26.02L120.5,27.45L120.3,27.57L120.2,26.52L119.8,26.37L119.3,26.74L119,27.28L119.4,28L119.8,28L120.3,28.19L121.6,33.05L121.3,33.92L120.5,35.26L119.8,36.41L119,37.13L118.1,40.17L117.2,45.12L117.8,49.56L117.5,53.66L117.8,54.64L117.9,55.84L117.2,56.05L116.9,56.03L116.5,55.27L116.6,54.64L117,53.86L117.1,52.84L116.9,52.29L116.5,53.47L115.9,54.01L115.5,54.19L115.1,54.78L115.5,55.91L116.1,56.72L116.2,57.32L116,58.01L115.9,60.4L115.7,60.34L115.5,60.01L114.9,59.99L114.8,60.95L114.9,61.48L114.4,61.91L114.2,62.32L114.6,62.6L115.1,62.78L115.6,62.74L116.1,63.93L116.2,64.88L115.2,65.78L114.8,66.51L114.2,67.39L113.9,68.27L113.8,68.89L114.2,70.89L114.9,72.29L115.5,73.19L116.4,73.39L116.2,74.33L115.5,74.91L114.4,75.42L113.2,75.5L111.2,75.04L110.3,74.97L110,74.73L109.9,74.26L109.3,73.57L108.3,72.66L107.6,72.72L106.6,72.52L105,71.89L104.2,71.8L103.1,72.35L101.8,73.04L98.7,71.95L96.51,71.17L94.56,70.46L94.03,70.2L93.61,70.26L93.24,70.63L92.83,71.28L92.66,71.46L92.45,71.64L92.2,71.68L92.2,71.38L91.21,70.08L89.72,68.53L83.89,63.76L81.73,60.91L80.58,58.85L79.46,57.77L76.31,55.58L75.61,54.7L72.46,51.78L70.11,50.04L70.06,49.32L71.06,48.4L71.51,48.44L72.05,49.09L72.88,49.83L73.29,49.85L73.87,49.5L73.87,49.16L77.1,49.01L77.64,48.81L78.22,48.27L78.55,47.52L78.59,46.8L78.71,46.27L79.21,45.75L80.16,45.61L80.86,45.55L81.07,45.2L80.86,44.09L80.49,41.4L80.41,40.64L80.53,40.09L80.82,39.88L82.23,39.76L84.92,39.99L85.46,39.8L86.53,38.28L87.53,37.15L88.23,36.64L88.81,36.49L89.43,37.5L91.71,38.92L92.08,38.84L92.33,38.75L92.37,38.55L92.37,37.89L92.91,37.29L94.11,36.76L95.27,35.79L96.47,34.43L97.5,33.63L98.37,33.38L98.7,33.01L98.5,32.52L98.54,31.8L98.91,30.85L99.41,30.31L100.1,30.17L100.3,29.88L100.2,29.43L100.3,28.95L100.9,28.15L102.3,27.47L103.2,27.71L103.9,28.62L104.8,29.24L106.1,29.57L107,29.45L107.7,28.87L108.3,28.7L108.9,28.93L109.2,28.81L109.2,28.31L109.5,28.21L110,28.48L110.5,28.54L111,28.42L111.1,28.17L111.2,27.94L111.5,27.76L112.6,27.94L113.8,27.65L115.1,26.93L116,26.6L116.5,26.68L117,26.31L117.6,25.48L119,25.11ZM293.8,58.99L293.2,60.3L292.9,59.73L292.9,58.66L292.6,58.26L292.2,58.01L291.9,57.66L291.9,57.13L293.7,57.97ZM354.4,-4.678L354.1,-4.426L353.8,-4.447L353.7,-4.678L353.7,-5.096L353.9,-4.971L354,-4.929L354,-4.845ZM351,-6.206L350.9,-6.164L350.7,-6.268L350.8,-6.478L350.9,-6.562L351,-6.499L351.1,-6.352ZM274.3,55.38L274.4,55.7L273.8,55.52L273.1,54.8L272.4,54.25L272.6,53.66L272.8,53.45L273.5,54.01L274.2,55.03ZM287.5,59.99L287,60.15L284.7,59.01L282.9,57.17L282.9,56.21L283.3,56.3L283.8,56.66L284.5,57.97L286.7,58.83ZM-38.01,-42L-33.85,-37.39L-30.95,-33.48L-29.92,-29.79L-29.3,-28.64L-29.01,-27.06L-27.11,-25.3L-26.52,-24.16L-25.53,-23.53L-24.7,-21.63L-23.13,-20.51L-23.5,-20.49L-24.87,-21.06L-24.79,-20.68L-23.63,-19.9L-21.39,-19.12L-20.86,-19.12L-21.73,-19.52L-22.47,-20.07L-22.22,-20.15L-20.65,-19.48L-16.3,-19.25L-14.36,-17.67L-11.88,-17L-10.55,-14.98L-8.979,-12.87L-7.985,-12.77L-7.199,-12.77L-4.882,-13.13L-1.24,-14.45L0.002,-15.08L2.443,-15.96L6.168,-16.13L7.327,-15.88L10.1,-16.43L11.46,-17.1L11.92,-17.71L12.13,-18.17L14.69,-18.81L15.23,-18.93L17.84,-19.06L19.12,-19.29L20.57,-19.44L21.64,-18.49L21.64,-18.03L20.94,-17.58L21.27,-17.16L22.56,-16.45L24.87,-16.18L25.66,-16.28L26.73,-17.31L28.64,-18.32L28.6,-19.48L28.23,-20.13L27.69,-20.18L27.56,-20.53L27.94,-21.38L27.85,-21.67L26.65,-20.85L26.4,-20.85L26.53,-21.23L26.78,-21.55L30.21,-23.34L31.12,-24.08L32.28,-24.73L34.76,-27.16L35.3,-31.78L35.8,-32.59L37.45,-34.01L37.62,-34.43L37.74,-35.39L37.7,-37.81L37.78,-39.73L37.7,-41.9L37.72,-42L76.1,-42L76.1,-42L75.24,-41.3L72.92,-37.92L72.38,-36.32L72.42,-35.07L72.8,-33.84L72.67,-33.39L72.42,-32.93L71.93,-32.97L71.02,-32.37L69.86,-30.64L69.82,-30.11L70.35,-29.62L71.02,-29.85L71.89,-29.87L72.38,-30.02L72.88,-29.98L72.75,-28.98L72.22,-28.29L71.89,-28.05L71.26,-27.95L70.56,-27.55L70.19,-27.16L70.23,-26.02L70.6,-25.94L71.43,-26.78L71.93,-26.74L72.01,-26.38L70.93,-23.45L70.27,-20.43L69.32,-18.7L68.99,-16.15L68.53,-15.08L67.95,-14.01L67.62,-14.07L66.75,-16.09L65.8,-16.62L65.64,-17.1L66.13,-19.56L65.88,-20.93L65.43,-20.87L64.81,-20.13L64.02,-19.48L64.02,-18.53L63.11,-17L62.86,-16.47L61.99,-16.59L60.96,-16.53L60.26,-16.15L59.51,-14.28L57.73,-11.63L56.99,-10.33L56.41,-9.894L55.95,-9.726L55.41,-10.04L54.21,-10.75L53.22,-10.4L52.89,-9.579L52.93,-8.531L50.49,-8.531L46.39,-8.531L41.18,-8.531L36.13,-8.531L31.91,-8.552L31.91,-6.185L31.87,-4.092L31.87,-1.75L29.55,-1.771L27.07,-1.792L27.27,-1.541L28.1,-1.102L29.22,-0.058L30.5,1.57L32.07,2.884L33.9,3.843L35.09,4.802L35.67,5.718L36.01,6.51L36.01,7.176L36.67,7.675L37.87,8.029L38.49,8.611L38.49,9.069L38.12,10.15L37.99,11.34L38.16,12.41L37.29,12.44L35.18,12.44L32.03,12.44L29.09,12.44L26.78,12.44L23.3,12.44L22.35,14.1L20.78,16.83L19.33,19.3L18.13,21.39L17.92,21.93L17.92,22.38L19.41,24.33L19.16,24.89L18.62,25.2L18.46,25.65L18.5,26.39L18.13,27.36L18.25,28.05L18.46,28.89L18.13,29.61L17.88,30.31L17.59,30.62L17.26,30.36L14.2,27.12L10.97,23.56L9.727,22.4L8.527,21.52L6.871,19.88L2.567,16.27L0.333,14.62L-1.737,12.64L-3.599,11.54L-5.461,10.84L-6.289,10.42L-6.992,9.88L-7.406,9.838L-7.613,10.57L-6.951,10.94L-6.165,11.25L-5.585,11.27L-4.923,11.54L-3.019,12.54L-2.73,13.06L-8.11,11.04L-10.3,10.86L-10.55,10.54L-9.434,9.506L-9.806,9.131L-10.18,9.069L-11.34,9.797L-11.79,9.838L-11.88,9.36L-11.83,8.923L-12.58,8.258L-13.03,8.279L-13.45,8.736L-14.48,9.61L-14.44,9.963L-12.41,10.34L-11.75,10.54L-11.88,10.77L-13.61,10.77L-15.72,11.17L-19.53,13.58L-23.09,14.62L-28.14,16.96L-30.37,17.06L-31.57,17.44L-34.97,16.54L-39.31,14.37L-42,14.09L-42,-42ZM80.54,-42L80.58,-41.84L79.95,-40.81L78.47,-38.79L78.47,-38.79L77.84,-38.41L77.56,-39.77L78.01,-41.07L78.59,-41.84L79.75,-41.92L79.98,-42L80.54,-42ZM23.92,-18.95L22.64,-18.68L22.39,-18.95L25,-20.18L25.45,-20.13L25.62,-19.96L24.25,-19.38ZM189.7,-16.3L191.1,-15.86L192.6,-15.63L193.2,-15.63L193.8,-15.48L195.1,-14.45L196.2,-13.86L200.2,-12.6L201.5,-10.4L201.8,-9.705L200.8,-9.307L199.4,-9.16L198.2,-9.139L197,-9.558L196.5,-9.894L195.3,-10.04L195.6,-10.33L195.1,-10.48L194.4,-10.44L193.9,-9.6L193.3,-8.929L192.3,-8.992L191.9,-9.558L191.4,-9.307L190.9,-8.887L190.4,-7.316L189.5,-8.091L188.5,-8.741L187.4,-9.013L185,-9.055L183.9,-9.286L183,-10.61L182.6,-10.98L181.6,-11.34L180.7,-12.85L180.4,-13.06L177.8,-13.4L177.3,-14.24L177.5,-15L178.3,-15.92L178.7,-16.18L180.1,-16.15L181.5,-16.43L182,-16.83L182.7,-17.08L187.5,-16.41L188.6,-16.41ZM121.9,25.3L119,25.11L117.6,25.48L117,26.31L116.5,26.68L116,26.6L115.1,26.93L113.8,27.65L112.6,27.94L111.5,27.76L111.2,27.94L111.1,28.17L111,28.42L110.5,28.54L110,28.48L109.5,28.21L109.2,28.31L109.2,28.81L108.9,28.93L108.3,28.7L107.7,28.87L107,29.45L106.1,29.57L104.8,29.24L103.9,28.62L103.2,27.71L102.3,27.47L100.9,28.15L100.3,28.95L100.2,29.43L100.3,29.88L100.1,30.17L99.41,30.31L98.91,30.85L98.54,31.8L98.5,32.52L98.7,33.01L98.37,33.38L97.5,33.63L96.47,34.43L95.27,35.79L94.11,36.76L92.91,37.29L92.37,37.89L92.37,38.55L92.33,38.75L92.08,38.84L91.71,38.92L89.43,37.5L88.81,36.49L88.23,36.64L87.53,37.15L86.53,38.28L85.46,39.8L84.92,39.99L82.23,39.76L80.82,39.88L80.53,40.09L80.41,40.64L80.49,41.4L80.86,44.09L81.07,45.2L80.86,45.55L80.16,45.61L79.21,45.75L78.71,46.27L78.59,46.8L78.55,47.52L78.22,48.27L77.64,48.81L77.1,49.01L73.87,49.16L73.95,47.91L73,47.39L72.51,46.37L72.05,45.67L72.17,45.24L72.13,44.75L70.85,44.36L69.61,44.65L68.91,44.46L68.41,44.2L69.28,43.58L69.36,43.21L69.07,42.92L68.78,42.76L68.86,42.06L69.03,41.24L69.53,39.31L69.36,38.96L68.53,38.38L67.5,38.32L66.38,38.51L65.84,38.22L65.35,37.56L64.52,37.23L63.11,37.77L61.58,38.57L61.13,38.86L60.71,38.82L60.55,38.22L60.46,37.5L60.38,37.34L59.55,37.09L58.6,36.9L58.15,36.7L57.69,36.23L56.53,35.61L56.28,35.16L54.75,34.08L54.46,33.57L54.13,33.18L53.39,32.7L52.81,32.81L50.9,32.21L50.61,32.15L50.86,31.61L51.48,30.81L52.81,29.88L52.89,29.14L52.56,27.73L52.23,26.81L52.39,26.39L52.81,24.74L53.14,24.35L55.04,23.52L55.21,23.4L56.74,22.22L58.39,20.91L60.13,19.49L62.08,17.87L63.15,16.94L63.65,16.52L64.77,16.86L65.64,16.09L66.13,15.84L67.33,14.93L67.7,14.72L69.69,14.35L70.64,14.37L71.51,15.28L72.17,15.8L73.42,15.36L74.49,15.26L78.84,16.13L80.58,15.74L83.72,15.65L85.17,15.88L87.2,14.66L88.48,14.41L90.01,13.85L89.8,13.25L89.43,13L91.75,13.25L95.18,14.49L98.87,14.26L100.2,13.6L101.1,13.41L104.8,14.68L105.8,15.65L106.6,15.74L107.2,15.53L107.4,15.32L106.6,15.11L106.3,14.8L109.3,15.4L114.8,20L115,20.38L112.6,19.03L111.3,19.13L111,19.34L111,20.09L111.2,20.44L111.7,20.48L112.1,20.27L113.1,20.52L113.7,21.02L114.5,21.76L115,22.59L115.5,22.61L116,22.11L117,22.05L117.6,22.59L118,22.57L117.4,21.7L116,20.85L116.3,20.83L119.5,22.36L120.4,24.27L121.2,24.7ZM84.42,8.757L82.6,9.693L82.02,9.672L82.85,8.944L84.22,8.32L85.38,8.029L86.33,8.154ZM90.76,7.758L89.89,8.445L89.72,8.133L90.14,7.488L90.67,7.134L91.17,7.155L91.05,7.446ZM252.7,-31.63L253,-31.27L253.5,-28.82L253.6,-28.01L253,-26.83L253.1,-26.36L254.3,-25.26L254.3,-24.88L254.1,-24.48L253.1,-23.45L252.4,-22.73L252.6,-21.91L253.3,-21.14L253.4,-20.49L253.1,-19.63L252.2,-18.57L251.7,-18.2L250.3,-18.15L250.2,-18.01L250.9,-16.97L251.7,-15.8L252.9,-14.89L253.2,-14.03L252.9,-13.23L252.9,-11.24L251.9,-12.2L250.8,-13L250.2,-13.31L249.5,-13.53L244.4,-13.42L243.8,-13.27L243.4,-13.02L242.9,-12.89L241.5,-12.64L240.1,-12.6L236.8,-13.25L235.6,-13.59L234.3,-13.8L232.8,-13.74L231.3,-13.53L230.1,-13.06L229.2,-12.22L229.1,-11.47L228.5,-11.26L227.3,-12.5L226.2,-13.36L225,-14.01L222.4,-14.96L221.9,-15.52L221.7,-16.2L222.8,-18.32L223.9,-18.72L224.6,-18.79L226,-18.53L227.5,-18.05L228.8,-17.73L230.8,-17.61L231.9,-17.08L239.7,-16.28L241.1,-16.03L241.7,-16.11L242.2,-16.43L242.6,-17L243.1,-17.44L245.4,-17.52L245.9,-17.71L246.2,-18.32L246.2,-18.93L244.8,-19.77L242.7,-21.59L240.9,-23.76L241.7,-24.48L241.4,-25.81L241.7,-27.04L242.1,-28.24L240.3,-29.28L238.1,-30.32L235.1,-30.64L234.2,-30.91L233.7,-31.68L234.1,-32.71L235.1,-33.31L236.2,-33.65L237.3,-33.9L240.1,-34.2L242.9,-33.86L245.2,-32.8L247.7,-31.95L250.7,-31.68L252.1,-31.38ZM240.9,-20.18L240.7,-19.33L237.8,-20.34L235.4,-21.63L235.5,-22.33L236.8,-22.47L237.9,-22.05L239.6,-21.21ZM242.6,-35.54L243,-35.26L242.8,-34.9L241.7,-35.11L240.5,-35.52L240.1,-35.41L239.9,-35.45L239.2,-35.83L239.8,-36.13L240.4,-36.22L241.1,-36.2ZM402,185.8L401.7,185.8L401.2,185.8L400.6,185.3L400,184.7L398.5,184.2L397,183.8L396,182.8L395.8,182.3L395.3,182.1L394.1,180.9L393.5,180.1L392.8,179.9L392,179.6L392,179L391.9,178.5L391.6,178.2L391.1,178.1L391,177.8L391,177.1L391.1,175.2L391,173.5L389.9,172.9L389.4,172.5L388.6,169.9L388.2,168.7L388.2,167.8L388.5,165.3L388.8,164.1L389.6,161.9L390.1,161.1L390.1,160.6L390,159.8L389.8,158.4L391.2,157.5L391.8,157.1L391.9,156.5L392.7,155.7L393,155L393.3,154.4L393.2,154.1L392.9,153.9L392.5,153.4L391.7,151.8L391.4,151.5L391.2,151L391.3,150.3L391.6,149.6L391.5,149.2L391.1,148.8L390,148.1L389.2,148.1L388.6,147.8L387.6,147.8L386.9,147.7L386.4,147.5L386.5,147.1L386.7,146.7L387.4,145.9L387.8,145.1L387.9,144.3L388,143.2L388.1,142.2L388.3,141.1L387.2,140.4L386.9,139.8L386.5,139.3L386.1,139.3L385.4,139.1L384.3,139.8L383.4,139.7L382.8,139.9L381.5,139.9L380.6,139.5L379.6,139.8L379.6,139.8L377.2,137L374.7,134.3L372.3,131.6L372.2,131.2L373.2,130L374.1,129.1L374.8,128.5L375.1,128.1L374.9,126.1L374.9,125.4L374.6,124.6L374.3,123.7L374.6,123L375,122.5L375.4,122.3L376.6,122.2L377.3,122.1L377.6,121.8L378.1,121.4L378.7,121.4L379.9,121.7L380.4,121.2L381.4,120.6L383.6,119.6L384.1,118.9L384.5,117.9L384.4,117.4L384.2,117.2L383.6,117.1L382.8,117L382.1,117.3L381.4,117.2L380.9,116.5L380.8,116L381.2,115.3L381,114.8L379.9,113.2L379.9,112.8L380.7,112.1L381.1,111.5L381.7,110L382.2,109.6L383.8,109.4L384.2,109.1L385,108.3L386.1,107.5L387.8,106.8L388.3,105.5L388.6,105.2L389.9,104.5L390.1,104.1L390.1,103.8L387.9,101L388.3,101.2L390,103L391,103.5L391.1,103.5L391.1,103L392,103.2L394.1,104.4L397.3,106.5L401.8,110.4L402,110.7L402,185.8ZM17.59,30.62L17.88,30.31L18.13,29.61L18.46,28.89L18.25,28.05L18.13,27.36L18.5,26.39L18.46,25.65L18.62,25.2L19.16,24.89L19.41,24.33L17.92,22.38L17.92,21.93L18.13,21.39L19.33,19.3L20.78,16.83L22.35,14.1L23.3,12.44L26.78,12.44L29.09,12.44L32.03,12.44L35.18,12.44L37.29,12.44L38.16,12.41L37.99,11.34L38.12,10.15L38.49,9.069L38.49,8.611L37.87,8.029L36.67,7.675L36.01,7.176L36.01,6.51L35.67,5.718L35.09,4.802L33.9,3.843L32.07,2.884L30.5,1.57L29.22,-0.058L28.1,-1.102L27.27,-1.541L27.07,-1.792L29.55,-1.771L31.87,-1.75L31.87,-4.092L31.91,-6.185L31.91,-8.552L36.13,-8.531L41.18,-8.531L46.39,-8.531L50.49,-8.531L52.93,-8.531L52.81,-5.598L52.68,-2.21L52.6,0.276L52.48,3.593L52.35,6.968L52.15,11.58L52.06,14.55L52.1,14.62L53.47,14.47L55.5,14.6L55.99,14.6L56.62,14.84L57.11,14.93L58.1,15.59L59.35,16.11L60.09,15.07L59.72,14.47L59.39,14.16L59.43,13.87L63.65,16.52L63.15,16.94L62.08,17.87L60.13,19.49L58.39,20.91L56.74,22.22L55.21,23.4L55.04,23.52L53.14,24.35L52.81,24.74L52.39,26.39L52.23,26.81L52.56,27.73L52.89,29.14L52.81,29.88L51.48,30.81L50.86,31.61L50.61,32.15L50.37,32.02L49.95,31.98L49,32.19L48.55,32.23L48.17,32.46L48.13,32.97L48.38,33.8L48.5,34.23L48.21,34.41L47.05,34.93L46.6,35.4L46.14,36.18L45.65,36.49L45.11,36.43L44.74,36.55L43.95,37.11L42.71,38.22L42.09,39.04L42.05,39.66L42.17,40.21L37.78,38.26L36.3,37.93L30.09,37.97L27.44,37.21L24.42,35.73L22.35,34.37ZM368.4,60.54L367.7,60.58L367.9,60.15L368,59.4L368.4,58.5L369.1,57.89L369.7,58.05L369.4,60.05ZM378.6,31.22L378.5,31.9L378.2,32.02L377.8,31.47L375.9,31.55L375.6,31.04L375.6,30.81L376.5,29.94L375.4,29.72L375,29.34L374.1,27.55L374.2,27.01L374.6,26.74L375.2,26.7L376.3,27.28L377.2,28.11L377.5,28.13L377.6,28.35L377.4,28.95L377.9,29.45L378.1,29.8ZM372.9,10.52L371.5,10.65L370.6,10.54L370.4,9.693L370.9,8.965L370.6,8.091L370.8,7.571L371.2,7.217L372,7.675L372.1,8.341L372.5,8.944L374.6,10.21ZM369.8,13.2L368.9,13.74L368.5,13.58L367.9,12.54L367.5,9.672L367.8,9.215L368,9.027L369.3,9.381L369.8,9.776L370.3,10.05L370,10.57L370.2,12.71ZM374,14.6L373.4,14.64L373.1,14.53L373,13.83L373.5,13.33L373.8,13.2L374.2,13.77L374.3,14.22ZM353.5,-11.59L352.2,-11.59L352.3,-11.87L352.9,-12.16L353.4,-12.12L353.5,-12.01ZM355.6,-9.265L355.4,-9.244L355.3,-9.349L355.2,-9.537L355.1,-9.705L355.1,-9.831L355.2,-9.768L355.9,-9.663L355.9,-9.516L355.7,-9.37ZM50.61,32.15L50.9,32.21L52.81,32.81L53.39,32.7L54.13,33.18L54.46,33.57L54.75,34.08L56.28,35.16L56.53,35.61L57.69,36.23L58.15,36.7L58.6,36.9L59.55,37.09L60.38,37.34L60.46,37.5L60.55,38.22L60.71,38.82L61.13,38.86L61.58,38.57L63.11,37.77L64.52,37.23L65.35,37.56L65.84,38.22L66.38,38.51L67.5,38.32L68.53,38.38L69.36,38.96L69.53,39.31L69.03,41.24L68.86,42.06L68.78,42.76L69.07,42.92L69.36,43.21L69.28,43.58L68.41,44.2L68.12,44.36L68.33,45.55L67.66,46.27L67.08,46.78L66.01,46.92L64.19,46.96L61.46,46.39L59.47,45.59L58.39,45.59L58.73,45.86L59.59,46.02L60.71,46.57L60.38,46.74L56.28,45.57L51.57,43.27L48.75,42.9L45.52,42.29L43.62,40.83L42.17,40.21L42.05,39.66L42.09,39.04L42.71,38.22L43.95,37.11L44.74,36.55L45.11,36.43L45.65,36.49L46.14,36.18L46.6,35.4L47.05,34.93L48.21,34.41L48.5,34.23L48.38,33.8L48.13,32.97L48.17,32.46L48.55,32.23L49,32.19L49.95,31.98L50.37,32.02ZM252.9,-11.24L252.9,-13.23L253.2,-14.03L252.9,-14.89L251.7,-15.8L250.9,-16.97L250.2,-18.01L250.3,-18.15L251.7,-18.2L252.2,-18.57L253.1,-19.63L253.4,-20.49L253.3,-21.14L252.6,-21.91L252.4,-22.73L253.1,-23.45L254.1,-24.48L254.3,-24.88L254.3,-25.26L253.1,-26.36L253,-26.83L253.6,-28.01L253.5,-28.82L253,-31.27L252.7,-31.63L253.2,-31.84L253.6,-32.56L254,-33.22L254.6,-33.58L255.3,-33.8L256.6,-33.77L258.4,-33.2L259,-33.22L260.8,-33.73L262.2,-34.03L263.6,-33.69L264.2,-33.24L265.3,-32.54L265.9,-32.33L267.7,-32.35L268.2,-32.29L269.7,-31.12L270.9,-30.66L271.7,-30.64L273,-31.08L273.7,-31.06L274.4,-30.06L274.6,-28.64L275.2,-27.36L276.2,-26.53L281,-26.87L282,-26.19L281.7,-25.62L281,-25.32L278.7,-25.45L277.7,-25.39L277.5,-24.84L277.5,-24.31L278.8,-24.18L280.1,-23.93L281.5,-23.51L282.8,-23.23L284.3,-23.04L285.8,-22.75L288.3,-21.71L291.1,-19.42L291.8,-18.89L292.3,-18.17L292,-17.27L291.1,-15.82L290.5,-15.35L289.7,-15.06L289.1,-14.47L288.6,-13.44L288.3,-13.36L287.9,-13.4L287.2,-13.99L286.7,-14.87L285.4,-15.69L283.9,-15.59L281.5,-16.09L280.1,-15.84L278.7,-15.8L277.3,-16.05L275.8,-16.13L274.4,-15.82L273,-15.29L272.5,-14.93L271.6,-14.11L271.1,-13.8L267.7,-13.38L266.7,-13.99L265.8,-14.83L264.4,-14.93L262.5,-14.3L261.4,-14.07L260.9,-13.78L260.8,-13.48L260.8,-12.31L260.5,-11.61L258.6,-8.95L257.6,-7.064L257.2,-6.478L256.7,-6.352L255.7,-7.441L255.1,-7.839L254.4,-8.028L254.1,-8.594L254.1,-9.412L253.9,-10.21L253.5,-10.82ZM373.4,22.24L372.3,22.51L371.9,20.44L371.1,18.95L371.3,18.02L371.4,17.66L373,18.24L373.4,18.93L373.7,20.77ZM218.9,-42L219.6,-41.47L221.3,-39.79L222.8,-39.13L224.1,-38.96L224.5,-39.07L224.9,-38.9L225.3,-38.66L225.6,-37.92L225.4,-37.13L224.7,-36.51L224.3,-36.05L222.5,-36L219.9,-35.79L217.4,-35.11L216.2,-34.56L215.7,-34.2L214.4,-33.88L214.3,-34.16L214.3,-34.52L214,-35.18L213.7,-34.58L213.2,-34.13L212.4,-33.77L209.4,-33.75L208.2,-34.24L206.9,-34.6L202.4,-34.94L201.3,-34.92L198.3,-34.54L195.3,-34.35L194,-34.11L192.7,-33.77L190.3,-33.77L187.4,-33.39L184.5,-33.31L186.4,-36.09L190.3,-38.75L191,-39.32L191.5,-40.07L191.7,-40.62L191.5,-41.11L190.5,-41.94L190.5,-42L218.9,-42ZM128.7,89.05L128.7,89.25L128.5,89.49L128.2,89.71L127.8,89.88L126.9,89.39L126,88.86L125.6,89.11L125.4,89.8L125,90.16L124.6,90.3L124.4,90.52L124.4,92.87L124.4,95.05L125.1,95.11L126.2,95.88L126.7,96.33L126.9,96.73L126.7,96.93L125.9,97.42L125.1,98.02L124.7,98.79L125.4,100L125.6,100.8L125.5,101.7L125.4,102.1L123.8,103.1L123.4,103.5L123.5,103.7L124.3,104.4L124.7,105.1L125.1,105.9L125.1,106.6L124.4,105.3L123.3,104L122.3,103.3L122.2,101.5L121.9,100.5L120.5,99.66L119.2,99.05L118.4,99.17L118.9,100.2L120.3,101.5L120.4,102L120.4,102.7L119.4,102.6L118.6,102.3L117.5,102.2L116.8,101.8L115.3,100.2L116.4,98.91L116.7,98.04L116.7,96.22L116.4,95.36L115.3,94L113.4,92.55L110.9,91.33L109.7,90.38L106.7,89.63L105.6,89.15L104.7,88.24L104.5,87.57L104.9,86.56L104,85.28L100.5,82.75L98.5,81.81L98.04,81.29L97.75,81.11L98.04,82.85L98.91,83.9L101.2,84.88L101.8,85.44L102.1,86.19L100.7,87.61L100.1,87.97L99.86,88.74L99.45,88.98L98.99,88.54L97.13,86.31L93.57,85.24L92.91,84.59L91.58,82.54L91,80.7L91.21,79.46L92.66,77.51L93.11,76.68L93.03,76.15L93.07,75.4L92.54,74.87L91.17,74.16L90.3,73.61L90.55,73.33L92.12,72.58L92.2,71.91L92.2,71.68L92.45,71.64L92.66,71.46L92.83,71.28L93.24,70.63L93.61,70.26L94.03,70.2L94.56,70.46L96.51,71.17L98.7,71.95L101.8,73.04L103.1,72.35L104.2,71.8L105,71.89L106.6,72.52L107.6,72.72L108.3,72.66L109.3,73.57L109.9,74.26L110,74.73L110.3,74.97L111.2,75.04L113.2,75.5L114.4,75.42L115.5,74.91L116.2,74.33L116.4,73.39L116.7,73.86L117,74.59L117.1,75.52L118.6,78.67L119.8,80.42L122.3,83.62L123.4,84.21L125.3,86.78L125.9,87.2L126.3,87.95L128.2,88.58ZM258,62.3L257.6,62.44L257.1,62.76L255.5,63.34L253.4,63.88L250.7,64.6L250,65.35L247.4,70.12L245.1,71.07L244.2,71.78L243.6,72.68L242.3,74.34L241.7,75.61L240.2,78.37L239.4,81.81L239.1,83.76L238.6,86.56L238,87.97L237.1,89.31L236.1,90.6L235.3,92.02L234.6,93.11L234.5,93.5L234.8,93.8L236.5,93.5L237.1,93.17L238,92.75L238.6,92.97L239.2,94.18L239.8,94.34L240.4,94.18L241,94.49L241.8,97.52L242.6,100.1L244.2,101.7L245.4,102.9L245.7,104.1L246,105.6L246.1,106.4L245.7,106.8L245.1,107.8L244.9,109.6L244.8,110.2L244.7,111.9L244.8,112.9L245.1,113.7L245.7,114.2L246.8,114.4L247.8,114.7L248.4,116.1L249.2,117.8L250.1,118.6L251.4,119.1L252.4,118.9L254.6,118.6L256.4,118.7L259.2,119.2L260.2,119.1L261.5,119L263.9,118.1L264.7,117.9L265.6,118L267,118.5L267.8,118.9L268.7,119.3L270.1,119.6L271,119.5L271.7,119.5L272.1,119.7L274.3,122.5L276.2,124.8L277.9,126.8L279.6,129L279.8,129.1L280.6,128.8L281.1,129L281.6,129.4L282.4,129.2L283.6,128.4L285.4,128.3L287.7,128.7L290.8,128.7L294.5,128.3L296.9,127.8L297.8,127.2L299.3,127.3L301.2,127.8L302.1,128.5L302.3,129.2L302.6,130.2L302.2,131.3L301.1,132.5L300.4,133.9L300.3,135.6L299.7,136.9L298.6,137.8L298.2,139L298.4,140.6L298.3,142.9L297.8,146L297.8,147.8L298.3,148.4L298.5,149.2L298.5,150.4L298.7,151.3L299.2,152.6L300.1,155.2L300.7,156.3L301.3,156.7L301.9,157.2L303.7,159.8L304.1,160.4L304,160.8L303.8,161.2L303.6,161.4L301.8,163L298.1,166.4L297.8,166.8L297.8,167.5L298.9,167.1L300,167.4L300.6,167.5L300.8,167.8L301.2,168.7L301.5,168.9L302.1,169.3L303.2,170.2L304.1,171.2L304.8,171.7L305.2,172.2L305.4,172.8L305.2,173.5L305.8,175L306.2,175.5L306.4,176.1L306.2,176.6L306.7,177.3L307.2,178.7L307.8,180.3L307.9,181.2L308.1,181.7L308.5,182.9L309,184L308.9,184.8L309.1,185.6L306.9,186.1L306.7,186L306.6,185.7L306.7,183.6L306.7,181.1L306.3,180.1L305.3,178.4L304,176.3L303.6,175.7L303.1,175.3L302.4,175.3L301.9,175.4L301.3,175.8L300.7,176.2L299.5,177.5L298.3,179.1L297.6,179.4L296.9,179.5L296.3,179.5L295.8,179.1L295.3,178.3L294.7,177.2L293.9,176.8L293.7,177.1L293.4,177.8L293.2,178.4L293.7,179.2L294.2,179.9L293.4,179.9L291.1,179.9L288.4,179.9L285.7,179.9L283.3,179.9L281,179.9L280.1,179.8L279.3,179.4L278.4,179.3L278,179.3L277.2,179.6L276.2,179.7L275.5,180L274.9,180L274.9,181.9L274.9,184.6L274.9,187.5L275.5,187.2L276,187.3L276.4,187.5L277.6,187.3L278.1,187.4L278.7,187.5L279.3,187.5L279.6,187.7L280,187.7L280.5,187.4L281.1,187.6L281.7,188L282.1,188.6L282.4,189.3L282.8,189.7L282.8,190.4L282.8,191L282.7,191.5L282.8,191.8L282.9,192.1L282.9,192.3L282.7,192.3L282.2,192.4L281.7,192.5L281.4,192.4L281.2,192.2L280.9,192.1L280.5,192.2L280.2,192L279.8,191.6L279.3,191.3L278.6,191.4L278.2,191.6L277.7,191.8L277.4,192.1L276.9,192L276.4,192.2L276,192.5L275.4,192.7L274.8,192.8L274,192.9L273.3,192.9L272.6,193L272.5,194.5L272.4,197.5L272.4,199.4L272.4,201.2L272.7,201.9L274.1,203.3L275.2,204L276.1,204.8L277,205.2L277.4,205.5L277.6,206L277.8,206.5L277.9,207L277.8,207.5L277.6,207.9L277.6,208.4L278,208.8L278.1,209.3L278.3,209.7L278.4,210.2L278.7,210.5L279.1,210.8L279.5,211.1L279.6,211.5L279.5,211.9L279.5,212.2L280,212.9L280.1,213.4L279.9,214L279.7,216L279.2,218.3L278.8,220.1L278.3,222.9L277.7,226.2L277,230.3L276.3,234.3L275.5,238.2L274.9,241.8L274.2,245.6L273.8,248L273.6,248.4L273,247.5L272.1,246.7L271.3,246.2L270.9,245.6L270.4,244.3L269.7,243.9L269.3,243.5L268.8,243.6L268.3,243.9L267.6,244.2L267.1,244.1L265.1,243.2L264.7,243.2L266.1,241.1L268.4,237.5L269.9,235.2L271.5,232.6L272.3,231.3L272.4,231L272.4,230.7L272.1,230.2L271.3,230L270.4,229.6L269.8,229L269,228.7L268.4,228.3L267.3,227.8L266.6,227.4L265.7,227.3L265.1,226.6L262.7,225.2L262,225L261.4,225.2L260.4,225.5L259.4,226.2L258.2,226.5L257.1,226.5L256.5,226L256,225.8L255.3,225.2L254,224.7L253,224.4L252.4,224.6L251.7,225.3L251,226L250.4,226.4L249.6,226.4L248.6,227L247.7,227.2L246.7,227.3L245.7,227.6L244.5,227.2L243.5,226.8L243,226.7L242.6,226.8L242,227.1L240.9,227.3L240,227.3L239.4,227.2L238.8,226.5L237.9,226.2L236.9,225.8L236.7,225L236.8,224.4L237.3,223.6L237,222.7L236.6,221.3L236.4,220.7L236.1,220.2L235.6,220L234.7,220.2L233.7,219.6L233,219.1L232.7,218.5L233,217.3L232.7,216.3L232.1,215.8L231.7,214.8L231,214L230.3,213.6L229.4,213.7L228.8,213.4L228,212.6L227.4,212.3L226.6,211.5L225.1,211.1L224.4,210.8L223.9,210.3L223.3,209.4L223.4,208.9L223.1,208.5L222.9,207.6L222.4,206.3L221.9,205.6L221.3,205L220.8,204.6L220.1,203.9L219.3,203.5L218.5,203.1L218.2,202.5L218,202L217.6,202L217,201.9L216.4,201.8L215.7,201.4L215.1,201L214.1,200.2L213.6,200.1L213.1,200.1L212.4,200.9L210.4,200.1L208.6,198.9L206.8,198.6L205.6,197.9L204.5,196.8L203.9,196L203.4,195.7L201.1,194.6L200.6,194.5L199.8,195L199.5,195.3L199.4,196.1L199.3,196.6L198.5,196.9L197.3,196.9L196.4,196.6L195.8,196.5L195.7,196.8L195.4,196.9L194.7,196.8L193.6,196.6L192.7,196.2L191.4,195.6L190.8,195.6L189.4,195.5L188.2,195.1L187.8,194.8L187.3,192.3L187.2,192.2L186.7,192.1L185.8,191.7L185.3,191.3L185,190.7L184.7,190L183.2,190.2L180.8,189.3L179.2,188.5L177.6,187.6L175.3,185.9L174.5,185.4L173.4,184.9L172.7,184L171.7,183.2L171.3,182.9L171,182.1L169.4,181L170.2,179.5L172.1,178.4L174.6,179.3L174.9,177.5L174,176L174.1,173.1L174.4,172.6L175.1,171.8L175.9,171.3L176.4,171.1L177.3,171.4L177.8,170.8L179.9,171L180.5,170.8L180.9,170.4L181.4,170.1L182,169.4L182.4,168.6L182.7,168.3L183.4,168.4L183.4,168.1L183.8,167.6L185,166.5L185,166.1L184.7,165.1L184.7,164.7L185.4,164.6L186.3,164.3L186.7,163.3L187.3,162.5L187.9,161.2L188.6,161.1L189,159.7L189.9,158.4L191.8,154.6L191.3,154.7L190.8,155.2L190.3,155.2L189.7,154.9L189.9,153.2L189.5,153L188.6,154.3L187.8,152.9L187.7,152.1L188,151.3L188,150.8L186.7,151.2L186.8,150.7L187.6,150.2L188,149.6L188.7,149L189,148.2L189.1,146.8L189.4,145.3L189.2,144.6L188.8,144L188.5,141.2L188.6,139.6L188.4,138.4L188.1,137.3L186.6,135.9L189,134.3L189.9,133.1L188.8,130.6L187.3,128.5L187.3,127.3L187.7,127.4L188.1,127.4L188.6,124.7L188.5,123.9L187.7,122.6L186.7,122.5L185.8,120.9L185.3,120.5L184.9,119.4L183.5,117.4L182.4,116.3L183.2,113.8L183.9,113.4L184.2,112.8L183.9,111.2L184,110.9L184.1,110.7L184.3,110.7L184.6,111L185.2,111.6L185.6,112.4L186,112.7L186.5,112.4L188.7,110.8L188.5,110.3L188.8,109.3L189.5,108.5L190.2,108.2L190.4,107.7L190.3,107L189.5,105.2L188.8,104.3L188.3,103.3L188,102.4L187.2,101.6L187.6,100.8L188.2,99.9L188.4,99.74L188.8,99.98L189.7,101.7L191.2,102.7L192.8,104.5L193.5,105.7L194,105.9L194.4,106.3L194.2,106.7L193.7,107L193.6,107.7L193.9,108.1L194.3,108.3L195.2,108.2L195.7,107.4L195.3,103.8L194.8,102L194.2,101.4L193.6,100.7L194,100.2L195,99.94L196.3,99.31L201,95.88L202.7,92.67L203.9,91.49L205.3,90.75L207,90.93L208.4,90.52L208.8,89.49L208.4,88.09L207.9,87.27L208.4,86.03L208.9,84.19L208.9,82.65L209.5,81.71L209.3,81.35L208.3,82.1L207.6,82.42L208,81.81L209.4,80.27L210,77.94L210.6,76.97L212.5,75.61L212.9,74.95L214.3,73.94L216.6,71.74L217.5,71.13L222,72.54L223.4,72.45L223.1,72.72L222.5,72.8L221.5,73.19L221.3,74.02L221.9,74.91L222.6,75.16L223.2,74.59L223.8,72.96L224.7,71.17L224.9,69.3L225.5,68.65L226.5,68.43L228.2,68.79L229.6,69.18L230.9,69.24L235.1,68.96L241.9,64.07L245.1,63.01L247,61.99L248.3,59.97L248.6,58.46L249.5,57.89L250.5,57.89L251,57.52L251.1,57.05L253.5,55.74L254.8,55.58L256,55.6L258.7,56.74L259.9,58.74L260.1,60.13L258.4,61.64ZM179.9,170.4L179.6,170.7L179,170.2L178.8,169.6L179.2,169.2L179.6,169.4L179.9,169.7ZM267.4,482L267.6,481.2L268.5,479.7L268.7,478.5L268.4,478.1L267.3,477.5L266.4,476L266.3,474.6L266.6,473.6L266.7,472.2L268,471.9L268.7,471.1L269.4,469.6L270.2,465.9L270.6,461.4L271.1,458.7L271.4,457.3L271.7,454.5L272.2,452.7L272.3,451L272.2,449.8L270.9,443.3L270.9,440.9L271.5,437.2L271.5,432L271.4,430.8L270.9,429.6L270.8,428.1L270,425.4L269.3,420.1L269.3,417.3L269,414.9L268.4,414.2L268.4,414.2L268.8,414.1L269.9,414L271.1,414L272.5,413.5L274,412.6L275,411.2L275.5,409.9L275.5,408.8L275,407.5L274.9,406.5L275.4,406L276.8,405.8L277.9,404.9L278.8,404.1L279,405.5L280.6,407.3L281.1,409.4L281.5,409.6L283.6,410.7L283.6,410.9L283.3,411.3L283,411.8L283.2,412.5L283.6,413.5L283.8,414.4L284,415.3L284.2,416.7L284.4,418L284.9,419.9L285.1,421.1L285.1,421.8L285.5,422.5L286.3,423.3L287.5,424.1L288.4,425.1L289,425.8L289.9,426.3L290.5,426.8L290.8,427.2L290.8,427.4L290.6,427.7L289.6,429L288.2,431L288.2,431.2L289.5,432.6L289.7,433.2L289.7,434L289.3,434.9L287.8,435.2L287.5,435.5L287.5,435.8L287.8,436.2L287.7,437.1L288.3,438.2L288,438.5L287.5,439L287.5,439.5L287.6,440L288.2,440.4L290.4,441.9L290.6,442.1L290.6,442.2L289.7,443.2L289.6,443.8L289.6,444.8L289.8,445.4L290.1,445.7L291.2,446L292.6,448.2L293.9,450.3L293.9,452.2L294,454.3L294.9,455.9L295,457.3L295.3,458.8L296.3,459.7L296.7,461.5L296.8,462.5L296.8,463.1L297.6,465.1L297.6,466.8L297.4,468.1L297.5,468.8L297.6,469.2L298.3,469.7L298.5,469.9L299.5,470.1L301,470.1L303.5,469.6L305.4,469.2L307.6,471.5L306.7,474.5L305.2,479.4L304.4,482L267.4,482ZM402,389.8L400.1,389.8L394.6,389.5L390.1,389.4L386.1,389.2L386,387.6L385.8,384.8L385.6,382.9L385.4,379.8L383.8,377.9L382.1,375.8L381.4,375.3L383.5,375.2L385,375.1L384.7,369.5L384.2,369L383.8,367.2L383.6,366.2L382.8,365.3L382.7,364.4L382.8,363.8L383.2,363.4L383.5,362.4L383.3,361.5L382.8,360.6L382.3,359.7L381.3,359.2L379.8,358.2L377.6,357L375.8,356.2L375.1,356.3L371.9,356.6L370.8,356.8L370,356.6L367.6,356.6L366.6,355.9L365.8,355.2L364.1,353.2L363.8,352.3L363.1,352L362.1,352.1L361.1,351.9L359.1,351.1L357.3,350.3L356.4,350.3L355.5,349.8L354.1,348.6L353.5,348.1L353.2,347.4L352.9,346.5L352.3,346.3L351.6,346.5L350.8,346.9L349.7,346.6L348.3,345.7L347.4,345L346.9,344.7L345.7,344.2L344.6,344.1L342.9,344.8L341.5,344.6L339.2,344.3L337.3,343.8L336.6,342.5L336.2,341.6L335.1,341L334.2,340.3L333.1,339.3L332.6,339L331.7,338.7L330.7,338.3L330.7,337.7L330.3,336.8L330.2,336.6L329.6,335.6L329.3,335.5L329,335.7L328.8,335.9L328.5,335.7L328.5,335.2L328.6,334.5L328.3,333.7L327.4,332.9L327,332L326.9,331.2L326.7,330.6L326.4,330.3L326.2,329.8L326.1,329L326.4,328.2L326.9,327.2L326.8,325.6L326,323.5L325.6,322L325.5,321.1L325.6,320.4L326.1,319.8L327.1,318.1L327.2,316.9L326.9,315.5L326.9,314.4L327.1,313.7L326.8,312.7L326.1,311.8L325.6,311.8L325,312.1L324.2,312.8L323.3,313L322.5,312.5L320,312.7L316.1,313.2L314.6,313.7L313.6,313.9L312.6,314L310.8,314.9L306.4,318.3L305.5,318.8L304.5,318.9L303.8,319.4L302.9,319.7L301,321.1L300,322.2L299.4,323.2L298.6,323.2L298.1,322.9L296.3,323.1L295.4,323.4L294.4,324.4L293.1,326.1L292.6,326.6L291.6,327.1L290.4,327.5L289,328.2L288.4,328.2L287.8,328.3L287.3,328L287.2,327.4L286.4,327L284.7,326.8L282.1,326.4L279.4,326.3L278,326.3L276.9,326.3L275,326.1L273.6,326.1L272.4,326.7L270.7,327.4L269.9,327.6L269.2,327.7L268.7,327.6L268,327.2L267.1,326.3L266.3,326.6L265.8,327L265.8,325L265.8,322L265.9,319.4L265.9,317.3L265.9,314.9L265.9,313.1L266.3,312.5L266.7,311.8L266.3,310.8L266.4,309.9L266.6,309.2L267,308.6L266.2,308.9L265.9,309.1L265.4,309.6L264.5,310.2L263.8,310.8L263,311.3L262,312.5L261.2,313.1L260.3,313.5L258.9,314.8L257.8,315.1L254.7,315.3L251.5,315.3L248.6,315.3L248.1,315.2L248.1,314.1L248.2,313.4L247.2,312.6L247.1,311.5L246.9,310.9L246.5,310L245.8,309.5L244.9,309.3L243.3,308.8L240.9,308.3L238.5,308.3L236.3,308.3L237.7,306.6L239,304.9L239,303.5L237.9,302.2L237.3,301.4L236.4,300.3L235.2,299.5L234.6,298.5L234.6,297.9L234.6,297.5L234.1,297.2L233.7,296.9L233.1,296.5L232.4,295.9L232.4,295.4L232.1,294.8L231.7,294.1L231.7,293.6L231.3,292.8L230.8,292.2L230.4,291.7L229.8,291.2L229.8,290.7L230.3,290.5L230.5,289.9L230.4,289.4L229.9,289.1L229.3,288.9L228.4,287.9L227.8,287.4L227.4,287.1L227.2,286.8L227.4,286.5L227.7,286.2L227.7,285.7L227.6,285.1L227.6,284.7L228,284.6L228.4,284.6L228.9,284.4L229.4,284.3L230.1,284.2L230.4,283.9L230.4,283.4L230,282.3L229.6,281.9L229.4,281.2L229.8,280L230,279.2L230.7,278.4L232.9,276.6L235,275.4L235.9,275.3L236.7,274.8L237.1,274.1L237.3,273.4L237.1,272.7L236.8,271.8L236.3,270.6L236,269.9L236.3,269.1L236.8,268L237.9,266.3L239,264.5L239,264L239.2,262.9L239.7,260.7L239.9,259.5L239.8,259L240,258.6L240.6,258.3L242.2,258L243.2,257.3L244.8,256.1L246.2,254.7L247.2,254.3L249.3,253.1L250.4,252.3L250.8,252L252,251.5L254,251.3L255.7,251.1L256.7,250.7L258,250.6L259,250.1L260,250.1L262,249.7L262.7,249.1L263.2,248.3L264,247.7L264.9,247.5L265.9,247.6L267.1,247.6L268.5,247.4L269.2,247.9L269.5,248.5L270.4,249.1L271.1,249.1L271.7,249L272.6,249.5L273.1,249.4L273.5,249.1L273.6,248.4L273.8,248L274.2,245.6L274.9,241.8L275.5,238.2L276.3,234.3L277,230.3L277.7,226.2L278.3,222.9L278.8,220.1L279.2,218.3L279.7,216L279.9,214L280.1,213.4L280,212.9L279.5,212.2L279.5,211.9L279.6,211.5L279.5,211.1L279.1,210.8L278.7,210.5L278.4,210.2L278.3,209.7L278.1,209.3L278,208.8L277.6,208.4L277.6,207.9L277.8,207.5L277.9,207L277.8,206.5L277.6,206L277.4,205.5L277,205.2L276.1,204.8L275.2,204L274.1,203.3L272.7,201.9L272.4,201.2L272.4,199.4L272.4,197.5L272.5,194.5L272.6,193L273.3,192.9L274,192.9L274.8,192.8L275.4,192.7L276,192.5L276.4,192.2L276.9,192L277.4,192.1L277.7,191.8L278.2,191.6L278.6,191.4L279.3,191.3L279.8,191.6L280.2,192L280.5,192.2L280.9,192.1L281.2,192.2L281.4,192.4L281.7,192.5L282.2,192.4L282.7,192.3L282.9,192.3L282.9,192.1L282.8,191.8L282.7,191.5L282.8,191L282.8,190.4L282.8,189.7L282.4,189.3L282.1,188.6L281.7,188L281.1,187.6L280.5,187.4L280,187.7L279.6,187.7L279.3,187.5L278.7,187.5L278.1,187.4L277.6,187.3L276.4,187.5L276,187.3L275.5,187.2L274.9,187.5L274.9,184.6L274.9,181.9L274.9,180L275.5,180L276.2,179.7L277.2,179.6L278,179.3L278.4,179.3L279.3,179.4L280.1,179.8L281,179.9L283.3,179.9L285.7,179.9L288.4,179.9L291.1,179.9L293.4,179.9L294.2,179.9L293.7,179.2L293.2,178.4L293.4,177.8L293.7,177.1L293.9,176.8L294.7,177.2L295.3,178.3L295.8,179.1L296.3,179.5L296.9,179.5L297.6,179.4L298.3,179.1L299.5,177.5L300.7,176.2L301.3,175.8L301.9,175.4L302.4,175.3L303.1,175.3L303.6,175.7L304,176.3L305.3,178.4L306.3,180.1L306.7,181.1L306.7,183.6L306.6,185.7L306.7,186L306.9,186.1L309.1,185.6L309.1,185.6L312,188.2L314.2,190.2L315.2,190.8L315.7,191L317,190.9L318.5,190.6L319.2,190.3L320,189.7L321.3,188.9L322.4,188.4L322.8,188.3L323.3,188.5L324.2,189L324.7,190L324.2,191.1L324.3,191.7L325.2,191.7L326,190.6L326.5,189.7L327.6,188.9L328.7,187.9L329.5,186.9L330.4,186.3L331.7,185.6L332.8,185.2L333.8,185.2L334.5,184.8L335.5,183.9L336.1,183.2L336.6,183L337.5,183L338.6,182.9L339.8,182.1L340.8,181L341.4,179.3L341.7,177.7L342.1,177.4L342.5,177.2L342.9,177L343.9,176.9L345.8,176.1L347.1,175.3L348.3,175.1L348.7,174.9L349.1,174.1L349.4,172.7L349.2,171.9L346.9,171.7L345.5,171.7L343,171.5L341.9,171.1L341.6,170.9L341.6,170.6L341.8,170L342,168.9L341.7,167.4L340.5,165.1L339.6,162.8L339.5,161.2L339.6,159.5L339.6,158.4L339,157.5L335.6,154.8L334.5,153.5L334.1,152.6L332.8,150.9L333.1,150.4L333.8,150.5L334.5,150.9L335.1,151.8L335.5,152L336.1,152L339.2,152L339.9,152.2L340.4,152.5L340.8,152.9L341.3,153.9L341.9,154.4L343.2,154.4L345.1,154.4L346.1,154.3L346.8,154.6L347.6,154.8L349.3,154.3L349.8,154.3L350.3,154.5L352.1,156.4L353.1,157.2L354,158.3L355.3,158.3L356.4,157.4L356.6,154.3L357,153.4L357.5,153.2L358.1,153.1L358.9,152.7L359.7,152L360.4,151.8L363.4,152.5L364.2,152.2L367.2,151.4L370.3,150.3L371.1,149L372.4,148.6L373.4,147.7L374.2,147.8L375.5,147.8L376.2,147.6L376.6,147.5L377,147L377.7,145.7L378.6,145.2L379.6,144.7L380.3,144.1L380.9,143.3L381.2,142.7L381.2,142.2L380.9,141.2L380.4,140.2L379.9,139.9L379.6,139.8L380.6,139.5L381.5,139.9L382.8,139.9L383.4,139.7L384.3,139.8L385.4,139.1L386.1,139.3L386.5,139.3L386.9,139.8L387.2,140.4L388.3,141.1L388.1,142.2L388,143.2L387.9,144.3L387.8,145.1L387.4,145.9L386.7,146.7L386.5,147.1L386.4,147.5L386.9,147.7L387.6,147.8L388.6,147.8L389.2,148.1L390,148.1L391.1,148.8L391.5,149.2L391.6,149.6L391.3,150.3L391.2,151L391.4,151.5L391.7,151.8L392.5,153.4L392.9,153.9L393.2,154.1L393.3,154.4L393,155L392.7,155.7L391.9,156.5L391.8,157.1L391.2,157.5L389.8,158.4L390,159.8L390.1,160.6L390.1,161.1L389.6,161.9L388.8,164.1L388.5,165.3L388.2,167.8L388.2,168.7L388.6,169.9L389.4,172.5L389.9,172.9L391,173.5L391.1,175.2L391,177.1L391,177.8L391.1,178.1L391.6,178.2L391.9,178.5L392,179L392,179.6L392.8,179.9L393.5,180.1L394.1,180.9L395.3,182.1L395.8,182.3L396,182.8L397,183.8L398.5,184.2L400,184.7L400.6,185.3L401.2,185.8L401.7,185.8L402,185.8L402,389.8ZM402,427.8L398.6,425.7L393.4,425.7L388.1,425.8L383,426.9L377.9,428L375.6,428.5L370.8,429.6L367.9,430L367.2,432L366.1,435L365,436.8L363.8,438.7L362,441.3L362,444.4L362,447.5L360.7,451.7L359.7,455.3L358.6,458.9L357.9,461.3L357.7,461.9L357.5,461.7L356.6,461L355.8,459.6L355.6,459L355.4,459L350.6,459L345.9,459.1L345.4,459.3L344.7,459.3L344.2,459.1L343.8,459.1L343.1,459.4L342.5,459.9L340.6,463.5L339.8,465.1L339.1,466.5L338.6,468.9L338.4,469.3L337.9,468.5L337,466.3L336.7,465L336.1,463.6L335.2,461.8L334.1,461.3L333.4,461.1L332.5,460.8L330.7,460.4L330,460.3L325.1,460.2L324.7,460.2L322.8,460.4L321.8,460.2L320.8,459.3L318.5,457.5L318,457L317.2,456.6L316.6,456.5L316.3,456.9L315.9,458.3L315.5,459.7L315,460.4L313.4,461L311.8,461.5L311,461.7L310.5,462.3L310.3,463.3L310,464.1L307.8,465.3L307.3,465.9L307,467.1L305.8,468.6L305.4,469.2L303.5,469.6L301,470.1L299.5,470.1L298.5,469.9L298.3,469.7L297.6,469.2L297.5,468.8L297.4,468.1L297.6,466.8L297.6,465.1L296.8,463.1L296.8,462.5L296.7,461.5L296.3,459.7L295.3,458.8L295,457.3L294.9,455.9L294,454.3L293.9,452.2L293.9,450.3L292.6,448.2L291.2,446L290.1,445.7L289.8,445.4L289.6,444.8L289.6,443.8L289.7,443.2L290.6,442.2L290.6,442.1L290.4,441.9L288.2,440.4L287.6,440L287.5,439.5L287.5,439L288,438.5L288.3,438.2L287.7,437.1L287.8,436.2L287.5,435.8L287.5,435.5L287.8,435.2L289.3,434.9L289.7,434L289.7,433.2L289.5,432.6L288.2,431.2L288.2,431L289.6,429L290.6,427.7L290.8,427.4L290.8,427.2L290.5,426.8L289.9,426.3L289,425.8L288.4,425.1L287.5,424.1L286.3,423.3L285.5,422.5L285.1,421.8L285.1,421.1L284.9,419.9L284.4,418L284.2,416.7L284,415.3L283.8,414.4L283.6,413.5L283.2,412.5L283,411.8L283.3,411.3L283.6,410.9L283.6,410.7L281.5,409.6L281.1,409.4L280.6,407.3L279,405.5L278.8,404.1L278.8,404.1L278.8,403.5L278.7,402.7L278.2,402L277.5,401.6L277.3,401L277.5,400.4L278.9,399.3L279.6,399.1L279.8,398.5L280.3,398L281.6,396.3L282.4,395.2L283.1,394.6L284.1,394.1L284.4,393.7L284.2,392.5L284.3,391.7L284.6,391.2L285.5,390.7L286.3,390.3L286.5,390.1L286.4,389.8L285.7,389.1L284.1,388.6L283.1,388.7L282.5,388.2L282.2,387.8L280.2,382.9L279.8,381.7L279.9,381.3L281.2,378.8L281.7,378.1L282.7,376.9L282.5,376.4L280.9,374.5L280.4,373.6L280.4,372.7L280.5,371.6L281.5,371.1L281.8,370.2L282,369.3L282.4,369L282.8,368.5L283.3,367.8L284.1,367.2L284.5,366.7L284.6,365.4L285,365L286,364.6L286.2,364.2L285.9,363.3L285.4,362.4L285,361.9L284.4,359.6L283.8,358.4L284.1,358L284.5,357.4L284.9,356.3L285,354.9L284.9,349.9L284.9,349L285.4,348.3L286.2,347.5L286.8,347.2L287.5,346.7L287.4,345.8L287.8,345.2L288.3,344.5L286.7,341.8L285.4,339.4L284.1,337.1L282.7,334.6L281.7,332.8L280.5,330.7L279.5,328.9L278,326.3L279.4,326.3L282.1,326.4L284.7,326.8L286.4,327L287.2,327.4L287.3,328L287.8,328.3L288.4,328.2L289,328.2L290.4,327.5L291.6,327.1L292.6,326.6L293.1,326.1L294.4,324.4L295.4,323.4L296.3,323.1L298.1,322.9L298.6,323.2L299.4,323.2L300,322.2L301,321.1L302.9,319.7L303.8,319.4L304.5,318.9L305.5,318.8L306.4,318.3L310.8,314.9L312.6,314L313.6,313.9L314.6,313.7L316.1,313.2L320,312.7L322.5,312.5L323.3,313L324.2,312.8L325,312.1L325.6,311.8L326.1,311.8L326.8,312.7L327.1,313.7L326.9,314.4L326.9,315.5L327.2,316.9L327.1,318.1L326.1,319.8L325.6,320.4L325.5,321.1L325.6,322L326,323.5L326.8,325.6L326.9,327.2L326.4,328.2L326.1,329L326.2,329.8L326.4,330.3L326.7,330.6L326.9,331.2L327,332L327.4,332.9L328.3,333.7L328.6,334.5L328.5,335.2L328.5,335.7L328.8,335.9L329,335.7L329.3,335.5L329.6,335.6L330.2,336.6L330.3,336.8L330.7,337.7L330.7,338.3L331.7,338.7L332.6,339L333.1,339.3L334.2,340.3L335.1,341L336.2,341.6L336.6,342.5L337.3,343.8L339.2,344.3L341.5,344.6L342.9,344.8L344.6,344.1L345.7,344.2L346.9,344.7L347.4,345L348.3,345.7L349.7,346.6L350.8,346.9L351.6,346.5L352.3,346.3L352.9,346.5L353.2,347.4L353.5,348.1L354.1,348.6L355.5,349.8L356.4,350.3L357.3,350.3L359.1,351.1L361.1,351.9L362.1,352.1L363.1,352L363.8,352.3L364.1,353.2L365.8,355.2L366.6,355.9L367.6,356.6L370,356.6L370.8,356.8L371.9,356.6L375.1,356.3L375.8,356.2L377.6,357L379.8,358.2L381.3,359.2L382.3,359.7L382.8,360.6L383.3,361.5L383.5,362.4L383.2,363.4L382.8,363.8L382.7,364.4L382.8,365.3L383.6,366.2L383.8,367.2L384.2,369L384.7,369.5L385,375.1L383.5,375.2L381.4,375.3L382.1,375.8L383.8,377.9L385.4,379.8L385.6,382.9L385.8,384.8L386,387.6L386.1,389.2L390.1,389.4L394.6,389.5L400.1,389.8L402,389.8L402,427.8ZM52.93,-8.531L52.89,-9.579L53.22,-10.4L54.21,-10.75L55.41,-10.04L55.95,-9.726L56.41,-9.894L56.99,-10.33L57.73,-11.63L59.51,-14.28L60.26,-16.15L60.96,-16.53L61.99,-16.59L62.86,-16.47L62.24,-15.1L62.86,-14.91L63.44,-15.06L64.77,-15L65.31,-13.51L65.14,-12.22L63.9,-8.908L63.73,-7.756L63.15,-6.059L63.94,-4.929L63.2,-3.422L62.95,-2.461L62.91,-1.019L63.28,1.737L62.66,5.697L61.62,7.425L60.96,8.091L59.8,9.797L58.27,10.32L56.16,13.08L55.79,13.81L55.99,14.6L55.5,14.6L53.47,14.47L52.1,14.62L52.06,14.55L52.15,11.58L52.35,6.968L52.48,3.593L52.6,0.276L52.68,-2.21L52.81,-5.598ZM66.84,-9.852L66.3,-9.621L66.75,-10.33L66.8,-10.78L67.46,-12.64L67.87,-12.62L68,-12.45ZM67.95,-3.799L67.08,-2.105L67,-2.586L67.37,-3.841L67.87,-4.28L68.2,-4.74L68.28,-5.284L68.7,-5.012L68.57,-4.489ZM394,47.95L393.6,48.17L392.6,47.7L392.2,47.13L392.2,45.32L392.8,45.16L394,46.59L394.7,47.11ZM304.4,482L305.2,479.4L306.7,474.5L307.6,471.5L305.4,469.2L305.8,468.6L307,467.1L307.3,465.9L307.8,465.3L310,464.1L310.3,463.3L310.5,462.3L311,461.7L311.8,461.5L313.4,461L315,460.4L315.5,459.7L315.9,458.3L316.3,456.9L316.6,456.5L317.2,456.6L318,457L318.5,457.5L320.8,459.3L321.8,460.2L322.8,460.4L324.7,460.2L325.1,460.2L330,460.3L330.7,460.4L332.5,460.8L333.4,461.1L334.1,461.3L335.2,461.8L336.1,463.6L336.7,465L337,466.3L337.9,468.5L338.4,469.3L338.6,468.9L339.1,466.5L339.8,465.1L340.6,463.5L342.5,459.9L343.1,459.4L343.8,459.1L344.2,459.1L344.7,459.3L345.4,459.3L345.9,459.1L350.6,459L355.4,459L355.6,459L355.8,459.6L356.6,461L357.5,461.7L357.7,461.9L358,462.2L358,462.6L358.9,463.3L360.9,464.4L362.7,466.6L364.4,469.8L366,472.2L367.4,473.7L368.8,474.8L370.1,475.4L370.8,476L370.8,476.3L372,477.2L374.2,478.4L375.7,479.7L376.3,480.9L378.2,482L304.4,482ZM368.4,0.839L368,1.319L366.7,1.132L366.5,0.526L366.5,0.109L367.2,-0.747L368.2,-0.371L368.5,0.025L368.8,0.109L368.8,0.464L368.6,0.714ZM368.1,-5.619L367.9,-5.305L367,-5.891L366.7,-6.959L366.7,-7.19L366.8,-7.316L367.2,-7.106L367.7,-7.022L368,-6.666ZM352.2,-11.59L353.5,-11.59L353.5,-11.3L353.4,-10.98L352.6,-11.26L352.2,-11.53Z" fill="#D8E2E7" stroke="#3F464B" stroke-width="0.85" vector-effect="non-scaling-stroke"/><path d="M212.4,200.9L211.8,201.3L211.1,201.3L210.2,201.5L209,201.1L208.5,201.1L208.5,201.5L209.3,202L210.1,202.5L210.4,203.4L210.8,204.3L212,205.5L212.7,206L212.7,206.4L212.5,207.2L212.5,207.8L212.8,210.6L212.6,210.8L212.1,210.8L211.7,210.8L211.3,210.5L211,210.3L210.9,210.7L210.6,212L209.8,214.8L209.2,217.2L208.3,218.1L207.2,219.5L205.5,221.4L203.2,224.2L201.5,225.4L200.1,226.4L198.5,227.6L196.4,229.1L194.1,230L190.9,231.1L188.6,232L186.9,232.5L185.2,233.1L182.8,233.9L181.9,234.7L180.4,236.5L179.7,237.4L179.1,238.2L179,238.5L179.1,238.8L179.4,239.1L179.4,239.5L179,239.7L178.6,239.8L178.4,239.6L178.3,239.2L178,238.7L177.5,238.6L177.2,238.7L177.2,239.1L176.6,241L176.6,241.9L176.4,242.3L176.4,243.1L175.8,243.9L175.6,244.5L175.4,245.1L174.9,245.5L174.7,246.1L174.3,247.5L173.8,248.5L173.4,249.4L173.4,250.1L173.6,250.6L173.7,250.9L173.5,251.6L173.3,252.1L172.7,252.5L171.3,253.3L170.8,253.9L170.6,254.5L170.7,255.1L170.7,255.6L170,255.7L169.8,256.1L169.3,256.8L168.8,257.1L167.6,256.7L166.7,256.7L165.9,256.4L165.1,255.3L164.5,254.5L164,253.4L163.8,251.9L163.1,251.4L162.4,250.9L161.6,251.1L160.6,251.2L160,250.8L158.7,250.2L157.5,249.4L156.6,249.1L156,249.3L155.6,249.7L154.9,250.5L153.8,251L153.4,251L152.7,250.6L152.6,250.2L153.1,249.5L154.2,248.1L153,248L152.6,247.6L152.5,247L152.4,246.5L152.6,245.8L153.2,245.4L154.1,245.7L154.7,245.7L155.1,245.1L155.6,244.8L156,244.6L156.2,244.3L155.7,243.2L155.6,242.7L155.7,242.3L155.7,241.7L155.7,241.2L155.4,240.8L155.4,240.2L155.2,239.8L155.1,239.5L155.1,239L154.8,238.8L154.5,238.6L154.7,238.5L156.4,237.9L157.1,237.3L157.9,236.8L158.7,236L159.1,235.2L160.3,231.6L161.4,229.3L161.2,228.2L160.3,226.7L160.1,224.6L160.2,223.9L160,223.4L159.5,224.3L159.6,227.5L159.1,228.9L158.4,229.3L157.9,229L158.2,226.7L157.6,227.1L156.8,228.7L155.4,229.9L155.3,230.3L154.9,230.8L153.9,230.3L153,229.8L150.3,227.2L148.6,226.6L147.5,225.7L147.3,225.3L147.2,224.8L148.2,224.3L149.4,223.5L149.5,221.9L149.5,220.6L148.7,218.4L149,215.5L148.8,214.4L147.9,212.1L148.6,210.9L151.1,210L151.9,209.4L152.4,207.5L153,206.4L154.1,206.8L155,206.8L153.8,206.4L152.8,204.7L152.7,203.9L154.5,201.6L155.5,201L156.7,199.7L157.7,197.9L158,194.9L157.5,192.8L157.2,190.6L157.8,190.1L159.3,189.8L160.6,189L161.2,188.4L162.7,188.5L164.4,187.5L167.1,186.9L170.9,185.8L171.7,184.8L171.3,182.9L171.7,183.2L172.7,184L173.4,184.9L174.5,185.4L175.3,185.9L177.6,187.6L179.2,188.5L180.8,189.3L183.2,190.2L184.7,190L185,190.7L185.3,191.3L185.8,191.7L186.7,192.1L187.2,192.2L187.3,192.3L187.8,194.8L188.2,195.1L189.4,195.5L190.8,195.6L191.4,195.6L192.7,196.2L193.6,196.6L194.7,196.8L195.4,196.9L195.7,196.8L195.8,196.5L196.4,196.6L197.3,196.9L198.5,196.9L199.3,196.6L199.4,196.1L199.5,195.3L199.8,195L200.6,194.5L201.1,194.6L203.4,195.7L203.9,196L204.5,196.8L205.6,197.9L206.8,198.6L208.6,198.9L210.4,200.1ZM156.7,233.8L156.5,234.3L155.4,234.2L155.1,234.1L155.1,233.6L155.4,232L155.6,231.3L156.6,230.7L157.3,230.3L158.3,230.4L159.3,231L158.1,232.1L157.4,232.2L157.2,232.4ZM170.8,185.3L170.1,185.3L169.8,184.8L170.6,184.1L170.9,184ZM39.44,208.5L38.82,208.5L37.04,207.4L37.16,206.3L37.87,205.6L40.19,205.2L41.14,205.9L41.05,207.2L40.27,208.2L39.65,208.4ZM49.95,210.1L48.59,210.6L48.13,210.4L47.84,210.2L47.76,209.9L48.55,209.2L49.25,208.8L49.91,207.9L51.11,207.5L51.48,207.6L51.69,207.7L51.77,208L51.4,208.7L50.66,209.1ZM26.9,204.9L25.74,205.1L24.75,204.7L24.34,204.1L24.25,203.2L24.34,202.9L26.49,202.6L27.19,203.4L27.19,204.5ZM38.41,215L37.95,215.1L37.29,214.6L37.78,213.7L38.32,213.9L38.7,214.1L38.9,214.5ZM28.64,199.4L29.38,200.1L29.76,202.2L32.07,204.4L32.36,205.7L32.16,206.3L32.24,206.5L33.36,207.4L34.1,208.3L32.86,210.5L30.29,211.4L27.52,211.3L26.98,211.1L26.24,210.3L26.07,209.5L26.53,208.8L27.94,207.8L30.13,206.8L30.38,206.1L29.51,205.4L28.93,203.9L27.52,203L26.86,199.9L26.4,199.8L25.45,200.2L25,199.8L24.91,199.6L25.95,198.9L26.16,198.4L27.65,198.2L28.27,198.6ZM36.67,203.5L36.13,203.8L33.98,203.4L33.31,202.8L33.85,201.9L34.31,201.5L35.59,201.8L36.92,202.9Z" fill="#8B341D" stroke="#2C160F" stroke-width="1.1" vector-effect="non-scaling-stroke"/></svg>