<svg xmlns="http://www.w3.org/2000/svg" viewBox="0 0 360 440" width="360" height="440" role="img" aria-label="Regional map with Guyana highlighted"><rect width="100%" height="100%" fill="#7FA6D6"/><path d="M156.9,167.5L155.5,167.9L155.5,167.6L155.9,167L156.6,166.9L156.9,166.6L157.4,166.5L157.7,166.5L158,166.7L157.3,167ZM119.8,142.7L120.2,144.4L120.1,144.7L119,145.8L118.1,145.8L117.3,145.8L116.8,145.6L116,144.9L115.3,145.1L113.5,144.8L113.1,144.6L113.7,143.7L115,143.4L115.4,143.3L115.7,143.8L116.6,144.3L117.6,144.3L117.9,143.5L119.3,142.3ZM103.1,145.5L102.5,145.8L101.3,145.5L100.7,145.1L101.1,144.7L102,144.7L103,145.2ZM154.8,170.9L154,171.1L153.9,169.9L154.1,169.6L155.4,168.5L155.8,168.4L156,168.6L156,168.8L156.6,169.3L156.4,169.9L155.7,170.5ZM166.8,174.8L169,177.8L169.1,178.2L168.8,178.5L167.4,179.2L167.1,179.6L166.6,180.9L164.8,181.7L163.6,182.6L162.7,183.4L162.3,183.7L160.7,183.9L160.1,184.4L159.5,186L159,186.6L158.2,187.3L158.2,187.8L159.3,189.5L159.6,190L159.2,190.8L159.2,191.4L159.8,192L160.6,192.2L161.3,191.9L162.2,191.9L162.7,192.1L163,192.3L163,192.8L162.7,193.9L162.1,194.6L159.8,195.7L158.8,196.4L158.2,196.8L156.9,196.6L156.3,196.6L155.8,197L155.5,197.3L154.6,197.3L153.4,197.5L153,197.7L152.6,198.3L152.2,199L152.5,200L152.9,200.8L152.9,201.5L153.1,203.7L152.8,204.1L152,204.7L151,205.7L150,207L150.1,207.4L152.7,210.3L155.3,213.2L157.9,216.1L158.2,216.2L158.7,216.6L159.2,217.6L159.6,218.7L159.6,219.2L159.3,219.9L158.6,220.7L157.9,221.4L156.8,221.9L155.9,222.4L155.2,223.8L154.7,224.3L154.3,224.5L153.5,224.7L152.2,224.6L151.3,224.5L150.2,225.6L148.9,225.9L147.9,227.3L144.7,228.5L141.5,229.3L140.6,229.7L137.4,229L136.7,229.2L135.8,229.8L135,230.4L134.3,230.4L133.8,230.7L133.4,231.6L133.1,234.9L132,235.9L130.6,235.9L129.7,234.7L128.6,233.9L126.6,231.8L126.1,231.6L125.6,231.6L123.8,232.2L122.9,231.9L122.2,231.6L121.1,231.7L119.1,231.7L117.7,231.7L117.1,231.2L116.5,230.1L116.1,229.7L115.6,229.3L114.9,229.1L111.6,229.2L110.9,229.2L110.5,228.9L109.8,228L109.1,227.5L108.3,227.5L108,228L109.4,229.8L109.8,230.7L111,232.1L114.6,235L115.3,235.9L115.2,237.1L115.2,238.9L115.3,240.6L116.2,243.1L117.5,245.6L117.9,247.2L117.6,248.3L117.4,249L117.4,249.2L117.7,249.5L118.9,249.9L121.5,250.1L123.1,250.1L125.5,250.4L125.7,251.2L125.4,252.7L125,253.5L124.6,253.7L123.2,253.9L121.9,254.8L119.9,255.7L118.7,255.8L118.3,256L117.9,256.2L117.6,256.6L117.2,258.2L116.6,260.1L115.5,261.2L114.2,262.1L113,262.2L112,262.1L111.6,262.4L110.9,263.1L109.8,264.1L109,264.5L108,264.5L106.8,265L105.4,265.7L104.5,266.3L103.7,267.4L102.5,268.5L101.3,269.3L100.8,270.2L99.96,271.4L98.95,271.5L98.86,270.8L99.34,269.6L98.82,268.6L97.85,268L97.41,267.9L96.96,267.9L95.82,268.4L94.41,269.3L93.53,270L92.78,270.3L91.14,270.6L89.82,270.7L89.25,270.5L88.23,269.8L85.9,267.8L82.77,264.9L82.55,264.1L82.68,263.3L82.11,262L81.75,260.7L81.49,260.3L81.4,259.3L80.7,257.6L80.17,256.1L79.64,255.4L79.86,254.8L79.64,254.2L79.24,253.7L78.62,252L78.84,251.3L78.67,250.6L78.14,250.1L77.43,249.6L76.46,248.5L75.27,247.5L74.7,247.1L74.3,246.9L73.95,246L73.69,245.7L73.07,245.6L71.88,245.2L70.73,245.7L70.69,244.9L71.04,244.5L74.97,240.8L76.91,239.2L77.13,238.9L77.3,238.6L77.43,238.1L76.99,237.5L75.14,234.7L74.48,234.2L73.86,233.7L73.16,232.5L72.28,229.8L71.66,228.4L71.48,227.4L71.53,226.2L71.26,225.3L70.78,224.6L70.78,222.7L71.26,219.4L71.39,217L71.13,215.3L71.61,214L72.76,213.1L73.38,211.7L73.51,209.9L74.22,208.3L75.45,207.1L75.89,206L75.49,204.8L75.36,204.1L74.3,203.3L72.36,202.8L70.73,202.7L69.76,203.3L67.25,203.8L63.24,204.4L59.98,204.4L57.51,203.8L55.66,204L54.38,204.9L53.49,205.1L52.97,204.6L52.39,204.5L51.51,204.8L51.38,204.6L49.48,202.3L47.72,200.2L45.69,197.7L43.35,194.7L42.91,194.5L42.21,194.6L41.24,194.6L39.78,194.3L38.77,193.9L37.93,193.5L36.48,192.9L35.46,192.8L34.58,193L32.11,194L30.7,194.1L29.6,194.2L26.65,193.6L24.66,193.6L22.33,193.9L21.36,194.1L19.95,193.6L18.98,192.8L18.09,190.9L17.48,189.4L16.38,189.1L15.19,188.8L14.61,188.3L14.26,187.5L14.17,186.4L14.26,184.6L14.39,184L14.57,182L15.23,181L15.63,180.5L15.58,179.7L15.23,178.1L14.92,176.9L13.6,175.6L11.88,173.9L11.13,171.1L10.25,167.9L9.586,167.5L8.924,167.7L8.263,167.5L7.646,166.3L7.073,166L6.103,166.5L5.397,166.8L3.634,167.1L3.281,166.8L3.414,166.4L4.163,165.2L5.045,163.7L6.059,162.4L6.985,160.9L7.69,159.4L8.175,156.4L8.483,154.4L9.365,150.7L10.95,147.8L11.57,146.4L13.02,144.6L13.69,143.7L14.57,142.9L16.99,141.9L19.86,136.8L20.52,136L23.47,135.3L25.72,134.7L27.35,134.1L27.93,133.7L28.37,133.6L27.97,134.2L27.18,134.9L26.29,135.4L21.62,136.5L21.14,136.8L20.56,137.2L20.56,138.3L20.65,139.2L22.06,142L22.59,142.7L24.4,144.2L24,144.4L23.3,144.4L23.82,146.4L24.93,147.8L24.97,148.6L24.13,151.3L22.55,152.9L21.45,154.7L20.56,155.5L18.62,159.1L20.12,161.3L20.3,162.4L21.58,163.9L22.41,164.4L22.94,165.1L22.68,166.1L23.21,167.6L23.87,168.3L24.66,168.6L25.68,168.6L28.63,167.7L29.29,167.2L29.73,166.5L31.23,164.9L31.32,162.9L31.63,160.5L31.28,158.9L29.73,156.6L29.07,155L27.53,153.5L26.6,151L26.21,150.2L25.94,149.1L25.59,147.1L26.6,146.4L26.52,144.8L29.03,144.4L34.45,141.8L37.84,141.1L41.68,139.7L42.56,139L43.31,137.9L43.93,137.7L45.91,138.8L46.88,138.4L47.28,137.6L46.75,136L45.6,136L42.16,136.6L41.81,135.9L41.81,135.2L41.02,133.3L41.5,131.8L42.03,130.6L43,130.1L44.46,129.6L45.56,130.4L46.22,131.2L46.57,131.9L46.84,133.9L47.41,135.9L48.03,137.3L49.04,138.4L49.79,138.3L50.32,138.1L53.89,137.9L56.1,138.6L58.87,139L61.48,140.5L64.12,142.3L64.78,143.7L65.05,145L65.66,145.9L65.05,146.7L65.35,148.2L66.15,149.7L67.29,150.7L70.56,150.9L74.13,150.3L79.64,149.7L81.4,149.2L90.48,148.9L92.2,149.7L92.38,150.4L92.38,150.9L95.33,153.6L97.71,154L99.74,154.8L101.9,155.3L104.2,155.9L105.5,155.9L106.4,155.6L107.6,155.6L115.7,151.1L120,151.2L120.7,150.9L121.3,150.5L119.7,149.9L116.1,149.6L115,150.1L114.3,148.9L115.5,148.9L119.5,148.6L124.2,148.8L127.9,148L129.8,147.8L130.9,148L133.9,147.5L139.5,148.1L144,147.6L143.4,148.3L142,148.8L139.6,148.9L137.8,150L134,149.8L131.3,150.2L132.1,150.5L132.1,151.6L132.5,151.8L132.9,151.8L133.8,152.7L134.1,153.2L134.4,154.4L134,155.6L133.4,156.1L134.5,155.9L135.1,155.4L135.1,154.8L135.1,154.1L135.8,154.3L136.2,154.6L137.6,157.8L138.5,159.5L138.8,159.4L139,159.4L139.3,159.1L139.8,158.3L140.2,158.8L140.4,159L140.6,159L140.4,158.3L140.7,157.4L140.6,157.1L141,157L141.5,157.1L142.3,157.4L143.6,158.4L144.5,159.5L144.5,160.1L144.9,160.5L145.4,160.8L145.7,161.4L145.8,160.5L145.4,159.9L145.3,159.1L147.1,159.1L147.5,158.1L148.5,158.7L150.9,161.4L151.9,161.8L154.6,162.3L156.3,163.6L157.3,164.7L156.7,166L155.1,166.6L154.5,167.3L154.1,168L154.1,168.8L153.6,169.7L153.5,170L153.2,171.2L152.6,172.6L151.7,174.2L147.1,174.2L148.3,174.8L149.3,175.3L151,176.5L152.3,175.6L154.3,175.5L156.4,174.5L157.2,174.3L161.1,174.8L162,174.1L162.8,173.8L164.9,174ZM107.6,51.51L106.7,51.62L105.5,51.02L106.4,50.79L107.1,50.93ZM109.9,51.2L109.1,51.53L108.6,51.49L108.3,51.35L108.8,50.95ZM108.6,58.4L109.7,58.98L110.9,58.98L109.6,59.53L107.1,59.6L107.1,58.69ZM91.89,50.01L92.29,50.28L92.64,50.23L92.38,49.72L92.64,49.72L94.98,50.03L96.48,50.57L98.02,50.84L98.15,52.63L96.96,53.34L96.17,54.1L95.51,55.02L93.83,56.07L91.85,56.41L90.48,56.43L90,56.41L89.51,56.21L88.5,56.38L87.22,55.92L86.16,56.03L84.05,55.92L83.25,56.34L82.46,56.43L81.71,56.34L81.09,56.16L79.51,56.18L78.84,55.83L79.11,53.79L79.15,52.87L78.76,52.09L78.32,51.62L78.01,51.06L78.62,50.68L79.15,50.14L79.33,49.31L79.86,49.11L80.52,49.02L83.56,49.4L91.19,49.63L91.63,49.69ZM100.5,54.4L99.56,54.46L98.95,54.37L98.73,53.99L99.92,53.63L101.2,53.68L102,53.9L102.1,54.04ZM70.56,54.98L70.47,55L70.34,54.98L70.29,54.95L70.2,54.82L69.85,54.64L69.76,54.46L69.85,54.26L69.98,54.19L70.69,54.17L70.78,54.19L70.91,54.33L70.91,54.42L70.86,54.51L70.73,54.73L70.69,54.78L70.64,54.84L70.6,54.95ZM130.2,52.9L128.3,53.55L128.4,53.16L129.9,52.27L130.5,52.34ZM113.1,49.76L112.8,49.85L112.6,49.83L112.6,49.65L112.8,49.13L114,49.09ZM110.7,50.57L109.7,50.61L109.5,50.46L110,50.05L111,50.01L111.3,50.1ZM114.5,46.19L114.6,46.62L114.5,46.62L113.8,46.33L113.3,46.31L113.1,46.22L113,46.06L114,46.04ZM24.18,6.715L24.13,6.898L23.43,6.371L22.11,6.371L21.89,5.684L22.41,5.57L24.09,5.822L24.49,6.417ZM21.49,5.707L21.27,5.868L20.56,5.41L20.48,5.043L20.21,5.02L19.77,4.699L19.9,4.264L20.87,4.241L21.27,5.432ZM15.93,5.57L17.34,6.303L18.18,6.188L18.27,6.349L17.79,6.509L17.7,6.646L16.33,6.852L15.93,6.806L15.85,6.303ZM140.7,71.91L140.6,72.66L139.8,72.44L139.7,71.78L140.1,71.09L140.3,71.02ZM157.7,142.1L157.1,142.3L157.1,141.8L158.3,140.9L160.1,140.3L160.5,140.3L160.3,141.1ZM154.6,155.2L152.6,155.8L147.4,156L145.3,155.8L143.7,155.9L146.6,154.4L147,153.8L148.2,153.7L148.6,153.5L149,150.1L148.9,149.3L148.6,148.9L148.1,148.5L147,148.1L146.7,147.9L147.5,147.5L149,147.3L150.2,146.9L152.6,146.8L153.7,146.5L155.7,146.4L154.8,147.9L154.3,148.5L154.5,149.9L154.3,150.8L154.5,152L155.1,152.8L154.7,153.6L154.7,154.7ZM238.5,214.2L237.5,215L236.4,216.3L234.9,218.4L235,219.1L234.6,219.6L234.6,220.6L234.7,221.7L235,222.4L235.2,223.7L235,224.9L235,225.6L235.3,226.7L235.6,227.9L235.6,228.4L235.9,228.8L236.3,229.2L236.1,230.2L237.3,232.1L238,232.9L239.1,233.7L239.4,234.5L240,235.4L240.4,235.5L240.6,235.9L240.4,236.6L240.3,237.6L239.7,238.8L238.1,240.9L238,241.5L238.3,243.2L238.1,244.7L238,245.4L237.3,246.7L235.5,249.7L234.5,250.3L233.9,251.2L233.5,251.2L233.1,251.3L232.9,251.4L232.4,251.4L231.9,251L231.8,250.5L231.6,250L231.1,249.8L230,250L229.7,249.9L229.1,249.3L228.6,248.7L228.5,248.1L228.1,248.1L227.3,248.7L226.8,248.8L226.4,248.7L225.9,248.7L224.7,249.3L224,249.4L223.5,250L220.1,250.3L219.3,250.4L217.3,249.4L216.7,249.1L216.5,249L216.3,249.1L216,249.3L215.7,250.6L215.4,250.9L214.9,251.2L214.4,251.7L214.3,252.2L215.1,252.5L215.7,253.5L216.4,254.2L217,254.9L216.9,255.7L216.8,256.8L216.4,257.2L215.7,257.3L213.2,256.8L211.2,256.3L210.4,256.2L210,256.1L209.6,255.7L209.1,255.3L208.3,255.2L207.3,254.9L206.7,254L205.9,252.6L205.7,252L205.1,251.4L204.5,250.6L204.4,249.8L204,249.1L203.7,248.9L203.4,247.9L203.3,247.6L203.2,247.5L203,247.2L202.5,246.2L202.4,246L202.2,245.9L201.7,245.2L201.3,244.9L201.1,244.6L201.2,243.6L201,243.1L200.9,242.2L200.9,241.8L200.7,241.4L200.3,241.1L200.3,240.5L200.2,238.8L200,238.5L198.5,238.5L198.4,238.7L197.7,238.8L197,238.8L196.3,238.6L195.8,238.3L195.7,237.9L195.8,236.8L194.9,235.9L193.5,234.9L193.1,233.5L192.6,232.6L191.1,230.8L190.8,229.6L190.8,228.8L191.4,228L192.1,226.6L192.4,225.3L192.6,224.6L193,223.8L193.3,222.7L193.1,222L192.6,221.3L192.5,220.8L192.9,220.1L193.4,219.5L193.9,219.5L194.5,219.1L195,218.7L195.8,218.6L196.7,218.5L198.7,218.5L199.6,218.4L199.9,218L199.9,217.3L200.4,216.7L200.9,216.4L201.1,216.2L201.2,216L201.1,215.7L200.8,215.6L200.3,215.6L199.8,214.5L200.1,214L200.6,213.1L200.7,212.6L201.3,211.8L201.5,212.1L202,210.7L202.1,209.5L202.4,208.4L203,207L204.1,206.4L210.3,207.1L213.1,207.7L216.7,208.8L217.2,210L217.2,208.8L217.1,207.6L218.1,206.8L220.3,206.5L223.6,206.9L226.4,206.4L230.2,206.4L236.1,207.4L238.7,208.1L239.8,208.7L240,209.7L239.9,211.1L239.4,212.4ZM152.6,117.3L152.2,117.5L151.3,116.7L151.5,115.7L152,115.2L152.5,114.8L153,114.8L153.2,115.6L153.1,116.8ZM151.9,119.4L151.8,119.5L151.9,119.5L151.8,119.6L151.7,119.5L151.6,119.5L151.5,119.5L151.3,119.5L151.3,119.3L151.5,119.4L151.8,119.3L151.8,119.3L151.7,119.2L151.7,119.1L151.8,119L152.1,118.8L152.2,118.7L152.3,118.7L152.3,118.8L152.3,118.8L152.3,118.8L152.2,119ZM150.6,123.1L150.5,123.2L150.4,123.1L150.4,123.1L150.6,123L150.6,123L150.6,122.9L150.6,122.7L150.7,122.7L150.8,122.6L150.8,122.7L150.9,122.8L150.8,122.9L150.7,123L150.7,123.1ZM156,109L155.3,110.3L154,109.5L153.8,108.4L154,107.8L154.8,106.6L155.4,105.8L155.9,105.5L156.1,106.6ZM136,67.04L135.4,67.31L134.8,66.93L135,66.04L135.5,66.02L135.9,66.42ZM134.7,65.53L134.4,65.71L133.9,64.93L133,64.71L132.2,64.24L132.2,64.15L132.2,63.9L132.4,63.64L132.8,63.44L133.7,64.06L134.2,64.86L134.7,65.24ZM1.942,482L-1.127,481L-2.318,480.4L-6.285,477.3L-9.019,476.3L-11.27,474.6L-18.01,470.9L-19.07,469.8L-20.08,468L-21.58,466.9L-23.26,464.4L-25.77,463L-28.15,461.1L-29.03,459.3L-30.62,457.1L-31.11,455.9L-32.52,454.8L-32.6,452.4L-33.58,451.3L-32.87,450.8L-32.12,450.6L-31.19,447L-31.72,445.2L-34.19,441.9L-35.12,440.3L-35.78,438.3L-36.75,437.1L-38.25,434.5L-39.17,432.3L-41.16,430.7L-41.69,430.1L-41.99,429.3L-42,429.3L-42,313L-42,313L-39.75,312.2L-37.28,311.3L-35.07,309.7L-33.35,308.4L-31.9,307.4L-30.05,306L-27.58,303.1L-25.82,301.1L-24.58,299.6L-23.7,298.6L-22.99,296L-22.2,293L-21.85,291.7L-21.71,291.2L-21.36,291.4L-20.97,291.7L-20.52,291.8L-20.04,291.7L-19.78,291.6L-20.17,288.6L-20.13,287.9L-19.91,287.1L-19.95,286.7L-20.7,286.1L-21.94,284.9L-22.42,283.8L-22.73,282.9L-23.57,282.4L-24.45,281.8L-24.41,281.4L-23.88,281.4L-22.55,281.8L-21.58,281.7L-20.88,281.6L-20.22,281.2L-19.47,280.4L-18.98,280.4L-18.41,280.5L-17.39,281.3L-16.78,281.8L-16.03,282.2L-15.37,282.3L-14.71,282.4L-14.31,282.4L-14.04,282.9L-13.74,283.5L-12.94,284L-12.02,284.4L-11.27,285.2L-10.78,285.7L-10.16,286.2L-9.592,287L-9.063,288.4L-8.798,289.3L-8.49,289.8L-8.578,290.3L-7.961,291.3L-7.476,291.8L-6.682,292.1L-5.139,292.5L-4.301,293.3L-3.596,293.7L-2.803,294.6L-2.097,294.8L-1.215,294.8L-0.378,295.2L0.283,296L0.724,297.1L1.386,297.6L1.738,298.7L1.342,300L1.694,300.6L2.4,301.2L3.502,301.7L4.516,301.6L5.045,301.8L5.353,302.3L5.574,302.9L6.015,304.4L6.235,305.4L5.794,306.3L5.662,306.9L5.882,307.8L6.94,308.2L7.91,308.6L8.483,309.2L9.145,309.4L10.07,309.4L11.26,309.2L11.92,308.8L12.36,308.7L12.85,308.9L13.91,309.2L15.19,309.6L16.33,309.4L17.34,309.3L18.36,309.1L19.37,308.4L20.21,308.4L20.83,307.9L21.66,307.2L22.41,306.4L23.03,306.3L24.05,306.6L25.41,307.2L26.21,307.8L26.78,308L27.4,308.5L28.59,308.5L29.86,308.2L30.88,307.4L31.94,307.2L32.64,306.9L33.3,307.1L35.86,308.6L36.57,309.4L37.45,309.5L38.2,309.9L39.39,310.4L40.05,310.9L40.89,311.2L41.5,311.8L42.47,312.2L43.35,312.5L43.71,313L43.71,313.3L43.62,313.6L42.69,315L40.98,317.7L39.39,320.2L36.92,324.1L35.51,326.2L35.86,326.3L38.02,327.3L38.55,327.3L39.34,327.1L39.87,326.7L40.36,326.7L40.84,327L41.59,327.5L42.08,328.9L42.47,329.5L43.35,330.1L44.28,330.9L44.94,331.8L44.94,331.8L44.85,332.6L44.46,332.9L43.84,333L42.91,332.4L42.25,332.6L41.59,332.6L40.62,332L40.31,331.3L39.56,330.8L38.02,331L36.74,331L35.69,330.9L34.72,331L33.92,331.7L33.3,332.6L32.6,333.2L30.48,333.7L29.38,333.7L28.37,334.1L26.91,334.3L25.9,334.7L24.09,334.9L21.93,335.1L20.7,335.7L20.25,336L19.02,336.8L16.86,338.1L15.71,338.6L14.26,340L12.58,341.3L11.48,342L9.85,342.4L9.145,342.7L8.924,343.1L9.057,343.6L8.792,344.9L8.263,347.3L8.131,348.5L8.043,349L6.94,350.9L5.794,352.7L5.221,353.9L4.868,354.7L5.265,355.4L5.706,356.7L6.103,357.8L6.235,358.4L6.103,359.3L5.618,360L4.824,360.4L3.81,360.6L1.65,361.9L-0.73,363.8L-1.524,364.7L-1.744,365.5L-2.097,366.8L-1.921,367.5L-1.524,368L-1.083,369.1L-1.039,369.7L-1.392,370L-2.097,370L-2.67,370.1L-3.155,370.4L-3.596,370.4L-4.037,370.5L-4.037,371L-3.905,371.5L-3.949,372.1L-4.257,372.4L-4.478,372.7L-4.257,373.1L-3.817,373.4L-3.199,373.9L-2.274,375L-1.612,375.1L-1.039,375.5L-0.995,376.1L-1.171,376.6L-1.7,376.9L-1.744,377.4L-1.039,378L-0.598,378.5L-0.113,379.1L0.283,380L0.283,380.6L0.768,381.3L1.033,381.9L1.033,382.5L1.782,383L2.444,383.5L2.885,383.9L3.37,384.1L3.458,384.6L3.414,385.2L4.075,386.3L5.309,387.1L6.279,388.3L6.896,389.1L8.087,390.5L8.131,392.1L6.676,393.9L5.221,395.7L7.602,395.6L10.07,395.7L12.63,396.2L14.35,396.7L15.36,396.9L16.11,397.5L16.46,398.4L16.77,399.1L16.82,400.2L17.92,401L17.83,401.9L17.79,403L18.27,403.1L21.4,403.1L24.84,403.1L28.1,402.8L29.34,402.6L30.84,401.2L31.76,400.7L32.64,400.1L33.7,398.9L34.54,398.3L35.24,397.7L36.26,397L36.7,396.5L37.05,396.3L37.89,396L37.54,396.6L37.27,397.3L37.18,398.3L37.58,399.3L37.23,400.1L36.7,400.8L36.7,402.6L36.7,405.2L36.7,407.5L36.65,410.3L36.65,413.5L36.65,415.6L37.23,415.1L37.98,414.8L38.99,415.7L39.7,416.2L40.31,416.3L40.98,416.2L41.81,416L43.71,415.2L44.99,414.6L46.49,414.6L48.51,414.9L49.66,414.8L51.2,417.5L52.3,419.5L53.58,421.8L54.64,423.6L56.19,426.4L57.55,428.8L58.96,431.3L60.59,434.2L60.11,435L59.67,435.6L59.71,436.6L59.05,437.1L58.39,437.4L57.55,438.2L57.02,439L56.98,440L57.11,445.3L56.98,446.7L56.54,448L56.1,448.6L55.83,449.1L56.49,450.3L57.07,452.8L57.51,453.3L58.08,454.3L58.34,455.2L58.21,455.6L57.11,456L56.71,456.4L56.58,457.8L56.1,458.3L55.3,459L54.77,459.8L54.33,460.3L53.89,460.6L53.67,461.5L53.36,462.5L52.35,463.1L52.17,464.3L52.17,465.3L52.7,466.2L54.47,468.2L54.64,468.7L53.63,470L53.05,470.8L51.64,473.4L51.6,473.9L51.95,475.1L54.11,480.3L54.47,480.8L55.13,481.3L56.19,481.2L57.82,481.8L58.09,482L1.942,482ZM66.5,130.1L65.88,131.4L65.53,130.8L65.49,129.7L65.22,129.3L64.74,129L64.47,128.6L64.47,128.1L66.32,129ZM131,62.23L130.7,62.5L130.4,62.48L130.2,62.23L130.2,61.79L130.5,61.92L130.6,61.97L130.6,62.05ZM127.4,60.6L127.3,60.65L127.1,60.54L127.2,60.31L127.3,60.23L127.4,60.29L127.5,60.45ZM45.74,126.2L45.78,126.6L45.21,126.4L44.46,125.6L43.71,125L43.88,124.4L44.06,124.2L44.85,124.7L45.6,125.8ZM59.8,131.1L59.18,131.3L56.8,130.1L54.86,128.1L54.82,127.1L55.3,127.2L55.83,127.6L56.58,129L58.87,129.9ZM-42,50.47L-41.38,50.57L-40.72,50.57L-40.1,50.73L-38.69,51.82L-37.54,52.45L-33.27,53.79L-31.81,56.14L-31.55,56.88L-32.65,57.3L-34.06,57.46L-35.38,57.48L-36.62,57.03L-37.15,56.68L-38.42,56.52L-38.12,56.21L-38.69,56.05L-39.39,56.09L-39.92,56.99L-40.54,57.7L-41.64,57.64L-42,57.15L-42,50.47ZM22.72,33.52L22.99,33.9L23.56,36.52L23.61,37.38L23.03,38.64L23.12,39.13L24.35,40.3L24.35,40.71L24.22,41.14L23.16,42.24L22.37,43L22.64,43.88L23.3,44.69L23.39,45.39L23.16,46.31L22.19,47.43L21.66,47.83L20.17,47.88L20.03,48.03L20.74,49.13L21.58,50.39L22.94,51.35L23.25,52.27L22.9,53.12L22.86,55.24L21.84,54.22L20.7,53.37L19.99,53.03L19.29,52.81L13.86,52.92L13.24,53.08L12.76,53.34L12.28,53.48L10.78,53.75L9.277,53.79L5.794,53.1L4.428,52.74L3.061,52.52L1.474,52.58L-0.113,52.81L-1.392,53.3L-2.318,54.19L-2.494,55L-3.067,55.22L-4.346,53.9L-5.536,52.99L-6.858,52.29L-9.592,51.28L-10.12,50.68L-10.34,49.96L-9.195,47.7L-7.961,47.27L-7.255,47.2L-5.712,47.47L-4.169,47.99L-2.803,48.33L-0.642,48.46L0.548,49.02L8.792,49.87L10.34,50.14L10.95,50.05L11.48,49.72L11.92,49.11L12.45,48.64L14.92,48.55L15.4,48.35L15.76,47.7L15.76,47.05L14.3,46.15L12.05,44.22L10.07,41.9L10.95,41.14L10.6,39.72L10.95,38.41L11.39,37.13L9.453,36.02L7.117,34.92L3.899,34.58L2.929,34.29L2.4,33.47L2.885,32.37L3.899,31.73L5.089,31.37L6.323,31.1L9.277,30.78L12.23,31.15L14.74,32.28L17.34,33.18L20.56,33.47L22.06,33.79ZM10.16,45.72L9.938,46.62L6.808,45.54L4.295,44.17L4.383,43.43L5.706,43.27L6.94,43.72L8.748,44.62ZM11.88,29.36L12.41,29.65L12.19,30.04L10.95,29.81L9.674,29.38L9.277,29.49L9.013,29.45L8.263,29.04L8.924,28.73L9.586,28.63L10.34,28.66ZM145.9,131.7L145.2,131.8L145.5,131.3L145.5,130.5L146,129.5L146.6,128.9L147.3,129.1L147,131.2ZM156.8,100.5L156.7,101.2L156.4,101.3L156,100.7L154,100.8L153.7,100.3L153.6,100L154.6,99.11L153.4,98.87L153,98.48L152,96.56L152.1,95.99L152.5,95.71L153.2,95.66L154.4,96.28L155.3,97.16L155.6,97.18L155.7,97.42L155.6,98.06L156.1,98.59L156.3,98.96ZM150.7,78.43L149.3,78.56L148.3,78.45L148.1,77.54L148.6,76.77L148.2,75.84L148.5,75.28L148.9,74.9L149.7,75.39L149.9,76.1L150.4,76.74L152.6,78.09ZM147.5,81.28L146.5,81.86L146,81.68L145.4,80.57L145,77.52L145.3,77.03L145.5,76.83L146.9,77.21L147.4,77.63L148,77.92L147.7,78.47L147.8,80.75ZM151.9,82.76L151.2,82.81L150.9,82.7L150.8,81.94L151.4,81.42L151.7,81.28L152.1,81.88L152.2,82.37ZM232.9,251.4L233.1,251.3L233.5,251.2L233.9,251.2L234.5,250.3L235.5,249.7L237.3,246.7L238,245.4L238.1,244.7L238.3,243.2L238,241.5L238.1,240.9L239.7,238.8L240.3,237.6L240.4,236.6L240.6,235.9L240.4,235.5L240,235.4L239.4,234.5L239.1,233.7L238,232.9L237.3,232.1L236.1,230.2L236.3,229.2L235.9,228.8L235.6,228.4L235.6,227.9L235.3,226.7L235,225.6L235,224.9L235.2,223.7L235,222.4L234.7,221.7L234.6,220.6L234.6,219.6L235,219.1L234.9,218.4L236.4,216.3L237.5,215L238.5,214.2L239.4,213.5L240.6,210.3L241.4,209.1L242.3,209L247.1,211.7L249.4,211.9L253.9,213.4L255.6,215.2L259.4,218.3L261.4,219.3L261.4,220.1L261,221.4L262.2,220.3L264.2,222.1L264.8,222.9L265.4,224.6L265.2,225.6L264.9,226.1L264.9,226.5L265.5,226L265.8,225.5L265.9,224.4L266.4,223.1L267,223.1L267.6,223.9L268.6,227.4L269,228.1L269.2,229.2L269.1,229.7L269.2,230.1L268.8,230.4L267.8,231L267.3,231.7L267,232.5L266.4,233L265.8,233.6L265.6,234.1L265.1,234.5L264.9,235.2L263.5,237.6L262.9,238.7L262.1,239.8L261.6,240.2L260.9,240.9L260.6,241.7L260.6,242.5L260.1,243.5L259.8,244.3L259.4,244.8L258.1,247.5L258.1,248.4L257.8,248.9L257,250.2L256.4,250.9L255.4,251.5L254.3,252.1L253.9,252.8L253.1,253.2L252.6,253.2L251.7,252.9L250.5,252.8L249.9,252.9L249.6,252.5L249.2,251.8L248.6,251.2L248.2,251.4L247.4,252L246.5,252.3L245.8,252.2L244.3,251.8L243.7,251.6L243.5,251.3L243.3,251.1L243,251.2L242.5,251.6L242,252L241.1,252.5L239.4,253.6L238.9,253.9L238.4,253.7L237.6,253.5L236.8,253.5L235.1,252.9L234.2,252.4L233.7,251.8L233.2,251.6ZM130.1,54.87L128.7,54.87L128.8,54.58L129.5,54.26L129.9,54.31L130.1,54.42ZM132.3,57.35L132.1,57.37L132,57.26L131.8,57.06L131.7,56.88L131.8,56.74L131.9,56.81L132.7,56.92L132.6,57.08L132.5,57.23ZM-42,275.9L-41.25,276.3L-40.23,276.6L-39.13,276.9L-38.38,276.9L-38.03,276.8L-37.9,276.6L-37.28,276.6L-36.35,277L-35.03,277L-34.19,276.7L-34.1,276.2L-34.02,275.3L-33.71,274.9L-32.78,274.4L-32.3,274.5L-29.78,275.7L-29.3,276.1L-28.64,276.9L-27.49,278L-26.21,278.8L-24.27,279.1L-22.42,280.4L-20.22,281.2L-20.22,281.2L-20.88,281.6L-21.58,281.7L-22.55,281.8L-23.88,281.4L-24.41,281.4L-24.45,281.8L-23.57,282.4L-22.73,282.9L-22.42,283.8L-21.94,284.9L-20.7,286.1L-19.95,286.7L-19.91,287.1L-20.13,287.9L-20.17,288.6L-19.78,291.6L-20.04,291.7L-20.52,291.8L-20.97,291.7L-21.36,291.4L-21.71,291.2L-21.85,291.7L-22.2,293L-22.99,296L-23.7,298.6L-24.58,299.6L-25.82,301.1L-27.58,303.1L-30.05,306L-31.9,307.4L-33.35,308.4L-35.07,309.7L-37.28,311.3L-39.75,312.2L-42,313L-42,275.9ZM22.86,55.24L22.9,53.12L23.25,52.27L22.94,51.35L21.58,50.39L20.74,49.13L20.03,48.03L20.17,47.88L21.66,47.83L22.19,47.43L23.16,46.31L23.39,45.39L23.3,44.69L22.64,43.88L22.37,43L23.16,42.24L24.22,41.14L24.35,40.71L24.35,40.3L23.12,39.13L23.03,38.64L23.61,37.38L23.56,36.52L22.99,33.9L22.72,33.52L23.25,33.29L23.61,32.52L24.09,31.82L24.71,31.44L25.46,31.21L26.87,31.24L28.81,31.85L29.38,31.82L31.28,31.28L32.82,30.96L34.32,31.33L34.89,31.8L36.13,32.55L36.74,32.77L38.64,32.75L39.17,32.82L40.8,34.06L42.12,34.56L42.91,34.58L44.33,34.1L45.03,34.13L45.82,35.19L46,36.7L46.66,38.08L47.72,38.95L52.79,38.59L53.89,39.31L53.54,39.92L52.79,40.24L50.41,40.1L49.35,40.17L49.13,40.76L49.13,41.32L50.54,41.45L51.91,41.72L53.32,42.17L54.77,42.47L56.36,42.67L57.95,42.98L60.64,44.08L63.55,46.53L64.34,47.09L64.87,47.85L64.61,48.82L63.55,50.37L62.97,50.86L62.09,51.17L61.52,51.8L60.95,52.9L60.59,52.99L60.2,52.94L59.49,52.31L58.96,51.37L57.55,50.5L55.88,50.61L53.41,50.08L51.91,50.34L50.41,50.39L48.87,50.12L47.32,50.03L45.78,50.37L44.28,50.93L43.75,51.31L42.78,52.18L42.25,52.52L38.64,52.96L37.58,52.31L36.61,51.42L35.2,51.31L33.17,51.98L31.94,52.23L31.41,52.54L31.28,52.85L31.28,54.1L30.97,54.84L28.98,57.68L27.88,59.69L27.44,60.31L26.91,60.45L25.9,59.29L25.28,58.87L24.53,58.66L24.22,58.06L24.22,57.19L24,56.34L23.56,55.69ZM151.3,90.91L150.1,91.19L149.6,88.99L148.9,87.4L149,86.41L149.1,86.03L150.8,86.65L151.3,87.38L151.6,89.34ZM-42,9.378L-40.32,10.74L-39.22,11.52L-39.48,11.97L-39.57,12.43L-38.34,12.02L-37.85,12.06L-37.41,12.31L-36.88,13.04L-35.73,13.21L-34.54,13.18L-32.12,13.8L-29.87,15.03L-27.71,15.28L-25.55,15.32L-24.49,15.96L-24.01,16.85L-24.54,17.47L-24.85,18.1L-24.05,18.9L-25.77,19.24L-26.04,19.72L-25.95,20.24L-25.59,20.51L-24.58,20.26L-23.13,20.49L-20.88,20.67L-19.34,20.51L-16.2,21.06L-15.28,21.36L-13.43,22.35L-12.59,23.04L-10.74,24.83L-9.195,25.53L-7.828,25.71L-7.343,25.6L-6.903,25.78L-6.506,26.03L-6.153,26.82L-6.373,27.66L-7.123,28.32L-7.564,28.82L-9.504,28.86L-12.24,29.09L-14.88,29.81L-16.16,30.4L-16.78,30.78L-18.14,31.12L-18.23,30.83L-18.23,30.45L-18.59,29.74L-18.89,30.38L-19.42,30.85L-20.26,31.24L-23.48,31.26L-24.76,30.74L-26.08,30.35L-30.89,29.99L-32.08,30.02L-35.29,30.42L-38.51,30.63L-39.88,30.87L-41.2,31.24L-42,31.24L-42,9.378ZM-42,177.5L-41.11,178.5L-40.41,179.8L-39.88,180L-39.39,180.5L-39.61,180.8L-40.14,181.2L-40.28,182L-39.92,182.4L-39.57,182.6L-38.6,182.4L-38.07,181.6L-38.42,177.8L-39,175.9L-39.66,175.3L-40.23,174.5L-39.84,173.9L-38.78,173.7L-37.41,173L-32.34,169.4L-30.62,165.9L-29.3,164.7L-27.8,163.9L-25.99,164.1L-24.54,163.7L-24.1,162.6L-24.49,161.1L-25.07,160.2L-24.54,158.9L-23.96,156.9L-24.01,155.3L-23.3,154.3L-23.57,153.9L-24.58,154.7L-25.38,155L-24.93,154.4L-23.48,152.7L-22.77,150.2L-22.2,149.2L-20.17,147.8L-19.73,147.1L-18.23,146L-15.76,143.6L-14.79,143L-10.03,144.5L-8.534,144.4L-8.798,144.7L-9.504,144.8L-10.52,145.2L-10.78,146.1L-10.12,147L-9.371,147.3L-8.754,146.7L-8.137,144.9L-7.167,143L-6.903,141L-6.241,140.3L-5.183,140.1L-3.376,140.5L-1.965,140.9L-0.51,141L3.943,140.7L11.17,135.5L14.57,134.3L16.64,133.3L18.01,131.1L18.36,129.5L19.33,128.9L20.39,128.9L20.87,128.5L21,128L23.52,126.6L24.97,126.4L26.21,126.4L29.07,127.7L30.35,129.8L30.57,131.3L28.81,132.9L28.37,133.6L28.37,133.6L27.93,133.7L27.35,134.1L25.72,134.7L23.47,135.3L20.52,136L19.86,136.8L16.99,141.9L14.57,142.9L13.69,143.7L13.02,144.6L11.57,146.4L10.95,147.8L9.365,150.7L8.483,154.4L8.175,156.4L7.69,159.4L6.985,160.9L6.059,162.4L5.045,163.7L4.163,165.2L3.414,166.4L3.281,166.8L3.634,167.1L5.397,166.8L6.103,166.5L7.073,166L7.646,166.3L8.263,167.5L8.924,167.7L9.586,167.5L10.25,167.9L11.13,171.1L11.88,173.9L13.6,175.6L14.92,176.9L15.23,178.1L15.58,179.7L15.63,180.5L15.23,181L14.57,182L14.39,184L14.26,184.6L14.17,186.4L14.26,187.5L14.61,188.3L15.19,188.8L16.38,189.1L17.48,189.4L18.09,190.9L18.98,192.8L19.95,193.6L21.36,194.1L22.33,193.9L24.66,193.6L26.65,193.6L29.6,194.2L30.7,194.1L32.11,194L34.58,193L35.46,192.8L36.48,192.9L37.93,193.5L38.77,193.9L39.78,194.3L41.24,194.6L42.21,194.6L42.91,194.5L43.35,194.7L45.69,197.7L47.72,200.2L49.48,202.3L51.38,204.6L51.51,204.8L52.39,204.5L52.97,204.6L53.49,205.1L54.38,204.9L55.66,204L57.51,203.8L59.98,204.4L63.24,204.4L67.25,203.8L69.76,203.3L70.73,202.7L72.36,202.8L74.3,203.3L75.36,204.1L75.49,204.8L75.89,206L75.45,207.1L74.22,208.3L73.51,209.9L73.38,211.7L72.76,213.1L71.61,214L71.13,215.3L71.39,217L71.26,219.4L70.78,222.7L70.78,224.6L71.26,225.3L71.53,226.2L71.48,227.4L71.66,228.4L72.28,229.8L73.16,232.5L73.86,233.7L74.48,234.2L75.14,234.7L76.99,237.5L77.43,238.1L77.3,238.6L77.13,238.9L76.91,239.2L74.97,240.8L71.04,244.5L70.69,244.9L70.73,245.7L71.88,245.2L73.07,245.6L73.69,245.7L73.95,246L74.3,246.9L74.7,247.1L75.27,247.5L76.46,248.5L77.43,249.6L78.14,250.1L78.67,250.6L78.84,251.3L78.62,252L79.24,253.7L79.64,254.2L79.86,254.8L79.64,255.4L80.17,256.1L80.7,257.6L81.4,259.3L81.49,260.3L81.75,260.7L82.11,262L82.68,263.3L82.55,264.1L82.77,264.9L80.43,265.5L80.25,265.4L80.12,265.1L80.17,262.8L80.17,260.1L79.77,259L78.71,257.3L77.35,255L76.95,254.4L76.33,254L75.63,253.9L75.14,254.1L74.44,254.5L73.78,255L72.54,256.4L71.26,258L70.51,258.3L69.81,258.5L69.15,258.4L68.62,258L68.04,257.1L67.43,255.9L66.63,255.6L66.32,255.9L66.06,256.6L65.88,257.3L66.41,258.2L66.85,258.8L66.06,258.8L63.59,258.8L60.68,258.8L57.82,258.8L55.26,258.8L52.83,258.8L51.91,258.8L50.98,258.4L50.1,258.2L49.66,258.2L48.78,258.6L47.72,258.6L46.97,259L46.35,259L46.35,261L46.35,263.9L46.31,266.9L46.97,266.7L47.54,266.7L47.98,266.9L49.17,266.8L49.79,266.8L50.41,266.9L50.98,266.9L51.34,267.2L51.82,267.1L52.35,266.9L52.92,267L53.58,267.5L54.02,268.1L54.38,268.9L54.77,269.3L54.73,270.1L54.73,270.7L54.6,271.2L54.77,271.5L54.86,271.8L54.86,272L54.64,272.1L54.16,272.2L53.63,272.2L53.27,272.2L53.01,271.9L52.75,271.9L52.35,271.9L51.95,271.7L51.6,271.3L50.98,271L50.32,271.1L49.84,271.3L49.35,271.6L48.95,271.8L48.51,271.7L47.94,271.9L47.5,272.2L46.88,272.4L46.22,272.6L45.43,272.7L44.68,272.7L43.84,272.8L43.8,274.4L43.71,277.6L43.66,279.7L43.66,281.6L43.97,282.3L45.47,283.8L46.62,284.6L47.59,285.4L48.6,285.8L49,286.1L49.26,286.7L49.4,287.2L49.53,287.7L49.4,288.2L49.17,288.7L49.26,289.2L49.62,289.6L49.7,290.2L49.97,290.6L50.1,291.1L50.41,291.5L50.76,291.7L51.25,292.1L51.34,292.5L51.25,292.9L51.25,293.3L51.73,294L51.86,294.5L51.64,295.2L51.42,297.3L50.89,299.8L50.54,301.6L50.01,304.7L49.35,308.2L48.56,312.6L47.81,316.9L47.02,321L46.35,324.8L45.6,328.9L45.16,331.4L44.94,331.8L44.28,330.9L43.35,330.1L42.47,329.5L42.08,328.9L41.59,327.5L40.84,327L40.36,326.7L39.87,326.7L39.34,327.1L38.55,327.3L38.02,327.3L35.86,326.3L35.51,326.2L36.92,324.1L39.39,320.2L40.98,317.7L42.69,315L43.62,313.6L43.71,313.3L43.71,313L43.35,312.5L42.47,312.2L41.5,311.8L40.89,311.2L40.05,310.9L39.39,310.4L38.2,309.9L37.45,309.5L36.57,309.4L35.86,308.6L33.3,307.1L32.64,306.9L31.94,307.2L30.88,307.4L29.86,308.2L28.59,308.5L27.4,308.5L26.78,308L26.21,307.8L25.41,307.2L24.05,306.6L23.03,306.3L22.41,306.4L21.66,307.2L20.83,307.9L20.21,308.4L19.37,308.4L18.36,309.1L17.34,309.3L16.33,309.4L15.19,309.6L13.91,309.2L12.85,308.9L12.36,308.7L11.92,308.8L11.26,309.2L10.07,309.4L9.145,309.4L8.483,309.2L7.91,308.6L6.94,308.2L5.882,307.8L5.662,306.9L5.794,306.3L6.235,305.4L6.015,304.4L5.574,302.9L5.353,302.3L5.045,301.8L4.516,301.6L3.502,301.7L2.4,301.2L1.694,300.6L1.342,300L1.738,298.7L1.386,297.6L0.724,297.1L0.283,296L-0.378,295.2L-1.215,294.8L-2.097,294.8L-2.803,294.6L-3.596,293.7L-4.301,293.3L-5.139,292.5L-6.682,292.1L-7.476,291.8L-7.961,291.3L-8.578,290.3L-8.49,289.8L-8.798,289.3L-9.063,288.4L-9.592,287L-10.16,286.2L-10.78,285.7L-11.27,285.2L-12.02,284.4L-12.94,284L-13.74,283.5L-14.04,282.9L-14.31,282.4L-14.71,282.4L-15.37,282.3L-16.03,282.2L-16.78,281.8L-17.39,281.3L-18.41,280.5L-18.98,280.4L-19.47,280.4L-20.22,281.2L-22.42,280.4L-24.27,279.1L-26.21,278.8L-27.49,278L-28.64,276.9L-29.3,276.1L-29.78,275.7L-32.3,274.5L-32.78,274.4L-33.71,274.9L-34.02,275.3L-34.1,276.2L-34.19,276.7L-35.03,277L-36.35,277L-37.28,276.6L-37.9,276.6L-38.03,276.8L-38.38,276.9L-39.13,276.9L-40.23,276.6L-41.25,276.3L-42,275.9L-42,177.5ZM168.5,482L164.8,481.9L164.7,480.1L164.5,477.2L164.3,475.1L164,471.8L162.3,469.8L160.5,467.5L159.8,467L162,466.9L163.6,466.8L163.3,460.9L162.8,460.3L162.4,458.4L162.1,457.3L161.3,456.4L161.2,455.4L161.3,454.7L161.7,454.3L162,453.3L161.8,452.3L161.3,451.3L160.8,450.4L159.7,449.9L158.1,448.9L155.8,447.5L153.8,446.6L153.1,446.8L149.6,447.1L148.5,447.3L147.7,447.1L145.1,447.1L144,446.4L143.2,445.6L141.3,443.5L141.1,442.5L140.3,442.2L139.2,442.3L138.1,442.1L136,441.3L134.1,440.4L133.1,440.4L132.2,439.9L130.7,438.6L130,438L129.7,437.3L129.4,436.3L128.8,436.1L128,436.3L127.2,436.8L126,436.5L124.5,435.5L123.6,434.8L123.1,434.4L121.8,433.9L120.6,433.8L118.7,434.6L117.2,434.3L114.9,434L112.8,433.4L112.1,432L111.7,431.1L110.5,430.5L109.5,429.8L108.4,428.7L107.8,428.3L106.8,428L105.8,427.6L105.7,426.9L105.4,426L105.3,425.8L104.6,424.7L104.3,424.6L104,424.8L103.8,425L103.5,424.8L103.4,424.3L103.6,423.5L103.2,422.7L102.3,421.8L101.8,420.9L101.8,420L101.5,419.4L101.2,419.1L101,418.5L100.9,417.7L101.2,416.8L101.8,415.7L101.6,414.1L100.8,411.9L100.4,410.3L100.3,409.3L100.4,408.6L100.9,407.9L101.9,406.1L102.1,404.8L101.8,403.3L101.7,402.2L101.9,401.4L101.6,400.4L100.9,399.4L100.4,399.4L99.7,399.6L98.9,400.5L97.93,400.6L97.1,400.1L94.41,400.3L90.26,400.8L88.59,401.4L87.62,401.6L86.47,401.7L84.58,402.7L79.9,406.3L78.93,406.9L77.83,406.9L77.17,407.4L76.16,407.8L74.13,409.3L73.07,410.4L72.41,411.5L71.61,411.5L71.04,411.2L69.1,411.4L68.13,411.7L67.07,412.8L65.75,414.6L65.18,415.1L64.12,415.7L62.89,416.1L61.39,416.8L60.68,416.9L60.11,417L59.58,416.7L59.4,416L58.61,415.6L56.76,415.4L53.98,414.9L51.12,414.8L49.66,414.8L48.51,414.9L46.49,414.6L44.99,414.6L43.71,415.2L41.81,416L40.98,416.2L40.31,416.3L39.7,416.2L38.99,415.7L37.98,414.8L37.23,415.1L36.65,415.6L36.65,413.5L36.65,410.3L36.7,407.5L36.7,405.2L36.7,402.6L36.7,400.8L37.23,400.1L37.58,399.3L37.18,398.3L37.27,397.3L37.54,396.6L37.89,396L37.05,396.3L36.7,396.5L36.26,397L35.24,397.7L34.54,398.3L33.7,398.9L32.64,400.1L31.76,400.7L30.84,401.2L29.34,402.6L28.1,402.8L24.84,403.1L21.4,403.1L18.27,403.1L17.79,403L17.83,401.9L17.92,401L16.82,400.2L16.77,399.1L16.46,398.4L16.11,397.5L15.36,396.9L14.35,396.7L12.63,396.2L10.07,395.7L7.602,395.6L5.221,395.7L6.676,393.9L8.131,392.1L8.087,390.5L6.896,389.1L6.279,388.3L5.309,387.1L4.075,386.3L3.414,385.2L3.458,384.6L3.37,384.1L2.885,383.9L2.444,383.5L1.782,383L1.033,382.5L1.033,381.9L0.768,381.3L0.283,380.6L0.283,380L-0.113,379.1L-0.598,378.5L-1.039,378L-1.744,377.4L-1.7,376.9L-1.171,376.6L-0.995,376.1L-1.039,375.5L-1.612,375.1L-2.274,375L-3.199,373.9L-3.817,373.4L-4.257,373.1L-4.478,372.7L-4.257,372.4L-3.949,372.1L-3.905,371.5L-4.037,371L-4.037,370.5L-3.596,370.4L-3.155,370.4L-2.67,370.1L-2.097,370L-1.392,370L-1.039,369.7L-1.083,369.1L-1.524,368L-1.921,367.5L-2.097,366.8L-1.744,365.5L-1.524,364.7L-0.73,363.8L1.65,361.9L3.81,360.6L4.824,360.4L5.618,360L6.103,359.3L6.235,358.4L6.103,357.8L5.706,356.7L5.265,355.4L4.868,354.7L5.221,353.9L5.794,352.7L6.94,350.9L8.043,349L8.131,348.5L8.263,347.3L8.792,344.9L9.057,343.6L8.924,343.1L9.145,342.7L9.85,342.4L11.48,342L12.58,341.3L14.26,340L15.71,338.6L16.86,338.1L19.02,336.8L20.25,336L20.7,335.7L21.93,335.1L24.09,334.9L25.9,334.7L26.91,334.3L28.37,334.1L29.38,333.7L30.48,333.7L32.6,333.2L33.3,332.6L33.92,331.7L34.72,331L35.69,330.9L36.74,331L38.02,331L39.56,330.8L40.31,331.3L40.62,332L41.59,332.6L42.25,332.6L42.91,332.4L43.84,333L44.46,332.9L44.85,332.6L44.94,331.8L45.16,331.4L45.6,328.9L46.35,324.8L47.02,321L47.81,316.9L48.56,312.6L49.35,308.2L50.01,304.7L50.54,301.6L50.89,299.8L51.42,297.3L51.64,295.2L51.86,294.5L51.73,294L51.25,293.3L51.25,292.9L51.34,292.5L51.25,292.1L50.76,291.7L50.41,291.5L50.1,291.1L49.97,290.6L49.7,290.2L49.62,289.6L49.26,289.2L49.17,288.7L49.4,288.2L49.53,287.7L49.4,287.2L49.26,286.7L49,286.1L48.6,285.8L47.59,285.4L46.62,284.6L45.47,283.8L43.97,282.3L43.66,281.6L43.66,279.7L43.71,277.6L43.8,274.4L43.84,272.8L44.68,272.7L45.43,272.7L46.22,272.6L46.88,272.4L47.5,272.2L47.94,271.9L48.51,271.7L48.95,271.8L49.35,271.6L49.84,271.3L50.32,271.1L50.98,271L51.6,271.3L51.95,271.7L52.35,271.9L52.75,271.9L53.01,271.9L53.27,272.2L53.63,272.2L54.16,272.2L54.64,272.1L54.86,272L54.86,271.8L54.77,271.5L54.6,271.2L54.73,270.7L54.73,270.1L54.77,269.3L54.38,268.9L54.02,268.1L53.58,267.5L52.92,267L52.35,266.9L51.82,267.1L51.34,267.2L50.98,266.9L50.41,266.9L49.79,266.8L49.17,266.8L47.98,266.9L47.54,266.7L46.97,266.7L46.31,266.9L46.35,263.9L46.35,261L46.35,259L46.97,259L47.72,258.6L48.78,258.6L49.66,258.2L50.1,258.2L50.98,258.4L51.91,258.8L52.83,258.8L55.26,258.8L57.82,258.8L60.68,258.8L63.59,258.8L66.06,258.8L66.85,258.8L66.41,258.2L65.88,257.3L66.06,256.6L66.32,255.9L66.63,255.6L67.43,255.9L68.04,257.1L68.62,258L69.15,258.4L69.81,258.5L70.51,258.3L71.26,258L72.54,256.4L73.78,255L74.44,254.5L75.14,254.1L75.63,253.9L76.33,254L76.95,254.4L77.35,255L78.71,257.3L79.77,259L80.17,260.1L80.17,262.8L80.12,265.1L80.25,265.4L80.43,265.5L82.77,264.9L82.77,264.9L85.9,267.8L88.23,269.8L89.25,270.5L89.82,270.7L91.14,270.6L92.78,270.3L93.53,270L94.41,269.3L95.82,268.4L96.96,267.9L97.41,267.9L97.85,268L98.82,268.6L99.34,269.6L98.86,270.8L98.95,271.5L99.96,271.4L100.8,270.2L101.3,269.3L102.5,268.5L103.7,267.4L104.5,266.3L105.4,265.7L106.8,265L108,264.5L109,264.5L109.8,264.1L110.9,263.1L111.6,262.4L112,262.1L113,262.2L114.2,262.1L115.5,261.2L116.6,260.1L117.2,258.2L117.6,256.6L117.9,256.2L118.3,256L118.7,255.8L119.9,255.7L121.9,254.8L123.2,253.9L124.6,253.7L125,253.5L125.4,252.7L125.7,251.2L125.5,250.4L123.1,250.1L121.5,250.1L118.9,249.9L117.7,249.5L117.4,249.2L117.4,249L117.6,248.3L117.9,247.2L117.5,245.6L116.2,243.1L115.3,240.6L115.2,238.9L115.2,237.1L115.3,235.9L114.6,235L111,232.1L109.8,230.7L109.4,229.8L108,228L108.3,227.5L109.1,227.5L109.8,228L110.5,228.9L110.9,229.2L111.6,229.2L114.9,229.1L115.6,229.3L116.1,229.7L116.5,230.1L117.1,231.2L117.7,231.7L119.1,231.7L121.1,231.7L122.2,231.6L122.9,231.9L123.8,232.2L125.6,231.6L126.1,231.6L126.6,231.8L128.6,233.9L129.7,234.7L130.6,235.9L132,235.9L133.1,234.9L133.4,231.6L133.8,230.7L134.3,230.4L135,230.4L135.8,229.8L136.7,229.2L137.4,229L140.6,229.7L141.5,229.3L144.7,228.5L147.9,227.3L148.9,225.9L150.2,225.6L151.3,224.5L152.2,224.6L153.5,224.7L154.3,224.5L154.7,224.3L155.2,223.8L155.9,222.4L156.8,221.9L157.9,221.4L158.6,220.7L159.3,219.9L159.6,219.2L159.6,218.7L159.2,217.6L158.7,216.6L158.2,216.2L157.9,216.1L159,215.9L159.9,216.2L161.3,216.3L161.9,216L162.9,216.1L164,215.4L164.8,215.7L165.3,215.7L165.7,216.2L166,216.8L167.1,217.6L167,218.7L166.8,219.7L166.7,220.9L166.6,221.8L166.1,222.7L165.4,223.5L165.3,223.9L165.2,224.3L165.6,224.6L166.4,224.7L167.4,224.7L168.1,225L169,225L170.1,225.8L170.6,226.2L170.6,226.5L170.3,227.4L170.2,228.1L170.5,228.6L170.8,228.9L171.6,230.6L172,231.2L172.4,231.4L172.5,231.7L172.2,232.3L171.8,233.1L171,233.9L170.9,234.6L170.3,235L168.7,235.9L169,237.5L169.1,238.3L169,238.9L168.5,239.7L167.6,242.1L167.3,243.3L167,246L167.1,246.9L167.5,248.2L168.3,250.9L168.8,251.4L170,252L170.1,253.9L170,255.9L170,256.6L170.1,256.9L170.7,257.1L171,257.3L171.1,257.9L171.1,258.5L171.9,258.9L172.7,259.1L173.4,259.9L174.6,261.2L175.1,261.4L175.3,262L176.4,263.1L178,263.4L179.6,263.9L180.2,264.6L180.9,265.2L181.4,265.2L181.8,265.1L182.5,264.6L183.1,264.2L184,264.2L185.2,264.2L185.4,263.8L185.5,263.4L185.3,262.3L185.7,261.9L186.6,261.8L186.8,261.2L187,260.8L187.3,260.5L187.6,260.4L188,260.6L188.7,260.8L189.3,260.9L189.7,261.3L190.3,261.4L191,261.3L191.3,261L191.5,260.6L191.7,259.7L192.1,259.7L193,259.5L194,259.1L195.2,259L196.4,259L197,258.8L197.6,258.2L198.7,256.5L199.2,256.1L199.8,255.8L200.3,255.9L201.4,255.6L202.2,255.2L202.6,255.3L203.3,256.2L203.6,256.4L204.1,256.4L205.7,256.9L206.6,256.7L207.5,256.5L208.4,256.4L209.1,256.5L209.5,256.3L210,256.1L210.4,256.2L211.2,256.3L213.2,256.8L215.7,257.3L216.4,257.2L216.8,256.8L216.9,255.7L217,254.9L216.4,254.2L215.7,253.5L215.1,252.5L214.3,252.2L214.4,251.7L214.9,251.2L215.4,250.9L215.7,250.6L216,249.3L216.3,249.1L216.5,249L216.7,249.1L217.3,249.4L219.3,250.4L220.1,250.3L223.5,250L224,249.4L224.7,249.3L225.9,248.7L226.4,248.7L226.8,248.8L227.3,248.7L228.1,248.1L228.5,248.1L228.6,248.7L229.1,249.3L229.7,249.9L230,250L231.1,249.8L231.6,250L231.8,250.5L231.9,251L232.4,251.4L232.9,251.4L233.2,251.6L233.7,251.8L234.2,252.4L235.1,252.9L236.8,253.5L237.6,253.5L238.4,253.7L238.9,253.9L239.4,253.6L241.1,252.5L242,252L242.5,251.6L243,251.2L243.3,251.1L243.5,251.3L243.7,251.6L244.3,251.8L245.8,252.2L246.5,252.3L247.4,252L248.2,251.4L248.6,251.2L249.2,251.8L249.6,252.5L249.9,252.9L250.5,252.8L251.7,252.9L252.6,253.2L253.1,253.2L253.9,252.8L254.3,252.1L255.4,251.5L256.4,250.9L257,250.2L257.8,248.9L258.1,248.4L258.1,247.5L259.4,244.8L259.8,244.3L260.1,243.5L260.6,242.5L260.6,241.7L260.9,240.9L261.6,240.2L262.1,239.8L262.9,238.7L263.5,237.6L264.9,235.2L265.1,234.5L265.6,234.1L265.8,233.6L266.4,233L267,232.5L267.3,231.7L267.8,231L268.8,230.4L269.2,230.1L270.4,228L270.5,227.1L271.5,227L273.2,228.1L274.5,229.7L276.3,234.9L276.5,239.7L277.3,242.2L279.3,247.4L279.4,248.4L279.7,249.5L280.4,250.8L281.1,252.8L281.2,253.2L280.7,253.8L281.4,253.8L282,254.1L282.4,255.4L282.9,256.3L283.8,257.5L285.7,257.9L287.2,258L288.8,258.7L290,259.6L290.9,262.5L290.6,264.4L290.7,265.6L290.2,266.2L288.9,267L288.6,267.5L285.8,269.7L285.2,270.7L283.8,272.1L282.3,274.7L280.2,277.2L279.4,277.8L278.3,277.9L277.6,278.3L276,280.3L273.7,280.9L273.5,282.1L272.3,284.7L271.1,286.1L270.4,286.6L268.6,289.2L268.4,290.4L268.4,292.4L267.1,293.6L265.9,294.4L265.7,296.1L265.2,296.6L264.7,297L262.2,296.6L258.1,298.5L256.8,298.9L261.1,299L262.6,300L265.6,299.3L269.3,297L270.7,296.5L273.5,294.9L274.7,293.8L276.8,292.5L277.3,292L278.5,291.4L279.1,292.1L279.2,292.6L278.2,293.6L278.5,294.2L279.1,294.9L279.3,296L279.4,296.8L279.8,298.2L281.1,300L281.2,300.7L281,301.5L281.6,302.2L282.3,302.6L284.5,304.6L286.2,303.5L287.3,303.1L288,302.6L289.4,302.3L290.6,302.8L292.9,303.5L294.5,302.8L297.8,301.1L296.8,304L296.1,306.7L295.5,307.8L294.9,310.8L294.3,311.6L293.9,312.5L294.6,312.1L295.3,311.7L296.1,310.6L296.7,308.6L299.1,303.4L299.8,302.9L301.8,302.3L305.2,298.1L306.6,298.1L307.4,299.1L308.3,299.7L308.4,298.5L309.6,298L308.4,297.5L308.2,297L308.1,296.1L308.9,294.9L308.4,293.9L310.2,292.6L310,291.7L310.6,290.9L311.4,290L312.4,289.6L312.5,288.9L313.1,288.6L313.5,288.5L314.4,289.3L315.4,288.4L316.3,288L316.7,288.2L317.2,288.6L317.7,288.8L318.2,288.7L319.3,288.1L320.4,289.1L321.1,289.3L320.9,288.7L320.5,288.2L320.8,287.8L321.3,287.6L322.9,287.8L323.7,288.2L324.6,289L325.9,289.1L326.9,289L327.5,289.5L328.5,289.4L329,290.1L330.5,291.1L330.8,291.8L332.1,292.1L333.3,292.5L334.5,292.6L335.7,292.5L335.8,293.4L336.7,293.6L337.9,293.4L338.8,294.4L341.1,295.2L342.8,296.4L343.8,296.2L345,296.5L346.4,299.1L346.6,300.9L347.2,300.7L347.7,299.9L348.4,298.3L349.7,297.9L350.3,298.4L351.6,299.4L352.8,300.4L353.2,301L354.1,301.1L353.4,301.9L354.1,301.9L354.9,301.3L355.7,302.5L356.2,303.7L356.3,305L355.8,305.8L355.4,306.3L354.8,307.2L354.3,307.3L353.6,307.6L354.3,308.3L354.8,309L355.8,307.2L356.5,306.7L357.6,306.4L358.1,307.7L358.2,308.9L356.5,309.4L356.5,310.3L356,310.8L355.7,311.4L355.4,312.7L355.1,313.7L354.1,318.4L354.1,319.2L355.3,318.3L357.6,316L358.3,313.5L359.1,311L360.1,310.2L360.7,310.2L361.6,310.4L361.7,311.3L361.5,311.7L360.6,313L360.2,313.6L360.6,314.3L362.8,312.3L363.7,311.6L364.6,311.7L366.2,310.7L369.6,310.6L369.8,309.5L370.5,309L372.3,309.1L375.9,310.1L377.2,310.9L379.1,311.6L380.1,312.5L384.4,314.1L387.4,314.3L388.9,313.5L390.8,314.3L391.8,315.2L393.8,315.6L395.7,315.9L397.3,315.3L401.2,315L402,314.9L402,482ZM294,282.7L295.1,282.8L296.8,282.5L297.8,282L299.1,281.8L300.2,281.9L304.3,282.5L306.7,282.7L307.6,282.9L308.5,283.2L309.1,283.5L309.3,284.2L308.7,285.3L308.2,286.4L307.8,288L307.5,288.4L307,288.3L307.3,289.7L307.2,290.3L306.9,290.8L306.3,292L305.3,293.5L305,293.8L304.3,294.3L303.6,294.9L303.8,295.5L304.1,296.2L303.7,296.9L302.5,298L301.8,298.3L301.2,298.5L300.6,298.3L299.6,297.2L299.5,298.1L299.2,299L298.8,299.5L297.5,299.4L296.7,298.9L295.5,298.4L295.3,299.9L294.5,300.9L293.7,301.2L292.5,301.4L291.8,301.8L290.5,301.5L289.3,300.8L288.6,300.8L288.1,301.3L285.3,301.4L284,302L283.2,301.8L282.1,300.7L281.9,300L281.2,298.5L280.6,296.7L280.1,295.1L280.5,293.7L281.2,293.8L282.1,293.9L282.3,293.9L282.3,293.4L282.2,293L280.8,293.1L279.8,292.3L279.7,291L279.9,288.4L280,287.8L280.6,287L280.8,286.4L280.7,285.7L280.9,284.4L281.5,283.3L283.8,281.8L286.4,281.3ZM356.8,315.9L355.6,317.1L356,315.7L355.8,314.8L355.9,314L356.8,313.3L357,313.2L356.9,314.1L357,314.3ZM352.1,296.1L351.3,296.6L351.1,296.9L350.4,296.7L350.5,296.4L350.7,296.4L350.9,295.4L352,295.5ZM292.6,276.6L293.1,277.3L291.4,279.8L290.5,280.2L289.4,280.3L288,279.5L285.9,279.6L285.3,279.4L285.2,278.3L286.1,277.1L287.9,277.1L290.9,276.2ZM285.8,256.2L284.6,256.7L283.8,256.5L283.2,255L283.4,253.8L284.3,253.4L285,253.5L285.3,253.7L285.9,255.7ZM281.4,281.5L278.1,283.9L277,283.1L276.7,282.7L276.9,282.2L276.9,282L277.2,281.2L279.1,280.5L280.1,280.4L281.2,280.6L281.5,281.2ZM296.2,281.3L293,281.7L291.5,281L291.9,280.5L293,279.7L294.3,279.1L295.5,278.9L296.8,279.2L297.1,279.9L297,280.6ZM284.2,278.2L284,280L281.8,279.2L281.9,277.4L283,276.9L283.9,275.9L284.2,274.7L284.2,273.1L284.6,272.8L284.9,272.7L285.1,272.8L285.3,275.2L285.3,276.7ZM287.5,275.1L286.2,275.5L286,275.1L286,273.6L286.4,272.7L288,272.5L288.2,272.2L288.7,272.1L289,272.6L289,273.5ZM267,297.5L265.7,297.7L267.4,294.6L268.9,293.2L268.9,290.4L270.5,287.9L272,286.8L274.1,286.5L275.2,288.1L273.8,292.4L273.4,292.4L271.5,294.7L269.4,296.3ZM58.09,482L57.82,481.8L56.19,481.2L55.13,481.3L54.47,480.8L54.11,480.3L51.95,475.1L51.6,473.9L51.64,473.4L53.05,470.8L53.63,470L54.64,468.7L54.47,468.2L52.7,466.2L52.17,465.3L52.17,464.3L52.35,463.1L53.36,462.5L53.67,461.5L53.89,460.6L54.33,460.3L54.77,459.8L55.3,459L56.1,458.3L56.58,457.8L56.71,456.4L57.11,456L58.21,455.6L58.34,455.2L58.08,454.3L57.51,453.3L57.07,452.8L56.49,450.3L55.83,449.1L56.1,448.6L56.54,448L56.98,446.7L57.11,445.3L56.98,440L57.02,439L57.55,438.2L58.39,437.4L59.05,437.1L59.71,436.6L59.67,435.6L60.11,435L60.59,434.2L58.96,431.3L57.55,428.8L56.19,426.4L54.64,423.6L53.58,421.8L52.3,419.5L51.2,417.5L49.66,414.8L51.12,414.8L53.98,414.9L56.76,415.4L58.61,415.6L59.4,416L59.58,416.7L60.11,417L60.68,416.9L61.39,416.8L62.89,416.1L64.12,415.7L65.18,415.1L65.75,414.6L67.07,412.8L68.13,411.7L69.1,411.4L71.04,411.2L71.61,411.5L72.41,411.5L73.07,410.4L74.13,409.3L76.16,407.8L77.17,407.4L77.83,406.9L78.93,406.9L79.9,406.3L84.58,402.7L86.47,401.7L87.62,401.6L88.59,401.4L90.26,400.8L94.41,400.3L97.1,400.1L97.93,400.6L98.9,400.5L99.7,399.6L100.4,399.4L100.9,399.4L101.6,400.4L101.9,401.4L101.7,402.2L101.8,403.3L102.1,404.8L101.9,406.1L100.9,407.9L100.4,408.6L100.3,409.3L100.4,410.3L100.8,411.9L101.6,414.1L101.8,415.7L101.2,416.8L100.9,417.7L101,418.5L101.2,419.1L101.5,419.4L101.8,420L101.8,420.9L102.3,421.8L103.2,422.7L103.6,423.5L103.4,424.3L103.5,424.8L103.8,425L104,424.8L104.3,424.6L104.6,424.7L105.3,425.8L105.4,426L105.7,426.9L105.8,427.6L106.8,428L107.8,428.3L108.4,428.7L109.5,429.8L110.5,430.5L111.7,431.1L112.1,432L112.8,433.4L114.9,434L117.2,434.3L118.7,434.6L120.6,433.8L121.8,433.9L123.1,434.4L123.6,434.8L124.5,435.5L126,436.5L127.2,436.8L128,436.3L128.8,436.1L129.4,436.3L129.7,437.3L130,438L130.7,438.6L132.2,439.9L133.1,440.4L134.1,440.4L136,441.3L138.1,442.1L139.2,442.3L140.3,442.2L141.1,442.5L141.3,443.5L143.2,445.6L144,446.4L145.1,447.1L147.7,447.1L148.5,447.3L149.6,447.1L153.1,446.8L153.8,446.6L155.8,447.5L158.1,448.9L159.7,449.9L160.8,450.4L161.3,451.3L161.8,452.3L162,453.3L161.7,454.3L161.3,454.7L161.2,455.4L161.3,456.4L162.1,457.3L162.4,458.4L162.8,460.3L163.3,460.9L163.6,466.8L162,466.9L159.8,467L160.5,467.5L162.3,469.8L164,471.8L164.3,475.1L164.5,477.2L164.7,480.1L164.8,481.9L168.5,482L58.09,482ZM173.2,118.3L172.8,118.5L171.7,118L171.3,117.4L171.3,115.5L172,115.3L173.2,116.9L174,117.4ZM7.425,14.25L7.073,15.21L5.75,17.06L2.885,17.51L-0.334,17.6L-0.554,17.1L-0.642,16.65L-0.422,15.96L-0.422,15.69L-0.554,15.42L0.592,15.12L1.386,14.28L2.576,14.12L4.075,14.73L4.913,14.76L6.103,14.09L7.073,12.66L7.646,12.84ZM-5.183,-5.964L-4.919,-5.733L-5.668,-5.204L-7.432,-5.849L-7.828,-5.803L-8.181,-6.517L-8.313,-7.024L-8.225,-7.509L-7.167,-7.14L-6.638,-6.448ZM-9.724,-23.92L-10.69,-22.45L-11.22,-22.59L-10.91,-24.41L-10.25,-24.68L-9.989,-24.68ZM-6.991,0.777L-7.872,1.19L-7.652,0.501L-6.021,-0.671L-5.095,-1.682L-4.61,-2.05L-4.39,-2.326L-3.684,-2.717L-3.332,-3.361L-3.42,-3.914L-4.169,-4.789L-4.169,-5.411L-3.905,-5.872L-2.626,-6.079L-2.979,-5.411L-2.45,-3.522L-4.169,-1.153L-5.624,-0.441ZM-35.54,-42L-34.9,-41.52L-33.18,-40.95L-31.33,-39.02L-30.53,-38.34L-30.36,-37.73L-30.66,-34.92L-31.11,-33.21L-31.02,-31.73L-31.46,-32.16L-31.9,-33.14L-32.65,-33.7L-32.87,-34L-31.59,-34.05L-31.46,-35.6L-30.84,-36.79L-30.93,-38.06L-32.43,-39.45L-33.49,-40.69L-35.07,-41.07L-36.21,-42L-35.54,-42ZM-24.85,-15.65L-25.38,-15.55L-26.3,-15.93L-28.42,-17.55L-29.43,-17.69L-29.08,-18.59L-28.33,-18.27L-26.61,-16.88L-25.95,-16.18ZM-14.75,-8.247L-14.84,-7.901L-16.38,-10.56L-18.32,-11.2L-19.47,-11.85L-19.2,-12.2L-18.45,-12.36L-18.32,-13.22L-18.63,-14.12L-19.69,-15.97L-20.26,-17.22L-20.52,-17.5L-20.57,-18.55L-19.38,-16.92L-18.85,-15.48L-18.06,-14.07L-17.48,-11.64L-15.94,-10.81L-14.84,-9.632ZM-20.48,-25.69L-20.39,-24.99L-21.23,-25.13L-22.46,-24.87L-22.86,-24.87L-22.6,-25.34L-21.76,-25.97L-21.71,-26.57L-22.77,-27.44L-23.96,-29.58L-24.54,-30.1L-24.8,-30.92L-25.82,-31.8L-25.59,-32.27L-25.42,-32.37L-24.71,-32.16L-23.17,-29.02L-23.08,-28.74ZM7.293,-2.073L8.043,-1.866L8.439,-1.889L9.85,-1.498L10.69,-0.946L10.86,-0.717L10.42,-0.234L9.145,-1.153L7.999,-1.268L6.411,-1.245L5.794,-1.429L6.235,-2.418ZM8.792,10.12L7.161,10.76L7.029,10.01L7.822,9.391ZM145.9,68.11L145.5,68.62L144.2,68.42L143.9,67.78L143.9,67.33L144.7,66.42L145.7,66.82L146.1,67.24L146.3,67.33L146.3,67.71L146.2,67.98ZM145.6,61.23L145.4,61.56L144.4,60.94L144.1,59.8L144.1,59.56L144.3,59.42L144.7,59.65L145.2,59.73L145.5,60.11ZM128.7,54.87L130.1,54.87L130.1,55.18L129.9,55.51L129.1,55.22L128.7,54.93Z" fill="#D8E2E7" stroke="#3F464B" stroke-width="0.85" vector-effect="non-scaling-stroke"/><path d="M157.9,216.1L155.3,213.2L152.7,210.3L150.1,207.4L150,207L151,205.7L152,204.7L152.8,204.1L153.1,203.7L152.9,201.5L152.9,200.8L152.5,200L152.2,199L152.6,198.3L153,197.7L153.4,197.5L154.6,197.3L155.5,197.3L155.8,197L156.3,196.6L156.9,196.6L158.2,196.8L158.8,196.4L159.8,195.7L162.1,194.6L162.7,193.9L163,192.8L163,192.3L162.7,192.1L162.2,191.9L161.3,191.9L160.6,192.2L159.8,192L159.2,191.4L159.2,190.8L159.6,190L159.3,189.5L158.2,187.8L158.2,187.3L159,186.6L159.5,186L160.1,184.4L160.7,183.9L162.3,183.7L162.7,183.4L163.6,182.6L164.8,181.7L166.6,180.9L167.1,179.6L167.4,179.2L168.8,178.5L169.1,178.2L169,177.8L166.8,174.8L167.2,175L169,177L170,177.4L170.1,177.4L170.1,176.9L171.1,177.1L173.4,178.5L176.8,180.7L181.5,184.9L182.9,186.5L183.8,187.2L185.2,189.1L185.6,189.9L185.6,193.5L184.3,195.9L184,197.7L183.9,200.1L183.2,201.5L184.2,200.7L184.5,198.6L185.3,197.2L186.4,195.8L187.8,195.5L189.4,196.1L190.6,196.2L191.7,196.6L194,198.9L196.3,200.7L197.1,202.2L199.5,202.9L200.9,204.1L201.4,205.1L201.7,207.7L201.2,211.6L201.3,211.8L200.7,212.6L200.6,213.1L200.1,214L199.8,214.5L200.3,215.6L200.8,215.6L201.1,215.7L201.2,216L201.1,216.2L200.9,216.4L200.4,216.7L199.9,217.3L199.9,218L199.6,218.4L198.7,218.5L196.7,218.5L195.8,218.6L195,218.7L194.5,219.1L193.9,219.5L193.4,219.5L192.9,220.1L192.5,220.8L192.6,221.3L193.1,222L193.3,222.7L193,223.8L192.6,224.6L192.4,225.3L192.1,226.6L191.4,228L190.8,228.8L190.8,229.6L191.1,230.8L192.6,232.6L193.1,233.5L193.5,234.9L194.9,235.9L195.8,236.8L195.7,237.9L195.8,238.3L196.3,238.6L197,238.8L197.7,238.8L198.4,238.7L198.5,238.5L200,238.5L200.2,238.8L200.3,240.5L200.3,241.1L200.7,241.4L200.9,241.8L200.9,242.2L201,243.1L201.2,243.6L201.1,244.6L201.3,244.9L201.7,245.2L202.2,245.9L202.4,246L202.5,246.2L203,247.2L203.2,247.5L203.3,247.6L203.4,247.9L203.7,248.9L204,249.1L204.4,249.8L204.5,250.6L205.1,251.4L205.7,252L205.9,252.6L206.7,254L207.3,254.9L208.3,255.2L209.1,255.3L209.6,255.7L210,256.1L209.5,256.3L209.1,256.5L208.4,256.4L207.5,256.5L206.6,256.7L205.7,256.9L204.1,256.4L203.6,256.4L203.3,256.2L202.6,255.3L202.2,255.2L201.4,255.6L200.3,255.9L199.8,255.8L199.2,256.1L198.7,256.5L197.6,258.2L197,258.8L196.4,259L195.2,259L194,259.1L193,259.5L192.1,259.7L191.7,259.7L191.5,260.6L191.3,261L191,261.3L190.3,261.4L189.7,261.3L189.3,260.9L188.7,260.8L188,260.6L187.6,260.4L187.3,260.5L187,260.8L186.8,261.2L186.6,261.8L185.7,261.9L185.3,262.3L185.5,263.4L185.4,263.8L185.2,264.2L184,264.2L183.1,264.2L182.5,264.6L181.8,265.1L181.4,265.2L180.9,265.2L180.2,264.6L179.6,263.9L178,263.4L176.4,263.1L175.3,262L175.1,261.4L174.6,261.2L173.4,259.9L172.7,259.1L171.9,258.9L171.1,258.5L171.1,257.9L171,257.3L170.7,257.1L170.1,256.9L170,256.6L170,255.9L170.1,253.9L170,252L168.8,251.4L168.3,250.9L167.5,248.2L167.1,246.9L167,246L167.3,243.3L167.6,242.1L168.5,239.7L169,238.9L169.1,238.3L169,237.5L168.7,235.9L170.3,235L170.9,234.6L171,233.9L171.8,233.1L172.2,232.3L172.5,231.7L172.4,231.4L172,231.2L171.6,230.6L170.8,228.9L170.5,228.6L170.2,228.1L170.3,227.4L170.6,226.5L170.6,226.2L170.1,225.8L169,225L168.1,225L167.4,224.7L166.4,224.7L165.6,224.6L165.2,224.3L165.3,223.9L165.4,223.5L166.1,222.7L166.6,221.8L166.7,220.9L166.8,219.7L167,218.7L167.1,217.6L166,216.8L165.7,216.2L165.3,215.7L164.8,215.7L164,215.4L162.9,216.1L161.9,216L161.3,216.3L159.9,216.2L159,215.9Z" fill="#8B341D" stroke="#2C160F" stroke-width="1.1" vector-effect="non-scaling-stroke"/></svg>