<svg xmlns="http://www.w3.org/2000/svg" viewBox="0 0 360 440" width="360" height="440" role="img" aria-label="Regional map with Ireland highlighted"><rect width="100%" height="100%" fill="#7FA6D6"/><path d="M360.6,371.1L360.5,371.1L360.5,371.1L360.5,371L360.6,371ZM234.2,279.3L234.2,280L233.8,280.1L233.5,279.9L232.9,279.9L232.2,280.1L232.4,278.8L233.6,279ZM229.8,275.8L229.5,276.7L228.7,276.4L228.6,276.1L229.6,275.6L229.7,275.6ZM213.2,209.3L211.5,211.2L210.7,210.9L210.1,211L209.9,211L210.3,210.3L210.7,208.7L211.5,208.1L212.4,206.4L213.1,206L213.4,206L213.5,206.2L213.9,208L213.4,208.7ZM228.5,246.5L227.8,247.1L225.7,247.7L224.9,248.3L223.3,249.6L223,249.8L220.6,249.4L218.9,247.7L217.8,246.9L217.3,246.8L216.8,247L215.8,247.3L214.8,247.2L215.3,246.4L216,245.9L214.4,245.6L213.9,245.4L213.4,244.8L212.2,244.7L211.6,244.9L210.5,245.6L208.9,246.4L207,245.3L206.6,244.8L206.6,243.9L206.3,243.1L205.8,242.9L206.5,241.9L207.3,241.2L209.1,240.5L211.9,239L213.5,238.3L214.9,237.2L215.5,236.5L216,235.5L216.4,234.4L217,233.4L216.4,233.2L216.1,232.4L216.2,231.7L216.5,231.1L216.2,230.2L215.8,229.4L215.8,228.7L215.9,228L214.8,228L213.7,228.3L212.7,228.8L211.7,229.5L210.9,229.6L210.9,229L211.2,228.4L212.2,227.4L213.3,226.6L213.7,226L213.9,225.2L214.5,224.7L215.9,223.6L218.5,222.4L218.9,222.3L219.9,222.4L220.9,222.3L221.8,221.8L222.7,221.7L224.7,223L224.1,221L225,220.6L226.3,222.3L226.8,222.5L227.8,222.3L227.4,222L226.9,221.9L226.3,221.7L225.8,221.1L225,219.3L225.1,218.2L225.6,217.1L226.2,216L225.7,215.8L225.3,215.4L225.2,214.4L225.3,213.5L226.4,212.7L226.8,211.4L226.9,210L226.7,209.4L225.6,209.5L225.1,209.8L224.6,210.2L224.1,210.2L222.8,208.6L222,207.5L220.6,205.1L220.4,203.6L221.5,200.5L223.2,198.4L225.2,197.7L224.9,197.6L221.8,197.6L220.7,197.8L219.8,198.6L219.3,198.9L218.7,199L218.2,199.4L217.7,200L217.2,200.4L216.1,200.2L215.6,200.4L215.3,200L215,199.5L214.6,199.4L214.2,199.5L213.2,200.2L212.3,200.7L211.2,200.2L209.7,199.4L209.4,199.7L209,200.5L208.8,201.7L207.8,200.6L206.9,199.2L206.6,198.3L206.6,197.2L207,196.8L207.6,197.2L208.4,194.7L209.9,191.5L210.5,190.6L210.9,189.3L210.8,188.5L210.5,187.8L209,186.3L209,185L209.2,183.5L209.6,182.7L209.8,182.5L211.7,182.5L210.9,182.1L209.4,180.8L209.5,180.3L209.8,179.1L209.7,179.2L209.3,179.8L208.7,181.1L208.3,181.5L207.3,181.8L207.1,182.4L206.9,182.6L206.4,182.7L206.2,183.3L206.1,183.3L205.9,182.7L205.9,181.6L206.1,180.5L206.5,179.7L208.1,177.9L207.3,178.5L205.6,180.2L204.7,181.3L204.5,181.6L204.4,182L204.4,182.3L204.8,184.3L204.7,185.2L203.2,191L202.9,191.6L202.7,191.9L202.4,192L201.7,191.9L201.3,191.4L201.3,191L201.5,190.2L202.1,187.4L202.4,186.6L202.8,185.9L203.6,184.6L203.6,184.6L203,184.8L202.8,184.7L202.6,184.5L202.7,180.7L203.2,179.5L203.4,177.6L203.8,176.1L204.3,174.9L204.7,173.5L205.2,172.8L205.3,171.8L205.9,170.7L206.4,169.6L206.2,169.7L203.1,172.6L202.4,173.2L201.3,173.1L200.5,172.7L199.9,172L199.6,170.7L198.8,170.7L198.2,170.4L198.2,170.2L199,169.5L200.4,169.2L201.7,168.1L200.5,167.3L200.6,167L201.6,166.4L202.9,164.1L203.2,162L202.5,161L202.3,160.3L201.1,159.6L200.9,158.7L201.1,158.2L201.4,157.7L202,157.3L203,156.9L202.1,156.5L201.8,156L201.6,155.3L201.6,154.9L202,153.1L202.3,152.4L202.8,151.4L205,151.5L205.3,151L205.5,151L206.7,151.4L206.5,151L204.6,148.7L204.5,148.3L205,147.1L205,146.5L205,145.9L205.1,145.5L205.7,145.3L207.5,145.3L208,145.1L207.8,144.5L207.4,143.7L207.3,143.1L207.4,142.5L207.4,141.3L207.5,140.8L207.9,140L208.3,139.8L208.7,139.6L209.8,139.9L210.1,140.2L210.6,141L210.9,140.9L212.1,140.1L212.5,140L213,140.9L215.2,140.2L218,139.8L219.8,139.4L221.6,139.2L223.3,138.6L225.1,138.9L225.1,139.2L225.1,139.6L224.6,140.9L224.7,142.2L224.6,142.7L224.4,143.2L223.7,144.1L222,145.5L218.8,148.6L216.9,150.1L216.6,150.9L216.5,151.9L217.6,152.1L218.1,152.4L217.8,153L216.1,154.7L215.6,156.4L216.9,156.3L218,156L220.1,155L222,154.2L223,154.2L224.8,154.8L225.2,154.8L226,154.5L226.8,154.5L232.2,154.7L233.6,154.3L234.7,154.8L235.5,155.8L236.3,157.7L236.2,158.1L235.8,158.9L234.9,160L234.1,161.5L233.9,162.4L233.8,163.3L233.5,164.1L232,167.9L230.6,170L229.9,171.5L229.1,172.7L228.4,173.5L227.5,174L225.1,174.5L224.5,174.9L223.7,175.5L222.8,175.9L223.8,175.8L224.8,175.4L226.6,175.3L228.6,176.6L228.4,177.6L227.6,178.4L225.7,178.5L224,180.3L223.2,180.9L222.4,181.1L221.4,181L219.5,180.6L218.7,180.1L219.4,180.9L220.2,181.3L225.1,182.3L225.4,182.2L227,181.2L229.1,181.2L233,183.1L234.2,184.6L235.8,186.7L236.7,187.5L237.3,188.3L237.7,189.4L238.5,193L239.3,196.6L240.5,200.5L241,201.5L241.7,202.2L245.2,204L245.9,204.5L247.3,206.2L248.6,207.9L249.8,209.2L251.1,210.3L250.4,210.9L250,211.8L250.3,212.9L250.8,214.1L251.9,215.9L252.8,217.9L252.5,217.6L252.1,217.4L251.6,217.4L251.2,217.4L250.3,216.7L249.4,216L247.8,216.3L246.8,216.2L246,216.2L247.6,216.6L249.2,216.6L252.9,219.9L254.2,221.9L254.9,224.4L254.4,225.6L253.6,226.3L252.9,227.2L252.2,228.2L254.2,229.6L254.7,229.5L255.2,229.3L255.6,228.8L256.3,227.7L256.7,227.3L258,227.1L259,227.2L260.1,227.4L261,227.4L262.9,227.9L263.9,228.3L266.3,230.3L266.8,231.4L267.1,232.9L267.1,234.4L266.7,235.9L266.2,237.2L265.9,238.8L265.7,239.5L265.4,239.9L264.2,241.2L263.3,241.7L263,241.5L262.6,241.5L262.6,241.9L262.9,242.5L263,243.3L262.2,243.9L261.4,244.2L260.2,243.9L258.4,245L259.7,245.5L259.9,246.1L259.6,247.2L258.8,247.7L257.9,247.9L257,247.9L256.2,248.2L255.5,248.7L256.4,248.4L257,248.7L257.5,249.5L257.8,249.8L259.6,250.2L260.7,250.2L262.8,249.9L263.8,250L264.2,250.1L264.2,250.8L264,252.7L263.7,253L260.9,254.5L260.3,255.6L260.2,256.2L258.6,256.1L257.8,256.8L256.4,257.2L255.4,257.7L254.4,258.3L253.6,258.5L250,257.8L247.8,257.8L244.9,258.5L244.2,258.3L243.1,257.8L241.9,257.3L240.6,257.2L239.4,256.6L240.1,257.7L238.5,258.7L237.8,258.9L237,258.9L235.5,259.1L234,259L234.2,259.7L234.6,260.3L234.3,260.6L234,260.7L231.3,260.2L230.8,260.3L230.5,260.7L229.5,260.5L228.5,259.8L227.5,259.3L226.4,259L225.6,259.1L222,260.3L221.3,261.4L221,263.1L220.5,264.5L219.6,265.7L218.6,265.8L217.7,265L215.9,264.2L215.3,263.6L215.1,263.6L214.9,263.8L214.2,264L213.5,264L212.4,264.3L210.4,265L209.7,265.4L208,266.8L207.6,267.1L207,268.4L206.1,268.6L205.3,267.8L204.3,267.5L203.3,267.8L202.6,268.2L202.4,267.9L202.3,267.2L203.1,266.3L205.1,265.6L206.8,263.8L207.7,262.8L208,262.2L208.5,261.8L209,261.6L209.3,261L211.7,258.3L211.9,257.7L212.1,256.6L212.2,255.5L214.2,254.8L215.2,252.6L215.4,252.4L218.2,252L220.2,252L222.3,252.4L223.3,252.5L224.4,252.3L225.2,251.7L226.6,249.5L227.4,248.6L228.3,247.7L229.1,246.7L230.5,244.8L229.6,245.5ZM215.1,222.1L215.5,222.4L216.4,222.3L216.1,222.9L215.1,223.6L214.4,224.3L213.6,224.8L213.2,224.2L212.7,224.2L212,223L211.9,221.1L212.8,220.7L214.1,220.7ZM229.5,128.8L228.5,128.8L229,127.8L229.6,127.5L230.8,127.6L230.6,128.1ZM242.7,106.4L242.5,106.6L241.6,104.8L242.2,102.7L243,102.8L243.1,103.3L243.1,103.8L242.7,103.9L242.6,104.1L242.7,105L242.7,106.1ZM240.4,106L240.5,107.2L241,106.9L241.7,108.1L242,108.1L242.6,107.6L242.5,108.7L241.9,111.8L241.7,112.4L241.6,113.3L241.5,113.5L241.3,115.3L240.9,116L240.6,117.4L240.4,117.6L239.9,117L240.4,114.8L240.6,113.5L240.5,112.8L240.2,112.2L239.5,112.1L238.8,112.4L238.7,112.1L238.7,111.6L238.5,111.4L237.7,111.4L237.5,111.3L237.3,110.9L237.2,110.5L238,110.2L238.7,110.3L239.8,109.6L239.1,107.2L238.2,107L238.1,106.7L238.2,106.3L238.7,106.1L239.4,104.9L239.9,104.7L240.4,104.7ZM245,101.1L245,101.3L244.6,102.8L244.6,103.4L243.8,103.3L243.7,103.2L243.6,102.3L243.7,101.4L243.8,101.1L244,101L244.2,101.2L244.6,100.7L244.8,100.7ZM224.1,136.2L223.6,136.4L223.1,136.4L222.3,135.4L222.1,134.7L222.1,134.2L222.4,134.1L223.2,134.3L223.6,135.1L223.6,135.7L223.7,135.9L224.2,136.1ZM226.2,137.1L226.1,137.1L225.8,136.8L225.2,135.7L226.1,135.5L226.5,135.6L226.3,136.1ZM225.1,132.2L225,132.6L225.6,132.6L226.6,133L227.2,133L227.6,133.5L227.4,134.3L227.1,134.5L226.8,134.6L225.6,133.7L224.1,134.1L223.8,134L223.6,133.8L223.5,133.5L223.5,132.9L223.4,132.7L222.9,133.3L222.7,133.2L222.5,132.9L222.5,132.4L222.5,131.6L222.8,130.5L223.4,130.2L224.2,130.4L225.1,131L225.4,131.4L225.4,131.7ZM227.9,129.5L227.2,130L226.8,129.6L226.8,128.5L225.9,128L225.4,127.7L225.1,127.2L225.2,127L225.8,126.8L226.8,127.8L227.2,128.6L227.9,128.9L228,129ZM194,172.3L193.5,172.4L193.5,172.2L194.4,171.1L194.9,171L195.1,171.1L194.7,171.7ZM207.1,190.1L206,190.1L205.7,190L205.2,189.6L204.7,187.5L204.8,186.8L205.1,186.4L205.3,186.1L205.9,186L206.4,186.4L206.7,186.8L207.1,188.2L207.2,189.4ZM201.3,176.2L197.8,177L196.6,177L196.5,176.5L196.7,176.2L197.7,176L198.1,173.9L196.6,172.9L196.5,172.6L196.7,172.1L196.8,171.9L197.7,171.4L198.1,171.3L198.4,171.4L199.1,172L199.8,173.1L200.7,173.3L201.4,173.9ZM198.2,182.6L198.5,184.6L198.8,185.9L198.8,186.3L198.5,186.9L197.1,187.7L196.7,187.7L196.7,187.5L197,186.7L196.7,185.8L196.8,185.1L196.7,185L196.4,185.1L195.4,186.2L195,186.3L195,186.1L195.2,185.2L195.3,184.6L195.4,184.2L195.7,183.8L196.1,183.6L196.3,183.5L196.6,183.8L197.4,183.1ZM199.6,184.5L199.4,184.6L199,184.6L198.8,184.3L198.7,183.9L198.7,183.2L199,182.7L200.1,182L199.6,181.7L199.6,181.5L199.9,180.9L201.1,179.9L201.4,179.7L201.7,179.7L201.1,181.5ZM197.6,143.4L196.5,146.3L196.1,146.4L195.6,147.1L194.5,147.9L195.5,147.9L195.8,148.2L195.8,148.7L195.6,149.1L194.3,150.4L193.3,150.9L192.4,152.3L191.9,152.3L191.4,153.2L191,153.5L190.7,153.5L190.5,153.4L189.9,152.5L191,151.7L191.1,151.2L191.8,150.7L191.8,150.6L190.5,149.9L190.1,149.4L190.1,149.2L190.7,148.6L190.4,148.5L190.2,148.3L189.9,148.1L189.8,147.9L189.8,147.2L189.8,146.4L190.2,146.1L190.3,145.8L190.5,145.7L191,145.8L191.6,146.4L192.2,146.2L193,146.3L193,146.2L192.4,144.7L192.5,144.5L192.8,144.1L194.6,143.1L196.7,141.4L197.3,141.1L197.4,141.3L197.6,142.2ZM196.9,166.3L196.6,166.5L196.3,166.5L196,166.2L195.6,165.4L196.5,164.9L196.9,165.2L197,165.6L197,166ZM198.1,157.5L198,158.3L197.9,159.1L198.1,160L198.1,160.6L198.5,160.9L198.7,161.2L200.4,161.5L201.9,161.4L202.2,161.7L202.2,162.1L202,162.5L201.1,163.4L200.1,164.7L199.8,165L199.4,165L199.2,164.9L199,162.5L197.9,162.8L197,162.8L196.5,162.5L196.2,161.9L195.5,160.5L193.4,159.9L192.8,159.1L192.7,158.6L192.8,158.3L193.2,157.7L193.7,157.9L194,157.8L194.2,157.5L194.2,157.3L193.9,156.8L193.9,156.6L196,156L196.2,154.9L196.7,154.8L197.2,155.2L197.9,156.2ZM188.8,154.7L189.8,155.6L189,157.1L187.8,157.1L186.1,156L186.1,155.8L186.2,155.4L186.5,155.1L186.7,155.1L187.1,155.3L187.7,155L188.2,155.1ZM188.4,163.9L188,164L187.6,163.9L187.2,163.6L187,162.6L186.9,162L187,160.9L187,159.6L188,159.5L188.2,159.7L188.4,163.7ZM186.9,166.3L186.2,166.5L185.9,166.4L185.8,166.2L186,165.6L186.6,165.4L187,165.7L187.1,166ZM197.4,210.7L196.7,210.7L196.2,210.9L195.8,211.2L195.5,211.1L194.5,211.2L193.6,211.2L193.5,210.8L193.7,209.6L193.5,209.3L192.6,209.2L192.3,208.9L191.8,208.1L191.7,207.7L191.6,207.2L191.1,206.5L190.5,206L190.1,206L189.4,206.8L188.8,207.6L189,208L189.2,208.5L188.9,208.9L187.9,209.8L187.7,210.1L187.5,210.3L187,210L185.8,210.1L185.3,209.9L184.7,209.3L183.1,208.8L182.8,207.8L182.6,207.7L180.8,205.9L180.6,205.3L180.8,204.9L181.4,204.4L183.7,203.5L184,203.2L184.1,202.8L183.4,202.5L182.8,202.1L182.6,201.8L182.6,201.6L183,201.3L183.6,201.3L184.1,201.4L184.5,201.1L185.3,200.9L185.8,200.5L186.2,199.7L186.6,198.9L186.7,198.5L187.1,196.9L187.3,196.6L188.7,195.6L189,196.2L189.7,196.3L190.3,195.8L191.1,194.2L191.6,194.1L192.1,194.2L193.2,194.1L195.2,193.3L196.1,193.3L197.3,193.7L198.2,193.7L199,194.8L199.5,196.6L200.5,198.3L201.8,199.8L201.8,200.7L201.4,201.2L200.4,201.8L200.4,202.5L201,202.1L201.6,202L203,202.1L203.5,202.8L203.8,203.8L204,204.6L203.8,205.5L203.5,205.2L203.1,204.4L202.7,204L202.2,203.8L202.4,204.9L202.3,206.4L202.5,206.5L203.2,206.5L202.8,208L201.9,208.4L200.8,208.6L200.6,209.1L200.4,209.8L199.9,210.7L199.2,211.3L198.3,211.2ZM242.5,259.5L241.7,260L241.5,260.5L241.3,260.7L240.9,260.9L240.4,260.9L238.6,259.8L238.1,259.8L238.5,259.3L239.7,258.9L240.3,258.3L241.8,258.9ZM331.6,482L331.4,481.3L330.9,479L330.7,478.6L329.1,477.5L327.7,476.5L326.3,475.4L324.7,474.1L324.4,472.5L323.6,470.1L322.7,468.8L322.4,468.4L320.7,467.6L319.7,466.9L319.4,466.6L319.2,465.6L318.5,463.6L317.7,461.8L317.4,460.6L317.4,459.1L317.5,458L317.9,457.5L319.6,456.2L320.4,454.5L321.3,453.9L322.2,453.4L322.8,452.9L323.4,452L323.9,451.1L324,450.1L324.2,448.5L324.5,447.3L325.2,446.1L324.9,445.1L324.5,443.9L324.6,442L324.5,441.2L324.2,440.5L323.9,439.6L323.9,438.9L324.2,437L324.4,435.5L324.8,433.5L324.7,433L324.4,432.6L323.6,432.1L323.6,431.9L323.8,431.6L325,430.6L325.6,429.2L326.2,428.9L327,428.5L327,427.9L326.8,427.3L329,426.6L331,424.9L331.8,424.5L336.5,422.9L337.1,423L337.8,423.2L337.6,423.8L337.4,424.3L337.8,425.1L338.3,424.6L338.2,424.3L338.2,423.8L339.2,423.8L340,423.9L341,424.4L340.9,426.3L342.2,428.1L341.8,429L342.9,429.6L343.8,428.9L344.3,427.9L346,427.4L347.6,426L348.5,425.8L348.7,427L349.1,428L348.5,428.4L347.7,429.4L346.2,432.2L344.9,433L343.8,434L343.5,434.7L343.4,435.6L343.7,437.2L344.4,438.7L345.3,439.7L346.1,440L348,441.5L348,442.3L348.3,443.4L348.4,444.7L349,445.7L347.6,447.9L346.8,449.5L345.3,451.7L343.9,453.1L341,455.2L340.3,455.9L339.8,456.6L339.6,457.4L339.7,458.3L340.6,460.5L341.9,461.7L343.2,462.4L345.5,462.1L345.4,463L345.6,464L346.5,463.9L347.1,463.8L347.6,462.8L348.8,463.5L349.3,465.5L350.3,466.1L350.4,466.4L350,466.5L349.8,466.8L350,466.9L351,467.2L351.5,467L352.4,467.4L352.4,467.4L352.4,467.7L352.1,469.7L352,470.4L352,471.6L352,473.1L352.7,474.3L352.7,474.8L352.4,475.4L351.1,476.1L349.5,477.1L348,477.9L346.5,478.9L346,479.5L345.2,480L344.6,480.5L344.5,480.9L344,481.8L343.8,482L331.6,482ZM350.4,450.9L349.1,451.6L349.4,451L350.2,450.2L350.5,450.4ZM347.6,461.8L347.4,461.8L347,462.1L346.7,462.2L346.1,461.8L345.9,461.8L345.6,461.6L345.7,460.4L345.8,460L347.3,460L348.2,460.7L348.3,460.9L348.3,461.1L347.9,461.5ZM335.1,301.8L335.3,302L336,302.5L335.8,303.5L335.1,305.1L334.7,306.3L334.7,307.3L334.8,307.8L334.9,307.8L335.6,307.8L335.9,307.8L337,308.1L337.9,308.4L338.1,308.9L338.2,309.4L339.2,310L340.4,310.4L340.8,310.3L342.3,308.7L342.9,309L343.2,309.9L343.2,310.3L342.8,311.9L342.7,312.8L343.1,313.4L343.1,313.9L343,314.3L342.4,314.3L341.6,314.1L341,313.4L340.4,313.5L340,313.7L339.8,314.3L339.6,315.1L339.7,315.6L340,315.9L340.2,316.7L340.4,317.6L340.5,318.1L340.4,318.2L340,318.4L339.6,318.3L339,317.1L338.7,316.7L338.2,316.6L337.4,316.9L336.1,317.5L335.6,317.5L335.1,317.4L334.7,316.9L334.4,315.8L334.2,315.2L334,315.2L333.2,315L332.8,315.3L332.8,316.3L332.7,317.6L332.3,318.5L331.1,320L330.7,320.6L330.5,321.1L330.5,321.5L330.7,322.2L330.9,322.8L330.7,323.2L330.1,323.4L329.7,323L329.5,322.3L328.6,321.3L329,320.5L328.9,320.3L327.4,319.9L326.7,319.3L325.8,318.2L325.6,317.7L325.6,316.2L325.6,315.8L325.5,315.6L325,315.6L324.4,316.2L323.8,316.9L322.6,317.8L322.5,318L322.9,318.9L322.8,319.2L321.9,320.6L321.7,321.1L320.5,321.9L319.9,322.2L318.2,321.6L317.7,321.5L317,322L315.9,322.4L314.2,322.8L313.5,322.5L313.2,322.2L313.1,321.8L312.6,321L312.1,320.6L311.8,320.1L311.3,319.6L311,319.2L311.4,317.8L311.1,317.3L311,316.6L311.1,316.1L310.9,316L309.3,315.7L308,315.8L307.1,316.3L306.3,317.1L306.2,317.2L306.3,317.4L306.7,318.1L306,318.8L305,319.4L304.3,319.5L304,319.4L304,318.5L304.6,318.3L305.1,317.7L305.3,317L305.3,316.5L304.8,315.8L304.9,315.5L305.2,314.7L305.4,314.1L305.7,313.5L306.8,312.6L307.9,311.7L308,310.7L308.1,309.5L308.3,309.2L309.7,308.5L310.1,308.2L310.3,307.8L311.4,306.5L312.6,305.1L312.8,304.7L313,304.4L313,304.2L312.9,304L312.3,303.9L312.1,303.5L312.7,302.7L313.5,302.3L314.2,302.3L314.5,302.5L314.5,302.7L314.8,303L315.4,303.1L316,303L316.7,302.7L317.1,302L317.3,301.5L318.4,300.9L319.1,301.2L321.1,301.3L322.6,301.1L323.5,300.7L324.6,300.7L325.4,300.9L325.5,300.9L325.7,300.9L325.9,300.7L326.7,300.5L326.7,300.3L326.7,300.1L326.6,300L325.7,300.1L325.4,300L325.3,299.7L325.6,299.1L326.2,298.6L326.8,298.5L327.2,298.6L328.1,299.5L328.4,299.6L328.5,299.4L328.7,299.3L329,299.5L329.4,300L329.5,300.1L331.6,299.9L332.1,299.9L333.6,300.8ZM396.4,177L395.9,177.8L395.5,177.7L395.2,176.7L395.2,174L395.3,172.6L397.2,167.7L398.1,167.3L399.3,164.3L399.6,162.9L400.1,161.7L400.5,160.6L400.7,160.2L401.2,160.4L401.5,160.6L400.9,161.2L401,162L401,162.4L399.4,166L399.1,168.3L398.5,168.9ZM402,86.48L401.6,87.25L401.7,88.52L401.9,89.38L401.7,90.78L402,91.19L402,92.47L402,92.47L401.9,92.67L402,93.01L402,137.3L402,137.3L401.4,137.6L400.3,138.5L397.3,138.6L394.5,138.4L393.6,138.9L394.5,139L395.1,139.4L395.9,139.2L397.7,139.5L398.6,139.7L399.8,141.3L398.9,141.8L397.4,142.2L398,144.4L398.5,145.9L397.8,146.8L397.8,150.8L397,150.9L396.6,152.5L396.9,153.4L396.8,155.3L397,156.5L397.4,157.6L397.2,158.8L395.9,161.5L395.9,162.7L396.2,163.5L396.4,164.6L395.7,166.9L395.3,168.8L394.8,170.4L393.6,172.3L393.1,173.7L391.7,178.1L391,178.9L390.2,179.6L389.3,179L388.5,178.6L387.4,178.7L385.8,179.2L383.4,178.9L381.1,179L380.5,179.5L380.8,181L380,181.3L379.1,180.8L378.4,181.3L377.8,181.9L376.5,183.3L376.1,184.2L376,185.8L376.6,187.2L377.2,188.9L375.8,190.9L374.9,191L372.6,190.5L368.3,191.7L364.5,190.7L365,189.6L365,188.8L365.2,187.6L365.3,186.3L365.3,185.5L365,184.6L364.1,183.4L361.9,179.4L361.3,177.7L360.9,177L361.2,177L362.9,177.9L363.3,177.8L363.7,177.4L363.2,176.1L362.8,175.5L362.5,174.7L363.5,174.4L364.2,174.5L364.8,173.4L364.5,171.8L363.7,171.3L363,171.1L361.8,168.6L360.4,167.2L358.1,162.1L357.2,158.5L356.4,158.8L356,157.3L355.7,155.8L355.7,154.7L354.4,154.1L354.4,153.3L354.1,149.9L352.8,149.4L351.9,147.5L351.8,143.8L350.9,143.1L350.2,143.3L350.2,142.4L350.4,141.5L350,138.1L349.8,135L349.5,134L349.3,132.9L349.4,131.9L349.7,131.4L350.6,131.2L351.4,132.1L351.4,132.1L352.1,134.2L352.8,134.5L353.6,134L354.2,132.4L354.6,130L355,127.8L354.5,125.3L354,123.2L353.9,122.6L355.3,120.8L355.7,119.3L356.2,117.9L356.7,117.4L357.4,117.3L358.2,117L359.3,116L360.2,114.8L361,113.6L361.3,111.3L361.3,110.1L361.6,109.2L361.9,107.5L361.6,105.9L360.6,103.3L359.5,99.64L359.3,97.67L359.8,97.3L360.8,96.95L362.7,96.86L362.9,96.64L363.1,95.76L363.5,94.57L364,93.68L364.3,92.45L364.4,91.31L363.4,89.6L361.9,87.85L361,87.28L359.3,85.81L358.1,84.56L358.8,79.8L359.3,76.26L359.4,75.39L359.4,74.05L357.8,68.24L357.8,66.95L358,65.8L357.8,63.77L357.7,61.97L358,61.44L358.6,60.44L358,58.86L357.9,58.73L356.8,54.79L358.6,50.89L358.3,48.85L359.4,47.34L361.4,43.94L362.5,42.01L362.8,41.7L363.7,40.84L365.4,39.83L367.3,39.34L368.1,39.34L371.4,40.04L373.9,40.56L374.3,40.04L374.8,38.93L375.5,37.36L375.5,35.62L375.3,33.06L374.9,31.51L373.1,30.49L371.2,29.11L373.6,24.71L375.2,21.63L377.3,16.99L378,15.03L378.4,14.23L379,6.991L379.5,4.925L379.8,3.853L379.8,2.741L379.6,0.882L379,-3.378L382.3,-3.904L383.3,-4.166L384.3,-4.693L386.3,-6.011L387.2,-7.181L386.7,-11.2L387.9,-12.57L390.7,-17.36L393.8,-21.96L395.3,-23.75L395.4,-24.61L395.5,-25.98L394.9,-28.17L394.2,-29.55L392.8,-32.11L393.4,-33.93L394.4,-34.29L395.7,-35L396.7,-36.56L396.9,-36.76L398.3,-42L402,-42ZM265.7,408.1L265.5,408.3L265,408.1L264.1,408.1L264.1,407.7L264.2,407.4L264.3,407L264.9,407.7L265.7,407.8ZM279.3,395.5L280.2,395.9L281,395.5L281.5,395.6L282,395.8L282.1,396.5L281.7,397.3L281.1,398.2L280.6,399L280.2,400.1L279.4,400.7L278.7,401L277.2,400.3L276.3,400.1L276,399.8L275.8,398.7L275.4,398.3L274.8,398.2L274.3,398.4L273.7,399L273.3,398.4L272.8,398.3L272.5,398L272.5,397.5L276.2,394.8L277.2,394.1L279.4,393.4L279.8,393.5L279.5,394L279.5,394.1L279.8,394.3L279.7,394.7L279.4,395ZM289.3,394.9L289.2,395L286.5,393.7L285.6,393.6L285.4,393.4L285.4,392.7L285.5,392.4L287.3,392.2L288.7,392.7L289.5,394L289.6,394.3ZM264.4,405.3L264.1,406L262.8,405.8L262.5,405.5L262.8,404.7L263.2,404.6L263.2,404.1L263.6,403.5L265.5,403.1L265.9,403.5L266,404L264.9,405.2ZM236.1,353.2L236.1,353.6L236.5,354.2L236.8,354.4L237.6,354.7L238.2,354.7L238.9,354.9L239.5,355.2L239.5,355.7L239.3,356.3L239,356.8L238.8,357.2L239,357.4L239.3,357.6L239.6,357.7L239.8,357.6L240,357.3L240.3,356.9L240.4,356.9L240.4,357.1L240.5,357.3L241.5,357.8L243.6,358.7L244.4,358.7L245.1,358.8L245.3,359.1L246.7,360.5L247,360.4L247.6,360.4L248.3,360.3L248.8,360.1L249.2,360.1L249.5,360.4L250,360.6L250.6,361L251.1,361.6L251.4,361.8L253.5,361.4L254,361.7L254.5,361.7L255.1,361.6L256.3,361.8L257.3,361.8L257.4,361.6L257.5,360.4L257.7,360L257.9,359.9L258.5,360L260.6,360.7L261.5,361.1L262.4,361.5L263.1,361.5L263.6,361.7L264.3,362.9L264.2,363.4L264.2,363.6L264.3,364L264.3,364.5L264.5,364.8L264.8,364.8L265.2,364.7L265.7,364.5L266.5,364.1L266.7,364L268.1,364.5L268.7,364.9L268.9,365.3L269.2,365.7L269.6,365.7L270.1,365.4L271.1,364.9L272.6,365.3L274.3,365.8L275,365.9L275,365.6L275.1,365.3L275.4,365.1L275.8,365L276.4,364.9L277.1,364.5L277.8,364.4L278.5,364.6L279.4,364.8L279.9,364.8L280.1,365.6L280.6,365.9L280.7,366.5L280,366.9L279.5,366.9L279.4,368L279.6,368.3L280,368.6L280.1,368.9L280.2,370.6L279.3,371.6L278.1,372.7L272,376.2L270.5,377.9L270,378.3L265.5,379.3L262.3,380.5L260.8,380.9L258.9,382.8L258,383.6L258.8,383.9L259.6,384.8L259.3,385.2L258.1,385.9L257.6,386.1L257.3,386L257,386.1L255,389.4L253.2,391.9L252.2,392.9L251.2,394.5L248.9,398.6L248.9,399.7L250,403.7L250.6,404.8L251.5,405.7L253.2,406.4L253.5,407.1L253,407.8L251.3,409.1L248.5,410.8L247.3,412.1L247,413.3L246.1,413.9L245.8,415.7L245.3,416.9L245.2,417.3L244.7,418.2L244.6,418.8L245.5,419.7L245,420.1L244.6,420.3L243.6,420.4L240.2,420.5L237.5,422.4L236.1,424.1L234.8,427.2L233.3,429.1L232.7,429.4L231.6,428.6L230.3,428.5L229.1,428.8L228.5,429.4L227.4,429.7L226.4,429.4L224.3,429.3L223.3,429.3L221.8,429.8L220.5,429.5L218.3,429.3L213.6,429.7L213,429.9L212.4,430.7L210.9,432L208.7,432.1L206.6,432.9L206.1,433.5L205.2,435L204.9,436L204.7,436.1L204.5,435.8L204.2,435.9L204,436.7L203.2,437.1L202.6,437.2L201,436.6L199.7,435.5L199,435.5L197.9,433.9L197.3,432.9L197,431.8L197.1,431.4L197,431L196,430.6L195.7,429.6L196.5,428.3L197.1,427.7L197.4,427.6L196.5,427.6L195.9,428.5L195,427.1L191.6,424.5L191.8,423.9L191.8,423.6L191.2,424.3L190.8,424.5L189,424.3L187,424.7L186.5,421.9L186.2,420.9L186.2,420.2L186.7,418.6L187.3,418L188,416.6L189,415.5L189.9,415.3L190.4,415.1L190.7,414.3L191,413.5L190.8,413.4L189.7,413.6L187.6,410.5L187.7,410L187.9,409.3L188.1,408.4L188.1,407.6L188.7,407L189.5,406.4L190.2,405.5L190.5,404.6L190.6,403.8L190.2,403.2L189.1,402.9L187.9,400.6L187.7,399.2L187.4,399L186.7,398.4L186,397.1L185.9,397L186.6,396.7L189.5,396.7L190.2,396.5L190.3,396.4L190.8,395.4L191.4,393.8L191.5,392.8L191.3,392.4L190.3,391.5L190.3,391.2L190.5,390.7L191,390.2L191.8,389.7L192.2,389.2L192.2,388.8L191.9,388.4L191.9,388L192,387.6L192.1,386L192.2,385.6L192,384.2L191.8,383L191.2,381.5L191.3,381.2L191.6,380.9L192.5,380.3L193.3,379.1L194.4,378.1L195.8,377.2L196.8,376.3L197.2,375.6L197.5,375.4L197.4,375.1L197.2,374.6L196.6,374.1L195.9,373.9L195.1,373.9L194.6,373.8L194.5,373.4L194.5,372.4L194.5,371.4L194.3,370.9L193.9,370.6L193.2,370.7L192.5,370.4L192,370.3L191.7,370.6L190.3,370.5L189.7,370.3L189.3,370.1L189,370.2L188.9,370.5L188.8,370.8L188.8,371.1L188.2,371.5L187.1,371.9L186.1,371.8L185.2,371.6L184.9,371.4L184.5,371.2L182.7,371.4L182.5,371.3L181.9,371.7L181,372.1L180.5,372.1L180.3,372L180.3,371.8L179.9,371.1L180,370.8L180.7,369.7L180.6,369.5L180.3,369.1L180.1,368.6L180,368.3L179.5,368.3L179,368.6L177.1,369.1L176.7,369.3L175.9,369.8L175,370.6L174.4,370.8L174.1,370.5L174.1,368.7L175.1,367.4L175.8,366.7L175.5,366.5L174.7,366.6L174.7,366L175.1,365.7L175.5,365.1L175.1,364.8L174.7,364.4L174.7,363.3L174.8,362.8L174.7,362.3L173.2,363L172.8,362.9L172.8,362.1L173.6,360.8L173.7,360.5L172.7,360.3L172,359.7L171.5,359.1L171,358.3L171,357.6L171.5,356L172.3,355.5L172.9,355.2L174.2,354L176,354.3L177.1,354L178.1,353.4L178.7,353.3L179.7,352.8L179.6,352.1L179.3,351.6L179.6,351.1L180.6,350.5L181.8,349.7L183.1,349.6L184.5,348.8L185.4,349.3L186.2,349.2L187.1,349.7L188.3,350.9L190,351.4L191.5,351L193.9,350.9L195.2,351.1L197.4,350.8L198.6,350.9L200.7,350.3L202.3,351.1L205.3,351.4L207.1,352L212.2,353.1L214.1,353.1L216.7,352.5L217.8,352.1L218.8,352.3L220.3,351.8L221,351.9L221.9,352.6L225.2,353.6L226,352.8L226.7,352.6L229,353.1L231.4,354.1L232.6,354.2L234.4,353.9L235.8,353.2ZM402,295.5L402,295.5L401.8,295.5L401.2,295.1L401.1,294.5L400.2,293L399.3,290.5L399.3,289.8L399.6,289L400,288.4L400,287.9L400.1,287.7L400.4,286.7L401,285.3L401.6,284.5L402,284.3L402,295.5ZM396.2,314.9L395.5,314.6L394.5,314.5L394.4,314.7L394,314.8L393.8,315.1L393.9,316.4L393.7,316.6L392.6,316.4L392.3,316.6L391.7,317.4L391.1,317.8L390.4,318L389.8,318.3L389.1,318.6L388.6,318.7L388.3,319.1L388.2,319.5L388.2,319.9L388.8,320.7L388.9,321.5L388.8,322.5L388.7,323L388.5,323.3L386.9,323.8L385.4,324.6L385.4,324.8L386.1,325.5L386.1,325.7L385.5,326.1L385.5,326.5L385.5,327L385.8,327.5L385.9,327.9L385.1,328.2L384,328.1L382.6,327.5L382.1,327.6L381.7,327.9L381.2,327.8L380.6,327.4L379.9,326.6L379.5,326.1L379.4,325.6L379.2,325.6L378.9,325.7L378.7,326.3L378,327.4L377.5,327.7L376.7,327.7L375.6,327.7L375,327.8L374.2,327.4L374,327.5L374,327.7L373.7,328.2L373.2,328.4L370.9,327.8L370.5,327.3L371.1,327.1L371.8,326.4L372.3,326.5L372.9,326.4L373.2,326.1L372.7,325.3L371.8,324.3L371.3,323.9L370.6,323.6L370.5,323.3L370.9,321.7L370.7,321.5L369.9,321.6L369.8,321.4L369.7,321.1L369.8,320.8L370.3,320.1L370.9,319.6L371,319.3L371,319L370.3,318.8L369.8,318.5L369.4,318.4L369.2,318.6L369,318.4L368.8,318L369,317.3L369.7,316.6L370.4,316L371.1,315.6L371.4,315.4L371.6,314.7L372,314.7L372.8,314.8L373.6,315L374.4,315.2L375.1,315.4L376.6,315.7L377.9,315.8L378.3,316L378.6,316L379,316.2L379.3,316L379.5,315.8L380.2,315.4L380.9,314.9L381.3,314.4L381.6,313.9L382,313.6L382.5,313.5L383,313.3L384.9,313.1L386.8,313.3L387.8,313L388.5,312.4L389.6,312.2L389.7,312.2L391.4,312.7L391.5,312.4L391.5,312.3L391.5,311.1L392,310.5L392.5,310.3L394.2,310.4L394.4,310.8L394.5,311.3L394.7,312.1L394.9,312.3L395.1,312.6L395.1,313.2L395.4,313.6L396.1,314.7ZM361,347.2L360.5,347.3L360.2,346.8L360.6,346.2L361.2,346.1L361.3,346.6ZM101.4,470.7L102.6,471.3L103.7,471L105.1,471.7L105.8,471.9L105.2,472.4L104.5,473L103,472.9L101.6,472.2L101.2,471.8L101,471.4ZM175,370.6L175.9,369.8L176.7,369.3L177.1,369.1L179,368.6L179.5,368.3L180,368.3L180.1,368.6L180.3,369.1L180.6,369.5L180.7,369.7L180,370.8L179.9,371.1L180.3,371.8L180.3,372L180.5,372.1L181,372.1L181.9,371.7L182.5,371.3L182.7,371.4L184.5,371.2L184.9,371.4L185.2,371.6L186.1,371.8L187.1,371.9L188.2,371.5L188.8,371.1L188.8,370.8L188.9,370.5L189,370.2L189.3,370.1L189.7,370.3L190.3,370.5L191.7,370.6L192,370.3L192.5,370.4L193.2,370.7L193.9,370.6L194.3,370.9L194.5,371.4L194.5,372.4L194.5,373.4L194.6,373.8L195.1,373.9L195.9,373.9L196.6,374.1L197.2,374.6L197.4,375.1L197.5,375.4L197.2,375.6L196.8,376.3L195.8,377.2L194.4,378.1L193.3,379.1L192.5,380.3L191.6,380.9L191.3,381.2L191.2,381.5L191.8,383L192,384.2L192.2,385.6L192.1,386L192,387.6L191.9,388L191.9,388.4L192.2,388.8L192.2,389.2L191.8,389.7L191,390.2L190.5,390.7L190.3,391.2L190.3,391.5L191.3,392.4L191.5,392.8L191.4,393.8L190.8,395.4L190.3,396.4L190.2,396.5L189.5,396.7L186.6,396.7L185.9,397L186,397.1L186.7,398.4L187.4,399L187.7,399.2L187.9,400.6L189.1,402.9L190.2,403.2L190.6,403.8L190.5,404.6L190.2,405.5L189.5,406.4L188.7,407L188.1,407.6L188.1,408.4L187.9,409.3L187.7,410L187.6,410.5L189.7,413.6L190.8,413.4L191,413.5L190.7,414.3L190.4,415.1L189.9,415.3L189,415.5L188,416.6L187.3,418L186.7,418.6L186.2,420.2L186.2,420.9L186.5,421.9L187,424.7L186.3,424.8L183.3,426.6L182.4,426.6L180.6,425.8L177.6,425.5L176.6,425.3L175.4,425.8L174.4,425.8L173.6,426.5L173.1,426.3L173.7,424.8L174.7,421.9L174.7,420.1L174.9,418.6L174.6,417L174.1,416.1L174.8,413.6L174.7,412.3L174.1,410.6L176,410.9L175.4,410.2L174.8,409.8L174.3,409.9L173.8,409.9L172.3,410.5L171.5,410.7L171.2,410.6L171.3,409.6L170.9,408.3L171.5,407.9L172.3,407.8L172.9,407.3L173.3,406.6L173.1,405.5L173.6,404.5L174.9,403.6L174.2,403.7L173.5,404.3L172.3,406.3L171.9,407.3L170.9,407.6L170,407.8L169.5,407.7L168.9,407.5L168.9,406.7L168.9,406.1L169.3,404.9L169.5,403.2L170,401.6L170,401.2L169.8,400.6L170.3,400L170.9,399.6L171.8,398.3L173,395.1L174.5,391.8L174.4,391.4L174.1,391.1L174.2,390.1L175.1,386.1L175.4,385.6L175.8,384.4L175.9,382.6L176.1,381.3L176.1,380.6L175.9,379.8L175.4,378.3L174.8,375.1L174.7,374L175.2,373.5L174.4,373.4L174.1,372.7L174.1,371.9ZM32.94,427.1L32.88,427.3L32.4,427.2L31.77,427.3L31.43,426.7L31.74,426.4L32.43,426.4L32.78,426.6ZM-20.52,399.8L-20.9,400.4L-21.56,400.2L-21.78,400L-21.59,398.8L-21.06,398.5L-20.52,399ZM15.02,408.4L14.83,408.5L13.01,408.2L12.5,407.8L12.28,407.1L12.6,406.8L13.39,406.7L14.55,406.8L15.31,407.3L15.31,408ZM8.852,409.4L8.443,409.6L6.113,408.7L5.295,408.3L4.224,407.3L7.247,408.5ZM1.328,409.8L0.414,409.8L-0.436,408.9L0.824,408.5L1.202,408.8L1.453,409.1L1.642,409.5ZM5.641,410.6L6.365,411L5.263,411.1L4.917,411.3L4.004,411L2.965,411.1L2.272,410.5L2.115,409.8L2.461,409.4L3.405,409.4ZM27.49,417.4L28.03,417.5L30.83,417.3L31.58,417.4L31.49,418.2L30.95,418.5L29.32,418.8L26.73,418.2L25.89,417.5L25.76,417L25.76,416.8L26.29,416.6ZM402,263.9L401.8,263.8L400.3,263.3L399.4,263.1L399.3,263.3L399.7,264.2L400.4,265.4L400.4,265.7L399.6,266.2L399.1,266.4L398.5,266.8L398.1,267.4L397.7,267.6L397.3,267.6L397,267.3L396,265.5L394.8,264.2L394.7,263.9L394.3,263.9L393.7,263.6L393.6,263.1L393.8,262.7L394.2,262.3L394.8,262.1L395,261.9L395.2,261.5L395.4,261.1L395.3,260.9L394.9,260.4L394.2,260L392.3,260.3L391.8,260.6L391.5,260.3L391.3,259.7L390.8,259.7L390.2,259.2L389.4,258.8L388.6,258.7L387,258L386.4,258L386.1,257.8L385.7,257.3L385.4,256.8L385.2,255.8L384.1,255.3L382.9,255L382.9,255.2L382.9,256.2L382.8,256.8L382.1,257.1L381.3,257.2L381.4,257L382.3,255.1L382.7,253.9L383.1,251.7L382.6,249.9L382.4,249.1L382.2,248.7L380.6,247.9L380.5,247.6L380.7,246.4L380.6,245.9L380.2,245.4L379.7,244.4L379.5,243.5L380.1,242.5L380.3,241.7L380.6,240.7L380.8,240.1L380.8,240L380.4,239.6L380.3,239L380.4,238.2L380.2,237.6L379.6,237.2L379.3,236.7L379.1,236L379.2,235L379.6,233.6L378.7,231.9L376.5,229.9L375.4,228.6L375.5,227.7L375.9,227L376.8,226.4L377.5,225.2L377.8,223.9L377.8,223.6L377.9,222.6L376.8,218.6L376.7,217.6L376.6,216.4L376.5,216.1L378.5,216.9L379.3,217.4L379.2,216.9L379.1,216.4L379.2,215.7L379.1,214.7L377.3,214.2L376.1,214L376,213.3L376.1,212.8L376.4,213.1L377.6,213.2L380.5,211.8L385.5,210L390.8,208.3L392.1,208.1L393.4,207.7L393.8,207.1L394.3,206.7L395,205.5L396.6,203.8L399.5,203.1L400.5,202.3L402,201.5L402,263.9ZM398.3,-42L396.9,-36.76L396.7,-36.56L395.7,-35L394.4,-34.29L393.4,-33.93L392.8,-32.11L394.2,-29.55L394.9,-28.17L395.5,-25.98L395.4,-24.61L395.3,-23.75L393.8,-21.96L390.7,-17.36L387.9,-12.57L386.7,-11.2L387.2,-7.181L386.3,-6.011L384.3,-4.693L383.3,-4.166L382.3,-3.904L379,-3.378L379.6,0.882L379.8,2.741L379.8,3.853L379.5,4.925L379,6.991L378.4,14.23L378,15.03L377.3,16.99L375.2,21.63L373.6,24.71L371.2,29.11L373.1,30.49L374.9,31.51L375.3,33.06L375.5,35.62L375.5,37.36L374.8,38.93L374.3,40.04L373.9,40.56L371.4,40.04L368.1,39.34L367.3,39.34L365.4,39.83L363.7,40.84L362.8,41.7L362.5,42.01L361.4,43.94L359.4,47.34L358.3,48.85L358.6,50.89L356.8,54.79L357.9,58.73L358,58.86L358.6,60.44L358,61.44L357.7,61.97L357.8,63.77L358,65.8L357.8,66.95L357.8,68.24L359.4,74.05L359.4,75.39L359.3,76.26L358.8,79.8L358.1,84.56L359.3,85.81L361,87.28L361.9,87.85L363.4,89.6L364.4,91.31L364.3,92.45L364,93.68L363.5,94.57L363.1,95.76L362.9,96.64L362.7,96.86L360.8,96.95L359.8,97.3L359.3,97.67L359.5,99.64L360.6,103.3L361.6,105.9L361.9,107.5L361.6,109.2L361.3,110.1L361.3,111.3L361,113.6L360.2,114.8L359.3,116L358.2,117L357.4,117.3L356.7,117.4L356.2,117.9L355.7,119.3L355.3,120.8L353.9,122.6L354,123.2L354.5,125.3L355,127.8L354.6,130L354.2,132.4L353.6,134L352.8,134.5L352.1,134.2L351.4,132.1L351.4,131.6L351.2,130.9L349.2,130.3L348.8,130.3L348,129.9L347.5,129.8L346.6,129.6L345.8,127.7L344.9,126.1L344.8,125.4L344.8,122.4L344.5,121.1L344.5,119.6L343.9,120.8L344.2,122.6L343.6,123.4L342.7,123.8L342.8,124.9L343.2,125.1L343.2,126.3L343,127.9L341.4,131.7L341,132.1L340.8,132.6L340,132.2L338.9,133.3L337.9,133.4L337.5,132.3L336.1,130.7L335.4,130.8L336,131.5L336.6,132.6L336.3,133.2L335.9,133.6L335.3,133.8L333.2,135.1L334,136L333.3,137L332.6,137.1L332.2,137.6L332.1,138.2L329.9,140L326.3,144.5L324.5,145.7L323.2,147.1L322.1,147L320.7,148.1L317.1,149.1L314.7,148.7L313.1,149L312.2,148.3L312,147.7L312.1,147.5L312.3,147.1L311.9,146.9L311.3,146.9L311,147.3L311,148.1L310.7,148.3L309.4,147.8L309.1,147.4L309.6,146.5L310.3,145.7L310.2,145.6L310,145.1L309.7,145L308.6,145.2L307.7,145L304.7,143.2L304.1,142.3L301.7,140.8L300.6,139.1L300,137.3L300.1,135.7L300.4,133.1L300.9,132.5L303,133.4L305.1,134.9L305.5,134.8L306.2,133.6L307.4,132.7L307.1,132.4L305.1,133.5L304.4,132.9L303.3,131.7L303.3,131L303.8,130.4L304,129.5L303.7,128.7L303.9,127.6L304.7,126.4L306,125.2L306.9,124.1L307.9,123.3L307.8,123.1L306.7,123.5L305.7,124.3L304.4,125.6L302.9,126.7L301.8,127.1L301.3,127.4L300.5,127.8L299.6,129.2L298.7,129.9L297,130L296.7,128.9L297.2,125L297.7,123L298.2,121.7L299,121.5L299.7,120.5L300.2,120.5L300.6,120.9L302.3,121.4L303.1,120.1L304.2,119.9L306.2,118.6L306.1,118.4L304.8,118.7L304,118.7L302.8,119L302.2,118.8L301.9,117.9L302.4,117L304.2,114.9L304.9,114L305.2,113.2L305.2,112.6L305.5,111.4L307.3,109.3L308.8,108.3L309.3,109.1L308.9,111.7L308.9,112.8L310.1,109L310.6,108.1L311.2,107.5L312.6,107.1L313,106.4L311.3,106.7L307.3,108.1L305.6,109.4L305.1,110.4L304,111.9L303.4,112.8L303.2,114.3L302.5,115L301.6,115.3L300.4,117.1L299.9,118.5L298.6,119.6L297.8,120.5L297.6,120.8L297.2,121.7L296.8,121.7L296.5,121.3L296.5,120.2L296.6,118.4L297.2,117.1L297.4,115.8L297.1,114.7L297.3,113.9L297.8,113.9L298.8,114.3L299.9,114.3L301.6,113.3L301.3,112.8L300.6,112.7L299.2,112.8L298,111.9L297.1,110.1L296.7,107.6L297,106.9L300.3,104.4L301.2,103.3L300.7,103.2L299.5,104.6L297.7,105.4L296.6,104.2L296,103L295.6,100.3L295.7,98.86L295.6,97.02L296.4,96.42L297.2,96.73L298,96.86L300,96.7L304.1,95.6L306.8,96.26L307.9,96.2L309.6,95.23L311.1,95.13L312.2,95.86L312.8,96.7L312.9,97.83L313.4,98.55L313.7,98.33L313.4,97.42L313.4,96.08L317.8,94.5L318.3,93.9L316.5,93.68L316,92.26L317,90.11L316.9,89.82L315.9,90.97L315.4,92.58L315.6,93.84L315.4,94.44L314.5,94.72L312.5,94.82L311.2,94.28L310,93.97L309.6,93.56L309.7,92.64L309.5,92.45L309,93.27L308.6,94.91L307.6,95.29L305,94.69L301.2,95.04L299.5,95.86L298.4,95.76L296.5,94.31L295.7,93.18L295.5,90.87L295.5,89.82L297,89.41L297.8,89.44L298.5,88.9L297.9,88.52L297,87.82L296.4,86.42L295.5,85.97L294.9,84.75L294.7,82.92L294.9,81.64L295.4,81.22L296.6,81.51L299.6,81.31L302.5,82.6L304.4,83.34L308.4,82.95L310.7,81.8L310.3,81.47L307.7,82.15L305.4,82.12L301.3,80.83L299.7,80.38L297.9,80.57L296.9,80.19L296.4,78.89L296.8,76.39L297.6,75.84L298.1,76.49L298.7,76.56L299.2,75.52L299.8,74.9L300.2,73.56L301.8,72.28L302.5,72.19L303.5,71.59L304.1,71.76L304.5,72.35L305,72.84L306.1,72.77L309.3,71.76L309.7,71.43L310.3,70.61L308.3,70.97L306.6,71.56L305.5,71.73L305.3,71L305.7,70.31L306.3,69.62L306.7,68.41L307.4,67.88L308.1,67.91L309.7,67.68L310.8,67.38L312.7,67.58L315.5,68.04L317.3,69.16L318,69.06L318.7,68.77L319.1,68.37L317.6,67.91L317.6,67.22L317.7,66.72L320,65.8L322.6,65.6L322.2,64.83L316.6,65.96L315.1,65.2L314,65.2L313.2,65.63L311.1,66.16L310.7,65.8L311.1,64.47L312.4,62.31L312.5,61.77L313.1,61.24L316.4,60L318,58.53L318.8,58.33L319.4,58.43L320.5,58.26L322.7,58.69L323.6,60.54L324.5,61.1L327.2,63.41L327.1,62.74L324.7,59.63L323.8,58.86L323.2,57.32L323.4,55.87L324.1,54.89L326.8,54.38L327.3,53.81L327.4,52.83L327,52.18L326,52.22L325.1,51.81L324.9,50.76L325.2,50.04L326.8,48.74L327.7,48.3L329.1,47.86L331.7,48.88L331.9,49.43L331.2,50.72L331.3,51.44L331.9,51.54L333.3,49.36L335.1,49.05L335.8,48.57L336.6,48.27L337.8,50.24L338.3,50.89L338.7,51.13L339.1,52.76L339.4,52.86L340,52.05L340.9,51.6L342.2,51.33L344.4,51.74L345.4,51.44L345.9,51.47L345.4,50.01L345.1,49.6L345.6,48.27L346.1,47.75L347.6,46.83L349,46.42L350,45.52L351.2,44.7L351.1,44.08L350.7,43.32L349.9,43.25L349.5,42.84L350.6,41.87L352,40.77L351.7,40.35L350.7,39.86L349.9,40.21L348.7,41.08L347.2,42.43L347.7,42.81L348.4,43.91L347.4,45.39L342.2,49.32L339.8,50.48L338.6,50.31L338.3,49.22L337.8,48.44L337.2,46.8L336.3,46.83L335.7,47.21L335.5,46.66L335.9,44.91L336.7,43.53L338.1,42.46L338.7,41.22L339.3,39.17L341.3,37.26L344.2,32.42L346.6,30.88L347.4,29.18L348.8,28.44L350,27.13L350.9,26.98L352.6,25.77L353.5,24.35L352.9,24.28L351.4,25.21L350.6,25.56L350.6,24.03L351.1,22.46L352.3,21.02L358.1,16.81L358.7,17.49L359.4,18.76L361.2,18.47L363.2,16.08L364.7,13.47L363.9,13.91L363,14.99L361.2,16.48L360.4,16.7L359.9,16.52L359.7,15.5L359.1,15.21L358.5,15.43L357.9,14.71L357.8,12.96L358.5,10.37L359.1,8.645L359.8,7.322L362.2,3.593L362.8,1.515L363.9,0.436L365.3,0.696L365.8,0.361L365.3,-0.982L363.7,-2.066L363.6,-2.741L368.9,-4.505L371.4,-4.467L372.1,-5.332L373.5,-5.898L374.5,-6.992L374,-7.483L371.5,-6.501L369.8,-6.011L369.1,-6.011L368.6,-5.671L366.5,-5.558L366.1,-9.908L366.4,-12.3L367.2,-12.23L367.3,-14.52L368.2,-15.86L369.4,-16.17L370,-16.75L370.9,-17.94L372.4,-17.67L373.9,-17.94L373.5,-18.48L371.6,-19.21L371.2,-20.45L371.8,-21.11L372.6,-21.61L373.2,-21.73L374.4,-24.14L375.2,-25.19L376,-25L377.2,-26.09L378.4,-25.7L379.5,-26.41L381,-26.88L386.6,-27.07L386.8,-28.05L385.6,-28.29L381.4,-28.56L379.3,-28.52L378.4,-28.25L378.1,-28.6L378.2,-29.23L378.9,-30.18L379.3,-31.2L380.8,-33.77L382.7,-35.52L384,-35.08L385.5,-33.42L386.6,-33.22L387,-32.7L387.8,-30.45L388.2,-30.37L388,-32.55L389,-34.29L388.8,-34.81L387.2,-34.17L386.1,-34.81L385.2,-36.16L384.9,-37.4L385.5,-38.59L386,-39.2L385.7,-39.92L383.3,-37.99L381.7,-37.55L381.1,-37.84L381.4,-39.56L381.2,-40.92L381.9,-42L398.3,-42ZM295.2,96.17L294.4,96.42L293.8,96.23L294,94.5L294.3,94.22L294.8,94.09L295.3,95.04ZM296.3,110.1L296.3,112.1L295.5,112L295.1,111.2L295,110.7L295.1,109.5L294.9,108.2L295.1,107.6L295.5,107.5L296,108.6ZM356.5,7.396L355.9,8.058L354.8,7.874L354.7,7.322L355,6.18L355.6,5.701L356.5,5.812L356.8,6.291ZM325.9,47.45L324.9,47.48L324.3,47.03L325.7,46.18L328,45.32L328.2,44.8L328.4,44.73L328.8,45.39L328.9,46.28L328.6,46.73ZM322.7,53.91L321.8,53.91L320.8,53.61L320.1,52.96L320,52.42L321.2,51.71L322.4,51.3L323,52.08L323,53.34ZM364.8,-42L364,-41.2L364.1,-42L364.8,-42ZM361.2,1.515L360.5,1.589L360.5,0.734L360.9,-0.086L361.5,-0.609L362.4,-0.758L363.3,-0.833L363.6,-0.385L363,0.212ZM360.4,-1.505L359.6,-1.356L359.7,-2.329L360.4,-3.228L360.7,-3.828L360.8,-4.58L361.3,-5.107L362.2,-4.392L362.2,-3.228L361.8,-2.104ZM350,23.28L349.6,23.85L348.5,23.39L346.6,23.74L345.7,23.21L346.4,22.1L348.2,20.95L349.2,21.02L350.1,22.42ZM304.2,258.6L303.3,258.6L302.5,258.6L302.1,258.5L301.6,258.3L301.4,257.9L301.1,257.4L301.2,257L302,256.1L302.1,255.9L302,255.8L302.1,255.3L302.7,254L302.8,253.4L302.5,253.1L302.1,252.8L300.8,252.4L300.2,251.9L300,251.4L299.7,251.2L299.3,251.4L298.3,251.6L297.4,251.3L296.4,250.4L296.2,249.5L296.1,248.9L295.8,248.6L295.5,249L295,249.5L294.2,249.6L294,249.4L293.9,249.1L293.9,248.9L293.6,248.5L293.4,248.3L292.3,249.3L291.9,249.3L291.4,248.9L291.2,248.6L290.6,248.8L290.1,249.2L290.3,250.1L290,250.2L289.4,250.1L288.7,249.8L288,249.6L286.8,249L285.2,249.5L284.1,248.9L283.2,248.9L282.6,248.4L282,247.6L282.4,247.1L282.8,246.9L284.5,246.9L285.8,247.2L288,248.8L288.6,248.8L289.2,248.6L288.9,248.1L288.3,247.9L287.5,247.5L286.8,246.9L288.4,246.7L288.1,246.3L288,245.8L286.3,243.8L286.6,243.3L287,242.2L287.5,241.2L287.9,241L288.6,240.3L290.1,238.3L291,236.7L291.7,234.8L292.7,229.5L293,228.6L293.5,227.6L294.1,227.8L294.5,228.1L296.1,227.3L298.7,225.4L299.4,223.7L300.2,222.9L303.2,221.3L304.8,220.8L307.4,220.7L309.2,220.4L311.4,220.3L312.3,221.3L312.7,222L313.5,222.4L314.8,222.7L314.7,224.1L314.7,226.8L314.6,227.3L314,228.4L313.5,230.5L313.3,231.8L313.1,232.1L310.8,232.1L310.5,232.3L310.4,232.6L310.6,232.9L310.5,233.3L310.3,233.6L310.4,234L310.8,234.5L311.5,234.8L312.3,234.9L312.7,234.8L313,235.2L313.3,235.7L313.3,236.4L313.2,237.3L312.8,238.2L311.8,239.2L311.3,239.6L310.8,239.7L310.6,240L310.5,240.3L310.5,240.6L311.3,241.4L311.3,241.6L311,242L310.8,242.4L308.8,243.2L308,243.1L307.5,243.5L307.4,243.6L306.9,243.2L305.7,242.8L305.3,243L305.1,243.2L304.3,243.5L303.8,243.9L303.8,244.5L304.7,246L305.1,246.3L305.1,246.8L305.5,247.5L306,248.4L306,248.9L306,249.5L305.7,250.2L304.9,252.1L304.9,252.4L305,252.7L305.3,252.8L305.5,252.9L305.4,253.1L303.9,254.4L303.7,254.6L303.1,254.6L303,254.8L303.1,255.1L303.4,255.4L303.9,255.6L304.3,255.9L304.7,256.5ZM288.7,249.8L288.6,250.3L288.3,250.9L287.1,251.7L285.9,252.3L285.3,252.2L284.9,251.9L284.7,251.6L284,251.4L283.1,251.2L282.5,251.5L282.2,251.8L281.8,251.8L281.6,251.5L281.3,251.1L281.1,249.9L281.8,249.7L283.2,249.6L284.3,250L285.8,250.2L286.9,249.7L287.8,250.2ZM307.2,219.3L306,219.8L305.7,219.7L305.7,219.6L306.8,219.3ZM303.7,220.1L301.9,220.3L301.3,220.1L301.2,220L301.7,219.9L303.2,219.8L303.6,220ZM296.5,222.3L294.9,223.3L294.7,223.2L295.8,222.3ZM298.4,221.1L297.6,221.3L297.2,221.1L299.2,220.5L300.4,220.3L300.6,220.4ZM294.5,225.8L293.7,226.8L293.1,226.5L293,226.3L293.2,225.5L294.5,224.1ZM286.3,244.8L287.2,245.6L287.4,245.8L287.4,246.1L286.4,246.4L285.2,245.5L284.4,245.7L284.1,245.3L284.1,245L284.9,244.7ZM310.7,218.3L309.9,218.3L310.1,217.9L310.9,217.6L311.3,217.6ZM167.7,482L170.1,478.8L170.6,477.2L170.9,474.7L170.9,473.8L174.5,470.2L176.6,467.4L177.4,466.7L179.2,465.4L185.7,462.6L189.3,460.7L191.5,459.2L192.7,457.5L196.2,450.6L199.7,441L200,439.8L201.5,439.5L202.6,439.4L203.5,439L204.6,438.3L205.6,438.6L205.1,439.1L205.1,440.3L205.8,441.7L207.1,443.3L209.5,445.2L211.3,446L213.9,446.5L217,445.7L218.7,445.6L219.5,445.3L220.4,445.8L222.1,446L223.8,445.7L225,444.9L225.8,443.9L225.9,444.4L226,444.9L226.2,445.2L226.7,446.4L227,446.9L227.9,446.8L228.7,447L230.6,446.9L232.4,447.1L232.4,447.1L232.6,447.9L233.1,448.6L235,450L236.1,450.9L236.1,451.2L235.8,451.9L235.6,452.4L235.9,453L236.6,453.6L236.6,453.9L236.5,454.3L236.1,455L236.9,457L237,459L236.8,460.4L236.8,461.2L236.9,461.8L237.5,463.4L237.1,466L237.6,467.4L238.2,468.6L238.6,470.6L239.1,471.6L240,472.4L240.4,472.7L241.4,473.4L242.1,474L242.5,474.9L241.6,475.6L241,476.2L240.8,476.9L241.1,478L241.1,478.6L240.6,478.8L238.9,478.8L237.5,478.7L235.9,478.6L233.7,478.5L232.3,478.5L230.4,478.4L229.7,478.4L228,478.7L226.8,478.9L226.6,479L226.2,479.3L225.9,480.1L225.7,481L225.4,481.4L223.8,482L167.7,482ZM316.9,349L316.3,349.2L316.4,349L316.5,348.8L316.6,348.8L316.8,348.9ZM379.2,439.1L378.9,439.5L378.1,439.4L377.3,438.9L377.3,437.8L378.2,438L378.9,438.7ZM377,437.2L376.5,437.4L375.9,437.1L375.8,436.9L376.5,436.7L376.9,436.8L377,437.1ZM305.3,267.3L305.2,267.7L305.2,268.5L305.5,269.3L306.1,270.1L306.5,270.7L307.1,271.1L308.1,271.6L308.6,271.7L308.6,272.3L308.5,272.9L308.2,273.3L307.8,273.8L307.6,274.4L307.3,275.5L307.3,276.4L306.7,276L306.4,275.8L305.8,275.7L305.3,275.9L304.9,276.3L304.4,276.4L303.9,276.3L303.6,276L303.4,275.8L302.7,275.6L302.4,275.2L302.7,275L302.9,274.6L303,274.2L303.2,273.8L302.6,272.6L302.4,272.2L301.9,271.5L301.9,271.2L302,270.9L302,270.6L302,270L302.4,269.5L302.7,268.8L303.1,267.8L304.1,266.7L304.7,266.8L305.1,266.8L305.2,267.2ZM335.6,307.8L334.9,307.8L334.8,307.8L334.7,307.3L334.7,306.3L335.1,305.1L335.2,305.3L335.2,305.5L335.3,305.8L335.4,306.2L335.5,306.5L335.8,306.9L335.8,307.2L335.7,307.6ZM343.8,482L344,481.8L344.5,480.9L344.6,480.5L345.2,480L346,479.5L346.5,478.9L348,477.9L349.5,477.1L351.1,476.1L352.4,475.4L352.7,474.8L352.7,474.3L352,473.1L352,471.6L352,470.4L352.1,469.7L352.4,467.7L352.4,467.4L353.8,468.1L355.1,468.4L359.2,470.8L360.5,471.1L363.3,471.4L366.7,470.4L368,470.2L370.2,471.2L371.2,471.4L372.8,471.5L375.6,472.4L376.3,472.7L377.9,474L378.7,474.4L384.5,475.7L385.3,476.5L386.1,478.1L386.2,480L386.6,481.4L386.8,482L343.8,482ZM360.6,371.1L360.6,371L360.5,371L360.5,371.1L360.5,371.1ZM361,347.2L361.3,346.6L361.2,346.1L360.6,346.2L360.2,346.8L360.5,347.3ZM402,387.3L400.7,387.2L399.9,387.8L398.8,389.4L397.6,391.5L396.4,394.7L396.3,396L397,397.2L398.9,397.9L400.5,399L401.5,400.1L401.6,402.9L402,404.5L401.3,405.3L400,405.1L398.3,405.7L397.1,406.7L396.6,407.6L396.7,410.1L396.5,411L394.2,412.8L393,414.6L392.7,415.4L392.2,416.3L389.3,416.3L388.6,415.2L388.6,413.7L389.1,412.7L390.2,412.2L390.9,410.2L390.7,408.8L391.1,408.1L391.5,407.7L392.3,407.4L393.5,407.1L393.6,405.1L392.7,404.2L392.4,402.9L391.9,400.4L390.4,397.3L389.7,394.6L389.1,393.2L388.1,392.5L386.4,392.5L385.6,392.3L382.5,390.4L382.3,390.1L382.3,389.6L382.9,388.8L382.5,387.7L382.2,386.7L381.6,385.9L380.9,385.4L379.6,385.7L379.1,385.9L378.3,385.8L377.6,386.2L377.2,386.2L378.3,384.7L378,384.4L376.9,383.8L375.5,383.7L375.1,383.6L374.9,384L374.6,383.8L374.7,383.1L373,380.1L371.9,378.9L371.4,378.6L370.4,378.9L368.7,378.4L367.6,378.2L367.1,378.4L366.3,378.8L365.9,378.5L365.7,378.1L364.2,376.8L362.3,376.1L358.5,372.1L357.4,370.6L355.1,369L353.6,366.5L352.3,365.6L350.6,364.9L350.2,365L349.6,365.3L349.2,365.3L348.9,365L349.2,364.7L349.6,364.5L349.5,363.6L347.5,361.2L346.3,360.4L346,359.9L345.7,359.2L345.4,358.8L344.9,358.6L344.4,358.6L343.7,358.5L343.8,357.3L343.9,356.4L343.8,355.6L343.2,353.6L342,351.9L341.4,347.8L340.9,346.6L339.7,345.8L336.9,344.8L333,342.1L332.2,342.1L329.9,341L328.4,340.9L326.6,341.8L324.3,344.3L322.5,347L321.8,347.5L319.4,348.4L317.3,348.8L317.3,348.2L317.2,347.6L317.6,347.1L318.2,346.4L318.7,345.6L318.9,345L318.8,344.6L318.6,344L318.2,344L316.3,344.4L315.8,344.3L314.3,343.6L312.7,342.6L312.1,341.9L311.9,341.2L312.1,340.8L311.9,340.3L311.6,339.8L311.9,339.1L312.4,338.3L312.7,337.7L313.1,337.6L313.3,337.2L313,335.9L312.8,335.6L312.5,335.5L312,335.5L311.3,335.2L310.7,334.7L310.6,334.1L310.3,333.5L309.8,332.9L309.8,332.3L310.3,332L311.1,331.9L311.6,332.1L312.9,331.1L313.3,331L313.7,330.8L314,329.4L314.3,329L314.4,328.8L314.1,328.5L313.1,327.5L312.7,326.5L312,325.4L311.3,324.9L311.2,324.5L311.2,324L311.3,323.6L312.5,322.9L313.2,322.2L313.2,322.2L313.5,322.5L314.2,322.8L315.9,322.4L317,322L317.7,321.5L318.2,321.6L319.9,322.2L320.5,321.9L321.7,321.1L321.9,320.6L322.8,319.2L322.9,318.9L322.5,318L322.6,317.8L323.8,316.9L324.4,316.2L325,315.6L325.5,315.6L325.6,315.8L325.6,316.2L325.6,317.7L325.8,318.2L326.7,319.3L327.4,319.9L328.9,320.3L329,320.5L328.6,321.3L329.5,322.3L329.7,323L330.1,323.4L330.7,323.2L330.9,322.8L330.7,322.2L330.5,321.5L330.5,321.1L330.7,320.6L331.1,320L332.3,318.5L332.7,317.6L332.8,316.3L332.8,315.3L333.2,315L334,315.2L334.2,315.2L334.4,315.8L334.7,316.9L335.1,317.4L335.6,317.5L336.1,317.5L337.4,316.9L338.2,316.6L338.7,316.7L339,317.1L339.6,318.3L340,318.4L340.4,318.2L340.5,318.1L340.4,317.6L340.2,316.7L340,315.9L339.7,315.6L339.6,315.1L339.8,314.3L340,313.7L340.4,313.5L341,313.4L341.6,314.1L342.4,314.3L343,314.3L343.1,313.9L343.1,313.4L342.7,312.8L342.8,311.9L343.2,310.3L343.4,310.4L344.3,310.4L345.3,310.5L345.9,311.2L346.5,311.4L347.4,311.5L347.9,311.4L348.2,311.2L348.6,310.4L349.2,309.4L350.1,308.9L351.8,308.8L352.6,308.6L353.5,308.6L354.1,308.8L354.8,308.7L356.5,308L358.2,307.5L358.5,307.6L358.5,307.8L358.2,308.2L357.9,308.7L358.1,309.4L359.1,310.6L359.6,311.6L360.2,312.4L360.9,312.7L362,313L362.9,313.1L363.8,313.3L367,314L368.6,314.2L369.8,314.2L371.6,314.7L371.4,315.4L371.1,315.6L370.4,316L369.7,316.6L369,317.3L368.8,318L369,318.4L369.2,318.6L369.4,318.4L369.8,318.5L370.3,318.8L371,319L371,319.3L370.9,319.6L370.3,320.1L369.8,320.8L369.7,321.1L369.8,321.4L369.9,321.6L370.7,321.5L370.9,321.7L370.5,323.3L370.6,323.6L371.3,323.9L371.8,324.3L372.7,325.3L373.2,326.1L372.9,326.4L372.3,326.5L371.8,326.4L372.3,325.9L371,324.1L370.4,324.1L369.6,324.9L367.3,324.1L366.9,324.4L366.5,325.1L365.8,325.8L364.7,326.1L363.4,327L362.1,327.6L361.1,328L360.5,327.9L361.4,327L361,326.9L359.8,327.6L359.1,328.2L358.9,329.2L358.7,330.8L359.2,331.2L360.2,333.2L361.3,334.1L361.1,335L360.8,335.6L360.1,336.2L359.5,335.8L359.2,335.8L358.9,337.2L359.4,340.8L360.2,343.3L361,344.4L362.8,346.1L364.7,347L368.1,349.8L369.9,350.7L370.4,351.2L371.5,353.4L372.5,355.9L373.6,359.8L374.3,361.8L375.8,363.9L379,367L381.8,369.3L384.5,370.7L386.5,370.9L391.4,370.6L392.3,370.8L393.2,371.1L393.4,372.1L393.1,372.8L392,373.4L391,374.4L390.8,375.6L391.8,376.5L396.5,378.9L401.4,380.9L402,381.3L402,387.3ZM342.7,359.8L343,360.2L343,360.5L342.8,360.8L342.9,361.5L342.2,360.9L341.1,361.2L340.4,361.1L340.2,360.6L340.4,360.3L341.4,360.3L341.8,360.1L342.4,360.2ZM373.7,385L373.3,385.1L373.1,385L373,384.8L373.1,384.3L373.9,384.6L373.9,384.8ZM357.2,429.3L356.8,429.4L356.2,429L356.2,428.5L356.3,428.3L357,428.6L357.2,429.1ZM388,413.2L387.4,414.4L387.1,414.9L385,418L384.8,418.7L384.6,419.5L384.4,420.1L384.1,420.8L383.9,421.6L383.9,422.5L384,423L384.3,423.3L384.7,423.5L385,423.9L384.5,424.3L385.1,425.1L385.5,425.6L385.6,426L385.6,426.5L384.6,427.4L384.2,427.8L384,428.4L383.9,429L384,429.5L384,430L383,430L382,429.6L381,429.8L379.6,429.2L379.1,429.1L378.6,428.8L377.4,426.9L376.5,426.1L375.5,425.5L374.4,425.4L373.4,425.5L372.5,425.1L370.6,423.8L368.7,422.8L367.8,422.1L367.4,421.7L367,421.4L365.9,421.1L364.8,420.4L364.4,420.3L363.4,420.4L362.9,420.4L362.4,420.1L361.3,419.3L360.7,418.1L360.6,417.6L361,416.3L361.5,415L362,414.7L362.5,414.4L362.9,414L363.2,413.6L364.2,414.9L364.7,415.2L365.1,415.1L365.9,414.7L366,414.2L366.9,413.5L368,413.5L368.6,413.6L368.8,414.2L369.3,414.4L369.8,414.5L371.5,415.6L371.9,415.8L372.4,415.8L373.7,415.3L374.7,415.2L376.7,415.4L377.9,415.1L378.7,415.1L379.8,414.7L380.7,413.9L381.2,413.8L381.6,413.7L382.8,413.7L384,413.9L384.5,413.7L384.9,413.3L385.4,413L386,413.2L387.4,412.4L388,412.3L388.5,412.6ZM336,383L336.5,383.7L337.5,386.7L337.5,387.4L337.4,388L337.1,388.5L336.1,390L336.3,391.3L336.6,392L336.7,392.9L336.5,394L335.9,400.4L335.6,401.6L335.4,402.6L334.8,402.9L333.9,402.5L332.8,402L332.3,402L331.8,402.2L331.4,402L331,401.7L330.7,403.9L330.2,404.8L329.5,405.4L328.8,405.4L328,405.3L327.4,405.3L327,404.8L326.6,404.1L326,403.2L325.4,402.1L325.4,401.1L325.3,399L325.4,398.5L325.7,398.1L325.8,397.1L325.7,396.3L325.9,396L326.2,396.3L326.5,396.2L326.5,395.7L326.6,394.9L326.1,394.3L325.3,394L325.3,393.4L325.3,392.7L325.7,392.2L325.9,391.6L325.9,389.7L325.3,389.1L325.1,388L324.9,387.4L324.4,386.7L323.8,386.1L323.4,385.6L323.3,384.2L323.5,383.1L323.7,382.6L323.9,382.7L324.5,383.2L325,383.4L325.9,383.5L326.8,383.3L327.9,382.8L329,382.2L330.5,380.3L331.4,379.9L331.9,379.4L332.1,378.8L332.5,378.6L333,379.3L333.6,379.3L334.5,379.8L334.9,380.4L335.2,381L335.5,381.2L335.9,381.4L335.9,381.5L335.7,381.7L335.3,382.4L335.5,382.6ZM326,403.7L325.5,404.8L324.9,404L324.9,403.3L325,403.1L325.6,403.4ZM324.3,381.1L324,381.7L323.6,381.6L323.7,381.2L324.1,380.4L324.6,380.2L324.8,380.4L324.5,380.9ZM115.9,-5.521L116.9,-5.408L118.5,-6.161L119.2,-6.652L120.9,-8.353L121.9,-8.845L123.4,-8.732L124.1,-8.845L124.2,-8.656L123.2,-7.975L122.5,-7.748L121.4,-6.727L120.4,-4.392L119.6,-3.265L119.6,-2.778L120.5,-1.879L121.5,-1.393L122.5,-1.842L122.9,-1.655L123.3,-1.019L123.5,-0.347L123.5,0.287L123.3,1.627L122.8,3L122,4.112L122.1,4.482L122.7,4.667L125.6,3.927L125.9,3.964L126.1,4.334L126.1,5.036L126.3,5.627L126.6,6.18L126.5,6.733L125.2,8.498L126.7,7.396L127.9,7.065L129.9,7.617L130.8,8.278L131.2,9.379L132,9.012L132.2,9.049L132.7,9.672L132.7,10.33L132.4,11.32L132.3,12.19L131.9,12.56L131.3,12.81L131.1,13.14L131.4,13.8L131.8,14.45L132.4,14.49L132.5,14.81L132.5,15.18L132.4,15.61L132.2,15.9L131.9,16.05L131.5,16.52L133,17.57L133.2,17.93L133.2,18.5L133.1,19.12L132.9,19.76L132.4,20.16L131.3,20.23L130.6,20.66L130.9,21.38L130.9,22.31L130.7,23.35L129.8,24.99L129,25.85L128.2,26.38L126.8,26.2L126,25.77L126.1,27.16L125.3,28.01L125.4,28.72L125.7,29.07L125.6,29.99L125.2,30.91L124.6,31.86L123.9,32.46L122.4,33.2L121.3,34.43L120.4,34.92L118.4,34.88L116.3,35.65L113.3,37.29L111.3,38.61L109.8,40.11L107.8,42.49L106.3,43.53L105.4,43.77L103.7,44.01L102.3,44.67L97.58,45.87L96,46.52L95.78,47.14L95.12,48.06L95.09,48.37L95.37,48.64L95.43,48.95L94.83,50.04L93.67,50.79L93.14,50.79L92.47,50.11L92.16,50.14L92.06,50.24L92.06,50.45L92.44,51.27L91.72,51.6L88.67,52.56L83.44,51.88L81.39,51.13L78.84,50.01L77.3,49.7L75.16,49.63L73.39,48.03L72.58,47.03L72.51,46.62L72.61,46.14L72.77,45.83L73.05,45.66L73.65,45.66L73.71,45.49L73.27,44.7L72.83,44.98L71.69,46.11L71.19,46.04L70.53,45.49L70.5,44.94L69.21,44.73L68.07,44.05L66.94,43.08L66.78,42.7L67.32,42.15L67.22,42.05L66.81,41.94L66,42.12L64.77,43.36L64.23,43.67L56.14,43.94L54.09,44.08L53.69,44.25L53.34,43.46L53.02,41.63L52.9,40.45L52.99,39.86L53.28,39.17L53.72,39.31L54.13,39.83L54.5,40.63L54.95,41.01L57.75,40.04L58.91,39.41L59.38,38.79L59.95,37.78L60.58,37.22L60.86,36.73L61.43,35.13L61.84,34.39L62.28,33.83L62.85,33.48L64.11,33.23L63.26,32.85L62.5,32.85L59.83,34.53L58.94,34.53L58.98,34.28L59.35,33.8L60.27,32.95L59.64,32.92L59.38,32.53L59.35,31.76L59.83,30.45L62,28.79L62.75,28.54L62.97,28.19L62.69,27.94L62.25,27.76L60.05,29.5L58.47,30.1L58,29.99L57.18,29.32L56.93,29L56.55,28.23L56.61,27.76L57.37,26.41L57.24,26.13L56.71,26.02L55.32,24.74L53.09,24.89L47.61,24.14L46.48,24.46L44.62,25.53L43.48,25.88L42.98,25.67L42.51,25.1L42.07,24.31L41.69,23.35L41.85,22.67L42.57,22.28L43.11,22.1L44.59,22.31L46.41,21.63L47.58,21.49L47.89,21.38L48.59,20.66L48.93,20.48L49.44,20.73L49.69,21.24L51.55,20.45L52.17,20.09L52.24,19.84L52.52,19.55L53.4,19.98L54.16,19.98L55.07,19.69L56.71,19.59L60.33,19.51L60.9,18.86L61.15,18.32L61.46,16.91L61.34,16.63L59.04,17.93L58.53,17.89L55.89,17.2L54.95,16.45L55.26,15.79L56.65,14.45L58.09,13.36L60.2,12.19L60.71,11.72L60.77,11.17L59.35,10.22L56.68,10.48L55.98,9.342L53.78,8.645L52.3,9.086L51.51,8.388L49.59,9.342L45.37,10.73L43.67,11.72L42.79,12.01L41.75,11.24L39.96,10.33L37.94,10.07L37.76,9.562L38.92,7.947L39.74,7.653L40.56,7.8L42.1,8.902L43.17,9.269L41.82,7.617L41.85,6.991L41.75,6.033L41.34,5.627L40.94,4.556L41.09,4.223L41.63,4.075L42.7,4.445L45.28,6.291L46.54,5.959L47.23,5.295L48.14,4.778L47.89,4.519L45.69,4.482L44.49,4.112L43.89,3.593L43.36,2.667L43.55,2.258L44.18,1.887L46.07,1.998L44.81,0.398L43.96,-0.497L43.86,-0.945L43.93,-1.505L44.02,-1.879L44.21,-2.066L46.38,-1.132L46.85,-1.094L46.41,-1.692L45.47,-2.591L45.41,-2.928L45.81,-3.19L46,-3.716L46.03,-4.129L46.7,-4.467L47.36,-4.505L48.02,-4.166L50.1,-2.441L50.41,-1.954L50.51,-1.318L50.41,-0.497L50.47,-0.198L51.29,-0.459L51.95,-0.124L52.27,-0.198L53.09,-1.393L53.62,-1.132L53.97,-0.571L54.06,-0.049L54.13,0.622L53.97,2.072L54,2.258L54.57,1.441L55.54,1.403L55.67,0.994L55.7,-0.534L55.61,-1.805L55.51,-2.066L52.33,-3.866L51.8,-4.279L51.1,-5.182L51.26,-5.596L51.86,-6.011L52.8,-6.161L54.95,-6.124L55.16,-6.312L54.76,-6.803L53.75,-7.105L53.53,-7.369L53.4,-7.899L52.21,-7.596L50.88,-7.596L49.62,-7.899L49.59,-8.315L50.1,-8.883L51.13,-9.87L51.61,-10.13L53.06,-9.945L54.5,-10.25L55.67,-9.908L56.58,-8.921L57.91,-7.218L59.7,-6.124L59.86,-5.784L60.8,-4.881L62.69,-2.516L64.58,-1.132L64.67,-0.758L64.36,-0.347L63.63,0.137L63.79,0.398L64.77,0.734L65.43,1.664L65.49,2.072L64.86,4.962L64.55,5.553L64.14,5.885L62.38,5.332L62.82,6.254L64.08,7.212L64.36,7.764L64.17,8.278L64.3,8.425L64.77,8.131L64.96,8.425L64.86,9.306L64.67,10.04L64.36,10.62L64.45,10.88L64.96,10.81L65.4,10.95L66.12,11.76L66.72,14.2L67,14.96L67.22,14.27L67.48,12.49L67.73,11.57L67.95,11.54L68.17,11.24L68.33,10.7L68.67,8.682L69.87,7.175L70.44,6.733L70.94,6.623L71.22,6.807L72.1,8.388L72.64,8.645L72.92,8.572L73.3,7.506L73.77,5.443L73.87,3.112L73.61,0.547L73.77,-1.281L74.34,-2.403L75.06,-2.741L75.98,-2.291L76.67,-1.617L77.99,0.92L79.06,2.258L79.97,3.705L80.45,4.149L81.36,4.408L81.58,4.297L81.77,3.964L81.83,3.408L81.64,-0.235L81.89,-1.393L82.27,-2.216L83.94,-2.666L84.82,-3.19L85.7,-4.016L86.4,-4.467L87,-4.542L87.59,-4.204L88.19,-3.491L89.17,-2.104L90.4,0.175L91.97,1.887L92.79,4.593L92.95,5.073L93.14,5.11L93.36,4.778L93.48,4.26L93.51,3.075L93.07,1.478L91.62,-2.591L91.59,-3.341L91.78,-3.979L92.82,-4.016L95.18,-3.678L95.97,-3.04L97.58,-0.571L98.05,0.026L98.3,0.212L98.42,-0.124L99.05,-0.571L99.46,-1.132L100.2,-2.478L101.8,-4.956L102.1,-5.031L102.6,-4.843L103.4,-4.166L103.8,-3.678L104.5,-3.265L105.3,-3.416L106.4,-4.279L107.6,-4.806L108.1,-6.011L108.1,-6.576L107.1,-10.25L107.6,-11.01L109.7,-11.92L111.6,-12L112,-11.73L113.2,-9.945L114,-9.073L114.4,-8.353L114.5,-6.765L115,-6.161ZM402,319.7L401.8,319.5L400.8,318.9L399.9,318.1L399.4,317L398.3,316L396.7,315.1L396.2,314.9L396.1,314.7L395.4,313.6L395.1,313.2L395.1,312.6L394.9,312.3L394.7,312.1L394.5,311.3L394.4,310.8L394.2,310.4L392.5,310.3L393.9,308.9L394.6,308.5L395.4,308.6L395.7,308.5L395.8,308.3L395.9,307.8L396,307.4L396,307L395.9,306.8L395.6,306.7L395.4,305.7L395.6,305.3L395.8,305L395.5,303.8L395.6,303.4L396.2,303.4L396.7,303.1L397.2,302.8L397.3,302.4L397.6,301.6L397.3,300.7L395.5,300.1L395.4,299.8L395.8,299.6L396.3,299.2L396.5,298.9L396.9,298.9L397.4,299L398.3,299.7L398.6,299.8L398.9,299.6L399.3,299.6L400.2,299.6L401.1,299.4L400.9,298.7L400.9,298.2L400.7,297.7L400.8,297.3L401.1,296.9L401.2,296.1L401.8,295.5L402,295.5L402,295.5L402,319.7ZM335.1,301.8L333.6,300.8L332.1,299.9L331.6,299.9L329.5,300.1L329.4,300L329,299.5L328.7,299.3L328.5,299.4L328.4,299.6L328.1,299.5L327.2,298.6L326.8,298.5L326.2,298.6L325.6,299.1L325.3,299.7L325.4,300L325.7,300.1L326.6,300L326.7,300.1L326.7,300.3L326.7,300.5L325.9,300.7L325.7,300.9L325.5,300.9L325.4,300.9L324.6,300.7L323.5,300.7L322.6,301.1L321.1,301.3L319.1,301.2L318.4,300.9L318,300.7L317.6,299.9L317.7,298.6L318.2,296.8L318.3,295.6L318.1,294.8L318.4,293.5L319.2,291.9L319.7,290.2L320,288.4L320.4,287.2L321.1,286.4L322.8,284.1L323,283.9L322.9,282.8L322.5,282.6L321.8,282.3L320,281.8L318.4,281.6L317.6,281.3L317,280.4L316.5,280.4L315.8,280.7L314.8,280.9L314.1,280.7L313.6,280.7L313.3,280.9L313.2,280.8L313,280L312.6,279.8L312.1,279.6L311.7,279.7L311.4,280.1L311.1,280.4L310.7,280.3L309.6,278.5L309.3,278.1L309.2,277.8L309,277.1L308.3,276.5L307.6,276.3L307.3,276.4L307.3,275.5L307.6,274.4L307.8,273.8L308.2,273.3L308.5,272.9L308.6,272.3L308.6,271.7L308.1,271.6L307.1,271.1L306.5,270.7L306.1,270.1L305.5,269.3L305.2,268.5L305.2,267.7L305.3,267.3L305.3,267L305.8,265.8L307.4,264.6L307.3,263.5L307.3,262.8L306.9,262.3L306.1,262.1L305.8,261.8L305.7,261.5L306.3,260.8L305.6,260.2L305.3,259.6L304.3,258.9L304.2,258.6L304.7,256.5L304.3,255.9L303.9,255.6L303.4,255.4L303.1,255.1L303,254.8L303.1,254.6L303.7,254.6L303.9,254.4L305.4,253.1L305.5,252.9L305.3,252.8L305,252.7L304.9,252.4L304.9,252.1L305.7,250.2L306,249.5L306,248.9L306,248.4L305.5,247.5L305.1,246.8L305.1,246.3L304.7,246L303.8,244.5L303.8,243.9L304.3,243.5L305.1,243.2L305.3,243L305.7,242.8L306.9,243.2L307.4,243.6L307.5,243.5L308,243.1L308.8,243.2L310.8,242.4L311,242L311.3,241.6L311.3,241.4L310.5,240.6L310.5,240.3L310.6,240L310.8,239.7L311.3,239.6L311.8,239.2L312.8,238.2L313.2,237.3L313.3,236.4L313.3,235.7L313,235.2L312.7,234.8L312.3,234.9L311.5,234.8L310.8,234.5L310.4,234L310.3,233.6L310.5,233.3L310.6,232.9L310.4,232.6L310.5,232.3L310.8,232.1L313.1,232.1L313.3,231.8L313.5,230.5L314,228.4L314.6,227.3L314.7,226.8L314.7,224.1L314.8,222.7L314.3,222L313.5,221.3L313.7,219.8L314,218.6L314.8,217.2L315.5,216.8L318.5,216.6L321.8,216.7L323.2,218.8L322.7,219.9L323.5,220.5L323.9,220.3L324.2,219.3L324.4,218.2L324.7,217.9L325.7,218.7L326.1,219.3L326.1,221L326.5,218.6L326.2,216.9L326.4,215.3L326.8,214.5L327.2,213.9L329.6,214.5L332.3,214.2L333.3,214.8L335.6,218L336.4,218.5L337.4,218.7L336,218L333.2,214.2L332.4,213.7L331.1,213.6L330.3,213.2L329.8,212.6L329.7,212.1L329.7,208.2L329.2,207.6L328.6,207.4L328.2,207.7L327.4,207.7L327.3,206.8L327.4,206.1L329,205.7L330.1,205.1L330.1,204L329.5,203.2L328.7,201.6L327.7,200.2L327.6,198.5L329.3,198.5L329.7,198.6L332.1,199.4L332.7,199.9L333.5,200L334.9,199.4L335.9,199.2L336.3,199.5L336.9,199.7L337,199.7L337,199.9L338.3,200.4L338.8,201L339.4,202L339.5,203.4L338.7,204.4L338.1,205L340.5,204.8L340.8,205.3L341.1,206L342.4,205.5L345.6,207.3L347.6,206.5L348.1,206.4L348.6,207.9L348.1,209.4L346.3,210.9L346.7,211.9L347.3,212.1L348.9,211.9L351.5,212.9L352,212.6L354.1,210.4L355,209.9L357.7,209.6L358.2,208.7L359.3,207.8L360.1,206.9L361.8,205.1L363.6,205.4L364.6,205.8L365.8,205.9L366.8,207.9L369.4,210L371.8,209.8L372.7,211.8L373.1,214.3L373.8,215L374.4,215.5L376.4,216.1L376.5,216.1L376.6,216.4L376.7,217.6L376.8,218.6L377.9,222.6L377.8,223.6L377.8,223.9L377.5,225.2L376.8,226.4L375.9,227L375.5,227.7L375.4,228.6L376.5,229.9L378.7,231.9L379.6,233.6L379.2,235L379.1,236L379.3,236.7L379.6,237.2L380.2,237.6L380.4,238.2L380.3,239L380.4,239.6L380.8,240L380.8,240.1L380.6,240.7L380.3,241.7L380.1,242.5L379.5,243.5L379.7,244.4L380.2,245.4L380.6,245.9L380.7,246.4L380.5,247.6L380.6,247.9L382.2,248.7L382.4,249.1L382.6,249.9L383.1,251.7L382.7,253.9L382.3,255.1L381.4,257L381.3,257.2L381.2,257.4L380.9,257.7L380.6,257.8L380,257.5L379.6,257.2L379.7,256.4L379.5,256.3L379.1,255.8L379,255.3L378.7,255.1L377.4,254.8L377,254.7L376.7,254.8L376.5,255.2L376.6,255.5L376.9,255.9L377.5,256.4L377.5,256.6L376,257.1L375.1,257.7L374.2,257.9L373.3,258.5L371.6,259.1L370.4,259.3L370.1,259.4L369.6,260.5L369.3,260.7L369,260.6L368.8,260.4L368.5,260.6L368.2,260.9L367.8,261.1L367.6,261L367.1,262L365.6,262.2L365.5,262.7L365.2,263.3L365,263.4L364.3,263.2L363.4,263L362.9,263.4L362.3,263.5L361.5,263.6L360.7,264.2L359.9,265.2L359.4,266.1L359.2,266.5L358.8,265.6L358.3,265L357.9,264.7L357.6,264.7L357.5,264.8L357.5,265.3L357.9,266L358.3,266.5L358.3,266.9L358.6,267.6L359.2,268.4L360.1,269L360.8,269.5L361.2,270.4L361.2,270.6L361.1,270.9L360.9,271.2L360.7,271.7L360.2,272.5L360.3,272.8L360.8,273.3L361.1,273.8L361.6,274.7L362.3,276.2L362.7,276.9L363.3,277.5L363.9,278L364.7,278L365.7,278.9L366.7,280.3L367.5,280.9L368,281.1L368.5,281.6L368.8,282.3L369,282.7L369.3,283L370.3,282.9L371.5,284.1L372.2,284.9L372.6,285.5L372.5,285.8L372.5,286.6L372.5,287.4L372.4,287.9L371.8,288.5L371.5,288.6L371.4,288.7L369.8,287.9L369.6,288.1L369.5,288.2L369.1,290.4L368.8,290.9L368.3,291.3L367.4,291.7L366.7,291.8L366.2,292L364.6,292.9L363.9,293.5L363.4,294.2L363.4,294.6L364.2,295.8L365.1,297L365.1,298.1L364.7,298.9L364.6,299.2L364.9,299.3L365.4,299.4L365.8,299.5L366,300.1L365.9,301.1L365.8,302L365.6,302.4L365.2,302.4L364.4,302L363.8,301.6L363.6,301.3L363.6,300.9L363.7,300.7L363.5,300.3L362.7,299.9L361.9,300.1L361.3,300.3L361,300.3L360.6,300L359.9,299.7L359.1,299.5L358.6,299.3L358.5,299.4L358.5,300.2L358.4,300.6L354.3,301L353,301.5L352.1,302L351.4,302.3L351.3,302.6L350.6,303.1L349.9,303.2L349.7,303.1L349.2,303.3L348.4,303.5L347.8,303.4L347.6,303.1L347.1,302.5L346.9,302.1L346.9,301.8L345.7,301.8L345,301.5L343.5,301.6L343.1,301.4L343,301.6L342.8,303.2L342.5,303.8L342,304.5L341.4,304.9L340.9,305L340.9,304.5L341,303.9L340.6,303.7L340.1,303.7L339.8,303.5L339.9,303L339.8,302.8L339.6,302.5L339,302.1L337.9,301.4L337.1,301.1L336.8,301.4L336.2,301.8L335.3,301.7ZM371.7,206.4L371.9,207.4L371.7,207.9L370.7,207L369.7,207L369.1,208.4L368.7,208.4L367.1,207.2L366.9,206.6L366.9,206.1L367.1,204.4L367,203.9L367.5,203.3L367.6,202.5L368.4,201.6L369.2,201.6L369.4,202.3L369.8,202.8L371,203.4L371.2,203.7L371.4,204.1L370.8,204.8L370.6,205.1L370.8,205.7ZM376.1,212.8L376,213.3L376.1,214L375.7,213.9L374.7,214.1L373.6,213.9L373.4,213L373.6,212.1L373.1,211.5L372.7,211.2L372.7,210.7L372.7,210.2L374.6,211.6ZM350.5,205.8L349.1,205.9L348.6,205.3L348.1,205.1L348.4,204.3L348.8,204.1L350,204.6L350.5,205.5ZM324.4,200.2L324.3,200.6L324.4,198.4L325.3,196.1L325.7,196.2L325.3,196.8L325.2,197.2L325,198.1L325.1,198.5L327.3,198.7L327,199.1L324.8,199.3ZM326.9,201.4L326.6,201.7L325.7,201.7L325.3,201.4L325.4,201L325.9,200.7L326.2,200.6L326.8,200.8ZM334.7,360.4L334.5,362.1L334.6,362.6L335,363L335.1,363.4L335.4,368L335.3,368.4L334.2,370.2L334,370.8L334,373.1L333.8,373.7L333.4,374.3L332.7,376.2L332.1,377.1L330.5,376L329.6,375.6L329.1,375.1L328.8,374.7L329,374.3L329.5,373.8L329.5,373.4L328.5,373L328,372.7L328,372.2L328.4,371.5L328.2,370.8L327.7,370.8L327.2,370.7L327.2,370.4L327.5,370L327.9,369.4L327.9,368.8L327.4,368.5L326.9,368L326.7,367.3L327.1,366.9L327.7,366.6L327.3,365.9L326.9,365.8L326.7,365.7L326.9,365.4L327.3,364.9L328,363.4L328.9,362.7L330.5,362.3L330.9,362.1L331.3,361.6L331.7,361.2L332.2,361.3L332.7,361.5L333,361.7L333.3,361.5L333.5,360.8L333.3,360.3L333.4,358.7L333.7,357.9L334.1,357.8L334.6,358.3L334.5,358.7L334.7,359.7ZM318.4,300.9L317.3,301.5L317.1,302L316.7,302.7L316,303L315.4,303.1L314.8,303L314.5,302.7L314.5,302.5L314.2,302.3L313.5,302.3L312.7,302.7L312.1,303.5L312.3,303.9L312.9,304L313,304.2L313,304.4L312.8,304.7L312.6,305.1L311.4,306.5L310.3,307.8L310.1,308.2L309.7,308.5L308.3,309.2L308.1,309.5L308,310.7L307.9,311.7L306.8,312.6L305.7,313.5L305.4,314.1L305.2,314.7L304.9,315.5L304.8,315.8L305.3,316.5L305.3,317L305.1,317.7L304.6,318.3L304,318.5L304,319.4L304.3,319.5L305,319.4L306,318.8L306.7,318.1L306.3,317.4L306.2,317.2L306.3,317.1L307.1,316.3L308,315.8L309.3,315.7L310.9,316L311.1,316.1L311,316.6L311.1,317.3L311.4,317.8L311,319.2L311.3,319.6L311.8,320.1L312.1,320.6L312.6,321L313.1,321.8L313.2,322.2L312.5,322.9L311.3,323.6L311.2,324L311.2,324.5L311.3,324.9L312,325.4L312.7,326.5L313.1,327.5L314.1,328.5L314.4,328.8L314.3,329L314,329.4L313.7,330.8L313.3,331L312.9,331.1L311.6,332.1L311.1,331.9L310.3,332L309.8,332.3L309.8,332.9L310.3,333.5L310.6,334.1L310.7,334.7L311.3,335.2L312,335.5L312.5,335.5L312.8,335.6L313,335.9L313.3,337.2L313.1,337.6L312.7,337.7L312.4,338.3L311.9,339.1L311.6,339.8L311.9,340.3L312.1,340.8L311.9,341.2L312.1,341.9L312.7,342.6L314.3,343.6L315.8,344.3L316.3,344.4L318.2,344L318.6,344L318.8,344.6L318.9,345L318.7,345.6L318.2,346.4L317.6,347.1L317.2,347.6L317.3,348.2L317.3,348.8L316.9,349L316.8,348.9L316.6,348.8L316.5,348.8L316.4,349L316.3,349.2L315.3,349.7L314.6,350.1L311.8,352.8L310.5,353.6L310.3,354L310,354.9L309.3,355.7L308.6,356L306.9,356.4L305.3,357.2L304.6,356.9L302.6,356.9L301.4,355.9L299.1,355.3L298.3,353.9L297.3,353.8L296.6,353.9L296.2,353.7L296.1,353.2L296.1,352.7L295.3,352.9L294.8,352.9L294.4,353.1L294.2,353.3L293.8,353.2L293.7,353.2L293.7,353.5L293,353.6L292.3,353.4L290.4,352.7L290.1,352.6L288.7,352.3L288.2,352L287.8,351.3L287.4,351.1L287.2,350.9L286,351.3L285.6,351.8L284.9,352.5L280.3,355.8L279.5,357.1L278.5,359.1L278.4,360L278.8,362.9L279.8,364.5L279.9,364.8L279.4,364.8L278.5,364.6L277.8,364.4L277.1,364.5L276.4,364.9L275.8,365L275.4,365.1L275.1,365.3L275,365.6L275,365.9L274.3,365.8L272.6,365.3L271.1,364.9L270.1,365.4L269.6,365.7L269.2,365.7L268.9,365.3L268.7,364.9L268.1,364.5L266.7,364L266.8,363.7L267,363.3L267,363.1L266.7,362.8L265.5,362.4L264.9,362.3L264.6,362.6L264.3,362.9L263.6,361.7L263.1,361.5L262.4,361.5L261.5,361.1L260.6,360.7L258.5,360L257.9,359.9L257.7,360L257.5,360.4L257.4,361.6L257.3,361.8L256.3,361.8L255.1,361.6L254.5,361.7L254,361.7L253.5,361.4L251.4,361.8L251.1,361.6L250.6,361L250,360.6L249.5,360.4L249.2,360.1L248.8,360.1L248.3,360.3L247.6,360.4L247,360.4L246.7,360.5L245.3,359.1L245.1,358.8L244.4,358.7L243.6,358.7L241.5,357.8L240.5,357.3L240.4,357.1L240.4,356.9L240.3,356.9L240,357.3L239.8,357.6L239.6,357.7L239.3,357.6L239,357.4L238.8,357.2L239,356.8L239.3,356.3L239.5,355.7L239.5,355.2L238.9,354.9L238.2,354.7L237.6,354.7L236.8,354.4L236.5,354.2L236.1,353.6L236.1,353.2L237.5,352.8L238.8,351.3L240,345.8L240.9,339.2L241.6,337.9L242.4,337.6L241.7,336.7L241.3,337.1L241.1,337.6L240.9,337.9L241.4,331.7L241.7,329.5L242.3,327.1L243.6,328.1L244.6,329L245.1,329.8L245.8,332.6L246.2,333.2L247,333.7L246.7,333.1L246.2,332.6L245.4,329L244.9,327.9L244.1,327.1L241.6,325.2L241.3,324.8L241.2,324.1L242.1,324.2L242.8,324.5L242.7,324.1L242.5,323.7L242.2,322.2L241.9,318.7L241.9,318.1L241.8,317.3L241,317.2L240.3,317.1L239.6,316.8L236.2,314.7L235,312.6L233.8,311L233.5,310.3L233.5,309.6L234.2,308.1L233.6,307.1L233.1,306.9L232.6,306.5L233,305.7L233.4,305.2L234.1,305L235,305.2L235.9,305.7L236.5,305.8L234.5,304.6L231.2,305L230.5,304.8L229.9,304.5L229.7,303.6L230.2,303.2L230.6,302.5L230.1,302L229.5,301.8L228.5,301.8L227.6,301.9L227.4,301.6L227.9,300.8L227.4,300.5L226.8,300.6L225.9,300.8L225,300.5L224.2,299.6L223.6,299.6L223.3,299.7L222.7,299.3L222.1,299.3L221.7,299.4L221.1,298.8L217.7,297.7L216.2,297.6L214.9,298.1L214.1,297.9L213.5,297.2L213.1,296L210.9,295.1L211.3,294.5L212.3,294.3L213.5,293.9L213.9,293.4L213,292.8L212.3,292.6L212.1,292.4L211.8,291.8L212.2,291.5L212.5,291.7L213.3,291.8L214.7,291.6L214.2,291.1L213.6,290.9L213.4,290.8L212.2,290.7L211.7,290.9L210.5,290.8L210.3,290.2L210.2,289.7L210.5,288.5L212.2,287.5L216.3,286.3L218.1,286.5L219.3,286.2L220.8,285.5L221.4,284.9L223.5,284.5L225.5,285.2L227.4,287.7L228.3,288.5L230.4,287.1L233.6,287.1L234.3,287.9L234.5,287.3L235.1,286.4L235.6,286.8L235.9,287.3L239.2,287.2L239.8,287L238.8,286.4L238.1,285L238,279.7L237,278.2L235.9,275.8L235.4,274.4L235.4,273.9L235.6,273.2L236.9,273.3L237.9,273.4L239.9,272.9L240.8,273.3L240.7,274.4L241,275.8L241.4,276.4L241.8,277.2L243.4,277.1L245.1,277.6L247.3,277.7L250.4,278.4L251.7,278L253,277L255.4,276.4L255.7,276.1L254.2,276.2L252.9,275.6L252.8,274.9L252.9,274.3L253.4,273L257.2,270.8L259.9,270.2L262.7,269L264.1,267.7L265,266.1L265.4,265.8L265.7,265.5L265.4,264.9L265.6,258.8L265.9,257.7L266.4,256.8L267.3,256.1L268.5,255.3L273.2,254.3L273.9,253.9L274,254.5L274.3,255.3L274.5,255.8L274.4,256.4L274.5,256.9L275.1,257.8L275.9,258.6L276.6,259.2L276.8,259.1L277.3,259L278.2,258.4L279,258.3L279.4,258.7L279.6,258.9L280.1,259.9L280.2,260.8L280.4,261.7L280.8,262L282.2,262.1L283.2,262.4L283.5,262.7L283.9,264.5L284.1,264.8L284.3,264.5L284.6,264.3L284.9,264.2L285.5,264.3L286.4,264.4L287.2,264.5L288.3,265.6L288.3,265.9L288.1,266.5L288,267L288.1,267.2L288.5,267.7L288.4,268.2L288.1,268.6L288,269L288,269.2L288.1,269.3L288.3,269.5L290,269.7L291.5,269.5L292.5,268.9L292.7,268.3L293,267.6L293.5,267L293.9,266.8L294.3,267.1L293.7,269.5L294.1,270.1L294.2,271L294.4,271.8L294.9,271.8L295.6,271.9L296.1,272.3L296.6,272.7L297.4,273.2L298,273.3L298.2,273.7L298.6,274.1L299.3,275L300,275.6L300.3,275.6L300.9,275.3L301.7,275.2L302.4,275.2L302.7,275.6L303.4,275.8L303.6,276L303.9,276.3L304.4,276.4L304.9,276.3L305.3,275.9L305.8,275.7L306.4,275.8L306.7,276L307.3,276.4L307.6,276.3L308.3,276.5L309,277.1L309.2,277.8L309.3,278.1L309.6,278.5L310.7,280.3L311.1,280.4L311.4,280.1L311.7,279.7L312.1,279.6L312.6,279.8L313,280L313.2,280.8L313.3,280.9L313.6,280.7L314.1,280.7L314.8,280.9L315.8,280.7L316.5,280.4L317,280.4L317.6,281.3L318.4,281.6L320,281.8L321.8,282.3L322.5,282.6L322.9,282.8L323,283.9L322.8,284.1L321.1,286.4L320.4,287.2L320,288.4L319.7,290.2L319.2,291.9L318.4,293.5L318.1,294.8L318.3,295.6L318.2,296.8L317.7,298.6L317.6,299.9L318,300.7ZM241.5,322.5L241.2,323.6L240.6,322.6L239.8,321.7L239.7,320.8L239.7,320.6L240.6,321.2ZM-32.37,-42L-36.08,-38.43L-37.24,-37.91L-37.74,-37.44L-38.19,-36.72L-39.38,-33.49L-39.85,-32.51L-40.8,-31.24L-41.21,-31L-41.33,-30.49L-41.15,-29.66L-41.43,-28.33L-42,-26.74L-42,-42ZM193.9,82.99L193.7,83.69L193.5,83.66L192.7,82.83L192,82.34L191.8,81.93L191.6,81.25L192,81.19L192.4,81.31L193.5,81.96L193.9,82.6ZM193.2,89.63L193.4,90.2L193.2,90.14L192.6,89.51L191.6,87.98L191.2,86.73L191.1,86.16L191.4,86.22L191.6,86.73L192.6,87.09L192.8,87.34L192.8,87.95L193.2,88.68ZM188.9,76.78L189.7,77.5L190,78.02L189.6,78.5L189,78.63L188.3,78.54L187.3,77.98L186.9,76.75L187.7,76.78L188.5,76.56ZM193.8,75.13L193.6,77.63L193.2,77.63L192.6,76.91L192.1,76.78L192,77.14L192,77.6L192.2,77.89L193,79.57L193.1,80.06L193,80.28L192.2,79.8L190.5,77.63L189.1,74.05L191,73.46L192.3,74.41ZM195.8,74.54L195.4,75.91L194.7,75.68L194.6,75.55L194.4,75.19L194.5,74.18L194.5,72.71L195.2,73.92ZM361.7,184.9L361.7,186.5L361.5,186.9L361.2,187.2L360.3,187.5L359.6,188L358.9,188.8L358.6,189.9L359.1,190.7L360.1,191.1L360.4,192.6L359.6,193.4L357.5,194.1L357.3,195.9L357.4,197.4L357.4,198.4L357.2,199.8L355.6,200.5L354.5,198.3L354.5,197.4L354.1,196.4L354.1,195.5L353.7,194.2L352.2,193.8L351.6,193.7L350.7,194L350.5,193.9L349.5,192L349.7,189.9L349.1,188.8L349,188.3L349.1,187.8L348.6,187.3L348.1,187.1L347.8,185.9L348.4,185.6L350,185.8L350.4,185.7L350.8,185.4L352.1,183.5L352,183L352.2,182.5L353.5,182.2L354.1,183L354,184.2L354,185.8L354.9,186.2L355.2,186.3L355.5,185.1L355.7,184.6L356.1,184.2L356.2,183.2L356,182.5L355.6,182.1L357.1,180.7L358.7,179.7L359.6,179.7L360.5,179.9L361.3,180.3L361.8,180.6L362.1,181L361.5,182.2L361.3,182.8ZM337,199.7L336.9,199.7L336.3,199.5L335.9,199.2L334.9,199.4L333.5,200L332.7,199.9L332.1,199.4L329.7,198.6L329.3,198.5L327.6,198.5L327.5,197.2L327.3,196.3L326.8,195L327.6,194.6L327.5,192L327.2,190.6L324.8,189.2L322.9,187.8L323.3,183.1L323.5,181.9L322.8,179.4L322.9,176.5L323.2,172L323.8,171.8L324.2,171.8L325.9,172.7L326.6,172.8L327.1,173.5L327.6,173.8L328,173L328.2,171.7L329.5,170L330.5,169.3L331.1,169L331.7,169.7L332.2,170.5L332.4,168.8L332.7,165.5L331.5,165L330.4,165.5L329.4,167.5L328.5,170.1L327,170.4L325.9,171.1L324.8,170.3L324.1,169.7L324.1,168.7L324.3,168.1L325.5,166L327.2,163.9L328.9,164L330.1,163.3L330.8,163.2L333.1,163.4L334.3,162.9L335.3,162L337.6,158L338.9,156.3L341.5,155.7L343.9,153.8L344.6,153.8L343.5,155.2L343.3,155.8L343.2,156.6L343.9,158.5L343.8,159.6L343.8,161.8L343.1,162.9L342.2,165.4L341.8,165.7L341.8,168.6L341.9,169.2L341.7,171.8L342.6,172.8L343.5,173.4L346.6,173.4L347,173.8L347.4,174.6L347.1,175.9L346.7,176.9L345.9,177.8L344.7,178.4L344,178.4L343,177.2L342.5,177.6L342,178.2L341.2,181.5L340.9,183.7L340.7,183.9L340.2,183.5L339.4,183.5L338.4,184L338.9,184.5L339.5,185.3L339.2,185.7L338.4,186.1L337.6,187L337.3,187.7L336.3,188.4L335.7,189.4L336,190.7L336.1,191.7L336.4,192.9L336.1,193.9L334.9,195.2L334.5,196.4L335.5,196.4L336.2,196.7L336.5,197L336.9,197.5L336.7,198.1ZM344.9,187.6L345.3,188.4L345.7,190.2L346.4,192.1L346.1,192.9L346.3,193.9L346.1,195L344.7,196.2L343.1,196.3L341.5,195.7L339.2,194.5L339,193.9L338.6,193.5L338,191.6L338.1,189.1L339.2,188.8L341.8,187.6L342.3,187.8L343,188.4L343.7,188.4L344.7,187.6ZM351.1,198.7L352.7,199.6L353.8,199.6L354.5,199.9L354.6,200.5L354.7,201.9L353.9,202.3L353.1,202.1L352,202.6L348.3,200.5L348.4,198.6L348.5,197.9L350.3,197.7ZM345.7,200.8L345.3,200.9L344.8,199.7L344.7,199.3L345.3,198.5L345.7,197.6L346.7,196.2L347.3,194.6L347.6,194.6L347.3,196.1L346,200.1ZM361.5,197.5L361.2,197.8L359.9,197.6L358.4,198.6L357.8,198.3L358,197.6L358.2,197.4L358.7,197.1L359,196.7L359.1,196L359.5,196.4L360.4,196.5L360.8,196.7L361.2,197.1ZM362.6,187.9L361.8,188.5L361.6,188.5L361.3,187.6L361.7,187L362,186.6L362.2,186.6L362.4,187.1ZM343.5,199.3L342.9,199.5L342.2,199.2L341.1,197.9L341,197.6L341.6,197.8L342.3,198.5L342.9,198.6L343.7,199.1ZM339.8,198.7L338.9,199L338.4,198.6L337.5,198.5L337.3,196.1L337.3,196L337.8,196.1L339.2,197.2L339.8,198.4ZM344.6,184.9L344.4,185.2L343.9,184.9L343.8,183.9L344,183L343.8,182.2L344,181.7L344.8,182.9L345,183.5L344.8,184.2ZM348.5,161.7L348.1,162L346.9,161.5L347.4,160.8L348.8,160.4L349.5,160.5L348.7,161.3ZM383.7,196.7L383.4,196.9L382,196.5L380.2,195.4L380.5,193.4L380.9,192.5L384.1,194.8L384.2,195.7ZM402,284.3L401.6,284.5L401,285.3L400.4,286.7L400.1,287.7L399.9,287.4L399.4,286.3L399,286.2L398.4,286.1L398,285.9L397,285.3L396.5,285.1L395.9,285.1L395.4,285.4L394.9,285.9L393.7,285.9L392.2,285.7L390.2,284.2L389.7,284.2L389.1,284.3L388.2,283.9L386.5,283L385.7,282.8L385.2,282.9L384.7,283.1L384.4,283.1L384.2,282.8L383.6,282.4L382.9,282.4L382.7,282.6L382.5,284.7L382.3,285.4L381.4,285.4L381.1,285.8L380.4,286.8L380.3,287.7L379.1,287.5L378.5,287.4L378,287.5L377.4,288L375.9,288L374.7,287.7L374.1,286.5L373.6,286L372.9,285.6L372.6,285.5L372.2,284.9L371.5,284.1L370.3,282.9L369.3,283L369,282.7L368.8,282.3L368.5,281.6L368,281.1L367.5,280.9L366.7,280.3L365.7,278.9L364.7,278L363.9,278L363.3,277.5L362.7,276.9L362.3,276.2L361.6,274.7L361.1,273.8L360.8,273.3L360.3,272.8L360.2,272.5L360.7,271.7L360.9,271.2L361.1,270.9L361.2,270.6L361.2,270.4L360.8,269.5L360.1,269L359.2,268.4L358.6,267.6L358.3,266.9L358.3,266.5L357.9,266L357.5,265.3L357.5,264.8L357.6,264.7L357.9,264.7L358.3,265L358.8,265.6L359.2,266.5L359.4,266.1L359.9,265.2L360.7,264.2L361.5,263.6L362.3,263.5L362.9,263.4L363.4,263L364.3,263.2L365,263.4L365.2,263.3L365.5,262.7L365.6,262.2L367.1,262L367.6,261L367.8,261.1L368.2,260.9L368.5,260.6L368.8,260.4L369,260.6L369.3,260.7L369.6,260.5L370.1,259.4L370.4,259.3L371.6,259.1L373.3,258.5L374.2,257.9L375.1,257.7L376,257.1L377.5,256.6L377.5,256.4L376.9,255.9L376.6,255.5L376.5,255.2L376.7,254.8L377,254.7L377.4,254.8L378.7,255.1L379,255.3L379.1,255.8L379.5,256.3L379.7,256.4L379.6,257.2L380,257.5L380.6,257.8L380.9,257.7L381.2,257.4L381.3,257.2L382.1,257.1L382.8,256.8L382.9,256.2L382.9,255.2L382.9,255L384.1,255.3L385.2,255.8L385.4,256.8L385.7,257.3L386.1,257.8L386.4,258L387,258L388.6,258.7L389.4,258.8L390.2,259.2L390.8,259.7L391.3,259.7L391.5,260.3L391.8,260.6L392.3,260.3L394.2,260L394.9,260.4L395.3,260.9L395.4,261.1L395.2,261.5L395,261.9L394.8,262.1L394.2,262.3L393.8,262.7L393.6,263.1L393.7,263.6L394.3,263.9L394.7,263.9L394.8,264.2L396,265.5L397,267.3L397.3,267.6L397.7,267.6L398.1,267.4L398.5,266.8L399.1,266.4L399.6,266.2L400.4,265.7L400.4,265.4L399.7,264.2L399.3,263.3L399.4,263.1L400.3,263.3L401.8,263.8L402,263.9L402,284.3ZM402,331.7L401.6,331.6L399.8,330.3L398.7,331.3L396.4,331.1L395.7,331.7L394.9,333L394.3,333.6L393.7,333.4L393.1,332.8L392,331.4L391.4,331.1L390.8,331.1L390.2,331.2L389.9,331.5L389.7,333.6L389.4,335.5L389.4,336.6L390.7,337.7L392.2,339.4L392.6,339.6L392.9,340.2L393.2,341.7L393.6,343.4L394.3,344.5L395,345.3L395.9,346L396.9,347.1L397.7,348.2L398,348.7L399.6,350.3L401.2,351.8L402,352.2L402,355.8L402,355.8L401.6,355.5L399.6,353.4L397,352.5L395.2,351.5L394.1,351.7L392.9,352L392.1,352L391.6,351.8L391.2,351.2L391.3,350.8L391.2,350.2L390.2,349.2L388.7,348.3L387.4,347.1L384.6,343.9L384,342.9L384.6,342.7L385,342.7L385.5,342.5L386.2,342.5L387.1,342.7L386.3,342L385.3,341.3L382.8,338.6L382.1,337.4L382,336L382.2,334.1L381.7,332.7L379.8,331L379,330L377.6,329.5L377,329.5L376.6,330.2L376.3,331.8L375,333.8L374.6,334.6L373.9,335.8L373.4,335.8L373,335.7L372,333.8L371,332.4L370.9,331.7L370.8,330.9L370,327.7L370.5,327.3L370.5,327.3L370.9,327.8L373.2,328.4L373.7,328.2L374,327.7L374,327.5L374.2,327.4L375,327.8L375.6,327.7L376.7,327.7L377.5,327.7L378,327.4L378.7,326.3L378.9,325.7L379.2,325.6L379.4,325.6L379.5,326.1L379.9,326.6L380.6,327.4L381.2,327.8L381.7,327.9L382.1,327.6L382.6,327.5L384,328.1L385.1,328.2L385.9,327.9L385.8,327.5L385.5,327L385.5,326.5L385.5,326.1L386.1,325.7L386.1,325.5L385.4,324.8L385.4,324.6L386.9,323.8L388.5,323.3L388.7,323L388.8,322.5L388.9,321.5L388.8,320.7L388.2,319.9L388.2,319.5L388.3,319.1L388.6,318.7L389.1,318.6L389.8,318.3L390.4,318L391.1,317.8L391.7,317.4L392.3,316.6L392.6,316.4L393.7,316.6L393.9,316.4L393.8,315.1L394,314.8L394.4,314.7L394.5,314.5L395.5,314.6L396.2,314.9L396.7,315.1L398.3,316L399.4,317L399.9,318.1L400.8,318.9L401.8,319.5L402,319.7L402,331.7ZM402,359.1L401.2,359.1L400.3,358.9L399.2,359.3L398.2,359.1L397.8,358.8L397.6,358.5L397.4,358.1L397.4,358.1L399,358.4L400.2,358.3L401.3,358.5L402,358.9L402,358.9L402,359.1ZM402,356.6L401.6,356.7L397.7,356.6L396.5,356.3L395.3,355.7L395,355.5L396.3,355.3L397.5,355.5L397.8,356L401,356.3L402,356.5L402,356.6ZM398.6,354.8L397.2,354.8L396,354.6L395.4,354.3L395.5,353.9L395.7,353.4L397,353.5L399,353.9L399.5,354.3L399.4,354.5ZM385,345.2L385.2,345.7L384,344.9L383.6,344.3L383.5,344.1ZM381.3,334L380.2,334.3L379.7,333.8L379.6,333.4L378.7,333.3L378.2,332.8L378.1,332.5L378.8,331.9L379.2,330.9L379.7,331.5L380.4,332.6L380.7,332.9ZM381.5,336.7L381.7,337.3L380.9,336.8L380.2,336.6L380,336.2L380.1,335.9L380.3,335.6L380.8,335.6L380.9,335.9ZM384.6,341.9L384.4,342.2L383.8,341.6L383.3,341.2L382.9,340.7L382.2,340.1L382,339.3L380.9,337.9L380.7,337.5L381.3,338.1L381.7,338.4L382.1,338.5L383,339.5L384,340.7L385.1,341.7L384.8,341.8ZM384.6,347L384.8,347.1L384.7,347.2L384.3,347.1L384.2,347.1L382,344.5L381.8,344L382.6,344.6ZM386.2,346.3L386.8,347.2L386.3,347L385.7,346.5L385.3,345.9ZM378.5,337.9L378.4,338.4L377.9,337.8L377.6,336.7L377,335L376.9,334.5L377.2,334L377.2,333.5L376.7,331.9L377.1,331.7L377.4,331.7L377.5,332.7L377.7,333.4L378.3,334.1L378.2,335.4L378.3,337.1L378.4,337.5ZM402,358.2L400.9,357.9L401.6,357.7L402,357.7L402,358.2ZM402,352.2L401.2,351.8L399.6,350.3L398,348.7L397.7,348.2L396.9,347.1L395.9,346L395,345.3L394.3,344.5L393.6,343.4L393.2,341.7L392.9,340.2L392.6,339.6L392.2,339.4L390.7,337.7L389.4,336.6L389.4,335.5L389.7,333.6L389.9,331.5L390.2,331.2L390.8,331.1L391.4,331.1L392,331.4L393.1,332.8L393.7,333.4L394.3,333.6L394.9,333L395.7,331.7L396.4,331.1L398.7,331.3L399.8,330.3L401.6,331.6L402,331.7L402,352.2ZM288.7,249.8L289.4,250.1L290,250.2L290.3,250.1L290.1,249.2L290.6,248.8L291.2,248.6L291.4,248.9L291.9,249.3L292.3,249.3L293.4,248.3L293.6,248.5L293.9,248.9L293.9,249.1L294,249.4L294.2,249.6L295,249.5L295.5,249L295.8,248.6L296.1,248.9L296.2,249.5L296.4,250.4L297.4,251.3L298.3,251.6L299.3,251.4L299.7,251.2L300,251.4L300.2,251.9L300.8,252.4L302.1,252.8L302.5,253.1L302.8,253.4L302.7,254L302.1,255.3L302,255.8L302.1,255.9L302,256.1L301.2,257L301.1,257.4L301.4,257.9L301.6,258.3L302.1,258.5L302.5,258.6L303.3,258.6L304.2,258.6L304.3,258.9L305.3,259.6L305.6,260.2L306.3,260.8L305.7,261.5L305.8,261.8L306.1,262.1L306.9,262.3L307.3,262.8L307.3,263.5L307.4,264.6L305.8,265.8L305.3,267L305.3,267.3L305.2,267.2L305.1,266.8L304.7,266.8L304.1,266.7L303.1,267.8L302.7,268.8L302.4,269.5L302,270L302,270.6L302,270.9L301.9,271.2L301.9,271.5L302.4,272.2L302.6,272.6L303.2,273.8L303,274.2L302.9,274.6L302.7,275L302.4,275.2L301.7,275.2L300.9,275.3L300.3,275.6L300,275.6L299.3,275L298.6,274.1L298.2,273.7L298,273.3L297.4,273.2L296.6,272.7L296.1,272.3L295.6,271.9L294.9,271.8L294.4,271.8L294.2,271L294.1,270.1L293.7,269.5L294.3,267.1L293.9,266.8L293.5,267L293,267.6L292.7,268.3L292.5,268.9L291.5,269.5L290,269.7L288.3,269.5L288.1,269.3L288,269.2L288,269L288.1,268.6L288.4,268.2L288.5,267.7L288.1,267.2L288,267L288.1,266.5L288.3,265.9L288.3,265.6L287.2,264.5L286.4,264.4L285.5,264.3L284.9,264.2L284.6,264.3L284.3,264.5L284.1,264.8L283.9,264.5L283.5,262.7L283.2,262.4L282.2,262.1L280.8,262L280.4,261.7L280.2,260.8L280.1,259.9L279.6,258.9L279.4,258.7L279,258.3L278.2,258.4L277.3,259L276.8,259.1L276.6,259.2L275.9,258.6L275.1,257.8L274.5,256.9L274.4,256.4L274.5,255.8L274.3,255.3L274,254.5L273.9,253.9L277.7,251.5L280,250.3L281.1,249.9L281.3,251.1L281.6,251.5L281.8,251.8L282.2,251.8L282.5,251.5L283.1,251.2L284,251.4L284.7,251.6L284.9,251.9L285.3,252.2L285.9,252.3L287.1,251.7L288.3,250.9L288.6,250.3ZM335.1,305.1L335.8,303.5L336,302.5L335.3,302L335.1,301.8L335.3,301.7L336.2,301.8L336.8,301.4L337.1,301.1L337.9,301.4L339,302.1L339.6,302.5L339.8,302.8L339.9,303L339.8,303.5L340.1,303.7L340.6,303.7L341,303.9L340.9,304.5L340.9,305L341.4,304.9L342,304.5L342.5,303.8L342.8,303.2L343,301.6L343.1,301.4L343.5,301.6L345,301.5L345.7,301.8L346.9,301.8L346.9,302.1L347.1,302.5L347.6,303.1L347.8,303.4L348.4,303.5L349.2,303.3L349.7,303.1L349.9,303.2L350.6,303.1L351.3,302.6L351.4,302.3L352.1,302L353,301.5L354.3,301L358.4,300.6L358.5,300.2L358.5,299.4L358.6,299.3L359.1,299.5L359.9,299.7L360.6,300L361,300.3L361.3,300.3L361.9,300.1L362.7,299.9L363.5,300.3L363.7,300.7L363.6,300.9L363.6,301.3L363.8,301.6L364.4,302L365.2,302.4L365.6,302.4L365.8,302L365.9,301.1L366,300.1L365.8,299.5L365.4,299.4L364.9,299.3L364.6,299.2L364.7,298.9L365.1,298.1L365.1,297L364.2,295.8L363.4,294.6L363.4,294.2L363.9,293.5L364.6,292.9L366.2,292L366.7,291.8L367.4,291.7L368.3,291.3L368.8,290.9L369.1,290.4L369.5,288.2L369.6,288.1L369.8,287.9L371.4,288.7L371.5,288.6L371.8,288.5L372.4,287.9L372.5,287.4L372.5,286.6L372.5,285.8L372.6,285.5L372.9,285.6L373.6,286L374.1,286.5L374.7,287.7L375.9,288L377.4,288L378,287.5L378.5,287.4L379.1,287.5L380.3,287.7L380.4,286.8L381.1,285.8L381.4,285.4L382.3,285.4L382.5,284.7L382.7,282.6L382.9,282.4L383.6,282.4L384.2,282.8L384.4,283.1L384.7,283.1L385.2,282.9L385.7,282.8L386.5,283L388.2,283.9L389.1,284.3L389.7,284.2L390.2,284.2L392.2,285.7L393.7,285.9L394.9,285.9L395.4,285.4L395.9,285.1L396.5,285.1L397,285.3L398,285.9L398.4,286.1L399,286.2L399.4,286.3L399.9,287.4L400.1,287.7L400,287.9L400,288.4L399.6,289L399.3,289.8L399.3,290.5L400.2,293L401.1,294.5L401.2,295.1L401.8,295.5L401.2,296.1L401.1,296.9L400.8,297.3L400.7,297.7L400.9,298.2L400.9,298.7L401.1,299.4L400.2,299.6L399.3,299.6L398.9,299.6L398.6,299.8L398.3,299.7L397.4,299L396.9,298.9L396.5,298.9L396.3,299.2L395.8,299.6L395.4,299.8L395.5,300.1L397.3,300.7L397.6,301.6L397.3,302.4L397.2,302.8L396.7,303.1L396.2,303.4L395.6,303.4L395.5,303.8L395.8,305L395.6,305.3L395.4,305.7L395.6,306.7L395.9,306.8L396,307L396,307.4L395.9,307.8L395.8,308.3L395.7,308.5L395.4,308.6L394.6,308.5L393.9,308.9L392.5,310.3L392,310.5L391.5,311.1L391.5,312.3L391.5,312.4L391.4,312.7L389.7,312.2L389.6,312.2L388.5,312.4L387.8,313L386.8,313.3L384.9,313.1L383,313.3L382.5,313.5L382,313.6L381.6,313.9L381.3,314.4L380.9,314.9L380.2,315.4L379.5,315.8L379.3,316L379,316.2L378.6,316L378.3,316L377.9,315.8L376.6,315.7L375.1,315.4L374.4,315.2L373.6,315L372.8,314.8L372,314.7L371.6,314.7L369.8,314.2L368.6,314.2L367,314L363.8,313.3L362.9,313.1L362,313L360.9,312.7L360.2,312.4L359.6,311.6L359.1,310.6L358.1,309.4L357.9,308.7L358.2,308.2L358.5,307.8L358.5,307.6L358.2,307.5L356.5,308L354.8,308.7L354.1,308.8L353.5,308.6L352.6,308.6L351.8,308.8L350.1,308.9L349.2,309.4L348.6,310.4L348.2,311.2L347.9,311.4L347.4,311.5L346.5,311.4L345.9,311.2L345.3,310.5L344.3,310.4L343.4,310.4L343.2,310.3L343.2,309.9L342.9,309L342.3,308.7L340.8,310.3L340.4,310.4L339.2,310L338.2,309.4L338.1,308.9L337.9,308.4L337,308.1L335.9,307.8L335.6,307.8L335.7,307.6L335.8,307.2L335.8,306.9L335.5,306.5L335.4,306.2L335.3,305.8L335.2,305.5L335.2,305.3ZM266.7,364L266.5,364.1L265.7,364.5L265.2,364.7L264.8,364.8L264.5,364.8L264.3,364.5L264.3,364L264.2,363.6L264.2,363.4L264.3,362.9L264.6,362.6L264.9,362.3L265.5,362.4L266.7,362.8L267,363.1L267,363.3L266.8,363.7ZM223.8,482L225.4,481.4L225.7,481L225.9,480.1L226.2,479.3L226.6,479L226.8,478.9L228,478.7L229.7,478.4L230.4,478.4L232.3,478.5L233.7,478.5L235.9,478.6L237.5,478.7L238.9,478.8L240.6,478.8L241.1,478.6L241.1,478L240.8,476.9L241,476.2L241.6,475.6L242.5,474.9L242.1,474L241.4,473.4L240.4,472.7L240,472.4L239.1,471.6L238.6,470.6L238.2,468.6L237.6,467.4L237.1,466L237.5,463.4L236.9,461.8L236.8,461.2L236.8,460.4L237,459L236.9,457L236.1,455L236.5,454.3L236.6,453.9L236.6,453.6L235.9,453L235.6,452.4L235.8,451.9L236.1,451.2L236.1,450.9L235,450L233.1,448.6L232.6,447.9L232.4,447.1L234.2,447.3L235.1,447.2L237.2,446.3L238.8,445L240.1,444.3L241.3,443L242.3,442.1L243.8,441.1L248.1,439L248.7,439L250.1,439.5L251.4,439.3L252.2,438.6L253.1,436.8L254.5,435.8L256.3,434.7L258.7,433.7L260.3,432.7L262.8,431.9L269.1,431.3L272.3,430.9L274.5,431L276.7,429.5L277.8,429L282.6,428.9L284.8,427.8L293.4,427.8L294.4,428.1L295.5,428.7L297.2,430.2L298.1,430.5L299.2,430.2L301.9,428.8L304.8,428.1L306.4,427.3L307.1,426.1L308.5,425.7L309.3,426.6L312.4,427.5L314.3,427.3L315.1,427L314.8,425.6L316.8,426L318.3,426.6L319.9,427.9L321,428.2L322.9,427.6L326.8,427.3L326.8,427.3L327,427.9L327,428.5L326.2,428.9L325.6,429.2L325,430.6L323.8,431.6L323.6,431.9L323.6,432.1L324.4,432.6L324.7,433L324.8,433.5L324.4,435.5L324.2,437L323.9,438.9L323.9,439.6L324.2,440.5L324.5,441.2L324.6,442L324.5,443.9L324.9,445.1L325.2,446.1L324.5,447.3L324.2,448.5L324,450.1L323.9,451.1L323.4,452L322.8,452.9L322.2,453.4L321.3,453.9L320.4,454.5L319.6,456.2L317.9,457.5L317.5,458L317.4,459.1L317.4,460.6L317.7,461.8L318.5,463.6L319.2,465.6L319.4,466.6L319.7,466.9L320.7,467.6L322.4,468.4L322.7,468.8L323.6,470.1L324.4,472.5L324.7,474.1L326.3,475.4L327.7,476.5L329.1,477.5L330.7,478.6L330.9,479L331.4,481.3L331.6,482L223.8,482Z" fill="#D8E2E7" stroke="#3F464B" stroke-width="0.85" vector-effect="non-scaling-stroke"/><path d="M164.8,213.4L164.8,213.8L164.1,213.2L163.8,212.7L162,212.4L162.7,211.8L163.1,212L164.4,212L164.7,212.3ZM188.7,195.6L187.3,196.6L187.1,196.9L186.7,198.5L186.6,198.9L186.2,199.7L185.8,200.5L185.3,200.9L184.5,201.1L184.1,201.4L183.6,201.3L183,201.3L182.6,201.6L182.6,201.8L182.8,202.1L183.4,202.5L184.1,202.8L184,203.2L183.7,203.5L181.4,204.4L180.8,204.9L180.6,205.3L180.8,205.9L182.6,207.7L182.8,207.8L183.1,208.8L184.7,209.3L185.3,209.9L185.8,210.1L187,210L187.5,210.3L187.7,210.1L187.9,209.8L188.9,208.9L189.2,208.5L189,208L188.8,207.6L189.4,206.8L190.1,206L190.5,206L191.1,206.5L191.6,207.2L191.7,207.7L191.8,208.1L192.3,208.9L192.6,209.2L193.5,209.3L193.7,209.6L193.5,210.8L193.6,211.2L194.5,211.2L195.5,211.1L195.8,211.2L196.2,210.9L196.7,210.7L197.4,210.7L197.8,211.3L197.9,211.8L197.3,212L196.6,211.9L196.3,212.3L196.3,212.9L196.5,213.8L197,214.4L197.3,215.8L197.6,217.4L198.1,218.3L198.2,219.5L198.1,220L198.2,221.1L198,221.4L198.1,222.4L198.7,224.4L198.9,225.5L199.1,227.8L198.7,228.7L198.2,229.6L197.9,230.6L197.6,231.6L197.4,233.4L196.3,235.4L195.8,235.9L195.3,236.2L196.5,237.6L195.5,238.3L194.4,238.5L193.2,238.1L192.5,238.1L191.8,238.6L191.6,238.9L191.3,238.7L190.9,237.6L190.5,238.8L189.9,239.2L188.7,239.1L186.7,239.4L186,239.7L185.7,240.3L185.4,240.9L185.1,241.2L184.8,241.4L183.2,241.9L183,242.1L182.2,243.1L181.3,243.6L180.6,243.8L179.9,243.2L179.6,242.9L179.3,242.7L178.3,242.7L178.6,242.9L178.8,243.3L178.9,244.1L178.8,244.8L178.3,245.2L177.7,245.3L176.7,246.1L175.4,246.3L174.7,247L170.5,248.2L170.3,248.2L169.7,247.9L169,247.8L168.4,247.9L166.7,248.6L165.8,248.4L166.9,246.8L168.4,245.9L168.5,245.7L168,245.6L165.2,246.1L164.3,246.7L163.3,246.8L163.7,246L165,245L165.6,244.5L166.1,244.3L166.5,243.6L167.8,242.9L163.6,244.4L162.5,244.2L162.2,243.8L161.4,244L161,243L162.3,241.5L163.1,240.9L164,240.5L164.8,240L165.1,239.4L164.7,239.2L162.1,239.4L160.9,239.2L161,238.7L161.2,238.2L162.5,237.3L163.2,237.1L163.8,237.2L164.4,237.4L164.9,237.8L166.3,237.6L165.7,237L165.6,235.8L165.2,235.4L165.8,234.8L166.4,234.5L167.6,233.3L168,233.1L170.2,232.9L172.6,232.3L175,231.4L173.8,230.9L173.2,230.3L172.2,231.6L171.6,232.1L169.6,232.3L169,232.2L168.2,231.8L167.9,231.9L167.7,232.2L166.4,232.8L165.1,233L166.6,231.9L168.6,230L169,229.3L169.6,228.3L169.5,227.8L169,227.5L170.5,225.3L171,225L171.9,224.9L172.6,224.5L172.9,224.5L173.1,224.4L173.7,223.8L172.8,223.3L171.9,223.1L169,223.3L168.6,223.3L168.2,223.1L168,222.8L167.8,222.1L167.6,221.9L167,221.9L166.3,222.1L165.9,222.1L165.4,221.8L166.1,221L165.2,220.8L164.3,221L163.5,220.8L163.5,220.3L163.9,219.8L163.4,219.3L163.3,218.7L163.8,218.5L164.3,218.6L165.4,218.1L166.8,217.9L165.6,217.5L165.1,217.2L165.1,216.6L165.2,216.1L166.6,215.3L168,215L167.9,214.4L168,213.9L166.6,213.7L165.1,214.1L165.3,213L165.6,212L165.7,211.4L165.6,210.7L164.9,210.9L164.8,210L164.5,209.3L163.5,209.8L163.6,208.8L163.8,208.2L164.4,207.9L164.9,208.1L165.9,208.1L166.8,207.6L168.2,207.5L170.3,207.6L171.8,209L172.2,208.7L172.8,207.9L173.1,207.8L175.3,208.1L176.7,208.6L177.1,208.5L176.9,207.6L176.4,206.9L177,206L177.7,205.5L178.2,205.2L179.3,204.8L179.8,204.5L180.2,203.4L180.7,202.5L177.8,202.9L175.2,201.9L175.6,201.1L176.2,200.6L177.1,200.3L177.2,199.9L177.7,199.6L178.5,198.7L178.2,197.6L178.4,196.7L179,196.2L179.2,195.4L179.4,194.8L180.6,194.6L181.8,194L182.2,194.1L183.6,193.9L184,194.2L183.9,193.2L184.8,193.1L185.1,193.3L185.2,193.9L185.6,194.4L185.7,195.1L185.4,195.7L185,196.2L185.4,196.6L184.8,197.5L185.5,197.1L186.4,196.3L186.4,195.6L186.2,194.8L185.9,194.1L186,193.2L186.6,192.7L187.9,192.4L187.4,191.5L187.9,191.4L188.4,191.6L189.2,192.4L190,192.9L190.9,193.4L190.1,194.3L189.1,194.9Z" fill="#8B341D" stroke="#2C160F" stroke-width="1.1" vector-effect="non-scaling-stroke"/></svg>