<svg xmlns="http://www.w3.org/2000/svg" viewBox="0 0 360 440" width="360" height="440" role="img" aria-label="Regional map with Japan highlighted"><rect width="100%" height="100%" fill="#7FA6D6"/><path d="M-42,377.8L-41.73,378.2L-40.45,379.7L-39.88,380.1L-39.2,380.4L-37.94,381.7L-37.32,382.5L-37.6,383L-37.45,384.2L-38.36,383.9L-38.23,384L-37.19,384.7L-35.59,386.9L-34.21,388L-32.8,389.3L-32.35,390.5L-31.1,391.3L-29.69,392.4L-29.74,392.7L-29.37,393L-28.41,393.6L-27.83,394.2L-27.62,394.8L-27.28,394.9L-26.86,394.8L-26.47,394.7L-26.21,394.8L-25.77,395.4L-25.19,396L-24.91,396.6L-24.67,396.5L-24.49,396.6L-24.43,397L-24.33,397.3L-23.55,398.2L-23.18,399L-22.21,400.4L-21.54,401.1L-21.01,401.6L-20.46,401.9L-19.89,403.4L-19.6,404.8L-19,406.3L-18.53,406.9L-18.53,408.2L-18.16,409.4L-17.77,410.3L-17.64,411.1L-17.54,411.6L-17.38,411.9L-16.96,413.4L-17.07,414L-17.35,413.4L-17.33,415.4L-17.07,416.4L-17.2,417.7L-16.91,418.1L-16.41,419.6L-16.07,420.1L-16.1,421.8L-15.92,422.7L-16.39,422.2L-16.73,421.6L-17.17,421.9L-17.56,422.4L-16.94,424.3L-17.67,424.1L-17.59,426.6L-17.3,427.2L-17.28,427.5L-17.35,427.9L-17.56,427.5L-17.59,427.1L-17.72,427.2L-17.69,427.4L-17.95,427.8L-18.01,428.4L-17.77,428.9L-17.72,429.2L-17.9,429.7L-18.19,430.1L-18.87,430.2L-19.03,431.1L-19.26,432.1L-20.46,432.3L-21.33,433.1L-22.42,433.4L-23.39,434.3L-24.43,435.1L-25.14,435.2L-25.71,435.3L-26.39,436.7L-27.54,436.8L-29.58,437.9L-30.26,438.4L-30.89,438.6L-31.78,439L-31.96,438.9L-32.27,438.5L-33.03,438.3L-33.42,437.9L-33.53,437.3L-33.63,437.1L-33.79,437.4L-33.92,438.7L-34.05,439L-34.39,439.1L-35.04,438.8L-35.64,438L-36.53,438.5L-36.27,438.6L-35.85,438.6L-35.54,438.7L-35.28,439.2L-35.3,439.5L-35.44,439.8L-36.27,439.8L-37.37,439.7L-37.55,439.8L-36.56,440.3L-35.64,440.6L-35.23,440.9L-35.23,441.1L-35.75,441.5L-36.14,442L-36.17,442.4L-36.17,442.7L-36.61,443L-36.9,442.9L-37.68,442.4L-39.93,440.3L-39.59,440.9L-37.24,443.3L-36.85,444.1L-36.77,444.6L-37.03,444.9L-37.42,445.2L-38.18,445.2L-39.46,444.4L-41.47,442.3L-42,442L-42,435.6L-42,435.6L-41.99,435.6L-41.84,435.6L-41.39,435.4L-41,435.7L-40.22,436.1L-39.75,436.1L-39.98,435.2L-39.72,434.5L-39.77,434.3L-40.22,434L-41.7,432.8L-41.97,432.4L-41.94,431.8L-41.99,431L-42,431L-42,429.9L-42,429.9L-41.73,429.8L-41.47,429.8L-41.26,429.5L-40.9,429L-40.19,429L-39.2,429.3L-38.47,429.5L-38.02,429.5L-37.94,429.4L-37.94,429.1L-37.89,427.8L-37.92,427.6L-37.32,427.4L-36.35,427.4L-35.85,427.3L-35.38,426.8L-34.18,426.6L-33.29,425.9L-32.51,425.1L-32.14,424.9L-31.65,424.8L-31.28,424.8L-30.81,425.3L-30.44,425L-30,424.5L-29.77,424L-29.63,423.2L-29.74,421.9L-29.95,421L-30.18,420.2L-30.23,419.5L-29.71,418.1L-29.27,416.5L-29.37,415.9L-29.84,414.9L-30.31,413.7L-30.84,412.3L-31.05,412.1L-31.18,411.8L-31.28,411.3L-31.05,410L-31.02,409.5L-30.42,408.9L-30.11,408.2L-29.79,407.4L-29.9,407L-29.95,406.2L-29.87,405.8L-30,405.4L-30.18,404.9L-30.08,404.6L-29.63,404.4L-29.4,403.9L-29.09,403.4L-28.93,402.9L-29.16,402.5L-29.58,401.8L-30.34,401.3L-31.2,400.6L-31.65,400.1L-31.99,399.7L-32.3,399.2L-32.46,398.8L-32.3,398.5L-31.05,397.9L-30.84,397.6L-30.71,397.3L-30.78,396.9L-31.12,396.8L-31.52,396.6L-32.09,396.2L-33.16,395.1L-33.66,394.9L-34.18,394.6L-34.44,394.3L-34.76,393.4L-34.89,393.3L-35.17,393.5L-35.56,393.8L-35.88,393.8L-36.17,393.5L-36.3,393.2L-36.61,392.7L-36.98,392.3L-37.05,391L-37.11,390.6L-37.29,390L-37.55,389.8L-37.84,389.7L-38.52,388.6L-38.96,388L-40.9,386.5L-41.13,386.3L-41.63,385.7L-42,385.3L-42,377.8ZM-42,442.1L-40.11,444.4L-39.77,445L-39.43,445.6L-39.54,446L-39.72,446.4L-42,447.5L-42,442.1ZM-42,343.9L-41.63,343.9L-41.21,343.8L-40.92,343.5L-40.42,343.5L-39.85,343.6L-39.59,343.7L-39.12,344.4L-38.91,344.4L-38.47,344.4L-37.66,344.2L-37,344L-36.4,344.3L-35.28,345.1L-35.59,345.6L-35.83,346.2L-36.32,346.6L-36.72,346.7L-36.92,347.2L-37.03,348.1L-36.92,348.5L-36.64,348.6L-36.32,348.9L-36.19,349.3L-36.14,350.1L-36.17,351L-36.11,351.3L-35.88,351.3L-35.64,351.2L-35.17,351.3L-34.57,351.6L-34.21,351.8L-33.89,351.8L-33.63,352L-33.53,352.5L-33.21,352.8L-32.38,353.4L-31.7,353.4L-31.12,354.2L-30.52,354L-30.26,354.3L-29.03,354.2L-28.17,353.9L-27.86,354L-27.07,354.6L-26.6,355L-26.6,355L-26.94,355.1L-27.8,355.1L-28.54,355.8L-29.06,356.1L-29.84,356.4L-30.71,356.8L-30.94,357.5L-30.97,358L-31.1,358.6L-32.48,359.4L-32.87,359.3L-33.13,359L-33.53,359.1L-33.81,359.2L-34.13,359.2L-34.49,359.4L-34.96,359.3L-35.41,359.1L-35.67,359L-35.98,359L-36.04,359.3L-35.59,360.5L-35.46,361L-36.92,362.6L-36.77,363.7L-37.16,364.5L-38.05,365.1L-39.72,366.8L-40.48,366.8L-41.05,367.2L-42,369.3L-42,343.9ZM-36.45,451.7L-36.66,451.7L-36.82,451.5L-36.14,451.1L-36.22,451.4L-36.19,451.5ZM-32.46,439L-33.06,439.5L-33.11,439.1L-32.59,438.9L-32.4,438.7L-32.25,438.7ZM-34.65,360.4L-34.73,360.6L-35.09,360.2L-35.36,360L-35.15,359.5L-34.73,360.1ZM-29.3,357.3L-30.34,358.3L-30.73,358.3L-30.39,357.1L-30.21,356.9L-29.58,357.3ZM-29.9,359.6L-30.29,359.8L-30.78,359.7L-30.21,359.3L-29.9,358.9L-29.66,358.7L-29.69,359.1ZM-33.45,360.9L-33.74,361L-34.31,360.3L-34.02,360L-33.34,360.3L-33.21,360.4L-33.21,360.5L-33.37,360.8ZM372.6,476.2L372.7,476.6L372.2,476.4L372.2,476.3L372.4,476.1ZM192.3,445.7L191.8,446.3L191.8,446.1L191.9,445.7L192.2,445.3L192.4,445L192.7,445L192.9,445.3L192.6,445.6ZM290.4,461.5L290.3,461.6L289.9,461.5L289.8,461.5L289.8,461.4L290,461.4L290.1,461.2L290,461.2L290.1,461.1L290.2,461.1L290.3,461.2L290.4,461.3ZM292,460.8L291.9,460.9L291.9,460.8L291.9,460.6L291.9,460.6L292,460.6L292.3,460.6L292.3,460.7ZM338.7,465.3L338.3,465.5L337.8,465.4L337.6,464.9L337.4,464.7L337.4,464.4L337.8,464.2L338.6,464.3L338.9,464.8L338.7,465.1ZM401,433.5L400.8,433.5L400.7,433.5L400.8,433.4L401,433.3L401.1,433.4ZM247.3,376.2L247,376.5L246.8,376.3L246.8,375.9L247.1,375.9L247.2,376ZM247.3,394.7L247.1,394.7L246.9,394.7L246.7,394.6L246.7,394.4L247.2,394.4L247.3,394.5ZM244,411.1L243.7,411.5L243.4,411.4L243.3,411.3L243.2,411.1L243.8,410.9L244.1,410.9ZM247.8,381.5L247.4,381.6L247.8,380.9L248,380.8L248.2,381ZM247.6,403.8L247.6,404L247.2,403.9L247.1,403.9L247.3,403.2L247.8,402.9L248.1,402.8L247.8,403.1L247.8,403.5ZM246.9,405L246.6,405.4L246.4,404.8L246.4,404.6L246.6,404.3L246.8,404.3ZM240.2,417.8L239.9,417.8L239.7,417.6L239.6,417.4L239.6,416.6L240.6,415.8L240.9,415.1L241.2,415.2L241.5,415.3L241.7,415.5L240.5,416.7ZM68,346.3L67.56,347.2L67.19,348.2L67.04,349.1L67.06,350.1L66.96,350.9L66.78,351.8L66.07,351.5L65.68,350.9L65.6,349.9L65.08,348.7L64.89,348.4L64.16,347.7L63.48,347.4L62.96,346.9L63.04,346.9L62.65,346.3L62.36,345.5L61.76,343.5L61.55,343L61.29,342.6L61.21,342.1L61.29,341.6L61.55,340.9L61.71,340.2L61.58,339.2L61.63,338.2L61.84,337.7L65.23,331.6L66.17,330.3L66.75,329.6L67.22,328.9L67.67,328L68.24,327.2L68.63,326.9L70.59,326.2L71.19,325.4L71.69,325.2L72.24,325.2L72.6,325.6L72.92,326L73.26,326.2L74.12,326.6L74.51,327L74.67,327.6L74.14,328.3L73.88,328.8L73.83,329.5L73.94,330.3L73.94,331.2L73.28,333.1L72.58,334.4L72.39,335L72.16,336.5L71.74,338L71.4,340L70.83,342L70.49,342.8L70.07,343.6L69.1,345.1ZM49.11,331.3L49.43,331.8L49.3,332.1L48.3,331.9L48.25,331.6L48.62,331.7ZM108.8,218.4L109.1,218.2L109.1,217.9L109.1,217.1L109.7,216.6L110.6,215.4L111,214.7L111.6,214.1L112.1,213.7L112.7,213.6L113.6,213.5L115.3,213.5L115.7,213.5L116.9,213.4L117.2,213.5L118,213.6L119,213.5L119.5,213.3L120,213L120.4,212.5L120.8,211.5L121.2,210.7L121.5,210.6L123.2,214.7L124.9,217.4L126.4,219.3L128.4,223L129,225L129.1,226.2L129.4,227.9L129.1,228.8L129.2,230.3L129.1,231.1L128.9,231.6L128.8,232.7L128.9,233.3L128.9,234.1L129.1,234.4L129.3,234.5L129.7,234.2L130.2,234.1L130.1,235L129.5,237.3L129,239L128.4,240.5L127.5,241.8L126.6,242.4L125.9,242.6L124.5,242.6L123.4,242.4L122.5,242.6L122.1,242.8L121.8,243.3L122,244L122,244.6L121.5,244.6L120.7,244.2L119.8,244.2L119.4,244L119,243.2L118.6,243.3L117.8,243.8L116.7,243.8L116.3,244.1L116.1,244.4L116.3,244.8L116.9,245.4L116.7,245.9L116.1,246.2L115.6,245.5L115.3,244.9L114.9,244.8L114.4,245L114.3,245.7L114.6,246.2L115,246.8L114.4,247.4L114.3,247.9L113.8,248.2L112.7,247.5L112.9,246.9L113.4,246.4L113.4,245.9L113.3,245.6L111.7,246.9L110.7,248.4L110.2,248.3L110,247.9L109.7,247.8L108.7,248.7L108.5,249.5L108.1,249.5L107.9,249.2L107.9,248.5L107.7,247.9L106.6,247.1L106.2,246.3L106.4,245.9L107.3,246.2L108,246.1L107.9,245.8L107.6,245.6L108.1,245.4L108.5,245L108.2,244.9L107.7,245.1L107.3,245L107.1,244L106.6,243L106.3,242.1L106.8,241.5L107.1,240.7L107.6,239.4L107.8,239L108.5,238.7L108.7,238.4L108.3,238.2L107.7,238.1L107.8,237.7L108.2,237.5L108.6,237.1L109.4,236.6L109.7,235.7L109.4,235.5L108.9,235.2L109.1,234.8L109.3,234.4L109.2,234.2L108.6,233.6L108.1,233L108.3,232.4L108.2,231.5L108.2,230.7L108.2,230.2L107.9,229.3L107.8,228.3L107.4,228.4L107,228.7L105.9,228.3L105.5,228.3L105.4,227.6L105.8,226.7L106.8,225.9L107.3,225.8L107.7,225.4L108.4,225.3L109.2,225.9L109.9,226L110.3,226.9L110.5,227.1L110.6,226.8L111.2,226.4L111.3,226.1L111.2,225.9L110.5,225.7L109.9,224.6L109.9,224.1L109.6,223.8L110,222.8L109.3,221.8L108.9,221.4L109,220.5L108.6,219.9L108.4,219.5L108.3,219L108.4,218.7L108.7,218.6ZM124.1,245.2L123.4,245.8L122.5,245L122.3,244.6L123,244L123.6,243.4L124,243.3ZM119.2,245.2L119.1,246L118.6,246.1L118.3,245.5L118,245.8L117.8,245.8L117.6,245.1L117.5,244.6L118.1,244.2L118.5,244.4L119,244.5ZM105.9,249L105.4,249.1L105.2,248.8L105,248.8L105.1,248.4L105.9,247.6L106,247.3L106.7,247.5L107,247.9L106.6,248.5ZM108,218.8L108,220L107.6,219.9L107.3,219.8L107.2,219.6L106.9,218.4L107.2,218L107.8,218.4ZM109.7,249.2L109.8,249.7L109.2,249.6L108.9,249.2L108.9,248.8L109.3,248.8ZM117.3,246.9L117.2,247.1L116.8,246.7L117.2,246.3ZM107.2,230.1L107.1,230.7L106.7,230.3L106.5,229L107,229.4ZM105.5,245.8L105.4,246L105.1,246L104.7,245.4L104.6,244.9L104.3,244.6L104.8,244.2L105.4,245ZM139.9,221.1L139.6,221.4L139.2,221.1L139.1,220.9L139.3,220.6L139.8,220.5L140,220.7ZM106.6,259L106.3,259.2L106,259.1L105.9,259L105.5,258.5L105.4,258.2L105.7,257.8L106.7,257L109.3,256.2L109.7,256.2L110.7,256.5L111,257.1L110.8,257.6L110.6,258L109.4,258.6L108.5,258.9ZM248.5,164L248.6,164.1L248.8,164.1L248.9,164.1L248.9,164.2L249,164.3L248.9,164.4L248.7,164.4L248.6,164.4L248.5,164.3L248.5,164.2L248.4,164.1L248.4,164ZM252,162.4L251.8,162.4L251.5,162.4L251.4,162.3L251.4,162.2L251.6,162.1L251.8,162.1L251.9,162.2ZM249.7,164.5L249.6,164.5L249.6,164.4L249.7,164.3L250,164.1L250.1,164.2L250,164.3L249.9,164.4ZM185.3,33.69L184.5,35.89L183.8,35.91L183.4,35.45L182.3,35.63L182,35.52L182.6,34.84L184,33.78L184.6,33.8L185.2,33.58ZM282.7,-18.68L282.1,-18.51L281.8,-18.91L281.8,-19.17L282.7,-19.79L283.2,-20.67L283.6,-20.13L283.7,-19.76ZM402,-37.56L401.5,-37.2L397.8,-31.93L396.9,-30.85L396.5,-30.63L395.9,-30.53L395.6,-31.58L395.5,-32.41L395.7,-34L396.2,-35.32L396.6,-37.76L396.8,-38.75L397.1,-39.8L395.8,-39.72L394.1,-37.91L391.5,-36.16L390.3,-35.7L389.3,-34.66L388.7,-34.53L387.9,-34.15L387.8,-31.91L387.4,-30.7L386.9,-30.45L386.2,-30.4L385.7,-30.88L384.9,-32.66L383.8,-33.6L383.2,-33.77L382.7,-33.55L381.8,-32.34L380.8,-31.23L381,-32.49L380.1,-32.97L379.4,-33.24L378.4,-33.3L378.1,-33.12L377.8,-32.39L376.9,-31.46L376.3,-31.08L375.7,-30.33L375.4,-29.55L375.1,-28.45L374.7,-25.79L374.7,-22.69L373.4,-20.25L372.8,-20.5L372.6,-20.35L372.3,-20.03L372.8,-18.68L372.5,-18.22L372.3,-17.9L371.6,-17.56L370.2,-15.59L368.8,-14.32L366.5,-10.67L365.9,-8.272L365.2,-5.572L365.5,-4.263L365.8,-3.408L366.2,-2.816L366.9,-2.176L368.5,-1.491L368.3,-1.042L368.3,-0.664L368.9,-1.325L369.3,-3.195L370.2,-3.812L370.7,-3.788L373.8,-2.295L374.4,-1.656L374.3,-0.24L374.1,0.42L373.5,1.407L372.4,2.58L371.2,4.195L371,5.198L371,5.734L371.4,7.617L371.4,8.683L371.2,10.65L371.3,11.5L371.7,12.21L372.2,12.67L373.1,12.42L374,12.63L374.6,13.13L374.5,14.76L374.9,16.29L375.2,19.11L374.6,19.88L374.1,20.35L373.1,21.57L372.5,21.7L371.6,21.3L370.1,19.13L370.7,17.83L372,16.92L372.6,16.29L373,15.33L372.3,15.51L371.9,15.92L370.4,15.74L369.8,16.2L369,16.92L369.3,18.74L368.8,19.08L367.9,19.69L366.6,20.46L366.1,20.98L364.9,24.2L363.9,26.6L363.5,28.65L363.5,30.4L363.9,32.35L364.2,33.19L365.5,34.99L366.1,36.39L366.3,38.08L365.3,38.88L363.5,40.82L362.8,41.04L360.4,40.99L359.2,40.02L357.8,40.26L356.6,40.73L354.7,42.1L353.1,43.87L351.5,45.1L351,45.84L350.4,47.36L349.8,50.12L350.1,51.48L350.4,52.12L350.7,52.95L350.2,54.24L350.2,55.04L351,56.33L351.1,58.09L350.6,58.14L349.3,56.88L348,56.79L344.7,58.24L343.4,59.08L341.9,60.76L341.4,60.44L341.1,59.48L340.6,59.06L339.9,59.27L339.6,60.17L340.5,60.59L340.9,61.17L340.3,63.4L339.9,64.15L340.1,66.12L340,67.05L339.8,67.97L338.9,70.5L337.2,73.81L335.2,76.21L333.8,77.05L333.1,77.67L332.8,78.5L330.7,80.78L328.1,83.17L327.4,83.59L327.2,82.69L327.1,81.8L326.8,80.62L325.9,79.63L325.7,78.82L325.6,77.73L325.5,72.61L324.7,67.23L324.6,65.54L323.6,64.15L323.1,62.69L322.7,61.28L322.7,59.58L321.6,50.61L321.3,48.34L319.8,40.97L319.2,36.66L318.8,32.44L318.7,30.53L319.4,24.81L319.9,21.21L321.8,13.04L322.1,12.28L322.4,11.89L325.8,8.706L327.2,6.967L328.1,5.105L329,2.744L328.9,1.454L328.8,0.726L328.5,-0.122L327.7,-1.089L328,-1.514L328.3,-1.845L329.1,-2.2L330.8,-1.467L332.5,-1.774L334,-4.786L336.3,-4.334L338,-4.858L338.4,-4.643L338.8,-5.667L339.7,-6.765L341.5,-8.391L344,-10.36L345.2,-11.69L345.9,-12.94L347,-14.15L348,-15.66L349.9,-20.2L353.5,-24L355,-26.18L356.1,-26.95L357.2,-27.33L359.8,-30.48L361.5,-33.12L363.7,-34.94L364.4,-36.1L365.5,-38.85L366,-39.52L367.4,-40.57L370,-42L402,-42ZM319.1,-42L317.8,-40.77L314.5,-38.22L311.6,-34.1L310.6,-31.03L310.3,-30.93L309.6,-30.3L309.4,-28.8L309.4,-27.78L309,-26.95L308.5,-25.91L309,-25.26L309.4,-25.14L310,-25.24L311.7,-26.08L314.5,-24.79L315.9,-23.51L315.8,-22.22L315.9,-21.09L314.8,-21.16L313.4,-21.06L312.5,-20.4L310.8,-21.46L310.2,-21.06L309.2,-19.93L307.5,-19.47L306.7,-20.03L305.2,-21.58L302.8,-21.43L302.2,-19.69L301.6,-19.74L300.7,-19.57L299.3,-17.56L298.8,-17.36L297.1,-17.75L295.8,-18.78L295.2,-18.83L294.1,-18.37L293.6,-17.14L290.8,-16.54L288,-16.66L286.5,-19.57L289.3,-20.72L291,-20.47L292.9,-20.67L294.8,-21.58L294.1,-22.34L293.7,-22.52L292.5,-22.42L291.4,-22.99L289.2,-25.86L288.2,-26.38L286.9,-26.7L285.9,-26.73L285.5,-26.53L285,-25.84L284.7,-25.16L284.4,-24.94L283.7,-25.07L282.9,-25.61L281.9,-25.44L282.3,-25.86L283.2,-26.31L281.7,-26.8L280.8,-27.5L279.9,-27.68L275.8,-29.4L274.2,-29.25L273.3,-28.77L271.6,-27.38L272.1,-26.36L272.4,-25.89L272.6,-25.34L272.1,-25.24L270.6,-25.14L269.7,-25.96L269,-24.77L269.3,-23.7L270.3,-24.07L270.9,-23.63L270.5,-22.42L269.2,-22.05L267.5,-22.12L265.8,-24.27L263,-23.9L261.6,-22.52L260.4,-22.2L256.9,-23.58L255.2,-23.7L253.3,-24.89L252.6,-24.52L251.4,-21.53L249.7,-20.82L248.9,-21.21L248.1,-23.09L247.6,-23.7L246.1,-24.27L238.4,-23.73L235.7,-24.2L233.9,-24.25L231.4,-23.28L229,-23.65L224.6,-21.8L222.7,-20.57L220.5,-18.41L218.6,-14.83L217.5,-13.5L215.6,-11.81L213,-10.26L211.6,-8.703L210.8,-7.434L209.4,-2.674L209.1,-1.963L205.9,-0.263L204.8,1.619L204.4,2.088L203.1,2.885L202.2,4.195L201.8,4.568L199.9,5.501L198.3,7.825L196.1,9.446L192.9,13.91L192.6,14.44L192.3,15.62L191.8,16.49L189.1,20.33L188.2,20.69L186.8,22.47L185.4,23.53L184.1,24.79L182.5,26.11L180.1,27.6L179.3,28.47L178.1,30.47L175,32.92L173.5,33.52L171.4,35.67L171.2,36.17L171.1,36.96L171.4,38.34L171.9,38.65L172.7,38.84L175.7,40.19L178.5,39.82L181,39.82L182,39.69L182.6,39.73L182.8,40.47L182.8,41.84L182.4,43.08L182.1,46.69L181.8,48.3L182,49.86L182.6,50.14L183.2,49.43L184.2,49.33L185.2,49.65L185.9,47.15L185.3,46.76L184.7,45.86L185.1,45.19L186.8,43.96L187.9,43.85L188.9,43.94L187.8,45.51L187.3,45.84L187,45.92L186.5,46.22L187.5,47.12L188.6,47.81L190.1,48.11L189.8,48.64L188.7,49.11L187.8,51.05L186.3,51.99L185.7,52.63L185.9,53.03L186.4,53.12L189.4,52.86L191,52.33L193.2,50.82L194.1,48.58L194.9,47.96L195.1,47.96L195.4,48.11L195.5,49.69L194.3,51.46L193.4,52.46L193.1,53.31L193.6,53.31L194.6,53.14L195,52.73L196.1,50.59L196.4,49.05L196.6,46.91L196.4,45.62L196.5,44.69L196.1,43.77L196.4,43.48L199.3,44.76L200.9,45.06L203.7,44.02L204.3,44.28L204.8,44.91L207.1,46.82L207.6,47.45L208.3,49.76L210.8,52.41L213.1,53.67L213.2,54.15L214.7,55.61L215.8,56.12L216,57.42L215.5,58.47L214.4,59.48L212.3,58.56L211.9,58.6L212.2,59.19L213.7,60.88L214.9,61.59L215,63.84L214.9,65.06L214.1,66.43L214.3,67.21L215.5,68.37L216,68.82L216.6,69.48L215.9,70.91L215.8,72.51L215,73.22L214,74.77L212.6,76.03L211.9,78.44L210.8,80.56L210.7,82.65L210.5,83.39L209.6,85.54L209.3,88.45L209.7,93.17L209.9,93.44L210.3,93.72L210.3,94.05L210.1,94.26L209.2,95.66L209.2,96.61L209.5,97.33L209.6,99.19L209,102.2L208.7,102.6L208.5,103.4L208.4,104.1L208.2,104.5L208.1,105.2L208.3,105.9L208.6,106.2L207.4,108.3L207.1,111.1L206.6,112.2L205.8,113.3L204.1,114.8L203.5,115.8L202.4,117L201.3,118L199.8,120.7L198.6,123.4L195.6,126.9L195.2,127.8L194.9,128.7L194.1,130.2L193.8,132.4L192.8,133.2L192.1,135.4L189.6,138.8L189,140L187.1,141.8L185.1,144.4L182.6,146.7L182.2,147.6L181.2,148.6L180.1,150.2L178.6,151.8L178.3,152.9L177.8,153.6L176.7,154.1L175.9,154.8L173.4,158.9L173.1,159.6L173,160.3L171.4,161.8L170.5,163.4L168.9,164.3L167.3,165.7L163.4,168.2L162.4,169.1L160.2,170.3L159.3,170.3L157.4,170.9L156.2,171.6L155.5,171.4L155,170.5L154.5,170.5L154,170.7L152.9,169.8L152,169.9L151.3,169.5L150,169.8L150.2,166.2L150,165.5L149.5,166.2L148,167.4L147.4,167.7L146.8,167.7L147,166.9L147.8,165.8L147.6,165.7L147.3,165.6L146.3,166.1L145.8,166.6L144.2,168.6L143.4,170.4L142.6,170.9L142.3,171.6L141.7,172.3L140.7,172.1L140.1,172.2L138.7,171.8L138.4,172L139.3,173.3L138.5,175.3L138.2,175.5L138.2,175.5L138,175.2L138,174.8L137.7,174.4L137.3,173.8L137.1,173.2L137.5,172.9L137.4,172.3L137,171.8L136.4,171.7L136.3,171.6L136.3,171.3L136.5,171L136.8,170.8L137.5,170.5L138.5,170.2L139.1,170L139.6,170L140.1,170.1L140.6,169.8L141,169.6L141.1,169L141.1,168.2L141.3,168L141.5,167.6L141.8,167.2L142.1,166L142.3,165.2L142.4,164.8L142.4,164.3L142.3,163.9L142,163.7L141.8,163.6L141.8,162.9L141.8,162.1L141.8,161.6L142.1,158.6L142.4,157.9L141.4,153.8L141.1,152.6L141,151.9L140.5,150.9L140.3,150.5L140.4,150L140.7,149.6L141.1,149.3L142.2,149.2L142.5,149.1L143.7,148.6L144,148.3L144.7,147.6L145,147L145.3,146.3L145.9,145.9L146.3,145.3L146.7,145L147.1,145.6L147.6,145.9L148.3,146.1L149.1,146.3L150.4,146.8L151.7,147.2L152.6,147.5L153,147.6L153.9,147.8L154.2,147.9L154.6,148.1L155.1,147.7L155.8,147.1L155.7,146.2L155.8,145.1L156.4,143.3L157,142.8L157.3,142.7L157.6,142.5L158.2,142.2L158.4,141.7L158.3,141.1L158.5,140.6L158.5,140L158.7,139.3L159,139.1L159.4,138.9L159.7,138.5L160,138L160.2,137.3L160.1,136.6L160.5,136.1L161.1,135.7L161.3,135.5L161.4,134.8L161.4,134.5L161.6,134.2L161.5,133.6L161.3,132.8L162,131.6L162.5,130.6L162.6,129L162.6,128.8L162.8,128L162.9,127.7L163.3,126.8L163.8,126.2L163.7,125.5L163.5,124.8L163.5,124.3L163.9,123.8L164.2,123.5L164.4,123.1L164.8,122.9L165.1,122.8L165.8,122.7L166.2,122.3L166.6,121.9L167.3,120.8L167.6,120.2L167.7,119.9L167.3,118.9L167,118.1L166.6,117L166.4,116.5L166.7,115.9L167,115.5L167.1,115.1L167.2,114.5L167.1,114L166.4,113.3L165.6,112.9L164.7,112.8L164.4,112.7L163.8,112.9L161.1,113.8L159.9,114.5L159.2,115.3L158.4,115.7L157.2,115.7L156.1,115.6L155.2,116.1L154.1,117L153.4,117.4L152.9,117.3L152.4,118L151.8,119.3L151.2,119.9L150.5,119.7L148.8,119.8L146.2,120.2L144.6,120.2L143.9,119.8L142.8,119.7L141.4,120L140.5,120.1L140.2,119.9L140,119.4L139.9,118.5L139.4,117.5L138.6,116.6L138.4,115.4L139,114L139.1,113.1L138.8,112.5L138.7,112.1L138,111.5L137.6,110.5L137.3,110.2L137.3,109.4L137.7,108.3L137.3,107.4L135.8,107.3L134.7,107L133.5,106.1L131.8,103.6L130.9,102.7L130.3,102.6L129.9,102.2L129.6,101.5L129.2,101.5L128.8,101.5L128.5,101.8L128.3,101.9L127.8,101.6L127.3,101.6L126.9,101.8L126.5,101.7L126.1,101.2L125.5,100.8L124.7,100.7L124.3,100.3L124.5,99.79L124.3,99.4L123.8,99.15L122.6,99.2L120.5,99.59L118.7,99.5L117.4,98.89L116.6,98.35L116.5,97.84L116.1,97.36L115.5,96.89L115.1,96.07L115.1,94.93L115.2,93.83L115.8,92.28L114.4,91.28L113.9,90.68L114,90.19L114,89.79L113.7,89.5L113.7,89.04L114,88.41L114,87.59L113.7,86.6L112.9,85.2L111.6,83.41L110.9,82.08L110.8,81.24L110.7,80.58L110.4,80.22L110.3,79.59L110.4,78.91L110.2,78.46L110,78.04L110.1,77.37L109.8,76.92L109.4,76.66L109.2,76.15L109.3,75.08L109,74.14L107.9,72.45L107.6,71.2L107.5,70.09L107.1,69.54L107.1,69.05L107,68.18L106.7,67.95L106.6,67.64L106.7,67.29L106.5,66.84L105.9,66.3L105.7,65.85L105.6,65.41L105.4,65.1L104.6,64.77L104.3,64.34L104.4,63.94L104.6,63.59L104.7,63.36L104.6,63.07L104.6,62.8L104.2,62.44L103.8,62.05L103.3,61.19L102.6,60.96L102.3,60.96L101.9,60.48L102,60.19L102,59.6L101.7,59.14L101.3,58.95L100.9,59.08L100,58.64L98.6,57.65L97.5,57.19L96.75,57.27L96.27,57.57L96.12,58.09L95.59,58.03L94.34,57.11L93.09,56.88L92.38,56.37L91.83,55.53L91.31,55.17L90.81,55.31L89.66,54.74L87.83,53.45L86.87,53.03L86.5,53.26L86.32,53.26L86.01,53.22L85.54,53.22L84.7,52.9L83.58,53.05L82.14,53.62L80.6,53.98L78.93,54.11L77.96,54.05L77.64,53.77L75.84,54.17L73.33,55.02L70.88,55.82L67.82,56.22L65.78,57.57L63.74,60.04L62.26,61.59L61.37,62.22L61,63.05L61.16,64.07L61.92,64.42L63.3,64.13L64.45,64.27L65.44,64.85L65.76,65.72L65.39,66.88L65.5,68.04L66.07,69.15L66.12,70.44L65.63,71.9L64.37,73.37L62.39,74.83L61.16,76.28L60.43,78.34L59.33,80.16L58.91,81.16L58.83,81.98L58.39,82.89L57.58,83.85L57.13,84.81L57.06,85.78L56.66,86.66L55.91,87.44L55.46,88.27L55.28,89.16L54.99,89.73L54.6,90.05L54.81,90.35L55.59,90.64L55.93,91.49L55.78,92.89L55.31,93.89L54.5,94.5L53.27,94.89L51.65,95.07L49.43,96.4L47.52,98.11L45.25,100.1L44.8,100.1L43.97,99.86L42.37,99.05L40.67,98.87L39.05,98.09L38.09,97.61L36.6,96.63L36.23,96.03L35.66,95.54L34.2,94.89L33.23,94.54L32.63,94.52L31.11,95.19L30.17,95.71L29.6,95.99L28.66,95.93L27.51,95.81L27.04,95.64L26.38,95.22L25.1,93.97L24.42,93.09L23.51,92.58L22.52,92L22.02,91.87L21.16,91.91L19.93,91.75L19.28,91.55L18.73,91.73L17.63,92.34L16.27,93.5L15.2,93.95L14.05,94.58L13.11,95.3L12.2,96.07L11.07,96.92L10.55,98.11L10.29,98.97L9.243,99.5L8.46,100L7.676,100.2L6.213,99.9L5.35,100.1L3.182,101.1L2.137,101.2L1.405,101.3L0.7,101.4L-0.476,101.6L-0.92,101.8L-1.521,102L-2.2,101.9L-3.167,102.4L-5.884,104L-6.747,104.2L-7.321,104.3L-8.053,103.8L-8.785,103.4L-9.568,103.4L-10.46,103.9L-11.95,103.5L-13.72,103.2L-15.32,102.8L-15.87,102.5L-17.43,102.1L-19.73,102.1L-21.09,102.1L-21.95,102.2L-22.63,102L-23.47,101.4L-24.88,99.98L-25.71,99.57L-26.16,99.2L-26.34,98.62L-26.66,98.54L-26.86,98.13L-26.86,97.57L-26.89,96.36L-26.79,95.5L-27.02,95.24L-27.96,95.11L-29.09,94.83L-31.15,94.79L-31.99,94.77L-32.64,94.28L-33.37,93.67L-34.1,92.42L-34.73,91.85L-35.77,91.12L-36.77,90.92L-38.26,91.06L-39.35,91.2L-40.32,90.88L-40.95,90.48L-41.84,90.05L-42,90.04L-42,-42ZM225.9,42.58L227.4,45.71L227.5,46.39L227.4,47.1L227.1,48L227,48.94L227.1,49.78L227,49.99L228.3,53.73L229.2,56.08L229.5,57.02L229.7,58.03L230,60.11L230,63.26L229.9,64.29L229.7,65.31L229.5,65.91L229.1,66.32L228.8,67.44L228.7,70.58L229,72.22L229.4,73.37L229.7,74.59L229.8,75.89L229.9,76.48L230.6,77.21L230.9,77.77L231,78.58L231,79.77L231.1,80.03L231.5,80.4L232.9,88.9L233.5,91.45L235.2,95.83L235.9,98.47L236.3,99.71L236.6,101L236.8,102.4L237.3,103.8L238,105.3L239.3,106.5L239.8,107.3L240,107.8L240,109.8L239.7,109.4L239.4,107.9L238.7,107L237.8,106L236.9,105L235.8,103.5L235.2,103.1L234.6,102.8L233.5,102.4L232.9,102.4L230.4,102.6L229.3,102.9L228.3,103.6L227.8,104.7L227.4,106.7L225.1,114.1L224.5,116L224.3,118L224.4,119.6L224.5,120.2L225.2,121.8L225.8,122.7L226.2,123.1L226.6,123.3L226.9,123.7L227.2,124.1L227.6,125.1L228.2,127.5L228.9,129.2L229.2,129.7L229.9,129.6L230.4,129.6L230.9,129.7L231.1,130.2L231.5,132L231.8,133.8L231.8,134.3L231.3,135.7L231.2,136.2L231.1,136.9L231,137.3L230.7,137.8L230.6,135.7L230.3,134.3L230.2,133.1L229.7,132.2L228,131.8L226.4,131.7L226.1,131.5L225.8,131L225.4,130.6L225,130.5L224.5,130.7L223.8,131.3L223.3,132.2L222.9,133.2L222.5,134.3L221.8,137.1L221.4,138.1L220.9,138.9L220.5,138.5L220.1,137.9L219.8,137.1L219.7,136.3L219.1,133.3L219.4,130.8L220.4,127.2L220.6,126L220.5,124.9L220.2,123.8L220.1,121.7L220.1,121.2L220.5,120L220.9,118.9L221.4,117.8L221.7,116.6L221.3,113.6L220.6,111.6L219.6,109.6L219.4,109.1L219.4,108.6L220.2,106.1L220.5,104.9L220.8,102.4L221.1,100.9L221.4,99.5L221.5,92.2L221.4,91.12L220.8,88.8L220.8,87.47L221.1,85.8L221.4,84.51L221.8,83.25L221.8,80.66L221,78.26L220.4,77.21L219.4,75.93L218.7,75.22L218.3,74.67L218.7,74.49L218.9,74.06L218.3,73.39L217.9,72.37L217.9,68.34L218,67.33L218.5,66.2L218.9,64.98L219.3,62.13L219.4,59.19L219.2,57.99L219.1,55.55L219.3,54.94L220.1,54.13L221.4,53.65L221.7,53.79L222.7,54.74L223,54.79L223.4,54.68L224.2,54.24L224.6,53.14L224,52.52L224.4,51.73L225.3,51.46L225.3,50.78L225,50.69L225.3,49.71L225.5,48.75L225.2,47.85L223.7,45.62L222.8,43.98L224.4,44L224.8,43.7L225.2,43.01L225.4,42.3ZM190.9,33.78L191.5,34.29L192.6,34.2L192.8,34.53L192,35.08L191.4,36.2L191.2,37.23L191,37.62L190.4,38.12L189.8,38.78L189.3,39.19L188.8,39.32L187.9,37.16L187.4,36.55L186,37.58L185.7,37.6L186,36.33L186.8,34.95L187.2,34.75L188,32.88L188.2,32.46L190.7,33.56ZM377.4,-12.85L376.2,-11.54L376,-11.76L375.9,-12.05L375.9,-12.51L376.9,-13.38L378,-15.59L378.5,-17.41L378.3,-18.02L378.3,-18.61L381.5,-19.76L383.8,-21.61L384.2,-21.53L384.6,-19.98L384.8,-18L384.5,-16.8L382,-16.12L379.7,-14.81ZM399.2,36.98L399.2,38.82L398.3,37.88L397.9,37.14L397.3,37.01L396.9,36.66L396.2,35.76L395.4,34.57L395.1,33.98L395,33.23L394.5,32.55L392.7,31.22L393.3,31.07L394,30.49L396.1,30.84L396.5,31L396.2,31.88L396.3,32.85L397.4,34.88L398,35.58L398.7,36.13ZM313.3,102.4L312.6,102.8L311.9,102.6L311.9,101.6L313.4,98.62L314,98.8L313.8,99.52L313.3,100.6L313.4,102ZM324.9,87.18L324.6,87.44L324.3,87.38L323.4,86.66L323.2,86.32L323.5,85.72L324.7,84.83L325.3,84.85L325.5,85.05L325.5,86.1ZM321.4,91.22L320.4,92.36L319.1,92.63L318.4,93.01L317.9,93.77L317.6,94.19L316.8,93.95L316.5,93.58L316.5,92.24L316.1,91.65L316.3,91.28L317.1,91.33L317.8,90.47L319.6,90.11L320.3,89.18L321.1,86.86L322,86.04L322.6,85.86L322.9,87.02L322.7,88.29L322.3,89.52ZM308,108.1L307.8,108.7L307.4,108.5L307.4,108.3L308.1,107.7L308.4,106.9L308.9,106.9L309.1,107L308.9,107.4ZM319.4,85.28L318.7,85.42L318.4,85.11L318.2,84.75L318.1,84.23L318.8,83.99L319.3,84.27L319.4,85.03ZM300.9,119.3L300.6,120L300.2,119.9L300.1,119.7L300.5,119L300.7,118.9ZM292.9,128.6L291.6,129.8L291.1,129.8L290.9,129.3L290.8,129.1L291.9,128.9L293.2,127.4L294.1,126.3L294.6,126L295,126ZM276.1,141.8L275.1,142.3L274.4,142.3L276,139.7L276.9,139.4L278.1,137.8L280.7,136L280.9,135.8L282.4,135.9L280.1,137.9L279.8,138.8L278.8,139.6L278.1,139.9L277.5,140.3ZM268.2,145.2L266.9,145.9L265.8,146.2L263.9,147.7L263.3,148.5L262.3,148.9L261.4,148.7L261.1,149L261.1,149.6L260.7,150.1L258.9,151.7L258.1,153L257.4,153.2L255.9,154.5L256.1,153.4L256.4,152.9L257.7,151.9L257.7,150.8L258.4,149.9L259.8,149L260.7,147.8L261.4,147.5L262.2,146.5L263,146.1L263,145.3L263.3,144.5L263.6,144.5L264.3,145.7L264.8,145.8L266.2,145.5L268.3,143.4L269,143.1L269.5,143L269.8,143.2L269.9,143.4L269.9,143.7L269.7,144.2L270,144.7L269.6,145.1ZM254.6,161.2L254.3,161.4L253.8,161.2L253.8,160.6L253.9,160.5L255.4,160L255.8,160.3L255.9,160.6ZM250.9,153.6L252,154.3L253.5,154.1L253.1,154.8L252.5,154.8L251.5,155.8L250.6,155.9L250.2,156.1L248.8,157.5L248.5,158.1L247.7,159.2L246.4,160.2L246.1,162L245.3,161.2L245.2,160.5L245.5,159.9L247,158.6L247.6,157.9L247.7,157.3L248.3,156.7L248.6,156.1L248.9,155.8L250.2,153.5ZM68.66,377.4L69.78,377.8L72.24,379.2L73.13,379.6L74.07,379.8L74.8,379.9L75.48,379.6L75.74,379.2L76.26,378.4L76.78,378.2L77.12,378.6L77.36,379L77.49,379.6L77.33,380.3L76.81,380.9L76.5,381.6L76.29,383.9L76.29,384.6L76.47,385.3L76.91,386.4L77.15,386.7L77.83,387.1L78.01,387.4L78.04,387.9L78.14,388.3L78.59,388.5L78.95,388.7L78.82,389.2L78.59,389.8L78.27,391L76.83,394L76.76,394.6L76.18,395.9L75.01,396.1L73.65,396.7L72.92,397.1L72.26,397.8L72,398.6L72.21,398.9L72.34,399.3L72.34,399.8L72.13,400.1L71.48,401L71.22,401.7L70.93,402L70.77,402.4L70.83,402.8L71.09,403.2L71.87,404.8L72.73,406.4L72.92,406.6L72.97,406.8L72.47,407.2L72.5,407.9L72.63,408.7L73.39,410.5L73.49,411L73.75,411.4L74.12,411.8L74.56,412.1L75.76,412.7L76.23,412.8L76.73,412.8L76.83,412.4L77.28,412.3L77.17,412L76.65,411.5L76.65,411.2L76.91,411L77.25,410.9L77.98,410.3L78.74,409.9L79.74,409.9L80.7,410.2L81.41,410.4L81.98,410.9L82.56,411.7L82.97,412.6L82.95,413L82.87,413.4L82.87,413.9L83.18,414.2L84.13,414.2L84.59,413.5L84.67,412.8L84.33,412.5L84.49,412.1L84.78,411.8L85.2,412.1L85.59,412.5L87.05,413L87.42,413.1L87.7,413.1L88.36,413.5L88.67,413.8L88.31,414.4L86.84,414.5L86.42,414.9L86.87,415.8L87.55,416.5L87.99,417.1L88.38,417.7L88.38,418.3L88.15,418.9L88.78,418.9L89.38,419L90.21,419.5L90.47,419.6L90.73,419.5L90.71,421.3L90.13,423L89.43,422.8L88.83,422.1L88.93,421.2L89.32,420.4L89.11,420.2L88.72,420.3L88.28,420.4L87.78,420.5L87,420.4L85.38,419.5L84.7,419.4L84.54,419L84.59,418.1L83.94,417.1L83.84,416.7L83.63,416.5L81.69,415.3L81.46,415.1L80.86,414.2L79.5,413L79.14,412.8L78.72,412.8L78.59,413.1L78.77,413.6L78.85,414.1L78.82,414.5L78.87,414.9L79.53,415.6L79.61,415.9L80.05,416.8L80.1,417.9L79.55,418.3L78.93,417.8L78.9,417.4L78.8,417L78.14,416.1L77.93,415.9L76.68,414.9L75.71,413.9L73.57,412.8L73.33,412.7L72.94,412.8L72.6,412.9L71.56,413.5L71.19,413.8L71.17,414.4L70.43,414.9L69.42,415L68.63,414.7L67.98,414.1L67.43,414.1L66.78,413.1L65.97,413L65.29,413.7L65.16,412.3L65.16,410.9L65.34,410.5L65.68,410.1L67.38,408.6L67.59,408.1L67.51,407.5L67.12,406.9L66.52,406.6L65.81,406.5L65.31,406.2L64.92,405.7L64.63,406.6L64.89,407.8L64.95,408.7L64.71,409L64.27,409L63.85,408.9L63.56,408.6L63.33,407.7L62.73,407.2L62.49,406.3L62.23,406.2L61.68,406.3L61.26,405.9L61,404.9L60.95,403.9L60.72,403.1L60.38,402.2L60.19,401.6L59.88,398.5L59.83,398.2L59.67,398L59.28,397.6L58.99,397.2L58.94,396.8L59.02,395.3L59.15,395L59.43,394.8L59.85,395.1L60.17,395.5L60.56,395.6L60.92,395.9L61.58,396.8L61.84,396.9L62.65,396.9L63.12,396.8L63.35,396.4L63.48,396L63.51,395.6L63.04,394.2L62.88,393.3L62.88,392.4L63.01,391.5L63.64,390L63.72,389L63.67,387.6L63.77,386.8L63.74,386.4L63.38,385.6L63.27,384.8L64.35,380.8L64.69,380.1L64.92,379.3L65.03,378.2L65.84,377.9L66.59,377.5L66.98,377.5L67.38,377.6L68.32,377.4ZM41.17,453.4L40.49,454L40.57,453.3L40.75,452.7L41.43,451.4L41.93,451L42.74,450L43.21,449.6L44.31,448.6L45.33,447.6L45.66,447.5L46.03,447.5L46.34,447.4L47,446.8L48.64,444.9L50.03,443.5L51.44,441.7L52.12,441.2L52.3,441L53.58,439.4L54,439.1L54.44,439L54.76,438.7L55.05,438.5L55.49,437.7L55.7,436.9L55.57,436.4L55.31,435.7L55.65,434.8L55.88,434.3L56.8,432.4L57.06,432L57.42,432.3L57.48,432.6L57.29,433.4L57.29,433.8L57.5,434.3L57.24,434.9L57.89,436.8L58.39,437.9L58.41,438.3L57.74,439L57.34,439.2L56.48,439.4L56.09,439.6L55.49,440.1L55.1,440.8L54.99,441.2L54.81,441.5L53.03,442L52.22,442.3L51.83,442.6L51.65,443L51.78,443.7L50.29,446.2L49.82,446.9L49.32,447.5L48.7,447.9L47.83,448.1L47.13,448.6L46.66,449.5L46.08,450.2L45.35,450.8L44.57,451.3L43.84,451.7L43.05,452L42.82,452.3L42.66,452.7L42.3,452.9L41.9,453ZM78.8,430L79.63,430.4L80.47,430.1L81.28,430.2L81.96,430.7L81.72,431L81.69,431.3L83.18,430.6L83.6,430.6L83.58,431.3L83.5,431.9L83.31,432.5L83,433.1L82.56,433.7L82.01,434.2L81.33,434.4L81.02,434.7L80.91,435L80.94,435.5L80.78,435.9L80.08,436.1L78.98,436.9L76.63,437.4L75.97,437.7L75.56,438.2L75.11,438.6L74.85,438.7L74.75,438.5L74.72,438.3L75.06,437.3L74.98,436.8L74.82,436.4L74.93,435.5L75.35,434.7L75.56,433.9L75.63,432.2L75.95,429.8L75.92,429.6L75.69,429.2L74.77,429L74.41,428.7L74.59,428.3L74.93,427.9L75.4,428L75.82,428.3L77.31,428.9L78.09,429.4ZM83.39,448.9L82.92,448.9L82.4,448.9L82.06,448.5L81.49,447L80.81,446.6L80.02,446.3L79.63,446.1L79.27,445.8L78.17,444.2L78.09,443.3L78.27,442.7L78.61,442.3L78.98,442.1L79.89,442.1L80.36,442L81.41,441.3L81.49,441.1L81.49,439.9L81.38,439.1L81.12,438.3L81.41,437.9L81.77,437.5L82.14,436.8L82.22,436.3L82.22,435.8L82.32,435.4L82.64,435.2L84.05,434.7L84.31,434.6L86.16,435.2L86.53,436L86.56,436.2L86.27,437.1L86.03,437.7L85.41,438.6L84.94,439.6L84.59,441.1L84.39,441.5L83.81,442.5L83.63,443L83.63,444.1L83.52,444.5L83.52,444.9L84.67,446.7L84.78,447L84.78,447.3L84.57,447.7L84.1,448.4L83.84,448.7ZM93.87,432L94.39,432.3L94.97,432.2L95.67,431.6L96.46,431.8L96.93,432.7L97.16,433L97.29,433.6L97.24,434.9L97.06,436.2L97.22,436.4L97.58,436.6L97.89,436.9L98.16,437.3L98.34,437.7L98.39,438.6L98.86,439.4L98.91,439.7L98.81,440L98.05,440L97.97,440.2L98,440.6L97.74,440.4L97.29,439.6L96.88,439.3L97.01,440.5L97.14,441.1L97.16,441.7L96.46,441.3L95.59,441L95.36,440.7L95.46,439.9L95.44,439.6L95.07,438.7L95.49,436.9L95.49,436.6L95.41,436.2L95.07,435.5L94.52,434.9L94.18,434.9L93.35,435.3L92.93,435.2L92.69,433.5L92.36,431.8L92.12,431.4L91.94,431L92.09,430.6L92.43,430.8L92.88,431.2L93.43,431.5L93.69,431.7ZM98.7,423.3L99.23,423.9L99.33,424.3L99.28,424.8L99.51,425L99.93,425.1L100.5,425.3L100.8,425.8L100.6,426.2L100.7,426.8L100.3,427.5L100.3,428.9L100.6,429.3L100.6,429.7L100.5,430.2L100.6,430.6L101.3,431.8L101.4,432.2L101.2,432.5L101.1,432.8L101.5,432.9L102.1,433.4L102.4,434.1L102.3,434.2L101.9,433.7L101.5,433.6L100.1,433.8L99.23,433.5L98.65,433.5L98.1,432.6L97.61,432.5L97.22,432.1L96.56,431L96.35,430.5L96.82,429.9L96.95,429.4L96.93,428.9L96.48,429L96.12,428.8L95.67,428.3L95.49,428L95.15,427.7L94.63,427L93.84,426.8L93.56,426.6L92.93,426.1L92.51,425.4L92.07,424.2L91.83,423L93.82,423.3L95.8,423.2L98.05,422.9ZM65.78,416.2L66.15,416.2L67.33,416L67.8,416.1L68.11,416.6L68.5,416.7L68.81,416.9L69.42,416.5L69.99,417L70.51,417.8L71.14,418.3L71.71,418.8L71.84,419.1L71.48,419.6L71.38,420.3L71.43,421L71.84,422.4L71.71,422.8L71.24,423.4L70.93,424L70.96,424.3L70.83,424.5L70.8,425L70.51,424.9L70.28,424.9L70.04,425.1L69.65,425.6L69.05,425.4L68.79,425.3L68.71,424.9L68.53,424.7L68.29,424.5L67.67,423.9L67.38,423.4L67.35,422.9L67.19,422.4L66.88,422L66.46,421.6L66.31,421.3L66.25,420.9L66.23,420L65.6,418.8L65.39,418.5L64.84,418.2L64.37,417.8L64.16,417.4L63.98,416.8L63.85,416.7L63.48,416.8L63.15,416.7L63.22,416.2L63.59,415.9L64.08,415.9L65.42,416ZM104.3,447L104.8,447.4L105.6,447.3L105.6,448.4L105.7,448.7L106.4,449.7L106.5,450.5L106.1,451.2L105.8,451.6L105.2,452.1L105.2,452.3L105.5,452.6L106.3,452.7L106.9,453.1L107,454.3L107.6,455.2L107.5,455.6L107.3,457.2L107.4,457.9L107.8,458.4L108.2,458.7L108.4,459L108.5,460L108.5,461.6L108.5,462.2L108.2,462.7L107.4,463.9L106.4,464.9L105.8,464.8L105.6,465.1L106,465.9L105.8,467.8L105.6,469L105.3,468.4L105,467.7L104.8,465.9L104.5,465.1L104.1,464.4L103.9,463.7L103.5,463.1L102.9,461.6L102.6,461.6L102,462.1L101.8,462.4L101.8,462.8L101.6,463.2L100.9,463.9L100.3,464.6L99.88,465.5L99.72,466.3L100.1,466.9L100.5,467.1L101.1,467.6L101.2,467.9L101.8,469.7L101.8,471.4L101.4,472.2L100.3,473.7L99.49,474.2L99.04,474L98.7,473.1L98.65,472.7L98.89,471.8L98.91,471.1L98.65,470.8L98.34,470.8L98.23,470.9L97.53,472L97.22,472.2L96.77,472.3L96.43,472.2L94.31,471.3L92.59,470.4L91.26,469.6L90.27,468.3L90.06,467.4L90.06,466.4L89.61,465L89.56,464.5L89.61,464L90.03,463.1L90.55,462.7L90.87,462.4L91.1,462L91.26,461.6L91.21,461.1L91.02,460.8L90.19,459.8L89.48,459.1L87.99,458.6L87.65,458.2L87.29,458L86.87,457.9L86.45,457.9L86.03,458.1L85.9,458.4L85.95,458.8L85.9,459.1L85.28,461L84.49,460.6L83.73,460.1L83.55,459.8L83.45,459.4L83.31,459.1L83.16,458.9L82.79,459.5L82.37,460L81.85,460.1L81.3,460.1L81.12,459.9L80.94,458.7L80.36,458.3L79.66,458.4L78.8,459.1L78.64,459.3L78.45,459.9L77.52,461.5L77.02,462.7L76.47,464L76.23,464.4L75.89,464.6L75.4,464.5L74.93,464.2L74.48,463.4L74.64,462.5L75.14,462L75.53,461.3L76.03,459.2L76.05,458.4L76.16,458.1L76.97,457.1L77.64,456.5L77.98,456.3L79.47,456L80.08,455.7L81.02,455.7L81.8,455.5L82.43,455.1L82.48,454.6L82.43,454.1L82.58,453.8L82.82,453.5L83.13,453.1L83.52,452.9L84.57,452.7L84.94,452.5L85.2,452.1L85.61,451.5L86.06,451.7L86.53,451.9L87.39,452.1L88.12,452.7L88.62,453.5L88.7,453.9L88.83,455.3L88.64,455.6L87.91,456.2L88.25,456.3L89.19,455.7L89.69,455.5L90.87,455.2L91.15,455L91.34,454.7L91.75,453.8L92.07,452.9L92.3,452.6L92.64,452.3L92.98,452.2L94.21,452.8L95.02,452.5L95.23,451.6L95.41,450.3L95.57,449.9L96.01,449.5L96.56,449.6L97.29,450.1L98,450.3L98.23,449.9L98.5,449.1L98.76,449.1L99.7,449.4L100.6,449.2L100.8,448.3L100.7,447.3L99.96,444.4L100.4,443.8L100.7,443.8L101.6,444.5L103.3,445.6L103.9,446.2ZM85.14,446L84.86,446.2L84.75,445.7L84.83,445.1L85.38,442.8L85.25,442.2L86.19,440.9L86.76,439.7L87.6,438.5L87.73,437.8L88.49,436.6L89.19,434.9L89.17,434.3L89.35,434L89.45,433.6L89.45,433.2L89.98,432.6L90.13,433L89.98,433.8L90,434.2L90.08,434.4L90.08,435.1L89.9,436.3L90.08,437.7L89.74,439L89.35,439.6L88.8,440.1L88.17,440.3L87.52,441L87.13,441.8L87.05,442.5L86.03,445ZM74.61,375.2L74.17,375.8L73.91,375.6L74.17,375.1L74.17,374.9L74.38,374.5L74.77,374.4L75.11,374.8ZM71.71,371.6L71.79,372.3L71.35,372.3L70.72,371.9L70.64,371.7L70.67,371.5L70.77,371.4ZM74.9,363.9L74.77,364L74.56,364L74.77,363.2L75.14,363L75.42,363.1ZM74.3,360.7L73.96,361.3L73.67,361.3L73.73,361L74.09,360.2L74.22,360.2ZM69.1,470.7L69.49,471.3L69.99,471.1L70.77,471.3L70.93,471.6L70.9,471.7L70.07,472.2L69.52,471.7L68.53,472.1L68.06,471.9L67.43,472.1L67.04,471.6L67.19,471.2L68.21,470.6ZM39.47,457.5L39.11,458.1L38.69,457.4L38.72,456.5L38.85,456.3L39.47,456.2ZM60.06,438.4L59.17,438.6L58.96,437.9L59.59,437.2L60.32,437.5L60.74,437.8L60.53,438ZM61.39,425.9L61.79,426.1L62.07,425.9L62.34,425.5L62.57,426.1L63.15,426.6L62.96,427.1L62.44,427.1L61.94,427L61.39,427.2L60.74,427.1L60.38,426.7L59.93,425.9L59.7,425.7L59.72,425.4L59.88,425.2L59.8,425.1L59.85,425L59.93,424.9L60.06,424.8L60.4,425.2L61.24,425.7ZM60.95,429.4L60.4,429.6L60.27,429.5L60.19,429.1L60.19,428.9L59.67,427.5L60.06,427.3L60.35,427.5L60.66,427.7L60.92,427.8L61.19,428.2L61.13,428.5L61.21,428.8ZM79.89,438.5L79.71,438.6L79.53,438.6L79.11,438.8L78.95,438.3L79.08,437.5L79.74,436.8L79.89,436.6L80.08,436.5L80.28,436.5L80.49,436.8L80.55,437.1L80.13,438.3ZM94.03,443.5L93.95,443.8L93.37,443.8L93.17,443.8L92.64,444.5L92.33,444.7L90.61,444.9L89.25,444.7L88.78,444.4L88.46,443.7L88.38,443.3L88.72,442.9L89.04,442.6L90.13,442L90.4,441.5L90.97,441L92.15,440.8L92.25,440.9L92.41,441L92.64,441L93.24,441.5L93.9,441.8L93.74,442.9L93.92,443.2ZM62.49,476.7L62.31,477.2L62.07,477.4L61.76,477.2L61.52,477L61.39,477.4L60.77,477.5L60.38,478L59.77,478.2L59.38,478.1L59.43,477.6L60.56,476.9L61.26,476.7L61.86,476.2L62.18,476.1L62.34,476.5ZM75.87,468.2L75.14,468.3L74.9,468.3L74.33,467.5L74.28,467.2L73.81,466.8L73.96,466.4L74.56,466.4L75.61,465.9L77.28,466.6L77.54,466.9L77.02,467.1L76.65,467.8ZM104.7,443.7L104.6,443.7L104.2,443.2L104.2,442.5L104.8,441.5L105.2,442.4L105.2,442.8L105.1,443L105.5,443.4L105.2,443.7ZM102,442.6L101.8,442.8L101.7,442.4L101.2,442L100.8,441.3L100.6,441.1L100.7,440.6L100.8,439.7L101.2,439.3L101.4,439.2L101.7,438.7L101.8,438.7L101.9,439.1L101.7,440.2L102.1,441.4L101.9,442.2L102,442.4ZM62.65,414.1L62.65,414.6L61.42,413.9L61.39,413.7L61.42,413.5L61.55,413.4L62.2,413.6ZM74.56,415.7L75.03,415.7L75.16,415.7L76.03,416.3L75.97,416.6L76.08,417L75.58,417.7L75.5,418L75.22,418.2L74.3,417.7L73.96,417.3L73.86,416.6L74.22,415.5ZM75.87,424.6L75.29,426.4L74.9,425.8L75.06,425.4L74.72,425L74.64,424.7L74.77,424.3L75.11,423.9L75.19,422.7L75.95,422.3L76.23,422.3L76.13,422.6L76.16,423.2ZM79.94,424.9L79.58,425.1L78.82,424.3L78.38,424L78.27,423.8L78.61,423.5L79.58,423.5L80.08,424L80.15,424.3ZM84.49,420.8L85.12,422L84.44,421.2L83.66,420.7L82.84,419.8L82.24,419.5L82.09,419.3L82.14,418.9L82.58,418.9L82.77,418.9L83.94,420.4ZM88.07,423.8L88.1,424.5L87.83,424.2L86.95,422.9L86.71,422.5L86.95,422.2L87.6,422.6ZM87.65,425L89.04,425.9L90,427.4L90.11,428.6L90.03,429L89.59,428.5L88.59,427.8L87.91,427.7L87.7,427.5L87.78,427.2L87.34,426.8L87.29,426.7L86.89,426.5L86.29,425.7L85.88,425.6L85.48,425.7L84.57,426.9L83.6,427.7L83.58,427.4L83.97,426.4L84.23,424.7L84.39,424.2L84.18,423.5L84.15,422.9L84.88,423.2L85.8,423.5L86.5,423.9L86.61,424.2ZM92.28,415L92.07,415.5L91.83,415.4L91.52,415.4L90.97,415.8L90.11,415.2L89.98,414.8L90.61,413.9L90.61,412.4L90.81,412.1L91.05,411.8L91.34,411.7L91.94,412.7L92.15,412.8L92.72,413.2L92.59,414.2L92.64,414.7ZM76.47,411.9L76.44,412.2L74.88,411.1L74.8,410.9L74.8,410.8L74.9,410.6ZM75.42,404.8L75.56,405L75.42,405L75.32,405.1L74.98,405.6L75.35,406.6L75.11,407.3L74.69,407.4L74.54,407.3L74.61,406.9L74.72,406.8L74.64,406.3L74.38,406L74.2,405.4L73.88,405.1L74.04,404.5L74.98,404.4ZM91.99,437.5L91.81,437.5L92.15,436.8L92.41,436.9L92.49,437L92.49,437.3ZM98.99,442.1L99.04,442.5L98.13,441.5L97.92,440.8L98.23,440.9L98.65,441.1ZM81.98,461L82.06,461.2L82.03,461.3L81.28,461.7L81.04,461.7L80.96,461.1L81.15,460.9L81.51,461.1L81.83,460.8ZM102.6,464.3L102.5,464.7L102.1,463.7L101.9,463.5L102.2,462.6L102.6,463ZM94.13,430.9L93.22,431L92.83,430.7L92.33,429.7L92.88,429.5L93.43,429.5L93.82,429.9L94.21,430.5ZM95.57,448.3L95.36,448.7L94.55,448.4L94.34,448L94.44,447.7L94.84,447.5L95.05,447.5L95.44,447.9ZM69.75,373.8L69.73,374.3L69.36,374L69.28,373.6L69.31,373.4L69.47,373L69.7,373.3ZM59.67,430.7L59.83,431.1L59.62,431.7L59.43,431.8L59.23,431.6L58.7,431.4L58.68,431.1L58.94,431.1L59.41,430.8ZM87.94,432.5L88.36,433.5L87.78,433.5L87.57,432.8L87.83,432.5ZM77.44,423.3L77.23,423.5L77.1,423.4L76.99,423L77.2,422.8L77.28,422.8ZM104,445L103.9,445.2L103.7,444.8L103.9,443.9L104,443.8L104.2,444.3ZM95.91,430.2L95.78,430.6L95.57,430.5L95.39,430.3L95.1,429.7L95.02,429.3L95.44,429.5L95.67,430ZM41.48,455.1L40.99,455.3L40.88,454.8L40.94,454.4L41.3,454.4L41.46,454.5ZM87.52,447.6L87.57,448.3L86.92,448.6L86.37,448.4L86.03,447.9L86.03,447.7L86.32,447.8L87,447.4L87.21,447.3ZM166.6,461.2L166.2,461.3L166,460.8L166,460.1L166.3,459.6L166.6,459.5L166.7,459.4L167,458.8L167.1,459.1L166.9,460.3L166.6,460.8ZM121.5,210.6L121.2,210.7L120.8,211.5L120.4,212.5L120,213L119.5,213.3L119,213.5L118,213.6L117.2,213.5L116.9,213.4L115.7,213.5L115.3,213.5L113.6,213.5L112.7,213.6L112.1,213.7L111.6,214.1L111,214.7L110.6,215.4L109.7,216.6L109.1,217.1L109.1,217.9L109.1,218.2L108.8,218.4L108.7,218.3L108.4,218.2L106.9,217.5L105.7,217.9L105.4,218.5L105.1,218.7L104.6,217.6L103.8,217.5L102.5,216.5L102,216.7L101.9,217.1L101.2,218.1L100.2,218.8L99.91,218.9L99.57,218.9L99.62,218.7L99.23,217.8L97.71,217.4L97.16,217.1L96.88,217L98.36,216L98.76,215.8L98.47,215.6L98.16,215.5L96.93,215.6L96.3,215.3L95.36,215.4L94.73,215.2L96.06,214.2L96.12,213.6L96.09,213.2L96.77,211.9L97.45,211.2L99.2,210.2L99.98,210.1L100.5,210.1L101,210L100.5,209.6L100,209.4L99.12,209.5L98.18,208.9L98.1,208.3L99.93,204.4L99.96,204L99.67,203.1L99.59,202.2L98.26,201.6L97.69,201.6L96.01,200.5L95.33,200L95.07,200.1L95.02,201L94.78,201.2L94.34,201.3L94.11,200.4L93.74,199.7L92.64,198.9L92.22,198.6L92.43,197.7L92.33,197.6L92.51,196.7L93.19,196L94.86,194.6L95.31,194L96.17,193.3L96.54,193.3L96.95,193.3L97.06,192.9L97.16,192.7L97.5,192.5L98.31,192.1L99.25,191.6L99.98,191.4L100.9,190.6L101.3,190.3L101.7,190.3L101.7,190.1L102,189.7L102.3,189.4L102.6,189.4L103.3,189.2L104.1,189.1L104.7,188.4L104.9,187.9L105.3,187.4L106.1,186.8L106.6,186L107.2,185L107.5,184.7L107.8,184.7L108,184.3L108.1,183.3L108.4,182.4L108.6,181.9L109.3,181.4L109.5,181.2L109.6,181.1L109.9,181.2L110.4,180.9L110.8,180.6L111.1,180.7L111.5,181L111.9,181.5L112.1,181.9L112.4,182.3L112.5,182.8L112.8,183L113.4,183.1L114.5,183.5L115.2,183.5L115.6,183.7L116.5,183.9L118.1,183.7L118.8,183.8L119.1,184.1L119.6,184.4L119.8,184.4L120.2,183.9L120.6,183.2L120.9,182.7L120.8,182.3L120.6,181.8L120,181.4L119.7,180.7L119.3,180L119.1,179.8L119,179.4L119,178.9L119.1,178.6L119.9,178.3L121,178.2L121.8,178.3L123.3,178.2L124.2,178L124.8,178.1L125.4,178.1L125.7,177.8L126.6,177.1L127,176.8L127.4,176.3L127.5,175.8L127.6,175.4L127.8,174.9L128.3,174.4L128.6,174.1L129.1,174.2L129.5,174.4L129.8,174.7L130.1,174.6L130.4,174.2L130.6,174.1L131.1,174.1L131.2,173.8L131.4,172.5L131.6,171.5L131.7,170.8L132.1,169.7L132.3,168.9L132.5,168.6L132.8,168.6L133.1,168.8L133.4,169L133.8,168.9L134.2,169L134.3,169.4L135,169.7L135,169.9L135,171.1L135.4,171.7L135.9,172.2L136.5,172.7L136.9,172.8L137.1,173.2L137.3,173.8L137.7,174.4L138,174.8L138,175.2L138.2,175.5L137.9,175.8L137.4,175.6L136.6,175.5L135.5,176.4L135,176.6L134.6,177.5L133.7,178L133.3,178.5L132.7,179.4L132.4,180.3L131.5,181.3L131,182.4L130.9,183.4L131.5,184.4L131.5,185.2L131.2,186.9L131.4,188.8L131.1,189.5L128.5,190.8L127.8,191.4L126.8,193L125.6,193.6L124.9,194.3L123.8,194.7L123.2,195.8L122.5,196.4L121.6,196.8L120.9,197.3L119.5,197.4L118.5,197.7L117.8,198.7L115.6,199.8L115.3,200.6L115.5,201.8L115.5,202.8L115.3,203.6L114.8,203.3L114.5,203.6L114.3,204.3L114.4,205.1L115.1,205.4L115.7,205.7L116.5,205.9L117.2,206.3L118.5,208L119.6,208.8L119.9,209.1L120.5,209.5L121.1,210.1ZM96.27,202.1L95.86,202.3L95.86,201.8L96.17,201.4L96.48,201.4ZM-42,90.04L-41.84,90.05L-40.95,90.48L-40.32,90.88L-39.35,91.2L-38.26,91.06L-36.77,90.92L-35.77,91.12L-34.73,91.85L-34.1,92.42L-33.37,93.67L-32.64,94.28L-31.99,94.77L-31.15,94.79L-29.09,94.83L-27.96,95.11L-27.02,95.24L-26.79,95.5L-26.89,96.36L-26.86,97.57L-26.86,98.13L-26.66,98.54L-26.34,98.62L-26.16,99.2L-25.71,99.57L-24.88,99.98L-23.47,101.4L-22.63,102L-21.95,102.2L-21.09,102.1L-19.73,102.1L-17.43,102.1L-15.87,102.5L-15.32,102.8L-13.72,103.2L-11.95,103.5L-10.46,103.9L-9.568,103.4L-8.785,103.4L-8.053,103.8L-7.321,104.3L-6.747,104.2L-5.884,104L-3.167,102.4L-2.2,101.9L-1.521,102L-0.92,101.8L-0.476,101.6L0.7,101.4L1.405,101.3L2.137,101.2L3.182,101.1L5.35,100.1L6.213,99.9L7.676,100.2L8.46,100L9.243,99.5L10.29,98.97L10.55,98.11L11.07,96.92L12.2,96.07L13.11,95.3L14.05,94.58L15.2,93.95L16.27,93.5L17.63,92.34L18.73,91.73L19.28,91.55L19.93,91.75L21.16,91.91L22.02,91.87L22.52,92L23.51,92.58L24.42,93.09L25.1,93.97L26.38,95.22L27.04,95.64L27.51,95.81L28.66,95.93L29.6,95.99L30.17,95.71L31.11,95.19L32.63,94.52L33.23,94.54L34.2,94.89L35.66,95.54L36.23,96.03L36.6,96.63L35.92,98.19L34.56,101.3L33.41,103.9L32.81,105.4L32.37,106.5L31.9,107.6L31.82,108.2L31.32,109.3L30.35,110.5L30.14,111.8L30.17,113L30.09,114.1L29.02,114.7L28.19,115.4L28.45,117.4L28.86,118.1L29.55,118.9L30.28,119.6L30.9,120.2L31.61,119.9L32.18,119.1L33.33,118.3L33.96,118.3L34.38,118.5L35.37,118.5L36.36,118.3L37.17,118.2L38.19,118.4L38.56,118.6L39.42,118.9L40.34,119.6L40.99,120.4L41.46,120.5L41.69,120.3L42.22,119.6L42.92,118.9L43.81,117.8L44.49,116.9L45.01,116.8L46.01,116.8L46.48,116.6L47.23,116.5L47.91,116.8L49.77,117L50.29,117.4L51.18,118.7L51.67,119.4L52.54,119.8L53.09,120L53.56,120.2L54,120.5L54.13,120.9L54.31,121.5L54.6,121.9L55.12,122.3L55.54,122.5L55.65,122.9L55.78,123.1L56.14,123.4L57.24,124.8L57.76,125.2L58.57,125.9L58.91,126.6L58.94,127.2L59.15,127.7L59.67,128.5L59.93,129L59.83,129.7L59.93,130.4L59.72,131L58.83,131.5L58.55,131.7L57.92,131.7L56.85,131.5L55.83,131.6L54.6,131.4L53.63,130.8L53.11,130.3L52.27,130.1L51.88,130.2L51.41,130.8L50.87,130.7L50.37,130.8L49.09,130.7L48.41,130.5L47.31,130.9L46.68,131.1L45.51,131.6L44.8,132.4L44.28,132.6L43.78,132.6L43.42,132.3L42.87,131.9L42.09,131.9L41.85,132.1L41.75,132.4L41.48,133.5L41.48,134L41.33,134.3L40.86,134.4L40.02,134.3L38.74,134.3L37.88,134L37.36,134.1L36.65,134.7L36.13,134.8L35.74,135L35.4,135.9L34.88,136.4L34.25,137.1L33.57,138.4L33.2,139.2L33.31,139.7L33.38,140.2L33.07,140.8L32.45,141.3L31.92,141.4L31.16,142L30.12,142.9L29.34,143.7L28.29,143.9L27.59,144.1L25.96,144.3L25.57,144.4L23.8,144.5L22.49,144.1L21.81,144.2L21.18,144.4L20.9,144.7L20.77,145.2L20.66,145.6L20.16,146.3L19.17,147.3L18.34,147.9L17.71,148.7L17.34,149L16.64,149.3L16.25,149.5L15.33,150.2L14.6,150.8L14.13,151L13.55,150.9L13.19,150.8L12.06,150.6L11.31,150.5L10.24,150.4L7.754,149.6L6.944,149.3L6.239,148.3L5.612,147.8L4.723,147.8L3.443,147.8L2.842,147.6L1.875,147.8L0.804,148.7L0.308,149.5L-0.136,150.2L-0.659,151.8L-0.894,152.8L-1.103,153.4L-1.652,154.3L-1.73,154.9L-1.521,155.3L-1.103,155.8L-0.868,156.7L-0.267,157.5L0.308,158.2L1.431,159.2L1.745,159.8L2.111,160.5L2.189,161.1L2.137,161.5L1.719,161.8L0.961,162L0.569,162.4L0.02,163L-0.659,163.7L-0.999,163.7L-1.364,163.9L-3.298,164.7L-4.003,164.9L-4.578,165.2L-5.283,166L-5.806,166.7L-6.459,167.5L-6.747,167.9L-7.348,168.7L-8.131,169.6L-8.549,170.2L-8.785,170.4L-8.994,170.8L-9.804,171.1L-10.48,171.5L-11.48,172L-12.91,172.5L-14.09,173L-14.85,173.4L-15.94,174L-16.7,174.1L-18.19,174.1L-20.07,174.3L-21.43,174.4L-22.45,174.2L-23.99,174.2L-25.17,174.1L-25.95,174.3L-27.83,174.5L-28.25,174.5L-31.54,175L-33.01,175.3L-34.36,175.4L-35.33,175.6L-35.91,175.9L-36.72,176.2L-37.16,176.4L-38.62,177.1L-41.89,178.5L-42,178.6L-42,90.04ZM17.02,482L17,481.9L17.21,481.7L17.53,481.6L17.6,481.6L17.81,481.8L18.29,482L17.02,482ZM22.8,482L22.78,481.8L22.65,481L22.54,480.6L22.83,480.4L23.41,480L23.98,479.6L24.58,479.3L24.61,479.9L24.58,480.8L24.76,481.6L24.87,482L22.8,482ZM26.38,482L26.33,481.3L26.04,480.4L25.6,479.6L25.42,479.3L27.11,479.1L27.48,478.8L28.16,478.2L28.42,477.9L28.6,477.2L27.77,476.7L27.45,476.2L27.43,475.6L28.42,474.5L28.76,474.2L28.92,474.6L29.36,474.7L29.75,474.7L30.17,474.7L30.75,474.1L31.06,473.3L32.08,472.2L32.45,471.3L32.65,470.4L35.24,467.5L35.55,467L37.09,464.2L37.28,464.1L37.7,464.3L37.8,465.3L37.75,465.6L37.51,466.2L37.36,466.9L37.54,466.9L38.27,466.5L39.03,465.5L39.47,464.6L39.84,464.2L40.57,464.4L40.73,464.6L40.67,465.2L40.75,465.6L41.04,466.3L41.67,466.8L42.53,467.1L43.34,467.6L43.6,467.8L43.76,468.2L43.94,468.7L43.94,469.3L43.37,469.9L43.63,470.8L43.58,471.3L43.39,471.7L42.53,472.1L44.83,471.7L45.4,471.5L46.19,470.9L46.61,471.4L47,472.3L46.68,472.5L45.69,472.9L45.64,473L45.98,473.4L46.4,473.4L47.21,473.1L47.96,472.6L48.33,472.6L48.72,472.7L49.48,473L49.9,473.3L50.24,473.6L50.47,474.3L51.34,474.5L53.11,475.5L53.42,475.5L53.79,475.6L54.7,475.4L55.05,475.6L55.28,475.9L55.36,476.3L55.33,476.8L55.23,477.1L55.02,477.4L54.37,477.8L52.77,478.4L51.05,478.8L50.16,478.8L48.93,478.5L48.49,478.5L48.04,478.7L47.49,479.8L48.51,481L49.94,482L26.38,482ZM39.94,462.8L39.5,463.1L39.34,462.7L39.37,462.1L39.97,461.5L40.83,461.4L40.94,461.9L40.83,462.4L40.65,462.6ZM-42,385.3L-41.63,385.7L-41.13,386.3L-40.9,386.5L-38.96,388L-38.52,388.6L-37.84,389.7L-37.55,389.8L-37.29,390L-37.11,390.6L-37.05,391L-36.98,392.3L-36.61,392.7L-36.3,393.2L-36.17,393.5L-35.88,393.8L-35.56,393.8L-35.17,393.5L-34.89,393.3L-34.76,393.4L-34.44,394.3L-34.18,394.6L-33.66,394.9L-33.16,395.1L-32.09,396.2L-31.52,396.6L-31.12,396.8L-30.78,396.9L-30.71,397.3L-30.84,397.6L-31.05,397.9L-32.3,398.5L-32.46,398.8L-32.3,399.2L-31.99,399.7L-31.65,400.1L-31.2,400.6L-30.34,401.3L-29.58,401.8L-29.16,402.5L-28.93,402.9L-29.09,403.4L-29.4,403.9L-29.63,404.4L-30.08,404.6L-30.18,404.9L-30,405.4L-29.87,405.8L-29.95,406.2L-29.9,407L-30.29,407.3L-30.65,408.1L-30.91,408.1L-31.54,407.9L-31.78,408L-32.17,408.6L-32.87,409.2L-33.21,409.2L-33.45,409.1L-33.74,409.4L-34.13,409.8L-34.31,409.8L-34.99,409.9L-35.25,409.8L-35.56,409.4L-36.11,409L-36.58,408.7L-36.85,408.5L-37.08,408.2L-37.29,408L-37.68,408.4L-38.36,408.9L-38.99,408.8L-39.3,408.7L-39.54,409.4L-39.72,409.5L-40.87,409.6L-41.08,409.7L-40.9,410.3L-40.22,411.3L-40.03,411.9L-40.45,412.9L-41.63,412.8L-42,412.6L-42,385.3ZM109.7,482L109.7,481.9L110.1,482L110.2,482L109.7,482ZM47.49,331.5L47.23,331.9L46.81,331.9L46.81,331.5L46.71,331.4L46.84,331.1L46.92,331L47.39,331.3ZM74.2,273.9L73.6,274.1L71.71,273.4L70.38,272.6L69.57,271.6L69.47,271.2L70.38,271.3L71.3,271.7L71.5,272.2L71.87,272.4L72.11,272.7L73.81,273.4L74.07,273.6ZM77.33,286.8L77.23,287L76.34,286.5L75.37,286.4L75.03,286L74.98,285.3L76,285.3L77.25,285.9L77.54,286.2ZM76.44,289.2L76.42,289.3L75.79,288.8L75.5,288.7L75.63,288.4L76.05,288.3L76.39,289ZM78.12,287.4L78.06,287.8L77.85,287.7L77.59,287.1L77.75,286.9L78.12,286.9ZM59.38,323.8L58.83,324.1L58.49,324L58.49,323.5L58.68,323L58.47,322.7L58.65,322.3L59.07,322.2L59.2,322.4L59.43,322.6L59.51,322.7L59.51,322.9L59.28,323.4L59.46,323.6ZM-9.098,358.3L-8.837,358.5L-8.105,358.3L-7.975,358.7L-8.001,358.8L-8.236,359.2L-8.837,358.9L-9.438,359L-9.856,359L-9.986,358.8L-9.647,358.4ZM69.75,302.4L69.13,302.6L68.89,302.6L68.89,302L69.42,301.4L69.62,301.6L69.75,301.9ZM13.89,344.9L13.97,345.2L13.4,344.7L13.24,344.6L12.95,344.4L12.8,344.1L13.24,344.1L13.66,344.5ZM8.355,354.3L8.198,354.4L7.989,354.2L7.937,353.8L7.78,353.5L8.146,353.3L8.303,353L8.695,353L8.878,353.1L8.512,353.4L8.433,353.6ZM7.284,354L6.578,354.2L6.422,354.1L6.683,353.7L7.31,353.4ZM-42,178.6L-41.89,178.5L-38.62,177.1L-37.16,176.4L-36.72,176.2L-35.91,175.9L-35.33,175.6L-34.36,175.4L-33.01,175.3L-31.54,175L-28.25,174.5L-27.83,174.5L-25.95,174.3L-25.17,174.1L-23.99,174.2L-22.45,174.2L-21.43,174.4L-20.07,174.3L-18.19,174.1L-16.7,174.1L-15.94,174L-14.85,173.4L-14.09,173L-12.91,172.5L-11.48,172L-10.48,171.5L-9.804,171.1L-8.994,170.8L-8.785,170.4L-8.549,170.2L-8.131,169.6L-7.348,168.7L-6.747,167.9L-6.459,167.5L-5.806,166.7L-5.283,166L-4.578,165.2L-4.003,164.9L-3.298,164.7L-1.364,163.9L-0.999,163.7L-0.659,163.7L0.02,163L0.569,162.4L0.961,162L1.719,161.8L2.137,161.5L2.189,161.1L2.111,160.5L1.745,159.8L1.431,159.2L0.308,158.2L-0.267,157.5L-0.868,156.7L-1.103,155.8L-1.521,155.3L-1.73,154.9L-1.652,154.3L-1.103,153.4L-0.894,152.8L-0.659,151.8L-0.136,150.2L0.308,149.5L0.804,148.7L1.875,147.8L2.842,147.6L3.443,147.8L4.723,147.8L5.612,147.8L6.239,148.3L6.944,149.3L7.754,149.6L10.24,150.4L11.31,150.5L12.06,150.6L13.19,150.8L13.55,150.9L14.13,151L14.6,150.8L15.33,150.2L16.25,149.5L16.64,149.3L17.34,149L17.71,148.7L18.34,147.9L19.17,147.3L20.16,146.3L20.66,145.6L20.77,145.2L20.9,144.7L21.18,144.4L21.81,144.2L22.49,144.1L23.8,144.5L25.57,144.4L25.96,144.3L27.59,144.1L28.29,143.9L29.34,143.7L30.12,142.9L31.16,142L31.92,141.4L32.45,141.3L33.07,140.8L33.38,140.2L33.31,139.7L33.2,139.2L33.57,138.4L34.25,137.1L34.88,136.4L35.4,135.9L35.74,135L36.13,134.8L36.65,134.7L37.36,134.1L37.88,134L38.74,134.3L40.02,134.3L40.86,134.4L41.33,134.3L41.48,134L41.48,133.5L41.75,132.4L41.85,132.1L42.09,131.9L42.87,131.9L43.42,132.3L43.78,132.6L44.28,132.6L44.8,132.4L45.51,131.6L46.68,131.1L47.31,130.9L48.41,130.5L49.09,130.7L50.37,130.8L50.87,130.7L51.41,130.8L51.88,130.2L52.27,130.1L53.11,130.3L53.63,130.8L54.6,131.4L55.83,131.6L56.85,131.5L57.92,131.7L58.55,131.7L58.83,131.5L59.72,131L59.93,130.4L59.83,129.7L59.93,129L59.67,128.5L59.15,127.7L58.94,127.2L58.91,126.6L58.57,125.9L57.76,125.2L57.24,124.8L56.14,123.4L55.78,123.1L55.65,122.9L55.54,122.5L55.12,122.3L54.6,121.9L54.31,121.5L54.13,120.9L54,120.5L53.56,120.2L53.09,120L52.54,119.8L51.67,119.4L51.18,118.7L50.29,117.4L49.77,117L47.91,116.8L47.23,116.5L46.48,116.6L46.01,116.8L45.01,116.8L44.49,116.9L43.81,117.8L42.92,118.9L42.22,119.6L41.69,120.3L41.46,120.5L40.99,120.4L40.34,119.6L39.42,118.9L38.56,118.6L38.19,118.4L37.17,118.2L36.36,118.3L35.37,118.5L34.38,118.5L33.96,118.3L33.33,118.3L32.18,119.1L31.61,119.9L30.9,120.2L30.28,119.6L29.55,118.9L28.86,118.1L28.45,117.4L28.19,115.4L29.02,114.7L30.09,114.1L30.17,113L30.14,111.8L30.35,110.5L31.32,109.3L31.82,108.2L31.9,107.6L32.37,106.5L32.81,105.4L33.41,103.9L34.56,101.3L35.92,98.19L36.6,96.63L38.09,97.61L39.05,98.09L40.67,98.87L42.37,99.05L43.97,99.86L44.8,100.1L45.25,100.1L47.52,98.11L49.43,96.4L51.65,95.07L53.27,94.89L54.5,94.5L55.31,93.89L55.78,92.89L55.93,91.49L55.59,90.64L54.81,90.35L54.6,90.05L54.99,89.73L55.28,89.16L55.46,88.27L55.91,87.44L56.66,86.66L57.06,85.78L57.13,84.81L57.58,83.85L58.39,82.89L58.83,81.98L58.91,81.16L59.33,80.16L60.43,78.34L61.16,76.28L62.39,74.83L64.37,73.37L65.63,71.9L66.12,70.44L66.07,69.15L65.5,68.04L65.39,66.88L65.76,65.72L65.44,64.85L64.45,64.27L63.3,64.13L61.92,64.42L61.16,64.07L61,63.05L61.37,62.22L62.26,61.59L63.74,60.04L65.78,57.57L67.82,56.22L70.88,55.82L73.33,55.02L75.84,54.17L77.64,53.77L77.96,54.05L78.93,54.11L80.6,53.98L82.14,53.62L83.58,53.05L84.7,52.9L85.54,53.22L86.01,53.22L86.32,53.26L86.5,53.26L86.87,53.03L87.83,53.45L89.66,54.74L90.81,55.31L91.31,55.17L91.83,55.53L92.38,56.37L93.09,56.88L94.34,57.11L95.59,58.03L96.12,58.09L96.27,57.57L96.75,57.27L97.5,57.19L98.6,57.65L100,58.64L100.9,59.08L101.3,58.95L101.7,59.14L102,59.6L102,60.19L101.9,60.48L102.3,60.96L102.6,60.96L103.3,61.19L103.8,62.05L104.2,62.44L104.6,62.8L104.6,63.07L104.7,63.36L104.6,63.59L104.4,63.94L104.3,64.34L104.6,64.77L105.4,65.1L105.6,65.41L105.7,65.85L105.9,66.3L106.5,66.84L106.7,67.29L106.6,67.64L106.7,67.95L107,68.18L107.1,69.05L107.1,69.54L107.5,70.09L107.6,71.2L107.9,72.45L109,74.14L109.3,75.08L109.2,76.15L109.4,76.66L109.8,76.92L110.1,77.37L110,78.04L110.2,78.46L110.4,78.91L110.3,79.59L110.4,80.22L110.7,80.58L110.8,81.24L110.9,82.08L111.6,83.41L112.9,85.2L113.7,86.6L114,87.59L114,88.41L113.7,89.04L113.7,89.5L114,89.79L114,90.19L113.9,90.68L114.4,91.28L115.8,92.28L115.2,93.83L115.1,94.93L115.1,96.07L115.5,96.89L116.1,97.36L116.5,97.84L116.6,98.35L117.4,98.89L118.7,99.5L120.5,99.59L122.6,99.2L123.8,99.15L124.3,99.4L124.5,99.79L124.3,100.3L124.7,100.7L125.5,100.8L126.1,101.2L126.5,101.7L126.9,101.8L127.3,101.6L127.8,101.6L128.3,101.9L128.5,101.8L128.8,101.5L129.2,101.5L129.6,101.5L129.9,102.2L130.3,102.6L130.9,102.7L131.8,103.6L133.5,106.1L134.7,107L135.8,107.3L137.3,107.4L137.7,108.3L137.3,109.4L137.3,110.2L137.6,110.5L138,111.5L138.7,112.1L138.8,112.5L139.1,113.1L139,114L138.4,115.4L138.6,116.6L139.4,117.5L139.9,118.5L140,119.4L140.2,119.9L140.5,120.1L141.4,120L142.8,119.7L143.9,119.8L144.6,120.2L146.2,120.2L148.8,119.8L150.5,119.7L151.2,119.9L151.8,119.3L152.4,118L152.9,117.3L153.4,117.4L154.1,117L155.2,116.1L156.1,115.6L157.2,115.7L158.4,115.7L159.2,115.3L159.9,114.5L161.1,113.8L163.8,112.9L164.4,112.7L164.7,112.8L165.6,112.9L166.4,113.3L167.1,114L167.2,114.5L167.1,115.1L167,115.5L166.7,115.9L166.4,116.5L166.6,117L167,118.1L167.3,118.9L167.7,119.9L167.6,120.2L167.3,120.8L166.6,121.9L166.2,122.3L165.8,122.7L165.1,122.8L164.8,122.9L164.4,123.1L164.2,123.5L163.9,123.8L163.5,124.3L163.5,124.8L163.7,125.5L163.8,126.2L163.3,126.8L162.9,127.7L162.8,128L162.6,128.8L162.6,129L162.5,130.6L162,131.6L161.3,132.8L161.5,133.6L161.6,134.2L161.4,134.5L161.4,134.8L161.3,135.5L161.1,135.7L160.5,136.1L160.1,136.6L160.2,137.3L160,138L159.7,138.5L159.4,138.9L159,139.1L158.7,139.3L158.5,140L158.5,140.6L158.3,141.1L158.4,141.7L158.2,142.2L157.6,142.5L157.3,142.7L157,142.8L156.4,143.3L155.8,145.1L155.7,146.2L155.8,147.1L155.1,147.7L154.6,148.1L154.2,147.9L153.9,147.8L153,147.6L152.6,147.5L151.7,147.2L150.4,146.8L149.1,146.3L148.3,146.1L147.6,145.9L147.1,145.6L146.7,145L146.3,145.3L145.9,145.9L145.3,146.3L145,147L144.7,147.6L144,148.3L143.7,148.6L142.5,149.1L142.2,149.2L141.1,149.3L140.7,149.6L140.4,150L140.3,150.5L140.5,150.9L141,151.9L141.1,152.6L141.4,153.8L142.4,157.9L142.1,158.6L141.8,161.6L141.8,162.1L141.8,162.9L141.8,163.6L142,163.7L142.3,163.9L142.4,164.3L142.4,164.8L142.3,165.2L142.1,166L141.8,167.2L141.5,167.6L141.3,168L141.1,168.2L141.1,169L141,169.6L140.6,169.8L140.1,170.1L139.6,170L139.1,170L138.5,170.2L137.5,170.5L136.8,170.8L136.5,171L136.3,171.3L136.3,171.6L136.4,171.7L137,171.8L137.4,172.3L137.5,172.9L137.1,173.2L136.9,172.8L136.5,172.7L135.9,172.2L135.4,171.7L135,171.1L135,169.9L135,169.7L134.3,169.4L134.2,169L133.8,168.9L133.4,169L133.1,168.8L132.8,168.6L132.5,168.6L132.3,168.9L132.1,169.7L131.7,170.8L131.6,171.5L131.4,172.5L131.2,173.8L131.1,174.1L130.6,174.1L130.4,174.2L130.1,174.6L129.8,174.7L129.5,174.4L129.1,174.2L128.6,174.1L128.3,174.4L127.8,174.9L127.6,175.4L127.5,175.8L127.4,176.3L127,176.8L126.6,177.1L125.7,177.8L125.4,178.1L124.8,178.1L124.2,178L123.3,178.2L121.8,178.3L121,178.2L119.9,178.3L119.1,178.6L119,178.9L119,179.4L119.1,179.8L119.3,180L119.7,180.7L120,181.4L120.6,181.8L120.8,182.3L120.9,182.7L120.6,183.2L120.2,183.9L119.8,184.4L119.6,184.4L119.1,184.1L118.8,183.8L118.1,183.7L116.5,183.9L115.6,183.7L115.2,183.5L114.5,183.5L113.4,183.1L112.8,183L112.5,182.8L112.4,182.3L112.1,181.9L111.9,181.5L111.5,181L111.1,180.7L110.8,180.6L110.4,180.9L109.9,181.2L109.6,181.1L109.5,181.2L109.3,181.4L108.6,181.9L108.4,182.4L108.1,183.3L108,184.3L107.8,184.7L107.5,184.7L107.2,185L106.6,186L106.1,186.8L105.3,187.4L104.9,187.9L104.7,188.4L104.1,189.1L103.3,189.2L102.6,189.4L102.3,189.4L102,189.7L101.7,190.1L101.7,190.3L101.3,190.3L100.9,190.6L99.98,191.4L99.25,191.6L98.31,192.1L97.5,192.5L97.16,192.7L97.06,192.9L96.95,193.3L96.54,193.3L96.17,193.3L95.31,194L94.86,194.6L93.19,196L92.51,196.7L92.33,197.6L92.25,197.6L91.65,198.4L90.47,199.2L87.97,199.4L87.18,198.8L86.89,199.2L86.66,199.7L86.01,199.9L84.99,199.9L84.41,200.3L84.1,200.6L82.69,200.8L82.17,201.3L81.28,201.5L77.62,203.7L76.83,204.6L76.08,205.7L75.53,206.2L75.06,206.6L74.64,206.7L74.2,207.1L73.78,207.2L73.33,207L72.84,207.1L72.52,207.5L72.79,208.1L72.66,208.3L71.69,208.7L70.25,208.9L69.65,209.3L69.44,209.5L69.13,209.6L68.81,208.8L68.71,207.8L69.31,207.6L69.83,207.5L72.86,206.1L72.5,205L72.76,204.6L73.44,203.8L73.88,203.5L73.62,203.3L71.66,203.6L70.51,203.6L69.94,203.5L70.12,202.8L70.02,202.2L69.89,202L70.88,201.3L71.35,201.1L71.69,201.1L71.66,200.7L71.38,200L71.69,199.1L73.75,198.1L74.25,197.2L75.06,196.4L76.57,194.3L76.68,193.9L77.1,192.9L77.17,192.5L76.5,191.9L76.21,191.1L74.17,189.7L73.99,188.4L73.81,188.4L73.49,189.3L73.23,189.6L72.29,189.6L71.82,189.3L69.21,189.1L68.55,189.7L67.95,190.5L67.38,191.2L66.78,191.5L66.28,192.1L64.16,195.5L63.35,195.8L59.59,197.8L57.71,198.6L56.25,200L55.75,200.9L55.31,201.8L55.05,203.3L53.71,205L53.24,205.4L52.77,205.5L52.17,205.5L51.62,205.6L50.71,205.4L49.58,206L48.33,206.5L47.23,205.3L46.45,205L45.2,205.3L44.59,205.8L43.37,208.5L42.92,210L42.95,210.6L43.65,212.4L44.46,213.5L46.27,214.7L50.11,215.5L50.99,215.2L51.96,215.2L52.98,216L53.61,217.2L53.69,218.1L53.69,218.4L53.92,218.7L54.05,219.1L53.66,219.5L53.35,219.7L53.09,221L53.09,222.5L53.4,223L54.23,223.7L55.52,224.2L56.69,224.4L58.94,224.1L59.85,223.2L59.8,222.8L59.83,222.3L61.81,221L62.94,219.8L62.75,219.5L62.54,219.3L62.75,219.2L63.35,219.1L66.12,217.9L68.29,218.9L69.52,220L70.75,220.2L71.61,220.8L72.58,221.3L73.86,221.3L74.93,221.5L75.27,221L75.61,220.7L75.97,220.7L76.42,221.3L77.64,221.8L78.77,221.8L79.55,221.6L80.02,221.8L79.34,222.6L79.45,223.9L78.93,224.3L78.43,224.9L78.72,225.3L78.98,225.5L78.95,226L78.51,226.3L77.67,227L77.17,227L76.94,226.9L76.78,226.6L76.68,226.2L76.36,225.9L75.56,225.8L74.69,225.9L72.79,227L70.93,227.9L68.97,228.6L68.32,229L67.85,229.2L67.06,228.8L66.57,228.8L66.46,229.1L67.09,229.7L67.25,230.2L67.17,230.5L66.83,230.7L66.31,230.4L65.84,230.8L65.63,231.5L65.63,233L65.31,233.4L64.45,233.6L63.54,234.1L63.2,233.8L63.07,233.6L63.17,232.8L63.07,232.5L62.65,232.5L61.99,232.7L61.52,233.2L61.37,233.5L61.99,234.4L62.6,234.5L62.75,234.7L62.26,235.1L61.08,235.8L60.87,236.3L60.53,236.9L60.03,237.3L59.7,237.7L59.3,238L58.65,238.2L57.84,239.3L57.24,240.3L56.53,240.8L55.99,242.4L54.99,243.3L54.63,244.8L54.89,245.7L55.96,245.7L56.51,246L57.66,247.1L59.02,247.9L60.4,248.3L62.13,249.4L62.62,249.8L63.01,250.8L63.77,253.4L64.29,254.7L64.35,255.4L65.16,256.7L66.02,258.9L66.98,260.8L67.19,262.3L66.86,263L66.88,263.9L67.85,264.7L70.07,265.6L70.41,265.9L70.85,266.4L70.85,267.8L71.19,268.3L71.5,268.5L72.84,269.1L73.39,269.6L73.99,270.4L74.14,271.1L74.22,272.1L73.47,272.1L72.86,272L70.49,270.8L69.86,270.7L69,270.9L67.74,270.7L66.41,269.3L65.47,268.9L64.45,268.7L62.02,269.9L61.39,269.8L61.21,269.9L60.92,270.1L62.07,270.4L63.2,270L64.29,269.4L65.86,269.7L66.12,270.2L66.38,271.1L67.48,271.7L68.34,272L69.42,272.7L70.49,274L72.73,275.4L73.65,276.7L73.99,277.6L74.3,278.8L73.52,279.2L72.84,279.2L71.77,279.4L70.98,279.9L70.17,280.6L67.93,281.8L67.48,282.6L67.19,283.2L66.65,283.5L65.23,283.2L63.93,283.2L62.47,284.1L62.1,284.5L62.34,284.4L62.57,284.3L63.22,284.4L64.27,284L65.26,285.4L67.25,285.2L69.1,284L69.81,283.9L70.41,284.1L71.06,284.6L72.86,286.7L73.83,286.9L74.8,287.4L75.32,287.4L75.79,287.6L74.51,288.3L72.84,290L72.11,290.4L71.61,290.8L72.94,290.6L73.91,289.8L74.38,289.6L74.77,289.8L74.95,290.8L74.59,293.7L74.12,293.8L73.67,293L73.15,292.7L72.68,292.9L71.82,292.9L71.48,293.2L71.19,293.8L71.71,293.9L72.76,294.8L72.86,295.2L72.58,295.5L71.84,295.4L72.73,296.1L72.5,296.8L72.21,297L71.69,297.2L71.38,297.8L71.84,298.8L72.31,300.1L72.37,300.7L71.64,300.4L70.51,301.2L69.91,301.3L69.49,300.3L69,300.4L68.66,300.7L68.19,301.8L67.64,302.8L67.14,303.1L66.57,303L66.1,303L66.23,303.3L66.72,303.6L66.72,304L65.65,305.2L65.47,305.7L65.5,306.1L64.95,306.5L65.23,307.4L65.08,307.9L64.58,308.7L64.08,309.2L63.46,310L62.7,310.5L61.68,312.2L61.39,313.1L61.32,314L60.98,314.3L60.45,314.6L59.83,314.5L59.8,313.9L59.54,313.8L59.38,313.4L59.33,312.9L59.41,312.5L59.15,312.6L58.99,313.1L58.57,313.5L58.15,313.3L57.68,313L57.71,313.5L57.95,313.9L58.05,314.4L58.68,314.5L59.12,315L59.46,315.7L59.51,316L59.77,316.4L59.8,316.7L59.2,317L58.44,317.5L57.53,318.4L56.77,318.9L56.09,318.9L55.7,318.9L55.1,318.5L54.42,318.4L55.33,319.6L55.83,319.8L56.46,319.8L57.06,319.3L57.92,319.4L58.13,320L57.89,320.8L57.42,321.8L57.34,322.7L57.92,323.9L57.95,324.3L57.71,324.5L57.03,324.2L56.48,323.7L55.91,323.8L55.33,323.7L54.73,323.8L54.47,324.1L54.65,324.6L55.18,325L55.49,325.6L55.12,325.8L53.61,325.6L53.24,325.8L52.8,326.4L53.09,327.4L52.75,328L52.12,328.1L51.28,328.6L50.79,328.7L50.81,329L51.18,329.2L51.39,329.5L50.92,330.5L50.24,330.8L49.14,330.6L48.3,330.9L47.57,330.4L46.79,330.4L46.27,330.9L46.21,331.6L45.69,331.6L45.4,331.6L45.01,331.6L45.06,332L45.27,332.3L46.34,332.4L46.53,332.8L46.58,333.5L45.46,334.6L44.99,335.3L44.28,335.3L43.76,335.9L43.47,336.7L43.1,336.5L42.3,336.7L42.03,337.1L42.24,337.2L42.27,337.5L41.93,338.4L41.56,338.7L41.41,338.3L41.3,337.7L41.02,337.7L40.54,338.2L39.97,338.6L39.5,338.7L39.13,338.4L38.24,338.2L37.91,339.8L37.15,340.3L36.81,340.5L36.21,340.5L36.6,340.7L36.73,341.1L36.49,341.5L35.89,341.6L35.55,341.9L35.42,343.3L35.06,343.8L34.14,343.8L33.46,343.5L33.26,343.7L33.15,344L32.78,344.2L32.1,344.3L30.56,344.9L29.88,344.7L29.05,344.5L28.45,344.7L28.26,345.2L28,345.5L27.17,345.5L26.49,345.1L25.81,344.8L25.05,345L24.48,345.6L23.77,345.8L23.64,346.2L23.33,346.3L22.57,346.3L22.28,345.4L21.86,345.3L21.45,345.7L21.29,346L21.08,346.3L21.16,347L20.74,347L20.19,346.6L19.59,346.5L19.07,346.9L18.78,346.8L18.49,346.7L18.02,346.7L17.84,346.9L17.5,346.9L17.27,347.1L17.24,347.2L16.64,347L15.88,346.4L15.36,345.4L14.68,344.9L14.36,344.4L14.26,343.6L14.13,343.2L14.18,342.7L14.36,342.3L13.63,342.5L13.11,342.9L13.21,343.4L13.08,343.8L12.27,344L12.33,344.2L12.38,344.4L13.01,345L13.14,345.5L13.4,345.7L13.89,346.5L13.87,348L14.15,348.4L14.05,348.8L13.87,349.4L13.84,349.4L13.69,349.3L13.45,349.3L13.37,349.5L13.35,349.6L13.32,349.7L12.9,349.8L12.54,349.9L12.25,350L11.8,350.5L10.94,350.6L10.52,349.6L9.923,350.2L9.766,351.7L9.531,351.9L9.165,352.1L8.486,351.6L7.885,351.9L7.415,352.3L7.205,352.6L6.866,352.9L6.213,352.6L5.664,352.1L5.795,351.7L5.742,351.5L5.481,351.3L5.22,351.3L5.35,351.8L5.455,352.7L5.194,353L4.828,353.2L4.018,353L3.469,352.7L2.79,352.4L2.215,352.4L2.084,352.9L1.693,353.4L1.353,353.5L0.987,353.4L0.517,353.9L0.308,354.2L-0.267,354.6L-1.782,354.8L-2.331,355.2L-3.037,355.1L-3.585,355.2L-3.925,355.2L-4.186,355L-4.526,355L-4.656,355.6L-5.519,355.9L-6.302,356L-7.165,356.8L-7.792,357.3L-8.236,357.4L-8.576,357.2L-8.758,356.4L-8.915,356.3L-9.02,357.1L-9.176,357.6L-9.49,358L-10.48,358.7L-10.77,359.4L-10.59,360.1L-9.255,360.2L-9.072,360.6L-9.203,360.9L-9.542,361.2L-9.621,361.5L-8.184,362.7L-8.131,363.2L-8.367,363.4L-8.628,364L-9.386,364.4L-11.01,364.7L-12.34,364.4L-12.76,363.9L-12.73,363.5L-12.39,363.6L-12.02,363.6L-12.13,363.3L-12.29,363.1L-12.91,362.7L-13.41,361.9L-13.3,361.2L-13.59,360.7L-13.88,360.2L-14.19,360L-14.35,359.6L-14.04,358.6L-14.22,358L-13.64,357.2L-13.49,356.3L-12.47,356.1L-12.39,355.2L-13.15,355.2L-13.64,354.6L-13.78,354.9L-14.17,354.9L-14.85,353.7L-15.05,353.6L-15.37,353.6L-15.21,354.8L-16,355.2L-16.65,355.4L-17.56,355.5L-18.09,355.7L-18.56,355.6L-18.45,355.2L-18.19,354.7L-18.43,354.4L-18.95,354.1L-19.73,354.1L-20.28,354L-20.8,354.1L-21.01,353.9L-21.51,353.3L-21.95,353L-22.14,352.6L-21.95,352.2L-22.11,352L-22.95,351.9L-22.92,352.5L-22.84,353.2L-22.61,353.7L-22.76,354L-23.18,354.3L-23.63,353.7L-23.83,353.5L-24.07,353.6L-24.23,354.1L-24.62,354.6L-25.35,354.6L-25.92,354.9L-26.6,355L-26.6,355L-27.07,354.6L-27.86,354L-28.17,353.9L-29.03,354.2L-30.26,354.3L-30.52,354L-31.12,354.2L-31.7,353.4L-32.38,353.4L-33.21,352.8L-33.53,352.5L-33.63,352L-33.89,351.8L-34.21,351.8L-34.57,351.6L-35.17,351.3L-35.64,351.2L-35.88,351.3L-36.11,351.3L-36.17,351L-36.14,350.1L-36.19,349.3L-36.32,348.9L-36.64,348.6L-36.92,348.5L-37.03,348.1L-36.92,347.2L-36.72,346.7L-36.32,346.6L-35.83,346.2L-35.59,345.6L-35.28,345.1L-36.4,344.3L-37,344L-37.66,344.2L-38.47,344.4L-38.91,344.4L-39.12,344.4L-39.59,343.7L-39.85,343.6L-40.42,343.5L-40.92,343.5L-41.21,343.8L-41.63,343.9L-42,343.9L-42,178.6ZM-5.44,366.8L-5.101,367.1L-4.865,367.6L-4.656,368.5L-4.552,369.4L-5.283,369.9L-5.937,370.1L-7.243,372.2L-7.53,372.8L-7.739,373.1L-7.818,373.4L-7.792,373.7L-8.131,374.7L-8.445,375.9L-8.628,376.4L-8.994,376.7L-9.49,376.9L-9.777,377L-10.06,377.1L-10.77,377.7L-11.55,378.2L-11.42,378.4L-11.42,378.7L-11.76,378.9L-12.13,378.9L-13.23,379L-13.64,379.4L-14.06,380.1L-14.22,380.2L-14.87,380.3L-15.39,380.4L-16.26,379.9L-16.68,379.8L-17.82,379.6L-18.95,379.3L-19.73,378.9L-21.33,378L-21.51,376.3L-21.8,375.5L-21.8,375.1L-21.69,372.4L-21.59,372.1L-21.38,371.8L-20.67,371.2L-19.86,370.7L-18.71,369.7L-17.85,369.2L-17.14,368.6L-17.56,368.6L-17.88,368.5L-17.56,367.9L-17.25,367.6L-16.88,367.5L-16.13,367.6L-15.42,367.5L-14.93,367L-14.43,366.9L-12.57,367L-11.29,366.8L-10.67,366.3L-10.35,366.3L-9.412,366.4L-9.046,366.9L-9.072,366.6L-9.046,366.3L-8.863,366.3L-7.635,366.9L-7.635,366.2L-7.557,366L-7.165,365.7L-6.982,365.7L-6.485,366.3L-6.041,366.6ZM13.35,349.6L13.37,349.5L13.45,349.3L13.69,349.3L13.84,349.4L13.84,349.4L13.5,349.6L13.4,349.6ZM17.24,347.2L17.27,347.1L17.5,346.9L17.84,346.9L18.02,346.7L18.49,346.7L18.78,346.8L19.07,346.9L19.09,347L19.25,347.3L19.2,347.6L19.48,347.8L19.56,348.1L19.25,348.2L19.22,348.6L19.07,348.9L18.13,348.4L17.37,348.2L16.66,348.3L16.43,348.1L16.38,347.8L17.19,347.4ZM18.81,349.5L18.62,349.6L18.13,349.1L18.1,348.9L18.49,348.9L18.91,349.1L18.91,349.3ZM17.11,349.5L16.25,349.5L16.06,349.5L15.96,349.3L16.27,349L17.45,348.6L17.16,349ZM-42,431L-41.99,431L-41.94,431.8L-41.97,432.4L-41.7,432.8L-40.22,434L-39.77,434.3L-39.72,434.5L-39.98,435.2L-39.75,436.1L-40.22,436.1L-41,435.7L-41.39,435.4L-41.84,435.6L-41.99,435.6L-42,435.6L-42,431ZM-42,412.6L-41.63,412.8L-40.45,412.9L-40.03,411.9L-40.22,411.3L-40.9,410.3L-41.08,409.7L-40.87,409.6L-39.72,409.5L-39.54,409.4L-39.3,408.7L-38.99,408.8L-38.36,408.9L-37.68,408.4L-37.29,408L-37.08,408.2L-36.85,408.5L-36.58,408.7L-36.11,409L-35.56,409.4L-35.25,409.8L-34.99,409.9L-34.31,409.8L-34.13,409.8L-33.74,409.4L-33.45,409.1L-33.21,409.2L-32.87,409.2L-32.17,408.6L-31.78,408L-31.54,407.9L-30.91,408.1L-30.65,408.1L-30.29,407.3L-29.9,407L-29.9,407L-29.79,407.4L-30.11,408.2L-30.42,408.9L-31.02,409.5L-31.05,410L-31.28,411.3L-31.18,411.8L-31.05,412.1L-30.84,412.3L-30.31,413.7L-29.84,414.9L-29.37,415.9L-29.27,416.5L-29.71,418.1L-30.23,419.5L-30.18,420.2L-29.95,421L-29.74,421.9L-29.63,423.2L-29.77,424L-30,424.5L-30.44,425L-30.81,425.3L-31.28,424.8L-31.65,424.8L-32.14,424.9L-32.51,425.1L-33.29,425.9L-34.18,426.6L-35.38,426.8L-35.85,427.3L-36.35,427.4L-37.32,427.4L-37.92,427.6L-37.89,427.8L-37.94,429.1L-37.94,429.4L-38.02,429.5L-38.47,429.5L-39.2,429.3L-40.19,429L-40.9,429L-41.26,429.5L-41.47,429.8L-41.73,429.8L-42,429.9L-42,412.6ZM24.87,482L24.76,481.6L24.58,480.8L24.61,479.9L24.58,479.3L25.42,479.3L25.42,479.3L25.6,479.6L26.04,480.4L26.33,481.3L26.38,482L24.87,482ZM18.29,482L17.81,481.8L17.6,481.6L18.41,481.6L19.3,481.4L20.22,481.1L21.08,480.6L21.81,480.1L22.52,479.5L23.22,479L24.34,478.4L24.74,478.5L24.74,478.9L24.58,479.3L24.58,479.3L23.98,479.6L23.41,480L22.83,480.4L22.54,480.6L22.65,481L22.78,481.8L22.8,482L18.29,482Z" fill="#D8E2E7" stroke="#3F464B" stroke-width="0.85" vector-effect="non-scaling-stroke"/><path d="M157.7,232.7L157.4,233L156.8,232.9L156.4,232.4L156.5,231.9L157.2,231.5L157.8,232.3ZM193.8,218L193.1,218L192.9,217.9L193.4,217.7L193.4,217.3L193.7,216.6L193.7,216.4L193.1,216.4L193.1,215.6L193.5,214.9L194.7,213.7L195,213.4L195,214L194.7,215.2L194.6,215.7L195.5,215.8L194.9,217.2ZM169,249.7L168.3,250.5L167.6,250.4L167.2,250.1L167.1,249.7L167.8,249L168.3,248.1L168.8,247.7L169.2,247.5L169.6,247.5L168.9,248.8ZM137.8,284.3L136.9,284.5L136.5,284.3L136.1,283.2L136.8,282.6L137.9,283.2L138.1,283.4ZM140.2,283.2L139.6,283.3L139.6,282.8L140.1,281.7L140.1,280.9L140.6,279.8L140.8,279.6L141,279.5L141.1,279.9L140.9,281.1L140.5,282ZM133.8,267.6L133.3,267.9L133.2,267.6L133,267.5L133.4,267.1L133.4,266.9L133.1,266.6L133.4,265.5L133.3,265.1L134.5,264.9L134.7,265.3L134.7,266.6ZM128,251.2L127.5,251.5L127.3,251L127.5,249.4L128.4,249.8L128.4,250.2ZM128.8,249.1L128.6,249.6L128.2,249.3L127.9,249L128.4,247.7L128.3,247.2L128.4,246.9L129.3,246.2L129.4,246.3L129.5,246.6L129.4,246.9L129.5,247.5L128.8,248.6ZM123.6,262.8L123.8,263.1L124.3,262.9L124.6,262.9L124.8,263L125.1,263.6L125.2,264L124.7,264L124.5,264.1L124.2,264.5L123.8,264.4L123.5,264.2L123.4,263.9ZM136,265.9L135.4,266L135.1,265.9L135,265.6L135.9,265L136.6,265.1L136.3,265.6ZM213.6,145L213.3,145.7L213,144.7L212.9,143.6L213.1,143.6L213.5,143.8L213.6,144.3ZM215.2,147.2L214.7,147.3L214.1,146.8L214.1,146.3L214.5,145.9L214.9,146L215.3,146.6L215.5,146.9ZM202.1,177.6L201.9,177.7L201.7,177.6L201.6,176.9L201.7,176.5L202.2,176.2L202.6,176.1L202.2,177.5ZM164.8,248L164.7,248.2L164.6,248.1L164.1,248.5L164,248.2L163.7,247.9L163.6,247.7L164.7,247.6L165,247.7ZM201.9,245.9L201.8,246.3L201.4,246.2L201.2,245.9L201.3,245.4L201.7,245.4ZM126.6,262.3L126.4,262.4L126.1,261.6L126,261.4L126.2,261.2L126.8,259.8L126.9,260.4L127.1,260.9L127.3,261L127.1,261.4L126.8,261.6ZM129.6,259L129.1,259.4L128.7,259.4L129,259L129.1,258.7L129.4,258.1L129.9,257.9L130.1,257.8L129.7,258.5ZM131.8,254.5L131.3,254.8L130.9,254.5L131.1,253.8L131.2,253.5L131.6,253.8ZM152,251.3L151.7,251.6L151.1,251.5L151.4,251.2L151.6,250.8L151.7,250.7L151.8,251.1ZM149.7,252.7L150,253.1L150.9,252.9L151,253L150.8,253.3L150.4,253.6L149.7,253.4L149.3,253.4L149.2,252.9L149.3,252.7ZM131.2,272.5L131,272.6L131.1,272L131.7,271.4L131.8,271.8ZM221.7,314.4L221.6,314.4L221.1,313.6L221.2,313.5L221.5,313.6L221.8,314.1ZM233.6,157.4L234.5,157.5L234.9,157.4L235.6,157.6L238.4,159.1L239.2,159.3L240.1,159.3L240.7,159.2L241.2,158.8L242.8,156.9L244.6,155.2L244.8,155.3L244.8,155.8L244.7,156.3L243.9,157.8L243,159.9L242.8,161L243.1,162L243.7,162.8L244.1,164L244.6,165.6L245.3,165.8L245.6,165.8L246.4,165.3L247,164.7L247.6,164.7L248.2,164.8L247.4,165.2L246.6,165.7L246,166.7L245.8,166.9L245,166.8L244.6,166.8L243.8,167.3L243,167.7L242.3,168.3L241.5,168.6L240.7,168.7L239.4,169.1L238.6,169.2L237,168.8L236.3,168.9L234.6,169.8L233.1,171.1L231.8,172.6L230.7,174.3L230.3,175.3L230,176.3L230,177L229.9,177.6L229.6,178.1L229.3,178.4L228.4,178.2L226.9,177.3L224,175.9L221,173.8L219.3,172.8L216,173.1L213,175.1L212.7,174.9L211.5,173.5L211,173L210.3,172.8L209.8,172.9L209.3,173L208.6,173.7L208.4,174.2L208.2,174.8L208.1,175.2L208.2,175.6L208.9,176.5L209.7,177.2L210,177.3L210.8,177.2L211.2,177.3L212.4,178.7L213.9,179.9L214.2,180.3L213.7,180.8L213.1,181L212.4,181L211.8,180.8L210.6,180.2L210.1,180.7L209.4,181.6L209,182.7L208.6,183.1L207.8,183.7L206.9,184.1L206.5,183.9L206.1,183.6L205.9,183.1L205.8,182.6L206,181.4L206.4,180.4L206.6,179.3L206.2,177.8L206,177.5L205.1,176.6L204.6,175.7L204.5,174.7L204.6,174.1L204.8,172.7L205,172.1L205.5,171.8L205.9,171.7L206.7,171.3L207.4,170.6L208.2,169.9L209,169.1L209.4,168.1L208.7,166.9L208.6,166.2L208.7,165.6L209.4,165.2L210.1,165.5L211.5,166.5L211.8,166.6L212.8,166.6L214.1,166.8L214.9,166.8L215.2,166.6L215.8,165.8L216.1,164.8L216,163.5L216,162.2L216.3,161.1L217.5,159.4L217.8,158.4L217.9,155.9L218.3,154.8L218.6,153.7L218.8,151.3L218.3,149L217.8,147.9L217.3,146.8L217.4,145.8L217.8,144.8L217.8,144.5L217.9,144.3L218.7,144.1L219.1,143.9L219.5,143.4L219.9,143.2L220.2,143.4L220.5,143.9L221.6,145.1L223.4,147.1L225.4,150.3L226.8,151.8L228.1,153.2L229.7,154.6L231.3,155.8L232.3,156.4L233.1,157.3ZM141.8,255.7L142.8,256L143.2,256L143.5,255.9L144.1,255.5L144.7,255.3L145.2,255.4L145.6,255.7L145.8,256.2L145.7,256.6L145,257.6L144.4,258.6L145.7,258.8L147,258.8L146.7,259.4L146.7,259.9L147.1,260.2L147.4,260.6L147.3,260.9L147.1,261.2L147.8,261.7L147.8,262L147.6,262.3L145.8,264.5L145.3,265.6L144.9,266.8L144.6,267.7L144.4,268.6L144.2,269.5L143.9,270.6L144,271.5L143.9,272.4L143,274.6L142.3,274.6L141.5,274.3L141,274.4L140.8,274.9L141.2,275.9L139.8,277.1L138.2,278L138.2,277.6L138.4,277.3L138.6,277L138.8,276.8L139,275.8L138.9,274.8L138.4,273.6L138.4,273.2L138.7,273L138.9,272.9L139,272.8L139,272.4L138.9,272.1L138.4,272L138,272L137.7,272.4L137.3,273.3L137.1,274.2L137.2,274.7L137.3,275.1L137.9,275.8L137.8,276.2L137.5,276.6L135.5,275.8L135.1,275.8L134.7,275.6L134.3,274.6L135.2,274.4L135.4,274.3L135.5,273.9L135.6,273L135.2,272.2L134.9,271.9L134.6,271.5L134.8,270.9L134.7,270L134.7,268.8L134.8,268.6L135.6,268.3L136.1,267.7L136.6,267L137.3,265.7L137.9,264.3L137.3,264.2L136.9,263.9L137.4,263.3L137.2,262.4L136.5,261.4L136,260.2L135.3,259.6L135,259.4L134.5,259.7L134.2,260.1L134.5,260.9L134.5,261.5L134.5,262.2L134.9,262.3L135.3,262.1L135.6,262.2L135.8,262.6L135.9,263.1L135.7,263.5L135.4,263.8L135,263.7L134.7,263.5L134.3,263.1L133.6,262.9L132.9,263.4L132.2,264.2L131.6,264.7L131.9,264L132,263.3L131.7,262.8L131,262L130.8,261.6L130.8,261L130.9,260.4L131.7,261.1L132,261.9L132.5,262.2L133.2,262.2L132.7,261.1L132.5,260.8L131.8,260.2L130.8,259.3L130.2,258.9L130.4,258L130.8,257.8L131.1,257.8L132.1,258.2L132.2,257.7L132.1,257.5L132,257.2L132.7,256.8L133.8,256.4L134,256.3L134.2,255.9L134.5,255.8L135.3,255.8L135.9,255.5L136.4,254.6L136.6,254.1L136.8,253.7L138.1,253L138.4,252.9L139.3,253L140.2,253.4L140.6,254.2L140.9,255.1ZM164.9,250L165.9,250.4L166.9,250.3L166.9,251.9L167,252.4L167.3,252.9L167.2,253.6L167.7,253.8L166.3,254.6L165,255.7L164.5,256.4L164,257.1L163.8,257.9L163.6,258.8L163.2,258.5L162,257.1L161.2,256.7L160,256.5L159.6,256.5L157.1,257.8L156.8,258.8L156.1,260.2L155.8,260.7L155.4,260.9L155.1,261.1L154.9,262.3L154.1,263.1L153.6,263.1L152.8,262.9L152.4,263L152.9,261.8L152.1,261.7L151.4,261.7L151.4,260.9L150.9,260.4L151.2,259.9L151.2,259.4L151.4,259.1L151.5,258.7L151.5,258.4L151,258.3L150.7,258.1L150.8,257.2L150.5,257.2L149.8,257.3L148.4,258L148,258L148.6,257.5L149.9,256.9L150.4,256.5L151.7,255.5L152.4,255L152.8,254.1L153,253.5L153.2,253.1L153.5,252.3L153.9,252.1L154.6,251.4L155,251.5L155.4,252.3L156,252.9L156.4,252.8L157.2,252.5L157.6,252.5L158.5,252.5L159.2,252.1L159.6,251.6L159.7,251.1L159.4,250.1L159.8,250.2L160.2,250.2L161,249.6L161.9,249.2L162.8,249.1L163.9,249.5ZM214.7,184.5L215,184.7L216.4,184.2L216.1,185.7L216,187.2L216.1,189.7L216.2,190.8L216.4,191.9L217,192.6L217.8,193.2L218.9,194.9L219.5,197L219.9,198.1L220.2,199.2L220.3,199.7L220.3,200.1L220.2,200.8L220.3,201.4L220.2,203.1L219.7,205L219.6,206L219.2,206.2L218.9,206.7L218.7,206.9L218.5,207.1L218.1,207.1L217.9,207.3L217.8,207.8L217.6,208.3L217.3,208.8L217.1,209.3L216.9,210.5L216.8,211.8L216.5,212.6L215.8,212.8L214.9,212.8L213.9,213.2L213.6,213.5L212.8,215L212.6,215.9L212.6,216.8L212.8,218L213.1,219.1L213.4,221.3L213.1,224.5L212.9,225.5L212.3,226.2L211.9,226.5L211.6,226.9L211.1,227.9L210.4,230L210.3,230.5L210.3,231.1L210.1,231.8L210,232.5L210.1,233.3L210.3,234L211.3,235.9L211.7,236.5L212.2,237L210.5,237.6L210.2,237.8L209.1,238.9L208.8,239.9L208.9,241.1L208.7,241.5L208.4,241.8L208.1,242.1L207,242.6L206.2,243.1L205.5,243.9L205.3,244.3L204.7,244.2L204.4,243.8L204.7,243.4L204.6,242.8L204.8,241.4L204.6,240.8L205.1,240.4L205.4,239.7L206,239.1L206.5,238.7L206.5,238.2L206.1,237.8L205.7,237.5L205.2,237.5L204.6,237.6L204.3,238L204.2,238.6L204.2,238.8L204.1,239.1L203.3,239.8L203.4,240.6L203.7,241L204,241.2L203.9,241.5L203.5,242.1L203.2,242.2L202.7,241.3L202,240.8L201.2,240.8L200.4,241L199.7,241.6L199.5,242.1L199.4,242.6L199.5,243.8L199.2,244.9L198.7,245.8L198.4,246.1L197.8,246.7L197.4,246.8L197.1,246.5L196.8,246.1L197.2,244.6L197.1,243.7L197.9,243.2L197.3,242.6L196.5,242.4L195.5,242.7L195.2,243.1L195,243.6L194.5,244.2L193.8,244.8L193.2,245.8L192.7,247L191.2,246.6L190.3,246.5L189.5,246.6L188,246.4L186.4,246.7L184.5,247.1L184.6,246.8L186.2,246.1L186.2,245.9L186,245.5L185.7,245.4L184.8,245.6L184.3,245.5L184.1,245.1L183.8,244.9L183.6,245.1L183.6,245.9L183.4,246L183.1,245.8L183.2,245.2L183,244.2L183,243.6L183.3,243.1L183,242.9L182.6,243L182.2,243.2L181.8,243.6L181,245.3L180.7,246.3L181.3,247.1L182.9,248.2L183.2,248.4L183.2,248.9L183,249.4L182.5,249.6L180.7,250L179.2,250.7L178.7,251.4L177.3,254.2L176.2,256.1L174.6,256.7L172.8,256.2L172.4,255.5L172,254.7L171.4,254L170.8,253.2L170.5,252.2L170.5,250.7L170.3,249.7L170.5,249.5L171.5,248.9L171.8,248.6L172.3,247.9L172.5,247.5L172.6,246.8L172.1,246.5L171,246.5L169.8,246.7L169,246.4L168,245.7L167.7,245.5L166.5,245.5L165.7,245.6L164.9,245.9L164.1,246L163.8,246.1L162.8,247L162.1,247.6L161.4,247.9L159.9,248L159.2,248.2L158.5,248.5L158.2,248.5L157.5,248.9L156.6,249.2L156.1,249.6L155.2,249.4L153.4,250L152.5,250.1L151.6,249.7L150.8,249.2L150,249.4L149.5,250.3L149.2,252L148.9,252.7L148.8,253.7L148.4,253.5L146,251.9L145.9,251.8L144,252.1L143.5,252.2L142.9,252.6L142.2,252.7L141.6,252.5L141,252.1L140.5,252.2L139.9,252.5L139.7,250L139.8,249.6L140.2,249.2L140.5,248.8L141.5,248.7L142.4,248.8L143.1,248.6L143.6,248.1L144.2,247.4L144.9,246.9L145.8,246.4L146.7,245.9L147.5,245.1L148.2,244.3L148.9,243.7L149.7,243.2L150.8,242.1L152.3,240.7L152.8,239.7L153.2,239.5L154.5,238.9L156.2,238.5L157,238.5L157.8,239.4L158.2,239.3L158.6,239L159.5,238.9L160.4,239.1L161.3,239.1L162.1,238.9L163.8,238.7L164.7,238.3L165.6,237.9L168.7,237.6L170.8,236.8L171.1,236.9L171.5,237L171.5,237.6L171.2,238.2L171.5,238.6L171.9,238.8L173.9,238.9L174.5,239L175.3,238.6L176.1,238.1L176.9,237.4L177.5,236.6L177,235.7L176.9,234.6L177.3,233.5L177.9,232.5L178.7,231.9L179.4,231.3L180.8,229.4L181.9,227.9L182.2,225.9L182,223.7L182.9,222L183.8,221.7L185.5,221L186.4,220.7L186.5,221.1L186.5,221.5L185.2,222.9L184.4,223.5L183.9,223.7L183.5,223.9L183.3,224.4L184,225.3L184.2,225.9L184.1,226.5L184.2,227L185,227.6L185.8,227.7L186.2,227.7L186.5,227.6L187.6,226.2L187.8,225.9L190.7,224.9L192.1,224.1L192.9,223.9L193.6,223.5L195.3,221.9L195.9,221.2L196.4,220.4L196.9,219.5L197.3,218.4L197.7,217.8L200.4,216.3L201.2,215.4L201.5,215L201.8,213.9L202,212.7L202.4,211.7L202.8,210.8L203.3,209.9L204,209.1L204.4,208.2L204.9,206.1L205.2,204.9L205.4,204.5L205.7,204.2L205.9,203.7L206.1,203.2L206.2,202.7L206.3,201.2L206.2,200L205.8,199L205.4,198.8L205,198.7L204.4,198.8L203.9,198.4L204.1,198.1L204.6,198L204.9,197.8L205.1,197.5L205.6,196.4L205.9,195.2L205.9,194.7L205.6,193.7L205.3,192.6L205.3,192L205.6,191.3L206,190.7L206.5,190.6L206.9,190.5L207.3,190.3L207.7,190L207.9,189.6L208.2,188.6L208.3,188.1L208.1,186.6L208.3,186.2L208.6,185.9L209,186.1L209.4,186.1L209.9,186.1L210.4,186.2L210.5,186.6L210.8,189.2L210.9,189.5L211.3,189.8L211.6,189.7L212,189.3L212.2,188.8L212.6,188.7L214,189.3L214.4,188.9L214.7,188.3L215,187.2L214.9,186.1L214.5,185.8L214.2,185.9L213.9,186.1L213.6,186.3L211.6,186.8L211.7,185.7L212.1,184L212.3,183.5L212.6,183.3L213.5,183.5L213.8,183.7ZM91.83,331.3L91.42,332.6L91.05,332.7L90.68,332.6L90.32,331.9L90.58,331.7L90.94,331.8L91.23,331.8L91.89,330.7L92.07,330.9ZM88.91,333.2L88.44,333.3L87.89,333.2L87.39,333.1L87.39,332.9L87.91,332.6L87.91,332.3L88.04,332.1L89.25,332.5L89.19,332.8ZM100.2,329.5L99.57,329.7L98.91,329.6L99.02,328.5L99.25,328.6L99.38,329L99.88,329.2ZM120.6,314.1L119.9,314.5L119.7,314.9L119,315.1L118.4,315.7L117.8,315.8L117.8,316.3L118,316.7L117.6,316.8L117.2,317.3L117.2,317.7L117.3,318L117.3,318.2L116.8,318.6L116.2,318.6L116.2,318.1L116.2,317.8L116.8,316.9L116.8,315.9L117.3,315.8L117.4,315.6L118.2,314.9L118.4,314.6L117.9,314.3L118,313.9L118.1,313.8L118.7,313.9L119,314.2L119.1,314.2L119.4,314L119.6,313.6L120.3,312.9L120.6,312.2L121.1,312.8L121,313.6ZM126,305.4L125.7,305.5L125.3,305.3L125.1,304.4L125.3,303.9L125.6,303.8L125.9,304.6L126.1,305ZM129.3,301.4L128.6,302.1L128,301.5L127.2,301L127.6,300.9L127.8,300.8L127.8,300.5L128.3,300.1L129.4,299.8L129.7,299.8L130.1,299.5L130.2,299.3L130.3,299.2L131,298.8L131.2,299.2L131.2,299.5L130.7,299.7L130.2,300.1L129.7,300.6L129.3,300.9L129.2,301ZM128.3,302.2L128.4,302.4L127.7,302.3L127.4,301.5L127.9,301.7L128,301.9ZM204.7,260.5L204.5,260.6L204.2,260.3L204.2,260L204.2,259.9L204.4,259.8L204.9,260.1Z" fill="#8B341D" stroke="#2C160F" stroke-width="1.1" vector-effect="non-scaling-stroke"/></svg>