<svg xmlns="http://www.w3.org/2000/svg" viewBox="0 0 360 440" width="360" height="440" role="img" aria-label="Regional map with Kenya highlighted"><rect width="100%" height="100%" fill="#7FA6D6"/><path d="M56.67,482L56.68,481.9L56.59,480.9L56.55,479.7L56.63,478.9L56.37,478.5L55.72,478.3L53.84,478.2L51.54,478.2L51.49,476.9L51.27,475L50.84,473.9L50.32,473.3L49.27,472.7L47.13,471.9L44.26,470.6L41.77,468.8L38.99,466.5L38.07,466.1L37.02,463.9L35.46,460.2L35.54,459L35.33,458.4L33.76,456.6L33.45,455.6L33.15,454.7L30.71,452L29.88,450.9L29.22,449.4L28.61,448.2L28.05,447.7L27.35,446.9L26.87,446L26.65,445.3L26.83,444.4L27.09,443.8L29.4,444.5L30.71,444.5L31.71,444.2L32.93,444.6L34.41,445.8L36.02,446L37.72,445.3L40.08,445.5L43.04,446.7L45.48,446.9L48.4,445.9L51.01,443L53.45,440.2L55.85,437L57.33,434.5L59.42,432.4L62.26,430.8L65.09,429.5L69.45,427.8L70.36,426.4L70.62,425L70.62,422.9L70.84,421.6L71.32,420.9L72.02,420.5L72.97,419.9L75.85,418.3L78.25,417.3L81.21,416.6L84.39,416.6L87.49,416.6L89.27,416.6L89.27,418.6L89.4,420.8L89.75,421L92.11,421.1L95.85,421.3L99.43,421.4L101.7,423L102.5,423.4L104.9,423.8L108,426.5L111.6,426.7L114.2,427.6L116.4,428.5L117.6,429.6L118.5,429.9L119.6,430L120.2,430.1L120,430.9L119.3,432.3L119.4,434.2L120.4,436.9L120.6,439.3L120.2,443.4L120.3,447.5L120.3,448.9L120.5,449.9L120.7,450.4L120.7,451L120.1,452.7L119.6,454.5L119.6,455.2L119.4,455.7L119,456.2L117.4,457L117.2,457.5L117.2,458.4L117.3,459.2L117.9,459.5L118.7,459.9L118.9,460.5L118.9,461.1L118.7,462.3L118.1,464.2L118.7,466.3L119.5,467.8L120.4,469.4L120.9,470.4L120.8,471.1L120.7,471.8L119.2,474.8L118.1,476.7L116.8,478.7L115.1,479.9L114.6,480.5L114.5,481.2L114.5,482L56.67,482ZM89.27,416.6L87.49,416.6L84.39,416.6L81.21,416.6L78.25,417.3L75.85,418.3L72.97,419.9L72.02,420.5L71.32,420.9L70.84,421.6L70.62,422.9L70.62,425L70.36,426.4L69.45,427.8L65.09,429.5L62.26,430.8L59.42,432.4L57.33,434.5L55.85,437L53.45,440.2L51.01,443L48.4,445.9L45.48,446.9L43.04,446.7L40.08,445.5L37.72,445.3L36.02,446L34.41,445.8L32.93,444.6L31.71,444.2L30.71,444.5L29.4,444.5L27.09,443.8L25.04,441.8L23.95,440.9L23.12,440.6L20.73,440.3L15.15,439.8L14.58,439.9L12.27,440.3L9.397,440.8L6.957,441.3L4.342,441.8L1.945,439.7L-0.8,437.4L-3.632,434.7L-5.768,432.6L-6.814,431.4L-8.687,429.8L-10.04,429L-10.56,428.6L-11.87,424.4L-12.61,420.5L-12.61,417.6L-12.61,413.6L-12.61,409.6L-12.61,405.5L-12.61,401.5L-12.61,397.5L-12.61,393.5L-12.61,389.5L-12.61,385.5L-12.61,383.6L-9.82,383.6L-6.683,383.6L-3.371,383.6L0.246,383.6L3.819,383.6L7.436,383.6L9.963,383.6L10.62,383.6L11.4,383.4L11.45,383.1L10.4,381.1L10.49,380.4L10.75,379.1L11.18,377.9L11.75,376.4L11.79,375.5L11.36,372.7L11.4,371L11.53,369.4L11.66,367.8L11.49,366.7L11.66,366.1L12.01,365.2L12.19,364.3L12.4,363.8L12.36,363.4L12.14,362.7L11.97,361.1L11.71,358.9L11.45,357.3L11.88,357.3L12.8,357.5L13.23,358.3L13.49,359.2L14.1,359.2L15.72,359.7L16.28,360.4L16.63,362L16.41,362.8L15.89,363.4L16.41,364L17.5,364.4L18.11,364.2L19.94,363.2L20.64,363L21.6,362.8L22.47,362.5L24.87,362.1L26.17,361.8L26.91,361.5L27.44,361.5L27.83,361.8L27.48,362.8L27.35,363.8L27.83,365.7L28.18,366.5L28.96,367.2L29.53,367.5L30.14,368.1L31.45,368L34.28,369L35.15,369.4L36.37,369.8L37.2,370L40.16,370.3L41.25,370.5L43.26,370.8L44.87,370.9L46.05,370.8L46.83,370.5L47.31,370.2L47.53,369.9L47.88,369L48.48,367L48.7,366.4L49.31,366.2L50.1,366L50.53,366.3L51.06,368.5L53.28,370.5L54.06,372.2L54.63,373.6L55.11,374L55.94,374.5L57.33,374.7L58.55,374.7L61.08,375.8L63.13,376.6L64.61,377.1L65.26,377.6L65.74,378.3L66,378.9L66.44,380.4L66.92,381.5L67.7,381.8L68.4,381.9L69.1,382.7L69.62,383.4L70.67,385.1L71.41,386.2L71.67,387.4L72.54,388.2L73.72,388.5L74.81,388.5L75.42,388.2L76.98,387.6L78.2,386.9L79.08,386.7L79.6,386.8L79.99,387.3L80.21,388.2L80.25,388.7L81.12,389.2L81.73,389L82,388.5L82,388.2L82,385.7L82,383.5L82,381.4L82,378.9L82,376.8L82,375L82,373.1L81.43,373.2L80.73,373.6L79.12,373.7L78.51,374L78.33,374.5L78.42,375.1L78.47,376L78.25,376.4L77.55,376.5L76.5,376.2L74.67,375.8L73.15,375.5L72.06,374.4L70.53,372.7L69.58,371.8L67.22,370.1L66.83,369.7L66.09,368.9L65.48,367.5L65.17,366.5L64.91,365.8L64.56,364.8L65.13,363.2L65.96,360.2L66.53,358L66.83,356.4L68.01,354.8L68.09,353.3L67.62,351.4L67.75,350.4L67.79,347.7L67.88,345.5L67.88,344.5L67.57,342.6L66.79,340.5L65.09,337.6L65.09,337L66.13,336.3L67.7,335.1L68.49,334.4L69.45,333.4L69.88,332.9L70.8,331.6L71.36,330.6L71.58,329.2L71.14,327.9L72.02,327.7L74.98,327.2L78.2,326.8L81.65,326.2L85.09,325.7L88.44,325.2L91.45,324.7L93.54,324.4L93.89,325.3L94.5,326.7L95.29,327.8L96.2,328.8L96.99,329.3L97.51,329.5L100.8,329.4L102,330L103,330.7L103.3,331.9L104,332.6L104.7,333.1L105,333.2L105.6,333.1L106.5,333L107.3,333.3L107.7,333.5L107.8,334.5L108,334.9L109.1,335.1L110.2,335.2L111.4,335.8L112.5,335.9L113.9,336.2L114.6,336.9L116,337.6L117.8,338.2L119.1,338.9L119.8,339.2L119.9,339.6L120.2,340.2L120.5,340.6L120.6,341.3L120.7,341.9L121.3,342L121.7,342.1L122,341.6L122.6,341.6L123.1,341.9L123.3,342.6L123.8,343.6L124.5,344.2L125,344.8L124.9,346L124.6,347L125.5,348L126.8,349L127.2,349.4L127.3,350.8L127.5,351.3L128.4,352.5L128.8,353.3L128.8,353.8L126.4,356.2L125.7,356.4L125,356.5L124.3,357L124,357.5L124.1,357.8L124.4,358.6L124.9,359.9L125.4,360.8L125,361.9L124,363.8L123.6,364L123.5,365.4L123.8,366L124.3,366.4L124.4,367.4L124.5,368.7L124.4,369.8L123.8,372.6L124.9,375L125.3,375.3L126.7,375.3L127,375.5L126.6,376.2L126,376.9L125.6,377.3L123.7,378.1L121,379L120.5,379.9L120.1,381.2L120.4,381.9L120.8,382.3L120.6,383.5L120.4,384.6L120.5,385.6L120.4,386.4L120,386.8L119.6,388L119,389.3L118.5,389.8L117.9,390.4L116.8,390.9L116.8,391.2L118,391.8L118.3,392.1L118.4,392.4L118.2,392.7L117.9,393.1L118.5,393.4L119.2,393.8L119.8,394.6L120.4,395.8L120.6,396.1L120.7,396.3L120.9,396.3L121.3,396.2L122,395.5L122.6,395.3L123.2,396.2L120.6,397.1L119.3,397.6L115.4,398.9L112,400.1L111.1,400.3L109.3,400.9L108.4,401.2L105.4,402.2L104.1,402.7L103.1,403.2L100.6,404L98.16,404.7L95.55,405.5L92.63,406.3L90.97,406.9L89.88,407.4L87.27,408.4L87.14,408.7L87.18,409.4L87.53,410.8L88.18,412.2L88.71,412.9L89.06,414.9ZM363.9,20.43L357.8,22.69L356.2,23.68L354.7,24.93L353.7,26.46L352.9,29.17L353.4,31.64L353.4,32.95L351.8,33.82L350.3,34.45L348.7,35.41L347.7,35.65L346.9,36.42L346,36.96L342.6,38.33L338.8,39.42L333,40.71L330.6,42.1L328.6,43.06L325.4,43.34L321.1,44.66L318.7,45.71L315.7,47.44L315,47.99L314.5,49.24L313.6,50.35L311.8,52.15L310.4,53.06L309.6,53.1L307.8,53.6L305.7,53.71L302.2,53.08L301.3,53.51L300.6,54.23L297.9,55.44L295.2,57.91L293.2,58.56L289.9,59.33L287.7,60.35L286.2,60.76L284.2,60.98L280.6,60.87L277.2,61.24L274,61.93L272.5,63.22L270.8,65.29L268,66.16L267.4,66.89L266.5,68.42L264.7,68.81L263.1,69.07L261.4,68.4L258.3,70.23L257.1,70.55L255.3,70.62L254,71.01L253.1,70.9L251.9,70.17L249.5,69.3L247.7,69.86L247.6,68.14L244.6,62.81L245.2,58.17L245.2,57.52L244.7,55.44L242.9,53.56L243,51.15L242.4,49.42L241.9,47.66L242.1,47.18L242.1,46.75L241.2,44.03L240.9,43.47L240.8,42.9L241.1,42.47L241.1,41.95L240.6,41.12L240.1,39.51L237.7,38.27L238.2,37.09L238.7,37.51L239.3,37.85L239.4,37.09L239.4,36.53L238.4,32.97L239.9,28.21L239.4,23.94L241.7,22.21L242.2,21.68L242.6,21.23L243.1,20.24L243.8,19.93L244.1,18.9L244.1,18.37L243.6,17.93L243.2,16.73L243.4,15.21L243.5,14.57L243.7,13.41L244.5,12.97L244.7,12.61L244.1,11.89L244.1,11.45L245.5,10.21L246,9.84L246.9,9.443L247.6,9.466L248.4,9.664L249.1,10.02L249.7,10.65L250.5,11.36L251.6,11.65L252.3,11.56L252.9,11.89L253.4,11.71L254,11.34L255,11.36L255.8,10.94L258.2,10.74L260.5,10.88L263,10.52L265.4,10.54L267.8,10.59L268.4,10.63L268.9,10.85L270.9,11.95L272.5,12.17L275.7,12.46L279,12.79L281.9,13.08L284.4,12.81L286.4,12.59L286.9,12.64L287.5,13.32L288.8,14.99L289.9,16.59L292,16.66L293.3,16.07L294.7,15.23L295.6,14.57L296.6,12L297.3,10.3L298.7,8.43L300,6.842L301.7,4.745L302.6,3.597L304.5,1.298L306.2,0.413L309.5,-1.313L312.8,-3.019L315,-4.105L316.8,-4.615L319.8,-5.058L323.5,-5.568L327,-6.079L330.9,-6.611L335.1,-7.233L338.1,-7.632L341.8,-8.165L344.9,-8.61L347.6,-9.01L350.5,-9.41L351,-8.143L351.6,-6.855L352.1,-5.568L352.7,-4.304L353.2,-3.019L353.7,-1.756L354.3,-0.472L354.8,0.789L355.3,2.072L355.9,3.332L356.4,4.613L356.9,5.871L357.4,7.151L358,8.408L358.5,9.686L359.1,10.96L359.6,12.2L360.5,12.59L361,13.78L361.7,15.43L362.5,17.1L363.2,18.77ZM236.9,37.38L236.5,37.66L236.4,37.16L236.6,36.07L237,35.76L237.3,36.57L237.1,37.01ZM238.9,57.37L238.1,57.76L238.6,56.76L239.2,56.57L239.4,56.61ZM239.3,54.03L239.1,54.31L238.9,54.25L238.1,53.58L239,52.84L239.4,53.54ZM372.1,70.64L372.9,70.79L374,70.36L377.2,70.3L381.1,71.69L380.4,72.04L380,72.56L378.3,73.01L376.5,74.06L371.6,74.58L370.1,74.3L368.9,73.27L366.7,71.93L367.6,71.07L367.8,70.68L368.1,70.32L369.3,69.67L370.6,69.76ZM131.7,237L130.4,237L128.2,237L126.1,237L124,237L121.8,237L119.6,237L117.5,237L115.3,237L113.2,237L111,237L108.9,237L106.7,237L104.6,237L102.4,237L100.3,237L98.12,237L95.98,237L94.68,237L94.46,237L94.28,236.9L93.46,237.1L92.63,237.6L91.71,237.8L90.75,237.7L90.62,237.8L90.14,237.8L89.45,237.7L88.84,237.9L88.36,238.3L87.83,239.1L86.96,240L86.27,240.8L85.7,241.4L84.35,242.4L83.61,242.7L83.26,242.6L83.04,242.4L82.61,241.2L82.34,241L79.73,241.6L79.34,241.7L79.38,241.3L79.21,238.4L79.16,236.7L79.51,235.6L79.69,234.3L79.73,233.2L80.21,231.3L80.03,230.2L80.64,226.2L80.82,225.6L81.04,223.7L81.43,223.1L81.78,222.9L82.21,221.7L83.08,219.8L83.69,218.8L83.56,216.7L83.65,215.3L83.78,214.9L85.05,214.4L86.7,213.1L87.36,211.5L88.36,210.5L90.23,209.9L90.28,209.9L95.9,204.5L98.51,201.6L99.64,200.1L99.69,199.6L99.91,198.9L99.43,198.3L98.9,197.8L98.73,197.4L98.25,197.1L97.55,197.1L97.12,196.8L96.64,196.2L96.11,195.8L94.5,195.8L93.28,195.1L93.28,194.2L93.81,192.4L94.72,190.4L94.76,189.8L94.63,189.3L94.42,188.9L93.98,188.5L93.59,188L93.89,186.5L94.5,185.1L94.98,184.4L95.46,183.6L95.29,182.9L94.63,182.6L94.98,181.9L95.72,180.8L97.16,179.7L98.42,179L99.25,179L100.9,179.6L102.4,180.3L103.2,180.3L104.2,180L106.2,178.8L106.7,179.2L107.3,179.9L108,181.2L109.3,181.7L109.9,182.1L110.3,182.2L110.6,182.1L111.1,181.2L111.6,180.6L112.8,180L115.2,179.4L116.9,179.3L117.6,179.2L118.8,178.8L120.7,177.9L122.7,179.1L124.7,179.4L126.7,179.4L127.3,179L127.7,178.7L129.8,176.6L132.6,173.7L134.5,177.7L135.1,178L135,178.3L134.9,178.7L136.1,179.6L137.6,180.1L138.2,180.6L138.3,181.2L137.7,183.5L137.8,184.2L138.3,186.5L139.2,187.1L140,189.4L141.7,190.4L141.9,190.7L142.3,191.9L142.7,193.1L143.1,193.4L143.4,193.5L143.8,194.8L143.6,195.6L144,197.9L144.6,199.9L144.7,202.3L144.7,203.4L144.7,204L144.6,205L144.3,205.5L143.7,206L143.2,206.8L142.7,207.7L142.4,208.1L142.6,209.4L142.6,209.8L142.4,210L141.7,210.2L140.7,210.5L140.2,210.9L139.4,211.5L138.7,212.2L137.9,214.4L136.4,216L136.2,216.6L134.9,217.5L134.2,218.7L133.9,220.2L133.3,221.3L132.2,222.8L131.9,225.1L132,229.7L131.7,234.9ZM199.4,299.7L200.3,302.3L200.2,302.8L199.6,303.1L199.2,303.1L198.8,302.7L198.5,301.9L198,302.1L197.2,301L196.3,301L195.6,299.7L195.9,298.6L195.7,296.8L196.6,295.8L197.2,294.2L197.7,295.3L197.9,297L198.7,299L199.3,299.6ZM203.9,284.3L204,284.9L203.7,285.5L203.8,287.3L203.7,288.6L203.1,290.3L202.5,290.9L202,290.7L201.6,290.4L201.2,289.9L201.9,286.8L201.6,284.6L202.9,284.8ZM119.8,339.2L119.1,338.9L117.8,338.2L116,337.6L114.6,336.9L113.9,336.2L112.5,335.9L111.4,335.8L110.2,335.2L109.1,335.1L108,334.9L107.8,334.5L107.7,333.5L107.3,333.3L106.5,333L105.6,333.1L105,333.2L104.7,333.1L104,332.6L103.3,331.9L103,330.7L102,330L100.8,329.4L97.51,329.5L96.99,329.3L96.2,328.8L95.29,327.8L94.5,326.7L93.89,325.3L93.54,324.4L93.19,323.3L92.37,321.7L91.23,319.3L90.36,317.5L89.4,315.4L89.01,313.9L88.27,312.3L87.05,310.3L86.44,309.5L85.74,308.8L84,307.4L82.04,306L80.95,305.1L79.51,302.4L78.9,301.4L78.51,299.7L78.16,297.9L78.29,297.2L79.6,294.9L79.73,294.2L79.56,293.4L78.94,291.5L78.47,290.3L78.12,289.3L77.46,287.6L76.5,285.3L76.29,284.2L76.29,283.5L76.81,281.4L77.25,279.4L77.25,278.8L81.04,278.8L81.69,278.4L83.83,277.1L86.27,274.4L86.75,273.2L87.7,271.5L88.71,270.7L89.06,270L89.32,269.1L89.62,268.3L90.89,267.2L92.11,266.3L92.02,265.9L91.84,265.6L92.06,265.4L92.72,264.9L94.02,264.5L94.28,263.6L94.28,262.6L94.07,262L94.11,261.4L93.89,261L93.06,260.9L91.8,260.4L90.71,260.2L89.97,259.9L89.71,259.7L89.62,259.1L89.8,258.4L89.93,258.2L90.19,257.5L89.71,257.1L89.62,256.8L89.84,256.5L90.93,254.2L91.19,253.9L91.67,253.9L92.41,253.6L93.11,253.5L93.72,253.6L94.11,253.5L94.5,253.2L94.81,252.3L95.07,250.8L94.94,249.6L94.37,248.7L94.24,247.3L94.5,245.4L94.28,243.8L93.67,242.5L93.06,241.8L92.11,241.4L90.62,239.5L90.14,238.6L90.23,238L90.62,237.8L90.75,237.7L91.71,237.8L92.63,237.6L93.46,237.1L94.28,236.9L94.46,237L94.68,237L95.98,237L98.12,237L100.3,237L102.4,237L104.6,237L106.7,237L108.9,237L111,237L113.2,237L115.3,237L117.5,237L119.6,237L121.8,237L124,237L126.1,237L128.2,237L130.4,237L131.7,237L132.6,237L133.5,237.4L134.5,238L137.1,239.4L139.6,240.9L142.2,242.3L144.8,243.7L147.4,245.2L150,246.6L152.5,248.1L155.1,249.5L157.7,251L160.3,252.4L162.9,253.8L165.4,255.3L168,256.7L170.6,258.2L173.2,259.6L175.8,261.1L177,261.7L177.2,262L177.4,263.3L177.5,264.2L177.5,264.9L176.8,266.1L176.6,266.8L176.6,267.2L176.7,267.4L177.3,267.5L177.8,267.7L178,268L178.4,268.9L178.9,269.4L180,270.1L181.8,271.5L183.7,272.8L185.5,274.2L187.4,275.5L189.2,276.9L191.1,278.2L192.9,279.5L194.8,280.9L195.7,281.5L196.1,281.7L195.9,282.7L194.9,285.2L194.9,286.3L194.5,287.5L194.1,288.3L193.2,291.8L192.3,293.1L191.2,296.1L191,298.5L191.7,300.1L191.9,301.6L193.2,303.2L194.2,303.7L194.9,304.4L196.2,306L196.9,307.5L199.1,308.3L200,310.1L199.7,311.3L198.7,312.3L197.7,314L196.9,316.1L196.9,319.4L197.4,318.9L198.6,319.7L198.7,322.1L197.5,325L197.2,326.3L197.1,327.4L198,330.8L199.3,332.6L199.2,333.1L198.9,333.6L201.2,336.6L201,339.3L201.8,341.3L202.2,343.1L202.8,344.5L202.9,345.5L202.2,346.5L203.9,346.8L204.8,347.7L205.3,348.5L206.5,348.5L207.2,349L208.2,349.5L210.2,350.9L210.8,351.6L211,352L211.1,352.2L209.7,353.3L207.5,355L205.4,356.6L203.3,357.7L201.8,358.3L200.2,358.6L198.7,359.3L197.3,360.3L195.5,360.9L193.2,360.9L190.9,361.7L188.6,363.1L187.3,363.9L185.1,362.7L183.4,362.3L181.5,362.3L180.3,362.5L179.9,362.7L179.6,363.5L179.3,364.8L178,366L175.8,367.2L173.7,367.6L171.9,367.3L170.6,366.8L169.9,366.1L168.9,365.8L167.7,365.9L166.4,366.4L165.3,367.3L163.4,367.7L160.8,367.6L159.4,367.1L159.2,366.4L158.1,365.5L156,364.5L154.5,364.4L153.5,365.4L152.6,366L151.8,366.3L151.1,366.3L150.5,366.1L150.1,366L147.2,365.9L144.5,366L144.4,365.5L144.2,364.6L143.7,363.7L143.2,363.2L142.6,363L142.3,363.1L142,362.7L141.7,361.8L141.2,361L140.6,360.4L140.3,359.8L140.1,359.3L140.2,358.7L140.8,357.3L141,356.3L140.9,355.3L140.6,354.2L140,353L140,352.6L139.8,351.8L139.8,351.2L139.9,350.5L139.8,349.5L139.2,347.4L139.2,346.9L138.6,345.9L136.9,343.5L136.8,343.2L133.9,340.8L132.8,340.3L132.4,340.8L132.3,341.2L132.4,341.9L132.3,342.3L132.2,342.5L131.5,342.5L131.1,342.4L130.1,341.8L129.2,341.6L127.2,341.7L126.4,341.9L125.9,341.7L124.8,340.6L123.5,340.4L122.3,340.3L120.5,339.1L120,339.2ZM202,321.7L201.4,321.9L201.1,321.7L200.7,321.2L201.4,320.8L202.1,320L203.7,318.7L204.2,317.9L204.4,317.7L204.3,318.7L203.4,320.8L202.6,320.9ZM132.6,173.7L129.8,176.6L127.7,178.7L127.3,179L126.7,179.4L124.7,179.4L122.7,179.1L120.7,177.9L118.8,178.8L117.6,179.2L116.9,179.3L115.2,179.4L112.8,180L111.6,180.6L111.1,181.2L110.6,182.1L110.3,182.2L109.9,182.1L109.3,181.7L108,181.2L107.3,179.9L106.7,179.2L106.2,178.8L104.2,180L103.2,180.3L102.4,180.3L100.9,179.6L99.25,179L98.42,179L97.16,179.7L95.72,180.8L94.98,181.9L94.63,182.6L94.37,182.1L94.11,181.6L93.63,181L92.93,180.7L92.32,180.8L91.58,181L91.23,180.6L91.19,179.8L90.97,179L90.62,178.4L89.58,177.8L86.83,176.6L84.74,174.2L83.65,173.2L82.91,172.4L81.82,170.6L80.56,169.3L79.03,168.7L78.03,169L77.03,170.3L75.07,171.6L74.2,171.7L73.06,171L71.63,170.5L69.05,170.3L68.01,170.9L66.61,171.9L65.44,172.5L64.7,172.5L64.04,172.3L63.26,172.2L62.6,172.1L61.21,171.3L60.51,170.6L60.03,169.9L59.25,169.5L58.33,169.1L57.68,168.6L57.38,167.9L56.85,167L56.2,166.1L54.11,164.7L53.45,163.8L53.02,162.9L52.19,162L51.27,160.7L50.97,158.9L50.93,157.4L50.75,156.7L50.36,156L49.88,155.5L49.18,154.8L47.44,153.9L45.7,152.8L44.83,152.1L43.26,151.9L42.25,151.3L41.47,149.9L41.12,148.8L40.34,147.9L39.99,147.3L39.77,146.6L40.42,144.4L39.51,143.6L38.11,142.6L37.11,141.5L36.5,140.5L34.72,139.1L30.79,137.1L28.57,135.8L27.31,134.7L26.26,133.6L26.13,133.1L26.83,132L26.96,131.1L26.39,130.1L24.04,128.1L22.16,126L20.77,125.4L17.37,124.8L16.37,124.5L15.37,124.1L14.37,123.2L14.02,122.1L14.49,120.3L14.19,119.7L13.62,119.6L13.8,119.2L14.41,118.3L15.45,117.7L18.29,116.8L18.42,116.5L18.5,115.4L18.72,114.8L19.68,113.3L19.81,112.7L19.86,111.3L19.99,110.7L20.29,110.3L21.03,109.5L21.29,109L21.42,108L21.34,106L21.73,105.2L23.52,103.3L24,102.5L24.13,101.8L24.13,101L24.21,100.3L24.74,99.59L25.21,99.35L26.52,99.14L27.39,99.29L33.63,98.03L34.32,98.2L34.67,98.95L34.63,100.1L34.76,100.7L35.06,101.1L36.07,101.7L36.72,102.6L37.11,103L38.11,103.6L42.73,109L44.04,109.5L45.3,109.3L47.79,108.2L49.05,107.9L57.85,108.2L58.81,108.1L58.86,108.1L60.21,110.8L60.86,111.4L70.49,111.5L70.32,110.7L70.4,109.8L71.54,108.7L72.1,108.2L72.36,108L73.85,107.2L75.28,106.7L78.07,106L79.12,105.1L79.69,104.2L79.69,102.4L80.08,102.1L80.73,101.7L83.96,100.1L84.52,99.78L90.23,103.5L93.41,106.4L93.63,106.5L93.76,106.5L93.94,106.5L94.11,106.3L94.33,106.2L94.46,106.2L95.85,106.2L98.42,106L99.3,105.7L104.5,100.5L105.8,98.82L106.2,98.48L106.9,97.3L107.7,95.27L107.9,95.04L113.6,90.18L113.8,89.79L113.8,89.47L113,87.84L112.8,87.01L112.8,85.72L112.9,83.73L112.8,82.46L112.8,82.31L112.8,82.12L112.7,82.06L109.5,78.45L117.6,78.4L117.6,78.1L117.6,77.95L117.6,77.8L117.4,77.37L117.3,76.81L117.3,76.64L117.3,76.49L117.4,76.19L117.4,76.04L117.4,75.95L117.4,75.89L117.4,75.83L117.4,75.76L123.2,75.85L123.1,76.86L122.4,79.26L122.4,80.68L122.3,82.33L122.2,82.46L122.1,82.81L121.9,83.02L121.8,83.21L121.7,83.28L121.7,83.41L121.7,83.58L122.9,92.73L122.8,92.96L122.8,93.11L122.4,93.69L122.4,93.88L122.3,94.01L122.5,94.12L125.1,95.1L125.3,95.16L125.4,95.25L126.4,96.42L131.6,100.7L131.8,101L132.3,102.3L132.4,102.5L132.4,102.9L132.4,103.1L132.2,103.9L132.3,104.3L132.4,104.5L132.5,104.8L132.5,104.9L132.4,105L132.4,105.1L131.6,106.7L131.4,107.8L131.3,108.7L131.3,109.3L131.4,109.6L131.5,109.7L131.5,109.7L131.5,109.8L131.6,109.8L133.8,109.8L133.9,109.8L133.8,110.3L133.9,112.8L134,115L134.1,118.5L134.1,119.4L134,120.6L133.8,121L133.1,121.7L132.3,122.3L130.3,122.4L128.6,122.4L127.4,122.3L125.7,122.2L124.2,122.4L123.6,122.9L122.8,124.6L121.6,127.2L121,128.3L120.8,128.9L121,129.3L121.8,129.9L123.5,130.6L125.5,131.1L127,131.3L128.1,131.5L128.8,131.7L131.7,133.7L132.6,134.6L133.2,135.4L133.2,136.3L133.7,137.2L135.3,138.9L136.2,139.9L138.7,141.2L139.7,142.6L140.6,143.3L141.5,144.1L142,145.2L143,148.4L143.7,150.2L144.5,151.5L144.8,153.8L145.4,154.8L146,156.1L147,157.2L148.1,158.1L148.2,158.3L146,160.5L143.5,162.9L140.7,165.8L137.5,168.9L135,171.3ZM168.8,-42L170.2,-39.45L171.8,-37.63L172.3,-36.63L172.4,-36.16L172.3,-35.73L171.9,-36.23L171,-36.57L170.9,-34.99L171.1,-33.87L171.3,-31.75L171.9,-29.49L171.5,-27.4L171.5,-23.86L172.4,-19.61L172.2,-16.93L173.6,-10.63L174.9,-7.166L175.6,-6.301L176.5,-5.857L178,-5.546L180.3,-3.794L182.2,-1.911L182.9,-0.937L183.7,0.125L184.4,-0.074L184.8,-0.339L185.3,0.524L188.2,2.381L188.7,3.243L187.6,4.083L186.4,5.54L186.1,6.114L186,6.467L185.8,6.908L185.5,7.327L184.8,7.923L184.5,8.187L184.4,8.584L184,8.848L183.5,8.87L183.1,9.047L182.5,9.311L181.6,9.179L180.7,9.443L180.3,9.752L179.7,10.04L178.9,10.1L178.7,10.19L178,10.68L177.2,11.34L176.2,11.76L175.8,11.89L175.4,12.35L174.7,14.62L174.2,15.21L173.3,15.28L172.2,15.28L171.2,15.47L169.9,15.21L169.3,15.25L169.1,15.74L168.9,17.69L168.9,18.53L168.4,19.51L167.8,20.74L168.1,22.82L168.1,24.88L167.1,27.99L166.9,28.69L165.9,31.16L165.3,32.05L164,36.63L163.4,38.05L162.3,39.53L162.5,41.92L162.8,44.49L163,46.88L163.4,50.48L162.5,53.84L162.5,55.66L161.8,58.34L161.3,59.59L160.8,60.33L160.4,61.09L159.7,62.77L159,64.97L158.7,67.23L158.7,68.55L158.6,69.15L158.4,69.52L156.9,69.78L154.9,70.04L153.9,70.34L153.1,70.81L152.2,71.87L150.5,74.81L149.5,76.6L148.1,79.07L146.4,80.81L146,81.65L145.7,83.21L145.1,85.7L144.5,87.48L144.6,88.89L144.1,91.36L144.2,92.55L143.6,93.22L142.8,93.86L142.2,94.01L141,93.28L140.2,92.55L139.8,92.36L139,92.81L138.1,93.5L137,95.1L136.2,96.7L136.7,100.1L136.6,100.8L136.4,101.7L135.1,104.2L134.8,105L134.3,106.5L133.9,109.2L133.9,109.8L133.9,109.8L133.8,109.8L131.6,109.8L131.5,109.8L131.5,109.7L131.5,109.7L131.4,109.6L131.3,109.3L131.3,108.7L131.4,107.8L131.6,106.7L132.4,105.1L132.4,105L132.5,104.9L132.5,104.8L132.4,104.5L132.3,104.3L132.2,103.9L132.4,103.1L132.4,102.9L132.4,102.5L132.3,102.3L131.8,101L131.6,100.7L126.4,96.42L125.4,95.25L125.3,95.16L125.1,95.1L122.5,94.12L122.3,94.01L122.4,93.88L122.4,93.69L122.8,93.11L122.8,92.96L122.9,92.73L121.7,83.58L121.7,83.41L121.7,83.28L121.8,83.21L121.9,83.02L122.1,82.81L122.2,82.46L122.3,82.33L122.4,80.68L122.4,79.26L123.1,76.86L123.2,75.85L117.4,75.76L117.4,75.83L117.4,75.89L117.4,75.95L117.4,76.04L117.4,76.19L117.3,76.49L117.3,76.64L117.3,76.81L117.4,77.37L117.6,77.8L117.6,77.95L117.6,78.1L117.6,78.4L109.5,78.45L112.7,82.06L112.8,82.12L112.8,82.31L112.8,82.46L112.9,83.73L112.8,85.72L112.8,87.01L113,87.84L113.8,89.47L113.8,89.79L113.6,90.18L107.9,95.04L107.7,95.27L106.9,97.3L106.2,98.48L105.8,98.82L104.5,100.5L99.3,105.7L98.42,106L95.85,106.2L94.46,106.2L94.33,106.2L94.11,106.3L93.94,106.5L93.76,106.5L93.63,106.5L93.41,106.4L90.23,103.5L84.52,99.78L83.96,100.1L80.73,101.7L80.08,102.1L79.69,102.4L79.69,104.2L79.12,105.1L78.07,106L75.28,106.7L73.85,107.2L72.36,108L72.1,108.2L71.54,108.7L70.4,109.8L70.32,110.7L70.49,111.5L60.86,111.4L60.21,110.8L58.86,108.1L58.81,108.1L57.85,108.2L49.05,107.9L47.79,108.2L45.3,109.3L44.04,109.5L42.73,109L38.11,103.6L37.11,103L36.72,102.6L36.07,101.7L35.06,101.1L34.76,100.7L34.63,100.1L34.67,98.95L34.32,98.2L33.63,98.03L27.39,99.29L26.52,99.14L25.21,99.35L24.74,99.59L24.21,100.3L24.13,101L24.13,101.8L24,102.5L23.52,103.3L21.73,105.2L21.34,106L21.42,108L21.29,109L21.03,109.5L20.29,110.3L19.99,110.7L19.86,111.3L19.81,112.7L19.68,113.3L18.72,114.8L18.5,115.4L18.42,116.5L18.29,116.8L15.45,117.7L14.41,118.3L13.8,119.2L13.62,119.6L12.4,119.3L10.88,119L7.959,118.7L6.782,118.3L6.259,117.7L6.434,116.2L6.129,115.8L5.649,115.6L5.344,114.9L5.388,114.1L6.957,112.3L7.262,111.3L7.523,107.9L7.697,106.8L7.567,105.4L6.347,102.8L5.257,101.1L3.514,98.43L2.817,97.56L-0.713,93.94L-1.105,93.41L-1.977,91.87L-1.541,90.52L-1.018,88.51L-0.974,87.59L-1.192,86.62L-2.107,85.92L-2.892,85.83L-3.24,85.47L-3.938,84.93L-4.591,84.52L-5.201,83.73L-5.637,82.61L-5.332,78.66L-5.55,78.13L-6.421,77.97L-6.639,77.69L-6.596,76.92L-7.119,74.66L-7.642,72.79L-7.337,71.76L-8.121,70.34L-9.559,69.73L-10.91,69.93L-12.35,70.21L-13.22,70.12L-13.83,69.86L-14.27,69.35L-14.48,68.74L-14.27,67.82L-13.48,66.11L-12.48,64.73L-10.47,63.46L-9.908,62.79L-9.603,62.03L-9.559,61.17L-9.69,60.26L-9.908,59.44L-10.52,58.34L-11.08,57.04L-11.08,56.18L-10.82,55.55L-10.26,54.79L-9.21,53.95L-8.949,53.77L-8.252,53.32L-7.685,52.99L-6.204,52.08L-5.855,51.67L-5.986,51.15L-6.334,50.72L-6.944,50.13L-7.031,49.42L-7.206,48.18L-7.511,47.38L-7.729,46.81L-7.337,46.38L-6.726,45.77L-5.942,45.4L-4.722,45.08L-4.243,44.66L-4.112,43.84L-4.155,43.03L-3.72,42.45L-3.11,41.21L-2.674,40.62L-1.889,39.97L-1.061,39.14L-0.713,38.2L-0.626,37.27L-1.061,34.5L-0.146,33.32L1.03,32.36L2.686,32.42L5.301,32.23L7.044,31.81L8.308,31.84L11.18,32.36L11.4,32.23L11.49,32.12L11.62,31.38L11.62,29.52L11.62,23.9L11.62,18.26L11.62,12.61L11.62,6.952L11.62,1.276L11.62,-4.415L11.62,-10.1L11.62,-15.82L11.62,-17.43L11.62,-19.03L11.62,-20.64L11.62,-22.25L14.58,-22.25L17.59,-22.25L20.55,-22.25L23.56,-22.25L23.6,-22.27L23.6,-22.3L23.65,-22.32L23.69,-22.34L23.69,-28.77L23.69,-35.22L23.69,-41.69L23.69,-42L168.8,-42ZM224.1,245.4L224.1,244.4L223.9,243.9L222.8,242.4L220.7,239.6L219,237.5L217.3,235.4L217.3,233.7L217.3,228.6L217.3,218.4L217.3,208.2L217.2,198L217.2,192.9L217.2,190.8L217.3,190.4L219.3,188.6L221.7,186.1L225.1,181.4L226.8,178.8L228.3,176.7L228.7,176L230,174.7L232.5,174L234,173.8L239.3,172.9L240.1,172.5L240.6,172L241,171L242,169.6L243.4,168.6L245.9,167.3L248.3,166.2L248.9,166L251.9,165.3L252.6,165.1L253.8,164.9L254.3,164.8L258.4,165.1L261.6,165.3L265,165.5L265.3,165.3L267.6,162.8L271.3,158.7L273.7,156.1L277.4,152.1L280.1,149.2L283.3,146.1L286.3,143.1L289.9,139.6L292.2,137.4L295.7,133.9L299.1,130.7L302.1,127.7L303.9,125L305.6,122.3L307.5,119.4L309.8,115.9L311.9,112.6L313.7,109.9L313.7,108.5L313.7,105.6L313.7,103.5L313.7,97.86L313.7,94.42L313.7,91.1L313.7,87.69L315.2,87.54L319.1,86.67L322.2,85.31L327.9,84.35L332.2,81.9L333,80.72L334.3,79.22L336.1,78.73L341,80.49L341.8,80.62L341.5,81.69L341.3,82.76L340.3,84.65L339.7,86.75L340.1,89.94L340.4,95.12L340.2,95.87L339.9,96.6L339.8,97.19L339.3,97.39L339.1,97.73L339.4,97.86L340.9,97.3L340.9,96.68L341,96.38L342.2,97.07L343.2,97.34L343.4,98.01L343.3,98.43L341.9,98.24L341.2,97.9L339.1,98.45L337.8,99.08L337.4,100.1L337.1,104.1L336.7,106.8L336.5,110.2L334.9,112.5L334.3,114.1L331.8,117.4L330.4,120.1L330,121.5L327.8,125.3L324.8,128.2L323.7,131.9L322.6,134.2L321.4,136.3L318.7,140L317.3,142.6L315.6,147.1L315,150L310.2,158.2L305.2,164.8L302.1,170.4L296.4,176.8L288.8,185.1L278.7,194.9L276,196.9L265.1,203L258,208L254.3,211.5L250.5,214.5L247.5,217.3L238.3,227L237.4,227.9L236.5,228.8L235.3,230.4L234.6,231L232.4,233.8L231,235.2L229.5,236.6L228.8,237.6L228.4,238.8L227.8,239.4L226.5,242.2L225.3,244ZM393.6,281.7L393.7,282.9L393.1,282.5L392.9,281.8L392.1,281.2L391.7,280.7L392.6,280.1ZM229.6,19.6L230.5,19.67L230.1,19.25L230,19.05L230.5,18.48L231.8,19.69L231.7,21.09L231.6,21.42L231.3,21.11L231,20.83L230.9,20.5L230.6,20.15L229.3,20.37L228.5,20L227.3,18.79L227,17.93L227.5,17.76L228,17.34L228.3,16.66L228,15.96L228.7,16.07L229.1,16.79L229.2,18.44L229.3,18.79L229.1,19.16ZM392.9,-42L392.7,-41.17L392.2,-39.72L391.8,-38.28L391.3,-36.86L390.9,-35.42L390.4,-33.98L390,-32.54L389.6,-31.13L389.1,-29.69L388.7,-28.25L388.2,-26.82L387.8,-25.41L387.3,-23.97L386.8,-22.25L385.5,-21.8L383.5,-21.07L381.4,-20.33L379.3,-19.59L377.2,-18.83L375.1,-18.09L373,-17.36L371,-16.62L368.9,-15.89L366.8,-15.15L364.7,-14.42L362.6,-13.68L360.5,-12.95L358.4,-12.21L356.4,-11.48L354.3,-10.74L352.2,-10.01L350.5,-9.41L350.5,-9.41L347.6,-9.01L344.9,-8.61L341.8,-8.165L338.1,-7.632L335.1,-7.233L330.9,-6.611L327,-6.079L323.5,-5.568L319.8,-5.058L316.8,-4.615L315,-4.105L312.8,-3.019L309.5,-1.313L306.2,0.413L304.5,1.298L302.6,3.597L301.7,4.745L300,6.842L298.7,8.43L297.3,10.3L296.6,12L295.6,14.57L294.7,15.23L293.3,16.07L292,16.66L289.9,16.59L288.8,14.99L287.5,13.32L286.9,12.64L286.4,12.59L284.4,12.81L281.9,13.08L279,12.79L275.7,12.46L272.5,12.17L270.9,11.95L268.9,10.85L268.4,10.63L267.8,10.59L265.4,10.54L263,10.52L260.5,10.88L258.2,10.74L255.8,10.94L255,11.36L254,11.34L253.4,11.71L252.9,11.89L252.3,11.56L251.6,11.65L250.5,11.36L249.7,10.65L249.1,10.02L248.4,9.664L247.6,9.466L246.9,9.443L246,9.84L245.5,10.21L244.1,11.45L244.1,11.89L244.7,12.61L244.5,12.97L243.7,13.41L243.5,14.57L243.4,15.21L243.2,16.73L243.6,17.93L244.1,18.37L244.1,18.9L243.8,19.93L243.1,20.24L242.6,21.23L242.2,21.68L241.7,22.21L239.4,23.94L239.3,22.93L238.6,21.44L238.5,20.37L238.2,19.32L237.6,18.5L236.4,17.67L236.3,16.51L235.5,15.36L234.4,14.44L233.7,12.75L233.3,10.48L230.4,7.504L226.7,4.767L225.6,3.199L223.8,0.037L222.8,-2.465L220.4,-5.347L220.3,-6.456L219.9,-7.81L219.3,-9.321L219,-10.52L216.6,-15.75L215.8,-16.58L215.1,-17.76L214.9,-18.65L214.7,-19.14L213,-20.02L211.3,-22.23L206.5,-25.74L204.1,-26.08L202.2,-27.33L200.8,-28.99L199.3,-31.82L196.7,-34.88L194.6,-39.25L195.3,-40.85L195.2,-41.96L195.2,-42L392.9,-42ZM79.34,241.7L79.73,241.6L82.34,241L82.61,241.2L83.04,242.4L83.26,242.6L83.61,242.7L84.35,242.4L85.7,241.4L86.27,240.8L86.96,240L87.83,239.1L88.36,238.3L88.84,237.9L89.45,237.7L90.14,237.8L90.62,237.8L90.23,238L90.14,238.6L90.62,239.5L92.11,241.4L93.06,241.8L93.67,242.5L94.28,243.8L94.5,245.4L94.24,247.3L94.37,248.7L94.94,249.6L95.07,250.8L94.81,252.3L94.5,253.2L94.11,253.5L93.72,253.6L93.11,253.5L92.41,253.6L91.67,253.9L91.19,253.9L90.89,253.9L90.32,253.6L89.4,252.9L87.75,253.3L87.31,253.3L86.7,253.6L86.18,254.1L85.87,254.1L85.57,254L84.13,253.2L83.61,253.2L83.39,255.7L83.17,257.1L82.87,257.8L81.86,258.4L80.82,258.7L80.25,258.7L77.99,258.9L77.07,258.9L76.59,258.7L75.94,257.2L74.76,256.6L73.59,256.3L73.15,256.4L72.71,257.1L72.54,257.8L71.41,257.3L71.1,256.8L71.06,255.8L70.62,254.5L70.88,253.9L71.32,253.6L72.23,252.9L73.67,251.9L73.98,251.4L74.15,250.7L74.06,248.9L73.93,247.4L74.11,246.8L74.76,245.7L75.59,244.5L76.64,243.2L77.25,243.1L78.03,242.6L78.86,241.9ZM402,3.956L399.1,4.127L394.5,4.745L392.9,5.297L390.2,8.562L390,9.598L390.5,10.35L390.6,11.16L390.4,11.93L389.2,14L387.9,15.49L384.3,16.44L383,15.89L381.8,15.61L379.5,15.56L375.8,15.94L374.4,17.03L372.3,17.82L370.3,19.03L366.5,19.49L363.9,20.43L363.9,20.43L363.2,18.77L362.5,17.1L361.7,15.43L361,13.78L360.5,12.59L359.6,12.2L359.1,10.96L358.5,9.686L358,8.408L357.4,7.151L356.9,5.871L356.4,4.613L355.9,3.332L355.3,2.072L354.8,0.789L354.3,-0.472L353.7,-1.756L353.2,-3.019L352.7,-4.304L352.1,-5.568L351.6,-6.855L351,-8.143L350.5,-9.41L352.2,-10.01L354.3,-10.74L356.4,-11.48L358.4,-12.21L360.5,-12.95L362.6,-13.68L364.7,-14.42L366.8,-15.15L368.9,-15.89L371,-16.62L373,-17.36L375.1,-18.09L377.2,-18.83L379.3,-19.59L381.4,-20.33L383.5,-21.07L385.5,-21.8L386.8,-22.25L387.3,-23.97L387.8,-25.41L388.2,-26.82L388.7,-28.25L389.1,-29.69L389.6,-31.13L390,-32.54L390.4,-33.98L390.9,-35.42L391.3,-36.86L391.8,-38.28L392.2,-39.72L392.7,-41.17L392.9,-42L402,-42ZM-42,444.6L-40.93,444.7L-37.62,444.9L-34.22,444.7L-31.83,445L-30.43,445.8L-28.99,446.4L-27.56,446.7L-25.59,446.5L-23.11,445.9L-20.98,446L-20.02,446.4L-19.41,446.4L-15.79,445.8L-12.83,445.2L-8.426,444.3L-4.809,443.6L0.551,442.6L4.342,441.8L4.342,441.8L6.957,441.3L9.397,440.8L12.27,440.3L14.58,439.9L15.15,439.8L20.73,440.3L23.12,440.6L23.95,440.9L25.04,441.8L27.09,443.8L26.57,443.7L22.86,444.1L21.42,444.7L18.24,447.1L17.59,446.8L16.85,446.3L16.2,446.1L14.8,446.7L13.41,447.4L11.88,448.4L10.62,449.3L10.18,449.8L8.22,451.8L7.567,452.1L7,452.3L6.782,452.2L6.521,451.3L5.301,449.4L3.34,446.8L2.773,446.5L2.381,446.4L0.943,446.5L-3.24,447.3L-6.814,447.9L-12.22,448.9L-18.06,449.8L-21.67,450.3L-24.77,450.5L-24.77,453.1L-24.77,458.3L-24.77,463.5L-24.77,468.7L-24.77,474L-24.72,479.3L-24.72,482L-42,482ZM140.7,371.4L140.4,371L140,370.8L139.6,371L139.4,371.4L139.9,372L140.4,372ZM141.6,372.6L141.9,372.3L142,371.9L142,371.6L141.8,371.3L141.5,371.2L141.1,371.3L141,371.8L140.9,372.4L141.2,372.7ZM114.5,482L114.5,481.2L114.6,480.5L115.1,479.9L116.8,478.7L118.1,476.7L119.2,474.8L120.7,471.8L120.8,471.1L120.9,470.4L120.4,469.4L119.5,467.8L118.7,466.3L118.1,464.2L118.7,462.3L118.9,461.1L118.9,460.5L118.7,459.9L117.9,459.5L117.3,459.2L117.2,458.4L117.2,457.5L117.4,457L119,456.2L119.4,455.7L119.6,455.2L119.6,454.5L120.1,452.7L120.7,451L120.7,450.4L120.5,449.9L120.3,448.9L120.3,447.5L120.2,443.4L120.6,439.3L120.4,436.9L119.4,434.2L119.3,432.3L120,430.9L120.2,430.1L119.6,430L118.5,429.9L117.6,429.6L116.4,428.5L114.2,427.6L111.6,426.7L108,426.5L104.9,423.8L102.5,423.4L101.7,423L99.43,421.4L95.85,421.3L92.11,421.1L89.75,421L89.4,420.8L89.27,418.6L89.27,416.6L89.06,414.9L88.71,412.9L88.18,412.2L87.53,410.8L87.18,409.4L87.14,408.7L87.27,408.4L89.88,407.4L90.97,406.9L92.63,406.3L95.55,405.5L98.16,404.7L100.6,404L103.1,403.2L104.1,402.7L105.4,402.2L108.4,401.2L109.3,400.9L111.1,400.3L112,400.1L115.4,398.9L119.3,397.6L120.6,397.1L123.2,396.2L123.7,396.6L125.5,399.7L126.9,401.5L128.5,403.1L128.8,403L129.2,402.7L130,402.5L132.5,402.1L133.5,402.1L134.1,401.7L135.4,401.3L136.9,401.1L137.4,401.3L139,403.5L139.2,405.2L139.6,407.6L139.6,408.7L139.6,410.3L139.4,412.3L138.2,414.5L137.9,415.6L137.2,417.4L136.3,418.2L135.9,419L135.9,419.7L136.4,420.3L137.4,421.4L137.8,422.1L137.7,422.7L137.7,423.6L137.9,424.2L138.2,424.6L139.3,425.1L140.3,426.6L142.1,428.3L144.2,430.7L145.2,431.4L146,431.6L146.4,432.5L146.1,433.4L145.5,433.9L145.8,434.7L146.1,435.1L146.5,435.3L147.4,435.4L148.3,435.2L148.5,435L148.4,431.3L147.8,429.2L147.1,428.3L147,428.2L147.2,427.5L147.9,425.8L148.5,424.2L148.9,423.5L149.3,423.1L152.2,422.7L153.6,422.3L154.1,421.8L154.6,420.6L154.9,417.1L155,413.8L154.7,411.9L155.2,409L155.8,407.2L155.5,406.8L155.2,404.4L153.3,401.8L150.9,398.6L149.5,396.8L148,394.7L145.1,391.6L143.9,390.5L143.2,390L140.9,389.6L140.3,389L139.7,388.1L139.5,386.3L139.5,384.9L139.2,382.7L138.7,379.5L138.5,378.5L137.9,376.1L137.3,373.8L137.2,373.2L137.4,372.7L138.5,371L139.3,369.8L139.6,369.1L140.2,367.3L140.4,366.5L140.9,366.1L142.9,365.9L144.5,366L147.2,365.9L150.1,366L150.5,366.1L151.1,366.3L151.8,366.3L152.6,366L153.5,365.4L154.5,364.4L156,364.5L158.1,365.5L159.2,366.4L159.4,367.1L160.8,367.6L163.4,367.7L165.3,367.3L166.4,366.4L167.7,365.9L168.9,365.8L169.9,366.1L170.6,366.8L171.9,367.3L173.7,367.6L175.8,367.2L178,366L179.3,364.8L179.6,363.5L179.9,362.7L180.3,362.5L181.5,362.3L183.4,362.3L185.1,362.7L187.3,363.9L188.6,363.1L190.9,361.7L193.2,360.9L195.5,360.9L197.3,360.3L198.7,359.3L200.2,358.6L201.8,358.3L203.3,357.7L205.4,356.6L207.5,355L209.7,353.3L211.1,352.2L211.8,353.5L212.9,354.7L212.2,355.3L211.4,355.9L212.7,356.7L211.8,358L211.6,358.8L211.9,359.1L212.1,359.7L211.5,361L210.6,362.1L210.4,362.9L211.2,364.4L210.8,366.9L211.5,369.3L211.7,370.4L211.9,371.2L211.6,372.7L211.7,375.1L211.9,376.1L211.4,377.3L212.2,377.7L212.6,379.1L212.4,380.6L212.2,381.4L210.9,382.4L210.8,382.8L210.8,383.4L212.4,383.4L212.5,384.3L212.3,385L212.4,386.4L212.2,387.2L212.6,388.2L212.1,389.3L212.3,390.2L212.3,391.3L212.7,394.1L212.7,397.6L212.8,398.1L213.4,398.5L214.2,398.7L214.2,399.7L213.2,400.9L213.2,401.7L213.3,402.8L214.3,401.3L214.9,401.3L215.4,401.9L215.3,402.7L215.5,403.2L215.4,404L215.7,405L215.6,405.9L214.9,406.6L214,407.6L213.8,408.7L213.9,409.3L213.3,409.6L213,410L213.4,411L213.4,411.8L212.3,414.5L209.3,418.1L208,419.4L206.8,420.8L206.8,421.4L206.7,421.9L205.3,423.9L203.8,424.3L203,424.8L203.6,426.6L202.7,427L201,428.4L196.3,431.1L195.6,431.7L194.4,433.4L192.9,433.8L192,434.3L190.5,434.4L189.9,434.3L189.4,434.4L189,434.7L185.9,435.9L183.1,436.8L182.4,437.2L181.9,437.8L179.3,438.7L175.4,441L172.2,443.1L169.8,445.3L169.2,445.6L168.5,446.3L168.2,447.4L168,448.1L166.2,450.3L163.6,453L163.1,453.8L162.1,455.3L162,456.2L161,456.5L160.3,455.6L160,457.4L159.3,457.5L158.6,457.2L156.9,458.1L155.3,459.1L152.9,461.3L149.4,465.5L144.4,469.6L143.7,469.7L143.2,469.7L141.6,468.3L140.7,468.2L141.5,469L142,469.7L141.9,471.1L142,473.2L141.3,477.2L141.4,478.1L142.1,479.3L143.5,480.7L144.5,482L114.5,482ZM141.6,372.6L141.2,372.7L140.9,372.4L141,371.8L141.1,371.3L141.5,371.2L141.8,371.3L142,371.6L142,371.9L141.9,372.3ZM140.7,371.4L140.4,372L139.9,372L139.4,371.4L139.6,371L140,370.8L140.4,371ZM123.2,396.2L122.6,395.3L122,395.5L121.3,396.2L120.9,396.3L120.7,396.3L120.6,396.1L120.4,395.8L119.8,394.6L119.2,393.8L118.5,393.4L117.9,393.1L118.2,392.7L118.4,392.4L118.3,392.1L118,391.8L116.8,391.2L116.8,390.9L117.9,390.4L118.5,389.8L119,389.3L119.6,388L120,386.8L120.4,386.4L120.5,385.6L120.4,384.6L120.6,383.5L120.8,382.3L120.4,381.9L120.1,381.2L120.5,379.9L121,379L123.7,378.1L125.6,377.3L126,376.9L126.6,376.2L127,375.5L126.7,375.3L125.3,375.3L124.9,375L123.8,372.6L124.4,369.8L124.5,368.7L124.4,367.4L124.3,366.4L123.8,366L123.5,365.4L123.6,364L124,363.8L125,361.9L125.4,360.8L124.9,359.9L124.4,358.6L124.1,357.8L124,357.5L124.3,357L125,356.5L125.7,356.4L126.4,356.2L128.8,353.8L128.8,353.3L128.4,352.5L127.5,351.3L127.3,350.8L127.2,349.4L126.8,349L125.5,348L124.6,347L124.9,346L125,344.8L124.5,344.2L123.8,343.6L123.3,342.6L123.1,341.9L122.6,341.6L122,341.6L121.7,342.1L121.3,342L120.7,341.9L120.6,341.3L120.5,340.6L120.2,340.2L119.9,339.6L119.8,339.2L120,339.2L120.5,339.1L122.3,340.3L123.5,340.4L124.8,340.6L125.9,341.7L126.4,341.9L127.2,341.7L129.2,341.6L130.1,341.8L131.1,342.4L131.5,342.5L132.2,342.5L132.3,342.3L132.4,341.9L132.3,341.2L132.4,340.8L132.8,340.3L133.9,340.8L136.8,343.2L136.9,343.5L138.6,345.9L139.2,346.9L139.2,347.4L139.8,349.5L139.9,350.5L139.8,351.2L139.8,351.8L140,352.6L140,353L140.6,354.2L140.9,355.3L141,356.3L140.8,357.3L140.2,358.7L140.1,359.3L140.3,359.8L140.6,360.4L141.2,361L141.7,361.8L142,362.7L142.3,363.1L142.6,363L143.2,363.2L143.7,363.7L144.2,364.6L144.4,365.5L144.5,366L142.9,365.9L140.9,366.1L140.4,366.5L140.2,367.3L139.6,369.1L139.3,369.8L138.5,371L137.4,372.7L137.2,373.2L137.3,373.8L137.9,376.1L138.5,378.5L138.7,379.5L139.2,382.7L139.5,384.9L139.5,386.3L139.7,388.1L140.3,389L140.9,389.6L143.2,390L143.9,390.5L145.1,391.6L148,394.7L149.5,396.8L150.9,398.6L153.3,401.8L155.2,404.4L155.5,406.8L155.8,407.2L155.2,409L154.7,411.9L155,413.8L154.9,417.1L154.6,420.6L154.1,421.8L153.6,422.3L152.2,422.7L149.3,423.1L148.9,423.5L148.5,424.2L147.9,425.8L147.2,427.5L147,428.2L147.1,428.3L147.8,429.2L148.4,431.3L148.5,435L148.3,435.2L147.4,435.4L146.5,435.3L146.1,435.1L145.8,434.7L145.5,433.9L146.1,433.4L146.4,432.5L146,431.6L145.2,431.4L144.2,430.7L142.1,428.3L140.3,426.6L139.3,425.1L138.2,424.6L137.9,424.2L137.7,423.6L137.7,422.7L137.8,422.1L137.4,421.4L136.4,420.3L135.9,419.7L135.9,419L136.3,418.2L137.2,417.4L137.9,415.6L138.2,414.5L139.4,412.3L139.6,410.3L139.6,408.7L139.6,407.6L139.2,405.2L139,403.5L137.4,401.3L136.9,401.1L135.4,401.3L134.1,401.7L133.5,402.1L132.5,402.1L130,402.5L129.2,402.7L128.8,403L128.5,403.1L126.9,401.5L125.5,399.7L123.7,396.6ZM253.7,482L254.7,480.5L255.3,479.1L256.8,476.9L258.1,473.9L258.5,472.5L258.8,471L259.2,467.8L259.4,466.2L259.4,464.7L258.6,463.1L256.8,460.1L256.8,459.6L256.9,457.4L256.7,455.9L256.1,454.3L255.3,452.8L254.4,450.1L254,445.6L254.1,443.9L253.9,442.5L253.3,441.1L253.7,438.7L259,430L259.2,428.9L259,426.3L259.1,424.7L259.3,424.2L259.7,423.8L260.6,423.7L264.9,423.3L265.5,423L266.6,422.3L268.1,420.9L268.7,420.5L269.3,420.6L269.7,421.2L270.2,421.6L271.9,420.9L272.6,420.9L273.3,421L273.6,420.4L273.8,419.6L274,419.1L274.5,418.8L276.7,418.6L278.2,418.3L280.1,417.8L280.4,417.9L281.9,419.9L282.4,420.1L283,420.2L283.5,419.8L282.3,418.7L282.1,418.2L282.1,417.5L282.8,416.1L283.9,415L286.3,413.3L288.8,411.4L289.6,411.3L290.2,411.6L290.6,413.8L290.6,414.2L291,414.3L291.4,414L291.9,413.1L291.9,412.3L291.6,411.6L291.4,411L291.4,410.4L292.6,409.1L293.6,407.8L294.1,406.3L294.5,405.6L295.6,404.8L295.9,405L296.1,405.6L296.3,406.3L296,406.9L295.6,407.6L295.4,408.5L296,408.6L296.6,408.4L297.4,406.8L298.4,405.3L298.9,404.5L299.6,404L300.8,404.1L301.9,404.4L300.1,402.8L299.6,400.7L301.8,396.9L301.8,396.1L302.1,395.8L302.3,395.5L301.1,394.3L300.9,393.6L301.1,392.7L301.6,391.8L302.1,391.2L302.8,391L303.4,391.3L304.6,392.4L305.5,392.5L306.5,391.5L307.2,390.3L308.5,389.4L309.9,388.9L312,386.9L313.4,382.8L313.5,381.6L313.2,380.1L312.7,378.7L311.9,377L312.1,376.6L313.3,376.9L313.6,376.6L314.9,375.1L317,372.2L317.7,372.2L318.2,372.7L318.4,373.5L318.9,374.1L320.3,375.5L321,376.5L321,376.5L321.5,377.8L322.2,379.1L324.2,382.1L325.1,383.2L325.8,384.5L326.2,386.9L327.5,390.8L328.7,396.5L329,402.5L329.4,405.2L330.3,407.8L331.9,410.4L332.4,413.4L331.5,416.4L330.1,419.3L329.7,419.9L329.1,420.6L328.8,420.6L327.7,419.8L326.8,418.6L325.7,415.7L325.2,414.3L324.8,414.1L323.5,414.2L322.5,415.1L322.3,415.7L322.5,417.3L322.9,418.7L323.1,420.2L323.1,422.1L323.5,422.6L324,423.1L324.5,424.3L324.6,427.2L324.3,428.7L323.3,430L323.4,430.7L323.8,431.4L323.4,431.8L322.1,432.4L321.7,432.8L321,434.1L319.9,436.8L319.8,438.1L320.4,442.2L320.2,445.1L318.8,450.7L318.1,453.3L316.9,456.5L315.2,460.7L313.5,466L312,471.4L310.9,474.7L309.7,477.9L308.5,482L253.7,482ZM306.5,388.1L306.5,388.6L304.9,388.4L304.7,386.8L305.5,386.8L305.6,386.1L306.1,386.1L306.6,387.4ZM325.8,432.5L324.4,434.8L324.8,432.9L326.4,430.1L326.9,429.9ZM23.69,-42L23.69,-41.69L23.69,-35.22L23.69,-28.77L23.69,-22.34L23.65,-22.32L23.6,-22.3L23.6,-22.27L23.56,-22.25L20.55,-22.25L17.59,-22.25L14.58,-22.25L11.62,-22.25L11.62,-20.64L11.62,-19.03L11.62,-17.43L11.62,-15.82L5.824,-18.88L-0.016,-21.91L-5.811,-24.96L-11.61,-28L-17.4,-31.08L-23.2,-34.14L-28.99,-37.2L-34.79,-40.29L-38.02,-42L23.69,-42ZM268.2,383.3L267.5,383.4L267.1,383.1L266.9,382.3L267.1,381.5L267.2,380.9L266.5,379.9L267.2,379.3L267.7,380L267.9,380L268.7,380.5L268.5,381.4L268.5,381.7L268.2,382.6ZM148.2,158.3L148.1,158.1L147,157.2L146,156.1L145.4,154.8L144.8,153.8L144.5,151.5L143.7,150.2L143,148.4L142,145.2L141.5,144.1L140.6,143.3L139.7,142.6L138.7,141.2L136.2,139.9L135.3,138.9L133.7,137.2L133.2,136.3L133.2,135.4L132.6,134.6L131.7,133.7L128.8,131.7L128.1,131.5L127,131.3L125.5,131.1L123.5,130.6L121.8,129.9L121,129.3L120.8,128.9L121,128.3L121.6,127.2L122.8,124.6L123.6,122.9L124.2,122.4L125.7,122.2L127.4,122.3L128.6,122.4L130.3,122.4L132.3,122.3L133.1,121.7L133.8,121L134,120.6L134.1,119.4L134.1,118.5L134,115L133.9,112.8L133.8,110.3L133.9,109.8L133.9,109.2L134.3,106.5L134.8,105L135.1,104.2L136.4,101.7L136.6,100.8L136.7,100.1L136.2,96.7L137,95.1L138.1,93.5L139,92.81L139.8,92.36L140.2,92.55L141,93.28L142.2,94.01L142.8,93.86L143.6,93.22L144.2,92.55L144.1,91.36L144.6,88.89L144.5,87.48L145.1,85.7L145.7,83.21L146,81.65L146.4,80.81L148.1,79.07L149.5,76.6L150.5,74.81L152.2,71.87L153.1,70.81L153.9,70.34L154.9,70.04L156.9,69.78L158.4,69.52L158.6,69.15L158.7,68.55L158.7,67.23L159,64.97L159.7,62.77L160.4,61.09L160.8,60.33L161.3,59.59L161.8,58.34L162.5,55.66L162.5,53.84L163.4,50.48L163.7,50.46L165.3,49.85L166.9,49.74L168.5,50.18L169.5,50.28L170,50.07L170.4,49.51L170.8,48.62L171.5,48.12L172.3,48.01L173.5,49.03L175.3,51.74L175.8,51.89L176.1,51.82L177,49.66L177.8,47.96L179.1,44.84L179.9,43.03L180.6,43.56L181.4,44.47L182.1,44.9L183,45.16L183.4,45.21L184,45.58L185.9,47.81L186.5,48.33L187.4,48.38L191.2,47.66L193.4,46.36L193.7,45.84L194.3,45.84L195,46.42L195.3,46.97L195.8,47.7L196.7,47.81L198.8,47.29L199.8,46.99L200.7,47.25L201.9,47.44L202.6,47.44L204.2,48.18L206.3,47.94L207.2,47.99L208.2,48.31L209.8,49.46L211.9,50.87L214.8,51.89L215.4,52.3L216.9,53.9L219.1,56.98L222,59.92L225.2,62.23L226.9,63.85L228,65.81L229.2,67.6L230.3,68.36L231.3,68.98L232.5,70.34L233.3,71.46L234.3,72.75L233.1,74.51L231.5,76.88L229.7,79.61L229.1,80.29L227.5,81.95L227.2,82.42L226.9,83.62L226.9,85.79L227.1,88.57L227.3,91.12L228.2,91.42L229.2,91.61L230.4,91.27L231.7,90.99L233.5,90.82L235.3,90.31L236.5,89.88L237.7,89.92L238.7,90.37L239.2,90.78L240,90.91L240.9,90.89L240.7,91.38L240.2,92.08L239.5,92.79L239,93.52L237.7,95.55L237.7,95.81L237.8,96.21L238.5,97.15L239.2,98.65L239.6,100L239.9,100.7L240.8,101.5L242,103L242.7,104.1L244,104.7L244.5,106L245.5,108L246.6,109.6L247.7,110.8L248.9,111.3L249.3,111.3L251.8,113.6L253.7,115.4L254.2,115.6L257.7,116.8L261.6,118.1L264.8,119.1L268.8,120.5L272.8,121.8L276.5,123.1L281.7,124.8L285.9,126.3L289.3,127.4L290,127.7L294,127.7L298,127.7L302.1,127.7L299.1,130.7L295.7,133.9L292.2,137.4L289.9,139.6L286.3,143.1L283.3,146.1L280.1,149.2L277.4,152.1L273.7,156.1L271.3,158.7L267.6,162.8L265.3,165.3L265,165.5L261.6,165.3L258.4,165.1L254.3,164.8L253.8,164.9L252.6,165.1L251.9,165.3L248.9,166L248.3,166.2L245.9,167.3L243.4,168.6L242,169.6L241,171L240.6,172L240.1,172.5L239.3,172.9L234,173.8L232.5,174L230,174.7L228.7,176L228.3,176.7L226.5,176.7L223.4,176.8L222.1,177.1L221.5,177.1L220.3,177.1L219.3,176.9L218.7,176.5L217.9,175.7L216.1,174.1L214.8,173.1L211.9,174.2L209.3,175.4L205.7,177L203.6,178.2L203,179.4L201.4,181.5L199.9,182.8L199.4,183L196.1,182.7L194.9,182.5L193,182.2L190.4,181.7L188.7,181.3L186.8,181.2L184.1,181L182.4,180.7L180.7,179.5L178.4,178L176.2,176.6L173.8,175.1L171.1,173.3L168.1,171.4L167.4,171.2L167.1,171.2L163.8,171.1L160.4,171L158.1,170.9L157.4,170.7L156.8,170.3L156.1,168.9L155.2,167.9L154.2,166.6L154.2,164.9L154.4,163L154.7,162.4L154.6,161.7L154.6,160.9L154,160.1L150.7,159.2L150.1,159.2L149.6,159.6L148.9,159.8L148.5,159.6L148.2,159.3L148.2,158.7ZM163.4,50.48L163,46.88L162.8,44.49L162.5,41.92L162.3,39.53L163.4,38.05L164,36.63L165.3,32.05L165.9,31.16L166.9,28.69L167.1,27.99L168.1,24.88L168.1,22.82L167.8,20.74L168.4,19.51L168.9,18.53L168.9,17.69L169.1,15.74L169.3,15.25L169.9,15.21L171.2,15.47L172.2,15.28L173.3,15.28L174.2,15.21L174.7,14.62L175.4,12.35L175.8,11.89L176.2,11.76L177.2,11.34L178,10.68L178.7,10.19L178.9,10.1L179.7,10.04L180.3,9.752L180.7,9.443L181.6,9.179L182.5,9.311L183.1,9.047L183.5,8.87L184,8.848L184.4,8.584L184.5,8.187L184.8,7.923L185.5,7.327L185.8,6.908L186,6.467L186.1,6.114L186.4,5.54L187.6,4.083L188.7,3.243L192.3,10.59L193.8,14.9L195.1,19.43L196.1,26.18L197,29.61L198.5,31.31L199.5,34.5L200.4,34.63L201,35.5L202.1,38.51L202.9,39.62L203.3,38.66L203.3,38.12L203,37.18L203.3,36L203.9,35.28L205.2,36.24L206,36.98L206.2,38.47L206.5,39.27L208,41.01L209.2,41.51L210.8,41.64L212.1,42.01L213.2,42.64L215.2,44.4L219.7,45.95L223.4,50.63L225.6,53.9L232.7,58.82L233.9,61.19L234.6,63.48L236,63.37L238.6,65.9L239.4,67.82L241.4,68.51L241.8,67.39L242.8,68.31L243.2,69.76L241.9,70.32L240.4,70.83L240.2,70.81L239.7,71.48L239,73.29L238.3,73.83L237.8,73.87L235.5,72.17L235.2,72.08L234.7,72.41L234.3,72.75L233.3,71.46L232.5,70.34L231.3,68.98L230.3,68.36L229.2,67.6L228,65.81L226.9,63.85L225.2,62.23L222,59.92L219.1,56.98L216.9,53.9L215.4,52.3L214.8,51.89L211.9,50.87L209.8,49.46L208.2,48.31L207.2,47.99L206.3,47.94L204.2,48.18L202.6,47.44L201.9,47.44L200.7,47.25L199.8,46.99L198.8,47.29L196.7,47.81L195.8,47.7L195.3,46.97L195,46.42L194.3,45.84L193.7,45.84L193.4,46.36L191.2,47.66L187.4,48.38L186.5,48.33L185.9,47.81L184,45.58L183.4,45.21L183,45.16L182.1,44.9L181.4,44.47L180.6,43.56L179.9,43.03L179.1,44.84L177.8,47.96L177,49.66L176.1,51.82L175.8,51.89L175.3,51.74L173.5,49.03L172.3,48.01L171.5,48.12L170.8,48.62L170.4,49.51L170,50.07L169.5,50.28L168.5,50.18L166.9,49.74L165.3,49.85L163.7,50.46ZM206.5,27.57L206.8,28.8L205.7,28.34L205.4,28.08L206,27.6L206.1,27.31ZM207.2,32.45L207.7,33.1L208.1,33.04L208.4,32.82L208.5,32.36L210.5,33.28L210.3,33.91L209.2,33.93L207.9,33.67L206.7,33.76L205.2,33.49L204.9,32.45L205.8,32.95L206.3,32.82L206.4,32.69L205.7,31.97L204.8,31.84L204.8,31.27L205.3,31.05L205.5,30.79L205,30L206,30.2L206.7,30.66L207.1,31.2ZM244.8,84.72L243.8,86.36L242.4,88.49L240.9,90.89L240,90.91L239.2,90.78L238.7,90.37L237.7,89.92L236.5,89.88L235.3,90.31L233.5,90.82L231.7,90.99L230.4,91.27L229.2,91.61L228.2,91.42L227.3,91.12L227.1,88.57L226.9,85.79L226.9,83.62L227.2,82.42L227.5,81.95L229.1,80.29L229.7,79.61L231.5,76.88L233.1,74.51L234.3,72.75L234.7,72.41L235.2,72.08L235.5,72.17L237.8,73.87L238.3,73.83L239,73.29L239.7,71.48L240.2,70.81L240.4,70.83L241.9,70.32L243.2,69.76L243.4,70.34L245.5,72.79L246.1,74L246.8,76.19L246.4,77.39L245.9,78.19L245.1,78.9L242.4,80.64L239.4,81.75L237.5,83.96L236,83.81L236.3,84.65L236.8,84.76L237.6,84.59L239.3,83.94L240.7,83.64L242.4,83.62L243.8,83.9ZM-42,162.7L-40.37,162.8L-38.93,163.2L-38.23,163.9L-36.53,164.9L-33.83,166.3L-31.83,168.1L-30.69,169.8L-29.82,170.8L-28.73,171.1L-26.99,171L-25.03,171.4L-22.94,172.4L-21.67,172.7L-21.24,172.5L-20.23,172.6L-17.97,173.4L-16.14,173L-13.48,173.3L-7.249,174.8L-6.944,174.5L-6.77,174.5L-6.247,173.9L-4.896,171L-3.763,169.2L-3.24,168.6L-1.889,167.6L-0.364,167.4L1.161,167.5L2.381,167.9L3.514,168.3L4.778,168.3L6.085,167.9L8.003,167L10.01,166.5L11.75,165.9L14.58,164.8L15.72,164.3L17.15,164.1L21.12,165.1L23.69,164.5L24.74,164.7L26.96,164L27.39,163.5L28.79,161.2L30.31,160.5L32.58,160.8L33.89,161.2L38.16,162.2L43.69,163.2L45.35,163.4L46,163.5L46.57,163.3L48.4,162L49.01,161.8L49.53,161.9L53.02,162.9L53.45,163.8L54.11,164.7L56.2,166.1L56.85,167L57.38,167.9L57.68,168.6L58.33,169.1L59.25,169.5L60.03,169.9L60.51,170.6L61.21,171.3L62.6,172.1L63.26,172.2L64.04,172.3L64.7,172.5L65.44,172.5L66.61,171.9L68.01,170.9L69.05,170.3L71.63,170.5L73.06,171L74.2,171.7L75.07,171.6L77.03,170.3L78.03,169L79.03,168.7L80.56,169.3L81.82,170.6L82.91,172.4L83.65,173.2L84.74,174.2L86.83,176.6L89.58,177.8L90.62,178.4L90.97,179L91.19,179.8L91.23,180.6L91.58,181L92.32,180.8L92.93,180.7L93.63,181L94.11,181.6L94.37,182.1L94.63,182.6L95.29,182.9L95.46,183.6L94.98,184.4L94.5,185.1L93.89,186.5L93.59,188L93.98,188.5L94.42,188.9L94.63,189.3L94.76,189.8L94.72,190.4L93.81,192.4L93.28,194.2L93.28,195.1L94.5,195.8L96.11,195.8L96.64,196.2L97.12,196.8L97.55,197.1L98.25,197.1L98.73,197.4L98.9,197.8L99.43,198.3L99.91,198.9L99.69,199.6L99.64,200.1L98.51,201.6L95.9,204.5L90.28,209.9L90.23,209.9L88.36,210.5L87.36,211.5L86.7,213.1L85.05,214.4L83.78,214.9L83.65,215.3L83.56,216.7L83.69,218.8L83.08,219.8L82.21,221.7L81.78,222.9L81.43,223.1L81.04,223.7L80.82,225.6L80.64,226.2L80.03,230.2L80.21,231.3L79.73,233.2L79.69,234.3L79.51,235.6L79.16,236.7L79.21,238.4L79.38,241.3L79.34,241.7L78.86,241.9L78.03,242.6L77.25,243.1L76.64,243.2L75.59,244.5L74.76,245.7L74.11,246.8L73.93,247.4L74.06,248.9L74.15,250.7L73.98,251.4L73.67,251.9L72.23,252.9L71.32,253.6L70.88,253.9L70.62,254.5L71.06,255.8L71.1,256.8L71.41,257.3L72.54,257.8L72.54,258.3L72.58,258.8L73.15,259.4L74.24,260.7L75.07,261.8L75.11,262.9L74.94,264.6L74.89,265.6L74.98,266.9L74.98,269.5L74.94,271.3L75.07,272.2L76.37,274.5L76.94,277L77.25,278.8L77.25,279.4L76.81,281.4L76.29,283.5L76.29,284.2L76.5,285.3L77.46,287.6L78.12,289.3L78.47,290.3L78.94,291.5L79.56,293.4L79.73,294.2L79.6,294.9L78.29,297.2L78.16,297.9L78.51,299.7L78.9,301.4L79.51,302.4L80.95,305.1L82.04,306L84,307.4L85.74,308.8L86.44,309.5L87.05,310.3L88.27,312.3L89.01,313.9L89.4,315.4L90.36,317.5L91.23,319.3L92.37,321.7L93.19,323.3L93.54,324.4L93.54,324.4L91.45,324.7L88.44,325.2L85.09,325.7L81.65,326.2L78.2,326.8L74.98,327.2L72.02,327.7L71.14,327.9L71.58,329.2L71.36,330.6L70.8,331.6L69.88,332.9L69.45,333.4L68.49,334.4L67.7,335.1L66.13,336.3L65.09,337L65.09,337.6L66.79,340.5L67.57,342.6L67.88,344.5L67.88,345.5L67.79,347.7L67.75,350.4L67.62,351.4L68.09,353.3L68.01,354.8L66.83,356.4L66.53,358L65.96,360.2L65.13,363.2L64.56,364.8L64.91,365.8L65.17,366.5L65.48,367.5L66.09,368.9L66.83,369.7L67.22,370.1L69.58,371.8L70.53,372.7L72.06,374.4L73.15,375.5L74.67,375.8L76.5,376.2L77.55,376.5L78.25,376.4L78.47,376L78.42,375.1L78.33,374.5L78.51,374L79.12,373.7L80.73,373.6L81.43,373.2L82,373.1L82,375L82,376.8L82,378.9L82,381.4L82,383.5L82,385.7L82,388.2L82,388.5L81.73,389L81.12,389.2L80.25,388.7L80.21,388.2L79.99,387.3L79.6,386.8L79.08,386.7L78.2,386.9L76.98,387.6L75.42,388.2L74.81,388.5L73.72,388.5L72.54,388.2L71.67,387.4L71.41,386.2L70.67,385.1L69.62,383.4L69.1,382.7L68.4,381.9L67.7,381.8L66.92,381.5L66.44,380.4L66,378.9L65.74,378.3L65.26,377.6L64.61,377.1L63.13,376.6L61.08,375.8L58.55,374.7L57.33,374.7L55.94,374.5L55.11,374L54.63,373.6L54.06,372.2L53.28,370.5L51.06,368.5L50.53,366.3L50.1,366L49.31,366.2L48.7,366.4L48.48,367L47.88,369L47.53,369.9L47.31,370.2L46.83,370.5L46.05,370.8L44.87,370.9L43.26,370.8L41.25,370.5L40.16,370.3L37.2,370L36.37,369.8L35.15,369.4L34.28,369L31.45,368L30.14,368.1L29.53,367.5L28.96,367.2L28.18,366.5L27.83,365.7L27.35,363.8L27.48,362.8L27.83,361.8L27.44,361.5L26.91,361.5L26.17,361.8L24.87,362.1L22.47,362.5L21.6,362.8L20.64,363L19.94,363.2L18.11,364.2L17.5,364.4L16.41,364L15.89,363.4L16.41,362.8L16.63,362L16.28,360.4L15.72,359.7L14.1,359.2L13.49,359.2L13.23,358.3L12.8,357.5L11.88,357.3L11.45,357.3L10.97,357.5L10.7,358.1L10.66,358.6L9.833,359L8.177,358.9L6.521,358.6L5.344,358.5L4.56,358.5L1.64,359.8L0.682,359.9L-2.5,359.8L-4.286,359.6L-5.593,359.5L-6.465,359.9L-7.598,360.8L-8.557,361.3L-8.992,361.2L-9.254,360.9L-9.646,360.3L-9.733,359L-10.21,357.5L-9.908,356.7L-8.992,356.2L-8.644,355L-8.949,353.3L-8.949,352.1L-8.687,351.4L-9.036,349.7L-9.995,347L-11.3,344.8L-13,343.2L-14.09,341.5L-14.61,340L-14.44,336.3L-13.92,333.1L-13.52,330.5L-13.61,326.2L-14.79,323.4L-15.05,320.4L-14.4,317.1L-14.27,314.9L-14.7,313.8L-15.01,313.6L-15.4,313.5L-18.27,313.4L-22.15,313.3L-25.55,313.2L-29.21,313.2L-29.82,312.8L-30.08,312L-30.08,311.3L-29.34,309L-29.43,308.8L-30.74,308.8L-34.27,309.2L-36.62,309.5L-38.1,309.6L-40.67,310.3L-42,311.3L-42,162.7ZM259.7,372.2L260.3,373.9L260.3,375.2L260.1,375.6L259.5,375.3L258.5,374.3L256.6,373.3L257.5,373.2L258,373.3L258.5,373.2L258.9,372.7L258.9,372.3L259.4,372.1ZM251.4,375L252.2,375.8L249.9,375.4L249.5,374.8L249.5,374.2L250.3,374.4ZM247.5,370L247.2,370.1L246.2,369.4L245.5,369.3L244.6,368.1L244.9,364.2L245.2,363.7L245.5,363.4L246,363.4L246.6,363.9L246.4,366.4L247.2,368.1L247.8,369.5ZM-38.02,-42L-34.79,-40.29L-28.99,-37.2L-23.2,-34.14L-17.4,-31.08L-11.61,-28L-5.811,-24.96L-0.016,-21.91L5.824,-18.88L11.62,-15.82L11.62,-15.82L11.62,-10.1L11.62,-4.415L11.62,1.276L11.62,6.952L11.62,12.61L11.62,18.26L11.62,23.9L11.62,29.52L11.62,31.38L11.49,32.12L11.4,32.23L11.18,32.36L8.308,31.84L7.044,31.81L5.301,32.23L2.686,32.42L1.03,32.36L-0.146,33.32L-1.061,34.5L-0.626,37.27L-0.713,38.2L-1.061,39.14L-1.889,39.97L-2.674,40.62L-3.11,41.21L-3.72,42.45L-4.155,43.03L-4.112,43.84L-4.243,44.66L-4.722,45.08L-5.942,45.4L-6.726,45.77L-7.337,46.38L-7.729,46.81L-7.511,47.38L-7.206,48.18L-7.031,49.42L-6.944,50.13L-6.334,50.72L-5.986,51.15L-5.855,51.67L-6.204,52.08L-7.685,52.99L-8.252,53.32L-8.949,53.77L-9.21,53.95L-10.26,54.79L-10.82,55.55L-11.08,56.18L-11.08,57.04L-10.52,58.34L-9.908,59.44L-9.69,60.26L-9.559,61.17L-9.603,62.03L-9.908,62.79L-10.47,63.46L-12.48,64.73L-13.48,66.11L-14.27,67.82L-14.48,68.74L-14.27,69.35L-13.83,69.86L-13.22,70.12L-12.35,70.21L-10.91,69.93L-9.559,69.73L-8.121,70.34L-7.337,71.76L-7.642,72.79L-7.119,74.66L-6.596,76.92L-6.639,77.69L-6.421,77.97L-5.55,78.13L-5.332,78.66L-5.637,82.61L-5.201,83.73L-4.591,84.52L-3.938,84.93L-3.24,85.47L-2.892,85.83L-2.107,85.92L-1.192,86.62L-0.974,87.59L-1.018,88.51L-1.541,90.52L-1.977,91.87L-2.456,91.78L-3.545,91.44L-4.809,91.16L-6.378,90.93L-7.903,91.48L-9.515,92.19L-10.04,92.73L-10.47,93.03L-11.17,92.98L-11.82,93.07L-12.22,93.58L-12.78,94.14L-15.14,95.29L-15.62,95.7L-15.92,96.13L-15.92,96.58L-15.7,97.52L-15.7,98.69L-16.23,99.63L-16.79,100.3L-17.49,100.5L-18.1,100.6L-18.45,101L-19.67,103.2L-20.19,103.6L-21.28,103.5L-24.38,106.7L-24.68,107.7L-25.77,109L-27.21,110.5L-28.47,111.2L-28.6,111.5L-28.95,111.8L-29.73,112.1L-32.44,113.9L-35.7,113.8L-37.14,114.6L-38.54,114.9L-40.59,115.2L-41.2,115.2L-42,115.2L-42,-42ZM-42,115.2L-41.2,115.2L-40.59,115.2L-38.54,114.9L-37.14,114.6L-35.7,113.8L-32.44,113.9L-29.73,112.1L-28.95,111.8L-28.6,111.5L-28.47,111.2L-27.21,110.5L-25.77,109L-24.68,107.7L-24.38,106.7L-21.28,103.5L-20.19,103.6L-19.67,103.2L-18.45,101L-18.1,100.6L-17.49,100.5L-16.79,100.3L-16.23,99.63L-15.7,98.69L-15.7,97.52L-15.92,96.58L-15.92,96.13L-15.62,95.7L-15.14,95.29L-12.78,94.14L-12.22,93.58L-11.82,93.07L-11.17,92.98L-10.47,93.03L-10.04,92.73L-9.515,92.19L-7.903,91.48L-6.378,90.93L-4.809,91.16L-3.545,91.44L-2.456,91.78L-1.977,91.87L-1.105,93.41L-0.713,93.94L2.817,97.56L3.514,98.43L5.257,101.1L6.347,102.8L7.567,105.4L7.697,106.8L7.523,107.9L7.262,111.3L6.957,112.3L5.388,114.1L5.344,114.9L5.649,115.6L6.129,115.8L6.434,116.2L6.259,117.7L6.782,118.3L7.959,118.7L10.88,119L12.4,119.3L13.62,119.6L13.62,119.6L14.19,119.7L14.49,120.3L14.02,122.1L14.37,123.2L15.37,124.1L16.37,124.5L17.37,124.8L20.77,125.4L22.16,126L24.04,128.1L26.39,130.1L26.96,131.1L26.83,132L26.13,133.1L26.26,133.6L27.31,134.7L28.57,135.8L30.79,137.1L34.72,139.1L36.5,140.5L37.11,141.5L38.11,142.6L39.51,143.6L40.42,144.4L39.77,146.6L39.99,147.3L40.34,147.9L41.12,148.8L41.47,149.9L42.25,151.3L43.26,151.9L44.83,152.1L45.7,152.8L47.44,153.9L49.18,154.8L49.88,155.5L50.36,156L50.75,156.7L50.93,157.4L50.97,158.9L51.27,160.7L52.19,162L53.02,162.9L49.53,161.9L49.01,161.8L48.4,162L46.57,163.3L46,163.5L45.35,163.4L43.69,163.2L38.16,162.2L33.89,161.2L32.58,160.8L30.31,160.5L28.79,161.2L27.39,163.5L26.96,164L24.74,164.7L23.69,164.5L21.12,165.1L17.15,164.1L15.72,164.3L14.58,164.8L11.75,165.9L10.01,166.5L8.003,167L6.085,167.9L4.778,168.3L3.514,168.3L2.381,167.9L1.161,167.5L-0.364,167.4L-1.889,167.6L-3.24,168.6L-3.763,169.2L-4.896,171L-6.247,173.9L-6.77,174.5L-6.944,174.5L-7.249,174.8L-13.48,173.3L-16.14,173L-17.97,173.4L-20.23,172.6L-21.24,172.5L-21.67,172.7L-22.94,172.4L-25.03,171.4L-26.99,171L-28.73,171.1L-29.82,170.8L-30.69,169.8L-31.83,168.1L-33.83,166.3L-36.53,164.9L-38.23,163.9L-38.93,163.2L-40.37,162.8L-42,162.7L-42,115.2ZM91.19,253.9L90.93,254.2L89.84,256.5L89.62,256.8L89.71,257.1L90.19,257.5L89.93,258.2L89.8,258.4L89.62,259.1L89.71,259.7L89.97,259.9L90.71,260.2L91.8,260.4L93.06,260.9L93.89,261L94.11,261.4L94.07,262L94.28,262.6L94.28,263.6L94.02,264.5L92.72,264.9L92.06,265.4L91.84,265.6L92.02,265.9L92.11,266.3L90.89,267.2L89.62,268.3L89.32,269.1L89.06,270L88.71,270.7L87.7,271.5L86.75,273.2L86.27,274.4L83.83,277.1L81.69,278.4L81.04,278.8L77.25,278.8L76.94,277L76.37,274.5L75.07,272.2L74.94,271.3L74.98,269.5L74.98,266.9L74.89,265.6L74.94,264.6L75.11,262.9L75.07,261.8L74.24,260.7L73.15,259.4L72.58,258.8L72.54,258.3L72.54,257.8L72.71,257.1L73.15,256.4L73.59,256.3L74.76,256.6L75.94,257.2L76.59,258.7L77.07,258.9L77.99,258.9L80.25,258.7L80.82,258.7L81.86,258.4L82.87,257.8L83.17,257.1L83.39,255.7L83.61,253.2L84.13,253.2L85.57,254L85.87,254.1L86.18,254.1L86.7,253.6L87.31,253.3L87.75,253.3L89.4,252.9L90.32,253.6L90.89,253.9ZM-24.72,482L-24.72,479.3L-24.77,474L-24.77,468.7L-24.77,463.5L-24.77,458.3L-24.77,453.1L-24.77,450.5L-21.67,450.3L-18.06,449.8L-12.22,448.9L-6.814,447.9L-3.24,447.3L0.943,446.5L2.381,446.4L2.773,446.5L3.34,446.8L5.301,449.4L6.521,451.3L6.782,452.2L7,452.3L7.567,452.1L8.22,451.8L10.18,449.8L10.62,449.3L11.88,448.4L13.41,447.4L14.8,446.7L16.2,446.1L16.85,446.3L17.59,446.8L18.24,447.1L21.42,444.7L22.86,444.1L26.57,443.7L27.09,443.8L27.09,443.8L26.83,444.4L26.65,445.3L26.87,446L27.35,446.9L28.05,447.7L28.61,448.2L29.22,449.4L29.88,450.9L30.71,452L33.15,454.7L33.45,455.6L33.76,456.6L35.33,458.4L35.54,459L35.46,460.2L37.02,463.9L38.07,466.1L38.99,466.5L41.77,468.8L44.26,470.6L47.13,471.9L49.27,472.7L50.32,473.3L50.84,473.9L51.27,475L51.49,476.9L51.54,478.2L53.84,478.2L55.72,478.3L56.37,478.5L56.63,478.9L56.55,479.7L56.59,480.9L56.68,481.9L56.67,482L-24.72,482ZM-42,311.3L-40.67,310.3L-38.1,309.6L-36.62,309.5L-34.27,309.2L-30.74,308.8L-29.43,308.8L-29.34,309L-30.08,311.3L-30.08,312L-29.82,312.8L-29.21,313.2L-25.55,313.2L-22.15,313.3L-18.27,313.4L-15.4,313.5L-15.01,313.6L-14.7,313.8L-14.27,314.9L-14.4,317.1L-15.05,320.4L-14.79,323.4L-13.61,326.2L-13.52,330.5L-13.92,333.1L-14.44,336.3L-14.61,340L-14.09,341.5L-13,343.2L-11.3,344.8L-9.995,347L-9.036,349.7L-8.687,351.4L-8.949,352.1L-8.949,353.3L-8.644,355L-8.992,356.2L-9.908,356.7L-10.21,357.5L-9.733,359L-9.646,360.3L-9.254,360.9L-8.992,361.2L-8.557,361.3L-7.598,360.8L-6.465,359.9L-5.593,359.5L-4.286,359.6L-2.5,359.8L0.682,359.9L1.64,359.8L4.56,358.5L5.344,358.5L6.521,358.6L8.177,358.9L9.833,359L10.66,358.6L10.7,358.1L10.97,357.5L11.45,357.3L11.45,357.3L11.71,358.9L11.97,361.1L12.14,362.7L12.36,363.4L12.4,363.8L12.19,364.3L12.01,365.2L11.66,366.1L11.49,366.7L11.66,367.8L11.53,369.4L11.4,371L11.36,372.7L11.79,375.5L11.75,376.4L11.18,377.9L10.75,379.1L10.49,380.4L10.4,381.1L11.45,383.1L11.4,383.4L10.62,383.6L9.963,383.6L7.436,383.6L3.819,383.6L0.246,383.6L-3.371,383.6L-6.683,383.6L-9.82,383.6L-12.61,383.6L-12.61,385.5L-12.61,389.5L-12.61,393.5L-12.61,397.5L-12.61,401.5L-12.61,405.5L-12.61,409.6L-12.61,413.6L-12.61,417.6L-12.61,420.5L-11.87,424.4L-10.56,428.6L-10.04,429L-8.687,429.8L-6.814,431.4L-5.768,432.6L-3.632,434.7L-0.8,437.4L1.945,439.7L4.342,441.8L0.551,442.6L-4.809,443.6L-8.426,444.3L-12.83,445.2L-15.79,445.8L-19.41,446.4L-20.02,446.4L-20.98,446L-23.11,445.9L-25.59,446.5L-27.56,446.7L-28.99,446.4L-30.43,445.8L-31.83,445L-34.22,444.7L-37.62,444.9L-40.93,444.7L-42,444.6L-42,311.3Z" fill="#D8E2E7" stroke="#3F464B" stroke-width="0.85" vector-effect="non-scaling-stroke"/><path d="M217.6,251L217.1,251.1L217.3,250.4L218.7,249.5L219.2,249.7L219.3,249.9L219.3,250.1L219,250.3ZM131.7,237L131.7,234.9L132,229.7L131.9,225.1L132.2,222.8L133.3,221.3L133.9,220.2L134.2,218.7L134.9,217.5L136.2,216.6L136.4,216L137.9,214.4L138.7,212.2L139.4,211.5L140.2,210.9L140.7,210.5L141.7,210.2L142.4,210L142.6,209.8L142.6,209.4L142.4,208.1L142.7,207.7L143.2,206.8L143.7,206L144.3,205.5L144.6,205L144.7,204L144.7,203.4L144.7,202.3L144.6,199.9L144,197.9L143.6,195.6L143.8,194.8L143.4,193.5L143.1,193.4L142.7,193.1L142.3,191.9L141.9,190.7L141.7,190.4L140,189.4L139.2,187.1L138.3,186.5L137.8,184.2L137.7,183.5L138.3,181.2L138.2,180.6L137.6,180.1L136.1,179.6L134.9,178.7L135,178.3L135.1,178L134.5,177.7L132.6,173.7L135,171.3L137.5,168.9L140.7,165.8L143.5,162.9L146,160.5L148.2,158.3L148.2,158.7L148.2,159.3L148.5,159.6L148.9,159.8L149.6,159.6L150.1,159.2L150.7,159.2L154,160.1L154.6,160.9L154.6,161.7L154.7,162.4L154.4,163L154.2,164.9L154.2,166.6L155.2,167.9L156.1,168.9L156.8,170.3L157.4,170.7L158.1,170.9L160.4,171L163.8,171.1L167.1,171.2L167.4,171.2L168.1,171.4L171.1,173.3L173.8,175.1L176.2,176.6L178.4,178L180.7,179.5L182.4,180.7L184.1,181L186.8,181.2L188.7,181.3L190.4,181.7L193,182.2L194.9,182.5L196.1,182.7L199.4,183L199.9,182.8L201.4,181.5L203,179.4L203.6,178.2L205.7,177L209.3,175.4L211.9,174.2L214.8,173.1L216.1,174.1L217.9,175.7L218.7,176.5L219.3,176.9L220.3,177.1L221.5,177.1L222.1,177.1L223.4,176.8L226.5,176.7L228.3,176.7L226.8,178.8L225.1,181.4L221.7,186.1L219.3,188.6L217.3,190.4L217.2,190.8L217.2,192.9L217.2,198L217.3,208.2L217.3,218.4L217.3,228.6L217.3,233.7L217.3,235.4L219,237.5L220.7,239.6L222.8,242.4L223.9,243.9L224.1,244.4L224.1,245.4L222.3,247.5L220.9,248.4L218.9,248.9L218.3,248.8L217.6,248.5L217.3,249L217,249.8L216.6,249.6L216.3,249.4L216.5,250.7L216.7,251.4L216.4,252.3L215.4,253.1L215.3,253.8L213.3,255.6L210.4,255.8L208.9,256.7L208.2,257.4L207.7,259L207.9,261.4L207.1,263.3L206.9,264.2L205.4,265.4L204.8,266.5L204.3,267.7L203.8,268.2L203.3,270.7L202.6,272.3L202.4,272.8L202.3,273.2L201.7,274.1L201.4,274.8L201.1,275.2L199.3,279.1L198,280.9L196.9,280.7L196.2,281.4L196.1,281.7L195.7,281.5L194.8,280.9L192.9,279.5L191.1,278.2L189.2,276.9L187.4,275.5L185.5,274.2L183.7,272.8L181.8,271.5L180,270.1L178.9,269.4L178.4,268.9L178,268L177.8,267.7L177.3,267.5L176.7,267.4L176.6,267.2L176.6,266.8L176.8,266.1L177.5,264.9L177.5,264.2L177.4,263.3L177.2,262L177,261.7L175.8,261.1L173.2,259.6L170.6,258.2L168,256.7L165.4,255.3L162.9,253.8L160.3,252.4L157.7,251L155.1,249.5L152.5,248.1L150,246.6L147.4,245.2L144.8,243.7L142.2,242.3L139.6,240.9L137.1,239.4L134.5,238L133.5,237.4L132.6,237Z" fill="#8B341D" stroke="#2C160F" stroke-width="1.1" vector-effect="non-scaling-stroke"/></svg>