<svg xmlns="http://www.w3.org/2000/svg" viewBox="0 0 360 440" width="360" height="440" role="img" aria-label="Regional map with South Korea highlighted"><rect width="100%" height="100%" fill="#7FA6D6"/><path d="M-42,478L-41.65,478.7L-41.29,478.6L-41,478.7L-40.92,479.4L-40.76,479.9L-39.54,481.2L-39.21,482L-42,482ZM381.2,447.1L380.8,447.6L380.5,447.2L380.4,446.6L381,446.7L381.1,446.8ZM381.2,475.8L381,475.9L380.6,475.8L380.3,475.6L380.3,475.3L381,475.3L381.3,475.5ZM381.9,455.2L381.4,455.5L382,454.3L382.3,454.1L382.6,454.6ZM102.7,400.6L102,402.1L101.4,403.6L101.2,405L101.2,406.5L101.1,407.8L100.8,409.1L99.68,408.7L99.07,407.8L98.94,406.2L98.13,404.4L97.85,403.8L96.71,402.8L95.66,402.3L94.84,401.5L94.97,401.6L94.36,400.5L93.91,399.4L92.98,396.3L92.65,395.5L92.25,394.8L92.13,394.1L92.25,393.4L92.65,392.2L92.9,391.1L92.69,389.5L92.78,387.9L93.1,387.3L98.38,377.8L99.84,375.7L100.7,374.7L101.5,373.6L102.2,372.2L103,370.9L103.7,370.5L106.7,369.3L107.6,368.2L108.4,367.8L109.3,367.9L109.8,368.4L110.3,369L110.8,369.4L112.2,370L112.8,370.6L113,371.6L112.2,372.6L111.8,373.5L111.7,374.4L111.9,375.8L111.9,377.1L110.9,380.1L109.8,382.1L109.5,383L109.1,385.4L108.5,387.8L108,390.8L107.1,393.9L106.5,395.1L105.9,396.4L104.4,398.7ZM73.33,377.2L73.82,378L73.62,378.6L72.08,378.3L71.99,377.8L72.56,377.9ZM383.1,117.4L383.3,117.5L383.5,117.5L383.7,117.5L383.8,117.6L383.8,117.9L383.7,118L383.4,118L383.2,118L383.1,117.8L383.1,117.7L382.9,117.6L382.9,117.5ZM388.5,114.9L388.2,114.9L387.7,114.9L387.5,114.8L387.6,114.6L387.9,114.4L388.2,114.5L388.4,114.6ZM384.9,118.2L384.8,118.2L384.7,118L385,117.8L385.4,117.6L385.6,117.7L385.4,117.9L385.2,118ZM330.4,-42L330.9,-41.69L331.1,-38.2L330.8,-36.3L329.6,-34.18L330,-32.96L331.8,-31.17L332.7,-30.46L333.5,-29.44L332.4,-27.21L332.2,-24.73L331,-23.62L329.5,-21.22L327.3,-19.26L326.2,-15.52L324.5,-12.23L324.3,-8.984L324,-7.832L322.7,-4.481L322.1,0.028L322.8,7.357L323.2,7.784L323.8,8.212L323.7,8.73L323.4,9.065L322,11.23L322,12.71L322.5,13.84L322.6,16.71L321.7,21.32L321.3,22.04L320.9,23.21L320.7,24.29L320.4,24.94L320.3,26.11L320.6,27.12L321,27.63L319.3,30.9L318.7,35.17L318,36.88L316.8,38.56L314.1,41L313.1,42.53L311.4,44.46L309.7,45.95L307.4,50.17L305.5,54.37L300.8,59.79L300.2,61.11L299.9,62.54L298.6,64.94L298,68.25L296.6,69.56L295.4,73.02L291.6,78.27L290.7,80.04L287.8,82.93L284.6,86.89L280.7,90.45L280,91.92L278.5,93.53L276.9,96.02L274.5,98.5L274,100.1L273.3,101.3L271.5,102.1L270.3,103.1L266.4,109.4L265.9,110.6L265.8,111.6L263.3,113.9L261.9,116.4L259.5,117.9L257,120L250.9,123.9L249.2,125.4L245.9,127.2L244.5,127.2L241.6,128.2L239.7,129.2L238.5,128.8L237.8,127.5L237,127.5L236.3,127.7L234.6,126.4L233.1,126.5L232,125.9L230,126.3L230.4,120.8L230.1,119.7L229.2,120.8L226.9,122.7L226,123.1L225.1,123.1L225.5,121.9L226.7,120.2L226.3,120L225.9,119.9L224.3,120.6L223.5,121.4L221.1,124.6L219.7,127.3L218.6,128L218.1,129.2L217.1,130.3L215.6,130L214.7,130.2L212.6,129.6L212,129.8L213.4,131.9L212.3,134.9L211.8,135.2L211.8,135.2L211.5,134.8L211.4,134.2L211,133.5L210.3,132.6L210,131.7L210.6,131.2L210.5,130.3L209.9,129.5L209,129.4L208.8,129.2L208.8,128.7L209.1,128.3L209.6,127.9L210.6,127.4L212.2,127.1L213.1,126.7L213.9,126.7L214.7,126.8L215.4,126.3L216.1,126L216.2,125.2L216.3,124L216.5,123.6L216.9,123L217.3,122.4L217.7,120.6L218,119.3L218.2,118.7L218.3,117.8L218.1,117.3L217.7,116.9L217.4,116.7L217.3,115.8L217.4,114.5L217.3,113.6L217.7,109L218.2,107.9L216.7,101.6L216.3,99.63L216,98.61L215.4,97.12L214.9,96.38L215.1,95.66L215.7,94.97L216.2,94.64L217.9,94.47L218.4,94.22L220.3,93.45L220.8,92.98L221.8,91.87L222.3,91.01L222.7,89.9L223.7,89.32L224.3,88.31L224.9,87.95L225.6,88.82L226.4,89.29L227.4,89.59L228.6,89.95L230.7,90.65L232.8,91.23L234.1,91.7L234.8,91.9L236.1,92.23L236.6,92.45L237.1,92.73L238,92.01L239.1,91.09L238.9,89.68L239.1,88.06L239.9,85.28L240.9,84.47L241.4,84.33L241.9,84.02L242.8,83.49L243.1,82.76L242.9,81.89L243.2,81.02L243.3,80.18L243.6,79.08L244.1,78.78L244.7,78.41L245.2,77.85L245.6,76.97L245.9,75.99L245.8,74.83L246.3,74.09L247.3,73.47L247.6,73.08L247.7,72.08L247.8,71.63L248,71.12L247.9,70.1L247.6,68.96L248.7,67.08L249.4,65.46L249.6,63.06L249.7,62.69L249.9,61.54L250.1,61.08L250.7,59.59L251.4,58.61L251.3,57.52L251,56.45L251,55.73L251.7,54.89L252.1,54.46L252.4,53.85L253,53.59L253.5,53.45L254.6,53.3L255.3,52.66L255.9,52.03L257,50.34L257.4,49.33L257.6,48.83L257,47.38L256.5,46.15L255.8,44.46L255.5,43.67L256,42.64L256.4,42L256.7,41.44L256.8,40.47L256.6,39.74L255.5,38.59L254.3,38.03L252.9,37.8L252.4,37.74L251.5,37.94L247.4,39.41L245.4,40.53L244.3,41.79L243.2,42.41L241.2,42.32L239.5,42.26L238.1,42.97L236.5,44.4L235.3,45.04L234.6,44.92L233.8,45.89L232.9,47.93L232,48.83L230.9,48.57L228.3,48.77L224.2,49.41L221.6,49.38L220.5,48.69L218.9,48.6L216.7,49.12L215.4,49.21L214.9,48.92L214.5,48.08L214.4,46.68L213.6,45.22L212.3,43.73L212.1,41.88L212.9,39.74L213.1,38.27L212.6,37.47L212.5,36.76L211.5,35.85L210.8,34.31L210.3,33.84L210.4,32.51L211,30.9L210.3,29.42L208,29.33L206.3,28.88L204.5,27.51L201.7,23.6L200.3,22.22L199.4,22.07L198.8,21.44L198.4,20.32L197.7,20.3L197.1,20.3L196.7,20.78L196.3,20.93L195.5,20.48L194.9,20.45L194.1,20.78L193.5,20.57L193,19.78L192.1,19.27L190.7,19L190.2,18.49L190.4,17.64L190.1,17.04L189.4,16.65L187.4,16.74L184.2,17.34L181.5,17.19L179.4,16.26L178.2,15.41L178,14.62L177.4,13.87L176.4,13.14L175.9,11.86L175.8,10.1L176,8.395L176.9,5.982L174.7,4.421L174,3.501L174.2,2.734L174.1,2.12L173.7,1.659L173.7,0.951L174.1,-0.034L174.1,-1.298L173.7,-2.841L172.5,-5.008L170.5,-7.801L169.4,-9.856L169.2,-11.17L169,-12.2L168.6,-12.76L168.4,-13.73L168.5,-14.79L168.3,-15.48L168,-16.14L168,-17.18L167.7,-17.87L166.9,-18.28L166.7,-19.07L166.8,-20.74L166.3,-22.2L164.7,-24.83L164.2,-26.77L164.1,-28.48L163.4,-29.35L163.4,-30.11L163.3,-31.45L162.8,-31.81L162.6,-32.29L162.8,-32.83L162.5,-33.54L161.6,-34.37L161.2,-35.08L161.1,-35.75L160.7,-36.24L159.5,-36.75L159.1,-37.43L159.2,-38.04L159.5,-38.59L159.6,-38.94L159.6,-39.4L159.5,-39.82L159,-40.37L158.3,-40.98L157.7,-42L330.4,-42ZM94.04,-42L93.75,-41.69L92.37,-40.72L91.8,-39.43L92.05,-37.85L93.22,-37.3L95.37,-37.75L97.16,-37.52L98.7,-36.62L99.19,-35.27L98.62,-33.47L98.78,-31.68L99.68,-29.95L99.76,-27.94L98.99,-25.68L97.04,-23.4L93.95,-21.12L92.05,-18.88L90.91,-15.67L89.2,-12.85L88.55,-11.29L88.43,-10.01L87.74,-8.61L86.48,-7.118L85.79,-5.628L85.67,-4.11L85.06,-2.749L83.89,-1.544L83.2,-0.249L82.91,1.136L82.47,2.028L81.86,2.519L82.18,2.98L83.4,3.44L83.93,4.758L83.68,6.93L82.95,8.486L81.69,9.431L79.79,10.04L77.27,10.31L73.82,12.38L70.86,15.05L67.33,18.16L66.64,18.16L65.34,17.77L62.86,16.5L60.22,16.23L57.71,15.02L56.2,14.26L53.89,12.74L53.32,11.8L52.43,11.04L50.16,10.04L48.66,9.492L47.72,9.461L45.37,10.5L43.91,11.32L43.01,11.74L41.55,11.65L39.77,11.47L39.04,11.2L38.02,10.56L36.03,8.608L34.98,7.235L33.56,6.441L32.02,5.554L31.24,5.34L29.9,5.401L28,5.156L26.98,4.85L26.13,5.125L24.43,6.074L22.31,7.876L20.65,8.578L18.86,9.553L17.4,10.68L15.98,11.86L14.24,13.2L13.43,15.05L13.02,16.38L11.4,17.19L10.18,17.98L8.96,18.25L6.687,17.83L5.348,18.13L1.979,19.69L0.356,19.84L-0.781,20.05L-1.877,20.14L-3.703,20.54L-4.393,20.81L-5.327,21.11L-6.382,20.9L-7.884,21.77L-12.11,24.16L-13.44,24.55L-14.34,24.64L-15.47,23.81L-16.61,23.24L-17.83,23.3L-19.21,24.07L-21.52,23.48L-24.28,22.91L-26.76,22.37L-27.61,21.92L-30.05,21.26L-33.62,21.23L-35.73,21.23L-37.07,21.47L-38.12,21.14L-39.42,20.18L-41.61,17.95L-42,17.76L-42,-42ZM354.3,-42L354.4,-39.11L354.2,-37.49L353.9,-35.91L353.6,-34.98L352.9,-34.34L352.5,-32.61L352.4,-27.72L352.7,-25.18L353.4,-23.4L353.9,-21.5L354,-19.48L354.2,-18.57L355.3,-17.43L355.7,-16.55L355.9,-15.3L356,-13.45L356.1,-13.04L356.6,-12.48L358.9,0.736L359.8,4.697L362.4,11.5L363.5,15.59L364.1,17.52L364.6,19.57L365,21.65L365.7,23.93L366.7,26.14L368.7,28.14L369.6,29.24L369.8,30.13L369.9,33.19L369.5,32.53L368.9,30.19L367.9,28.85L366.5,27.24L365.1,25.81L363.3,23.42L362.4,22.73L361.5,22.25L359.8,21.71L358.9,21.65L354.9,22.01L353.3,22.49L351.8,23.6L350.9,25.21L350.3,28.43L346.7,39.86L345.8,42.82L345.5,45.98L345.6,48.45L345.8,49.36L346.9,51.79L347.8,53.21L348.4,53.82L349.1,54.23L349.5,54.72L349.9,55.38L350.7,57.03L351.6,60.71L352.6,63.31L353.1,64.12L354.2,63.92L354.9,63.95L355.7,64.17L356.1,64.83L356.7,67.71L357.1,70.5L357.2,71.23L356.4,73.36L356.2,74.26L356,75.22L355.8,75.99L355.5,76.64L355.3,73.5L354.8,71.26L354.6,69.33L353.8,68L351.2,67.43L348.7,67.23L348.3,66.97L347.8,66.14L347.1,65.49L346.5,65.4L345.8,65.66L344.7,66.6L343.9,68.05L343.3,69.62L342.8,71.29L341.7,75.68L341,77.11L340.2,78.47L339.5,77.73L338.9,76.89L338.5,75.68L338.4,74.32L337.4,69.76L337.8,65.77L339.5,60.22L339.8,58.41L339.5,56.68L339.1,54.95L338.9,51.68L338.9,50.95L339.5,49.06L340.2,47.26L341,45.69L341.4,43.81L340.9,39.15L339.7,35.97L338.2,32.95L337.9,32.12L337.8,31.32L339.1,27.51L339.6,25.66L340.1,21.65L340.6,19.42L340.9,17.19L341.1,5.86L340.9,4.176L340.1,0.582L340.1,-1.483L340.4,-4.079L341,-6.093L341.7,-8.05L341.7,-12.07L340.4,-15.8L339.4,-17.43L337.9,-19.42L336.8,-20.52L336.2,-21.37L336.8,-21.66L337.2,-22.32L336.2,-23.37L335.6,-24.95L335.5,-31.2L335.7,-32.77L336.5,-34.53L337.1,-36.43L337.7,-40.85L337.7,-42L354.3,-42ZM402,95.85L399.2,98.31L398,100.3L396.8,100.6L394.6,102.6L395,100.9L395.4,100.1L397.3,98.55L397.4,96.9L398.5,95.49L400.6,94.06L402,92.2L402,92.19L402,95.85ZM392.5,113L392.1,113.4L391.3,113.1L391.3,112.2L391.4,111.9L393.7,111.2L394.4,111.7L394.6,112.1ZM386.8,101.2L388.5,102.3L390.8,102.1L390.2,103.1L389.4,103.1L387.8,104.6L386.4,104.8L385.7,105.1L383.5,107.4L383.1,108.2L381.8,109.9L379.8,111.4L379.4,114.2L378.1,113.1L377.9,112L378.4,111L380.7,109L381.6,107.9L381.9,107L382.8,106L383.2,105.1L383.8,104.7L385.7,101.1ZM90.09,482L90.06,481.7L89.97,481.2L89.73,480.9L89.12,480.3L88.68,479.7L88.59,479.1L88.72,476.8L88.92,476.2L89.37,475.9L90.02,476.4L90.5,477L91.11,477.2L91.68,477.6L92.69,479L93.1,479.2L94.36,479.2L95.09,479L95.45,478.5L95.66,477.9L95.7,477.2L94.97,475.1L94.72,473.5L94.72,472.2L94.93,470.8L95.9,468.5L96.02,466.9L95.94,464.8L96.1,463.6L96.06,462.8L95.5,461.7L95.33,460.5L97,454.2L97.52,453.1L97.89,451.8L98.05,450.1L99.31,449.7L100.5,449L101.1,449.1L101.7,449.2L103.2,448.9L103.7,448.9L103.7,448.9L105.4,449.5L109.3,451.7L110.6,452.3L112.1,452.7L113.2,452.8L114.3,452.3L114.7,451.8L115.5,450.4L116.3,450.2L116.8,450.7L117.2,451.4L117.4,452.4L117.2,453.4L116.4,454.3L115.9,455.4L115.5,459.1L115.5,460.2L115.8,461.2L116.5,462.9L116.9,463.3L117.9,463.9L118.2,464.4L118.3,465.2L118.4,465.9L119.1,466.2L119.7,466.5L119.5,467.3L119.1,468.1L118.6,470.1L116.4,474.6L116.3,475.6L115.4,477.6L113.6,477.9L111.4,478.8L110.3,479.6L109.3,480.5L108.9,481.8L109,482L90.09,482ZM112.9,445.5L112.3,446.4L111.9,446.2L112.3,445.3L112.3,445L112.6,444.4L113.2,444.2L113.7,444.8ZM108.4,440L108.6,441L107.9,441L106.9,440.4L106.8,440L106.8,439.8L107,439.5ZM113.4,427.9L113.2,428.1L112.9,428L113.2,426.9L113.8,426.6L114.2,426.7ZM112.5,422.9L111.9,423.9L111.5,423.9L111.6,423.4L112.1,422.2L112.3,422.2ZM105.4,443.3L105.4,444.1L104.8,443.7L104.7,443.1L104.7,442.6L105,442.1L105.3,442.6ZM185.7,189.8L185.3,190L184.6,191.2L184,192.8L183.4,193.6L182.7,194L181.9,194.3L180.4,194.4L179.1,194.3L178.6,194.2L176.8,194.3L176.2,194.4L173.5,194.3L172.1,194.4L171.2,194.7L170.3,195.3L169.5,196.2L168.8,197.2L167.5,199L166.4,199.9L166.4,201.2L166.4,201.6L166.1,201.9L166,201.7L165.4,201.6L163.1,200.5L161.2,201.2L160.8,202.1L160.3,202.4L159.5,200.6L158.3,200.5L156.3,198.9L155.5,199.3L155.3,199.9L154.2,201.4L152.7,202.6L152.2,202.8L151.7,202.7L151.8,202.3L151.2,201L148.8,200.4L148,199.9L147.5,199.7L149.8,198.2L150.5,197.9L150,197.6L149.5,197.4L147.6,197.6L146.6,197.1L145.2,197.3L144.2,196.9L146.3,195.4L146.4,194.5L146.3,193.8L147.4,191.8L148.4,190.7L151.1,189.2L152.4,189L153.2,189L153.9,188.9L153.2,188.3L152.4,188L151,188.1L149.6,187.1L149.4,186.2L152.3,180.1L152.3,179.6L151.9,178.1L151.8,176.7L149.7,175.8L148.8,175.7L146.2,174.1L145.1,173.3L144.7,173.5L144.6,174.8L144.3,175.1L143.6,175.4L143.2,173.9L142.7,172.8L141,171.7L140.3,171.1L140.6,169.8L140.5,169.7L140.8,168.2L141.8,167L144.4,165L145.1,164.1L146.4,162.9L147,163L147.7,162.8L147.8,162.4L148,162L148.5,161.6L149.8,161L151.2,160.2L152.4,160L153.8,158.7L154.3,158.2L155,158.2L155.1,157.9L155.4,157.3L155.9,156.9L156.5,156.8L157.5,156.5L158.8,156.3L159.7,155.3L160,154.5L160.6,153.7L161.8,152.8L162.6,151.5L163.6,150.1L164,149.6L164.5,149.5L164.7,149L165,147.4L165.5,146L165.7,145.3L166.8,144.5L167.1,144.1L167.3,144L167.8,144.1L168.5,143.7L169.1,143.2L169.7,143.3L170.3,143.7L170.9,144.6L171.2,145.2L171.7,145.8L171.8,146.6L172.2,146.9L173.3,147.1L175,147.6L176.1,147.7L176.7,148.1L178,148.3L180.6,148L181.6,148.2L182.1,148.6L182.8,149.1L183.2,149.1L183.7,148.4L184.4,147.3L184.8,146.5L184.7,145.8L184.4,145L183.5,144.4L183,143.3L182.4,142.3L182.1,141.9L181.9,141.4L181.8,140.6L182,140L183.3,139.7L185,139.4L186.3,139.7L188.6,139.5L189.9,139.2L191,139.3L191.9,139.3L192.3,138.8L193.6,137.7L194.3,137.3L195,136.5L195.1,135.7L195.2,135.1L195.6,134.4L196.3,133.6L196.9,133.2L197.5,133.2L198.2,133.6L198.7,134L199.2,133.9L199.6,133.2L199.8,133.1L200.6,133L200.9,132.6L201.2,130.6L201.5,129.1L201.6,128L202.2,126.2L202.5,125.1L202.9,124.6L203.4,124.6L203.8,124.9L204.3,125.1L205,125L205.4,125.2L205.7,125.8L206.7,126.2L206.8,126.5L206.8,128.5L207.4,129.4L208.1,130.2L209.1,131L209.7,131.1L210,131.7L210.3,132.6L211,133.5L211.4,134.2L211.5,134.8L211.8,135.2L211.2,135.7L210.4,135.4L209.2,135.2L207.6,136.6L206.7,137L206.1,138.4L204.8,139.2L204.1,140L203.2,141.4L202.6,142.8L201.3,144.2L200.5,146L200.5,147.5L201.3,149L201.4,150.3L200.8,153.1L201.1,155.9L200.7,157L196.6,159L195.5,159.9L194,162.5L192.1,163.4L191,164.4L189.4,165L188.4,166.8L187.3,167.8L185.9,168.4L184.9,169.2L182.7,169.2L181.1,169.8L180,171.3L176.6,172.9L176.1,174.2L176.4,176.1L176.4,177.6L176.1,178.9L175.4,178.5L175,178.9L174.5,180L174.7,181.3L175.8,181.7L176.8,182.2L178.1,182.5L179.1,183.1L181.2,185.8L182.9,187L183.3,187.4L184.3,188L185.2,189ZM146.6,176.5L145.9,176.9L145.9,176.2L146.4,175.6L146.9,175.5ZM-42,17.76L-41.61,17.95L-39.42,20.18L-38.12,21.14L-37.07,21.47L-35.73,21.23L-33.62,21.23L-30.05,21.26L-27.61,21.92L-26.76,22.37L-24.28,22.91L-21.52,23.48L-19.21,24.07L-17.83,23.3L-16.61,23.24L-15.47,23.81L-14.34,24.64L-13.44,24.55L-12.11,24.16L-7.884,21.77L-6.382,20.9L-5.327,21.11L-4.393,20.81L-3.703,20.54L-1.877,20.14L-0.781,20.05L0.356,19.84L1.979,19.69L5.348,18.13L6.687,17.83L8.96,18.25L10.18,17.98L11.4,17.19L13.02,16.38L13.43,15.05L14.24,13.2L15.98,11.86L17.4,10.68L18.86,9.553L20.65,8.578L22.31,7.876L24.43,6.074L26.13,5.125L26.98,4.85L28,5.156L29.9,5.401L31.24,5.34L32.02,5.554L33.56,6.441L34.98,7.235L36.03,8.608L38.02,10.56L39.04,11.2L39.77,11.47L41.55,11.65L43.01,11.74L43.91,11.32L45.37,10.5L47.72,9.461L48.66,9.492L50.16,10.04L52.43,11.04L53.32,11.8L53.89,12.74L52.84,15.17L50.73,20.02L48.94,24.07L48.01,26.38L47.32,28.11L46.59,29.77L46.46,30.75L45.69,32.36L44.19,34.25L43.87,36.32L43.91,38.18L43.78,39.86L42.12,40.88L40.82,41.82L41.23,44.95L41.88,46.15L42.93,47.41L44.07,48.42L45.04,49.3L46.14,48.89L47.03,47.58L48.82,46.41L49.79,46.38L50.44,46.65L51.98,46.73L53.53,46.33L54.78,46.24L56.37,46.5L56.94,46.79L58.27,47.29L59.7,48.4L60.71,49.65L61.44,49.88L61.81,49.47L62.62,48.4L63.71,47.32L65.09,45.57L66.15,44.25L66.96,44.05L68.5,44.05L69.23,43.73L70.41,43.55L71.47,44.05L74.35,44.31L75.16,44.98L76.54,47.03L77.31,48.1L78.65,48.66L79.5,49.04L80.23,49.33L80.92,49.85L81.13,50.49L81.41,51.45L81.86,52L82.67,52.55L83.32,52.87L83.48,53.59L83.68,53.91L84.25,54.4L85.96,56.48L86.77,57.05L88.03,58.24L88.55,59.24L88.59,60.28L88.92,61.08L89.73,62.26L90.14,63.09L89.97,64.17L90.14,65.14L89.81,66.14L88.43,66.86L87.99,67.23L87.01,67.25L85.35,66.89L83.77,67.08L81.86,66.69L80.36,65.8L79.54,65.09L78.25,64.69L77.64,64.89L76.91,65.8L76.05,65.66L75.28,65.8L73.29,65.63L72.24,65.4L70.53,66.03L69.56,66.23L67.73,67L66.64,68.34L65.83,68.65L65.05,68.59L64.48,68.11L63.63,67.51L62.41,67.54L62.05,67.8L61.89,68.34L61.48,69.99L61.48,70.72L61.24,71.21L60.51,71.38L59.21,71.32L57.22,71.21L55.88,70.78L55.07,70.98L53.97,71.86L53.16,72L52.55,72.4L52.02,73.7L51.21,74.52L50.24,75.53L49.18,77.71L48.62,78.94L48.78,79.62L48.9,80.41L48.41,81.33L47.44,82.17L46.63,82.34L45.45,83.15L43.83,84.63L42.61,85.86L40.98,86.17L39.89,86.48L37.37,86.87L36.76,86.95L34,87.14L31.97,86.48L30.92,86.59L29.95,86.95L29.5,87.37L29.3,88.15L29.13,88.84L28.36,89.95L26.82,91.43L25.52,92.4L24.55,93.64L23.98,94.11L22.88,94.58L22.27,94.86L20.85,95.96L19.72,96.96L18.99,97.23L18.09,96.98L17.52,96.9L15.78,96.52L14.6,96.46L12.94,96.21L9.082,95.05L7.824,94.5L6.728,93.01L5.754,92.26L4.374,92.17L2.385,92.17L1.452,91.9L-0.05,92.17L-1.714,93.67L-2.486,94.8L-3.176,95.94L-3.987,98.39L-4.353,100L-4.677,100.9L-5.53,102.4L-5.651,103.2L-5.327,103.9L-4.677,104.7L-4.312,106L-3.379,107.3L-2.486,108.4L-0.74,110L-0.253,110.9L0.315,111.9L0.437,112.9L0.356,113.5L-0.294,114L-1.471,114.2L-2.08,114.9L-2.932,115.8L-3.987,116.9L-4.515,116.9L-5.083,117.2L-8.087,118.5L-9.183,118.8L-10.08,119.3L-11.17,120.6L-11.98,121.5L-13,122.8L-13.44,123.4L-14.38,124.7L-15.6,126.2L-16.25,127L-16.61,127.4L-16.93,128L-18.19,128.5L-19.25,129L-20.79,129.8L-23.02,130.6L-24.85,131.4L-26.03,132.1L-27.73,132.9L-28.91,133.2L-31.22,133.1L-34.15,133.3L-36.26,133.5L-37.84,133.3L-40.23,133.2L-42,133L-42,17.76ZM242,224.1L241.5,224.6L240.6,224.5L240,223.7L240.2,222.9L241.2,222.2L242.1,223.5ZM298.1,201.3L297.1,201.3L296.8,201.2L297.4,200.8L297.5,200.2L297.9,199.2L297.9,198.9L297,198.8L297.1,197.6L297.7,196.4L299.5,194.6L299.9,194.2L300,195L299.5,196.9L299.3,197.6L300.7,197.8L299.8,200.1ZM259.6,250.6L258.4,251.7L257.4,251.7L256.8,251.1L256.7,250.5L257.7,249.5L258.5,248.1L259.3,247.4L260,247.1L260.4,247.1L259.4,249.1ZM211.1,304.3L209.8,304.5L209.1,304.3L208.4,302.6L209.6,301.6L211.3,302.6L211.6,302.9ZM214.9,302.5L213.9,302.7L213.9,301.9L214.6,300.2L214.7,298.9L215.4,297.3L215.8,297L216,296.9L216.2,297.4L216,299.3L215.2,300.8ZM205,278.3L204.1,278.8L203.9,278.4L203.6,278.2L204.2,277.5L204.2,277.2L203.8,276.8L204.3,275.1L204.2,274.4L205.9,274.2L206.3,274.8L206.3,276.9ZM195.9,252.8L195.2,253.4L194.9,252.5L195.2,250.1L196.6,250.6L196.6,251.4ZM197.1,249.7L196.9,250.3L196.1,249.9L195.8,249.5L196.5,247.4L196.4,246.6L196.4,246.2L197.9,245.1L198.1,245.3L198.2,245.6L198.1,246.1L198.1,247.1L197,248.8ZM189,270.9L189.4,271.3L190.1,271.1L190.6,271L191,271.2L191.4,272.1L191.6,272.7L190.8,272.8L190.4,272.9L189.9,273.6L189.3,273.3L188.9,273L188.8,272.6ZM208.3,275.7L207.4,275.8L206.9,275.6L206.7,275.2L208.2,274.4L209.2,274.5L208.8,275.3ZM328.9,87.87L328.4,88.9L327.9,87.37L327.7,85.75L328.1,85.75L328.7,86L328.8,86.78ZM331.4,91.29L330.6,91.4L329.7,90.73L329.6,89.9L330.3,89.23L330.9,89.48L331.6,90.34L331.8,90.79ZM310.9,138.6L310.7,138.7L310.4,138.5L310.2,137.4L310.4,136.8L311.1,136.4L311.8,136.3L311.2,138.4ZM253.1,247.9L252.9,248.2L252.7,248.1L252,248.7L251.8,248.1L251.3,247.7L251.2,247.4L252.8,247.2L253.3,247.4ZM310.7,244.6L310.5,245.2L309.9,245.1L309.6,244.7L309.7,243.9L310.3,243.9ZM193.6,270.2L193.4,270.3L193,269.1L192.7,268.7L193.2,268.4L194,266.2L194.2,267.1L194.5,268L194.8,268.1L194.5,268.7L194,269ZM198.3,265L197.5,265.7L196.9,265.7L197.5,264.9L197.5,264.6L198,263.6L198.8,263.2L199.2,263.2L198.5,264.2ZM201.8,257.9L200.9,258.5L200.4,258L200.7,256.8L200.9,256.4L201.5,256.8ZM233.1,252.9L232.8,253.5L231.8,253.3L232.2,252.8L232.5,252.3L232.7,252.2L232.9,252.8ZM229.6,255.3L230.1,255.8L231.4,255.5L231.6,255.7L231.2,256.1L230.7,256.6L229.6,256.2L228.9,256.2L228.9,255.5L228.9,255.2ZM200.9,285.9L200.5,286.2L200.7,285.1L201.6,284.2L201.7,284.8ZM341.5,351L341.3,351.1L340.5,349.7L340.7,349.7L341.1,349.9L341.6,350.6ZM359.9,107.2L361.3,107.2L362,107.2L363,107.4L367.3,109.8L368.6,110.1L370,110.1L370.9,109.9L371.7,109.3L374.3,106.4L377,103.7L377.3,103.8L377.3,104.6L377.1,105.4L375.9,107.8L374.6,111L374.3,112.7L374.7,114.3L375.6,115.6L376.2,117.4L377,119.9L378.1,120.2L378.6,120.2L379.7,119.5L380.8,118.5L381.6,118.4L382.5,118.6L381.3,119.2L380.2,120L379.2,121.6L378.8,121.8L377.7,121.8L377.1,121.8L375.8,122.5L374.6,123.2L373.5,124.1L372.3,124.5L371,124.6L369,125.4L367.7,125.4L365.3,124.8L364.1,125L361.6,126.4L359.2,128.4L357.2,130.7L355.5,133.5L354.8,134.9L354.4,136.5L354.3,137.5L354.1,138.5L353.8,139.3L353.3,139.8L351.9,139.5L349.5,138L345.1,135.9L340.3,132.7L337.6,131L332.7,131.5L327.9,134.6L327.5,134.4L325.7,132.2L324.8,131.4L323.7,131.1L323,131.2L322.2,131.3L321.1,132.4L320.7,133.2L320.4,134.1L320.4,134.7L320.5,135.4L321.5,136.8L322.7,137.8L323.3,138L324.5,138L325.1,138.1L327.1,140.2L329.3,142.1L329.8,142.8L329,143.5L328.1,143.8L327,143.7L326,143.5L324.2,142.6L323.5,143.3L322.3,144.8L321.7,146.4L321.1,147.1L319.8,148L318.4,148.5L317.8,148.4L317.2,147.8L316.9,147.1L316.7,146.2L317,144.4L317.7,142.8L318,141.2L317.4,138.8L317.1,138.3L315.6,136.9L314.9,135.6L314.8,133.9L314.8,133L315.2,131L315.6,129.9L316.2,129.6L316.9,129.4L318.1,128.7L319.3,127.7L320.5,126.6L321.7,125.2L322.3,123.8L321.2,121.9L321,120.9L321.2,119.9L322.3,119.3L323.4,119.7L325.6,121.2L326,121.4L327.5,121.4L329.6,121.8L330.8,121.7L331.4,121.5L332.3,120.2L332.7,118.6L332.5,116.6L332.5,114.6L333.1,112.9L334.8,110.3L335.3,108.7L335.5,104.9L336.1,103.2L336.6,101.4L336.9,97.7L336.2,94.14L335.5,92.37L334.6,90.7L334.8,89.09L335.4,87.62L335.4,87.17L335.6,86.78L336.8,86.48L337.4,86.17L338,85.44L338.6,85.03L339.1,85.44L339.5,86.17L341.3,87.98L344,91.2L347.3,96.07L349.3,98.44L351.4,100.6L353.8,102.8L356.4,104.6L358,105.5L359.2,106.9ZM217.3,259.9L218.8,260.3L219.5,260.3L220,260.2L221,259.6L221.9,259.2L222.6,259.4L223.1,259.9L223.5,260.6L223.3,261.3L222.3,262.7L221.4,264.3L223.4,264.6L225.4,264.6L224.9,265.6L224.9,266.4L225.5,266.9L226,267.4L225.9,267.9L225.6,268.4L226.7,269.1L226.6,269.6L226.3,270.1L223.6,273.5L222.7,275.2L222.2,277.1L221.7,278.4L221.3,279.8L221,281.4L220.5,282.9L220.7,284.3L220.5,285.8L219.1,289.3L218.1,289.2L216.9,288.8L216.1,288.9L215.7,289.6L216.4,291.2L214.2,293.1L211.8,294.4L211.7,293.8L212,293.4L212.3,293L212.6,292.6L213,291.1L212.8,289.6L212,287.7L212,287L212.5,286.7L212.8,286.6L213,286.4L213,285.8L212.8,285.3L212.1,285.1L211.4,285.1L211,285.8L210.3,287.2L210,288.5L210.1,289.3L210.4,290L211.3,291.1L211.1,291.8L210.7,292.3L207.6,291.1L206.9,291L206.3,290.8L205.7,289.2L207,288.9L207.4,288.7L207.5,288.2L207.7,286.7L207.1,285.4L206.6,285L206.1,284.5L206.4,283.4L206.3,282.1L206.2,280.2L206.5,279.9L207.6,279.5L208.5,278.5L209.3,277.3L210.4,275.3L211.3,273.1L210.4,273L209.7,272.6L210.4,271.6L210.2,270.3L209,268.7L208.3,266.8L207.3,265.9L206.7,265.6L206,266.1L205.4,266.6L206,267.9L205.9,268.9L206,270L206.5,270.1L207.2,269.8L207.7,270L208,270.6L208.1,271.3L207.9,272L207.4,272.4L206.8,272.4L206.2,272L205.7,271.4L204.6,271.1L203.5,271.7L202.4,273.1L201.4,273.8L201.9,272.8L202.1,271.7L201.6,271L200.5,269.7L200.3,269L200.2,268.1L200.4,267.2L201.6,268.2L202.1,269.5L202.9,270L203.9,270L203.2,268.2L202.9,267.7L201.8,266.9L200.3,265.5L199.3,264.8L199.6,263.4L200.2,263.1L200.7,263.2L202.3,263.7L202.4,263L202.2,262.6L202.1,262.1L203.1,261.5L204.8,261L205.2,260.7L205.5,260.2L205.9,260L207.2,260L208.2,259.5L209,258.1L209.2,257.4L209.5,256.7L211.6,255.7L212.1,255.5L213.5,255.6L214.8,256.2L215.4,257.5L216,259ZM253.2,251L254.7,251.6L256.3,251.4L256.3,253.9L256.5,254.7L257,255.5L256.8,256.6L257.5,257L255.3,258.2L253.4,259.8L252.6,260.9L251.9,262.1L251.4,263.3L251.2,264.7L250.5,264.2L248.7,262L247.5,261.4L245.6,261.1L245,261.1L241.1,263.2L240.6,264.7L239.5,266.9L239,267.6L238.4,267.9L238,268.2L237.6,270.1L236.4,271.3L235.6,271.4L234.4,271L233.8,271.2L234.6,269.3L233.4,269.1L232.2,269.1L232.2,267.9L231.4,267.2L232,266.3L232,265.6L232.3,265.2L232.4,264.6L232.4,264.1L231.6,263.9L231.1,263.6L231.2,262.2L230.8,262.2L229.8,262.4L227.6,263.4L227,263.4L227.9,262.7L229.8,261.7L230.7,261.1L232.6,259.5L233.8,258.7L234.5,257.4L234.7,256.5L235.1,255.8L235.4,254.6L236.1,254.2L237.1,253.2L237.8,253.3L238.4,254.5L239.4,255.5L240,255.4L241.2,254.9L241.8,254.8L243.2,254.9L244.4,254.3L244.9,253.6L245.1,252.7L244.7,251.2L245.3,251.3L245.8,251.3L247.2,250.3L248.6,249.8L250,249.6L251.6,250.1ZM330.6,149.3L331.1,149.6L333.2,148.8L332.8,151.1L332.6,153.4L332.7,157.3L332.9,159L333.3,160.7L334.2,161.9L335.3,162.7L337,165.4L338,168.7L338.6,170.3L339.1,172L339.2,172.8L339.2,173.5L339.1,174.6L339.3,175.4L339.1,178.1L338.3,181.2L338.2,182.7L337.6,183L337.2,183.8L336.8,184.1L336.4,184.3L335.9,184.4L335.5,184.7L335.3,185.5L335.1,186.3L334.6,187L334.2,187.8L333.9,189.7L333.8,191.6L333.3,192.9L332.2,193.3L330.9,193.3L329.3,193.9L328.9,194.3L327.6,196.6L327.3,198L327.3,199.5L327.6,201.3L328.1,203L328.5,206.3L328.1,211.3L327.7,212.9L326.9,214L326.2,214.5L325.7,215.1L325,216.7L323.8,219.9L323.8,220.8L323.8,221.6L323.4,222.7L323.2,223.7L323.4,225L323.8,226.1L325.3,229.1L326,230L326.6,230.8L324,231.7L323.5,232.1L321.9,233.8L321.5,235.4L321.5,237.1L321.2,237.8L320.8,238.3L320.3,238.7L318.6,239.5L317.4,240.3L316.3,241.5L315.9,242.2L315,242L314.5,241.4L315,240.7L314.9,239.8L315.1,237.6L314.8,236.7L315.7,236.1L316.1,235L317.1,234.1L317.8,233.4L317.9,232.7L317.3,232.1L316.7,231.6L315.8,231.6L314.9,231.7L314.4,232.4L314.2,233.2L314.2,233.6L314.1,234L312.8,235.2L313,236.4L313.4,237L313.9,237.3L313.7,237.8L313.1,238.8L312.7,238.9L311.9,237.5L310.9,236.7L309.6,236.7L308.3,237L307.3,237.9L307,238.7L306.8,239.5L306.9,241.4L306.5,243L305.7,244.4L305.3,245L304.4,245.9L303.7,246L303.2,245.6L302.8,244.9L303.3,242.5L303.3,241.2L304.4,240.5L303.5,239.5L302.3,239.1L300.8,239.6L300.3,240.2L300,241L299.1,242L298.2,242.9L297.1,244.5L296.4,246.4L294,245.8L292.7,245.6L291.4,245.7L289.1,245.4L286.5,245.8L283.7,246.5L283.8,246L286.2,244.9L286.3,244.6L286.1,243.9L285.5,243.9L284.1,244.1L283.3,244L283,243.4L282.5,243.1L282.2,243.4L282.3,244.7L282,244.8L281.5,244.5L281.7,243.5L281.3,242L281.3,241.1L281.8,240.3L281.3,240L280.7,240.1L280.1,240.5L279.5,241L278.2,243.7L277.7,245.2L278.6,246.5L281.2,248.2L281.6,248.6L281.6,249.3L281.3,250.1L280.6,250.4L277.8,251L275.4,252.1L274.7,253.2L272.5,257.5L270.8,260.5L268.2,261.5L265.5,260.6L264.9,259.5L264.3,258.3L263.3,257.1L262.4,255.9L261.9,254.4L261.9,252L261.5,250.6L261.9,250.2L263.4,249.3L263.9,248.8L264.7,247.7L265.1,247L265.1,246.1L264.4,245.6L262.6,245.6L260.9,245.9L259.6,245.5L258,244.3L257.5,244L255.7,244L254.5,244.2L253.2,244.6L251.9,244.8L251.5,245L250,246.4L248.8,247.3L247.7,247.8L245.5,247.9L244.4,248.2L243.2,248.6L242.9,248.6L241.7,249.2L240.2,249.8L239.5,250.4L238.1,250L235.3,251L234,251.1L232.6,250.6L231.3,249.7L230.1,250.1L229.3,251.4L228.9,254.1L228.4,255.3L228.2,256.7L227.6,256.5L223.9,253.9L223.7,253.8L220.7,254.2L219.9,254.5L219,255L217.9,255.2L217,254.8L216.1,254.2L215.3,254.4L214.4,254.8L214.1,250.9L214.2,250.4L214.8,249.7L215.4,249.2L216.8,248.9L218.3,249.2L219.3,248.9L220.2,248.1L221.1,247L222.2,246.1L223.6,245.4L225,244.6L226.2,243.4L227.3,242.2L228.4,241.3L229.5,240.5L231.3,238.7L233.6,236.6L234.5,235L235,234.6L237,233.8L239.6,233.1L240.9,233.1L242.1,234.5L242.8,234.3L243.4,234L244.8,233.8L246.2,234L247.6,234L248.9,233.8L251.6,233.4L252.9,232.8L254.3,232.1L259.1,231.7L262.4,230.5L262.9,230.6L263.4,230.8L263.4,231.7L263,232.6L263.4,233.2L264.1,233.6L267.2,233.7L268.1,233.9L269.4,233.2L270.6,232.4L271.9,231.4L272.7,230.2L271.9,228.7L271.8,227.1L272.5,225.3L273.4,223.8L274.7,222.9L275.7,221.9L277.9,219L279.6,216.6L280.1,213.6L279.8,210.1L281.2,207.5L282.5,207.1L285.2,205.9L286.6,205.5L286.8,206.1L286.7,206.8L284.7,208.9L283.5,209.8L282.8,210.1L282.1,210.5L281.8,211.3L282.9,212.6L283.2,213.5L283.1,214.4L283.1,215.2L284.4,216.1L285.7,216.4L286.3,216.4L286.8,216.2L288.4,214L288.7,213.6L293.2,212L295.5,210.8L296.7,210.5L297.8,209.9L300.4,207.4L301.4,206.3L302.2,205L302.9,203.5L303.5,202L304.2,201L308.3,198.6L309.6,197.3L310,196.7L310.5,194.9L310.9,193L311.4,191.5L312,190.1L312.9,188.7L313.9,187.4L314.6,186L315.4,182.8L315.8,181L316.1,180.4L316.5,179.8L316.9,179.1L317.2,178.3L317.3,177.6L317.5,175.2L317.4,173.4L316.7,171.8L316.2,171.4L315.6,171.4L314.6,171.5L313.9,170.9L314,170.3L314.8,170.2L315.4,169.9L315.7,169.4L316.5,167.7L316.9,165.9L316.9,165.1L316.4,163.6L315.9,161.8L315.9,160.9L316.4,159.8L317.1,158.9L317.8,158.6L318.4,158.6L319.1,158.3L319.6,157.7L319.9,157.2L320.5,155.7L320.6,154.8L320.4,152.5L320.7,151.9L321.1,151.5L321.8,151.8L322.4,151.8L323.2,151.7L323.8,152L324,152.6L324.5,156.5L324.7,157L325.2,157.4L325.8,157.4L326.3,156.8L326.6,155.9L327.3,155.8L329.4,156.7L330.1,156L330.6,155.1L331,153.4L330.8,151.8L330.3,151.3L329.8,151.4L329.4,151.8L328.8,152L325.8,152.8L325.8,151.1L326.5,148.5L326.8,147.7L327.3,147.3L328.6,147.8L329.2,148ZM139.7,377.3L139,379.2L138.5,379.5L137.9,379.4L137.3,378.3L137.7,377.9L138.3,378.1L138.8,378L139.8,376.4L140.1,376.7ZM135.2,380.2L134.4,380.4L133.6,380.2L132.8,380.1L132.8,379.7L133.6,379.4L133.6,378.8L133.8,378.6L135.7,379.2L135.6,379.7ZM152.7,374.5L151.7,374.8L150.7,374.6L150.9,372.9L151.2,373.1L151.4,373.7L152.2,374.1ZM184.4,350.6L183.3,351.2L182.9,351.8L181.9,352.1L180.9,353L180,353.2L180,354L180.4,354.7L179.8,354.8L179.1,355.6L179.1,356.2L179.3,356.6L179.3,356.9L178.5,357.6L177.6,357.6L177.5,356.8L177.6,356.3L178.4,354.9L178.4,353.3L179.2,353.2L179.5,352.9L180.6,351.8L180.9,351.3L180.2,350.9L180.3,350.3L180.4,350.1L181.4,350.2L181.8,350.7L182,350.7L182.6,350.4L182.8,349.9L183.9,348.8L184.4,347.7L185.2,348.6L185,349.7ZM192.7,337L192.3,337.3L191.6,337L191.4,335.5L191.7,334.8L192.2,334.6L192.7,335.9L192.9,336.4ZM197.9,330.8L196.9,331.9L195.9,330.9L194.6,330.3L195.2,330.1L195.5,329.9L195.6,329.5L196.4,328.9L198,328.4L198.5,328.4L199.1,328L199.3,327.6L199.5,327.4L200.5,326.9L200.8,327.5L200.8,327.9L200,328.2L199.2,328.9L198.5,329.7L197.9,330L197.7,330.2ZM196.4,332.1L196.5,332.4L195.4,332.2L194.9,331L195.7,331.2L195.9,331.6ZM315,267.3L314.8,267.4L314.3,267L314.2,266.6L314.3,266.3L314.6,266.3L315.4,266.8ZM70.82,377.5L70.41,378.3L69.76,378.2L69.76,377.6L69.6,377.5L69.8,377L69.92,376.8L70.66,377.3ZM112.3,288.1L111.4,288.5L108.4,287.4L106.4,286.1L105.1,284.6L105,284L106.4,284.1L107.8,284.6L108.1,285.5L108.7,285.7L109.1,286.2L111.7,287.3L112.1,287.7ZM117.2,308.2L117,308.4L115.6,307.7L114.1,307.5L113.6,306.9L113.5,305.8L115.1,305.9L117,306.8L117.5,307.3ZM115.8,311.9L115.7,312.1L114.8,311.3L114.3,311.1L114.5,310.7L115.2,310.5L115.7,311.6ZM118.4,309.1L118.3,309.7L118,309.6L117.6,308.6L117.8,308.3L118.4,308.4ZM89.28,365.6L88.43,366.2L87.91,365.9L87.91,365.1L88.19,364.4L87.86,363.9L88.15,363.3L88.8,363.1L89,363.5L89.37,363.7L89.49,363.9L89.49,364.3L89.12,365L89.41,365.3ZM-17.1,419.2L-16.69,419.6L-15.55,419.3L-15.35,419.8L-15.39,420.1L-15.76,420.7L-16.69,420.2L-17.63,420.3L-18.27,420.3L-18.48,420L-17.95,419.4ZM105.4,332.4L104.4,332.7L104.1,332.7L104.1,331.7L104.9,330.9L105.2,331.2L105.4,331.6ZM18.62,398.4L18.74,398.9L17.85,398.1L17.61,398L17.16,397.7L16.92,397.2L17.61,397.1L18.25,397.8ZM10.02,413L9.772,413.2L9.447,412.8L9.366,412.2L9.123,411.9L9.691,411.4L9.935,410.9L10.54,411L10.83,411.2L10.26,411.7L10.14,411.9ZM8.352,412.5L7.256,412.8L7.012,412.8L7.418,412.1L8.392,411.7ZM-42,133L-40.23,133.2L-37.84,133.3L-36.26,133.5L-34.15,133.3L-31.22,133.1L-28.91,133.2L-27.73,132.9L-26.03,132.1L-24.85,131.4L-23.02,130.6L-20.79,129.8L-19.25,129L-18.19,128.5L-16.93,128L-16.61,127.4L-16.25,127L-15.6,126.2L-14.38,124.7L-13.44,123.4L-13,122.8L-11.98,121.5L-11.17,120.6L-10.08,119.3L-9.183,118.8L-8.087,118.5L-5.083,117.2L-4.515,116.9L-3.987,116.9L-2.932,115.8L-2.08,114.9L-1.471,114.2L-0.294,114L0.356,113.5L0.437,112.9L0.315,111.9L-0.253,110.9L-0.74,110L-2.486,108.4L-3.379,107.3L-4.312,106L-4.677,104.7L-5.327,103.9L-5.651,103.2L-5.53,102.4L-4.677,100.9L-4.353,100L-3.987,98.39L-3.176,95.94L-2.486,94.8L-1.714,93.67L-0.05,92.17L1.452,91.9L2.385,92.17L4.374,92.17L5.754,92.26L6.728,93.01L7.824,94.5L9.082,95.05L12.94,96.21L14.6,96.46L15.78,96.52L17.52,96.9L18.09,96.98L18.99,97.23L19.72,96.96L20.85,95.96L22.27,94.86L22.88,94.58L23.98,94.11L24.55,93.64L25.52,92.4L26.82,91.43L28.36,89.95L29.13,88.84L29.3,88.15L29.5,87.37L29.95,86.95L30.92,86.59L31.97,86.48L34,87.14L36.76,86.95L37.37,86.87L39.89,86.48L40.98,86.17L42.61,85.86L43.83,84.63L45.45,83.15L46.63,82.34L47.44,82.17L48.41,81.33L48.9,80.41L48.78,79.62L48.62,78.94L49.18,77.71L50.24,75.53L51.21,74.52L52.02,73.7L52.55,72.4L53.16,72L53.97,71.86L55.07,70.98L55.88,70.78L57.22,71.21L59.21,71.32L60.51,71.38L61.24,71.21L61.48,70.72L61.48,69.99L61.89,68.34L62.05,67.8L62.41,67.54L63.63,67.51L64.48,68.11L65.05,68.59L65.83,68.65L66.64,68.34L67.73,67L69.56,66.23L70.53,66.03L72.24,65.4L73.29,65.63L75.28,65.8L76.05,65.66L76.91,65.8L77.64,64.89L78.25,64.69L79.54,65.09L80.36,65.8L81.86,66.69L83.77,67.08L85.35,66.89L87.01,67.25L87.99,67.23L88.43,66.86L89.81,66.14L90.14,65.14L89.97,64.17L90.14,63.09L89.73,62.26L88.92,61.08L88.59,60.28L88.55,59.24L88.03,58.24L86.77,57.05L85.96,56.48L84.25,54.4L83.68,53.91L83.48,53.59L83.32,52.87L82.67,52.55L81.86,52L81.41,51.45L81.13,50.49L80.92,49.85L80.23,49.33L79.5,49.04L78.65,48.66L77.31,48.1L76.54,47.03L75.16,44.98L74.35,44.31L71.47,44.05L70.41,43.55L69.23,43.73L68.5,44.05L66.96,44.05L66.15,44.25L65.09,45.57L63.71,47.32L62.62,48.4L61.81,49.47L61.44,49.88L60.71,49.65L59.7,48.4L58.27,47.29L56.94,46.79L56.37,46.5L54.78,46.24L53.53,46.33L51.98,46.73L50.44,46.65L49.79,46.38L48.82,46.41L47.03,47.58L46.14,48.89L45.04,49.3L44.07,48.42L42.93,47.41L41.88,46.15L41.23,44.95L40.82,41.82L42.12,40.88L43.78,39.86L43.91,38.18L43.87,36.32L44.19,34.25L45.69,32.36L46.46,30.75L46.59,29.77L47.32,28.11L48.01,26.38L48.94,24.07L50.73,20.02L52.84,15.17L53.89,12.74L56.2,14.26L57.71,15.02L60.22,16.23L62.86,16.5L65.34,17.77L66.64,18.16L67.33,18.16L70.86,15.05L73.82,12.38L77.27,10.31L79.79,10.04L81.69,9.431L82.95,8.486L83.68,6.93L83.93,4.758L83.4,3.44L82.18,2.98L81.86,2.519L82.47,2.028L82.91,1.136L83.2,-0.249L83.89,-1.544L85.06,-2.749L85.67,-4.11L85.79,-5.628L86.48,-7.118L87.74,-8.61L88.43,-10.01L88.55,-11.29L89.2,-12.85L90.91,-15.67L92.05,-18.88L93.95,-21.12L97.04,-23.4L98.99,-25.68L99.76,-27.94L99.68,-29.95L98.78,-31.68L98.62,-33.47L99.19,-35.27L98.7,-36.62L97.16,-37.52L95.37,-37.75L93.22,-37.3L92.05,-37.85L91.8,-39.43L92.37,-40.72L93.75,-41.69L94.04,-42L157.7,-42L157.7,-42L158.3,-40.98L159,-40.37L159.5,-39.82L159.6,-39.4L159.6,-38.94L159.5,-38.59L159.2,-38.04L159.1,-37.43L159.5,-36.75L160.7,-36.24L161.1,-35.75L161.2,-35.08L161.6,-34.37L162.5,-33.54L162.8,-32.83L162.6,-32.29L162.8,-31.81L163.3,-31.45L163.4,-30.11L163.4,-29.35L164.1,-28.48L164.2,-26.77L164.7,-24.83L166.3,-22.2L166.8,-20.74L166.7,-19.07L166.9,-18.28L167.7,-17.87L168,-17.18L168,-16.14L168.3,-15.48L168.5,-14.79L168.4,-13.73L168.6,-12.76L169,-12.2L169.2,-11.17L169.4,-9.856L170.5,-7.801L172.5,-5.008L173.7,-2.841L174.1,-1.298L174.1,-0.034L173.7,0.951L173.7,1.659L174.1,2.12L174.2,2.734L174,3.501L174.7,4.421L176.9,5.982L176,8.395L175.8,10.1L175.9,11.86L176.4,13.14L177.4,13.87L178,14.62L178.2,15.41L179.4,16.26L181.5,17.19L184.2,17.34L187.4,16.74L189.4,16.65L190.1,17.04L190.4,17.64L190.2,18.49L190.7,19L192.1,19.27L193,19.78L193.5,20.57L194.1,20.78L194.9,20.45L195.5,20.48L196.3,20.93L196.7,20.78L197.1,20.3L197.7,20.3L198.4,20.32L198.8,21.44L199.4,22.07L200.3,22.22L201.7,23.6L204.5,27.51L206.3,28.88L208,29.33L210.3,29.42L211,30.9L210.4,32.51L210.3,33.84L210.8,34.31L211.5,35.85L212.5,36.76L212.6,37.47L213.1,38.27L212.9,39.74L212.1,41.88L212.3,43.73L213.6,45.22L214.4,46.68L214.5,48.08L214.9,48.92L215.4,49.21L216.7,49.12L218.9,48.6L220.5,48.69L221.6,49.38L224.2,49.41L228.3,48.77L230.9,48.57L232,48.83L232.9,47.93L233.8,45.89L234.6,44.92L235.3,45.04L236.5,44.4L238.1,42.97L239.5,42.26L241.2,42.32L243.2,42.41L244.3,41.79L245.4,40.53L247.4,39.41L251.5,37.94L252.4,37.74L252.9,37.8L254.3,38.03L255.5,38.59L256.6,39.74L256.8,40.47L256.7,41.44L256.4,42L256,42.64L255.5,43.67L255.8,44.46L256.5,46.15L257,47.38L257.6,48.83L257.4,49.33L257,50.34L255.9,52.03L255.3,52.66L254.6,53.3L253.5,53.45L253,53.59L252.4,53.85L252.1,54.46L251.7,54.89L251,55.73L251,56.45L251.3,57.52L251.4,58.61L250.7,59.59L250.1,61.08L249.9,61.54L249.7,62.69L249.6,63.06L249.4,65.46L248.7,67.08L247.6,68.96L247.9,70.1L248,71.12L247.8,71.63L247.7,72.08L247.6,73.08L247.3,73.47L246.3,74.09L245.8,74.83L245.9,75.99L245.6,76.97L245.2,77.85L244.7,78.41L244.1,78.78L243.6,79.08L243.3,80.18L243.2,81.02L242.9,81.89L243.1,82.76L242.8,83.49L241.9,84.02L241.4,84.33L240.9,84.47L239.9,85.28L239.1,88.06L238.9,89.68L239.1,91.09L238,92.01L237.1,92.73L236.6,92.45L236.1,92.23L234.8,91.9L234.1,91.7L232.8,91.23L230.7,90.65L228.6,89.95L227.4,89.59L226.4,89.29L225.6,88.82L224.9,87.95L224.3,88.31L223.7,89.32L222.7,89.9L222.3,91.01L221.8,91.87L220.8,92.98L220.3,93.45L218.4,94.22L217.9,94.47L216.2,94.64L215.7,94.97L215.1,95.66L214.9,96.38L215.4,97.12L216,98.61L216.3,99.63L216.7,101.6L218.2,107.9L217.7,109L217.3,113.6L217.4,114.5L217.3,115.8L217.4,116.7L217.7,116.9L218.1,117.3L218.3,117.8L218.2,118.7L218,119.3L217.7,120.6L217.3,122.4L216.9,123L216.5,123.6L216.3,124L216.2,125.2L216.1,126L215.4,126.3L214.7,126.8L213.9,126.7L213.1,126.7L212.2,127.1L210.6,127.4L209.6,127.9L209.1,128.3L208.8,128.7L208.8,129.2L209,129.4L209.9,129.5L210.5,130.3L210.6,131.2L210,131.7L209.7,131.1L209.1,131L208.1,130.2L207.4,129.4L206.8,128.5L206.8,126.5L206.7,126.2L205.7,125.8L205.4,125.2L205,125L204.3,125.1L203.8,124.9L203.4,124.6L202.9,124.6L202.5,125.1L202.2,126.2L201.6,128L201.5,129.1L201.2,130.6L200.9,132.6L200.6,133L199.8,133.1L199.6,133.2L199.2,133.9L198.7,134L198.2,133.6L197.5,133.2L196.9,133.2L196.3,133.6L195.6,134.4L195.2,135.1L195.1,135.7L195,136.5L194.3,137.3L193.6,137.7L192.3,138.8L191.9,139.3L191,139.3L189.9,139.2L188.6,139.5L186.3,139.7L185,139.4L183.3,139.7L182,140L181.8,140.6L181.9,141.4L182.1,141.9L182.4,142.3L183,143.3L183.5,144.4L184.4,145L184.7,145.8L184.8,146.5L184.4,147.3L183.7,148.4L183.2,149.1L182.8,149.1L182.1,148.6L181.6,148.2L180.6,148L178,148.3L176.7,148.1L176.1,147.7L175,147.6L173.3,147.1L172.2,146.9L171.8,146.6L171.7,145.8L171.2,145.2L170.9,144.6L170.3,143.7L169.7,143.3L169.1,143.2L168.5,143.7L167.8,144.1L167.3,144L167.1,144.1L166.8,144.5L165.7,145.3L165.5,146L165,147.4L164.7,149L164.5,149.5L164,149.6L163.6,150.1L162.6,151.5L161.8,152.8L160.6,153.7L160,154.5L159.7,155.3L158.8,156.3L157.5,156.5L156.5,156.8L155.9,156.9L155.4,157.3L155.1,157.9L155,158.2L154.3,158.2L153.8,158.7L152.4,160L151.2,160.2L149.8,161L148.5,161.6L148,162L147.8,162.4L147.7,162.8L147,163L146.4,162.9L145.1,164.1L144.4,165L141.8,167L140.8,168.2L140.5,169.7L140.3,169.5L139.4,170.8L137.6,172.1L133.7,172.3L132.5,171.5L132,172.1L131.7,172.9L130.6,173.1L129.1,173.2L128.2,173.7L127.7,174.3L125.5,174.5L124.7,175.3L123.3,175.6L117.6,179L116.4,180.4L115.2,182.1L114.4,183L113.6,183.5L113,183.8L112.3,184.4L111.6,184.5L111,184.2L110.2,184.3L109.7,185L110.1,185.9L109.9,186.3L108.4,186.8L106.2,187.1L105.2,187.7L104.9,188.1L104.4,188.2L103.9,187L103.8,185.5L104.7,185.1L105.5,184.9L110.2,182.7L109.7,181.1L110.1,180.4L111.1,179.3L111.8,178.7L111.4,178.5L108.4,178.9L106.6,178.9L105.7,178.7L106,177.7L105.8,176.8L105.6,176.4L107.1,175.3L107.9,175L108.4,175L108.4,174.3L107.9,173.3L108.4,172L111.6,170.4L112.4,169L113.6,167.7L116,164.4L116.2,163.9L116.8,162.3L116.9,161.7L115.9,160.8L115.4,159.6L112.3,157.3L112,155.3L111.7,155.4L111.2,156.7L110.8,157.2L109.3,157.2L108.6,156.7L104.5,156.4L103.5,157.3L102.6,158.6L101.7,159.6L100.8,160.1L100,161L96.71,166.3L95.45,166.7L89.61,169.9L86.69,171.1L84.41,173.4L83.64,174.7L82.95,176.2L82.55,178.4L80.48,181.1L79.75,181.7L79.02,181.9L78.08,181.8L77.23,182L75.81,181.8L74.06,182.6L72.12,183.3L70.41,181.5L69.19,181L67.25,181.6L66.31,182.4L64.4,186.5L63.71,188.8L63.76,189.8L64.85,192.7L66.11,194.3L68.91,196.1L74.88,197.4L76.26,196.9L77.76,196.9L79.34,198.1L80.31,200.1L80.44,201.5L80.44,201.9L80.8,202.3L81,203L80.4,203.6L79.91,203.9L79.5,205.9L79.5,208.3L79.99,209L81.29,210.1L83.28,211L85.1,211.2L88.59,210.8L90.02,209.4L89.93,208.8L89.97,208L93.06,205.9L94.81,204.1L94.52,203.6L94.2,203.3L94.52,203.1L95.45,203L99.76,201.1L103.1,202.7L105,204.4L106.9,204.8L108.3,205.6L109.8,206.4L111.8,206.5L113.4,206.7L114,205.9L114.5,205.4L115.1,205.5L115.7,206.5L117.7,207.2L119.4,207.2L120.6,206.9L121.3,207.2L120.3,208.5L120.5,210.4L119.6,211L118.9,212L119.3,212.6L119.7,212.9L119.7,213.7L119,214.1L117.7,215.3L116.9,215.3L116.6,215.1L116.3,214.6L116.2,214L115.7,213.5L114.4,213.4L113.1,213.5L110.1,215.2L107.2,216.6L104.2,217.7L103.2,218.4L102.4,218.6L101.2,218.1L100.4,218.1L100.3,218.5L101.3,219.4L101.5,220.2L101.4,220.8L100.9,221L100,220.6L99.31,221.2L98.99,222.2L98.99,224.6L98.5,225.2L97.16,225.4L95.74,226.2L95.21,225.9L95.01,225.4L95.17,224.3L95.01,223.8L94.36,223.8L93.34,224.1L92.61,224.9L92.37,225.3L93.34,226.7L94.28,226.9L94.52,227.2L93.75,227.9L91.92,228.9L91.6,229.8L91.07,230.6L90.3,231.2L89.77,231.9L89.16,232.3L88.15,232.7L86.89,234.3L85.96,235.9L84.86,236.7L84.01,239.3L82.47,240.7L81.9,242.9L82.3,244.3L83.97,244.3L84.82,244.8L86.61,246.6L88.72,247.7L90.87,248.4L93.55,250.1L94.32,250.8L94.93,252.2L96.1,256.3L96.92,258.3L97,259.4L98.25,261.4L99.59,264.8L101.1,267.8L101.4,270.1L100.9,271.2L100.9,272.6L102.4,273.8L105.9,275.3L106.4,275.7L107.1,276.4L107.1,278.6L107.6,279.4L108.1,279.8L110.2,280.7L111,281.5L112,282.7L112.2,283.8L112.3,285.3L111.2,285.4L110.2,285.2L106.5,283.3L105.6,283.2L104.2,283.5L102.3,283.1L100.2,281L98.74,280.3L97.16,280L93.38,281.8L92.41,281.7L92.13,281.9L91.68,282.2L93.47,282.6L95.21,282L96.92,281.1L99.35,281.6L99.76,282.4L100.2,283.8L101.9,284.7L103.2,285.1L104.9,286.3L106.5,288.2L110,290.4L111.4,292.5L112,293.8L112.5,295.7L111.2,296.3L110.2,296.4L108.5,296.7L107.3,297.4L106,298.6L102.6,300.4L101.9,301.6L101.4,302.6L100.6,303.1L98.38,302.6L96.35,302.6L94.07,304L93.51,304.5L93.87,304.5L94.24,304.3L95.25,304.5L96.88,303.8L98.42,306L101.5,305.6L104.4,303.8L105.5,303.7L106.4,304L107.4,304.8L110.2,308L111.7,308.3L113.2,309.1L114,309.2L114.8,309.4L112.8,310.6L110.2,313.1L109.1,313.7L108.3,314.4L110.3,314.1L111.9,312.8L112.6,312.5L113.2,312.8L113.5,314.3L112.9,318.9L112.2,319L111.5,317.7L110.7,317.4L109.9,317.6L108.6,317.6L108.1,318.2L107.6,319L108.4,319.1L110.1,320.5L110.2,321.3L109.8,321.7L108.6,321.5L110,322.6L109.7,323.6L109.2,324.1L108.4,324.3L107.9,325.3L108.6,326.8L109.4,328.8L109.5,329.7L108.3,329.3L106.6,330.5L105.6,330.6L105,329.1L104.2,329.3L103.7,329.8L103,331.5L102.1,333L101.3,333.4L100.4,333.3L99.72,333.4L99.92,333.8L100.7,334.3L100.7,334.9L99.03,336.7L98.74,337.5L98.78,338.1L97.93,338.8L98.38,340.1L98.13,341L97.36,342.2L96.59,343L95.62,344.2L94.44,345L92.86,347.6L92.41,349L92.29,350.4L91.76,350.8L90.95,351.4L89.97,351.1L89.93,350.2L89.53,350.1L89.28,349.5L89.2,348.8L89.33,348.1L88.92,348.3L88.68,349L88.03,349.6L87.38,349.4L86.65,348.9L86.69,349.6L87.05,350.3L87.22,351L88.19,351.1L88.88,351.9L89.41,353.1L89.49,353.6L89.89,354.1L89.93,354.6L89,355L87.82,355.8L86.4,357.2L85.23,358.1L84.17,358.1L83.56,358L82.63,357.5L81.57,357.3L82.99,359.1L83.77,359.4L84.74,359.4L85.67,358.7L87.01,358.7L87.34,359.8L86.97,361L86.24,362.6L86.12,363.9L87.01,365.8L87.05,366.4L86.69,366.7L85.63,366.2L84.78,365.6L83.89,365.7L82.99,365.5L82.06,365.7L81.65,366.1L81.94,366.9L82.75,367.5L83.24,368.4L82.67,368.7L80.31,368.5L79.75,368.7L79.06,369.7L79.5,371.2L78.97,372.2L78,372.4L76.7,373.2L75.93,373.3L75.97,373.6L76.54,374L76.86,374.4L76.13,376L75.08,376.5L73.37,376.2L72.08,376.6L70.94,375.9L69.72,375.9L68.91,376.8L68.83,377.7L68.02,377.8L67.57,377.7L66.96,377.8L67.04,378.3L67.37,378.8L69.03,379L69.31,379.6L69.4,380.6L67.65,382.4L66.92,383.5L65.83,383.5L65.01,384.4L64.57,385.7L64,385.4L62.74,385.6L62.33,386.2L62.66,386.5L62.7,386.9L62.17,388.4L61.6,388.7L61.36,388.2L61.2,387.3L60.75,387.2L60.02,388L59.13,388.6L58.4,388.9L57.83,388.3L56.45,388L55.92,390.4L54.74,391.3L54.22,391.6L53.28,391.6L53.89,392L54.09,392.6L53.73,393.2L52.8,393.3L52.27,393.8L52.06,395.9L51.5,396.6L50.08,396.7L49.02,396.2L48.7,396.6L48.53,397L47.97,397.3L46.91,397.4L44.52,398.4L43.46,398.1L42.16,397.8L41.23,398.1L40.94,398.8L40.54,399.4L39.24,399.4L38.18,398.7L37.13,398.2L35.95,398.6L35.06,399.5L33.96,399.8L33.76,400.4L33.27,400.7L32.1,400.5L31.65,399.2L31,399L30.35,399.7L30.11,400.2L29.78,400.6L29.9,401.7L29.25,401.8L28.4,401.1L27.47,400.9L26.66,401.6L26.21,401.4L25.76,401.3L25.03,401.3L24.75,401.5L24.22,401.6L23.86,401.9L23.82,401.9L22.88,401.7L21.7,400.8L20.89,399.2L19.84,398.4L19.35,397.7L19.19,396.3L18.99,395.7L19.07,395L19.35,394.4L18.21,394.7L17.4,395.3L17.57,396L17.36,396.7L16.1,397L16.18,397.3L16.27,397.6L17.24,398.6L17.44,399.3L17.85,399.7L18.62,400.9L18.58,403.3L19.03,403.9L18.86,404.5L18.58,405.4L18.54,405.4L18.3,405.2L17.93,405.2L17.81,405.5L17.77,405.8L17.73,405.8L17.08,406L16.51,406.2L16.06,406.4L15.37,407.1L14.03,407.3L13.38,405.6L12.45,406.7L12.21,408.9L11.84,409.3L11.27,409.6L10.22,408.8L9.285,409.4L8.554,409.9L8.23,410.4L7.702,410.9L6.687,410.4L5.835,409.6L6.038,409L5.957,408.7L5.551,408.4L5.145,408.4L5.348,409.2L5.51,410.6L5.104,411L4.536,411.3L3.278,411.1L2.426,410.5L1.37,410.1L0.477,410L0.274,410.9L-0.334,411.6L-0.862,411.7L-1.43,411.6L-2.161,412.4L-2.486,412.9L-3.379,413.5L-5.733,413.8L-6.585,414.4L-7.681,414.3L-8.533,414.5L-9.061,414.4L-9.467,414.1L-9.994,414.1L-10.2,415.1L-11.54,415.5L-12.75,415.6L-14.09,416.9L-15.07,417.7L-15.76,417.8L-16.29,417.5L-16.57,416.3L-16.81,416.2L-16.98,417.3L-17.22,418.2L-17.71,418.7L-19.25,419.8L-19.7,421L-19.41,422L-17.34,422.2L-17.06,422.8L-17.26,423.3L-17.79,423.7L-17.91,424.3L-15.68,426.1L-15.6,426.8L-15.96,427.2L-16.37,428.1L-17.54,428.8L-20.06,429.2L-22.13,428.8L-22.78,428L-22.74,427.4L-22.21,427.5L-21.64,427.5L-21.81,426.9L-22.05,426.6L-23.02,426.1L-23.79,424.8L-23.63,423.8L-24.08,422.9L-24.52,422.2L-25.01,421.8L-25.26,421.3L-24.77,419.6L-25.05,418.7L-24.16,417.5L-23.92,416.2L-22.33,415.7L-22.21,414.5L-23.39,414.4L-24.16,413.5L-24.36,413.9L-24.97,413.9L-26.03,412.2L-26.35,411.9L-26.84,411.9L-26.59,413.8L-27.81,414.5L-28.83,414.8L-30.25,414.9L-31.06,415.1L-31.79,415L-31.63,414.4L-31.22,413.7L-31.59,413.1L-32.4,412.7L-33.62,412.7L-34.47,412.6L-35.28,412.7L-35.61,412.4L-36.38,411.5L-37.07,411L-37.35,410.4L-37.07,409.8L-37.31,409.4L-38.61,409.3L-38.57,410.3L-38.45,411.3L-38.08,412.2L-38.33,412.6L-38.98,412.9L-39.66,412.1L-39.99,411.9L-40.35,411.9L-40.6,412.8L-41.21,413.5L-42,413.5L-42,133ZM-11.41,432.4L-10.89,433L-10.52,433.7L-10.2,435.1L-10.04,436.5L-11.17,437.3L-12.19,437.6L-14.22,440.8L-14.66,441.8L-14.99,442.2L-15.11,442.7L-15.07,443.1L-15.6,444.6L-16.08,446.5L-16.37,447.3L-16.93,447.9L-17.71,448.2L-18.15,448.2L-18.6,448.4L-19.7,449.4L-20.91,450.2L-20.71,450.5L-20.71,450.9L-21.24,451.2L-21.81,451.2L-23.51,451.5L-24.16,452L-24.81,453.1L-25.05,453.2L-26.07,453.5L-26.88,453.6L-28.22,452.8L-28.87,452.6L-30.65,452.3L-32.4,451.8L-33.62,451.2L-36.09,449.8L-36.38,447.3L-36.82,445.9L-36.82,445.4L-36.66,441.1L-36.5,440.7L-36.17,440.3L-35.08,439.3L-33.82,438.5L-32.03,437L-30.7,436.2L-29.6,435.2L-30.25,435.2L-30.73,435.1L-30.25,434.2L-29.76,433.7L-29.19,433.5L-28.02,433.7L-26.92,433.5L-26.15,432.7L-25.38,432.5L-22.5,432.8L-20.51,432.4L-19.53,431.7L-19.05,431.6L-17.58,431.9L-17.02,432.6L-17.06,432.1L-17.02,431.6L-16.73,431.7L-14.82,432.6L-14.82,431.5L-14.7,431.1L-14.09,430.7L-13.81,430.7L-13.04,431.6L-12.35,432.1ZM17.77,405.8L17.81,405.5L17.93,405.2L18.3,405.2L18.54,405.5L18.54,405.5L18.01,405.7L17.85,405.8ZM23.82,401.9L23.86,401.9L24.22,401.6L24.75,401.5L25.03,401.3L25.76,401.3L26.21,401.4L26.66,401.6L26.7,401.6L26.94,402.1L26.86,402.6L27.31,402.9L27.43,403.3L26.94,403.6L26.9,404.2L26.66,404.6L25.2,403.9L24.02,403.6L22.92,403.7L22.56,403.3L22.48,403L23.73,402.3ZM26.25,405.6L25.97,405.8L25.2,404.9L25.16,404.6L25.76,404.6L26.41,405L26.41,405.3ZM23.61,405.6L22.27,405.6L21.99,405.5L21.83,405.2L22.31,404.8L24.14,404.1L23.69,404.8Z" fill="#D8E2E7" stroke="#3F464B" stroke-width="0.85" vector-effect="non-scaling-stroke"/><path d="M166.1,201.9L166.4,201.6L166.4,201.2L166.4,199.9L167.5,199L168.8,197.2L169.5,196.2L170.3,195.3L171.2,194.7L172.1,194.4L173.5,194.3L176.2,194.4L176.8,194.3L178.6,194.2L179.1,194.3L180.4,194.4L181.9,194.3L182.7,194L183.4,193.6L184,192.8L184.6,191.2L185.3,190L185.7,189.8L188.5,196.2L191.1,200.3L193.4,203.3L196.6,209.1L197.5,212.1L197.6,214L198.1,216.6L197.7,218.1L197.8,220.4L197.6,221.6L197.2,222.5L197.2,224.2L197.3,225.1L197.3,226.2L197.6,226.7L197.9,226.9L198.5,226.4L199.2,226.3L199.1,227.7L198.2,231.3L197.5,233.9L196.5,236.2L195.2,238.3L193.6,239.1L192.5,239.4L190.5,239.5L188.7,239.2L187.3,239.4L186.7,239.9L186.2,240.6L186.5,241.8L186.5,242.6L185.8,242.5L184.6,242L183.2,242L182.6,241.7L181.9,240.5L181.2,240.6L180,241.3L178.3,241.4L177.6,241.8L177.4,242.3L177.7,243L178.6,243.8L178.3,244.7L177.4,245.1L176.6,244L176.1,243L175.6,243L174.8,243.3L174.6,244.4L175,245.1L175.6,246L174.7,247L174.5,247.7L173.9,248.2L172.2,247.1L172.4,246.3L173.1,245.5L173.3,244.7L173,244.2L170.5,246.2L169,248.5L168.3,248.3L167.9,247.8L167.5,247.5L165.8,249L165.5,250.2L164.9,250.2L164.7,249.7L164.7,248.7L164.4,247.8L162.7,246.4L161.9,245.3L162.3,244.7L163.7,245L164.9,245L164.6,244.4L164.3,244.2L165,243.9L165.6,243.2L165.1,243.1L164.3,243.4L163.7,243.3L163.4,241.8L162.6,240.2L162.2,238.7L163,237.8L163.4,236.5L164.1,234.5L164.5,233.9L165.5,233.4L165.9,232.9L165.3,232.7L164.4,232.4L164.5,231.9L165.1,231.6L165.7,231L167,230.2L167.4,228.8L167.1,228.4L166.2,228.1L166.4,227.3L166.8,226.8L166.6,226.4L165.7,225.5L165,224.6L165.2,223.7L165.1,222.2L165.1,221L165.1,220.3L164.7,218.8L164.5,217.3L163.8,217.5L163.3,217.9L161.5,217.3L161,217.3L160.8,216.2L161.4,214.8L162.9,213.5L163.8,213.4L164.4,212.8L165.5,212.7L166.7,213.5L167.8,213.7L168.4,215.1L168.8,215.4L168.8,214.9L169.7,214.3L169.9,213.8L169.8,213.5L168.8,213.3L167.8,211.5L167.7,210.7L167.3,210.2L167.9,208.8L166.8,207.1L166.3,206.6L166.4,205.2L165.8,204.2L165.5,203.7L165.3,202.8L165.5,202.4L166,202.2ZM189.9,243.6L188.8,244.4L187.3,243.3L187,242.7L188.1,241.8L189,240.7L189.6,240.6ZM182.2,243.5L182.1,244.8L181.3,244.9L180.9,244L180.3,244.4L180.1,244.5L179.7,243.4L179.6,242.5L180.5,241.9L181.1,242.3L181.9,242.5ZM161.6,249.5L160.8,249.7L160.4,249.2L160.2,249.1L160.3,248.4L161.5,247.2L161.7,246.8L162.8,247.1L163.2,247.7L162.7,248.7ZM164.8,202.5L164.7,204.4L164.1,204.3L163.7,204.1L163.5,203.7L163.1,202L163.6,201.3L164.5,201.8ZM167.4,249.8L167.6,250.5L166.7,250.3L166.2,249.7L166.3,249.2L166.8,249.1ZM179.2,246.1L179.1,246.5L178.5,245.9L179.1,245.2ZM163.6,220.1L163.5,221L162.8,220.4L162.5,218.4L163.3,219ZM160.9,244.5L160.7,244.9L160.2,244.8L159.7,243.8L159.5,243.1L159,242.6L159.8,242L160.8,243.2ZM214.4,206.2L213.9,206.6L213.2,206.2L213.2,205.7L213.5,205.3L214.2,205.1L214.6,205.4ZM162.6,265L162.1,265.3L161.7,265.1L161.5,265L161,264.2L160.8,263.8L161.2,263.1L162.8,261.8L166.8,260.6L167.5,260.6L169.1,261.1L169.4,262.1L169.2,262.9L168.8,263.4L166.9,264.4L165.5,264.8Z" fill="#8B341D" stroke="#2C160F" stroke-width="1.1" vector-effect="non-scaling-stroke"/></svg>