<svg xmlns="http://www.w3.org/2000/svg" viewBox="0 0 360 440" width="360" height="440" role="img" aria-label="Regional map with Kuwait highlighted"><rect width="100%" height="100%" fill="#7FA6D6"/><path d="M94.34,482L94.61,480.5L95.89,479.8L96.24,479.3L95.25,478.1L95.32,477.4L97.52,475.3L98.37,474.7L99.79,474.1L100.9,474.1L102.2,474.4L103.3,475L104.4,476.1L105.6,477.2L107.4,477.7L108.6,477.5L109.7,478.1L110.4,477.8L111.4,477.2L112.9,477.2L114.3,476.5L118.2,476.2L122,476.4L126,475.8L129.9,475.9L133.8,476L134.8,476L135.6,476.4L139,478.2L141.5,478.5L146.6,479L152.1,479.5L156.8,480L160.8,479.6L164.1,479.2L165,479.3L166,480.4L167.2,482L94.34,482ZM179.3,482L180.7,478.2L181.8,475.5L184.2,472.4L186.3,469.9L189,466.4L190.5,464.6L193.5,460.8L196.3,459.4L201.7,456.6L207.1,453.8L210.6,452L213.6,451.2L218.6,450.5L224.4,449.6L230.3,448.8L236.5,447.9L243.5,446.9L248.2,446.3L254.3,445.4L259.4,444.7L263.8,444L268.5,443.4L269.4,445.5L270.2,447.6L271.1,449.6L272,451.7L272.8,453.8L273.7,455.9L274.6,457.9L275.5,460L276.3,462.1L277.2,464.1L278.1,466.2L278.9,468.3L279.8,470.4L280.7,472.4L281.6,474.5L282.4,476.6L283.3,478.6L284.7,479.2L285.5,481.1L285.9,482L179.3,482ZM353.6,301.5L354.9,303.3L355.1,315.3L355.4,316.1L354.7,316.3L353.9,317.2L353,318.6L351.8,319.3L350.8,320.1L349.8,321.1L349,321.4L347.9,320.1L347.2,318.8L347.3,318.5L347.9,318.4L348.1,317.7L347.8,316.7L347.1,316.4L346.1,316.3L345.2,316.7L344.3,317.6L343.7,318.5L343.6,320.4L343.9,322.6L343.9,323.6L343.4,324.9L343.2,326.8L343.6,328.2L343.9,329.1L343.9,329.8L343,332.1L343.8,332.5L346.3,332.7L347.1,334.3L347.6,335.3L347.5,336L345.6,336.5L343.4,337L341.8,336.8L338.8,337.5L337.3,338.6L337.8,339.3L338.3,339.8L338.5,341.3L338,343.3L337.3,345.3L336.2,347.7L335,350.5L333.4,354.8L332,358.1L331.9,360.5L331.9,362.1L331.7,365.2L330.4,366.9L330.1,367L328.5,366.7L328,366.7L326.5,366.5L324.2,366.2L321.2,365.8L317.6,365.3L313.6,364.8L309.4,364.2L305,363.6L300.6,363L296.4,362.5L292.4,361.9L288.9,361.5L285.8,361.1L283.6,360.8L282.1,360.6L281.5,360.5L279.9,360.3L278.9,359.1L277.9,357.7L276.8,356.3L275.7,354.9L274.6,353.5L273.5,352.1L272.5,350.7L271.3,349.3L270.3,347.9L269.2,346.5L268.2,345.1L267,343.7L266,342.2L264.9,340.9L263.8,339.4L262.7,338L261.6,336.6L260.9,335.6L260.5,334.6L260.4,331.8L260.4,331.2L261.1,330.1L261.5,330.8L262.3,331.9L263.7,331.7L264.3,331.9L264.8,335.7L265.8,337.1L267.1,337.7L271.3,338L273.8,337.4L279,334.9L281.7,334L289.2,334.2L295.1,335.2L304.4,335.8L306.3,335.7L311.2,333.7L314.3,331.9L316.2,331.3L317.4,329.6L318.2,327.4L318.9,325.9L319.8,325.2L320.7,323.9L321.3,321.9L323.1,319.8L330,314.8L334,310.5L334.4,309.2L336.6,307.1L338.3,304.9L346.6,298.4L348.3,295.7L349.3,292.7L349.3,292.5L350,292.4L351,292.8L351.2,295.1L350.8,297.2L350.7,299.4L350.6,300.6L351.4,301.6L352.7,302.1L353.2,302ZM353.3,310.6L353.4,309.6L353.2,309.1L352.4,309.1L352,309.9L351.9,311.1L352.5,311.1ZM295.2,331.8L293.7,331.9L292.4,331.1L295.2,330L296,329.5L296.7,328.5L297.4,329.3L296.7,330.7L296.2,331.3ZM281.1,331.1L280.7,331.3L280.4,330.1L280.4,329.8L281.4,329.2L281.8,330.2ZM306.9,333.5L306.9,334.3L304.9,334L304.4,334.4L302.7,334.2L301.1,333.7L302.2,332.8L305,331.7L306.3,332.7ZM317.5,327.8L317.3,328.2L316.8,328.2L315.4,327.8L314.9,327.2L315.8,326.5L316.2,326.4L316.8,327.2ZM290.8,-6.141L290.6,-4.956L289.5,-8.514L289,-12.43L289.7,-13.58L290.4,-13.49L289.7,-12.08ZM402,22.34L401,22.65L400,22.78L398,21.87L395.7,23.08L394.8,23.17L393.5,22.86L392.3,22.43L389.3,19.49L386.8,18.32L384.9,17.54L381.5,16.46L377.7,15.85L375.8,15.38L374.4,14.72L374.1,14.33L374.1,13.25L374,11.86L373.5,10.81L372.6,9.595L371.2,8.637L369,8.812L365.6,8.725L363,7.81L361,7.636L358.5,7.81L356.4,7.81L355,8.507L354.1,9.291L353.6,11.68L353.1,12.07L352.2,12.25L351.1,12.12L348.8,12.12L344.6,11.68L339.5,11.6L335.6,12.81L332.5,14.55L329.5,16.5L326.1,19.62L325.1,21.01L323,26.49L322.1,27.27L320.9,27.91L319.7,28L317.4,28.82L314.3,30.15L312.1,30.71L306.7,30.41L306.3,28.69L305.3,22.3L304.8,15.89L304.9,12.9L305.5,6.895L305.4,3.885L305.2,1.132L305.4,-1.537L305.8,-4.561L306.1,-7.678L305.8,-9.833L304.7,-11.55L302.9,-13.71L302.6,-14.99L302.5,-16.44L300.8,-16.58L299.2,-18.08L298,-18.87L295.3,-19.76L293.9,-19.8L292.6,-19.18L291.7,-17.86L291.1,-19.94L291.1,-22.11L293.3,-26.63L294.6,-25.3L296.3,-24.77L298.5,-24.68L300.5,-25.03L300.1,-26.58L299.2,-27.47L298,-28.14L297.5,-30.18L297.7,-32.32L298.2,-34.33L297.6,-35.13L296.6,-35.62L294.3,-35.58L291.4,-36.11L288.4,-36.34L287.7,-33.97L289.3,-30.85L287.9,-32.37L286.6,-34.42L284.8,-38.03L283.7,-42L402,-42ZM105.2,-42L105.5,-40.94L105,-40.49L104.7,-39.91L107.2,-38.48L110.1,-37.23L111.4,-37.01L114.8,-37.59L117,-37.68L119.2,-36.56L122.3,-33.75L125.7,-30.14L126.4,-29.03L126.7,-28.54L127.4,-27.7L126.7,-27.7L125.5,-28.5L122.8,-30.72L121.4,-29.74L120.2,-28.09L118.9,-21.84L117.9,-21.18L116,-21.22L113.7,-21.4L112.1,-21.09L111.7,-20.69L111.9,-20.02L112.4,-19.01L112.7,-17.73L112.8,-16.66L113.6,-15.69L114.8,-14.77L114.8,-13.84L114.6,-12.52L114.4,-11.55L114.1,-10.98L114.6,-9.437L115.8,-7.635L116.6,-6.976L116.3,-3.553L116.7,-2.019L117.1,0.082L117,3.535L117.2,4.365L117.5,4.67L118.7,4.801L119.7,5.107L120.2,5.674L120.1,6.11L118.7,7.679L118.6,8.812L118.2,10.42L117.7,11.34L116.5,13.12L115.8,14.9L115.4,16.37L115.7,17.07L117.9,17.28L119.1,18.32L122.3,20.44L122.8,21.31L122,22.61L122,23.13L122.4,23.82L122.6,25.02L122.6,26.36L122.6,28.13L123.1,28.43L125.3,30.07L126.9,31.75L127,32.26L126.2,33.55L126.4,35.05L126.3,35.4L125.7,34.84L124.5,34.63L123.2,34.58L122.4,35.01L121,36.17L119.2,37.46L117.7,38.66L116.8,39.47L116.1,39.34L115.5,38.61L115.3,37.63L115.3,33.89L115,32.73L114.3,31.92L113.5,31.44L112.6,31.19L111.5,31.14L110.1,32.26L108,33.38L104.9,33.29L102.8,33.08L101.7,32.86L97.59,31.14L96.74,31.1L95.18,30.37L93.41,29.81L90.28,30.89L88.94,30.63L87.09,29.72L86.45,29.98L84.39,32.73L80.85,35.74L78.93,36.21L78.01,33.25L77.16,32.09L76.73,31.92L75.81,31.57L75.17,31.79L73.04,33.81L69.64,35.05L66.8,35.78L62.26,36.73L58.85,37.16L57.36,37.2L54.17,36.81L51.33,36.21L48.49,36.26L46.37,36.51L41.33,38.7L32.74,43.19L26.22,45.37L22.6,46.27L19.76,46.74L14.86,46.78L10.89,46.44L8.124,46.48L6.563,45.93L4.434,44.13L1.738,42.3L0.603,41.91L-0.958,41.52L-3.228,41.35L-8.833,43.96L-10.61,44.69L-12.52,45.24L-16.35,46.82L-18.13,47.72L-20.26,47.63L-23.02,47.38L-25.36,47.46L-27,46.23L-27.85,44.86L-31.11,44L-33.45,43.79L-34.02,44.39L-34.66,46.27L-35.65,51.04L-35.79,52.27L-33.74,56.99L-33.88,57.71L-35.3,57.97L-37,58.05L-38.14,58.48L-38.99,59.24L-39.55,63.34L-41.47,64.11L-42,64.56L-42,-42ZM-42,64.56L-41.47,64.11L-39.55,63.34L-38.99,59.24L-38.14,58.48L-37,58.05L-35.3,57.97L-33.88,57.71L-33.74,56.99L-35.79,52.27L-35.65,51.04L-34.66,46.27L-34.02,44.39L-33.45,43.79L-31.11,44L-27.85,44.86L-27,46.23L-25.36,47.46L-23.02,47.38L-20.26,47.63L-18.13,47.72L-16.35,46.82L-12.52,45.24L-10.61,44.69L-8.833,43.96L-3.228,41.35L-0.958,41.52L0.603,41.91L1.738,42.3L4.434,44.13L6.563,45.93L8.124,46.48L10.89,46.44L14.86,46.78L19.76,46.74L22.6,46.27L26.22,45.37L32.74,43.19L41.33,38.7L46.37,36.51L48.49,36.26L51.33,36.21L54.17,36.81L57.36,37.2L58.85,37.16L62.26,36.73L66.8,35.78L69.64,35.05L73.04,33.81L75.17,31.79L75.81,31.57L76.73,31.92L77.16,32.09L78.01,33.25L78.93,36.21L78.93,36.56L78.72,37.41L76.52,39.86L73.47,43.19L71.34,45.29L67.65,48.83L64.95,49.59L60.34,50.87L59.14,52.1L57.93,54.06L57.29,56.78L57.08,58.48L56.94,61.65L58.07,64.91L59.07,68.08L59.21,70.14L59.14,72.16L58.14,74.35L57.01,77.33L56.37,80.69L56.09,86.97L56.09,92.31L55.94,93.18L54.1,96.93L51.9,101.3L50.84,102.3L46.01,103.7L40.76,106.8L34.8,110.4L29.48,113.7L23.88,117.1L17.99,120.6L13.8,123.1L8.266,126.4L3.157,129.6L-1.951,132.9L-5.924,135.3L-11.81,139.2L-15.29,141.5L-20.47,144.8L-24.94,147.7L-30.26,151.2L-36.93,150.1L-39.06,149.5L-40.83,147.9L-42,147.1L-42,115.4L-42,115.4L-40.83,115.5L-39.55,115.7L-39.2,115.4L-39.27,115L-40.83,114.1L-40.9,113.3L-40.55,112.5L-39.41,111.3L-38.06,110.4L-37.43,110.2L-35.87,108.4L-34.87,106.3L-36.43,101.2L-37.43,100.5L-38.99,99.75L-39.91,99.63L-39.98,99.3L-38.77,98.05L-37.85,96.93L-38.84,95.85L-40.55,95.35L-41.19,96.47L-42,96.5L-42,64.56ZM-42,380.3L-35.72,380.3L-29.27,380.2L-28.98,385.1L-28.13,389L-25.08,394.5L-22.53,397.4L-21.6,399.1L-21.53,399.8L-21.6,400.5L-22.39,399.7L-23.73,399.2L-23.95,401.7L-23.59,403.6L-23.31,407L-22.24,410.7L-23.02,414.1L-22.88,419.9L-21.53,426.8L-21.82,431.1L-19.55,441.4L-17.42,447L-16.21,448.5L-14.86,449.2L-12.31,449.7L-8.549,452.5L-5.499,455.6L-4.434,457.2L-3.015,458.9L-2.022,458.6L-1.384,458.2L-0.461,459.6L4.292,462.6L5.002,464L3.299,465.4L1.313,467.7L0.816,468.7L0.603,469.2L0.39,470L-0.177,470.6L-1.313,471.6L-1.738,472L-2.022,472.7L-2.661,473.1L-3.441,473.2L-4.08,473.4L-5.073,473.9L-6.492,473.7L-7.982,474.1L-8.549,474.6L-9.685,475.1L-10.89,475.2L-11.25,475.3L-12.38,476.1L-13.73,477.2L-15.36,477.9L-15.93,478.1L-16.64,478.8L-17.62,482L-42,482ZM-28.63,307.4L-29.13,307.4L-30.54,305.9L-31.32,304.8L-32.18,304.1L-35.94,302.6L-36.5,301.6L-35.87,300.7L-35.51,301.6L-34.8,302.2L-31.68,303.5L-28.2,306.4L-27.56,306.7ZM167.2,482L166,480.4L165,479.3L164.1,479.2L160.8,479.6L156.8,480L152.1,479.5L146.6,479L141.5,478.5L139,478.2L135.6,476.4L134.8,476L133.8,476L129.9,475.9L126,475.8L122,476.4L118.2,476.2L114.3,476.5L112.9,477.2L111.4,477.2L110.4,477.8L109.7,478.1L108.6,477.5L107.4,477.7L105.6,477.2L104.4,476.1L103.3,475L102.2,474.4L100.9,474.1L99.79,474.1L98.37,474.7L97.52,475.3L95.32,477.4L95.25,478.1L96.24,479.3L95.89,479.8L94.61,480.5L94.34,482L79.34,482L79.34,482L78.36,479.5L77.66,475.8L72.9,470.9L66.94,466.5L65.1,463.9L62.12,458.8L60.63,454.7L56.65,450L56.51,448.2L55.87,446L54.95,443.5L54.45,441.6L50.41,433.1L49.13,431.7L48,429.8L47.71,428.3L47.36,427.5L44.59,426.1L41.9,422.5L34.02,416.8L30.12,416.3L27.07,414.2L24.8,411.5L22.39,406.9L18.13,401.9L14.58,394.8L15.71,392.2L15.64,390.4L14.51,387.3L13.3,384.9L12.45,382.7L13.16,379.5L13.37,375.8L14.08,373.9L14.58,371.8L13.94,367.5L12.74,365.3L12.88,363.8L11.53,363L10.39,361.4L11.53,361.4L9.472,359.1L8.691,357.8L7.911,354.7L6.918,352.3L3.725,346.9L2.164,343.5L-1.313,339.3L-5.073,336.1L-7.414,334.7L-8.549,333.4L-10.54,333.3L-12.66,331.4L-14.15,331.4L-16,331.1L-18.2,327.4L-20.04,324L-23.16,319.6L-22.39,318.4L-21.46,316.5L-21.89,314.1L-22.39,312.4L-23.73,309.4L-28.27,301.7L-29.48,300.6L-31.39,299.3L-32.53,296L-33.1,293L-36.22,291.6L-41.47,280.8L-42,280.1L-42,220.1L-42,220.1L-40.83,219.2L-37,216L-34.73,212.1L-32.53,208.4L-31.54,207.6L-28.13,206.9L-22.74,205.8L-17.42,204.7L-17.06,204.3L-15.79,201.3L-14.22,197.4L-13.87,197L-13.52,196.6L-9.685,194.4L-7.414,193.1L-10.68,189.3L-13.8,185.6L-17.28,181.5L-20.18,178.3L-24.66,173.5L-27.49,170.3L-22.46,168.9L-16.99,167.2L-11.46,165.6L-4.789,163.6L0.39,162.1L8.195,159.8L11.96,158.7L12.66,158.4L15.57,155.6L19.97,156.4L26.57,157.6L32.96,158.7L39.7,160L41.9,161.1L48.35,164.9L52.61,167.4L57.51,170.4L63.68,174.1L67.86,176.6L73.33,179.8L77.51,183.5L82.91,188.2L88.72,193.2L93.55,197.2L100.2,202.6L106.8,208L113.2,213.2L118.4,217.4L124.8,222.6L125.4,222.8L131.9,223.4L140.8,224.2L149.7,225L157.7,225.8L161.2,225L164.9,225.5L170,226.2L173.1,226.6L178.9,227.4L180.7,230.9L181.3,233.2L181.9,235.6L183.6,237.7L187.6,237.6L191,237.6L195.4,237.5L198.8,237.5L199.9,239.6L200.4,241.7L202.5,246.7L205.4,250.5L206,251.9L206.5,254.1L206,254.9L205.8,255.8L207.9,257.9L211.5,259.7L212.9,260.1L214.4,260.9L213.2,262.1L215.4,265L217.8,267.8L220.4,268.5L224,272.8L229.2,275.6L232.5,279.3L232.2,279.4L231.2,279L230.1,278.5L229.7,279L229.7,280.5L230.1,282.3L231.7,283.9L233.2,285L233.7,287.1L232.5,291.7L232.2,291.6L231.4,291.3L230.6,291.2L230.1,291.4L231.1,294.7L232,297.2L233.2,299.2L234.2,302.1L235,303.3L238.5,306.4L239.5,309L240.5,313.8L242.6,316.5L243.8,318.5L245.4,320.3L246.4,322.7L247.8,324.5L248.6,324.9L249.6,325.1L251.1,325.1L252.7,324.7L254.5,324.2L255.9,325.1L257.3,325L257.4,325.9L256.5,327.1L255.3,330L257,330.5L258.6,330.7L259.8,331.2L260.4,331.2L260.4,331.8L260.5,334.6L260.9,335.6L261.6,336.6L262.7,338L263.8,339.4L264.9,340.9L266,342.2L267,343.7L268.2,345.1L269.2,346.5L270.3,347.9L271.3,349.3L272.5,350.7L273.5,352.1L274.6,353.5L275.7,354.9L276.8,356.3L277.9,357.7L278.9,359.1L279.9,360.3L281.5,360.5L282.1,360.6L283.6,360.8L285.8,361.1L288.9,361.5L292.4,361.9L296.4,362.5L300.6,363L305,363.6L309.4,364.2L313.6,364.8L317.6,365.3L321.2,365.8L324.2,366.2L326.5,366.5L328,366.7L328.5,366.7L330.1,367L330.4,366.9L331.7,365.2L333.1,367.6L334.4,369.6L336,372.4L337.8,375.3L339.5,378.1L340.7,380.2L340,382.3L339.3,384.7L338.6,387L337.8,389.3L337.1,391.7L336.4,394L335.7,396.4L335,398.7L334.2,401L333.5,403.4L332.8,405.7L332.1,408L331.4,410.4L330.7,412.7L329.9,415L329.2,417.3L328.5,419.7L327.6,422.5L325.5,423.2L322.1,424.4L318.7,425.6L315.3,426.8L311.9,428.1L308.5,429.3L305.2,430.4L301.8,431.6L298.4,432.8L295,434L291.6,435.2L288.2,436.4L284.8,437.6L281.4,438.8L278,440L274.7,441.2L271.3,442.4L268.5,443.4L268.5,443.4L263.8,444L259.4,444.7L254.3,445.4L248.2,446.3L243.5,446.9L236.5,447.9L230.3,448.8L224.4,449.6L218.6,450.5L213.6,451.2L210.6,452L207.1,453.8L201.7,456.6L196.3,459.4L193.5,460.8L190.5,464.6L189,466.4L186.3,469.9L184.2,472.4L181.8,475.5L180.7,478.2L179.3,482L167.2,482ZM-34.66,300.2L-34.87,300.5L-35.72,299.7L-35.65,298L-34.94,297L-35.01,298.3L-34.66,299.7ZM254.5,324.2L252.7,324.7L251.1,325.1L249.6,325.1L248.6,324.9L247.8,324.5L246.4,322.7L245.4,320.3L245.9,319L246.2,318.1L244.8,311.8L244.4,307L244.5,306L245.3,304.9L246.7,302.4L247.3,299.9L249.3,294.3L251.3,292.1L254.4,290.5L256.9,293.6L259.9,296L260.5,298.7L259.6,300.8L258.8,304.3L259.3,305.8L259.4,307.2L260.3,309.5L261.1,312.5L261.2,314.5L260.8,316.5L259.7,318.1L257.7,322.9L257,323.4ZM402,417.2L401.4,417.8L401.4,417.8L400.2,418.1L399.8,418L399.8,415.3L402,412.8L402,417.2ZM285.9,482L285.5,481.1L284.7,479.2L283.3,478.6L282.4,476.6L281.6,474.5L280.7,472.4L279.8,470.4L278.9,468.3L278.1,466.2L277.2,464.1L276.3,462.1L275.5,460L274.6,457.9L273.7,455.9L272.8,453.8L272,451.7L271.1,449.6L270.2,447.6L269.4,445.5L268.5,443.4L271.3,442.4L274.7,441.2L278,440L281.4,438.8L284.8,437.6L288.2,436.4L291.6,435.2L295,434L298.4,432.8L301.8,431.6L305.2,430.4L308.5,429.3L311.9,428.1L315.3,426.8L318.7,425.6L322.1,424.4L325.5,423.2L327.6,422.5L328.5,419.7L329.2,417.3L329.9,415L330.7,412.7L331.4,410.4L332.1,408L332.8,405.7L333.5,403.4L334.2,401L335,398.7L335.7,396.4L336.4,394L337.1,391.7L337.8,389.3L338.6,387L339.3,384.7L340,382.3L340.7,380.2L339.5,378.1L337.8,375.3L336,372.4L334.4,369.6L333.1,367.6L331.7,365.2L331.9,362.1L331.9,360.5L332,358.1L333.4,354.8L335,350.5L336.2,347.7L337.3,345.3L338,343.3L338.5,341.3L338.3,339.8L337.8,339.3L337.3,338.6L338.8,337.5L341.8,336.8L343.4,337L345.6,336.5L347.5,336L347.6,335.3L347.1,334.3L346.3,332.7L343.8,332.5L343,332.1L343.9,329.8L343.9,329.1L343.6,328.2L343.2,326.8L343.4,324.9L343.9,323.6L343.9,322.6L343.6,320.4L343.7,318.5L344.3,317.6L345.2,316.7L346.1,316.3L347.1,316.4L347.8,316.7L348.1,317.7L347.9,318.4L347.3,318.5L347.2,318.8L347.9,320.1L349,321.4L349.8,321.1L350.8,320.1L351.8,319.3L353,318.6L353.9,317.2L354.7,316.3L355.4,316.1L357.4,321.9L360.4,327.2L363,330.1L365.7,334.1L369.9,337.8L371.8,339L379.5,341.6L383.7,342.5L389.6,343.5L393.6,345.4L394.9,345.6L397,345L398.6,345L402,347.5L402,403.5L402,403.5L400.8,405.4L397.7,411.8L396.5,413.8L394,414.3L392.4,414.1L391.3,413.5L391.8,411.8L392,409.8L390.5,410L389.2,410.4L386.1,415.2L384.4,417.3L384.1,419.9L383.2,423.4L382.1,426.5L381.5,429.1L381.5,430.6L382.5,434.3L382.5,438L383,440.3L383.4,443L382,443.8L380.8,444.2L375.9,444.5L371,445.3L366.6,446.9L364,448.5L360.7,451.9L358.6,460.6L355.3,464.4L353.1,465.1L347.7,465.4L340.2,466.4L337.5,467.3L333.1,472.7L332.7,474.3L333.6,475.6L333.9,476.9L333.5,478.1L331.4,481.5L331,482L285.9,482ZM353.6,301.5L353.2,302L352.7,302.1L351.4,301.6L350.6,300.6L350.7,299.4L350.8,297.2L351.2,295.1L351,292.8L350,292.4L349.3,292.5L351,289.3L351.7,288.8L352.2,289L353.8,288.7L354.6,287L355.2,286L355.9,286.1L356.2,286.7L356,289.3L356,291.5L355.1,298.1L354.2,299.3L353.8,300.2ZM353.3,310.6L352.5,311.1L351.9,311.1L352,309.9L352.4,309.1L353.2,309.1L353.4,309.6ZM-42,96.5L-41.19,96.47L-40.55,95.35L-38.84,95.85L-37.85,96.93L-38.77,98.05L-39.98,99.3L-39.91,99.63L-38.99,99.75L-37.43,100.5L-36.43,101.2L-34.87,106.3L-35.87,108.4L-37.43,110.2L-38.06,110.4L-39.41,111.3L-40.55,112.5L-40.9,113.3L-40.83,114.1L-39.27,115L-39.2,115.4L-39.55,115.7L-40.83,115.5L-42,115.4L-42,96.5ZM-42,147.1L-40.83,147.9L-39.06,149.5L-36.93,150.1L-30.26,151.2L-24.94,147.7L-20.47,144.8L-15.29,141.5L-11.81,139.2L-5.924,135.3L-1.951,132.9L3.157,129.6L8.266,126.4L9.685,131.6L11.03,136.7L12.45,142L13.87,147.1L12.38,147.5L13.52,151.4L15.5,150.8L17.56,150.4L18.48,152.9L15.57,155.6L12.66,158.4L11.96,158.7L8.195,159.8L0.39,162.1L-4.789,163.6L-11.46,165.6L-16.99,167.2L-22.46,168.9L-27.49,170.3L-24.66,173.5L-20.18,178.3L-17.28,181.5L-13.8,185.6L-10.68,189.3L-7.414,193.1L-9.685,194.4L-13.52,196.6L-13.87,197L-14.22,197.4L-15.79,201.3L-17.06,204.3L-17.42,204.7L-22.74,205.8L-28.13,206.9L-31.54,207.6L-32.53,208.4L-34.73,212.1L-37,216L-40.83,219.2L-42,220.1L-42,147.1ZM78.93,36.21L80.85,35.74L84.39,32.73L86.45,29.98L87.09,29.72L88.94,30.63L90.28,30.89L93.41,29.81L95.18,30.37L96.74,31.1L97.59,31.14L101.7,32.86L102.8,33.08L104.9,33.29L108,33.38L110.1,32.26L111.5,31.14L112.6,31.19L113.5,31.44L114.3,31.92L115,32.73L115.3,33.89L115.3,37.63L115.5,38.61L116.1,39.34L116.8,39.47L117.7,38.66L119.2,37.46L121,36.17L122.4,35.01L123.2,34.58L124.5,34.63L125.7,34.84L126.3,35.4L126.3,35.57L127,37.33L128.6,43.88L129.5,44.69L130.6,45.37L131.4,46.35L131.6,47.33L131.6,48.83L131.6,50.57L132,51.89L132.6,52.91L133.2,53.42L134.1,53.47L135.1,53.72L135.7,54.74L137.9,62.12L138.1,63.05L139,63.34L140.5,63.22L142,63.98L143.7,65.16L145.2,67.4L146.3,67.78L149.5,67.44L154,67.78L156.1,68.96L155.8,69.64L154.2,70.44L151.4,71.36L150.6,72.96L150.1,74.98L150.2,76.12L150.9,77.38L152.9,79.89L153,80.78L153.4,82.03L153.7,82.91L153.3,84.58L151.5,85.71L149.1,86.97L144.3,92.48L144,93.68L144,96.93L143.5,97.89L142,97.84L140.8,97.68L140.8,98.84L140,100.3L139.6,101.7L141.4,104.8L141.7,106.4L141.4,107.9L139.7,110.5L138.8,112.3L139,112.6L140.3,113.3L144.3,119L145.5,121L147.2,120.4L147.8,120.5L148.3,120.8L148.6,121.5L148.6,122.3L148.2,123.6L150.3,124.1L151.1,125.4L153.6,129.8L153.4,131.1L152.3,133.1L152.3,134.5L152.5,135.8L152.9,136.2L156.6,136.4L158.1,136.9L161.9,139.1L166.2,142.5L169.7,145.3L172.8,147.7L176,147.5L176.9,148L177.7,148.7L178.6,150.6L180.5,155L182,156.5L184.4,160L186.7,163.3L185.2,167.8L183.8,172.5L183.8,178.4L183.8,181.6L186.8,181.7L190.3,181.9L190.3,185.7L190.3,189.6L190.4,193.9L191.4,194.1L193,195L193.7,196.5L194.6,197.2L195.6,197.3L196.6,198L197.6,199.3L198,200.3L197.7,200.9L197.9,202L198.6,203.7L199.5,204.5L200.8,205.4L199.1,206L197.1,205.5L192.9,203.6L191.5,203.5L189.8,204.3L189.7,204.9L185.2,202.8L183.7,202.4L183.1,202.3L180.5,202.4L176.9,202.7L174.8,203.6L173.3,204.5L172.7,205.4L172.4,205.9L171.2,208.6L169.9,212L168.5,215.1L165.8,219.3L164.4,221.3L161.2,225L157.7,225.8L149.7,225L140.8,224.2L131.9,223.4L125.4,222.8L124.8,222.6L118.4,217.4L113.2,213.2L106.8,208L100.2,202.6L93.55,197.2L88.72,193.2L82.91,188.2L77.51,183.5L73.33,179.8L67.86,176.6L63.68,174.1L57.51,170.4L52.61,167.4L48.35,164.9L41.9,161.1L39.7,160L32.96,158.7L26.57,157.6L19.97,156.4L15.57,155.6L18.48,152.9L17.56,150.4L15.5,150.8L13.52,151.4L12.38,147.5L13.87,147.1L12.45,142L11.03,136.7L9.685,131.6L8.266,126.4L13.8,123.1L17.99,120.6L23.88,117.1L29.48,113.7L34.8,110.4L40.76,106.8L46.01,103.7L50.84,102.3L51.9,101.3L54.1,96.93L55.94,93.18L56.09,92.31L56.09,86.97L56.37,80.69L57.01,77.33L58.14,74.35L59.14,72.16L59.21,70.14L59.07,68.08L58.07,64.91L56.94,61.65L57.08,58.48L57.29,56.78L57.93,54.06L59.14,52.1L60.34,50.87L64.95,49.59L67.65,48.83L71.34,45.29L73.47,43.19L76.52,39.86L78.72,37.41L78.93,36.56ZM351.5,273.6L349.6,276.2L346.8,278.5L345.6,277.8L344.8,277.8L342.8,278.6L341.4,278.8L338.8,280.3L336.4,281.1L334.8,281L334.2,280.8L333.9,279.8L333.9,279.4L334.9,279.6L338.5,278.2L343.1,276L343.5,275L342.8,273.4L343,273L345.9,273.8L349.2,272.2L351.9,271.8L353.3,272.9ZM402,303.5L397.6,302.8L393.4,303L391.2,302.8L387.6,301.7L385.9,300.6L383.2,301.4L381.9,299.9L374.1,298.4L372.6,295.6L371.5,293L371.5,290.4L369.5,285.7L368.9,278.9L368.2,276.2L367.1,273.9L365.7,272L363.8,269.9L362.1,269L354.8,267.4L353.4,267.6L350.1,268.7L346.6,271L340.9,272.3L339.7,273.3L338.3,275.6L336.4,276.9L333.9,276.6L331.1,277.9L326,281.6L323.3,282.7L321,282.7L318.6,280.9L313.2,278.5L309.7,277.8L304.8,278.3L302.6,277.9L298.6,275.1L297.6,273.1L295.3,271.7L288.3,268.7L282.6,264.7L281.5,263.2L280.8,260.9L278.3,258.2L272.7,255.9L269.5,253.6L265.8,253L262.3,253.1L260.8,252.7L259.4,251.6L254.7,246.7L254.7,244.7L251.8,239.9L251.1,238.1L250.4,233.4L249.6,232.1L246.6,230.1L246.1,228.8L246.8,227.1L246.8,225.8L245.2,224.6L242.8,223.9L242.3,222.4L242.7,219.5L242.3,217.7L240.2,214.8L237.2,211.8L234,207.5L232.8,206.4L232,203.5L230.9,200L229.2,199.8L220.8,203.9L218.3,201.6L210.9,197.5L210.3,196.9L209.8,196L210.8,195.5L211.7,195.3L213.5,196L214.7,195.2L214.2,193.8L212.4,192.9L209.8,193L210.5,194.3L208.1,195.5L207.6,197.1L208,199L208.2,201.8L207.2,203.1L206.5,203.7L203.3,203.9L201.8,205.1L200.8,205.4L199.5,204.5L198.6,203.7L197.9,202L197.7,200.9L198,200.3L197.6,199.3L196.6,198L195.6,197.3L194.6,197.2L193.7,196.5L193,195L191.4,194.1L190.4,193.9L190.3,189.6L190.3,185.7L190.3,181.9L186.8,181.7L183.8,181.6L183.8,178.4L183.8,172.5L185.2,167.8L186.7,163.3L184.4,160L182,156.5L180.5,155L178.6,150.6L177.7,148.7L176.9,148L176,147.5L172.8,147.7L169.7,145.3L166.2,142.5L161.9,139.1L158.1,136.9L156.6,136.4L152.9,136.2L152.5,135.8L152.3,134.5L152.3,133.1L153.4,131.1L153.6,129.8L151.1,125.4L150.3,124.1L148.2,123.6L148.6,122.3L148.6,121.5L148.3,120.8L147.8,120.5L147.2,120.4L145.5,121L144.3,119L140.3,113.3L139,112.6L138.8,112.3L139.7,110.5L141.4,107.9L141.7,106.4L141.4,104.8L139.6,101.7L140,100.3L140.8,98.84L140.8,97.68L142,97.84L143.5,97.89L144,96.93L144,93.68L144.3,92.48L149.1,86.97L151.5,85.71L153.3,84.58L153.7,82.91L153.4,82.03L153,80.78L152.9,79.89L150.9,77.38L150.2,76.12L150.1,74.98L150.6,72.96L151.4,71.36L154.2,70.44L155.8,69.64L156.1,68.96L154,67.78L149.5,67.44L146.3,67.78L145.2,67.4L143.7,65.16L142,63.98L140.5,63.22L139,63.34L138.1,63.05L137.9,62.12L135.7,54.74L135.1,53.72L134.1,53.47L133.2,53.42L132.6,52.91L132,51.89L131.6,50.57L131.6,48.83L131.6,47.33L131.4,46.35L130.6,45.37L129.5,44.69L128.6,43.88L127,37.33L126.3,35.57L126.3,35.4L126.4,35.05L126.2,33.55L127,32.26L126.9,31.75L125.3,30.07L123.1,28.43L122.6,28.13L122.6,26.36L122.6,25.02L122.4,23.82L122,23.13L122,22.61L122.8,21.31L122.3,20.44L119.1,18.32L117.9,17.28L115.7,17.07L115.4,16.37L115.8,14.9L116.5,13.12L117.7,11.34L118.2,10.42L118.6,8.812L118.7,7.679L120.1,6.11L120.2,5.674L119.7,5.107L118.7,4.801L117.5,4.67L117.2,4.365L117,3.535L117.1,0.082L116.7,-2.019L116.3,-3.553L116.6,-6.976L115.8,-7.635L114.6,-9.437L114.1,-10.98L114.4,-11.55L114.6,-12.52L114.8,-13.84L114.8,-14.77L113.6,-15.69L112.8,-16.66L112.7,-17.73L112.4,-19.01L111.9,-20.02L111.7,-20.69L112.1,-21.09L113.7,-21.4L116,-21.22L117.9,-21.18L118.9,-21.84L120.2,-28.09L121.4,-29.74L122.8,-30.72L125.5,-28.5L126.7,-27.7L127.4,-27.7L127.7,-27.12L130.9,-21.88L132.4,-20.33L133.2,-19.05L133.8,-17.59L134.7,-16.58L136,-16.05L137.6,-14.63L138.7,-13.53L140.4,-11.29L142.3,-10.4L149.1,-8.777L152.9,-8.03L154,-7.81L156.9,-8.909L160.3,-8.733L161.6,-8.689L166.1,-13.31L167.5,-14.9L170.2,-15.69L171.7,-17.55L174.1,-19.76L177.1,-21.88L179.8,-23.79L181.9,-24.94L185.6,-27.65L188,-28.58L190,-28.54L193.1,-25.39L195.6,-22.5L196.4,-21.26L195.1,-20.16L192.7,-19.05L192.3,-18.25L192.2,-17.24L192.2,-16.27L192.6,-15.47L195.5,-13.62L195.9,-12.61L195.9,-11.59L195.5,-10.93L194.9,-10.58L192.8,-10.05L191.1,-9.481L190.5,-8.865L190,-8.162L190,-7.415L190.5,-6.536L194.2,-4.123L194.5,-3.246L195.2,-2.063L196.1,-1.318L197.6,-1.143L198.3,-0.662L201.7,3.754L202.6,4.059L206.6,3.099L207.2,3.142L207.3,4.234L207.8,10.47L208.3,13.68L209,16.81L210.1,19.66L211.4,22.35L213.2,24.03L217.1,26.06L219.1,26.62L224.1,27.01L229.1,27.91L232,28.86L233,29.51L233.7,30.5L236.2,35.23L240,38.57L247.8,43.58L251.6,45.24L264.3,48.4L272.7,48.23L296,42.17L303.8,40.63L306.7,40.63L304.9,41.82L302,42.55L303.8,43.41L306.5,43.53L307.7,43.41L308.7,42.64L308.8,41.35L308.7,40.07L307.4,34.41L306.7,30.41L306.7,30.41L312.1,30.71L314.3,30.15L317.4,28.82L319.7,28L320.9,27.91L322.1,27.27L323,26.49L325.1,21.01L326.1,19.62L329.5,16.5L332.5,14.55L335.6,12.81L339.5,11.6L344.6,11.68L348.8,12.12L351.1,12.12L352.2,12.25L353.1,12.07L353.6,11.68L354.1,9.291L355,8.507L356.4,7.81L358.5,7.81L361,7.636L363,7.81L365.6,8.725L369,8.812L371.2,8.637L372.6,9.595L373.5,10.81L374,11.86L374.1,13.25L374.1,14.33L374.4,14.72L375.8,15.38L377.7,15.85L381.5,16.46L384.9,17.54L386.8,18.32L389.3,19.49L392.3,22.43L393.5,22.86L394.8,23.17L395.7,23.08L398,21.87L400,22.78L401,22.65L402,22.34L402,303.5ZM-17.62,482L-16.64,478.8L-15.93,478.1L-15.36,477.9L-13.73,477.2L-12.38,476.1L-11.25,475.3L-10.89,475.2L-9.685,475.1L-8.549,474.6L-7.982,474.1L-6.492,473.7L-5.073,473.9L-4.08,473.4L-3.441,473.2L-2.661,473.1L-2.022,472.7L-1.738,472L-1.313,471.6L-0.177,470.6L0.39,470L0.603,469.2L0.816,468.7L1.313,467.7L3.299,465.4L5.002,464L10.96,476L13.04,482L-17.62,482ZM-42,366.7L-41.9,366.8L-38.21,371.8L-30.05,378.1L-29.27,379.8L-29.27,380.2L-29.27,380.2L-35.72,380.3L-42,380.3L-42,366.7ZM241.5,296.4L240.8,298.1L240.2,297.5L238.7,294.6L239.1,292.6L238.4,289.7L238.8,288.9L240.6,288.4L241.1,288.6L240.5,289.5L241.5,291.1L241.7,293.8ZM127.4,-27.7L126.7,-28.54L126.4,-29.03L128.3,-29.43L131.6,-30.63L132.5,-30.05L133.4,-28.85L133.9,-27.83L134,-25.96L134.3,-25.65L136,-26.27L136.6,-25.52L137.9,-24.59L139.9,-23.7L143,-25.12L144.5,-25.48L145.8,-25.43L146.4,-24.99L146.7,-23.52L146.4,-21.71L146.1,-20.73L146.7,-20.02L149.2,-18.25L150.2,-17.33L149.7,-15.65L151.6,-11.55L152.2,-9.965L152.9,-8.03L149.1,-8.777L142.3,-10.4L140.4,-11.29L138.7,-13.53L137.6,-14.63L136,-16.05L134.7,-16.58L133.8,-17.59L133.2,-19.05L132.4,-20.33L130.9,-21.88L127.7,-27.12ZM221.2,-42L220.7,-41.66L219.2,-38.88L218,-32.55L216.2,-26.58L216.2,-23.88L217.1,-21.26L216.9,-19.98L216.1,-19.45L215.1,-18.34L213.7,-12.96L213,-11.86L212.2,-11.2L212,-11.86L212,-13.27L210,-14.5L209.1,-13.09L208.3,-10.14L206.9,-7.019L206.9,-6.449L207.2,3.142L207.2,3.142L206.6,3.099L202.6,4.059L201.7,3.754L198.3,-0.662L197.6,-1.143L196.1,-1.318L195.2,-2.063L194.5,-3.246L194.2,-4.123L190.5,-6.536L190,-7.415L190,-8.162L190.5,-8.865L191.1,-9.481L192.8,-10.05L194.9,-10.58L195.5,-10.93L195.9,-11.59L195.9,-12.61L195.5,-13.62L192.6,-15.47L192.2,-16.27L192.2,-17.24L192.3,-18.25L192.7,-19.05L195.1,-20.16L196.4,-21.26L195.6,-22.5L193.1,-25.39L190,-28.54L188,-28.58L185.6,-27.65L181.9,-24.94L179.8,-23.79L177.1,-21.88L174.1,-19.76L171.7,-17.55L170.2,-15.69L167.5,-14.9L166.1,-13.31L161.6,-8.689L160.3,-8.733L160.2,-11.06L160.3,-12.87L160,-13.93L158.6,-15.38L158.5,-16L159,-16.36L160.1,-16.14L161.5,-16.22L162.2,-16.8L160.7,-18.7L159.3,-19.98L158.1,-20.82L157.9,-21.35L157.9,-21.71L158.1,-22.15L160.1,-23.21L160.3,-24.14L160.2,-25.25L157,-26.85L154.6,-26.23L152.5,-28.05L151.2,-29.43L149.5,-30.9L148,-31.74L146.5,-33.62L144,-35.53L142.4,-36.07L142.4,-36.38L142.7,-36.74L143.4,-37.01L147.9,-36.96L148.4,-37.27L148.7,-38.12L149.3,-39.33L150,-41.17L150,-42L221.2,-42ZM150,-42L150,-41.17L149.3,-39.33L148.7,-38.12L148.4,-37.27L147.9,-36.96L143.4,-37.01L142.7,-36.74L142.4,-36.38L142.4,-36.07L144,-35.53L146.5,-33.62L148,-31.74L149.5,-30.9L151.2,-29.43L152.5,-28.05L154.6,-26.23L157,-26.85L160.2,-25.25L160.3,-24.14L160.1,-23.21L158.1,-22.15L157.9,-21.71L157.9,-21.35L158.1,-20.82L159.3,-19.98L160.7,-18.7L162.2,-16.8L161.5,-16.22L160.1,-16.14L159,-16.36L158.5,-16L158.6,-15.38L160,-13.93L160.3,-12.87L160.2,-11.06L160.3,-8.733L156.9,-8.909L154,-7.81L152.9,-8.03L152.2,-9.965L151.6,-11.55L149.7,-15.65L150.2,-17.33L149.2,-18.25L146.7,-20.02L146.1,-20.73L146.4,-21.71L146.7,-23.52L146.4,-24.99L145.8,-25.43L144.5,-25.48L143,-25.12L139.9,-23.7L137.9,-24.59L136.6,-25.52L136,-26.27L134.3,-25.65L134,-25.96L133.9,-27.83L133.4,-28.85L132.5,-30.05L131.6,-30.63L128.3,-29.43L126.4,-29.03L126.4,-29.03L125.7,-30.14L122.3,-33.75L119.2,-36.56L117,-37.68L114.8,-37.59L111.4,-37.01L110.1,-37.23L107.2,-38.48L104.7,-39.91L105,-40.49L105.5,-40.94L105.2,-42L150,-42Z" fill="#D8E2E7" stroke="#3F464B" stroke-width="0.85" vector-effect="non-scaling-stroke"/><path d="M195.5,213.1L194.4,213.6L193.7,213.4L192.9,212.1L191.7,209.1L192.4,208L192.3,207.5L192.5,207.1L192.8,206.9L193.2,205.5L193.7,205L194.6,206L196.9,209.5L196.9,210.9L196.8,211.5ZM198.8,237.5L195.4,237.5L191,237.6L187.6,237.6L183.6,237.7L181.9,235.6L181.3,233.2L180.7,230.9L178.9,227.4L173.1,226.6L170,226.2L164.9,225.5L161.2,225L164.4,221.3L165.8,219.3L168.5,215.1L169.9,212L171.2,208.6L172.4,205.9L172.7,205.4L173.3,204.5L174.8,203.6L176.9,202.7L180.5,202.4L183.1,202.3L183.7,202.4L185.2,202.8L189.7,204.9L189.5,205.8L190.2,208.3L191.6,211L192.8,213.2L192.9,214.3L191.9,214.1L191,213.7L189.5,213.3L186.5,216.2L184.6,217.8L184.6,218.3L187.1,218.9L188.8,218.9L190,218.5L191.1,219.2L191.8,221L192.1,222.4L193.7,227.6L195.1,229.4L196.8,232.5L197.4,234.1L197.8,235.5Z" fill="#8B341D" stroke="#2C160F" stroke-width="1.1" vector-effect="non-scaling-stroke"/></svg>