<svg xmlns="http://www.w3.org/2000/svg" viewBox="0 0 360 440" width="360" height="440" role="img" aria-label="Regional map with Laos highlighted"><rect width="100%" height="100%" fill="#7FA6D6"/><path d="M182,311L182.2,311.5L182.1,312.8L181.7,314.1L181.9,314.7L181.5,315.1L180.8,312.6L179.8,311.6L179.6,311.2L180.2,311.2L181.1,310.6L181.6,310.5ZM225.8,181.4L225.2,181.5L223.9,181.5L222.8,182.6L222,183.1L220.8,183.4L219.4,184.1L219.1,185.1L219,185.9L218.8,186.8L216.7,188.1L216.1,188L215.7,187.5L215.1,187.6L214.6,187.8L214.2,187.8L213.6,188.1L212.9,188L212.2,187.6L211.8,187.5L211.3,187.5L211.2,187.9L211.9,189.8L212.1,190.6L209.8,193.1L210.1,194.7L209.5,196L208.1,197L205.5,199.5L204.4,199.6L203.5,200.1L201.6,204.3L201.5,205.8L201.3,206.8L201.3,207.8L200.5,209.8L199.6,210.6L199.5,211.7L200.7,213.9L200.8,214.3L201.5,215.5L201.9,216.3L202.4,217.2L204.4,219.3L205.3,220L206.3,220.5L208.3,222.5L209.2,223.7L208.8,224.6L209,226.4L207.6,225.8L207.8,226.1L209.4,227L211.9,230.5L214,232.2L216.2,234.2L216.9,236L218.8,237.2L221,239L220.9,239.4L221.5,239.9L223,240.8L223.9,241.8L224.2,242.7L224.7,242.9L225.4,242.6L226,242.6L226.4,242.6L227,243.7L227.9,244.6L228.4,245.4L228.7,245.3L229,245.4L229.1,246.1L229.3,246.6L230.5,248L231,249.2L232.5,251.3L233.6,252.5L234.4,253.1L235.2,253.7L236.1,256L236.6,258.1L237.5,260.4L238.2,261.4L238.2,263.3L238.8,265.2L239.4,266.5L239.6,267.9L239.7,268.5L240,269L240.6,271.3L240.5,272.4L240,271.3L240.1,274.4L240.5,276L240.3,277.9L240.7,278.6L241.5,280.9L242,281.7L241.9,284.4L242.2,285.8L241.5,284.9L241,284L240.3,284.5L239.7,285.2L240.7,288.1L239.5,287.9L239.7,291.8L240.1,292.7L240.1,293.1L240,293.7L239.7,293.1L239.7,292.5L239.5,292.6L239.5,292.9L239.1,293.6L239,294.5L239.4,295.2L239.5,295.8L239.2,296.4L238.7,297.2L237.7,297.3L237.4,298.7L237.1,300.2L235.2,300.4L233.9,301.8L232.2,302.3L230.7,303.6L229.1,304.8L228,304.9L227.1,305.2L226.1,307.2L224.3,307.5L221.2,309.1L220.1,309.9L219.2,310.2L217.8,310.9L217.5,310.6L217,310L215.8,309.7L215.2,309.1L215.1,308.2L214.9,307.9L214.7,308.4L214.5,310.4L214.3,310.9L213.8,311L212.7,310.5L211.8,309.3L210.4,310.1L210.9,310.2L211.5,310.2L212,310.4L212.4,311.1L212.3,311.6L212.1,312.1L210.9,312.1L209.2,312L208.9,312L210.4,312.8L211.8,313.2L212.5,313.7L212.5,314.1L211.7,314.7L211.1,315.5L211,316L211,316.5L210.3,317L209.9,316.9L208.7,316.1L205.2,312.9L205.7,313.8L209.4,317.4L210,318.6L210.1,319.5L209.7,319.9L209.1,320.4L207.9,320.5L205.9,319.1L202.8,315.8L201.8,315.4L204.9,319.1L205.5,320L206,321.1L205.8,321.7L205.5,322.3L198.1,325.7L197,327.2L196.1,329L194.6,330L193.8,331L191.3,331.5L189.9,331.3L191.3,329.6L190.4,329L190.4,324.6L190.8,319.9L191.4,317.5L192.3,316.9L193.5,316.5L193.5,316L193.4,315.4L192.8,314.6L192.1,314.3L191.1,314.1L190.3,313.1L189.7,313.1L188.7,313.5L188.1,313L187.9,312.4L187,311.5L186.1,310.7L186.5,310.6L187,310.1L187.6,309.5L189,309.5L190.4,309.5L190.8,309.3L191.4,308.7L192.3,307.9L193,307.4L193.2,307.1L192.9,306.2L192.7,305.3L193,305L194.3,305.2L195.7,305.6L196,305.8L196.8,304.7L197,304.6L197.6,304.6L198.9,304.4L200.3,304.1L200.9,304.2L201.5,304.9L202,305.6L202.3,305.6L203,305.3L203.6,305.7L204.8,306.3L205.5,306.4L205.1,304.9L205.5,303.9L205.5,303.6L204.8,303.1L202.5,301.2L202.1,300.7L202.1,299.8L202,298.5L201.8,297.7L201.9,297.2L202,296.8L202.4,296.6L202.8,296.6L203.2,296.2L203.7,295.4L204.8,295.5L206.3,295.9L207.5,296.2L208.2,296.2L208.3,296.1L208.3,295.6L208.4,293.6L208.3,293.2L209.2,293L210.7,293L211.5,292.9L212.2,292L214.1,291.7L215.4,290.6L216.7,289.4L217.2,289.1L218,288.9L218.5,289L219.3,289.6L219.8,289.2L220.5,288.4L220.9,287.7L221.1,286.4L220.9,284.5L220.6,283L220.2,281.9L220.2,280.8L221,278.6L221.6,276.1L221.5,275.1L220.8,273.6L220,271.8L219.2,269.7L218.9,269.4L218.7,268.8L218.5,268.2L218.9,266.1L218.9,265.4L219.9,264.4L220.4,263.3L220.8,262.1L220.7,261.5L220.6,260.2L220.7,259.6L220.5,259.1L220.2,258.3L220.4,257.8L221.1,257.4L221.4,256.7L221.9,255.9L222.2,255.1L221.8,254.5L221.2,253.5L220,252.7L218.7,251.6L218,250.9L217.5,250.2L217,249.4L216.7,248.8L217,248.4L218.9,247.4L219.2,247.1L219.4,246.5L219.3,246L218.8,245.7L218.2,245.5L217.3,244.9L215.6,243.2L214.9,242.8L214.1,242.4L213.7,241.9L213.2,240.5L213,240.4L212.5,240.8L211.9,241.2L211.5,241.1L211,240.7L210.8,240.2L210.3,239.5L209.8,238.9L209.6,236.9L209.6,236.3L209.3,235.3L208.9,235L208.4,234.8L207.4,233.1L206.7,232.3L203.7,230L203.4,229.6L202.6,228.6L201.2,227.3L200.2,226.2L199.5,225L199.2,224L199.1,223.3L198.3,222.2L197.6,221.3L197,221L196.2,220.8L195.5,220.3L194.3,219.1L193.8,218.3L193.5,217.8L193.5,217.2L193.7,216.3L194.1,215.8L194.1,215.4L193.8,215.1L192.4,214.5L189.3,213.6L188.1,212.9L187.1,212.1L186.3,211.5L182.5,209L181.4,208.6L180.4,208.1L180.1,207.7L180.1,207.3L180.5,206.9L181.6,206.3L182,205.6L181.9,204.6L181.4,203.6L181.7,203.3L182,203.2L182.7,203.2L184.2,203.2L187.4,204L187.9,203.9L189.6,202.3L190.3,201.4L190.4,200.6L190.8,200L191.7,199.2L191.7,198.4L191.2,197.4L190.8,197L190.4,196.8L189.1,197L188.9,196.7L188.7,196L188.6,195.5L188.2,194.9L186.8,194.5L185.7,194.3L185.4,194.1L185.8,193.6L186.6,193.1L187.3,192.8L187.7,192.3L187.8,191.7L187.2,191.2L186.4,190.7L185.2,189.6L183.5,188.5L182.4,188.1L181.9,188.2L180,189.1L179,189.7L178.1,190.9L177.2,191.1L176.3,190.6L175.3,190.1L172.5,189.4L171.3,188.8L168.8,185L168.4,184.3L168.7,183.4L168.8,182.2L169.1,181.4L169.5,180.6L169.6,179.9L169.5,179.3L169.2,178.9L168.7,178.8L168.4,178.6L168,177.8L167.8,177.9L167.6,178.9L167.2,179.3L166.7,179.5L166.3,179.3L166.1,178.9L166,178.2L165.7,177.2L165.4,176.6L164.4,176L163.9,175.1L162.3,173.3L160.9,172L160.3,170.9L160.9,170.4L161.6,169.8L162.3,168.8L163.1,167.6L163.4,166.9L163.7,166.6L164.2,166.4L164.7,166.5L165.6,167L167,167.6L168.2,168.3L168.7,169.1L169.4,169.8L169.9,170L170.2,170L170.9,169.4L171.6,168.9L171.7,168.3L172.3,167.7L173.1,166.8L173.5,166.2L173.8,166.1L174.1,166.3L175.4,168.2L175.6,168.3L176,168L176.5,166.6L177.1,166L177.2,166.1L180.3,168.9L180.6,168.9L181,168.8L181.2,168.4L181.4,167.4L181.9,166.3L182.9,165.8L183.7,165.6L183.9,166.1L184.6,166.8L185.4,166.9L187.2,165.7L187.8,165.5L188.4,165.5L189,165.5L189.6,165L190.2,164.4L190.4,163.2L190.6,162.1L191,161.7L191.5,161.4L192.4,161L194.6,159.9L195.1,159.4L195.5,159.1L196.4,159.6L197.4,160.5L198,161.1L198.4,161.8L198.6,162.5L200.2,163L201.2,163.7L201.9,164.3L202.6,164.2L203.2,164.1L203.7,163.6L204.4,163.6L205.3,163.7L205.7,163.9L206.5,164.9L206.8,165.1L207.5,165L208.7,164.6L209.7,164.4L210.7,164.9L212.4,166L211.9,166.8L211.5,167.7L210.8,168.4L210.2,168.5L209.8,169.4L209.7,170.7L209.8,171.3L210.3,171.5L210.8,171.9L211,172.5L211.1,173.8L211,175.2L211.1,175.7L211.5,175.6L211.8,175.4L212.5,175.7L213.5,176L214,176.4L214.5,176.4L214.9,176.7L215.1,177.4L215.6,177.9L216.9,178.9L217.9,178.9L218.8,180.2L219.7,179.8L220.1,180.3L222,180.1L223.3,179.6L223.8,179.7L225,180.7ZM210.6,330.4L210.2,330.4L210,330.1L211.1,329.4L210.9,329.9L211,330.1ZM216.7,310.9L215.8,311.6L215.7,311L216.5,310.6L216.8,310.3L217.1,310.3ZM213.3,189.7L213.2,189.9L212.7,189.3L212.3,189.1L212.6,188.3L213.2,189.2ZM221.6,184.9L220,186.4L219.4,186.4L219.9,184.6L220.2,184.2L221.2,184.8ZM220.7,188.3L220.1,188.7L219.3,188.6L220.2,188L220.7,187.3L221,187.1L221,187.7ZM215.2,190.5L214.8,190.6L213.9,189.6L214.3,189.1L215.4,189.4L215.6,189.7L215.6,189.9L215.3,190.3ZM165.7,296.3L165.5,297.5L164.9,297L165,296.4L165.3,296.1ZM163.7,292.7L163.7,293L163.2,292.8L163,292.9L162.3,292.8L162,291.2L162,290.9L162.5,291L163.2,291.8L163.5,292.3ZM118.7,339.2L118.6,340L118.2,340L117.7,340.5L117.5,340.6L117.1,338.9L117.5,336.5L117.8,336.2L118.1,336.8L119,337.1L118.6,338.5ZM137.9,195.6L137.8,196.3L138.1,196.5L138.5,196.2L139,195.4L139.5,194.9L140.1,194.8L140.7,195.4L141.4,196.5L142.1,197.2L142.3,197.3L142.6,197.8L142.6,198.4L142.3,199.5L141.8,200.7L141,202.3L141.3,203.6L142.3,204.7L143.5,205.4L144.9,205.2L145.6,204.9L146.1,204.4L146.7,204.1L147.3,204L149.5,204.4L150.1,204.8L150.2,205.5L150,207.4L150.3,208.8L150.9,210.2L150.9,211.6L150.2,213.7L149.6,215.8L148.9,216.8L148.4,217.4L148.3,217.9L148.3,218.3L148.8,218.9L149.3,219.7L149.4,220.5L149.3,221.4L149,222.7L147.7,225.5L146.7,228L147.3,228.5L148.2,228.8L148.9,229.2L149.6,229L151.1,227.5L152.4,226.4L153.9,225.3L154,225.2L155.4,224.4L156,223.6L156.4,222.7L156.9,222.3L157.5,222.5L158.3,222.1L159.3,221.1L160.1,220.6L160.6,220.7L161.5,221.3L162.8,222.5L164.1,223.3L165.1,223.5L165.6,223.9L165.6,224.6L165.8,225L166.3,225.2L166.5,225.1L166.5,224.8L166.9,224.4L168,223.7L169,223.4L170,223.2L170.7,222.7L171.1,221.5L171.8,220.5L172.3,220L173,219.8L173.2,219.5L172.9,219.1L172.9,218.7L173.3,218.3L174.2,218.1L175.6,218.2L177.1,218.6L179,219.3L180.2,219.6L180.7,219.3L181.9,220.5L183.5,223.2L184.9,225.2L186.1,226.6L187.3,227.7L188.6,228.4L189.6,229.4L190.4,231.3L189.8,233.9L189.6,236.2L189.7,238.9L190.5,241L191.9,242.5L192.8,243.7L193,244.6L194.1,245.4L196.2,246L197,246.6L196.7,247.2L196.7,247.8L197,248.5L197.6,249L198.8,249.5L199.5,250L199.7,250.5L199.6,251.3L199.4,252.4L198.9,253.3L198.2,253.9L198.1,254.4L198,255.1L198,256.6L198.4,257.6L198.6,258.9L198.3,259.9L198.1,262L198,262.8L197.8,263.5L197.2,264.2L196.3,264.8L195.2,265.4L194.5,265.6L194.4,265.8L193.9,266.4L193.3,267L192.8,267L192.5,266.7L192.3,266.3L192.1,265.4L191.1,265L190,264.7L187.7,265.1L185.9,265.4L183.8,265.1L181.9,265.5L181.1,265.5L180.2,265.5L179.3,265.5L178.4,265.3L176.8,264.8L176.2,264.8L174.9,265.3L173.6,265.6L172.3,265.8L170.5,266.7L169.1,268.1L168.7,269L168,270L167.1,271.5L165.9,272.9L165,273.6L165.3,273.9L165,274.4L163.7,274.6L162.7,274.7L162.5,274.9L162.6,277.8L163,278.9L163.6,280.3L164.1,281L164.4,283.1L164.5,284.9L165.9,286.1L166.8,287L167.4,287.7L167.2,288.2L166.8,289.7L167.2,291.6L169.2,295.7L169.4,296L169.1,296L168.8,295.2L167.8,293.9L167.4,292.5L166.2,290.9L165.6,290.3L165.3,290.8L165,291.4L163.8,290.6L162.8,289.7L161.8,288.1L161.7,288.5L161.5,288.8L160.4,287.5L159.3,286.5L158.3,286.2L157.7,285.8L157.1,285.3L155.8,284.7L152.7,285.5L148.7,284.9L147.2,285.5L146.6,285.1L146.2,284.4L146.6,283.2L146.7,280.8L147.1,279L146.9,277.7L147.1,277L147.3,276.2L146.7,275.8L143.9,275.2L143.3,274.6L142.5,275.2L139.2,275.6L137.9,276.1L136.7,277.1L136.4,278.4L137.1,279.2L137.5,280.6L136.3,283.8L136.1,284.7L136.6,288.6L136.4,290.7L135.8,292.1L134.7,293.3L134.3,295.5L133.5,296.5L132.4,298.7L131.6,301.6L131.1,302.9L130.8,305.3L128.5,308.9L128,311L127.2,311.8L127.5,312.4L127.5,313.4L127.2,316.2L127.2,318.4L127.5,319.6L128.6,322.1L128.3,322.8L128.2,323.7L129.1,324.2L129.8,324.3L133.4,323.2L134.7,323.5L135.2,324.6L135.5,325.5L136.1,330.5L136.4,331.4L137.2,332.3L138,333.2L138.3,333.1L138.3,332.7L138.4,332.3L139.1,333.3L139.7,335L141.6,344.4L142.2,345.6L142.6,346.8L141.5,346.2L141.1,344.1L140.8,343.2L140.4,343.1L139.7,343.1L139.7,342.8L140.2,342.1L140.1,341.3L139.4,340.6L138.3,341.1L138.4,342.6L138.8,343.7L140.7,346.2L141.3,347.2L142,347.5L143.1,347.4L144.4,348.4L145.4,349.4L147.9,350.9L149.5,350.8L151.1,350.4L152.2,350.5L153.3,350.9L154.6,352.1L156.7,355.3L160.1,357.9L159.7,358.5L159.5,359.5L158.2,360.8L158,361.6L157.5,362.6L156.6,363.1L155.8,363.2L155.3,363.1L155,362.9L154.5,362L154.2,361.7L153.9,361.6L152.2,362.3L150.6,363L150.3,363.6L149.9,364.3L149.4,364.6L149,364.7L148.6,364.3L148,363.7L147.5,363.2L147.7,362.3L148.6,361.1L148.7,360.2L148.6,358.7L148.3,357.9L148.1,357.9L147.6,357.7L146.3,357.9L145.7,356.9L145.4,355.8L145,355.4L144.6,355.2L143.6,355.6L142.9,355.4L140.4,354.4L139.5,352.9L139,352.9L138.5,353L138.4,353.4L138.1,355.1L137.9,355.6L135.1,352.2L133.2,350.7L133.4,348.2L132.8,347.6L132.1,347.6L131.5,346.9L132,345.3L131.3,345.6L130.2,345.6L129.4,345.2L128.7,343L128.3,342.4L127.4,341.2L126.2,341.2L125.8,340.7L125.9,339.3L125.1,338.5L123.9,337.8L123,337.4L122,335.2L121.3,334.6L120.6,334.2L119.7,334.5L119.5,335.3L118.9,336L118.2,335.9L117.6,335.5L116.8,333.3L116.7,331.9L116.9,329.4L117.8,327.1L118.3,323.5L119.1,321.2L119.7,320.4L120.5,317.3L122,313.2L122.2,312.4L122.5,311.4L122.8,310.5L122.8,309.1L122.6,308.3L122.6,307.9L123,307.4L124.1,306.4L125.6,304.9L127.5,302.8L129.4,299.6L130.3,297.7L130.7,297L131.1,296.8L131.7,296.2L132.2,295.5L132.2,295.1L131.2,291.6L130.5,290.4L130.2,289.1L130,288.1L129.8,287.2L129.9,286.3L129.5,285.8L128.7,285.1L127.8,284.1L127.3,282.5L127.3,281.6L126.8,280.8L126.6,280L126.9,279.2L127.3,278.5L127.3,275.4L127.1,274.5L126.9,272.9L126.3,271.7L125.5,270.3L124.6,269.1L122.2,266.9L120.5,265.5L119.7,264.2L118.7,262.7L117.9,261.6L116.9,260.2L116.4,258.4L116.2,256.4L116.3,255.7L116.8,255.3L117.4,254.9L117.9,254.9L119.2,253.9L120.2,254L120.4,253.8L120.5,253.4L120.3,251.6L120.4,249.2L120.6,247.2L120.8,245.9L123.3,244.4L123.9,243.7L124.1,243L124.1,242.4L123.9,241.9L123.5,241.6L121.9,242.9L121.6,242.6L120.8,240.5L120.5,239.8L120,239L119.5,237.9L119.4,236L119.1,235.1L117,233.1L116.1,232L114.9,230.4L113.4,228.6L111.8,226.8L111.1,225.7L110.9,225.5L110.8,225L111.2,223.8L111,222.6L110.3,221L110,220L110,219.7L109.7,219.5L108.8,219.6L108,218.9L107.2,217.3L107.2,217L107.4,217L108.4,217.3L108.7,217.2L109.4,216.8L110.5,216.5L111.1,216.3L111.3,216.2L111.4,215.8L110.9,212.1L111,211.3L112,209.7L111.8,208.1L112.1,205.8L113.2,204.3L114.1,203.5L114.3,202.4L114.7,202.1L115.4,202.2L116.8,203.1L117.4,203.1L118.3,203.1L119.3,203.1L119.7,203L122.7,202.1L123.3,202L124,202.1L124.4,202.1L124.9,201.7L125.2,201.1L125.6,198.9L125.8,198.5L126.2,198.2L126.8,198L127.6,198L128.5,198.4L129.1,198.5L129.8,198.3L130.4,198L130.8,197.6L131,197.2L130.8,196.3L130.4,195.2L130.5,195.1L131.3,195.3L132.5,195.6L133.4,195.5L134,195.3L134.6,194.8L135.3,194.3L136,194.5L136.6,194.9ZM137.4,318.9L137.3,319L136.8,318.7L136.5,318.3L136.3,317.8L137,317.8L137.3,318.3ZM137.3,320.1L137.4,320.8L137.1,321.5L136.1,322L135.8,321.4L135.9,320.4L136,320.2L137,320.2ZM132.8,354.7L132.6,354.8L132.1,353.9L132.7,352.6L133.2,354.2ZM120.8,338.8L120.7,339L120.1,336.8L120.9,337.4ZM117.6,326.2L117,326.3L117,325.7L117.2,325.3L117.5,325.2L117.6,325.8ZM126.2,342.7L126.5,344L126.1,343.8L125.8,343.2L125.8,342.3L125.9,342.2ZM371.6,167.9L370.9,169.4L370.4,170.9L370.1,172.3L370.2,173.7L370,175.1L369.7,176.4L368.6,176L368,175.1L367.9,173.5L367.1,171.7L366.8,171.1L365.7,170.1L364.6,169.6L363.8,168.8L364,168.9L363.3,167.9L362.9,166.8L362,163.6L361.7,162.9L361.3,162.2L361.1,161.5L361.3,160.7L361.7,159.6L361.9,158.5L361.7,156.9L361.8,155.4L362.1,154.7L367.3,145.3L368.8,143.3L369.7,142.3L370.4,141.1L371.1,139.7L372,138.4L372.6,138L375.6,136.9L376.5,135.8L377.3,135.4L378.1,135.4L378.7,136L379.2,136.6L379.7,136.9L381,137.5L381.6,138.1L381.9,139.2L381.1,140.1L380.7,141L380.6,142L380.7,143.3L380.7,144.6L379.7,147.6L378.7,149.5L378.4,150.5L378,152.8L377.4,155.2L376.8,158.2L376,161.2L375.4,162.5L374.8,163.7L373.3,166ZM342.5,144.7L343,145.5L342.8,146.1L341.2,145.8L341.2,145.3L341.7,145.4ZM181,413L179.3,413.7L177.4,413L178,411.9L179.3,411.7L180.3,412L180.8,412.3L181.2,412.6ZM402,272.9L400.6,273.1L400,273.7L400.7,275.1L401.7,276.2L402,276.5L402,282.3L402,282.3L400.9,282.2L398.4,280.8L397.3,280.6L397.1,280L397.2,278.7L396.2,277.1L396,276.5L395.7,276.1L392.7,274.4L392.3,274.1L391.4,272.7L389.3,270.7L388.8,270.5L388.1,270.5L387.9,271L388.2,271.7L388.3,272.4L388.3,273.1L388.4,273.6L389.4,274.7L389.5,275.2L390.2,276.6L390.3,278.2L389.4,278.9L388.4,278.2L388.4,277.5L388.2,277L387.2,275.5L386.9,275.2L385,273.7L383.5,272.1L380.2,270.4L379.8,270.3L379.2,270.4L378.7,270.6L377.1,271.5L376.5,272.1L376.5,273L375.3,273.7L373.8,273.8L372.6,273.3L371.6,272.4L370.7,272.4L369.7,271L368.5,270.8L367.4,271.9L367.2,269.7L367.2,267.5L367.5,266.8L368,266.3L370.6,264L371,263.2L370.8,262.2L370.2,261.4L369.3,260.9L368.2,260.7L367.5,260.2L366.9,259.5L366.4,260.8L366.8,262.8L366.9,264.1L366.5,264.6L365.8,264.6L365.2,264.4L364.8,264L364.4,262.6L363.5,261.8L363.1,260.5L362.7,260.3L361.9,260.4L361.2,259.8L360.8,258.3L360.7,256.8L360.4,255.4L359.8,254.2L359.6,253.1L359.1,248.4L359,247.9L358.8,247.6L358.2,247L357.7,246.4L357.6,245.8L357.7,243.5L357.9,242.9L358.4,242.7L359,243.1L359.5,243.7L360.1,244L360.7,244.3L361.7,245.7L362.1,245.9L363.3,245.9L364.1,245.7L364.4,245.2L364.6,244.6L364.7,243.9L364,241.8L363.7,240.3L363.7,239L363.9,237.6L364.9,235.3L365,233.8L364.9,231.6L365.1,230.4L365,229.7L364.5,228.6L364.3,227.3L366,221.2L366.5,220L366.9,218.7L367,217.1L368.3,216.6L369.4,216L370,216L370.6,216.2L372.1,215.8L372.6,215.8L372.6,215.8L374.3,216.4L378.1,218.6L379.5,219.2L380.9,219.6L382.1,219.7L383.1,219.2L383.5,218.7L384.3,217.3L385.1,217.2L385.7,217.7L386,218.3L386.2,219.3L386,220.3L385.2,221.2L384.7,222.3L384.4,225.9L384.4,227L384.7,228.1L385.3,229.7L385.7,230.2L386.7,230.8L387,231.2L387.1,232L387.2,232.7L387.9,233L388.5,233.4L388.3,234.1L387.9,234.9L387.4,236.9L385.2,241.4L385.1,242.4L384.2,244.3L382.4,244.6L380.3,245.6L379.2,246.3L378.2,247.3L377.8,248.5L378.1,249.1L378.3,249.7L378.3,250.3L378,250.9L377,252.2L376.6,253.3L376.1,253.7L375.9,254.3L376,255L376.4,255.6L377.6,258.1L378.9,260.5L379.2,260.8L379.3,261.1L378.5,261.8L378.5,262.9L378.7,264.1L379.9,266.9L380.1,267.7L380.5,268.3L381,268.9L381.7,269.4L383.6,270.3L384.3,270.4L385.1,270.5L385.2,269.9L385.9,269.7L385.7,269.1L384.9,268.4L384.9,267.9L385.3,267.6L385.9,267.4L387,266.6L388.2,265.9L389.7,266L391.2,266.4L392.3,266.7L393.2,267.5L394,268.7L394.7,270.1L394.6,270.8L394.5,271.4L394.5,272.1L395,272.5L396.5,272.6L397.2,271.5L397.3,270.4L396.8,269.9L397,269.4L397.5,268.9L398.1,269.3L398.7,270L401,270.8L401.5,270.8L402,271L402,271L402,272.9ZM330.2,333.1L329.2,333.9L329.3,332.9L329.6,331.9L330.6,330L331.4,329.4L332.7,327.9L333.4,327.1L335.1,325.6L336.6,324L337.2,323.9L337.7,323.9L338.2,323.7L339.2,322.8L341.8,319.9L343.9,317.8L346.1,315L347.1,314.2L347.4,313.9L349.4,311.4L350,311L350.7,310.8L351.2,310.4L351.6,310L352.3,308.9L352.6,307.6L352.4,306.9L352,305.8L352.6,304.3L352.9,303.7L354.3,300.7L354.7,300.1L355.3,300.4L355.4,301L355.1,302.3L355.1,302.9L355.4,303.5L355,304.6L356,307.4L356.8,309.1L356.8,309.7L355.8,310.8L355.2,311.1L353.8,311.4L353.2,311.7L352.3,312.5L351.7,313.7L351.5,314.3L351.3,314.7L348.5,315.5L347.3,316L346.7,316.4L346.4,317L346.6,318.1L344.3,322L343.6,323L342.8,323.9L341.8,324.5L340.5,324.8L339.4,325.6L338.7,326.9L337.8,328.1L336.7,329L335.5,329.8L334.3,330.4L333.1,330.8L332.8,331.3L332.5,332L332,332.3L331.4,332.5ZM388.2,297L389.5,297.6L390.8,297.1L392.1,297.2L393.1,298L392.8,298.5L392.7,299L395,297.9L395.6,297.9L395.6,299L395.5,299.9L395.2,300.8L394.7,301.8L394,302.7L393.2,303.4L392.1,303.8L391.7,304.2L391.5,304.7L391.5,305.4L391.3,306L390.2,306.3L388.5,307.5L384.9,308.3L383.9,308.9L383.2,309.6L382.6,310.2L382.2,310.4L382,310.1L382,309.8L382.5,308.1L382.4,307.5L382.1,306.8L382.3,305.5L382.9,304.3L383.2,302.9L383.4,300.3L383.8,296.7L383.8,296.3L383.4,295.8L382,295.4L381.5,295L381.8,294.3L382.3,293.8L383,293.8L383.6,294.3L385.9,295.2L387.2,296ZM395.3,326L394.6,326.1L393.8,326.1L393.3,325.5L392.4,323.1L391.3,322.5L390.1,322.1L389.5,321.7L389,321.3L387.3,318.9L387.2,317.4L387.4,316.6L388,315.8L388.5,315.6L389.9,315.6L390.7,315.5L392.3,314.4L392.4,314L392.4,312.2L392.2,310.9L391.8,309.7L392.3,309.1L392.8,308.6L393.4,307.5L393.5,306.7L393.5,305.9L393.7,305.3L394.2,305L396.3,304.2L396.7,304.1L399.6,304.9L400.2,306.1L400.2,306.5L399.8,307.9L399.4,308.8L398.4,310.2L397.7,311.7L397.2,314L396.9,314.7L396,316.2L395.7,316.9L395.7,318.6L395.5,319.3L395.5,319.9L397.3,322.7L397.5,323.2L397.5,323.7L397.1,324.3L396.4,325.4L396,325.8ZM368.2,275.6L368.7,275.7L370.6,275.4L371.3,275.6L371.8,276.2L372.4,276.4L372.9,276.8L373.8,276.2L374.7,276.8L375.5,278.1L376.4,279L377.3,279.6L377.5,280.1L377,280.9L376.8,281.9L376.9,283L377.5,285.3L377.3,285.9L376.6,286.8L376.1,287.8L376.2,288.2L376,288.5L375.9,289.2L375.5,289L375.1,289.1L374.7,289.5L374.1,290.1L373.2,289.9L372.8,289.7L372.7,289.1L372.4,288.7L372,288.5L371.1,287.5L370.6,286.8L370.6,286L370.4,285.2L369.9,284.6L369.2,284L369,283.6L368.9,283L368.9,281.5L367.9,279.7L367.6,279.2L366.7,278.8L366,278.2L365.7,277.6L365.4,276.6L365.2,276.5L364.6,276.5L364.1,276.4L364.2,275.7L364.8,275.2L365.6,275.1L367.6,275.4ZM402,340.6L401.9,340.5L401.3,340.1L400.7,340L400,340L399.4,340.2L399.2,340.8L399.3,341.3L399.2,341.9L398.2,344.7L397,344.1L395.9,343.4L395.6,342.9L395.4,342.2L395.2,341.8L395,341.5L394.4,342.4L393.8,343.2L393,343.4L392.1,343.4L391.8,343L391.5,341.2L390.7,340.6L389.6,340.8L388.2,341.8L388,342.1L387.7,343L386.3,345.5L385.5,347.4L384.7,349.3L384.3,349.9L383.8,350.3L383,350.2L382.3,349.7L381.6,348.5L381.8,347.1L382.6,346.2L383.2,345.3L384,341.9L384,340.7L384.2,340.2L385.4,338.7L386.5,337.8L387,337.6L389.3,337L390.2,336.6L391.7,336.6L392.9,336.3L393.8,335.6L393.9,334.8L393.8,334L394.1,333.6L394.4,333.2L394.9,332.6L395.5,332.2L397.1,331.9L397.7,331.6L398.1,331.1L398.8,330.1L399.4,330.4L400.2,330.7L401.5,331.1L402,331.4L402,340.6ZM402,313.6L401.7,314L401.1,315.2L401,316.3L399.4,320.1L398,321.7L398,321.7L397.6,322L397.4,321.2L397.5,320.2L398.4,316.7L398.2,315.8L399.6,313.8L400.5,312L401.8,310L402,309.1L402,313.6ZM381.8,212.5L381.1,213.4L380.7,213.1L381.1,212.3L381.1,212L381.4,211.4L382,211.2L382.6,211.8ZM377.3,207L377.4,208.1L376.8,208L375.8,207.4L375.7,207.1L375.7,206.8L375.9,206.6ZM382.2,195.1L382,195.2L381.7,195.1L382,194L382.6,193.7L383,193.8ZM381.3,190.1L380.8,191.1L380.3,191.1L380.4,190.5L381,189.4L381.2,189.4ZM373.3,359.8L373.9,360.6L374.7,360.4L375.9,360.6L376.1,361L376.1,361.3L374.8,362.1L373.9,361.3L372.4,361.8L371.7,361.5L370.7,361.8L370.1,361.1L370.4,360.5L371.9,359.5ZM327.6,339.4L327.1,340.2L326.4,339.3L326.5,337.9L326.7,337.5L327.6,337.3ZM359.4,309.9L358,310.2L357.7,309.1L358.6,308.1L359.8,308.5L360.4,308.9L360.1,309.3ZM361.4,290.7L362,290.9L362.5,290.7L362.9,290.1L363.2,291L364.1,291.7L363.8,292.5L363,292.6L362.3,292.4L361.4,292.7L360.4,292.5L359.8,291.8L359.2,290.6L358.8,290.3L358.8,289.8L359.1,289.5L359,289.4L359,289.2L359.2,289L359.4,289L359.9,289.5L361.2,290.4ZM360.7,296L359.9,296.4L359.7,296.1L359.6,295.6L359.6,295.2L358.8,293.1L359.4,292.8L359.8,293.1L360.3,293.4L360.7,293.6L361.1,294.2L361,294.7L361.1,295.1ZM389.9,310L389.6,310.2L389.4,310.2L388.7,310.6L388.5,309.8L388.7,308.5L389.7,307.5L389.9,307.2L390.2,307L390.5,307L390.9,307.4L390.9,308L390.3,309.7ZM363.1,369L362.8,369.6L362.5,370L362,369.8L361.6,369.4L361.4,370L360.4,370.2L359.8,371L358.9,371.2L358.3,371.1L358.4,370.3L360.1,369.3L361.2,368.9L362.1,368.1L362.6,368L362.9,368.7ZM383.7,355.8L382.6,355.9L382.2,355.9L381.4,354.8L381.3,354.3L380.5,353.7L380.8,353.1L381.7,353L383.3,352.3L385.9,353.4L386.3,353.8L385.5,354.1L384.9,355.2ZM363.3,272.5L363.3,273.3L361.5,272.2L361.4,271.8L361.5,271.5L361.7,271.3L362.7,271.7ZM381.7,274.9L382.4,275L382.6,274.9L384,275.8L383.9,276.3L384,277L383.3,278.1L383.2,278.4L382.7,278.8L381.3,277.9L380.8,277.4L380.6,276.3L381.2,274.6ZM383.7,288.6L382.8,291.4L382.2,290.4L382.5,289.8L382,289.3L381.8,288.8L382,288.2L382.6,287.6L382.7,285.8L383.8,285.2L384.3,285.1L384.1,285.6L384.2,286.5ZM390,289.1L389.4,289.3L388.3,288.2L387.6,287.7L387.4,287.4L388,287L389.4,287L390.2,287.8L390.3,288.2ZM397,282.8L398,284.6L396.9,283.4L395.7,282.6L394.5,281.2L393.6,280.8L393.3,280.5L393.4,279.9L394.1,279.8L394.4,279.9L396.2,282.2ZM402,287.8L400.8,286.1L400.4,285.4L400.8,284.9L401.8,285.6L402,286.1L402,287.8ZM402,293.2L402,293.2L402,293L402,293.2ZM402,292.5L401.4,292L401.3,291.8L400.7,291.6L399.8,290.4L399.2,290.1L398.6,290.4L397.1,292.2L395.6,293.5L395.6,293L396.2,291.4L396.6,288.9L396.9,288.1L396.5,287L396.5,285.9L397.6,286.4L399,286.9L400.1,287.5L400.3,288L401.9,289.3L401.9,289.3L402,289.4L402,292.5ZM384.7,269.1L384.6,269.6L382.2,267.8L382.1,267.5L382.1,267.3L382.2,267ZM383,258L383.2,258.4L383,258.4L382.9,258.5L382.4,259.3L382.9,260.9L382.6,262L381.9,262.1L381.7,262L381.8,261.4L382,261.1L381.8,260.4L381.4,259.9L381.1,259.1L380.7,258.5L380.9,257.7L382.4,257.6ZM393.2,344.7L393.3,345L393.2,345.3L392.1,345.8L391.7,345.8L391.6,344.9L391.9,344.5L392.4,344.9L392.9,344.5ZM374.3,210.3L374.3,211.1L373.7,210.7L373.6,210.1L373.6,209.6L373.9,209.1L374.2,209.6ZM358.8,298L359,298.6L358.7,299.6L358.4,299.8L358.1,299.4L357.3,299.1L357.2,298.6L357.6,298.6L358.4,298.1ZM402,302L401.8,301.2L402,301L402,302ZM386.1,286.6L385.8,286.9L385.6,286.9L385.5,286.2L385.8,285.8L385.9,285.9ZM330.7,335.6L330,335.9L329.8,335.2L329.9,334.5L330.4,334.6L330.7,334.8ZM401.7,324.1L401.8,325.2L400.8,325.6L399.9,325.3L399.4,324.6L399.4,324.3L399.8,324.3L400.9,323.7L401.2,323.6ZM-42,85.45L-41.33,85.78L-41.05,86.58L-40.52,88.12L-39.92,89.72L-38.99,90.27L-37.87,91.09L-37.26,91.76L-35.21,92.93L-34.88,93.42L-34.48,93.75L-33.96,93.97L-33.55,94.21L-32.91,94.28L-30.49,93.57L-29.89,93.66L-29.49,93.79L-29.49,94.06L-29.93,95.17L-30.29,96.6L-29.93,97.31L-28.92,97.61L-26.71,97.81L-23.69,97.81L-22.8,98.52L-21.87,99.6L-20.99,101.4L-20.63,102.2L-20.14,102.5L-19.38,102.2L-19.26,101.4L-19.22,100.3L-18.57,99.86L-18.13,100.2L-17.64,101.1L-16.44,101.8L-15.51,102.2L-14.66,102.1L-14.3,101.8L-13.9,100.2L-13.21,100L-12.37,100.1L-12.05,100.4L-11.68,101.1L-10.68,101.3L-9.63,101.7L-8.663,102.2L-7.334,103.4L-5.642,103.6L-3.709,103.6L-2.702,103.6L-1.937,103.7L-1.252,103.6L0.722,102.8L1.527,102.7L2.534,102.8L3.501,103L3.501,103L3.944,103.3L4.024,103.9L3.944,104.5L3.461,105.8L3.058,106.8L2.534,108.8L2.091,112.3L2.212,112.9L3.541,114.8L4.024,116.3L4.105,117.4L3.541,119.1L2.897,121.1L2.574,121.5L2.212,121.7L0.601,121L-0.527,121.1L-1.816,121.5L-3.185,121.4L-4.273,121.2L-5.683,122L-7.052,121.5L-7.898,121L-8.502,119.7L-8.744,119.5L-11.56,120.9L-12.25,121L-14.02,120.3L-15.47,119.5L-15.99,119.3L-17.4,119L-18.65,118.8L-20.02,118.3L-21.71,119L-22.4,118.9L-23.04,118.5L-23.36,117.5L-23.45,116.7L-24.05,116.1L-24.94,116L-26.18,116.5L-28,117.2L-28.6,117.1L-29.12,116.9L-29.33,116.7L-29.61,115.9L-29.89,115.7L-30.29,115.7L-31.06,115.5L-31.98,114.9L-34.8,113.4L-35.17,112.8L-35.17,111.4L-35.29,110.8L-35.65,110.2L-37.1,109.6L-39.92,108.6L-41.45,107.7L-42,108L-42,85.45ZM137.9,355.6L138.1,355.1L138.4,353.4L138.5,353L139,352.9L139.5,352.9L140.4,354.4L142.9,355.4L143.6,355.6L144.6,355.2L145,355.4L145.4,355.8L145.7,356.9L146.3,357.9L147.6,357.7L148.1,357.9L148.3,357.9L148.6,358.7L148.7,360.2L148.6,361.1L147.7,362.3L147.5,363.2L148,363.7L148.6,364.3L149,364.7L149.4,364.6L149.9,364.3L150.3,363.6L150.6,363L152.2,362.3L153.9,361.6L154.2,361.7L154.5,362L155,362.9L155.3,363.1L155.8,363.2L156.6,363.1L157.5,362.6L158,361.6L158.2,360.8L159.5,359.5L159.7,358.5L160.1,357.9L162,358.3L162.7,358.7L164.9,362.2L167.8,364.6L169,365.5L169.9,366L171.2,367.3L172.3,368.9L174.8,373.5L175.2,375.6L175.4,378.7L174.8,383.3L174.2,385.7L174.3,386.8L175.2,388.4L174.9,390L175.1,391.4L175,395L175.5,396.1L176.1,396.8L179.2,399L179.4,399.8L180.9,402.6L183.7,408.6L184.5,411.3L184.4,412L184.1,412.3L183.3,412.6L182.6,412.1L182.3,411.7L182.4,411.2L182.1,410.7L181.5,410.2L181.1,409.7L181.2,410.5L181.2,411.6L180.4,411.7L179.2,411.3L177.9,411.6L176.3,413L175.5,413L174.9,411.9L174.6,411.1L174.1,410.6L169,407.8L167.1,407.1L165.1,405L160.5,402.7L157.7,400.4L156.5,399.1L153.5,397.8L152.3,396.4L151.6,396.1L151,395.6L151.7,394.2L151.4,392.7L151.1,391.4L149,389L148,387.3L146,385.6L145.3,384.6L144.6,383.5L145,383.1L145.4,382.8L145,382L144,380.5L143.4,378.9L143.4,375.8L141.9,371.4L140.5,365.3L140.7,363.1L140.4,360.8L139.5,358.6L138.3,357ZM333.2,381.2L332.7,381.1L331.8,380.9L329.8,379.7L327.9,379.3L325,379.3L323.4,379.1L322.7,379.3L322.1,379.3L321.7,379L321.3,378.9L320.2,379.6L319.7,379.4L319.1,379.1L318.2,379L317.1,379.1L315.8,379.8L314.4,379.2L314,379.2L313.7,379.3L313.1,380.2L312,380.9L311.4,382.2L311,383.3L310.7,383.8L310.6,386.1L310.5,387.2L310.7,388.7L310.7,389.3L310.2,390.2L310.1,390.4L309.9,391.9L309.9,392.4L309.9,392.8L309.5,393.9L308.6,394.2L307.8,394.4L307.1,394L306.5,394.6L305.7,395.5L305.3,396.1L305.3,396.6L305.4,397L305.3,397.4L305.2,397.8L305.3,398.4L305.8,398.6L306.4,399.1L306.4,399.6L306.1,400L305.3,400.5L304,401.6L302.5,402.5L302,402.7L301.8,403.1L301.7,403.7L302,404.9L302.3,405.3L302.5,405.7L302.3,406.2L302.1,406.7L301.6,407L301,407.1L300.8,407.5L300.6,409L300.2,409.8L299.5,410.9L299.3,411.4L298.9,411.6L297.5,411.1L296.2,411.4L294.6,411.6L293.2,411.6L292.1,411.8L291.3,412.4L290.5,413.2L289.6,413.8L289,414L287.7,413.2L287.1,413.3L286,413L283.4,412.1L282.8,411.9L282.1,411.8L281.9,411.6L282,411.1L281.9,410.6L281.3,410.3L276.1,410.4L274.6,410.9L273.6,411.3L272.9,411.8L272.7,412.9L272.2,414L271.7,415.1L269.9,415.4L268.7,416.6L268.2,416.7L267.4,416.5L266.4,416.4L265.7,416.7L265,416.7L262.8,416.2L260.8,416.1L259.5,416.4L258.9,416.5L255.3,418.1L254.1,418.2L253.6,418L252.9,417.4L251.9,416.7L249.7,414.6L248.9,414L248.3,413.5L247.8,412.9L247.1,412.2L246.4,411.8L245.5,410.8L244.6,409.8L244.4,408L243.6,407.7L243.4,407.2L243.3,406.6L244.3,405.2L245,406.7L245.3,407.1L246.9,408.1L248.2,408.6L249.7,408.9L251.2,408.9L251.8,408.8L252.3,408.6L252.9,408.8L256,410.6L257.2,410.8L258.4,410.7L258.9,410.9L260.7,412.2L261.2,412.3L262.1,412.2L261,411.7L260.3,411.2L260,410.4L260.1,409.6L260.8,409L261.3,408.4L261.5,406.6L261.8,405.7L262.4,404.8L262.6,403.9L262,403.3L261.8,402.2L261.9,401.2L262.3,400.6L262.9,401L263.5,401.4L264.1,401.4L264.6,401.2L264.7,400.7L264.5,399.9L264.6,398.4L265.4,397.2L266.6,396.3L267.8,395.9L272.1,395.2L279,393.5L281.1,392.8L281.9,392.5L282.5,392L283.6,390.4L285.6,388L287,386L290,383.1L292.3,380.3L292.7,379.8L293,378.4L293.1,377.7L293,377L293.3,376.6L293.8,376.4L293.9,376.4L294.2,376.7L295.1,377.2L295.7,377.7L296.1,378.4L296.4,379.1L296.4,379.7L296.8,380.1L297.9,380.2L298.2,380.8L298.9,381.8L299.6,382.5L300,382.8L300.5,382.7L301.3,382L301.8,381.2L302.2,380.1L301.9,379.9L302.5,379.1L302.6,378.7L302.3,378.3L302,377.9L301.9,376.9L301.7,375.6L301.5,375L302,374.6L302.8,374.1L303.7,373.5L304.7,373L304.7,373.9L304.7,375.3L304.9,376.5L305.5,378.7L306.3,379L307.1,379.2L307.6,379.1L307.9,379L308,378.8L307.5,377.9L307.4,376L306.9,374.7L306.2,373.4L305.9,373L308.6,372.6L309.1,372.2L310.2,371.3L310.6,370.8L310.9,369.7L309.6,369L309.1,368.1L309.1,367.2L310.6,365.5L311.1,365.1L311.3,365.7L312,365.8L312.6,365.9L313.3,365.8L314.2,365L314.6,363.7L316.2,361.9L316.8,360.6L317.1,359.2L321.1,354.7L321.6,354L324,349.6L324.2,349.5L324.9,349.9L325,351.3L325,351.9L324.6,352.8L324.4,353.8L324.6,353.8L325.8,353.2L326.9,351.6L327.6,350.3L328.2,349.7L329.3,350L329.6,350.3L329.5,351.2L329.6,351.8L330,353L331,353.7L332.3,354.2L333.6,354.8L334,355.3L334.2,355.8L334.5,356.7L334.5,357.5L333.6,358.4L334,359.8L333.9,360.6L333.7,361.3L332.3,361.9L335.9,361.3L336.8,360.9L338,360L338.6,360.8L339.2,362.2L338.7,362.5L337.2,363L337.1,363.2L337.6,363.9L338.3,363.9L339.5,363.4L340.7,362.6L341.3,362.6L341.9,362.8L343,363.3L343.7,363.7L344.2,364.2L344.6,365.2L345.9,365.6L348.6,367L349.1,367.2L349.7,367.2L351.1,367L351.6,367.2L352,367.7L352.1,368.4L352.1,369.1L351.9,369.6L351.6,370.1L350.6,370.7L348.1,371.6L345.5,372.3L344.1,372.2L342.2,371.7L341.5,371.7L340.8,372L340,373.8L341.6,375.6L344.2,377.4L344.6,377.9L344.5,378.5L344.1,378.8L343.5,379L342,379.3L340.5,379.5L339.3,379.9L338,380.3L336.8,380.1L335,379.3L334.5,379.2L334,379.7L333.5,380.8ZM183.8,397.3L183.2,397.4L182.9,397.3L182.7,396.9L183.2,395.9L183.3,395.7L183.8,396.8ZM139.8,368.5L139.5,368.8L138.7,368.7L138.8,366.8L139.3,366.6L140,366.9L140.3,367.2ZM134.8,355.4L135.6,356.6L135.3,357.1L135.1,357.3L134.6,357.1L134.1,357.6L133.7,357.6L133.2,356.8L132.7,356.5L132.6,355.9L133.3,355.8L133.7,356L134.5,355.6ZM328.3,347.5L327.7,348.1L327.4,347.3L327.5,346.4L328.4,345.6L329.7,345.4L329.9,346.1L329.7,346.9L329.4,347.3ZM151.3,394.4L150.7,394.6L150.7,394.3L150.8,393.9L151.2,393.5L151.4,393.8ZM264,400.8L263.6,401L263.1,400.6L263,397.2L263.3,396.9L263.6,396.9L263.9,397.5L263.8,399L263.9,400.3ZM336.6,381L335.1,381.2L334,381.2L334.2,380.8L334.1,380.3L334.7,380.1L335.3,380.2ZM402,147.6L401.5,147.6L401.5,147.2L402,147L402,147.6ZM108.3,411.5L110.8,414.6L111.8,415L113.1,416.5L113.4,417L113.1,418L112.8,420.8L112.2,421.5L110.6,421.2L110.6,420.7L109.7,418.5L108.1,417.3L107.5,417.3L107.1,416L106.3,414.6L103.9,411.9L105.7,411.9L106.6,411.3L106.8,410.8L107,410.6ZM127.2,447.8L126.1,447.8L123.9,446.5L123.4,445.9L123.3,445.1L121.2,442L120.9,441.3L121.7,438.7L123.9,438.1L124.6,438.5L124.9,439.7L126.1,441.7L126.5,442.9L126.8,443.4L126.9,443.7L126.8,444L127.7,445.3L128.3,446.1L128.4,447.3ZM204.2,446.5L204.6,447.3L205.1,448L205.5,448.8L206,452.4L207.8,455.4L212.8,456.7L212,457.2L211.6,457.6L211.3,458.1L210.5,460.3L210.6,460.7L211,461.5L211.1,462.3L210.5,462.3L209.8,462.1L209.2,461.8L208.7,461.4L208.1,461.1L207.5,460.9L206.5,460.3L205.1,459.8L203.6,459.5L203,458.6L202.6,457.4L203,455.8L202.6,455.3L202.1,454.9L201.5,453.7L201.3,452.3L200.4,451.7L199.2,451.4L198.6,451.1L196.3,451.6L195.7,451.5L195.3,451.1L194,450.7L194,449.9L194.6,449.3L196,448.7L196.7,448.2L196.8,447.5L196.6,447L196.7,446.4L197.1,445.9L197.6,445.5L199,445L199.7,445.9L199.9,446.7L200.3,447.2L200.9,446.4L200.5,445L201.6,444.7L202.7,444.7L203.4,445.1L204,445.7ZM392.2,482L392.2,482L392.2,479.6L393.3,477.6L394.3,477.1L394.7,477L394.6,477.5L395.9,478.8L395.9,478.8L396.1,481.3L396.1,481.9L395.4,481L395.2,480.8L395,481L394.8,481.1L394.5,481.1L394.1,482L394.1,482L392.2,482ZM386.5,482L386.8,481.3L388.6,480.6L390.1,479.8L390.5,479.6L391,480.2L391.1,482L386.5,482ZM229.6,386.6L228.1,387L227.2,386.4L228.1,385.7L228.5,385.6L228.7,385.5L228.8,385.2L227,384.7L226.6,384.3L226.1,383.3L226.1,382.6L228.3,380.8L228.8,380.6L228.9,381.4L230.4,383.2L230.5,384.5L230.5,384.9ZM228.4,461.4L228.2,462.6L227.9,463.1L227,463.6L226.7,464L225.8,463.9L225.7,463.3L225.4,462.9L224.5,462.4L224.2,462.5L224.1,463.2L222.3,463.8L221.7,463.8L222,462.8L221.5,462.1L221.5,461.2L221.4,460.8L221.2,460.5L221.6,459.9L221.6,459.2L222.1,458.4L222.3,456.6L224.2,456.2L224.6,456.5L226.9,456.9L228.5,458.1L229.3,459.6ZM174.9,482L174.6,481.8L173.8,481.2L172.8,480.2L171.7,479.3L169.2,477.9L164.9,474.4L163.1,472.3L161,469L160.3,468.2L156.9,465.7L155,464.2L154.2,463.3L152.4,460.3L151.8,459.3L151.2,458.4L150,457.7L149.1,456.8L147.1,454.1L146.5,453L146,451.9L146.1,449.5L142,442.4L140.9,440.2L140,437.1L139.8,436.8L137.5,434.1L136.7,433.2L135.8,432.3L135,431.4L133.4,428.2L132.8,427.4L132,426.7L129.1,425.5L128,424.9L127.1,423.9L126.6,422.7L126,420.2L124.6,416.3L123.1,411.1L122,408.8L120.8,407L120.5,406.6L115.1,403.3L114.2,402.8L113.3,402.5L111.9,402.3L110.8,401.5L110.4,400L110.2,397.9L109.9,396.7L109.6,396L107.3,394.6L106.5,393.4L105.8,392.2L105.1,391.2L102.6,387.8L101.8,387L100.7,386.3L97.67,385.7L96.75,385.1L95.25,383.2L94.37,382.3L91.67,380.1L87.08,375.6L86.15,374.5L85.43,373.4L84.86,372.1L82.93,368.7L83.05,368L83.37,367.2L83.33,366.6L83.09,366L83.13,365.5L83.73,365.2L85.02,364.8L86.39,364.8L87.64,365L88.85,365.3L90.02,366.1L92.07,367.9L93.28,368.6L94.61,368.8L97.31,369.3L97.31,369.3L98.68,369.4L101.2,368.8L102.6,368.8L103.9,369.3L105.1,369.5L108,369.2L108.6,369.3L109.1,369.5L109.6,369.9L110.9,371.4L113.1,373.2L113.8,374.3L114.1,375.6L114.4,375.9L116.9,378.4L117.2,379.5L116.8,380.9L117.6,382L120.1,383.1L121.5,383.9L121.8,384.4L122,384.9L122.9,385.8L123.9,386.3L127,387.8L131.2,390.8L133.6,392.2L135.5,394.4L136.2,395.5L136.8,396.6L137.9,398.2L140,400.3L140.5,400.9L141,401.8L141.7,402.6L142.4,403.4L143.3,403.9L144.2,404.1L145.7,405.6L146.5,406.1L146.4,404.9L145.7,403.9L145.7,403.3L145.8,402.8L146.4,402.3L147,402.2L148.3,402.6L150.2,404.3L151.1,405.3L151.7,406.7L152.2,408.2L153.1,408.9L154.1,409.2L155.4,409.3L156.5,409.7L159.1,411.7L160,412.7L160.7,413.8L161.2,415.1L161.4,416.5L161.6,416.8L163.3,418.4L164.2,419.1L165.3,419.5L168.4,419.9L169.5,420.4L170.5,421.4L170.9,422.4L170.2,423.2L167.7,424.5L165.1,425.4L167.6,425.1L168.9,424.8L170.1,424.1L171.3,423.4L173.2,422.3L173.9,422.1L174.7,422.2L175.4,422.5L176.6,423.5L177.6,424.6L178.4,425.9L178.9,427.3L178,428.1L176.7,428.6L174.9,430L174.7,430.6L175.1,430.9L174.6,431.9L175.7,432.5L175.8,433.1L174.9,433.8L175,434.3L176.1,436.3L176.6,436.8L178.2,437.8L180.6,438.8L182,439.3L183.5,439.7L184.2,439.6L185.3,439.5L185.6,439.9L186,441.9L186.3,443.1L186.6,445.8L187.1,446.9L187,448.2L187.7,449.4L188.9,450.1L190.2,450.7L190.8,451.3L190.8,452.2L190.6,452.9L190.1,453.4L188.8,454.6L188.5,455.1L188.3,456.3L188.6,456.9L189.1,456.9L189.5,456.6L191.1,454.9L191.6,454.6L192.2,454.4L192.8,454.2L195.7,454.2L196.9,454.5L198,455.1L199,455.8L202.6,460.2L204.2,462.6L204.3,463.2L204.3,463.9L204,464.4L202.6,466L202.4,466.5L201.9,468.3L202,469.6L202.5,470.2L202.9,470.8L202.9,471.3L201.9,474L201.8,474.5L202.4,478.9L202.4,480.1L202.3,481.6L202.3,482L174.9,482ZM402,424.5L401,424.5L399.8,424.5L397.3,424.3L396.9,424.2L395.9,423.2L394.8,422.4L393.8,422.3L392.9,422.4L385.8,422.5L383.4,422.6L380.9,423L379.6,422.8L378.2,422.4L377.3,422.3L376.3,422.3L371.6,422.9L370.5,422.9L368.1,422.1L366.8,422L365.4,422.1L364.2,422.8L363.7,423.3L362.5,424.9L361.7,426L361.2,427.4L360.7,428.9L360.4,430.1L360.4,431.3L360.6,432.7L361,434.1L361.4,435.1L363,437.6L363.3,437.9L365.1,438.6L366.1,439.5L367.1,441.9L367.8,443.2L368.5,443.2L369.2,443.1L370.6,443.3L371.9,443.6L373.2,442.9L373.9,441.4L374.6,440.4L376.3,438.4L377.3,437.4L377.9,437.1L378.6,437.3L379.1,437.8L379.7,438.2L381,438.4L382.4,438.3L383.7,437.6L384.2,437.3L384.7,436.8L385.8,436.3L388.6,436.3L390.1,436.5L392.6,436.3L392.6,435.9L392.1,435.6L391.9,435.2L392.4,435L394.1,434.6L395.8,434.2L397,434.5L398.1,435.1L398.6,435.8L398.7,436.6L398.3,438.6L398.1,439.1L397.2,439.3L396.4,439.1L395.6,438L394.4,437.6L392.8,437.9L392.2,438.3L391.7,438.7L390.8,439.8L390,441L388.4,443L386.4,444.6L385.5,445.3L384.5,445.7L381.1,446.8L380.2,447.6L379.5,448.7L378.8,449.1L377.9,449.2L377.2,449L375.9,448.4L375.5,448.9L375.4,449.6L376,449.9L377.1,450.7L377.9,451.9L378.5,452.2L379.6,452.6L380.1,452.9L381,454L382.4,456.3L382.8,457.6L383.6,458.6L385.9,460.4L386.1,460.9L385.9,461.5L386.1,462L386.9,463L387.2,463.7L386.2,464.5L386.2,465.7L385.6,467.4L385.5,467.9L385.5,468.4L385.9,468.9L386.3,469.2L387,469.4L387.6,469.7L388.6,471L389.2,471.3L389.5,471.8L389.5,472.5L390,472.9L390.4,473.6L391.1,473.8L391.4,473.6L391.6,473.3L392.2,473.4L392.5,473.9L392.7,474.5L392.8,475.2L392.7,476.6L392.4,477L391.8,477L390.7,476.5L390.7,476.9L390.8,477.3L390.2,477.4L389.6,477.3L388,477.4L385,478.2L384,478.7L383.3,479.6L383.2,480.2L383.5,481.5L383.1,482L383.1,482L380.8,482L380.8,482L379.9,481.8L378.7,481.5L378.1,481.2L377.2,480.3L376.9,479.2L377.6,475.8L377.7,475.4L378,475L378.3,474.4L378.4,473.7L377.5,472.8L376.2,472.5L375,471.8L370.5,467.7L370.3,467.3L370.3,466.6L370.4,466L371.9,463.8L372.1,463.3L372.3,461.6L372.2,460.1L372.1,458.7L371.4,457.8L370.2,457.5L368.9,457.4L367.6,457.7L366.4,458.4L364.1,460L363.2,460.9L363.1,462L363.7,463.2L364.4,464.2L364.7,465.3L365.2,469.4L365.2,469.8L364.6,471L364.4,473.6L364.6,477.3L365,479.6L364.8,480.8L364.4,482L354.9,482L354.9,482L354.9,481L355.2,479.7L355.8,478.5L356,477.4L356.1,473L356,472.6L354.6,470.1L354.5,469.6L354.5,468.9L354.6,468.3L354.6,467.7L354.4,467.2L353.8,466.8L353.2,466.6L351.8,466.8L349,467.5L348.2,466.9L347.6,465.9L347.2,464.6L347,463.2L347.1,461.9L347.5,460.6L347.2,459.8L346.7,458.8L346.7,458.3L347,457.9L347.5,457.5L348.1,457.3L348.6,456.9L350.1,455.7L350.6,454.5L350.7,453.1L351.1,451.8L351.8,450.6L352.7,449.5L353,448.3L352.6,446.4L352.8,445.6L352.6,444.6L352.6,443.6L353.1,441.8L354.8,438L356.4,436L357.1,435.5L357.9,436.4L358.6,437.5L358.6,436.5L358.4,435.6L357.7,433.3L357.2,428.8L357.3,428.4L357.9,428.5L358.5,428.1L358.8,427.4L358.2,425.8L358.2,425.2L359.3,422.9L360.3,422.1L360.7,421.5L360.9,420.1L361.4,419.6L362.1,419.2L362.9,418.2L363.3,417L363.6,416.9L363.9,416.9L364.4,417.9L365,418.4L366.1,418.7L367.1,418.3L367.3,417.8L367.7,417.3L368.3,416.8L368.7,416.3L369.3,415L370,413.9L370.5,413.4L371.1,413.2L371.8,413L372.4,413L373.8,413.7L374.7,413.9L375.5,413.8L376,414L376.4,414.3L376.8,414.9L377.2,415.5L377.6,415.8L378.1,415.9L381.2,415.7L383.9,416.3L387.6,416.5L388.8,416.8L390.1,417.4L391.5,418.2L392.1,418.4L392.7,418.4L393.4,417.5L394,417.4L394.6,417.3L397,417.5L402,418.3L402,424.5ZM244.3,405.2L243.3,406.6L243.4,407.2L243.6,407.7L244.4,408L244.6,409.8L245.5,410.8L246.4,411.8L247.1,412.2L247.8,412.9L248.3,413.5L248.9,414L249.7,414.6L251.9,416.7L252.9,417.4L253.6,418L254.1,418.2L255.3,418.1L258.9,416.5L259.5,416.4L260.8,416.1L262.8,416.2L265,416.7L265.7,416.7L266.4,416.4L267.4,416.5L268.2,416.7L268.7,416.6L269.9,415.4L271.7,415.1L272.2,414L272.7,412.9L272.9,411.8L273.6,411.3L274.6,410.9L276.1,410.4L281.3,410.3L281.9,410.6L282,411.1L281.9,411.6L282.1,411.8L282.8,411.9L283.4,412.1L286,413L287.1,413.3L287.7,413.2L289,414L289.6,413.8L290.5,413.2L291.3,412.4L292.1,411.8L293.2,411.6L294.6,411.6L296.2,411.4L297.5,411.1L298.9,411.6L299.3,411.4L299.5,410.9L300.2,409.8L300.6,409L300.8,407.5L301,407.1L301.6,407L302.1,406.7L302.3,406.2L302.5,405.7L302.3,405.3L302,404.9L301.7,403.7L301.8,403.1L302,402.7L302.5,402.5L304,401.6L305.3,400.5L306.1,400L306.4,399.6L306.4,399.1L305.8,398.6L305.3,398.4L305.2,397.8L305.3,397.4L305.4,397L305.3,396.6L305.3,396.1L305.7,395.5L306.5,394.6L307.1,394L307.8,394.4L308.6,394.2L309.5,393.9L309.9,392.8L309.9,392.4L309.9,391.9L310.1,390.4L310.2,390.2L310.7,389.3L310.7,388.7L310.5,387.2L310.6,386.1L310.7,383.8L311,383.3L311.4,382.2L312,380.9L313.1,380.2L313.7,379.3L314,379.2L314.4,379.2L315.8,379.8L317.1,379.1L318.2,379L319.1,379.1L319.7,379.4L320.2,379.6L321.3,378.9L321.7,379L322.1,379.3L322.7,379.3L323.4,379.1L325,379.3L327.9,379.3L329.8,379.7L331.8,380.9L332.7,381.1L333.2,381.2L333.1,381.3L332.3,381.6L331.9,382.2L333,383.2L333.1,383.9L333.9,384.5L334.9,385.4L334.9,385.7L335.3,386.1L335.4,386.6L334.7,387.1L333.8,387.2L333.1,386.7L332.5,386.1L332.3,386.8L331.8,387.2L330,387.1L328.7,387.1L327.4,387.3L328,387.4L328.6,387.6L330.6,389.5L331,390.2L330.4,391.6L330.7,392.1L331.4,392.4L332.4,393.1L333.1,393.2L333.6,393.6L333.6,394.2L333.9,394.8L333.1,395.1L333.9,395.2L334.5,395.5L334.2,395.9L333.9,396.2L334.2,396.4L335.1,396.8L335.5,397.1L335.8,398L336.6,399.4L338.3,401.3L338.7,401.9L338.7,402.5L338.4,403.1L337.4,403.7L336.7,404.5L336.6,404.8L335.6,405.2L336,405.5L336.4,405.8L337.1,407L338.8,408.8L339.7,409.5L343.2,412L345.1,413.1L347.5,415.6L348.7,416.2L349,416.9L347.9,417.9L346.4,418.5L343.9,418.8L341.4,418.4L340.1,418.1L339,417.5L338.1,416.2L336.9,415.6L337.4,416.3L337.7,417.1L337.5,417.9L337.1,418.6L336.3,419L335.4,419.4L335.1,419.7L332.9,424.1L332.6,425.2L331.9,430.1L331.9,431.5L332.9,434.1L333,435.4L333.2,436L333,436.5L332.6,436.8L330.7,437.6L329.4,438.2L328.4,439.2L327.5,440.3L326.8,441.2L325.8,441.6L325,441.5L324.5,441.1L324.1,440.4L323.8,439.6L323.7,440.2L323.7,440.7L324,441.4L324.2,442L324,442.7L323.6,443.3L322.4,443.8L321.7,444.4L321.7,445.2L321.3,445.7L320.9,446.1L319.3,447L318.9,447.4L318.6,447.8L319.5,447.8L320.3,447.8L320.4,448.7L320.6,449.4L320.3,450.8L319.1,451.8L319.7,452L320.2,452.3L321.5,452.6L321.9,453.6L321.7,454.8L321.5,456L320.6,456.3L320,456.1L319.5,456.1L319.1,456.4L319,457L319.8,456.7L319.7,458.2L319.5,459.6L319.2,460.3L318.8,461L318.1,461.2L317.4,460.7L317.3,461.3L317.5,461.7L318.4,462.9L317.8,463.1L317.4,463.5L317.2,464.1L316.2,465.3L315.7,466.3L315.5,467.3L315.1,468.1L307.2,471.6L301,474.6L300.5,474.4L300.2,473.9L299.9,469.3L299.2,467L299.1,465.7L298.2,466.8L297.6,466.7L297,466.4L296.6,466L296.6,465.5L297,464.1L296.4,464.9L295.8,465.5L295.2,465.4L294.6,465.1L294.4,464.6L294.1,464.6L292.7,465.9L290.9,466.6L289.9,466.6L289.1,466.1L289.1,465.2L289,464.2L288.8,463.6L288.3,463.4L287.9,463.5L286.6,464L286.1,463.9L285.8,464.2L282.4,460.7L281.7,463.5L279.3,465.1L277.5,465.9L275.8,465.6L274,465L272.2,465.7L270.3,467.4L269.8,467.6L269.2,467.6L268.8,467.4L268.9,466.1L269,464.9L268.8,462.1L268.7,461.5L268.1,460.8L267.4,460.2L267,460.6L266.6,461.2L265.1,461.1L263.7,460.7L262.5,460.9L260.1,462.1L258.8,462.2L258.1,462L257.7,461.4L257.9,460.8L258.5,460.4L257.5,460.8L256.6,461.3L256.3,461.7L255.9,461.5L254.8,460.2L252.7,460.7L252.3,460.9L251.8,461.3L251.3,461.1L251,460.6L250.9,458L249.8,452.9L249.5,450.3L249.3,449.7L248,448.7L248,447.4L248.7,446.3L248.8,444.9L248.6,443.5L248.2,442.1L247.7,441.1L247,440.2L246.1,439.2L244.8,438.4L242.3,437.6L241,437.7L240.5,437.3L240.1,436.9L240.3,436.1L240.7,435.5L241.3,435.3L241.4,435L240.1,434.3L239,433.4L238.7,432.9L238.6,432.2L238.6,430.8L238.9,429.9L239.1,429.5L239.4,428L240.1,427.5L240,427.2L239.7,427L239.2,426.6L238.9,426L238.1,425L236.6,423.9L236.4,421.9L236.2,419L236.3,417.7L236.8,415.2L237.6,414.4L238.2,414.2L238.7,413.8L238.3,413.8L238,413.9L237.4,414L237.8,411.8L238.1,411.1L239.1,409.9L240.3,408.8L240.8,407.5L241.5,406.4ZM155.6,404.6L156.3,405.5L156.4,406.1L156,406.8L155.8,407.9L154.5,408.7L153.3,408.5L153,408.2L152.2,406.6L152.3,405.2L152.8,404.7L153.8,404.8L154.9,404.1ZM163.7,416.8L163.2,417.1L162.6,416.6L162,415.8L161.8,415L161.6,413.7L161.5,412.8L161.8,412.2L162,412.3L162.9,412.8L163.5,413.8L163.9,414L163.9,414.9L163.7,415.9ZM164.4,411.5L164.5,413L163.7,412.6L163,412L162,411.6L160.7,411.5L159.8,411.1L159.1,410.4L159.1,410.1L159.2,409.9L159.4,409.7L164.2,411ZM170.4,419.5L170.2,419.9L169.8,419.6L167.6,419.1L166.9,419.1L165,418.6L164.4,418.3L164,417.9L164.1,417.2L164.4,416.8L164.6,415.7L165.1,415.2L166,416.1L167,416.8L167.6,417.1L169.5,417.9L170.1,418.2ZM172,418.1L171.6,418.5L171.1,418.4L170.5,418L169.7,417.3L168.8,416.7L167.7,416.3L167,416.2L166.8,416.1L167,414.9L167.8,414.8L170.1,415.9L170.9,416.5ZM173.3,421.8L172,421.9L171.7,421.7L171.8,420.7L172.2,420L172.8,420.1L173.4,421ZM175.1,420.4L174.9,420.6L174,419.2L174.2,418.3L174.4,418.1L175,418.6L175.4,419.2L175.7,419.8ZM181.6,414.6L182.3,415.1L182.9,414.8L182.8,415.2L182.7,415.6L182,416.8L180.9,416.5L180.6,416.2L180.5,415.9L180.7,415.7L180.8,415.1L181.3,415.1ZM187.9,414.3L187.9,415.1L188.5,415.5L188.7,416.1L188.6,417.1L188,418.3L187.7,418.6L186.9,418.3L186.7,418L186.6,417.6L186.7,417.4L186.1,417.2L186.5,416.7L186.2,416.1L184.6,416.5L184.1,416.5L184,415.8L184.1,415.5L185.4,414.6L186.1,414.5L186.9,414.7ZM190,429.8L190.3,430L190.7,429.4L191.5,430.2L191.9,430.6L192.5,431L191.9,431L191.7,431.4L191.5,431.5L189.1,430.2L187.6,430.6L186.6,430.2L186.3,430L186.8,429.3L187.4,427.7L188.4,428.1L188.7,428.6L188.6,428.7L189.3,429ZM186.6,431.6L187.7,432.7L187.9,433.1L187.4,433.7L187,434.5L186.7,434.7L185.9,434.4L185.4,435.2L185,433.9L184.2,433L184.7,432.2L184.9,432.1L185.1,432.2L185.4,432.4ZM178.3,431.8L176.9,432.2L175.2,431.9L175.4,431.2L176.3,430.4L176.9,430.4L178.2,431L178.7,431.4ZM245.2,441.1L243,442.2L242.4,442.2L242,441.7L242.3,439.6L242.6,438.9L244.1,438.8L245,439.1L245.5,439.5L245.7,440.2L245.7,440.7ZM141.3,463.5L141.7,465.1L140.4,464L140.4,463.2L140.2,462.7L139.4,462.1L138.8,461.3L138.6,459.4L138.8,459L139.3,459L141.6,461.5L141.8,461.9L141.7,462.8L141.4,463ZM138.8,458.5L138,459.5L136.7,459.4L136.5,458.9L136.5,457.5L136.2,457.1L136.2,456.9L136.4,456.1L136.7,456L138.8,457.9ZM134.8,454.1L134.8,454.4L133,453.4L132.1,453.1L131.4,452L131.6,451.5L131.6,450.8L131.7,450.5L132.3,450.4L133,451L133.6,452.2L134.5,453.4ZM119.3,433.8L118.6,434.3L117.6,433.8L118,433.1L118.1,432.1L118.7,431.3L118.9,430.4L117.8,427.9L118.3,427.8L118.8,428.1L119.6,429.7L120.3,430.8L120,432.1ZM96.99,401.5L96.26,401.6L95.62,401.3L95.05,400.7L92.03,398.8L91.11,398.8L90.46,398.3L89.66,398.1L88.81,396.9L88.61,396.2L89.25,395.9L89.62,395.2L90.62,395.5L91.75,396.7L92.92,397.2L93.24,397.4L93.81,398.1L96.46,399.7L96.75,400.3L96.95,400.8ZM396.3,441L396.5,441.7L396.1,442.3L396.5,443.4L397.7,441.9L398.8,441.7L399.4,442L399.8,442.3L400,442.8L399.6,444.1L398.9,444.6L398,444.7L397.5,444L396.9,443.9L396.5,445.5L396.3,445.7L395.8,445.9L395.3,445.5L395.2,445.3L395.9,444.6L395.6,442.5L395,442.9L393.7,444.8L392.6,445.6L392.3,445.2L391.7,443.9L392,442.2L392.8,441.1L393.6,441.2L395.6,440.8ZM381.1,432.4L381.6,432.9L381.4,433.5L381,433.4L379.9,433.4L379.6,433.4L379.1,433.7L378.8,433.7L379,433.2L379.9,432.4L380.4,432.5ZM319,471.2L316.6,473.3L316.2,472.7L316.4,470.6L315.7,469.3L315.8,468.3L316.3,466.6L316.9,465.2L318.2,464.4L318.6,464.3L318.5,465.9L318.8,466.5L318.8,467L318.7,467.4L319,469.5L319.1,470L318.8,470.6ZM174.8,416.1L174.9,416.7L174.2,416.6L173.6,415.9L174.1,415.4L174.4,415.2L174.6,415.9ZM179.4,418.9L179.4,419.2L178.4,418.6L178.4,418.1L178.5,417.9L179.1,418.4ZM184,418.5L183.3,418.9L182.4,417.8L182.4,417.6L182.5,417.4L182.7,417.3L183.2,417.8L183.8,418ZM189,427.2L189.1,427.5L188.6,427.2L188.3,427L188.1,426.8L186.9,425.3L187.4,425.4L188.7,426.7ZM206.9,392.5L206.8,393.3L206.1,392.8L205.9,392L206.2,391.7L206.7,391.9ZM201,395.8L200.5,395.9L200.4,395.5L200.4,395L200.3,394.5L200.2,394.2L200.2,393.6L200.7,393.9L201,394.1L201.4,394.3L201.7,394.5L201.8,394.6L201.5,395.4ZM236,395.4L235.4,395.9L234.9,395.6L235.7,394.4L235.9,394.3ZM236.7,446L235.4,446.5L235,445.4L235.9,445.1L236.8,445.4ZM220.2,460.3L219.7,460.6L219.4,460.3L219.4,460L219.6,459.6L220.2,459.6L220.4,459.7ZM213.6,461.5L213.4,461.7L212.8,461.6L212.3,461.3L212.1,461L212,460.7L212.6,460.3L213.9,460.7ZM106.7,404.6L106.7,404.9L105.5,403.7L104.2,403L104.7,402.9L105.8,403.1L106.3,403.2L106.7,403.8ZM84.66,362.7L84.42,363L83.78,362.9L83.05,361.9L83.29,361.7L83.78,361.8L84.62,362L84.7,362.4ZM400.6,446.9L399.8,447L399.3,446.7L399.3,445L399.8,444.7L400,444.7L400.2,445.2L400.4,445.7L400.8,446.1ZM396.6,473.9L395.5,475.3L394.7,475.2L393.8,474.3L393.6,473.3L393.5,473L394.2,472.5L396.3,472.6L396.6,473.1ZM395.6,448.2L394.8,449.1L394.7,448.6L394.8,448.2L395,447.9L395.4,447.7ZM334,381.2L335.1,381.2L336.6,381L337,382.1L337.1,382.5L335,383L333.7,381.7ZM334.1,391.1L334,391.5L333,390.6L332.7,390L332.9,389.4L333.9,389.4L334.3,389.7ZM320.3,466.6L319.9,468.6L319.2,467.5L320,466.2L320.3,465.9ZM-42,108L-41.45,107.7L-39.92,108.6L-37.1,109.6L-35.65,110.2L-35.29,110.8L-35.17,111.4L-35.17,112.8L-34.8,113.4L-31.98,114.9L-31.06,115.5L-30.29,115.7L-29.89,115.7L-29.61,115.9L-29.33,116.7L-29.12,116.9L-28.6,117.1L-28,117.2L-26.18,116.5L-24.94,116L-24.05,116.1L-23.45,116.7L-23.36,117.5L-23.04,118.5L-22.4,118.9L-21.71,119L-20.02,118.3L-18.65,118.8L-17.4,119L-15.99,119.3L-15.47,119.5L-14.02,120.3L-12.25,121L-11.56,120.9L-8.744,119.5L-8.502,119.7L-7.898,121L-7.052,121.5L-5.683,122L-4.273,121.2L-3.185,121.4L-1.816,121.5L-0.527,121.1L0.601,121L2.212,121.7L2.574,121.5L2.897,121.1L3.541,119.1L4.105,117.4L4.024,116.3L3.541,114.8L2.212,112.9L2.091,112.3L2.534,108.8L3.058,106.8L3.461,105.8L3.944,104.5L4.024,103.9L3.944,103.3L3.501,103L3.38,102.5L3.501,102.2L3.863,102L5.354,101.7L7.045,101.2L7.73,100.9L8.213,100.6L8.737,100.2L9.22,100.2L10.75,100.8L11.28,101.2L11.56,102.5L11.76,103L11.56,104.3L10.67,107.4L10.83,108.5L11.6,109.4L12.24,110L12.16,110.2L10.79,111.2L10.55,111.7L10.83,112.3L11.39,112.7L11.64,113.1L11.88,114.4L12.56,114.8L13.93,115.6L15.14,116.2L17.2,115.8L17.76,116.1L18.77,116.4L19.57,116.5L20.02,116.7L20.3,116.9L20.26,117.2L20.3,117.5L21.43,117.5L22.03,117.7L24,117.4L26.02,117L26.94,115.8L27.39,115.8L28.51,115.3L29.68,115.8L30.93,116.5L31.61,116.7L32.94,116.8L34.23,116.7L37.34,116.4L39.07,116.6L40.64,115.6L40.96,115.6L41.64,116.3L43.38,116.4L44.26,116.1L45.27,115.8L45.91,115.7L46.4,115.7L47,115.8L47.61,115.5L47.85,115L47.81,114.3L47.36,113.4L47,112.9L46.96,112.7L47.08,112.1L47.36,111.2L47.97,110.3L47.52,109.3L46.92,108.3L46.48,108.2L45.35,108.4L44.14,108.4L43.22,107.7L42.49,106.9L42.33,106.2L42.53,105.4L42.85,104.7L42.93,104.4L43.82,104.4L45.07,104.5L46.03,104.7L46.8,104.7L48.17,103.8L48.81,103.7L49.54,103.5L49.82,103.3L50.06,103.5L50.87,103.6L51.67,103.5L52.4,103.3L53.16,102.9L54.45,102L54.73,101.5L54.73,101L54.49,100.7L54.25,100.5L54.33,100.2L54.9,99.47L56.91,98.43L58.6,97.17L59.57,96.22L59.97,95.08L60.53,93.82L61.06,93.33L62.27,93.02L65.65,92.56L66.74,92.05L68.31,91.11L69.11,90.38L69.56,89.78L69.6,89.12L70.64,88.9L71.57,87.83L72.7,86.74L74.63,85.83L76.36,84.58L76.97,84.78L77.61,85.36L77.94,86.01L78.02,86.34L80.23,86.74L80.59,86.67L82.2,87.25L83.73,87.96L84.54,88.14L84.94,88.12L85.31,87.9L85.71,87.28L86.11,86.83L86.39,86.65L86.35,85.94L88.53,84.58L90.5,83.58L92.19,82.87L92.68,83.16L93.24,83.71L93.97,85.09L94.41,85.45L95.58,85.25L95.78,85.41L95.58,85.9L94.81,86.52L93.81,87.1L93.16,87.54L93.36,89.05L93.32,89.58L93.6,89.74L95.66,88.25L96.66,87.94L97.03,88.3L97.11,89.12L97.95,90.76L98.28,91.6L96.22,93.62L95.46,94.66L95.5,95.01L95.46,95.36L94.89,95.89L94.93,96.09L95.38,96.42L95.9,96.67L96.14,96.64L96.58,96.16L98.52,95.47L99.08,95.61L100.5,96.67L101.1,96.73L102.7,97.04L103.8,96.64L104.6,97L106.2,98.32L106.6,98.56L106.5,99.36L106.4,100.2L106.8,100.9L106.8,101.6L106.7,102.1L106.4,102.5L105.5,102.7L104.8,103.4L103.5,104.4L102.5,105.1L101.9,105.8L101.6,106.5L101.7,107.5L101.9,108.4L104.1,111.9L104.1,112.5L103.4,112.7L102.5,112.3L101.6,111.7L100.7,110.2L99.97,109.8L99.24,109.7L94.85,110.4L93.92,110.7L92.47,111.2L91.47,112.3L90.74,113.4L89.98,113.8L88.85,114.6L85.79,117L84.02,118L82.85,118.4L82.04,119L81.6,119.9L81.28,120.5L81.16,122.1L81.36,124.1L81.8,125.3L82.04,125.6L82.08,125.9L81.64,126.6L81.04,127.2L80.75,127.5L80.51,129.3L79.99,130.2L79.06,131.4L78.22,132.4L76.89,133.2L76.36,133.8L75.88,134.9L75.6,135.8L75.6,136.2L75.76,136.5L76.28,136.8L76.97,137.1L77.29,137.6L77.33,138.2L76.85,139.7L75.96,141.7L74.91,143.3L73.87,144.8L73.63,145.3L72.7,147.2L71.85,149.7L71.33,151.5L70.85,152.7L70.24,152.7L69.52,152.3L67.78,151.8L66.7,151.4L65.85,151.1L65.29,151.1L64.52,151.3L63.76,151.5L63.27,151.3L62.19,150.2L61.86,150.4L61.66,150.9L62.39,153.9L62.87,155L62.79,156.9L62.59,159.2L62.31,161.7L62.15,162.3L61.66,163L61.06,163.2L60.49,162.9L60.05,162.9L59.93,163.4L60.05,164.5L59.49,165.7L59.09,166.8L59.21,167.8L59.41,168.8L60.05,171.1L60.05,171.9L59.93,172.7L59.57,173L59,172.9L58.72,173.2L58.48,173.7L57.84,175.4L57.19,175.6L56.59,175.3L55.66,174.2L55.1,173.8L54.73,173.9L54.57,174.2L54.33,174.8L54.09,175.3L53.45,175.7L53.33,174.9L53,170.5L52.72,169.1L52.52,167.2L52.24,166.6L51.84,165.5L51.43,164.6L51.07,164.2L50.87,162.5L50.79,160.4L50.79,159.4L50.26,157.3L49.78,155L49.14,155.1L48.73,154.5L48.45,154.5L47.52,155.1L46.8,154.9L46.24,155L46.24,156L46.36,157.2L46.12,157.6L44.66,158.9L44.3,159.8L44.34,160.8L44.5,162L44.26,162.7L43.62,163.3L42.77,163.6L42.05,163.4L41.56,162.9L41.12,161.6L40.72,160.9L40.31,160.7L39.99,160.9L39.95,161.7L39.95,162.4L39.87,162.5L39.63,162.4L39.39,162.1L38.7,158.8L37.7,156.3L37.66,155.3L37.98,154L38.42,152.1L39.59,150.9L39.75,150.4L39.95,150L40.23,149.9L41.73,150L42.25,149.8L42.69,149.2L43.34,148.8L43.98,148.6L44.5,148.5L45.31,149L45.67,148.7L45.91,147.9L46.28,147.1L46.48,146.8L47.04,146.6L47.77,146.5L47.97,146.4L48.17,146.1L48.33,145.1L49.26,142.7L49.58,141.7L49.62,141.5L49.58,140.3L49.86,140.1L51.35,140.7L52,140.7L52.36,140.5L52.48,140L52.28,139.5L51.23,138.7L49.34,137.5L47.61,136.7L44.38,136.9L41.2,137.1L40.27,137L39.11,136.6L36.29,136.7L32.82,136.9L31.53,136.8L30.85,136.8L29.56,136.9L27.47,136.6L25.98,136.1L24.69,135.7L23.16,135.2L22.79,135.2L22.59,135.1L22.43,134.7L22.39,134.2L22.71,131.9L22.43,128.4L22.67,127.2L21.43,124.3L20.98,123.8L20.38,123.7L20.02,124.1L19.89,124.8L20.09,125.5L19.61,126.4L18.69,126.6L17.6,126.4L16.71,126L15.54,125.1L14.7,123.9L14.62,122.6L14.21,121.7L13.69,121.3L13.29,121.2L12.93,121.3L12.6,121.8L12.89,122.2L13.25,122.9L13.13,123.3L12.8,123.4L12.32,123.2L11.56,123.3L10.79,122.9L10.35,122.9L9.905,122.8L9.905,122L9.22,121.1L8.093,120L6.965,119.3L6.401,119.4L6.159,120.2L6.2,120.4L6.602,120.6L7.166,121L7.287,121.4L7.206,121.8L6.522,122.6L5.998,123.2L4.911,124.2L3.984,125.3L3.743,126.2L3.38,127L3.219,127.8L3.461,128.4L3.944,128.8L5.112,129.1L6.361,130.2L7.327,131.7L7.891,132.2L8.938,132.7L10.87,132.8L11.19,133.2L11.48,134.3L11.84,134.7L12.85,135.2L12.93,135.6L12.68,136.1L12.24,136.4L11.44,136.7L10.63,136.7L9.865,136.6L8.697,136.5L7.368,136.5L6.441,139.3L5.797,140.3L5.394,140.3L4.387,139.8L3.944,139.9L2.776,142.4L2.615,143L2.534,143.4L3.179,144.4L3.904,145.2L4.79,145.5L5.474,145.2L6.038,145.6L6.723,146.4L7.851,146.9L9.462,147.1L10.39,147.8L10.47,148.3L10.43,148.8L10.27,150.3L10.11,151.1L9.261,153.3L8.616,155.1L8.938,156L9.18,156.4L9.381,156.6L10.07,157.3L10.55,158L10.15,159.8L10.39,160.2L11.31,160.5L12.32,160.8L12.68,161.1L11.8,162.8L12,164.1L12.36,165.2L12.6,167.1L12.64,167.3L12.56,167.8L13.17,169.3L14.01,172.1L14.09,173.2L14.05,174.3L13.77,176.2L12.89,176.2L13.69,177.4L13.93,178.4L14.05,179.6L13.09,179.8L12.44,179.6L11.88,178.5L11.6,179.5L10.63,180.4L10.27,180L10.07,179.5L10.03,178.7L10.55,175.4L10.47,175L10.19,174.8L9.663,174.6L9.462,174L8.616,177.5L8.979,178.9L8.818,179.6L7.287,180.1L5.716,178.8L5.515,178.4L5.394,179.1L5.112,180L3.662,179.8L2.897,179.1L3.38,177.9L4.306,175.1L4.468,173.8L3.259,172.8L2.212,172.2L1.608,170.9L1.849,172.4L2.413,172.9L3.219,173.2L4.065,174L3.461,174.9L2.856,175.4L1.688,177.5L0.319,178.7L-1.333,179.6L-6.649,180.9L-7.777,181.5L-9.428,183.1L-10.48,184.6L-10.68,186.2L-10.07,187.9L-9.59,190.5L-9.187,191.1L-9.751,192L-10.76,193L-11.56,194.4L-11.48,195.2L-11.68,195.7L-14.5,197.4L-15.11,198.3L-15.87,199.3L-16.8,198.8L-17.36,198.8L-16.6,199.6L-16.72,200.1L-16.96,200.4L-17.68,200.7L-21.75,201.9L-24.86,203.1L-25.74,203L-25.58,202.7L-25.02,202.4L-25.06,201L-25.66,200.7L-26.14,200.7L-28.52,202.3L-29.45,203.9L-29.25,204.2L-28.72,204.1L-27.15,203.2L-26.39,203.5L-26.34,203.9L-28.76,205.3L-33.84,209.8L-34.08,210.7L-34.76,211.7L-35.65,212.6L-37.3,214.9L-40.44,218.4L-41.29,219.6L-42,220L-42,108ZM68.19,351.2L67.5,352.2L66.17,349.4L65.57,349.2L65.57,347.8L65.89,347.3L67.42,346.7L67.83,347L68.63,349.6ZM66.42,345.3L65.37,346.4L64.89,345.7L65.09,345.3L65.53,345.1L65.97,344.7ZM59.81,335.2L60.13,335.7L59.53,335.6L58.92,335L59.09,334.4L59.33,334.1ZM63.19,339.4L62.31,339.5L62.06,339L61.7,338.5L61.95,338L62.43,337.9L63.07,338.7L63.23,339.2ZM64.24,337.4L63.72,337.9L63.56,337.8L63.52,337.5L63.48,337.2L63.4,336.8L63.31,336.1L63.76,335.5L64.16,335.7L63.96,336.3ZM55.86,325.2L55.34,325.3L55.06,324.9L55.02,324.4L55.3,324.1L55.54,324L55.82,324L56.1,324.8ZM52.64,309.1L52.32,309.5L51.15,309.2L51.27,308L50.99,306.9L51.19,306.4L52.04,305.6L52.76,305.2L53.24,306.3L53.45,307.4ZM54.77,299.7L54.25,299.9L53.69,299.6L54.13,299.2L54.21,298.2L54.73,298.7L54.73,299.3ZM55.14,297.9L54.86,298.2L54.49,297.9L53.49,295.8L53.28,294.5L53,294.1L53.37,293.4L53.85,293.2L54.09,292.5L54.21,291.3L54.61,290.4L54.81,290.2L55.62,290.2L55.86,290L55.74,289.2L55.26,288.8L55.1,288.5L55.1,286.4L55.22,285.6L55.54,285L55.3,283.7L55.46,283.2L56.06,282.6L56.35,281.1L56.1,280.7L56.67,278.5L56.63,277L57.39,275.6L58.56,274.9L58.92,274.9L58.96,276.1L59.09,276.5L58.4,277.3L59.05,278.3L58.96,278.6L58.72,279.4L58.28,280.1L57.67,280.4L57.23,281.4L56.95,281.8L57.84,282.9L58.12,286.5L57.47,287.4L56.71,287.6L56.87,290L56.75,290.5L55.98,291.7L55.82,292.2L55.38,292.7L55.58,293.3L55.94,293.5L55.94,294L55.62,295.3L55.58,296.7ZM58.4,292.2L58.92,293.8L58.04,293.1L57.72,292.6L58.16,292.3ZM55.06,282.7L54.69,283.4L54.65,281.9L54.81,281.7L54.98,281.6L55.22,281.8ZM340,145.1L339.6,145.8L338.9,145.7L338.9,145.1L338.8,145L339,144.5L339.1,144.3L339.8,144.8ZM381.1,56.32L380.2,56.68L377.3,55.56L375.3,54.31L374,52.83L373.9,52.19L375.3,52.3L376.7,52.85L377,53.67L377.6,53.92L377.9,54.4L380.5,55.52L380.9,55.86ZM386,76.2L385.8,76.47L384.5,75.73L383,75.57L382.4,74.92L382.4,73.89L383.9,73.94L385.9,74.86L386.3,75.33ZM384.6,79.87L384.6,80.12L383.6,79.29L383.2,79.14L383.4,78.67L384,78.55L384.5,79.61ZM387.2,77.12L387.1,77.73L386.8,77.64L386.4,76.58L386.6,76.31L387.2,76.38ZM358.3,133.2L357.5,133.8L356.9,133.5L356.9,132.7L357.2,132L356.9,131.5L357.2,130.9L357.8,130.7L358,131.1L358.4,131.3L358.5,131.5L358.5,131.9L358.2,132.6L358.4,132.9ZM252.7,186.4L253.1,186.8L254.3,186.5L254.5,187L254.4,187.2L254.1,187.8L253.1,187.4L252.2,187.5L251.6,187.5L251.4,187.2L251.9,186.6ZM374.3,100.2L373.3,100.5L373,100.5L373,99.6L373.8,98.74L374.1,99.03L374.3,99.49ZM288.2,165.7L288.3,166.3L287.4,165.4L287.2,165.4L286.7,165.1L286.5,164.5L287.2,164.5L287.8,165.1ZM279.6,180.2L279.4,180.5L279.1,180.1L279,179.4L278.8,179.1L279.3,178.7L279.6,178.2L280.2,178.3L280.5,178.4L279.9,178.9L279.8,179.1ZM278,179.8L276.9,180L276.7,180L277.1,179.4L278,178.9ZM332.9,-42L333,-41.31L334.1,-38.43L335.3,-36.84L338.1,-35.01L344,-33.75L345.4,-34.2L346.9,-34.2L348.4,-33.01L349.4,-31.04L349.5,-29.69L349.5,-29.22L349.9,-28.83L350.1,-28.16L349.5,-27.6L349,-27.3L348.6,-25.25L348.6,-22.95L349.1,-22.19L350.4,-21.12L352.4,-20.24L354.2,-20.05L357.6,-20.46L359,-21.85L359,-22.43L359,-23.22L362.1,-25.25L363.8,-27.06L363.5,-27.53L363.2,-27.84L363.5,-28.04L364.4,-28.16L368.7,-30.03L372,-28.51L373.9,-26.74L375.8,-26.42L377.2,-25.54L378.7,-24.76L380.6,-24.71L382.3,-24.54L382.8,-25.27L383.3,-25.74L383.9,-25.64L384.6,-24.71L386.5,-23.97L388.2,-24.02L389.4,-24.29L390.1,-23.95L389.1,-22.75L389.2,-20.82L388.4,-20.21L387.7,-19.24L388.1,-18.61L388.5,-18.32L388.5,-17.54L387.8,-17.1L386.5,-15.94L385.7,-15.96L385.4,-16.18L385.1,-16.62L385,-17.27L384.5,-17.71L383.2,-17.88L381.9,-17.73L379,-16.01L376.1,-14.63L373.1,-13.54L372.1,-12.86L371.4,-12.66L370.2,-13.2L369.4,-13.15L369.2,-12.81L370.2,-11.84L370.4,-11.09L370.3,-10.54L369.8,-10.27L369,-10.71L368.3,-10.1L367.9,-9.09L367.9,-6.706L367.5,-6.177L366.1,-5.888L364.7,-5.119L364.2,-5.48L364,-5.888L364.2,-6.995L364,-7.524L363.3,-7.5L362.3,-7.187L361.6,-6.441L361.4,-6.008L362.3,-4.615L363.3,-4.471L363.5,-4.159L362.7,-3.463L360.9,-2.456L360.6,-1.593L360.1,-0.779L359.3,-0.133L358.8,0.536L358.2,0.894L357.2,1.301L355.9,2.923L355,4.473L353.9,5.234L353.1,7.825L351.5,9.202L351,11.43L351.4,12.8L353,12.78L353.9,13.27L355.7,15.07L357.7,16.22L359.9,16.88L362.5,18.55L363.3,19.24L363.9,20.67L365.1,24.75L365.9,26.76L366,27.83L367.2,29.81L368.5,33.21L370,36.15L370.4,38.44L369.8,39.51L369.9,40.87L371.4,42.13L374.8,43.59L375.3,44L376,44.71L376,46.9L376.5,47.61L377,48.02L379.1,48.96L379.9,49.72L380.8,50.95L381.1,52.05L381.2,53.53L380,53.58L379.1,53.42L375.4,51.5L374.5,51.43L373.1,51.71L371.2,51.34L369.1,49.21L367.7,48.57L366.1,48.23L362.4,50.08L361.4,49.95L361.1,50.15L360.7,50.47L362.5,50.86L364.2,50.27L365.9,49.37L368.3,49.85L368.7,50.66L369.1,52.01L370.8,52.92L372.1,53.33L373.8,54.52L375.4,56.41L378.9,58.57L380.3,60.62L380.8,61.95L381.3,63.83L380.1,64.44L379.1,64.53L377.4,64.83L376.2,65.48L374.9,66.66L371.5,68.51L370.8,69.66L370.4,70.65L369.5,71.15L367.3,70.67L365.3,70.72L363.1,72.07L362.5,72.61L362.9,72.52L363.2,72.34L364.2,72.54L365.8,71.82L367.4,74.03L370.4,73.67L373.3,71.82L374.4,71.8L375.3,72.09L376.3,72.81L379.1,76L380.6,76.36L382.1,77.1L382.9,77.19L383.6,77.41L381.6,78.58L379.1,81.1L377.9,81.71L377.2,82.38L379.2,82.04L380.7,80.83L381.4,80.54L382,80.81L382.3,82.31L381.8,86.87L381,86.94L380.3,85.69L379.5,85.32L378.8,85.56L377.5,85.56L377,86.12L376.5,86.92L377.3,87.08L378.9,88.45L379.1,89.19L378.7,89.67L377.5,89.47L378.9,90.49L378.5,91.56L378.1,91.98L377.3,92.25L376.8,93.17L377.5,94.7L378.2,96.67L378.3,97.61L377.2,97.22L375.5,98.41L374.5,98.5L373.9,96.93L373.1,97.17L372.6,97.64L371.9,99.33L371,100.9L370.3,101.3L369.4,101.2L368.7,101.2L368.9,101.6L369.6,102.1L369.6,102.7L368,104.5L367.7,105.3L367.7,105.9L366.9,106.6L367.3,107.9L367.1,108.8L366.3,109.9L365.6,110.7L364.6,112L363.4,112.7L361.9,115.4L361.4,116.7L361.3,118.1L360.8,118.5L360,119.1L359,118.8L359,117.9L358.6,117.8L358.3,117.2L358.2,116.5L358.4,115.9L357.9,116L357.7,116.8L357.1,117.3L356.4,117.1L355.7,116.6L355.7,117.3L356.1,118L356.3,118.7L357.2,118.8L357.9,119.6L358.4,120.8L358.5,121.3L358.9,121.8L359,122.3L358,122.7L356.9,123.5L355.5,124.9L354.3,125.8L353.2,125.8L352.6,125.7L351.7,125.1L350.7,124.9L352.1,126.8L352.8,127.1L353.8,127L354.7,126.3L356.1,126.4L356.4,127.4L356,128.6L355.3,130.2L355.2,131.5L356.1,133.4L356.1,134L355.7,134.3L354.7,133.8L353.8,133.2L353,133.3L352.1,133.1L351.1,133.3L350.7,133.7L351,134.4L351.8,135L352.3,136L351.7,136.3L349.4,136.1L348.8,136.3L348.2,137.3L348.6,138.8L348.1,139.7L347.1,139.9L345.8,140.7L345.1,140.9L345.1,141.2L345.7,141.5L346,142L345.3,143.5L344.2,144L342.5,143.7L341.2,144.1L340.1,143.4L338.9,143.4L338.1,144.3L338,145.2L337.2,145.3L336.8,145.2L336.2,145.3L336.2,145.8L336.6,146.3L338.2,146.5L338.5,147.1L338.6,148.1L336.8,149.8L336.1,151L335,151L334.2,151.9L333.8,153.1L333.2,152.9L332,153.1L331.6,153.7L331.9,153.9L331.9,154.3L331.4,155.8L330.8,156.2L330.6,155.6L330.4,154.7L330,154.6L329.3,155.5L328.4,156L327.7,156.3L327.1,155.7L325.7,155.5L325.2,157.8L324,158.7L323.5,158.9L322.6,159L323.2,159.3L323.4,160L323,160.6L322.1,160.7L321.6,161.1L321.4,163.3L320.8,164L319.4,164L318.4,163.6L318,164L317.9,164.3L317.3,164.7L316.3,164.8L313.9,165.7L312.8,165.5L311.5,165.1L310.6,165.5L310.3,166.2L309.9,166.7L308.6,166.7L307.6,166.1L306.6,165.6L305.4,166L304.5,166.9L303.4,167.2L303.2,167.7L302.7,168L301.6,167.9L301.1,166.5L300.5,166.3L299.8,167L299.6,167.5L299.3,167.9L299.4,169.1L298.7,169.1L297.9,168.4L297,168.3L296.2,168.9L295.7,168.7L295.3,168.6L294.6,168.6L294.3,168.8L293.7,168.9L293.4,169.2L293.3,169.3L292.4,169L291.2,168.1L290.4,166.6L289.4,165.7L288.9,165L288.8,163.7L288.6,163.1L288.6,162.4L288.9,161.8L287.8,162.1L287,162.7L287.1,163.4L286.9,164.1L285.7,164.4L285.8,164.7L285.9,165L286.8,165.9L287,166.7L287.4,167.1L288.2,168.3L288.1,170.6L288.6,171.2L288.4,171.8L288.1,172.7L288.1,172.7L287.9,172.5L287.5,172.5L287.4,172.8L287.3,173.1L287.3,173.1L286.7,173.3L286.1,173.5L285.6,173.7L285,174.4L283.6,174.5L283,172.9L282.1,174L281.8,176.2L281.5,176.6L280.9,176.9L279.9,176.1L278.9,176.6L278.2,177.1L277.9,177.6L277.4,178.1L276.3,177.6L275.5,176.9L275.7,176.3L275.6,176L275.2,175.7L274.8,175.7L275,176.4L275.2,177.8L274.8,178.2L274.2,178.5L273,178.3L272.1,177.8L271.1,177.3L270.2,177.3L270,178.1L269.4,178.9L268.9,178.9L268.3,178.8L267.6,179.6L267.2,180.2L266.4,180.8L264,181L263.2,181.6L262.1,181.5L261.2,181.7L260.7,181.6L260.3,181.3L259.8,181.3L259.6,182.3L258.3,182.7L257.1,182.8L255.7,184.1L254.8,184.9L254.1,185L253.5,184.7L253.3,183.5L253,183.4L252.9,184.5L252.6,185.4L252.1,185.9L250.6,187L250.2,188.1L250.4,189.2L252.5,189.4L252.8,190L252.6,190.4L252.1,190.8L251.9,191.4L254.2,193.2L254.2,193.9L253.9,194.3L253.5,195.2L252.3,195.9L249.8,196.3L247.7,195.9L247.1,195.1L247.1,194.5L247.7,194.7L248.2,194.6L248.1,194.1L247.8,193.7L246.9,193.3L246.1,192L246.3,190.9L245.8,190.1L245.4,189.4L244.9,189L244.6,188.5L245.1,186.8L244.8,185.9L245.7,184.7L246,183.4L247.5,183L247.7,181.7L246.5,181.7L245.7,180.7L245.5,181.1L244.9,181.2L243.9,179.4L243.6,179.2L243.1,179.1L243.3,181L242.1,181.7L241.1,182L239.7,182.1L238.9,182.3L238.2,182.2L238.3,181.6L238.7,180.9L238.4,180.4L237.6,179.9L236.3,180L235.5,179.8L234.7,179.9L234.4,179.6L233.6,178.8L232.9,178.2L232.6,177.7L232.9,177L232.7,176.6L231.4,176.6L231.4,177.5L231.6,178.6L231.9,179.4L231.7,179.9L231,180.2L230.3,179.3L230,179.1L229.7,179.1L229.4,180L228.8,180.8L227.7,180.7L226.8,181.2L225.8,181.4L225.8,181.4L225,180.7L223.8,179.7L223.3,179.6L222,180.1L220.1,180.3L219.7,179.8L218.8,180.2L217.9,178.9L216.9,178.9L215.6,177.9L215.1,177.4L214.9,176.7L214.5,176.4L214,176.4L213.5,176L212.5,175.7L211.8,175.4L211.5,175.6L211.1,175.7L211,175.2L211.1,173.8L211,172.5L210.8,171.9L210.3,171.5L209.8,171.3L209.7,170.7L209.8,169.4L210.2,168.5L210.8,168.4L211.5,167.7L211.9,166.8L212.4,166L210.7,164.9L209.7,164.4L208.7,164.6L207.5,165L206.8,165.1L206.5,164.9L205.7,163.9L205.3,163.7L204.4,163.6L203.7,163.6L203.2,164.1L202.6,164.2L201.9,164.3L201.2,163.7L200.2,163L198.6,162.5L198.4,161.8L198,161.1L197.4,160.5L196.4,159.6L195.5,159.1L195.1,159.4L194.6,159.9L192.4,161L191.5,161.4L191,161.7L190.6,162.1L190.4,163.2L190.2,164.4L189.6,165L189,165.5L188.4,165.5L187.8,165.5L187.2,165.7L185.4,166.9L184.6,166.8L183.9,166.1L183.7,165.6L182.9,165.8L181.9,166.3L181.4,167.4L181.2,168.4L181,168.8L180.6,168.9L180.3,168.9L177.2,166.1L177.1,166L176.5,166.6L176,168L175.6,168.3L175.4,168.2L174.1,166.3L173.8,166.1L173.5,166.2L173.1,166.8L172.3,167.7L171.7,168.3L171.6,168.9L170.9,169.4L170.2,170L169.9,170L169.4,169.8L168.7,169.1L168.2,168.3L167,167.6L165.6,167L164.7,166.5L164.2,166.4L163.7,166.6L163.4,166.9L163.1,167.6L162.3,168.8L161.6,169.8L160.9,170.4L160.3,170.9L159.9,170.5L159.2,170.1L158.3,170.1L157.2,170.8L156.2,169.5L156,169.4L155.6,169.6L155.2,169.8L154.9,170.5L154.7,171.5L154.1,172.1L153.6,172.4L153.7,172.9L154,173.5L154,174L154.2,174.8L154.5,175.6L155.6,176.9L156,177.5L156,178.1L156.1,180.2L156,181.1L155.8,182.7L155.8,183.7L156.3,184.1L156.7,184.6L156.7,184.9L156.5,185L155.9,185.6L155.6,185.7L155.2,185.4L154.7,185.2L154.3,185L153.8,184.7L152.7,184.7L150.9,185.3L150.5,185.1L150.2,184.8L150.1,184.1L150.2,183.4L150,182.9L149.7,182.6L149.9,181.2L149.3,180.7L149.4,180.5L149.1,179L149.2,178.6L149.1,178.5L148.6,178.4L147.9,178.6L145.9,179.6L144.1,181.4L143.3,181.8L142.5,182L141.5,181.7L140.4,181.5L139,181.9L138.2,181.7L137.8,181.3L137.5,180.8L137.7,180.1L137.6,179.5L137,179.3L136.3,179L135.9,178.4L135.7,177.6L135.9,176.6L136,175.6L135.6,175.1L134.6,174.8L132,174.4L129.7,174.1L128.7,174.2L128,174.1L127.5,173.9L127.3,173.6L127.3,173.1L127.6,172L128.1,171L129.1,169.4L129.2,168.4L129.1,167.1L129.7,165.4L130.6,164.2L131,163.8L130.9,163.3L130.5,162.8L130,162.5L129.2,162.2L127.8,162.1L126,161.7L123.8,161L124.1,159.6L124.1,158.7L123.8,158L123.3,157.5L123.1,157L123.5,155.7L123,154.3L122.4,153.8L121.8,153.1L121.7,152.3L122,151.6L123.5,150L123.5,149.7L123.1,149.7L122.7,149.7L120.7,150.3L120.5,149.9L119.7,149.7L118.3,149.7L116.5,149.8L114.3,150.3L112.3,151.3L111.4,152L110.6,152.4L110,152.5L109.3,152.2L109.4,151.3L110.7,149.5L110.9,148.3L110.5,147.3L110.4,146.5L110,145.9L109.3,145.7L108.9,145.1L108.9,143.4L109.5,141.6L110.5,141.1L111.1,140.8L111.2,140.4L110.9,139.2L111,138.4L111.6,136.9L112.1,135.7L113.3,135.9L113.7,135.6L114.3,135.2L114.9,134.5L115.3,133.7L115.8,131.8L116.1,131.5L117.5,131.8L117.9,131.6L118.7,130.4L119.4,129.1L120.4,128.6L121.2,128.6L121.5,128.1L121.5,127.5L120.8,126.4L120.5,125.5L120.5,125L121.6,124.7L121.8,124.1L121.7,122.7L122.1,121.1L122.4,119.2L122.4,117.7L122.4,116.6L122.3,115.5L122.2,113.4L121.7,111.6L121.8,110.9L121.7,108.6L121.4,106.7L120.9,106.4L119.8,105.8L119.2,105.7L118.7,105.9L118.5,106.5L118.1,107.2L117.5,107L117.2,106.4L116.8,105.6L115.6,101.7L115.5,100.6L115.3,99.51L114.9,98.96L114.4,98.65L113.4,97.35L112.9,96.8L112.7,96.71L112.1,96.8L111.6,96.8L111.1,96.16L110.8,95.36L110.4,94.97L109.7,94.77L109,94.83L108.6,95.52L108.3,95.92L107.8,96.82L107,98.1L106.6,98.56L106.2,98.32L104.6,97L103.8,96.64L102.7,97.04L101.1,96.73L100.5,96.67L99.08,95.61L98.52,95.47L96.58,96.16L96.14,96.64L95.9,96.67L95.38,96.42L94.93,96.09L94.89,95.89L95.46,95.36L95.5,95.01L95.46,94.66L96.22,93.62L98.28,91.6L97.95,90.76L97.11,89.12L97.03,88.3L96.66,87.94L95.66,88.25L93.6,89.74L93.32,89.58L93.36,89.05L93.16,87.54L93.81,87.1L94.81,86.52L95.58,85.9L95.78,85.41L95.58,85.25L94.41,85.45L93.97,85.09L93.24,83.71L92.68,83.16L92.19,82.87L90.5,83.58L88.53,84.58L86.35,85.94L86.39,86.65L86.11,86.83L85.71,87.28L85.31,87.9L84.94,88.12L84.54,88.14L83.73,87.96L82.2,87.25L80.59,86.67L80.23,86.74L78.02,86.34L77.94,86.01L77.61,85.36L76.97,84.78L76.36,84.58L74.63,85.83L72.7,86.74L71.57,87.83L70.64,88.9L69.6,89.12L69.56,89.78L69.11,90.38L68.31,91.11L66.74,92.05L65.65,92.56L62.27,93.02L61.06,93.33L60.53,93.82L59.97,95.08L59.57,96.22L58.6,97.17L56.91,98.43L54.9,99.47L54.33,100.2L54.25,100.5L54.49,100.7L54.73,101L54.73,101.5L54.45,102L53.16,102.9L52.4,103.3L51.67,103.5L50.87,103.6L50.06,103.5L49.82,103.3L49.54,103.5L48.81,103.7L48.17,103.8L46.8,104.7L46.03,104.7L45.07,104.5L43.82,104.4L42.93,104.4L42.89,103.8L43.01,102.3L42.61,101.9L41.36,101.6L39.95,101.1L39.27,100.5L38.91,100.3L38.38,100.4L37.54,101L36.73,101.6L36.09,101.7L35.44,101.4L34.8,101L32.66,100.4L31.7,100.3L30,100.4L28.59,100.3L28.39,100.1L28.39,99.82L28.59,99.18L28.71,98.59L28.55,98.23L27.14,97.79L25.82,97.48L24.45,97.37L23.52,97.59L22.59,98.08L21.87,98.94L20.78,99.31L19.49,99.95L18.85,100.6L17.88,101.8L16.51,103.4L15.26,105L14.62,106.5L13.77,107.4L12.89,108.1L12.24,110L11.6,109.4L10.83,108.5L10.67,107.4L11.56,104.3L11.76,103L11.56,102.5L11.28,101.2L10.75,100.8L9.22,100.2L8.737,100.2L8.213,100.6L7.73,100.9L7.045,101.2L5.354,101.7L3.863,102L3.501,102.2L3.38,102.5L3.501,103L2.534,102.8L1.527,102.7L0.722,102.8L-1.252,103.6L-1.937,103.7L-2.702,103.6L-3.709,103.6L-5.642,103.6L-7.334,103.4L-8.663,102.2L-9.63,101.7L-10.68,101.3L-11.68,101.1L-12.05,100.4L-12.37,100.1L-13.21,100L-13.9,100.2L-14.3,101.8L-14.66,102.1L-15.51,102.2L-16.44,101.8L-17.64,101.1L-18.13,100.2L-18.57,99.86L-19.22,100.3L-19.26,101.4L-19.38,102.2L-20.14,102.5L-20.63,102.2L-20.99,101.4L-21.87,99.6L-22.8,98.52L-23.69,97.81L-26.71,97.81L-28.92,97.61L-29.93,97.31L-30.29,96.6L-29.93,95.17L-29.49,94.06L-29.49,93.79L-29.89,93.66L-30.49,93.57L-32.91,94.28L-33.55,94.21L-33.96,93.97L-34.48,93.75L-34.88,93.42L-35.21,92.93L-37.26,91.76L-37.87,91.09L-38.99,90.27L-39.92,89.72L-40.52,88.12L-41.05,86.58L-41.33,85.78L-42,85.45L-42,-42ZM258.4,199.5L258.9,200L259.3,200.8L259.6,202.2L259.8,203.5L258.6,204.3L257.6,204.7L255.6,207.8L255.2,208.8L254.8,209.3L254.7,209.7L254.8,210.1L254.2,211.6L253.7,213.5L253.5,214.3L252.9,214.8L252.1,215.1L251.7,215.2L251.3,215.4L250.2,216.4L249,217.1L249.2,217.5L249.2,217.8L248.6,218.2L248.1,218.1L246.4,218.4L245.7,219L245.1,220L244.8,220.2L243.8,220.4L243,220.5L241.7,219.8L241.1,219.5L239.3,219.2L237.6,218.8L236.3,218.2L233.9,216.8L233.6,214.2L233.2,212.9L233.2,212.4L233.3,208.1L233.5,207.7L233.8,207.3L234.9,206.3L236.1,205.6L237.9,204L239.2,203.3L240.3,202.2L239.7,202.3L239.2,202.2L239.7,201.3L240.2,200.8L240.7,200.6L241.9,200.7L243,200.6L243.8,199.8L244.5,199.6L247.4,199.9L249.4,199.5L250.3,198.8L250.8,198.7L252.3,198.9L252.8,199.7L252.8,199.2L252.8,198.7L253.1,198.8L255,199.7L255,198.6L255.1,198.2L255.7,197.8L256,197.8L256.8,198.7L257.5,199.2ZM287.3,173.1L287.4,172.8L287.5,172.5L287.9,172.5L288.1,172.7L288.1,172.8L287.6,173L287.4,173.1ZM293.3,169.3L293.4,169.2L293.7,168.9L294.3,168.8L294.6,168.6L295.3,168.6L295.7,168.7L296.2,168.9L296.2,168.9L296.4,169.4L296.4,169.9L296.8,170.2L296.9,170.6L296.4,170.9L296.4,171.5L296.2,171.9L294.7,171.2L293.5,170.9L292.5,171L292.1,170.6L292,170.3L293.3,169.6ZM295.8,172.9L295.5,173.1L294.7,172.2L294.7,171.9L295.3,171.9L295.9,172.3L295.9,172.6ZM293.1,172.9L291.8,172.9L291.5,172.8L291.4,172.5L291.9,172.1L293.7,171.4L293.2,172.1ZM170.6,300.8L170.4,300.9L170.2,300.9L170,300.7L170.1,300.1L170.2,299.7L170.5,299.6ZM173.7,307.2L173.2,307.7L172.6,306.8L172.6,306.5ZM220.7,261.5L220.8,262.1L220.4,263.3L219.9,264.4L218.9,265.4L218.9,266.1L218.5,268.2L218.7,268.8L218.9,269.4L219.2,269.7L220,271.8L220.8,273.6L221.5,275.1L221.6,276.1L221,278.6L220.2,280.8L220.2,281.9L220.6,283L220.9,284.5L221.1,286.4L220.9,287.7L220.5,288.4L219.8,289.2L219.3,289.6L218.5,289L218,288.9L217.2,289.1L216.7,289.4L215.4,290.6L214.1,291.7L212.2,292L211.5,292.9L210.7,293L209.2,293L208.3,293.2L208.4,293.6L208.3,295.6L208.3,296.1L208.2,296.2L207.5,296.2L206.3,295.9L204.8,295.5L203.7,295.4L203.2,296.2L202.8,296.6L202.4,296.6L202,296.8L201.9,297.2L201.8,297.7L202,298.5L202.1,299.8L202.1,300.7L202.5,301.2L204.8,303.1L205.5,303.6L205.5,303.9L205.1,304.9L205.5,306.4L204.8,306.3L203.6,305.7L203,305.3L202.3,305.6L202,305.6L201.5,304.9L200.9,304.2L200.3,304.1L198.9,304.4L197.6,304.6L197,304.6L196.8,304.7L196,305.8L195.7,305.6L194.3,305.2L193,305L192.7,305.3L192.9,306.2L193.2,307.1L193,307.4L192.3,307.9L191.4,308.7L190.8,309.3L190.4,309.5L189,309.5L187.6,309.5L187,310.1L186.5,310.6L186.1,310.7L184.2,309.3L180.6,308.7L180.2,308.1L179.8,308L179.5,308.8L177.5,309.6L176.7,309.1L176.1,308.5L176.1,307.8L176.7,307.2L177.7,306.8L178.2,305.3L177.4,303.4L176.8,302.8L176.1,302.4L175.3,303.1L174.7,304.3L174.1,304.9L173.2,305.1L171.8,305L171.3,303.2L171.1,301.6L171.3,299.8L171.5,298.8L170.2,297.3L170.1,295.9L169.5,295.2L169.4,295.6L169.4,296L169.2,295.7L167.2,291.6L166.8,289.7L167.2,288.2L167.4,287.7L166.8,287L165.9,286.1L164.5,284.9L164.4,283.1L164.1,281L163.6,280.3L163,278.9L162.6,277.8L162.5,274.9L162.7,274.7L163.7,274.6L165,274.4L165.3,273.9L165,273.6L165.9,272.9L167.1,271.5L168,270L168.7,269L169.1,268.1L170.5,266.7L172.3,265.8L173.6,265.6L174.9,265.3L176.2,264.8L176.8,264.8L178.4,265.3L179.3,265.5L180.2,265.5L181.1,265.5L181.9,265.5L183.8,265.1L185.9,265.4L187.7,265.1L190,264.7L191.1,265L192.1,265.4L192.3,266.3L192.5,266.7L192.8,267L193.3,267L193.9,266.4L194.4,265.8L194.5,265.6L194.5,266L194.8,266.6L195.2,267.3L195.7,267.8L196.4,268.4L196.9,268.4L198.4,267.8L200.7,268.7L201,269.1L201.8,269.9L202.6,270.5L204.4,270.6L205.1,269.1L204.8,268.2L203.7,266.6L203.4,265.7L203.8,265.5L205.5,265.3L205.8,265.2L206.2,264.2L206.7,264.3L207.6,264.4L208.7,263.7L209.3,263L209.6,263.3L210,263.8L210.4,264.1L211.1,264.6L211.9,265.2L212.4,265.8L212.8,266L213.9,265.8L214.2,265.9L214.8,265.1L215.2,264.7L215.6,264.8L216.1,264.8L217.2,263.9L217.8,263L218.1,262.8L219.1,263.2L219.5,263.2L220.1,262ZM137.9,195.6L136.6,194.9L136,194.5L135.3,194.3L134.6,194.8L134,195.3L133.4,195.5L132.5,195.6L131.3,195.3L130.5,195.1L130.4,195.2L130.8,196.3L131,197.2L130.8,197.6L130.4,198L129.8,198.3L129.1,198.5L128.5,198.4L127.6,198L126.8,198L126.2,198.2L125.8,198.5L125.6,198.9L125.2,201.1L124.9,201.7L124.4,202.1L124,202.1L123.3,202L122.7,202.1L119.7,203L119.3,203.1L118.3,203.1L117.4,203.1L116.8,203.1L115.4,202.2L114.7,202.1L114.3,202.4L114.1,203.5L113.2,204.3L112.1,205.8L111.8,208.1L112,209.7L111,211.3L110.9,212.1L111.4,215.8L111.3,216.2L111.1,216.3L110.5,216.5L109.4,216.8L108.7,217.2L108.4,217.3L107.4,217L107.2,217L107.2,217.3L108,218.9L108.8,219.6L109.7,219.5L110,219.7L110,220L110.3,221L111,222.6L111.2,223.8L110.8,225L110.9,225.5L111.1,225.7L111.8,226.8L113.4,228.6L114.9,230.4L116.1,232L117,233.1L119.1,235.1L119.4,236L119.5,237.9L120,239L120.5,239.8L120.8,240.5L121.6,242.6L121.9,242.9L123.5,241.6L123.9,241.9L124.1,242.4L124.1,243L123.9,243.7L123.3,244.4L120.8,245.9L120.6,247.2L120.4,249.2L120.3,251.6L120.5,253.4L120.4,253.8L120.2,254L119.2,253.9L117.9,254.9L117.4,254.9L116.8,255.3L116.3,255.7L116.2,256.4L116.4,258.4L116.9,260.2L117.9,261.6L118.7,262.7L119.7,264.2L120.5,265.5L122.2,266.9L124.6,269.1L125.5,270.3L126.3,271.7L126.9,272.9L127.1,274.5L127.3,275.4L127.3,278.5L126.9,279.2L126.6,280L126.8,280.8L127.3,281.6L127.3,282.5L127.8,284.1L128.7,285.1L129.5,285.8L129.9,286.3L129.8,287.2L130,288.1L130.2,289.1L130.5,290.4L131.2,291.6L132.2,295.1L132.2,295.5L131.7,296.2L131.1,296.8L130.7,297L130.3,297.7L129.4,299.6L127.5,302.8L125.6,304.9L124.1,306.4L123,307.4L122.6,307.9L122.6,308.3L122.8,309.1L122.8,310.5L122.5,311.4L122.2,312.4L122,313.2L121.5,313.4L120.5,315L120,314.2L119.7,313.3L120,311.4L119.4,307.7L119.8,307.2L120.1,307L120.9,305.6L121.7,304.2L121.8,302.5L122.5,301.3L122.3,300.3L122.4,299.1L122.5,298.1L122.4,297.3L123,296.4L124,295.8L123.6,295.6L123.2,295.1L121.9,295.8L121.3,295.6L121.2,294.9L121.3,294.1L121.4,293.6L121.9,293.1L121.8,292.1L121.6,291.2L122,290L121.2,290L120.9,289.8L121.1,289.2L121.8,288.6L121.2,287.6L121.6,286.4L121.6,285L121.3,283.8L121.3,282.9L120.8,281.3L120.6,279.3L119.6,277.8L118.9,275.6L116.9,272.7L116.9,271.5L116.8,270.4L116.4,269.9L115.8,273.7L115.4,273L115.3,270.8L115,269.8L115.3,267.8L114.1,265.8L113.9,264.3L113.1,262.1L113.4,261.6L114.4,262.1L113.5,260.8L112.7,261.1L112.1,259.7L111.9,255.9L111.3,254.5L111.6,253.1L110.9,247.9L109.5,246.3L109.8,244.8L110.2,243.5L110.1,241.1L110.4,240.4L111.1,239.8L110.4,240.1L109.9,240.2L108.6,240.4L107.2,240.4L106.7,238.7L106,237.8L105.3,236.1L105,234.1L105.2,233.7L104.1,232.9L103.8,232.4L102.6,231.1L101.3,230.1L101.6,230.8L102,231.2L101.3,232.4L101.9,234.4L101.4,235.7L100.9,237.4L100.4,238.2L98.76,239.9L97.47,240.5L96.62,240.6L95.86,240.4L94.93,239.5L94.73,238.8L94.57,237.6L94.25,237.4L93.89,237.5L94.45,239.1L94.45,239.9L95.42,241.3L95.05,241.7L93.28,242.5L92.68,242.4L92.27,242.5L92.15,243.2L91.91,243.5L89.13,244.5L88.57,245.6L88.21,246.7L86.8,248.4L84.94,249.7L84.5,249.6L83.98,249.3L84.06,247.9L84.66,246.6L84.46,245.4L84.34,246.1L83.13,247.9L82.57,248.5L81.48,248.3L79.95,248.6L79.39,246.7L79.39,246L79.26,245.5L79.47,244.8L79.39,244.3L79.02,245.3L78.9,246.1L78.34,246.8L76.81,247.6L76.77,246.6L76.69,245.7L77.01,244.9L76.97,243.7L77.45,241.8L77.41,241.2L77.29,240.5L77.01,241.5L76.85,242.6L76.53,242.9L76,243.1L74.95,244.3L74.35,245.4L72.74,246.4L71.93,246.3L71.81,245L72.46,240.5L73.06,239.8L73.38,239L73.87,236.4L74.47,235.3L74.71,233.2L74.95,232.9L75.72,231.2L76,228.1L75.68,226.6L74.95,225.1L74.23,220.7L72.38,217.1L72.22,215.9L71.33,214.4L72.17,214.3L70.44,213.1L70.2,212.5L69.84,209.5L69.92,207.9L69.68,208.1L69.44,209.1L68.75,209.6L69.03,211.3L68.99,211.8L68.63,212.5L67.18,211.7L66.13,211L64.92,209L63.76,206.9L64.16,206.6L64.68,206.5L66.38,208.1L67.46,208.5L68.15,208.1L68.99,207.4L69.4,206.1L68.95,205.6L68.15,205.3L67.62,205L66.82,204.1L66.74,203.6L66.5,203L65.69,202.6L65.05,202.1L65.61,201.2L66.13,200.5L64.72,200.5L63.15,199.3L62.79,199L62.27,198.7L61.02,198.6L59.97,198.9L60.45,200.6L60.37,201.2L59.69,201.1L58.24,198.5L58.68,197.9L59.29,197.2L59,197.2L58.4,197.2L58.96,194.9L58.6,194.6L58.44,195.3L58.12,196L56.91,197.6L56.31,197.3L55.9,196.9L56.47,196L56.79,195.8L56.99,195.4L56.55,194.5L55.82,193.8L55.26,192.7L54.98,192.7L55.22,194L55.14,195.9L53.85,193.8L51.27,190.8L50.67,190L50.51,189.1L50.22,188.3L50.02,187.4L49.98,186.7L49.42,186.1L49.18,185L49.06,184L49.38,183.2L50.14,182.3L50.75,182.2L51.19,182.6L52.32,183.1L53.08,183.6L53.41,184.3L53.73,184.2L54.09,183.8L54.01,183.3L53.69,181.8L53.57,180.2L53.57,176.2L53.45,175.7L54.09,175.3L54.33,174.8L54.57,174.2L54.73,173.9L55.1,173.8L55.66,174.2L56.59,175.3L57.19,175.6L57.84,175.4L58.48,173.7L58.72,173.2L59,172.9L59.57,173L59.93,172.7L60.05,171.9L60.05,171.1L59.41,168.8L59.21,167.8L59.09,166.8L59.49,165.7L60.05,164.5L59.93,163.4L60.05,162.9L60.49,162.9L61.06,163.2L61.66,163L62.15,162.3L62.31,161.7L62.59,159.2L62.79,156.9L62.87,155L62.39,153.9L61.66,150.9L61.86,150.4L62.19,150.2L63.27,151.3L63.76,151.5L64.52,151.3L65.29,151.1L65.85,151.1L66.7,151.4L67.78,151.8L69.52,152.3L70.24,152.7L70.85,152.7L71.33,151.5L71.85,149.7L72.7,147.2L73.63,145.3L73.87,144.8L74.91,143.3L75.96,141.7L76.85,139.7L77.33,138.2L77.29,137.6L76.97,137.1L76.28,136.8L75.76,136.5L75.6,136.2L75.6,135.8L75.88,134.9L76.36,133.8L76.89,133.2L78.22,132.4L79.06,131.4L79.99,130.2L80.51,129.3L80.75,127.5L81.04,127.2L81.64,126.6L82.08,125.9L82.04,125.6L81.8,125.3L81.36,124.1L81.16,122.1L81.28,120.5L81.6,119.9L82.04,119L82.85,118.4L84.02,118L85.79,117L88.85,114.6L89.98,113.8L90.74,113.4L91.47,112.3L92.47,111.2L93.92,110.7L94.85,110.4L99.24,109.7L99.97,109.8L100.7,110.2L101.6,111.7L102.5,112.3L103.4,112.7L104.1,112.5L104.1,111.9L101.9,108.4L101.7,107.5L101.6,106.5L101.9,105.8L102.5,105.1L103.5,104.4L104.8,103.4L105.5,102.7L106.4,102.5L106.7,102.1L106.8,101.6L106.8,100.9L106.4,100.2L106.5,99.36L106.6,98.56L107,98.1L107.8,96.82L108.3,95.92L108.6,95.52L109,94.83L109.7,94.77L110.4,94.97L110.8,95.36L111.1,96.16L111.6,96.8L112.1,96.8L112.7,96.71L112.9,96.8L113.4,97.35L114.4,98.65L114.9,98.96L115.3,99.51L115.5,100.6L115.6,101.7L116.8,105.6L117.2,106.4L117.5,107L118.1,107.2L118.5,106.5L118.7,105.9L119.2,105.7L119.8,105.8L120.9,106.4L121.4,106.7L121.7,108.6L121.8,110.9L121.7,111.6L122.2,113.4L122.3,115.5L122.4,116.6L122.4,117.7L122.4,119.2L122.1,121.1L121.7,122.7L121.8,124.1L121.6,124.7L120.5,125L120.5,125.5L120.8,126.4L121.5,127.5L121.5,128.1L121.2,128.6L120.4,128.6L119.4,129.1L118.7,130.4L117.9,131.6L117.5,131.8L116.1,131.5L115.8,131.8L115.3,133.7L114.9,134.5L114.3,135.2L113.7,135.6L113.3,135.9L112.1,135.7L111.6,136.9L111,138.4L110.9,139.2L111.2,140.4L111.1,140.8L110.5,141.1L109.5,141.6L108.9,143.4L108.9,145.1L109.3,145.7L110,145.9L110.4,146.5L110.5,147.3L110.9,148.3L110.7,149.5L109.4,151.3L109.3,152.2L110,152.5L110.6,152.4L111.4,152L112.3,151.3L114.3,150.3L116.5,149.8L118.3,149.7L119.7,149.7L120.5,149.9L120.7,150.3L122.7,149.7L123.1,149.7L123.5,149.7L123.5,150L122,151.6L121.7,152.3L121.8,153.1L122.4,153.8L123,154.3L123.5,155.7L123.1,157L123.3,157.5L123.8,158L124.1,158.7L124.1,159.6L123.8,161L126,161.7L127.8,162.1L129.2,162.2L130,162.5L130.5,162.8L130.9,163.3L131,163.8L130.6,164.2L129.7,165.4L129.1,167.1L129.2,168.4L129.1,169.4L128.1,171L127.6,172L127.3,173.1L127.3,173.6L127.5,173.9L128,174.1L128.7,174.2L129.7,174.1L132,174.4L134.6,174.8L135.6,175.1L136,175.6L135.9,176.6L135.7,177.6L135.9,178.4L136.3,179L137,179.3L137.6,179.5L137.7,180.1L137.5,180.8L137.8,181.3L138.2,181.7L139,181.9L140.4,181.5L141.5,181.7L142.5,182L143.3,181.8L144.1,181.4L145.9,179.6L147.9,178.6L148.6,178.4L149.1,178.5L149.2,178.6L149.1,179L149.4,180.5L149.3,180.7L148.6,181.8L146.9,183.1L145.7,183.7L145,183.7L144.4,184.5L143.9,185.9L143.4,186.7L142.9,187L142.5,187.6L142.4,188.4L142.7,188.8L143.5,188.9L143.5,189.2L142.9,189.6L142.1,189.7L141.1,189.6L140.2,189.9L139.3,190.7L138.6,192.4L138,195ZM116.5,304.6L117.4,306.5L117.3,306.8L117.2,307L117,306.9L116.6,305.9L115.9,305.2L115.1,305.3L115.8,304.4L116,304.3ZM116.2,316.2L115.7,316.8L115.5,316.8L115.7,315.7L116.6,314.9L117.4,314.8L117.3,315.3L116.8,315.9ZM116.6,298.6L116.6,298.8L116.5,298.8L116.2,298.6L116.4,297.6L116.8,296.7L117.3,295.4L117.5,295.1L117.6,295.8L117.3,297.3L117.1,298.1ZM119.9,293.7L119.5,293.8L119.3,291.9L119.4,291.6L120,292.6L121,293.1L120.6,293.5ZM120.3,295.5L120.1,297.9L119.4,297.6L119,297.6L118.6,296.2L118.6,295.9L118.4,295L120,294.8ZM118.8,285.8L119.1,286.1L119.4,286.1L119.3,287.2L118.4,288.6L117.9,288.8L117.7,288.8L117.9,286.8L117.5,285.6L117.6,284.8L118.6,285.2ZM115.7,290.9L115.6,290.9L115.4,290.9L115,290.7L114.6,290L114.8,289.4L115,289.3L115.4,289.3L115.5,289.4L115.6,289.6L115.5,290.1L115.5,290.4ZM74.75,247.1L74.03,248.2L73.75,246.5L74.95,245.6L75.52,244.7L76.12,244.1L76.32,244.8L75.76,246.3ZM109.4,243.5L109,243.7L108.3,242.9L108.2,241.1L108.7,240.7L109,240.6L109.5,240.8L109.6,241.1L109.7,241.5L109.6,241.9ZM65.93,215L65.77,215.1L64.6,214.1L63.68,212.8L65.13,212.6L66.54,212.9L66.58,213.5L66.25,214.6ZM63.72,200.7L63.96,202.3L63.19,201.7L62.91,200.9L62.83,200ZM66.21,204.7L67.5,205.7L68.03,205.6L68.79,206.2L68.83,206.5L68.67,206.9L68.31,207.3L67.34,207.8L66.7,207.4L66.42,206.4L65.65,205.8L65.41,205.4L65.93,204.8ZM120.2,304.5L120,304.5L119.7,304.4L119.5,304.3L120.1,303ZM115,296.1L115.1,296.8L114.4,296.1L114.3,294.2L114.8,295.4L115.1,295.7ZM114.9,288.1L114.8,288.6L114.2,289.4L113.6,288.9L113.5,288.7L114.1,288.1L114.7,288.2L114.8,288.1ZM117.7,280L117.6,281.9L117,281L117,280L117,279L117.1,278.8L117.2,279L117.5,279.4ZM78.42,248.6L78.18,248.9L77.73,248.7L77.61,248.5L78.66,247.3L78.78,247.7ZM58.32,200.3L58.48,201.4L57.96,201L57.23,199.4L57.27,198.4L57.76,198.9ZM305.9,373L306.2,373.4L306.9,374.7L307.4,376L307.5,377.9L308,378.8L307.9,379L307.6,379.1L307.1,379.2L306.3,379L305.5,378.7L304.9,376.5L304.7,375.3L304.7,373.9L304.7,373ZM304.7,373L303.7,373.5L302.8,374.1L302,374.6L301.5,375L301.7,375.6L301.9,376.9L302,377.9L302.3,378.3L302.6,378.7L302.5,379.1L301.9,379.9L302.2,380.1L301.8,381.2L301.3,382L300.5,382.7L300,382.8L299.6,382.5L298.9,381.8L298.2,380.8L297.9,380.2L296.8,380.1L296.4,379.7L296.4,379.1L296.1,378.4L295.7,377.7L295.1,377.2L294.2,376.7L293.9,376.4L295.2,376.4L296.5,376.3L297.9,375.7L299.3,374.9L300.4,374.1L301.5,373.2L302.6,372.5L304.3,371.6L304.9,371.7L304.9,372.3ZM42.93,104.4L42.85,104.7L42.53,105.4L42.33,106.2L42.49,106.9L43.22,107.7L44.14,108.4L45.35,108.4L46.48,108.2L46.92,108.3L47.52,109.3L47.97,110.3L47.36,111.2L47.08,112.1L46.96,112.7L47,112.9L47.36,113.4L47.81,114.3L47.85,115L47.61,115.5L47,115.8L46.4,115.7L45.91,115.7L45.27,115.8L44.26,116.1L43.38,116.4L41.64,116.3L40.96,115.6L40.64,115.6L39.07,116.6L37.34,116.4L34.23,116.7L32.94,116.8L31.61,116.7L30.93,116.5L29.68,115.8L28.51,115.3L27.39,115.8L26.94,115.8L26.02,117L24,117.4L22.03,117.7L21.43,117.5L20.3,117.5L20.26,117.2L20.3,116.9L20.02,116.7L19.57,116.5L18.77,116.4L17.76,116.1L17.2,115.8L15.14,116.2L13.93,115.6L12.56,114.8L11.88,114.4L11.64,113.1L11.39,112.7L10.83,112.3L10.55,111.7L10.79,111.2L12.16,110.2L12.24,110L12.89,108.1L13.77,107.4L14.62,106.5L15.26,105L16.51,103.4L17.88,101.8L18.85,100.6L19.49,99.95L20.78,99.31L21.87,98.94L22.59,98.08L23.52,97.59L24.45,97.37L25.82,97.48L27.14,97.79L28.55,98.23L28.71,98.59L28.59,99.18L28.39,99.82L28.39,100.1L28.59,100.3L30,100.4L31.7,100.3L32.66,100.4L34.8,101L35.44,101.4L36.09,101.7L36.73,101.6L37.54,101L38.38,100.4L38.91,100.3L39.27,100.5L39.95,101.1L41.36,101.6L42.61,101.9L43.01,102.3L42.89,103.8ZM14.05,174.3L14.09,173.2L14.01,172.1L13.17,169.3L12.56,167.8L12.64,167.3L12.6,167.1L12.36,165.2L12,164.1L11.8,162.8L12.68,161.1L12.32,160.8L11.31,160.5L10.39,160.2L10.15,159.8L10.55,158L10.07,157.3L9.381,156.6L9.18,156.4L8.938,156L8.616,155.1L9.261,153.3L10.11,151.1L10.27,150.3L10.43,148.8L10.47,148.3L10.39,147.8L9.462,147.1L7.851,146.9L6.723,146.4L6.038,145.6L5.474,145.2L4.79,145.5L3.904,145.2L3.179,144.4L2.534,143.4L2.615,143L2.776,142.4L3.944,139.9L4.387,139.8L5.394,140.3L5.797,140.3L6.441,139.3L7.368,136.5L8.697,136.5L9.865,136.6L10.63,136.7L11.44,136.7L12.24,136.4L12.68,136.1L12.93,135.6L12.85,135.2L11.84,134.7L11.48,134.3L11.19,133.2L10.87,132.8L8.938,132.7L7.891,132.2L7.327,131.7L6.361,130.2L5.112,129.1L3.944,128.8L3.461,128.4L3.219,127.8L3.38,127L3.743,126.2L3.984,125.3L4.911,124.2L5.998,123.2L6.522,122.6L7.206,121.8L7.287,121.4L7.166,121L6.602,120.6L6.2,120.4L6.159,120.2L6.401,119.4L6.965,119.3L8.093,120L9.22,121.1L9.905,122L9.905,122.8L10.35,122.9L10.79,122.9L11.56,123.3L12.32,123.2L12.8,123.4L13.13,123.3L13.25,122.9L12.89,122.2L12.6,121.8L12.93,121.3L13.29,121.2L13.69,121.3L14.21,121.7L14.62,122.6L14.7,123.9L15.54,125.1L16.71,126L17.6,126.4L18.69,126.6L19.61,126.4L20.09,125.5L19.89,124.8L20.02,124.1L20.38,123.7L20.98,123.8L21.43,124.3L22.67,127.2L22.43,128.4L22.71,131.9L22.39,134.2L22.43,134.7L22.59,135.1L22.79,135.2L23.16,135.2L24.69,135.7L25.98,136.1L27.47,136.6L29.56,136.9L30.85,136.8L31.53,136.8L32.82,136.9L36.29,136.7L39.11,136.6L40.27,137L41.2,137.1L44.38,136.9L47.61,136.7L49.34,137.5L51.23,138.7L52.28,139.5L52.48,140L52.36,140.5L52,140.7L51.35,140.7L49.86,140.1L49.58,140.3L49.62,141.5L49.58,141.7L49.26,142.7L48.33,145.1L48.17,146.1L47.97,146.4L47.77,146.5L47.04,146.6L46.48,146.8L46.28,147.1L45.91,147.9L45.67,148.7L45.31,149L44.5,148.5L43.98,148.6L43.34,148.8L42.69,149.2L42.25,149.8L41.73,150L40.23,149.9L39.95,150L39.75,150.4L39.59,150.9L38.42,152.1L37.98,154L37.66,155.3L37.7,156.3L38.7,158.8L39.39,162.1L39.63,162.4L39.87,162.5L39.95,162.4L39.95,161.7L39.99,160.9L40.31,160.7L40.72,160.9L41.12,161.6L41.56,162.9L42.05,163.4L42.77,163.6L43.62,163.3L44.26,162.7L44.5,162L44.34,160.8L44.3,159.8L44.66,158.9L46.12,157.6L46.36,157.2L46.24,156L46.24,155L46.8,154.9L47.52,155.1L48.45,154.5L48.73,154.5L49.14,155.1L49.78,155L50.26,157.3L50.79,159.4L50.79,160.4L50.87,162.5L51.07,164.2L51.43,164.6L51.84,165.5L52.24,166.6L52.52,167.2L52.72,169.1L53,170.5L53.33,174.9L53.45,175.7L53.57,176.2L53.57,180.2L53.69,181.8L54.01,183.3L54.09,183.8L53.73,184.2L53.41,184.3L53.08,183.6L52.32,183.1L51.19,182.6L50.75,182.2L50.14,182.3L49.38,183.2L49.06,184L49.18,185L49.42,186.1L49.98,186.7L50.02,187.4L50.22,188.3L50.51,189.1L50.67,190L50.47,190L49.82,188.9L49.22,187.7L47.65,185.4L47.16,181.3L47.12,179.2L46.08,176.9L45.35,173.5L45.07,172.7L45.43,171.6L45.51,171.2L45.31,171.3L44.75,171.8L44.06,170.5L43.62,169.3L41.77,166.9L41.24,165.8L41.2,164.7L40.44,165.8L39.35,166.5L38.26,167.7L37.54,168L35.24,168.2L33.91,166.7L32.02,163L31.74,162.2L31.98,160L31.53,158L31.53,156.9L31.41,156.1L31.09,156.3L30.93,156.8L31.01,157.6L30.89,158.2L29.24,158.1L27.67,157.8L29.04,158.9L30.49,159.1L31.25,160.1L31.37,160.8L31.33,161.7L30.57,162.3L29.88,162.7L30,163.5L30.85,164.5L29.8,164.8L29.56,165.4L29.52,166.3L30.04,167.2L30.25,167.8L30.13,168.3L30.61,168.9L31.33,170.2L31.53,171.1L31.25,172.3L30.85,172.8L30.2,173.3L28.63,174.9L27.87,176.7L27.23,177.5L26.42,177.6L26.14,177.3L25.45,176.8L25.45,175.9L25.65,175.2L26.98,173.5L26.26,173.8L25.41,174.3L24.16,175.2L23.72,174L23.48,173L23.48,171.7L24.49,169.8L23.32,170.8L23,171.9L23.16,173.4L23,174.3L22.55,175.6L21.95,176.4L20.94,176.9L20.5,177.7L19.81,178.3L19.81,177.1L19.61,175.6L18.89,172.1L18.73,172.9L19.09,175.1L19.09,176.5L18.52,177.6L17.44,178.8L16.59,179L16.11,178.8L15.34,178L14.54,177L14.38,175.3ZM37.54,173.3L36.33,174.2L36.73,169.2L37.62,171L37.86,172ZM42.09,170.8L41.56,171.2L41.08,170.9L40.44,169.7L40.76,168.2L40.96,168L41.24,168.5L41.69,169.5L41.97,170.3ZM33.35,174.4L31.41,174.8L30.41,174.7L32.26,171.5L32.22,170.1L31.94,168.9L30.97,168L30.93,167.3L30.49,166.4L30.29,165.3L31.33,165L32.18,165.6L32.3,165.9L32.46,166.8L32.9,167.7L34.35,169.6L34.35,170.7L33.95,173.5ZM45.63,177.5L45.23,178.4L45.03,177.7L45.19,176.8L45.35,176.3L45.47,176.3L45.71,176.9ZM46.48,181.4L45.79,181.4L45.47,181.1L45.63,180.6L45.43,178.9L45.99,178.8L46.28,178.8L46.48,179.3L46.6,180.1ZM31.86,163.8L32.02,164.3L31.41,164L30.93,163.6L30.65,163.2L31.13,162.9Z" fill="#D8E2E7" stroke="#3F464B" stroke-width="0.85" vector-effect="non-scaling-stroke"/><path d="M160.3,170.9L160.9,172L162.3,173.3L163.9,175.1L164.4,176L165.4,176.6L165.7,177.2L166,178.2L166.1,178.9L166.3,179.3L166.7,179.5L167.2,179.3L167.6,178.9L167.8,177.9L168,177.8L168.4,178.6L168.7,178.8L169.2,178.9L169.5,179.3L169.6,179.9L169.5,180.6L169.1,181.4L168.8,182.2L168.7,183.4L168.4,184.3L168.8,185L171.3,188.8L172.5,189.4L175.3,190.1L176.3,190.6L177.2,191.1L178.1,190.9L179,189.7L180,189.1L181.9,188.2L182.4,188.1L183.5,188.5L185.2,189.6L186.4,190.7L187.2,191.2L187.8,191.7L187.7,192.3L187.3,192.8L186.6,193.1L185.8,193.6L185.4,194.1L185.7,194.3L186.8,194.5L188.2,194.9L188.6,195.5L188.7,196L188.9,196.7L189.1,197L190.4,196.8L190.8,197L191.2,197.4L191.7,198.4L191.7,199.2L190.8,200L190.4,200.6L190.3,201.4L189.6,202.3L187.9,203.9L187.4,204L184.2,203.2L182.7,203.2L182,203.2L181.7,203.3L181.4,203.6L181.9,204.6L182,205.6L181.6,206.3L180.5,206.9L180.1,207.3L180.1,207.7L180.4,208.1L181.4,208.6L182.5,209L186.3,211.5L187.1,212.1L188.1,212.9L189.3,213.6L192.4,214.5L193.8,215.1L194.1,215.4L194.1,215.8L193.7,216.3L193.5,217.2L193.5,217.8L193.8,218.3L194.3,219.1L195.5,220.3L196.2,220.8L197,221L197.6,221.3L198.3,222.2L199.1,223.3L199.2,224L199.5,225L200.2,226.2L201.2,227.3L202.6,228.6L203.4,229.6L203.7,230L206.7,232.3L207.4,233.1L208.4,234.8L208.9,235L209.3,235.3L209.6,236.3L209.6,236.9L209.8,238.9L210.3,239.5L210.8,240.2L211,240.7L211.5,241.1L211.9,241.2L212.5,240.8L213,240.4L213.2,240.5L213.7,241.9L214.1,242.4L214.9,242.8L215.6,243.2L217.3,244.9L218.2,245.5L218.8,245.7L219.3,246L219.4,246.5L219.2,247.1L218.9,247.4L217,248.4L216.7,248.8L217,249.4L217.5,250.2L218,250.9L218.7,251.6L220,252.7L221.2,253.5L221.8,254.5L222.2,255.1L221.9,255.9L221.4,256.7L221.1,257.4L220.4,257.8L220.2,258.3L220.5,259.1L220.7,259.6L220.6,260.2L220.7,261.5L220.1,262L219.5,263.2L219.1,263.2L218.1,262.8L217.8,263L217.2,263.9L216.1,264.8L215.6,264.8L215.2,264.7L214.8,265.1L214.2,265.9L213.9,265.8L212.8,266L212.4,265.8L211.9,265.2L211.1,264.6L210.4,264.1L210,263.8L209.6,263.3L209.3,263L208.7,263.7L207.6,264.4L206.7,264.3L206.2,264.2L205.8,265.2L205.5,265.3L203.8,265.5L203.4,265.7L203.7,266.6L204.8,268.2L205.1,269.1L204.4,270.6L202.6,270.5L201.8,269.9L201,269.1L200.7,268.7L198.4,267.8L196.9,268.4L196.4,268.4L195.7,267.8L195.2,267.3L194.8,266.6L194.5,266L194.5,265.6L195.2,265.4L196.3,264.8L197.2,264.2L197.8,263.5L198,262.8L198.1,262L198.3,259.9L198.6,258.9L198.4,257.6L198,256.6L198,255.1L198.1,254.4L198.2,253.9L198.9,253.3L199.4,252.4L199.6,251.3L199.7,250.5L199.5,250L198.8,249.5L197.6,249L197,248.5L196.7,247.8L196.7,247.2L197,246.6L196.2,246L194.1,245.4L193,244.6L192.8,243.7L191.9,242.5L190.5,241L189.7,238.9L189.6,236.2L189.8,233.9L190.4,231.3L189.6,229.4L188.6,228.4L187.3,227.7L186.1,226.6L184.9,225.2L183.5,223.2L181.9,220.5L180.7,219.3L180.2,219.6L179,219.3L177.1,218.6L175.6,218.2L174.2,218.1L173.3,218.3L172.9,218.7L172.9,219.1L173.2,219.5L173,219.8L172.3,220L171.8,220.5L171.1,221.5L170.7,222.7L170,223.2L169,223.4L168,223.7L166.9,224.4L166.5,224.8L166.5,225.1L166.3,225.2L165.8,225L165.6,224.6L165.6,223.9L165.1,223.5L164.1,223.3L162.8,222.5L161.5,221.3L160.6,220.7L160.1,220.6L159.3,221.1L158.3,222.1L157.5,222.5L156.9,222.3L156.4,222.7L156,223.6L155.4,224.4L154,225.2L153.9,225.3L152.4,226.4L151.1,227.5L149.6,229L148.9,229.2L148.2,228.8L147.3,228.5L146.7,228L147.7,225.5L149,222.7L149.3,221.4L149.4,220.5L149.3,219.7L148.8,218.9L148.3,218.3L148.3,217.9L148.4,217.4L148.9,216.8L149.6,215.8L150.2,213.7L150.9,211.6L150.9,210.2L150.3,208.8L150,207.4L150.2,205.5L150.1,204.8L149.5,204.4L147.3,204L146.7,204.1L146.1,204.4L145.6,204.9L144.9,205.2L143.5,205.4L142.3,204.7L141.3,203.6L141,202.3L141.8,200.7L142.3,199.5L142.6,198.4L142.6,197.8L142.3,197.3L142.1,197.2L141.4,196.5L140.7,195.4L140.1,194.8L139.5,194.9L139,195.4L138.5,196.2L138.1,196.5L137.8,196.3L137.9,195.6L138,195L138.6,192.4L139.3,190.7L140.2,189.9L141.1,189.6L142.1,189.7L142.9,189.6L143.5,189.2L143.5,188.9L142.7,188.8L142.4,188.4L142.5,187.6L142.9,187L143.4,186.7L143.9,185.9L144.4,184.5L145,183.7L145.7,183.7L146.9,183.1L148.6,181.8L149.3,180.7L149.9,181.2L149.7,182.6L150,182.9L150.2,183.4L150.1,184.1L150.2,184.8L150.5,185.1L150.9,185.3L152.7,184.7L153.8,184.7L154.3,185L154.7,185.2L155.2,185.4L155.6,185.7L155.9,185.6L156.5,185L156.7,184.9L156.7,184.6L156.3,184.1L155.8,183.7L155.8,182.7L156,181.1L156.1,180.2L156,178.1L156,177.5L155.6,176.9L154.5,175.6L154.2,174.8L154,174L154,173.5L153.7,172.9L153.6,172.4L154.1,172.1L154.7,171.5L154.9,170.5L155.2,169.8L155.6,169.6L156,169.4L156.2,169.5L157.2,170.8L158.3,170.1L159.2,170.1L159.9,170.5Z" fill="#8B341D" stroke="#2C160F" stroke-width="1.1" vector-effect="non-scaling-stroke"/></svg>