<svg xmlns="http://www.w3.org/2000/svg" viewBox="0 0 360 440" width="360" height="440" role="img" aria-label="Regional map with Lesotho highlighted"><rect width="100%" height="100%" fill="#7FA6D6"/><path d="M229.3,90.64L227.9,89.64L225.9,88.98L223.4,88.7L220.1,88.83L216.1,89.37L211.7,88.7L207.1,86.83L203.2,86.17L198.6,86.98L198.4,87.01L197.6,86.38L196.3,85.02L194.3,84.78L193.7,84.45L193.2,83.97L192.9,83.3L192.8,82.61L193.1,80.35L192.9,80.11L192.3,79.84L191.2,79.57L188.5,78.58L185,77.58L179.4,76.53L177.2,76.23L176.6,75.9L176,75.09L174.9,72.54L173.9,70.86L171.5,68.25L171.1,67.44L171.2,65.38L171.4,63.73L171.7,62.32L171.5,60.98L171.5,59.37L171.6,58.26L171.2,57.78L170.4,57.46L167.9,57.31L164.8,57.37L164.8,55.7L164.5,53.13L163.9,51.64L163.2,50.87L161.8,50.07L159,48.97L155.1,47.3L151.8,44.84L148.1,41.78L146.9,41.24L145.5,38.37L143.4,33.45L143.5,31.83L143.3,31.03L141.2,28.61L140.8,27.37L140.4,26.1L137.1,22.56L136,21.03L135.1,19.06L134.3,17.5L133.6,16.85L132.6,15.79L132,14.56L131.7,13.65L132,12.45L132.3,11.59L135.4,12.47L137.1,12.53L138.4,12.12L140.1,12.68L142,14.27L144.2,14.59L146.4,13.59L149.6,13.88L153.5,15.47L156.8,15.79L160.6,14.38L164.1,10.51L167.4,6.842L170.6,2.625L172.5,-0.768L175.3,-3.544L179.1,-5.676L182.8,-7.456L188.6,-9.673L189.9,-11.48L190.2,-13.46L190.2,-16.2L190.5,-17.97L191.1,-18.79L192.1,-19.43L193.3,-20.24L197.2,-22.33L200.3,-23.67L204.3,-24.54L208.5,-24.54L212.6,-24.54L215,-24.57L215,-21.92L215.2,-18.96L215.6,-18.67L218.8,-18.61L223.8,-18.38L228.5,-18.18L231.6,-16.02L232.6,-15.59L235.8,-15L239.9,-11.39L244.7,-11.07L248.1,-9.935L251.1,-8.711L252.7,-7.223L253.8,-6.873L255.3,-6.756L256.1,-6.639L255.9,-5.559L254.9,-3.749L255.1,-1.148L256.4,2.449L256.6,5.582L256.2,11.12L256.2,16.5L256.3,18.41L256.6,19.68L256.9,20.38L256.8,21.18L256,23.45L255.3,25.84L255.3,26.78L255.1,27.46L254.6,28.05L252.5,29.14L252.1,29.82L252.1,31.06L252.3,32.09L253.1,32.48L254.1,33.07L254.5,33.84L254.5,34.67L254.2,36.18L253.3,38.7L254.2,41.6L255.2,43.47L256.4,45.64L257,46.97L257,47.95L256.8,48.88L254.8,52.87L253.4,55.34L251.6,57.99L249.3,59.66L248.7,60.47L248.5,61.4L248.6,63.4L248.5,65.46L246.5,68.7L247.8,71.46L247.5,71.73L246.8,72.12L243.9,75.24L241.1,78.4L239,80.71L236.6,83.36L233.9,86.32L231.6,88.83ZM232.2,-42L230,-41.33L226.8,-40.38L223.4,-39.4L219.5,-38.3L217.3,-37.52L215.8,-36.82L212.3,-35.46L212.2,-35.12L212.2,-34.19L212.7,-32.25L213.6,-30.48L214.3,-29.47L214.7,-26.86L215,-24.57L215,-24.57L212.6,-24.54L208.5,-24.54L204.3,-24.54L200.3,-23.67L197.2,-22.33L193.3,-20.24L192.1,-19.43L191.1,-18.79L190.5,-17.97L190.2,-16.2L190.2,-13.46L189.9,-11.48L188.6,-9.673L182.8,-7.456L179.1,-5.676L175.3,-3.544L172.5,-0.768L170.6,2.625L167.4,6.842L164.1,10.51L160.6,14.38L156.8,15.79L153.5,15.47L149.6,13.88L146.4,13.59L144.2,14.59L142,14.27L140.1,12.68L138.4,12.12L137.1,12.53L135.4,12.47L132.3,11.59L129.6,8.895L128.1,7.78L127,7.37L123.8,6.93L116.4,6.315L115.7,6.461L112.6,6.989L108.8,7.663L105.5,8.308L102,9.012L98.86,6.198L95.2,3.035L91.44,-0.534L88.6,-3.311L87.2,-4.917L84.71,-7.019L82.92,-8.04L82.22,-8.565L80.48,-14.19L79.5,-19.34L79.5,-23.2L79.5,-28.57L79.5,-33.93L79.5,-39.28L79.5,-42L232.2,-42ZM240,153.4L240.3,153.6L241.8,154.5L241.9,156.1L241.8,158L241.5,159.2L241.6,160.4L242.1,162.2L242.5,163.5L242.7,169.3L242.1,169L241.2,168.8L240.7,168.8L240.3,171.4L239.9,175.3L240.2,177.7L236.7,177.8L232.3,177.5L229.2,176.5L225.7,174.2L223.7,170.6L222.8,168.4L221.6,168.3L221.4,167.9L221.3,165.2L221.3,162.3L221.6,161.6L223.8,158.1L225.3,155.9L226.1,153.8L228,151.3L230.1,149.8L230.9,149.5L231.4,149.6L235,151.8L238.8,153.8L239.6,153.6ZM198.4,87.01L198.6,86.98L203.2,86.17L207.1,86.83L211.7,88.7L216.1,89.37L220.1,88.83L223.4,88.7L225.9,88.98L227.9,89.64L229.3,90.64L229.4,91.55L229.6,91.97L230.3,94.39L231.5,98L232.2,101.4L233.3,106L233.3,108.5L233.5,109.5L234.4,110.8L235.6,112.9L236,114.1L236.4,115L237.6,116.7L238.5,119.3L239.4,122.8L240,124.4L240.3,125.3L240.6,126.8L240.6,129.9L240.6,133.5L240.6,137.6L240.6,141L240.5,142.7L240.6,147.6L239.5,150.1L239.6,152.1L240,153.4L239.6,153.6L238.8,153.8L235,151.8L231.4,149.6L230.9,149.5L230.1,149.8L228,151.3L226.1,153.8L225.3,155.9L223.8,158.1L221.6,161.6L221.3,162.3L221.3,165.2L221.4,167.9L221.6,168.3L222.8,168.4L223.7,170.6L225.7,174.2L229.2,176.5L232.3,177.5L236.7,177.8L240.2,177.7L239.9,175.3L240.3,171.4L240.7,168.8L241.2,168.8L242.1,169L242.7,169.3L244,169.1L246.5,169.7L248.5,169.6L250.3,169.5L253.3,169.4L255.1,169.4L254.5,173.6L252.2,180.2L251.4,183.1L249.4,193.9L246.9,199.4L245.4,201.7L241.3,205.7L240.1,206.5L239.1,207L237.3,207.5L230.1,215.6L227.5,219.5L225.1,225.3L222.8,228.4L219.3,235.2L216.2,240.4L213.3,245.2L208.2,251.9L205.9,253.8L204.3,254.6L200.3,258.5L194.5,264.7L190.2,270.3L183.7,276.6L179.9,279.4L174.1,284.8L172.6,285.6L166.1,290.7L161.6,293.8L154.1,297.4L151.1,298.4L144.1,297.5L141.1,298L138.6,300.2L138.4,303.3L137.3,303.8L135.8,303.6L130.8,302.3L128.2,302.6L126.6,304.2L125.3,306.4L121.6,306.5L115,304.3L107.1,302.9L105.3,302.8L101.6,304.4L100.2,304.6L94.74,304.3L91.67,303.3L88.71,303.3L86.51,304.1L83.78,304.4L76.42,310.3L72.6,310.3L69.35,311L67.73,311L64.66,310.2L63.56,310.2L61.82,310.6L60.08,311.6L56.14,312.1L54.63,313L47.97,318.4L46.46,318.2L45.18,317.8L41.76,317.8L37.82,314.9L36.32,315.1L36.72,314.2L36.84,312.7L36.03,311.6L35.45,311.1L33.94,311.2L33.13,309.9L30.75,309.8L29.94,310.1L28.78,310.2L28.72,308.8L28.78,308L28.72,306.7L28.43,305.2L27.51,304.7L26.81,304.5L25.19,304.6L24.03,304.7L23.45,305.2L22.87,306.3L22.87,309.8L22,308.8L21.07,306.7L20.78,304.5L21.13,301.9L22.93,300.9L22.75,299.1L22.41,297.6L20.38,293.7L19.62,291.9L17.94,290.7L16.61,287.8L15.28,286.7L14.75,284.7L13.48,283L13.02,280.5L13.71,279L14.87,278.2L16.03,279.5L17.42,279L19.45,277.1L20.67,274.3L20.72,269.8L20.43,267L18.81,259.8L18.06,258.2L14.41,253L10.23,246.1L4.901,235.4L2.351,229L-1.475,216.1L-4.894,208.8L-9.068,202L-9.589,201.6L-8.952,200.8L-6.691,199.2L-5.706,198.8L-5.126,199L-4.605,198.6L-4.083,197.5L-3.967,196.5L-3.735,195.1L-3.214,194.3L-2.692,192.6L-1.765,191.6L0.206,190.9L1.713,191.8L2.351,192.7L2.64,193.9L3.278,194.5L4.321,194.5L5.075,195.2L5.538,196.8L5.423,197.9L4.843,198.6L4.901,199.5L5.712,200.6L6.002,201.7L6.524,203.1L9.248,203.9L10.58,204.4L12.84,204.5L15.04,205.2L17.07,206.2L20.43,206.5L25.07,206L28.9,206.2L31.91,207.3L34.11,207.5L35.5,206.8L36.08,205.8L35.91,204.5L36.55,203.7L38.05,203.4L39.27,202.4L40.2,200.8L42.34,199.5L45.65,198.5L47.33,198.5L47.33,196L47.33,187.8L47.33,179.8L47.33,171.7L47.33,163.7L47.33,155.7L47.33,147.7L47.33,139.8L47.33,132.4L48.08,132.9L53.18,136.8L54.57,138.9L55.21,140.3L57.41,145.1L59.04,149.4L60.37,152.7L60.48,154.1L60.66,155.6L60.89,156.3L60.72,157.1L59.79,158.9L58.86,160.3L57.7,162.1L57.59,164.6L57.94,167.5L58.63,168.9L59.56,169.4L61.64,168.7L62.98,168.9L64.83,169.5L71.03,169.1L71.79,169.3L74.11,169.5L74.92,169.3L75.61,168.7L76.42,166.9L77.12,166.3L78.45,166.1L80.02,165.6L81.29,164.6L83.32,161.1L87.38,158.1L88.65,157.4L89.47,156.5L90.1,155.4L91.55,151.6L92.65,148.4L93,146.9L93.99,144.5L95.15,142.9L96.25,142.1L96.83,141.9L98.33,141.5L100.2,141.1L102.2,141.5L104.3,142.5L106.7,144L109.2,146L110.3,147L111.5,147.5L113.7,147.6L115.1,147.6L117.3,149.5L118.4,149.7L121,150.3L124.1,150.9L126,150.8L128.1,149.8L129.6,149.7L131.5,149.8L133.7,149.5L135.3,149.1L136.5,148.1L137.5,147.1L138.7,144.1L139.4,141.7L140.5,138.9L141.9,135.2L142.3,132.6L142.8,131.8L144.7,131L146.3,130.5L150.6,129.5L151.5,128.9L152.3,127.7L154.2,125.6L156.5,123.9L157.7,122.9L159.8,114.5L160.1,113.4L161.7,111.2L162.7,110.2L163.3,110.2L164.2,109.6L165.3,108.5L166.7,107.8L168.3,107.5L169.4,106.7L169.9,105.5L170.7,104.9L171.9,104.9L172.5,104.5L172.7,103.7L173.4,102.9L174.7,102.4L175.3,101.7L175.4,100.8L176.9,98.85L179.8,95.72L182.6,93.97L185.2,93.6L187.6,92.97L189.9,92L191.7,90.52L192.8,88.49L194.6,87.35ZM188.3,229L190.9,227.8L192.1,227.1L193,226.5L194.1,225.6L194.5,223.4L194.8,221.6L195.6,220.7L196.5,220L197.3,219.1L198.1,216.8L198.7,214.5L198.8,213.6L198.5,212.6L197.9,211.6L197.4,210.3L196.7,210.1L195.4,209.3L193.4,207.8L191.8,206.4L190.2,204.5L189.6,204.2L188.1,202.9L187.4,202.1L186.9,201.2L186.5,200.9L185.8,201.2L184,201.6L180.2,203.1L177.8,204.6L175.8,206.3L173.7,206.9L172.2,207.5L171,209.5L169.8,211.3L168.8,213L168.2,213.7L167.7,214.2L167.1,215.3L166.1,217L165,218.2L163.7,218.9L161.9,219.7L161.2,220.2L161.2,220.9L161.8,222.6L162.4,224.1L163.4,226L164.2,227.4L165.3,229.1L166,230.1L166,231.7L166.2,232.3L166.6,233L166.9,233.2L167.2,233.4L168.2,233.9L168.5,234.2L169.2,234.8L169.8,235.8L171.1,237.2L172.5,238.3L174.8,238.8L176.7,239.1L177.3,238.9L178,238L178.5,236.9L178.7,235.5L179.2,234.8L181.5,231.2L182.7,229.8L183.5,229.8L184.5,229.5L185.7,229.4L186.6,229.5L186.8,229.5ZM-42,99.15L-41.93,98.97L-41.58,99.45L-41,99.69L-40.6,97.66L-40.54,95.88L-41.53,91.46L-42,90.51L-42,4.733L-42,4.733L-39.03,4.733L-32.89,4.762L-26.69,4.762L-20.54,4.762L-14.4,4.792L-8.256,4.792L-2.054,4.792L4.089,4.821L10.23,4.821L12.78,4.821L17.19,4.879L21.82,4.938L22.29,5.026L22.81,5.377L23.27,5.67L24.9,7.81L26.98,10.07L28.72,11.12L30.81,11.77L32.72,12.01L34.58,11.86L37.59,12.12L41.82,12.86L46.23,13.09L50.75,12.77L53.94,13.18L55.79,14.3L57.7,15.03L59.62,15.41L62.22,15.18L65.53,14.36L68.37,14.47L69.64,15.09L70.45,15.09L75.27,14.21L79.21,13.47L85.06,12.33L89.87,11.39L97,10.01L102,9.012L102,9.012L105.5,8.308L108.8,7.663L112.6,6.989L115.7,6.461L116.4,6.315L123.8,6.93L127,7.37L128.1,7.78L129.6,8.895L132.3,11.59L131.6,11.51L126.7,12.06L124.8,12.8L120.5,15.97L119.7,15.56L118.7,14.91L117.8,14.71L116,15.5L114.1,16.41L112.1,17.71L110.4,18.97L109.8,19.65L107.2,22.27L106.3,22.71L105.6,22.89L105.3,22.77L104.9,21.65L103.3,19L100.7,15.56L99.96,15.21L99.44,15.09L97.52,15.27L91.96,16.24L87.2,17.06L80.02,18.44L72.25,19.59L67.44,20.3L63.33,20.5L63.33,23.92L63.33,30.85L63.33,37.81L63.33,44.78L63.33,51.76L63.38,58.77L63.38,65.79L63.38,72.84L63.38,79.9L63.38,82.97L63.27,83.64L60.89,83.64L55.44,83.64L50.92,83.64L47.27,83.64L47.27,87.86L47.27,92.85L47.27,97.84L47.27,102.9L47.27,107.9L47.27,112.9L47.27,118L47.27,123L47.27,128.1L47.33,131.9L47.33,132.4L47.33,139.8L47.33,147.7L47.33,155.7L47.33,163.7L47.33,171.7L47.33,179.8L47.33,187.8L47.33,196L47.33,198.5L45.65,198.5L42.34,199.5L40.2,200.8L39.27,202.4L38.05,203.4L36.55,203.7L35.91,204.5L36.08,205.8L35.5,206.8L34.11,207.5L31.91,207.3L28.9,206.2L25.07,206L20.43,206.5L17.07,206.2L15.04,205.2L12.84,204.5L10.58,204.4L9.248,203.9L6.524,203.1L6.002,201.7L5.712,200.6L4.901,199.5L4.843,198.6L5.423,197.9L5.538,196.8L5.075,195.2L4.321,194.5L3.278,194.5L2.64,193.9L2.351,192.7L1.713,191.8L0.206,190.9L-1.765,191.6L-2.692,192.6L-3.214,194.3L-3.735,195.1L-3.967,196.5L-4.083,197.5L-4.605,198.6L-5.126,199L-5.706,198.8L-6.691,199.2L-8.952,200.8L-9.589,201.6L-11.39,200.1L-16.66,194.5L-18.52,193.1L-21.3,189.7L-27.38,179.1L-28.25,177.1L-29.41,172.1L-30.75,168.3L-30.92,166.2L-30.28,164.9L-30.63,163.3L-31.32,161.8L-33.41,159.9L-33.99,153.4L-35.38,149.2L-35.09,145.8L-35.73,142.7L-35.79,140.7L-35.5,136.9L-36.6,132.6L-38.86,128.3L-40.89,122.2L-41.18,119.5L-41,112.3L-41.35,109.4L-41.35,106L-42,103.1L-42,99.15ZM281.1,-42L281.1,-42L281.4,-39.77L281.9,-36.59L282,-35.03L282,-32.94L281.7,-30.34L280,-27.32L279.7,-25.84L278.8,-23.52L277.5,-22.39L277,-21.43L277,-20.47L277.7,-19.66L279.1,-18.18L279.5,-17.24L279.4,-16.4L279.4,-15.24L279.8,-14.45L280.1,-13.98L281.5,-13.23L282.9,-11.33L285.3,-9.06L288,-5.822L289.4,-4.829L290.4,-4.596L290.9,-3.486L290.6,-2.23L289.8,-1.499L290.2,-0.476L290.6,0.08L291.1,0.343L292.4,0.401L293.5,0.197L293.8,-0.154L293.7,-5.034L292.8,-7.865L292,-8.973L291.8,-9.177L292.1,-10.11L293,-12.3L293.8,-14.45L294.3,-15.35L294.9,-15.91L298.8,-16.49L300.6,-16.98L301.3,-17.59L301.8,-19.28L302.3,-23.93L302.5,-28.31L302.1,-30.86L302.6,-34.71L303.5,-37.08L303.1,-37.57L302.8,-40.78L301.8,-42L382.9,-42L382.9,-42L382.8,-41.36L383.2,-39.97L383,-38.76L382.1,-37.92L380.9,-36.48L380.7,-35.09L380.8,-34.22L380,-33.93L379.6,-33.38L380.1,-32.08L380.1,-30.95L378.6,-27.38L374.7,-22.53L373,-20.82L371.4,-18.93L371.4,-18.15L371.2,-17.48L369.4,-14.8L367.4,-14.36L366.2,-13.63L367.1,-11.28L365.8,-10.72L363.6,-8.856L357.4,-5.297L356.4,-4.45L354.9,-2.259L352.8,-1.704L351.7,-1.09L349.6,-0.856L348.9,-1.031L348.2,-0.944L347.6,-0.476L343.6,1.074L339.7,2.303L338.8,2.859L338.2,3.62L334.8,4.821L329.5,7.839L325.2,10.68L322.1,13.56L321.3,14L320.3,14.97L320,16.44L319.7,17.27L317.4,20.3L313.9,23.86L313.3,24.86L311.9,26.84L311.7,28.14L310.5,28.55L309.4,27.31L309,29.7L308.2,29.88L307.2,29.38L304.9,30.59L302.9,31.95L299.6,34.85L295,40.5L288.3,45.93L287.3,46.08L286.8,46.08L284.6,44.18L283.5,44.03L284.5,45.16L285.2,46.11L285,47.92L285.1,50.69L284.3,56.08L284.4,57.28L285.3,58.8L287.1,60.65L288.9,63.01L291,69.72L291.2,73.17L293.4,77.58L293.5,79.51L294.4,84.3L294.4,88.16L294.2,90.55L295.3,91.55L295.7,90.64L295.6,89.13L295.9,86.71L296.4,85.66L297.1,85.81L297.3,86.95L297.7,87.95L297.8,88.89L297.8,90.19L297,95.09L297.3,97.09L298.4,100.4L297.1,104.3L295.2,113.5L295.1,115.1L295.5,115.8L296.6,116L296.9,114.8L297.5,114.8L297.8,115.5L297,119.8L296.2,121.6L293.2,126.2L291.6,128.2L289,130.1L282.8,133.1L270.4,137.5L265.4,139.7L262.5,141L256.3,145.1L253.6,147.8L252.5,150.9L251.3,152.4L250.3,154.2L251.2,155.8L252.2,157L253.2,157.8L253.8,158.5L254.5,159L255.2,156.5L255.6,155.7L256.2,155.6L255.9,158.7L255.1,169.1L255.1,169.4L253.3,169.4L250.3,169.5L248.5,169.6L246.5,169.7L244,169.1L242.7,169.3L242.5,163.5L242.1,162.2L241.6,160.4L241.5,159.2L241.8,158L241.9,156.1L241.8,154.5L240.3,153.6L240,153.4L239.6,152.1L239.5,150.1L240.6,147.6L240.5,142.7L240.6,141L240.6,137.6L240.6,133.5L240.6,129.9L240.6,126.8L240.3,125.3L240,124.4L239.4,122.8L238.5,119.3L237.6,116.7L236.4,115L236,114.1L235.6,112.9L234.4,110.8L233.5,109.5L233.3,108.5L233.3,106L232.2,101.4L231.5,98L230.3,94.39L229.6,91.97L229.4,91.55L229.3,90.64L229.3,90.64L231.6,88.83L233.9,86.32L236.6,83.36L239,80.71L241.1,78.4L243.9,75.24L246.8,72.12L247.5,71.73L247.8,71.46L246.5,68.7L248.5,65.46L248.6,63.4L248.5,61.4L248.7,60.47L249.3,59.66L251.6,57.99L253.4,55.34L254.8,52.87L256.8,48.88L257,47.95L257,46.97L256.4,45.64L255.2,43.47L254.2,41.6L253.3,38.7L254.2,36.18L254.5,34.67L254.5,33.84L254.1,33.07L253.1,32.48L252.3,32.09L252.1,31.06L252.1,29.82L252.5,29.14L254.6,28.05L255.1,27.46L255.3,26.78L255.3,25.84L256,23.45L256.8,21.18L256.9,20.38L256.6,19.68L256.3,18.41L256.2,16.5L256.2,11.12L256.6,5.582L256.4,2.449L255.1,-1.148L254.9,-3.749L255.9,-5.559L256.1,-6.639L255.3,-6.756L253.8,-6.873L252.7,-7.223L251.1,-8.711L248.1,-9.935L244.7,-11.07L239.9,-11.39L235.8,-15L232.6,-15.59L231.6,-16.02L228.5,-18.18L223.8,-18.38L218.8,-18.61L215.6,-18.67L215.2,-18.96L215,-21.92L215,-24.57L214.7,-26.86L214.3,-29.47L213.6,-30.48L212.7,-32.25L212.2,-34.19L212.2,-35.12L212.3,-35.46L215.8,-36.82L217.3,-37.52L219.5,-38.3L223.4,-39.4L226.8,-40.38L230,-41.33L232.2,-42L281.1,-42ZM301.8,-42L302.8,-40.78L303.1,-37.57L303.5,-37.08L302.6,-34.71L302.1,-30.86L302.5,-28.31L302.3,-23.93L301.8,-19.28L301.3,-17.59L300.6,-16.98L298.8,-16.49L294.9,-15.91L294.3,-15.35L293.8,-14.45L293,-12.3L292.1,-10.11L291.8,-9.177L292,-8.973L292.8,-7.865L293.7,-5.034L293.8,-0.154L293.5,0.197L292.4,0.401L291.1,0.343L290.6,0.08L290.2,-0.476L289.8,-1.499L290.6,-2.23L290.9,-3.486L290.4,-4.596L289.4,-4.829L288,-5.822L285.3,-9.06L282.9,-11.33L281.5,-13.23L280.1,-13.98L279.8,-14.45L279.4,-15.24L279.4,-16.4L279.5,-17.24L279.1,-18.18L277.7,-19.66L277,-20.47L277,-21.43L277.5,-22.39L278.8,-23.52L279.7,-25.84L280,-27.32L281.7,-30.34L282,-32.94L282,-35.03L281.9,-36.59L281.4,-39.77L281.1,-42L281.1,-42L301.8,-42ZM132.3,11.59L132,12.45L131.7,13.65L132,14.56L132.6,15.79L133.6,16.85L134.3,17.5L135.1,19.06L136,21.03L137.1,22.56L140.4,26.1L140.8,27.37L141.2,28.61L143.3,31.03L143.5,31.83L143.4,33.45L145.5,38.37L146.9,41.24L148.1,41.78L151.8,44.84L155.1,47.3L159,48.97L161.8,50.07L163.2,50.87L163.9,51.64L164.5,53.13L164.8,55.7L164.8,57.37L167.9,57.31L170.4,57.46L171.2,57.78L171.6,58.26L171.5,59.37L171.5,60.98L171.7,62.32L171.4,63.73L171.2,65.38L171.1,67.44L171.5,68.25L173.9,70.86L174.9,72.54L176,75.09L176.6,75.9L177.2,76.23L179.4,76.53L185,77.58L188.5,78.58L191.2,79.57L192.3,79.84L192.9,80.11L193.1,80.35L192.8,82.61L192.9,83.3L193.2,83.97L193.7,84.45L194.3,84.78L196.3,85.02L197.6,86.38L198.4,87.01L194.6,87.35L192.8,88.49L191.7,90.52L189.9,92L187.6,92.97L185.2,93.6L182.6,93.97L179.8,95.72L176.9,98.85L175.4,100.8L175.3,101.7L174.7,102.4L173.4,102.9L172.7,103.7L172.5,104.5L171.9,104.9L170.7,104.9L169.9,105.5L169.4,106.7L168.3,107.5L166.7,107.8L165.3,108.5L164.2,109.6L163.3,110.2L162.7,110.2L161.7,111.2L160.1,113.4L159.8,114.5L157.7,122.9L156.5,123.9L154.2,125.6L152.3,127.7L151.5,128.9L150.6,129.5L146.3,130.5L144.7,131L142.8,131.8L142.3,132.6L141.9,135.2L140.5,138.9L139.4,141.7L138.7,144.1L137.5,147.1L136.5,148.1L135.3,149.1L133.7,149.5L131.5,149.8L129.6,149.7L128.1,149.8L126,150.8L124.1,150.9L121,150.3L118.4,149.7L117.3,149.5L115.1,147.6L113.7,147.6L111.5,147.5L110.3,147L109.2,146L106.7,144L104.3,142.5L102.2,141.5L100.2,141.1L98.33,141.5L96.83,141.9L96.25,142.1L95.15,142.9L93.99,144.5L93,146.9L92.65,148.4L91.55,151.6L90.1,155.4L89.47,156.5L88.65,157.4L87.38,158.1L83.32,161.1L81.29,164.6L80.02,165.6L78.45,166.1L77.12,166.3L76.42,166.9L75.61,168.7L74.92,169.3L74.11,169.5L71.79,169.3L71.03,169.1L64.83,169.5L62.98,168.9L61.64,168.7L59.56,169.4L58.63,168.9L57.94,167.5L57.59,164.6L57.7,162.1L58.86,160.3L59.79,158.9L60.72,157.1L60.89,156.3L60.66,155.6L60.48,154.1L60.37,152.7L59.04,149.4L57.41,145.1L55.21,140.3L54.57,138.9L53.18,136.8L48.08,132.9L47.33,132.4L47.33,131.9L47.27,128.1L47.27,123L47.27,118L47.27,112.9L47.27,107.9L47.27,102.9L47.27,97.84L47.27,92.85L47.27,87.86L47.27,83.64L50.92,83.64L55.44,83.64L60.89,83.64L63.27,83.64L63.38,82.97L63.38,79.9L63.38,72.84L63.38,65.79L63.38,58.77L63.33,51.76L63.33,44.78L63.33,37.81L63.33,30.85L63.33,23.92L63.33,20.5L67.44,20.3L72.25,19.59L80.02,18.44L87.2,17.06L91.96,16.24L97.52,15.27L99.44,15.09L99.96,15.21L100.7,15.56L103.3,19L104.9,21.65L105.3,22.77L105.6,22.89L106.3,22.71L107.2,22.27L109.8,19.65L110.4,18.97L112.1,17.71L114.1,16.41L116,15.5L117.8,14.71L118.7,14.91L119.7,15.56L120.5,15.97L124.8,12.8L126.7,12.06L131.6,11.51ZM79.5,-42L79.5,-39.28L79.5,-33.93L79.5,-28.57L79.5,-23.2L79.5,-19.34L80.48,-14.19L82.22,-8.565L82.92,-8.04L84.71,-7.019L87.2,-4.917L88.6,-3.311L91.44,-0.534L95.2,3.035L98.86,6.198L102,9.012L97,10.01L89.87,11.39L85.06,12.33L79.21,13.47L75.27,14.21L70.45,15.09L69.64,15.09L68.37,14.47L65.53,14.36L62.22,15.18L59.62,15.41L57.7,15.03L55.79,14.3L53.94,13.18L50.75,12.77L46.23,13.09L41.82,12.86L37.59,12.12L34.58,11.86L32.72,12.01L30.81,11.77L28.72,11.12L26.98,10.07L24.9,7.81L23.27,5.67L22.81,5.377L22.29,5.026L21.82,4.938L17.19,4.879L12.78,4.821L10.23,4.821L4.089,4.821L-2.054,4.792L-8.256,4.792L-14.4,4.792L-20.54,4.762L-26.69,4.762L-32.89,4.762L-39.03,4.733L-42,4.733L-42,-42Z" fill="#D8E2E7" stroke="#3F464B" stroke-width="0.85" vector-effect="non-scaling-stroke"/><path d="M188.3,229L186.8,229.5L186.6,229.5L185.7,229.4L184.5,229.5L183.5,229.8L182.7,229.8L181.5,231.2L179.2,234.8L178.7,235.5L178.5,236.9L178,238L177.3,238.9L176.7,239.1L174.8,238.8L172.5,238.3L171.1,237.2L169.8,235.8L169.2,234.8L168.5,234.2L168.2,233.9L167.2,233.4L166.9,233.2L166.6,233L166.2,232.3L166,231.7L166,230.1L165.3,229.1L164.2,227.4L163.4,226L162.4,224.1L161.8,222.6L161.2,220.9L161.2,220.2L161.9,219.7L163.7,218.9L165,218.2L166.1,217L167.1,215.3L167.7,214.2L168.2,213.7L168.8,213L169.8,211.3L171,209.5L172.2,207.5L173.7,206.9L175.8,206.3L177.8,204.6L180.2,203.1L184,201.6L185.8,201.2L186.5,200.9L186.9,201.2L187.4,202.1L188.1,202.9L189.6,204.2L190.2,204.5L191.8,206.4L193.4,207.8L195.4,209.3L196.7,210.1L197.4,210.3L197.9,211.6L198.5,212.6L198.8,213.6L198.7,214.5L198.1,216.8L197.3,219.1L196.5,220L195.6,220.7L194.8,221.6L194.5,223.4L194.1,225.6L193,226.5L192.1,227.1L190.9,227.8Z" fill="#8B341D" stroke="#2C160F" stroke-width="1.1" vector-effect="non-scaling-stroke"/></svg>