<svg xmlns="http://www.w3.org/2000/svg" viewBox="0 0 360 440" width="360" height="440" role="img" aria-label="Regional map with Luxembourg highlighted"><rect width="100%" height="100%" fill="#7FA6D6"/><path d="M-42,7.064L-41.78,7.079L-36.64,8.289L-32.11,7.926L-23.04,10.35L-18.51,12.52L-6.869,22.17L-4.451,27.46L-3.242,34.3L-3.091,41.85L-5.056,48.78L-7.323,54.98L-8.683,62.95L-9.59,65.92L-10.95,68.06L-17.15,74.45L-21.23,76.94L-22.89,75.87L-24.7,75.99L-24.85,77.53L-23.04,80.72L-22.89,84.62L-26.52,87.45L-30.29,88.62L-36.34,87.09L-42,90.58L-42,7.064ZM-42,93.68L-38.76,95.1L-37.55,98.03L-39.06,103.1L-42,104.9L-42,93.68ZM-42,116.8L-39.06,117.4L-33.92,117.4L-23.64,116.3L-18.81,116.4L-17,117.1L-17,120.6L-17.75,129.3L-19.11,131.1L-32.56,138.3L-35.43,143.4L-36.19,146.4L-42,146.1L-42,116.8ZM323.3,365.2L324.6,366L327.6,368.8L327,373.4L323.5,380.9L321.7,386.9L321.5,391.7L321.8,393.8L322.4,393.8L325.8,394.1L327.4,394.1L332.6,395.3L336.8,397.1L337.7,399.1L338.2,401.5L343.1,404.7L348.9,406.7L350.9,406.1L358,398.5L360.8,399.8L362.5,403.8L362.3,405.9L360.4,413.9L360.1,418.2L361.7,421L361.9,423.2L361.4,425.2L358.6,425.4L354.8,424.3L351.6,420.9L349,421.3L346.9,422.1L345.9,425.4L345,429.2L345.3,431.5L346.8,433L348,436.6L348.7,441.2L349.5,443.3L348.7,444.1L346.8,444.8L345.1,444.2L342.1,438.7L340.7,436.6L338.5,436.3L334.4,437.6L328.2,440.6L325.6,440.6L323.5,440L321.5,437.5L319.9,432.5L319.3,429.3L318.1,429.4L314.1,428.5L312.3,429.8L312.3,434.8L311.9,441.3L309.9,445.3L304.3,452.4L302.3,455.5L301.4,457.7L301.3,459.6L302.2,462.9L303.2,466.1L302.3,468L299.5,468.9L297.4,466.9L296.6,463.6L292.1,458.8L294,455L293.7,453.9L286.3,451.9L283.1,449L278.6,443.7L277.7,441.5L278,434.2L277.7,432.4L277.1,431.6L275,431.6L272,434.1L269.1,437.9L263.3,442.2L262.7,443.1L264.7,447.3L264.6,448.9L260,455.5L259.1,457.7L253.2,461.8L250.5,463.4L242.3,460.3L240.1,459.9L236.3,462L231.2,463.9L222.8,465.9L219.7,464.4L218.3,463L217.6,461L215.4,457.6L213,455.5L211.4,453.2L209.2,450.7L207.9,448.7L209.7,441.9L208.3,439.6L207.6,436.2L208,433.9L207.3,433.4L199.7,432.1L193.4,432.5L189,434.7L185.2,438.4L184.8,439.3L185.1,439.9L186.9,443.3L183.9,447L179,449.7L175.7,450L174.2,449.5L174.2,445.6L176.9,444.2L179.5,441.7L180.2,438.1L180.5,435.7L178,432.6L178.3,430.8L179.9,427.2L180.8,424.2L182.2,421.5L187.3,417L192.6,412.7L193.4,407.9L193.8,402.1L194.6,400.8L201.7,397.3L203.3,395.9L204.3,394L209.8,387.6L215.4,381.2L216.5,379L217.4,377.7L217.4,376.6L216.8,375.9L214.1,375.4L213.2,373.3L216,369.6L219.7,367.4L223.1,367.4L224.5,368.4L224.4,369.5L225.9,370.8L228.6,371.3L231.8,370.8L235.1,369.4L237.1,366.2L238.1,363.7L243.2,360.9L246.7,362.3L256.2,362.7L263.3,362L267.7,360L273.2,360L276.8,361.1L277.4,361L278.5,360.7L279.4,359.7L282.8,359L283.3,358.1L283.1,357.2L282.5,356.8L278.3,357.2L276.6,356.6L276.3,355L277.7,352.2L280.7,350.1L283.4,349.5L285.3,350.1L289.9,354.2L291,354.4L291.8,353.7L292.7,353.2L294.3,354L296,356.6L296.3,357L306.7,356L309,356L316.1,360.6ZM175.1,158L170.9,157.9L166.9,157.8L164.8,157.5L162.5,156.4L161.5,154.4L160.3,151.9L160.6,150.3L164.4,146L165,144.8L164.5,144.2L165,142.2L167.8,135.7L168.1,133.1L166.9,131.2L165,130.2L158.9,128.2L156,125.5L154.8,123.1L153.5,122.4L151.5,123.2L146.5,124.1L142.4,122.8L137.6,118.3L136.6,114.2L135.9,111.2L134.7,110L133.1,111.6L131.1,114.2L127,114.4L126,113.8L125.7,112.4L125.5,111.2L124.3,109.5L123.3,108.6L118.1,113.3L116.1,113.1L113.7,111.4L112.5,109.6L110,110.7L107.5,112.8L108.4,116.9L107.1,117.6L104.2,117.2L100.9,115.6L97.26,114.5L91.67,111.7L83.96,114.1L78.52,111.3L74.14,111L71.26,108.8L68.39,105.2L70.51,102.7L72.47,101.9L80.63,101.4L86.68,103L97.41,110.9L100.1,110.8L103,109.9L101.5,107.7L98.77,106.6L94.84,104.5L91.67,101.4L99.07,100.5L98.01,98.97L97.11,96.27L89.25,86.97L90.61,84.38L92.57,78.95L94.99,74.45L96.95,73.27L100.3,70.07L107.2,60.58L111.8,52.84L115.1,43.77L119.9,18.31L121.4,13.97L123.7,9.136L126.7,10.1L128.7,11.43L135.9,7.805L148.5,-1.647L152.1,-9.911L155.7,-13.69L170.1,-21.25L178,-23.45L190.2,-24.06L199.1,-25.41L209.7,-25.9L213.8,-21.25L216,-17.83L219.8,-16L225.7,-14.66L225.3,-7.964L225.4,5.142L225,7.442L222.2,13L219.5,22.77L218.8,29.26L218,30.59L206.8,30.46L205.3,31.67L205,32.99L205.6,34.66L205.3,36.34L204.4,37.66L204.9,39.82L206.8,42.21L210.3,43.77L214.1,43.88L216,43.65L217.4,45.32L218.9,47.95L218.8,51.41L218.2,55.82L216.5,59.98L211.4,64.73L208.9,66.4L206.8,67.34L205.8,68.53L205.3,70.19L205.5,71.61L209.1,75.4L208.9,76.23L207.9,78.24L206.5,80.13L197.2,84.03L193.2,83.67L191.1,85.56L190.4,86.03L187.9,84.14L182.3,82.14L180.4,82.85L179.2,84.03L175.7,85.32L173.3,87.45L173.3,90.16L177.7,97.21L179.2,98.62L179.2,101.3L181.3,104.6L183.6,108.7L183.7,111.3L183.6,114L182.3,117.7L178.6,126.4L178.6,128.2L178.9,129.5L180.2,129.8L181.1,130.5L180.8,131.7L173.7,137.7L172.8,138.8L169.9,138.4L169.5,139.4L169.8,141.1L171,142.6L173.6,143.3L175.7,144.8L177.5,147.8ZM100.9,115.6L100.3,118.2L98.77,121L93.18,124.9L87.28,127.6L84.41,127.3L82.3,125.9L81.24,124.5L78.06,123.1L73.83,122.4L71.11,123.9L69.3,125.3L67.64,125L66.43,123.9L65.37,122L64.16,116.2L67.33,115.1L74.29,114.7L79.58,116.8L86.53,117.7L91.97,114.9L96.2,117.4ZM189.4,-30.79L183.6,-28.34L182,-28.83L182.5,-29.57L187.6,-31.04ZM172.5,-27.12L164.2,-26.02L161.3,-26.88L160.9,-27.61L163.1,-28.1L170.3,-28.22L172.4,-27.49ZM138.1,-16.49L130.2,-11.37L129.6,-12.1L134.6,-16.61ZM147.1,-21.98L143.2,-21.37L141.4,-22.35L150.9,-25.16L156.8,-26.02L157.9,-25.65ZM128.7,0.173L124.5,5.142L121.9,3.689L121.3,2.598L122.5,-1.282L128.7,-7.721ZM89.25,91.8L93.48,95.45L94.23,96.63L94.54,97.92L89.4,99.33L83.81,94.86L80.18,95.92L78.82,93.8L78.82,92.39L82.6,91.33ZM206.2,-35.82L202.4,-35.58L203.5,-37.42L207.1,-38.89L209.1,-38.89ZM325.8,394.1L322.4,393.8L321.8,393.8L321.5,391.7L321.7,386.9L323.5,380.9L323.9,381.9L324.1,383.2L324.6,384.5L324.7,386.2L325.3,387.9L326.5,389.5L327,391L326.4,392.9ZM214.6,482L212.4,478.5L209.2,476.1L208.6,474.2L208.5,471.8L209.2,469.8L214.8,466.6L218.3,463L218.3,463L219.7,464.4L222.8,465.9L231.2,463.9L236.3,462L240.1,459.9L242.3,460.3L250.5,463.4L253.2,461.8L259.1,457.7L260,455.5L264.6,448.9L264.7,447.3L262.7,443.1L263.3,442.2L269.1,437.9L272,434.1L275,431.6L277.1,431.6L277.7,432.4L278,434.2L277.7,441.5L278.6,443.7L283.1,449L286.3,451.9L293.7,453.9L294,455L292.1,458.8L296.6,463.6L297.4,466.9L299.5,468.9L302.3,468L303.2,466.1L302.2,462.9L301.3,459.6L301.4,457.7L302.3,455.5L304.3,452.4L309.9,445.3L311.9,441.3L312.3,434.8L312.3,429.8L314.1,428.5L318.1,429.4L319.3,429.3L319.9,432.5L321.5,437.5L323.5,440L325.6,440.6L328.2,440.6L334.4,437.6L338.5,436.3L340.7,436.6L342.1,438.7L345.1,444.2L346.8,444.8L348.7,444.1L349.5,443.3L348.7,441.2L348,436.6L346.8,433L345.3,431.5L345,429.2L345.9,425.4L346.9,422.1L349,421.3L351.6,420.9L354.8,424.3L358.6,425.4L361.4,425.2L361.9,423.2L361.7,421L360.1,418.2L360.4,413.9L362.3,405.9L363.4,406.5L367.6,406.6L372.3,407L375.2,410.3L378.1,411.4L382.3,411.7L385,411.3L386.4,410.1L388,406.3L390.9,401.5L395.6,399.1L402,398.7L402,482ZM260.6,-42L266.4,-33.12L264,-27.73L267.7,-25.28L269.7,-26.14L271.1,-30.79L272,-35.95L273.3,-37.54L278.3,-33.61L280.1,-31.04L280.1,-22.59L281.9,-33.98L280.6,-42L322.3,-42L322.3,-42L325.9,-37.05L329.5,-34.59L334.2,-33.86L327.9,-37.05L324.3,-42L402,-42L402,367.4L401.8,367.5L401,369.2L397.9,371.4L394.2,372L393.3,371.4L391.1,372.3L387.1,373.3L384.6,373L383.3,371.3L380.9,368.6L379.9,366.6L380,365.4L374.4,365.2L370.9,363.7L363.5,364.1L361.7,363.5L361.4,364.1L360.2,371.8L358.9,375L356.4,378.3L353.4,380.1L351,380.4L351.2,378L351.8,375.1L349.9,374.5L347.4,374.2L346.2,373.3L346.5,371.2L345.9,369.9L344.8,368.4L342.1,366.4L336.6,363.5L332.9,362L331.4,363.5L328.6,365.1L324.4,364.6L323.3,365.2L323.3,365.2L316.1,360.6L309,356L306.7,356L296.3,357L296,356.6L294.3,354L292.7,353.2L291.8,353.7L291,354.4L289.9,354.2L285.3,350.1L283.4,349.5L280.7,350.1L277.7,352.2L276.3,355L276.6,356.6L278.3,357.2L282.5,356.8L283.1,357.2L283.3,358.1L282.8,359L279.4,359.7L278.5,360.7L277.4,361L276.8,361.1L273.2,360L267.7,360L263.3,362L256.2,362.7L246.7,362.3L243.2,360.9L241.1,360L239.6,355.9L240.1,349.6L242.3,341.4L242.9,335.3L241.9,331.5L243.2,325.6L247,317.8L249.4,309.6L250.8,301L252.6,295.3L256.1,291.3L264.6,280.3L265.3,279.4L265,273.8L262.7,273.1L259.4,271.4L251,269.4L243.1,268.2L239.5,266.6L236.3,262.4L234.3,262.3L230.6,263.8L225.7,264.8L222.4,263.9L220.1,264.2L218.9,264.9L218.3,264.3L217.4,260.6L215.6,259.6L212.9,258.8L211.1,259.1L209.8,260.9L208,262.3L206.2,261.8L200.9,253.4L199.6,251.5L199.1,249.9L197.9,246.7L194.6,243.7L191.4,242.7L189.9,243L190.1,239.1L191.3,233.5L192.5,230.6L194.1,228.2L195.8,226.5L196.1,223.5L195.9,220.7L194,220.2L189,218.1L186.1,215.8L184,213L181.3,209.1L180.1,205.3L179.9,201.3L180.4,199.6L180.5,198.3L182.8,192.3L190.7,186.7L189.9,181.2L189.7,177.8L187.8,175.6L184,174.7L182.9,173.2L182.5,171.6L185.4,168.3L181.9,165.5L180.4,162.8L175.7,159.3L175.1,158L177.5,147.8L175.7,144.8L173.6,143.3L171,142.6L169.8,141.1L169.5,139.4L169.9,138.4L172.8,138.8L173.7,137.7L180.8,131.7L181.1,130.5L180.2,129.8L178.9,129.5L178.6,128.2L178.6,126.4L182.3,117.7L183.6,114L183.7,111.3L183.6,108.7L181.3,104.6L179.2,101.3L179.2,98.62L177.7,97.21L173.3,90.16L173.3,87.45L175.7,85.32L179.2,84.03L180.4,82.85L182.3,82.14L187.9,84.14L190.4,86.03L191.1,85.56L193.2,83.67L197.2,84.03L206.5,80.13L207.9,78.24L208.9,76.23L209.1,75.4L205.5,71.61L205.3,70.19L205.8,68.53L206.8,67.34L208.9,66.4L211.4,64.73L216.5,59.98L218.2,55.82L218.8,51.41L218.9,47.95L217.4,45.32L216,43.65L214.1,43.88L210.3,43.77L206.8,42.21L204.9,39.82L204.4,37.66L205.3,36.34L205.6,34.66L205,32.99L205.3,31.67L206.8,30.46L218,30.59L218.8,29.26L219.5,22.77L222.2,13L225,7.442L225.4,5.142L225.3,-7.964L225.7,-14.66L223.8,-17.83L219.7,-21.25L220.6,-28.47L221.9,-33.98L226,-40.98L227.9,-42L260.6,-42ZM-42,214.4L-37.7,213.3L-24.25,207.6L-17.45,201.7L-12.91,194L-11.4,192.4L-9.59,190.9L-11.4,188.2L-10.19,158.9L-8.834,153.6L-6.265,149.2L-2.184,145.8L3.861,142.1L26.23,137L29.55,135L30.01,138.2L31.67,142.2L32.73,144.4L31.82,147.3L32.58,149.7L35.6,154L39.38,158L42.7,160.7L43.76,160.4L46.18,159.7L50.41,157L54.03,156.2L56,158.2L57.06,159.3L59.33,163.9L59.93,168.6L60.99,172.5L62.8,174.1L69.45,174.7L74.44,176.2L75.8,177.5L77.46,186.1L78.37,187.4L79.73,186.4L80.94,185L82.6,184.8L85.47,185.3L89.4,185.5L93.33,186.4L98.77,191.4L98.62,193L97.56,195.8L97.11,198.1L98.01,199L99.53,201.3L99.22,204L97.71,205.9L97.26,207.5L97.26,208.5L97.71,209.3L98.92,210L106.9,211L114.3,210L119,207.3L119.8,204.5L121.1,201.2L123.9,198.3L125.8,197.4L127.6,198.6L124.6,210.1L126.7,213.1L127,217.5L127.9,221.3L130.5,221.2L133.7,221.9L135.9,223.4L138.7,225.6L142.4,227.8L145.2,228.4L146.1,230.2L148.3,232.3L151.7,236.4L154.7,239.2L156.2,239.2L159.1,238.1L163.3,237.4L166.6,237.5L168,239.7L171.3,240.6L172.4,241.5L173.7,242.9L175.8,243.5L178.6,242.9L180.4,240.9L182.9,240L185.5,240.3L187,241.5L189.9,243L191.4,242.7L194.6,243.7L197.9,246.7L199.1,249.9L199.6,251.5L200.9,253.4L206.2,261.8L208,262.3L209.8,260.9L211.1,259.1L212.9,258.8L215.6,259.6L217.4,260.6L218.3,264.3L218.9,264.9L220.1,264.2L222.4,263.9L225.7,264.8L230.6,263.8L234.3,262.3L236.3,262.4L239.5,266.6L243.1,268.2L251,269.4L259.4,271.4L262.7,273.1L265,273.8L265.3,279.4L264.6,280.3L256.1,291.3L252.6,295.3L250.8,301L249.4,309.6L247,317.8L243.2,325.6L241.9,331.5L242.9,335.3L242.3,341.4L240.1,349.6L239.6,355.9L241.1,360L243.2,360.9L243.2,360.9L238.1,363.7L237.1,366.2L235.1,369.4L231.8,370.8L228.6,371.3L225.9,370.8L224.4,369.5L224.5,368.4L223.1,367.4L219.7,367.4L216,369.6L213.2,373.3L214.1,375.4L216.8,375.9L217.4,376.6L217.4,377.7L216.5,379L215.4,381.2L209.8,387.6L204.3,394L203.3,395.9L201.7,397.3L194.6,400.8L193.8,402.1L193.4,407.9L192.6,412.7L187.3,417L182.2,421.5L180.8,424.2L179.9,427.2L178.3,430.8L178,432.6L180.5,435.7L180.2,438.1L179.5,441.7L176.9,444.2L174.2,445.6L174.2,449.5L175.7,450L179,449.7L183.9,447L186.9,443.3L185.1,439.9L184.8,439.3L185.2,438.4L189,434.7L193.4,432.5L199.7,432.1L207.3,433.4L208,433.9L207.6,436.2L208.3,439.6L209.7,441.9L207.9,448.7L209.2,450.7L211.4,453.2L213,455.5L215.4,457.6L217.6,461L218.3,463L214.8,466.6L209.2,469.8L208.5,471.8L208.6,474.2L209.2,476.1L212.4,478.5L214.6,482L-42,482ZM100.9,115.6L104.2,117.2L107.1,117.6L108.4,116.9L107.5,112.8L110,110.7L112.5,109.6L113.7,111.4L116.1,113.1L118.1,113.3L123.3,108.6L124.3,109.5L125.5,111.2L125.7,112.4L126,113.8L127,114.4L131.1,114.2L133.1,111.6L134.7,110L135.9,111.2L136.6,114.2L137.6,118.3L142.4,122.8L146.5,124.1L151.5,123.2L153.5,122.4L154.8,123.1L156,125.5L158.9,128.2L165,130.2L166.9,131.2L168.1,133.1L167.8,135.7L165,142.2L164.5,144.2L165,144.8L164.4,146L160.6,150.3L160.3,151.9L161.5,154.4L162.5,156.4L164.8,157.5L166.9,157.8L170.9,157.9L175.1,158L175.7,159.3L180.4,162.8L181.9,165.5L185.4,168.3L182.5,171.6L182.9,173.2L184,174.7L187.8,175.6L189.7,177.8L189.9,181.2L190.7,186.7L182.8,192.3L180.5,198.3L180.4,199.6L180.1,199.4L179.2,197.4L177.7,197.4L174.5,196.5L169.8,202.1L167.7,206.6L166.5,210L164.7,212.7L164.4,215.6L164.5,216.8L163.9,218.4L163.9,220L166.5,223.1L167.2,224.9L170.4,230.6L169.3,232.7L168.6,234.8L167.7,236.5L166.6,237.5L163.3,237.4L159.1,238.1L156.2,239.2L154.7,239.2L151.7,236.4L148.3,232.3L146.1,230.2L145.2,228.4L142.4,227.8L138.7,225.6L135.9,223.4L133.7,221.9L130.5,221.2L127.9,221.3L127,217.5L126.7,213.1L124.6,210.1L127.6,198.6L125.8,197.4L123.9,198.3L121.1,201.2L119.8,204.5L119,207.3L114.3,210L106.9,211L98.92,210L97.71,209.3L97.26,208.5L97.26,207.5L97.71,205.9L99.22,204L99.53,201.3L98.01,199L97.11,198.1L97.56,195.8L98.62,193L98.77,191.4L93.33,186.4L89.4,185.5L85.47,185.3L82.6,184.8L80.94,185L79.73,186.4L78.37,187.4L77.46,186.1L75.8,177.5L74.44,176.2L69.45,174.7L62.8,174.1L60.99,172.5L59.93,168.6L59.33,163.9L57.06,159.3L56,158.2L54.03,156.2L50.41,157L46.18,159.7L43.76,160.4L42.7,160.7L39.38,158L35.6,154L32.58,149.7L31.82,147.3L32.73,144.4L31.67,142.2L30.01,138.2L29.55,135L47.84,123.8L58.87,117.9L64.16,116.2L65.37,122L66.43,123.9L67.64,125L69.3,125.3L71.11,123.9L73.83,122.4L78.06,123.1L81.24,124.5L82.3,125.9L84.41,127.3L87.28,127.6L93.18,124.9L98.77,121L100.3,118.2ZM402,398.7L395.6,399.1L390.9,401.5L388,406.3L386.4,410.1L385,411.3L382.3,411.7L378.1,411.4L375.2,410.3L372.3,407L367.6,406.6L363.4,406.5L362.3,405.9L362.5,403.8L360.8,399.8L358,398.5L350.9,406.1L348.9,406.7L343.1,404.7L338.2,401.5L337.7,399.1L336.8,397.1L332.6,395.3L327.4,394.1L325.8,394.1L326.4,392.9L327,391L326.5,389.5L325.3,387.9L324.7,386.2L324.6,384.5L324.1,383.2L323.9,381.9L323.5,380.9L323.5,380.9L327,373.4L327.6,368.8L324.6,366L323.3,365.2L324.4,364.6L328.6,365.1L331.4,363.5L332.9,362L336.6,363.5L342.1,366.4L344.8,368.4L345.9,369.9L346.5,371.2L346.2,373.3L347.4,374.2L349.9,374.5L351.8,375.1L351.2,378L351,380.4L353.4,380.1L356.4,378.3L358.9,375L360.2,371.8L361.4,364.1L361.7,363.5L363.5,364.1L370.9,363.7L374.4,365.2L380,365.4L379.9,366.6L380.9,368.6L383.3,371.3L384.6,373L387.1,373.3L391.1,372.3L393.3,371.4L394.2,372L397.9,371.4L401,369.2L401.8,367.5L402,367.4L402,398.7Z" fill="#D8E2E7" stroke="#3F464B" stroke-width="0.85" vector-effect="non-scaling-stroke"/><path d="M180.4,199.6L179.9,201.3L180.1,205.3L181.3,209.1L184,213L186.1,215.8L189,218.1L194,220.2L195.9,220.7L196.1,223.5L195.8,226.5L194.1,228.2L192.5,230.6L191.3,233.5L190.1,239.1L189.9,243L187,241.5L185.5,240.3L182.9,240L180.4,240.9L178.6,242.9L175.8,243.5L173.7,242.9L172.4,241.5L171.3,240.6L168,239.7L166.6,237.5L167.7,236.5L168.6,234.8L169.3,232.7L170.4,230.6L167.2,224.9L166.5,223.1L163.9,220L163.9,218.4L164.5,216.8L164.4,215.6L164.7,212.7L166.5,210L167.7,206.6L169.8,202.1L174.5,196.5L177.7,197.4L179.2,197.4L180.1,199.4Z" fill="#8B341D" stroke="#2C160F" stroke-width="1.1" vector-effect="non-scaling-stroke"/></svg>