<svg xmlns="http://www.w3.org/2000/svg" viewBox="0 0 360 440" width="360" height="440" role="img" aria-label="Regional map with Montenegro highlighted"><rect width="100%" height="100%" fill="#7FA6D6"/><path d="M42.96,241.7L42.75,241.7L42.75,241.6L42.75,241.5L42.96,241.5ZM402,121.6L402,121.7L399.1,126.3L398.8,126.8L393.4,133.1L392.7,133.6L389.2,135.1L387.1,136.3L385.5,136.9L382.8,136.3L381.7,137.2L381.2,138.3L381.2,140.6L382.5,142.3L383.7,147.9L383.2,150.2L382.2,148.7L380.5,147.1L377.3,145.7L373.7,146.2L369.9,148.5L367.3,149.4L365.9,148.8L365,148.8L364.7,149.5L364.8,150L365.2,150.4L365.1,150.7L364.6,150.9L358.5,149.3L355.8,147.8L353.8,144.8L354.9,143.9L355.7,143.5L358.9,143.3L359.5,143L359.5,142.3L359.8,141.4L359.7,140.1L359.3,138.8L360.7,136.8L362.8,135.1L364,133.5L364.2,131.1L366.4,129.9L368.3,127.9L368.8,125.7L369.5,124.3L368.2,121.2L368,119L367.9,117.2L368.5,116.3L370.3,115.1L372.2,114.3L373,114.4L373.3,115L373.4,118.5L373.7,118.6L374.4,118.2L375.4,116L376,116.6L377.1,116.9L377.8,116.3L378.3,116.4L379,116.9L380.3,117.7L381.5,118L382.5,117.5L383.2,116.5L384.2,116.9L385.9,119.4L386.6,119.1L390.5,118.6L391.2,117.9L391.6,117.3L387.6,114L387.8,111.5L387.9,108.7L387.4,107L386.6,105.6L383.5,104.1L381.1,102.5L380.6,101.7L380.5,100.8L380.4,99.31L379.5,98.06L379.4,97L380,95.34L380.2,93.58L380,92.87L379.4,92.27L378.3,92.22L376.9,91.21L375.9,89.79L373.3,87.82L372.5,87.47L372,86.51L371.7,85.29L372.3,83.82L373,81.54L373.5,79.4L373.5,78.13L373.2,74.97L371.8,72.57L371.2,72.26L370,72.93L368.8,73.49L367.8,72.98L366.7,71.65L364.9,68.02L361.5,67.25L360.1,67.09L358.8,68.83L358.3,68.32L358,67.19L357.3,66.73L356.3,67.25L356.1,66.78L356.5,65.25L355.4,64.47L352.7,64.53L351.4,63.96L351.2,62.78L350.4,62.06L348.9,61.7L347.5,60.72L346.1,59.23L344,58.25L341.2,57.78L341,57.63L340.7,57.37L339,58.4L337.9,59.23L336.6,58.71L334.4,60.57L330.1,60.67L328,60.51L326.9,60.1L322.9,62.83L322.4,63.86L321.5,64.22L319,64.73L316.3,65.5L315.7,68.17L314.8,69.65L313.4,71.75L308.4,72.47L304.1,73.54L299.7,74.15L293.8,76.75L291.9,78.99L290.1,79.66L288.4,79.81L287.3,78.54L283.6,75.17L282.2,73.54L280.4,73.08L278.3,73.34L276.3,74.15L274.3,74.31L272,73.13L271.7,73.28L270.9,73.44L265,72.06L264.5,71.8L264.3,71.75L263.5,71.65L259.1,71.8L255.1,69.04L253.8,68.94L252.9,70.06L252.2,71.34L249.4,72.57L248.6,73.08L248.2,72.72L248.1,71.6L248.3,70.68L247.9,69.76L246.8,68.73L246.5,68.32L245.2,68.37L244.8,68.48L244.7,68.48L242.8,67.55L241.6,65.45L239.7,64.32L238.3,63.96L237.6,63.09L237.2,61.85L236.7,60.93L236.7,60.87L236.4,59.48L235.9,59.33L235.9,59.28L234,59.53L234.2,54.68L237.2,51.22L237.9,49.4L239.1,45.55L239.9,43.79L240.9,42.27L241.7,40.87L242,39.61L242.8,39.46L245.2,40.6L247.3,41.18L247.9,40.6L248.1,39.87L248.1,39.35L246.4,37.68L245.3,36.63L245.2,36.01L245.6,34.54L245.8,32.91L245.6,31.13L244.4,27.18L244.2,25.5L245.3,23.44L248.9,18.57L250.1,16.77L251.8,14.54L256.3,9.223L259.1,6.075L261.1,4.364L263.9,1.366L265.1,-0.189L270.3,-1.209L270.9,-2.659L271.8,-4.218L272.6,-4.918L272.6,-7.611L271.7,-10.9L270.9,-12.04L270.4,-12.85L270.7,-13.61L271.3,-13.83L272,-13.93L272.8,-14.69L272.7,-15.56L270.5,-17.68L269.6,-19.3L268.1,-23.5L265.1,-27.86L264.2,-29.29L264,-30.66L264.5,-31.97L264,-33.67L263,-35.87L263.2,-36.09L263,-38.79L263.8,-39.39L265,-39.78L266.7,-39.61L268.1,-39.23L269.9,-37.96L270.4,-38.18L273.3,-40.49L274.6,-42L333.5,-42L333.5,-42L335.2,-38.9L335.8,-38.4L336.8,-38.29L338.8,-38.68L341.7,-38.51L343.5,-37.58L343.2,-34.99L343.7,-34.61L344.5,-34.72L345.5,-36.2L346.3,-37.74L346.8,-38.24L349.8,-37.19L351.2,-37.35L352.4,-38.51L353.2,-38.73L355.4,-37.91L358,-37.3L360.1,-37.24L361.5,-36.64L362.4,-33.89L363.2,-33.34L364,-33.18L365.3,-35.59L366.4,-36.59L367.9,-37.24L368.9,-37.58L369.6,-38.4L370.5,-39.28L371.3,-39.34L372,-39.01L372.7,-37.85L373.9,-35.21L375.2,-32.52L376.1,-31.59L378.6,-32.41L380.3,-33.23L383.2,-33.4L387.2,-33.95L390.3,-34.72L392.2,-34.61L393.4,-33.73L395.2,-32.14L395.6,-29.78L397.9,-28.14L399.8,-27.86L400.4,-29.56L401.5,-30.71L401.1,-32.35L400.9,-34.39L400.1,-36.31L399.6,-38.35L400.5,-41.27L400.8,-42L402,-42ZM309.6,287.7L305,288.5L303.7,287.7L305.1,286.2L307.7,285.2L308.6,285.1L309.7,286.6ZM402,370.1L401.8,370.1L400.5,371.8L400.1,378.4L399,380.3L398.6,383.7L397.9,384.7L396.6,385.4L394.9,384.3L393.6,383.8L390.7,385.2L384.9,387.2L382.9,387.5L376.2,385L373.7,383.4L372.2,381.6L371.6,378.6L370.6,376.9L370.5,375.7L370.1,374.4L368.8,373.8L367.3,374.8L365.7,374.8L363.8,374.1L359.2,371.6L355.6,371.4L353.5,374.5L351.8,375.5L350,375.8L349.9,374.9L351.3,372.9L345.8,373.3L342.9,374.8L340.6,374.6L338.9,373.9L339.1,373L340.9,372.7L342.4,372L348.3,371.5L349.7,370.9L351.2,368.8L354.1,366.9L354.4,366.1L352.2,366.1L343.1,366.6L336.8,366.3L336.1,367.2L335.1,367.4L334.8,364.8L335.8,363.7L337.2,363.8L340.5,362.8L340.2,360.7L337.8,359.2L337.3,358.4L335.6,358.2L334.2,357.2L333.9,354.6L332.9,351.8L331.2,350.5L331.4,349.7L334.4,348.8L334.9,344.9L334.5,342.5L333.1,342.3L328.8,340.4L327.5,340.6L326.1,338.5L323.6,337L322.4,337.5L321.7,338.2L320.5,337.9L318.7,336.6L316.8,335.9L315.9,335L317,332.7L318.4,332.7L318.7,330.9L317.5,327.8L317.7,326.2L318.9,325.9L320.3,326.1L321.8,328L322.2,329.7L321.9,331.5L322.9,333.1L323.5,333.5L323.9,331.8L324.6,331.5L325.4,332.2L327.2,332.6L331.9,331.5L332.7,330.6L329.3,330.7L328.1,329.9L326.7,328L325.9,326.2L325.7,325.4L325.3,324.1L325.8,323.4L328.1,322.4L330.2,319.6L329.3,318.8L328.3,318.4L327.3,318.7L326.3,317.7L326.1,316.4L327,315.3L327,313.8L324.3,310.1L323.6,309.4L324.2,308.1L326.3,306.1L328.2,303.6L327.9,302.8L326.5,302.4L319.7,303.5L317.1,304.4L312.4,304.9L312.1,303.5L312.2,302.3L313.3,300L313.1,294.5L313.8,291.5L316.4,290.6L319.6,286.1L324.8,280.9L330.2,281L332.3,279.5L335.5,279.4L336.1,280.5L336.5,281.5L339.3,283L344.3,282.8L345.5,282.2L346.6,281.4L344.4,278.8L345.1,278L347.1,278L349.4,278.6L349.5,279.2L348.9,280L348.2,281.4L348.9,281.7L355.3,280.8L362,281.5L364.2,281.1L369.5,281.1L370.4,280.3L368.8,279.2L367.3,278.8L366.2,278.2L365.1,277.4L368.5,274.9L370.4,274.4L379.3,272.9L386,272.1L386.1,271.6L385.1,271.6L376.5,270.3L374.4,269.3L371.6,266.9L371,266.3L370.3,265.1L370.7,262.6L371.2,260.7L372.2,259.5L375.6,259.4L387.4,261.4L395.9,260.1L402,262.1L402,370.1ZM349.9,239.8L349.4,242.8L350.6,246.2L353.5,250.7L356.4,253.1L368.3,258.8L370.5,259.3L370,261.6L369.3,263.7L368.5,265.1L365,266L355.4,263.4L353,263.2L351.3,263.7L348.1,265.5L344.6,264.9L339.7,266L338.4,269.5L335,273.4L329.4,276.6L325.4,278.4L319.5,284.5L316.7,288.1L315.6,288.7L314.2,289.3L314.6,287.6L315.3,286L315.2,284.8L315.2,283.1L317.2,281.1L319,279.8L324.4,277.1L325.8,275L321.6,275.1L317.3,275.6L314.6,275.3L312.3,275.4L311.5,273.5L310.9,272.4L311.6,272.1L312.4,271.8L313.7,269.8L315,268.3L316.8,266.5L317.2,265.4L317.2,264.4L316.8,263.6L316.7,262.8L316.6,261.5L316.8,259L320.8,256.3L322.1,256L322.5,254.8L322.2,251.9L321.7,249.6L320.9,249.4L319.9,248.7L319.3,247.9L318.3,247L316.5,246.5L316.5,245.7L316.7,245L317.3,244.2L320.3,243.6L320.7,243L321,241.7L321.7,240.4L322.4,239.9L323.6,240L326,239.6L327.6,239.2L329.3,238.3L330.2,237.4L333.7,236.9L334.7,236.5L335.7,236.9L337,238.3L339.2,240.4L340.5,241.1L341.4,240.8L342.9,240L344.5,240L345.7,240.1L346.3,239.5L347.3,239.4ZM-27.22,482L-27.92,481.5L-31.11,479.2L-34.38,476.6L-37.99,473.8L-38.56,470.2L-40.41,464.8L-42,462.3L-42,425.8L-42,425.8L-40.76,424L-39.7,421.9L-39.55,419.6L-39.06,416L-38.42,413.5L-36.79,410.6L-37.43,408.3L-38.28,405.8L-38.06,401.5L-38.28,399.7L-38.99,398.1L-39.7,396.1L-39.7,394.5L-38.99,390.1L-38.49,386.7L-37.64,382.3L-37.99,381.1L-38.56,380.2L-40.41,379.2L-40.48,378.6L-39.98,378L-37.28,375.8L-35.79,372.7L-34.59,372L-32.67,370.9L-32.74,369.7L-33.17,368.3L-28.34,366.8L-23.66,362.9L-22.03,362L-11.25,358.4L-9.898,358.6L-8.337,359.1L-8.762,360.5L-9.401,361.6L-8.479,363.4L-7.201,362.3L-7.485,361.5L-7.556,360.5L-5.357,360.4L-3.37,360.6L-1.242,361.7L-1.384,366L1.454,370.1L0.674,372.2L3.015,373.4L5.073,371.9L6.137,369.7L9.968,368.5L13.66,365.3L15.64,365L16.07,367.6L17.06,369.9L15.71,370.7L13.94,373.1L10.61,379.3L7.556,381L5.215,383.4L4.505,385.1L4.292,387L4.86,390.5L6.492,394.1L8.479,396.2L10.32,396.8L14.65,400.2L14.58,402.2L15.22,404.6L15.43,407.4L16.92,409.7L13.73,414.7L11.96,418.3L8.479,423.2L5.428,426.4L-1.171,431.2L-2.803,432.8L-3.867,434.4L-4.363,436.1L-4.151,438.1L-2.022,443L0.887,445.9L3.796,447.5L8.904,446.8L8.762,448.7L9.117,450.9L11.18,450.8L12.59,450.5L13.73,448.3L16.28,449.8L17.56,454.3L19.69,455.8L19.9,456.3L19.19,456.7L18.55,457.2L19.19,457.6L21.25,458.2L22.46,457.8L24.51,458.8L24.51,458.8L24.51,459.4L23.8,463.9L23.66,465.5L23.52,468.2L23.52,471.4L25.08,474.2L25.15,475.4L24.51,476.8L21.6,478.4L17.91,480.4L15.35,482L-27.22,482ZM20.04,421.4L16.99,423.1L17.63,421.6L19.62,419.8L20.11,420.3ZM13.73,446L13.23,446.1L12.31,446.8L11.74,446.8L10.32,446.1L9.827,446.1L9.117,445.6L9.33,442.8L9.543,442.1L13.02,442L14.94,443.6L15.22,444L15.29,444.5L14.44,445.4ZM-42,83.67L-40.62,83.06L-38.06,83.06L-36.36,83.57L-36.08,83.52L-35.58,83.36L-35.16,82.91L-33.52,82.55L-33.31,82.14L-33.38,81.74L-33.67,81.54L-35.65,81.74L-36.43,81.43L-36.58,80.67L-35.94,79.4L-34.52,78.38L-33.24,78.13L-32.39,78.38L-30.19,80.32L-29.69,80.42L-29.34,80.06L-28.91,79.86L-28.13,80.22L-27.35,81.43L-27.21,81.64L-22.31,81.18L-21.25,81.18L-17.91,83.31L-14.51,85.49L-14.51,85.49L-13.94,85.85L-12.52,87.16L-12.81,89.34L-14.44,92.87L-15.29,95.69L-15.36,97.91L-15.22,98.91L-14.94,98.91L-13.37,99.06L-12.59,99.06L-10.18,99.61L-8.195,100.5L-7.769,101.4L-7.556,102.5L-5.215,104L-2.519,105L-1.596,104.7L1.738,101.1L3.086,101.7L3.867,103.6L3.796,104.6L2.873,108.3L2.732,110.4L3.512,111.7L3.583,112.7L3.37,113.7L2.022,113.8L0.248,113.2L-1.242,111.6L-2.448,111.8L-3.441,112.2L-3.938,113.8L-4.363,115.5L-4.222,116.6L-3.512,117.3L-2.944,119L-2.59,121.2L-2.235,122.1L-2.59,122.5L-3.512,122.8L-4.292,122.6L-5.711,120L-6.35,119L-7.414,118.9L-9.33,119.5L-12.24,120.9L-13.45,120.9L-14.44,120.6L-15.36,119.4L-16.14,117.1L-16.43,115.6L-16.99,115.6L-18.84,115.2L-19.69,115.8L-19.69,118.2L-19.9,121.2L-20.82,123.1L-23.45,126.4L-24.37,127.9L-24.8,128.9L-24.87,129.8L-24.44,131.4L-23.95,132.8L-24.37,133.7L-25.72,134.2L-26.71,133.2L-27.07,131.7L-29.2,129.4L-28.27,127.6L-28.41,127.1L-31.89,126.2L-33.38,124.8L-35.51,122.3L-35.94,121.3L-35.79,117.9L-35.94,117L-36.22,116.6L-37.21,116.6L-38.63,117.8L-39.98,119.6L-42,121.1L-42,83.67ZM242,39.61L241.7,40.87L240.9,42.27L239.9,43.79L239.1,45.55L237.9,49.4L237.2,51.22L234.2,54.68L234,59.53L233.5,59.9L226.8,61.54L225.9,61.29L224.9,60.36L224.4,59.64L224.1,59.17L223.5,57.83L222.7,56.85L221.6,56.08L220.5,55.2L219.2,55.15L215.5,56.44L213,56.54L211.3,56.13L209.1,55.35L204.7,55.25L201.6,55.92L201.3,56.85L198.6,62.78L194.5,64.99L191,67.19L190,67.66L188.2,66.94L186.2,65.66L184.6,64.94L183.4,65.25L182,66.73L181.5,68.27L177.5,69.4L170.5,70.01L168.1,71.5L167.3,73.34L167.3,74.66L167.9,75.84L167.1,77.21L166.8,77.77L161.9,78.08L155.4,78.48L151.5,78.38L147.8,78.28L145.3,77.11L142.3,74.82L139.1,71.8L138.7,71.7L138.3,71.39L136.3,71.19L135.8,71.34L134.6,70.37L134.2,69.09L132.3,65.71L130.2,60.1L130.2,58.45L130.9,56.65L131.7,55.2L131.8,54.11L131.9,53.8L132.6,51.47L134.1,48.36L135.5,46.54L136.5,45.97L138.7,46.49L142.4,46.96L145.1,46.54L147.8,45.14L149.2,43.94L150.4,42.64L150.8,41.8L151.4,41.44L153.6,40.71L154.2,39.82L154.5,38.2L154.7,36.37L155.1,35.01L155.7,34.02L159.7,31.65L160.1,30.81L160.7,29.97L161.9,29.08L163.1,27.76L164.3,26.97L165.8,27.03L167.3,26.87L168.5,26.39L169,26.34L171,26.76L171.4,28.24L171.6,29.82L175.2,29.71L177.2,26.34L178.2,25.92L179.9,24.76L181,23.7L181.7,24.39L182.8,26.55L183.9,28.29L184.6,28.97L184.6,29.5L185.4,29.82L186.6,30.02L187.5,30.55L187.8,32.18L187.8,33.65L187.3,34.7L187.1,35.64L188.1,36.01L189.4,35.64L190.3,35.12L193.1,36.32L194.1,33.65L195.1,32.23L196.6,31.6L197.9,30.76L199.1,30.18L199.9,30.18L200.3,29.97L201.3,30.02L202.5,30.29L204.1,29.97L206.3,30.66L207.7,31.86L209.1,32.28L210.6,32.23L211.7,31.55L213.2,29.18L214.4,29.18L216.1,28.82L218.6,28.87L224.2,29.34L225.7,30.29L229.2,31.44L230.8,32.76L231.4,34.38L231.8,35.48L235.4,37.16L240.7,39.35ZM123.3,115.1L121.6,114.4L119.4,114.1L119.1,114.5L118.2,114.8L117.8,115.5L118.1,118.3L117.6,118.7L115.2,118.5L114.4,118.8L113.1,120.7L111.8,121.4L110.2,122L108.9,122.7L107.3,123.3L106,123.6L105.4,124.5L105.1,125.4L105.2,126.2L106.5,128L106.7,129.8L106.6,132.1L106.2,133.2L105.8,134L102.3,135.1L98.87,136.9L98.8,137.3L100.4,139L100.4,139.4L99.15,140.3L99.01,141.2L99.15,142.3L99.86,143.4L100.1,144.4L98.16,145.1L95.61,144.8L92.55,143.5L91.42,143.7L90.43,144.4L89.36,144.1L88.16,143.2L86.52,141.5L85.67,140.3L85.39,139.2L84.89,139L84.25,139.4L83.69,140.8L82.13,143.3L80.99,144L79.29,143.8L76.87,143.9L75.38,144.1L73.54,143.2L73.11,143.4L73.11,144L72.4,144.9L71.34,145.5L66.09,144.1L65.38,143L66.59,142.4L68.22,141L69.28,141.2L70.63,140.8L71.27,140.2L70.35,138.4L68.22,136.1L67.08,135.2L65.52,134.7L65.24,134L66.09,130.4L65.81,129.9L64.03,130.1L63.61,129.7L63.47,129.1L63.61,128.2L64.81,126.8L66.16,125.6L66.52,124.9L66.44,124.3L64.74,123.7L63.68,123.2L62.9,123L62.33,123.3L61.9,122.9L61.48,121.9L61.9,120.3L63.39,118.8L65.1,117.5L66.59,116.5L67.37,116.1L67.79,114.5L68.64,114.7L70.42,114.8L72.33,115.1L74.11,115.6L75.67,116.2L79,116.8L81.98,117.1L82.91,117.5L83.61,117.4L84.54,117.9L85.1,117.6L85.46,116.9L87.09,116.1L88.65,115.1L89.64,113.8L90.28,112.8L91.28,112.1L92.41,111.8L93.41,111.5L97.66,111L102.1,111.4L104.2,110.7L105.9,109.4L108.4,109L108.5,109L112.3,110L112.6,109.4L112.7,109.2L112.6,106.4L113.8,105.2L115,104.6L118.7,104.8L119.2,105.7L119.4,107L119.7,108.7L120.4,109.2L120.7,109.9L120.7,111.1L121.4,112L123.1,114.5ZM245.2,178.6L244.5,179L243.7,179.8L243.3,181L243.2,183L240.6,184.6L239.6,184.9L239.2,185.9L238.6,188.8L238.6,191.1L239,192.2L239.1,193.1L240,194.2L240.7,196L241.2,198.2L242.3,200L245.1,201.7L246.5,202.7L247.5,204.2L248.3,205.4L250.6,207.2L250.4,208.4L249.9,209.6L249.4,210.2L248.3,211.7L247.2,212.6L245.3,215.4L242.4,215.5L241.7,215.8L240.6,216.5L240.1,217.9L240.6,218.9L240.5,220.1L240,222.2L240.7,224.5L241.7,225.6L241.8,226.2L241.7,227.3L240.1,229.4L239.7,230.2L238.1,230.6L237.6,230.5L236.9,229.7L236.1,229.5L234.2,230.4L232.4,230.9L230.9,230.5L229.5,230.4L228.5,230.8L227.7,230.9L226.2,231.9L223.9,232.5L222.7,232.4L222.3,231.5L221.9,230.3L222.1,229.7L223.7,228.7L223.9,227.7L226.1,223.1L226.5,221.6L226.5,221.1L225.9,220.8L224.7,220.8L219.3,218.9L219.6,216.8L218.1,215.6L216.4,214.6L216.1,213.4L214.2,211.1L212.8,209.8L211,209.1L209.5,208.1L208.6,207.6L208.2,206.5L208.2,205.8L207.7,205.2L207,205.3L205.8,206.1L204.2,206.9L203.9,207.4L204.5,208.8L204.9,209.5L204.7,210.3L204.2,211.3L201.3,213.5L201,214.3L201.5,215.5L201.2,216.1L198.8,216.9L198.8,216.2L198.6,215.2L197.3,214L195.3,213.1L190.8,210.1L189.2,209.6L187.6,209.3L185.5,207.8L184.4,207.6L183.1,206.5L180.4,203L178.1,201L176.6,200.1L176.1,199.1L176,198.2L176.1,197.8L177.3,196.4L178.2,196.2L179.3,196.2L180.1,196.9L181.2,197L181.7,196.1L182,194.9L181.9,193.2L179.4,189.3L177.3,186.6L177.1,186L177.6,185.5L178.3,185.3L179,185.5L181.1,185.7L183.1,185.4L183.7,184.8L183.7,183.9L183,183L180.7,180.9L178.9,178.9L176.8,177.4L175.2,176.8L174.8,176L174.6,175.2L174.8,173.7L174.9,171.8L175.2,170.6L176.6,168.3L178,165.9L178.8,163.6L179.3,161.4L179.1,160.8L178.4,160.3L176.9,159.8L174.9,160.3L173.1,161L172.4,161.1L172.2,160.1L172.4,159.7L173,159.7L173.4,159.9L173.9,159.5L174.2,158.2L173.5,153.6L174.8,153.2L174.9,152.6L174.9,152L176.3,152.8L178.2,152.8L179.9,152.6L180.2,152.2L180.1,151.5L179.8,151L179.2,150.6L178.8,149.9L177.6,149.7L174.1,148.1L172.4,146.3L172.4,144.4L172.9,143.4L173.5,143L173.4,142.7L171.3,141.8L170.6,140.6L171.2,139.1L170.2,135.9L169.1,134L170.2,133.1L170.3,132L170.4,131.3L170.8,131.3L172.6,130.5L173.2,129.8L173.6,129.1L173.9,128.9L175.1,129.7L176.3,129.8L177.7,129.2L178.8,128.5L180,127.9L180.5,127.5L181.2,126.8L182.7,124.9L184.4,124.5L186.5,125L188.9,125.2L190.7,124.8L195.1,125.3L196.1,125.7L196.7,126.2L197.9,127.9L199.1,130L200.6,131L202.5,132.2L203.4,133L204.8,135.6L205.9,136.8L206.3,136.8L206.6,136.4L206.9,136.2L207.2,136.4L207.2,137.2L207.3,138.9L207.1,140.7L207.4,142.4L207.4,143L207.2,143.5L207.2,143.9L207.6,144.3L209.1,145.5L210.5,147.2L212.1,148.5L213.7,149.3L214.6,149.3L216.1,150.7L219.2,151.7L220.2,152.1L220.8,152.7L221.3,153.3L221.3,154L220.9,154.4L220.2,155.3L220,156.5L219.5,156.8L219,156.8L218.6,157.2L218.7,157.7L219.1,158.2L219.8,158.6L221,159.1L222.2,159.7L222.2,160.2L221.9,160.8L220.4,161L219.3,161.1L218.7,161.3L218.8,162.3L222,163.3L223.5,164.3L224.2,165.5L226.2,166.3L229.6,166.7L231.9,168L233.2,170.2L235.3,169.7L238.3,166.4L241.2,165.6L244,167.2L245.6,168.4L245.9,169.4L245.2,169.8L243.6,169.6L242.3,170.2L241.3,171.6L241.1,173.1L241.8,174.7L242.8,175.8L244.2,176.4L244.8,177.2L245,178.3ZM43.88,187.8L42.68,188L42.11,186.9L42.96,185.6L44.24,185.4L44.45,186.4ZM353.8,144.8L355.8,147.8L358.5,149.3L364.6,150.9L365.1,150.7L365.2,150.4L364.8,150L364.7,149.5L365,148.8L365.9,148.8L367.3,149.4L369.9,148.5L373.7,146.2L377.3,145.7L380.5,147.1L382.2,148.7L383.2,150.2L382.9,152L382.7,153.2L381.8,158L381.3,159.8L380.3,161.8L370.3,164.2L370.9,163.1L370.7,161L370.3,159.5L371.2,158.1L369,157.7L368,158.4L367.2,159.7L367.8,162.7L366.8,164.4L366.4,165.3L366.3,167.5L365.6,168.5L365.5,169.5L367.1,169.3L366.4,171.1L363.4,174.8L362.3,176.9L362.6,185.5L361.2,190.6L361.2,192.1L358,192.2L357,192.1L354,191.3L350.6,189.9L348.6,187.3L347.3,185.4L344.5,186.3L343.9,186L343.1,185.1L340.9,184.5L338.3,184.5L332.3,181.1L331.7,180.5L326.9,181.1L319.9,182.8L314.5,184.9L308.9,188.6L306.6,191.5L304,193L300.3,194.1L293.6,193.6L286.7,192.2L279.3,190.7L275.3,191.6L269.8,190.9L261.6,189.1L255.5,188.5L249.5,189.6L248.5,188.8L248.2,187.9L248.5,186.5L249.4,185.4L250.8,184.6L251.6,183.8L251.6,183L250,181.6L246.7,179.7L245.2,178.6L245,178.3L244.8,177.2L244.2,176.4L242.8,175.8L241.8,174.7L241.1,173.1L241.3,171.6L242.3,170.2L243.6,169.6L245.2,169.8L245.9,169.4L245.6,168.4L244,167.2L241.2,165.6L238.3,166.4L235.3,169.7L233.2,170.2L231.9,168L229.6,166.7L226.2,166.3L224.2,165.5L223.5,164.3L222,163.3L218.8,162.3L218.7,161.3L219.3,161.1L220.4,161L221.9,160.8L222.2,160.2L222.2,159.7L221,159.1L219.8,158.6L219.1,158.2L218.7,157.7L218.6,157.2L219,156.8L219.5,156.8L220,156.5L220.2,155.3L220.9,154.4L221.3,154L221.3,153.3L220.8,152.7L220.2,152.1L219.2,151.7L216.1,150.7L214.6,149.3L213.7,149.3L212.1,148.5L210.5,147.2L209.1,145.5L207.6,144.3L207.2,143.9L207.2,143.5L207.4,143L207.4,142.4L207.1,140.7L207.3,138.9L207.2,137.2L207.2,136.4L206.9,136.2L206.6,136.4L206.3,136.8L205.9,136.8L204.8,135.6L203.4,133L202.5,132.2L200.6,131L199.1,130L197.9,127.9L196.7,126.2L197.5,125.6L202,124.6L204,125.6L205,125.2L205.9,124.4L206.4,123.8L206.5,123.1L206.9,122.3L208.5,121.9L212.5,122.4L214.1,121.3L214.7,120.7L215,119.3L215.4,118.2L216.9,117.6L216.9,116.6L216.6,115.5L217.5,113L218,112L218.8,111.6L219.8,110.9L221.5,109.2L221,107.8L221.4,106.8L223.2,104.2L224.5,101.8L224.5,100.5L224.7,99.41L225.9,98.26L227.1,96.7L228.8,91.86L229.4,91.06L230.5,90.15L231.3,89.24L231.3,86.05L232.1,85.14L233.6,84.07L235,82.4L236.2,80.47L237.1,79.5L238.3,79.3L239.6,78.48L241.1,78.23L242.5,78.59L243.4,78.38L244.7,77.42L248.1,73.8L248.6,73.08L249.4,72.57L252.2,71.34L252.9,70.06L253.8,68.94L255.1,69.04L259.1,71.8L263.5,71.65L264.3,71.75L264.5,71.8L265,72.06L270.9,73.44L271.7,73.28L272,73.13L274.3,74.31L276.3,74.15L278.3,73.34L280.4,73.08L282.2,73.54L283.6,75.17L287.3,78.54L288.4,79.81L290.1,79.66L291.9,78.99L293.8,76.75L299.7,74.15L304.1,73.54L308.4,72.47L313.4,71.75L314.8,69.65L315.7,68.17L316.3,65.5L319,64.73L321.5,64.22L322.4,63.86L324.3,63.76L325.7,63.96L328,65.3L329.5,66.94L330.2,68.27L331.5,70.11L332.9,72.72L334.5,76.19L334.8,77.92L335.4,79.81L336.6,82.09L338.8,84.63L339.1,85.14L340.1,86.91L342,90.85L343.6,92.42L345.1,94.13L345.7,95.84L346.8,97.4L349.1,99.46L351,101.3L352.6,106.7L353.6,109.2L354.4,111.1L354,114.8L354.4,116.5L353.6,119.5L351.9,125.4L351.6,130.1L351.9,132.6L351.9,134.3L352.3,135.3L352.7,137.5L352.8,139.3L352.2,139.9L351.4,140.3L351.1,140.7L351.8,141.5L352.8,143.1ZM261.8,-42L261.8,-41.99L261.7,-39.06L263,-35.87L263,-35.87L264,-33.67L264.5,-31.97L264,-30.66L264.2,-29.29L265.1,-27.86L268.1,-23.5L269.6,-19.3L270.5,-17.68L272.7,-15.56L272.8,-14.69L272,-13.93L271.3,-13.83L270.7,-13.61L270.4,-12.85L270.9,-12.04L271.7,-10.9L272.6,-7.611L272.6,-4.918L271.8,-4.218L270.9,-2.659L270.3,-1.209L265.1,-0.189L263.9,1.366L261.1,4.364L259.1,6.075L256.3,9.223L251.8,14.54L250.1,16.77L248.9,18.57L245.3,23.44L244.2,25.5L244.4,27.18L245.6,31.13L245.8,32.91L245.6,34.54L245.2,36.01L245.3,36.63L246.4,37.68L248.1,39.35L248.1,39.87L247.9,40.6L247.3,41.18L245.2,40.6L242.8,39.46L242,39.61L240.7,39.35L235.4,37.16L231.8,35.48L231.4,34.38L230.8,32.76L229.2,31.44L225.7,30.29L224.2,29.34L218.6,28.87L216.1,28.82L214.4,29.18L213.2,29.18L211.7,31.55L210.6,32.23L209.1,32.28L207.7,31.86L206.3,30.66L204.1,29.97L202.5,30.29L201.3,30.02L200.3,29.97L199.9,30.18L199.1,30.18L197.9,30.76L196.6,31.6L195.1,32.23L194.1,33.65L193.1,36.32L190.3,35.12L189.4,35.64L188.1,36.01L187.1,35.64L187.3,34.7L187.8,33.65L187.8,32.18L187.5,30.55L186.6,30.02L185.4,29.82L184.6,29.5L184.6,28.97L183.9,28.29L182.8,26.55L181.7,24.39L181,23.7L179.9,24.76L178.2,25.92L177.2,26.34L175.2,29.71L171.6,29.82L171.4,28.24L171,26.76L169,26.34L168.9,25.45L168.5,23.23L164.3,18.84L163.7,16.98L163.9,16.3L163.6,15.13L162.7,14.44L159.4,13.59L158.5,14.07L157.8,13.59L156.6,12.52L154.5,11.67L154.3,11.19L153.5,10.45L153.1,10.34L152.9,10.82L152.2,11.46L150.1,12.31L149.2,11.94L148.5,11.25L147.5,9.703L146.3,8.37L145.2,7.89L144.6,7.143L144.4,6.609L146.8,5.487L147.3,4.364L147,2.277L146.7,2.009L145.8,2.705L143.8,3.294L141.9,3.615L141,3.615L135.8,-0.189L132.4,-1.37L130.4,-1.692L130.2,-1.316L131.2,0.83L132.7,3.455L132.6,4.15L130.8,5.22L129.7,5.701L128.5,6.609L127.4,7.89L126.5,8.423L125.7,8.317L124.9,7.676L122.7,3.776L120,0.83L119.7,0.133L118.9,-0.028L117.7,-0.672L117.2,-1.638L117.9,-2.551L118.7,-3.465L120.2,-4.003L120.6,-4.487L120.9,-5.241L121.4,-6.264L121.2,-6.587L120.2,-7.719L118.7,-8.798L114.4,-7.989L113.3,-7.45L112.6,-8.151L112.1,-9.284L111,-9.446L109.6,-10.47L107.8,-11.45L106.1,-11.71L102.6,-13.12L101.2,-13.18L100.4,-13.66L99.58,-14.75L98.87,-15.88L98.51,-18.27L95.89,-19.3L93.26,-20.01L93.12,-19.63L93.19,-17.3L93.05,-15.99L91.35,-15.23L89.64,-15.13L89.79,-15.56L91.77,-19.8L92.7,-22.52L93.76,-27.48L92.48,-31.42L92.13,-33.23L91.56,-34.11L88.01,-36.03L87.73,-36.7L88.3,-39.34L88.01,-40.44L87.16,-41.6L86.96,-42L261.8,-42ZM322.4,63.86L322.9,62.83L326.9,60.1L328,60.51L330.1,60.67L334.4,60.57L336.6,58.71L337.9,59.23L339,58.4L340.7,57.37L341,57.63L341.2,57.78L344,58.25L346.1,59.23L347.5,60.72L348.9,61.7L350.4,62.06L351.2,62.78L351.4,63.96L352.7,64.53L355.4,64.47L356.5,65.25L356.1,66.78L356.3,67.25L357.3,66.73L358,67.19L358.3,68.32L358.8,68.83L360.1,67.09L361.5,67.25L364.9,68.02L366.7,71.65L367.8,72.98L368.8,73.49L370,72.93L371.2,72.26L371.8,72.57L373.2,74.97L373.5,78.13L373.5,79.4L373,81.54L372.3,83.82L371.7,85.29L372,86.51L372.5,87.47L373.3,87.82L375.9,89.79L376.9,91.21L378.3,92.22L379.4,92.27L380,92.87L380.2,93.58L380,95.34L379.4,97L379.5,98.06L380.4,99.31L380.5,100.8L380.6,101.7L381.1,102.5L383.5,104.1L386.6,105.6L387.4,107L387.9,108.7L387.8,111.5L387.6,114L391.6,117.3L391.2,117.9L390.5,118.6L386.6,119.1L385.9,119.4L384.2,116.9L383.2,116.5L382.5,117.5L381.5,118L380.3,117.7L379,116.9L378.3,116.4L377.8,116.3L377.1,116.9L376,116.6L375.4,116L374.4,118.2L373.7,118.6L373.4,118.5L373.3,115L373,114.4L372.2,114.3L370.3,115.1L368.5,116.3L367.9,117.2L368,119L368.2,121.2L369.5,124.3L368.8,125.7L368.3,127.9L366.4,129.9L364.2,131.1L364,133.5L362.8,135.1L360.7,136.8L359.3,138.8L359.7,140.1L359.8,141.4L359.5,142.3L359.5,143L358.9,143.3L355.7,143.5L354.9,143.9L353.8,144.8L352.8,143.1L351.8,141.5L351.1,140.7L351.4,140.3L352.2,139.9L352.8,139.3L352.7,137.5L352.3,135.3L351.9,134.3L351.9,132.6L351.6,130.1L351.9,125.4L353.6,119.5L354.4,116.5L354,114.8L354.4,111.1L353.6,109.2L352.6,106.7L351,101.3L349.1,99.46L346.8,97.4L345.7,95.84L345.1,94.13L343.6,92.42L342,90.85L340.1,86.91L339.1,85.14L338.8,84.63L336.6,82.09L335.4,79.81L334.8,77.92L334.5,76.19L332.9,72.72L331.5,70.11L330.2,68.27L329.5,66.94L328,65.3L325.7,63.96L324.3,63.76ZM84.89,394.9L84.18,395.7L82.34,395.7L80.64,394.4L80.64,391.9L82.55,392.4L84.32,394.1ZM79.85,390.6L78.72,391L77.51,390.3L77.23,389.8L78.86,389.4L79.71,389.8L80,390.4ZM222.7,232.4L223.9,232.5L226.2,231.9L227.7,230.9L228.5,230.8L229.5,230.4L230.9,230.5L232.4,230.9L234.2,230.4L236.1,229.5L236.9,229.7L237.6,230.5L238.1,230.6L241.2,234.6L242.8,236.2L244.8,237.4L247.1,238.3L247.9,239.2L249.3,243.4L250,244.9L250.9,245.4L251.1,245.9L251.2,246.5L250.1,249.4L249.7,256L249.4,256.5L248.3,256.5L246.8,256.6L246.2,257.1L245.7,260.6L243.3,261.6L241.1,262.2L239.3,262.1L236.1,261.3L235,261.2L234.1,261.6L231.3,261.9L230,262.5L227,266.6L224,268L223,268.7L220.7,267.8L219.6,267.7L218.1,268.7L214.6,268.9L213.7,269.1L211,269.2L210.8,268.7L210.3,267.8L209.1,267.4L206.6,267.8L205.9,267.2L204.9,263.7L204.1,263.1L203.2,261.9L201.6,258.2L201.5,256.5L201.7,255L200.8,251.7L201.3,250.8L202.1,250.2L202.1,248.9L201.9,246.8L202.9,242.6L203.1,242.4L203.4,242.5L205.6,242.9L206.2,242.4L206.6,241.5L206.7,238.5L207.3,237.1L212.8,234.4L214.4,234.3L215.7,235.6L216.7,236.4L217.3,236.3L217.5,235.5L218.2,234L219.3,233.1ZM-13.37,99.06L-14.94,98.91L-15.22,98.91L-15.36,97.91L-15.29,95.69L-14.44,92.87L-14.22,93.33L-14.15,93.93L-13.94,94.53L-13.87,95.34L-13.59,96.15L-13.02,96.9L-12.81,97.61L-13.09,98.51ZM15.35,482L17.91,480.4L21.6,478.4L24.51,476.8L25.15,475.4L25.08,474.2L23.52,471.4L23.52,468.2L23.66,465.5L23.8,463.9L24.51,459.4L24.51,458.8L27.56,460.3L30.61,460.9L39.84,466.4L42.68,467.1L49.13,467.7L56.72,465.5L59.56,465.1L64.6,467.2L66.8,467.8L70.49,467.9L76.8,469.9L78.36,470.6L82.05,473.6L83.83,474.5L96.88,477.3L98.66,479.2L100.1,482L15.35,482ZM193.9,482L194.4,481.3L199.3,476.4L204.2,472.9L212.9,468.3L217.9,468.3L220.1,467.8L224.2,464.5L225.9,464.4L228.2,465.2L235.1,465L238.1,465.9L241.7,467.9L246.2,469.2L249.4,470.4L252.8,472L253.6,476L253.3,477.2L253.2,478.7L256.7,481.5L261,482L193.9,482ZM42.96,241.7L42.96,241.5L42.75,241.5L42.75,241.6L42.75,241.7ZM43.88,187.8L44.45,186.4L44.24,185.4L42.96,185.6L42.11,186.9L42.68,188ZM-42,121.1L-39.98,119.6L-38.63,117.8L-37.21,116.6L-36.22,116.6L-35.94,117L-35.79,117.9L-35.94,121.3L-35.51,122.3L-33.38,124.8L-31.89,126.2L-28.41,127.1L-28.27,127.6L-29.2,129.4L-27.07,131.7L-26.71,133.2L-25.72,134.2L-24.37,133.7L-23.95,132.8L-24.44,131.4L-24.87,129.8L-24.8,128.9L-24.37,127.9L-23.45,126.4L-20.82,123.1L-19.9,121.2L-19.69,118.2L-19.69,115.8L-18.84,115.2L-16.99,115.6L-16.43,115.6L-16.14,117.1L-15.36,119.4L-14.44,120.6L-13.45,120.9L-12.24,120.9L-9.33,119.5L-7.414,118.9L-6.35,119L-5.711,120L-4.292,122.6L-3.512,122.8L-2.59,122.5L-2.235,122.1L-2.59,121.2L-2.944,119L-3.512,117.3L-4.222,116.6L-4.363,115.5L-3.938,113.8L-3.441,112.2L-2.448,111.8L-1.242,111.6L0.248,113.2L2.022,113.8L3.37,113.7L3.583,112.7L3.512,111.7L2.732,110.4L2.873,108.3L3.796,104.6L4.292,104.9L6.279,104.9L8.479,105.1L9.827,106.7L11.18,107.2L13.16,107.3L14.44,107.1L15.08,106.6L15.86,104.8L17.2,102.5L19.41,101.4L23.09,101.2L25.01,100.8L26.93,100.8L28.34,101.2L29.83,101.1L33.67,99.56L37.64,98.31L38.21,98.51L38.28,98.96L37.57,99.86L36.86,101.1L37.35,102.6L39.55,105.4L40.76,107.6L41.97,109.3L43.74,110.1L46.08,110.7L48.07,110.9L50.2,111.5L57.29,113L60.91,113.4L63.68,113.5L67.79,114.5L67.37,116.1L66.59,116.5L65.1,117.5L63.39,118.8L61.9,120.3L61.48,121.9L61.9,122.9L62.33,123.3L62.9,123L63.68,123.2L64.74,123.7L66.44,124.3L66.52,124.9L66.16,125.6L64.81,126.8L63.61,128.2L63.47,129.1L63.61,129.7L64.03,130.1L65.81,129.9L66.09,130.4L65.24,134L65.52,134.7L67.08,135.2L68.22,136.1L70.35,138.4L71.27,140.2L70.63,140.8L69.28,141.2L68.22,141L69.42,139.9L66.37,135.8L65.03,135.8L63.18,137.6L58.07,135.8L57.08,136.5L56.37,137.9L54.6,139.6L52.11,140.3L49.27,142.2L46.37,143.5L44.09,144.5L42.82,144.3L44.88,142.2L43.95,142.2L41.26,143.7L39.7,145L39.2,147.1L38.7,150.7L39.91,151.6L42.04,156.4L44.59,158.3L44.09,160.3L43.46,161.8L41.9,163.1L40.55,162.1L39.77,162.1L39.2,165.2L40.34,173.3L42.11,178.9L43.88,181.4L47.93,185.2L52.18,187.2L59.85,193.7L64.03,195.7L65.1,196.8L67.65,201.7L69.85,207.4L72.19,216.2L73.89,220.6L77.3,225.5L84.39,232.5L90.78,237.6L96.74,240.7L101.4,241.3L112.4,240.6L114.3,240.9L116.4,241.8L116.8,243.9L116.1,245.4L113.8,246.9L111.4,249L111.1,251.9L113.3,253.9L124,259.2L134.8,263.7L138.2,265.9L142.1,269.5L151.7,274.3L153.2,276.6L159,281.6L161.6,285.5L162.1,288.5L160.9,291.5L160.3,293.7L159.3,295.8L156.8,295L154.1,292.8L149.9,284L142.2,283.1L140.7,282.4L137.9,280.9L137.7,279.9L137,278.7L136.4,278.2L133.4,278L131.4,279.4L129,282.8L126.3,287.7L123.6,294.8L123.4,297.7L124.9,300.5L129.4,302L132.8,304.5L135.1,307.1L135.3,313.3L136.3,316.8L134.8,318.8L131.9,318.3L128,319.6L125.3,321.8L124.1,324L124.4,329.6L123.8,331.7L118.7,335.7L116,339.8L115.3,341.5L114.3,343.4L107.7,343.5L106.2,341.1L106.1,337.6L107.2,335.4L109.7,334.3L111.2,329.8L110.7,326.5L111.7,325.1L112.6,324.1L114.4,323.4L117,322.9L117.2,318.3L115.3,316.1L114.5,313.2L113.6,307.8L110.2,300.8L108.4,294.6L107.1,291.5L105,289.8L101.1,289.9L99.22,289.4L92.41,285.1L91.99,284.4L91.99,283.3L93.12,281.5L92.41,279.1L91.56,276.9L90.28,274.9L88.79,273.9L85.74,274.6L84.68,275L82.76,274.8L81.27,275.7L80.42,275.7L82.76,272.4L82.13,271.6L79.78,270.2L76.59,270L75.74,269.8L75.17,270.7L74.6,270.2L74.67,268.7L70.91,261.9L68.43,259.1L67.22,258.6L64.95,259.2L61.12,258L58.85,257.7L57.65,258L55.73,258.9L54.81,258.4L54.45,257.4L51.05,254.6L46.72,253L38.35,244L35.79,240.6L30.47,236.8L27.14,231.3L24.37,229.3L20.4,227.7L19.48,227.9L18.27,228.5L17.35,228.6L16.64,227.9L17.35,227.2L18.2,226.8L17.91,224.8L13.37,219.3L10.68,217.5L9.968,216.4L9.401,214.9L8.833,214L7.556,213.4L6.492,213.5L5.002,213.2L5.073,210.5L5.357,208.5L5.144,206.7L3.725,202.2L1.171,198.4L-0.248,189.1L-1.454,186.5L-4.222,184.5L-10.46,182.3L-19.12,176.3L-20.97,176.2L-26.22,173.9L-29.48,173.5L-33.67,175.6L-38.77,181.3L-42,185.9L-42,121.1ZM2.661,216.1L3.299,217.1L3.37,217.7L2.944,218.4L3.157,220L1.454,218.7L-1.029,219.3L-2.519,219.2L-2.944,218.1L-2.59,217.4L-0.248,217.2L0.532,216.9L1.951,217ZM72.47,273L71.62,273.2L71.13,272.9L70.84,272.5L71.2,271.5L72.97,272.1L72.9,272.6ZM35.3,372.8L34.38,373L33.1,372.2L33.03,371L33.24,370.6L34.8,371.2L35.23,372.3ZM104.8,336.4L103.4,339.3L102.8,340.4L98.02,347.3L97.52,348.9L97.17,350.7L96.67,352.2L96.03,353.6L95.39,355.4L95.46,357.5L95.75,358.5L96.31,359.2L97.24,359.8L97.95,360.7L96.81,361.6L98.09,363.4L99.08,364.4L99.22,365.4L99.22,366.4L97.09,368.4L96.24,369.4L95.68,370.8L95.46,372.1L95.68,373.3L95.61,374.5L93.48,374.3L91.21,373.6L89.01,373.9L85.81,372.5L84.68,372.3L83.61,371.8L80.92,367.5L78.79,365.6L76.52,364.2L74.18,364.1L71.84,364.3L69.78,363.4L65.59,360.5L61.12,358.2L59.21,356.6L58.36,355.6L57.36,354.9L54.81,354.2L52.47,352.6L51.47,352.6L49.2,352.7L48.07,352.6L46.93,352.1L44.66,350.2L43.24,347.6L42.89,346.5L43.88,343.5L45.09,340.6L46.15,339.8L47.36,339.3L48.14,338.4L48.78,337.4L51.05,340.3L52.11,341.1L53.11,340.9L54.95,339.9L55.09,338.7L57.15,337.2L59.7,337.2L60.91,337.4L61.55,338.8L62.54,339.2L63.68,339.4L67.44,341.9L68.5,342.3L69.57,342.4L72.47,341.3L74.67,340.9L79.36,341.5L81.91,340.9L83.69,340.8L86.24,339.8L88.23,338.2L89.29,337.8L90.36,337.6L93.05,337.7L95.75,338.1L96.88,337.7L97.8,336.6L98.94,336.2L100.1,336.5L103.3,334.6L104.6,334.6L105.9,335.2ZM-12.38,268.4L-11.39,270.1L-9.188,276.9L-8.975,278.3L-9.401,279.8L-9.968,280.9L-12.17,284.3L-11.81,287.1L-11.03,288.9L-10.89,290.8L-11.32,293.2L-12.66,307.8L-13.3,310.3L-13.73,312.5L-15.22,313.2L-17.2,312.5L-19.62,311.3L-20.75,311.3L-21.89,311.8L-22.81,311.4L-23.73,310.7L-24.37,315.7L-25.51,317.7L-27.14,319L-28.77,319.1L-30.4,318.6L-31.75,318.6L-32.81,317.7L-33.67,316L-34.94,313.9L-36.29,311.5L-36.43,309.4L-36.65,304.5L-36.29,303.5L-35.72,302.4L-35.44,300.3L-35.65,298.4L-35.23,297.7L-34.45,298.4L-33.88,298.1L-33.95,297.2L-33.74,295.4L-34.8,293.9L-36.5,293.4L-36.65,291.8L-36.5,290.2L-35.58,289.2L-35.3,287.9L-35.23,283.7L-36.5,282.1L-36.93,279.8L-37.57,278.3L-38.7,276.8L-39.98,275.6L-40.83,274.4L-40.97,271.3L-40.55,268.7L-40.12,267.6L-39.7,267.7L-38.42,269L-37.35,269.3L-35.3,269.6L-33.24,269.2L-30.76,268L-28.34,266.6L-24.87,262.4L-22.74,261.6L-21.6,260.4L-21.25,258.9L-20.33,258.6L-19.26,260L-17.91,260.2L-15.86,261.4L-15.01,262.5L-14.22,263.9L-13.52,264.5L-12.74,264.9L-12.59,265.2L-13.23,265.5L-13.94,267.1L-13.52,267.5ZM-35.09,315L-36.22,317.6L-37.43,315.8L-37.5,314.3L-37.28,313.8L-35.87,314.5ZM-38.92,264.3L-39.55,265.4L-40.48,265.4L-40.12,264.5L-39.27,262.7L-38.21,262.1L-37.78,262.6L-38.28,263.7ZM234,59.53L235.9,59.28L235.9,59.33L236.4,59.48L236.7,60.87L236.7,60.93L237.2,61.85L237.6,63.09L238.3,63.96L239.7,64.32L241.6,65.45L242.8,67.55L244.7,68.48L244.8,68.48L245.2,68.37L246.5,68.32L246.8,68.73L247.9,69.76L248.3,70.68L248.1,71.6L248.2,72.72L248.6,73.08L248.1,73.8L244.7,77.42L243.4,78.38L242.5,78.59L241.1,78.23L239.6,78.48L238.3,79.3L237.1,79.5L236.2,80.47L235,82.4L233.6,84.07L232.1,85.14L231.3,86.05L231.3,89.24L230.5,90.15L229.4,91.06L228.8,91.86L227.1,96.7L225.9,98.26L224.7,99.41L224.5,100.5L224.5,101.8L223.2,104.2L221.4,106.8L221,107.8L221.5,109.2L219.8,110.9L218.8,111.6L218,112L217.5,113L216.6,115.5L216.9,116.6L216.9,117.6L215.4,118.2L215,119.3L214.7,120.7L214.1,121.3L212.5,122.4L208.5,121.9L206.9,122.3L206.5,123.1L206.4,123.8L205.9,124.4L205,125.2L204,125.6L202,124.6L197.5,125.6L196.7,126.2L196.1,125.7L195.1,125.3L190.7,124.8L188.9,125.2L186.5,125L184.4,124.5L182.7,124.9L181.2,126.8L180.5,127.5L180,127.9L178.8,128.5L177.7,129.2L176.3,129.8L175.1,129.7L173.9,128.9L173.6,129.1L173.2,129.8L172.6,130.5L170.8,131.3L170.4,131.3L170.3,131.3L169,131.9L166.8,132.2L165.6,132L163.6,134.6L163.1,135.1L161.2,135.9L159.6,136.3L158.3,136L157.8,136L151.8,135.8L148.7,135.2L146.8,134.2L145.4,133.1L144.8,131.8L143.3,131L140.9,130.7L139,129.4L137.6,127.2L135.8,125.4L133.5,124L131.6,122.1L130.3,119.7L127.9,117.5L124.3,115.5L123.3,115.1L123.1,114.5L121.4,112L120.7,111.1L120.7,109.9L120.4,109.2L119.7,108.7L119.4,107L119.2,105.7L118.7,104.8L115,104.6L118.1,101.5L119.7,100.6L121.5,100.8L122.1,100.5L122.2,100.1L122.5,99.01L122.7,98.06L122.8,97.15L122.6,96.65L121.8,96.5L121.4,94.23L121.8,93.38L122.2,92.77L121.7,90.05L121.9,89.14L123.3,88.98L124.4,88.38L125.4,87.72L125.7,86.86L126.5,85.14L125.8,83.01L121.6,81.64L121.4,81.08L122.4,80.47L123.4,79.6L124,78.94L124.8,78.84L125.9,79.2L127.9,80.72L128.6,80.98L129.4,80.52L130.2,80.42L132.3,80.47L134.1,80.11L133.7,78.48L133.7,77.26L133.4,76.3L133.6,75.28L134.3,74.46L134.6,72.62L135.8,71.34L136.3,71.19L138.3,71.39L138.7,71.7L139.1,71.8L142.3,74.82L145.3,77.11L147.8,78.28L151.5,78.38L155.4,78.48L161.9,78.08L166.8,77.77L167.1,77.21L167.9,75.84L167.3,74.66L167.3,73.34L168.1,71.5L170.5,70.01L177.5,69.4L181.5,68.27L182,66.73L183.4,65.25L184.6,64.94L186.2,65.66L188.2,66.94L190,67.66L191,67.19L194.5,64.99L198.6,62.78L201.3,56.85L201.6,55.92L204.7,55.25L209.1,55.35L211.3,56.13L213,56.54L215.5,56.44L219.2,55.15L220.5,55.2L221.6,56.08L222.7,56.85L223.5,57.83L224.1,59.17L224.4,59.64L224.9,60.36L225.9,61.29L226.8,61.54L233.5,59.9ZM346.8,377.8L346.4,378.1L345.4,377L345.4,376.4L346.4,375.8L346.9,375.6L347.1,376.1L347.1,377ZM204,332.3L204.3,335.2L205.6,335.8L207.5,338.4L207.4,339.7L206.9,340.2L203.9,338.9L203.2,339.5L202.2,339.3L201.7,337.8L201.8,337.3L201.3,336.5L200.9,336.1L199.7,337.2L198.9,337.4L198.9,336.4L200,333.5L200.5,333L201.5,334L202.2,333.6L202.7,332.1L202.8,330.5L203,330ZM209.5,346.8L211.5,349.2L209.9,348.6L208.1,350.3L205.9,348.4L204.4,346.4L204.2,345.6L205.6,343.7L206.9,345.6L208.5,345.9ZM205.5,326.6L204.7,326.9L204.1,326.7L203.4,326.8L202.9,327.3L203,325.3L203.7,322.8L204.4,321.4L205.6,320.7L206.1,321.9L206.1,325.9ZM206.9,333.7L205.9,333.9L204.7,331.5L204.2,329.9L204.7,329.8L205.2,330L205.8,330.6L205.8,331.3L206,331.9L206.5,332.8ZM193.5,305.8L193.9,307.2L191.5,306.3L189.7,305L188.2,301.9L185,298.3L185,297.2L186.2,296.4L188.8,295.9L189.8,296.4L190.5,297L190.7,297.7L189.3,299.1L188.9,299.7L190,301L190,301.5L190.5,303.9L191.1,304.8L192.5,305.5ZM259.3,317.8L260.4,320.5L261.4,321.5L263.6,322.6L264.7,322.7L268.4,324.7L272.8,325.1L273.3,325.6L273.8,327.2L274.8,328.4L275,329.3L274.5,330.3L275.1,333.5L276.2,336.4L277.9,337.9L279.9,338.3L281.9,338.3L282.4,338.9L282.2,341.4L281.4,342.5L280.7,342.7L280.1,342.4L279.6,341.8L279,341.5L277.9,341.5L277,340.4L275,339L274.6,338.2L274.5,336.8L273.6,335.9L272.8,334L272.1,333.5L271.6,332.5L271.6,332.2L268.5,331.9L266,331.9L263.9,330.8L263.3,328.1L262,327.3L261.1,326.6L260.3,325.5L258.2,323.5L256,321.8L253.9,320.7L251.6,320L249.8,320.8L248.7,320.6L248.5,320.1L250.8,318.9L254,316.7L256.2,316L257.2,315.9ZM266.5,313.9L265.6,314.7L264.2,314.3L262.8,311.5ZM268.6,312.8L267.7,313.1L268.6,311L270.2,310L269.6,311.7ZM284.1,321.6L282,322.2L281.4,322.1L281.9,321.3L281.9,321L279.9,319.6L280.1,317.7L280.4,317.2L281.9,318.2L282.3,319.8ZM286,275.3L283.6,276.2L280.9,274.5L281,273.4L282.3,271.3L283.1,270.7L285,270.9L286,272.3L286.3,273L286,274.2ZM261.9,343.8L261.1,344.4L260.3,344.4L259.6,344.2L259.4,343.7L259.7,343.4L260.2,342.4L260.6,342.2L261.3,342.3L261.6,342.7ZM252.1,386.7L251.9,387.7L249.9,387L249.4,385.9L249.2,383.5L249.8,382.3L250.1,381.9L251.1,383.3L253,385.3ZM333.4,404.3L332.6,405.6L331.9,404.5L332.2,403.2L331.3,401.1L333,398L333,396.5L334.3,395.7L334,398.3L333,400.3L334,402L334.5,403.9ZM330.3,367.8L328.3,368.2L328.7,366.2L327.8,364.6L329.2,365.5L330.2,366.5L330.7,366.7L330.6,367.4ZM328.9,373.5L328.3,373.5L329,372.3L331.1,370.7L334.1,369.3L335.1,369.1L336.8,370L333.7,371.5L332.9,372.3L330.6,372.4ZM301.3,367.6L299.5,368.5L298.3,367.2L297.6,365L300.9,361.9L301.6,362.2L302.1,363L302,365.8ZM296,365.1L294.4,367L293.1,366.8L292.6,365.9L293.4,364.1L295.1,363.1L295.9,363.4L295.8,364.7ZM300,381.7L299.1,383L297.8,382.5L298.3,382.1L298.7,381.4L298.7,380.5L298.3,379.9L298.5,379.7L299.7,380.7ZM298,374.8L297.7,375.2L296.2,373.6L295.6,372.7L296.3,372L298.5,373.8ZM326.5,346.7L328.9,347.5L329.5,347.4L330.7,347.7L331,349.2L329.5,349.4L326.8,350.8L325.8,350.5L324.4,349.3L322.3,349.2L321.7,348.8L322.8,347.4L324.8,346.7ZM310.8,353.7L309.9,353.8L310.2,352.8L311.9,351L314.3,351L316.6,350.1L317.1,350.1L316,351.4L314.3,352.7ZM307.5,372L305.7,372.1L305.1,372L306.2,371.5L307,371.1L307.3,370.6L309.1,369.6L310.2,368.3L311.5,369.2L309.9,369.7ZM319.3,377L317.7,377.6L316.8,378.8L315.6,377.9L315.6,376.7L316.8,377.1L317.7,376.4L317.5,375.7L318.5,376.1ZM277.8,352.5L276.5,353.7L276.2,351.9L277.1,350L278.2,349.9L278.7,350.7ZM279.4,358.3L278.2,359L278.7,357.3L278.1,356.4L278.6,355.7L279.3,355L279.6,355.7L280.3,356.7ZM281.4,372.6L281.4,374.1L281.3,374.6L277.2,375.3L277.6,373.6L277.8,373.1L279.2,373.8L279.6,373.5L279.9,373ZM289.4,354.6L289.3,357.2L288.7,357.1L288.4,356.7L288.4,355.7L288.7,354.2ZM290.4,347.9L289.7,349.6L288.2,347.7L286.5,346.3L285.9,345.2L284.9,344.5L284.6,342.9L285.8,342.3L286.4,342.2L287.7,344.1L289.7,344.3L289.5,345.5L290.1,347ZM295.5,351.9L294.8,353.5L293.6,353.3L291.5,351.6L290.8,350.8L290.4,350L291.3,349.9L292.3,350.7L294.9,351.2ZM285,368.7L284.6,368.8L284.1,367.8L284,366.8L284.2,366.3L284.9,366.2L285.8,368ZM312.1,336.5L310.2,337.9L308.1,335.9L307.7,335.2L309.2,334.4L310,333.1L309.4,331.5L307.2,329.2L307.2,327.5L310.4,326.8L312.4,328.3L313.4,328.4L313,329.7L313.1,330.2L313.3,334.4L312.4,334.9L312.2,336.1ZM318.3,308.4L318,309.9L320.7,312.4L321.6,314L321.9,315.5L321.7,316L320.7,315.1L319.8,314.9L320.1,316L321,316.9L319.5,317.5L317.9,317.4L313.4,316.1L312.4,314.7L315.1,312.6L315.6,311.7L313.7,311.8L311.6,314.3L308.4,313.2L307.4,312.2L307.1,311.7L308.5,309.4L310.7,309.5L311.9,309L313.4,308.3L313.5,307.3L317,307ZM304,280.2L301.8,280.9L299.3,278.8L301.7,277.9L302.8,278.5L303.6,279.3ZM299.1,291.7L298.4,292.5L297.8,294L297.5,296.1L296.4,296.2L295.7,295.8L295.5,295L295.4,293.9L294.9,294L294.5,295.1L294.1,295.6L293,295.7L291.7,295L291.8,293.5L291.5,291.9L291.6,291.2L295.1,291.1L296.1,292.3L297.4,291.6L297.9,290.8L299.4,290.3ZM298.5,356.4L296.5,356.6L296.7,354.7L297.4,354.2L299.6,355.1L299.5,355.7ZM281.1,363.7L280.4,364.1L279.2,363.5L279.5,362.2L280.3,361.6L281.2,362L281.4,362.6ZM346.6,393L345.1,393.5L344.6,393.5L344,392.4L344.9,389.6L344.1,387.9L344,387.1L345.2,386.1L346,384.6L347.9,382.9L353,380.9L354.2,380.7L354.1,382.3L352.4,386.2L351,388.1L351.4,389.7L349,390.2ZM267.9,402.6L269.2,402.8L271.1,402.7L271.5,402.6L272.6,401.2L274,401.1L274.7,402.6L273.3,403.2L272.9,403.6L273.2,403.9L274.3,404.4L275.8,404.2L275.9,405.3L276.2,406.2L277,406.8L277.7,406.8L279.6,406.7L281.4,406.3L283.1,405.6L285,405.3L290.6,405.6L292.6,407.1L296.3,407.3L299.9,408.1L301.7,407.6L304.9,407.1L305.4,407.6L305,411.1L305.2,412.1L306.1,412.5L307,412.3L308.1,411.2L310.7,410.3L313.5,410.3L315.8,408.1L316.5,407.9L316.1,409L315.8,411.7L315.3,413.2L315.1,414.4L313.5,415.1L311.2,415.2L306.8,414.9L302.6,415.3L294.5,416.5L286.5,417.1L285.5,416.7L285.5,415.2L285.3,414.1L284.8,413.4L282.3,412.8L279.9,411.7L270.7,410.2L268.5,409.6L265,409.9L263.7,409.9L262.8,409.3L262.1,408.4L261.8,405.5L262.3,402.6L263,401.8L263.4,402.7L264.3,403.1L265.2,402.2L265.2,400.9L265.6,399.7L266.2,400.2L266.7,402.1ZM316.5,246.5L318.3,247L319.3,247.9L319.9,248.7L320.9,249.4L321.7,249.6L322.2,251.9L322.5,254.8L322.1,256L320.8,256.3L316.8,259L316.6,261.5L316.7,262.8L316.8,263.6L317.2,264.4L317.2,265.4L316.8,266.5L315,268.3L313.7,269.8L312.4,271.8L311.6,272.1L310.9,272.4L310.4,271.3L307.4,269.4L300.3,268.3L296.9,266.8L295.4,267.1L292.6,265.4L290.6,266.2L286.4,269L284.2,268.7L281.8,267L280.2,266.7L278.4,267.6L275.4,270.9L272.4,272.5L269.7,271.9L266.1,271.9L265.7,273.7L266.5,275L268.4,277.1L267.4,278.8L268.2,280.4L269.4,280.7L271.4,280.7L275,282.8L276.5,285L277.5,287.4L275.4,285.7L273.9,284L271.9,283.4L269.1,282L267.3,281.7L265.5,282.7L265.2,283.8L267.3,285.9L269.1,287.2L270.1,288.3L270.8,290.6L270.4,291.4L269.7,292.1L267.5,290.6L264.2,285.5L259.5,284.4L258.7,285.5L259.6,288.2L260.3,289.3L264.4,292.3L264,292.9L263.5,293.2L258.9,291.5L257.5,288.9L257.2,285.6L253,283.4L249.1,280.9L248.1,278.5L249,277.7L249.6,276L247.4,276.3L246,277.4L243.7,278.4L243.7,280.2L244,281.8L243.3,284.1L242.6,288.1L243,290.3L247.9,296.4L249.5,300.8L250.6,302.4L253.1,304.3L255.7,307.6L256.7,309.4L257.5,312.3L255.4,314.1L254.1,314.2L253.5,313.4L254.4,311.4L254.2,310.2L250.9,308.3L249.5,309L247.9,310.2L248.9,312.4L249.8,313.9L250.4,316L252.4,315.8L249.7,318.1L247.2,319.3L244.7,319.3L243.1,319.5L242.6,320.1L243.9,320.5L245,320.6L246.7,321.8L251.5,323.3L253.8,325.2L256.1,325.3L258.4,328.7L262.3,329.7L264.5,333.1L267.6,333.8L270.1,335.1L270.9,336.3L271.3,338.4L271.4,343.1L272,346.5L272,347.6L271.8,349.2L271.2,350L270.2,350L268.4,347.5L265.5,344.9L262.6,341.7L261.7,341.1L261,341.1L259.4,342.2L254.9,343L252.8,344.1L252.1,344.4L251.8,345L252.8,345.6L254,347.1L254,349L255,351.4L256.2,352L257.9,352L258.9,352.4L259.1,353.4L260.1,354.5L260.8,355.3L260.7,355.9L256,357.5L255.1,358.2L254.2,358.5L253,357.8L253,355.9L251.4,354.9L249.9,354L248.1,353.6L246.7,352.3L245.7,353.4L246.4,357L248.1,359.6L251,366.4L252.3,370.4L252.5,372.3L251.9,375.5L253.3,377.9L254.2,380.4L253.2,380.3L252.3,379.4L250.8,378.4L247.8,374.5L246.7,372L245.5,371.9L243.4,372.2L241,377.4L241.1,380.4L239.8,379.7L238.8,378.7L238.9,375.5L238.8,374.1L235.9,369.7L234.6,369.2L234,367.7L233,366.1L231.6,366.4L230.5,367L230.2,369.4L230.1,371.6L229.3,373.2L226.2,370.2L223.2,364.8L223.1,361.9L225.3,359.1L225,357.2L222.9,353.4L219.8,350.9L218.1,350.2L217.4,347.6L215.7,346.2L214.4,345.6L214.1,344.6L214.5,343.9L217.7,341.3L219.6,337L220.5,336.8L222.5,337.8L224.7,337.6L226.4,335.1L227.9,333.7L230.5,333.9L236.2,337.2L242.3,339.1L245.4,340.8L247.2,342.4L248.1,342.8L249.5,343L249.4,341.8L249,340.7L250.2,340.1L253.5,340.1L254.1,339.5L254.7,338.6L254,337.6L252.9,337L251.8,336.9L251,336.6L249.8,336.9L247.8,336.1L246.8,335.4L246.2,334.7L242.9,333.3L239.7,330.9L239,332.3L237.6,333L235.9,333.1L230.7,331.6L227.5,332.8L225.8,333L224.4,333.1L222.8,333.6L221,333.9L219.3,331.7L218.7,330L218.2,329.7L218.1,331.3L217.6,332.6L215.3,333.3L213.9,332.3L212.8,329.3L211.5,325.5L209.2,322.4L207.3,321.6L207.1,319.9L207.3,318.6L209.6,318.3L213.1,319.7L213.9,319.4L214.7,318.7L214.5,317.3L214,316L213,315.9L212.3,316.1L210.1,315.8L207.4,316.5L206,315.9L205.6,315L203.2,313L201.2,310.3L197.9,308.5L195.7,302.9L193.9,300.4L192,298.7L192.4,298.7L193.2,298.9L194.5,299.9L196,300.1L196.9,299.5L197.3,298.9L197.6,298L197.8,296.8L198,296.4L199.1,296.6L199.5,296.3L199.5,295.3L198.8,294L198.1,292.5L198.1,291.8L198.6,291.4L199.5,290.8L200,289.9L201,289.5L202.3,289.4L203.9,289.1L204.9,288.2L205.1,287.3L205.7,284.9L206.1,283.7L206.8,282.6L207.1,281.1L207.8,279.7L209.3,279.1L210.7,278.4L211.7,276.6L212.2,275.1L212.2,274.2L211.4,272.6L210.8,271.1L211,269.2L213.7,269.1L214.6,268.9L218.1,268.7L219.6,267.7L220.7,267.8L223,268.7L224,268L227,266.6L230,262.5L231.3,261.9L234.1,261.6L235,261.2L236.1,261.3L239.3,262.1L241.1,262.2L243.3,261.6L245.7,260.6L246.2,257.1L246.8,256.6L248.3,256.5L249.4,256.5L251.6,256.8L254.2,256.9L255.8,255.2L258.4,255.1L259.6,254.8L261.6,255.2L263.6,255.2L266.1,254.5L268.4,253.3L270.3,253.4L271,253.3L271.4,253L271.9,251.5L275.3,251.4L276.5,251.5L278.4,251.6L280.4,250.7L281,250.8L282,253.1L282.6,253.7L283.6,254.3L286,256L286.5,255.5L287.5,255L290.4,255.8L293.1,257L295.5,258.9L298,258.4L300.9,257.4L302.8,257.2L304.8,257L306,256.7L308.7,257.1L311.5,256.1L312.9,255.2L313.3,253.9L313.1,251.6L312.4,249.4L311.7,248.5L311.5,247.6L311.9,246.8L312.3,246.3L314.1,245.7ZM-42,45.48L-41.75,45.19L-41.9,42.59L-42,42.55L-42,-42L86.96,-42L87.16,-41.6L88.01,-40.44L88.3,-39.34L87.73,-36.7L88.01,-36.03L91.56,-34.11L92.13,-33.23L92.48,-31.42L93.76,-27.48L92.7,-22.52L91.77,-19.8L89.79,-15.56L89.64,-15.13L89.43,-14.64L88.79,-13.88L87.94,-13.77L86.67,-14.31L85.81,-15.02L86.03,-16.86L85.46,-17.02L84.75,-18.11L84.47,-19.36L83.69,-19.85L80.92,-20.39L80,-20.72L79.29,-20.45L78.72,-19.63L79.07,-18.82L79.64,-18.06L81.13,-16.86L80.99,-16.37L77.66,-15.23L75.6,-13.99L73.68,-13.34L71.69,-12.09L67.79,-10.69L64.95,-10.31L64.39,-9.986L63.32,-7.611L62.61,-7.126L61.9,-7.342L61.41,-7.773L60.7,-7.45L60.06,-6.641L59.28,-6.318L58.71,-6.372L57.58,-4.272L54.31,-3.68L53.96,-2.605L53.32,-1.37L52.89,-1.101L51.4,-1.585L49.35,-1.853L48.21,-1.155L46.79,-0.779L45.09,-0.672L43.24,0.669L41.33,3.026L40.34,5.113L39.77,5.861L38.84,3.936L37.71,2.545L36.93,1.848L36.22,1.848L36.08,2.17L36.08,3.187L36.79,4.899L37.71,6.021L37.85,6.876L38.42,8.423L39.77,10.13L41.9,11.46L43.31,12.79L44.38,14.65L44.38,15.18L44.09,15.92L43.6,16.61L43.17,17.57L41.97,19.42L42.32,20.22L43.31,21.22L44.17,22.44L45.23,24.39L46.72,27.87L47.71,29.29L49.06,30.76L50.34,31.86L52.33,31.81L54.45,33.96L56.8,37L58.5,38.41L59.7,38.83L60.7,39.98L61.55,41.54L61.9,42.48L62.68,43.11L64.81,43L67.51,45.5L69.14,47.32L70.06,48.78L69.85,49.35L69.71,51.16L69.71,53.13L69.5,54.11L68.29,55.46L67.65,55.77L67.3,56.03L63.61,54.27L63.32,54.58L63.04,54.79L62.05,59.9L61.41,60.82L60.34,61.75L58.21,62.62L56.8,62.98L55.59,63.4L51.97,65.5L50.34,66.78L49.27,68.37L49.27,69.3L51.05,71.96L53.11,74.77L53.11,77.16L52.18,78.99L51.97,79.71L52.61,79.96L53.74,80.06L54.67,80.37L55.09,81.64L54.95,83.87L54.6,85.95L54.31,86.81L53.39,86.91L51.62,86L50.27,84.94L49.7,84.33L49.7,83.57L49.98,83.06L49.49,82.09L47.78,81.23L46.01,81.64L44.66,82.2L43.81,82.2L42.89,81.33L41.47,80.67L39.55,80.27L38.42,79.81L38.14,80.06L38.28,81.89L37.92,82.7L28.7,83.77L25.86,84.73L23.88,86L22.31,86.56L21.96,87.37L20.47,88.38L18.77,88.68L18.34,88.38L17.28,88.83L15.43,89.29L14.22,89.14L13.66,88.33L12.52,87.06L12.03,86.15L12.1,85.59L9.472,85.49L7.84,84.78L4.363,84.99L3.512,84.68L3.37,84.99L2.803,88.58L2.164,90.1L1.029,91.61L-0.39,92.47L-1.525,92.62L-1.454,91.51L-1.171,90.15L-2.022,89.84L-3.228,89.69L-3.796,89.29L-3.654,88.28L-3.938,87.67L-4.434,86.96L-5.711,86.05L-8.266,84.68L-10.04,83.97L-10.75,84.68L-12.03,85.44L-14.01,85.19L-14.51,85.49L-14.51,85.49L-17.91,83.31L-21.25,81.18L-22.31,81.18L-27.21,81.64L-27.35,81.43L-28.13,80.22L-28.91,79.86L-29.34,80.06L-29.69,80.42L-30.19,80.32L-32.39,78.38L-33.24,78.13L-34.52,78.38L-35.94,79.4L-36.58,80.67L-36.43,81.43L-35.65,81.74L-33.67,81.54L-33.38,81.74L-33.31,82.14L-33.52,82.55L-35.16,82.91L-35.58,83.36L-36.08,83.52L-36.36,83.57L-38.06,83.06L-40.62,83.06L-42,83.67L-42,45.48ZM-15.36,217.5L-15.86,221.4L-15.5,222.6L-14.79,223.4L-14.44,224.3L-13.87,234.7L-14.01,235.5L-16.43,239.7L-16.92,240.9L-17.06,246.1L-17.49,247.5L-18.34,248.9L-19.83,253.3L-21.18,255.2L-24.8,252.8L-26.93,251.8L-27.92,250.6L-28.63,249.9L-28.2,248.8L-27.21,247.8L-27.07,246.9L-29.34,245.9L-30.4,245.3L-30.4,244.2L-29.62,242.4L-29.98,241L-31.25,241.1L-32.32,240.8L-32.39,240.1L-31.68,239.1L-30.69,237.8L-30.76,236.5L-31.89,235.9L-32.96,234.7L-33.38,233.2L-32.53,232.1L-31.25,231.4L-32.18,229.9L-32.88,229.8L-33.38,229.5L-32.96,228.7L-31.96,227.6L-30.47,224.3L-28.49,222.8L-24.94,221.8L-23.95,221.4L-23.09,220.2L-22.1,219.5L-20.97,219.5L-19.83,220L-19.19,220.5L-18.62,220L-18.2,218.5L-18.48,217.3L-18.34,213.8L-17.7,211.8L-16.64,211.7L-15.71,212.8L-15.79,213.7L-15.43,216ZM-42,42.55L-41.9,42.59L-41.75,45.19L-42,45.48L-42,42.55ZM169,26.34L168.5,26.39L167.3,26.87L165.8,27.03L164.3,26.97L163.1,27.76L161.9,29.08L160.7,29.97L160.1,30.81L159.7,31.65L155.7,34.02L155.1,35.01L154.7,36.37L154.5,38.2L154.2,39.82L153.6,40.71L151.4,41.44L150.8,41.8L150.4,42.64L149.2,43.94L147.8,45.14L145.1,46.54L142.4,46.96L138.7,46.49L136.5,45.97L135.5,46.54L134.1,48.36L132.6,51.47L131.9,53.8L131.4,53.13L130.5,50.64L129.5,50.33L128.2,50.13L127.2,49.76L125,48.31L123.8,47.89L122.6,47.79L121.3,48.62L120.4,49.61L117.5,49.61L114.3,49.14L109.7,45.87L108.5,45.81L107.2,45.97L105.3,45.19L101.4,43.06L99.51,42.59L98.37,42.85L97.38,43.32L96.6,43.42L96.17,42.69L94.75,41.86L93.26,41.75L92.84,42.27L92.41,46.96L91.92,48.62L89.93,48.57L89.22,49.35L87.66,51.63L87.3,53.75L84.61,53.34L83.33,52.98L82.2,53.29L80.92,54.48L77.44,54.37L74.67,53.7L73.47,51.01L72.19,49.92L70.63,48.98L70.06,48.78L69.14,47.32L67.51,45.5L64.81,43L62.68,43.11L61.9,42.48L61.55,41.54L60.7,39.98L59.7,38.83L58.5,38.41L56.8,37L54.45,33.96L52.33,31.81L50.34,31.86L49.06,30.76L47.71,29.29L46.72,27.87L45.23,24.39L44.17,22.44L43.31,21.22L42.32,20.22L41.97,19.42L43.17,17.57L43.6,16.61L44.09,15.92L44.38,15.18L44.38,14.65L43.31,12.79L41.9,11.46L39.77,10.13L38.42,8.423L37.85,6.876L37.71,6.021L36.79,4.899L36.08,3.187L36.08,2.17L36.22,1.848L36.93,1.848L37.71,2.545L38.84,3.936L39.77,5.861L40.34,5.113L41.33,3.026L43.24,0.669L45.09,-0.672L46.79,-0.779L48.21,-1.155L49.35,-1.853L51.4,-1.585L52.89,-1.101L53.32,-1.37L53.96,-2.605L54.31,-3.68L57.58,-4.272L58.71,-6.372L59.28,-6.318L60.06,-6.641L60.7,-7.45L61.41,-7.773L61.9,-7.342L62.61,-7.126L63.32,-7.611L64.39,-9.986L64.95,-10.31L67.79,-10.69L71.69,-12.09L73.68,-13.34L75.6,-13.99L77.66,-15.23L80.99,-16.37L81.13,-16.86L79.64,-18.06L79.07,-18.82L78.72,-19.63L79.29,-20.45L80,-20.72L80.92,-20.39L83.69,-19.85L84.47,-19.36L84.75,-18.11L85.46,-17.02L86.03,-16.86L85.81,-15.02L86.67,-14.31L87.94,-13.77L88.79,-13.88L89.43,-14.64L89.64,-15.13L91.35,-15.23L93.05,-15.99L93.19,-17.3L93.12,-19.63L93.26,-20.01L95.89,-19.3L98.51,-18.27L98.87,-15.88L99.58,-14.75L100.4,-13.66L101.2,-13.18L102.6,-13.12L106.1,-11.71L107.8,-11.45L109.6,-10.47L111,-9.446L112.1,-9.284L112.6,-8.151L113.3,-7.45L114.4,-7.989L118.7,-8.798L120.2,-7.719L121.2,-6.587L121.4,-6.264L120.9,-5.241L120.6,-4.487L120.2,-4.003L118.7,-3.465L117.9,-2.551L117.2,-1.638L117.7,-0.672L118.9,-0.028L119.7,0.133L120,0.83L122.7,3.776L124.9,7.676L125.7,8.317L126.5,8.423L127.4,7.89L128.5,6.609L129.7,5.701L130.8,5.22L132.6,4.15L132.7,3.455L131.2,0.83L130.2,-1.316L130.4,-1.692L132.4,-1.37L135.8,-0.189L141,3.615L141.9,3.615L143.8,3.294L145.8,2.705L146.7,2.009L147,2.277L147.3,4.364L146.8,5.487L144.4,6.609L144.6,7.143L145.2,7.89L146.3,8.37L147.5,9.703L148.5,11.25L149.2,11.94L150.1,12.31L152.2,11.46L152.9,10.82L153.1,10.34L153.5,10.45L154.3,11.19L154.5,11.67L156.6,12.52L157.8,13.59L158.5,14.07L159.4,13.59L162.7,14.44L163.6,15.13L163.9,16.3L163.7,16.98L164.3,18.84L168.5,23.23L168.9,25.45ZM65.38,143L66.09,144.1L71.34,145.5L72.4,144.9L73.11,144L73.11,143.4L73.54,143.2L75.38,144.1L76.87,143.9L79.29,143.8L80.99,144L82.13,143.3L83.69,140.8L84.25,139.4L84.89,139L85.39,139.2L85.67,140.3L86.52,141.5L88.16,143.2L89.36,144.1L90.43,144.4L91.42,143.7L92.55,143.5L95.61,144.8L98.16,145.1L100.1,144.4L99.86,143.4L99.15,142.3L99.01,141.2L99.15,140.3L100.4,139.4L100.4,139L98.8,137.3L98.87,136.9L102.3,135.1L105.8,134L106.2,133.2L106.6,132.1L106.7,129.8L106.5,128L105.2,126.2L105.1,125.4L105.4,124.5L106,123.6L107.3,123.3L108.9,122.7L110.2,122L111.8,121.4L113.1,120.7L114.4,118.8L115.2,118.5L117.6,118.7L118.1,118.3L117.8,115.5L118.2,114.8L119.1,114.5L119.4,114.1L121.6,114.4L123.3,115.1L124.3,115.5L127.9,117.5L130.3,119.7L131.6,122.1L133.5,124L135.8,125.4L137.6,127.2L139,129.4L140.9,130.7L143.3,131L144.8,131.8L145.4,133.1L146.8,134.2L148.7,135.2L151.8,135.8L157.8,136L158.3,136L159.6,136.3L161.2,135.9L163.1,135.1L163.6,134.6L165.6,132L166.8,132.2L169,131.9L170.3,131.3L170.4,131.3L170.3,132L170.2,133.1L169.1,134L170.2,135.9L171.2,139.1L170.6,140.6L171.3,141.8L173.4,142.7L173.5,143L172.9,143.4L172.4,144.4L172.4,146.3L174.1,148.1L177.6,149.7L178.8,149.9L179.2,150.6L179.8,151L180.1,151.5L180.2,152.2L179.9,152.6L178.2,152.8L176.3,152.8L174.9,152L174.9,152.6L174.8,153.2L173.5,153.6L174.2,158.2L173.9,159.5L173.4,159.9L173,159.7L172.4,159.7L172.2,160.1L172.4,161.1L171.1,161.2L169,160.7L168,159.8L167.9,158.9L167.9,158.1L167.3,156.7L165.6,155.3L162.2,155L160.9,154.6L159.6,154.1L158.2,153.7L156.8,153.7L155.3,154.1L152.4,153.5L151.5,154.3L150.1,155.3L148.8,155.3L146.4,153.1L145.7,152.9L143.6,154L142.7,154.1L142.1,153.7L139.2,152.9L138,152.7L137,153.1L135.3,152.7L131.2,149.7L128.7,151.9L123.6,151.4L122.1,152.9L120.3,155.8L118.9,157.2L117.7,156.7L116.3,155.4L113.7,152.2L112.4,151.6L110.9,151.4L109.7,151.8L108.9,152.5L108.4,157.2L108,161.4L108,164L110.8,166.3L114.1,170.3L115.2,170.8L115.7,172.1L116.5,175.4L117.3,179.2L119,181.7L120.6,183.4L122.4,185L124.8,187.5L126.7,190.1L127.2,191.1L130.9,194.7L134.5,198.3L137.7,199.5L138.2,200.2L138.2,203L138.6,204L140.7,206.9L145.1,211.1L145.6,212.1L145.8,212.8L145.5,213.3L144.3,213.9L143.4,213.3L139.3,209.2L135.4,206.5L130.9,201.7L125,199.7L120.9,197.6L118.5,197.9L115.7,198.5L114.1,198.6L112.8,198.2L112,196.8L112.1,195.8L112,194.5L109.6,192.3L106.3,190.2L103.3,187.6L97.09,180.4L95.82,178L97.02,177.6L97.95,177.6L99.01,177.1L100.7,177.1L102.7,177.6L100.9,176.1L98.73,174.6L93.05,168.5L91.35,165.6L91.14,162.5L91.56,158.2L90.57,155.2L86.17,151.2L84.54,149.1L81.34,147.9L79.85,148L79,149.6L78.36,153L75.53,157.5L74.53,159.5L73.04,162L71.77,162.2L70.98,162L68.64,157.7L66.37,154.4L66.09,152.9L65.88,151L64.17,144ZM126,212.4L129.6,213.1L132.3,212.7L134.7,213.2L136.2,214.1L136.5,214.5L134.6,214.6L132.4,214.2L129.9,215.1L127.7,214.6L126.8,214L126.3,213.3ZM136.7,208.8L135.3,209.1L126.5,208.9L124,208.4L121.1,206.9L120.5,206.5L123.4,206.1L126,206.5L126.9,207.5L134.1,208.4ZM128.6,204.9L125.5,205L122.8,204.5L121.4,203.7L121.6,203L122,201.8L125,201.9L129.6,202.8L130.7,203.8L130.4,204.2ZM97.95,183.4L98.3,184.3L95.82,182.5L94.9,181.3L94.68,180.8ZM89.64,158.1L87.23,158.7L86.1,157.6L85.81,156.7L83.76,156.4L82.55,155.2L82.34,154.7L84.04,153.3L84.96,151.2L86.1,152.5L87.52,154.9L88.3,155.6ZM90.07,164.2L90.57,165.4L88.72,164.3L87.09,163.8L86.74,163L86.95,162.3L87.3,161.7L88.58,161.8L88.79,162.4ZM97.09,175.8L96.6,176.6L95.32,175.2L94.19,174.3L93.33,173.2L91.7,171.7L91.14,170.1L88.72,166.8L88.3,165.9L89.57,167.2L90.57,168.1L91.42,168.3L93.55,170.4L95.68,173.1L98.16,175.5L97.59,175.6ZM97.17,187.2L97.45,187.6L97.38,187.9L96.39,187.5L96.1,187.6L91.28,181.6L90.78,180.5L92.48,181.9ZM100.7,185.8L102.1,187.9L100.8,187.4L99.51,186.1L98.73,184.8ZM83.33,166.9L83.19,168L81.98,166.6L81.34,164.2L79.85,160.2L79.64,159.1L80.42,158L80.42,156.9L79.36,153.4L80.21,152.9L80.78,152.8L80.99,155.2L81.49,156.6L82.91,158.3L82.62,161.1L82.91,165.1L83.19,166ZM144.8,218.5L147.5,220.3L139.6,217.9L140.5,217.7L141.4,217.6ZM161.2,224.1L161.2,225.1L161.9,226.2L162.7,227.4L159.1,224.9L155.7,222.1L149.1,217.7L144.3,216.7L137.9,213.1L133.7,211.8L135.3,211.6L137.2,211.6L147.1,216.3L146,215L147.4,214.6L148.6,214.9L149.4,216.4L150.9,217.4L153.4,219.2L155,220.6L158.5,223L159.4,223.4ZM349.9,239.8L347.3,239.4L346.3,239.5L345.7,240.1L344.5,240L342.9,240L341.4,240.8L340.5,241.1L339.2,240.4L337,238.3L335.7,236.9L334.7,236.5L333.7,236.9L330.2,237.4L329.3,238.3L327.6,239.2L326,239.6L323.6,240L322.4,239.9L321.7,240.4L321,241.7L320.7,243L320.3,243.6L317.3,244.2L316.7,245L316.5,245.7L316.5,246.5L314.1,245.7L312.3,246.3L311.9,246.8L311.5,247.6L311.7,248.5L312.4,249.4L313.1,251.6L313.3,253.9L312.9,255.2L311.5,256.1L308.7,257.1L306,256.7L304.8,257L302.8,257.2L300.9,257.4L298,258.4L295.5,258.9L293.1,257L290.4,255.8L287.5,255L286.5,255.5L286,256L283.6,254.3L282.6,253.7L282,253.1L281,250.8L280.4,250.7L278.4,251.6L276.5,251.5L275.3,251.4L271.9,251.5L271.4,253L271,253.3L270.3,253.4L268.4,253.3L266.1,254.5L263.6,255.2L261.6,255.2L259.6,254.8L258.4,255.1L255.8,255.2L254.2,256.9L251.6,256.8L249.4,256.5L249.7,256L250.1,249.4L251.2,246.5L251.1,245.9L250.9,245.4L250,244.9L249.3,243.4L247.9,239.2L247.1,238.3L244.8,237.4L242.8,236.2L241.2,234.6L238.1,230.6L239.7,230.2L240.1,229.4L241.7,227.3L241.8,226.2L241.7,225.6L240.7,224.5L240,222.2L240.5,220.1L240.6,218.9L240.1,217.9L240.6,216.5L241.7,215.8L242.4,215.5L245.3,215.4L247.2,212.6L248.3,211.7L249.4,210.2L249.9,209.6L250.4,208.4L250.6,207.2L248.3,205.4L247.5,204.2L246.5,202.7L245.1,201.7L242.3,200L241.2,198.2L240.7,196L240,194.2L239.1,193.1L239,192.2L238.6,191.1L238.6,188.8L239.2,185.9L239.6,184.9L240.6,184.6L243.2,183L243.3,181L243.7,179.8L244.5,179L245.2,178.6L246.7,179.7L250,181.6L251.6,183L251.6,183.8L250.8,184.6L249.4,185.4L248.5,186.5L248.2,187.9L248.5,188.8L249.5,189.6L255.5,188.5L261.6,189.1L269.8,190.9L275.3,191.6L279.3,190.7L286.7,192.2L293.6,193.6L300.3,194.1L304,193L306.6,191.5L308.9,188.6L314.5,184.9L319.9,182.8L326.9,181.1L331.7,180.5L332.3,181.1L338.3,184.5L340.9,184.5L343.1,185.1L343.9,186L344.5,186.3L347.3,185.4L348.6,187.3L350.6,189.9L354,191.3L357,192.1L358,192.2L361.2,192.1L360.7,198.7L358.8,201.8L355.9,200.7L352.2,201.6L350.3,205L349.2,206L348.2,207.3L347.5,211.7L347.4,219L346.1,219.9L344.8,220.2L339.5,226.5L342.5,228.3L343.9,229.7L346.1,233.5L349.3,237.8ZM176.1,197.8L175.5,197.7L174.5,198L173.8,198.3L172.8,197.8L171.7,197.6L171.3,198L171.1,198.8L171.7,200.3L172.9,202.6L172.8,204.3L171.8,204.5L171,203.1L170.2,202.8L169.3,202.9L167.3,204.6L165.8,206L165.5,207L164.9,208.1L164.8,208.9L164.9,211.5L162.2,211.9L161.6,212.3L161.3,213.1L161.5,216.5L161.7,218.2L163.2,221L163.3,221.9L163.1,222.5L162,223.5L161.5,224L161.2,224.1L159.4,223.4L158.5,223L155,220.6L153.4,219.2L150.9,217.4L149.4,216.4L148.6,214.9L147.4,214.6L146,215L144.3,213.9L145.5,213.3L145.8,212.8L145.6,212.1L145.1,211.1L140.7,206.9L138.6,204L138.2,203L138.2,200.2L137.7,199.5L134.5,198.3L130.9,194.7L127.2,191.1L126.7,190.1L124.8,187.5L122.4,185L120.6,183.4L119,181.7L117.3,179.2L116.5,175.4L115.7,172.1L115.2,170.8L114.1,170.3L110.8,166.3L108,164L108,161.4L108.4,157.2L108.9,152.5L109.7,151.8L110.9,151.4L112.4,151.6L113.7,152.2L116.3,155.4L117.7,156.7L118.9,157.2L120.3,155.8L122.1,152.9L123.6,151.4L128.7,151.9L131.2,149.7L135.3,152.7L137,153.1L138,152.7L139.2,152.9L142.1,153.7L142.7,154.1L143.6,154L145.7,152.9L146.4,153.1L148.8,155.3L150.1,155.3L151.5,154.3L152.4,153.5L155.3,154.1L156.8,153.7L158.2,153.7L159.6,154.1L160.9,154.6L162.2,155L165.6,155.3L167.3,156.7L167.9,158.1L167.9,158.9L168,159.8L169,160.7L171.1,161.2L172.4,161.1L173.1,161L174.9,160.3L176.9,159.8L178.4,160.3L179.1,160.8L179.3,161.4L178.8,163.6L178,165.9L176.6,168.3L175.2,170.6L174.9,171.8L174.8,173.7L174.6,175.2L174.8,176L175.2,176.8L176.8,177.4L178.9,178.9L180.7,180.9L183,183L183.7,183.9L183.7,184.8L183.1,185.4L181.1,185.7L179,185.5L178.3,185.3L177.6,185.5L177.1,186L177.3,186.6L179.4,189.3L181.9,193.2L182,194.9L181.7,196.1L181.2,197L180.1,196.9L179.3,196.2L178.2,196.2L177.3,196.4ZM400.8,-42L400.5,-41.27L399.6,-38.35L400.1,-36.31L400.9,-34.39L401.1,-32.35L401.5,-30.71L400.4,-29.56L399.8,-27.86L397.9,-28.14L395.6,-29.78L395.2,-32.14L393.4,-33.73L392.2,-34.61L390.3,-34.72L387.2,-33.95L383.2,-33.4L380.3,-33.23L378.6,-32.41L376.1,-31.59L375.2,-32.52L373.9,-35.21L372.7,-37.85L372,-39.01L371.3,-39.34L370.5,-39.28L369.6,-38.4L368.9,-37.58L367.9,-37.24L366.4,-36.59L365.3,-35.59L364,-33.18L363.2,-33.34L362.4,-33.89L361.5,-36.64L360.1,-37.24L358,-37.3L355.4,-37.91L353.2,-38.73L352.4,-38.51L351.2,-37.35L349.8,-37.19L346.8,-38.24L346.3,-37.74L345.5,-36.2L344.5,-34.72L343.7,-34.61L343.2,-34.99L343.5,-37.58L341.7,-38.51L338.8,-38.68L336.8,-38.29L335.8,-38.4L335.2,-38.9L333.5,-42L400.8,-42ZM274.6,-42L273.3,-40.49L270.4,-38.18L269.9,-37.96L268.1,-39.23L266.7,-39.61L265,-39.78L263.8,-39.39L263,-38.79L263.2,-36.09L263,-35.87L261.7,-39.06L261.8,-41.99L261.8,-42L274.6,-42ZM-14.44,92.87L-12.81,89.34L-12.52,87.16L-13.94,85.85L-14.51,85.49L-14.01,85.19L-12.03,85.44L-10.75,84.68L-10.04,83.97L-8.266,84.68L-5.711,86.05L-4.434,86.96L-3.938,87.67L-3.654,88.28L-3.796,89.29L-3.228,89.69L-2.022,89.84L-1.171,90.15L-1.454,91.51L-1.525,92.62L-0.39,92.47L1.029,91.61L2.164,90.1L2.803,88.58L3.37,84.99L3.512,84.68L4.363,84.99L7.84,84.78L9.472,85.49L12.1,85.59L12.03,86.15L12.52,87.06L13.66,88.33L14.22,89.14L15.43,89.29L17.28,88.83L18.34,88.38L18.77,88.68L20.47,88.38L21.96,87.37L22.31,86.56L23.88,86L25.86,84.73L28.7,83.77L37.92,82.7L38.28,81.89L38.14,80.06L38.42,79.81L39.55,80.27L41.47,80.67L42.89,81.33L43.81,82.2L44.66,82.2L46.01,81.64L47.78,81.23L49.49,82.09L49.98,83.06L49.7,83.57L49.7,84.33L50.27,84.94L51.62,86L53.39,86.91L54.31,86.81L54.6,85.95L54.95,83.87L55.09,81.64L54.67,80.37L53.74,80.06L52.61,79.96L51.97,79.71L52.18,78.99L53.11,77.16L53.11,74.77L51.05,71.96L49.27,69.3L49.27,68.37L50.34,66.78L51.97,65.5L55.59,63.4L56.8,62.98L58.21,62.62L60.34,61.75L61.41,60.82L62.05,59.9L63.04,54.79L63.32,54.58L63.61,54.27L67.3,56.03L67.65,55.77L68.29,55.46L69.5,54.11L69.71,53.13L69.71,51.16L69.85,49.35L70.06,48.78L70.63,48.98L72.19,49.92L73.47,51.01L74.67,53.7L77.44,54.37L80.92,54.48L82.2,53.29L83.33,52.98L84.61,53.34L87.3,53.75L87.66,51.63L89.22,49.35L89.93,48.57L91.92,48.62L92.41,46.96L92.84,42.27L93.26,41.75L94.75,41.86L96.17,42.69L96.6,43.42L97.38,43.32L98.37,42.85L99.51,42.59L101.4,43.06L105.3,45.19L107.2,45.97L108.5,45.81L109.7,45.87L114.3,49.14L117.5,49.61L120.4,49.61L121.3,48.62L122.6,47.79L123.8,47.89L125,48.31L127.2,49.76L128.2,50.13L129.5,50.33L130.5,50.64L131.4,53.13L131.9,53.8L131.8,54.11L131.7,55.2L130.9,56.65L130.2,58.45L130.2,60.1L132.3,65.71L134.2,69.09L134.6,70.37L135.8,71.34L134.6,72.62L134.3,74.46L133.6,75.28L133.4,76.3L133.7,77.26L133.7,78.48L134.1,80.11L132.3,80.47L130.2,80.42L129.4,80.52L128.6,80.98L127.9,80.72L125.9,79.2L124.8,78.84L124,78.94L123.4,79.6L122.4,80.47L121.4,81.08L121.6,81.64L125.8,83.01L126.5,85.14L125.7,86.86L125.4,87.72L124.4,88.38L123.3,88.98L121.9,89.14L121.7,90.05L122.2,92.77L121.8,93.38L121.4,94.23L121.8,96.5L122.6,96.65L122.8,97.15L122.7,98.06L122.5,99.01L122.2,100.1L122.1,100.5L121.5,100.8L119.7,100.6L118.1,101.5L115,104.6L113.8,105.2L112.6,106.4L112.7,109.2L112.6,109.4L112.3,110L108.5,109L108.4,109L105.9,109.4L104.2,110.7L102.1,111.4L97.66,111L93.41,111.5L92.41,111.8L91.28,112.1L90.28,112.8L89.64,113.8L88.65,115.1L87.09,116.1L85.46,116.9L85.1,117.6L84.54,117.9L83.61,117.4L82.91,117.5L81.98,117.1L79,116.8L75.67,116.2L74.11,115.6L72.33,115.1L70.42,114.8L68.64,114.7L67.79,114.5L63.68,113.5L60.91,113.4L57.29,113L50.2,111.5L48.07,110.9L46.08,110.7L43.74,110.1L41.97,109.3L40.76,107.6L39.55,105.4L37.35,102.6L36.86,101.1L37.57,99.86L38.28,98.96L38.21,98.51L37.64,98.31L33.67,99.56L29.83,101.1L28.34,101.2L26.93,100.8L25.01,100.8L23.09,101.2L19.41,101.4L17.2,102.5L15.86,104.8L15.08,106.6L14.44,107.1L13.16,107.3L11.18,107.2L9.827,106.7L8.479,105.1L6.279,104.9L4.292,104.9L3.796,104.6L3.867,103.6L3.086,101.7L1.738,101.1L-1.596,104.7L-2.519,105L-5.215,104L-7.556,102.5L-7.769,101.4L-8.195,100.5L-10.18,99.61L-12.59,99.06L-13.37,99.06L-13.09,98.51L-12.81,97.61L-13.02,96.9L-13.59,96.15L-13.87,95.34L-13.94,94.53L-14.15,93.93L-14.22,93.33ZM-42,462.3L-40.41,464.8L-38.56,470.2L-37.99,473.8L-34.38,476.6L-31.11,479.2L-27.92,481.5L-27.22,482L-42,482ZM-42,369L-33.17,368.3L-33.17,368.3L-32.74,369.7L-32.67,370.9L-34.59,372L-35.79,372.7L-37.28,375.8L-39.98,378L-40.48,378.6L-40.41,379.2L-38.56,380.2L-37.99,381.1L-37.64,382.3L-38.49,386.7L-38.99,390.1L-39.7,394.5L-39.7,396.1L-38.99,398.1L-38.28,399.7L-38.06,401.5L-38.28,405.8L-37.43,408.3L-36.79,410.6L-38.42,413.5L-39.06,416L-39.55,419.6L-39.7,421.9L-40.76,424L-42,425.8L-42,369ZM179,242.4L179,241.2L179.4,239L179.2,238.3L179.4,237.2L178.8,235.5L177.8,234.4L178.8,232.4L180.1,229.9L181.4,228L182.9,225.9L184,223.9L185.1,222.2L186.1,221.7L186.6,222.1L186.8,222.8L186.8,225L187.1,225.8L187.8,226.3L189.2,226.1L190.7,225.5L192.9,224.3L193.2,224.4L194,225L195.6,227.7L196.7,230L198.8,230.8L200,231.7L201.5,233L202.2,234.4L203.3,238.6L203.4,241.2L203.1,242.4L202.9,242.6L201.9,246.8L202.1,248.9L202.1,250.2L201.3,250.8L200.8,251.7L201.7,255L201.5,256.5L201.6,258.2L203.2,261.9L204.1,263.1L204.9,263.7L205.9,267.2L206.6,267.8L209.1,267.4L210.3,267.8L210.8,268.7L211,269.2L210.8,271.1L211.4,272.6L212.2,274.2L212.2,275.1L211.7,276.6L210.7,278.4L209.3,279.1L207.8,279.7L207.1,281.1L206.8,282.6L206.1,283.7L205.7,284.9L205.1,287.3L204.9,288.2L203.9,289.1L202.3,289.4L201,289.5L200,289.9L199.5,290.8L198.6,291.4L198.1,291.8L198.1,292.5L198.8,294L199.5,295.3L199.5,296.3L199.1,296.6L198,296.4L197.8,296.8L197.6,298L197.3,298.9L196.9,299.5L196,300.1L194.5,299.9L193.2,298.9L192.4,298.7L192,298.7L191.9,296.4L191.2,294.5L189,290.1L181.8,285.8L180.1,283.9L179.3,282.3L178.6,280.7L179.3,280.7L180,281.1L181,281.6L181.3,280.7L180.9,279.1L179,275.2L178.9,274.1L179.8,270.7L181.3,267L181.2,262.5L181.7,259.1L181.2,256.9L181,254.2L182,250.6L183,249.6L183.6,248.5L183.7,244.6L181.5,242.8ZM192.2,224.1L197.7,215.5L207.1,212L220.7,212.8L226.8,221.1L225.9,227.5L221.7,231.8L217.8,233.9L211.1,239.3L204,243L195.7,237.7L193.3,231.8Z" fill="#D8E2E7" stroke="#3F464B" stroke-width="0.85" vector-effect="non-scaling-stroke"/><path d="M176.1,197.8L176,198.2L176.1,199.1L176.6,200.1L178.1,201L180.4,203L183.1,206.5L184.4,207.6L185.5,207.8L187.6,209.3L189.2,209.6L190.8,210.1L195.3,213.1L197.3,214L198.6,215.2L198.8,216.2L198.8,216.9L196.2,217.7L195.7,218.8L194.5,218.7L193,218.7L192.5,219.5L193.2,220.7L193.7,222.2L193.4,224.2L193.2,224.4L192.9,224.3L190.7,225.5L189.2,226.1L187.8,226.3L187.1,225.8L186.8,225L186.8,222.8L186.6,222.1L186.1,221.7L185.1,222.2L184,223.9L182.9,225.9L181.4,228L180.1,229.9L178.8,232.4L177.8,234.4L178.8,235.5L179.4,237.2L179.2,238.3L179.4,239L179,241.2L179,242.4L175.9,240.3L174.6,237.4L170.2,232.4L165,228.9L164.7,228.4L165,227.7L165.3,227.2L164.2,227.2L163.4,227.6L162.7,227.4L161.9,226.2L161.2,225.1L161.2,224.1L161.5,224L162,223.5L163.1,222.5L163.3,221.9L163.2,221L161.7,218.2L161.5,216.5L161.3,213.1L161.6,212.3L162.2,211.9L164.9,211.5L164.8,208.9L164.9,208.1L165.5,207L165.8,206L167.3,204.6L169.3,202.9L170.2,202.8L171,203.1L171.8,204.5L172.8,204.3L172.9,202.6L171.7,200.3L171.1,198.8L171.3,198L171.7,197.6L172.8,197.8L173.8,198.3L174.5,198L175.5,197.7Z" fill="#8B341D" stroke="#2C160F" stroke-width="1.1" vector-effect="non-scaling-stroke"/></svg>