<svg xmlns="http://www.w3.org/2000/svg" viewBox="0 0 360 440" width="360" height="440" role="img" aria-label="Regional map with Madagascar highlighted"><rect width="100%" height="100%" fill="#7FA6D6"/><path d="M38.72,253.4L37.9,252.8L36.79,252.4L35.35,252.3L33.49,252.3L31.24,252.6L28.79,252.3L26.18,251.2L23.99,250.8L21.42,251.3L21.29,251.3L20.86,251L20.14,250.2L18.97,250.1L18.64,249.9L18.38,249.6L18.18,249.2L18.12,248.8L18.32,247.6L18.22,247.4L17.89,247.3L17.27,247.1L15.7,246.6L13.74,246L10.58,245.4L9.339,245.2L9.045,245.1L8.686,244.6L8.066,243.2L7.511,242.2L6.14,240.7L5.911,240.3L5.977,239.1L6.107,238.2L6.238,237.4L6.172,236.6L6.14,235.7L6.205,235.1L6.009,234.8L5.52,234.7L4.116,234.6L2.386,234.6L2.354,233.7L2.19,232.2L1.864,231.4L1.472,231L0.689,230.5L-0.911,229.9L-3.065,228.9L-4.925,227.6L-7.014,225.8L-7.7,225.5L-8.483,223.9L-9.658,221.1L-9.593,220.2L-9.756,219.8L-10.93,218.4L-11.16,217.7L-11.39,217L-13.22,215L-13.84,214.2L-14.33,213L-14.78,212.2L-15.21,211.8L-15.73,211.2L-16.09,210.5L-16.25,210L-16.12,209.3L-15.93,208.8L-14.2,209.3L-13.22,209.4L-12.46,209.1L-11.55,209.4L-10.44,210.3L-9.234,210.5L-7.961,210L-6.198,210.1L-3.979,211L-2.151,211.2L0.036,210.4L1.994,208.2L3.822,206.2L5.618,203.8L6.727,201.9L8.294,200.3L10.42,199.1L12.54,198.1L15.8,196.9L16.49,195.8L16.68,194.7L16.68,193.2L16.85,192.2L17.2,191.7L17.73,191.4L18.45,190.9L20.6,189.7L22.39,189L24.61,188.5L27,188.5L29.32,188.5L30.65,188.5L30.65,190L30.75,191.6L31.01,191.8L32.77,191.8L35.58,192L38.26,192.1L39.99,193.3L40.58,193.5L42.37,193.9L44.66,195.9L47.4,196.1L49.29,196.7L50.95,197.4L51.9,198.2L52.52,198.4L53.37,198.5L53.8,198.6L53.7,199.2L53.14,200.2L53.21,201.7L53.99,203.7L54.09,205.5L53.83,208.6L53.86,211.6L53.93,212.7L54.06,213.4L54.22,213.8L54.19,214.2L53.73,215.5L53.37,216.9L53.34,217.4L53.21,217.8L52.95,218.1L51.74,218.7L51.54,219.1L51.54,219.8L51.67,220.4L52.13,220.6L52.69,220.9L52.88,221.4L52.88,221.8L52.72,222.7L52.23,224.1L52.72,225.7L53.27,226.8L53.99,228L54.32,228.8L54.28,229.3L54.19,229.8L53.08,232.1L52.26,233.5L51.28,235L49.98,235.9L49.65,236.4L49.52,236.9L49.55,238L49.52,239.2L48.41,241L49.09,242.6L48.93,242.7L48.54,242.9L46.94,244.7L45.34,246.5L44.17,247.8L42.8,249.3L41.29,250.9L40.02,252.3ZM-42,163.7L-41.22,163.7L-38.74,163.7L-36.03,163.7L-33.35,163.7L-30.65,163.7L-28.75,163.7L-28.26,163.7L-27.68,163.6L-27.64,163.3L-28.43,161.9L-28.36,161.4L-28.16,160.4L-27.84,159.5L-27.41,158.4L-27.38,157.7L-27.71,155.6L-27.68,154.3L-27.58,153.1L-27.48,151.9L-27.61,151.1L-27.48,150.6L-27.22,150L-27.09,149.3L-26.93,148.9L-26.96,148.7L-27.12,148.1L-27.25,146.9L-27.45,145.2L-27.64,144L-27.32,144.1L-26.63,144.2L-26.3,144.8L-26.11,145.4L-25.65,145.5L-24.44,145.9L-24.02,146.4L-23.76,147.6L-23.92,148.2L-24.31,148.6L-23.92,149.1L-23.11,149.3L-22.65,149.3L-21.28,148.5L-20.76,148.3L-20.04,148.2L-19.39,148L-17.59,147.6L-16.61,147.5L-16.06,147.2L-15.66,147.2L-15.37,147.4L-15.63,148.2L-15.73,148.9L-15.37,150.3L-15.11,151L-14.52,151.4L-14.1,151.7L-13.64,152.2L-12.66,152.1L-10.54,152.8L-9.887,153.1L-8.973,153.4L-8.353,153.6L-6.133,153.8L-5.317,154L-3.816,154.2L-2.608,154.2L-1.727,154.1L-1.139,153.9L-0.78,153.7L-0.617,153.5L-0.356,152.8L0.101,151.3L0.265,150.9L0.721,150.7L1.309,150.6L1.635,150.8L2.027,152.4L3.692,153.9L4.279,155.2L4.704,156.3L5.063,156.6L5.683,156.9L6.727,157.1L7.641,157.1L9.534,157.9L11.07,158.5L12.18,158.9L12.67,159.3L13.03,159.8L13.22,160.2L13.55,161.3L13.91,162.2L14.5,162.4L15.02,162.5L15.54,163.1L15.93,163.6L16.71,164.9L17.27,165.7L17.47,166.6L18.12,167.2L19,167.4L19.82,167.4L20.27,167.2L21.45,166.8L22.36,166.2L23.02,166.1L23.41,166.2L23.7,166.5L23.86,167.2L23.9,167.6L24.55,168L25.01,167.8L25.2,167.4L25.2,167.2L25.2,165.3L25.2,163.7L25.2,162.1L25.2,160.3L25.2,158.6L25.2,157.3L25.2,155.9L24.78,156L24.25,156.3L23.05,156.3L22.59,156.6L22.46,156.9L22.52,157.4L22.56,158L22.39,158.3L21.87,158.5L21.09,158.2L19.72,157.9L18.58,157.7L17.76,156.8L16.62,155.6L15.9,154.9L14.14,153.6L13.84,153.3L13.29,152.7L12.83,151.7L12.6,151L12.41,150.4L12.15,149.7L12.57,148.5L13.19,146.2L13.62,144.6L13.84,143.4L14.72,142.1L14.79,141.1L14.43,139.7L14.53,138.9L14.56,136.9L14.63,135.2L14.63,134.4L14.4,133L13.81,131.5L12.54,129.3L12.54,128.9L13.32,128.3L14.5,127.4L15.08,126.9L15.8,126.2L16.13,125.8L16.81,124.8L17.24,124L17.4,123L17.07,122.1L17.73,121.9L19.95,121.5L22.36,121.2L24.94,120.8L27.52,120.4L30.03,120L32.28,119.6L33.85,119.4L34.11,120.1L34.57,121.2L35.16,122L35.84,122.7L36.43,123.1L36.82,123.2L39.3,123.2L40.18,123.6L40.97,124.2L41.16,125L41.69,125.5L42.24,126L42.47,126L42.86,125.9L43.55,125.9L44.17,126.1L44.46,126.3L44.49,127L44.66,127.3L45.5,127.4L46.35,127.5L47.2,127.9L48.08,128L49.13,128.2L49.62,128.7L50.69,129.3L52.03,129.7L53.01,130.3L53.53,130.5L53.57,130.8L53.8,131.2L54.06,131.6L54.09,132.1L54.22,132.5L54.61,132.6L54.91,132.7L55.2,132.3L55.59,132.3L56.02,132.5L56.18,133.1L56.54,133.8L57.06,134.2L57.45,134.7L57.32,135.6L57.09,136.3L57.81,137.1L58.79,137.8L59.05,138.1L59.12,139.2L59.28,139.6L59.93,140.5L60.26,141.1L60.23,141.4L58.46,143.2L57.91,143.4L57.39,143.5L56.9,143.8L56.63,144.2L56.73,144.4L56.93,145L57.32,146L57.71,146.7L57.39,147.5L56.7,148.9L56.37,149.1L56.31,150.2L56.54,150.5L56.86,150.9L56.99,151.6L57.03,152.6L56.99,153.4L56.54,155.5L57.35,157.3L57.61,157.5L58.72,157.5L58.89,157.7L58.63,158.2L58.17,158.7L57.88,159L56.47,159.6L54.45,160.3L54.02,161L53.76,161.9L53.99,162.5L54.25,162.8L54.15,163.7L53.99,164.5L54.06,165.2L53.96,165.8L53.7,166.1L53.34,167.1L52.91,168L52.55,168.4L52.06,168.9L51.28,169.2L51.28,169.4L52.2,169.9L52.42,170.2L52.49,170.4L52.29,170.6L52.13,170.8L52.55,171.1L53.04,171.4L53.53,172L53.96,172.9L54.09,173.2L54.19,173.3L54.35,173.3L54.64,173.2L55.2,172.7L55.59,172.5L56.08,173.2L54.12,173.9L53.11,174.2L50.2,175.2L47.66,176.1L47.01,176.3L45.67,176.7L45.02,177L42.73,177.7L41.78,178.1L41,178.5L39.11,179L37.31,179.6L35.35,180.1L33.17,180.7L31.93,181.2L31.11,181.6L29.15,182.3L29.05,182.5L29.09,183.1L29.35,184.1L29.84,185.1L30.23,185.7L30.49,187.2L30.65,188.5L30.65,188.5L29.32,188.5L27,188.5L24.61,188.5L22.39,189L20.6,189.7L18.45,190.9L17.73,191.4L17.2,191.7L16.85,192.2L16.68,193.2L16.68,194.7L16.49,195.8L15.8,196.9L12.54,198.1L10.42,199.1L8.294,200.3L6.727,201.9L5.618,203.8L3.822,206.2L1.994,208.2L0.036,210.4L-2.151,211.2L-3.979,211L-6.198,210.1L-7.961,210L-9.234,210.5L-10.44,210.3L-11.55,209.4L-12.46,209.1L-13.22,209.4L-14.2,209.3L-15.93,208.8L-17.46,207.3L-18.27,206.7L-18.9,206.5L-20.69,206.2L-24.87,205.9L-25.29,205.9L-27.02,206.2L-29.18,206.6L-31,207L-32.96,207.4L-34.76,205.8L-36.81,204L-38.94,202L-40.54,200.4L-41.32,199.5L-42,199L-42,163.7ZM62.45,53.95L61.47,53.95L59.83,53.95L58.23,53.95L56.63,53.95L55,53.95L53.4,53.95L51.77,53.95L50.17,53.95L48.57,53.95L46.94,53.95L45.34,53.95L43.71,53.95L42.11,53.95L40.51,53.95L38.88,53.95L37.28,53.95L35.68,53.95L34.7,53.95L34.54,53.91L34.41,53.87L33.79,53.99L33.17,54.39L32.48,54.56L31.76,54.48L31.66,54.53L31.31,54.51L30.78,54.5L30.33,54.59L29.97,54.95L29.58,55.53L28.92,56.23L28.4,56.83L27.98,57.27L26.96,57.98L26.41,58.18L26.15,58.15L25.98,58.02L25.66,57.11L25.46,56.97L23.5,57.42L23.21,57.44L23.24,57.16L23.11,55.02L23.08,53.71L23.34,52.89L23.47,51.95L23.5,51.13L23.86,49.71L23.73,48.86L24.19,45.89L24.32,45.4L24.48,43.97L24.78,43.52L25.04,43.35L25.36,42.47L26.02,41.05L26.48,40.33L26.38,38.74L26.44,37.67L26.54,37.42L27.49,37.02L28.73,36.03L29.22,34.85L29.97,34.11L31.37,33.62L31.4,33.62L35.61,29.59L37.57,27.42L38.42,26.32L38.45,25.91L38.62,25.39L38.26,24.98L37.87,24.6L37.74,24.27L37.38,24.1L36.85,24.1L36.53,23.86L36.17,23.37L35.78,23.06L34.57,23.09L33.66,22.58L33.66,21.91L34.05,20.57L34.73,19.02L34.77,18.61L34.67,18.25L34.51,17.93L34.18,17.62L33.88,17.26L34.11,16.15L34.57,15.07L34.93,14.53L35.29,13.93L35.16,13.43L34.67,13.19L34.93,12.7L35.48,11.88L36.56,11.06L37.51,10.51L38.13,10.51L39.37,10.94L40.48,11.46L41.1,11.49L41.82,11.27L43.35,10.35L43.71,10.63L44.17,11.2L44.66,12.12L45.63,12.54L46.09,12.83L46.42,12.92L46.61,12.84L46.97,12.12L47.4,11.72L48.25,11.22L50.04,10.82L51.31,10.71L51.87,10.62L52.78,10.38L54.22,9.641L55.66,10.6L57.19,10.79L58.69,10.78L59.15,10.49L59.41,10.27L60.98,8.695L63.1,6.548L64.53,9.562L64.99,9.736L64.93,10L64.83,10.26L65.74,10.98L66.88,11.36L67.28,11.72L67.34,12.13L66.95,13.9L67.02,14.39L67.37,16.15L68.06,16.55L68.68,18.33L69.89,19.07L70.05,19.29L70.34,20.16L70.7,21.09L71,21.31L71.16,21.37L71.52,22.36L71.32,22.93L71.62,24.63L72.07,26.14L72.17,27.97L72.2,28.77L72.17,29.26L72.07,29.95L71.84,30.35L71.45,30.74L71.03,31.36L70.67,32L70.44,32.33L70.61,33.31L70.57,33.56L70.47,33.69L69.92,33.84L69.2,34.11L68.78,34.36L68.19,34.87L67.7,35.4L67.05,36.99L65.97,38.22L65.81,38.63L64.8,39.37L64.34,40.27L64.04,41.38L63.65,42.19L62.8,43.27L62.61,45L62.64,48.47L62.41,52.39ZM113.2,100.9L113.9,102.9L113.8,103.3L113.3,103.5L113,103.5L112.7,103.2L112.5,102.5L112.1,102.7L111.5,101.9L110.9,101.9L110.3,100.9L110.5,100.1L110.4,98.73L111.1,98.01L111.5,96.81L111.9,97.64L112,98.9L112.6,100.4L113.1,100.9ZM116.5,89.38L116.6,89.86L116.4,90.28L116.4,91.66L116.4,92.57L115.9,93.84L115.5,94.28L115.1,94.16L114.8,93.95L114.5,93.6L115,91.28L114.8,89.59L115.7,89.75ZM53.53,130.5L53.01,130.3L52.03,129.7L50.69,129.3L49.62,128.7L49.13,128.2L48.08,128L47.2,127.9L46.35,127.5L45.5,127.4L44.66,127.3L44.49,127L44.46,126.3L44.17,126.1L43.55,125.9L42.86,125.9L42.47,126L42.24,126L41.69,125.5L41.16,125L40.97,124.2L40.18,123.6L39.3,123.2L36.82,123.2L36.43,123.1L35.84,122.7L35.16,122L34.57,121.2L34.11,120.1L33.85,119.4L33.59,118.6L32.97,117.4L32.12,115.6L31.47,114.2L30.75,112.7L30.46,111.6L29.9,110.3L28.99,108.8L28.53,108.2L28.01,107.7L26.7,106.7L25.23,105.7L24.42,105L23.34,103L22.88,102.2L22.59,100.9L22.33,99.58L22.43,99.04L23.41,97.32L23.5,96.83L23.37,96.16L22.92,94.79L22.56,93.9L22.3,93.13L21.81,91.85L21.09,90.09L20.93,89.32L20.93,88.75L21.32,87.23L21.64,85.67L21.64,85.23L24.48,85.29L24.97,84.94L26.57,83.95L28.4,81.93L28.76,81.08L29.48,79.78L30.23,79.15L30.49,78.7L30.69,78L30.91,77.42L31.86,76.53L32.77,75.87L32.71,75.59L32.58,75.4L32.74,75.23L33.23,74.88L34.21,74.56L34.41,73.89L34.41,73.13L34.24,72.69L34.28,72.2L34.11,71.93L33.49,71.85L32.55,71.47L31.73,71.32L31.18,71.1L30.98,70.92L30.91,70.47L31.05,69.96L31.14,69.82L31.34,69.28L30.98,68.97L30.91,68.81L31.08,68.56L31.89,66.86L32.09,66.62L32.45,66.59L33,66.39L33.52,66.29L33.98,66.37L34.28,66.28L34.57,66.05L34.8,65.39L34.99,64.29L34.9,63.39L34.47,62.7L34.37,61.63L34.57,60.21L34.41,59.03L33.95,58.09L33.49,57.52L32.77,57.25L31.66,55.8L31.31,55.11L31.37,54.67L31.66,54.53L31.76,54.48L32.48,54.56L33.17,54.39L33.79,53.99L34.41,53.87L34.54,53.91L34.7,53.95L35.68,53.95L37.28,53.95L38.88,53.95L40.51,53.95L42.11,53.95L43.71,53.95L45.34,53.95L46.94,53.95L48.57,53.95L50.17,53.95L51.77,53.95L53.4,53.95L55,53.95L56.63,53.95L58.23,53.95L59.83,53.95L61.47,53.95L62.45,53.95L63.13,53.95L63.78,54.27L64.5,54.69L66.46,55.77L68.39,56.84L70.31,57.93L72.24,59L74.16,60.09L76.12,61.16L78.05,62.24L79.97,63.33L81.9,64.4L83.82,65.49L85.78,66.56L87.71,67.64L89.63,68.72L91.56,69.8L93.52,70.88L95.44,71.96L96.36,72.48L96.49,72.7L96.65,73.68L96.75,74.3L96.72,74.85L96.19,75.76L96.03,76.25L96.03,76.58L96.16,76.71L96.59,76.76L96.98,76.98L97.11,77.15L97.4,77.84L97.76,78.19L98.58,78.78L99.95,79.78L101.4,80.79L102.8,81.79L104.1,82.8L105.5,83.81L106.9,84.8L108.3,85.81L109.7,86.82L110.4,87.31L110.7,87.44L110.5,88.21L109.8,90.06L109.7,90.84L109.4,91.75L109.2,92.35L108.5,94.96L107.8,95.94L107,98.24L106.9,99.99L107.4,101.2L107.5,102.4L108.5,103.5L109.3,103.9L109.8,104.4L110.7,105.6L111.3,106.8L112.9,107.4L113.6,108.7L113.4,109.6L112.6,110.4L111.9,111.6L111.3,113.2L111.2,115.7L111.7,115.3L112.5,115.9L112.6,117.7L111.7,119.9L111.5,120.8L111.4,121.7L112.1,124.2L113.1,125.5L113,125.9L112.7,126.3L114.5,128.6L114.3,130.6L115,132.1L115.3,133.4L115.7,134.5L115.7,135.2L115.2,136L116.5,136.2L117.2,136.8L117.6,137.5L118.5,137.4L119,137.8L119.7,138.2L121.2,139.2L121.7,139.8L121.8,140.1L121.9,140.3L120.9,141.1L119.2,142.3L117.6,143.6L116.1,144.4L115,144.8L113.8,145L112.6,145.5L111.6,146.3L110.2,146.7L108.5,146.7L106.8,147.3L105.1,148.4L104.1,149L102.4,148.1L101.2,147.8L99.75,147.8L98.87,147.9L98.55,148.1L98.28,148.7L98.06,149.7L97.11,150.6L95.44,151.5L93.91,151.8L92.51,151.6L91.56,151.2L91.07,150.7L90.32,150.4L89.37,150.5L88.46,150.8L87.58,151.5L86.14,151.8L84.22,151.7L83.2,151.4L83.04,150.8L82.19,150.2L80.66,149.4L79.52,149.4L78.77,150.1L78.11,150.6L77.49,150.8L76.97,150.8L76.48,150.7L76.19,150.6L74.03,150.5L72.01,150.6L71.94,150.2L71.81,149.5L71.39,148.8L71.03,148.4L70.57,148.4L70.34,148.4L70.15,148.1L69.92,147.4L69.56,146.8L69.1,146.4L68.84,145.9L68.75,145.5L68.81,145.1L69.23,144L69.36,143.3L69.33,142.5L69.1,141.7L68.61,140.8L68.68,140.6L68.52,139.9L68.48,139.5L68.58,138.9L68.48,138.2L68.06,136.7L68.06,136.3L67.64,135.5L66.3,133.7L66.23,133.5L64.11,131.7L63.29,131.3L62.97,131.7L62.87,132L62.97,132.6L62.9,132.8L62.8,133L62.31,133L61.99,132.9L61.2,132.4L60.58,132.3L59.05,132.4L58.49,132.5L58.07,132.4L57.26,131.6L56.31,131.4L55.43,131.3L54.02,130.4L53.7,130.5ZM115.1,117.4L114.6,117.5L114.4,117.4L114.1,117L114.6,116.7L115.2,116.1L116.3,115.2L116.7,114.5L116.9,114.4L116.8,115.1L116.1,116.7L115.6,116.8ZM44.72,288.7L44.92,288.8L45.73,289.3L45.8,290.2L45.73,291.3L45.57,292L45.63,292.6L45.9,293.7L46.16,294.4L46.22,297.6L45.93,297.5L45.41,297.3L45.15,297.4L44.88,298.9L44.69,301L44.82,302.4L42.86,302.4L40.38,302.3L38.62,301.7L36.69,300.4L35.55,298.4L35.06,297.1L34.37,297.1L34.24,296.9L34.18,295.3L34.21,293.7L34.34,293.3L35.61,291.3L36.43,290.1L36.92,288.9L38,287.5L39.17,286.6L39.6,286.5L39.89,286.6L41.91,287.8L44.04,288.9L44.49,288.8ZM-4.277,-42L-4.207,-41.92L-3.228,-41.54L-2.281,-41.68L-1.563,-42L8.164,-42L8.164,-42L8.882,-40.56L9.371,-40.1L16.59,-40.08L16.45,-40.66L16.52,-41.3L17.24,-42L62.13,-42L62.13,-42L62.15,-41.74L62.22,-41.47L62.25,-41.41L62.28,-41.38L62.31,-41.34L62.35,-41.33L64.01,-41.33L64.04,-41.33L64.01,-40.95L64.08,-39.09L64.14,-37.47L64.24,-34.81L64.24,-34.12L64.17,-33.25L63.98,-32.91L63.49,-32.42L62.9,-31.98L61.37,-31.86L60.09,-31.88L59.21,-31.98L57.97,-32.02L56.8,-31.93L56.37,-31.55L55.75,-30.23L54.84,-28.29L54.38,-27.48L54.25,-27L54.38,-26.71L55,-26.3L56.31,-25.73L57.81,-25.39L58.92,-25.25L59.7,-25.09L60.29,-24.9L62.45,-23.42L63.13,-22.74L63.52,-22.14L63.59,-21.49L63.91,-20.84L65.15,-19.55L65.84,-18.81L67.7,-17.84L68.42,-16.76L69.1,-16.24L69.76,-15.67L70.11,-14.83L70.93,-12.39L71.45,-11.11L72.01,-10.06L72.24,-8.352L72.66,-7.593L73.12,-6.676L73.87,-5.837L74.69,-5.189L74.82,-5.015L73.15,-3.371L71.29,-1.537L69.14,0.596L66.75,2.917L64.93,4.749L63.1,6.548L63.1,6.548L60.98,8.695L59.41,10.27L59.15,10.49L58.69,10.78L57.19,10.79L55.66,10.6L54.22,9.641L52.78,10.38L51.87,10.62L51.31,10.71L50.04,10.82L48.25,11.22L47.4,11.72L46.97,12.12L46.61,12.84L46.42,12.92L46.09,12.83L45.63,12.54L44.66,12.12L44.17,11.2L43.71,10.63L43.35,10.35L41.82,11.27L41.1,11.49L40.48,11.46L39.37,10.94L38.13,10.51L37.51,10.51L36.56,11.06L35.48,11.88L34.93,12.7L34.67,13.19L34.47,12.8L34.28,12.43L33.92,11.98L33.4,11.79L32.94,11.88L32.38,11.98L32.12,11.71L32.09,11.08L31.93,10.49L31.66,10.05L30.88,9.61L28.82,8.726L27.26,6.943L26.44,6.122L25.89,5.586L25.07,4.181L24.13,3.217L22.98,2.775L22.23,2.996L21.48,4.023L20.01,4.986L19.36,5.033L18.51,4.496L17.43,4.133L15.51,3.96L14.72,4.417L13.68,5.159L12.8,5.601L12.24,5.665L11.75,5.475L11.17,5.38L10.68,5.365L9.632,4.702L9.11,4.196L8.751,3.723L8.164,3.391L7.478,3.123L6.988,2.696L6.76,2.159L6.368,1.48L5.879,0.864L4.312,-0.242L3.822,-0.889L3.496,-1.537L2.876,-2.233L2.19,-3.181L1.962,-4.556L1.929,-5.663L1.799,-6.169L1.505,-6.691L1.146,-7.118L0.624,-7.609L-0.682,-8.321L-1.988,-9.144L-2.64,-9.634L-3.816,-9.808L-4.566,-10.28L-5.154,-11.31L-5.415,-12.15L-6.002,-12.8L-6.264,-13.26L-6.427,-13.8L-5.937,-15.45L-6.623,-16.03L-7.667,-16.78L-8.418,-17.6L-8.875,-18.36L-10.21,-19.36L-13.15,-20.87L-14.81,-21.82L-15.76,-22.68L-16.55,-23.52L-16.64,-23.87L-16.12,-24.71L-16.02,-25.39L-16.45,-26.16L-18.21,-27.6L-19.61,-29.18L-20.66,-29.67L-23.2,-30.11L-23.95,-30.29L-24.71,-30.59L-25.46,-31.31L-25.72,-32.15L-25.36,-33.49L-25.59,-33.9L-26.01,-34.01L-25.88,-34.3L-25.42,-34.95L-24.64,-35.38L-22.52,-36.05L-22.42,-36.31L-22.36,-37.15L-22.19,-37.56L-21.47,-38.73L-21.38,-39.19L-21.34,-40.2L-21.25,-40.66L-21.02,-40.99L-20.46,-41.58L-20.27,-41.94L-20.26,-42L-4.277,-42ZM17.24,-42L16.52,-41.3L16.45,-40.66L16.59,-40.08L9.371,-40.1L8.882,-40.56L8.164,-42L17.24,-42ZM-1.563,-42L-2.281,-41.68L-3.228,-41.54L-4.207,-41.92L-4.277,-42L-1.563,-42ZM-20.26,-42L-20.27,-41.94L-20.46,-41.58L-21.02,-40.99L-21.25,-40.66L-21.34,-40.2L-21.38,-39.19L-21.47,-38.73L-22.19,-37.56L-22.36,-37.15L-22.42,-36.31L-22.52,-36.05L-24.64,-35.38L-25.42,-34.95L-25.88,-34.3L-26.01,-34.01L-26.93,-34.25L-28.07,-34.43L-30.25,-34.63L-31.14,-34.94L-31.53,-35.4L-31.4,-36.56L-31.63,-36.82L-31.98,-37.02L-32.21,-37.53L-32.18,-38.14L-31,-39.49L-30.78,-40.21L-30.64,-42L-20.26,-42ZM64.08,-42L64.04,-41.81L64.04,-41.33L64.04,-41.33L64.01,-41.33L62.35,-41.33L62.31,-41.34L62.28,-41.38L62.25,-41.41L62.22,-41.47L62.15,-41.74L62.13,-42L64.08,-42ZM15.61,331.3L17.07,330.6L17.76,330.2L18.25,329.9L18.87,329.4L19.1,328.1L19.26,327.1L19.75,326.6L20.24,326.2L20.66,325.7L21.16,324.4L21.48,323.1L21.55,322.6L21.35,322.1L21.02,321.5L20.73,320.7L20.34,320.6L19.59,320.2L18.51,319.3L17.56,318.6L16.68,317.5L16.32,317.3L15.47,316.6L15.08,316.1L14.82,315.6L14.59,315.5L14.2,315.6L13.19,315.8L11.04,316.7L9.698,317.5L8.555,318.5L7.38,318.8L6.532,319.2L5.846,320.3L5.193,321.3L4.638,322.2L4.312,322.7L4.018,322.9L3.692,323.5L3.104,324.5L2.517,325.2L1.733,325.6L0.721,326L0.362,326.3L0.33,326.7L0.689,327.6L1.048,328.5L1.603,329.6L2.027,330.4L2.68,331.3L3.072,331.9L3.039,332.8L3.17,333.1L3.365,333.5L3.561,333.6L3.757,333.8L4.312,334L4.443,334.2L4.834,334.5L5.193,335.1L5.911,335.9L6.695,336.5L8.033,336.8L9.077,336.9L9.437,336.8L9.796,336.3L10.09,335.7L10.19,334.9L10.51,334.5L11.79,332.5L12.47,331.7L12.9,331.7L13.45,331.6L14.14,331.5L14.66,331.6L14.79,331.5ZM-42,291.9L-41.22,291.3L-40.5,290.9L-40.05,290.5L-39.69,289.8L-38.87,287.7L-38.25,285.9L-38.06,285L-37.5,283.7L-36.85,282.8L-36.23,282.3L-35.9,282.2L-35.05,282L-34.01,281.7L-32.9,282L-31.69,282.5L-30.32,283.4L-28.95,284.5L-28.3,285.1L-27.61,285.4L-26.4,285.4L-25.59,285.4L-24.35,286.5L-23.73,286.6L-22.29,286.9L-20.56,287.3L-19.45,287.2L-18.27,286.6L-17.43,286.6L-16.35,286.7L-15.14,286.5L-14.26,286.2L-13.57,285.7L-12.99,285.1L-12.3,283.5L-11.91,282.1L-11.29,280.5L-10.54,278.4L-10.28,277L-10.02,276.6L-8.94,276.1L-8.026,275.8L-5.611,275.2L-5.121,274.9L-4.664,274.2L-3.62,273L-2.314,272.1L-1.629,271.5L-0.421,266.8L-0.258,266.2L0.624,264.9L1.178,264.4L1.538,264.4L2.027,264.1L2.68,263.4L3.463,263L4.377,262.9L4.965,262.4L5.226,261.7L5.683,261.4L6.368,261.4L6.727,261.2L6.825,260.7L7.217,260.3L7.935,260L8.294,259.6L8.327,259.1L9.175,258L10.84,256.2L12.37,255.2L13.84,255L15.21,254.7L16.52,254.1L17.5,253.3L18.12,252.1L19.16,251.5L21.29,251.3L21.29,251.3L21.42,251.3L23.99,250.8L26.18,251.2L28.79,252.3L31.24,252.6L33.49,252.3L35.35,252.3L36.79,252.4L37.9,252.8L38.72,253.4L38.78,253.9L38.85,254.1L39.27,255.5L39.92,257.5L40.35,259.4L40.94,262L40.94,263.4L41.06,264L41.59,264.7L42.24,265.9L42.47,266.6L42.7,267.1L43.38,268L43.91,269.5L44.36,271.5L44.75,272.4L44.88,272.9L45.05,273.7L45.05,275.5L45.05,277.5L45.05,279.8L45.08,281.7L45.02,282.7L45.05,285.4L44.46,286.8L44.52,288L44.72,288.7L44.49,288.8L44.04,288.9L41.91,287.8L39.89,286.6L39.6,286.5L39.17,286.6L38,287.5L36.92,288.9L36.43,290.1L35.61,291.3L34.34,293.3L34.21,293.7L34.18,295.3L34.24,296.9L34.37,297.1L35.06,297.1L35.55,298.4L36.69,300.4L38.62,301.7L40.38,302.3L42.86,302.4L44.82,302.4L44.69,301L44.88,298.9L45.15,297.4L45.41,297.3L45.93,297.5L46.22,297.6L47.01,297.6L48.38,297.9L49.52,297.8L50.53,297.8L52.23,297.7L53.21,297.7L52.88,300.1L51.58,303.8L51.15,305.4L50.04,311.5L48.6,314.6L47.79,315.9L45.44,318.1L44.79,318.6L44.2,318.9L43.19,319.1L39.17,323.7L37.67,325.9L36.33,329.2L35.03,330.9L33.07,334.8L31.34,337.7L29.67,340.4L26.8,344.1L25.53,345.2L24.65,345.7L22.36,347.9L19.13,351.4L16.68,354.5L12.99,358.1L10.87,359.6L7.641,362.7L6.76,363.2L3.137,366L0.558,367.8L-3.652,369.8L-5.317,370.4L-9.299,369.8L-10.96,370.1L-12.37,371.3L-12.5,373.1L-13.09,373.4L-13.97,373.3L-16.74,372.6L-18.24,372.7L-19.12,373.6L-19.84,374.8L-21.93,374.9L-25.68,373.7L-30.09,372.9L-31.1,372.8L-33.23,373.7L-33.98,373.9L-37.08,373.7L-38.81,373.1L-40.47,373.1L-41.71,373.6L-42,373.6L-42,291.9ZM215.9,-42L215.9,-41.02L214.6,-39.3L214.2,-38.09L212.3,-35.67L211.3,-33.6L211,-32.58L209.3,-29.75L207,-27.57L206.2,-24.8L205.4,-23.06L204.5,-21.49L202.5,-18.68L201.5,-16.75L200.2,-13.37L199.8,-11.23L196.1,-5.047L192.4,-0.115L190,4.039L185.8,8.852L180.1,15.05L172.6,22.41L170.6,23.91L162.3,28.44L157,32.24L154.3,34.82L151.4,37.07L149.2,39.21L142.3,46.45L141.6,47.13L140.9,47.77L140.1,48.99L139.5,49.47L137.8,51.54L136.8,52.62L135.7,53.68L135.2,54.42L134.8,55.28L134.4,55.77L133.4,57.82L132.5,59.17L131.6,60.23L131.6,60.23L131.7,59.49L131.5,59.11L130.7,57.99L129.1,55.91L127.8,54.35L126.6,52.75L126.6,51.46L126.6,47.63L126.6,40L126.5,32.35L126.5,24.71L126.5,20.88L126.5,19.32L126.6,19.07L128,17.67L129.9,15.81L132.4,12.28L133.7,10.35L134.8,8.758L135.1,8.269L136.1,7.306L137.9,6.722L139.1,6.627L143,5.901L143.6,5.601L144,5.27L144.3,4.512L145.1,3.439L146.1,2.696L148,1.733L149.8,0.912L150.2,0.785L152.4,0.264L153,0.09L153.9,-0.084L154.2,-0.099L157.3,0.09L159.7,0.232L162.3,0.375L162.5,0.264L164.3,-1.648L167,-4.683L168.8,-6.628L171.5,-9.618L173.6,-11.79L176,-14.18L178.2,-16.38L180.9,-19.01L182.6,-20.68L185.3,-23.25L187.8,-25.71L190.1,-27.89L191.4,-29.95L192.7,-31.98L194.2,-34.14L195.8,-36.77L197.4,-39.22L198.8,-41.23L198.8,-42L215.9,-42ZM258.6,87.45L258.6,88.29L258.2,88.01L258.1,87.47L257.5,87.06L257.2,86.68L257.9,86.22ZM23.21,57.44L23.5,57.42L25.46,56.97L25.66,57.11L25.98,58.02L26.15,58.15L26.41,58.18L26.96,57.98L27.98,57.27L28.4,56.83L28.92,56.23L29.58,55.53L29.97,54.95L30.33,54.59L30.78,54.5L31.31,54.51L31.66,54.53L31.37,54.67L31.31,55.11L31.66,55.8L32.77,57.25L33.49,57.52L33.95,58.09L34.41,59.03L34.57,60.21L34.37,61.63L34.47,62.7L34.9,63.39L34.99,64.29L34.8,65.39L34.57,66.05L34.28,66.28L33.98,66.37L33.52,66.29L33,66.39L32.45,66.59L32.09,66.62L31.86,66.57L31.44,66.4L30.75,65.83L29.51,66.15L29.18,66.13L28.73,66.42L28.34,66.75L28.11,66.76L27.88,66.72L26.8,66.05L26.41,66.07L26.25,67.96L26.08,69.02L25.86,69.49L25.1,69.95L24.32,70.2L23.9,70.18L22.2,70.32L21.51,70.32L21.16,70.17L20.66,69.09L19.78,68.62L18.9,68.4L18.58,68.47L18.25,69.02L18.12,69.52L17.27,69.17L17.04,68.75L17.01,68.02L16.68,67.05L16.88,66.62L17.2,66.35L17.89,65.83L18.97,65.11L19.2,64.76L19.33,64.18L19.26,62.86L19.16,61.72L19.29,61.31L19.78,60.45L20.4,59.55L21.19,58.62L21.64,58.53L22.23,58.16L22.85,57.63ZM-42,209.1L-39.82,208.7L-35.8,207.9L-32.96,207.4L-32.96,207.4L-31,207L-29.18,206.6L-27.02,206.2L-25.29,205.9L-24.87,205.9L-20.69,206.2L-18.9,206.5L-18.27,206.7L-17.46,207.3L-15.93,208.8L-16.32,208.8L-19.09,209.1L-20.17,209.5L-22.55,211.3L-23.04,211.1L-23.6,210.7L-24.09,210.6L-25.13,211L-26.17,211.6L-27.32,212.3L-28.26,213L-28.59,213.4L-30.06,214.8L-30.55,215.1L-30.97,215.2L-31.14,215.1L-31.33,214.5L-32.25,213L-33.71,211.1L-34.14,210.9L-34.43,210.8L-35.51,210.9L-38.64,211.5L-41.32,211.9L-42,212L-42,209.1ZM38.72,253.4L40.02,252.3L41.29,250.9L42.8,249.3L44.17,247.8L45.34,246.5L46.94,244.7L48.54,242.9L48.93,242.7L49.09,242.6L48.41,241L49.52,239.2L49.55,238L49.52,236.9L49.65,236.4L49.98,235.9L51.28,235L52.26,233.5L53.08,232.1L54.19,229.8L54.28,229.3L54.32,228.8L53.99,228L53.27,226.8L52.72,225.7L52.23,224.1L52.72,222.7L52.88,221.8L52.88,221.4L52.69,220.9L52.13,220.6L51.67,220.4L51.54,219.8L51.54,219.1L51.74,218.7L52.95,218.1L53.21,217.8L53.34,217.4L53.37,216.9L53.73,215.5L54.19,214.2L54.22,213.8L54.06,213.4L53.93,212.7L53.86,211.6L53.83,208.6L54.09,205.5L53.99,203.7L53.21,201.7L53.14,200.2L53.7,199.2L53.8,198.6L53.37,198.5L52.52,198.4L51.9,198.2L50.95,197.4L49.29,196.7L47.4,196.1L44.66,195.9L42.37,193.9L40.58,193.5L39.99,193.3L38.26,192.1L35.58,192L32.77,191.8L31.01,191.8L30.75,191.6L30.65,190L30.65,188.5L30.49,187.2L30.23,185.7L29.84,185.1L29.35,184.1L29.09,183.1L29.05,182.5L29.15,182.3L31.11,181.6L31.93,181.2L33.17,180.7L35.35,180.1L37.31,179.6L39.11,179L41,178.5L41.78,178.1L42.73,177.7L45.02,177L45.67,176.7L47.01,176.3L47.66,176.1L50.2,175.2L53.11,174.2L54.12,173.9L56.08,173.2L56.47,173.5L57.78,175.8L58.82,177.1L60.03,178.4L60.23,178.3L60.55,178L61.17,177.9L63.03,177.6L63.78,177.6L64.24,177.3L65.22,177L66.33,176.9L66.72,177L67.9,178.7L68.06,179.9L68.32,181.7L68.39,182.6L68.35,183.8L68.22,185.2L67.28,186.9L67.08,187.8L66.56,189.1L65.87,189.7L65.55,190.2L65.58,190.8L65.94,191.2L66.72,192.1L66.98,192.6L66.92,193.1L66.92,193.7L67.11,194.2L67.31,194.4L68.12,194.9L68.88,195.9L70.21,197.2L71.78,199L72.53,199.6L73.12,199.7L73.41,200.3L73.25,201.1L72.79,201.5L72.99,202L73.22,202.4L73.51,202.5L74.23,202.5L74.85,202.4L75.01,202.2L74.95,199.5L74.46,197.9L74,197.3L73.9,197.1L74.06,196.6L74.59,195.4L75.04,194.2L75.31,193.7L75.63,193.4L77.82,193L78.83,192.7L79.22,192.4L79.55,191.5L79.81,188.8L79.91,186.4L79.68,184.9L80.01,182.8L80.5,181.4L80.23,181.1L80.07,179.3L78.64,177.4L76.81,175L75.8,173.6L74.62,172.1L72.5,169.7L71.55,168.9L71.03,168.6L69.33,168.3L68.88,167.8L68.42,167.1L68.25,165.8L68.25,164.7L68.06,163.1L67.7,160.6L67.54,159.9L67.05,158.1L66.59,156.4L66.56,156L66.72,155.6L67.5,154.3L68.09,153.4L68.35,152.9L68.81,151.6L68.94,150.9L69.3,150.7L70.8,150.5L72.01,150.6L74.03,150.5L76.19,150.6L76.48,150.7L76.97,150.8L77.49,150.8L78.11,150.6L78.77,150.1L79.52,149.4L80.66,149.4L82.19,150.2L83.04,150.8L83.2,151.4L84.22,151.7L86.14,151.8L87.58,151.5L88.46,150.8L89.37,150.5L90.32,150.4L91.07,150.7L91.56,151.2L92.51,151.6L93.91,151.8L95.44,151.5L97.11,150.6L98.06,149.7L98.28,148.7L98.55,148.1L98.87,147.9L99.75,147.8L101.2,147.8L102.4,148.1L104.1,149L105.1,148.4L106.8,147.3L108.5,146.7L110.2,146.7L111.6,146.3L112.6,145.5L113.8,145L115,144.8L116.1,144.4L117.6,143.6L119.2,142.3L120.9,141.1L121.9,140.3L122.4,141.2L123.3,142.1L122.8,142.6L122.1,143L123.1,143.6L122.4,144.6L122.3,145.2L122.5,145.4L122.7,145.8L122.2,146.9L121.5,147.7L121.4,148.3L121.9,149.4L121.7,151.3L122.2,153L122.3,153.9L122.5,154.5L122.3,155.6L122.3,157.4L122.5,158.1L122.1,159L122.7,159.3L123,160.4L122.9,161.5L122.7,162.1L121.8,162.9L121.7,163.2L121.7,163.6L122.9,163.6L122.9,164.3L122.8,164.8L122.9,165.8L122.7,166.5L123,167.2L122.7,168L122.8,168.7L122.8,169.5L123.1,171.6L123.1,174.2L123.2,174.6L123.6,174.9L124.2,175.1L124.2,175.8L123.5,176.7L123.5,177.3L123.6,178.1L124.3,177L124.8,177L125.1,177.4L125.1,178.1L125.2,178.4L125.1,179L125.4,179.8L125.3,180.5L124.8,181L124.1,181.8L123.9,182.6L124,183L123.5,183.2L123.3,183.5L123.6,184.2L123.6,184.9L122.8,186.9L120.6,189.6L119.6,190.6L118.7,191.6L118.7,192.1L118.6,192.5L117.6,194L116.5,194.2L115.8,194.6L116.3,196L115.6,196.3L114.3,197.3L110.9,199.3L110.3,199.8L109.4,201L108.3,201.3L107.6,201.7L106.4,201.8L106.1,201.7L105.7,201.8L105.3,202L103,202.9L100.9,203.6L100.4,203.9L100,204.3L98.12,205L95.15,206.7L92.73,208.3L90.97,209.9L90.52,210.2L89.96,210.7L89.8,211.6L89.6,212L88.3,213.7L86.34,215.7L85.98,216.3L85.19,217.4L85.13,218.2L84.41,218.4L83.82,217.7L83.6,219L83.11,219.1L82.58,218.9L81.28,219.5L80.14,220.3L78.31,221.9L75.7,225.1L71.91,228.2L71.39,228.3L71.06,228.3L69.85,227.2L69.2,227.1L69.79,227.7L70.18,228.3L70.08,229.3L70.11,230.9L69.66,233.9L69.72,234.6L70.25,235.4L71.26,236.5L72.24,237.8L73.44,241.6L73.54,243.5L74.82,246L74.85,247.1L75.37,249.8L75.34,252L75.24,253.3L75.86,253.9L76.09,253.4L76.02,252.5L76.19,251.1L76.51,250.5L76.87,250.6L76.97,251.3L77.2,251.8L77.3,252.4L77.3,253.1L76.84,255.9L76.97,257L77.59,258.9L76.87,261.1L75.8,266.2L75.76,267.1L75.99,267.5L76.58,267.6L76.77,267L77.13,267L77.3,267.4L76.84,269.8L76.35,270.8L74.69,273.4L73.8,274.5L72.3,275.6L68.84,277.3L61.83,279.7L59.05,281L57.42,281.7L53.89,284L52.36,285.5L51.74,287.3L51.12,288.1L50.53,289.2L51.05,290L51.58,290.7L52.16,291.2L52.49,291.6L52.88,291.8L53.31,290.4L53.5,290L53.86,290L53.66,291.7L53.24,297.5L53.21,297.7L52.23,297.7L50.53,297.8L49.52,297.8L48.38,297.9L47.01,297.6L46.22,297.6L46.16,294.4L45.9,293.7L45.63,292.6L45.57,292L45.73,291.3L45.8,290.2L45.73,289.3L44.92,288.8L44.72,288.7L44.52,288L44.46,286.8L45.05,285.4L45.02,282.7L45.08,281.7L45.05,279.8L45.05,277.5L45.05,275.5L45.05,273.7L44.88,272.9L44.75,272.4L44.36,271.5L43.91,269.5L43.38,268L42.7,267.1L42.47,266.6L42.24,265.9L41.59,264.7L41.06,264L40.94,263.4L40.94,262L40.35,259.4L39.92,257.5L39.27,255.5L38.85,254.1L38.78,253.9ZM69.14,154.6L68.97,154.3L68.68,154.2L68.35,154.3L68.22,154.6L68.58,155.1L68.97,155.1ZM69.85,155.5L70.08,155.3L70.18,155L70.18,154.8L70.02,154.6L69.79,154.5L69.5,154.5L69.36,154.9L69.33,155.4L69.53,155.6ZM277.8,234.7L276.6,235L275.3,234.8L274.8,234.3L274.7,234.1L275.2,233.9L275.1,233.3L275.4,232.2L275.6,231.8L276.3,231.4L276.5,230.5L277.1,230L277.8,229.9L278.5,230.9L279,232L278.9,233.1L278.4,233.6L278.3,234.2ZM69.85,155.5L69.53,155.6L69.33,155.4L69.36,154.9L69.5,154.5L69.79,154.5L70.02,154.6L70.18,154.8L70.18,155L70.08,155.3ZM69.14,154.6L68.97,155.1L68.58,155.1L68.22,154.6L68.35,154.3L68.68,154.2L68.97,154.3ZM56.08,173.2L55.59,172.5L55.2,172.7L54.64,173.2L54.35,173.3L54.19,173.3L54.09,173.2L53.96,172.9L53.53,172L53.04,171.4L52.55,171.1L52.13,170.8L52.29,170.6L52.49,170.4L52.42,170.2L52.2,169.9L51.28,169.4L51.28,169.2L52.06,168.9L52.55,168.4L52.91,168L53.34,167.1L53.7,166.1L53.96,165.8L54.06,165.2L53.99,164.5L54.15,163.7L54.25,162.8L53.99,162.5L53.76,161.9L54.02,161L54.45,160.3L56.47,159.6L57.88,159L58.17,158.7L58.63,158.2L58.89,157.7L58.72,157.5L57.61,157.5L57.35,157.3L56.54,155.5L56.99,153.4L57.03,152.6L56.99,151.6L56.86,150.9L56.54,150.5L56.31,150.2L56.37,149.1L56.7,148.9L57.39,147.5L57.71,146.7L57.32,146L56.93,145L56.73,144.4L56.63,144.2L56.9,143.8L57.39,143.5L57.91,143.4L58.46,143.2L60.23,141.4L60.26,141.1L59.93,140.5L59.28,139.6L59.12,139.2L59.05,138.1L58.79,137.8L57.81,137.1L57.09,136.3L57.32,135.6L57.45,134.7L57.06,134.2L56.54,133.8L56.18,133.1L56.02,132.5L55.59,132.3L55.2,132.3L54.91,132.7L54.61,132.6L54.22,132.5L54.09,132.1L54.06,131.6L53.8,131.2L53.57,130.8L53.53,130.5L53.7,130.5L54.02,130.4L55.43,131.3L56.31,131.4L57.26,131.6L58.07,132.4L58.49,132.5L59.05,132.4L60.58,132.3L61.2,132.4L61.99,132.9L62.31,133L62.8,133L62.9,132.8L62.97,132.6L62.87,132L62.97,131.7L63.29,131.3L64.11,131.7L66.23,133.5L66.3,133.7L67.64,135.5L68.06,136.3L68.06,136.7L68.48,138.2L68.58,138.9L68.48,139.5L68.52,139.9L68.68,140.6L68.61,140.8L69.1,141.7L69.33,142.5L69.36,143.3L69.23,144L68.81,145.1L68.75,145.5L68.84,145.9L69.1,146.4L69.56,146.8L69.92,147.4L70.15,148.1L70.34,148.4L70.57,148.4L71.03,148.4L71.39,148.8L71.81,149.5L71.94,150.2L72.01,150.6L70.8,150.5L69.3,150.7L68.94,150.9L68.81,151.6L68.35,152.9L68.09,153.4L67.5,154.3L66.72,155.6L66.56,156L66.59,156.4L67.05,158.1L67.54,159.9L67.7,160.6L68.06,163.1L68.25,164.7L68.25,165.8L68.42,167.1L68.88,167.8L69.33,168.3L71.03,168.6L71.55,168.9L72.5,169.7L74.62,172.1L75.8,173.6L76.81,175L78.64,177.4L80.07,179.3L80.23,181.1L80.5,181.4L80.01,182.8L79.68,184.9L79.91,186.4L79.81,188.8L79.55,191.5L79.22,192.4L78.83,192.7L77.82,193L75.63,193.4L75.31,193.7L75.04,194.2L74.59,195.4L74.06,196.6L73.9,197.1L74,197.3L74.46,197.9L74.95,199.5L75.01,202.2L74.85,202.4L74.23,202.5L73.51,202.5L73.22,202.4L72.99,202L72.79,201.5L73.25,201.1L73.41,200.3L73.12,199.7L72.53,199.6L71.78,199L70.21,197.2L68.88,195.9L68.12,194.9L67.31,194.4L67.11,194.2L66.92,193.7L66.92,193.1L66.98,192.6L66.72,192.1L65.94,191.2L65.58,190.8L65.55,190.2L65.87,189.7L66.56,189.1L67.08,187.8L67.28,186.9L68.22,185.2L68.35,183.8L68.39,182.6L68.32,181.7L68.06,179.9L67.9,178.7L66.72,177L66.33,176.9L65.22,177L64.24,177.3L63.78,177.6L63.03,177.6L61.17,177.9L60.55,178L60.23,178.3L60.03,178.4L58.82,177.1L57.78,175.8L56.47,173.5ZM15.61,331.3L14.79,331.5L14.66,331.6L14.14,331.5L13.45,331.6L12.9,331.7L12.47,331.7L11.79,332.5L10.51,334.5L10.19,334.9L10.09,335.7L9.796,336.3L9.437,336.8L9.077,336.9L8.033,336.8L6.695,336.5L5.911,335.9L5.193,335.1L4.834,334.5L4.443,334.2L4.312,334L3.757,333.8L3.561,333.6L3.365,333.5L3.17,333.1L3.039,332.8L3.072,331.9L2.68,331.3L2.027,330.4L1.603,329.6L1.048,328.5L0.689,327.6L0.33,326.7L0.362,326.3L0.721,326L1.733,325.6L2.517,325.2L3.104,324.5L3.692,323.5L4.018,322.9L4.312,322.7L4.638,322.2L5.193,321.3L5.846,320.3L6.532,319.2L7.38,318.8L8.555,318.5L9.698,317.5L11.04,316.7L13.19,315.8L14.2,315.6L14.59,315.5L14.82,315.6L15.08,316.1L15.47,316.6L16.32,317.3L16.68,317.5L17.56,318.6L18.51,319.3L19.59,320.2L20.34,320.6L20.73,320.7L21.02,321.5L21.35,322.1L21.55,322.6L21.48,323.1L21.16,324.4L20.66,325.7L20.24,326.2L19.75,326.6L19.26,327.1L19.1,328.1L18.87,329.4L18.25,329.9L17.76,330.2L17.07,330.6ZM126.7,64.43L126.4,64.51L126.6,63.99L127.6,63.31L128,63.47L128.1,63.63L128,63.76L127.9,63.9ZM62.45,53.95L62.41,52.39L62.64,48.47L62.61,45L62.8,43.27L63.65,42.19L64.04,41.38L64.34,40.27L64.8,39.37L65.81,38.63L65.97,38.22L67.05,36.99L67.7,35.4L68.19,34.87L68.78,34.36L69.2,34.11L69.92,33.84L70.47,33.69L70.57,33.56L70.61,33.31L70.44,32.33L70.67,32L71.03,31.36L71.45,30.74L71.84,30.35L72.07,29.95L72.17,29.26L72.2,28.77L72.17,27.97L72.07,26.14L71.62,24.63L71.32,22.93L71.52,22.36L71.16,21.37L71,21.31L70.7,21.09L70.34,20.16L70.05,19.29L69.89,19.07L68.68,18.33L68.06,16.55L67.37,16.15L67.02,14.39L66.95,13.9L67.34,12.13L67.28,11.72L66.88,11.36L65.74,10.98L64.83,10.26L64.93,10L64.99,9.736L64.53,9.562L63.1,6.548L64.93,4.749L66.75,2.917L69.14,0.596L71.29,-1.537L73.15,-3.371L74.82,-5.015L74.78,-4.715L74.78,-4.288L75.01,-4.035L75.34,-3.861L75.83,-4.05L76.22,-4.303L76.64,-4.351L79.16,-3.671L79.55,-3.07L79.55,-2.438L79.65,-1.964L79.45,-1.506L79.25,-0.084L79.32,1.212L80.07,2.159L80.72,2.917L81.25,3.975L81.67,4.307L82.19,4.465L83.92,4.512L86.47,4.575L88.92,4.638L89.14,4.67L89.67,4.812L91.92,6.249L93.98,7.543L95.74,8.679L97.44,9.783L99.1,10.86L100.4,11.76L101.6,12.02L103.7,12.15L105.1,12.2L106.4,12.56L108.4,12.91L109.8,13.1L110.7,13.29L113.1,13.51L113.5,13.38L114.6,12.39L115.8,10.79L116.3,9.909L117.8,9.026L120.6,7.811L122.5,6.943L124.7,6.075L125.6,6.833L127,8.032L127.6,8.631L128.1,8.9L128.8,9.073L129.7,9.073L130.2,9.042L131.2,8.884L133.5,8.742L134.8,8.758L133.7,10.35L132.4,12.28L129.9,15.81L128,17.67L126.6,19.07L126.5,19.32L126.5,20.88L126.5,24.71L126.5,32.35L126.6,40L126.6,47.63L126.6,51.46L126.6,52.75L127.8,54.35L129.1,55.91L130.7,57.99L131.5,59.11L131.7,59.49L131.6,60.23L130.3,61.79L129.2,62.49L127.8,62.83L127.3,62.76L126.7,62.54L126.5,62.92L126.4,63.5L126,63.38L125.8,63.2L125.9,64.24L126.1,64.75L125.9,65.44L125.1,66.04L125.1,66.54L123.5,67.88L121.4,68.04L120.3,68.7L119.7,69.24L119.3,70.42L119.5,72.25L118.9,73.63L118.8,74.34L117.6,75.24L117.2,76.08L116.8,76.93L116.5,77.31L116.1,79.2L115.6,80.35L115.4,80.75L115.3,81.09L114.9,81.77L114.6,82.23L114.4,82.55L113.1,85.5L112.1,86.84L111.3,86.68L110.7,87.2L110.7,87.44L110.4,87.31L109.7,86.82L108.3,85.81L106.9,84.8L105.5,83.81L104.1,82.8L102.8,81.79L101.4,80.79L99.95,79.78L98.58,78.78L97.76,78.19L97.4,77.84L97.11,77.15L96.98,76.98L96.59,76.76L96.16,76.71L96.03,76.58L96.03,76.25L96.19,75.76L96.72,74.85L96.75,74.3L96.65,73.68L96.49,72.7L96.36,72.48L95.44,71.96L93.52,70.88L91.56,69.8L89.63,68.72L87.71,67.64L85.78,66.56L83.82,65.49L81.9,64.4L79.97,63.33L78.05,62.24L76.12,61.16L74.16,60.09L72.24,59L70.31,57.93L68.39,56.84L66.46,55.77L64.5,54.69L63.78,54.27L63.13,53.95ZM164.7,163.5L164.1,163.6L163.9,163.4L163.7,162.8L163.9,162.2L163.9,161.8L163.4,161L163.9,160.5L164.3,161L164.5,161.1L165.1,161.4L164.9,162.1L164.9,162.3L164.7,163ZM261,243L259.7,243.3L258.8,243.2L257,242.3L256.5,241.8L255.8,240.2L256,239.7L256.6,238.7L257.8,238.3L259.1,238.5L259.7,238.8L260.4,239.9L261.3,241L261.2,242.4ZM148.1,-42L148.5,-41.5L149.3,-40.58L150.2,-40.21L150.5,-40.18L152.4,-38.47L153.8,-37.17L154.2,-36.96L156.8,-36.1L159.7,-35.13L162.1,-34.33L165.1,-33.33L168.1,-32.34L170.9,-31.4L174.8,-30.07L178,-29L180.5,-28.16L181,-27.89L184,-27.89L187,-27.89L190.1,-27.89L187.8,-25.71L185.3,-23.25L182.6,-20.68L180.9,-19.01L178.2,-16.38L176,-14.18L173.6,-11.79L171.5,-9.618L168.8,-6.628L167,-4.683L164.3,-1.648L162.5,0.264L162.3,0.375L159.7,0.232L157.3,0.09L154.2,-0.099L153.9,-0.084L153,0.09L152.4,0.264L150.2,0.785L149.8,0.912L148,1.733L146.1,2.696L145.1,3.439L144.3,4.512L144,5.27L143.6,5.601L143,5.901L139.1,6.627L137.9,6.722L136.1,7.306L135.1,8.269L134.8,8.758L133.5,8.742L131.2,8.884L130.2,9.042L129.7,9.073L128.8,9.073L128.1,8.9L127.6,8.631L127,8.032L125.6,6.833L124.7,6.075L122.5,6.943L120.6,7.811L117.8,9.026L116.3,9.909L115.8,10.79L114.6,12.39L113.5,13.38L113.1,13.51L110.7,13.29L109.8,13.1L108.4,12.91L106.4,12.56L105.1,12.2L103.7,12.15L101.6,12.02L100.4,11.76L99.1,10.86L97.44,9.783L95.74,8.679L93.98,7.543L91.92,6.249L89.67,4.812L89.14,4.67L88.92,4.638L86.47,4.575L83.92,4.512L82.19,4.465L81.67,4.307L81.25,3.975L80.72,2.917L80.07,2.159L79.32,1.212L79.25,-0.084L79.45,-1.506L79.65,-1.964L79.55,-2.438L79.55,-3.07L79.16,-3.671L76.64,-4.351L76.22,-4.303L75.83,-4.05L75.34,-3.861L75.01,-4.035L74.78,-4.288L74.78,-4.715L74.82,-5.015L74.82,-5.015L74.69,-5.189L73.87,-5.837L73.12,-6.676L72.66,-7.593L72.24,-8.352L72.01,-10.06L71.45,-11.11L70.93,-12.39L70.11,-14.83L69.76,-15.67L69.1,-16.24L68.42,-16.76L67.7,-17.84L65.84,-18.81L65.15,-19.55L63.91,-20.84L63.59,-21.49L63.52,-22.14L63.13,-22.74L62.45,-23.42L60.29,-24.9L59.7,-25.09L58.92,-25.25L57.81,-25.39L56.31,-25.73L55,-26.3L54.38,-26.71L54.25,-27L54.38,-27.48L54.84,-28.29L55.75,-30.23L56.37,-31.55L56.8,-31.93L57.97,-32.02L59.21,-31.98L60.09,-31.88L61.37,-31.86L62.9,-31.98L63.49,-32.42L63.98,-32.91L64.17,-33.25L64.24,-34.12L64.24,-34.81L64.14,-37.47L64.08,-39.09L64.01,-40.95L64.04,-41.33L64.04,-41.81L64.08,-42L148.1,-42ZM-42,7.24L-41.65,7.322L-41.42,7.148L-41.29,7.101L-40.9,6.675L-39.88,4.512L-39.03,3.17L-38.64,2.681L-37.63,1.97L-36.49,1.796L-35.35,1.859L-34.43,2.159L-33.58,2.523L-32.64,2.523L-31.66,2.175L-30.22,1.543L-28.72,1.133L-27.41,0.675L-25.29,-0.115L-24.44,-0.479L-23.37,-0.637L-20.4,0.09L-18.47,-0.384L-17.69,-0.242L-16.02,-0.763L-15.7,-1.111L-14.65,-2.865L-13.51,-3.386L-11.81,-3.118L-10.83,-2.849L-7.634,-2.09L-3.489,-1.316L-2.249,-1.19L-1.759,-1.111L-1.335,-1.221L0.036,-2.217L0.493,-2.359L0.885,-2.343L3.496,-1.537L3.822,-0.889L4.312,-0.242L5.879,0.864L6.368,1.48L6.76,2.159L6.988,2.696L7.478,3.123L8.164,3.391L8.751,3.723L9.11,4.196L9.632,4.702L10.68,5.365L11.17,5.38L11.75,5.475L12.24,5.665L12.8,5.601L13.68,5.159L14.72,4.417L15.51,3.96L17.43,4.133L18.51,4.496L19.36,5.033L20.01,4.986L21.48,4.023L22.23,2.996L22.98,2.775L24.13,3.217L25.07,4.181L25.89,5.586L26.44,6.122L27.26,6.943L28.82,8.726L30.88,9.61L31.66,10.05L31.93,10.49L32.09,11.08L32.12,11.71L32.38,11.98L32.94,11.88L33.4,11.79L33.92,11.98L34.28,12.43L34.47,12.8L34.67,13.19L35.16,13.43L35.29,13.93L34.93,14.53L34.57,15.07L34.11,16.15L33.88,17.26L34.18,17.62L34.51,17.93L34.67,18.25L34.77,18.61L34.73,19.02L34.05,20.57L33.66,21.91L33.66,22.58L34.57,23.09L35.78,23.06L36.17,23.37L36.53,23.86L36.85,24.1L37.38,24.1L37.74,24.27L37.87,24.6L38.26,24.98L38.62,25.39L38.45,25.91L38.42,26.32L37.57,27.42L35.61,29.59L31.4,33.62L31.37,33.62L29.97,34.11L29.22,34.85L28.73,36.03L27.49,37.02L26.54,37.42L26.44,37.67L26.38,38.74L26.48,40.33L26.02,41.05L25.36,42.47L25.04,43.35L24.78,43.52L24.48,43.97L24.32,45.4L24.19,45.89L23.73,48.86L23.86,49.71L23.5,51.13L23.47,51.95L23.34,52.89L23.08,53.71L23.11,55.02L23.24,57.16L23.21,57.44L22.85,57.63L22.23,58.16L21.64,58.53L21.19,58.62L20.4,59.55L19.78,60.45L19.29,61.31L19.16,61.72L19.26,62.86L19.33,64.18L19.2,64.76L18.97,65.11L17.89,65.83L17.2,66.35L16.88,66.62L16.68,67.05L17.01,68.02L17.04,68.75L17.27,69.17L18.12,69.52L18.12,69.87L18.15,70.25L18.58,70.72L19.39,71.66L20.01,72.55L20.05,73.32L19.91,74.61L19.88,75.37L19.95,76.38L19.95,78.29L19.91,79.64L20.01,80.34L20.99,82.01L21.42,83.87L21.64,85.23L21.64,85.67L21.32,87.23L20.93,88.75L20.93,89.32L21.09,90.09L21.81,91.85L22.3,93.13L22.56,93.9L22.92,94.79L23.37,96.16L23.5,96.83L23.41,97.32L22.43,99.04L22.33,99.58L22.59,100.9L22.88,102.2L23.34,103L24.42,105L25.23,105.7L26.7,106.7L28.01,107.7L28.53,108.2L28.99,108.8L29.9,110.3L30.46,111.6L30.75,112.7L31.47,114.2L32.12,115.6L32.97,117.4L33.59,118.6L33.85,119.4L33.85,119.4L32.28,119.6L30.03,120L27.52,120.4L24.94,120.8L22.36,121.2L19.95,121.5L17.73,121.9L17.07,122.1L17.4,123L17.24,124L16.81,124.8L16.13,125.8L15.8,126.2L15.08,126.9L14.5,127.4L13.32,128.3L12.54,128.9L12.54,129.3L13.81,131.5L14.4,133L14.63,134.4L14.63,135.2L14.56,136.9L14.53,138.9L14.43,139.7L14.79,141.1L14.72,142.1L13.84,143.4L13.62,144.6L13.19,146.2L12.57,148.5L12.15,149.7L12.41,150.4L12.6,151L12.83,151.7L13.29,152.7L13.84,153.3L14.14,153.6L15.9,154.9L16.62,155.6L17.76,156.8L18.58,157.7L19.72,157.9L21.09,158.2L21.87,158.5L22.39,158.3L22.56,158L22.52,157.4L22.46,156.9L22.59,156.6L23.05,156.3L24.25,156.3L24.78,156L25.2,155.9L25.2,157.3L25.2,158.6L25.2,160.3L25.2,162.1L25.2,163.7L25.2,165.3L25.2,167.2L25.2,167.4L25.01,167.8L24.55,168L23.9,167.6L23.86,167.2L23.7,166.5L23.41,166.2L23.02,166.1L22.36,166.2L21.45,166.8L20.27,167.2L19.82,167.4L19,167.4L18.12,167.2L17.47,166.6L17.27,165.7L16.71,164.9L15.93,163.6L15.54,163.1L15.02,162.5L14.5,162.4L13.91,162.2L13.55,161.3L13.22,160.2L13.03,159.8L12.67,159.3L12.18,158.9L11.07,158.5L9.534,157.9L7.641,157.1L6.727,157.1L5.683,156.9L5.063,156.6L4.704,156.3L4.279,155.2L3.692,153.9L2.027,152.4L1.635,150.8L1.309,150.6L0.721,150.7L0.265,150.9L0.101,151.3L-0.356,152.8L-0.617,153.5L-0.78,153.7L-1.139,153.9L-1.727,154.1L-2.608,154.2L-3.816,154.2L-5.317,154L-6.133,153.8L-8.353,153.6L-8.973,153.4L-9.887,153.1L-10.54,152.8L-12.66,152.1L-13.64,152.2L-14.1,151.7L-14.52,151.4L-15.11,151L-15.37,150.3L-15.73,148.9L-15.63,148.2L-15.37,147.4L-15.66,147.2L-16.06,147.2L-16.61,147.5L-17.59,147.6L-19.39,148L-20.04,148.2L-20.76,148.3L-21.28,148.5L-22.65,149.3L-23.11,149.3L-23.92,149.1L-24.31,148.6L-23.92,148.2L-23.76,147.6L-24.02,146.4L-24.44,145.9L-25.65,145.5L-26.11,145.4L-26.3,144.8L-26.63,144.2L-27.32,144.1L-27.64,144L-28,144.2L-28.2,144.7L-28.23,145L-28.85,145.3L-30.09,145.3L-31.33,145L-32.21,144.9L-32.8,145L-34.99,145.9L-35.7,146L-38.09,145.9L-39.43,145.8L-40.41,145.7L-41.06,146L-41.91,146.7L-42,146.7L-42,7.24ZM158.3,155.2L158.8,156.5L158.8,157.5L158.6,157.8L158.1,157.6L157.4,156.8L156,156.1L156.6,156L157,156.1L157.4,156L157.7,155.6L157.7,155.3L158.1,155.1ZM152.1,157.3L152.7,157.9L150.9,157.6L150.7,157.1L150.6,156.7L151.3,156.8ZM149.1,153.5L149,153.7L148.2,153.1L147.7,153L147,152.2L147.2,149.2L147.5,148.8L147.6,148.7L148,148.6L148.5,149L148.4,150.9L149,152.2L149.4,153.2ZM-30.64,-42L-30.78,-40.21L-31,-39.49L-32.18,-38.14L-32.21,-37.53L-31.98,-37.02L-31.63,-36.82L-31.4,-36.56L-31.53,-35.4L-31.14,-34.94L-30.25,-34.63L-28.07,-34.43L-26.93,-34.25L-26.01,-34.01L-26.01,-34.01L-25.59,-33.9L-25.36,-33.49L-25.72,-32.15L-25.46,-31.31L-24.71,-30.59L-23.95,-30.29L-23.2,-30.11L-20.66,-29.67L-19.61,-29.18L-18.21,-27.6L-16.45,-26.16L-16.02,-25.39L-16.12,-24.71L-16.64,-23.87L-16.55,-23.52L-15.76,-22.68L-14.81,-21.82L-13.15,-20.87L-10.21,-19.36L-8.875,-18.36L-8.418,-17.6L-7.667,-16.78L-6.623,-16.03L-5.937,-15.45L-6.427,-13.8L-6.264,-13.26L-6.002,-12.8L-5.415,-12.15L-5.154,-11.31L-4.566,-10.28L-3.816,-9.808L-2.64,-9.634L-1.988,-9.144L-0.682,-8.321L0.624,-7.609L1.146,-7.118L1.505,-6.691L1.799,-6.169L1.929,-5.663L1.962,-4.556L2.19,-3.181L2.876,-2.233L3.496,-1.537L0.885,-2.343L0.493,-2.359L0.036,-2.217L-1.335,-1.221L-1.759,-1.111L-2.249,-1.19L-3.489,-1.316L-7.634,-2.09L-10.83,-2.849L-11.81,-3.118L-13.51,-3.386L-14.65,-2.865L-15.7,-1.111L-16.02,-0.763L-17.69,-0.242L-18.47,-0.384L-20.4,0.09L-23.37,-0.637L-24.44,-0.479L-25.29,-0.115L-27.41,0.675L-28.72,1.133L-30.22,1.543L-31.66,2.175L-32.64,2.523L-33.58,2.523L-34.43,2.159L-35.35,1.859L-36.49,1.796L-37.63,1.97L-38.64,2.681L-39.03,3.17L-39.88,4.512L-40.9,6.675L-41.29,7.101L-41.42,7.148L-41.65,7.322L-42,7.24L-42,-42ZM32.09,66.62L31.89,66.86L31.08,68.56L30.91,68.81L30.98,68.97L31.34,69.28L31.14,69.82L31.05,69.96L30.91,70.47L30.98,70.92L31.18,71.1L31.73,71.32L32.55,71.47L33.49,71.85L34.11,71.93L34.28,72.2L34.24,72.69L34.41,73.13L34.41,73.89L34.21,74.56L33.23,74.88L32.74,75.23L32.58,75.4L32.71,75.59L32.77,75.87L31.86,76.53L30.91,77.42L30.69,78L30.49,78.7L30.23,79.15L29.48,79.78L28.76,81.08L28.4,81.93L26.57,83.95L24.97,84.94L24.48,85.29L21.64,85.23L21.42,83.87L20.99,82.01L20.01,80.34L19.91,79.64L19.95,78.29L19.95,76.38L19.88,75.37L19.91,74.61L20.05,73.32L20.01,72.55L19.39,71.66L18.58,70.72L18.15,70.25L18.12,69.87L18.12,69.52L18.25,69.02L18.58,68.47L18.9,68.4L19.78,68.62L20.66,69.09L21.16,70.17L21.51,70.32L22.2,70.32L23.9,70.18L24.32,70.2L25.1,69.95L25.86,69.49L26.08,69.02L26.25,67.96L26.41,66.07L26.8,66.05L27.88,66.72L28.11,66.76L28.34,66.75L28.73,66.42L29.18,66.13L29.51,66.15L30.75,65.83L31.44,66.4L31.86,66.57ZM-42,212L-41.32,211.9L-38.64,211.5L-35.51,210.9L-34.43,210.8L-34.14,210.9L-33.71,211.1L-32.25,213L-31.33,214.5L-31.14,215.1L-30.97,215.2L-30.55,215.1L-30.06,214.8L-28.59,213.4L-28.26,213L-27.32,212.3L-26.17,211.6L-25.13,211L-24.09,210.6L-23.6,210.7L-23.04,211.1L-22.55,211.3L-20.17,209.5L-19.09,209.1L-16.32,208.8L-15.93,208.8L-15.93,208.8L-16.12,209.3L-16.25,210L-16.09,210.5L-15.73,211.2L-15.21,211.8L-14.78,212.2L-14.33,213L-13.84,214.2L-13.22,215L-11.39,217L-11.16,217.7L-10.93,218.4L-9.756,219.8L-9.593,220.2L-9.658,221.1L-8.483,223.9L-7.7,225.5L-7.014,225.8L-4.925,227.6L-3.065,228.9L-0.911,229.9L0.689,230.5L1.472,231L1.864,231.4L2.19,232.2L2.354,233.7L2.386,234.6L4.116,234.6L5.52,234.7L6.009,234.8L6.205,235.1L6.14,235.7L6.172,236.6L6.238,237.4L6.107,238.2L5.977,239.1L5.911,240.3L6.14,240.7L7.511,242.2L8.066,243.2L8.686,244.6L9.045,245.1L9.339,245.2L10.58,245.4L13.74,246L15.7,246.6L17.27,247.1L17.89,247.3L18.22,247.4L18.32,247.6L18.12,248.8L18.18,249.2L18.38,249.6L18.64,249.9L18.97,250.1L20.14,250.2L20.86,251L21.29,251.3L19.16,251.5L18.12,252.1L17.5,253.3L16.52,254.1L15.21,254.7L13.84,255L12.37,255.2L10.84,256.2L9.175,258L8.327,259.1L8.294,259.6L7.935,260L7.217,260.3L6.825,260.7L6.727,261.2L6.368,261.4L5.683,261.4L5.226,261.7L4.965,262.4L4.377,262.9L3.463,263L2.68,263.4L2.027,264.1L1.538,264.4L1.178,264.4L0.624,264.9L-0.258,266.2L-0.421,266.8L-1.629,271.5L-2.314,272.1L-3.62,273L-4.664,274.2L-5.121,274.9L-5.611,275.2L-8.026,275.8L-8.94,276.1L-10.02,276.6L-10.28,277L-10.54,278.4L-11.29,280.5L-11.91,282.1L-12.3,283.5L-12.99,285.1L-13.57,285.7L-14.26,286.2L-15.14,286.5L-16.35,286.7L-17.43,286.6L-18.27,286.6L-19.45,287.2L-20.56,287.3L-22.29,286.9L-23.73,286.6L-24.35,286.5L-25.59,285.4L-26.4,285.4L-27.61,285.4L-28.3,285.1L-28.95,284.5L-30.32,283.4L-31.69,282.5L-32.9,282L-34.01,281.7L-35.05,282L-35.9,282.2L-36.23,282.3L-36.85,282.8L-37.5,283.7L-38.06,285L-38.25,285.9L-38.87,287.7L-39.69,289.8L-40.05,290.5L-40.5,290.9L-41.22,291.3L-42,291.9L-42,212ZM-42,199L-41.32,199.5L-40.54,200.4L-38.94,202L-36.81,204L-34.76,205.8L-32.96,207.4L-35.8,207.9L-39.82,208.7L-42,209.1L-42,199ZM-42,146.7L-41.91,146.7L-41.06,146L-40.41,145.7L-39.43,145.8L-38.09,145.9L-35.7,146L-34.99,145.9L-32.8,145L-32.21,144.9L-31.33,145L-30.09,145.3L-28.85,145.3L-28.23,145L-28.2,144.7L-28,144.2L-27.64,144L-27.64,144L-27.45,145.2L-27.25,146.9L-27.12,148.1L-26.96,148.7L-26.93,148.9L-27.09,149.3L-27.22,150L-27.48,150.6L-27.61,151.1L-27.48,151.9L-27.58,153.1L-27.68,154.3L-27.71,155.6L-27.38,157.7L-27.41,158.4L-27.84,159.5L-28.16,160.4L-28.36,161.4L-28.43,161.9L-27.64,163.3L-27.68,163.6L-28.26,163.7L-28.75,163.7L-30.65,163.7L-33.35,163.7L-36.03,163.7L-38.74,163.7L-41.22,163.7L-42,163.7L-42,146.7Z" fill="#D8E2E7" stroke="#3F464B" stroke-width="0.85" vector-effect="non-scaling-stroke"/><path d="M204.2,158.5L204.6,159.4L205.1,160.4L206.6,162.6L207.3,163.5L207.8,164.4L208.1,166.3L209.1,169.1L210,173.4L210.2,177.9L210.5,179.9L211.2,181.8L212.4,183.8L212.8,186.1L212.1,188.3L211,190.5L210.8,190.9L210.3,191.5L210.1,191.5L209.2,190.9L208.6,190L207.7,187.8L207.4,186.7L207.1,186.6L206.1,186.7L205.3,187.3L205.2,187.8L205.4,189L205.6,190.1L205.8,191.2L205.8,192.6L206.1,193L206.5,193.4L206.8,194.3L206.9,196.4L206.7,197.5L206,198.5L206,199L206.3,199.5L206,199.9L205.1,200.3L204.7,200.6L204.2,201.6L203.4,203.6L203.3,204.6L203.8,207.7L203.6,209.8L202.6,214L202,216L201.2,218.4L199.9,221.5L198.6,225.5L197.5,229.5L196.7,232L195.7,234.4L194.5,238.7L193.4,243.1L191.9,247.9L189.6,253.3L189.4,254L189,256.7L188.5,259.1L187.9,261.5L186.7,265.5L186.5,266.7L186.3,267.9L185.1,270.3L184.6,271.3L184.2,272.3L184,273.5L183.7,274.7L182.8,277L181.5,278.9L180.6,279.6L178.7,280.6L177.8,280.8L175.6,280.8L173.6,281.4L171.4,282.5L169.3,283.8L168.5,284.4L167.6,284.7L164.9,284.8L164.1,284.5L161.3,282.4L160.3,282.1L158.3,281.8L157.7,281.6L157.1,281.3L156.3,280.3L154.7,279.3L154.3,279L154.1,278.4L153.9,277.7L153.5,276.9L153.2,275.5L152.6,274.5L151.2,272.7L151,272.1L150.9,270.2L150.9,268.9L150.8,266.6L150.9,265.4L151.5,264.4L151.3,263.4L150.7,262.3L150.5,261.1L150.1,260L148.5,258.1L148.2,257.2L147.9,256.2L147.3,253.2L147.2,252.1L147.3,249.9L147.6,248.7L147.9,247.9L148,247.4L148.3,246.8L148.6,246.4L148.9,246L149.5,243.1L150.2,242.5L151.3,242.1L152.2,241.4L152.7,240.4L153.2,238.4L154.6,236.3L155,235.3L156.2,233.7L157.1,231.4L157.4,230.3L157.7,229.2L157.9,226.8L158.1,225.7L158,224.5L157.5,223.3L156.2,221.1L156.1,220.7L156.2,219.1L156.1,217.9L155.6,216.7L155,215.6L154.4,213.6L154,210.2L154.1,208.9L153.9,207.9L153.5,206.8L153.8,205L157.8,198.5L158,197.7L157.8,195.7L157.9,194.6L158,194.1L158.3,193.9L159,193.8L162.2,193.5L162.7,193.3L163.5,192.7L164.6,191.7L165.1,191.4L165.5,191.5L165.8,191.9L166.1,192.2L167.4,191.7L168,191.7L168.5,191.8L168.7,191.3L168.9,190.7L169,190.3L169.4,190.1L171.1,190L172.2,189.8L173.6,189.4L173.8,189.5L175,190.9L175.3,191.1L175.7,191.1L176.1,190.9L175.2,190.1L175.1,189.7L175.1,189.1L175.6,188.1L176.4,187.3L178.3,186L180.1,184.6L180.7,184.5L181.1,184.7L181.5,186.4L181.5,186.7L181.7,186.7L182.1,186.5L182.4,185.8L182.4,185.3L182.2,184.7L182,184.3L182,183.8L183,182.8L183.7,181.9L184.1,180.8L184.4,180.2L185.2,179.7L185.4,179.7L185.6,180.2L185.7,180.7L185.5,181.2L185.2,181.7L185.1,182.4L185.5,182.5L186,182.4L186.6,181.2L187.3,180L187.7,179.4L188.2,179L189.1,179.1L189.9,179.4L188.5,178.2L188.2,176.5L189.8,173.7L189.9,173.1L190.1,172.9L190.2,172.7L189.4,171.7L189.2,171.3L189.3,170.6L189.7,169.9L190.1,169.5L190.6,169.3L191,169.5L192,170.3L192.6,170.4L193.3,169.7L193.9,168.8L194.8,168.1L195.9,167.7L197.5,166.2L198.5,163.2L198.6,162.2L198.4,161.2L198,160.1L197.4,158.8L197.5,158.5L198.4,158.7L198.7,158.5L199.6,157.4L201.2,155.2L201.7,155.2L202.1,155.6L202.3,156.2L202.6,156.7L203.7,157.7ZM193.4,167.1L193.4,167.5L192.2,167.3L192,166.2L192.6,166.1L192.7,165.7L193.1,165.6L193.4,166.6ZM207.8,200.4L206.8,202.1L207.1,200.7L208.3,198.6L208.6,198.4Z" fill="#8B341D" stroke="#2C160F" stroke-width="1.1" vector-effect="non-scaling-stroke"/></svg>