<svg xmlns="http://www.w3.org/2000/svg" viewBox="0 0 360 440" width="360" height="440" role="img" aria-label="Regional map with North Macedonia highlighted"><rect width="100%" height="100%" fill="#7FA6D6"/><path d="M43.1,214.3L42.94,214.3L42.94,214.2L42.94,214.1L43.1,214.1ZM402,114.9L400.5,113.9L398.6,113.9L396.7,114.6L394.5,116.2L393.2,116.5L390.7,116L387.8,116.9L381.5,122.1L379.4,125.9L378.6,126.6L377.6,127.6L376.4,128L375.9,128L378.8,125.3L379.7,124.3L379.9,123.6L379.9,122.3L379,120.9L376.5,124.6L375.2,125.1L373.4,126.2L373.3,128.7L373.5,130.5L374.3,132.8L375.6,135.9L374.8,136L372.7,134.7L372.6,132.5L371,130.7L368.6,130.7L367.5,131L366.1,128.9L364.2,128.1L362.7,128.3L361.3,128L358,125.8L355.8,125.6L355.8,127.1L354.9,128.2L353.5,128.6L352.5,129L350,127.6L349.1,126.5L345.3,127.6L343.2,127.5L338.4,128.5L336.3,127.5L331.9,124.7L330.3,124.1L328.9,124.2L328.2,123.3L329.1,122.9L330.2,122.8L331.3,122.5L331.6,122L331.5,121.1L329.3,120.4L327.2,120.2L325.9,119.4L324.9,118.4L327.2,118.4L329.6,119.1L333.4,119.4L336.7,120.1L337.6,119.2L339.6,117.6L339.9,117.1L336.6,118.2L333.3,117.5L332.1,116.5L331,115.1L330.6,113.5L330.9,112L330.5,109.2L329.4,106.8L329,105.4L327.8,104.2L329,107L329.4,108.8L330.1,110.4L330,114.8L329.5,116.4L328.2,116.8L326.3,116.5L324.5,116.1L325,113.6L324,114.5L322.6,116.8L321.4,117.2L318.7,116.9L313.7,118.5L313.3,120.2L312.6,122.5L311.8,123.8L311.6,124.6L309.5,128L309.2,128.3L305.2,133.1L304.6,133.4L302,134.5L300.5,135.5L299.3,135.9L297.3,135.4L296.5,136.1L296,137L296,138.7L297.1,139.9L297.9,144.1L297.6,145.8L296.8,144.7L295.6,143.5L293.1,142.5L290.5,142.9L287.6,144.6L285.6,145.2L284.6,144.8L283.9,144.8L283.7,145.3L283.8,145.7L284.1,146L284.1,146.2L283.7,146.4L279.1,145.2L277.1,144L275.6,141.8L276.4,141.1L277,140.9L279.4,140.7L279.8,140.5L279.9,139.9L280,139.3L280,138.3L279.7,137.3L280.7,135.8L282.3,134.6L283.2,133.4L283.3,131.6L285,130.7L286.4,129.2L286.8,127.5L287.3,126.5L286.3,124.1L286.2,122.5L286.1,121.2L286.6,120.5L287.9,119.6L289.4,119L289.9,119.1L290.2,119.5L290.2,122.2L290.5,122.2L291,121.9L291.7,120.3L292.2,120.8L293,120.9L293.6,120.5L293.9,120.6L294.4,121L295.4,121.6L296.3,121.8L297,121.4L297.6,120.7L298.3,120.9L299.6,122.8L300.1,122.6L303.1,122.2L303.5,121.7L303.8,121.2L300.8,118.7L301,116.9L301.1,114.8L300.7,113.5L300.1,112.5L297.8,111.4L296,110.2L295.6,109.6L295.6,108.9L295.5,107.8L294.8,106.9L294.7,106.1L295.1,104.8L295.3,103.5L295.1,103L294.7,102.5L293.9,102.5L292.8,101.7L292.1,100.7L290.2,99.2L289.5,98.94L289.1,98.22L289,97.31L289.4,96.21L289.9,94.5L290.3,92.9L290.3,91.95L290.1,89.59L289,87.79L288.6,87.56L287.7,88.06L286.8,88.48L286.1,88.1L285.2,87.11L283.8,84.39L281.3,83.81L280.3,83.7L279.3,85L279,84.62L278.7,83.77L278.2,83.43L277.5,83.81L277.3,83.47L277.6,82.32L276.7,81.74L274.8,81.78L273.8,81.36L273.6,80.47L273,79.93L271.9,79.66L270.8,78.93L269.8,77.81L268.2,77.08L266.2,76.73L266,76.62L265.8,76.42L264.5,77.2L263.7,77.81L262.7,77.43L261.1,78.82L257.8,78.89L256.3,78.78L255.5,78.47L252.4,80.51L252.1,81.28L251.4,81.55L249.5,81.93L247.5,82.51L247.1,84.5L246.4,85.61L245.4,87.18L241.6,87.72L238.4,88.52L235.1,88.98L230.7,90.92L229.3,92.6L227.9,93.09L226.6,93.21L225.8,92.26L223.1,89.74L222,88.52L220.6,88.18L219.1,88.37L217.6,88.98L216.1,89.09L214.4,88.21L214.2,88.33L213.5,88.44L209.2,87.41L208.8,87.22L208.6,87.18L208,87.11L204.8,87.22L201.8,85.15L200.8,85.08L200.1,85.92L199.6,86.88L197.5,87.79L196.9,88.18L196.6,87.91L196.5,87.07L196.7,86.38L196.3,85.69L195.5,84.92L195.3,84.62L194.3,84.66L194.1,84.73L194,84.73L192.6,84.04L191.7,82.47L190.2,81.62L189.2,81.36L188.7,80.7L188.4,79.78L188,79.09L188,79.05L187.7,78.01L187.4,77.89L187.4,77.85L185.9,78.05L186.1,74.42L188.4,71.82L188.9,70.47L189.8,67.59L190.4,66.27L191.1,65.14L191.7,64.08L191.9,63.15L192.6,63.03L194.3,63.89L195.9,64.32L196.4,63.89L196.6,63.34L196.5,62.95L195.2,61.7L194.4,60.92L194.4,60.45L194.6,59.35L194.8,58.13L194.6,56.8L193.7,53.85L193.6,52.59L194.4,51.05L197.1,47.41L198,46.06L199.3,44.4L202.7,40.42L204.8,38.06L206.2,36.78L208.3,34.54L209.2,33.38L213.1,32.62L213.5,31.53L214.3,30.36L214.8,29.84L214.9,27.83L214.2,25.36L213.6,24.52L213.2,23.91L213.4,23.34L213.9,23.18L214.4,23.1L215,22.53L214.9,21.88L213.3,20.3L212.6,19.08L211.5,15.95L209.2,12.68L208.5,11.62L208.4,10.59L208.8,9.609L208.4,8.337L207.6,6.693L207.8,6.529L207.7,4.512L208.3,4.059L209.2,3.77L210.4,3.894L211.5,4.182L212.8,5.13L213.2,4.965L215.3,3.234L217.6,0.59L218.3,-0.899L218.8,-1.604L220.8,-1.977L222.5,-2.142L223.6,-2.101L226.3,-2.35L227.9,-2.64L229.2,-3.096L232.2,-3.304L236.8,-2.972L239.8,-2.972L241.9,-2.723L246.9,-1.314L248.8,-1.065L249.7,-0.32L251.3,-0.03L254.3,0.714L257,1.086L258.8,0.921L259.8,1.128L261.7,4.429L262.1,4.8L262.8,4.883L264.4,4.594L266.5,4.718L267.9,5.418L267.7,7.351L268,7.639L268.6,7.557L269.4,6.447L269.9,5.294L270.4,4.924L272.6,5.706L273.6,5.583L274.6,4.718L275.1,4.553L276.7,5.171L278.7,5.624L280.3,5.665L281.3,6.118L282,8.173L282.6,8.583L283.2,8.706L284.2,6.899L285,6.159L286.1,5.665L286.9,5.418L287.4,4.8L288.1,4.141L288.7,4.1L289.2,4.347L289.7,5.212L290.6,7.187L291.6,9.199L292.3,9.896L294.1,9.281L295.4,8.665L297.6,8.542L300.6,8.132L302.8,7.557L304.3,7.639L305.2,8.296L306.5,9.486L306.8,11.25L308.6,12.48L309.9,12.68L310.4,11.41L311.2,10.55L311,9.322L310.8,7.803L310.2,6.364L309.8,4.841L310.5,2.656L311.3,0.714L311.8,-0.32L313.1,-2.267L314.4,-3.636L316.4,-5.88L317.9,-6.629L319.1,-6.296L319.9,-5.964L321.8,-7.296L325.1,-7.379L327.9,-7.212L328.2,-7.171L329.6,-6.463L331,-5.88L332,-5.839L333.2,-6.005L334.6,-6.754L335.6,-7.504L336.7,-11.3L337.2,-11.85L337.8,-12.14L338.9,-12.18L340.9,-11.47L343.3,-10.84L344.7,-10.93L348.3,-12.98L350.4,-13.27L352.8,-12.81L355.2,-12.77L357,-13.06L358.2,-12.35L359.7,-10.8L361.1,-8.505L362.5,-4.301L366.7,0.466L366.8,1.376L366.5,1.995L364.4,2.574L362.6,2.862L362.6,3.687L363.1,4.553L363.9,5.871L364,7.516L363.9,9.035L364.3,10.35L364.9,10.92L365,11.58L364.2,12.39L364,12.88L364.3,13.17L368.1,13.33L370,14.15L371.4,14.85L372.1,14.93L373.7,14.48L375.5,14.15L376.5,14.11L377,14.64L377.3,16.07L378,17.45L378.6,17.86L379.6,17.82L380.2,17.86L380.6,18.39L380.2,19.2L380.3,20.06L380.7,21.15L381.3,23.59L381.8,24.31L382.1,25.24L382.1,26.33L381.7,27.26L381.4,27.99L381.7,29.64L382.8,31.49L383.7,31.93L384.3,33.58L385.6,34.1L387.4,32.74L388.7,32.01L390.5,32.41L392.1,32.66L393.2,33.62L393.9,34.9L394.9,35.62L395.8,35.26L397.7,35.62L398.6,36.66L399.5,37.26L400.6,36.42L401.5,35.34L402,35.2L402,114.9ZM331.6,125.9L333.6,127L331.5,126.7L327,125.7L325,124.8L324.4,123.7L324.2,122.3L325.3,123.8L326.1,124.5ZM242.5,248.7L239.1,249.3L238.1,248.7L239.2,247.5L241.1,246.8L241.8,246.7L242.6,247.9ZM402,311.7L401.8,311.6L400.1,311.5L399.6,311.9L399.1,313.3L398.4,316.9L398.3,317.8L399.8,321.4L399.7,321.9L398.7,322.1L397.4,322.1L396.5,322.5L395.9,323L395.5,326.1L394.1,326.7L393.3,327.3L392.6,329.2L392.3,329.2L389.9,327.8L388.8,327.7L389.7,326.2L388.7,323.3L387.6,320.5L388.6,318.8L390.8,316.6L393.2,314.1L393.2,312.6L393,311.4L392.4,310.6L391.1,309.5L389,310.7L387.4,311.9L386.5,312.2L385.4,312.9L384.8,314.2L383.5,315.2L381.4,315.7L378.2,314.5L374.8,312.9L372.8,311.5L371.2,311.2L369.8,311.8L365.3,315.1L361.2,320L360.2,320.8L356.4,322.8L353.8,323.5L352.7,323.4L347.6,324.3L345.1,324.4L343.1,325.5L339.3,324.3L337,322.8L335.6,321.3L333.4,318L331.7,316.4L328.2,315L321.8,311.5L320.2,311.1L315.9,310.6L311.4,310.3L310.5,311.6L310.2,316.6L309.4,317.9L309,320.5L308.5,321.3L307.6,321.7L306.3,320.9L305.3,320.6L303.2,321.6L298.8,323.1L297.3,323.3L292.3,321.4L290.5,320.2L289.3,318.9L288.9,316.7L288.1,315.4L288,314.5L287.8,313.5L286.8,313.1L285.6,313.8L284.5,313.8L283,313.3L279.6,311.5L276.9,311.3L275.4,313.6L274.1,314.4L272.8,314.6L272.6,313.9L273.7,312.4L269.6,312.7L267.4,313.8L265.7,313.7L264.4,313.1L264.6,312.5L265.9,312.3L267,311.8L271.5,311.4L272.5,310.9L273.7,309.3L275.8,307.9L276,307.3L274.4,307.3L267.6,307.7L262.8,307.5L262.3,308.2L261.6,308.3L261.4,306.4L262.1,305.5L263.1,305.6L265.6,304.8L265.4,303.2L263.6,302.2L263.3,301.5L262,301.4L260.9,300.6L260.7,298.7L259.9,296.6L258.7,295.6L258.9,295.1L261,294.4L261.5,291.5L261.1,289.6L260.1,289.5L256.9,288.1L255.9,288.2L254.9,286.7L253,285.6L252.1,285.9L251.5,286.5L250.7,286.2L249.3,285.3L247.9,284.7L247.2,284.1L248,282.3L249.1,282.4L249.3,281L248.5,278.7L248.6,277.5L249.5,277.2L250.5,277.4L251.6,278.8L252,280.1L251.7,281.4L252.4,282.6L252.9,283L253.2,281.6L253.7,281.4L254.3,282L255.7,282.3L259.2,281.5L259.8,280.8L257.3,280.9L256.4,280.2L255.3,278.8L254.7,277.5L254.6,276.9L254.2,275.9L254.6,275.4L256.4,274.7L257.9,272.6L257.3,272L256.5,271.7L255.7,271.9L255,271.1L254.9,270.2L255.5,269.3L255.6,268.2L253.5,265.5L253,264.9L253.4,264L255,262.5L256.4,260.6L256.2,259.9L255.1,259.7L250.1,260.5L248.1,261.2L244.6,261.5L244.4,260.5L244.5,259.6L245.3,257.9L245.2,253.8L245.6,251.5L247.6,250.9L250,247.5L253.9,243.6L257.9,243.7L259.5,242.6L261.9,242.5L262.4,243.3L262.6,244.1L264.7,245.2L268.5,245L269.4,244.6L270.2,244L268.5,242L269,241.5L270.6,241.4L272.3,241.9L272.4,242.3L271.9,242.9L271.4,244L271.9,244.2L276.7,243.6L281.7,244.1L283.3,243.8L287.3,243.8L288,243.1L286.8,242.3L285.6,242L284.9,241.6L284.1,241L286.6,239.1L288,238.8L294.7,237.6L299.7,237L299.7,236.6L299,236.6L292.5,235.7L291,234.9L288.9,233.2L288.4,232.7L287.9,231.8L288.2,229.9L288.6,228.5L289.4,227.6L291.9,227.5L300.7,229L307,228.1L313.9,230.3L320.4,229.8L321.8,228.9L323.4,225.7L332.7,220.4L335.9,217.6L339.4,216.1L345.3,214.4L350.3,212.2L351.8,211.9L363.7,213L371.9,213.1L375.7,211L377.9,211.7L377.7,212.5L377.3,213.1L377.4,214.4L378.7,216.3L380,217.6L383.9,219.5L389.2,217.9L390,218.1L391.1,218.5L393,223.6L394.5,225.3L396.3,226.6L397.9,226.8L399,225.6L399.9,225L401.8,224.8L402,224.9L402,311.7ZM272.6,212.9L272.3,215.1L273.2,217.6L275.4,221L277.5,222.8L286.4,227.1L288,227.5L287.7,229.2L287.1,230.8L286.6,231.8L283.9,232.4L276.8,230.5L275,230.3L273.7,230.8L271.3,232.1L268.7,231.7L265.1,232.4L264.1,235.1L261.5,238L257.3,240.4L254.3,241.7L249.9,246.3L247.8,248.9L247,249.5L246,249.9L246.3,248.6L246.8,247.4L246.7,246.5L246.7,245.3L248.2,243.8L249.6,242.7L253.6,240.8L254.7,239.2L251.5,239.2L248.3,239.6L246.3,239.4L244.5,239.5L243.9,238.1L243.5,237.3L244,237L244.6,236.8L245.6,235.3L246.5,234.2L247.9,232.8L248.2,232L248.2,231.2L247.9,230.7L247.8,230L247.8,229.1L247.9,227.3L250.9,225.2L251.8,225L252.2,224.1L252,221.9L251.5,220.2L251,220L250.3,219.5L249.8,218.9L249,218.3L247.7,217.9L247.7,217.3L247.8,216.8L248.3,216.2L250.5,215.7L250.8,215.3L251.1,214.3L251.5,213.3L252.1,212.9L253,213L254.8,212.7L256,212.4L257.3,211.7L257.9,211.1L260.5,210.7L261.3,210.4L262,210.7L263,211.7L264.7,213.3L265.6,213.8L266.3,213.6L267.4,213L268.6,213L269.5,213.1L270,212.6L270.7,212.5ZM29.3,376.6L29.3,377.1L28.77,380.4L28.67,381.6L28.56,383.7L28.56,386.1L29.73,388.2L29.78,389.1L29.3,390.1L27.13,391.3L24.37,392.8L21.93,394.3L19.33,395.9L18.53,396.9L17.2,397.7L16.09,398.5L15.93,399.3L15.13,400.7L14.13,401.9L11.63,402.4L11.21,402.8L10.04,404.5L9.51,405.2L8.82,406.6L9.669,410.3L10.73,414.1L10.94,415.6L10.89,416.9L10.31,418.3L8.979,420.3L8.024,421.8L6.167,424.4L5.583,425.1L4.31,425.9L1.816,426.9L0.065,427.8L-0.837,423.8L-1.633,420.3L-2.27,417.5L-3.384,412.4L-4.286,408.2L-5.241,403.9L-6.09,400L-6.939,396.1L-7.311,395.5L-9.911,393.6L-12.3,391.9L-14.74,390L-17.45,387.8L-17.87,385.2L-19.25,381.1L-20.68,378.9L-21.21,378.3L-24.13,376.8L-25.83,375.7L-26.31,375.1L-26.63,373.4L-27.85,370.2L-29.23,367.2L-29.7,365.1L-29.76,362.6L-29.49,360.7L-28.91,359.9L-26.04,357.6L-24.71,354.9L-23.07,353.8L-21.69,353L-20.52,352.1L-19.52,350.6L-18.72,349L-18.61,347.4L-18.24,344.6L-17.76,342.7L-16.54,340.6L-17.02,338.9L-17.66,337L-17.5,333.8L-17.66,332.5L-18.19,331.3L-18.72,329.8L-18.72,328.5L-18.19,325.3L-17.82,322.7L-17.18,319.4L-17.45,318.5L-17.87,317.9L-19.25,317.1L-19.3,316.7L-18.93,316.2L-16.91,314.6L-15.8,312.3L-14.9,311.7L-13.47,310.9L-13.52,310L-13.84,309L-10.23,307.9L-6.727,304.9L-5.507,304.2L2.559,301.5L3.567,301.7L4.734,302.1L4.416,303.1L3.938,303.9L4.628,305.3L5.583,304.5L5.371,303.9L5.318,303.1L6.963,303.1L8.449,303.2L10.04,304L9.934,307.2L12.06,310.3L11.47,311.9L13.22,312.8L14.76,311.7L15.56,310L18.43,309.1L21.18,306.7L22.67,306.5L22.99,308.4L23.73,310.2L22.72,310.7L21.4,312.6L18.9,317.2L16.62,318.5L14.87,320.3L14.34,321.5L14.18,323L14.6,325.6L15.82,328.2L17.31,329.8L18.69,330.3L21.93,332.8L21.87,334.3L22.35,336.1L22.51,338.2L23.63,340L21.24,343.7L19.91,346.4L17.31,350L15.03,352.4L10.09,356L8.873,357.2L8.077,358.4L7.706,359.7L7.865,361.2L9.457,364.8L11.63,367L13.81,368.2L17.63,367.7L17.52,369.1L17.79,370.8L19.33,370.7L20.39,370.4L21.24,368.8L23.15,369.9L24.1,373.3L25.69,374.4L25.85,374.8L25.32,375.1L24.84,375.5L25.32,375.7L26.86,376.2L27.76,375.9ZM25.96,348.7L23.68,350L24.16,348.9L25.64,347.5L26.01,347.8ZM21.24,367.1L20.86,367.2L20.18,367.7L19.75,367.7L18.69,367.2L18.32,367.2L17.79,366.8L17.95,364.7L18.11,364.1L20.71,364.1L22.14,365.3L22.35,365.6L22.4,366L21.77,366.7ZM402,391.7L397.4,391L395.9,390.6L394.5,389.4L393.6,388.7L391.2,388L389.7,385.7L388.8,384.9L387.2,384.5L387.4,383.7L388.3,382.2L389.1,380.7L388.6,379.9L388.5,379.2L388.4,378.3L389,377.5L388.7,376.4L388.3,375.4L388,374.9L388,374L388.2,373.3L388.4,372.2L389.1,371.6L389.3,371L389.9,370.4L390.7,369.9L390.9,369.5L390.8,369.3L390,368.8L389.5,368.1L389.9,366.9L390.2,366.6L390.7,366L391.7,365.1L392.6,365L393.3,365L394.5,365.1L395.5,365.2L395.8,365L395.7,364.8L394.5,364L394.5,363.5L394.7,362.9L395.6,362L396.6,361.3L397.1,361.1L398.2,359.8L399,358.2L397.8,354.5L397.1,353.9L395.9,353.3L395.2,353.2L395.2,353L396.1,352.1L396.8,351.2L396,350.4L394.7,350L394.3,350.9L392.6,350.9L390,350.9L388.9,346.9L388.7,345.2L388.7,343.2L389.5,340.2L389.2,338.9L389.1,338L388.9,336.7L386.9,334L388,328.9L388.8,327.7L388.8,327.7L389.9,327.8L392.3,329.2L392.6,329.2L393.3,327.3L394.1,326.7L395.5,326.1L395.9,323L396.5,322.5L397.4,322.1L398.7,322.1L399.7,321.9L399.8,321.4L398.3,317.8L398.4,316.9L399.1,313.3L399.6,311.9L400.1,311.5L401.8,311.6L402,311.7L402,391.7ZM-42,108.2L-41.7,107.6L-39.73,105.3L-37.77,103.1L-37.4,102.3L-37.08,101.8L-37.08,101.5L-37.29,101.2L-38.25,101L-38.56,100.3L-37.56,99.01L-36.28,98.22L-35.06,98.22L-34.59,98.56L-34.64,98.97L-34.11,99.43L-33.15,99.58L-32.04,99.43L-30.87,98.94L-30.18,97.8L-29.81,96.93L-28,95.94L-26.79,96.44L-23.44,96.59L-20.95,96.32L-19.41,95.64L-17.5,95.64L-16.23,96.02L-16.01,95.98L-15.64,95.87L-15.32,95.53L-14.1,95.26L-13.94,94.95L-14,94.65L-14.21,94.5L-15.7,94.65L-16.28,94.42L-16.39,93.85L-15.91,92.9L-14.85,92.14L-13.89,91.95L-13.25,92.14L-11.61,93.59L-11.24,93.66L-10.97,93.4L-10.65,93.25L-10.07,93.51L-9.486,94.42L-9.38,94.58L-5.719,94.23L-4.923,94.23L-2.429,95.83L0.118,97.46L0.118,97.46L0.542,97.72L1.604,98.71L1.391,100.3L0.171,103L-0.466,105.1L-0.519,106.7L-0.413,107.5L-0.2,107.5L0.967,107.6L1.551,107.6L3.355,108L4.84,108.7L5.159,109.4L5.318,110.2L7.069,111.3L9.085,112L9.775,111.8L12.27,109.1L13.28,109.6L13.86,111L13.81,111.7L13.12,114.5L13.01,116.1L13.6,117L13.65,117.8L13.49,118.5L12.48,118.6L11.15,118.2L10.04,117L9.139,117.1L8.396,117.4L8.024,118.6L7.706,119.9L7.812,120.7L8.343,121.3L8.767,122.5L9.032,124.1L9.298,124.9L9.032,125.2L8.343,125.4L7.759,125.2L6.698,123.3L6.22,122.5L5.424,122.4L3.991,122.9L1.816,123.9L0.914,123.9L0.171,123.7L-0.519,122.8L-1.103,121.1L-1.315,120L-1.739,120L-3.119,119.7L-3.756,120.1L-3.756,121.9L-3.915,124.2L-4.605,125.6L-6.568,128.1L-7.258,129.2L-7.576,129.9L-7.629,130.6L-7.311,131.8L-6.939,132.9L-7.258,133.5L-8.266,133.9L-9.009,133.2L-9.274,132L-10.87,130.3L-10.18,129L-10.28,128.6L-12.88,127.9L-14,126.9L-15.59,125L-15.91,124.2L-15.8,121.7L-15.91,121L-16.12,120.8L-16.86,120.8L-17.92,121.6L-18.93,123L-20.95,124.5L-21.16,124.8L-20.47,126.3L-20.52,126.8L-22.11,129.2L-22.43,129.9L-24.5,131.4L-25.46,131.9L-28.32,130.8L-29.12,130.7L-30.45,131.4L-32.25,132.1L-35.17,132.8L-36.28,132.3L-36.76,131.8L-37.03,131.1L-37.77,129.9L-38.62,129.2L-39.2,128.3L-39.94,127.5L-40.42,126.8L-39.78,124.4L-40.26,123.6L-40.53,122.4L-40.37,121.6L-40.63,121.4L-42,121.2L-42,108.2ZM191.9,63.15L191.7,64.08L191.1,65.14L190.4,66.27L189.8,67.59L188.9,70.47L188.4,71.82L186.1,74.42L185.9,78.05L185.6,78.31L180.6,79.55L179.9,79.36L179.2,78.66L178.8,78.12L178.6,77.78L178.1,76.77L177.6,76.04L176.7,75.46L175.9,74.8L174.9,74.76L172.1,75.73L170.2,75.81L169,75.5L167.3,74.92L164,74.84L161.7,75.34L161.5,76.04L159.5,80.47L156.4,82.12L153.8,83.77L153,84.12L151.7,83.58L150.2,82.62L149,82.08L148.1,82.32L147.1,83.43L146.7,84.58L143.7,85.42L138.5,85.88L136.7,86.99L136.1,88.37L136.1,89.36L136.5,90.24L136,91.27L135.7,91.69L132.1,91.91L127.2,92.22L124.3,92.14L121.5,92.06L119.7,91.19L117.4,89.47L115,87.22L114.7,87.14L114.4,86.91L112.9,86.76L112.5,86.88L111.6,86.15L111.3,85.19L109.9,82.66L108.3,78.47L108.3,77.24L108.9,75.89L109.5,74.8L109.5,73.99L109.6,73.76L110.1,72.02L111.2,69.69L112.3,68.33L113.1,67.9L114.7,68.29L117.4,68.64L119.5,68.33L121.5,67.28L122.5,66.38L123.5,65.41L123.8,64.78L124.2,64.51L125.8,63.97L126.3,63.3L126.5,62.09L126.7,60.72L127,59.7L127.4,58.96L130.4,57.19L130.7,56.56L131.2,55.94L132.1,55.27L132.9,54.28L133.8,53.69L135,53.73L136.1,53.61L137,53.26L137.3,53.22L138.9,53.53L139.1,54.64L139.3,55.82L142,55.74L143.5,53.22L144.2,52.91L145.5,52.04L146.3,51.25L146.8,51.76L147.7,53.38L148.5,54.68L149,55.19L149.1,55.58L149.6,55.82L150.6,55.98L151.2,56.37L151.4,57.59L151.4,58.69L151.1,59.47L150.9,60.17L151.6,60.45L152.6,60.17L153.3,59.78L155.4,60.68L156.1,58.69L156.9,57.63L158,57.15L159,56.53L159.9,56.09L160.5,56.09L160.7,55.94L161.5,55.98L162.4,56.17L163.6,55.94L165.2,56.45L166.3,57.35L167.3,57.66L168.5,57.63L169.3,57.12L170.4,55.35L171.3,55.35L172.6,55.07L174.4,55.11L178.7,55.46L179.8,56.17L182.4,57.04L183.6,58.02L184,59.23L184.3,60.06L187,61.31L191,62.95ZM103.2,119.6L101.9,119.1L100.3,118.9L100,119.1L99.4,119.4L99.08,119.9L99.29,122L98.92,122.3L97.12,122.1L96.53,122.3L95.58,123.8L94.57,124.3L93.35,124.8L92.39,125.3L91.23,125.7L90.22,126L89.79,126.6L89.58,127.3L89.63,127.9L90.64,129.2L90.8,130.6L90.7,132.3L90.43,133.2L90.06,133.8L87.51,134.5L84.91,135.9L84.86,136.2L86.03,137.5L86.08,137.7L85.12,138.4L85.02,139.1L85.12,139.9L85.66,140.7L85.81,141.5L84.38,142L82.47,141.8L80.19,140.8L79.34,141L78.6,141.5L77.8,141.3L76.9,140.6L75.68,139.3L75.04,138.5L74.83,137.6L74.46,137.5L73.98,137.7L73.56,138.8L72.39,140.7L71.54,141.2L70.27,141.1L68.46,141.1L67.35,141.3L65.97,140.6L65.65,140.7L65.65,141.2L65.12,141.9L64.32,142.3L60.4,141.3L59.87,140.5L60.77,140.1L61.99,139L62.78,139.1L63.79,138.8L64.27,138.4L63.58,137L61.99,135.3L61.14,134.7L59.97,134.2L59.76,133.8L60.4,131.1L60.19,130.7L58.86,130.8L58.54,130.5L58.43,130L58.54,129.4L59.44,128.3L60.45,127.4L60.72,126.9L60.66,126.5L59.39,126.1L58.59,125.6L58.01,125.5L57.59,125.7L57.27,125.5L56.95,124.7L57.27,123.5L58.38,122.4L59.65,121.4L60.77,120.7L61.35,120.4L61.67,119.2L62.31,119.3L63.63,119.3L65.07,119.6L66.39,120L67.56,120.4L70.05,120.9L72.28,121.1L72.97,121.4L73.5,121.3L74.19,121.7L74.62,121.5L74.88,121L76.1,120.4L77.27,119.6L78.01,118.6L78.49,117.9L79.23,117.3L80.08,117.1L80.83,116.9L84.01,116.5L87.3,116.8L88.89,116.3L90.17,115.3L92.02,115.1L92.13,115.1L94.94,115.8L95.15,115.4L95.26,115.2L95.21,113.1L96.11,112.2L96.96,111.8L99.77,111.9L100.1,112.6L100.2,113.5L100.5,114.8L101,115.2L101.3,115.7L101.2,116.6L101.7,117.3L103,119.1ZM194.4,167.1L193.8,167.4L193.3,168L192.9,168.9L192.8,170.4L190.9,171.6L190.2,171.8L189.9,172.6L189.4,174.8L189.4,176.4L189.7,177.2L189.8,177.9L190.5,178.8L191,180.1L191.4,181.8L192.2,183.1L194.3,184.4L195.3,185.1L196.1,186.2L196.7,187.2L198.4,188.5L198.3,189.4L197.9,190.3L197.5,190.7L196.7,191.9L195.8,192.5L194.4,194.6L192.3,194.7L191.7,194.9L190.9,195.4L190.5,196.5L190.9,197.3L190.8,198.1L190.5,199.7L191,201.4L191.7,202.2L191.8,202.7L191.7,203.5L190.6,205.1L190.2,205.7L189.1,206L188.7,205.9L188.1,205.3L187.5,205.1L186.2,205.8L184.8,206.2L183.7,205.9L182.6,205.8L181.9,206.1L181.3,206.2L180.2,206.9L178.4,207.4L177.6,207.3L177.2,206.7L176.9,205.7L177.1,205.3L178.2,204.6L178.4,203.8L180.1,200.4L180.4,199.3L180.4,198.9L179.9,198.7L179,198.7L175,197.3L175.2,195.7L174.1,194.8L172.8,194L172.6,193.1L171.1,191.4L170.1,190.4L168.8,189.9L167.6,189.2L167,188.8L166.7,188L166.7,187.5L166.3,187L165.8,187L164.9,187.7L163.7,188.2L163.5,188.7L163.9,189.6L164.2,190.2L164.1,190.8L163.7,191.6L161.5,193.2L161.3,193.8L161.7,194.7L161.4,195.1L159.6,195.7L159.7,195.2L159.5,194.4L158.5,193.6L157,192.9L153.7,190.6L152.5,190.3L151.3,190.1L149.7,188.9L148.9,188.8L147.9,188L145.9,185.3L144.2,183.9L143,183.2L142.7,182.4L142.6,181.7L142.6,181.5L143.5,180.4L144.2,180.3L145.1,180.2L145.7,180.8L146.5,180.9L146.9,180.2L147.1,179.3L147,178L145.1,175.1L143.6,173.1L143.4,172.7L143.8,172.3L144.3,172.1L144.9,172.2L146.4,172.4L147.9,172.2L148.4,171.7L148.4,171.1L147.8,170.4L146.1,168.8L144.8,167.3L143.2,166.2L142,165.7L141.7,165.2L141.5,164.5L141.7,163.4L141.7,162L142,161.1L143.1,159.4L144.1,157.6L144.7,155.8L145,154.2L144.9,153.7L144.4,153.4L143.3,153.1L141.7,153.4L140.4,154L139.9,154L139.7,153.3L139.9,152.9L140.4,153L140.7,153.1L141.1,152.8L141.3,151.8L140.7,148.4L141.7,148.1L141.7,147.6L141.8,147.2L142.8,147.8L144.2,147.8L145.5,147.7L145.7,147.3L145.7,146.8L145.4,146.5L145,146.1L144.7,145.7L143.8,145.5L141.2,144.2L139.9,142.9L139.9,141.5L140.3,140.7L140.7,140.5L140.6,140.2L139.1,139.6L138.6,138.7L139,137.5L138.2,135.2L137.4,133.7L138.2,133.1L138.3,132.2L138.4,131.7L138.7,131.7L140,131.1L140.5,130.6L140.8,130L141.1,129.9L142,130.5L142.9,130.6L143.9,130.2L144.7,129.6L145.6,129.2L146,128.9L146.5,128.4L147.6,126.9L148.9,126.6L150.4,127L152.2,127.2L153.6,126.8L156.9,127.2L157.6,127.6L158.1,127.9L159,129.2L159.8,130.8L161,131.5L162.4,132.4L163.1,133L164.1,134.9L165,135.8L165.2,135.8L165.5,135.6L165.7,135.4L165.9,135.6L165.9,136.1L166,137.4L165.8,138.8L166.1,140.1L166.1,140.5L165.9,140.8L165.9,141.1L166.3,141.5L167.4,142.3L168.4,143.6L169.6,144.6L170.8,145.2L171.5,145.2L172.6,146.2L174.9,147L175.6,147.3L176.1,147.7L176.5,148.2L176.5,148.7L176.2,149L175.6,149.7L175.5,150.6L175.1,150.8L174.7,150.8L174.5,151.1L174.5,151.5L174.9,151.8L175.3,152.2L176.2,152.5L177.1,153L177.1,153.3L176.9,153.7L175.8,153.9L175,154L174.5,154.1L174.6,154.9L177,155.7L178.1,156.4L178.6,157.3L180.2,157.9L182.7,158.2L184.4,159.2L185.4,160.8L187,160.4L189.2,158L191.4,157.4L193.5,158.5L194.6,159.5L194.9,160.2L194.3,160.5L193.2,160.4L192.2,160.8L191.4,161.9L191.3,163L191.8,164.2L192.6,165L193.6,165.5L194.1,166.1L194.2,166.9ZM389.1,482L388.2,480.9L386.9,477.7L384.2,474.9L381.9,469.9L378.3,464.8L376.8,464L373.1,463.6L371.5,463.2L370.1,464.3L370,462.9L371,461L372.4,456.9L372.7,453.3L374.9,442.7L378,443.2L380.6,443.7L384.4,444.4L388.3,445L390.6,445.4L391.3,445.3L394.5,442.7L397.4,440.3L399.1,437.4L400.7,434.6L401.5,434L402,433.9L402,482ZM43.79,174L42.89,174.1L42.46,173.3L43.1,172.3L44.05,172.2L44.21,172.9ZM402,149.2L399.9,148.6L399.6,148.1L399.5,147.4L402,146.5L402,149.2ZM402,144.1L401.6,144L401,143.5L402,142.8L402,144.1ZM402,35.2L401.5,35.34L400.6,36.42L399.5,37.26L398.6,36.66L397.7,35.62L395.8,35.26L394.9,35.62L393.9,34.9L393.2,33.62L392.1,32.66L390.5,32.41L388.7,32.01L387.4,32.74L385.6,34.1L384.3,33.58L383.7,31.93L382.8,31.49L381.7,29.64L381.4,27.99L381.7,27.26L382.1,26.33L382.1,25.24L381.8,24.31L381.3,23.59L380.7,21.15L380.3,20.06L380.2,19.2L380.6,18.39L380.2,17.86L379.6,17.82L378.6,17.86L378,17.45L377.3,16.07L377,14.64L376.5,14.11L375.5,14.15L373.7,14.48L372.1,14.93L371.4,14.85L370,14.15L368.1,13.33L364.3,13.17L364,12.88L364.2,12.39L365,11.58L364.9,10.92L364.3,10.35L363.9,9.035L364,7.516L363.9,5.871L363.1,4.553L362.6,3.687L362.6,2.862L364.4,2.574L366.5,1.995L366.8,1.376L366.7,0.466L362.5,-4.301L361.1,-8.505L359.7,-10.8L358.2,-12.35L357,-13.06L355.2,-12.77L352.8,-12.81L350.4,-13.27L348.3,-12.98L344.7,-10.93L343.3,-10.84L340.9,-11.47L338.9,-12.18L337.8,-12.14L337.2,-11.85L336.7,-11.3L335.6,-7.504L334.6,-6.754L333.2,-6.005L332,-5.839L331,-5.88L329.6,-6.463L328.2,-7.171L327.9,-7.212L327.8,-7.796L326.8,-10.09L326.2,-11.09L325.6,-11.64L325.2,-12.27L325.2,-15.03L325.3,-17.59L325.8,-17.93L324.4,-20.04L324.3,-21.64L325,-22.44L325,-23.12L324.5,-24.05L323.2,-25.62L321.9,-27.36L321,-28.76L320.5,-29.39L321.1,-30.5L322,-32.42L322.4,-33.53L322.8,-33.78L325,-33.95L326.5,-33.91L327.7,-33.53L328.1,-32.59L329.2,-31.61L332.2,-31.18L333.5,-31.23L335.1,-32.12L337.7,-34.17L338.3,-35.62L339.9,-36.65L340.9,-37.08L341.8,-37.25L341.9,-38.11L341.8,-39.31L341.5,-40.04L339,-42L402,-42ZM354.9,128.2L355.8,127.1L355.8,125.6L358,125.8L361.3,128L362.7,128.3L364.2,128.1L366.1,128.9L367.5,131L368.6,130.7L371,130.7L372.6,132.5L372.7,134.7L374.8,136L375.6,135.9L376,136.6L379.5,141.9L381.1,143.9L382.4,144.7L383.9,144.8L386.7,143.1L387.9,142.9L390.6,143.5L391.5,142.4L392.9,141.8L394.6,141.7L396.7,142.2L398.8,143L397.9,144.9L397,146.4L396.7,148.1L396.2,149.9L393.7,150.7L391.2,150.6L388.4,151.2L387.5,150.5L386.8,149.8L385.6,149.1L384,148.8L382.6,149.2L380.9,151.7L377.9,153.4L376.9,155.4L373.9,154.9L371.4,155.3L367.8,157.1L365,160.9L362,163.2L359.6,164L357.3,163.7L355.8,163L352.8,160.6L353,159.7L353.4,159.2L353.9,157.9L355.2,153.2L355,151.6L354.3,149.3L351.9,147.4L350,147.7L348.9,147.2L344.9,144L342.8,143.8L340.4,144.4L339.6,144L338.9,142.8L343.6,138.8L348.3,135.6L350.3,135.2L353,133.7L356,131.4L355.5,129.6ZM275.6,141.8L277.1,144L279.1,145.2L283.7,146.4L284.1,146.2L284.1,146L283.8,145.7L283.7,145.3L283.9,144.8L284.6,144.8L285.6,145.2L287.6,144.6L290.5,142.9L293.1,142.5L295.6,143.5L296.8,144.7L297.6,145.8L297.3,147.2L297.2,148.1L296.5,151.7L296.1,153L295.4,154.5L287.9,156.3L288.4,155.5L288.2,154L287.9,152.8L288.6,151.8L286.9,151.4L286.2,152L285.6,153L286.1,155.2L285.3,156.5L285,157.2L284.9,158.8L284.4,159.5L284.3,160.3L285.5,160.1L285,161.5L282.7,164.2L281.9,165.9L282.1,172.3L281.1,176.1L281.1,177.2L278.7,177.2L278,177.2L275.7,176.6L273.2,175.6L271.7,173.6L270.7,172.2L268.6,172.8L268.2,172.7L267.6,172L266,171.5L264,171.5L259.5,169L259,168.5L255.5,169L250.2,170.2L246.2,171.8L242,174.6L240.3,176.7L238.3,177.8L235.6,178.7L230.6,178.3L225.4,177.3L219.8,176.1L216.8,176.8L212.7,176.3L206.6,174.9L202.1,174.5L197.6,175.3L196.8,174.7L196.6,174L196.8,173L197.5,172.2L198.5,171.6L199.1,171L199.2,170.3L197.9,169.3L195.4,167.9L194.4,167.1L194.2,166.9L194.1,166.1L193.6,165.5L192.6,165L191.8,164.2L191.3,163L191.4,161.9L192.2,160.8L193.2,160.4L194.3,160.5L194.9,160.2L194.6,159.5L193.5,158.5L191.4,157.4L189.2,158L187,160.4L185.4,160.8L184.4,159.2L182.7,158.2L180.2,157.9L178.6,157.3L178.1,156.4L177,155.7L174.6,154.9L174.5,154.1L175,154L175.8,153.9L176.9,153.7L177.1,153.3L177.1,153L176.2,152.5L175.3,152.2L174.9,151.8L174.5,151.5L174.5,151.1L174.7,150.8L175.1,150.8L175.5,150.6L175.6,149.7L176.2,149L176.5,148.7L176.5,148.2L176.1,147.7L175.6,147.3L174.9,147L172.6,146.2L171.5,145.2L170.8,145.2L169.6,144.6L168.4,143.6L167.4,142.3L166.3,141.5L165.9,141.1L165.9,140.8L166.1,140.5L166.1,140.1L165.8,138.8L166,137.4L165.9,136.1L165.9,135.6L165.7,135.4L165.5,135.6L165.2,135.8L165,135.8L164.1,134.9L163.1,133L162.4,132.4L161,131.5L159.8,130.8L159,129.2L158.1,127.9L158.7,127.4L162,126.7L163.6,127.4L164.3,127.2L165,126.6L165.4,126.1L165.4,125.6L165.7,125L166.9,124.7L169.9,125.1L171.1,124.2L171.5,123.8L171.8,122.8L172.1,121.9L173.2,121.5L173.2,120.7L173,119.9L173.6,118L174,117.3L174.6,117L175.3,116.4L176.6,115.2L176.3,114.2L176.6,113.4L177.9,111.5L178.9,109.6L178.9,108.7L179,107.9L179.9,107L180.8,105.8L182.1,102.2L182.5,101.6L183.3,100.9L183.9,100.3L184,97.88L184.6,97.19L185.7,96.4L186.7,95.14L187.6,93.7L188.3,92.98L189.2,92.83L190.2,92.22L191.2,92.03L192.3,92.29L193,92.14L194,91.42L196.6,88.71L196.9,88.18L197.5,87.79L199.6,86.88L200.1,85.92L200.8,85.08L201.8,85.15L204.8,87.22L208,87.11L208.6,87.18L208.8,87.22L209.2,87.41L213.5,88.44L214.2,88.33L214.4,88.21L216.1,89.09L217.6,88.98L219.1,88.37L220.6,88.18L222,88.52L223.1,89.74L225.8,92.26L226.6,93.21L227.9,93.09L229.3,92.6L230.7,90.92L235.1,88.98L238.4,88.52L241.6,87.72L245.4,87.18L246.4,85.61L247.1,84.5L247.5,82.51L249.5,81.93L251.4,81.55L252.1,81.28L253.5,81.2L254.6,81.36L256.3,82.35L257.4,83.58L257.9,84.58L258.9,85.96L260,87.91L261.1,90.5L261.3,91.8L261.8,93.21L262.7,94.92L264.3,96.81L264.6,97.19L265.3,98.52L266.8,101.5L268,102.6L269,103.9L269.5,105.2L270.3,106.4L272.1,107.9L273.5,109.3L274.7,113.3L275.5,115.2L276,116.6L275.7,119.4L276,120.6L275.4,122.9L274.2,127.3L273.9,130.8L274.1,132.7L274.1,133.9L274.5,134.7L274.8,136.3L274.8,137.7L274.4,138.1L273.8,138.4L273.5,138.7L274.1,139.4L274.8,140.5ZM208.2,-42L210.4,-35.66L211.4,-31.74L211.8,-29.65L212.2,-26.68L212.3,-24.56L212.3,-23.37L212.1,-21.77L211.2,-20.8L205.8,-18.06L204.8,-17.21L203.2,-15.07L201.8,-12.89L201.4,-12.14L201.3,-11.68L201.7,-10.93L203.6,-9.798L205.5,-8.838L206.2,-8.129L207.5,-7.254L208.1,-6.463L208.4,-5.756L208.3,-4.134L207.7,-1.894L208,-0.237L207.3,0.88L206.8,2.119L206.7,4.306L207.6,6.693L207.6,6.693L208.4,8.337L208.8,9.609L208.4,10.59L208.5,11.62L209.2,12.68L211.5,15.95L212.6,19.08L213.3,20.3L214.9,21.88L215,22.53L214.4,23.1L213.9,23.18L213.4,23.34L213.2,23.91L213.6,24.52L214.2,25.36L214.9,27.83L214.8,29.84L214.3,30.36L213.5,31.53L213.1,32.62L209.2,33.38L208.3,34.54L206.2,36.78L204.8,38.06L202.7,40.42L199.3,44.4L198,46.06L197.1,47.41L194.4,51.05L193.6,52.59L193.7,53.85L194.6,56.8L194.8,58.13L194.6,59.35L194.4,60.45L194.4,60.92L195.2,61.7L196.5,62.95L196.6,63.34L196.4,63.89L195.9,64.32L194.3,63.89L192.6,63.03L191.9,63.15L191,62.95L187,61.31L184.3,60.06L184,59.23L183.6,58.02L182.4,57.04L179.8,56.17L178.7,55.46L174.4,55.11L172.6,55.07L171.3,55.35L170.4,55.35L169.3,57.12L168.5,57.63L167.3,57.66L166.3,57.35L165.2,56.45L163.6,55.94L162.4,56.17L161.5,55.98L160.7,55.94L160.5,56.09L159.9,56.09L159,56.53L158,57.15L156.9,57.63L156.1,58.69L155.4,60.68L153.3,59.78L152.6,60.17L151.6,60.45L150.9,60.17L151.1,59.47L151.4,58.69L151.4,57.59L151.2,56.37L150.6,55.98L149.6,55.82L149.1,55.58L149,55.19L148.5,54.68L147.7,53.38L146.8,51.76L146.3,51.25L145.5,52.04L144.2,52.91L143.5,53.22L142,55.74L139.3,55.82L139.1,54.64L138.9,53.53L137.3,53.22L137.3,52.55L137,50.89L133.8,47.61L133.4,46.22L133.6,45.71L133.4,44.83L132.7,44.32L130.2,43.68L129.5,44.04L129,43.68L128.1,42.89L126.5,42.25L126.4,41.89L125.8,41.33L125.5,41.26L125.3,41.61L124.8,42.09L123.2,42.73L122.6,42.45L122,41.93L121.3,40.78L120.4,39.78L119.6,39.42L119.1,38.86L119,38.46L120.8,37.62L121.2,36.78L120.9,35.22L120.7,35.02L120,35.54L118.5,35.98L117.1,36.22L116.4,36.22L112.6,33.38L110,32.49L108.5,32.25L108.4,32.54L109.1,34.14L110.2,36.1L110.2,36.62L108.8,37.42L108,37.78L107,38.46L106.2,39.42L105.6,39.82L105,39.74L104.4,39.26L102.7,36.34L100.7,34.14L100.5,33.62L99.88,33.5L98.97,33.02L98.66,32.3L99.13,31.61L99.72,30.93L100.8,30.53L101.1,30.16L101.4,29.6L101.7,28.84L101.6,28.59L100.9,27.75L99.72,26.94L96.53,27.55L95.68,27.95L95.21,27.42L94.83,26.58L93.99,26.45L92.92,25.69L91.6,24.96L90.32,24.76L87.67,23.71L86.66,23.67L86.08,23.3L85.44,22.49L84.91,21.64L84.65,19.85L82.68,19.08L80.72,18.55L80.61,18.84L80.67,20.59L80.56,21.56L79.29,22.13L78.01,22.21L78.12,21.88L79.61,18.72L80.3,16.68L81.09,12.97L80.14,10.02L79.87,8.665L79.45,8.008L76.79,6.57L76.58,6.076L77.01,4.1L76.79,3.275L76.16,2.408L75.31,0.714L74.94,-0.775L76.05,-2.516L76.32,-3.761L76.79,-5.506L77.11,-6.463L77.17,-6.754L76.47,-7.421L76.32,-8.379L76.47,-9.757L76.1,-10.8L75.15,-11.43L74.56,-12.31L74.25,-13.44L74.51,-15.16L75.2,-17.51L73.66,-20.33L69.84,-23.67L67.98,-26L68.14,-27.36L68.94,-28.54L70.43,-29.65L71.54,-31.57L72.12,-33.87L72.18,-34.3L72.23,-35.97L70.66,-42L208.2,-42ZM-42,-39.77L-39.78,-39.87L-38.35,-38.24L-37.56,-37.04L-36.23,-36.39L-34.16,-35.92L-34.32,-33.57L-34.27,-28.97L-34.43,-28.16L-35.38,-26.21L-36.34,-22.78L-36.6,-20.5L-36.87,-20.04L-40.79,-20.08L-41.32,-19.66L-41.43,-19.19L-41.22,-18.6L-41.32,-18.01L-41.64,-17.55L-41.48,-16.8L-40.79,-15.95L-39.57,-15.41L-38.25,-15.37L-37.56,-15.45L-37.08,-14.86L-36.55,-13.94L-36.6,-12.72L-36.81,-11.18L-37.4,-9.715L-39.2,-8.046L-40.05,-7.462L-40.79,-7.129L-41.16,-6.713L-41.32,-6.13L-41.27,-5.631L-40,-4.301L-40.05,-4.01L-40.42,-3.304L-40.9,-2.64L-42,-2.182L-42,-39.77ZM142.6,181.5L142.6,181.7L142.7,182.4L143,183.2L144.2,183.9L145.9,185.3L147.9,188L148.9,188.8L149.7,188.9L151.3,190.1L152.5,190.3L153.7,190.6L157,192.9L158.5,193.6L159.5,194.4L159.7,195.2L159.6,195.7L157.7,196.3L157.3,197.2L156.4,197.1L155.3,197.1L155,197.6L155.5,198.6L155.9,199.7L155.6,201.2L155.5,201.4L155.2,201.3L153.6,202.2L152.5,202.6L151.4,202.8L150.9,202.4L150.7,201.8L150.7,200.2L150.5,199.6L150.2,199.4L149.4,199.7L148.6,201L147.8,202.4L146.6,204L145.7,205.5L144.7,207.3L143.9,208.8L144.7,209.7L145.1,210.9L145,211.8L145.1,212.3L144.9,213.9L144.8,214.8L142.5,213.3L141.6,211.1L138.2,207.3L134.4,204.7L134.2,204.3L134.4,203.8L134.6,203.4L133.8,203.4L133.2,203.7L132.7,203.6L132.1,202.7L131.5,201.9L131.5,201.1L131.8,201L132.1,200.7L132.9,199.9L133.1,199.5L133,198.8L131.9,196.7L131.8,195.4L131.6,192.9L131.8,192.3L132.2,192L134.3,191.7L134.2,189.7L134.3,189.2L134.7,188.3L135,187.6L136.1,186.5L137.6,185.3L138.2,185.2L138.8,185.4L139.5,186.5L140.2,186.3L140.3,185L139.4,183.3L138.9,182.2L139.1,181.6L139.4,181.3L140.2,181.5L140.9,181.8L141.5,181.6L142.2,181.4ZM252.1,81.28L252.4,80.51L255.5,78.47L256.3,78.78L257.8,78.89L261.1,78.82L262.7,77.43L263.7,77.81L264.5,77.2L265.8,76.42L266,76.62L266.2,76.73L268.2,77.08L269.8,77.81L270.8,78.93L271.9,79.66L273,79.93L273.6,80.47L273.8,81.36L274.8,81.78L276.7,81.74L277.6,82.32L277.3,83.47L277.5,83.81L278.2,83.43L278.7,83.77L279,84.62L279.3,85L280.3,83.7L281.3,83.81L283.8,84.39L285.2,87.11L286.1,88.1L286.8,88.48L287.7,88.06L288.6,87.56L289,87.79L290.1,89.59L290.3,91.95L290.3,92.9L289.9,94.5L289.4,96.21L289,97.31L289.1,98.22L289.5,98.94L290.2,99.2L292.1,100.7L292.8,101.7L293.9,102.5L294.7,102.5L295.1,103L295.3,103.5L295.1,104.8L294.7,106.1L294.8,106.9L295.5,107.8L295.6,108.9L295.6,109.6L296,110.2L297.8,111.4L300.1,112.5L300.7,113.5L301.1,114.8L301,116.9L300.8,118.7L303.8,121.2L303.5,121.7L303.1,122.2L300.1,122.6L299.6,122.8L298.3,120.9L297.6,120.7L297,121.4L296.3,121.8L295.4,121.6L294.4,121L293.9,120.6L293.6,120.5L293,120.9L292.2,120.8L291.7,120.3L291,121.9L290.5,122.2L290.2,122.2L290.2,119.5L289.9,119.1L289.4,119L287.9,119.6L286.6,120.5L286.1,121.2L286.2,122.5L286.3,124.1L287.3,126.5L286.8,127.5L286.4,129.2L285,130.7L283.3,131.6L283.2,133.4L282.3,134.6L280.7,135.8L279.7,137.3L280,138.3L280,139.3L279.9,139.9L279.8,140.5L279.4,140.7L277,140.9L276.4,141.1L275.6,141.8L274.8,140.5L274.1,139.4L273.5,138.7L273.8,138.4L274.4,138.1L274.8,137.7L274.8,136.3L274.5,134.7L274.1,133.9L274.1,132.7L273.9,130.8L274.2,127.3L275.4,122.9L276,120.6L275.7,119.4L276,116.6L275.5,115.2L274.7,113.3L273.5,109.3L272.1,107.9L270.3,106.4L269.5,105.2L269,103.9L268,102.6L266.8,101.5L265.3,98.52L264.6,97.19L264.3,96.81L262.7,94.92L261.8,93.21L261.3,91.8L261.1,90.5L260,87.91L258.9,85.96L257.9,84.58L257.4,83.58L256.3,82.35L254.6,81.36L253.5,81.2ZM-30.61,177.1L-31.51,177.4L-31.45,177L-31.24,176.7L-30.98,176.6L-30.66,176.8ZM74.46,328.9L73.93,329.5L72.55,329.4L71.28,328.5L71.28,326.6L72.71,327L74.03,328.3ZM70.69,325.7L69.84,325.9L68.94,325.4L68.73,325.1L69.95,324.8L70.58,325L70.8,325.5ZM0.967,107.6L-0.2,107.5L-0.413,107.5L-0.519,106.7L-0.466,105.1L0.171,103L0.33,103.3L0.383,103.8L0.542,104.2L0.595,104.8L0.808,105.4L1.232,106L1.391,106.5L1.179,107.2ZM4.306,482L4.098,481.3L3.514,478.4L3.408,476.6L4.575,472.9L5.902,469L5.053,464.7L4.416,456.1L4.84,449.2L4.469,446.7L4.257,445.6L3.408,442.4L2.293,439.1L1.816,437.9L0.436,435.2L-1.845,431.8L-3.013,429.8L-1.421,428.7L0.065,427.8L0.065,427.8L1.816,426.9L4.31,425.9L5.583,425.1L6.167,424.4L8.024,421.8L8.979,420.3L10.31,418.3L10.89,416.9L10.94,415.6L10.73,414.1L9.669,410.3L8.82,406.6L9.51,405.2L10.04,404.5L11.21,402.8L11.63,402.4L14.13,401.9L15.13,400.7L15.93,399.3L16.09,398.5L17.2,397.7L18.53,396.9L19.33,395.9L21.93,394.3L24.37,392.8L27.13,391.3L29.3,390.1L29.78,389.1L29.73,388.2L28.56,386.1L28.56,383.7L28.67,381.6L28.77,380.4L29.3,377.1L29.3,376.6L31.58,377.8L33.87,378.2L40.76,382.3L42.89,382.9L47.72,383.3L53.39,381.6L55.52,381.3L59.28,382.9L60.93,383.4L63.69,383.5L68.41,384.9L69.58,385.4L72.34,387.7L73.66,388.4L83.43,390.5L84.75,391.9L86.13,394.5L86.19,397.8L86.93,400.2L88.15,403.3L89.63,405.4L91.23,407.3L93.08,408.4L97.38,410.1L102.2,410.7L107.1,410.9L115.5,413.2L122.5,415.9L124.3,417.2L127.8,418.4L134.9,424.6L138.9,426.8L141.6,427.2L144.1,426.8L148.5,424.7L150.3,423.4L154.7,418L156.2,415.2L156.8,413.3L156.6,411.2L156.1,409.4L154.8,407.5L153.9,405L153.5,400.5L154.2,397.3L155,395.4L156.3,393.5L160,389.8L163.7,387.2L170.2,383.8L174,383.7L175.5,383.4L178.6,380.9L179.9,380.8L181.6,381.4L186.8,381.3L189,381.9L191.7,383.5L195.1,384.4L197.5,385.3L200.1,386.5L200.6,389.5L200.4,390.4L200.3,391.5L203,393.6L210.5,394.6L212,395.1L214.1,396.7L215.4,397.2L220.5,397.4L223.6,397L226.4,397.6L227.5,398.1L228.6,399.3L229.9,402.3L230.5,403.3L229.9,403.8L229.1,404.8L228.6,405.7L227.2,407.2L226.1,408.8L226.2,411.2L226.4,413.6L227.2,415.9L227.9,418.4L227.7,420.1L227.1,422.2L226.4,423.9L224.2,427.4L223.8,428.3L224,429.5L225.3,433.7L225.4,434.9L226.3,439L227,442.3L227.8,444.9L227.9,445.6L227.9,449.4L227.9,453.1L227.9,456.9L227.9,460.7L227.9,464.4L227.9,468.2L227.9,471.9L227.9,475.6L227.9,479.4L227.9,482L4.306,482ZM390,350.9L392.6,350.9L394.3,350.9L394.7,350L396,350.4L396.8,351.2L396.1,352.1L395.2,353L395.2,353.2L395.9,353.3L397.1,353.9L397.8,354.5L399,358.2L398.2,359.8L397.1,361.1L396.6,361.3L395.6,362L394.7,362.9L394.5,363.5L394.5,364L395.7,364.8L395.8,365L395.5,365.2L394.5,365.1L393.3,365L392.6,365L391.7,365.1L390.7,366L390.2,366.6L389.9,366.9L389.5,368.1L390,368.8L390.8,369.3L390.9,369.5L390.7,369.9L389.9,370.4L389.3,371L389.1,371.6L388.4,372.2L388,372.5L387.2,373.3L386.5,374L384.9,375L384.5,375.6L384.2,375.1L383.5,375.4L382.9,377.7L381.7,378.5L380.2,378.4L378.9,378.2L377.2,378.4L377.9,377L378.6,375.3L379.3,372.9L380.6,371L383.2,364.3L384.7,361.6L385.2,357.7L387.5,354.4L389.2,353.4L390,352.4ZM402,433.9L401.5,434L400.7,434.6L399.1,437.4L397.4,440.3L394.5,442.7L391.3,445.3L390.6,445.4L388.3,445L384.4,444.4L380.6,443.7L378,443.2L374.9,442.7L375.4,440.5L375.2,439.3L376,435.3L376.4,433.5L376.6,432.1L377.7,429.3L377.6,428.4L377.8,425.2L377.7,424.5L378.2,422.8L379.1,420.2L380,418L380.4,417L381.3,414.9L382.1,412.3L381.6,410.9L381.5,410.6L381.9,409L382.3,406.3L382.5,404.9L383,403L383.9,401.4L383.4,397.6L383.5,395.5L384.1,393.2L383.8,390.4L384,386.5L384.1,386.1L384.4,385.7L384.6,385.4L386.5,384.6L387.2,384.5L387.2,384.5L388.8,384.9L389.7,385.7L391.2,388L393.6,388.7L394.5,389.4L395.9,390.6L397.4,391L402,391.7L402,433.9ZM43.1,214.3L43.1,214.1L42.94,214.1L42.94,214.2L42.94,214.3ZM43.79,174L44.21,172.9L44.05,172.2L43.1,172.3L42.46,173.3L42.89,174.1ZM-42,148.5L-41.64,148.3L-40.32,148.2L-39.41,148.5L-37.34,146.8L-36.6,146.6L-35.91,146.3L-35.38,144L-34.9,143.3L-34.8,142.9L-35.22,142.4L-36.87,140.8L-37.66,139.1L-38.83,137.2L-39.94,136.4L-40.16,135.7L-40.21,134.9L-39.94,134.2L-37.98,133.1L-36.76,131.8L-36.76,131.8L-36.28,132.3L-35.17,132.8L-32.25,132.1L-30.45,131.4L-29.12,130.7L-28.32,130.8L-25.46,131.9L-24.5,131.4L-22.43,129.9L-22.11,129.2L-20.52,126.8L-20.47,126.3L-21.16,124.8L-20.95,124.5L-18.93,123L-17.92,121.6L-16.86,120.8L-16.12,120.8L-15.91,121L-15.8,121.7L-15.91,124.2L-15.59,125L-14,126.9L-12.88,127.9L-10.28,128.6L-10.18,129L-10.87,130.3L-9.274,132L-9.009,133.2L-8.266,133.9L-7.258,133.5L-6.939,132.9L-7.311,131.8L-7.629,130.6L-7.576,129.9L-7.258,129.2L-6.568,128.1L-4.605,125.6L-3.915,124.2L-3.756,121.9L-3.756,120.1L-3.119,119.7L-1.739,120L-1.315,120L-1.103,121.1L-0.519,122.8L0.171,123.7L0.914,123.9L1.816,123.9L3.991,122.9L5.424,122.4L6.22,122.5L6.698,123.3L7.759,125.2L8.343,125.4L9.032,125.2L9.298,124.9L9.032,124.1L8.767,122.5L8.343,121.3L7.812,120.7L7.706,119.9L8.024,118.6L8.396,117.4L9.139,117.1L10.04,117L11.15,118.2L12.48,118.6L13.49,118.5L13.65,117.8L13.6,117L13.01,116.1L13.12,114.5L13.81,111.7L14.18,112L15.66,112L17.31,112.1L18.32,113.3L19.33,113.7L20.81,113.8L21.77,113.6L22.25,113.2L22.83,111.9L23.84,110.2L25.48,109.4L28.24,109.2L29.67,108.9L31.11,108.9L32.17,109.2L33.28,109.1L36.15,108L39.12,107L39.54,107.2L39.6,107.5L39.07,108.2L38.53,109.1L38.91,110.2L40.55,112.4L41.45,114L42.36,115.2L43.68,115.9L45.43,116.3L46.92,116.4L48.51,116.9L53.82,118L56.52,118.3L58.59,118.4L61.67,119.2L61.35,120.4L60.77,120.7L59.65,121.4L58.38,122.4L57.27,123.5L56.95,124.7L57.27,125.5L57.59,125.7L58.01,125.5L58.59,125.6L59.39,126.1L60.66,126.5L60.72,126.9L60.45,127.4L59.44,128.3L58.54,129.4L58.43,130L58.54,130.5L58.86,130.8L60.19,130.7L60.4,131.1L59.76,133.8L59.97,134.2L61.14,134.7L61.99,135.3L63.58,137L64.27,138.4L63.79,138.8L62.78,139.1L61.99,139L62.89,138.1L60.61,135.1L59.6,135.1L58.22,136.4L54.4,135.1L53.66,135.6L53.13,136.6L51.8,137.9L49.94,138.5L47.82,139.9L45.65,140.9L43.95,141.6L42.99,141.5L44.53,139.9L43.84,139.8L41.83,141L40.66,141.9L40.29,143.6L39.91,146.2L40.82,146.9L42.41,150.5L44.32,151.9L43.95,153.4L43.47,154.5L42.3,155.5L41.29,154.8L40.71,154.8L40.29,157.1L41.13,163.1L42.46,167.4L43.79,169.2L46.81,172.1L50,173.6L55.73,178.4L58.86,179.9L59.65,180.7L61.56,184.4L63.21,188.6L64.96,195.2L66.23,198.5L68.78,202.2L74.09,207.4L78.86,211.2L83.32,213.6L86.82,214L95.05,213.5L96.48,213.7L98.02,214.3L98.34,215.9L97.81,217L96.06,218.2L94.3,219.7L94.09,221.9L95.74,223.4L103.7,227.4L111.8,230.7L114.4,232.4L117.3,235.1L124.4,238.7L125.6,240.4L129.9,244.2L131.8,247.1L132.2,249.3L131.3,251.6L130.9,253.2L130.1,254.8L128.3,254.2L126.2,252.5L123.1,245.9L117.3,245.3L116.2,244.8L114.1,243.6L114,242.9L113.5,241.9L113,241.6L110.8,241.4L109.3,242.5L107.5,245L105.4,248.7L103.4,254L103.3,256.2L104.4,258.3L107.7,259.4L110.3,261.3L112,263.2L112.1,267.8L112.9,270.5L111.8,271.9L109.6,271.6L106.7,272.5L104.7,274.2L103.8,275.8L104,280L103.6,281.6L99.72,284.6L97.7,287.6L97.17,288.9L96.43,290.4L91.49,290.4L90.38,288.6L90.32,286L91.17,284.3L92.98,283.6L94.14,280.2L93.77,277.7L94.52,276.6L95.15,275.9L96.53,275.4L98.5,275L98.66,271.5L97.17,270L96.64,267.8L95.9,263.7L93.4,258.5L92.08,253.8L91.07,251.5L89.47,250.3L86.61,250.3L85.18,250L80.08,246.7L79.77,246.2L79.77,245.4L80.61,244L80.08,242.3L79.45,240.6L78.49,239.1L77.38,238.4L75.09,238.9L74.3,239.2L72.87,239.1L71.75,239.7L71.12,239.7L72.87,237.2L72.39,236.6L70.64,235.6L68.25,235.4L67.61,235.3L67.19,236L66.76,235.6L66.82,234.5L64,229.4L62.15,227.3L61.25,226.9L59.55,227.4L56.68,226.5L54.98,226.3L54.08,226.5L52.65,227.2L51.96,226.7L51.7,226.1L49.15,223.9L45.91,222.7L39.65,216L37.74,213.4L33.76,210.6L31.27,206.5L29.2,205L26.23,203.8L25.54,204L24.63,204.4L23.94,204.5L23.41,204L23.94,203.4L24.58,203.2L24.37,201.6L20.97,197.5L18.95,196.2L18.43,195.4L18,194.3L17.57,193.6L16.62,193.1L15.82,193.2L14.71,192.9L14.76,190.9L14.97,189.4L14.82,188.1L13.76,184.8L11.85,181.9L10.78,175L9.881,173L7.812,171.5L3.142,169.9L-3.331,165.4L-4.711,165.3L-8.637,163.6L-11.08,163.3L-14.21,164.8L-18.03,169.1L-21.16,173.6L-22.27,174.5L-26.25,176L-29.81,176.7L-29.86,175.6L-29.97,174.7L-29.39,173.8L-28.38,172.7L-27.48,171.2L-27.1,170.2L-27.26,169.6L-27.69,168.6L-28.27,168.5L-31.61,169.3L-32.41,169.1L-34.9,167.8L-37.56,166.2L-38.56,165L-38.94,163.9L-38.67,163.1L-38.88,162.4L-39.41,161.4L-38.94,160.3L-38.09,158.9L-37.66,158L-36.97,157.7L-36.65,157.2L-37.19,154.9L-37.5,154.5L-37.98,154.2L-38.72,154.2L-40,153.7L-40.95,152.9L-41.16,151.8L-41.64,150.8L-42,150.4L-42,148.5ZM12.96,195.1L13.44,195.9L13.49,196.4L13.17,196.9L13.33,198L12.06,197.1L10.2,197.5L9.085,197.4L8.767,196.6L9.032,196.1L10.78,196L11.37,195.7L12.43,195.8ZM65.17,237.7L64.54,237.8L64.16,237.6L63.95,237.3L64.22,236.6L65.54,237L65.49,237.4ZM37.37,312.3L36.68,312.5L35.72,311.9L35.67,311L35.83,310.7L37,311.1L37.31,312ZM89.32,285.1L88.31,287.3L87.83,288.1L84.28,293.3L83.9,294.5L83.64,295.8L83.27,296.9L82.79,298L82.31,299.4L82.36,300.9L82.58,301.6L83,302.2L83.69,302.6L84.22,303.3L83.37,304L84.33,305.3L85.07,306L85.18,306.8L85.18,307.6L83.58,309.1L82.95,309.8L82.52,310.8L82.36,311.8L82.52,312.7L82.47,313.6L80.88,313.5L79.18,312.9L77.54,313.2L75.15,312.1L74.3,312L73.5,311.5L71.49,308.3L69.89,307L68.2,305.9L66.45,305.8L64.69,306L63.16,305.3L60.03,303.1L56.68,301.4L55.25,300.3L54.61,299.5L53.87,299L51.96,298.4L50.21,297.3L49.47,297.2L47.77,297.3L46.92,297.3L46.07,296.8L44.37,295.4L43.31,293.5L43.05,292.6L43.79,290.4L44.69,288.3L45.49,287.7L46.39,287.2L46.97,286.6L47.45,285.8L49.15,288.1L49.94,288.6L50.69,288.5L52.07,287.7L52.17,286.8L53.71,285.7L55.62,285.7L56.52,285.9L57,286.9L57.74,287.2L58.59,287.3L61.41,289.3L62.2,289.6L63,289.6L65.17,288.8L66.82,288.5L70.32,288.9L72.23,288.4L73.56,288.4L75.47,287.7L76.95,286.4L77.75,286.1L78.54,286L80.56,286.1L82.58,286.4L83.43,286.1L84.12,285.3L84.97,284.9L85.87,285.2L88.2,283.8L89.21,283.7L90.17,284.2ZM1.71,234.2L2.453,235.5L4.098,240.6L4.257,241.7L3.938,242.8L3.514,243.6L1.869,246.1L2.134,248.2L2.718,249.6L2.824,251L2.506,252.8L1.498,263.7L1.02,265.6L0.702,267.3L-0.413,267.8L-1.898,267.2L-3.703,266.3L-4.552,266.4L-5.401,266.7L-6.09,266.4L-6.78,265.9L-7.258,269.6L-8.107,271.1L-9.327,272.1L-10.55,272.1L-11.77,271.8L-12.78,271.8L-13.57,271.1L-14.21,269.9L-15.16,268.3L-16.17,266.5L-16.28,264.9L-16.44,261.3L-16.17,260.5L-15.75,259.7L-15.54,258.1L-15.7,256.7L-15.38,256.2L-14.79,256.7L-14.37,256.5L-14.42,255.8L-14.26,254.4L-15.06,253.3L-16.33,252.9L-16.44,251.8L-16.33,250.6L-15.64,249.8L-15.43,248.8L-15.38,245.7L-16.33,244.5L-16.65,242.8L-17.13,241.7L-17.98,240.5L-18.93,239.6L-19.57,238.7L-19.67,236.4L-19.36,234.4L-19.04,233.6L-18.72,233.7L-17.76,234.7L-16.97,234.9L-15.43,235.2L-13.89,234.9L-12.03,234L-10.23,232.9L-7.629,229.8L-6.037,229.2L-5.188,228.3L-4.923,227.2L-4.233,226.9L-3.437,228L-2.429,228.1L-0.89,229L-0.254,229.9L0.33,230.9L0.861,231.3L1.444,231.6L1.551,231.8L1.073,232.1L0.542,233.3L0.861,233.6ZM-15.27,269.1L-16.12,271L-17.02,269.7L-17.07,268.5L-16.91,268.2L-15.85,268.7ZM-18.14,231.2L-18.61,232L-19.3,232L-19.04,231.3L-18.4,230L-17.61,229.6L-17.29,229.9L-17.66,230.7ZM388.4,372.2L388.2,373.3L388,374L388,374.9L388.3,375.4L388.7,376.4L389,377.5L388.4,378.3L388.5,379.2L388.6,379.9L389.1,380.7L388.3,382.2L387.4,383.7L387.2,384.5L386.5,384.6L384.6,385.4L384.4,385.7L384.1,386.1L384,386.5L383.8,390.4L382.8,390.3L381.5,389.5L381.3,388.7L380.9,388.5L380.1,388.4L378.5,388L376.6,389.3L375.8,391.4L375.6,392.4L375,394.5L375.2,395.8L375.3,397.5L375.5,398.8L375.3,399.6L375,400.1L375.1,400.4L375.4,400.5L376.4,400.1L377.5,400.5L378.6,401.2L378.6,401.6L377.9,401.9L376.1,403L374.9,404.2L374.6,405.3L373.7,407.8L373.8,408.3L374.3,408.6L377.1,408.3L379.7,407.3L381.6,406.3L382.3,406.3L381.9,409L381.5,410.6L381.6,410.9L382.1,412.3L381.3,414.9L380.4,417L380,418L379.1,420.2L378.2,422.8L377.7,424.5L377.8,425.2L377.6,428.4L377.7,429.3L376.6,432.1L376.4,433.5L376,435.3L375.2,439.3L374.2,440.6L373.7,439.1L372.6,434.9L371.7,432L370.6,428.4L368.7,424.1L368.5,423.1L368.1,421.5L366.8,417.5L365.7,414.7L364.5,411L366,409.6L366,408.3L368.6,405.5L368.6,405.3L367.9,404.5L368,404.4L370.9,399.1L372.7,393.9L374.5,386.6L375.7,382.9L376.8,380.4L377.2,378.4L378.9,378.2L380.2,378.4L381.7,378.5L382.9,377.7L383.5,375.4L384.2,375.1L384.5,375.6L384.9,375L386.5,374L387.2,373.3L388,372.5ZM367.9,404.5L368.6,405.3L368.6,405.5L366,408.3L366,409.6L364.5,411L364,409.6L363.8,409L366.6,406.3ZM383.8,390.4L384.1,393.2L383.5,395.5L383.4,397.6L383.9,401.4L383,403L382.5,404.9L382.3,406.3L381.6,406.3L379.7,407.3L377.1,408.3L374.3,408.6L373.8,408.3L373.7,407.8L374.6,405.3L374.9,404.2L376.1,403L377.9,401.9L378.6,401.6L378.6,401.2L377.5,400.5L376.4,400.1L375.4,400.5L375.1,400.4L375,400.1L375.3,399.6L375.5,398.8L375.3,397.5L375.2,395.8L375,394.5L375.6,392.4L375.8,391.4L376.6,389.3L378.5,388L380.1,388.4L380.9,388.5L381.3,388.7L381.5,389.5L382.8,390.3ZM185.9,78.05L187.4,77.85L187.4,77.89L187.7,78.01L188,79.05L188,79.09L188.4,79.78L188.7,80.7L189.2,81.36L190.2,81.62L191.7,82.47L192.6,84.04L194,84.73L194.1,84.73L194.3,84.66L195.3,84.62L195.5,84.92L196.3,85.69L196.7,86.38L196.5,87.07L196.6,87.91L196.9,88.18L196.6,88.71L194,91.42L193,92.14L192.3,92.29L191.2,92.03L190.2,92.22L189.2,92.83L188.3,92.98L187.6,93.7L186.7,95.14L185.7,96.4L184.6,97.19L184,97.88L183.9,100.3L183.3,100.9L182.5,101.6L182.1,102.2L180.8,105.8L179.9,107L179,107.9L178.9,108.7L178.9,109.6L177.9,111.5L176.6,113.4L176.3,114.2L176.6,115.2L175.3,116.4L174.6,117L174,117.3L173.6,118L173,119.9L173.2,120.7L173.2,121.5L172.1,121.9L171.8,122.8L171.5,123.8L171.1,124.2L169.9,125.1L166.9,124.7L165.7,125L165.4,125.6L165.4,126.1L165,126.6L164.3,127.2L163.6,127.4L162,126.7L158.7,127.4L158.1,127.9L157.6,127.6L156.9,127.2L153.6,126.8L152.2,127.2L150.4,127L148.9,126.6L147.6,126.9L146.5,128.4L146,128.9L145.6,129.2L144.7,129.6L143.9,130.2L142.9,130.6L142,130.5L141.1,129.9L140.8,130L140.5,130.6L140,131.1L138.7,131.7L138.4,131.7L138.3,131.7L137.3,132.1L135.7,132.4L134.8,132.2L133.4,134.2L132.9,134.6L131.5,135.2L130.3,135.5L129.3,135.2L129,135.2L124.5,135.1L122.2,134.7L120.7,133.9L119.7,133.1L119.2,132.1L118.1,131.5L116.3,131.3L114.9,130.3L113.9,128.6L112.5,127.3L110.8,126.3L109.4,124.9L108.4,123L106.6,121.4L104,119.9L103.2,119.6L103,119.1L101.7,117.3L101.2,116.6L101.3,115.7L101,115.2L100.5,114.8L100.2,113.5L100.1,112.6L99.77,111.9L96.96,111.8L99.29,109.4L100.5,108.8L101.8,108.9L102.3,108.7L102.4,108.4L102.6,107.6L102.7,106.9L102.8,106.2L102.7,105.8L102.1,105.7L101.7,104L102.1,103.4L102.4,102.9L102,100.9L102.1,100.2L103.2,100.1L104,99.62L104.8,99.13L105,98.48L105.6,97.19L105,95.6L101.9,94.58L101.8,94.16L102.5,93.7L103.3,93.06L103.7,92.56L104.3,92.48L105.1,92.75L106.6,93.89L107.1,94.08L107.7,93.74L108.3,93.66L109.9,93.7L111.3,93.44L111,92.22L111,91.3L110.8,90.58L110.9,89.82L111.4,89.21L111.6,87.83L112.5,86.88L112.9,86.76L114.4,86.91L114.7,87.14L115,87.22L117.4,89.47L119.7,91.19L121.5,92.06L124.3,92.14L127.2,92.22L132.1,91.91L135.7,91.69L136,91.27L136.5,90.24L136.1,89.36L136.1,88.37L136.7,86.99L138.5,85.88L143.7,85.42L146.7,84.58L147.1,83.43L148.1,82.32L149,82.08L150.2,82.62L151.7,83.58L153,84.12L153.8,83.77L156.4,82.12L159.5,80.47L161.5,76.04L161.7,75.34L164,74.84L167.3,74.92L169,75.5L170.2,75.81L172.1,75.73L174.9,74.76L175.9,74.8L176.7,75.46L177.6,76.04L178.1,76.77L178.6,77.78L178.8,78.12L179.2,78.66L179.9,79.36L180.6,79.55L185.6,78.31ZM270.4,316L270,316.3L269.3,315.5L269.3,315.1L270,314.5L270.4,314.5L270.5,314.8L270.5,315.5ZM163.6,282.1L163.8,284.2L164.8,284.6L166.2,286.6L166,287.6L165.7,287.9L163.4,287L162.9,287.4L162.2,287.3L161.9,286.2L161.9,285.8L161.5,285.2L161.2,284.9L160.3,285.7L159.7,285.9L159.7,285.1L160.6,282.9L161,282.6L161.6,283.3L162.2,283L162.6,281.9L162.6,280.7L162.8,280.3ZM167.6,292.9L169.2,294.7L168,294.2L166.6,295.5L164.9,294.1L163.9,292.6L163.7,292L164.7,290.6L165.7,292L166.9,292.2ZM164.7,277.8L164.1,278L163.6,277.9L163.1,277.9L162.7,278.3L162.8,276.8L163.3,275L163.9,273.9L164.8,273.4L165.1,274.2L165.1,277.3ZM165.7,283.1L165,283.3L164.1,281.5L163.7,280.2L164.1,280.2L164.5,280.3L164.9,280.8L164.9,281.3L165,281.8L165.4,282.4ZM155.7,262.2L156,263.3L154.2,262.6L152.8,261.6L151.7,259.3L149.3,256.6L149.3,255.8L150.2,255.2L152.1,254.8L152.9,255.2L153.4,255.7L153.6,256.2L152.5,257.2L152.2,257.7L153.1,258.6L153.1,259L153.5,260.8L153.9,261.5L155,262ZM204.9,271.2L205.7,273.3L206.5,273.9L208.1,274.8L208.9,274.9L211.7,276.4L215,276.6L215.4,277.1L215.8,278.2L216.5,279.1L216.6,279.8L216.2,280.6L216.7,282.9L217.6,285.1L218.8,286.2L220.3,286.5L221.8,286.5L222.2,286.9L222,288.9L221.4,289.6L220.9,289.8L220.4,289.6L220.1,289.2L219.6,288.9L218.8,288.9L218.2,288.1L216.6,287L216.3,286.4L216.3,285.4L215.6,284.7L215,283.3L214.4,282.9L214.1,282.2L214.1,281.9L211.8,281.7L209.9,281.7L208.3,281L207.9,278.9L206.9,278.3L206.2,277.7L205.6,276.9L204.1,275.5L202.4,274.2L200.9,273.4L199.2,272.8L197.8,273.4L197,273.3L196.8,272.9L198.6,272L200.9,270.4L202.6,269.8L203.3,269.8ZM210.2,268.2L209.6,268.9L208.5,268.6L207.5,266.5ZM211.8,267.4L211.1,267.7L211.8,266.1L213.1,265.3L212.6,266.6ZM223.5,274L221.9,274.5L221.4,274.4L221.8,273.8L221.8,273.6L220.3,272.5L220.5,271.1L220.6,270.8L221.8,271.5L222.1,272.7ZM224.9,239.4L223,240.1L221.1,238.8L221.1,238L222.1,236.4L222.7,236L224.1,236.1L224.9,237.2L225.1,237.7L224.8,238.6ZM206.8,290.7L206.3,291.1L205.6,291.1L205.2,290.9L204.9,290.6L205.2,290.4L205.6,289.6L205.9,289.4L206.4,289.5L206.6,289.8ZM199.5,322.7L199.4,323.5L197.9,323L197.5,322.1L197.4,320.3L197.8,319.4L198,319.2L198.7,320.2L200.2,321.7ZM260.3,335.9L259.8,336.9L259.2,336L259.4,335.1L258.7,333.5L260,331.2L260,330L261,329.4L260.8,331.4L260,332.9L260.8,334.2L261.1,335.6ZM258,308.6L256.5,308.9L256.8,307.4L256.1,306.2L257.2,306.9L257.9,307.6L258.3,307.8L258.2,308.3ZM256.9,312.9L256.5,312.9L257,312L258.6,310.8L260.9,309.7L261.6,309.6L262.9,310.3L260.5,311.4L259.9,311.9L258.2,312.1ZM236.3,308.4L235,309.1L234.1,308.1L233.5,306.5L236,304.2L236.6,304.4L236.9,305L236.8,307.1ZM232.3,306.6L231.2,308L230.2,307.8L229.8,307.2L230.4,305.8L231.7,305.1L232.3,305.3L232.2,306.3ZM235.3,319L234.7,320L233.7,319.6L234.1,319.3L234.3,318.8L234.3,318.1L234.1,317.7L234.2,317.5L235.1,318.2ZM233.9,313.8L233.6,314.1L232.5,313L232.1,312.3L232.6,311.7L234.2,313ZM255.1,292.8L256.9,293.4L257.4,293.3L258.3,293.5L258.5,294.7L257.4,294.9L255.4,295.9L254.6,295.7L253.6,294.8L252,294.7L251.5,294.4L252.4,293.3L253.9,292.8ZM243.4,298L242.7,298.1L242.9,297.4L244.3,296.1L246.1,296L247.8,295.3L248.1,295.3L247.3,296.4L246,297.3ZM240.9,311.7L239.6,311.8L239.2,311.7L240,311.4L240.5,311.1L240.8,310.7L242.1,309.9L243,309L243.9,309.6L242.7,310ZM249.8,315.5L248.6,315.9L247.9,316.8L247,316.2L247,315.3L247.9,315.6L248.6,315.1L248.4,314.5L249.2,314.8ZM218.7,297.2L217.7,298.1L217.6,296.7L218.2,295.3L219.1,295.2L219.4,295.8ZM219.9,301.5L219.1,302L219.4,300.7L218.9,300.1L219.3,299.5L219.8,299L220.1,299.5L220.6,300.3ZM221.4,312.2L221.4,313.3L221.3,313.7L218.3,314.2L218.6,313L218.7,312.5L219.7,313.1L220.1,312.8L220.3,312.5ZM227.4,298.7L227.3,300.6L226.9,300.6L226.7,300.3L226.7,299.6L226.9,298.4ZM228.1,293.7L227.7,295L226.5,293.5L225.3,292.5L224.8,291.7L224,291.1L223.8,290L224.7,289.5L225.2,289.5L226.1,290.9L227.6,291L227.5,291.9L227.9,293.1ZM232,296.7L231.5,297.9L230.5,297.7L229,296.4L228.4,295.9L228.2,295.3L228.8,295.2L229.6,295.8L231.5,296.2ZM224.1,309.3L223.8,309.4L223.5,308.6L223.4,307.9L223.5,307.5L224,307.4L224.7,308.8ZM244.4,285.2L242.9,286.2L241.4,284.7L241.1,284.2L242.2,283.6L242.8,282.6L242.4,281.4L240.8,279.7L240.7,278.5L243.1,277.9L244.6,279L245.3,279.1L245.1,280.1L245.2,280.5L245.3,283.6L244.6,284L244.5,284.9ZM249,264.2L248.8,265.3L250.8,267.2L251.5,268.3L251.7,269.5L251.6,269.8L250.8,269.2L250.1,269L250.4,269.8L251.1,270.5L249.9,271L248.7,270.9L245.3,269.9L244.6,268.9L246.6,267.3L247,266.7L245.6,266.7L244,268.6L241.6,267.8L240.9,267L240.7,266.6L241.7,264.9L243.4,265L244.3,264.6L245.4,264.1L245.4,263.3L248.1,263.1ZM238.3,243.1L236.7,243.6L234.8,242L236.6,241.4L237.4,241.8L238,242.4ZM234.7,251.7L234.1,252.3L233.7,253.4L233.5,255L232.6,255.1L232.1,254.7L231.9,254.1L231.9,253.4L231.5,253.4L231.2,254.2L230.9,254.6L230.1,254.7L229.1,254.2L229.2,253.1L229,251.8L229.1,251.3L231.7,251.2L232.4,252.2L233.4,251.6L233.8,251L234.9,250.7ZM234.2,300.1L232.7,300.2L232.8,298.8L233.4,298.4L235,299.1L235,299.6ZM221.2,305.5L220.6,305.8L219.7,305.4L220,304.4L220.6,304L221.3,304.3L221.4,304.7ZM270.2,327.5L269,327.8L268.7,327.8L268.2,327L268.9,324.9L268.3,323.6L268.2,323L269.1,322.3L269.7,321.1L271.2,319.9L275,318.4L275.9,318.2L275.8,319.4L274.6,322.3L273.4,323.8L273.8,325L272,325.3ZM211.3,334.6L212.3,334.7L213.7,334.7L214,334.6L214.9,333.6L215.9,333.5L216.4,334.6L215.3,335.1L215.1,335.3L215.3,335.6L216.1,336L217.3,335.8L217.3,336.6L217.5,337.3L218.1,337.7L218.7,337.8L220.1,337.7L221.4,337.4L222.7,336.9L224.1,336.6L228.3,336.9L229.8,338L232.6,338.2L235.2,338.8L236.6,338.4L239,338L239.4,338.4L239.1,341L239.2,341.7L239.9,342.1L240.5,341.9L241.4,341.1L243.4,340.4L245.4,340.4L247.2,338.7L247.7,338.6L247.4,339.4L247.1,341.4L246.8,342.6L246.6,343.5L245.4,343.9L243.7,344L240.4,343.8L237.3,344.1L231.3,345L225.3,345.5L224.5,345.2L224.5,344L224.3,343.2L223.9,342.7L222.1,342.2L220.3,341.4L213.4,340.3L211.8,339.8L209.1,340.1L208.2,340.1L207.5,339.6L207,339L206.8,336.8L207.2,334.6L207.7,334.1L208,334.7L208.7,335L209.3,334.3L209.3,333.4L209.6,332.5L210.1,332.8L210.5,334.2ZM247.7,217.9L249,218.3L249.8,218.9L250.3,219.5L251,220L251.5,220.2L252,221.9L252.2,224.1L251.8,225L250.9,225.2L247.9,227.3L247.8,229.1L247.8,230L247.9,230.7L248.2,231.2L248.2,232L247.9,232.8L246.5,234.2L245.6,235.3L244.6,236.8L244,237L243.5,237.3L243.1,236.4L240.9,235L235.6,234.1L233,233.1L231.9,233.3L229.8,232L228.3,232.6L225.2,234.7L223.5,234.5L221.7,233.2L220.5,233L219.2,233.6L216.9,236.1L214.7,237.3L212.7,236.8L210,236.8L209.7,238.2L210.2,239.2L211.7,240.8L211,242L211.5,243.2L212.5,243.5L214,243.4L216.6,245L217.8,246.7L218.5,248.5L216.9,247.2L215.8,245.9L214.3,245.5L212.2,244.4L210.9,244.2L209.5,245L209.3,245.8L210.9,247.4L212.3,248.3L213,249.1L213.5,250.9L213.2,251.4L212.7,252L211,250.9L208.5,247L205,246.2L204.5,247L205.2,249.1L205.6,249.9L208.7,252.1L208.4,252.6L208,252.8L204.6,251.5L203.6,249.6L203.3,247.1L200.2,245.5L197.2,243.6L196.6,241.8L197.2,241.2L197.6,239.9L196,240.2L195,241L193.3,241.7L193.2,243L193.5,244.3L192.9,246L192.4,249L192.7,250.6L196.3,255.2L197.6,258.5L198.4,259.7L200.3,261.1L202.2,263.6L203,264.9L203.6,267.1L202,268.4L201,268.5L200.5,267.9L201.2,266.4L201.1,265.5L198.6,264.1L197.6,264.6L196.4,265.5L197.1,267.2L197.8,268.3L198.3,269.8L199.7,269.7L197.7,271.4L195.9,272.3L194,272.3L192.8,272.5L192.4,272.9L193.4,273.3L194.2,273.3L195.4,274.2L199,275.3L200.8,276.7L202.5,276.8L204.2,279.4L207.2,280.1L208.8,282.6L211.1,283.2L213,284.1L213.6,285L213.9,286.6L214,290.1L214.4,292.7L214.4,293.5L214.3,294.7L213.8,295.3L213.1,295.3L211.7,293.4L209.6,291.4L207.3,289.1L206.7,288.6L206.2,288.6L204.9,289.4L201.6,290L200.1,290.9L199.5,291.1L199.3,291.5L200,292L200.9,293.1L200.9,294.5L201.7,296.4L202.6,296.8L203.9,296.8L204.6,297.1L204.8,297.8L205.5,298.6L206,299.3L205.9,299.7L202.4,300.9L201.8,301.4L201.1,301.7L200.2,301.1L200.2,299.7L199,298.9L197.9,298.3L196.6,298L195.4,297L194.7,297.8L195.3,300.5L196.6,302.5L198.7,307.5L199.6,310.5L199.8,312L199.4,314.4L200.4,316.2L201.1,318L200.3,317.9L199.6,317.3L198.5,316.5L196.3,313.6L195.5,311.8L194.6,311.6L193,311.9L191.2,315.8L191.2,318L190.3,317.5L189.6,316.8L189.6,314.4L189.6,313.3L187.4,310L186.4,309.6L186,308.5L185.2,307.3L184.2,307.5L183.3,308L183.1,309.8L183,311.5L182.4,312.7L180.2,310.4L177.9,306.3L177.8,304.1L179.5,302.1L179.3,300.7L177.7,297.8L175.4,296L174.1,295.4L173.5,293.5L172.3,292.5L171.3,292L171.1,291.3L171.4,290.8L173.8,288.7L175.2,285.6L175.9,285.4L177.3,286.2L179,286L180.3,284.1L181.4,283.1L183.3,283.2L187.6,285.7L192.2,287.1L194.5,288.4L195.8,289.6L196.5,289.9L197.6,290L197.5,289.1L197.2,288.3L198.1,287.9L200.5,287.9L201,287.4L201.4,286.8L201,286L200.1,285.6L199.3,285.5L198.7,285.2L197.8,285.5L196.3,284.9L195.5,284.3L195.1,283.8L192.6,282.8L190.2,281L189.7,282L188.7,282.6L187.4,282.6L183.5,281.5L181.1,282.4L179.8,282.6L178.8,282.6L177.6,283L176.2,283.2L175,281.6L174.5,280.3L174.2,280.1L174.1,281.3L173.7,282.3L172,282.8L170.9,282L170.1,279.8L169.2,277L167.4,274.7L166,274.1L165.8,272.8L166,271.8L167.7,271.5L170.3,272.6L170.9,272.4L171.5,271.9L171.4,270.8L171,269.9L170.3,269.8L169.8,269.9L168.1,269.7L166,270.3L165,269.8L164.7,269.1L163,267.6L161.4,265.6L159,264.2L157.3,260L156,258.2L154.5,256.9L154.8,256.9L155.4,257.1L156.4,257.8L157.6,258L158.2,257.5L158.6,257.1L158.8,256.4L158.9,255.5L159,255.2L159.9,255.3L160.2,255.1L160.2,254.4L159.6,253.4L159.1,252.3L159.1,251.7L159.5,251.5L160.2,251L160.5,250.4L161.3,250.1L162.3,250L163.4,249.7L164.2,249.1L164.3,248.4L164.8,246.6L165.1,245.7L165.6,244.9L165.9,243.8L166.4,242.7L167.5,242.3L168.5,241.8L169.3,240.4L169.7,239.3L169.7,238.6L169.1,237.4L168.6,236.3L168.8,234.9L170.8,234.8L171.5,234.6L174.1,234.5L175.2,233.7L176,233.8L177.8,234.5L178.5,234L180.7,232.9L183,229.8L183.9,229.4L186,229.2L186.7,228.9L187.5,228.9L189.9,229.5L191.3,229.6L192.9,229.2L194.7,228.4L195.1,225.8L195.5,225.4L196.7,225.3L197.5,225.3L199.1,225.6L201.1,225.6L202.3,224.4L204.3,224.3L205.2,224.1L206.6,224.4L208.1,224.4L210,223.8L211.7,223L213.1,223.1L213.6,222.9L214,222.8L214.3,221.6L216.9,221.5L217.8,221.6L219.2,221.7L220.7,221L221.1,221.1L221.9,222.8L222.3,223.3L223.1,223.7L224.9,225L225.2,224.6L226,224.2L228.1,224.8L230.2,225.8L231.9,227.2L233.9,226.8L236,226.1L237.4,225.9L238.9,225.8L239.8,225.5L241.8,225.8L243.9,225.1L244.9,224.4L245.3,223.4L245.1,221.7L244.6,220L244.1,219.4L243.9,218.7L244.2,218.1L244.5,217.7L245.9,217.3ZM-42,-2.182L-40.9,-2.64L-40.42,-3.304L-40.05,-4.01L-40,-4.301L-41.27,-5.631L-41.32,-6.13L-41.16,-6.713L-40.79,-7.129L-40.05,-7.462L-39.2,-8.046L-37.4,-9.715L-36.81,-11.18L-36.6,-12.72L-36.55,-13.94L-37.08,-14.86L-37.56,-15.45L-38.25,-15.37L-39.57,-15.41L-40.79,-15.95L-41.48,-16.8L-41.64,-17.55L-41.32,-18.01L-41.22,-18.6L-41.43,-19.19L-41.32,-19.66L-40.79,-20.08L-36.87,-20.04L-36.6,-20.5L-36.34,-22.78L-35.38,-26.21L-34.43,-28.16L-34.27,-28.97L-34.32,-33.57L-34.16,-35.92L-34.85,-37.04L-36.28,-38.24L-35.97,-40.77L-35.66,-42L-20.07,-42L-20.07,-42L-20.74,-40.51L-19.41,-39.65L-18.72,-39.95L-18.24,-41.59L-18.17,-42L-15.29,-42L-15.29,-42L-15.06,-41.67L-15.06,-38.71L-14.53,-42L70.66,-42L70.66,-42L72.23,-35.97L72.18,-34.3L72.12,-33.87L71.54,-31.57L70.43,-29.65L68.94,-28.54L68.14,-27.36L67.98,-26L69.84,-23.67L73.66,-20.33L75.2,-17.51L74.51,-15.16L74.25,-13.44L74.56,-12.31L75.15,-11.43L76.1,-10.8L76.47,-9.757L76.32,-8.379L76.47,-7.421L77.17,-6.754L77.11,-6.463L76.79,-5.506L76.32,-3.761L76.05,-2.516L74.94,-0.775L75.31,0.714L76.16,2.408L76.79,3.275L77.01,4.1L76.58,6.076L76.79,6.57L79.45,8.008L79.87,8.665L80.14,10.02L81.09,12.97L80.3,16.68L79.61,18.72L78.12,21.88L78.01,22.21L77.86,22.57L77.38,23.14L76.74,23.22L75.78,22.82L75.15,22.29L75.31,20.91L74.88,20.79L74.35,19.98L74.14,19.04L73.56,18.68L71.49,18.27L70.8,18.02L70.27,18.23L69.84,18.84L70.11,19.45L70.53,20.02L71.65,20.91L71.54,21.27L69.05,22.13L67.51,23.06L66.08,23.54L64.59,24.48L61.67,25.53L59.55,25.81L59.12,26.05L58.33,27.83L57.8,28.19L57.27,28.03L56.9,27.71L56.36,27.95L55.89,28.55L55.3,28.8L54.88,28.75L54.03,30.32L51.59,30.77L51.32,31.57L50.85,32.49L50.53,32.7L49.41,32.34L47.87,32.13L47.02,32.66L45.96,32.94L44.69,33.02L43.31,34.02L41.88,35.78L41.13,37.34L40.71,37.9L40.02,36.46L39.17,35.42L38.59,34.9L38.06,34.9L37.95,35.14L37.95,35.9L38.48,37.18L39.17,38.02L39.28,38.66L39.7,39.82L40.71,41.09L42.3,42.09L43.36,43.09L44.16,44.48L44.16,44.87L43.95,45.43L43.58,45.95L43.26,46.66L42.36,48.05L42.62,48.64L43.36,49.39L44,50.3L44.8,51.76L45.91,54.36L46.65,55.42L47.66,56.53L48.62,57.35L50.1,57.31L51.7,58.92L53.45,61.19L54.72,62.25L55.62,62.56L56.36,63.42L57,64.59L57.27,65.29L57.85,65.76L59.44,65.68L61.46,67.55L62.68,68.91L63.37,70L63.21,70.43L63.1,71.78L63.1,73.26L62.94,73.99L62.04,75L61.56,75.23L61.3,75.42L58.54,74.11L58.33,74.34L58.12,74.49L57.37,78.31L56.9,79.01L56.1,79.7L54.51,80.36L53.45,80.63L52.54,80.93L49.84,82.51L48.62,83.47L47.82,84.66L47.82,85.34L49.15,87.33L50.69,89.44L50.69,91.23L50,92.6L49.84,93.13L50.31,93.32L51.16,93.4L51.85,93.63L52.17,94.58L52.07,96.25L51.8,97.8L51.59,98.44L50.9,98.52L49.57,97.84L48.56,97.04L48.14,96.59L48.14,96.02L48.35,95.64L47.98,94.92L46.71,94.27L45.38,94.58L44.37,94.99L43.73,94.99L43.05,94.35L41.98,93.85L40.55,93.55L39.7,93.21L39.49,93.4L39.6,94.77L39.33,95.37L32.43,96.17L30.31,96.89L28.82,97.84L27.66,98.25L27.39,98.86L26.28,99.62L25,99.84L24.69,99.62L23.89,99.96L22.51,100.3L21.61,100.2L21.18,99.58L20.34,98.63L19.96,97.95L20.02,97.53L18.05,97.46L16.83,96.93L14.23,97.08L13.6,96.85L13.49,97.08L13.06,99.77L12.59,100.9L11.74,102L10.68,102.7L9.828,102.8L9.881,102L10.09,100.9L9.457,100.7L8.555,100.6L8.13,100.3L8.236,99.54L8.024,99.09L7.653,98.56L6.698,97.88L4.787,96.85L3.461,96.32L2.93,96.85L1.975,97.42L0.489,97.23L0.118,97.46L0.118,97.46L-2.429,95.83L-4.923,94.23L-5.719,94.23L-9.38,94.58L-9.486,94.42L-10.07,93.51L-10.65,93.25L-10.97,93.4L-11.24,93.66L-11.61,93.59L-13.25,92.14L-13.89,91.95L-14.85,92.14L-15.91,92.9L-16.39,93.85L-16.28,94.42L-15.7,94.65L-14.21,94.5L-14,94.65L-13.94,94.95L-14.1,95.26L-15.32,95.53L-15.64,95.87L-16.01,95.98L-16.23,96.02L-17.5,95.64L-19.41,95.64L-20.95,96.32L-23.44,96.59L-26.79,96.44L-28,95.94L-28.75,95.64L-29.28,94.19L-29.12,91.99L-28.32,89.09L-28.11,86.95L-28.48,85.61L-28,83.54L-26.68,80.82L-25.83,77.93L-25.35,74.92L-24.71,72.91L-23.5,71.51L-20.52,67.63L-20.26,67.32L-20.36,65.37L-21.16,65.1L-22.33,64.51L-25.3,63.81L-28.06,63.38L-29.33,62.83L-30.45,61.35L-31.14,61.31L-32.46,61.86L-34.16,62.21L-35.33,61.9L-36.12,61.97L-36.55,62.25L-36.76,62.01L-37.08,60.72L-37.72,60.37L-38.67,60.09L-39.31,60.21L-39.73,60.84L-40.37,61.31L-41.01,61.15L-42,59.58L-42,-2.182ZM-0.519,196.2L-0.89,199.1L-0.625,200L-0.094,200.6L0.171,201.3L0.595,209.1L0.489,209.7L-1.315,212.8L-1.686,213.7L-1.792,217.6L-2.111,218.6L-2.747,219.6L-3.862,222.9L-4.87,224.4L-7.576,222.6L-9.168,221.8L-9.911,221L-10.44,220.4L-10.12,219.6L-9.38,218.8L-9.274,218.2L-10.97,217.4L-11.77,217L-11.77,216.1L-11.18,214.8L-11.45,213.7L-12.4,213.8L-13.2,213.6L-13.25,213.1L-12.72,212.3L-11.98,211.4L-12.03,210.4L-12.88,209.9L-13.68,209.1L-14,207.9L-13.36,207.1L-12.4,206.6L-13.1,205.4L-13.63,205.4L-14,205.1L-13.68,204.6L-12.94,203.8L-11.82,201.3L-10.34,200.2L-7.682,199.4L-6.939,199.1L-6.303,198.2L-5.56,197.6L-4.711,197.7L-3.862,198L-3.384,198.4L-2.96,198L-2.641,196.9L-2.854,196L-2.747,193.4L-2.27,191.9L-1.474,191.8L-0.784,192.7L-0.837,193.4L-0.572,195.1ZM-42,121.2L-40.63,121.4L-40.37,121.6L-40.53,122.4L-40.26,123.6L-39.78,124.4L-40.42,126.8L-39.94,127.5L-39.2,128.3L-38.62,129.2L-37.77,129.9L-37.03,131.1L-36.76,131.8L-37.98,133.1L-39.94,134.2L-40.21,134.9L-40.16,135.7L-39.94,136.4L-38.83,137.2L-37.66,139.1L-36.87,140.8L-35.22,142.4L-34.8,142.9L-34.9,143.3L-35.38,144L-35.91,146.3L-36.6,146.6L-37.34,146.8L-39.41,148.5L-40.32,148.2L-41.64,148.3L-42,148.5L-42,121.2ZM-42,150.4L-41.64,150.8L-41.16,151.8L-40.95,152.9L-40,153.7L-38.72,154.2L-37.98,154.2L-37.5,154.5L-37.19,154.9L-36.65,157.2L-36.97,157.7L-37.66,158L-38.09,158.9L-38.94,160.3L-39.41,161.4L-38.88,162.4L-38.67,163.1L-38.94,163.9L-38.56,165L-37.56,166.2L-34.9,167.8L-32.41,169.1L-31.61,169.3L-28.27,168.5L-27.69,168.6L-27.26,169.6L-27.1,170.2L-27.48,171.2L-28.38,172.7L-29.39,173.8L-29.97,174.7L-29.86,175.6L-29.81,176.7L-30.61,177.1L-30.66,176.8L-30.98,176.6L-31.24,176.7L-31.45,177L-31.51,177.4L-33.2,178.2L-34.43,178.9L-39.09,183.4L-41.27,184.7L-41.7,185.5L-42,186.6L-42,150.4ZM-42,59.58L-41.01,61.15L-40.37,61.31L-39.73,60.84L-39.31,60.21L-38.67,60.09L-37.72,60.37L-37.08,60.72L-36.76,62.01L-36.55,62.25L-36.12,61.97L-35.33,61.9L-34.16,62.21L-32.46,61.86L-31.14,61.31L-30.45,61.35L-29.33,62.83L-28.06,63.38L-25.3,63.81L-22.33,64.51L-21.16,65.1L-20.36,65.37L-20.26,67.32L-20.52,67.63L-23.5,71.51L-24.71,72.91L-25.35,74.92L-25.83,77.93L-26.68,80.82L-28,83.54L-28.48,85.61L-28.11,86.95L-28.32,89.09L-29.12,91.99L-29.28,94.19L-28.75,95.64L-28,95.94L-28,95.94L-29.81,96.93L-30.18,97.8L-30.87,98.94L-32.04,99.43L-33.15,99.58L-34.11,99.43L-34.64,98.97L-34.59,98.56L-35.06,98.22L-36.28,98.22L-37.56,99.01L-38.56,100.3L-38.25,101L-37.29,101.2L-37.08,101.5L-37.08,101.8L-37.4,102.3L-37.77,103.1L-39.73,105.3L-41.7,107.6L-42,108.2L-42,59.58ZM227.9,482L227.9,479.4L227.9,475.6L227.9,471.9L227.9,468.2L227.9,464.4L227.9,460.7L227.9,456.9L227.9,453.1L227.9,449.4L227.9,445.6L227.8,444.9L227,442.3L226.3,439L225.4,434.9L225.3,433.7L224,429.5L223.8,428.3L224.2,427.4L226.4,423.9L227.1,422.2L227.7,420.1L227.9,418.4L227.2,415.9L226.4,413.6L226.2,411.2L226.1,408.8L227.2,407.2L228.6,405.7L229.1,404.8L229.9,403.8L230.5,403.3L231.6,405.4L233.9,405.8L241.4,403.9L249.7,405.8L254.3,406.5L261.3,408.1L265.6,410.9L266.9,411.3L269.9,411.2L272,412.9L280,413.7L284.3,415.6L286.8,417.1L288.2,417.5L289.5,417.5L291.3,416.9L293.5,415.9L295.9,414.4L300.9,410.7L302.6,410L303.8,410.2L305.2,410.1L305.8,409.2L306.6,408.5L307,407.7L307.8,406.7L310.3,406.5L315.5,404.8L314.9,405.6L310.2,407.4L312.2,407.7L314.3,407L316.7,406.6L317.1,405.9L317.4,404.4L317.9,404.2L319.5,404.5L324.4,406.7L325.6,406.8L329.1,405.5L329.7,405.3L330.9,405.9L333.4,408.7L332.5,408.7L329.8,406.3L329.6,407.5L328,409.6L330,410.5L331.5,410.8L332.4,412L332.9,413L334.5,412.6L335.6,411.2L335,410.4L334.6,409.5L335.1,409.5L336.2,410.2L339.2,412.9L340.3,413.4L341.5,413.3L344,412.6L344.7,412.7L348,411.7L348.5,412.4L349,413.2L351.7,412.4L356,412.4L359.5,411.5L363.5,409.4L363.8,409L364,409.6L364.5,411L365.7,414.7L366.8,417.5L368.1,421.5L368.5,423.1L368.7,424.1L370.6,428.4L371.7,432L372.6,434.9L373.7,439.1L374.2,440.6L373.4,441.3L371.7,444.1L370,452.7L367.5,459.5L367.2,463.6L366.8,465.1L365.6,467.3L364.1,469.3L361.5,468.3L357.3,464.6L354.9,461.1L352.3,458.9L349.8,455.9L349.1,453.8L349.2,452.4L348,449L347.3,447.4L344.2,443.8L343.4,441.9L342.7,441L342.1,439.8L340.9,435.1L339.7,432.1L338.4,433L338.6,434.2L337.4,436L336.7,438L337.3,439.6L339.7,442.1L340.2,443.2L340.8,445.6L340.7,448.8L341.1,449.9L343,452.2L343.6,453.6L344,454.9L344.7,456L346.5,458L349.1,461.9L351.6,464.6L353.5,465.8L354.2,467.1L354.4,470.4L354.3,472L355.8,474.9L356.4,476.4L358,477.6L358.7,479L359.3,481.2L359.4,482L227.9,482ZM137.3,53.22L137,53.26L136.1,53.61L135,53.73L133.8,53.69L132.9,54.28L132.1,55.27L131.2,55.94L130.7,56.56L130.4,57.19L127.4,58.96L127,59.7L126.7,60.72L126.5,62.09L126.3,63.3L125.8,63.97L124.2,64.51L123.8,64.78L123.5,65.41L122.5,66.38L121.5,67.28L119.5,68.33L117.4,68.64L114.7,68.29L113.1,67.9L112.3,68.33L111.2,69.69L110.1,72.02L109.6,73.76L109.3,73.26L108.6,71.4L107.8,71.16L106.8,71.01L106.1,70.74L104.4,69.65L103.6,69.34L102.6,69.26L101.7,69.88L101,70.62L98.81,70.62L96.43,70.27L92.98,67.82L92.13,67.78L91.17,67.9L89.69,67.32L86.77,65.72L85.39,65.37L84.54,65.56L83.8,65.92L83.21,65.99L82.9,65.45L81.83,64.82L80.72,64.75L80.4,65.14L80.08,68.64L79.71,69.88L78.23,69.84L77.69,70.43L76.53,72.13L76.26,73.72L74.25,73.41L73.29,73.14L72.44,73.37L71.49,74.26L68.89,74.18L66.82,73.68L65.92,71.67L64.96,70.85L63.79,70.16L63.37,70L62.68,68.91L61.46,67.55L59.44,65.68L57.85,65.76L57.27,65.29L57,64.59L56.36,63.42L55.62,62.56L54.72,62.25L53.45,61.19L51.7,58.92L50.1,57.31L48.62,57.35L47.66,56.53L46.65,55.42L45.91,54.36L44.8,51.76L44,50.3L43.36,49.39L42.62,48.64L42.36,48.05L43.26,46.66L43.58,45.95L43.95,45.43L44.16,44.87L44.16,44.48L43.36,43.09L42.3,42.09L40.71,41.09L39.7,39.82L39.28,38.66L39.17,38.02L38.48,37.18L37.95,35.9L37.95,35.14L38.06,34.9L38.59,34.9L39.17,35.42L40.02,36.46L40.71,37.9L41.13,37.34L41.88,35.78L43.31,34.02L44.69,33.02L45.96,32.94L47.02,32.66L47.87,32.13L49.41,32.34L50.53,32.7L50.85,32.49L51.32,31.57L51.59,30.77L54.03,30.32L54.88,28.75L55.3,28.8L55.89,28.55L56.36,27.95L56.9,27.71L57.27,28.03L57.8,28.19L58.33,27.83L59.12,26.05L59.55,25.81L61.67,25.53L64.59,24.48L66.08,23.54L67.51,23.06L69.05,22.13L71.54,21.27L71.65,20.91L70.53,20.02L70.11,19.45L69.84,18.84L70.27,18.23L70.8,18.02L71.49,18.27L73.56,18.68L74.14,19.04L74.35,19.98L74.88,20.79L75.31,20.91L75.15,22.29L75.78,22.82L76.74,23.22L77.38,23.14L77.86,22.57L78.01,22.21L79.29,22.13L80.56,21.56L80.67,20.59L80.61,18.84L80.72,18.55L82.68,19.08L84.65,19.85L84.91,21.64L85.44,22.49L86.08,23.3L86.66,23.67L87.67,23.71L90.32,24.76L91.6,24.96L92.92,25.69L93.99,26.45L94.83,26.58L95.21,27.42L95.68,27.95L96.53,27.55L99.72,26.94L100.9,27.75L101.6,28.59L101.7,28.84L101.4,29.6L101.1,30.16L100.8,30.53L99.72,30.93L99.13,31.61L98.66,32.3L98.97,33.02L99.88,33.5L100.5,33.62L100.7,34.14L102.7,36.34L104.4,39.26L105,39.74L105.6,39.82L106.2,39.42L107,38.46L108,37.78L108.8,37.42L110.2,36.62L110.2,36.1L109.1,34.14L108.4,32.54L108.5,32.25L110,32.49L112.6,33.38L116.4,36.22L117.1,36.22L118.5,35.98L120,35.54L120.7,35.02L120.9,35.22L121.2,36.78L120.8,37.62L119,38.46L119.1,38.86L119.6,39.42L120.4,39.78L121.3,40.78L122,41.93L122.6,42.45L123.2,42.73L124.8,42.09L125.3,41.61L125.5,41.26L125.8,41.33L126.4,41.89L126.5,42.25L128.1,42.89L129,43.68L129.5,44.04L130.2,43.68L132.7,44.32L133.4,44.83L133.6,45.71L133.4,46.22L133.8,47.61L137,50.89L137.3,52.55ZM341.9,341.2L342,341.6L343,342.2L344.2,342.7L345,342.7L345.9,342.2L347.3,341.6L349,341.1L349.8,341.5L351,341.5L351.8,341.3L352.4,341.7L352.9,342.5L353,344.2L353.1,344.3L353.9,343.6L355.2,343.9L356.1,344L356.9,343.6L357.3,343.6L357.8,343.4L358.4,343.1L358.9,342.6L359.5,342.7L360.4,343.2L360.9,343.1L361.2,343.5L361.6,344.5L359.9,344.8L358.3,344.9L357.3,344.8L356.4,344.8L353.7,347.8L352.2,348.8L350.5,349.4L348.7,349.7L347.8,349.7L347,350.1L346.5,350.8L346.5,351.5L346.2,352L345.3,351.9L344.9,350.8L344.2,350.4L342.5,350.6L341.6,350.6L338.9,349.5L338,349.1L337.5,348.3L336.1,345.1L335.8,342.8L337.2,343.4L338.4,342.6L339.6,341.5L341,341ZM59.87,140.5L60.4,141.3L64.32,142.3L65.12,141.9L65.65,141.2L65.65,140.7L65.97,140.6L67.35,141.3L68.46,141.1L70.27,141.1L71.54,141.2L72.39,140.7L73.56,138.8L73.98,137.7L74.46,137.5L74.83,137.6L75.04,138.5L75.68,139.3L76.9,140.6L77.8,141.3L78.6,141.5L79.34,141L80.19,140.8L82.47,141.8L84.38,142L85.81,141.5L85.66,140.7L85.12,139.9L85.02,139.1L85.12,138.4L86.08,137.7L86.03,137.5L84.86,136.2L84.91,135.9L87.51,134.5L90.06,133.8L90.43,133.2L90.7,132.3L90.8,130.6L90.64,129.2L89.63,127.9L89.58,127.3L89.79,126.6L90.22,126L91.23,125.7L92.39,125.3L93.35,124.8L94.57,124.3L95.58,123.8L96.53,122.3L97.12,122.1L98.92,122.3L99.29,122L99.08,119.9L99.4,119.4L100,119.1L100.3,118.9L101.9,119.1L103.2,119.6L104,119.9L106.6,121.4L108.4,123L109.4,124.9L110.8,126.3L112.5,127.3L113.9,128.6L114.9,130.3L116.3,131.3L118.1,131.5L119.2,132.1L119.7,133.1L120.7,133.9L122.2,134.7L124.5,135.1L129,135.2L129.3,135.2L130.3,135.5L131.5,135.2L132.9,134.6L133.4,134.2L134.8,132.2L135.7,132.4L137.3,132.1L138.3,131.7L138.4,131.7L138.3,132.2L138.2,133.1L137.4,133.7L138.2,135.2L139,137.5L138.6,138.7L139.1,139.6L140.6,140.2L140.7,140.5L140.3,140.7L139.9,141.5L139.9,142.9L141.2,144.2L143.8,145.5L144.7,145.7L145,146.1L145.4,146.5L145.7,146.8L145.7,147.3L145.5,147.7L144.2,147.8L142.8,147.8L141.8,147.2L141.7,147.6L141.7,148.1L140.7,148.4L141.3,151.8L141.1,152.8L140.7,153.1L140.4,153L139.9,152.9L139.7,153.3L139.9,154L138.9,154.1L137.4,153.7L136.6,153.1L136.5,152.4L136.5,151.8L136.1,150.7L134.8,149.7L132.2,149.5L131.3,149.1L130.3,148.8L129.3,148.5L128.3,148.5L127.1,148.8L125,148.3L124.3,148.9L123.2,149.7L122.3,149.7L120.5,148L119.9,147.9L118.3,148.7L117.7,148.8L117.2,148.5L115.1,147.8L114.1,147.7L113.4,148L112.2,147.7L109.1,145.5L107.3,147.2L103.4,146.8L102.3,147.9L100.9,150.1L99.88,151.1L98.97,150.7L97.91,149.8L96,147.3L95.05,146.9L93.93,146.8L92.98,147L92.45,147.6L92.08,151.1L91.7,154.2L91.7,156.2L93.83,157.9L96.32,160.9L97.12,161.2L97.49,162.2L98.07,164.7L98.71,167.5L99.98,169.4L101.1,170.7L102.5,171.9L104.3,173.7L105.7,175.7L106.1,176.5L108.8,179.1L111.5,181.8L114,182.8L114.4,183.2L114.4,185.3L114.6,186.1L116.2,188.2L119.5,191.4L119.9,192.1L120,192.7L119.8,193.1L118.9,193.5L118.2,193L115.2,190L112.2,188L108.9,184.3L104.4,182.9L101.4,181.3L99.56,181.5L97.49,182L96.27,182L95.36,181.7L94.73,180.7L94.83,180L94.73,179L92.92,177.3L90.48,175.8L88.2,173.8L83.58,168.4L82.63,166.7L83.53,166.4L84.22,166.4L85.02,166L86.29,166L87.78,166.4L86.45,165.2L84.81,164.1L80.56,159.5L79.29,157.4L79.13,155L79.45,151.9L78.7,149.6L75.41,146.6L74.19,145L71.81,144.1L70.69,144.2L70.05,145.4L69.58,148L67.45,151.3L66.71,152.8L65.6,154.7L64.64,154.8L64.06,154.6L62.31,151.5L60.61,149L60.4,147.9L60.24,146.4L58.96,141.2ZM105.2,192.3L107.9,192.9L109.9,192.6L111.7,193L112.8,193.6L113.1,193.9L111.6,194L110,193.7L108.1,194.4L106.5,194L105.8,193.6L105.4,193.1ZM113.2,189.7L112.1,189.9L105.6,189.8L103.7,189.4L101.6,188.3L101.1,188L103.3,187.6L105.2,188L105.9,188.7L111.2,189.4ZM107.1,186.8L104.8,186.8L102.8,186.5L101.8,185.8L101.9,185.3L102.2,184.4L104.4,184.5L107.9,185.2L108.7,185.9L108.5,186.2ZM84.22,170.7L84.49,171.4L82.63,170L81.94,169.1L81.78,168.7ZM78.01,151.8L76.21,152.2L75.36,151.4L75.15,150.7L73.61,150.5L72.71,149.6L72.55,149.2L73.82,148.2L74.51,146.6L75.36,147.6L76.42,149.4L77.01,149.9ZM78.33,156.3L78.7,157.2L77.32,156.4L76.1,156.1L75.84,155.4L76,154.9L76.26,154.4L77.22,154.5L77.38,155ZM83.58,165L83.21,165.6L82.26,164.6L81.41,163.8L80.77,163L79.55,161.9L79.13,160.7L77.32,158.2L77.01,157.6L77.96,158.6L78.7,159.2L79.34,159.4L80.93,160.9L82.52,163L84.38,164.7L83.96,164.8ZM83.64,173.6L83.85,173.8L83.8,174L83.06,173.8L82.84,173.8L79.23,169.4L78.86,168.5L80.14,169.5ZM86.29,172.5L87.3,174L86.34,173.7L85.39,172.7L84.81,171.7ZM73.29,158.4L73.19,159.1L72.28,158.1L71.81,156.3L70.69,153.3L70.53,152.5L71.12,151.7L71.12,150.9L70.32,148.2L70.96,147.8L71.38,147.8L71.54,149.6L71.91,150.6L72.97,151.9L72.76,154L72.97,157L73.19,157.6ZM119.3,196.9L121.3,198.3L115.4,196.5L116.1,196.3L116.7,196.3ZM131.5,201.1L131.5,201.9L132.1,202.7L132.7,203.6L130,201.8L127.4,199.6L122.5,196.4L118.9,195.6L114.1,192.9L111,192L112.2,191.7L113.6,191.7L121,195.3L120.1,194.3L121.2,194L122.1,194.2L122.7,195.4L123.9,196.1L125.7,197.5L126.9,198.5L129.5,200.3L130.2,200.6ZM272.6,212.9L270.7,212.5L270,212.6L269.5,213.1L268.6,213L267.4,213L266.3,213.6L265.6,213.8L264.7,213.3L263,211.7L262,210.7L261.3,210.4L260.5,210.7L257.9,211.1L257.3,211.7L256,212.4L254.8,212.7L253,213L252.1,212.9L251.5,213.3L251.1,214.3L250.8,215.3L250.5,215.7L248.3,216.2L247.8,216.8L247.7,217.3L247.7,217.9L245.9,217.3L244.5,217.7L244.2,218.1L243.9,218.7L244.1,219.4L244.6,220L245.1,221.7L245.3,223.4L244.9,224.4L243.9,225.1L241.8,225.8L239.8,225.5L238.9,225.8L237.4,225.9L236,226.1L233.9,226.8L231.9,227.2L230.2,225.8L228.1,224.8L226,224.2L225.2,224.6L224.9,225L223.1,223.7L222.3,223.3L221.9,222.8L221.1,221.1L220.7,221L219.2,221.7L217.8,221.6L216.9,221.5L214.3,221.6L214,222.8L213.6,222.9L213.1,223.1L211.7,223L210,223.8L208.1,224.4L206.6,224.4L205.2,224.1L204.3,224.3L202.3,224.4L201.1,225.6L199.1,225.6L197.5,225.3L197.7,225L198,220.1L198.8,217.9L198.8,217.4L198.6,217.1L197.9,216.7L197.4,215.5L196.3,212.4L195.8,211.7L194.1,211.1L192.6,210.2L191.4,209L189.1,206L190.2,205.7L190.6,205.1L191.7,203.5L191.8,202.7L191.7,202.2L191,201.4L190.5,199.7L190.8,198.1L190.9,197.3L190.5,196.5L190.9,195.4L191.7,194.9L192.3,194.7L194.4,194.6L195.8,192.5L196.7,191.9L197.5,190.7L197.9,190.3L198.3,189.4L198.4,188.5L196.7,187.2L196.1,186.2L195.3,185.1L194.3,184.4L192.2,183.1L191.4,181.8L191,180.1L190.5,178.8L189.8,177.9L189.7,177.2L189.4,176.4L189.4,174.8L189.9,172.6L190.2,171.8L190.9,171.6L192.8,170.4L192.9,168.9L193.3,168L193.8,167.4L194.4,167.1L195.4,167.9L197.9,169.3L199.2,170.3L199.1,171L198.5,171.6L197.5,172.2L196.8,173L196.6,174L196.8,174.7L197.6,175.3L202.1,174.5L206.6,174.9L212.7,176.3L216.8,176.8L219.8,176.1L225.4,177.3L230.6,178.3L235.6,178.7L238.3,177.8L240.3,176.7L242,174.6L246.2,171.8L250.2,170.2L255.5,169L259,168.5L259.5,169L264,171.5L266,171.5L267.6,172L268.2,172.7L268.6,172.8L270.7,172.2L271.7,173.6L273.2,175.6L275.7,176.6L278,177.2L278.7,177.2L281.1,177.2L280.7,182.1L279.3,184.4L277.2,183.6L274.4,184.3L273,186.8L272.1,187.6L271.4,188.5L270.9,191.8L270.8,197.3L269.8,198L268.8,198.2L264.8,202.9L267.1,204.3L268.1,205.3L269.8,208.1L272.2,211.3ZM142.6,181.5L142.2,181.4L141.5,181.6L140.9,181.8L140.2,181.5L139.4,181.3L139.1,181.6L138.9,182.2L139.4,183.3L140.3,185L140.2,186.3L139.5,186.5L138.8,185.4L138.2,185.2L137.6,185.3L136.1,186.5L135,187.6L134.7,188.3L134.3,189.2L134.2,189.7L134.3,191.7L132.2,192L131.8,192.3L131.6,192.9L131.8,195.4L131.9,196.7L133,198.8L133.1,199.5L132.9,199.9L132.1,200.7L131.8,201L131.5,201.1L130.2,200.6L129.5,200.3L126.9,198.5L125.7,197.5L123.9,196.1L122.7,195.4L122.1,194.2L121.2,194L120.1,194.3L118.9,193.5L119.8,193.1L120,192.7L119.9,192.1L119.5,191.4L116.2,188.2L114.6,186.1L114.4,185.3L114.4,183.2L114,182.8L111.5,181.8L108.8,179.1L106.1,176.5L105.7,175.7L104.3,173.7L102.5,171.9L101.1,170.7L99.98,169.4L98.71,167.5L98.07,164.7L97.49,162.2L97.12,161.2L96.32,160.9L93.83,157.9L91.7,156.2L91.7,154.2L92.08,151.1L92.45,147.6L92.98,147L93.93,146.8L95.05,146.9L96,147.3L97.91,149.8L98.97,150.7L99.88,151.1L100.9,150.1L102.3,147.9L103.4,146.8L107.3,147.2L109.1,145.5L112.2,147.7L113.4,148L114.1,147.7L115.1,147.8L117.2,148.5L117.7,148.8L118.3,148.7L119.9,147.9L120.5,148L122.3,149.7L123.2,149.7L124.3,148.9L125,148.3L127.1,148.8L128.3,148.5L129.3,148.5L130.3,148.8L131.3,149.1L132.2,149.5L134.8,149.7L136.1,150.7L136.5,151.8L136.5,152.4L136.6,153.1L137.4,153.7L138.9,154.1L139.9,154L140.4,154L141.7,153.4L143.3,153.1L144.4,153.4L144.9,153.7L145,154.2L144.7,155.8L144.1,157.6L143.1,159.4L142,161.1L141.7,162L141.7,163.4L141.5,164.5L141.7,165.2L142,165.7L143.2,166.2L144.8,167.3L146.1,168.8L147.8,170.4L148.4,171.1L148.4,171.7L147.9,172.2L146.4,172.4L144.9,172.2L144.3,172.1L143.8,172.3L143.4,172.7L143.6,173.1L145.1,175.1L147,178L147.1,179.3L146.9,180.2L146.5,180.9L145.7,180.8L145.1,180.2L144.2,180.3L143.5,180.4ZM339,-42L341.5,-40.04L341.8,-39.31L341.9,-38.11L341.8,-37.25L340.9,-37.08L339.9,-36.65L338.3,-35.62L337.7,-34.17L335.1,-32.12L333.5,-31.23L332.2,-31.18L329.2,-31.61L328.1,-32.59L327.7,-33.53L326.5,-33.91L325,-33.95L322.8,-33.78L322.4,-33.53L322,-32.42L321.1,-30.5L320.5,-29.39L321,-28.76L321.9,-27.36L323.2,-25.62L324.5,-24.05L325,-23.12L325,-22.44L324.3,-21.64L324.4,-20.04L325.8,-17.93L325.3,-17.59L325.2,-15.03L325.2,-12.27L325.6,-11.64L326.2,-11.09L326.8,-10.09L327.8,-7.796L327.9,-7.212L327.9,-7.212L325.1,-7.379L321.8,-7.296L319.9,-5.964L319.1,-6.296L317.9,-6.629L316.4,-5.88L314.4,-3.636L313.1,-2.267L311.8,-0.32L311.3,0.714L310.5,2.656L309.8,4.841L310.2,6.364L310.8,7.803L311,9.322L311.2,10.55L310.4,11.41L309.9,12.68L308.6,12.48L306.8,11.25L306.5,9.486L305.2,8.296L304.3,7.639L302.8,7.557L300.6,8.132L297.6,8.542L295.4,8.665L294.1,9.281L292.3,9.896L291.6,9.199L290.6,7.187L289.7,5.212L289.2,4.347L288.7,4.1L288.1,4.141L287.4,4.8L286.9,5.418L286.1,5.665L285,6.159L284.2,6.899L283.2,8.706L282.6,8.583L282,8.173L281.3,6.118L280.3,5.665L278.7,5.624L276.7,5.171L275.1,4.553L274.6,4.718L273.6,5.583L272.6,5.706L270.4,4.924L269.9,5.294L269.4,6.447L268.6,7.557L268,7.639L267.7,7.351L267.9,5.418L266.5,4.718L264.4,4.594L262.8,4.883L262.1,4.8L261.7,4.429L259.8,1.128L258.8,0.921L257,1.086L254.3,0.714L251.3,-0.03L249.7,-0.32L248.8,-1.065L246.9,-1.314L241.9,-2.723L239.8,-2.972L236.8,-2.972L232.2,-3.304L229.2,-3.096L227.9,-2.64L226.3,-2.35L223.6,-2.101L222.5,-2.142L220.8,-1.977L218.8,-1.604L218.3,-0.899L217.6,0.59L215.3,3.234L213.2,4.965L212.8,5.13L211.5,4.182L210.4,3.894L209.2,3.77L208.3,4.059L207.7,4.512L207.8,6.529L207.6,6.693L206.7,4.306L206.8,2.119L207.3,0.88L208,-0.237L207.7,-1.894L208.3,-4.134L208.4,-5.756L208.1,-6.463L207.5,-7.254L206.2,-8.129L205.5,-8.838L203.6,-9.798L201.7,-10.93L201.3,-11.68L201.4,-12.14L201.8,-12.89L203.2,-15.07L204.8,-17.21L205.8,-18.06L211.2,-20.8L212.1,-21.77L212.3,-23.37L212.3,-24.56L212.2,-26.68L211.8,-29.65L211.4,-31.74L210.4,-35.66L208.2,-42L339,-42ZM0.171,103L1.391,100.3L1.604,98.71L0.542,97.72L0.118,97.46L0.489,97.23L1.975,97.42L2.93,96.85L3.461,96.32L4.787,96.85L6.698,97.88L7.653,98.56L8.024,99.09L8.236,99.54L8.13,100.3L8.555,100.6L9.457,100.7L10.09,100.9L9.881,102L9.828,102.8L10.68,102.7L11.74,102L12.59,100.9L13.06,99.77L13.49,97.08L13.6,96.85L14.23,97.08L16.83,96.93L18.05,97.46L20.02,97.53L19.96,97.95L20.34,98.63L21.18,99.58L21.61,100.2L22.51,100.3L23.89,99.96L24.69,99.62L25,99.84L26.28,99.62L27.39,98.86L27.66,98.25L28.82,97.84L30.31,96.89L32.43,96.17L39.33,95.37L39.6,94.77L39.49,93.4L39.7,93.21L40.55,93.55L41.98,93.85L43.05,94.35L43.73,94.99L44.37,94.99L45.38,94.58L46.71,94.27L47.98,94.92L48.35,95.64L48.14,96.02L48.14,96.59L48.56,97.04L49.57,97.84L50.9,98.52L51.59,98.44L51.8,97.8L52.07,96.25L52.17,94.58L51.85,93.63L51.16,93.4L50.31,93.32L49.84,93.13L50,92.6L50.69,91.23L50.69,89.44L49.15,87.33L47.82,85.34L47.82,84.66L48.62,83.47L49.84,82.51L52.54,80.93L53.45,80.63L54.51,80.36L56.1,79.7L56.9,79.01L57.37,78.31L58.12,74.49L58.33,74.34L58.54,74.11L61.3,75.42L61.56,75.23L62.04,75L62.94,73.99L63.1,73.26L63.1,71.78L63.21,70.43L63.37,70L63.79,70.16L64.96,70.85L65.92,71.67L66.82,73.68L68.89,74.18L71.49,74.26L72.44,73.37L73.29,73.14L74.25,73.41L76.26,73.72L76.53,72.13L77.69,70.43L78.23,69.84L79.71,69.88L80.08,68.64L80.4,65.14L80.72,64.75L81.83,64.82L82.9,65.45L83.21,65.99L83.8,65.92L84.54,65.56L85.39,65.37L86.77,65.72L89.69,67.32L91.17,67.9L92.13,67.78L92.98,67.82L96.43,70.27L98.81,70.62L101,70.62L101.7,69.88L102.6,69.26L103.6,69.34L104.4,69.65L106.1,70.74L106.8,71.01L107.8,71.16L108.6,71.4L109.3,73.26L109.6,73.76L109.5,73.99L109.5,74.8L108.9,75.89L108.3,77.24L108.3,78.47L109.9,82.66L111.3,85.19L111.6,86.15L112.5,86.88L111.6,87.83L111.4,89.21L110.9,89.82L110.8,90.58L111,91.3L111,92.22L111.3,93.44L109.9,93.7L108.3,93.66L107.7,93.74L107.1,94.08L106.6,93.89L105.1,92.75L104.3,92.48L103.7,92.56L103.3,93.06L102.5,93.7L101.8,94.16L101.9,94.58L105,95.6L105.6,97.19L105,98.48L104.8,99.13L104,99.62L103.2,100.1L102.1,100.2L102,100.9L102.4,102.9L102.1,103.4L101.7,104L102.1,105.7L102.7,105.8L102.8,106.2L102.7,106.9L102.6,107.6L102.4,108.4L102.3,108.7L101.8,108.9L100.5,108.8L99.29,109.4L96.96,111.8L96.11,112.2L95.21,113.1L95.26,115.2L95.15,115.4L94.94,115.8L92.13,115.1L92.02,115.1L90.17,115.3L88.89,116.3L87.3,116.8L84.01,116.5L80.83,116.9L80.08,117.1L79.23,117.3L78.49,117.9L78.01,118.6L77.27,119.6L76.1,120.4L74.88,121L74.62,121.5L74.19,121.7L73.5,121.3L72.97,121.4L72.28,121.1L70.05,120.9L67.56,120.4L66.39,120L65.07,119.6L63.63,119.3L62.31,119.3L61.67,119.2L58.59,118.4L56.52,118.3L53.82,118L48.51,116.9L46.92,116.4L45.43,116.3L43.68,115.9L42.36,115.2L41.45,114L40.55,112.4L38.91,110.2L38.53,109.1L39.07,108.2L39.6,107.5L39.54,107.2L39.12,107L36.15,108L33.28,109.1L32.17,109.2L31.11,108.9L29.67,108.9L28.24,109.2L25.48,109.4L23.84,110.2L22.83,111.9L22.25,113.2L21.77,113.6L20.81,113.8L19.33,113.7L18.32,113.3L17.31,112.1L15.66,112L14.18,112L13.81,111.7L13.86,111L13.28,109.6L12.27,109.1L9.775,111.8L9.085,112L7.069,111.3L5.318,110.2L5.159,109.4L4.84,108.7L3.355,108L1.551,107.6L0.967,107.6L1.179,107.2L1.391,106.5L1.232,106L0.808,105.4L0.595,104.8L0.542,104.2L0.383,103.8L0.33,103.3ZM-42,308.2L-38.14,309.3L-34.96,308.9L-33.58,308.4L-34.05,306.1L-30.71,306.7L-28.11,307.8L-25.41,310L-23.65,310.5L-20.47,309.5L-13.84,309L-13.84,309L-13.52,310L-13.47,310.9L-14.9,311.7L-15.8,312.3L-16.91,314.6L-18.93,316.2L-19.3,316.7L-19.25,317.1L-17.87,317.9L-17.45,318.5L-17.18,319.4L-17.82,322.7L-18.19,325.3L-18.72,328.5L-18.72,329.8L-18.19,331.3L-17.66,332.5L-17.5,333.8L-17.66,337L-17.02,338.9L-16.54,340.6L-17.76,342.7L-18.24,344.6L-18.61,347.4L-18.72,349L-19.52,350.6L-20.52,352.1L-21.69,353L-23.07,353.8L-24.71,354.9L-26.04,357.6L-28.91,359.9L-29.49,360.7L-29.76,362.6L-29.7,365.1L-29.23,367.2L-27.85,370.2L-26.63,373.4L-26.31,375.1L-25.83,375.7L-24.13,376.8L-21.21,378.3L-20.68,378.9L-19.25,381.1L-17.87,385.2L-17.45,387.8L-14.74,390L-12.3,391.9L-9.911,393.6L-7.311,395.5L-6.939,396.1L-6.09,400L-5.241,403.9L-4.286,408.2L-3.384,412.4L-2.27,417.5L-1.633,420.3L-0.837,423.8L0.065,427.8L-1.421,428.7L-3.013,429.8L-1.845,431.8L0.436,435.2L1.816,437.9L2.293,439.1L3.408,442.4L4.257,445.6L4.469,446.7L4.84,449.2L4.416,456.1L5.053,464.7L5.902,469L4.575,472.9L3.408,476.6L3.514,478.4L4.098,481.3L4.306,482L-42,482ZM144.8,214.8L144.9,213.9L145.1,212.3L145,211.8L145.1,210.9L144.7,209.7L143.9,208.8L144.7,207.3L145.7,205.5L146.6,204L147.8,202.4L148.6,201L149.4,199.7L150.2,199.4L150.5,199.6L150.7,200.2L150.7,201.8L150.9,202.4L151.4,202.8L152.5,202.6L153.6,202.2L155.2,201.3L155.5,201.4L156.1,201.8L157.3,203.8L158.1,205.5L159.7,206.1L160.5,206.8L161.7,207.8L162.2,208.8L163,212L163.1,213.9L162.9,214.8L162.7,215L162,218.1L162.1,219.6L162.1,220.7L161.5,221.1L161.2,221.7L161.8,224.3L161.7,225.3L161.7,226.6L162.9,229.4L163.6,230.3L164.2,230.7L165,233.3L165.5,233.8L167.4,233.5L168.3,233.8L168.6,234.4L168.8,234.9L168.6,236.3L169.1,237.4L169.7,238.6L169.7,239.3L169.3,240.4L168.5,241.8L167.5,242.3L166.4,242.7L165.9,243.8L165.6,244.9L165.1,245.7L164.8,246.6L164.3,248.4L164.2,249.1L163.4,249.7L162.3,250L161.3,250.1L160.5,250.4L160.2,251L159.5,251.5L159.1,251.7L159.1,252.3L159.6,253.4L160.2,254.4L160.2,255.1L159.9,255.3L159,255.2L158.9,255.5L158.8,256.4L158.6,257.1L158.2,257.5L157.6,258L156.4,257.8L155.4,257.1L154.8,256.9L154.5,256.9L154.5,255.2L154,253.8L152.4,250.5L146.9,247.3L145.7,245.8L145.1,244.6L144.6,243.4L145.1,243.4L145.6,243.7L146.3,244.1L146.6,243.5L146.3,242.2L144.9,239.3L144.8,238.5L145.5,236L146.6,233.2L146.5,229.9L146.9,227.3L146.5,225.7L146.3,223.6L147.1,220.9L147.8,220.2L148.3,219.4L148.3,216.5L146.7,215.1ZM154.7,201.1L158.8,194.7L165.9,192.1L176.1,192.7L180.6,198.9L179.9,203.7L176.8,206.9L173.8,208.5L168.8,212.5L163.5,215.2L157.3,211.3L155.6,206.9Z" fill="#D8E2E7" stroke="#3F464B" stroke-width="0.85" vector-effect="non-scaling-stroke"/><path d="M177.6,207.3L178.4,207.4L180.2,206.9L181.3,206.2L181.9,206.1L182.6,205.8L183.7,205.9L184.8,206.2L186.2,205.8L187.5,205.1L188.1,205.3L188.7,205.9L189.1,206L191.4,209L192.6,210.2L194.1,211.1L195.8,211.7L196.3,212.4L197.4,215.5L197.9,216.7L198.6,217.1L198.8,217.4L198.8,217.9L198,220.1L197.7,225L197.5,225.3L196.7,225.3L195.5,225.4L195.1,225.8L194.7,228.4L192.9,229.2L191.3,229.6L189.9,229.5L187.5,228.9L186.7,228.9L186,229.2L183.9,229.4L183,229.8L180.7,232.9L178.5,234L177.8,234.5L176,233.8L175.2,233.7L174.1,234.5L171.5,234.6L170.8,234.8L168.8,234.9L168.6,234.4L168.3,233.8L167.4,233.5L165.5,233.8L165,233.3L164.2,230.7L163.6,230.3L162.9,229.4L161.7,226.6L161.7,225.3L161.8,224.3L161.2,221.7L161.5,221.1L162.1,220.7L162.1,219.6L162,218.1L162.7,215L162.9,214.8L163.1,214.9L164.8,215.2L165.2,214.8L165.5,214.2L165.6,211.9L166,210.8L170.1,208.8L171.4,208.8L172.3,209.7L173,210.3L173.5,210.3L173.6,209.7L174.2,208.5L175,207.9Z" fill="#8B341D" stroke="#2C160F" stroke-width="1.1" vector-effect="non-scaling-stroke"/></svg>