<svg xmlns="http://www.w3.org/2000/svg" viewBox="0 0 360 440" width="360" height="440" role="img" aria-label="Regional map with Namibia highlighted"><rect width="100%" height="100%" fill="#7FA6D6"/><path d="M276.1,214.4L275.4,214L274.5,213.7L273.3,213.5L271.8,213.6L269.9,213.8L267.9,213.5L265.7,212.7L263.9,212.3L261.8,212.7L261.7,212.7L261.3,212.4L260.7,211.8L259.7,211.7L259.5,211.5L259.3,211.3L259.1,211L259,210.7L259.2,209.6L259.1,209.5L258.9,209.4L258.3,209.3L257,208.8L255.4,208.3L252.8,207.9L251.8,207.7L251.5,207.6L251.2,207.2L250.7,206L250.3,205.2L249.1,204L248.9,203.6L249,202.6L249.1,201.9L249.2,201.2L249.1,200.6L249.1,199.8L249.2,199.3L249,199.1L248.6,199L247.4,198.9L246,198.9L246,198.1L245.8,196.9L245.6,196.2L245.3,195.9L244.6,195.5L243.3,195L241.5,194.2L240,193.1L238.2,191.6L237.7,191.4L237,190.1L236,187.8L236.1,187L236,186.6L235,185.5L234.8,184.9L234.6,184.3L233.1,182.7L232.6,182L232.2,181L231.8,180.3L231.4,180L231,179.5L230.7,178.9L230.6,178.5L230.7,178L230.8,177.6L232.3,178L233.1,178L233.7,177.8L234.5,178.1L235.4,178.8L236.4,179L237.4,178.5L238.9,178.6L240.7,179.4L242.3,179.5L244.1,178.9L245.7,177.1L247.2,175.3L248.7,173.4L249.6,171.8L250.9,170.5L252.7,169.5L254.4,168.7L257.1,167.6L257.7,166.8L257.9,165.9L257.9,164.6L258,163.8L258.3,163.4L258.7,163.1L259.3,162.7L261.1,161.7L262.6,161.1L264.4,160.7L266.4,160.7L268.3,160.7L269.4,160.7L269.4,161.9L269.5,163.3L269.7,163.4L271.2,163.5L273.5,163.6L275.7,163.7L277.2,164.7L277.6,164.9L279.1,165.2L281,166.8L283.3,167L284.9,167.5L286.2,168.1L287,168.8L287.5,168.9L288.2,169L288.6,169.1L288.5,169.6L288.1,170.4L288.1,171.6L288.8,173.3L288.8,174.8L288.6,177.3L288.7,179.8L288.7,180.7L288.8,181.3L288.9,181.7L288.9,182L288.5,183.1L288.2,184.2L288.2,184.6L288.1,185L287.9,185.2L286.9,185.7L286.7,186.1L286.7,186.6L286.8,187.1L287.2,187.3L287.7,187.6L287.8,187.9L287.8,188.3L287.7,189L287.3,190.2L287.7,191.6L288.2,192.4L288.8,193.4L289,194.1L289,194.5L288.9,195L288,196.8L287.3,198L286.5,199.2L285.4,200L285.2,200.4L285.1,200.8L285.1,201.7L285.1,202.7L284.1,204.2L284.7,205.5L284.6,205.6L284.2,205.8L282.9,207.3L281.6,208.7L280.6,209.8L279.5,211L278.2,212.4L277.2,213.6ZM269.4,160.7L268.3,160.7L266.4,160.7L264.4,160.7L262.6,161.1L261.1,161.7L259.3,162.7L258.7,163.1L258.3,163.4L258,163.8L257.9,164.6L257.9,165.9L257.7,166.8L257.1,167.6L254.4,168.7L252.7,169.5L250.9,170.5L249.6,171.8L248.7,173.4L247.2,175.3L245.7,177.1L244.1,178.9L242.3,179.5L240.7,179.4L238.9,178.6L237.4,178.5L236.4,179L235.4,178.8L234.5,178.1L233.7,177.8L233.1,178L232.3,178L230.8,177.6L229.6,176.3L228.9,175.8L228.4,175.6L226.9,175.4L223.4,175.1L223.1,175.2L221.7,175.4L219.9,175.7L218.4,176L216.7,176.4L215.2,175L213.5,173.6L211.8,171.9L210.5,170.6L209.8,169.9L208.6,168.9L207.8,168.4L207.5,168.2L206.7,165.5L206.2,163.1L206.2,161.3L206.2,158.8L206.2,156.3L206.2,153.8L206.2,151.3L206.2,148.9L206.2,146.4L206.2,143.9L206.2,141.4L206.2,140.2L207.9,140.2L209.9,140.2L211.9,140.2L214.2,140.2L216.4,140.2L218.7,140.2L220.2,140.2L220.6,140.2L221.1,140.1L221.1,139.9L220.5,138.7L220.5,138.2L220.7,137.4L221,136.7L221.3,135.8L221.4,135.2L221.1,133.4L221.1,132.4L221.2,131.4L221.3,130.4L221.2,129.7L221.3,129.3L221.5,128.8L221.6,128.2L221.7,128L221.7,127.7L221.6,127.3L221.5,126.3L221.3,124.9L221.1,123.9L221.4,123.9L222,124L222.2,124.5L222.4,125.1L222.8,125.1L223.8,125.4L224.1,125.9L224.4,126.8L224.2,127.3L223.9,127.7L224.2,128L224.9,128.3L225.3,128.2L226.4,127.6L226.8,127.4L227.4,127.3L228,127.1L229.5,126.8L230.3,126.7L230.7,126.5L231.1,126.5L231.3,126.7L231.1,127.3L231,128L231.3,129.1L231.5,129.6L232,130L232.4,130.2L232.7,130.6L233.5,130.5L235.3,131.1L235.8,131.4L236.6,131.7L237.1,131.8L239,132L239.6,132.1L240.9,132.3L241.9,132.3L242.6,132.3L243.1,132.1L243.4,131.9L243.5,131.7L243.7,131.2L244.1,129.9L244.3,129.6L244.6,129.4L245.1,129.3L245.4,129.5L245.7,130.9L247.1,132.1L247.6,133.1L247.9,134L248.2,134.3L248.7,134.6L249.6,134.7L250.4,134.7L251.9,135.3L253.2,135.9L254.1,136.2L254.5,136.5L254.8,136.9L255,137.3L255.3,138.2L255.6,138.9L256,139.1L256.5,139.1L256.9,139.6L257.2,140.1L257.9,141.1L258.3,141.9L258.5,142.6L259,143L259.8,143.3L260.5,143.3L260.8,143.1L261.8,142.7L262.6,142.3L263.1,142.1L263.4,142.2L263.7,142.5L263.8,143.1L263.8,143.4L264.4,143.7L264.8,143.6L264.9,143.2L264.9,143.1L264.9,141.5L264.9,140.1L264.9,138.9L264.9,137.3L264.9,136L264.9,134.9L264.9,133.7L264.6,133.8L264.1,134L263.1,134.1L262.7,134.3L262.6,134.6L262.7,135L262.7,135.5L262.6,135.7L262.2,135.8L261.5,135.6L260.4,135.4L259.4,135.2L258.7,134.5L257.8,133.4L257.2,132.9L255.7,131.8L255.5,131.6L255,131.1L254.7,130.2L254.5,129.6L254.3,129.2L254.1,128.6L254.4,127.6L255,125.7L255.3,124.3L255.5,123.3L256.2,122.3L256.3,121.4L256,120.3L256.1,119.6L256.1,118L256.2,116.6L256.2,115.9L256,114.8L255.5,113.5L254.4,111.7L254.4,111.3L255.1,110.9L256,110.1L256.5,109.7L257.1,109.1L257.4,108.8L258,108L258.3,107.3L258.4,106.5L258.2,105.7L258.7,105.5L260.6,105.2L262.6,104.9L264.7,104.6L266.8,104.3L268.9,104L270.8,103.7L272.1,103.5L272.3,104L272.7,104.9L273.2,105.6L273.7,106.2L274.2,106.5L274.5,106.6L276.6,106.6L277.3,107L278,107.4L278.1,108.1L278.6,108.6L279,108.9L279.2,108.9L279.5,108.9L280.1,108.8L280.6,109L280.9,109.2L280.9,109.7L281,110L281.7,110.1L282.4,110.2L283.1,110.6L283.9,110.6L284.7,110.8L285.1,111.2L286,111.7L287.1,112L287.9,112.5L288.4,112.7L288.4,112.9L288.6,113.3L288.8,113.6L288.8,114L288.9,114.3L289.3,114.4L289.5,114.5L289.8,114.2L290.1,114.2L290.4,114.4L290.6,114.8L290.9,115.4L291.3,115.8L291.6,116.2L291.5,116.9L291.3,117.5L291.9,118.1L292.7,118.7L292.9,119L293,119.9L293.1,120.2L293.7,120.9L294,121.4L293.9,121.7L292.5,123.2L292,123.3L291.6,123.4L291.2,123.7L290.9,124L291,124.2L291.2,124.7L291.5,125.5L291.8,126.1L291.6,126.8L291,127.9L290.7,128L290.7,128.9L290.9,129.3L291.1,129.5L291.2,130.1L291.3,131L291.2,131.7L290.9,133.4L291.5,134.9L291.8,135.1L292.7,135.1L292.8,135.2L292.6,135.6L292.2,136.1L292,136.3L290.8,136.8L289.1,137.4L288.8,137.9L288.6,138.7L288.8,139.2L289,139.4L288.9,140.1L288.8,140.9L288.8,141.4L288.7,141.9L288.5,142.2L288.2,143L287.9,143.7L287.6,144.1L287.2,144.5L286.5,144.8L286.5,144.9L287.3,145.3L287.5,145.5L287.5,145.7L287.4,145.9L287.2,146.1L287.6,146.3L288,146.5L288.4,147L288.7,147.8L288.8,148L288.9,148.1L289.1,148.1L289.3,148L289.8,147.6L290.1,147.5L290.5,148L288.9,148.6L288,148.9L285.6,149.7L283.5,150.4L283,150.6L281.9,150.9L281.3,151.1L279.4,151.8L278.6,152.1L278,152.4L276.4,152.9L274.9,153.3L273.3,153.8L271.5,154.3L270.5,154.7L269.8,155L268.2,155.6L268.1,155.8L268.1,156.2L268.3,157.1L268.8,157.9L269.1,158.4L269.3,159.6ZM-1.626,163.5L-2.302,163.5L-2.248,163.1L-1.734,162.8L-1.383,162.8L-1.383,163.3ZM295.8,49.26L295,49.26L293.6,49.26L292.3,49.26L290.9,49.26L289.6,49.26L288.3,49.26L286.9,49.26L285.6,49.26L284.3,49.26L282.9,49.26L281.6,49.26L280.2,49.26L278.9,49.26L277.6,49.26L276.2,49.26L274.9,49.26L273.6,49.26L272.8,49.26L272.6,49.23L272.5,49.19L272,49.3L271.5,49.62L270.9,49.76L270.3,49.7L270.3,49.74L270,49.73L269.5,49.71L269.2,49.79L268.9,50.09L268.5,50.57L268,51.15L267.6,51.64L267.2,52.01L266.4,52.59L265.9,52.76L265.7,52.74L265.6,52.63L265.3,51.88L265.1,51.76L263.5,52.14L263.3,52.15L263.3,51.92L263.2,50.14L263.2,49.06L263.4,48.38L263.5,47.6L263.5,46.92L263.8,45.75L263.7,45.04L264.1,42.58L264.2,42.18L264.3,40.99L264.6,40.62L264.8,40.48L265,39.75L265.6,38.58L266,37.98L265.9,36.66L265.9,35.77L266,35.56L266.8,35.24L267.8,34.42L268.2,33.44L268.9,32.83L270,32.42L270,32.42L273.5,29.08L275.2,27.28L275.9,26.37L275.9,26.03L276,25.6L275.7,25.26L275.4,24.95L275.3,24.67L275,24.53L274.6,24.53L274.3,24.34L274,23.93L273.7,23.67L272.7,23.7L271.9,23.28L271.9,22.72L272.2,21.61L272.8,20.33L272.8,19.99L272.8,19.69L272.6,19.43L272.3,19.17L272.1,18.87L272.3,17.95L272.7,17.05L273,16.61L273.3,16.11L273.2,15.69L272.8,15.5L273,15.09L273.4,14.41L274.3,13.73L275.1,13.28L275.6,13.28L276.6,13.63L277.6,14.06L278.1,14.09L278.7,13.9L279.9,13.14L280.2,13.38L280.6,13.85L281,14.61L281.8,14.96L282.2,15.2L282.5,15.28L282.6,15.21L282.9,14.61L283.3,14.28L284,13.86L285.5,13.54L286.5,13.45L287,13.37L287.8,13.17L288.9,12.56L290.1,13.35L291.4,13.51L292.7,13.5L293,13.26L293.2,13.08L294.5,11.77L296.3,9.995L297.5,12.49L297.9,12.63L297.8,12.86L297.7,13.07L298.5,13.67L299.4,13.98L299.8,14.28L299.8,14.62L299.5,16.08L299.5,16.49L299.8,17.95L300.4,18.28L300.9,19.75L301.9,20.37L302.1,20.55L302.3,21.27L302.6,22.04L302.8,22.22L303,22.27L303.3,23.09L303.1,23.57L303.4,24.97L303.7,26.23L303.8,27.74L303.8,28.41L303.8,28.81L303.7,29.38L303.5,29.71L303.2,30.04L302.9,30.54L302.6,31.08L302.4,31.35L302.5,32.16L302.5,32.37L302.4,32.48L302,32.6L301.4,32.83L301,33.03L300.5,33.45L300.1,33.9L299.6,35.21L298.7,36.23L298.5,36.57L297.7,37.18L297.3,37.92L297.1,38.85L296.8,39.52L296.1,40.42L295.9,41.85L295.9,44.72L295.7,47.97ZM42.02,-42L42.34,-41.93L44.77,-41.34L44.83,-41.23L44.83,-41.06L45.26,-41.06L45.96,-41.27L47.91,-41.35L47.91,-41.35L47.69,-40.53L47.31,-39.52L47.04,-39.19L46.88,-36.72L46.99,-36.51L47.1,-36.45L48.34,-35.6L49.96,-34.52L51.13,-33.74L51.23,-33.49L51.23,-31.86L51.26,-30.47L51.5,-29.68L51.53,-28.9L51.83,-28.32L52.91,-27.19L53.15,-26.53L53.18,-24.41L53.21,-22.8L53.34,-20.61L53.34,-18.78L53.34,-16.48L53.34,-13.78L53.34,-10.96L52.64,-10.93L53.02,-10.05L53.07,-9.261L53.18,-8.999L52.99,-8.618L53.15,-8.027L53.45,-7.817L54.23,-6.636L54.48,-5.652L53.23,-5.311L53.31,-5.062L50.99,-4.524L50.04,-4.092L50.04,-4.511L49.69,-4.59L49.29,-4.734L49.02,-4.957L48.66,-5.455L48.53,-5.836L47.99,-5.901L47.31,-6.334L46.66,-6.846L46.45,-7.345L46.5,-7.568L46.42,-7.804L46.18,-7.896L45.61,-9.025L45.26,-9.484L45.07,-9.852L45.15,-10.14L45.07,-10.52L45.18,-10.82L45.47,-11.01L45.58,-11.23L45.61,-11.72L45.8,-12.69L45.91,-13.66L45.58,-13.93L45.18,-14L44.96,-14.28L44.88,-14.73L44.88,-15.12L45.69,-16.49L45.53,-19.66L45.64,-20.15L45.99,-20.48L46.31,-20.86L46.28,-21.24L45.77,-22.19L44.77,-22.92L44.26,-23.51L43.99,-24.04L43.93,-24.32L44.53,-24.74L44.8,-25.02L44.85,-25.34L44.58,-25.95L44.64,-27.02L44.88,-27.83L45.09,-28.87L45.09,-29.19L44.5,-29.81L44.18,-29.89L43.93,-29.85L43.31,-29.44L43.09,-29.39L42.96,-29.52L42.88,-29.68L43.09,-29.91L43.01,-30.23L43.2,-30.5L43.58,-30.61L43.72,-30.75L43.17,-30.88L43.12,-31.05L43.15,-31.24L43.31,-31.26L43.47,-31.25L43.55,-31.38L43.63,-32.27L43.72,-32.57L43.77,-33.2L43.85,-35.56L43.99,-35.82L43.99,-35.99L43.63,-36.11L42.77,-36.74L42.26,-37.23L41.8,-37.74L41.42,-38.07L40.69,-38.58L40.5,-38.91L40.45,-39.23L40.69,-39.88L41.04,-40.57L41.2,-41.56L41.09,-41.83L40.91,-42L42.02,-42ZM337.8,88.19L338.3,89.8L338.3,90.1L337.9,90.28L337.6,90.3L337.4,90.03L337.2,89.5L336.9,89.63L336.4,88.97L335.9,88.95L335.4,88.17L335.6,87.5L335.5,86.35L336,85.76L336.4,84.77L336.7,85.45L336.8,86.5L337.3,87.74L337.7,88.12ZM340.5,78.61L340.6,79L340.5,79.36L340.5,80.5L340.5,81.25L340,82.3L339.7,82.67L339.3,82.56L339.1,82.39L338.9,82.11L339.3,80.18L339.1,78.78L339.9,78.91ZM288.4,112.7L287.9,112.5L287.1,112L286,111.7L285.1,111.2L284.7,110.8L283.9,110.6L283.1,110.6L282.4,110.2L281.7,110.1L281,110L280.9,109.7L280.9,109.2L280.6,109L280.1,108.8L279.5,108.9L279.2,108.9L279,108.9L278.6,108.6L278.1,108.1L278,107.4L277.3,107L276.6,106.6L274.5,106.6L274.2,106.5L273.7,106.2L273.2,105.6L272.7,104.9L272.3,104L272.1,103.5L271.9,102.8L271.3,101.8L270.6,100.3L270.1,99.18L269.5,97.92L269.3,97L268.8,95.97L268,94.71L267.7,94.22L267.2,93.79L266.2,92.94L264.9,92.1L264.3,91.53L263.4,89.85L263,89.23L262.7,88.17L262.5,87.06L262.6,86.61L263.4,85.18L263.5,84.78L263.4,84.23L263,83.09L262.7,82.35L262.5,81.71L262.1,80.65L261.5,79.2L261.4,78.56L261.4,78.09L261.7,76.83L262,75.54L262,75.17L264.3,75.22L264.7,74.93L266,74.11L267.6,72.44L267.9,71.73L268.5,70.66L269.1,70.14L269.3,69.76L269.5,69.18L269.6,68.7L270.4,67.97L271.2,67.42L271.1,67.19L271,67.03L271.2,66.88L271.6,66.6L272.4,66.34L272.5,65.77L272.5,65.15L272.4,64.78L272.4,64.38L272.3,64.16L271.8,64.09L271,63.78L270.3,63.65L269.9,63.46L269.7,63.32L269.6,62.94L269.8,62.52L269.8,62.41L270,61.96L269.7,61.7L269.6,61.57L269.8,61.36L270.5,59.95L270.6,59.76L270.9,59.73L271.4,59.56L271.8,59.48L272.2,59.55L272.4,59.47L272.7,59.29L272.9,58.74L273,57.83L272.9,57.08L272.6,56.51L272.5,55.62L272.7,54.45L272.5,53.47L272.2,52.69L271.8,52.22L271.2,51.99L270.3,50.8L270,50.22L270,49.86L270.3,49.74L270.3,49.7L270.9,49.76L271.5,49.62L272,49.3L272.5,49.19L272.6,49.23L272.8,49.26L273.6,49.26L274.9,49.26L276.2,49.26L277.6,49.26L278.9,49.26L280.2,49.26L281.6,49.26L282.9,49.26L284.3,49.26L285.6,49.26L286.9,49.26L288.3,49.26L289.6,49.26L290.9,49.26L292.3,49.26L293.6,49.26L295,49.26L295.8,49.26L296.3,49.26L296.9,49.53L297.5,49.87L299.1,50.77L300.7,51.66L302.3,52.55L303.9,53.44L305.5,54.34L307.1,55.23L308.7,56.13L310.3,57.03L311.9,57.92L313.5,58.82L315.1,59.7L316.7,60.6L318.3,61.49L319.9,62.39L321.5,63.28L323.1,64.18L323.9,64.61L324,64.8L324.1,65.6L324.2,66.11L324.2,66.57L323.7,67.33L323.6,67.73L323.6,68.01L323.7,68.11L324,68.15L324.4,68.33L324.5,68.48L324.7,69.05L325,69.34L325.7,69.82L326.8,70.66L328,71.5L329.2,72.32L330.3,73.16L331.5,73.99L332.6,74.82L333.8,75.65L334.9,76.49L335.5,76.9L335.7,77L335.6,77.64L335,79.17L334.9,79.81L334.7,80.57L334.5,81.07L333.9,83.23L333.4,84.04L332.7,85.94L332.6,87.4L333,88.42L333.1,89.37L333.9,90.31L334.5,90.64L335,91.07L335.8,92.04L336.2,93.03L337.6,93.51L338.1,94.6L337.9,95.37L337.3,96L336.7,97.01L336.2,98.35L336.2,100.4L336.5,100.1L337.3,100.6L337.3,102.1L336.6,103.9L336.4,104.7L336.3,105.4L336.9,107.5L337.7,108.5L337.6,108.9L337.4,109.2L338.9,111.1L338.7,112.7L339.3,114L339.5,115.1L339.9,116L339.9,116.6L339.5,117.2L340.5,117.4L341.1,117.9L341.4,118.4L342.2,118.4L342.6,118.8L343.2,119L344.5,119.9L344.8,120.3L344.9,120.6L345,120.8L344.2,121.4L342.8,122.5L341.5,123.5L340.2,124.2L339.3,124.5L338.3,124.7L337.3,125.1L336.5,125.8L335.3,126.1L333.9,126.1L332.5,126.6L331.1,127.5L330.2,128L328.9,127.2L327.9,127L326.7,127L325.9,127.1L325.7,127.3L325.4,127.8L325.3,128.5L324.5,129.3L323.1,130L321.8,130.3L320.7,130.1L319.9,129.8L319.5,129.4L318.9,129.2L318.1,129.2L317.3,129.5L316.6,130.1L315.4,130.3L313.8,130.3L313,130L312.8,129.5L312.1,129L310.8,128.3L309.9,128.3L309.3,128.9L308.7,129.3L308.2,129.5L307.8,129.5L307.4,129.4L307.1,129.3L305.4,129.3L303.7,129.3L303.6,129L303.5,128.4L303.2,127.9L302.9,127.5L302.5,127.5L302.3,127.5L302.1,127.2L302,126.7L301.7,126.2L301.3,125.8L301.1,125.5L301,125.1L301,124.8L301.4,123.9L301.5,123.3L301.5,122.6L301.3,122L300.9,121.2L300.9,121L300.8,120.5L300.8,120.1L300.8,119.7L300.8,119.1L300.4,117.8L300.4,117.4L300.1,116.8L299,115.3L298.9,115.2L297.1,113.7L296.5,113.4L296.2,113.6L296.1,113.9L296.2,114.4L296.1,114.6L296.1,114.7L295.7,114.7L295.4,114.6L294.7,114.3L294.2,114.1L292.9,114.2L292.5,114.3L292.1,114.2L291.5,113.6L290.7,113.4L289.9,113.4L288.8,112.6L288.5,112.6ZM339.4,101.8L339,101.9L338.8,101.8L338.6,101.5L339,101.2L339.4,100.7L340.4,99.95L340.7,99.45L340.9,99.35L340.8,99.94L340.2,101.2L339.8,101.3ZM281.1,243.7L281.2,243.8L281.9,244.2L282,245L281.9,245.9L281.8,246.4L281.8,247L282.1,247.8L282.3,248.4L282.3,251.1L282.1,251L281.6,250.9L281.4,250.9L281.2,252.1L281.1,253.9L281.2,255L279.5,255.1L277.5,255L276,254.5L274.4,253.4L273.5,251.7L273.1,250.7L272.5,250.7L272.4,250.5L272.3,249.2L272.4,247.9L272.5,247.5L273.5,245.9L274.2,244.9L274.6,243.9L275.5,242.8L276.5,242L276.8,241.9L277.1,241.9L278.8,243L280.5,243.9L280.9,243.8ZM290,-42L290.3,-40.26L290.2,-40.11L290.2,-40.02L290,-39.66L290,-39.54L289.9,-39.46L290,-39.4L291.7,-38.79L291.8,-38.75L291.8,-38.69L292.4,-37.97L295.7,-35.29L295.8,-35.16L296.1,-34.31L296.2,-34.17L296.2,-33.98L296.2,-33.82L296.1,-33.31L296.1,-33.09L296.2,-32.93L296.2,-32.76L296.2,-32.7L296.2,-32.67L296.2,-32.59L295.7,-31.61L295.5,-30.92L295.5,-30.34L295.5,-30.01L295.6,-29.78L295.6,-29.73L295.6,-29.7L295.7,-29.68L295.7,-29.66L297.1,-29.66L297.1,-29.66L297.1,-29.35L297.1,-27.81L297.2,-26.47L297.2,-24.26L297.2,-23.7L297.2,-22.97L297,-22.69L296.6,-22.29L296.1,-21.92L294.9,-21.82L293.8,-21.84L293.1,-21.92L292.1,-21.95L291.1,-21.88L290.7,-21.56L290.2,-20.47L289.5,-18.86L289.1,-18.19L289,-17.79L289.1,-17.56L289.6,-17.21L290.7,-16.74L291.9,-16.46L292.8,-16.34L293.5,-16.21L294,-16.06L295.8,-14.83L296.3,-14.27L296.7,-13.77L296.7,-13.23L297,-12.69L298,-11.63L298.6,-11.01L300.1,-10.21L300.7,-9.314L301.3,-8.88L301.8,-8.408L302.1,-7.712L302.8,-5.692L303.2,-4.629L303.7,-3.764L303.9,-2.348L304.2,-1.719L304.6,-0.959L305.2,-0.265L305.9,0.273L306,0.417L304.6,1.779L303.1,3.297L301.3,5.064L299.3,6.987L297.8,8.504L296.3,9.995L296.3,9.995L294.5,11.77L293.2,13.08L293,13.26L292.7,13.5L291.4,13.51L290.1,13.35L288.9,12.56L287.8,13.17L287,13.37L286.5,13.45L285.5,13.54L284,13.86L283.3,14.28L282.9,14.61L282.6,15.21L282.5,15.28L282.2,15.2L281.8,14.96L281,14.61L280.6,13.85L280.2,13.38L279.9,13.14L278.7,13.9L278.1,14.09L277.6,14.06L276.6,13.63L275.6,13.28L275.1,13.28L274.3,13.73L273.4,14.41L273,15.09L272.8,15.5L272.6,15.17L272.4,14.87L272.1,14.49L271.7,14.33L271.3,14.41L270.9,14.49L270.6,14.27L270.6,13.75L270.5,13.26L270.3,12.9L269.6,12.53L267.9,11.8L266.6,10.32L265.9,9.642L265.5,9.198L264.8,8.034L264,7.236L263.1,6.87L262.5,7.053L261.8,7.903L260.6,8.701L260.1,8.74L259.4,8.295L258.5,7.994L256.9,7.851L256.2,8.23L255.4,8.844L254.6,9.211L254.2,9.263L253.8,9.106L253.3,9.028L252.9,9.014L252,8.465L251.6,8.047L251.3,7.654L250.8,7.38L250.2,7.157L249.8,6.804L249.6,6.359L249.3,5.797L248.9,5.287L247.6,4.371L247.2,3.834L246.9,3.297L246.4,2.721L245.8,1.936L245.7,0.796L245.6,-0.12L245.5,-0.54L245.3,-0.972L245,-1.326L244.6,-1.732L243.5,-2.322L242.4,-3.003L241.8,-3.41L240.9,-3.554L240.3,-3.947L239.8,-4.8L239.6,-5.495L239.1,-6.033L238.8,-6.413L238.7,-6.859L239.1,-8.224L238.6,-8.71L237.7,-9.327L237.1,-10.01L236.7,-10.64L235.6,-11.47L233.1,-12.72L231.8,-13.51L231,-14.21L230.3,-14.91L230.3,-15.2L230.7,-15.9L230.8,-16.46L230.4,-17.09L229,-18.29L227.8,-19.6L226.9,-20L224.8,-20.37L224.2,-20.52L223.6,-20.77L222.9,-21.36L222.7,-22.06L223,-23.17L222.8,-23.51L222.5,-23.6L222.6,-23.84L223,-24.38L223.6,-24.74L225.4,-25.29L225.5,-25.5L225.5,-26.2L225.7,-26.55L226.2,-27.51L226.3,-27.89L226.4,-28.73L226.4,-29.11L226.6,-29.39L227.1,-29.88L227.2,-30.17L227.3,-30.8L227.3,-32.04L227.5,-32.55L228.6,-33.69L228.9,-34.19L229,-34.64L229,-35.1L229.1,-35.56L229.4,-36L229.7,-36.15L230.5,-36.28L231,-36.19L234.9,-36.97L235.3,-36.86L235.5,-36.4L235.5,-35.67L235.6,-35.31L235.8,-35.06L236.4,-34.7L236.8,-34.12L237.1,-33.91L237.7,-33.5L240.6,-30.15L241.4,-29.84L242.1,-29.95L243.7,-30.64L244.5,-30.83L249.9,-30.63L250.5,-30.73L250.6,-30.71L251.4,-29.03L251.8,-28.65L257.8,-28.63L257.7,-29.11L257.7,-29.64L258.4,-30.32L258.8,-30.67L258.9,-30.79L259.9,-31.29L260.7,-31.62L262.5,-32L263.1,-32.61L263.5,-33.17L263.5,-34.25L263.7,-34.44L264.1,-34.69L266.1,-35.67L266.5,-35.88L270,-33.6L272,-31.81L272.1,-31.71L272.2,-31.69L272.3,-31.74L272.4,-31.83L272.6,-31.89L272.6,-31.91L273.5,-31.93L275.1,-32.02L275.6,-32.23L278.9,-35.45L279.7,-36.48L279.9,-36.69L280.4,-37.42L280.9,-38.68L281,-38.83L284.5,-41.84L284.6,-42L290,-42ZM284.6,-42L284.5,-41.84L281,-38.83L280.9,-38.68L280.4,-37.42L279.9,-36.69L279.7,-36.48L278.9,-35.45L275.6,-32.23L275.1,-32.02L273.5,-31.93L272.6,-31.91L272.6,-31.89L272.4,-31.83L272.3,-31.74L272.2,-31.69L272.1,-31.71L272,-31.81L270,-33.6L266.5,-35.88L266.1,-35.67L264.1,-34.69L263.7,-34.44L263.5,-34.25L263.5,-33.17L263.1,-32.61L262.5,-32L260.7,-31.62L259.9,-31.29L258.9,-30.79L258.8,-30.67L258.4,-30.32L257.7,-29.64L257.7,-29.11L257.8,-28.63L251.8,-28.65L251.4,-29.03L250.6,-30.71L250.5,-30.73L249.9,-30.63L244.5,-30.83L243.7,-30.64L242.1,-29.95L241.4,-29.84L240.6,-30.15L237.7,-33.5L237.1,-33.91L236.8,-34.12L236.4,-34.7L235.8,-35.06L235.6,-35.31L235.5,-35.67L235.5,-36.4L235.3,-36.86L234.9,-36.97L231,-36.19L230.5,-36.28L229.7,-36.15L229.4,-36L229.1,-35.56L229,-35.1L229,-34.64L228.9,-34.19L228.6,-33.69L227.5,-32.55L227.3,-32.04L227.3,-30.8L227.2,-30.17L227.1,-29.88L226.6,-29.39L226.4,-29.11L226.4,-28.73L226.3,-27.89L226.2,-27.51L225.7,-26.55L225.5,-26.2L225.5,-25.5L225.4,-25.29L223.6,-24.74L223,-24.38L222.6,-23.84L222.5,-23.6L221.7,-23.8L220.8,-23.95L219,-24.12L218.2,-24.37L217.9,-24.75L218,-25.71L217.8,-25.93L217.5,-26.1L217.4,-26.52L217.4,-27.02L218.4,-28.14L218.5,-28.74L218.7,-30.83L218.8,-31.55L218.7,-32.41L218,-33.99L217.3,-35.09L216.2,-36.72L215.8,-37.26L213.6,-39.5L213.4,-39.84L212.8,-40.79L213.1,-41.63L213.2,-42L284.6,-42ZM303.6,-42L303.4,-41.11L303.5,-40.37L303.1,-39.95L302.6,-39.56L302.3,-39.46L301.5,-39.91L301,-40.37L300.8,-40.49L300.3,-40.21L299.7,-39.78L299.1,-38.79L298.5,-37.79L298.8,-35.69L298.8,-35.22L298.7,-34.72L297.9,-33.14L297.7,-32.65L297.4,-31.7L297.1,-30.06L297.1,-29.66L297.1,-29.66L297.1,-29.66L295.7,-29.66L295.7,-29.68L295.6,-29.7L295.6,-29.73L295.6,-29.78L295.5,-30.01L295.5,-30.34L295.5,-30.92L295.7,-31.61L296.2,-32.59L296.2,-32.67L296.2,-32.7L296.2,-32.76L296.2,-32.93L296.1,-33.09L296.1,-33.31L296.2,-33.82L296.2,-33.98L296.2,-34.17L296.1,-34.31L295.8,-35.16L295.7,-35.29L292.4,-37.97L291.8,-38.69L291.8,-38.75L291.7,-38.79L290,-39.4L289.9,-39.46L290,-39.54L290,-39.66L290.2,-40.02L290.2,-40.11L290.3,-40.26L290,-42L303.6,-42ZM261.7,212.7L261.8,212.7L263.9,212.3L265.7,212.7L267.9,213.5L269.9,213.8L271.8,213.6L273.3,213.5L274.5,213.7L275.4,214L276.1,214.4L276.2,214.9L276.2,215.1L276.6,216.2L277.1,217.9L277.5,219.4L277.9,221.6L277.9,222.8L278.1,223.2L278.5,223.8L279,224.8L279.2,225.4L279.4,225.8L280,226.6L280.4,227.8L280.8,229.4L281.1,230.2L281.2,230.6L281.4,231.3L281.4,232.8L281.4,234.4L281.4,236.4L281.4,237.9L281.3,238.7L281.4,241L280.9,242.2L280.9,243.1L281.1,243.7L280.9,243.8L280.5,243.9L278.8,243L277.1,241.9L276.8,241.9L276.5,242L275.5,242.8L274.6,243.9L274.2,244.9L273.5,245.9L272.5,247.5L272.4,247.9L272.3,249.2L272.4,250.5L272.5,250.7L273.1,250.7L273.5,251.7L274.4,253.4L276,254.5L277.5,255L279.5,255.1L281.2,255L281.1,253.9L281.2,252.1L281.4,250.9L281.6,250.9L282.1,251L282.3,251.1L283,251L284.1,251.3L285.1,251.3L285.9,251.2L287.3,251.2L288.1,251.2L287.8,253.1L286.8,256.2L286.4,257.6L285.5,262.6L284.3,265.2L283.6,266.2L281.7,268.1L281.1,268.5L280.6,268.7L279.8,268.9L276.5,272.7L275.2,274.6L274.1,277.2L273.1,278.7L271.4,281.9L270,284.3L268.6,286.6L266.2,289.6L265.2,290.5L264.5,290.9L262.6,292.7L259.9,295.6L257.9,298.2L254.8,301.2L253,302.5L250.4,305L249.6,305.4L246.6,307.8L244.5,309.2L241,310.9L239.6,311.4L236.3,310.9L235,311.2L233.8,312.2L233.7,313.6L233.2,313.9L232.5,313.8L230.2,313.2L228.9,313.3L228.2,314.1L227.6,315.1L225.9,315.1L222.8,314.1L219.1,313.5L218.3,313.4L216.5,314.2L215.9,314.3L213.3,314.1L211.9,313.6L210.5,313.6L209.5,314L208.2,314.2L204.8,316.9L203,316.9L201.5,317.2L200.7,317.2L199.3,316.9L198.8,316.9L198,317L197.2,317.5L195.3,317.7L194.6,318.2L191.5,320.7L190.8,320.6L190.2,320.4L188.6,320.4L186.8,319L186.1,319.1L186.3,318.7L186.3,318L185.9,317.5L185.7,317.3L185,317.3L184.6,316.7L183.5,316.7L183.1,316.8L182.6,316.8L182.5,316.2L182.6,315.8L182.5,315.2L182.4,314.5L182,314.3L181.6,314.2L180.9,314.2L180.3,314.3L180.1,314.5L179.8,315.1L179.8,316.7L179.4,316.2L179,315.2L178.8,314.2L179,313L179.8,312.5L179.7,311.7L179.6,311L178.6,309.2L178.3,308.3L177.5,307.7L176.9,306.4L176.3,305.9L176,304.9L175.4,304.2L175.2,303L175.5,302.3L176.1,301.9L176.6,302.5L177.3,302.3L178.2,301.4L178.8,300.1L178.8,298L178.7,296.7L177.9,293.3L177.6,292.6L175.8,290.2L173.9,287L171.4,282L170.2,279L168.4,272.9L166.8,269.6L164.9,266.4L164.7,266.2L165,265.8L166,265.1L166.5,264.9L166.7,265L167,264.8L167.2,264.3L167.3,263.8L167.4,263.2L167.6,262.8L167.9,262L168.3,261.5L169.2,261.2L169.9,261.6L170.2,262.1L170.4,262.6L170.7,262.9L171.1,262.9L171.5,263.2L171.7,263.9L171.7,264.5L171.4,264.8L171.4,265.2L171.8,265.7L171.9,266.2L172.2,266.9L173.4,267.3L174.1,267.5L175.1,267.6L176.1,267.9L177.1,268.4L178.7,268.5L180.8,268.2L182.6,268.3L184,268.9L185,268.9L185.7,268.6L186,268.2L185.9,267.6L186.2,267.2L186.9,267L187.4,266.6L187.9,265.8L188.9,265.2L190.4,264.8L191.2,264.8L191.2,263.6L191.2,259.8L191.2,256L191.2,252.2L191.2,248.5L191.2,244.8L191.2,241.1L191.2,237.4L191.2,233.9L191.6,234.1L193.9,236L194.6,237L194.9,237.6L195.9,239.8L196.7,241.8L197.3,243.4L197.3,244.1L197.4,244.7L197.5,245.1L197.5,245.4L197,246.3L196.6,246.9L196,247.8L196,248.9L196.2,250.3L196.5,251L196.9,251.2L197.9,250.8L198.5,250.9L199.4,251.2L202.3,251L202.6,251.1L203.7,251.2L204.1,251.1L204.4,250.8L204.8,250L205.1,249.7L205.7,249.6L206.5,249.4L207.1,248.9L208,247.3L209.9,245.9L210.5,245.6L210.9,245.2L211.2,244.7L211.8,242.9L212.4,241.4L212.5,240.7L213,239.5L213.5,238.8L214,238.4L214.3,238.3L215,238.1L215.9,238L216.8,238.2L217.8,238.6L218.9,239.3L220.1,240.3L220.6,240.7L221.2,240.9L222.2,241L222.8,241L223.9,241.9L224.4,242L225.6,242.2L227,242.5L227.9,242.5L228.9,242L229.6,242L230.5,242L231.5,241.9L232.2,241.7L232.8,241.2L233.3,240.8L233.8,239.4L234.2,238.2L234.7,237L235.3,235.2L235.5,234L235.7,233.7L236.6,233.3L237.4,233L239.4,232.6L239.8,232.3L240.2,231.7L241,230.7L242.1,229.9L242.7,229.5L243.7,225.5L243.8,225.1L244.6,224L245,223.6L245.3,223.6L245.7,223.3L246.3,222.8L246.9,222.4L247.7,222.3L248.1,221.9L248.4,221.4L248.7,221.1L249.3,221.1L249.6,220.9L249.7,220.5L250,220.2L250.6,219.9L250.9,219.6L250.9,219.2L251.6,218.3L253,216.8L254.3,216L255.5,215.8L256.6,215.5L257.7,215.1L258.5,214.4L259,213.4L259.9,212.9ZM257,279L258.2,278.4L258.7,278.1L259.2,277.8L259.7,277.4L259.9,276.4L260,275.5L260.4,275.1L260.8,274.8L261.2,274.4L261.6,273.3L261.8,272.2L261.9,271.8L261.7,271.3L261.5,270.9L261.2,270.2L260.9,270.1L260.3,269.8L259.4,269.1L258.6,268.4L257.9,267.5L257.6,267.4L256.9,266.8L256.5,266.4L256.3,266L256.1,265.9L255.8,266L255,266.2L253.2,266.9L252.1,267.6L251.1,268.4L250.1,268.7L249.4,269L248.9,269.9L248.3,270.7L247.9,271.5L247.6,271.9L247.4,272.1L247.1,272.6L246.6,273.4L246.1,273.9L245.5,274.2L244.6,274.6L244.3,274.9L244.3,275.2L244.6,276L244.9,276.7L245.4,277.6L245.7,278.2L246.3,279L246.6,279.5L246.6,280.2L246.7,280.5L246.8,280.8L247,280.9L247.1,281L247.6,281.3L247.7,281.4L248,281.7L248.3,282.2L248.9,282.8L249.6,283.3L250.7,283.5L251.6,283.7L251.9,283.6L252.2,283.2L252.4,282.7L252.5,282L252.7,281.7L253.8,280L254.4,279.4L254.7,279.3L255.2,279.2L255.7,279.2L256.2,279.2L256.3,279.2ZM325.4,442L325.1,442.2L323.6,442L323.4,441.6L323.9,441L324.2,440.7L324.9,440.8L325.6,441.4L325.7,441.5ZM402,6.949L401.5,7.916L398,11.9L393.2,17.04L387,23.13L385.3,24.37L378.5,28.13L374.1,31.27L371.8,33.41L369.5,35.28L367.6,37.05L361.9,43.05L361.3,43.61L360.8,44.14L360.1,45.15L359.6,45.55L358.2,47.26L357.4,48.16L356.4,49.03L356,49.65L355.7,50.36L355.4,50.77L354.6,52.46L353.8,53.59L353.1,54.46L353.1,54.46L353.1,53.85L353,53.53L352.3,52.61L350.9,50.89L349.9,49.59L348.9,48.27L348.9,47.2L348.9,44.03L348.9,37.7L348.8,31.37L348.8,25.04L348.8,21.87L348.8,20.58L348.9,20.37L350.1,19.2L351.6,17.66L353.7,14.74L354.8,13.14L355.7,11.82L355.9,11.42L356.8,10.62L358.3,10.14L359.2,10.06L362.5,9.459L363,9.211L363.3,8.936L363.6,8.308L364.2,7.419L365,6.804L366.6,6.006L368.1,5.326L368.5,5.221L370.3,4.789L370.8,4.645L371.5,4.501L371.8,4.488L374.4,4.645L376.4,4.763L378.4,4.881L378.7,4.789L380.1,3.206L382.4,0.692L383.9,-0.92L386.1,-3.397L387.9,-5.193L389.8,-7.174L391.7,-8.999L393.9,-11.18L395.3,-12.56L397.5,-14.69L399.6,-16.73L401.5,-18.53L402,-19.33L402,6.949ZM-42,-32.28L-41.83,-32.14L-41.21,-31.18L-40.45,-30.07L-39.67,-29.08L-39.15,-28.54L-39.1,-28.36L-39.13,-28.13L-39.4,-27.63L-39.61,-27.07L-39.59,-26.88L-39.42,-26.77L-38.59,-26.6L-38.53,-25.99L-38.51,-25.15L-38.13,-24.36L-37.72,-23.77L-37.75,-23.56L-38.7,-22.57L-39.05,-21.6L-39.24,-21.32L-39.32,-21.1L-39.13,-20.99L-38.88,-21.06L-38.51,-20.98L-38.15,-20.95L-37.69,-21.31L-36.94,-22.21L-36.67,-22.31L-36.1,-22.23L-36.1,-22.23L-36.13,-22.01L-36.34,-20.91L-36.67,-19.98L-36.88,-19.75L-37.86,-19.5L-38.26,-19.1L-38.61,-17.77L-38.83,-16.73L-39.15,-16.56L-40.56,-15.06L-41.48,-14.49L-42,-14.09L-42,-32.28ZM96.9,29.95L96.6,30.14L96.28,29.98L96.2,29.68L96.63,29.11L96.82,28.97L96.98,29.08L97.09,29.24L97.12,29.48ZM91.14,40.82L90.38,41.37L90.11,41.22L89.92,40.85L89.71,40.01L89.79,39.62L90.14,39.16L90.9,38.72L91.36,38.68L91.82,39.28L91.82,39.89ZM263.3,52.15L263.5,52.14L265.1,51.76L265.3,51.88L265.6,52.63L265.7,52.74L265.9,52.76L266.4,52.59L267.2,52.01L267.6,51.64L268,51.15L268.5,50.57L268.9,50.09L269.2,49.79L269.5,49.71L270,49.73L270.3,49.74L270,49.86L270,50.22L270.3,50.8L271.2,51.99L271.8,52.22L272.2,52.69L272.5,53.47L272.7,54.45L272.5,55.62L272.6,56.51L272.9,57.08L273,57.83L272.9,58.74L272.7,59.29L272.4,59.47L272.2,59.55L271.8,59.48L271.4,59.56L270.9,59.73L270.6,59.76L270.4,59.72L270.1,59.57L269.5,59.1L268.5,59.37L268.2,59.35L267.8,59.59L267.5,59.86L267.3,59.87L267.1,59.84L266.2,59.29L265.9,59.3L265.8,60.87L265.6,61.74L265.5,62.13L264.8,62.51L264.2,62.72L263.8,62.71L262.4,62.82L261.9,62.82L261.6,62.69L261.2,61.8L260.4,61.41L259.7,61.23L259.4,61.28L259.2,61.74L259,62.16L258.3,61.87L258.2,61.52L258.1,60.92L257.9,60.11L258,59.76L258.3,59.53L258.9,59.1L259.7,58.5L259.9,58.22L260,57.73L260,56.64L259.9,55.7L260,55.36L260.4,54.64L260.9,53.9L261.6,53.13L262,53.05L262.5,52.75L263,52.31ZM95.95,8.504L95.25,8.74L94.76,8.688L95.41,7.681L95.74,7.903L96.17,7.994ZM145.1,-42L144,-40.43L142.8,-38.39L142.3,-36.69L141.9,-35.08L140.8,-34.04L140.6,-33.46L140.6,-33.13L140.6,-32.35L140.4,-31.07L140.3,-30.44L140.1,-30.26L138.9,-29.86L138.2,-29.4L137.8,-28.46L137.7,-27.44L137.5,-26.3L137.3,-25.29L137.1,-24.76L136.8,-24.21L136.2,-23.63L135.6,-23.29L134.3,-23.08L133.6,-21.74L133,-20.7L133,-20.28L132.4,-18.12L131.5,-16.49L131.4,-15.91L131.4,-15.45L130.2,-14.02L129.8,-13.6L129.5,-13.04L129.8,-12.51L130.2,-12.02L130.2,-11.86L129.7,-11.4L128.7,-10.61L128.1,-10.14L128,-9.878L127.9,-8.697L127.7,-8.368L127.3,-7.935L126.8,-7.45L126.2,-7.082L125.5,-6.82L124.9,-6.728L124.6,-6.885L124.3,-7.24L124,-8.697L123.8,-9.012L123.4,-9.287L122.6,-10.09L121.8,-10.89L120.8,-11.45L120.6,-11.41L120.4,-11.26L120.1,-10.46L119.9,-10.15L119.3,-10.05L118.4,-10.05L117.8,-10.15L117.6,-10.32L117.5,-10.67L117.3,-10.96L116.5,-10.39L115.3,-9.497L114.9,-9.34L114.6,-9.169L114.2,-8.329L113.7,-7.437L113,-6.977L112.4,-6.584L112,-6.242L111.5,-5.836L110.5,-4.826L109.2,-3.488L108.7,-2.794L108.2,-1.771L108,-0.631L107.7,0.626L107.2,2.63L106.6,3.769L106,4.672L105.6,5.378L105.4,5.967L105.3,5.954L105.1,6.202L104.5,6.032L104.2,5.522L103.8,5.444L103.1,4.698L103,4.816L103.7,6.713L103.4,7.458L101.4,7.471L99.71,7.72L98.55,7.707L97.95,7.432L97.68,6.726L97.6,6.791L97.52,7.184L97.17,7.471L95.84,7.537L95.25,7.053L94.79,6.503L94.28,6.268L94.36,6.49L94.95,7.027L94.87,7.785L93.82,8.661L93.14,8.714L92.71,8.334L92.49,7.72L92.38,6.804L92.11,6.202L91.95,6.202L92.09,6.752L92.14,7.197L92.14,8.125L92.66,8.844L91.87,9.067L91.57,9.08L90.95,9.093L90.84,8.831L90.71,8.23L90.55,8.073L90.36,9.093L89.95,9.158L89.68,9.145L88.44,9.367L88.17,9.328L88.11,9.145L88.27,8.858L88.22,8.4L87.81,8.753L87.73,9.459L87.49,9.564L86.76,9.472L85.98,9.106L85.49,8.74L84.68,8.23L83.11,6.778L82.84,6.137L82.38,5.339L82.06,4.528L81.57,3.153L81.7,3.049L82.08,3.166L82.27,2.97L81.6,2.813L81.46,2.656L81.43,2.171L81.46,1.582L81.97,1.373L82.46,1.268L82.68,0.914L82.81,0.548L81.6,1.098L80.43,0.482L80.19,0.102L80.3,-0.186L80.87,-0.225L81.65,-0.212L82.11,-0.487L81.84,-0.592L81.33,-0.579L81.14,-0.762L81.14,-1.208L80.97,-1.116L80.76,-0.71L79.97,-0.422L79.54,-0.71L79.49,-1.365L79.38,-1.667L79,-1.889L77.65,-3.62L75.94,-5.062L74.4,-6.059L72.13,-6.531L67.32,-6.505L67.05,-6.649L67.35,-6.872L67.78,-7.03L69.32,-7.83L69.05,-7.935L67.45,-7.437L66.89,-7.384L66.19,-6.413L61.97,-6.256L61.45,-6.216L61.48,-6.649L61.67,-7.922L61.8,-8.421L61.97,-8.802L61.8,-9.248L61.64,-9.865L61.56,-10.84L61.78,-11.13L61.83,-11.49L61.8,-12.06L61.8,-13.96L61.91,-14.18L62.05,-14.33L62.05,-14.6L61.8,-15.08L61.56,-15.65L61.56,-16.45L61.48,-17.24L61.32,-17.59L61.43,-18.94L61.51,-20.62L61.43,-21.38L61.59,-21.9L61.67,-23.22L61.67,-24.5L61.97,-26.52L62.91,-26.61L63.99,-26.78L64.51,-27.58L64.78,-28.59L64.7,-29.58L64.91,-29.91L65.35,-30.46L66.13,-31.22L66.1,-32.07L66.32,-32.34L66.7,-32.53L67.24,-32.64L67.86,-33.06L68.19,-33.8L68.51,-34.98L68,-35.82L68,-35.99L68.21,-36.44L68.51,-36.89L68.78,-37.02L69.38,-36.92L69.46,-36.96L69.56,-37.09L69.94,-38.4L69.89,-38.76L69.35,-39.64L69.27,-40.26L69.19,-41.19L69.05,-42L145.1,-42ZM276.1,214.4L277.2,213.6L278.2,212.4L279.5,211L280.6,209.8L281.6,208.7L282.9,207.3L284.2,205.8L284.6,205.6L284.7,205.5L284.1,204.2L285.1,202.7L285.1,201.7L285.1,200.8L285.2,200.4L285.4,200L286.5,199.2L287.3,198L288,196.8L288.9,195L289,194.5L289,194.1L288.8,193.4L288.2,192.4L287.7,191.6L287.3,190.2L287.7,189L287.8,188.3L287.8,187.9L287.7,187.6L287.2,187.3L286.8,187.1L286.7,186.6L286.7,186.1L286.9,185.7L287.9,185.2L288.1,185L288.2,184.6L288.2,184.2L288.5,183.1L288.9,182L288.9,181.7L288.8,181.3L288.7,180.7L288.7,179.8L288.6,177.3L288.8,174.8L288.8,173.3L288.1,171.6L288.1,170.4L288.5,169.6L288.6,169.1L288.2,169L287.5,168.9L287,168.8L286.2,168.1L284.9,167.5L283.3,167L281,166.8L279.1,165.2L277.6,164.9L277.2,164.7L275.7,163.7L273.5,163.6L271.2,163.5L269.7,163.4L269.5,163.3L269.4,161.9L269.4,160.7L269.3,159.6L269.1,158.4L268.8,157.9L268.3,157.1L268.1,156.2L268.1,155.8L268.2,155.6L269.8,155L270.5,154.7L271.5,154.3L273.3,153.8L274.9,153.3L276.4,152.9L278,152.4L278.6,152.1L279.4,151.8L281.3,151.1L281.9,150.9L283,150.6L283.5,150.4L285.6,149.7L288,148.9L288.9,148.6L290.5,148L290.8,148.3L291.9,150.2L292.8,151.3L293.8,152.3L293.9,152.3L294.2,152L294.7,151.9L296.2,151.7L296.9,151.7L297.2,151.4L298.1,151.2L299,151.1L299.3,151.2L300.3,152.6L300.4,153.6L300.6,155.1L300.7,155.8L300.7,156.8L300.5,158L299.8,159.4L299.6,160.1L299.2,161.2L298.6,161.7L298.3,162.2L298.4,162.6L298.7,163L299.3,163.7L299.5,164.1L299.5,164.5L299.5,165L299.6,165.4L299.8,165.6L300.5,166L301.1,166.9L302.2,167.9L303.5,169.4L304.1,169.9L304.6,170L304.8,170.5L304.7,171.1L304.3,171.5L304.5,171.9L304.7,172.2L304.9,172.3L305.5,172.3L306,172.2L306.2,172.1L306.1,169.8L305.7,168.5L305.3,168L305.3,167.9L305.4,167.4L305.8,166.4L306.2,165.4L306.4,165L306.7,164.7L308.5,164.5L309.3,164.2L309.7,163.9L309.9,163.2L310.1,161L310.2,158.9L310,157.8L310.3,156L310.7,154.9L310.5,154.6L310.4,153.1L309.2,151.5L307.7,149.5L306.8,148.4L305.8,147.1L304.1,145.2L303.3,144.5L302.9,144.2L301.5,144L301.1,143.6L300.7,143L300.6,141.9L300.6,141L300.4,139.6L300.1,137.6L300,137.1L299.6,135.6L299.2,134.1L299.2,133.8L299.3,133.4L300,132.4L300.4,131.7L300.7,131.2L301,130.1L301.1,129.6L301.4,129.4L302.7,129.3L303.7,129.3L305.4,129.3L307.1,129.3L307.4,129.4L307.8,129.5L308.2,129.5L308.7,129.3L309.3,128.9L309.9,128.3L310.8,128.3L312.1,129L312.8,129.5L313,130L313.8,130.3L315.4,130.3L316.6,130.1L317.3,129.5L318.1,129.2L318.9,129.2L319.5,129.4L319.9,129.8L320.7,130.1L321.8,130.3L323.1,130L324.5,129.3L325.3,128.5L325.4,127.8L325.7,127.3L325.9,127.1L326.7,127L327.9,127L328.9,127.2L330.2,128L331.1,127.5L332.5,126.6L333.9,126.1L335.3,126.1L336.5,125.8L337.3,125.1L338.3,124.7L339.3,124.5L340.2,124.2L341.5,123.5L342.8,122.5L344.2,121.4L345,120.8L345.4,121.5L346.1,122.3L345.7,122.7L345.2,123L346,123.6L345.4,124.3L345.3,124.8L345.5,125L345.6,125.4L345.2,126.2L344.7,126.9L344.6,127.4L345.1,128.3L344.8,129.9L345.3,131.3L345.4,132.1L345.5,132.5L345.3,133.4L345.4,134.9L345.5,135.5L345.2,136.3L345.7,136.6L345.9,137.4L345.8,138.4L345.7,138.9L344.9,139.5L344.8,139.7L344.8,140.1L345.8,140.1L345.9,140.7L345.8,141.1L345.8,141.9L345.7,142.5L345.9,143.1L345.6,143.8L345.8,144.3L345.8,145L346,146.7L346,148.9L346.1,149.2L346.4,149.5L346.9,149.6L346.9,150.2L346.4,151L346.3,151.4L346.4,152.1L347,151.2L347.4,151.2L347.7,151.6L347.6,152.1L347.8,152.3L347.7,152.9L347.9,153.5L347.8,154.1L347.4,154.5L346.8,155.1L346.7,155.8L346.8,156.2L346.4,156.3L346.2,156.6L346.5,157.2L346.4,157.7L345.8,159.4L343.9,161.6L343.1,162.4L342.4,163.3L342.4,163.7L342.3,164L341.4,165.2L340.5,165.5L340,165.8L340.4,166.9L339.8,167.2L338.7,168L335.9,169.7L335.4,170.1L334.7,171.1L333.7,171.4L333.2,171.6L332.2,171.8L331.9,171.7L331.6,171.7L331.3,171.9L329.4,172.7L327.6,173.2L327.2,173.5L326.9,173.8L325.3,174.4L322.9,175.8L320.9,177.1L319.4,178.5L319,178.7L318.6,179.1L318.4,179.8L318.3,180.2L317.2,181.6L315.6,183.3L315.3,183.8L314.6,184.7L314.6,185.3L314,185.5L313.5,184.9L313.3,186L312.9,186.1L312.4,185.9L311.4,186.4L310.4,187.1L308.9,188.4L306.7,191L303.6,193.6L303.2,193.7L302.9,193.7L301.9,192.8L301.4,192.7L301.8,193.2L302.2,193.7L302.1,194.5L302.1,195.8L301.7,198.3L301.8,198.9L302.2,199.6L303.1,200.4L303.9,201.5L304.9,204.7L305,206.3L306,208.3L306,209.2L306.5,211.5L306.4,213.3L306.4,214.4L306.9,214.9L307.1,214.4L307,213.7L307.1,212.6L307.4,212.1L307.7,212.2L307.8,212.7L308,213.2L308.1,213.6L308.1,214.2L307.7,216.5L307.8,217.4L308.3,219L307.7,220.8L306.8,225.1L306.8,225.8L307,226.2L307.5,226.3L307.6,225.7L307.9,225.7L308.1,226L307.7,228L307.3,228.9L305.9,231L305.2,231.9L303.9,232.9L301.1,234.3L295.2,236.3L292.9,237.3L291.6,237.9L288.7,239.8L287.4,241.1L286.9,242.6L286.4,243.2L285.9,244.1L286.3,244.8L286.8,245.4L287.2,245.8L287.5,246.1L287.8,246.3L288.2,245.1L288.4,244.8L288.7,244.8L288.5,246.2L288.1,251L288.1,251.2L287.3,251.2L285.9,251.2L285.1,251.3L284.1,251.3L283,251L282.3,251.1L282.3,248.4L282.1,247.8L281.8,247L281.8,246.4L281.9,245.9L282,245L281.9,244.2L281.2,243.8L281.1,243.7L280.9,243.1L280.9,242.2L281.4,241L281.3,238.7L281.4,237.9L281.4,236.4L281.4,234.4L281.4,232.8L281.4,231.3L281.2,230.6L281.1,230.2L280.8,229.4L280.4,227.8L280,226.6L279.4,225.8L279.2,225.4L279,224.8L278.5,223.8L278.1,223.2L277.9,222.8L277.9,221.6L277.5,219.4L277.1,217.9L276.6,216.2L276.2,215.1L276.2,214.9ZM301.3,132.6L301.2,132.4L300.9,132.3L300.7,132.4L300.5,132.7L300.8,133L301.2,133ZM301.9,133.4L302.1,133.2L302.2,133L302.2,132.8L302,132.6L301.8,132.5L301.6,132.6L301.5,132.9L301.5,133.3L301.6,133.4ZM0.288,-42L-0.112,-41.72L0.05,-40.87L0.158,-39.65L-0.004,-38.68L-0.004,-38.08L-0.22,-37.45L-0.355,-37.01L-0.599,-37.12L-1.626,-37.08L-2.762,-36.73L-3.14,-36.47L-3.221,-36.11L-3.492,-35.86L-3.843,-35.59L-4.195,-35.25L-4.817,-35.3L-5.411,-35.54L-5.709,-35.76L-5.736,-35.9L-5.547,-36.23L-5.384,-36.59L-5.357,-36.82L-5.574,-37.4L-5.736,-38.02L-5.655,-38.32L-5.817,-39.25L-5.898,-39.29L-6.682,-39.05L-6.953,-39L-7.115,-38.89L-7.169,-38.72L-6.98,-38.14L-7.115,-38.03L-7.547,-38.04L-8.169,-38.24L-8.845,-38.77L-9.007,-38.6L-9.089,-38.18L-9.116,-37.67L-8.953,-36.76L-9.143,-36.43L-9.575,-36.49L-10.2,-36.49L-10.71,-36.4L-11.06,-36.37L-11.28,-36.06L-11.39,-35.69L-11.17,-35.27L-11.2,-35.12L-11.36,-34.96L-11.58,-34.86L-11.74,-34.86L-12.22,-35.31L-12.82,-35.49L-14.17,-35.74L-14.33,-36.36L-14.55,-36.37L-14.88,-36.69L-15.17,-37.12L-15.44,-37.1L-15.66,-36.98L-16.42,-37.02L-17.07,-36.37L-17.55,-35.56L-18.09,-35.18L-18.66,-35.01L-18.88,-35.01L-18.77,-35.51L-18.85,-35.88L-19.01,-36.22L-20.69,-37.1L-20.96,-37.47L-21.2,-38.48L-21.39,-39.49L-21.36,-40.07L-21.25,-40.6L-21.31,-41.02L-21.47,-41.34L-21.99,-41.63L-22.53,-41.77L-23.18,-41.38L-23.5,-41.31L-23.8,-41.34L-23.96,-41.47L-23.93,-41.68L-23.72,-42L0.288,-42ZM301.9,133.4L301.6,133.4L301.5,133.3L301.5,132.9L301.6,132.6L301.8,132.5L302,132.6L302.2,132.8L302.2,133L302.1,133.2ZM301.3,132.6L301.2,133L300.8,133L300.5,132.7L300.7,132.4L300.9,132.3L301.2,132.4ZM290.5,148L290.1,147.5L289.8,147.6L289.3,148L289.1,148.1L288.9,148.1L288.8,148L288.7,147.8L288.4,147L288,146.5L287.6,146.3L287.2,146.1L287.4,145.9L287.5,145.7L287.5,145.5L287.3,145.3L286.5,144.9L286.5,144.8L287.2,144.5L287.6,144.1L287.9,143.7L288.2,143L288.5,142.2L288.7,141.9L288.8,141.4L288.8,140.9L288.9,140.1L289,139.4L288.8,139.2L288.6,138.7L288.8,137.9L289.1,137.4L290.8,136.8L292,136.3L292.2,136.1L292.6,135.6L292.8,135.2L292.7,135.1L291.8,135.1L291.5,134.9L290.9,133.4L291.2,131.7L291.3,131L291.2,130.1L291.1,129.5L290.9,129.3L290.7,128.9L290.7,128L291,127.9L291.6,126.8L291.8,126.1L291.5,125.5L291.2,124.7L291,124.2L290.9,124L291.2,123.7L291.6,123.4L292,123.3L292.5,123.2L293.9,121.7L294,121.4L293.7,120.9L293.1,120.2L293,119.9L292.9,119L292.7,118.7L291.9,118.1L291.3,117.5L291.5,116.9L291.6,116.2L291.3,115.8L290.9,115.4L290.6,114.8L290.4,114.4L290.1,114.2L289.8,114.2L289.5,114.5L289.3,114.4L288.9,114.3L288.8,114L288.8,113.6L288.6,113.3L288.4,112.9L288.4,112.7L288.5,112.6L288.8,112.6L289.9,113.4L290.7,113.4L291.5,113.6L292.1,114.2L292.5,114.3L292.9,114.2L294.2,114.1L294.7,114.3L295.4,114.6L295.7,114.7L296.1,114.7L296.1,114.6L296.2,114.4L296.1,113.9L296.2,113.6L296.5,113.4L297.1,113.7L298.9,115.2L299,115.3L300.1,116.8L300.4,117.4L300.4,117.8L300.8,119.1L300.8,119.7L300.8,120.1L300.8,120.5L300.9,121L300.9,121.2L301.3,122L301.5,122.6L301.5,123.3L301.4,123.9L301,124.8L301,125.1L301.1,125.5L301.3,125.8L301.7,126.2L302,126.7L302.1,127.2L302.3,127.5L302.5,127.5L302.9,127.5L303.2,127.9L303.5,128.4L303.6,129L303.7,129.3L302.7,129.3L301.4,129.4L301.1,129.6L301,130.1L300.7,131.2L300.4,131.7L300,132.4L299.3,133.4L299.2,133.8L299.2,134.1L299.6,135.6L300,137.1L300.1,137.6L300.4,139.6L300.6,141L300.6,141.9L300.7,143L301.1,143.6L301.5,144L302.9,144.2L303.3,144.5L304.1,145.2L305.8,147.1L306.8,148.4L307.7,149.5L309.2,151.5L310.4,153.1L310.5,154.6L310.7,154.9L310.3,156L310,157.8L310.2,158.9L310.1,161L309.9,163.2L309.7,163.9L309.3,164.2L308.5,164.5L306.7,164.7L306.4,165L306.2,165.4L305.8,166.4L305.4,167.4L305.3,167.9L305.3,168L305.7,168.5L306.1,169.8L306.2,172.1L306,172.2L305.5,172.3L304.9,172.3L304.7,172.2L304.5,171.9L304.3,171.5L304.7,171.1L304.8,170.5L304.6,170L304.1,169.9L303.5,169.4L302.2,167.9L301.1,166.9L300.5,166L299.8,165.6L299.6,165.4L299.5,165L299.5,164.5L299.5,164.1L299.3,163.7L298.7,163L298.4,162.6L298.3,162.2L298.6,161.7L299.2,161.2L299.6,160.1L299.8,159.4L300.5,158L300.7,156.8L300.7,155.8L300.6,155.1L300.4,153.6L300.3,152.6L299.3,151.2L299,151.1L298.1,151.2L297.2,151.4L296.9,151.7L296.2,151.7L294.7,151.9L294.2,152L293.9,152.3L293.8,152.3L292.8,151.3L291.9,150.2L290.8,148.3ZM402,212.2L401.1,214.4L400.9,214.9L400.6,217.2L400.2,219.2L399.7,221.2L398.7,224.5L398.5,225.5L398.3,226.5L397.3,228.5L396.9,229.3L396.6,230.1L396.5,231.1L396.2,232.1L395.4,234L394.4,235.6L393.7,236.1L392.1,237L391.3,237.2L389.5,237.2L387.8,237.7L386,238.6L384.3,239.6L383.6,240.1L382.9,240.4L380.7,240.5L380,240.3L377.7,238.5L376.8,238.2L375.1,238L374.7,237.8L374.2,237.6L373.5,236.7L372.2,235.9L371.8,235.7L371.7,235.2L371.5,234.6L371.2,234L370.9,232.8L370.5,231.9L369.3,230.4L369.1,230L369,228.4L369.1,227.3L368.9,225.4L369.1,224.4L369.5,223.6L369.3,222.7L368.9,221.8L368.7,220.8L368.4,220L367.1,218.4L366.8,217.6L366.5,216.8L366.1,214.3L366,213.4L366.1,211.6L366.3,210.6L366.6,210L366.7,209.5L366.9,209L367.2,208.7L367.4,208.3L367.8,206L368.5,205.4L369.4,205.2L370.1,204.5L370.5,203.7L370.9,202L372.1,200.3L372.5,199.5L373.4,198.1L374.2,196.2L374.4,195.4L374.6,194.5L374.8,192.5L375,191.5L375,190.5L374.5,189.5L373.4,187.7L373.4,187.4L373.4,186L373.3,185.1L372.9,184.1L372.4,183.2L371.9,181.5L371.6,178.7L371.7,177.6L371.5,176.8L371.2,175.9L371.4,174.4L374.8,169L374.9,168.3L374.7,166.7L374.8,165.7L374.9,165.4L375.2,165.2L375.7,165.1L378.4,164.8L378.8,164.7L379.4,164.2L380.4,163.3L380.8,163.1L381.1,163.2L381.4,163.6L381.7,163.8L382.7,163.4L383.2,163.4L383.6,163.4L383.8,163.1L383.9,162.6L384.1,162.2L384.4,162L385.7,161.9L386.6,161.8L387.8,161.4L388,161.5L389,162.7L389.3,162.8L389.6,162.9L389.9,162.7L389.2,162L389.1,161.7L389.1,161.2L389.5,160.4L390.2,159.7L391.7,158.7L393.2,157.5L393.7,157.4L394.1,157.6L394.4,159L394.3,159.2L394.6,159.2L394.9,159.1L395.1,158.5L395.1,158L394.9,157.6L394.8,157.2L394.8,156.9L395.6,156L396.2,155.2L396.5,154.3L396.8,153.9L397.4,153.4L397.6,153.5L397.8,153.9L397.9,154.3L397.7,154.7L397.5,155.1L397.3,155.7L397.7,155.8L398.1,155.6L398.6,154.6L399.2,153.7L399.5,153.2L399.9,152.9L400.7,152.9L401.4,153.1L400.2,152.2L399.9,150.8L401.3,148.5L401.3,148L401.5,147.8L401.6,147.6L400.9,146.8L400.8,146.4L400.9,145.9L401.2,145.3L401.5,145L401.9,144.8L402,144.8L402,212.2ZM-42,-14.09L-41.48,-14.49L-40.56,-15.06L-39.15,-16.56L-38.83,-16.73L-38.61,-17.77L-38.26,-19.1L-37.86,-19.5L-36.88,-19.75L-36.67,-19.98L-36.34,-20.91L-36.13,-22.01L-36.1,-22.23L-35.72,-22.27L-35.07,-22.5L-34.69,-22.39L-34.53,-22.09L-34.45,-21.82L-32.5,-22.5L-32.34,-22.64L-32.23,-22.61L-31.99,-22L-31.85,-22.03L-31.72,-22.22L-31.58,-22.23L-31.45,-22.15L-31.29,-21.86L-31.04,-21.61L-30.61,-21.43L-30.34,-21.18L-30.39,-20.53L-30.29,-19.89L-30.1,-19.74L-29.99,-19.37L-29.96,-18.95L-29.85,-18.73L-29.77,-18.31L-29.8,-17.86L-29.75,-17.54L-29.42,-17L-29.23,-16.31L-29.23,-15.82L-29.34,-15.31L-29.56,-14.85L-29.91,-14.33L-29.93,-14.12L-29.72,-13.99L-29.39,-13.96L-29.12,-14.07L-28.45,-13.83L-28.07,-13.51L-27.75,-13.08L-27.47,-12.87L-27.34,-12.61L-26.85,-12.69L-26.29,-12.94L-26.18,-13.06L-25.99,-12.99L-25.64,-12.97L-25.36,-13.43L-25.18,-13.95L-24.72,-14.52L-24.5,-14.73L-24.45,-15.1L-24.42,-15.57L-24.26,-15.96L-23.91,-16.19L-23.5,-16.19L-23.28,-16.11L-23.18,-15.71L-22.88,-15.41L-22.61,-15.21L-22.47,-15.12L-22.23,-14.88L-22.01,-14.1L-21.17,-11.55L-21.23,-10.84L-21.39,-10.38L-21.39,-9.918L-21.45,-9.484L-21.96,-8.749L-23.47,-7.253L-23.36,-7.122L-23.01,-6.951L-22.63,-6.872L-22.34,-6.912L-21.96,-6.544L-21.53,-6.072L-21.09,-5.836L-20.47,-5.613L-19.93,-5.587L-19.47,-5.678L-18.82,-5.587L-18.12,-5.193L-17.88,-4.55L-17.69,-4L-17.44,-3.711L-17.42,-3.239L-16.93,-2.807L-16.23,-2.728L-15.31,-2.23L-15.06,-2.256L-14.96,-2.322L-14.85,-2.217L-14.63,-0.789L-14.44,-0.029L-14.52,0.273L-14.66,0.521L-14.66,1.674L-15.09,2.342L-15.14,3.075L-15.28,3.31L-15.71,3.52L-15.71,4.07L-15.82,4.75L-15.88,5.47L-15.77,7.354L-15.74,8.753L-15.52,9.014L-16.39,8.897L-18.93,7.824L-20.9,7.21L-27.45,3.716L-29.29,2.302L-31.37,0.207L-36.05,-4.013L-37.1,-4.682L-38.45,-5.009L-39.29,-5.377L-39.86,-5.77L-40.34,-6.938L-41.51,-7.633L-42,-7.858L-42,-14.09ZM257,279L256.3,279.2L256.2,279.2L255.7,279.2L255.2,279.2L254.7,279.3L254.4,279.4L253.8,280L252.7,281.7L252.5,282L252.4,282.7L252.2,283.2L251.9,283.6L251.6,283.7L250.7,283.5L249.6,283.3L248.9,282.8L248.3,282.2L248,281.7L247.7,281.4L247.6,281.3L247.1,281L247,280.9L246.8,280.8L246.7,280.5L246.6,280.2L246.6,279.5L246.3,279L245.7,278.2L245.4,277.6L244.9,276.7L244.6,276L244.3,275.2L244.3,274.9L244.6,274.6L245.5,274.2L246.1,273.9L246.6,273.4L247.1,272.6L247.4,272.1L247.6,271.9L247.9,271.5L248.3,270.7L248.9,269.9L249.4,269L250.1,268.7L251.1,268.4L252.1,267.6L253.2,266.9L255,266.2L255.8,266L256.1,265.9L256.3,266L256.5,266.4L256.9,266.8L257.6,267.4L257.9,267.5L258.6,268.4L259.4,269.1L260.3,269.8L260.9,270.1L261.2,270.2L261.5,270.9L261.7,271.3L261.9,271.8L261.8,272.2L261.6,273.3L261.2,274.4L260.8,274.8L260.4,275.1L260,275.5L259.9,276.4L259.7,277.4L259.2,277.8L258.7,278.1L258.2,278.4ZM349,57.94L348.7,58.01L348.9,57.58L349.7,57.02L350.1,57.15L350.1,57.28L350.1,57.38L349.9,57.5ZM295.8,49.26L295.7,47.97L295.9,44.72L295.9,41.85L296.1,40.42L296.8,39.52L297.1,38.85L297.3,37.92L297.7,37.18L298.5,36.57L298.7,36.23L299.6,35.21L300.1,33.9L300.5,33.45L301,33.03L301.4,32.83L302,32.6L302.4,32.48L302.5,32.37L302.5,32.16L302.4,31.35L302.6,31.08L302.9,30.54L303.2,30.04L303.5,29.71L303.7,29.38L303.8,28.81L303.8,28.41L303.8,27.74L303.7,26.23L303.4,24.97L303.1,23.57L303.3,23.09L303,22.27L302.8,22.22L302.6,22.04L302.3,21.27L302.1,20.55L301.9,20.37L300.9,19.75L300.4,18.28L299.8,17.95L299.5,16.49L299.5,16.08L299.8,14.62L299.8,14.28L299.4,13.98L298.5,13.67L297.7,13.07L297.8,12.86L297.9,12.63L297.5,12.49L296.3,9.995L297.8,8.504L299.3,6.987L301.3,5.064L303.1,3.297L304.6,1.779L306,0.417L306,0.665L306,1.019L306.2,1.229L306.4,1.373L306.8,1.216L307.2,1.006L307.5,0.967L309.6,1.53L309.9,2.027L309.9,2.551L310,2.944L309.8,3.323L309.7,4.501L309.7,5.574L310.4,6.359L310.9,6.987L311.3,7.864L311.7,8.138L312.1,8.269L313.6,8.308L315.7,8.361L317.7,8.413L317.9,8.439L318.3,8.557L320.2,9.747L321.9,10.82L323.3,11.76L324.7,12.68L326.1,13.56L327.2,14.31L328.2,14.53L329.9,14.63L331.1,14.67L332.2,14.97L333.8,15.26L335,15.42L335.7,15.57L337.8,15.76L338.1,15.65L339,14.83L340,13.51L340.4,12.78L341.6,12.05L343.9,11.04L345.5,10.32L347.3,9.603L348.1,10.23L349.2,11.22L349.7,11.72L350.1,11.94L350.7,12.09L351.5,12.09L351.9,12.06L352.7,11.93L354.6,11.81L355.7,11.82L354.8,13.14L353.7,14.74L351.6,17.66L350.1,19.2L348.9,20.37L348.8,20.58L348.8,21.87L348.8,25.04L348.8,31.37L348.9,37.7L348.9,44.03L348.9,47.2L348.9,48.27L349.9,49.59L350.9,50.89L352.3,52.61L353,53.53L353.1,53.85L353.1,54.46L352,55.75L351.1,56.34L349.9,56.61L349.5,56.56L349,56.38L348.8,56.69L348.7,57.17L348.4,57.07L348.2,56.92L348.4,57.79L348.5,58.2L348.3,58.78L347.7,59.27L347.6,59.69L346.4,60.8L344.6,60.93L343.6,61.48L343.2,61.92L342.9,62.9L343,64.42L342.5,65.56L342.4,66.15L341.5,66.9L341.1,67.59L340.8,68.3L340.5,68.61L340.2,70.18L339.8,71.13L339.6,71.46L339.5,71.74L339.2,72.31L339,72.69L338.8,72.95L337.7,75.39L336.9,76.5L336.2,76.37L335.8,76.81L335.7,77L335.5,76.9L334.9,76.49L333.8,75.65L332.6,74.82L331.5,73.99L330.3,73.16L329.2,72.32L328,71.5L326.8,70.66L325.7,69.82L325,69.34L324.7,69.05L324.5,68.48L324.4,68.33L324,68.15L323.7,68.11L323.6,68.01L323.6,67.73L323.7,67.33L324.2,66.57L324.2,66.11L324.1,65.6L324,64.8L323.9,64.61L323.1,64.18L321.5,63.28L319.9,62.39L318.3,61.49L316.7,60.6L315.1,59.7L313.5,58.82L311.9,57.92L310.3,57.03L308.7,56.13L307.1,55.23L305.5,54.34L303.9,53.44L302.3,52.55L300.7,51.66L299.1,50.77L297.5,49.87L296.9,49.53L296.3,49.26ZM-23.72,-42L-23.93,-41.68L-23.96,-41.47L-23.8,-41.34L-23.5,-41.31L-23.18,-41.38L-22.53,-41.77L-21.99,-41.63L-21.47,-41.34L-21.31,-41.02L-21.25,-40.6L-21.36,-40.07L-21.39,-39.49L-21.2,-38.48L-20.96,-37.47L-20.69,-37.1L-19.01,-36.22L-18.85,-35.88L-18.77,-35.51L-18.88,-35.01L-19.04,-34.72L-19.52,-34.28L-19.98,-33.94L-20.12,-33.57L-20.04,-32.86L-20.04,-31.29L-19.98,-29.93L-19.61,-29.43L-19.17,-29.17L-18.66,-29.23L-18.17,-29.32L-18.2,-28.5L-18.34,-27.59L-17.74,-27.3L-17.44,-27.02L-17.28,-26.77L-18.23,-26.28L-18.5,-25.99L-18.61,-25.24L-18.58,-24.53L-17.34,-24.02L-16.85,-23.43L-16.63,-22.82L-16.55,-21.66L-16.66,-21.4L-16.98,-21.4L-17.36,-21.76L-17.63,-22.1L-17.96,-22.1L-18.61,-22.18L-19.31,-22.31L-20.2,-22.29L-20.52,-22.22L-20.74,-22.01L-20.8,-21.65L-20.88,-20.48L-20.58,-20.22L-20.01,-19.93L-19.63,-19.81L-19.31,-19.85L-19.07,-19.65L-19.01,-19.15L-19.2,-18.78L-19.5,-18.44L-19.9,-17.56L-19.82,-17.23L-19.82,-16.74L-20.5,-15.45L-20.69,-15.2L-21.58,-15.45L-22.18,-15.54L-22.61,-15.21L-22.88,-15.41L-23.18,-15.71L-23.28,-16.11L-23.5,-16.19L-23.91,-16.19L-24.26,-15.96L-24.42,-15.57L-24.45,-15.1L-24.5,-14.73L-24.72,-14.52L-25.18,-13.95L-25.36,-13.43L-25.64,-12.97L-25.99,-12.99L-26.18,-13.06L-26.29,-12.94L-26.85,-12.69L-27.34,-12.61L-27.47,-12.87L-27.75,-13.08L-28.07,-13.51L-28.45,-13.83L-29.12,-14.07L-29.39,-13.96L-29.72,-13.99L-29.93,-14.12L-29.91,-14.33L-29.56,-14.85L-29.34,-15.31L-29.23,-15.82L-29.23,-16.31L-29.42,-17L-29.75,-17.54L-29.8,-17.86L-29.77,-18.31L-29.85,-18.73L-29.96,-18.95L-29.99,-19.37L-30.1,-19.74L-30.29,-19.89L-30.39,-20.53L-30.34,-21.18L-30.61,-21.43L-31.04,-21.61L-31.29,-21.86L-31.45,-22.15L-31.58,-22.23L-31.72,-22.22L-31.85,-22.03L-31.99,-22L-32.23,-22.61L-32.34,-22.64L-32.5,-22.5L-34.45,-21.82L-34.53,-22.09L-34.69,-22.39L-35.07,-22.5L-35.72,-22.27L-36.1,-22.23L-36.1,-22.23L-36.67,-22.31L-36.94,-22.21L-37.69,-21.31L-38.15,-20.95L-38.51,-20.98L-38.88,-21.06L-39.13,-20.99L-39.32,-21.1L-39.24,-21.32L-39.05,-21.6L-38.7,-22.57L-37.75,-23.56L-37.72,-23.77L-38.13,-24.36L-38.51,-25.15L-38.53,-25.99L-38.59,-26.6L-39.42,-26.77L-39.59,-26.88L-39.61,-27.07L-39.4,-27.63L-39.13,-28.13L-39.1,-28.36L-39.15,-28.54L-39.67,-29.08L-40.45,-30.07L-41.21,-31.18L-41.83,-32.14L-42,-32.28L-42,-42ZM40.91,-42L41.09,-41.83L41.2,-41.56L41.04,-40.57L40.69,-39.88L40.45,-39.23L40.5,-38.91L40.69,-38.58L41.42,-38.07L41.8,-37.74L42.26,-37.23L42.77,-36.74L43.63,-36.11L43.99,-35.99L43.99,-35.82L43.85,-35.56L43.77,-33.2L43.72,-32.57L43.63,-32.27L43.55,-31.38L43.47,-31.25L43.31,-31.26L43.15,-31.24L43.12,-31.05L43.17,-30.88L43.72,-30.75L43.58,-30.61L43.2,-30.5L43.01,-30.23L43.09,-29.91L42.88,-29.68L42.96,-29.52L43.09,-29.39L43.31,-29.44L43.93,-29.85L44.18,-29.89L44.5,-29.81L45.09,-29.19L45.09,-28.87L44.88,-27.83L44.64,-27.02L44.58,-25.95L44.85,-25.34L44.8,-25.02L44.53,-24.74L43.93,-24.32L43.99,-24.04L44.26,-23.51L44.77,-22.92L45.77,-22.19L46.28,-21.24L46.31,-20.86L45.99,-20.48L45.64,-20.15L45.53,-19.66L45.69,-16.49L44.88,-15.12L44.88,-14.73L44.96,-14.28L45.18,-14L45.58,-13.93L45.91,-13.66L45.8,-12.69L45.61,-11.72L45.58,-11.23L45.47,-11.01L45.18,-10.82L45.07,-10.52L45.15,-10.14L45.07,-9.852L45.26,-9.484L45.61,-9.025L46.18,-7.896L46.42,-7.804L46.5,-7.568L46.45,-7.345L46.66,-6.846L47.31,-6.334L47.99,-5.901L48.53,-5.836L48.66,-5.455L49.02,-4.957L49.29,-4.734L49.69,-4.59L50.04,-4.511L50.04,-4.092L49.45,-3.803L49.02,-3.37L48.69,-2.715L48.26,-1.994L46.77,-1.614L46.18,-1.601L43.09,-1.588L40.17,-0.16L38.52,0.351L37.5,1.15L36.12,1.726L35.15,2.42L33.14,2.747L29.85,3.834L28.82,4.266L27.79,5.025L26.09,5.915L25.44,5.902L24.11,5.077L23.11,4.658L20.68,4.017L18.87,3.782L17.98,3.507L17.76,3.454L17.95,3.153L18.46,3.14L19,3.232L19.38,2.996L19.98,2.97L20.14,2.734L20.19,2.132L20.19,1.648L20.38,1.438L20.44,0.862L20.14,-0.396L19.95,-0.54L18.9,-0.723L18.81,-0.972L18.63,-1.247L18.41,-1.889L18.19,-2.859L17.81,-4.065L17.08,-6.046L16.92,-6.754L16.79,-7.463L16.76,-8.329L16.92,-8.644L16.89,-9.077L16.84,-9.524L17.33,-10.54L18.33,-11.77L18.52,-12.22L18.71,-12.53L18.73,-12.98L18.92,-14.43L19.38,-16.16L19.68,-16.83L19.87,-17.19L20.11,-17.77L20.19,-18.04L21.09,-18.73L21.52,-18.91L21.6,-19.18L21.46,-19.48L21.52,-19.68L21.73,-19.78L22.06,-19.86L22.3,-20.14L21.92,-22.3L21.63,-24.45L21.6,-24.63L21.41,-24.94L21.25,-25.82L20.92,-26.34L20.49,-26.49L20.52,-26.98L20.95,-27.81L21.06,-28.3L20.84,-28.45L20.82,-28.82L20.95,-29.44L20.9,-29.81L20.82,-30.22L20.36,-31.16L20.25,-31.83L20.49,-32.22L20.46,-33.08L20.22,-34.4L20.19,-35.23L20.36,-35.58L20.27,-35.91L19.95,-36.23L19.92,-36.53L20.19,-36.84L20.17,-37.06L19.82,-37.23L19.52,-37.65L19.25,-38.28L19.3,-39.32L19.82,-41.23L19.87,-41.39L20.46,-41.38L20.46,-41.3L22.3,-41.32L24.38,-41.34L26.87,-41.36L29.12,-41.39L29.22,-41.47L29.6,-41.58L31.87,-41.38L33.31,-41.48L33.9,-41.42L34.36,-41.28L35.34,-41.36L35.88,-41.32L36.25,-40.84L36.42,-40.84L36.63,-41.04L37.04,-41.28L37.44,-41.45L37.74,-41.83L37.84,-42L40.91,-42ZM141,25.48L140.9,26L140.3,27.3L140.1,28.29L140,29.34L140.2,30.19L140.4,30.79L140.6,31.46L140.5,31.91L140.2,32.11L140.4,32.34L140.8,32.4L141.6,32.2L142.7,31.85L144.2,31.34L145.2,31.07L146.8,31.24L147.6,31.43L148.1,31.8L148.6,33.31L148.8,33.53L149.2,34.18L149.5,34.95L149.6,35.34L149.5,35.63L149.2,36.05L148.8,36.66L148.7,37.04L148.4,37.31L148,37.59L146.9,37.69L146.8,37.86L146.5,38.51L145.9,39.07L145.6,39.59L145.4,40.28L145.5,41.16L145.4,42.41L145.2,43.24L145.5,43.55L146.8,43.75L147.1,43.92L147.4,44.44L147.8,44.94L149,45.24L149.5,45.62L149.8,46.03L149.9,46.37L149.6,47.73L149.4,49.02L149.5,50.01L149.6,50.96L149.7,52.33L149.7,53.18L149.3,53.69L149.3,54.09L149.5,54.58L149.2,55.92L149,56.14L148.4,56.4L148.2,56.76L148.1,57.33L147.8,58.1L147.5,58.39L147.5,58.74L147.8,59.01L147.8,59.4L147.2,59.89L146.9,60.25L146.2,60.44L145.4,60.25L145.2,59.98L145.4,59.56L145.4,59.23L145.1,58.88L144.6,57.98L144.3,57.79L144.1,58.15L143.4,58.84L142.3,59.72L141.5,59.8L140,59.52L138.7,59.1L138.1,58.07L137.8,57.23L137.2,56.23L136.6,55.76L136,55.46L135.7,55.45L134.8,56L134.5,56.21L134.5,56.68L134.6,57.11L134.7,57.32L134.9,57.59L134.8,58.02L134.7,58.59L134.6,59.23L131.8,59.85L131.2,59.63L130.9,59.34L130.5,59.39L129.2,59.72L128.8,59.48L128.3,59.33L128.1,59.46L128.1,59.73L128.3,61.22L128.2,61.79L127.9,62.54L127.8,63.03L128.6,63.18L128.8,63.41L129.1,63.79L129.5,64.14L129.5,64.35L129.1,64.74L128.9,65.23L129.1,65.59L129.6,65.98L130.4,66.4L130.8,66.66L130.7,66.91L130.4,67.43L130.2,67.86L130,68.27L130,68.64L130.4,68.97L130.3,69.28L130.1,69.51L129.6,69.46L129.3,69.5L128.9,69.39L127.8,68.22L127.5,68.18L125.9,69.09L125.5,69.46L125.2,69.99L124.7,71.16L124,70.49L123.3,69.25L122.6,68.49L121,67.26L120.6,66.36L118.9,64.36L116.3,62.38L114.4,60.64L114.2,60.27L114.5,60.3L116.3,61.17L116.5,61.07L116.7,60.88L115.9,60.44L115.2,60.07L114.5,59.85L113.8,59.87L113.4,59.51L113.2,58.95L113,58.48L112.7,57.98L111.7,56.95L111.5,56.56L111,56.02L111.3,55.95L112.4,56.47L112.4,56.26L112.4,55.96L111.3,55.46L110.7,55.44L110.6,55.09L110.7,54.69L109.9,53.19L109.1,52.09L109,51.55L111.1,53.98L111.4,54.03L111.8,54L112.7,53.73L112.5,53.4L112.1,53.06L111.7,53.22L111.2,53.25L111,53.1L110.8,52.85L111.3,51.68L111.1,51.73L111,51.94L110.7,52.05L110.3,52.11L109.2,51.47L108.3,49.78L108,49.42L107.8,48.83L107.6,48.59L106.5,46.16L106.9,46.35L107.4,47.04L108.3,46.9L108.7,46.49L109,46.5L109.3,46.41L109.7,46.03L111,44.37L111.3,42.16L111.2,40.86L111,39.55L111.4,39.14L111.6,39.41L111.6,39.88L111.8,40.22L112.3,40.52L113,40.61L114.3,41.08L114.7,41.39L114.8,40.78L116.3,40.26L115.8,40.08L114.6,40.27L112.8,39.5L112.3,39.01L111.7,38.07L111.2,37.57L111.2,37.13L112.4,36.73L112.8,36.78L112.9,37.26L113.2,37.46L113.4,37.39L113.4,36.99L113.4,35.87L113,34.27L113.2,33.97L113.5,33.86L113.8,33.65L114,33.61L114.4,33.65L114.7,34.03L114.8,34.22L115.2,34.31L115.5,34.51L115.8,34.46L116.1,34.23L116.4,34.18L117.6,34.18L118.6,34.2L120.6,34.2L122.7,34.21L124.7,34.21L126.3,34.21L126.3,33.31L126.3,31.9L126.2,30.24L126.2,28.65L126.2,27.18L126.2,25.44L126.3,24.95L126.4,24.74L126.4,24.45L127.9,24.43L130.8,24.56L132,24.54L132.4,24.56L134,24.48L135.2,24.58L135.8,24.71L136.3,24.77L137.8,24.84L139.8,24.75L140.4,24.78L140.8,25.01ZM380.4,140L380,140.1L379.8,139.9L379.6,139.4L379.8,138.9L379.8,138.6L379.4,137.9L379.8,137.5L380.1,138L380.3,138L380.8,138.3L380.6,138.9L380.7,139L380.4,139.6ZM355,-42L355.1,-41.26L355.6,-41.07L356.2,-40.95L357,-41.16L357.8,-41.34L358.9,-41.44L360.1,-41.76L360.7,-42L361.5,-42L361.5,-42L362.1,-41.72L362.5,-41.47L362.9,-41.39L363.5,-41.4L363.4,-41.1L363.1,-40.66L362.7,-40.22L362.3,-39.77L361.5,-38.51L361.5,-38.35L361.6,-38.1L362,-37.51L362.5,-36.59L362.7,-35.72L362.9,-35.31L363.4,-34.84L364.2,-33.86L364.6,-33.2L365.4,-32.85L365.7,-32.02L366.4,-30.79L367,-29.81L367.7,-29.04L368.4,-28.74L368.7,-28.71L370.3,-27.3L371.5,-26.22L371.8,-26.04L373.9,-25.33L376.3,-24.53L378.3,-23.87L380.8,-23.04L383.3,-22.22L385.6,-21.44L388.8,-20.33L391.4,-19.45L393.5,-18.75L394,-18.53L396.4,-18.53L398.9,-18.53L401.5,-18.53L399.6,-16.73L397.5,-14.69L395.3,-12.56L393.9,-11.18L391.7,-8.999L389.8,-7.174L387.9,-5.193L386.1,-3.397L383.9,-0.92L382.4,0.692L380.1,3.206L378.7,4.789L378.4,4.881L376.4,4.763L374.4,4.645L371.8,4.488L371.5,4.501L370.8,4.645L370.3,4.789L368.5,5.221L368.1,5.326L366.6,6.006L365,6.804L364.2,7.419L363.6,8.308L363.3,8.936L363,9.211L362.5,9.459L359.2,10.06L358.3,10.14L356.8,10.62L355.9,11.42L355.7,11.82L354.6,11.81L352.7,11.93L351.9,12.06L351.5,12.09L350.7,12.09L350.1,11.94L349.7,11.72L349.2,11.22L348.1,10.23L347.3,9.603L345.5,10.32L343.9,11.04L341.6,12.05L340.4,12.78L340,13.51L339,14.83L338.1,15.65L337.8,15.76L335.7,15.57L335,15.42L333.8,15.26L332.2,14.97L331.1,14.67L329.9,14.63L328.2,14.53L327.2,14.31L326.1,13.56L324.7,12.68L323.3,11.76L321.9,10.82L320.2,9.747L318.3,8.557L317.9,8.439L317.7,8.413L315.7,8.361L313.6,8.308L312.1,8.269L311.7,8.138L311.3,7.864L310.9,6.987L310.4,6.359L309.7,5.574L309.7,4.501L309.8,3.323L310,2.944L309.9,2.551L309.9,2.027L309.6,1.53L307.5,0.967L307.2,1.006L306.8,1.216L306.4,1.373L306.2,1.229L306,1.019L306,0.665L306,0.417L306,0.417L305.9,0.273L305.2,-0.265L304.6,-0.959L304.2,-1.719L303.9,-2.348L303.7,-3.764L303.2,-4.629L302.8,-5.692L302.1,-7.712L301.8,-8.408L301.3,-8.88L300.7,-9.314L300.1,-10.21L298.6,-11.01L298,-11.63L297,-12.69L296.7,-13.23L296.7,-13.77L296.3,-14.27L295.8,-14.83L294,-16.06L293.5,-16.21L292.8,-16.34L291.9,-16.46L290.7,-16.74L289.6,-17.21L289.1,-17.56L289,-17.79L289.1,-18.19L289.5,-18.86L290.2,-20.47L290.7,-21.56L291.1,-21.88L292.1,-21.95L293.1,-21.92L293.8,-21.84L294.9,-21.82L296.1,-21.92L296.6,-22.29L297,-22.69L297.2,-22.97L297.2,-23.7L297.2,-24.26L297.2,-26.47L297.1,-27.81L297.1,-29.35L297.1,-29.66L297.1,-30.06L297.4,-31.7L297.7,-32.65L297.9,-33.14L298.7,-34.72L298.8,-35.22L298.8,-35.69L298.5,-37.79L299.1,-38.79L299.7,-39.78L300.3,-40.21L300.8,-40.49L301,-40.37L301.5,-39.91L302.3,-39.46L302.6,-39.56L303.1,-39.95L303.5,-40.37L303.4,-41.11L303.6,-42L355,-42ZM106.7,13.47L106.9,13.51L108,13.48L108.4,13.88L108.3,14.46L107.2,16.18L107,16.89L106.5,17.5L106.1,17.55L104.8,17.19L104.6,16.97L104.5,16.68L104.6,16.01L104.7,15.8L105.3,15.67L105.6,15.55L105.9,14.82L106,14.15L106.3,13.64ZM126.2,25.44L126.2,27.18L126.2,28.65L126.2,30.24L126.3,31.9L126.3,33.31L126.3,34.21L124.7,34.21L122.7,34.21L120.6,34.2L118.6,34.2L117.6,34.18L116.4,34.18L116.1,34.23L115.8,34.46L115.5,34.51L115.2,34.31L114.8,34.22L114.7,34.03L114.4,33.65L114,33.61L113.8,33.65L113.5,33.86L113.2,33.97L113.2,33.8L112.6,33.35L112.1,33.31L111.6,33.17L112,31.99L112.4,30.95L113.1,30.15L113.5,29.97L113.6,29.58L114.1,28.29L114.8,27.24L114.6,26.19L114.7,24.41L114.9,24.46L115,24.64L115,24.88L115.3,25.09L116.1,25.44L118.6,25.44L120,25.44L122.2,25.44L124.5,25.44ZM363.9,-42L363.5,-41.4L362.9,-41.39L362.5,-41.47L362.1,-41.72L361.5,-42L363.9,-42ZM360.7,-42L360.1,-41.76L358.9,-41.44L357.8,-41.34L357,-41.16L356.2,-40.95L355.6,-41.07L355.1,-41.26L355,-42L360.7,-42ZM17.95,3.153L17.76,3.454L16.76,3.258L16.98,3.009ZM-18.88,-35.01L-18.66,-35.01L-18.09,-35.18L-17.55,-35.56L-17.07,-36.37L-16.42,-37.02L-15.66,-36.98L-15.44,-37.1L-15.17,-37.12L-14.88,-36.69L-14.55,-36.37L-14.33,-36.36L-14.17,-35.74L-12.82,-35.49L-12.22,-35.31L-11.74,-34.86L-11.58,-34.86L-11.36,-34.96L-11.2,-35.12L-11.17,-35.27L-11.39,-35.69L-11.28,-36.06L-11.06,-36.37L-10.71,-36.4L-10.2,-36.49L-9.575,-36.49L-9.143,-36.43L-8.953,-36.76L-9.116,-37.67L-9.089,-38.18L-9.007,-38.6L-8.845,-38.77L-8.169,-38.24L-7.547,-38.04L-7.115,-38.03L-6.98,-38.14L-7.169,-38.72L-7.115,-38.89L-6.953,-39L-6.682,-39.05L-5.898,-39.29L-5.817,-39.25L-5.655,-38.32L-5.736,-38.02L-5.574,-37.4L-5.357,-36.82L-5.384,-36.59L-5.547,-36.23L-5.736,-35.9L-5.709,-35.76L-5.411,-35.54L-4.817,-35.3L-4.195,-35.25L-3.843,-35.59L-3.492,-35.86L-3.221,-36.11L-3.14,-36.47L-2.762,-36.73L-1.626,-37.08L-0.599,-37.12L-0.355,-37.01L0.104,-36.51L0.699,-36.16L1.618,-36.2L2.267,-36L2.835,-35.6L3.214,-34.74L3.619,-34.12L3.809,-33.23L4.457,-32.77L4.971,-32.55L5.674,-31.91L6.404,-31.58L7.134,-31.66L7.486,-31.32L8.053,-31.08L8.594,-31.07L9.081,-31.81L9.73,-32.1L11.38,-32.69L12,-32.96L12.68,-33.13L14.24,-33.18L15.71,-33.01L16.43,-32.86L16.92,-32.97L17.41,-32.61L17.89,-31.87L18.27,-31.63L18.68,-31.38L19,-30.8L19.36,-30.22L19.54,-29.97L19.98,-29.39L20.36,-29.39L20.73,-29.62L20.9,-29.81L20.95,-29.44L20.82,-28.82L20.84,-28.45L21.06,-28.3L20.95,-27.81L20.52,-26.98L20.49,-26.49L20.92,-26.34L21.25,-25.82L21.41,-24.94L21.6,-24.63L21.63,-24.45L21.92,-22.3L22.3,-20.14L22.06,-19.86L21.73,-19.78L21.52,-19.68L21.46,-19.48L21.6,-19.18L21.52,-18.91L21.09,-18.73L20.19,-18.04L20.11,-17.77L19.87,-17.19L19.68,-16.83L19.38,-16.16L18.92,-14.43L18.73,-12.98L18.71,-12.53L18.52,-12.22L18.33,-11.77L17.33,-10.54L16.84,-9.524L16.89,-9.077L16.92,-8.644L16.76,-8.329L16.79,-7.463L16.92,-6.754L17.08,-6.046L17.81,-4.065L18.19,-2.859L18.41,-1.889L18.63,-1.247L18.81,-0.972L18.9,-0.723L19.95,-0.54L20.14,-0.396L20.44,0.862L20.38,1.438L20.19,1.648L20.19,2.132L20.14,2.734L19.98,2.97L19.38,2.996L19,3.232L18.46,3.14L18.41,2.983L18.11,2.931L17.33,2.59L17.46,1.504L17.11,1.451L16.81,1.595L16.27,2.918L16,3.14L12.05,2.459L11.22,1.91L10.19,1.792L8.405,1.857L6.945,2.014L6.512,2.342L10.22,2.145L10.62,2.185L10.81,2.394L6.134,2.826L4.322,3.075L3.809,3.009L3.403,2.59L1.456,2.538L1.051,2.682L0.834,2.983L1.591,2.918L2.781,2.905L3.106,3.14L-0.653,3.454L-3.275,4.043L-4.384,4.475L-8.034,5.915L-10.28,6.595L-10.87,6.857L-11.87,7.55L-13.17,7.994L-14.63,8.831L-15.52,9.014L-15.74,8.753L-15.77,7.354L-15.88,5.47L-15.82,4.75L-15.71,4.07L-15.71,3.52L-15.28,3.31L-15.14,3.075L-15.09,2.342L-14.66,1.674L-14.66,0.521L-14.52,0.273L-14.44,-0.029L-14.63,-0.789L-14.85,-2.217L-14.96,-2.322L-15.06,-2.256L-15.31,-2.23L-16.23,-2.728L-16.93,-2.807L-17.42,-3.239L-17.44,-3.711L-17.69,-4L-17.88,-4.55L-18.12,-5.193L-18.82,-5.587L-19.47,-5.678L-19.93,-5.587L-20.47,-5.613L-21.09,-5.836L-21.53,-6.072L-21.96,-6.544L-22.34,-6.912L-22.63,-6.872L-23.01,-6.951L-23.36,-7.122L-23.47,-7.253L-21.96,-8.749L-21.45,-9.484L-21.39,-9.918L-21.39,-10.38L-21.23,-10.84L-21.17,-11.55L-22.01,-14.1L-22.23,-14.88L-22.47,-15.12L-22.61,-15.21L-22.18,-15.54L-21.58,-15.45L-20.69,-15.2L-20.5,-15.45L-19.82,-16.74L-19.82,-17.23L-19.9,-17.56L-19.5,-18.44L-19.2,-18.78L-19.01,-19.15L-19.07,-19.65L-19.31,-19.85L-19.63,-19.81L-20.01,-19.93L-20.58,-20.22L-20.88,-20.48L-20.8,-21.65L-20.74,-22.01L-20.52,-22.22L-20.2,-22.29L-19.31,-22.31L-18.61,-22.18L-17.96,-22.1L-17.63,-22.1L-17.36,-21.76L-16.98,-21.4L-16.66,-21.4L-16.55,-21.66L-16.63,-22.82L-16.85,-23.43L-17.34,-24.02L-18.58,-24.53L-18.61,-25.24L-18.5,-25.99L-18.23,-26.28L-17.28,-26.77L-17.44,-27.02L-17.74,-27.3L-18.34,-27.59L-18.2,-28.5L-18.17,-29.32L-18.66,-29.23L-19.17,-29.17L-19.61,-29.43L-19.98,-29.93L-20.04,-31.29L-20.04,-32.86L-20.12,-33.57L-19.98,-33.94L-19.52,-34.28L-19.04,-34.72ZM272.1,103.5L270.8,103.7L268.9,104L266.8,104.3L264.7,104.6L262.6,104.9L260.6,105.2L258.7,105.5L258.2,105.7L258.4,106.5L258.3,107.3L258,108L257.4,108.8L257.1,109.1L256.5,109.7L256,110.1L255.1,110.9L254.4,111.3L254.4,111.7L255.5,113.5L256,114.8L256.2,115.9L256.2,116.6L256.1,118L256.1,119.6L256,120.3L256.3,121.4L256.2,122.3L255.5,123.3L255.3,124.3L255,125.7L254.4,127.6L254.1,128.6L254.3,129.2L254.5,129.6L254.7,130.2L255,131.1L255.5,131.6L255.7,131.8L257.2,132.9L257.8,133.4L258.7,134.5L259.4,135.2L260.4,135.4L261.5,135.6L262.2,135.8L262.6,135.7L262.7,135.5L262.7,135L262.6,134.6L262.7,134.3L263.1,134.1L264.1,134L264.6,133.8L264.9,133.7L264.9,134.9L264.9,136L264.9,137.3L264.9,138.9L264.9,140.1L264.9,141.5L264.9,143.1L264.9,143.2L264.8,143.6L264.4,143.7L263.8,143.4L263.8,143.1L263.7,142.5L263.4,142.2L263.1,142.1L262.6,142.3L261.8,142.7L260.8,143.1L260.5,143.3L259.8,143.3L259,143L258.5,142.6L258.3,141.9L257.9,141.1L257.2,140.1L256.9,139.6L256.5,139.1L256,139.1L255.6,138.9L255.3,138.2L255,137.3L254.8,136.9L254.5,136.5L254.1,136.2L253.2,135.9L251.9,135.3L250.4,134.7L249.6,134.7L248.7,134.6L248.2,134.3L247.9,134L247.6,133.1L247.1,132.1L245.7,130.9L245.4,129.5L245.1,129.3L244.6,129.4L244.3,129.6L244.1,129.9L243.7,131.2L243.5,131.7L243.4,131.9L243.1,132.1L242.6,132.3L241.9,132.3L240.9,132.3L239.6,132.1L239,132L237.1,131.8L236.6,131.7L235.8,131.4L235.3,131.1L233.5,130.5L232.7,130.6L232.4,130.2L232,130L231.5,129.6L231.3,129.1L231,128L231.1,127.3L231.3,126.7L231.1,126.5L230.7,126.5L230.3,126.7L229.5,126.8L228,127.1L227.4,127.3L226.8,127.4L226.4,127.6L225.3,128.2L224.9,128.3L224.2,128L223.9,127.7L224.2,127.3L224.4,126.8L224.1,125.9L223.8,125.4L222.8,125.1L222.4,125.1L222.2,124.5L222,124L221.4,123.9L221.1,123.9L220.8,124L220.7,124.4L220.7,124.7L220.1,125L219.1,124.9L218.1,124.7L217.4,124.6L216.9,124.7L215.1,125.4L214.5,125.5L212.5,125.5L211.4,125.3L210.6,125.3L210,125.5L209.3,126.1L208.7,126.4L208.5,126.3L208.3,126.1L208.1,125.8L208,124.9L207.7,124L207.9,123.6L208.5,123.2L208.7,122.5L208.5,121.4L208.5,120.7L208.6,120.2L208.4,119.2L207.8,117.5L207,116.2L206,115.1L205.3,114.1L205,113.2L205.1,110.9L205.4,108.9L205.6,107.3L205.6,104.6L204.9,102.9L204.7,101L205.1,98.98L205.2,97.61L204.9,96.92L204.7,96.81L204.5,96.75L202.7,96.68L200.3,96.59L198.2,96.56L195.9,96.54L195.5,96.27L195.4,95.81L195.4,95.35L195.8,93.93L195.8,93.82L195,93.79L192.8,94.03L191.3,94.25L190.4,94.33L188.8,94.71L187.8,95.52L187.5,96.55L187.5,97.39L187.4,98.01L187,98.65L186.6,99.39L186.6,99.78L186.4,101.7L184.9,102L183.4,102L183.1,102L181.2,101.5L180.6,101.5L180,101.8L178.8,102L177.8,102.2L176.7,102.8L176.4,102.8L175.7,102.5L174.7,102.5L173.6,102.7L173.2,102.8L172.8,102.6L171.9,101.1L170.7,99.15L170,97.92L169.7,97.6L169.3,97.18L168.7,96.38L168.4,95.62L168.6,94.89L168.2,93.93L167.4,92.71L166.9,91.55L166.6,90.43L166.6,89.48L166.7,88.7L166.5,88.11L166.1,87.74L165.9,87.25L165.7,87.06L165.3,86.61L164.5,86.11L163.7,85.85L161.8,85.85L159.2,85.84L157,85.88L154.5,85.92L151.9,85.96L151.2,86.04L149.3,86.06L147.7,85.93L147.1,85.85L146.1,85.79L144.5,85.77L143.6,85.83L141.6,85.83L141.4,85.84L141.1,85.98L140.2,85.79L139.3,85.85L138.8,85.63L137.7,85.77L137.2,85.94L136.4,86.57L135.1,86.9L134.7,86.88L134.3,86.77L133.6,86.08L133.1,85.42L132.9,85.05L133.2,84.96L134.2,84.82L134.9,84.75L135.1,84.57L135.2,82.52L135.2,80.44L134.9,80.17L134.7,80.01L134.6,79.87L135,79.61L135.6,79.3L135.7,79.16L136.3,78.61L137.5,77.34L138.4,77.03L139.2,76.7L139.3,76.57L139.4,76.32L139.8,76.35L139.9,76.46L140.1,76.73L140.4,77.11L141,77.55L141.6,78.03L141.9,78.1L142.3,77.85L142.9,77.48L143.7,77.22L143.9,76.97L144,76.45L144.1,75.88L144.2,75.21L144.3,75.12L144.6,75.05L145.2,75.25L145.4,75.44L145.8,75.44L146.1,75.26L146.6,74.93L147.3,74.8L148,74.49L148.7,74.08L149,74.05L149.3,74.57L149.6,74.95L149.7,75.17L149.4,75.61L149,76.2L149.3,76.92L149.4,77.63L149.4,78.05L149.6,78.22L149.8,78.31L150,78.2L150.5,78.23L151,78.45L151.6,78.43L152.1,78.17L153.1,77.11L154.6,75.26L155.8,74.11L156.8,73.64L157.4,73.08L157.7,72.45L158.3,72.02L159.5,71.68L160.3,71.3L161.2,70.03L162.4,67.76L162.7,65.72L162.9,64.5L162.8,60.24L162.7,58.84L162.9,58.09L163.4,57.56L164.5,56.45L165.4,55.54L166,54.49L167.2,52.06L167.7,51.28L167.9,50.94L168.6,50.29L169.6,49.73L170.9,49.23L172.9,47.55L174.5,45.85L174.3,43.8L174.6,42.12L175.5,39.96L175.8,37.69L175.5,35.29L175.6,33.32L176.4,31.04L176.8,30.19L176.9,28.81L176.8,26.61L177.9,23.58L178.9,21.78L180,19.75L180.4,18.53L181,16.89L180.9,15.59L180.8,14.07L181.1,12.01L181,10.78L180.6,9.721L180.8,9.054L181.6,8.779L182.6,7.72L184.3,4.946L186.3,3.585L187.6,3.166L189,3.206L189.9,3.454L190.3,3.886L191.4,4.541L193,5.404L194.3,6.49L195,7.576L195.5,8.178L196.2,8.374L197.3,8.295L198.5,8.544L199.8,9.158L200.6,9.381L200.9,9.224L201.5,9.315L202.9,9.812L204,9.537L205.7,9.747L209.5,10.64L209.7,10.49L209.8,10.45L210.2,10.1L211,8.308L211.7,7.197L212,6.791L212.9,6.202L213.8,6.059L214.8,6.111L215.5,6.359L216.2,6.66L217,6.66L217.8,6.373L219,5.849L220.2,5.509L221.3,5.13L223.1,4.475L223.8,4.174L224.7,4.043L227.1,4.645L228.7,4.253L229.4,4.371L230.8,3.939L231,3.651L231.9,2.198L232.8,1.766L234.3,1.988L235.1,2.211L237.7,2.839L241.1,3.481L242.2,3.585L242.6,3.651L242.9,3.559L244.1,2.734L244.4,2.617L244.8,2.63L246.9,3.297L247.2,3.834L247.6,4.371L248.9,5.287L249.3,5.797L249.6,6.359L249.8,6.804L250.2,7.157L250.8,7.38L251.3,7.654L251.6,8.047L252,8.465L252.9,9.014L253.3,9.028L253.8,9.106L254.2,9.263L254.6,9.211L255.4,8.844L256.2,8.23L256.9,7.851L258.5,7.994L259.4,8.295L260.1,8.74L260.6,8.701L261.8,7.903L262.5,7.053L263.1,6.87L264,7.236L264.8,8.034L265.5,9.198L265.9,9.642L266.6,10.32L267.9,11.8L269.6,12.53L270.3,12.9L270.5,13.26L270.6,13.75L270.6,14.27L270.9,14.49L271.3,14.41L271.7,14.33L272.1,14.49L272.4,14.87L272.6,15.17L272.8,15.5L273.2,15.69L273.3,16.11L273,16.61L272.7,17.05L272.3,17.95L272.1,18.87L272.3,19.17L272.6,19.43L272.8,19.69L272.8,19.99L272.8,20.33L272.2,21.61L271.9,22.72L271.9,23.28L272.7,23.7L273.7,23.67L274,23.93L274.3,24.34L274.6,24.53L275,24.53L275.3,24.67L275.4,24.95L275.7,25.26L276,25.6L275.9,26.03L275.9,26.37L275.2,27.28L273.5,29.08L270,32.42L270,32.42L268.9,32.83L268.2,33.44L267.8,34.42L266.8,35.24L266,35.56L265.9,35.77L265.9,36.66L266,37.98L265.6,38.58L265,39.75L264.8,40.48L264.6,40.62L264.3,40.99L264.2,42.18L264.1,42.58L263.7,45.04L263.8,45.75L263.5,46.92L263.5,47.6L263.4,48.38L263.2,49.06L263.2,50.14L263.3,51.92L263.3,52.15L263,52.31L262.5,52.75L262,53.05L261.6,53.13L260.9,53.9L260.4,54.64L260,55.36L259.9,55.7L260,56.64L260,57.73L259.9,58.22L259.7,58.5L258.9,59.1L258.3,59.53L258,59.76L257.9,60.11L258.1,60.92L258.2,61.52L258.3,61.87L259,62.16L259,62.45L259.1,62.76L259.4,63.15L260.1,63.93L260.6,64.66L260.6,65.3L260.5,66.38L260.5,67L260.6,67.84L260.6,69.42L260.5,70.54L260.6,71.12L261.4,72.5L261.8,74.05L262,75.17L262,75.54L261.7,76.83L261.4,78.09L261.4,78.56L261.5,79.2L262.1,80.65L262.5,81.71L262.7,82.35L263,83.09L263.4,84.23L263.5,84.78L263.4,85.18L262.6,86.61L262.5,87.06L262.7,88.17L263,89.23L263.4,89.85L264.3,91.53L264.9,92.1L266.2,92.94L267.2,93.79L267.7,94.22L268,94.71L268.8,95.97L269.3,97L269.5,97.92L270.1,99.18L270.6,100.3L271.3,101.8L271.9,102.8ZM124.7,71.16L125.2,69.99L125.5,69.46L125.9,69.09L127.5,68.18L127.8,68.22L128.9,69.39L129.3,69.5L129.6,69.46L130.1,69.51L130.3,69.28L130.4,68.97L130,68.64L130,68.27L130.2,67.86L130.4,67.43L130.7,66.91L130.8,66.66L130.4,66.4L129.6,65.98L129.1,65.59L128.9,65.23L129.1,64.74L129.5,64.35L129.5,64.14L129.1,63.79L128.8,63.41L128.6,63.18L127.8,63.03L127.9,62.54L128.2,61.79L128.3,61.22L128.1,59.73L128.1,59.46L128.3,59.33L128.8,59.48L129.2,59.72L130.5,59.39L130.9,59.34L131.2,59.63L131.8,59.85L134.6,59.23L134.7,58.59L134.8,58.02L134.9,57.59L134.7,57.32L134.6,57.11L134.5,56.68L134.5,56.21L134.8,56L135.7,55.45L136,55.46L136.6,55.76L137.2,56.23L137.8,57.23L138.1,58.07L138.7,59.1L140,59.52L141.5,59.8L142.3,59.72L143.4,58.84L144.1,58.15L144.3,57.79L144.6,57.98L145.1,58.88L145.4,59.23L145.4,59.56L145.2,59.98L145.4,60.25L146.2,60.44L146.9,60.25L147.2,59.89L147.8,59.4L147.8,59.01L147.5,58.74L147.5,58.39L147.8,58.1L148.1,57.33L148.2,56.76L148.4,56.4L149,56.14L149.2,55.92L149.5,54.58L149.3,54.09L149.3,53.69L149.7,53.18L149.7,52.33L149.6,50.96L149.5,50.01L149.4,49.02L149.6,47.73L149.9,46.37L149.8,46.03L149.5,45.62L149,45.24L147.8,44.94L147.4,44.44L147.1,43.92L146.8,43.75L145.5,43.55L145.2,43.24L145.4,42.41L145.5,41.16L145.4,40.28L145.6,39.59L145.9,39.07L146.5,38.51L146.8,37.86L146.9,37.69L148,37.59L148.4,37.31L148.7,37.04L148.8,36.66L149.2,36.05L149.5,35.63L149.6,35.34L149.5,34.95L149.2,34.18L148.8,33.53L148.6,33.31L148.1,31.8L147.6,31.43L146.8,31.24L145.2,31.07L144.2,31.34L142.7,31.85L141.6,32.2L140.8,32.4L140.4,32.34L140.2,32.11L140.5,31.91L140.6,31.46L140.4,30.79L140.2,30.19L140,29.34L140.1,28.29L140.3,27.3L140.9,26L141,25.48L142.8,25.5L144.6,25.52L146.5,25.51L148.4,25.5L149.9,25.54L150.6,25.21L151.3,25.7L151.6,25.82L151.8,25.78L152,26.14L152.8,26.1L153,26.18L153.1,26.61L153.8,26.59L154.2,26.7L154.5,26.68L155,26.44L155.3,26.51L155.9,26.84L156.3,27.11L156.9,27.02L158.3,27.07L159.4,27.34L160.4,28.08L161.1,28.51L161.7,29.14L162,29.02L162.2,28.85L162.3,28.77L162.3,28.24L162,27.31L161.8,26.54L161.9,25.9L162.2,25.44L162.6,25.16L162.7,24.73L162.7,24.67L163.2,23.64L163.7,22.63L164.3,21.43L164.8,20.45L164.8,19.96L164.8,19.23L164.9,18.42L164.9,17.94L165,17.61L165.4,16.4L165.6,15.71L165.9,15.38L166.4,15.16L167,15.14L168.8,15L170.5,14.69L171.1,14.54L172.1,14.03L172.5,14.01L172.8,14.2L174.9,14.79L175.4,15.01L175.6,14.99L175.9,15.03L176.4,15.04L176.9,14.96L177.1,15.04L177.5,15.42L177.8,15.38L178.1,15.11L178.7,14.82L179.9,14.49L180.1,14.63L180.5,15.34L180.9,15.59L181,16.89L180.4,18.53L180,19.75L178.9,21.78L177.9,23.58L176.8,26.61L176.9,28.81L176.8,30.19L176.4,31.04L175.6,33.32L175.5,35.29L175.8,37.69L175.5,39.96L174.6,42.12L174.3,43.8L174.5,45.85L172.9,47.55L170.9,49.23L169.6,49.73L168.6,50.29L167.9,50.94L167.7,51.28L167.2,52.06L166,54.49L165.4,55.54L164.5,56.45L163.4,57.56L162.9,58.09L162.7,58.84L162.8,60.24L162.9,64.5L162.7,65.72L162.4,67.76L161.2,70.03L160.3,71.3L159.5,71.68L158.3,72.02L157.7,72.45L157.4,73.08L156.8,73.64L155.8,74.11L154.6,75.26L153.1,77.11L152.1,78.17L151.6,78.43L151,78.45L150.5,78.23L150,78.2L149.8,78.31L149.6,78.22L149.4,78.05L149.4,77.63L149.3,76.92L149,76.2L149.4,75.61L149.7,75.17L149.6,74.95L149.3,74.57L149,74.05L148.7,74.08L148,74.49L147.3,74.8L146.6,74.93L146.1,75.26L145.8,75.44L145.4,75.44L145.2,75.25L144.6,75.05L144.3,75.12L144.2,75.21L144.1,75.88L144,76.45L143.9,76.97L143.7,77.22L142.9,77.48L142.3,77.85L141.9,78.1L141.6,78.03L141,77.55L140.4,77.11L140.1,76.73L139.9,76.46L139.8,76.35L139.4,76.32L139.3,76.57L139.1,76.45L138.6,75.94L137.9,75.14L137.6,75.03L137.3,75.04L136.7,75.33L136.1,75.78L135,76.22L134.2,76.45L134.1,76.74L133.9,77.25L133.6,77.55L132.8,77.66L132.5,78.1L131.8,78.96L131.4,79.36L131.3,79.19L131,78.98L130.5,78.31L129.9,77.48L129.8,77.11L129.6,76.88L129.6,76.05L128.8,75.06L126.7,73.3L126.5,72.78ZM375.2,133.1L375.6,134.2L375.6,135L375.4,135.3L375,135.1L374.4,134.5L373.3,133.8L373.8,133.8L374.1,133.8L374.4,133.8L374.7,133.4L374.7,133.2L375,133.1ZM370,134.9L370.5,135.3L369.1,135.1L368.8,134.7L368.8,134.4L369.4,134.5ZM367.6,131.8L367.4,131.9L366.8,131.4L366.4,131.3L365.8,130.6L366,128.2L366.2,127.8L366.3,127.7L366.7,127.7L367,128L366.9,129.6L367.4,130.6L367.8,131.5ZM213.2,-42L213.1,-41.63L212.8,-40.79L212.5,-40.84L211.8,-41.06L211.1,-41.23L210.1,-41.38L209.1,-41.03L208.1,-40.59L207.8,-40.26L207.5,-40.07L207.1,-40.1L206.7,-40.05L206.5,-39.73L206.1,-39.38L204.6,-38.67L204.3,-38.42L204.2,-38.15L204.2,-37.87L204.3,-37.29L204.3,-36.56L204,-35.98L203.6,-35.58L203.2,-35.43L202.8,-35.35L202.6,-35.1L201.8,-33.78L201.5,-33.53L200.8,-33.57L198.9,-31.58L198.7,-30.99L198,-30.17L197.2,-29.24L196.4,-28.79L196.3,-28.62L196.1,-28.45L195.6,-28.24L193.9,-27.11L191.9,-27.17L191,-26.72L190.1,-26.52L188.9,-26.31L188.5,-26.34L186.8,-26.24L184.9,-26.27L184.2,-26.11L183.5,-25.69L183,-25.3L182.9,-25.19L183,-25.03L183,-24.91L184.3,-23.99L184.6,-23.54L184.3,-23.1L184.2,-23.04L184.1,-23.01L183.9,-22.67L183.1,-21.63L181.9,-20.4L181.3,-20.06L181.1,-19.83L180.8,-19.02L180.6,-18.9L179.7,-18.79L178.1,-18.71L175.9,-18.45L174.5,-18.36L173.7,-18.43L172.5,-17.87L172.1,-17.73L171.8,-17.67L170.7,-17.14L169.7,-16.29L169.4,-16.14L168,-15.78L167.4,-15.2L167.2,-15.15L166.3,-15.91L165.7,-16.61L165.4,-17.31L165.4,-17.53L165.2,-17.49L164.8,-17.19L164.3,-16.83L164.1,-16.16L162.7,-15.7L161.5,-15.31L161,-14.82L160.1,-14.58L159.1,-14.68L158.2,-14.88L157.4,-14.95L157.8,-15.56L158,-16.02L158,-16.57L157.9,-16.95L157.4,-17.14L157.1,-17.44L156.4,-19.19L155.7,-21.01L154.7,-22.79L153.5,-23.92L152.7,-24.62L152.5,-24.71L152.1,-24.92L151.8,-25.13L150.3,-26.35L148.8,-27.7L148.4,-28.32L147.6,-29.24L146.8,-30.19L146.3,-30.63L146.1,-31.41L146.7,-32.12L147.3,-33.01L148.1,-33.6L149.1,-33.65L150.8,-33.41L152.6,-33.31L154.3,-33.5L154.8,-33.63L155.2,-33.62L156.2,-33.42L157.8,-33.46L158.7,-33.82L157.8,-34.44L156.8,-35.42L155.9,-36.49L155.3,-37.46L154.8,-38.72L154.3,-40.26L154,-42L213.2,-42ZM222.5,-23.6L222.8,-23.51L223,-23.17L222.7,-22.06L222.9,-21.36L223.6,-20.77L224.2,-20.52L224.8,-20.37L226.9,-20L227.8,-19.6L229,-18.29L230.4,-17.09L230.8,-16.46L230.7,-15.9L230.3,-15.2L230.3,-14.91L231,-14.21L231.8,-13.51L233.1,-12.72L235.6,-11.47L236.7,-10.64L237.1,-10.01L237.7,-9.327L238.6,-8.71L239.1,-8.224L238.7,-6.859L238.8,-6.413L239.1,-6.033L239.6,-5.495L239.8,-4.8L240.3,-3.947L240.9,-3.554L241.8,-3.41L242.4,-3.003L243.5,-2.322L244.6,-1.732L245,-1.326L245.3,-0.972L245.5,-0.54L245.6,-0.12L245.7,0.796L245.8,1.936L246.4,2.721L246.9,3.297L244.8,2.63L244.4,2.617L244.1,2.734L242.9,3.559L242.6,3.651L242.2,3.585L241.1,3.481L237.7,2.839L235.1,2.211L234.3,1.988L232.8,1.766L231.9,2.198L231,3.651L230.8,3.939L229.4,4.371L228.7,4.253L227.1,4.645L224.7,4.043L223.8,4.174L223.1,4.475L221.3,5.13L220.2,5.509L219,5.849L217.8,6.373L217,6.66L216.2,6.66L215.5,6.359L214.8,6.111L213.8,6.059L212.9,6.202L212,6.791L211.7,7.197L211,8.308L210.2,10.1L209.8,10.45L209.7,10.49L209.5,10.64L205.7,9.747L204,9.537L202.9,9.812L201.5,9.315L200.9,9.224L200.6,9.381L199.8,9.158L198.5,8.544L197.3,8.295L196.2,8.374L195.5,8.178L195,7.576L194.3,6.49L193,5.404L191.4,4.541L190.3,3.886L189.9,3.454L189,3.206L187.6,3.166L186.3,3.585L184.3,4.946L182.6,7.72L181.6,8.779L180.8,9.054L180.6,9.721L181,10.78L181.1,12.01L180.8,14.07L180.9,15.59L180.5,15.34L180.1,14.63L179.9,14.49L178.7,14.82L178.1,15.11L177.8,15.38L177.5,15.42L177.1,15.04L176.9,14.96L176.4,15.04L175.9,15.03L175.6,14.99L175.4,15.01L174.9,14.79L172.8,14.2L172.5,14.01L172.1,14.03L171.1,14.54L170.5,14.69L168.8,15L167,15.14L166.4,15.16L165.9,15.38L165.6,15.71L165.4,16.4L165,17.61L164.9,17.94L164.9,18.42L164.8,19.23L164.8,19.96L164.8,20.45L164.3,21.43L163.7,22.63L163.2,23.64L162.7,24.67L162.3,23.97L162.1,23.15L162,22.2L162.1,21.95L161.9,21.66L161.9,21.61L161.7,20.89L161.9,20.39L161.8,19.87L161.4,19.36L161,18.97L160.8,18.62L160.6,18.46L160.2,18.41L159.6,18.23L158.9,17.46L158.1,16.71L157.2,15.74L156.5,14.92L155.6,13.9L154.8,12.96L154.2,12.06L154.1,11.54L154.3,11.48L154.7,11.47L154.8,11.38L154.8,11.13L154.4,10.43L154.3,9.511L153.9,8.962L153,8.099L152.1,7.458L151.8,7.118L151.6,6.647L151.2,3.625L151.1,2.774L150.8,2.394L150.6,2.224L150.5,2.014L150.5,1.477L150.7,0.993L150.7,0.81L150.9,0.39L150.9,-2.4L150.8,-2.545L150.6,-2.781L150.4,-2.767L150.1,-2.794L149.8,-3.2L149.5,-3.711L149.6,-4.078L149.8,-4.38L150.1,-4.642L150.5,-4.865L151.5,-5.311L151.8,-5.534L152,-5.81L152.1,-6.19L152.8,-7.62L153.7,-9.051L154.1,-9.353L154.4,-10.3L155,-11.47L155.2,-12.01L155.4,-12.54L155.6,-12.98L156.6,-13.69L157.4,-14.95L158.2,-14.88L159.1,-14.68L160.1,-14.58L161,-14.82L161.5,-15.31L162.7,-15.7L164.1,-16.16L164.3,-16.83L164.8,-17.19L165.2,-17.49L165.4,-17.53L165.4,-17.31L165.7,-16.61L166.3,-15.91L167.2,-15.15L167.4,-15.2L168,-15.78L169.4,-16.14L169.7,-16.29L170.7,-17.14L171.8,-17.67L172.1,-17.73L172.5,-17.87L173.7,-18.43L174.5,-18.36L175.9,-18.45L178.1,-18.71L179.7,-18.79L180.6,-18.9L180.8,-19.02L181.1,-19.83L181.3,-20.06L181.9,-20.4L183.1,-21.63L183.9,-22.67L184.1,-23.01L184.2,-23.04L184.3,-23.1L184.6,-23.54L184.3,-23.99L183,-24.91L183,-25.03L182.9,-25.19L183,-25.3L183.5,-25.69L184.2,-26.11L184.9,-26.27L186.8,-26.24L188.5,-26.34L188.9,-26.31L190.1,-26.52L191,-26.72L191.9,-27.17L193.9,-27.11L195.6,-28.24L196.1,-28.45L196.3,-28.62L196.4,-28.79L197.2,-29.24L198,-30.17L198.7,-30.99L198.9,-31.58L200.8,-33.57L201.5,-33.53L201.8,-33.78L202.6,-35.1L202.8,-35.35L203.2,-35.43L203.6,-35.58L204,-35.98L204.3,-36.56L204.3,-37.29L204.2,-37.87L204.2,-38.15L204.3,-38.42L204.6,-38.67L206.1,-39.38L206.5,-39.73L206.7,-40.05L207.1,-40.1L207.5,-40.07L207.8,-40.26L208.1,-40.59L209.1,-41.03L210.1,-41.38L211.1,-41.23L211.8,-41.06L212.5,-40.84L212.8,-40.79L213.4,-39.84L213.6,-39.5L215.8,-37.26L216.2,-36.72L217.3,-35.09L218,-33.99L218.7,-32.41L218.8,-31.55L218.7,-30.83L218.5,-28.74L218.4,-28.14L217.4,-27.02L217.4,-26.52L217.5,-26.1L217.8,-25.93L218,-25.71L217.9,-24.75L218.2,-24.37L219,-24.12L220.8,-23.95L221.7,-23.8ZM154,-42L154.3,-40.26L154.8,-38.72L155.3,-37.46L155.9,-36.49L156.8,-35.42L157.8,-34.44L158.7,-33.82L157.8,-33.46L156.2,-33.42L155.2,-33.62L154.8,-33.63L154.3,-33.5L152.6,-33.31L150.8,-33.41L149.1,-33.65L148.1,-33.6L147.3,-33.01L146.7,-32.12L146.1,-31.41L146.3,-30.63L146.8,-30.19L147.6,-29.24L148.4,-28.32L148.8,-27.7L150.3,-26.35L151.8,-25.13L152.1,-24.92L152.5,-24.71L152.7,-24.62L153.5,-23.92L154.7,-22.79L155.7,-21.01L156.4,-19.19L157.1,-17.44L157.4,-17.14L157.9,-16.95L158,-16.57L158,-16.02L157.8,-15.56L157.4,-14.95L156.6,-13.69L155.6,-12.98L155.4,-12.54L155.2,-12.01L155,-11.47L154.4,-10.3L154.1,-9.353L153.7,-9.051L152.8,-7.62L152.1,-6.19L152,-5.81L151.8,-5.534L151.5,-5.311L150.5,-4.865L150.1,-4.642L149.8,-4.38L149.6,-4.078L149.5,-3.711L149.8,-3.2L150.1,-2.794L150.4,-2.767L150.6,-2.781L150.8,-2.545L150.9,-2.4L150.9,0.39L150.7,0.81L150.7,0.993L150.5,1.477L150.5,2.014L150.6,2.224L150.8,2.394L151.1,2.774L151.2,3.625L151.6,6.647L151.8,7.118L152.1,7.458L153,8.099L153.9,8.962L154.3,9.511L154.4,10.43L154.8,11.13L154.8,11.38L154.7,11.47L154.3,11.48L154.1,11.54L154.2,12.06L154.8,12.96L155.6,13.9L156.5,14.92L157.2,15.74L158.1,16.71L158.9,17.46L159.6,18.23L160.2,18.41L160.6,18.46L160.8,18.62L161,18.97L161.4,19.36L161.8,19.87L161.9,20.39L161.7,20.89L161.9,21.61L161.9,21.66L162.1,21.95L162,22.2L162.1,23.15L162.3,23.97L162.7,24.67L162.7,24.73L162.6,25.16L162.2,25.44L161.9,25.9L161.8,26.54L162,27.31L162.3,28.24L162.3,28.77L162.2,28.85L162,29.02L161.7,29.14L161.1,28.51L160.4,28.08L159.4,27.34L158.3,27.07L156.9,27.02L156.3,27.11L155.9,26.84L155.3,26.51L155,26.44L154.5,26.68L154.2,26.7L153.8,26.59L153.1,26.61L153,26.18L152.8,26.1L152,26.14L151.8,25.78L151.6,25.82L151.3,25.7L150.6,25.21L149.9,25.54L148.4,25.5L146.5,25.51L144.6,25.52L142.8,25.5L141,25.48L140.8,25.01L140.4,24.78L139.8,24.75L137.8,24.84L136.3,24.77L135.8,24.71L135.2,24.58L134,24.48L132.4,24.56L132,24.54L130.8,24.56L127.9,24.43L126.4,24.45L126.4,24.74L126.3,24.95L126.2,25.44L124.5,25.44L122.2,25.44L120,25.44L118.6,25.44L116.1,25.44L115.3,25.09L115,24.88L115,24.64L114.9,24.46L114.7,24.41L114.9,22.65L115.2,21.18L115.4,19.81L115.9,18.59L115.6,17.38L115.3,16.86L113.8,15.14L114.5,14.49L113.6,14.58L113.4,13.94L112.9,13.18L113.2,13.05L113.4,12.63L114.3,12.77L114.3,12.56L113.5,11.92L113.6,11.59L113.9,11.24L113.7,11.08L113.2,11.46L112.9,11.45L112.6,11.2L112.4,11.16L112.5,11.65L112.2,12.09L111.9,12.24L111.4,12.22L111.1,12.11L111,11.86L110.6,11.67L109.6,11.36L108.7,10.96L108.6,9.917L108.2,9.472L108.1,8.962L108,8.387L108.1,7.484L107.9,7.341L107.7,7.301L107.3,7.341L106.9,7.288L106.5,6.791L106.2,6.608L106.4,7.511L106.1,7.772L105.5,7.694L105.3,7.354L105.2,7.092L105.5,5.993L105.4,5.967L105.4,5.967L105.6,5.378L106,4.672L106.6,3.769L107.2,2.63L107.7,0.626L108,-0.631L108.2,-1.771L108.7,-2.794L109.2,-3.488L110.5,-4.826L111.5,-5.836L112,-6.242L112.4,-6.584L113,-6.977L113.7,-7.437L114.2,-8.329L114.6,-9.169L114.9,-9.34L115.3,-9.497L116.5,-10.39L117.3,-10.96L117.5,-10.67L117.6,-10.32L117.8,-10.15L118.4,-10.05L119.3,-10.05L119.9,-10.15L120.1,-10.46L120.4,-11.26L120.6,-11.41L120.8,-11.45L121.8,-10.89L122.6,-10.09L123.4,-9.287L123.8,-9.012L124,-8.697L124.3,-7.24L124.6,-6.885L124.9,-6.728L125.5,-6.82L126.2,-7.082L126.8,-7.45L127.3,-7.935L127.7,-8.368L127.9,-8.697L128,-9.878L128.1,-10.14L128.7,-10.61L129.7,-11.4L130.2,-11.86L130.2,-12.02L129.8,-12.51L129.5,-13.04L129.8,-13.6L130.2,-14.02L131.4,-15.45L131.4,-15.91L131.5,-16.49L132.4,-18.12L133,-20.28L133,-20.7L133.6,-21.74L134.3,-23.08L135.6,-23.29L136.2,-23.63L136.8,-24.21L137.1,-24.76L137.3,-25.29L137.5,-26.3L137.7,-27.44L137.8,-28.46L138.2,-29.4L138.9,-29.86L140.1,-30.26L140.3,-30.44L140.4,-31.07L140.6,-32.35L140.6,-33.13L140.6,-33.46L140.8,-34.04L141.9,-35.08L142.3,-36.69L142.8,-38.39L144,-40.43L145.1,-42L154,-42ZM270.6,59.76L270.5,59.95L269.8,61.36L269.6,61.57L269.7,61.7L270,61.96L269.8,62.41L269.8,62.52L269.6,62.94L269.7,63.32L269.9,63.46L270.3,63.65L271,63.78L271.8,64.09L272.3,64.16L272.4,64.38L272.4,64.78L272.5,65.15L272.5,65.77L272.4,66.34L271.6,66.6L271.2,66.88L271,67.03L271.1,67.19L271.2,67.42L270.4,67.97L269.6,68.7L269.5,69.18L269.3,69.76L269.1,70.14L268.5,70.66L267.9,71.73L267.6,72.44L266,74.11L264.7,74.93L264.3,75.22L262,75.17L261.8,74.05L261.4,72.5L260.6,71.12L260.5,70.54L260.6,69.42L260.6,67.84L260.5,67L260.5,66.38L260.6,65.3L260.6,64.66L260.1,63.93L259.4,63.15L259.1,62.76L259,62.45L259,62.16L259.2,61.74L259.4,61.28L259.7,61.23L260.4,61.41L261.2,61.8L261.6,62.69L261.9,62.82L262.4,62.82L263.8,62.71L264.2,62.72L264.8,62.51L265.5,62.13L265.6,61.74L265.8,60.87L265.9,59.3L266.2,59.29L267.1,59.84L267.3,59.87L267.5,59.86L267.8,59.59L268.2,59.35L268.5,59.37L269.5,59.1L270.1,59.57L270.4,59.72ZM37.84,-42L37.74,-41.83L37.44,-41.45L37.04,-41.28L36.63,-41.04L36.42,-40.84L36.25,-40.84L35.88,-41.32L35.34,-41.36L34.36,-41.28L33.9,-41.42L33.31,-41.48L31.87,-41.38L29.6,-41.58L29.22,-41.47L29.12,-41.39L26.87,-41.36L24.38,-41.34L22.3,-41.32L20.46,-41.3L20.46,-41.38L19.87,-41.39L19.82,-41.23L19.3,-39.32L19.25,-38.28L19.52,-37.65L19.82,-37.23L20.17,-37.06L20.19,-36.84L19.92,-36.53L19.95,-36.23L20.27,-35.91L20.36,-35.58L20.19,-35.23L20.22,-34.4L20.46,-33.08L20.49,-32.22L20.25,-31.83L20.36,-31.16L20.82,-30.22L20.9,-29.81L20.73,-29.62L20.36,-29.39L19.98,-29.39L19.54,-29.97L19.36,-30.22L19,-30.8L18.68,-31.38L18.27,-31.63L17.89,-31.87L17.41,-32.61L16.92,-32.97L16.43,-32.86L15.71,-33.01L14.24,-33.18L12.68,-33.13L12,-32.96L11.38,-32.69L9.73,-32.1L9.081,-31.81L8.594,-31.07L8.053,-31.08L7.486,-31.32L7.134,-31.66L6.404,-31.58L5.674,-31.91L4.971,-32.55L4.457,-32.77L3.809,-33.23L3.619,-34.12L3.214,-34.74L2.835,-35.6L2.267,-36L1.618,-36.2L0.699,-36.16L0.104,-36.51L-0.355,-37.01L-0.22,-37.45L-0.004,-38.08L-0.004,-38.68L0.158,-39.65L0.05,-40.87L-0.112,-41.72L0.288,-42L37.84,-42ZM49.28,-42L49.29,-41.99L49.12,-41.85L48.74,-41.92L48.56,-42L49.28,-42ZM48.52,-42L48.34,-41.62L48.07,-41.35L47.91,-41.35L47.91,-41.35L45.96,-41.27L45.26,-41.06L44.83,-41.06L44.83,-41.23L44.77,-41.34L42.34,-41.93L42.02,-42L48.52,-42ZM230.8,177.6L230.7,178L230.6,178.5L230.7,178.9L231,179.5L231.4,180L231.8,180.3L232.2,181L232.6,182L233.1,182.7L234.6,184.3L234.8,184.9L235,185.5L236,186.6L236.1,187L236,187.8L237,190.1L237.7,191.4L238.2,191.6L240,193.1L241.5,194.2L243.3,195L244.6,195.5L245.3,195.9L245.6,196.2L245.8,196.9L246,198.1L246,198.9L247.4,198.9L248.6,199L249,199.1L249.2,199.3L249.1,199.8L249.1,200.6L249.2,201.2L249.1,201.9L249,202.6L248.9,203.6L249.1,204L250.3,205.2L250.7,206L251.2,207.2L251.5,207.6L251.8,207.7L252.8,207.9L255.4,208.3L257,208.8L258.3,209.3L258.9,209.4L259.1,209.5L259.2,209.6L259,210.7L259.1,211L259.3,211.3L259.5,211.5L259.7,211.7L260.7,211.8L261.3,212.4L261.7,212.7L259.9,212.9L259,213.4L258.5,214.4L257.7,215.1L256.6,215.5L255.5,215.8L254.3,216L253,216.8L251.6,218.3L250.9,219.2L250.9,219.6L250.6,219.9L250,220.2L249.7,220.5L249.6,220.9L249.3,221.1L248.7,221.1L248.4,221.4L248.1,221.9L247.7,222.3L246.9,222.4L246.3,222.8L245.7,223.3L245.3,223.6L245,223.6L244.6,224L243.8,225.1L243.7,225.5L242.7,229.5L242.1,229.9L241,230.7L240.2,231.7L239.8,232.3L239.4,232.6L237.4,233L236.6,233.3L235.7,233.7L235.5,234L235.3,235.2L234.7,237L234.2,238.2L233.8,239.4L233.3,240.8L232.8,241.2L232.2,241.7L231.5,241.9L230.5,242L229.6,242L228.9,242L227.9,242.5L227,242.5L225.6,242.2L224.4,242L223.9,241.9L222.8,241L222.2,241L221.2,240.9L220.6,240.7L220.1,240.3L218.9,239.3L217.8,238.6L216.8,238.2L215.9,238L215,238.1L214.3,238.3L214,238.4L213.5,238.8L213,239.5L212.5,240.7L212.4,241.4L211.8,242.9L211.2,244.7L210.9,245.2L210.5,245.6L209.9,245.9L208,247.3L207.1,248.9L206.5,249.4L205.7,249.6L205.1,249.7L204.8,250L204.4,250.8L204.1,251.1L203.7,251.2L202.6,251.1L202.3,251L199.4,251.2L198.5,250.9L197.9,250.8L196.9,251.2L196.5,251L196.2,250.3L196,248.9L196,247.8L196.6,246.9L197,246.3L197.5,245.4L197.5,245.1L197.4,244.7L197.3,244.1L197.3,243.4L196.7,241.8L195.9,239.8L194.9,237.6L194.6,237L193.9,236L191.6,234.1L191.2,233.9L191.2,233.7L191.2,231.9L191.2,229.5L191.2,227.2L191.2,224.8L191.2,222.5L191.2,220.1L191.2,217.8L191.2,215.5L191.2,213.1L191.2,211.2L192.9,211.2L195,211.2L197.5,211.2L198.6,211.2L198.7,210.9L198.7,209.4L198.7,206.1L198.7,202.8L198.7,199.6L198.7,196.3L198.7,193L198.7,189.8L198.7,186.5L198.7,183.3L198.7,181.7L200.6,181.6L202.8,181.3L206.5,180.8L209.8,180.1L212,179.7L214.6,179.3L215.5,179.2L215.8,179.2L216.1,179.4L217.3,181L218.1,182.3L218.2,182.8L218.4,182.8L218.7,182.7L219.1,182.5L220.4,181.3L220.6,181L221.4,180.4L222.4,179.8L223.2,179.4L224.1,179L224.5,179.1L224.9,179.4L225.4,179.6L227.3,178.1L228.2,177.8L230.5,177.5ZM48.56,-42L48.74,-41.92L49.12,-41.85L49.29,-41.99L49.28,-42L69.05,-42L69.05,-42L69.19,-41.19L69.27,-40.26L69.35,-39.64L69.89,-38.76L69.94,-38.4L69.56,-37.09L69.46,-36.96L69.38,-36.92L68.78,-37.02L68.51,-36.89L68.21,-36.44L68,-35.99L68,-35.82L68.51,-34.98L68.19,-33.8L67.86,-33.06L67.24,-32.64L66.7,-32.53L66.32,-32.34L66.1,-32.07L66.13,-31.22L65.35,-30.46L64.91,-29.91L64.7,-29.58L64.78,-28.59L64.51,-27.58L63.99,-26.78L62.91,-26.61L61.97,-26.52L61.67,-24.5L61.67,-23.22L61.59,-21.9L61.43,-21.38L61.51,-20.62L61.43,-18.94L61.32,-17.59L61.48,-17.24L61.56,-16.45L61.56,-15.65L61.8,-15.08L62.05,-14.6L62.05,-14.33L61.91,-14.18L61.8,-13.96L61.8,-12.06L61.83,-11.49L61.78,-11.13L61.56,-10.84L61.64,-9.865L61.8,-9.248L61.97,-8.802L61.8,-8.421L61.67,-7.922L61.48,-6.649L61.45,-6.216L58.32,-5.901L54.8,-5.39L53.31,-5.062L53.31,-5.062L53.23,-5.311L54.48,-5.652L54.23,-6.636L53.45,-7.817L53.15,-8.027L52.99,-8.618L53.18,-8.999L53.07,-9.261L53.02,-10.05L52.64,-10.93L53.34,-10.96L53.34,-13.78L53.34,-16.48L53.34,-18.78L53.34,-20.61L53.21,-22.8L53.18,-24.41L53.15,-26.53L52.91,-27.19L51.83,-28.32L51.53,-28.9L51.5,-29.68L51.26,-30.47L51.23,-31.86L51.23,-33.49L51.13,-33.74L49.96,-34.52L48.34,-35.6L47.1,-36.45L46.99,-36.51L46.88,-36.72L47.04,-39.19L47.31,-39.52L47.69,-40.53L47.91,-41.35L48.07,-41.35L48.34,-41.62L48.52,-42L48.56,-42ZM139.3,76.57L139.2,76.7L138.4,77.03L137.5,77.34L136.3,78.61L135.7,79.16L135.6,79.3L135,79.61L134.6,79.87L134.7,80.01L134.9,80.17L135.2,80.44L135.2,82.52L135.1,84.57L134.9,84.75L134.2,84.82L133.2,84.96L132.9,85.05L132.8,84.84L132.4,84.1L132.6,83.39L132.8,82.85L132.6,81.78L132.1,80.81L131.6,79.59L131.4,79.36L131.8,78.96L132.5,78.1L132.8,77.66L133.6,77.55L133.9,77.25L134.1,76.74L134.2,76.45L135,76.22L136.1,75.78L136.7,75.33L137.3,75.04L137.6,75.03L137.9,75.14L138.6,75.94L139.1,76.45ZM221.1,123.9L221.3,124.9L221.5,126.3L221.6,127.3L221.7,127.7L221.7,128L221.6,128.2L221.5,128.8L221.3,129.3L221.2,129.7L221.3,130.4L221.2,131.4L221.1,132.4L221.1,133.4L221.4,135.2L221.3,135.8L221,136.7L220.7,137.4L220.5,138.2L220.5,138.7L221.1,139.9L221.1,140.1L220.6,140.2L220.2,140.2L218.7,140.2L216.4,140.2L214.2,140.2L211.9,140.2L209.9,140.2L207.9,140.2L206.2,140.2L206.2,141.4L206.2,143.9L206.2,146.4L206.2,148.9L206.2,151.3L206.2,153.8L206.2,156.3L206.2,158.8L206.2,161.3L206.2,163.1L206.7,165.5L207.5,168.2L207.8,168.4L208.6,168.9L209.8,169.9L210.5,170.6L211.8,171.9L213.5,173.6L215.2,175L216.7,176.4L214.4,176.8L211.1,177.5L208.8,177.9L206.1,178.4L204.2,178.8L202,179.2L201.6,179.2L201,178.9L199.7,178.8L198.2,179.2L196.9,179.3L196,179.2L195.2,178.8L194.3,178.3L192.8,178.1L190.7,178.3L188.6,178.2L186.7,177.8L185.3,177.7L184.4,177.8L183.5,177.6L182.5,177.3L181.7,176.8L180.7,175.8L180,174.8L179.8,174.7L179.5,174.5L179.3,174.5L177.1,174.4L175.1,174.4L173.9,174.4L171,174.4L168.2,174.4L165.3,174.4L162.4,174.4L159.5,174.4L156.7,174.4L153.8,174.4L150.9,174.4L149.4,174.4L148,174.4L146.4,174.5L146.2,174.5L145.8,174.4L145.6,174.2L144.7,173.6L144,173.1L143,172.4L142.3,171.6L141.8,171.4L140.8,171.2L140.1,171.1L139.5,171.1L138.5,171.4L137.7,171.8L137.2,172.2L136.2,172.6L135.4,173L134,172.9L133.6,173L132.9,173L132.1,172.6L131.4,172.6L130.5,173.1L129.3,173.3L129.6,170.3L129.9,169L129.9,167.4L129.7,163.4L129.5,162.8L129.4,162.2L130.1,161.7L130.5,161.3L131,160.6L131.4,159.7L131.8,157.6L133.4,152.9L134.1,148.2L135.1,146L135.4,143.6L138,140.4L138.6,138.5L140,137.5L141.9,136.5L143.3,134.7L143.9,133.5L144.7,131.1L144.6,128.6L145.1,125.3L145,124.3L144.3,123L144.2,122.1L143.5,121.1L142.8,120.4L142.5,119.2L141.3,117.2L140.9,115.9L140.3,115L140.2,113.8L139.9,112.6L139.3,111.3L138.8,110L138.8,109.5L139.1,109L139.5,108.8L139.3,109.1L139.1,109.4L139.2,109.7L141.5,107.2L141.6,106.8L141.5,106.2L141.5,105.6L141.6,104.8L139.5,100.3L137.7,96.18L137.5,94.09L135.2,91.33L134.3,89.54L133.8,88.28L133.4,87.81L133.5,87.57L134.1,87.5L135.4,87.22L137.2,86.9L138.8,86.17L139.3,85.85L140.2,85.79L141.1,85.98L141.4,85.84L141.6,85.83L143.6,85.83L144.5,85.77L146.1,85.79L147.1,85.85L147.7,85.93L149.3,86.06L151.2,86.04L151.9,85.96L154.5,85.92L157,85.88L159.2,85.84L161.8,85.85L163.7,85.85L164.5,86.11L165.3,86.61L165.7,87.06L165.9,87.25L166.1,87.74L166.5,88.11L166.7,88.7L166.6,89.48L166.6,90.43L166.9,91.55L167.4,92.71L168.2,93.93L168.6,94.89L168.4,95.62L168.7,96.38L169.3,97.18L169.7,97.6L170,97.92L170.7,99.15L171.9,101.1L172.8,102.6L173.2,102.8L173.6,102.7L174.7,102.5L175.7,102.5L176.4,102.8L176.7,102.8L177.8,102.2L178.8,102L180,101.8L180.6,101.5L181.2,101.5L183.1,102L183.4,102L184.9,102L186.4,101.7L186.6,99.78L186.6,99.39L187,98.65L187.4,98.01L187.5,97.39L187.5,96.55L187.8,95.52L188.8,94.71L190.4,94.33L191.3,94.25L192.8,94.03L195,93.79L195.8,93.82L195.8,93.93L195.4,95.35L195.4,95.81L195.5,96.27L195.9,96.54L198.2,96.56L200.3,96.59L202.7,96.68L204.5,96.75L204.7,96.81L204.9,96.92L205.2,97.61L205.1,98.98L204.7,101L204.9,102.9L205.6,104.6L205.6,107.3L205.4,108.9L205.1,110.9L205,113.2L205.3,114.1L206,115.1L207,116.2L207.8,117.5L208.4,119.2L208.6,120.2L208.5,120.7L208.5,121.4L208.7,122.5L208.5,123.2L207.9,123.6L207.7,124L208,124.9L208.1,125.8L208.3,126.1L208.5,126.3L208.7,126.4L209.3,126.1L210,125.5L210.6,125.3L211.4,125.3L212.5,125.5L214.5,125.5L215.1,125.4L216.9,124.7L217.4,124.6L218.1,124.7L219.1,124.9L220.1,125L220.7,124.7L220.7,124.4L220.8,124Z" fill="#D8E2E7" stroke="#3F464B" stroke-width="0.85" vector-effect="non-scaling-stroke"/><path d="M216.7,176.4L218.4,176L219.9,175.7L221.7,175.4L223.1,175.2L223.4,175.1L226.9,175.4L228.4,175.6L228.9,175.8L229.6,176.3L230.8,177.6L230.5,177.5L228.2,177.8L227.3,178.1L225.4,179.6L224.9,179.4L224.5,179.1L224.1,179L223.2,179.4L222.4,179.8L221.4,180.4L220.6,181L220.4,181.3L219.1,182.5L218.7,182.7L218.4,182.8L218.2,182.8L218.1,182.3L217.3,181L216.1,179.4L215.8,179.2L215.5,179.2L214.6,179.3L212,179.7L209.8,180.1L206.5,180.8L202.8,181.3L200.6,181.6L198.7,181.7L198.7,183.3L198.7,186.5L198.7,189.8L198.7,193L198.7,196.3L198.7,199.6L198.7,202.8L198.7,206.1L198.7,209.4L198.7,210.9L198.6,211.2L197.5,211.2L195,211.2L192.9,211.2L191.2,211.2L191.2,213.1L191.2,215.5L191.2,217.8L191.2,220.1L191.2,222.5L191.2,224.8L191.2,227.2L191.2,229.5L191.2,231.9L191.2,233.7L191.2,233.9L191.2,237.4L191.2,241.1L191.2,244.8L191.2,248.5L191.2,252.2L191.2,256L191.2,259.8L191.2,263.6L191.2,264.8L190.4,264.8L188.9,265.2L187.9,265.8L187.4,266.6L186.9,267L186.2,267.2L185.9,267.6L186,268.2L185.7,268.6L185,268.9L184,268.9L182.6,268.3L180.8,268.2L178.7,268.5L177.1,268.4L176.1,267.9L175.1,267.6L174.1,267.5L173.4,267.3L172.2,266.9L171.9,266.2L171.8,265.7L171.4,265.2L171.4,264.8L171.7,264.5L171.7,263.9L171.5,263.2L171.1,262.9L170.7,262.9L170.4,262.6L170.2,262.1L169.9,261.6L169.2,261.2L168.3,261.5L167.9,262L167.6,262.8L167.4,263.2L167.3,263.8L167.2,264.3L167,264.8L166.7,265L166.5,264.9L166,265.1L165,265.8L164.7,266.2L163.8,265.5L161.4,262.9L160.5,262.2L159.2,260.6L156.4,255.7L155.9,254.8L155.4,252.4L154.8,250.7L154.7,249.7L155,249.1L154.8,248.3L154.5,247.6L153.5,246.7L153.3,243.7L152.6,241.8L152.8,240.2L152.5,238.7L152.4,237.8L152.6,236L152.1,234L151,232L150.1,229.2L149.9,227.9L150,224.6L149.8,223.2L149.8,221.6L149.5,219.9L149.3,219L149.6,218.3L149.7,218.5L150,218.7L150.2,217.7L150.2,216.9L149.8,214.8L148.7,212.7L146.1,209.3L145.4,208L145.1,206.9L142.2,202.4L140.9,199.3L140,196.6L139.1,195.3L134.7,186.5L133.7,185.1L132,183.5L131.6,182.9L130.9,181.3L129.6,179.2L129.3,177.2L129.2,175L129.3,173.3L130.5,173.1L131.4,172.6L132.1,172.6L132.9,173L133.6,173L134,172.9L135.4,173L136.2,172.6L137.2,172.2L137.7,171.8L138.5,171.4L139.5,171.1L140.1,171.1L140.8,171.2L141.8,171.4L142.3,171.6L143,172.4L144,173.1L144.7,173.6L145.6,174.2L145.8,174.4L146.2,174.5L146.4,174.5L148,174.4L149.4,174.4L150.9,174.4L153.8,174.4L156.7,174.4L159.5,174.4L162.4,174.4L165.3,174.4L168.2,174.4L171,174.4L173.9,174.4L175.1,174.4L177.1,174.4L179.3,174.5L179.5,174.5L179.8,174.7L180,174.8L180.7,175.8L181.7,176.8L182.5,177.3L183.5,177.6L184.4,177.8L185.3,177.7L186.7,177.8L188.6,178.2L190.7,178.3L192.8,178.1L194.3,178.3L195.2,178.8L196,179.2L196.9,179.3L198.2,179.2L199.7,178.8L201,178.9L201.6,179.2L202,179.2L204.2,178.8L206.1,178.4L208.8,177.9L211.1,177.5L214.4,176.8Z" fill="#8B341D" stroke="#2C160F" stroke-width="1.1" vector-effect="non-scaling-stroke"/></svg>