<svg xmlns="http://www.w3.org/2000/svg" viewBox="0 0 360 440" width="360" height="440" role="img" aria-label="Regional map with New Zealand highlighted"><rect width="100%" height="100%" fill="#7FA6D6"/><path d="M154.9,-42L155.1,-41.91L155.7,-40.41L155.7,-40.41L156.1,-40.23L156.3,-40.23L156.4,-39.82L157.6,-39L157.9,-39.03L158.1,-38.58L158.6,-38.36L158.8,-37.91L159.1,-37.44L158.5,-36.88L157.3,-37.03L156.6,-36.39L156,-36.55L155.9,-36.88L156,-37L155.6,-37.85L155.5,-39.16L155.2,-39.92L154.9,-40.25L154.4,-39.96L154.1,-39.92L153.6,-40.55L153.9,-41.81L153.9,-42L154.9,-42ZM164.1,-34.66L164.3,-34.55L164.2,-34.19L163,-34.59L162.2,-34.44L161.9,-34.46L161.6,-34.78L161.4,-35.42L161.5,-35.86L161.9,-36.18L162.1,-36.23L162.3,-35.85L162.6,-35.58L162.8,-35.47L163.4,-34.84ZM162.8,-38.39L161.9,-38.3L160.6,-38.56L160.1,-38.93L159.9,-39.29L160.3,-39.57L161,-39.7L161.8,-40.53L162.1,-40.21L162.3,-39.28L162.7,-38.98L162.8,-38.71ZM164.1,-28.23L164.8,-27.02L165.2,-26.92L164.7,-26.05L163.7,-25.98L162.5,-26.2L162.9,-26.49L162.7,-26.83L162.3,-26.91L161.9,-26.74L161.7,-26.8L162,-27.36L162.7,-28.14L162.8,-28.2L163,-28.21L163.2,-28.14ZM162.6,-42L162.5,-41.59L162.2,-41.46L162.2,-41.46L162,-41.45L161.9,-41.84L161.9,-42L162.6,-42ZM175.7,-5.673L175.5,-5.211L175,-5.211L174.5,-5.539L174.6,-5.972L175.2,-6.046L175.4,-6.017ZM172.5,-11.23L172,-10.29L171.3,-10.51L170.6,-11.18L170.3,-11.78L170.5,-12.89L170.9,-13.1L171.2,-13.02L171.4,-11.93ZM171.2,-16.34L170.9,-15.94L170.5,-15.99L168.4,-16.94L168.5,-17.34L168.4,-18.33L168.6,-18.87L169.2,-19.09L169.7,-18.98L170,-18.18L170.6,-17.85L170.1,-17.59L170.9,-16.98ZM129.8,-5.166L130.7,-4.629L131.7,-4.853L132.9,-4.001L136.1,-1.429L137.1,-0.876L137.8,-0.666L138.3,-0.246L138.7,0.353L139.3,0.773L139.6,1.163L139.6,1.703L139.9,2.033L140.9,2.888L141.6,3.639L142.5,4.03L142.9,4.481L143.4,4.692L143.9,5.158L144.8,5.519L146.8,6.844L148.3,8.11L149,8.895L149.9,9.589L150.9,10.15L151.9,10.78L152.4,12.28L152.2,12.81L151.6,13.08L151,13.1L150.6,13.28L148.9,12.31L148.5,12.17L148.1,12.23L147.9,12.02L147.7,11.7L146.7,11.34L145.7,10.78L145.5,10.39L145.3,9.906L145.1,9.619L143.8,9.196L142.9,8.729L142.2,8.065L141.3,7.598L139.7,6.648L138.9,6.347L138.2,5.88L136.3,4.15L135.7,3.835L135.1,3.069L133.5,1.268L132.7,0.518L131.9,-0.142L131.2,-0.92L130.7,-1.834L129.6,-3.15L129.4,-3.718L129.5,-4.285L129.2,-4.658L128.7,-4.882L128.5,-5.271L128.5,-5.793L128.7,-6.061ZM156.8,15.43L156.5,15.76L156.2,15.69L156,15.57L155.8,15.38L156,14.72L156.7,15.05ZM95.53,-13.17L95.41,-12.99L95.35,-14.36L95.58,-14.86L95.73,-13.81ZM160.5,5.053L160.9,5.203L161.6,5.188L161.4,6.663L160.5,6.904L160.2,6.889L160,6.573L159.4,6.362L159.5,5.865L158.9,4.722L159.8,4.556L160.3,4.256L160.3,4.526L160.4,4.857ZM148.7,-1.265L148.3,-1.19L148.8,-1.968L148.8,-2.462L149,-3.404L149,-3.732L149.4,-3.688L149.7,-3.419L149.3,-3.179L149.2,-2.761L149.2,-2.252L149.3,-2.148L149.1,-1.594ZM155.6,2.723L155.2,2.783L154.6,2.168L153.5,1.853L153,1.312L152.6,0.668L153.3,0.503L153.9,-0.366L153.5,-0.696L152.7,-0.741L152.8,-1.085L154,-1.489L154.6,-1.25L154.8,-0.98L154.7,0.398L155.3,0.833L155.9,1.808L155.8,2.078ZM257.2,-39.8L256,-38.68L255.6,-38.11L255.2,-37.47L254.2,-36.78L253.7,-35.86L253.8,-34.94L254.8,-35.91L256,-36.69L256.3,-36.85L256.7,-36.85L256.7,-36.58L256.5,-36.31L256.3,-35.61L256.7,-34.95L255.8,-35.03L254.9,-34.97L253.9,-34.6L252.9,-34.44L252.6,-34.43L252.2,-34.56L252,-34.75L251.8,-35.17L251.6,-35.25L250.8,-35.23L249.6,-34.37L249.2,-33.65L248.8,-33.61L248.2,-33.77L247.6,-33.21L246.8,-33.01L246.5,-33.48L246.3,-34.06L246,-34.49L245.1,-34.59L245.3,-35.12L245.5,-35.34L245.7,-35.64L245.8,-35.99L246.2,-35.76L246.6,-35.63L247.1,-35.89L247.6,-35.91L248.1,-36.68L248.9,-37.16L249.9,-37.54L251,-37.82L251.6,-37.86L252.1,-38.02L253,-38.75L253.6,-39.12L254.3,-39.34L254.9,-39.47L255.5,-39.35L256,-39.42L257.2,-39.93ZM243.4,-29.67L243.4,-29.29L243.6,-29.12L243.8,-29.09L244.4,-28.39L245.3,-27.77L245.9,-27.3L245.9,-26.89L245.7,-26.46L246,-25.71L246.1,-24.92L246.5,-23.65L245.9,-23.42L245,-23.39L244.8,-23.17L244.5,-23.29L243.8,-23.2L243.1,-22.78L242.4,-22.22L241.6,-22.22L240.8,-22.11L239.9,-22.18L239.3,-22.49L238.2,-22.81L236.7,-23.09L236.1,-23.32L235.6,-23.68L235.2,-24.61L235.1,-25.07L235.2,-25.51L235.6,-25.66L236,-25.88L236,-26.16L236.2,-26.36L236.4,-26.43L236.5,-26.57L236.3,-27.04L236.3,-27.46L237.1,-28.24L238,-28.9L239.6,-29.52L240.6,-29.46L242.1,-29.95L242.6,-30.16L243.1,-30.02ZM257.2,-33.11L256.6,-32.8L256.4,-33.11L256.7,-33.84L257.2,-34.6L257.2,-33.99ZM245,-16.06L245,-15.69L244,-15.46L243.7,-15.75L243.4,-15.81L242.8,-15.28L242.6,-15.05L242.6,-14.89L242.4,-14.8L241.3,-14.55L240.8,-14.8L241.1,-14.98L241.5,-15.32L241.9,-15.28L242.4,-15.6L242.8,-16.09L243.4,-16.21L243.8,-16.4L244.5,-16.25ZM234.9,-31.56L234.5,-31.43L234.7,-32.09L235,-32.3L235.1,-32.35L235.4,-32.39L235.3,-31.93ZM252.6,-29.71L252.3,-29.48L252.2,-30.64L252.5,-30.64L252.7,-30.52L252.8,-30.22ZM252,-23.48L251.9,-23.4L251.2,-24.08L251.2,-24.36L251.4,-24.6L251.6,-24.82L251.9,-24.43L252.1,-23.79ZM247.8,-26.64L247.4,-26.49L247.1,-27.01L247.5,-27.52L247.8,-27.58L248,-27.05ZM257.2,-36.68L257.2,-36.68L257.2,-36.68L257.1,-36.66L257.1,-36.83L257.2,-37.1L257.2,-36.68ZM213.9,7.341L213.9,7.447L213.6,7.417L213.6,7.221L213.7,7.115L213.9,7.176ZM-21.95,-42L-21.39,-40.75L-21.44,-39.23L-21.56,-38.65L-21.65,-37.8L-21.12,-36.75L-20.63,-35.96L-19.93,-35.12L-18.98,-33.81L-18.31,-33.56L-17.73,-33.53L-17.81,-32.22L-16.62,-29.59L-15.98,-27.43L-16.42,-24.54L-16.83,-22.86L-16.74,-22.03L-15.2,-20.01L-14.33,-19.64L-14.5,-18.68L-14.62,-17.19L-13.92,-16.03L-13.14,-15.17L-12.27,-14.65L-11.43,-14.24L-10.32,-13.82L-8.928,-13.65L-8.202,-12.99L-7.824,-12.47L-6.692,-12.3L-6.198,-12.4L-5.559,-12.61L-5.153,-12.25L-4.833,-11.79L-4.224,-10.51L-2.946,-9.249L-2.075,-9.041L-1.552,-8.401L-0.855,-8.237L-0.216,-8.148L0.655,-7.656L2.078,-6.538L3.385,-6.345L3.965,-6.031L5.243,-4.793L5.737,-4.136L6.26,-3.15L5.621,-3.06L5.011,-3.254L4.633,-2.297L5.475,-0.95L6.492,-0.007L7.682,0.998L8.844,2.408L9.134,3.489L9.454,3.925L9.831,5.444L10.85,6.332L10.91,7.959L11.43,10.21L11.98,12.25L12.39,12.85L12.88,13.84L13.4,13.72L13.81,13.4L14.62,14.37L15.06,14.79L15.29,14.55L14.8,12.69L15.12,11.6L15.41,11.46L15.87,11.43L16.39,12.31L17.15,13.25L18.51,14.08L19.62,14.87L19.94,14.84L19.82,14.23L19.85,13.34L20.29,13.2L20.69,13.64L21.42,15.02L21.56,17.88L21.56,20.28L22.06,22.75L22.75,23.41L23.22,24.02L24.03,24.84L24.55,25.62L25.22,25.98L27.37,27.63L27.95,27.83L28.88,27.86L30.04,28.61L30.59,29.3L31.84,31.9L32.42,32.81L33.67,33.72L34.22,34.01L35.07,34.63L35.36,35.54L35.44,36.06L35.94,37.04L36.66,38.2L37.77,38.83L38.75,40.24L38.81,42.54L39.34,43.67L39.68,44.17L40.47,44.64L40.79,45.01L40.12,48.05L40.76,54.18L40.41,56.1L41.05,58L42.56,61.32L42.91,62.49L43.11,63.87L44.1,65.64L44.04,68.33L44.42,69.6L44.33,71.28L43.17,73.07L42.27,75.3L42.24,77.2L41.66,80.87L41.25,81.88L40.96,83.41L39.71,87.14L39.65,88.61L39.83,90.37L39.63,92.05L39.31,93.22L39.02,95.35L37.74,98.67L35.91,101.1L35.79,103L35.56,103.9L35.18,104.9L34.05,106L33.38,106.5L33.12,107.2L32.48,107.2L32.48,107.4L32.92,107.6L32.71,107.9L31.03,108.5L29.87,109.3L28.71,111.2L28.21,112.2L27.6,113.2L27.23,113.6L27.05,114.1L26.82,115.3L26.21,115.5L25.69,115.9L25.92,117L25.66,118.3L25.57,119.2L25.28,119.8L24.96,119.6L24.67,119.7L24.32,120L24.87,120.1L25.19,120.2L24.06,121.5L23.02,122.8L22.73,123.7L22.29,124.8L21.88,127.3L21.56,128.7L21.8,129.7L21.74,129.9L21.5,129.9L21.36,129.8L20.87,130.1L20.75,130.5L20.95,130.9L21.07,131.1L21.01,131.3L20.84,131.5L20.37,131.5L19.82,131.8L18.28,135.5L17.61,136.5L16.83,138L16.54,139.3L16.31,140.8L16.02,143.4L15.76,145.2L15.14,146.9L14.94,148.1L14.86,150.5L15.14,152.3L14.94,153.2L14.94,154.2L14.71,155L13.72,155.2L12.91,155.9L11.75,157.1L11.08,157.5L9.599,157.8L6.724,157.7L1.236,158.1L0.161,158.4L-1.871,159.2L-3.846,160.4L-5.763,162.1L-10.09,166.7L-13.49,167.2L-14.13,167.2L-14.65,167L-15.26,167.3L-15.26,167.9L-14.71,168.5L-14.3,169.1L-13.57,168.3L-13.26,168.5L-13.14,169.9L-13.11,170.8L-13.34,171.3L-13.78,171.7L-14.27,171.4L-14.33,170.9L-14.97,169.8L-15.72,168.7L-16.45,168.4L-16.86,168.8L-17.52,169.1L-18.1,167.8L-18.68,166.7L-19.5,166.6L-20.2,166.6L-20.75,166.1L-21.88,165.3L-21.65,164.7L-21.36,164.1L-20.72,163.9L-20.89,163L-21.24,162.3L-22.11,162.2L-22.72,162.3L-23.07,162.8L-23.54,163.8L-25.39,165L-26.32,164.3L-27.37,163.3L-26.84,163.4L-25.8,163.4L-24.93,162.5L-24.55,161.9L-24.11,160.8L-24.67,160L-25.19,159.3L-25.95,158.8L-28.79,160.6L-29.4,160.9L-29.95,161.3L-28.96,161.6L-28.38,161.5L-27.77,162L-28.76,162.7L-29.52,163L-30.5,163.4L-32.33,164.6L-34.66,167L-35.67,167.7L-36.86,168.3L-38.49,167.6L-39.39,167.5L-40.55,166.5L-42,166L-42,-42ZM40.09,43.1L39.89,43.35L39.51,42.9L39.28,41.31L39.45,40.4L39.86,39.54L39.95,39.08L39.77,38.12L40.99,37.02L41.28,36.45L41.4,35.71L40.96,34.9L40.61,34.75L40.9,34.3L41.25,34.07L41.51,33.98L41.72,34.06L41.86,35.63L42.35,36.19L42.27,36.96L40.58,40.97L40.12,42.48ZM-21.15,163.5L-22.37,164.2L-22.81,163.9L-22.78,163.3L-22.69,163.1L-21.65,163.1ZM-22.55,164.9L-22.26,165.4L-22.2,165.6L-22.9,165.2L-24.03,165.3L-23.33,164.6L-22.75,164.7ZM7.537,-4.778L7.363,-4.688L7.073,-4.688L6.695,-4.853L7.044,-5.957L7.218,-5.375L7.566,-4.897ZM6.666,-6.002L6.492,-5.957L6.289,-6.046L6.434,-6.404L6.637,-6.688L6.927,-6.896L6.84,-6.121ZM24.5,23.04L24.79,23.27L25.02,23.24L25.25,23.38L25.16,23.96L25.54,24.6L25.72,25.06L25.43,25.43L25.25,25.55L24.82,25.24L23.6,23.39L23.8,22.77ZM19.41,12.81L19.18,12.82L18.98,12.67L19.15,12.32L19.18,11.84L19.47,11.99L19.68,12.67ZM14.68,11.67L14.39,11.95L14.22,11.31L14.24,10.65L14.54,10.42L14.68,11.3ZM43.81,58.3L43.11,60.8L42.91,60.75L42.65,60.37L42.67,58.94L42.97,58.02L43.66,58.18ZM43.02,57.2L42.85,57.34L42.5,56.48L42.38,55.59L42.53,54.79L42.94,54.62L43.23,54.68L42.91,56.16ZM-14.77,-22.39L-14.59,-21.57L-14.24,-20.96L-14.39,-20.54L-14.59,-20.23L-15.11,-20.51L-15.46,-21.27L-16.07,-21.87L-16.22,-22.21L-15.49,-22.18L-15.14,-22.3L-15,-22.43ZM-24.73,188.9L-23.8,189L-23.27,188.7L-22.81,188.8L-22.26,189.4L-21.62,189.7L-21.15,189.6L-20.78,189.7L-20.43,190.2L-19.56,190.6L-19.15,190.8L-18.83,191.2L-18.45,191.5L-16.1,192.5L-14.45,193L-12.38,192.7L-11.77,192.5L-11.16,192L-10.67,192.4L-10.18,193L-10.26,192.4L-10.09,191.8L-9.596,191.4L-9.015,191.1L-8.086,191.2L-7.186,191L-6.779,190.8L-6.372,190.8L-5.821,191.1L-5.269,191.2L-4.891,190.8L-4.282,189.9L-3.933,189.5L-2.336,189.8L-1.9,189.8L-1.116,188.9L-0.623,188.9L0.858,189.7L1.497,190.6L1.41,192.4L1.468,193.1L1.584,193.7L1.642,195L1.468,196.2L1.439,197.2L1.526,198.2L1.439,200L1.671,201.2L1.555,202L1.555,202.4L1.758,202.8L1.875,203.2L1.788,203.7L1.875,204.3L1.788,204.8L1.468,204.8L1.352,204.4L1.41,203.9L1.352,203.5L1.178,203.1L0.597,202.7L0.771,202.4L1.062,202.2L0.858,201.7L0.481,202.1L0.248,202.7L0.394,202.9L0.161,203.1L-0.332,203.8L-0.681,204.8L-0.826,205.7L-0.797,206.7L-1.087,207.5L-1.494,208.2L-1.581,209.2L-1.552,210.9L-1.233,212.5L-1.029,214.6L-1.32,214.9L-2.191,215.1L-2.597,215.4L-3.294,214.3L-3.73,213.2L-3.41,212.7L-2.714,213L-2.481,212.7L-2.423,212.4L-2.481,212.1L-3.352,211.5L-4.311,211.2L-4.63,211.6L-4.514,212.6L-4.601,212.9L-5.298,213.3L-5.646,211.8L-6.547,210.6L-6.518,211.2L-6.14,212.1L-6.169,212.5L-6.314,213.1L-6.692,213.3L-6.837,213.7L-6.837,214.3L-6.982,215.3L-7.563,215.7L-8.957,214.6L-9.073,215L-9.044,215.3L-8.318,216L-8.667,216.5L-8.899,217L-9.305,218.5L-9.973,219.7L-10.29,219.8L-11.37,219.6L-12.59,218.6L-13.69,218.7L-15.49,218.6L-16.65,219L-16.91,217.8L-17.15,217.4L-17.06,217.1L-16.13,216.8L-15.17,216.9L-15.35,216.4L-15.58,216.3L-16.01,216.4L-17.2,216L-18.05,216.1L-18.6,215.6L-19.59,213.8L-20.17,212.9L-20.51,212.6L-20.89,212.4L-21.15,212.1L-22.93,207.9L-23.16,206.9L-23.48,204.5L-22.08,205.7L-21.56,206.4L-21.3,207.4L-20.83,206.2L-20.92,205.8L-22.17,204.5L-22.34,204.1L-22.4,203.6L-22.69,204.1L-23.19,204.1L-22.98,203.2L-23.16,202.2L-24.64,200.1L-25.77,198.1L-26.87,195.7L-26.96,195.4L-26.99,194.9L-27.51,193.3L-27.8,192L-27.92,191L-27.43,188.9L-27.34,187.7L-26.55,188.3ZM-33.73,181.8L-33.96,181.9L-34.13,181.3L-34.05,180.4L-34.45,179.6L-34.22,178.8L-34.25,177.9L-34.1,177.4L-33.64,177L-33.55,176.2L-33.15,176.2L-32.42,176.8L-32.16,178.3L-32.27,179.3L-32.01,180.1L-32.25,180.8L-32.86,181.4ZM-0.884,178.1L0.568,179.9L1.294,180.3L1.526,180.5L1.468,181.3L1.149,181.6L1.729,182.1L1.642,182.4L1.526,182.4L0.829,183.1L-0.013,183.4L-0.274,183.2L-0.507,182.8L-0.681,182.4L-1.755,180.8L-1.639,180.3L-1.871,179.6L-2.394,179.7L-2.743,179.2L-2.162,178.8L-1.407,177.7ZM-6.082,217.3L-6.46,218.5L-7.069,218.3L-7.708,218.5L-8.086,217.7L-8.086,217.5L-7.621,217.7L-7.447,217.4L-7.331,217.1L-7.186,217L-7.069,216.6L-6.663,216L-6.431,216L-6.169,216.7ZM-0.042,209.7L-0.478,209.8L-0.652,209.8L-0.623,209.2L-0.681,209L-0.303,208.5L0.277,208.7L0.481,209.1L-0.071,209.4ZM-5.443,215.6L-5.937,215.6L-6.14,215.5L-6.227,214.9L-6.547,214.7L-6.372,214.5L-6.314,214.2L-6.111,213.8L-5.734,214.2ZM-26.82,186L-27.11,186.8L-27.43,185.7L-27.08,185.6L-26.82,185.2L-26.76,185.2ZM1.758,183.8L2.513,184.5L2.949,185.2L2.368,185.7L1.962,185.9L1.7,185.2L0.858,185.4L-0.042,185.4L-0.71,184.9L-0.797,184.6L-0.39,184.4L0.713,184.4ZM1.032,186.1L0.626,186.9L0.132,186.4L0.074,186.1L0.684,185.9L0.887,185.9ZM86.87,357.4L86.61,357.9L86.52,357.3L87.02,354.6L87.51,354.1L87.42,355.5ZM160,72.78L160.1,72.88L160.3,72.93L160.4,73.01L160.4,73.15L160.3,73.31L160.2,73.38L160.2,73.41L160.1,73.42L160.1,73.47L160.1,73.5L160.1,73.38L160,73.28L159.9,73.28L159.8,73.38L159.8,73.38L159.8,73.28L159.8,73.18L159.7,73.1L159.8,73.02L159.8,72.94L159.8,72.88L159.8,72.85L159.7,72.88L159.8,72.74Z" fill="#D8E2E7" stroke="#3F464B" stroke-width="0.85" vector-effect="non-scaling-stroke"/><path d="M201.7,194.2L202.7,194.3L203.5,193.5L204.4,192.8L205.3,192.3L206.7,191.1L207.1,190.9L208,190.7L208.4,190.4L208.9,190.3L208.5,191L208,191.3L207.9,191.5L208.2,192L207.7,192.5L207.7,193.3L207.2,194.1L208,193.8L208.3,193.2L208.2,192.9L208.5,192.3L209,192L208.8,191.5L208.8,191.1L209.5,191.3L209.8,191.3L210.1,191.1L210.5,191L210.7,191.5L211.3,191.4L211,191.9L210.6,192.6L210.5,192.9L209.7,193.5L209.2,193.8L210,193.9L211.1,193.1L211.8,192.3L211.8,193.2L211.2,194L210.8,194.6L210.2,194.7L209.7,195.1L209.4,195.8L209.4,196.3L209.6,196.6L210.1,197.2L209.5,198.4L210.2,198.3L210.6,198.5L211.1,199.2L210.8,200L210.6,200.4L209.2,202L208.6,202.9L207.9,203.4L208,204.3L207.6,204.9L205.5,207.1L205.2,207.6L203.6,211.2L202.6,212.7L202,213.2L201.4,213.6L199.9,214.3L199.2,215.1L198.5,215.8L197.7,215.9L197.8,216.2L198.3,216.4L198.6,216.8L198.4,217.3L197.8,217.7L197.2,217.7L197,218.1L198.3,217.8L198.7,218.1L198.8,218.7L198.9,219.2L199.2,219.8L200.4,220.2L201.4,220.4L201.6,220.7L201.7,221.8L201.5,222.3L201.3,222.6L201,222.8L200.2,222.8L199.3,222.6L198.8,221.9L197.2,222.2L196.8,222.3L196.6,222.2L197.4,221.5L197,221.1L196.6,221L196.2,221.2L195.9,221.6L195.8,222.1L195.5,222.5L195.1,222.6L194.5,222.1L193.9,221.4L193,220.7L193.1,221.1L193.8,222.2L194.2,222.9L193.4,223.4L192.5,223.9L191.8,224.1L191.2,224.5L190.4,225.1L190,225.3L188.8,225.4L188.2,225.6L188,226.4L187.6,226.9L186.6,227L186.9,227.2L187.2,227.4L186.5,229.9L186.4,231L186.2,232.7L185.8,234.3L184.6,234.3L184.8,234.6L185.7,235.1L185.5,235.8L184.6,237.1L184.2,237.8L183.7,239.6L183.2,241.3L182.2,243.2L182.2,243.5L182.6,244L182.9,244.4L183,245L182.8,245.4L182.4,245.5L182,245.7L180,246.2L179.3,246.8L178.7,247.8L178.1,248.7L175.9,250.8L174.7,252.4L174.4,252.9L174,253.3L171.3,254.1L169.3,254.2L168.2,254L167.2,253.6L166.6,253.5L165.5,253.7L165.1,254L164.2,253.7L163.5,253.9L163.3,253.7L163.1,253.2L163.2,252.6L163,252.1L162.6,251.7L162.3,251.4L162,251.1L161.1,251L159.6,251.1L159.2,251.1L158.2,249.5L157.9,249.1L156.7,248.6L156.3,248.7L155.7,249.5L155.3,249.7L153.2,249.8L151,249.5L150.2,249.2L150.1,248.4L151.7,246.4L151.2,246.6L150.2,247.5L149.6,247.3L150.2,246.4L150.2,246L150.1,245.6L149.2,246.3L148.3,246.4L148.2,245.7L148.3,244.9L148.5,244.7L151,244.2L152,244L152.4,243.5L150.8,243.4L150.8,242.8L151,242.3L152.3,241.4L151.3,241.7L150.2,241.6L150.3,240.7L150.6,240L151.7,240L151.4,239.6L151.3,238.9L151.7,238.9L152.8,239.7L153.6,240.1L153.3,239.4L153.3,239L153.5,238.8L154.2,238.7L154,238.5L153.4,238.4L152.6,237.9L152.6,237.4L152.6,236.8L153.4,235.9L153.9,236.4L154.5,236.3L154,235.9L153.8,235.3L154,234.9L155.7,233.4L156.1,234.9L156.2,234.4L156.3,233.9L156.1,233.5L156.1,233.1L156.3,232.7L157,232.4L158,231.3L158.7,230.8L159.3,231.1L159.7,231.5L159.6,231.1L159.4,230.7L159.3,229.7L160.6,228.1L162,226.6L163.4,225L164.1,224.4L165.7,223.7L166.7,224L167,223.9L168.4,222.8L169.1,222.5L169.6,222.9L170,223.1L169.6,222L169.9,221.6L171.1,220.7L172.7,219.8L173.8,219.5L174.7,218.9L175.2,218.9L175.2,218.4L175.2,218L175.7,218L175.8,217.9L175.4,217.6L176.7,216.8L177.4,215.9L177.8,215.6L178.1,215.4L178.5,214.7L179,214.5L179.4,214.6L179.8,214.9L179.6,214.4L179,214.1L179.7,213.7L180.3,213.3L180.9,213.6L181.5,213.9L180.9,213.4L180.8,213L181.5,212.6L181.9,212.5L182.5,213.2L182.4,212.7L182.6,212.1L183.4,211.3L184.4,209.8L184.7,210.3L184.8,210.9L184.7,211.7L185,211.4L185,210.7L184.9,209.6L186.2,207.4L186.4,207.2L186.7,207.1L187.2,207L187,206.7L186.7,206.3L187,205.3L187.3,204L187.6,202.9L188,201.7L188.6,199.8L189,199.3L190.1,199.2L190.5,198.9L191.4,198.2L192.3,197L192.8,196L193.5,193.4L193.9,190.6L194.9,188.6L196.5,187.2L197.9,186.1L198.4,185.9L199.4,185.8L200.3,186.1L198.6,186.4L198.4,187L198.4,187.7L198.6,188.3L198.9,188.8L199.7,189.3L200.7,189.6L201.1,190.7L201.2,192L201.3,193.2ZM208.2,189.7L207.1,190.4L207.1,190L207.3,189L207.8,188.5L208.1,188.5L208.5,188.1L208.5,188.9ZM150.3,242.9L150.3,243.4L150.2,243.7L149.9,243.7L149.5,243.7L149.1,243.4L148.8,243.5L148.6,243.4L148.9,242.7L149.9,242.4L150.2,242.7ZM152.2,237.4L152.6,238.8L151.8,238.5L151.5,238.1L152.1,237.4ZM161.6,257L161.6,257.4L160.8,257.2L160.8,257.8L161.5,258.1L161.7,258.4L162.4,258.3L162.5,258.9L162.4,259.4L161.9,259.8L160.6,260L159.7,260.7L158.9,260.6L158.7,260.7L157.8,261.5L156.9,261.7L156.6,261.6L156.7,260.9L157.5,260.3L157.5,259.6L157.7,259.1L158.4,258.7L158.4,258.1L158.8,257.5L158.5,256.2L158.7,255L160.1,255ZM221.3,142.4L221.4,143L220.7,142.8L220.5,142.4L219.8,141.9L219.7,141.8L219.6,141L220,140.6L220,140.4L220.2,140.3L220.5,140.8L221.1,141.4ZM202.9,129.1L203.1,129.5L203.5,129.2L203.8,128.7L204.4,128.2L204.3,129L204.6,129.2L206.4,129.8L206.7,130.3L207.1,130.4L207.3,130.1L207.6,130L208.2,130.3L209.7,131.1L209.8,131.4L209.7,131.9L209.8,132.3L210,132.7L210.5,132.8L211.1,132.2L211.4,132.2L211.9,132.9L212,133.4L211.9,133.4L212.2,133.8L212.6,134.2L213.2,135.5L213.1,135.9L213,136.3L213.5,137.5L213.2,137.6L212,137.4L212,137.6L212.7,138.5L213.3,139.7L213.7,140.4L215.3,142.7L215.1,143.5L215.1,144.1L214.9,144.5L215.5,145.8L215.1,146.1L214.9,147.4L214.6,147.6L214.7,148.1L215.3,148.2L215.7,148.4L216,148.8L216.2,148.3L216.5,148.2L217.3,148.8L218.9,149.4L219.3,149.6L219.6,150.1L219.7,151.3L220,151.8L220.6,151.9L221.3,151.7L221.5,151.3L221.4,150.1L220.9,148.3L220.9,147.7L220.9,147.1L220.9,146.5L220.6,146L220.4,145.6L220,145.2L220.1,144.6L220.6,144.4L220.9,144.9L221.2,145.4L222.4,147.1L223.2,147L223.2,147.7L223.7,148.4L224,149.2L224.3,151.8L224.9,154.1L225.9,155.1L226,155.6L225.4,155.4L225.2,155.5L225.3,155.8L225.9,156.2L226.5,156.4L226.9,156.4L227.3,156.6L229.9,158.1L231.2,158.7L234.4,159.7L235.3,159.8L235.8,159.7L236.7,159.4L237.6,158.8L238.3,157.9L238.9,156.8L239.6,156.3L240.4,155.9L240.8,155.6L241.2,155.3L243.3,155.4L244,155.9L245,156.4L245.4,156.7L245.3,157.4L244.7,158.4L244.3,159.4L243.9,161.9L243.7,164.4L243.3,165.5L242.6,166.4L241.8,167L240.9,167.3L240.6,168.7L240.4,170.4L240.4,170.8L240.7,171.1L240.8,171.6L240.4,172.6L240.1,172.5L239.7,171.7L239.4,171.3L238.3,171L237.3,170.9L236.3,171L235.4,171.3L234.1,172.1L233.7,172.5L233.3,172.9L232.7,174L232.5,175.3L232.6,175.9L232.8,176.4L233.9,177.2L232.8,179.7L231.8,182.3L231.2,183L230.5,183.7L229.9,185.3L228.8,186.6L228.1,187.7L227.5,188.8L227,189.9L225.9,191.5L225.5,192.6L224.8,193.5L223.7,194.6L222.5,195.6L220.5,197L220,197.4L219.4,197.8L218.7,197.4L218.6,197L218.4,196L218.2,195.7L217.3,195.4L216.2,195.8L215.9,195.8L215.9,195.6L215.9,194.2L216.1,193.8L215.8,193.6L215.5,193.7L215.5,194L215.6,194.3L215,194.7L214.2,194.7L214,194.6L214,194.3L214.2,193.9L214.4,193.5L215.7,191.8L217.1,189.6L218.2,187.2L218.5,185.9L219,183.6L218.6,182.7L218.2,181.8L217,180.1L215.4,179.1L214.4,179L213.4,178.6L212.5,177.8L211.7,176.8L210.1,176.1L208.3,175.5L207.3,174.6L207.1,174.1L206.9,173.5L206.9,172.9L207.1,172.3L207.3,171.9L207.6,171.6L209.4,170.5L211.4,169.8L211.7,169.9L212.1,169.8L212.6,169.4L213.4,168.5L213.7,167.9L213.8,166.1L214.1,164.2L214.6,162.2L215.4,160.9L215.6,160.1L215.3,158.8L215.6,158.3L215.9,158L216.3,157.8L215.7,156.6L214.9,154.8L214.7,154.2L214.8,153.7L215.1,153.1L214.6,153L214.3,152.4L213.6,150.7L213.8,150.4L214.2,150.6L214.8,151.9L214.9,151.2L215.3,150.8L215.8,150.6L216.3,150.5L215.2,149.1L214.8,149.2L214.2,149.4L213.7,149.5L213.2,149.4L212.7,149.1L212.4,148.5L212.1,147.3L211.9,146.9L210.4,144.6L210.8,144.5L212.1,145.7L212.3,145.3L212.5,144.8L212.4,144.1L212.1,143.7L211.7,143.4L211.7,142.9L212,142.4L212,142L211.3,141.3L211,141.3L210.9,141.6L211.1,142.1L210.9,142.1L209.1,140.9L208.6,139.9L208.2,138.7L208.1,139.2L208.2,139.8L208.9,141.1L210,142.5L210.2,142.9L210,143.4L209.6,143.5L209.3,143.2L208.8,142L208.4,141.4L204.1,135.1L204.7,134.3L205.5,133.6L205.7,133.2L205.8,132.9L205.5,132.8L205.1,133L204.8,133.3L204.5,133.7L204,134.5L203.8,134.7L203.3,134.1L203.1,133.8L203.1,133.4L203,133.1L202.6,133L202.1,132.2L201.7,131.8L202.3,131L202.3,129.9L201.7,128.8L201,127.8L199.7,126.1L198.4,124.4L199.8,124.2L201.1,124.1L200.5,125.2L200.8,125.8L201.2,126.3L202.2,127.8L202.2,128.3L202.7,128.7ZM170,327.3L170.4,328L169.5,328.3L169.1,328L168.8,327.7L168.7,327.3L169.1,327.3L169.5,327.2ZM146.1,304.8L146.3,305.8L145.8,305.8L144.9,305.5L144.6,305.1L144.4,305L144.1,305.5L143.6,305.5L143.4,305.3L143.6,304.8L144.9,303.7L145.2,302.3L145.1,301.9L146.1,301.8L146.4,302L146.5,302.2L146.4,302.4L146,302.9L146,303.4L146.1,303.9L145.8,304.2L145.9,304.6Z" fill="#8B341D" stroke="#2C160F" stroke-width="1.1" vector-effect="non-scaling-stroke"/></svg>