<svg xmlns="http://www.w3.org/2000/svg" viewBox="0 0 360 440" width="360" height="440" role="img" aria-label="Regional map with Oman highlighted"><rect width="100%" height="100%" fill="#7FA6D6"/><path d="M150.6,266.4L145.4,268.3L144,269.2L142.8,270.2L141.8,271.5L141.2,273.9L141.7,276L141.6,277.1L140.3,277.9L139,278.4L137.6,279.2L136.8,279.4L136,280.1L135.3,280.6L132.3,281.7L129.1,282.7L124.1,283.8L122.1,285L120.3,285.8L117.6,286L113.9,287.2L111.8,288.1L109.3,289.6L108.7,290L108.2,291.1L107.5,292.1L105.9,293.6L104.7,294.4L104,294.4L102.4,294.9L100.7,294.9L97.69,294.4L96.91,294.8L96.27,295.4L93.99,296.4L91.63,298.6L89.91,299.1L87.14,299.8L85.19,300.7L83.88,301L82.24,301.2L79.13,301.1L76.17,301.4L73.44,302L72.17,303.1L70.71,304.9L68.31,305.6L67.75,306.3L67.01,307.6L65.47,307.9L64.05,308.1L62.63,307.6L59.93,309.1L58.92,309.4L57.39,309.5L56.27,309.8L55.48,309.7L54.51,309.1L52.41,308.3L50.88,308.8L50.77,307.3L48.22,302.8L48.74,298.8L48.74,298.2L48.26,296.4L46.76,294.8L46.8,292.8L46.27,291.3L45.9,289.8L46.01,289.3L46.05,289L45.26,286.6L45,286.2L44.93,285.7L45.15,285.3L45.15,284.8L44.74,284.1L44.33,282.8L42.27,281.7L42.68,280.7L43.09,281L43.62,281.3L43.73,280.7L43.73,280.2L42.87,277.1L44.14,273.1L43.73,269.4L45.67,267.9L46.16,267.4L46.46,267.1L46.91,266.2L47.55,265.9L47.77,265.1L47.73,264.6L47.32,264.2L47.02,263.2L47.13,261.9L47.25,261.3L47.43,260.3L48.11,260L48.3,259.7L47.77,259L47.81,258.7L48.97,257.6L49.42,257.3L50.17,256.9L50.77,257L51.44,257.1L52.04,257.4L52.6,258L53.23,258.6L54.17,258.8L54.81,258.8L55.37,259L55.78,258.9L56.3,258.6L57.09,258.6L57.84,258.2L59.9,258.1L61.88,258.2L63.98,257.9L66.07,257.9L68.13,257.9L68.61,258L69.06,258.1L70.82,259.1L72.17,259.3L74.86,259.5L77.75,259.8L80.22,260.1L82.35,259.8L84.11,259.6L84.56,259.7L85.08,260.3L86.17,261.7L87.14,263.1L88.9,263.1L90.02,262.6L91.25,261.9L92,261.3L92.86,259.1L93.42,257.7L94.7,256.1L95.78,254.7L97.24,252.9L98.03,251.9L99.6,249.9L101.1,249.2L103.9,247.7L106.8,246.2L108.6,245.3L110.2,244.9L112.8,244.5L115.9,244L119,243.6L122.3,243.2L125.9,242.6L128.5,242.3L131.7,241.8L134.3,241.4L136.7,241.1L139.2,240.7L139.6,241.8L140.1,242.9L140.5,244L141,245.1L141.4,246.2L141.9,247.3L142.4,248.4L142.8,249.5L143.3,250.6L143.8,251.7L144.2,252.8L144.7,253.9L145.1,255L145.6,256L146,257.1L146.5,258.2L146.9,259.3L147.7,259.6L148.1,260.7L148.8,262.1L149.4,263.5L150,264.9ZM41.56,280.9L41.22,281.2L41.15,280.7L41.34,279.8L41.67,279.5L41.93,280.2L41.78,280.6ZM43.28,298.1L42.61,298.4L43.06,297.6L43.54,297.4L43.69,297.4ZM43.62,295.2L43.47,295.5L43.28,295.4L42.64,294.8L43.35,294.2L43.73,294.8ZM157.7,309.5L158.4,309.6L159.3,309.2L162.1,309.2L165.5,310.4L164.8,310.7L164.5,311.1L163,311.5L161.5,312.4L157.2,312.9L156,312.6L154.9,311.7L153,310.6L153.8,309.9L154,309.5L154.2,309.2L155.3,308.7L156.4,308.7ZM333.3,-25.25L333.2,-25.59L332.9,-26.14L332.4,-26.45L332.2,-26.33L332.4,-25.87L333,-25.2ZM338.8,-42L337.2,-41.09L336,-40.53L335.4,-40.43L335.2,-40.26L334.8,-38.92L334,-38.68L333,-38.24L332.3,-37.64L331.2,-36.16L328.4,-34.01L328.3,-33.58L328.6,-33.22L329.5,-32.98L330.7,-32.33L331.4,-31.82L333.2,-32.47L333.6,-32.33L334.1,-31.65L334.6,-29.73L335.4,-29.23L336.5,-28.82L337.2,-28.7L338,-28.22L339.2,-28.05L340,-28.22L341,-27.81L341.1,-27.98L341.2,-30.84L342.1,-30.36L342.5,-30.38L343,-30.72L343.2,-31.2L343.3,-32.13L343.1,-33.07L343.5,-33.51L343.8,-33.6L344,-33.48L344.1,-33.24L344.1,-32.4L344.7,-32.04L345.1,-31.82L345.5,-31.1L345.8,-30.4L346,-28.8L346.8,-28.7L347.8,-28.39L348.5,-28.7L349,-28.51L349.2,-27.74L349.1,-27.05L349.2,-26.47L349.5,-26.3L350.3,-26.66L351,-26.71L351.7,-26.38L352.5,-25.87L353.7,-24.51L354.1,-24.32L355.9,-24.23L356.3,-23.94L356.9,-23.94L357.5,-24.2L359,-23.75L359.1,-23.51L358.8,-23.18L355.3,-21.32L355,-20.75L354.3,-20.01L353.5,-19.61L353.2,-19.59L351.4,-20.32L351.3,-20.16L351.1,-19.85L351.1,-19.51L351.5,-18.75L351.3,-18.26L351,-17.9L349.9,-18.21L349.7,-18.42L349.7,-18.64L349.3,-18.64L348.6,-18.42L347.4,-17.07L347,-16.39L346.8,-15.96L346.2,-15.72L345.6,-15.63L344.9,-14.99L344.1,-14.52L343.8,-14.87L343.6,-15.28L343.4,-15.39L342.9,-15.3L342.3,-15.28L341.6,-15.72L340.8,-16.2L340,-16.34L337.9,-16.13L336.8,-15.91L336.4,-15.7L335.8,-15.63L333.3,-15.18L332.7,-15.35L332.4,-16.08L332,-16.86L331.4,-17.14L330.6,-17.36L330.3,-17.66L330.3,-18.04L330.4,-18.42L330.5,-18.61L332.2,-20.11L333.7,-21.46L333.9,-21.56L334,-21.82L334.3,-22.3L334.3,-22.53L333.1,-23.08L333.1,-23.32L333.3,-23.58L333.3,-23.92L332.5,-24.89L331.1,-26.45L330.6,-26.59L330.3,-26.5L329.8,-25.01L329.5,-24.63L327.9,-23.65L326.5,-22.96L324.1,-21.77L323.5,-21.41L323,-21.46L322.6,-21.7L321.2,-22.91L320.4,-23.32L319.8,-22.91L319.3,-22.32L319.3,-21.11L318.8,-20.46L318.2,-20.16L319.2,-16.91L319.2,-16.48L318.4,-16.36L318.9,-15.13L318.4,-14.99L317.2,-15.28L315.6,-15.46L312.5,-14.92L312.2,-14.71L312.2,-14.45L312.3,-14.19L313.8,-14.16L315.3,-14.31L315.7,-14.07L315.8,-13.67L315.6,-13.41L315.1,-13.36L314.1,-13.13L313.9,-12.87L313.9,-12.63L314.3,-11.9L314.7,-11.46L314.7,-11.2L314.5,-10.96L314.3,-10.87L314,-11.22L313.8,-11.15L313.7,-10.84L313.6,-10.49L313.3,-10.23L312.8,-10.37L312.3,-10.26L312,-8.964L311.8,-7.51L311,-6.527L310.5,-6.176L309.8,-6.082L308.8,-6.199L308.2,-6.339L306.5,-6.55L304.7,-6.948L302.8,-7.323L300.9,-6.456L300.4,-5.942L300.1,-5.45L299.7,-5.217L298.9,-2.206L299,-1.88L299.5,-1.601L301.7,-0.995L302.1,-0.739L302.2,-0.437L302.3,0.911L302.5,1.097L303.3,1.259L304.4,1.259L305.3,1.12L306.2,1.236L306.8,1.538L307.1,2.002L307.2,2.489L306.2,5.428L306.3,6.514L306.6,8.037L307.2,9.234L308.3,10.41L309.2,11.17L309.3,11.51L309.4,12.06L309.2,12.77L308.7,13.87L308.1,14.84L307.5,15.25L306.6,16.48L305.8,17.99L304.3,19.95L303.8,21.06L303.6,24.22L303.2,25.17L303.1,24.81L302.6,24.45L301.6,24.51L301,24.33L300.7,23.93L299.9,24.04L298.6,24.67L297.3,24.36L296,23.04L293.5,22.56L290.3,22.86L290.2,21.43L290.2,19.58L290.4,17.12L291.4,15.2L291.4,14.84L291.2,14.49L290.9,14.17L289,13.64L288.4,13.35L287.6,12.75L286.7,12.11L285.9,11.67L284.6,11.07L283.4,10.75L282.7,11.01L282.1,11.33L281.5,11.33L280.9,11.17L278.7,9.695L275.3,7.16L272.6,5.405L271,4.55L270.6,4.272L269.6,3.485L267.3,1.329L265.8,1.654L263.6,0.237L261.6,-1.135L261.2,-1.484L259,-4.025L256.7,-5.684L254.3,-7.487L252.7,-8.612L250.1,-10.54L248.8,-11.69L248.3,-12.11L247.9,-12.94L247.2,-16.95L246.4,-18.8L245.3,-19.82L244.3,-21.77L243.5,-24.66L242.8,-26.54L242.3,-27.41L241.2,-28.36L239.6,-29.42L238.1,-29.92L237.5,-29.9L237.3,-29.78L236.9,-29.59L236.3,-28.8L235.4,-28.72L234.8,-28.75L234.2,-29.04L232.2,-29.27L231.5,-29.54L230.4,-29.52L227.9,-29.11L227.2,-29.18L224.6,-30.93L223.5,-31.63L223.2,-32.02L223.2,-32.69L223.6,-33.65L224,-34.33L223.8,-35.05L223.3,-35.83L223.3,-36.65L223.7,-37.11L224.4,-36.96L224.6,-37.25L224.5,-37.69L224.1,-38L223.7,-38.71L222.2,-39.36L221.9,-39.63L222,-39.92L222.3,-40.26L222.3,-40.94L222.3,-41.84L222.4,-42L285,-42L285,-42L285,-41.23L285,-40.06L286.9,-40.02L288.3,-39.97L290.1,-39.92L290.3,-38.44L290.5,-36.38L290.9,-34.52L291.2,-32.95L291.6,-30.93L291.8,-29.85L292.3,-28.58L292.7,-28.29L293.4,-28.08L295.7,-28.22L297.6,-28.36L299.2,-28.46L300.8,-28.56L302.9,-28.7L303.7,-28.39L304.3,-28.6L305,-28.82L305.6,-27.91L305.9,-27.45L306.3,-26.95L306.9,-26.52L306.6,-25.56L306.3,-24.2L306.2,-23.49L306.8,-22.73L307.4,-22.3L308.7,-21.39L310,-20.89L310.8,-20.75L311.6,-20.94L311.9,-21.44L311.9,-22.15L311.5,-22.89L311.5,-23.77L311.7,-24.42L312.6,-25.59L313.4,-26.69L314.5,-27.81L315.9,-28.94L316.5,-29.75L316.8,-31.17L317.7,-31.99L318.7,-32.47L319.9,-32.91L320.2,-33.6L322,-34.81L323,-35.41L324.3,-35.78L326.1,-36.55L327.5,-37.49L328.8,-39.24L329.9,-40.38L330.8,-41.09L331.6,-41.11L332.1,-40.55L332.5,-40.5L332.8,-40.77L333.4,-41.5L333.7,-42L338.8,-42ZM194.9,-42L194.4,-41.72L193.7,-41.18L192.5,-39.38L191.7,-38.8L191,-38L191.2,-35.39L191.5,-32.35L192.1,-31.51L192.5,-31.25L192.6,-30.96L192.3,-30.69L192,-30.36L191.5,-29.75L191,-29.78L189.9,-29.92L189,-30.09L185.9,-30.26L183.5,-30.4L180.7,-30.57L180.7,-33.75L180.7,-36.94L180.7,-40.14L180.7,-42L194.9,-42ZM339,-10.98L338.5,-10.87L337.5,-10.89L337,-11.03L337.3,-12.11L337.3,-12.35L337.3,-12.37L337,-12.52L336.6,-12.96L336.5,-13.65L336.6,-14.26L336.9,-14.52L337.1,-14.47L337.7,-13.53L338.2,-13.24L339.2,-13.1L338.7,-12.16L339.1,-11.17ZM345,-11.76L344.7,-11.2L344.2,-11.34L343.8,-11.71L344,-12.02L344.5,-12.19L344.8,-12.35L345.1,-12.37ZM184.1,165.9L184.7,166.8L184.8,173.2L185,173.6L184.6,173.7L184.2,174.2L183.7,174.9L183.1,175.3L182.6,175.7L182,176.3L181.6,176.4L181,175.7L180.7,175L180.7,174.9L181,174.8L181.1,174.5L181,173.9L180.6,173.7L180.1,173.7L179.6,173.9L179.1,174.4L178.8,174.9L178.8,175.9L178.9,177L178.9,177.6L178.6,178.2L178.6,179.2L178.7,180L178.9,180.5L178.9,180.8L178.4,182.1L178.9,182.3L180.2,182.4L180.6,183.2L180.9,183.8L180.8,184.1L179.8,184.4L178.7,184.6L177.8,184.6L176.2,184.9L175.4,185.5L175.7,185.9L175.9,186.1L176.1,186.9L175.8,187.9L175.4,189L174.9,190.3L174.2,191.8L173.4,194L172.6,195.8L172.6,197L172.6,197.8L172.5,199.5L171.8,200.4L171.6,200.4L170.8,200.3L170.6,200.3L169.8,200.2L168.5,200L167,199.8L165.1,199.6L163,199.3L160.7,199L158.4,198.7L156.1,198.4L153.9,198.1L151.8,197.8L149.9,197.5L148.3,197.3L147.1,197.2L146.3,197.1L146,197L145.1,196.9L144.7,196.3L144.1,195.6L143.5,194.8L143,194.1L142.4,193.3L141.8,192.6L141.3,191.9L140.7,191.1L140.1,190.4L139.5,189.6L139,188.9L138.4,188.1L137.8,187.4L137.2,186.7L136.6,185.9L136.1,185.2L135.5,184.4L135.2,183.9L134.9,183.4L134.9,181.9L134.9,181.6L135.3,181L135.4,181.4L135.9,182L136.6,181.8L136.9,181.9L137.2,184L137.7,184.7L138.4,185L140.6,185.1L142,184.9L144.7,183.5L146.1,183L150,183.1L153.2,183.7L158.1,184L159.1,183.9L161.7,182.9L163.3,181.9L164.3,181.6L164.9,180.7L165.3,179.5L165.7,178.8L166.2,178.4L166.7,177.7L167,176.6L167.9,175.6L171.6,172.9L173.7,170.7L173.9,170L175.1,168.9L176,167.7L180.4,164.3L181.2,162.9L181.7,161.3L181.8,161.1L182.2,161.1L182.7,161.3L182.8,162.5L182.6,163.6L182.5,164.8L182.5,165.5L182.9,166L183.5,166.2L183.8,166.2ZM183.9,170.7L183.9,170.2L183.8,169.9L183.4,169.9L183.2,170.3L183.1,171L183.5,171ZM153.2,181.9L152.4,181.9L151.8,181.5L153.2,180.9L153.6,180.7L154,180.1L154.4,180.6L154,181.3L153.7,181.6ZM145.8,181.5L145.6,181.6L145.4,181L145.4,180.8L145.9,180.5L146.2,181ZM159.4,182.8L159.4,183.2L158.4,183.1L158.1,183.3L157.2,183.2L156.4,182.9L156.9,182.4L158.4,181.9L159.1,182.4ZM165,179.8L164.9,180L164.6,180L163.9,179.8L163.6,179.4L164.1,179.1L164.3,179L164.6,179.4ZM-42,410.3L-41.59,411.5L-40.21,412.4L-40.02,412.6L-39.68,413.6L-39.27,414.7L-38.94,414.9L-38.75,415L-38.34,416.1L-38.56,416.8L-38.22,418.7L-37.7,420.5L-37.59,422.6L-37.55,423.5L-37.59,424.1L-37.7,424.8L-37.96,425.3L-38.41,425.7L-38.9,426.5L-39.31,427.2L-39.57,427.6L-39.38,428.7L-39.42,429L-39.53,429.1L-40.17,429.3L-40.99,429.6L-41.48,429.9L-42,430.3L-42,410.3ZM150.9,3.647L150.8,4.272L150.2,2.396L150,0.33L150.3,-0.274L150.7,-0.228L150.3,0.516ZM222.4,-42L222.3,-41.84L222.3,-40.94L222.3,-40.26L222,-39.92L221.9,-39.63L222.2,-39.36L223.7,-38.71L224.1,-38L224.5,-37.69L224.6,-37.25L224.4,-36.96L223.7,-37.11L223.3,-36.65L223.3,-35.83L223.8,-35.05L224,-34.33L223.6,-33.65L223.2,-32.69L223.2,-32.02L223.5,-31.63L224.6,-30.93L227.2,-29.18L227.9,-29.11L230.4,-29.52L231.5,-29.54L232.2,-29.27L234.2,-29.04L234.8,-28.75L235.4,-28.72L236.3,-28.8L236.9,-29.59L237.3,-29.78L237.5,-29.9L238.1,-29.92L239.6,-29.42L241.2,-28.36L242.3,-27.41L242.8,-26.54L243.5,-24.66L244.3,-21.77L245.3,-19.82L246.4,-18.8L247.2,-16.95L247.9,-12.94L248.3,-12.11L248.8,-11.69L250.1,-10.54L252.7,-8.612L254.3,-7.487L256.7,-5.684L259,-4.025L261.2,-1.484L261.6,-1.135L263.6,0.237L265.8,1.654L267.3,1.329L269.6,3.485L270.6,4.272L271,4.55L272.6,5.405L275.3,7.16L278.7,9.695L280.9,11.17L281.5,11.33L282.1,11.33L282.7,11.01L283.4,10.75L284.6,11.07L285.9,11.67L286.7,12.11L287.6,12.75L288.4,13.35L289,13.64L290.9,14.17L291.2,14.49L291.4,14.84L291.4,15.2L290.4,17.12L290.2,19.58L290.2,21.43L290.3,22.86L289.8,22.9L288.5,22.61L286,22L283.9,20.77L282.4,19.97L282.2,20.09L281.6,20.63L281.2,21.31L280.8,22.61L280.3,24.13L277.7,24.2L275.4,24.31L274,24.9L272.6,25.69L272.2,26.64L271.9,27.86L271.1,30.66L270.4,33.2L270,34.84L269.4,35.96L267.8,37.44L266,38.42L265.1,38.89L264.6,39.47L264.6,40.03L264.2,40.19L263.5,40.1L262.7,40.19L261,40.77L259.1,41.46L256.8,42.17L255.6,42.17L255,42.32L254.8,42.68L255,43.33L255.3,43.84L255.5,44.46L254.9,44.99L254.6,45.88L254.3,47.43L253.5,47.9L252.2,48.67L250.8,49.67L250.5,49.87L249.7,50.15L248.9,50.06L248.1,49.91L247.3,50.17L246.5,50.95L246.1,50.7L246,49.93L245.5,49.42L244.2,48.27L243.1,47.48L242.7,47.41L241.7,47.63L240.4,47.79L239.4,47.61L238.6,47.28L237.3,46.17L236.9,45.55L236.5,45.1L235.7,45.21L235.4,44.7L235.4,44.13L235.6,43.39L235.6,42.03L235.1,41.08L234.5,40.63L234.6,40.34L234.8,39.67L235.1,39.07L235.1,37.88L234.7,36.61L234.6,34.77L234.7,32.95L234.2,32.05L229.9,32.05L226.1,32.12L225.9,31.92L224.4,29.62L223.2,27.89L222,26.87L219.3,25.6L218,25.08L216.9,24.11L215.9,23.06L215.7,21.61L215.5,21.13L215.3,20.75L215,20.56L214.6,20.61L211.5,18.92L210.2,18.47L209,18.83L208.5,18.9L207.4,18.42L206.3,19.06L205.8,19.11L205.1,18.95L204.5,18.72L202.9,17.17L201.5,16.55L200.6,16.14L198.7,15.57L196.7,15.25L195.7,14.99L195,14.65L194.8,14.45L194.8,13.87L194.8,13.14L194.5,12.59L194.1,11.95L193.3,11.44L192.2,11.53L190.4,11.49L189,11.01L187.9,10.91L186.6,11.01L185.5,11.01L184.8,11.37L184.3,11.79L184,13.05L183.8,13.26L183.3,13.35L182.7,13.28L181.5,13.28L179.3,13.05L176.6,13L174.5,13.64L172.9,14.56L171.3,15.59L169.5,17.23L169,17.97L167.9,20.86L167.4,21.27L166.8,21.61L166.2,21.66L164.9,22.09L163.3,22.79L162.2,23.09L159.3,22.93L159.1,22.02L158.6,18.65L158.3,15.27L158.4,13.69L158.7,10.52L158.6,8.935L158.5,7.483L158.6,6.075L158.8,4.48L159,2.836L158.8,1.7L158.2,0.795L157.3,-0.344L157.2,-1.019L157.1,-1.787L156.2,-1.857L155.4,-2.649L154.7,-3.069L153.3,-3.535L152.6,-3.559L151.9,-3.232L151.4,-2.532L151.1,-3.629L151.1,-4.773L152.2,-7.159L152.9,-6.456L153.8,-6.176L154.9,-6.129L156,-6.316L155.8,-7.135L155.3,-7.604L154.7,-7.956L154.5,-9.035L154.5,-10.16L154.8,-11.22L154.5,-11.64L154,-11.9L152.8,-11.88L151.2,-12.16L149.6,-12.28L149.3,-11.03L150.1,-9.387L149.4,-10.19L148.7,-11.27L147.7,-13.17L147.1,-15.44L147,-17.88L147.5,-19.89L148.2,-21.8L148.6,-24.23L149.2,-26.64L149.7,-25.56L150.4,-24.61L151.3,-23.7L151.8,-23.49L153.2,-23.13L154.2,-23.27L155.2,-23.8L156.1,-23.63L157,-22.63L157.7,-21.53L158.8,-21.3L161.1,-22.08L162.2,-22.27L163.1,-21.91L163.6,-21.84L164.1,-21.89L163.7,-22.89L163.5,-23.84L164,-24.35L165.8,-23.8L167,-24.18L167.3,-24.37L167.6,-24.61L167.7,-25.44L167.6,-26.3L167.5,-27.09L167.1,-27.79L166.3,-28.8L163.1,-31.15L162.1,-32.09L161.2,-33.29L160.6,-35.03L160.1,-36.82L159.7,-38.15L158.6,-41.28L158.1,-41.65L157.6,-41.81L156.3,-41.91L154.9,-41.67L152.7,-41.13L151.5,-41.3L150.9,-40.99L149.4,-39.65L148.8,-38.54L147.8,-35.97L148.5,-35.15L148.5,-34.62L148,-30.84L148.3,-29.01L148.2,-28.87L147.9,-29.3L147.1,-31.17L145.7,-33.44L144.5,-36.94L146.6,-39.22L148.4,-40.84L149.9,-41.81L150.2,-42L165.9,-42L165.9,-42L167.2,-41.09L169.1,-39.51L169.5,-38.88L169.8,-38.1L170.1,-37.35L171.6,-34.96L172.2,-33.87L173.1,-32.45L173.9,-31.75L174.6,-30.91L175.1,-30.21L175.6,-29.88L176.2,-29.73L177.6,-29.97L179.3,-30.4L180.3,-30.6L180.7,-30.57L180.7,-30.57L183.5,-30.4L185.9,-30.26L189,-30.09L189.9,-29.92L191,-29.78L191.5,-29.75L192,-30.36L192.3,-30.69L192.6,-30.96L192.5,-31.25L192.1,-31.51L191.5,-32.35L191.2,-35.39L191,-38L191.7,-38.8L192.5,-39.38L193.7,-41.18L194.4,-41.72L194.9,-42L222.4,-42ZM-42,-39.42L-39.95,-39.38L-37.29,-40.89L-35.72,-40.38L-35.87,-39.85L-36.16,-39.38L-36.05,-38.46L-35.16,-37.13L-34.26,-36.21L-31.52,-34.88L-27.78,-35.99L-27.18,-35.87L-26.4,-35.56L-25.09,-32.02L-24.04,-30.76L-22.73,-29.9L-21.65,-29.73L-20.86,-30.62L-20.22,-30.98L-18.88,-31.13L-16.63,-29.92L-15.85,-28.65L-12.07,-27.69L-8.586,-27.21L-7.089,-26.14L-2.187,-25.09L-0.353,-25.25L2.716,-26.35L8.666,-27.57L12.63,-25.87L13.72,-25.66L14.65,-25.8L15.96,-25.32L17.39,-25.59L21.76,-27.6L23.15,-28.75L24.61,-29.04L25.88,-29.73L29.32,-31.97L30.33,-33.27L30.33,-33.27L31.01,-33L32.32,-32.64L33.14,-32.21L33.59,-32.09L34.64,-32.98L36.24,-32.95L37.63,-32.83L38.34,-32.69L39.2,-32.4L40.29,-32.18L40.7,-32.62L41.34,-33.85L41.56,-34.01L41.75,-34.13L42.53,-34.23L43.28,-34.13L43.62,-33.92L43.95,-32.93L44.85,-32.57L46.42,-30.98L47.36,-30.36L47.58,-30.09L47.28,-29.78L47.4,-29.37L47.96,-28.87L48.71,-28.68L49.57,-28.75L50.02,-28.56L50.32,-28.27L50.39,-27.86L50.39,-27.6L50.54,-27L51.21,-26.18L51.96,-25.68L52.37,-25.13L53.05,-23.3L53.35,-22.27L53.23,-21.27L52.75,-20.27L51.74,-19.02L52,-18.49L52.22,-17.81L52.15,-17.29L52.86,-15.7L53.2,-14.71L52.94,-14.47L52.75,-14.16L54.06,-13.41L55.59,-12.75L56.27,-12.63L58.06,-12.94L59.22,-12.99L60.38,-12.4L62.03,-10.91L63.83,-9.011L64.2,-8.424L64.35,-8.167L64.72,-7.721L64.35,-7.721L63.75,-8.143L62.33,-9.316L61.58,-8.8L60.94,-7.932L60.27,-4.633L59.71,-4.282L58.7,-4.306L57.5,-4.399L56.68,-4.235L56.45,-4.025L56.56,-3.675L56.83,-3.139L56.98,-2.463L57.05,-1.903L57.46,-1.391L58.06,-0.902L58.1,-0.414L57.99,0.284L57.88,0.795L57.73,1.097L57.99,1.909L58.62,2.859L59.03,3.207L58.88,5.012L59.11,5.821L59.3,6.93L59.22,8.751L59.33,9.188L59.52,9.35L60.12,9.419L60.68,9.58L60.91,9.879L60.87,10.11L60.16,10.94L60.08,11.53L59.86,12.38L59.63,12.87L59,13.8L58.59,14.74L58.4,15.52L58.55,15.89L59.71,16L60.34,16.55L62.03,17.67L62.33,18.13L61.88,18.81L61.88,19.08L62.1,19.45L62.22,20.09L62.18,20.79L62.18,21.72L62.48,21.88L63.64,22.75L64.46,23.63L64.5,23.9L64.09,24.58L64.2,25.38L64.16,25.56L63.83,25.26L63.19,25.15L62.52,25.13L62.1,25.35L61.35,25.96L60.38,26.64L59.6,27.27L59.15,27.7L58.77,27.64L58.47,27.25L58.32,26.73L58.36,24.76L58.21,24.15L57.84,23.72L57.39,23.47L56.9,23.34L56.34,23.31L55.59,23.9L54.51,24.49L52.86,24.45L51.74,24.33L51.18,24.22L49.01,23.31L48.56,23.29L47.73,22.9L46.8,22.61L45.15,23.18L44.44,23.04L43.47,22.56L43.13,22.7L42.05,24.15L40.17,25.74L39.16,25.99L38.68,24.42L38.23,23.81L38,23.72L37.52,23.54L37.18,23.65L36.06,24.72L34.26,25.38L32.77,25.76L30.37,26.26L28.57,26.48L27.79,26.51L26.1,26.3L24.61,25.99L23.11,26.01L21.99,26.14L19.33,27.3L14.8,29.67L11.36,30.82L9.451,31.29L7.955,31.54L5.372,31.56L3.277,31.38L1.817,31.4L0.994,31.11L-0.129,30.16L-1.551,29.19L-2.149,28.99L-2.973,28.79L-4.17,28.7L-7.126,30.07L-8.062,30.46L-9.072,30.75L-11.09,31.58L-12.03,32.05L-13.15,32.01L-14.61,31.87L-15.85,31.92L-16.71,31.27L-17.16,30.55L-18.88,30.1L-20.11,29.98L-20.41,30.3L-20.75,31.29L-21.27,33.81L-21.35,34.46L-20.26,36.95L-20.34,37.33L-21.09,37.46L-21.98,37.5L-22.58,37.73L-23.03,38.13L-23.33,40.3L-24.34,40.7L-24.86,41.14L-25.35,42.48L-25.61,42.5L-27.3,41.5L-28.05,41.41L-27.41,40.36L-28.12,38.29L-28.91,36.36L-28.16,35.11L-26.62,33.6L-24.98,31.83L-24.98,30.75L-25.09,29.91L-25.54,29.35L-26.44,28.59L-27.93,29.4L-29.02,30.3L-29.69,30.48L-30.48,31L-30.85,31.92L-31.75,32.64L-33.25,32.93L-35.49,32.14L-37.92,30.97L-39.31,30.03L-40.43,29.8L-41.48,30.21L-42,30.6L-42,-39.42ZM-42,455.6L-41.93,455.7L-39.72,456.9L-37.51,458.1L-35.3,459.4L-33.06,460.6L-30.85,461.9L-28.64,463.1L-26.44,464.3L-24.23,465.6L-21.98,466.8L-19.77,468.1L-17.57,469.3L-15.36,470.5L-13.11,471.8L-10.91,473L-9.858,473.6L-9.708,473.9L-9.521,475L-9.409,475.7L-9.446,476.3L-10.04,477.4L-10.23,477.9L-10.23,478.3L-10.08,478.4L-9.596,478.5L-9.147,478.8L-8.997,479L-8.661,479.7L-8.249,480.1L-7.313,480.8L-5.742,482L-5.705,482L-42,482ZM303.2,25.17L303.6,24.22L303.8,21.06L304.3,19.95L305.8,17.99L306.6,16.48L307.5,15.25L308.1,14.84L308.7,13.87L309.2,12.77L309.4,12.06L309.3,11.51L309.2,11.17L308.3,10.41L307.2,9.234L306.6,8.037L306.3,6.514L306.2,5.428L307.2,2.489L307.1,2.002L306.8,1.538L306.2,1.236L305.3,1.12L304.4,1.259L303.3,1.259L302.5,1.097L302.3,0.911L302.2,-0.437L302.1,-0.739L301.7,-0.995L299.5,-1.601L299,-1.88L298.9,-2.206L299.7,-5.217L300.1,-5.45L300.4,-5.942L300.9,-6.456L302.8,-7.323L304.7,-6.948L306.5,-6.55L308.2,-6.339L308.8,-6.199L309.8,-6.082L310.5,-6.176L311,-6.527L311.8,-7.51L312,-8.964L312.3,-10.26L312.8,-10.37L313.3,-10.23L313.6,-10.49L313.7,-10.84L313.8,-11.15L314,-11.22L314.3,-10.87L314.5,-10.96L314.7,-11.2L314.7,-11.46L314.3,-11.9L313.9,-12.63L313.9,-12.87L314.1,-13.13L315.1,-13.36L315.6,-13.41L315.8,-13.67L315.7,-14.07L315.3,-14.31L313.8,-14.16L312.3,-14.19L312.2,-14.45L312.2,-14.71L312.5,-14.92L315.6,-15.46L317.2,-15.28L318.4,-14.99L318.9,-15.13L318.4,-16.36L319.2,-16.48L319.2,-16.91L318.2,-20.16L318.8,-20.46L319.3,-21.11L319.3,-22.32L319.8,-22.91L320.4,-23.32L321.2,-22.91L322.6,-21.7L323,-21.46L323.5,-21.41L324.1,-21.77L326.5,-22.96L327.9,-23.65L329.5,-24.63L329.8,-25.01L330.3,-26.5L330.6,-26.59L331.1,-26.45L332.5,-24.89L333.3,-23.92L333.3,-23.58L333.1,-23.32L333.1,-23.08L334.3,-22.53L334.3,-22.3L334,-21.82L333.9,-21.56L333.7,-21.46L332.2,-20.11L330.5,-18.61L330.4,-18.42L330.3,-18.04L330.3,-17.66L330.6,-17.36L331.4,-17.14L332,-16.86L332.4,-16.08L332.7,-15.35L333.3,-15.18L335.8,-15.63L336.4,-15.7L336.5,-15.44L336.3,-14.99L334.2,-14.24L333.2,-13.57L333,-12.42L332.7,-12.09L332.2,-11.83L331.8,-11.76L331.2,-13.1L330.4,-13.39L329.3,-13.86L327.2,-14.8L326.1,-15.2L324.1,-14.59L321.6,-13.76L321.2,-13.27L320.9,-12.73L321,-12.33L321.1,-11.79L321,-11.36L320.6,-11.22L319.9,-11.74L319.3,-12.02L319,-11.34L318.6,-10.09L318.5,-9.199L319,-7.932L319.2,-6.012L320.2,-6.129L320.9,-6.129L322.3,-6.69L323,-6.69L324.1,-6.456L326,-6.41L327.5,-6.503L327.9,-6.456L328.2,-6.831L328.7,-6.69L329,-6.269L330.6,-6.784L331.7,-6.854L332.4,-6.714L332.8,-6.55L333.5,-5.31L334.1,-4.516L334.8,-4.259L336.9,-4.492L337.6,-5.591L338.1,-5.871L339,-5.942L339.7,-6.152L340.3,-6.62L341.1,-6.995L341.8,-7.089L342.1,-6.784L342.2,-6.41L342.1,-5.918L342.1,-5.404L342.5,-5.053L343.9,-4.983L344.5,-4.656L344.5,-4.049L344.4,-3.092L345,-2.696L345.2,-2.672L347.2,-3.675L347.7,-3.699L348.2,-3.139L348.8,-2.463L349.6,-1.764L349.9,-1.857L350.2,-2.649L351,-3.489L352.3,-3.769L353.1,-4.025L353.9,-4.142L356.3,-3.815L357.1,-3.769L358.8,-3.839L360.1,-4.002L361.1,-4.516L361.7,-4.913L362.6,-5.147L363.6,-5.123L364.2,-5.006L364.3,-4.306L364.1,-2.975L364,-2.043L364.8,-0.367L365.4,0.423L365.9,1.004L366,1.445L365.9,1.816L365.3,2.164L365,2.558L364.9,2.975L365.1,3.462L365.5,5.035L366,6.26L366.7,6.86L367.8,7.253L368.3,7.16L368.7,6.237L369.4,5.544L370,5.59L370.9,5.567L373.4,6.353L375.8,7.552L376.5,8.221L376.7,8.958L376.1,10.68L376.1,11.76L376.3,12.93L376.8,13.8L377.3,15.29L377.4,16.5L377.6,16.87L377.8,17.3L377.5,18.42L377.3,19.56L377.6,19.93L378.3,20.5L379.5,21.52L379.7,22.38L379.3,22.93L378.5,23.59L377.6,24.15L377.3,24.4L377.2,24.27L376.7,23.68L375.7,22.75L374.9,22.27L373.5,22.43L372.7,22.25L371.7,21.95L370.8,22L370.2,22.54L369.8,23.11L368.8,23.29L367.5,23.72L365.4,24.4L364.5,24.29L364.2,23.99L364.4,23.61L365.1,23.11L365.3,22.52L365.1,21.95L364.5,21.79L364.2,21.7L363.9,21.59L362.7,21.25L361.6,21.38L359.9,22.09L356.6,23.93L355.2,25.17L354.1,27.03L351,27.64L348.9,28.7L346.7,30.46L345.2,31.38L344.5,31.51L343.8,31.36L343.1,30.88L342.4,29.42L341.8,27.21L341.4,25.76L341.6,23.86L341.9,21.72L342.1,19.54L342.5,17.01L342.9,16.09L342.9,15.5L342.6,15.2L341.9,15.2L340.9,15.54L340.2,15.61L339.8,15.38L339.8,14.19L340.3,12.06L339.5,10.25L337.4,8.774L335.6,8.267L334.1,8.728L332.9,9.879L331.9,11.76L330.8,13.32L329.7,14.52L329,15.09L328.7,15.32L328.5,15.82L329.1,17.39L329.1,18.72L328.4,19.81L327.7,20.31L326.9,20.27L326.3,20.02L325.9,19.56L324.6,19.45L322.6,19.65L321.2,20.18L320.5,21.06L320.2,22.2L320.5,23.61L320.4,24.7L319.8,25.46L319.2,25.89L318.9,26.01L318,25.35L316.6,23.95L315.7,23.18L315.1,23.06L314.9,23.13L314.6,23.29L314.4,23.47L314.3,23.88L313.8,24.04L313.2,23.93L312.6,24.04L312.3,24.49L311.4,25.01L309.7,25.62L308.8,26.26L308.6,26.94L308.4,27.25L307.9,27.14L306.4,28.07L305.3,27.77L304,26.57L303.2,25.58ZM333.3,-25.25L333,-25.2L332.4,-25.87L332.2,-26.33L332.4,-26.45L332.9,-26.14L333.2,-25.59ZM333.8,-10.07L332.8,-9.551L332.3,-9.621L331.9,-10.12L331.6,-10.59L331.5,-10.87L331.7,-10.84L332.4,-10.63L333.4,-10.49L333.7,-10.35ZM-28.05,41.41L-27.3,41.5L-25.61,42.5L-25.35,42.48L-24.86,41.14L-24.34,40.7L-23.33,40.3L-23.03,38.13L-22.58,37.73L-21.98,37.5L-21.09,37.46L-20.34,37.33L-20.26,36.95L-21.35,34.46L-21.27,33.81L-20.75,31.29L-20.41,30.3L-20.11,29.98L-18.88,30.1L-17.16,30.55L-16.71,31.27L-15.85,31.92L-14.61,31.87L-13.15,32.01L-12.03,32.05L-11.09,31.58L-9.072,30.75L-8.062,30.46L-7.126,30.07L-4.17,28.7L-2.973,28.79L-2.149,28.99L-1.551,29.19L-0.129,30.16L0.994,31.11L1.817,31.4L3.277,31.38L5.372,31.56L7.955,31.54L9.451,31.29L11.36,30.82L14.8,29.67L19.33,27.3L21.99,26.14L23.11,26.01L24.61,25.99L26.1,26.3L27.79,26.51L28.57,26.48L30.37,26.26L32.77,25.76L34.26,25.38L36.06,24.72L37.18,23.65L37.52,23.54L38,23.72L38.23,23.81L38.68,24.42L39.16,25.99L39.16,26.17L39.05,26.62L37.89,27.91L36.28,29.67L35.16,30.77L33.21,32.64L31.79,33.04L29.36,33.72L28.72,34.37L28.09,35.4L27.75,36.83L27.64,37.73L27.56,39.4L28.16,41.12L28.69,42.79L28.76,43.88L28.72,44.95L28.2,46.1L27.6,47.67L27.26,49.45L27.11,52.76L27.11,55.57L27.04,56.03L26.07,58.01L24.91,60.33L24.34,60.86L21.8,61.56L19.03,63.24L15.89,65.13L13.08,66.83L10.13,68.63L7.019,70.48L4.811,71.8L1.892,73.57L-0.802,75.26L-3.496,76.96L-5.592,78.25L-8.698,80.29L-10.53,81.5L-13.26,83.25L-15.62,84.79L-18.43,86.61L-21.95,86.08L-23.07,85.76L-24,84.9L-24.68,84.43L-26.32,83.96L-27.41,82.31L-28.05,81.73L-29.17,81.47L-29.02,80.89L-28.42,79.89L-27.86,78.81L-28.16,78.21L-28.27,77.71L-28.31,77.09L-27.93,76.51L-28.12,75.8L-28.42,75.08L-28.64,74.74L-28.64,74.09L-28.49,73.59L-28.31,72.82L-27.82,72.41L-27.71,71.97L-27.3,71.54L-26.7,71.19L-26.59,70.91L-26.66,70.76L-27.22,70.44L-27.56,69.89L-27.26,69.07L-27.07,68.83L-26.73,68.44L-25.99,67.83L-25.39,67.74L-24.86,67.74L-24,67.79L-23.33,67.9L-23.14,67.74L-23.18,67.55L-24,67.05L-24.04,66.66L-23.85,66.24L-23.25,65.59L-22.54,65.09L-22.21,65L-21.38,64.04L-20.86,62.95L-21.68,60.29L-22.21,59.87L-23.03,59.5L-23.52,59.43L-23.55,59.26L-22.92,58.6L-22.43,58.01L-22.96,57.44L-23.85,57.18L-24.19,57.77L-25.39,57.81L-27.18,57.81L-28.01,54.98L-28.12,53.77L-28.08,52.34L-27.52,50.26L-27.78,49.31L-27.82,48.65L-27.97,47.76L-29.39,45.84L-28.61,42.28ZM-42,371.1L-41.89,371.3L-41.1,371.9L-40.36,372.5L-39.95,373.5L-39.01,376.3L-38.41,377.8L-37.77,379L-37.51,380.9L-37.03,381.8L-36.5,382.9L-35.64,383.8L-34.71,384.6L-34.56,384.8L-36.47,386.6L-38.6,388.7L-41.07,391.2L-42,392.1L-42,371.1ZM-42,207.5L-41.78,207.5L-38.34,207.5L-34.93,207.5L-31.52,207.5L-28.12,207.5L-24.71,207.5L-21.31,207.5L-17.9,207.4L-17.75,210L-17.3,212L-15.7,214.9L-14.35,216.5L-13.86,217.4L-13.82,217.8L-13.86,218.1L-14.27,217.7L-14.98,217.4L-15.1,218.8L-14.91,219.7L-14.76,221.6L-14.2,223.5L-14.61,225.3L-14.54,228.3L-13.82,232L-13.97,234.3L-12.78,239.7L-11.65,242.7L-11.02,243.4L-10.31,243.8L-8.96,244.1L-6.977,245.6L-5.368,247.2L-4.806,248L-4.058,248.9L-3.534,248.8L-3.197,248.5L-2.711,249.3L-0.203,250.9L0.171,251.6L-0.727,252.3L-1.775,253.6L-2.037,254.1L-2.149,254.4L-2.262,254.8L-2.561,255.1L-3.16,255.6L-3.384,255.9L-3.534,256.2L-3.871,256.4L-4.282,256.4L-4.619,256.6L-5.143,256.8L-5.891,256.7L-6.677,256.9L-6.977,257.2L-7.575,257.4L-8.212,257.5L-8.399,257.6L-8.997,258L-9.708,258.6L-10.57,258.9L-10.87,259L-11.24,259.4L-11.84,261.4L-12.29,261.9L-13,261.9L-13.97,261.9L-14.8,262.1L-15.92,261.9L-16.44,261.9L-16.59,262.3L-16.82,264L-16.78,264.7L-17.23,265.6L-17.72,266.6L-17.53,268.4L-17.45,270.2L-18.35,272.9L-18.5,273.5L-19.4,275.6L-19.89,276.4L-21.05,280.3L-21.53,281.5L-22.51,282.8L-22.28,284.8L-22.06,287L-21.83,289.1L-21.5,292.2L-22.32,295.1L-22.28,296.6L-22.88,298.9L-23.33,300L-23.74,300.6L-24.12,301.3L-24.75,302.7L-25.28,304.6L-25.54,306.6L-25.54,307.7L-25.65,308.2L-25.84,308.5L-27.07,308.7L-28.79,309L-29.73,309.2L-30.36,309.6L-31.15,310.5L-32.65,313.1L-33.47,314.6L-34.71,316.7L-36.16,318.2L-36.47,318.9L-36.73,320.3L-37.25,322.4L-37.74,323.9L-37.66,325.2L-38.11,327.3L-38.04,328.3L-38.56,328.9L-39.23,329.4L-39.72,329.6L-40.73,328.9L-41.48,328.3L-41.78,328.1L-42,328.3L-42,207.5ZM30.56,459.6L30.63,458.7L30.45,458.3L29.47,457L27.64,454.6L26.22,452.8L24.79,451L24.79,449.5L24.79,445.1L24.76,436.4L24.72,427.6L24.68,418.8L24.68,414.4L24.64,412.7L24.79,412.4L26.44,410.8L28.57,408.6L31.42,404.6L32.95,402.4L34.22,400.5L34.56,400L35.68,398.9L37.78,398.2L39.13,398.1L43.66,397.3L44.33,396.9L44.74,396.5L45.11,395.7L45.98,394.4L47.13,393.6L49.3,392.5L51.4,391.5L51.89,391.4L54.43,390.8L55.07,390.6L56.12,390.4L56.49,390.4L60.05,390.6L62.81,390.8L65.7,390.9L66,390.8L67.98,388.6L71.16,385.1L73.18,382.9L76.32,379.5L78.72,377L81.41,374.2L84,371.7L87.1,368.7L89.05,366.8L92.12,363.8L95,361L97.58,358.5L99.11,356.2L100.6,353.8L102.3,351.4L104.2,348.4L106,345.5L107.5,343.2L107.5,342L107.5,339.5L107.5,337.7L107.5,332.9L107.5,329.9L107.5,327.1L107.5,324.1L108.8,324L112.2,323.3L114.9,322.1L119.7,321.3L123.4,319.2L124.1,318.1L125.2,316.9L126.8,316.4L131,317.9L131.6,318.1L131.4,319L131.3,319.9L130.4,321.5L129.8,323.3L130.2,326.1L130.4,330.5L130.3,331.2L130.1,331.8L129.9,332.3L129.5,332.5L129.3,332.8L129.6,332.9L130.9,332.4L130.9,331.9L131,331.6L132,332.2L132.8,332.4L133,333L133,333.4L131.8,333.2L131.1,332.9L129.3,333.4L128.3,333.9L127.9,334.8L127.7,338.3L127.3,340.5L127.1,343.5L125.7,345.4L125.2,346.8L123.1,349.6L121.9,352L121.6,353.2L119.7,356.4L117,358.9L116.1,362.1L115.2,364.1L114.1,365.9L111.8,369.1L110.6,371.3L109.1,375.2L108.7,377.6L104.5,384.7L100.2,390.4L97.54,395.1L92.71,400.7L86.13,407.8L77.52,416.2L75.2,417.9L65.77,423.1L59.67,427.5L56.56,430.4L53.27,433L50.69,435.5L42.83,443.8L42.01,444.5L41.26,445.3L40.25,446.7L39.58,447.2L37.7,449.6L36.55,450.8L35.2,452L34.67,452.9L34.26,453.9L33.81,454.4L32.65,456.8L31.61,458.3ZM-17.57,169L-17.83,169L-18.58,168.2L-18.99,167.6L-19.44,167.3L-21.42,166.5L-21.72,166L-21.38,165.5L-21.2,166L-20.82,166.3L-19.18,167L-17.34,168.5L-17.01,168.6ZM35.31,265.7L36.1,265.7L35.76,265.4L35.68,265.2L36.06,264.7L37.18,265.7L37.14,266.9L37.07,267.2L36.77,267L36.55,266.7L36.47,266.4L36.17,266.1L35.05,266.3L34.37,266L33.36,265L33.1,264.2L33.51,264.1L33.96,263.7L34.22,263.1L33.96,262.5L34.56,262.6L34.9,263.2L34.94,264.7L35.05,265L34.86,265.3ZM139.2,240.7L136.7,241.1L134.3,241.4L131.7,241.8L128.5,242.3L125.9,242.6L122.3,243.2L119,243.6L115.9,244L112.8,244.5L110.2,244.9L108.6,245.3L106.8,246.2L103.9,247.7L101.1,249.2L99.6,249.9L98.03,251.9L97.24,252.9L95.78,254.7L94.7,256.1L93.42,257.7L92.86,259.1L92,261.3L91.25,261.9L90.02,262.6L88.9,263.1L87.14,263.1L86.17,261.7L85.08,260.3L84.56,259.7L84.11,259.6L82.35,259.8L80.22,260.1L77.75,259.8L74.86,259.5L72.17,259.3L70.82,259.1L69.06,258.1L68.61,258L68.13,257.9L66.07,257.9L63.98,257.9L61.88,258.2L59.9,258.1L57.84,258.2L57.09,258.6L56.3,258.6L55.78,258.9L55.37,259L54.81,258.8L54.17,258.8L53.23,258.6L52.6,258L52.04,257.4L51.44,257.1L50.77,257L50.17,256.9L49.42,257.3L48.97,257.6L47.81,258.7L47.77,259L48.3,259.7L48.11,260L47.43,260.3L47.25,261.3L47.13,261.9L47.02,263.2L47.32,264.2L47.73,264.6L47.77,265.1L47.55,265.9L46.91,266.2L46.46,267.1L46.16,267.4L45.67,267.9L43.73,269.4L43.62,268.5L43.02,267.2L42.98,266.3L42.68,265.4L42.16,264.7L41.19,264L41.07,263L40.36,262L39.43,261.2L38.87,259.8L38.49,257.8L35.98,255.3L32.84,252.9L31.87,251.6L30.3,248.9L29.51,246.7L27.41,244.2L27.34,243.3L27,242.1L26.52,240.8L26.25,239.8L24.12,235.3L23.45,234.6L22.85,233.6L22.7,232.8L22.51,232.4L21.05,231.6L19.63,229.7L15.48,226.7L13.42,226.4L11.81,225.4L10.61,223.9L9.339,221.5L7.094,218.9L5.223,215.1L5.821,213.7L5.784,212.8L5.185,211.2L4.549,209.9L4.1,208.7L4.474,207L4.587,205.1L4.961,204.1L5.223,203L4.886,200.7L4.25,199.6L4.325,198.7L3.614,198.4L3.015,197.5L3.614,197.5L2.528,196.3L2.117,195.6L1.705,194L1.181,192.7L-0.503,189.8L-1.326,188.1L-3.16,185.8L-5.143,184.2L-6.378,183.4L-6.977,182.7L-8.024,182.7L-9.147,181.7L-9.933,181.7L-10.91,181.5L-12.07,179.6L-13.04,177.8L-14.69,175.5L-14.27,174.8L-13.79,173.8L-14.01,172.5L-14.27,171.7L-14.98,170.1L-17.38,166L-18.02,165.4L-19.03,164.8L-19.63,163L-19.93,161.4L-21.57,160.7L-24.34,155L-25.99,153L-26.62,151.7L-28.49,149.4L-29.39,147.2L-31.3,145.2L-32.95,141.7L-35.45,138.1L-36.54,137.5L-39.12,137.3L-40.24,137L-41.26,137.8L-41.33,136.8L-40.62,135.4L-39.65,132.6L-39.42,130L-37.85,122.5L-35.64,122.9L-33.81,123.2L-31.15,123.7L-28.38,124.2L-26.77,124.5L-26.25,124.3L-24,122.5L-21.98,120.8L-20.79,118.8L-19.63,116.8L-19.1,116.4L-17.3,116L-14.46,115.4L-11.65,114.8L-11.47,114.6L-10.79,113L-9.97,111L-9.783,110.8L-9.596,110.6L-7.575,109.4L-6.378,108.7L-8.099,106.7L-9.746,104.8L-11.58,102.6L-13.11,100.9L-15.47,98.4L-16.97,96.73L-14.31,95.94L-11.43,95.1L-8.511,94.23L-4.993,93.19L-2.262,92.38L1.855,91.17L3.838,90.58L4.212,90.43L5.747,88.98L8.067,89.38L11.55,90L14.91,90.58L18.47,91.26L19.63,91.83L23.04,93.87L25.28,95.2L27.86,96.77L31.12,98.69L33.33,100L36.21,101.7L38.42,103.7L41.26,106.1L44.33,108.8L46.87,110.9L50.39,113.8L53.87,116.6L57.24,119.3L59.97,121.5L63.38,124.3L63.67,124.4L67.12,124.7L71.8,125.2L76.47,125.6L80.7,126L82.54,125.6L84.52,125.8L87.21,126.2L88.82,126.4L91.89,126.8L92.83,128.6L93.16,129.9L93.46,131.1L94.36,132.2L96.46,132.2L98.29,132.2L100.6,132.2L102.4,132.1L103,133.3L103.2,134.4L104.3,137L105.8,139L106.2,139.8L106.4,140.9L106.2,141.3L106.1,141.8L107.2,142.9L109.1,143.8L109.8,144.1L110.6,144.5L110,145.1L111.1,146.6L112.4,148.1L113.8,148.5L115.7,150.8L118.4,152.3L120.1,154.2L120,154.2L119.5,154L118.9,153.8L118.7,154L118.7,154.8L118.9,155.8L119.7,156.6L120.5,157.2L120.8,158.3L120.2,160.7L120,160.7L119.6,160.5L119.1,160.5L118.9,160.6L119.4,162.3L119.9,163.7L120.6,164.7L121.1,166.2L121.5,166.9L123.3,168.5L123.8,169.9L124.4,172.4L125.5,173.8L126.1,174.9L127,175.8L127.5,177.1L128.2,178L128.6,178.3L129.2,178.4L129.9,178.4L130.8,178.1L131.7,177.9L132.5,178.4L133.2,178.3L133.3,178.8L132.8,179.4L132.2,180.9L133.1,181.2L133.9,181.3L134.6,181.6L134.9,181.6L134.9,181.9L134.9,183.4L135.2,183.9L135.5,184.4L136.1,185.2L136.6,185.9L137.2,186.7L137.8,187.4L138.4,188.1L139,188.9L139.5,189.6L140.1,190.4L140.7,191.1L141.3,191.9L141.8,192.6L142.4,193.3L143,194.1L143.5,194.8L144.1,195.6L144.7,196.3L145.1,196.9L146,197L146.3,197.1L147.1,197.2L148.3,197.3L149.9,197.5L151.8,197.8L153.9,198.1L156.1,198.4L158.4,198.7L160.7,199L163,199.3L165.1,199.6L167,199.8L168.5,200L169.8,200.2L170.6,200.3L170.8,200.3L171.6,200.4L171.8,200.4L172.5,199.5L173.2,200.8L173.9,201.8L174.7,203.3L175.7,204.8L176.6,206.3L177.2,207.4L176.9,208.5L176.5,209.8L176.1,211L175.7,212.2L175.3,213.5L175,214.7L174.6,216L174.2,217.2L173.8,218.4L173.4,219.6L173.1,220.9L172.7,222.1L172.3,223.3L171.9,224.6L171.5,225.8L171.2,227L170.8,228.2L170.3,229.7L169.2,230.1L167.4,230.7L165.6,231.4L163.9,232L162.1,232.7L160.3,233.3L158.5,233.9L156.7,234.6L154.9,235.2L153.1,235.8L151.3,236.4L149.6,237.1L147.8,237.7L146,238.3L144.2,239L142.4,239.6L140.6,240.2ZM-20.75,165.2L-20.86,165.4L-21.31,164.9L-21.27,164.1L-20.9,163.6L-20.93,164.2L-20.75,164.9ZM100.5,-42L100.9,-41.11L101.8,-39.34L102.2,-38.92L102.7,-38.66L103.8,-37.83L103.2,-36.91L102.3,-35.29L101.8,-34.45L100.9,-33.65L99.26,-32.81L98.36,-32.45L97.43,-30.72L96.34,-29.06L95.63,-28.87L93.54,-29.13L92.83,-29.27L90.69,-30.02L90.09,-30.48L89.53,-32.42L88.9,-33.24L88.07,-33.8L87.51,-34.26L87.29,-34.71L86.69,-35.39L85.57,-36.41L84.78,-37.37L84.18,-37.64L83.4,-37.3L82.95,-37.2L82.76,-37.37L82.61,-38.17L81.49,-38.46L81.26,-38.66L79.8,-39.43L79.2,-39.85L78.68,-39.9L77.52,-40.11L76.51,-40.5L76.06,-40.99L75.39,-41.52L74.55,-42L100.5,-42ZM131.7,177.9L130.8,178.1L129.9,178.4L129.2,178.4L128.6,178.3L128.2,178L127.5,177.1L127,175.8L127.3,175.1L127.4,174.7L126.7,171.4L126.4,168.8L126.5,168.3L126.9,167.7L127.6,166.4L128,165.1L129,162.1L130.1,160.9L131.7,160.1L133,161.7L134.6,163L134.9,164.4L134.4,165.6L134,167.4L134.3,168.2L134.4,168.9L134.8,170.1L135.2,171.7L135.3,172.8L135.1,173.8L134.5,174.6L133.4,177.2L133.1,177.5ZM396.8,44.68L397.3,45.84L398,47.56L398.5,48.69L399,49.98L399.3,50.62L399.8,51.72L399.6,52.32L399.2,53.22L398.1,53.88L397,54.39L396.7,54.65L396.6,55.05L396.1,55.81L395,56.45L394.1,56.39L393.6,56.21L390.6,57.33L389.3,57.29L388.2,58.01L387.4,58.67L385.8,59.39L384.8,59.41L383.1,58.97L381.2,58.16L380.4,57.68L379.7,57.7L377.9,57.59L376.3,57.2L374.2,56.72L373.2,56.5L371.2,56.08L369.9,56.65L368.6,57.15L367.6,57.51L366.8,59.06L366.5,59.63L366.1,60.42L365.9,60.97L366.1,61.64L367.3,62.1L367.8,62.76L367.8,63.33L367.4,63.91L367.1,64.37L367.1,64.78L367.2,65.18L367.5,65.48L369.2,65.68L370.2,65.68L370.6,65.85L370.7,66.4L370.3,67.14L368.9,67.74L368.1,68.37L367.8,69.22L367.8,69.87L368.1,70.33L368.8,70.83L369.4,71.41L369.6,71.89L369.5,72.53L369.3,73.42L368.6,74.46L368,75.19L367.9,75.45L368.1,75.84L368.5,76.42L369.4,77.26L370.4,77.93L371,78.12L371.2,78.29L371.4,79.09L371.5,79.91L371.2,80.53L371.7,81.05L373.1,81.02L374.2,81.24L374.6,81.02L374.9,81.19L374.8,83.04L374.9,84.13L375.2,84.45L376.3,84.9L378.3,84.84L379.6,85.35L380.9,85.95L381.6,86.61L381.9,87.08L381.8,87.87L381.1,88.79L379.9,89.23L379.2,89.42L375.7,91.15L374.6,91.87L373.8,92.74L373.5,93.4L373.4,94.04L374.1,96.33L374.2,97.05L373.6,99.54L373.5,100.4L373.7,101.1L374.4,101.3L374.6,101.9L374.6,102.3L373.3,103.2L372,104L371.6,104L370.3,105.5L368.1,108.5L367,109.5L366.9,110L366.8,110.5L367.3,111.4L367.4,112.1L366.9,112.8L366.1,113.7L364.5,114.4L362.5,115.1L361.6,115.6L361,117.5L360.4,119.4L360.1,120.2L359,122.4L357.1,125.7L356.6,126.4L353.8,127.9L350.8,129.7L350.3,130.3L349.7,131.9L349.1,133.6L348.6,134.5L346.7,136.4L346.1,138L345.9,139L344.3,139.5L342.5,140.1L339.9,140.3L338.8,140.5L335.6,141.9L334.8,142L334.2,141.7L333.7,141.3L333.2,140.5L333,139.3L332.4,138.7L331.5,138.3L330.7,138.3L329.8,138.8L329,139.3L328.5,139.8L328,140.3L327,142.1L325.4,144.7L323.6,146.6L323,147.2L322.6,147.6L322,148.2L321.7,148.8L321.2,150.8L321,152.5L321.1,152.9L321.4,153.3L322.3,153.8L323.7,154.6L325.6,155.1L327.1,155.2L327.7,155.5L328,156L328.1,156.4L328,157.8L327.9,159.4L327.3,161L327.3,162L327.5,162.9L329.2,165.3L329.9,165.5L331.1,165.6L331.7,165.5L332.4,165.3L332.9,165.4L333.2,165.7L333.3,166.2L333.3,168.5L333.8,169.6L334.8,171L335.6,172.7L336.4,174.6L337.1,176.2L337.4,177L336.9,177.4L336.6,177.8L336.6,178.3L336.7,178.9L336.6,179.3L336.9,179.8L337.3,179.9L337.3,180.3L336.7,180.7L336.1,180.7L335.7,180.9L334.8,181.8L334.5,182L333.9,182.1L333.3,182L332.5,181.6L332.2,181.1L332.4,180.4L332.2,180.1L331.6,180.1L329.5,180.8L327.5,181.5L327.2,182.1L326.7,182.6L325.8,182.9L324.5,182.9L323.5,182.9L322.7,182.3L321.9,181.7L320.7,181.7L318.5,181.8L317.3,181.8L316.6,181.6L315.9,181.7L315,181.5L314.7,181.8L314.3,181.8L314,181.3L313.8,181.2L313.6,181.3L313.4,181.5L313.2,181.8L313.2,185.2L311.8,185.2L310.8,185.2L309.6,185.4L308.6,185.6L308.1,186L307.4,186.4L307.3,187.1L306.9,187.6L306.4,186.9L306.1,186.5L305.7,186.8L305.2,186.8L304.2,185.9L303.8,186.8L302.2,187L302.1,186.3L302,185.7L301.2,186.2L300.5,185.5L300.3,184.6L300,184.4L299.7,184.1L299.1,183.8L298.5,182.8L298.5,181.8L298.3,180.6L297.1,176.2L296.3,175.8L292.2,175L292,174.2L292.3,172.1L292.2,170.8L290.8,169L290.4,167.8L289.4,166.8L288.3,166.5L287.2,166.6L286.6,167L286.3,167.7L288.6,167.6L289.1,167.8L289.8,168.3L289.1,168.3L288.3,168L287.3,168.1L283.7,168.6L281.6,169.3L278.7,169.1L275.1,169.8L272.2,169.9L271,171.3L270.3,171L269.8,170.7L265.7,169.6L265.4,169.1L264.7,168.8L264,169.4L263.4,169.5L261.2,169L259.5,169.3L258.9,170L258.8,171L256.7,170.8L255.5,170.5L253.9,170.8L250.2,170.4L249.3,170.5L247.9,171.1L247.4,171.7L246.6,171.9L245.9,171.1L245.4,170.8L244.9,171L244.2,171.6L242.4,171.9L240.6,171.8L238.8,171.3L239,171.1L239.3,170.1L239.6,166.7L239.9,165.4L239.8,164.8L239.9,164.6L240.6,163.9L240.8,163.7L241.1,161.9L241.4,160L241.7,159.3L242,159.1L244.2,158.2L244.6,157.6L245.8,157.7L245.9,157.6L246,156.9L246.6,156.2L247.3,155.6L247.9,155.4L249.9,155L251.1,154.5L251.5,154.4L254.7,154.5L255.3,154.3L255.5,154.2L255.6,152.2L256.2,151.8L256.3,151.7L256.1,150.3L256.2,149.4L256.9,148.8L256.8,148.5L256.4,147.8L255.8,147.4L255.5,147.3L252.8,147.7L251.8,147.6L251.2,147.3L251.2,147.2L251.2,146.7L251.3,146.1L251.6,145.1L251.8,144.4L251.5,140.9L251,138.5L251.2,136.2L251.2,135.7L251.1,135.6L250.8,135.6L249.2,135.8L247.8,134.3L247,133.6L244.7,132.9L243.7,132.8L242.2,132.1L240.8,130.7L239.4,129.2L238.8,128.3L238.2,126.6L236.4,123.6L236.4,122.8L236.2,122.3L234.5,120.3L233.3,118.8L231.3,116.5L235.3,117.8L238.4,118.8L243.3,120.4L247.2,121.6L248.3,121.8L259.6,120.8L263.8,121.6L265.2,122.1L265.3,121.8L265.9,121.2L266.9,120.7L268.2,120.2L269.5,120L271.4,120L272.7,120L273.6,120.1L275.5,120L276.4,119.8L279.4,118.9L281.4,118.3L284.5,117.4L286.7,116.7L287.3,116.4L287.9,115.7L288.2,115.1L287.5,114.2L287.4,113.5L287.8,112.5L288.1,110.9L288,108.7L287.9,107.5L288.5,105.1L289,103.8L290.1,103.1L290.8,102.7L291.1,102.5L291.4,102.2L292.5,100.3L293.5,99.5L294.5,98.99L295.6,99.05L296.5,99.75L298.3,100.1L300,99.86L301.5,99.33L302.2,98.91L302.9,98.53L302.9,98.1L302,97.72L301.5,97.19L301.3,96.54L301.8,96.16L303,96.03L305.9,94.46L307,93.42L307.4,92.93L307.9,92.87L309,93.36L310.3,93.53L311.1,93.04L311.9,92.93L312.7,93.47L313.1,94.08L313.8,94.84L314.7,94.99L315.8,94.59L316.9,93.72L318,92.49L319,91.3L318.7,87.46L318.6,85.18L319.1,84L319.8,83.25L320.3,82.12L320.3,81.11L320.8,80.25L321.3,77.95L322,77.39L323.4,77.02L325.7,76.79L327.4,75.73L329.2,74.61L329.4,73.61L328.8,72.53L327.9,70.48L327,69.24L325.1,67L325.3,65.63L326.4,65.07L329.1,66.03L329.9,66.22L330.8,66.35L333.3,66.33L335.3,65.96L337.4,65.11L337.8,64.22L337.8,63.17L337.8,62.3L337.9,61.08L337.1,60.31L336.7,59.61L336.5,59.06L337,58.76L337.6,58.19L338.1,57.15L339.2,55.9L339.9,54.78L340.6,54.25L341.6,53.53L342.2,52.47L342.5,51.83L343.1,51.19L343.3,50.79L343.2,50.42L342.9,49.95L342.5,49.45L342.5,48.94L342.8,48.41L343.1,47.92L343,47.26L342.8,46.15L342.3,45.5L341.9,43.99L341.3,42.48L341,41.88L340.4,41.12L339.2,40.34L338.8,39.81L339.3,38.78L340.1,38.13L341.7,36.56L342.5,35.49L343.3,34.73L344.3,34.84L344.9,34.77L345.4,34.08L346.4,33.45L348.3,32.17L348.9,31.29L349.9,30.86L350.7,30.75L351.7,30.46L352.8,29.98L353.7,29.62L355.2,29.55L357.6,29.35L358.9,29.13L361.9,28.95L365.3,28.88L365.7,28.86L367.1,29.33L368.1,29.71L368.5,29.67L370.1,28.74L372.6,27.61L373.7,27.12L374.3,26.94L375.2,26.94L376,27.25L376.8,27.68L377.3,28.02L377.9,27.82L379,27.57L380,27.75L382.1,28.54L382.4,28.92L382.8,30.82L383.2,30.97L384.4,30.55L385.4,30.77L386.5,31.38L387.2,31.96L387.6,32.59L388.2,33.63L388.3,34.44L388.6,35.42L388.5,38.17L388.2,38.62L387.9,39.2L387.9,39.72L388.3,40.12L388.9,40.39L389.6,40.56L389.9,40.99L390.4,42.55L390.7,42.77L391.4,42.77L392.9,42.44L394.1,41.9L394.6,41.79L394.7,43.26L395.4,43.81L396.4,44.46ZM362,408.3L361.8,408.3L361.6,408.2L361.7,407.9L361.9,407.7L362.1,407.7L362.3,407.9L362.2,408.1ZM363,398.6L362.8,398.7L362.6,398.7L362.6,398.5L362.7,398.4L362.8,398.1L362.9,397.9L363,397.7L363.2,397.8L363.2,397.9L363.1,398.1L363,398.4ZM-27.18,57.81L-25.39,57.81L-24.19,57.77L-23.85,57.18L-22.96,57.44L-22.43,58.01L-22.92,58.6L-23.55,59.26L-23.52,59.43L-23.03,59.5L-22.21,59.87L-21.68,60.29L-20.86,62.95L-21.38,64.04L-22.21,65L-22.54,65.09L-23.25,65.59L-23.85,66.24L-24.04,66.66L-24,67.05L-23.18,67.55L-23.14,67.74L-23.33,67.9L-24,67.79L-24.86,67.74L-25.39,67.74L-25.99,67.83L-26.73,68.44L-27.07,68.83L-27.26,69.07L-27.56,69.89L-27.22,70.44L-26.66,70.76L-26.59,70.91L-26.7,71.19L-27.3,71.54L-27.71,71.97L-27.82,72.41L-28.31,72.82L-28.61,73.03L-29.17,73.59L-29.69,74.07L-30.81,74.78L-31.08,75.21L-31.3,74.83L-31.79,75.08L-32.2,76.7L-33.06,77.26L-34.15,77.2L-35.01,77.05L-36.2,77.15L-35.72,76.2L-35.23,74.98L-34.74,73.31L-33.84,71.93L-32.01,67.22L-30.96,65.33L-30.59,62.6L-28.98,60.22L-27.75,59.52L-27.18,58.84ZM339,-10.98L339.1,-11.17L338.7,-12.16L339.2,-13.1L338.2,-13.24L337.7,-13.53L337.1,-14.47L336.9,-14.52L336.6,-14.26L336.5,-13.65L336.6,-12.96L337,-12.52L337.3,-12.37L337.3,-12.35L337.3,-12.11L337,-11.03L337.5,-10.89L338.5,-10.87ZM345,-11.76L345.1,-12.37L344.8,-12.35L344.5,-12.19L344,-12.02L343.8,-11.71L344.2,-11.34L344.7,-11.2ZM333.8,-10.07L333.7,-10.35L333.4,-10.49L332.4,-10.63L331.7,-10.84L331.5,-10.87L331.6,-10.59L331.9,-10.12L332.3,-9.621L332.8,-9.551ZM402,-26.3L401.1,-26.26L399.1,-26.66L398.3,-26.45L397.4,-25.87L396.2,-23.61L395.7,-23.08L395.5,-22.58L395.3,-21.49L394.9,-20.32L394.3,-19.42L393.8,-18.57L393,-17.76L392.2,-17.24L391.5,-18.3L391,-18L390.5,-17.57L389.5,-17.71L388.9,-17.5L387.5,-16.58L385.5,-16.6L385.3,-16.93L384.9,-19.49L384.5,-20.7L384.2,-20.96L383.9,-21.01L381,-18.99L379.6,-18.64L378.5,-18.57L377,-19.16L376.7,-19.02L376.5,-18.68L376.4,-18.28L376.8,-17.14L376.7,-16.91L376,-16.93L375.1,-16.67L374.4,-16.15L372.3,-14.31L370.6,-13.69L369,-13.46L368.3,-13.24L368,-13.03L367.4,-12.16L366.9,-10.8L366.6,-10.12L366.3,-9.739L366.4,-9.222L366.8,-8.589L367.2,-7.112L367.1,-6.737L366.8,-6.129L366.2,-5.544L365.1,-5.17L364.2,-5.006L363.6,-5.123L362.6,-5.147L361.7,-4.913L361.1,-4.516L360.1,-4.002L358.8,-3.839L357.1,-3.769L356.3,-3.815L353.9,-4.142L353.1,-4.025L352.3,-3.769L351,-3.489L350.2,-2.649L349.9,-1.857L349.6,-1.764L348.8,-2.463L348.2,-3.139L347.7,-3.699L347.2,-3.675L345.2,-2.672L345,-2.696L344.4,-3.092L344.5,-4.049L344.5,-4.656L343.9,-4.983L342.5,-5.053L342.1,-5.404L342.1,-5.918L342.2,-6.41L342.1,-6.784L341.8,-7.089L341.1,-6.995L340.3,-6.62L339.7,-6.152L339,-5.942L338.1,-5.871L337.6,-5.591L336.9,-4.492L334.8,-4.259L334.1,-4.516L333.5,-5.31L332.8,-6.55L332.4,-6.714L331.7,-6.854L330.6,-6.784L329,-6.269L328.7,-6.69L328.2,-6.831L327.9,-6.456L327.5,-6.503L326,-6.41L324.1,-6.456L323,-6.69L322.3,-6.69L320.9,-6.129L320.2,-6.129L319.2,-6.012L319,-7.932L318.5,-9.199L318.6,-10.09L319,-11.34L319.3,-12.02L319.9,-11.74L320.6,-11.22L321,-11.36L321.1,-11.79L321,-12.33L320.9,-12.73L321.2,-13.27L321.6,-13.76L324.1,-14.59L326.1,-15.2L327.2,-14.8L329.3,-13.86L330.4,-13.39L331.2,-13.1L331.8,-11.76L332.2,-11.83L332.7,-12.09L333,-12.42L333.2,-13.57L334.2,-14.24L336.3,-14.99L336.5,-15.44L336.4,-15.7L336.4,-15.7L336.8,-15.91L337.9,-16.13L340,-16.34L340.8,-16.2L341.6,-15.72L342.3,-15.28L342.9,-15.3L343.4,-15.39L343.6,-15.28L343.8,-14.87L344.1,-14.52L344.9,-14.99L345.6,-15.63L346.2,-15.72L346.8,-15.96L347,-16.39L347.4,-17.07L348.6,-18.42L349.3,-18.64L349.7,-18.64L349.7,-18.42L349.9,-18.21L351,-17.9L351.3,-18.26L351.5,-18.75L351.1,-19.51L351.1,-19.85L351.3,-20.16L351.4,-20.32L353.2,-19.59L353.5,-19.61L354.3,-20.01L355,-20.75L355.3,-21.32L358.8,-23.18L359.1,-23.51L359,-23.75L357.5,-24.2L356.9,-23.94L356.3,-23.94L355.9,-24.23L354.1,-24.32L353.7,-24.51L352.5,-25.87L351.7,-26.38L351,-26.71L350.3,-26.66L349.5,-26.3L349.2,-26.47L349.1,-27.05L349.2,-27.74L349,-28.51L348.5,-28.7L347.8,-28.39L346.8,-28.7L346,-28.8L345.8,-30.4L345.5,-31.1L345.1,-31.82L344.7,-32.04L344.1,-32.4L344.1,-33.24L344,-33.48L343.8,-33.6L343.5,-33.51L343.1,-33.07L343.3,-32.13L343.2,-31.2L343,-30.72L342.5,-30.38L342.1,-30.36L341.2,-30.84L341.1,-27.98L341,-27.81L340,-28.22L339.2,-28.05L338,-28.22L337.2,-28.7L336.5,-28.82L335.4,-29.23L334.6,-29.73L334.1,-31.65L333.6,-32.33L333.2,-32.47L331.4,-31.82L330.7,-32.33L329.5,-32.98L328.6,-33.22L328.3,-33.58L328.4,-34.01L331.2,-36.16L332.3,-37.64L333,-38.24L334,-38.68L334.8,-38.92L335.2,-40.26L335.4,-40.43L336,-40.53L337.2,-41.09L338.8,-42L402,-42ZM100.6,119.3L100,119.5L99.67,119.4L99.26,118.8L98.63,117.2L99,116.6L98.96,116.3L99.04,116.1L99.23,116L99.45,115.3L99.71,115L100.2,115.5L101.4,117.4L101.4,118.1L101.3,118.4ZM102.4,132.1L100.6,132.2L98.29,132.2L96.46,132.2L94.36,132.2L93.46,131.1L93.16,129.9L92.83,128.6L91.89,126.8L88.82,126.4L87.21,126.2L84.52,125.8L82.54,125.6L84.22,123.6L85,122.6L86.43,120.3L87.14,118.7L87.85,116.9L88.45,115.5L88.6,115.2L88.94,114.8L89.72,114.3L90.84,113.8L92.75,113.6L94.1,113.6L94.4,113.6L95.22,113.8L97.58,115L97.5,115.4L97.84,116.7L98.59,118.2L99.23,119.3L99.3,119.9L98.74,119.8L98.29,119.6L97.47,119.4L95.89,120.9L94.92,121.7L94.92,122L96.19,122.4L97.13,122.3L97.77,122.1L98.33,122.5L98.7,123.4L98.85,124.2L99.71,127L100.4,127.9L101.3,129.5L101.7,130.4L101.8,131.1ZM24.98,464.4L24.57,464.5L24.79,463.9L25.92,463.1L26.4,463.3L26.48,463.5L26.44,463.6L26.25,463.8ZM-42,430.3L-41.48,429.9L-40.99,429.6L-40.17,429.3L-39.53,429.1L-39.42,429L-39.38,428.7L-39.57,427.6L-39.31,427.2L-38.9,426.5L-38.41,425.7L-37.96,425.3L-37.7,424.8L-37.59,424.1L-37.55,423.5L-37.59,422.6L-37.7,420.5L-38.22,418.7L-38.56,416.8L-38.34,416.1L-38.75,415L-38.94,414.9L-39.27,414.7L-39.68,413.6L-40.02,412.6L-40.21,412.4L-41.59,411.5L-42,410.3L-42,392.1L-42,392.1L-41.07,391.2L-38.6,388.7L-36.47,386.6L-34.56,384.8L-34.59,385.1L-34.59,385.6L-34.33,385.9L-33.96,386.1L-33.4,385.9L-32.95,385.6L-32.46,385.5L-29.58,386.3L-29.13,387L-29.13,387.7L-29.02,388.3L-29.24,388.8L-29.47,390.4L-29.39,391.9L-28.53,393L-27.78,393.8L-27.18,395.1L-26.7,395.4L-26.1,395.6L-24.12,395.7L-21.2,395.7L-18.39,395.8L-18.13,395.9L-17.53,396L-14.95,397.7L-12.59,399.2L-10.57,400.5L-8.623,401.7L-6.715,402.9L-5.255,404L-3.796,404.3L-1.476,404.4L0.171,404.5L1.668,404.9L3.913,405.3L5.56,405.5L6.57,405.7L9.377,406L9.826,405.8L11.06,404.7L12.45,402.9L13.01,401.9L14.77,400.9L17.91,399.5L20.12,398.5L22.59,397.5L23.71,398.3L25.24,399.7L25.92,400.4L26.48,400.7L27.34,400.9L28.35,400.9L28.91,400.9L30.03,400.7L32.69,400.5L34.22,400.5L32.95,402.4L31.42,404.6L28.57,408.6L26.44,410.8L24.79,412.4L24.64,412.7L24.68,414.4L24.68,418.8L24.72,427.6L24.76,436.4L24.79,445.1L24.79,449.5L24.79,451L26.22,452.8L27.64,454.6L29.47,457L30.45,458.3L30.63,458.7L30.56,459.6L29.06,461.3L27.82,462.2L26.14,462.5L25.66,462.5L24.98,462.2L24.72,462.6L24.53,463.3L24.16,463.2L23.9,463L24.05,464.2L24.23,464.7L23.97,465.5L23.15,466.2L23.07,466.8L21.31,468.3L18.84,468.5L17.53,469.3L16.94,469.9L16.49,471.2L16.67,473.3L15.96,474.9L15.85,475.7L14.54,476.8L13.98,477.7L13.57,478.7L13.19,479.1L12.74,481.3L12.43,482L-5.705,482L-5.705,482L-5.742,482L-7.313,480.8L-8.249,480.1L-8.661,479.7L-8.997,479L-9.147,478.8L-9.596,478.5L-10.08,478.4L-10.23,478.3L-10.23,477.9L-10.04,477.4L-9.446,476.3L-9.409,475.7L-9.521,475L-9.708,473.9L-9.858,473.6L-10.91,473L-13.11,471.8L-15.36,470.5L-17.57,469.3L-19.77,468.1L-21.98,466.8L-24.23,465.6L-26.44,464.3L-28.64,463.1L-30.85,461.9L-33.06,460.6L-35.3,459.4L-37.51,458.1L-39.72,456.9L-41.93,455.7L-42,455.6L-42,430.3ZM333.7,-42L333.4,-41.5L332.8,-40.77L332.5,-40.5L332.1,-40.55L331.6,-41.11L330.8,-41.09L329.9,-40.38L328.8,-39.24L327.5,-37.49L326.1,-36.55L324.3,-35.78L323,-35.41L322,-34.81L320.2,-33.6L319.9,-32.91L318.7,-32.47L317.7,-31.99L316.8,-31.17L316.5,-29.75L315.9,-28.94L314.5,-27.81L313.4,-26.69L312.6,-25.59L311.7,-24.42L311.5,-23.77L311.5,-22.89L311.9,-22.15L311.9,-21.44L311.6,-20.94L310.8,-20.75L310,-20.89L308.7,-21.39L307.4,-22.3L306.8,-22.73L306.2,-23.49L306.3,-24.2L306.6,-25.56L306.9,-26.52L306.3,-26.95L305.9,-27.45L305.6,-27.91L305,-28.82L304.3,-28.6L303.7,-28.39L302.9,-28.7L300.8,-28.56L299.2,-28.46L297.6,-28.36L295.7,-28.22L293.4,-28.08L292.7,-28.29L292.3,-28.58L291.8,-29.85L291.6,-30.93L291.2,-32.95L290.9,-34.52L290.5,-36.38L290.3,-38.44L290.1,-39.92L288.3,-39.97L286.9,-40.02L285,-40.06L285,-41.23L285,-42L333.7,-42ZM180.7,-42L180.7,-40.14L180.7,-36.94L180.7,-33.75L180.7,-30.57L180.3,-30.6L179.3,-30.4L177.6,-29.97L176.2,-29.73L175.6,-29.88L175.1,-30.21L174.6,-30.91L173.9,-31.75L173.1,-32.45L172.2,-33.87L171.6,-34.96L170.1,-37.35L169.8,-38.1L169.5,-38.88L169.1,-39.51L167.2,-41.09L165.9,-42L180.7,-42ZM150.2,-42L149.9,-41.81L148.4,-40.84L146.6,-39.22L144.5,-36.94L144.2,-38.39L144.1,-40.67L144.2,-41.4L144.3,-42L150.2,-42ZM-29.17,81.47L-28.05,81.73L-27.41,82.31L-26.32,83.96L-24.68,84.43L-24,84.9L-23.07,85.76L-21.95,86.08L-18.43,86.61L-15.62,84.79L-13.26,83.25L-10.53,81.5L-8.698,80.29L-5.592,78.25L-3.496,76.96L-0.802,75.26L1.892,73.57L2.641,76.31L3.352,79L4.1,81.77L4.849,84.45L4.063,84.71L4.661,86.76L5.709,86.44L6.794,86.2L7.281,87.53L5.747,88.98L4.212,90.43L3.838,90.58L1.855,91.17L-2.262,92.38L-4.993,93.19L-8.511,94.23L-11.43,95.1L-14.31,95.94L-16.97,96.73L-15.47,98.4L-13.11,100.9L-11.58,102.6L-9.746,104.8L-8.099,106.7L-6.378,108.7L-7.575,109.4L-9.596,110.6L-9.783,110.8L-9.97,111L-10.79,113L-11.47,114.6L-11.65,114.8L-14.46,115.4L-17.3,116L-19.1,116.4L-19.63,116.8L-20.79,118.8L-21.98,120.8L-24,122.5L-26.25,124.3L-26.77,124.5L-28.38,124.2L-31.15,123.7L-33.81,123.2L-35.64,122.9L-37.85,122.5L-37.51,120.9L-37.63,120.1L-37.1,117.3L-36.8,116L-36.62,115L-35.87,113.1L-35.98,112.4L-35.79,110.2L-35.87,109.7L-35.53,108.5L-34.89,106.7L-34.26,105.1L-33.99,104.4L-33.36,102.9L-32.76,101.1L-33.1,100.1L-33.17,99.9L-32.95,98.76L-32.65,96.88L-32.5,95.86L-32.16,94.53L-31.52,93.38L-31.82,90.7L-31.79,89.25L-31.38,87.59L-31.6,85.65L-31.41,82.89L-31.38,82.63L-31.15,82.29L-31,82.12L-29.69,81.54ZM-42,94.19L-40.69,91.79L-39.38,88.1L-38.15,82.95L-37.29,80.34L-36.54,78.59L-36.2,77.15L-35.01,77.05L-34.15,77.2L-33.06,77.26L-32.2,76.7L-31.79,75.08L-31.3,74.83L-31.08,75.21L-30.81,74.78L-29.69,74.07L-29.17,73.59L-28.61,73.03L-28.31,72.82L-28.31,72.82L-28.49,73.59L-28.64,74.09L-28.64,74.74L-28.42,75.08L-28.12,75.8L-27.93,76.51L-28.31,77.09L-28.27,77.71L-28.16,78.21L-27.86,78.81L-28.42,79.89L-29.02,80.89L-29.17,81.47L-29.69,81.54L-31,82.12L-31.15,82.29L-31.38,82.63L-31.41,82.89L-31.6,85.65L-32.31,85.58L-33.17,84.99L-33.32,84.45L-33.58,84.28L-34.18,84.22L-35.34,83.94L-36.65,84.86L-37.21,86.35L-37.36,87.06L-37.81,88.55L-37.63,89.45L-37.55,90.62L-37.44,91.58L-37.55,92.15L-37.81,92.47L-37.74,92.68L-37.51,92.76L-36.8,92.51L-36.02,92.76L-35.27,93.25L-35.23,93.57L-35.75,93.76L-36.99,94.5L-37.85,95.37L-38.07,96.18L-38.67,97.89L-38.6,98.23L-38.3,98.44L-36.28,98.25L-34.48,97.58L-33.1,96.83L-32.65,96.88L-32.95,98.76L-33.17,99.9L-33.1,100.1L-32.76,101.1L-33.36,102.9L-33.99,104.4L-34.26,105.1L-34.89,106.7L-35.53,108.5L-35.87,109.7L-35.79,110.2L-35.98,112.4L-35.87,113.1L-36.62,115L-36.8,116L-37.1,117.3L-37.63,120.1L-38.34,121L-38.71,120L-39.5,117L-40.09,115L-40.88,112.5L-42,109.9L-42,94.19ZM-31.6,85.65L-31.38,87.59L-31.79,89.25L-31.82,90.7L-31.52,93.38L-32.16,94.53L-32.5,95.86L-32.65,96.88L-33.1,96.83L-34.48,97.58L-36.28,98.25L-38.3,98.44L-38.6,98.23L-38.67,97.89L-38.07,96.18L-37.85,95.37L-36.99,94.5L-35.75,93.76L-35.23,93.57L-35.27,93.25L-36.02,92.76L-36.8,92.51L-37.51,92.76L-37.74,92.68L-37.81,92.47L-37.55,92.15L-37.44,91.58L-37.55,90.62L-37.63,89.45L-37.81,88.55L-37.36,87.06L-37.21,86.35L-36.65,84.86L-35.34,83.94L-34.18,84.22L-33.58,84.28L-33.32,84.45L-33.17,84.99L-32.31,85.58ZM39.16,25.99L40.17,25.74L42.05,24.15L43.13,22.7L43.47,22.56L44.44,23.04L45.15,23.18L46.8,22.61L47.73,22.9L48.56,23.29L49.01,23.31L51.18,24.22L51.74,24.33L52.86,24.45L54.51,24.49L55.59,23.9L56.34,23.31L56.9,23.34L57.39,23.47L57.84,23.72L58.21,24.15L58.36,24.76L58.32,26.73L58.47,27.25L58.77,27.64L59.15,27.7L59.6,27.27L60.38,26.64L61.35,25.96L62.1,25.35L62.52,25.13L63.19,25.15L63.83,25.26L64.16,25.56L64.16,25.65L64.5,26.57L65.36,30.03L65.85,30.46L66.41,30.82L66.82,31.33L66.97,31.85L66.93,32.64L66.93,33.56L67.16,34.26L67.49,34.79L67.79,35.06L68.24,35.09L68.77,35.22L69.1,35.76L70.26,39.65L70.37,40.14L70.86,40.3L71.65,40.23L72.43,40.63L73.33,41.26L74.12,42.44L74.68,42.64L76.4,42.46L78.76,42.64L79.84,43.26L79.73,43.62L78.87,44.04L77.41,44.53L76.96,45.37L76.7,46.44L76.73,47.03L77.11,47.7L78.16,49.02L78.23,49.49L78.42,50.15L78.61,50.62L78.38,51.5L77.45,52.09L76.17,52.76L73.67,55.66L73.48,56.3L73.48,58.01L73.22,58.51L72.43,58.49L71.8,58.41L71.8,59.02L71.38,59.81L71.16,60.51L72.09,62.15L72.25,63.02L72.09,63.8L71.23,65.18L70.75,66.09L70.86,66.29L71.53,66.66L73.63,69.65L74.27,70.69L75.16,70.41L75.5,70.44L75.76,70.61L75.91,70.95L75.91,71.41L75.69,72.08L76.81,72.34L77.22,73.03L78.53,75.34L78.46,76.03L77.86,77.11L77.86,77.84L77.97,78.49L78.16,78.72L80.1,78.81L80.93,79.07L82.91,80.25L85.19,82.05L87.06,83.53L88.67,84.77L90.36,84.69L90.84,84.92L91.25,85.31L91.74,86.33L92.71,88.66L93.54,89.45L94.81,91.3L96.01,93.04L95.22,95.39L94.47,97.85L94.47,101L94.47,102.7L96.08,102.7L97.92,102.8L97.92,104.8L97.92,106.9L97.95,109.2L98.48,109.3L99.34,109.8L99.67,110.5L100.2,110.9L100.7,111L101.2,111.3L101.8,112L102,112.5L101.8,112.8L101.9,113.5L102.3,114.3L102.8,114.7L103.5,115.2L102.5,115.5L101.5,115.3L99.26,114.3L98.55,114.2L97.62,114.6L97.58,115L95.22,113.8L94.4,113.6L94.1,113.6L92.75,113.6L90.84,113.8L89.72,114.3L88.94,114.8L88.6,115.2L88.45,115.5L87.85,116.9L87.14,118.7L86.43,120.3L85,122.6L84.22,123.6L82.54,125.6L80.7,126L76.47,125.6L71.8,125.2L67.12,124.7L63.67,124.4L63.38,124.3L59.97,121.5L57.24,119.3L53.87,116.6L50.39,113.8L46.87,110.9L44.33,108.8L41.26,106.1L38.42,103.7L36.21,101.7L33.33,100L31.12,98.69L27.86,96.77L25.28,95.2L23.04,93.87L19.63,91.83L18.47,91.26L14.91,90.58L11.55,90L8.067,89.38L5.747,88.98L7.281,87.53L6.794,86.2L5.709,86.44L4.661,86.76L4.063,84.71L4.849,84.45L4.1,81.77L3.352,79L2.641,76.31L1.892,73.57L4.811,71.8L7.019,70.48L10.13,68.63L13.08,66.83L15.89,65.13L19.03,63.24L21.8,61.56L24.34,60.86L24.91,60.33L26.07,58.01L27.04,56.03L27.11,55.57L27.11,52.76L27.26,49.45L27.6,47.67L28.2,46.1L28.72,44.95L28.76,43.88L28.69,42.79L28.16,41.12L27.56,39.4L27.64,37.73L27.75,36.83L28.09,35.4L28.72,34.37L29.36,33.72L31.79,33.04L33.21,32.64L35.16,30.77L36.28,29.67L37.89,27.91L39.05,26.62L39.16,26.17ZM182.9,151.2L181.9,152.6L180.5,153.8L179.8,153.4L179.4,153.4L178.3,153.9L177.6,153.9L176.2,154.7L175,155.1L174.1,155.1L173.8,155L173.6,154.5L173.6,154.3L174.2,154.4L176.1,153.6L178.5,152.5L178.7,151.9L178.3,151.1L178.4,150.9L180,151.3L181.7,150.5L183.2,150.2L183.9,150.8ZM159.3,22.93L162.2,23.09L163.3,22.79L164.9,22.09L166.2,21.66L166.8,21.61L167.4,21.27L167.9,20.86L169,17.97L169.5,17.23L171.3,15.59L172.9,14.56L174.5,13.64L176.6,13L179.3,13.05L181.5,13.28L182.7,13.28L183.3,13.35L183.8,13.26L184,13.05L184.3,11.79L184.8,11.37L185.5,11.01L186.6,11.01L187.9,10.91L189,11.01L190.4,11.49L192.2,11.53L193.3,11.44L194.1,11.95L194.5,12.59L194.8,13.14L194.8,13.87L194.8,14.45L195,14.65L195.7,14.99L196.7,15.25L198.7,15.57L200.6,16.14L201.5,16.55L202.9,17.17L204.5,18.72L205.1,18.95L205.8,19.11L206.3,19.06L207.4,18.42L208.5,18.9L209,18.83L210.2,18.47L211.5,18.92L214.6,20.61L215,20.56L215.3,20.75L215.5,21.13L215.7,21.61L215.9,23.06L216.9,24.11L218,25.08L219.3,25.6L222,26.87L223.2,27.89L224.4,29.62L225.9,31.92L226.1,32.12L229.9,32.05L234.2,32.05L234.7,32.95L234.6,34.77L234.7,36.61L235.1,37.88L235.1,39.07L234.8,39.67L234.6,40.34L234.5,40.63L235.1,41.08L235.6,42.03L235.6,43.39L235.4,44.13L235.4,44.7L235.7,45.21L235.9,46.06L235.8,46.57L235.5,47.08L235.3,47.72L235,48.52L234.9,49.14L234.4,49.45L234,49.65L234,50.44L234.2,51.12L234.5,51.92L234.2,52.47L234,53.09L233.6,54.1L233.8,54.94L233.3,55.66L232.8,56.28L232.5,56.78L232.4,57.51L232,57.75L231.3,58.34L230.9,58.76L230.2,58.87L230.1,59.22L230.2,59.54L230.5,59.74L230.9,60.46L231.8,61.71L229.2,61.86L228.4,62.98L227.6,64.55L228,67.7L227.6,69.33L227.8,70.24L228.5,70.87L229.3,71.21L230.9,71.24L232,71.5L232.1,71.91L231.5,72.51L230.5,73.68L230,74.18L228.4,76.48L228.4,77.45L228.5,78.25L229.2,80.74L229.9,83.15L231.1,87.46L231.1,88.44L230.7,90.68L230.7,92.02L230.9,93.76L230.8,94.67L231.1,96.69L231.4,96.83L234.1,97.22L236.5,97.58L239.8,98.06L240.8,99.24L241.4,101.8L241.4,103.8L241.1,104.7L238.7,107.6L236.4,110.4L234,113.2L231.3,116.5L233.3,118.8L234.5,120.3L236.2,122.3L236.4,122.8L236.4,123.6L238.2,126.6L238.8,128.3L239.4,129.2L240.8,130.7L242.2,132.1L243.7,132.8L244.7,132.9L247,133.6L247.8,134.3L249.2,135.8L250.8,135.6L251.1,135.6L251.2,135.7L251.2,136.2L251,138.5L251.5,140.9L251.8,144.4L251.6,145.1L251.3,146.1L251.2,146.7L251.2,147.2L251.2,147.3L251.8,147.6L252.8,147.7L255.5,147.3L255.8,147.4L256.4,147.8L256.8,148.5L256.9,148.8L256.2,149.4L256.1,150.3L256.3,151.7L256.2,151.8L255.6,152.2L255.5,154.2L255.3,154.3L254.7,154.5L251.5,154.4L251.1,154.5L249.9,155L247.9,155.4L247.3,155.6L246.6,156.2L246,156.9L245.9,157.6L245.8,157.7L244.6,157.6L244.2,158.2L242,159.1L241.7,159.3L241.4,160L241.1,161.9L240.8,163.7L240.6,163.9L239.9,164.6L239.8,164.8L239.9,165.4L239.6,166.7L239.3,170.1L239,171.1L238.5,171.2L238,171.6L237.2,172.2L235.4,171.8L234.1,171.3L229.4,170.2L228.9,169.6L228.6,168.6L227.8,168.4L226.7,169.8L222.8,169L221.4,169.2L220.7,168.8L218.5,168.8L216.9,167.9L214.5,168.5L212.6,168.6L210,167L207.3,166.6L205,166.7L203.9,166.6L202,166L201.1,165.4L199.6,165.9L199,165.1L194.8,164.3L194.1,162.8L193.5,161.4L193.5,160L192.4,157.6L192.1,154L191.7,152.6L191.2,151.4L190.4,150.3L189.4,149.2L188.5,148.8L184.7,147.9L183.9,148L182.2,148.6L180.4,149.8L177.3,150.5L176.7,151L175.9,152.2L175,152.9L173.6,152.8L172.2,153.5L169.5,155.4L168,156L166.8,156L165.6,155L162.7,153.8L160.9,153.4L158.3,153.7L157.1,153.5L155,152L154.5,150.9L153.3,150.2L149.6,148.6L146.6,146.5L146,145.7L145.6,144.5L144.3,143L141.4,141.9L139.7,140.6L137.7,140.3L135.9,140.4L135.1,140.2L134.4,139.6L131.9,137L131.9,136L130.3,133.4L129.9,132.5L129.6,130L129.2,129.3L127.6,128.3L127.3,127.6L127.7,126.7L127.7,126L126.8,125.3L125.6,125L125.3,124.2L125.5,122.7L125.3,121.7L124.2,120.2L122.6,118.6L121,116.3L120.3,115.7L119.9,114.2L119.3,112.4L118.4,112.3L114,114.4L112.7,113.2L108.8,111.1L108.5,110.8L108.2,110.3L108.7,110L109.2,109.9L110.2,110.3L110.8,109.8L110.5,109.1L109.6,108.6L108.2,108.7L108.6,109.4L107.3,110L107,110.8L107.2,111.9L107.3,113.3L106.8,114L106.4,114.3L104.8,114.4L104,115.1L103.5,115.2L102.8,114.7L102.3,114.3L101.9,113.5L101.8,112.8L102,112.5L101.8,112L101.2,111.3L100.7,111L100.2,110.9L99.67,110.5L99.34,109.8L98.48,109.3L97.95,109.2L97.92,106.9L97.92,104.8L97.92,102.8L96.08,102.7L94.47,102.7L94.47,101L94.47,97.85L95.22,95.39L96.01,93.04L94.81,91.3L93.54,89.45L92.71,88.66L91.74,86.33L91.25,85.31L90.84,84.92L90.36,84.69L88.67,84.77L87.06,83.53L85.19,82.05L82.91,80.25L80.93,79.07L80.1,78.81L78.16,78.72L77.97,78.49L77.86,77.84L77.86,77.11L78.46,76.03L78.53,75.34L77.22,73.03L76.81,72.34L75.69,72.08L75.91,71.41L75.91,70.95L75.76,70.61L75.5,70.44L75.16,70.41L74.27,70.69L73.63,69.65L71.53,66.66L70.86,66.29L70.75,66.09L71.23,65.18L72.09,63.8L72.25,63.02L72.09,62.15L71.16,60.51L71.38,59.81L71.8,59.02L71.8,58.41L72.43,58.49L73.22,58.51L73.48,58.01L73.48,56.3L73.67,55.66L76.17,52.76L77.45,52.09L78.38,51.5L78.61,50.62L78.42,50.15L78.23,49.49L78.16,49.02L77.11,47.7L76.73,47.03L76.7,46.44L76.96,45.37L77.41,44.53L78.87,44.04L79.73,43.62L79.84,43.26L78.76,42.64L76.4,42.46L74.68,42.64L74.12,42.44L73.33,41.26L72.43,40.63L71.65,40.23L70.86,40.3L70.37,40.14L70.26,39.65L69.1,35.76L68.77,35.22L68.24,35.09L67.79,35.06L67.49,34.79L67.16,34.26L66.93,33.56L66.93,32.64L66.97,31.85L66.82,31.33L66.41,30.82L65.85,30.46L65.36,30.03L64.5,26.57L64.16,25.65L64.16,25.56L64.2,25.38L64.09,24.58L64.5,23.9L64.46,23.63L63.64,22.75L62.48,21.88L62.18,21.72L62.18,20.79L62.22,20.09L62.1,19.45L61.88,19.08L61.88,18.81L62.33,18.13L62.03,17.67L60.34,16.55L59.71,16L58.55,15.89L58.4,15.52L58.59,14.74L59,13.8L59.63,12.87L59.86,12.38L60.08,11.53L60.16,10.94L60.87,10.11L60.91,9.879L60.68,9.58L60.12,9.419L59.52,9.35L59.33,9.188L59.22,8.751L59.3,6.93L59.11,5.821L58.88,5.012L59.03,3.207L58.62,2.859L57.99,1.909L57.73,1.097L57.88,0.795L57.99,0.284L58.1,-0.414L58.06,-0.902L57.46,-1.391L57.05,-1.903L56.98,-2.463L56.83,-3.139L56.56,-3.675L56.45,-4.025L56.68,-4.235L57.5,-4.399L58.7,-4.306L59.71,-4.282L60.27,-4.633L60.94,-7.932L61.58,-8.8L62.33,-9.316L63.75,-8.143L64.35,-7.721L64.72,-7.721L64.91,-7.416L66.59,-4.656L67.34,-3.839L67.79,-3.162L68.09,-2.393L68.58,-1.857L69.25,-1.577L70.11,-0.833L70.67,-0.251L71.61,0.934L72.58,1.398L76.17,2.257L78.19,2.651L78.76,2.767L80.29,2.187L82.09,2.28L82.76,2.303L85.16,-0.135L85.87,-0.972L87.29,-1.391L88.07,-2.369L89.35,-3.535L90.92,-4.656L92.34,-5.661L93.46,-6.269L95.45,-7.698L96.68,-8.19L97.77,-8.167L99.38,-6.503L100.7,-4.983L101.1,-4.329L100.5,-3.745L99.19,-3.162L98.96,-2.742L98.89,-2.206L98.93,-1.694L99.11,-1.275L100.6,-0.298L100.8,0.237L100.8,0.771L100.6,1.12L100.3,1.305L99.23,1.584L98.33,1.886L97.99,2.21L97.73,2.581L97.77,2.975L98.03,3.439L99.94,4.712L100.1,5.174L100.5,5.798L101,6.191L101.8,6.283L102.1,6.537L103.9,8.866L104.4,9.027L106.5,8.521L106.8,8.544L106.9,9.119L107.2,12.41L107.4,14.1L107.8,15.75L108.4,17.26L109,18.67L110,19.56L112.1,20.63L113.1,20.93L115.7,21.13L118.4,21.61L119.9,22.11L120.4,22.45L120.8,22.97L122.1,25.46L124.1,27.23L128.2,29.87L130.2,30.75L136.9,32.41L141.4,32.32L153.6,29.13L157.8,28.31L159.3,28.31L158.4,28.95L156.8,29.33L157.8,29.78L159.2,29.85L159.8,29.78L160.3,29.37L160.4,28.7L160.3,28.02L159.7,25.04ZM402,356.7L399.9,355.2L398.9,354.2L395.3,349.6L394.6,349L393.9,347L393.7,346.3L393.5,346L393.2,345.8L393,345.5L392.2,343.2L391.9,340.9L391.4,338.2L391.8,338.4L392.4,339.3L392.7,340.5L392.8,342.3L393.2,342.5L393.6,342.3L392.5,338.3L391.4,337.3L391.2,337.2L390.9,336.5L390.9,335.7L390.9,335.3L390.1,334L389.8,333.2L388,329.2L387.2,326.3L386,323L385.2,321.9L383.9,319.4L382.8,318.3L381.7,316.7L380.8,316L380.5,315.7L377.9,310.3L377.1,307.3L376.4,305.9L376.1,304.8L375.1,300.2L375.1,299.4L375,298.5L374.4,296.5L373.2,294.4L372.9,293.1L372.9,292.6L372.2,290.6L372,289.6L371.5,288.7L371,288L370.4,287.3L369,285.2L368.5,284.7L367.5,283.4L366.9,280.9L366,279.9L367.4,279.9L366.5,279L366.1,278.4L365.7,278L366.3,277.1L365.3,277.1L364.7,276.5L364,274.8L362.6,272.8L362.4,271.8L361.2,268.4L360.2,260.4L359.2,256.8L359.3,255.8L358.1,252.7L357.6,250.6L357.4,248.8L357.1,247.7L356.8,245.4L356.3,244.6L356.3,244.2L356.6,243.1L357.4,241.5L357.7,240.5L357.4,239L356.6,240.5L355.9,241L355.6,239.8L355.6,238.3L355.5,237.9L355.7,237.4L357.5,237.7L355.5,236.7L355.2,236.2L355.1,235.7L355.6,235L354.8,234.3L354.5,232.4L354.3,231.9L354.2,231.5L354.6,228.8L356.4,223.4L356.6,222.2L356.4,220.5L356,219.1L355.8,217.6L355.7,217.3L355.1,217.1L354.5,216.6L353.8,214.4L354.4,213.7L354.9,213.3L354.2,213.5L353.7,213.4L354.7,212.4L355.7,211.7L357.9,210.8L358.8,210.2L357.4,210.7L356,210.9L352.9,210.8L353.4,208.8L354,208.1L354.6,207.7L353.7,207.8L352.7,207.7L353,205.6L353.8,205.2L354.6,205.1L355.7,204.8L354.6,204.5L353.4,204.3L352,204.6L350.7,204.4L349.2,204.4L349.8,204.6L350.4,205.3L350.1,206.4L349.8,207.1L348.9,207.6L348.3,208.3L348,208.9L347.7,209.4L348.3,209.7L349.1,209.9L349.5,210.4L349.9,211.2L349.9,212.7L348.1,216.1L347.4,216.8L342.8,218.9L341,220L337.1,221.5L335.6,221.8L334,221.5L331.5,220.4L327.8,217.5L326.8,216.6L323.9,212.9L321.7,211L320.1,209.2L318.1,207.5L316.2,205.2L315.8,204.1L315.9,203.1L316.6,202.5L317.4,202.7L318.1,203.6L318.6,204L319,204.2L321.8,202.8L322.9,202.9L323.6,202.2L324.6,202.3L326.5,201.3L327.3,201.2L328.3,201L329.9,198.2L331.1,196.5L331.8,196.1L331.8,195.7L331.6,195.1L331,195.3L330.6,195.8L330.3,196.5L330,196.8L329.1,196.5L328.5,196.5L327.7,196.8L324.9,197.8L323.8,198.7L323,198.9L318.6,197.9L314.2,195.6L312.3,194L311.2,192L310,189.7L310.4,189L312.2,187.6L313.8,186.5L312.4,187L310.8,187.7L310.1,188.2L309.3,189.2L308.1,189.4L307.7,187.9L307.4,186.4L307.4,186.4L308.1,186L308.6,185.6L309.6,185.4L310.8,185.2L311.8,185.2L313.2,185.2L313.2,181.8L313.4,181.5L313.6,181.3L313.8,181.2L314,181.3L314.3,181.8L314.7,181.8L315,181.5L315.9,181.7L316.6,181.6L317.3,181.8L318.5,181.8L320.7,181.7L321.9,181.7L322.7,182.3L323.5,182.9L324.5,182.9L325.8,182.9L326.7,182.6L327.2,182.1L327.5,181.5L329.5,180.8L331.6,180.1L332.2,180.1L332.4,180.4L332.2,181.1L332.5,181.6L333.3,182L333.9,182.1L334.5,182L334.8,181.8L335.7,180.9L336.1,180.7L336.7,180.7L337.3,180.3L337.3,179.9L336.9,179.8L336.6,179.3L336.7,178.9L336.6,178.3L336.6,177.8L336.9,177.4L337.4,177L337.1,176.2L336.4,174.6L335.6,172.7L334.8,171L333.8,169.6L333.3,168.5L333.3,166.2L333.2,165.7L332.9,165.4L332.4,165.3L331.7,165.5L331.1,165.6L329.9,165.5L329.2,165.3L327.5,162.9L327.3,162L327.3,161L327.9,159.4L328,157.8L328.1,156.4L328,156L327.7,155.5L327.1,155.2L325.6,155.1L323.7,154.6L322.3,153.8L321.4,153.3L321.1,152.9L321,152.5L321.2,150.8L321.7,148.8L322,148.2L322.6,147.6L323,147.2L323.6,146.6L325.4,144.7L327,142.1L328,140.3L328.5,139.8L329,139.3L329.8,138.8L330.7,138.3L331.5,138.3L332.4,138.7L333,139.3L333.2,140.5L333.7,141.3L334.2,141.7L334.8,142L335.6,141.9L338.8,140.5L339.9,140.3L342.5,140.1L344.3,139.5L345.9,139L346.1,138L346.7,136.4L348.6,134.5L349.1,133.6L349.7,131.9L350.3,130.3L350.8,129.7L353.8,127.9L356.6,126.4L357.1,125.7L359,122.4L360.1,120.2L360.4,119.4L361,117.5L361.6,115.6L362.5,115.1L364.5,114.4L366.1,113.7L366.9,112.8L367.4,112.1L367.3,111.4L366.8,110.5L366.9,110L367,109.5L368.1,108.5L370.3,105.5L371.6,104L372,104L373.3,103.2L374.6,102.3L374.6,101.9L374.4,101.3L373.7,101.1L373.5,100.4L373.6,99.54L374.2,97.05L374.1,96.33L373.4,94.04L373.5,93.4L373.8,92.74L374.6,91.87L375.7,91.15L379.2,89.42L379.9,89.23L381.1,88.79L381.8,87.87L381.9,87.08L381.6,86.61L380.9,85.95L379.6,85.35L378.3,84.84L376.3,84.9L375.2,84.45L374.9,84.13L374.8,83.04L374.9,81.19L374.6,81.02L374.2,81.24L373.1,81.02L371.7,81.05L371.2,80.53L371.5,79.91L371.4,79.09L371.2,78.29L371,78.12L370.4,77.93L369.4,77.26L368.5,76.42L368.1,75.84L367.9,75.45L368,75.19L368.6,74.46L369.3,73.42L369.5,72.53L369.6,71.89L369.4,71.41L368.8,70.83L368.1,70.33L367.8,69.87L367.8,69.22L368.1,68.37L368.9,67.74L370.3,67.14L370.7,66.4L370.6,65.85L370.2,65.68L369.2,65.68L367.5,65.48L367.2,65.18L367.1,64.78L367.1,64.37L367.4,63.91L367.8,63.33L367.8,62.76L367.3,62.1L366.1,61.64L365.9,60.97L366.1,60.42L366.5,59.63L366.8,59.06L367.6,57.51L368.6,57.15L369.9,56.65L371.2,56.08L373.2,56.5L374.2,56.72L376.3,57.2L377.9,57.59L379.7,57.7L380.4,57.68L381.2,58.16L383.1,58.97L384.8,59.41L385.8,59.39L387.4,58.67L388.2,58.01L389.3,57.29L390.6,57.33L393.6,56.21L394.1,56.39L395,56.45L396.1,55.81L396.6,55.05L396.7,54.65L397,54.39L398.1,53.88L399.2,53.22L399.6,52.32L399.8,51.72L401,50.93L402,50.3L402,356.7ZM355.4,324.7L355.3,324.8L355.3,324.6L355.4,324.3L355.5,324.1L355.5,324.1L355.5,324.3L355.5,324.6ZM358.4,355.7L358.2,355.8L358.1,355.9L358,355.8L357.9,355.7L357.9,355.6L358.1,355.7L358.3,355.6L358.4,355.3L358.5,355.2L358.5,355.2L358.5,355.4ZM74.55,-42L75.39,-41.52L76.06,-40.99L76.51,-40.5L77.52,-40.11L78.68,-39.9L79.2,-39.85L79.8,-39.43L81.26,-38.66L81.49,-38.46L81.23,-37.98L80.63,-37.06L80.14,-36.6L79.62,-36.53L79.09,-36.33L78.91,-35.85L78.91,-35.22L78.98,-34.76L79.13,-34.59L79.65,-34.45L80.18,-33.15L81,-32.47L82.27,-31.73L83.43,-30.86L84,-30.07L83.88,-29.52L83.51,-28.32L82.57,-27.33L81.75,-27.09L81.49,-27.17L80.96,-27.48L79.92,-28.24L78.79,-28.84L77.89,-28.65L77.33,-28.41L76.17,-28.7L74.86,-29.2L74.15,-29.73L73.85,-30.11L74.04,-30.79L71.01,-31.99L69.51,-32.33L68.88,-31.97L66.63,-30.14L66.37,-29.95L64.65,-29.71L64.65,-29.54L65.02,-29.16L64.95,-29.04L62.07,-28.99L61.13,-28.75L58.59,-29.06L57.73,-28.91L57.01,-28.63L55.26,-28.32L54.06,-27.93L52.52,-27.72L50.91,-27.72L50.39,-27.6L50.39,-27.6L50.39,-27.86L50.32,-28.27L50.02,-28.56L49.57,-28.75L48.71,-28.68L47.96,-28.87L47.4,-29.37L47.28,-29.78L47.58,-30.09L47.36,-30.36L46.42,-30.98L44.85,-32.57L43.95,-32.93L43.62,-33.92L43.28,-34.13L42.53,-34.23L41.75,-34.13L41.56,-34.01L41.34,-33.85L40.7,-32.62L40.29,-32.18L39.2,-32.4L38.34,-32.69L37.63,-32.83L36.24,-32.95L34.64,-32.98L33.59,-32.09L33.14,-32.21L32.32,-32.64L31.01,-33L30.33,-33.27L32.32,-35.87L32.91,-37.45L32.95,-38.39L32.95,-39.58L31.97,-42L74.55,-42ZM-42,328.3L-41.78,328.1L-41.48,328.3L-40.73,328.9L-39.72,329.6L-39.23,329.4L-38.56,328.9L-38.04,328.3L-38.11,327.3L-37.66,325.2L-37.74,323.9L-37.25,322.4L-36.73,320.3L-36.47,318.9L-36.16,318.2L-34.71,316.7L-33.47,314.6L-32.65,313.1L-31.15,310.5L-30.36,309.6L-29.73,309.2L-28.79,309L-27.07,308.7L-25.84,308.5L-25.65,308.2L-25.54,307.7L-25.54,306.6L-25.28,304.6L-24.75,302.7L-24.12,301.3L-23.74,300.6L-23.33,300L-22.88,298.9L-22.28,296.6L-22.32,295.1L-21.5,292.2L-21.31,292.2L-19.89,291.6L-18.5,291.5L-17.16,291.9L-16.3,292L-15.88,291.8L-15.51,291.3L-15.17,290.6L-14.61,290.1L-13.86,290.1L-12.89,290.9L-11.28,293.3L-10.87,293.4L-10.61,293.3L-9.821,291.5L-9.185,290L-8.024,287.3L-7.351,285.8L-6.752,286.2L-6.116,287L-5.442,287.4L-4.694,287.6L-4.32,287.6L-3.871,288L-2.224,289.9L-1.663,290.3L-0.914,290.4L2.304,289.8L4.212,288.6L4.474,288.2L4.998,288.2L5.634,288.7L5.896,289.2L6.308,289.8L7.056,289.9L8.89,289.4L9.751,289.2L10.54,289.4L11.51,289.6L12.11,289.6L13.53,290.2L15.29,290L16.11,290L16.94,290.3L18.32,291.3L20.08,292.5L22.62,293.4L23.15,293.7L24.38,295.1L26.29,297.8L28.8,300.3L31.53,302.3L32.99,303.7L33.96,305.3L34.94,306.9L35.91,307.5L36.81,308.1L37.78,309.2L38.45,310.2L39.35,311.3L38.34,312.8L36.96,314.8L35.38,317.2L34.9,317.8L33.51,319.2L33.25,319.6L32.99,320.6L32.99,322.5L33.18,324.9L33.33,327.1L34.11,327.3L34.97,327.5L35.98,327.2L37.14,327L38.64,326.8L40.25,326.4L41.22,326L42.23,326L43.13,326.4L43.58,326.8L44.22,326.9L45,326.9L44.85,327.3L44.4,327.9L43.84,328.5L43.35,329.1L42.27,330.9L42.23,331.1L42.38,331.4L42.94,332.3L43.58,333.5L43.92,334.7L44.18,335.3L44.93,336L45.98,337.3L46.54,338.2L47.7,338.7L48.11,339.9L48.97,341.6L49.9,342.9L50.84,344L51.85,344.4L52.26,344.4L54.4,346.4L56.04,347.9L56.45,348.1L59.41,349.1L62.78,350.2L65.51,351.1L68.95,352.3L72.39,353.4L75.58,354.5L80.07,356L83.7,357.3L86.58,358.2L87.18,358.5L90.58,358.5L94.02,358.5L97.58,358.5L95,361L92.12,363.8L89.05,366.8L87.1,368.7L84,371.7L81.41,374.2L78.72,377L76.32,379.5L73.18,382.9L71.16,385.1L67.98,388.6L66,390.8L65.7,390.9L62.81,390.8L60.05,390.6L56.49,390.4L56.12,390.4L55.07,390.6L54.43,390.8L51.89,391.4L51.4,391.5L49.3,392.5L47.13,393.6L45.98,394.4L45.11,395.7L44.74,396.5L44.33,396.9L43.66,397.3L39.13,398.1L37.78,398.2L35.68,398.9L34.56,400L34.22,400.5L32.69,400.5L30.03,400.7L28.91,400.9L28.35,400.9L27.34,400.9L26.48,400.7L25.92,400.4L25.24,399.7L23.71,398.3L22.59,397.5L20.12,398.5L17.91,399.5L14.77,400.9L13.01,401.9L12.45,402.9L11.06,404.7L9.826,405.8L9.377,406L6.57,405.7L5.56,405.5L3.913,405.3L1.668,404.9L0.171,404.5L-1.476,404.4L-3.796,404.3L-5.255,404L-6.715,402.9L-8.623,401.7L-10.57,400.5L-12.59,399.2L-14.95,397.7L-17.53,396L-18.13,395.9L-18.39,395.8L-21.2,395.7L-24.12,395.7L-26.1,395.6L-26.7,395.4L-27.18,395.1L-27.78,393.8L-28.53,393L-29.39,391.9L-29.47,390.4L-29.24,388.8L-29.02,388.3L-29.13,387.7L-29.13,387L-29.58,386.3L-32.46,385.5L-32.95,385.6L-33.4,385.9L-33.96,386.1L-34.33,385.9L-34.59,385.6L-34.59,385.1L-34.56,384.8L-34.56,384.8L-34.71,384.6L-35.64,383.8L-36.5,382.9L-37.03,381.8L-37.51,380.9L-37.77,379L-38.41,377.8L-39.01,376.3L-39.95,373.5L-40.36,372.5L-41.1,371.9L-41.89,371.3L-42,371.1L-42,328.3ZM-21.5,292.2L-21.83,289.1L-22.06,287L-22.28,284.8L-22.51,282.8L-21.53,281.5L-21.05,280.3L-19.89,276.4L-19.4,275.6L-18.5,273.5L-18.35,272.9L-17.45,270.2L-17.53,268.4L-17.72,266.6L-17.23,265.6L-16.78,264.7L-16.82,264L-16.59,262.3L-16.44,261.9L-15.92,261.9L-14.8,262.1L-13.97,261.9L-13,261.9L-12.29,261.9L-11.84,261.4L-11.24,259.4L-10.87,259L-10.57,258.9L-9.708,258.6L-8.997,258L-8.399,257.6L-8.212,257.5L-7.575,257.4L-6.977,257.2L-6.677,256.9L-5.891,256.7L-5.143,256.8L-4.619,256.6L-4.282,256.4L-3.871,256.4L-3.534,256.2L-3.384,255.9L-3.16,255.6L-2.561,255.1L-2.262,254.8L-2.149,254.4L-2.037,254.1L-1.775,253.6L-0.727,252.3L0.171,251.6L3.314,257.9L4.587,261.6L5.709,265.5L6.57,271.3L7.356,274.3L8.628,275.7L9.489,278.5L10.28,278.6L10.8,279.3L11.73,281.9L12.41,282.8L12.74,282L12.71,281.6L12.45,280.8L12.71,279.7L13.23,279.1L14.39,279.9L15.06,280.6L15.25,281.9L15.51,282.6L16.75,284L17.8,284.5L19.18,284.6L20.3,284.9L21.24,285.4L22.96,287L26.85,288.3L30.03,292.3L31.87,295.1L37.97,299.3L39.01,301.4L39.58,303.3L40.85,303.2L43.06,305.4L43.69,307.1L45.49,307.7L45.83,306.7L46.69,307.5L47.02,308.7L45.86,309.2L44.59,309.7L44.44,309.6L43.99,310.2L43.39,311.8L42.76,312.2L42.38,312.3L40.4,310.8L40.1,310.7L39.69,311L39.35,311.3L38.45,310.2L37.78,309.2L36.81,308.1L35.91,307.5L34.94,306.9L33.96,305.3L32.99,303.7L31.53,302.3L28.8,300.3L26.29,297.8L24.38,295.1L23.15,293.7L22.62,293.4L20.08,292.5L18.32,291.3L16.94,290.3L16.11,290L15.29,290L13.53,290.2L12.11,289.6L11.51,289.6L10.54,289.4L9.751,289.2L8.89,289.4L7.056,289.9L6.308,289.8L5.896,289.2L5.634,288.7L4.998,288.2L4.474,288.2L4.212,288.6L2.304,289.8L-0.914,290.4L-1.663,290.3L-2.224,289.9L-3.871,288L-4.32,287.6L-4.694,287.6L-5.442,287.4L-6.116,287L-6.752,286.2L-7.351,285.8L-8.024,287.3L-9.185,290L-9.821,291.5L-10.61,293.3L-10.87,293.4L-11.28,293.3L-12.89,290.9L-13.86,290.1L-14.61,290.1L-15.17,290.6L-15.51,291.3L-15.88,291.8L-16.3,292L-17.16,291.9L-18.5,291.5L-19.89,291.6L-21.31,292.2ZM15.44,272.5L15.78,273.6L14.77,273.2L14.58,272.9L15.03,272.5L15.14,272.3ZM16.11,276.7L16.52,277.3L16.82,277.2L17.09,277L17.23,276.6L18.88,277.4L18.77,277.9L17.8,278L16.67,277.7L15.63,277.8L14.39,277.6L14.09,276.7L14.88,277.1L15.29,277L15.36,276.9L14.8,276.3L14.02,276.2L14.05,275.7L14.43,275.5L14.65,275.3L14.17,274.6L15.06,274.8L15.63,275.2L16,275.6ZM-42,109.9L-40.88,112.5L-40.09,115L-39.5,117L-38.71,120L-38.34,121L-38.9,121.6L-40.09,123.5L-41.33,129.6L-42,131.4L-42,109.9ZM-42,165.2L-41.85,165.4L-40.66,168.3L-38.86,171.8L-35.3,179.4L-33.21,181.7L-32.39,183L-30.85,184.1L-29.2,185.5L-30.78,185.4L-31.15,185.5L-31.71,185.7L-31.97,186.6L-32.09,187.3L-31.9,191.2L-31.49,193.1L-30.1,196.8L-29.05,197.9L-28.53,198.6L-27.86,199.1L-24.57,200.3L-22.62,203L-18.32,206.3L-17.9,207.2L-17.9,207.4L-17.9,207.4L-21.31,207.5L-24.71,207.5L-28.12,207.5L-31.52,207.5L-34.93,207.5L-38.34,207.5L-41.78,207.5L-42,207.5L-42,165.2ZM48.37,321.6L47.47,323L46.31,324.8L45,326.9L44.22,326.9L43.58,326.8L43.13,326.4L42.23,326L41.22,326L40.25,326.4L38.64,326.8L37.14,327L35.98,327.2L34.97,327.5L34.11,327.3L33.33,327.1L33.18,324.9L32.99,322.5L32.99,320.6L33.25,319.6L33.51,319.2L34.9,317.8L35.38,317.2L36.96,314.8L38.34,312.8L39.35,311.3L39.69,311L40.1,310.7L40.4,310.8L42.38,312.3L42.76,312.2L43.39,311.8L43.99,310.2L44.44,309.6L44.59,309.7L45.86,309.2L47.02,308.7L47.17,309.2L48.93,311.3L49.49,312.4L50.09,314.3L49.75,315.3L49.3,316L48.63,316.6L46.31,318.1L43.73,319L42.08,320.9L40.85,320.8L41.03,321.5L41.48,321.6L42.2,321.5L43.62,320.9L44.89,320.7L46.27,320.6L47.51,320.9ZM402,46.55L400.2,46.08L398,45.3L396.8,44.68L396.4,44.46L395.4,43.81L394.7,43.26L394.6,41.79L394.1,41.9L392.9,42.44L391.4,42.77L390.7,42.77L390.4,42.55L389.9,40.99L389.6,40.56L388.9,40.39L388.3,40.12L387.9,39.72L387.9,39.2L388.2,38.62L388.5,38.17L388.6,35.42L388.3,34.44L388.2,33.63L387.6,32.59L387.2,31.96L386.5,31.38L385.4,30.77L384.4,30.55L383.2,30.97L382.8,30.82L382.4,28.92L382.1,28.54L380,27.75L379,27.57L377.9,27.82L377.3,28.02L376.8,27.68L376,27.25L375.2,26.94L374.3,26.94L373.7,27.12L373.5,27L373.2,26.66L372,25.62L371.9,25.35L373.9,24.33L375,23.93L375.6,23.63L375.7,23.68L376,24.17L376.8,24.47L377.3,24.4L377.6,24.15L378.5,23.59L379.3,22.93L379.7,22.38L379.5,21.52L378.3,20.5L377.6,19.93L377.3,19.56L377.5,18.42L377.8,17.3L377.6,16.87L377.4,16.5L377.3,15.29L376.8,13.8L376.3,12.93L376.1,11.76L376.1,10.68L376.7,8.958L376.5,8.221L375.8,7.552L373.4,6.353L370.9,5.567L370,5.59L369.4,5.544L368.7,6.237L368.3,7.16L367.8,7.253L366.7,6.86L366,6.26L365.5,5.035L365.1,3.462L364.9,2.975L365,2.558L365.3,2.164L365.9,1.816L366,1.445L365.9,1.004L365.4,0.423L364.8,-0.367L364,-2.043L364.1,-2.975L364.3,-4.306L364.2,-5.006L365.1,-5.17L366.2,-5.544L366.8,-6.129L367.1,-6.737L367.2,-7.112L366.8,-8.589L366.4,-9.222L366.3,-9.739L366.6,-10.12L366.9,-10.8L367.4,-12.16L368,-13.03L368.3,-13.24L369,-13.46L370.6,-13.69L372.3,-14.31L374.4,-16.15L375.1,-16.67L376,-16.93L376.7,-16.91L376.8,-17.14L376.4,-18.28L376.5,-18.68L376.7,-19.02L377,-19.16L378.5,-18.57L379.6,-18.64L381,-18.99L383.9,-21.01L384.2,-20.96L384.5,-20.7L384.9,-19.49L385.3,-16.93L385.5,-16.6L387.5,-16.58L388.9,-17.5L389.5,-17.71L390.5,-17.57L391,-18L391.5,-18.3L392.2,-17.24L393,-17.76L393.8,-18.57L394.3,-19.42L394.9,-20.32L395.3,-21.49L395.5,-22.58L395.7,-23.08L396.2,-23.61L397.4,-25.87L398.3,-26.45L399.1,-26.66L401.1,-26.26L402,-26.3L402,46.55ZM124.9,163.2L124.6,164.1L124.2,163.8L123.4,162.3L123.7,161.2L123.3,159.7L123.5,159.2L124.4,159L124.7,159.1L124.4,159.6L124.9,160.4L125,161.8ZM64.72,-7.721L64.35,-8.167L64.2,-8.424L65.21,-8.636L66.93,-9.269L67.42,-8.964L67.9,-8.331L68.17,-7.791L68.2,-6.808L68.39,-6.644L69.25,-6.971L69.59,-6.573L70.26,-6.082L71.35,-5.614L72.96,-6.363L73.74,-6.55L74.42,-6.527L74.75,-6.293L74.9,-5.521L74.75,-4.562L74.56,-4.049L74.9,-3.675L76.21,-2.742L76.77,-2.253L76.51,-1.368L77.48,0.795L77.82,1.63L78.19,2.651L76.17,2.257L72.58,1.398L71.61,0.934L70.67,-0.251L70.11,-0.833L69.25,-1.577L68.58,-1.857L68.09,-2.393L67.79,-3.162L67.34,-3.839L66.59,-4.656L64.91,-7.416ZM106.8,8.544L106.5,8.521L104.4,9.027L103.9,8.866L102.1,6.537L101.8,6.283L101,6.191L100.5,5.798L100.1,5.174L99.94,4.712L98.03,3.439L97.77,2.975L97.73,2.581L97.99,2.21L98.33,1.886L99.23,1.584L100.3,1.305L100.6,1.12L100.8,0.771L100.8,0.237L100.6,-0.298L99.11,-1.275L98.93,-1.694L98.89,-2.206L98.96,-2.742L99.19,-3.162L100.5,-3.745L101.1,-4.329L100.7,-4.983L99.38,-6.503L97.77,-8.167L96.68,-8.19L95.45,-7.698L93.46,-6.269L92.34,-5.661L90.92,-4.656L89.35,-3.535L88.07,-2.369L87.29,-1.391L85.87,-0.972L85.16,-0.135L82.76,2.303L82.09,2.28L82.05,1.05L82.09,0.098L81.94,-0.46L81.19,-1.228L81.15,-1.554L81.38,-1.74L81.97,-1.624L82.72,-1.67L83.1,-1.973L82.27,-2.975L81.56,-3.652L80.93,-4.095L80.81,-4.376L80.81,-4.562L80.93,-4.796L81.97,-5.357L82.09,-5.848L82.01,-6.433L80.36,-7.276L79.09,-6.948L77.97,-7.909L77.26,-8.636L76.36,-9.41L75.58,-9.856L74.83,-10.84L73.48,-11.86L72.62,-12.14L72.66,-12.3L72.81,-12.49L73.14,-12.63L75.54,-12.61L75.8,-12.77L75.95,-13.22L76.29,-13.86L76.66,-14.83L76.62,-15.63L74.27,-16.93L72.54,-18.11L71.35,-19.7L70.52,-21.15L70.56,-21.63L70.78,-22.08L72.62,-23.42L72.77,-23.77L72.73,-24.01L72.06,-24.7L71.23,-25.4L70.97,-25.92L70.45,-26.18L69.44,-26.21L67.72,-27.07L67.34,-27.17L67.27,-27.33L67.34,-27.5L68.58,-27.86L68.58,-28.15L68.2,-28.53L67.49,-28.82L66.86,-29.52L66.63,-30.14L68.88,-31.97L69.51,-32.33L71.01,-31.99L74.04,-30.79L73.85,-30.11L74.15,-29.73L74.86,-29.2L76.17,-28.7L77.33,-28.41L77.89,-28.65L78.79,-28.84L79.92,-28.24L80.96,-27.48L81.49,-27.17L81.75,-27.09L82.57,-27.33L83.51,-28.32L83.88,-29.52L84,-30.07L83.43,-30.86L82.27,-31.73L81,-32.47L80.18,-33.15L79.65,-34.45L79.13,-34.59L78.98,-34.76L78.91,-35.22L78.91,-35.85L79.09,-36.33L79.62,-36.53L80.14,-36.6L80.63,-37.06L81.23,-37.98L81.49,-38.46L82.61,-38.17L82.76,-37.37L82.95,-37.2L83.4,-37.3L84.18,-37.64L84.78,-37.37L85.57,-36.41L86.69,-35.39L87.29,-34.71L87.51,-34.26L88.07,-33.8L88.9,-33.24L89.53,-32.42L90.09,-30.48L90.69,-30.02L92.83,-29.27L93.54,-29.13L95.63,-28.87L96.34,-29.06L97.43,-30.72L98.36,-32.45L99.26,-32.81L100.9,-33.65L101.8,-34.45L102.3,-35.29L103.2,-36.91L103.8,-37.83L104.7,-37.01L106.4,-34.84L108.7,-31.29L109.3,-30.28L109.7,-29.13L110,-27.72L110.5,-26.47L112.9,-23.37L114,-22.22L115.7,-20.73L116.3,-20.39L117,-20.32L118.5,-20.3L119.8,-19.73L120.5,-19.32L121.2,-18.73L121.8,-18.07L122.4,-16.24L120.1,-16.84L117.7,-16.74L116.4,-16.36L115.1,-15.84L113.9,-15.09L113.1,-13.62L112.5,-10.28L111.6,-7.135L111.6,-5.708L112,-4.329L111.9,-3.652L111.5,-3.372L111,-2.789L110.3,0.051L109.9,0.632L109.4,0.98L109.3,0.632L109.3,-0.112L108.3,-0.763L107.8,-0.019L107.4,1.538L106.7,3.184L106.6,3.485ZM72.36,-20.84L72.47,-21.3L72.17,-21.51L71.87,-21.51L71.57,-21.3L71.57,-20.73L71.94,-20.61ZM66.86,-26.5L66.63,-26.33L66.3,-26.5L66.18,-26.83L66.22,-27.21L66.56,-27.29L66.82,-27.19L66.89,-26.86ZM64.2,-8.424L63.83,-9.011L62.03,-10.91L60.38,-12.4L59.22,-12.99L58.06,-12.94L56.27,-12.63L55.59,-12.75L54.06,-13.41L52.75,-14.16L52.94,-14.47L53.2,-14.71L52.86,-15.7L52.15,-17.29L52.22,-17.81L52,-18.49L51.74,-19.02L52.75,-20.27L53.23,-21.27L53.35,-22.27L53.05,-23.3L52.37,-25.13L51.96,-25.68L51.21,-26.18L50.54,-27L50.39,-27.6L50.91,-27.72L52.52,-27.72L54.06,-27.93L55.26,-28.32L57.01,-28.63L57.73,-28.91L58.59,-29.06L61.13,-28.75L62.07,-28.99L64.95,-29.04L65.02,-29.16L64.65,-29.54L64.65,-29.71L66.37,-29.95L66.63,-30.14L66.86,-29.52L67.49,-28.82L68.2,-28.53L68.58,-28.15L68.58,-27.86L67.34,-27.5L67.27,-27.33L67.34,-27.17L67.72,-27.07L69.44,-26.21L70.45,-26.18L70.97,-25.92L71.23,-25.4L72.06,-24.7L72.73,-24.01L72.77,-23.77L72.62,-23.42L70.78,-22.08L70.56,-21.63L70.52,-21.15L71.35,-19.7L72.54,-18.11L74.27,-16.93L76.62,-15.63L76.66,-14.83L76.29,-13.86L75.95,-13.22L75.8,-12.77L75.54,-12.61L73.14,-12.63L72.81,-12.49L72.66,-12.3L72.62,-12.14L73.48,-11.86L74.83,-10.84L75.58,-9.856L76.36,-9.41L77.26,-8.636L77.97,-7.909L79.09,-6.948L80.36,-7.276L82.01,-6.433L82.09,-5.848L81.97,-5.357L80.93,-4.796L80.81,-4.562L80.81,-4.376L80.93,-4.095L81.56,-3.652L82.27,-2.975L83.1,-1.973L82.72,-1.67L81.97,-1.624L81.38,-1.74L81.15,-1.554L81.19,-1.228L81.94,-0.46L82.09,0.098L82.05,1.05L82.09,2.28L80.29,2.187L78.76,2.767L78.19,2.651L77.82,1.63L77.48,0.795L76.51,-1.368L76.77,-2.253L76.21,-2.742L74.9,-3.675L74.56,-4.049L74.75,-4.562L74.9,-5.521L74.75,-6.293L74.42,-6.527L73.74,-6.55L72.96,-6.363L71.35,-5.614L70.26,-6.082L69.59,-6.573L69.25,-6.971L68.39,-6.644L68.2,-6.808L68.17,-7.791L67.9,-8.331L67.42,-8.964L66.93,-9.269L65.21,-8.636ZM66.86,-26.5L66.89,-26.86L66.82,-27.19L66.56,-27.29L66.22,-27.21L66.18,-26.83L66.3,-26.5L66.63,-26.33ZM72.36,-20.84L71.94,-20.61L71.57,-20.73L71.57,-21.3L71.87,-21.51L72.17,-21.51L72.47,-21.3ZM290.3,22.86L293.5,22.56L296,23.04L297.3,24.36L298.6,24.67L299.9,24.04L300.7,23.93L301,24.33L301.6,24.51L302.6,24.45L303.1,24.81L303.2,25.17L303.2,25.58L304,26.57L305.3,27.77L306.4,28.07L307.9,27.14L308.4,27.25L308.6,26.94L308.8,26.26L309.7,25.62L311.4,25.01L312.3,24.49L312.6,24.04L313.2,23.93L313.8,24.04L314.3,23.88L314.4,23.47L314.6,23.29L314.9,23.13L315.1,23.06L315.7,23.18L316.6,23.95L318,25.35L318.9,26.01L319.2,25.89L319.8,25.46L320.4,24.7L320.5,23.61L320.2,22.2L320.5,21.06L321.2,20.18L322.6,19.65L324.6,19.45L325.9,19.56L326.3,20.02L326.9,20.27L327.7,20.31L328.4,19.81L329.1,18.72L329.1,17.39L328.5,15.82L328.7,15.32L329,15.09L329.7,14.52L330.8,13.32L331.9,11.76L332.9,9.879L334.1,8.728L335.6,8.267L337.4,8.774L339.5,10.25L340.3,12.06L339.8,14.19L339.8,15.38L340.2,15.61L340.9,15.54L341.9,15.2L342.6,15.2L342.9,15.5L342.9,16.09L342.5,17.01L342.1,19.54L341.9,21.72L341.6,23.86L341.4,25.76L341.8,27.21L342.4,29.42L343.1,30.88L343.8,31.36L344.5,31.51L345.2,31.38L346.7,30.46L348.9,28.7L351,27.64L354.1,27.03L355.2,25.17L356.6,23.93L359.9,22.09L361.6,21.38L362.7,21.25L363.9,21.59L364.2,21.7L364.5,21.79L365.1,21.95L365.3,22.52L365.1,23.11L364.4,23.61L364.2,23.99L364.5,24.29L365.4,24.4L367.5,23.72L368.8,23.29L369.8,23.11L370.2,22.54L370.8,22L371.7,21.95L372.7,22.25L373.5,22.43L374.9,22.27L375.7,22.75L376.7,23.68L377.2,24.27L377.3,24.4L376.8,24.47L376,24.17L375.7,23.68L375.6,23.63L375,23.93L373.9,24.33L371.9,25.35L372,25.62L373.2,26.66L373.5,27L373.7,27.12L372.6,27.61L370.1,28.74L368.5,29.67L368.1,29.71L367.1,29.33L365.7,28.86L365.3,28.88L361.9,28.95L358.9,29.13L357.6,29.35L355.2,29.55L353.7,29.62L352.8,29.98L351.7,30.46L350.7,30.75L349.9,30.86L348.9,31.29L348.3,32.17L346.4,33.45L345.4,34.08L344.9,34.77L344.3,34.84L343.3,34.73L342.5,35.49L341.7,36.56L340.1,38.13L339.3,38.78L338.8,39.81L339.2,40.34L340.4,41.12L341,41.88L341.3,42.48L341.9,43.99L342.3,45.5L342.8,46.15L343,47.26L343.1,47.92L342.8,48.41L342.5,48.94L342.5,49.45L342.9,49.95L343.2,50.42L343.3,50.79L343.1,51.19L342.5,51.83L342.2,52.47L341.6,53.53L340.6,54.25L339.9,54.78L339.2,55.9L338.1,57.15L337.6,58.19L337,58.76L336.5,59.06L336.7,59.61L337.1,60.31L337.9,61.08L337.8,62.3L337.8,63.17L337.8,64.22L337.4,65.11L335.3,65.96L333.3,66.33L330.8,66.35L329.9,66.22L329.1,66.03L326.4,65.07L325.3,65.63L325.1,67L327,69.24L327.9,70.48L328.8,72.53L329.4,73.61L329.2,74.61L327.4,75.73L325.7,76.79L323.4,77.02L322,77.39L321.3,77.95L320.8,80.25L320.3,81.11L320.3,82.12L319.8,83.25L319.1,84L318.6,85.18L318.7,87.46L319,91.3L318,92.49L316.9,93.72L315.8,94.59L314.7,94.99L313.8,94.84L313.1,94.08L312.7,93.47L311.9,92.93L311.1,93.04L310.3,93.53L309,93.36L307.9,92.87L307.4,92.93L307,93.42L305.9,94.46L303,96.03L301.8,96.16L301.3,96.54L301.5,97.19L302,97.72L302.9,98.1L302.9,98.53L302.2,98.91L301.5,99.33L300,99.86L298.3,100.1L296.5,99.75L295.6,99.05L294.5,98.99L293.5,99.5L292.5,100.3L291.4,102.2L291.1,102.5L290.8,102.7L290.1,103.1L289,103.8L288.5,105.1L287.9,107.5L288,108.7L288.1,110.9L287.8,112.5L287.4,113.5L287.5,114.2L288.2,115.1L287.9,115.7L287.3,116.4L286.7,116.7L284.5,117.4L281.4,118.3L279.4,118.9L276.4,119.8L275.5,120L273.6,120.1L272.7,120L271.4,120L269.5,120L268.2,120.2L266.9,120.7L265.9,121.2L265.3,121.8L265.2,122.1L263.8,121.6L259.6,120.8L248.3,121.8L247.2,121.6L243.3,120.4L238.4,118.8L235.3,117.8L231.3,116.5L234,113.2L236.4,110.4L238.7,107.6L241.1,104.7L241.4,103.8L241.4,101.8L240.8,99.24L239.8,98.06L236.5,97.58L234.1,97.22L231.4,96.83L231.1,96.69L230.8,94.67L230.9,93.76L230.7,92.02L230.7,90.68L231.1,88.44L231.1,87.46L229.9,83.15L229.2,80.74L228.5,78.25L228.4,77.45L228.4,76.48L230,74.18L230.5,73.68L231.5,72.51L232.1,71.91L232,71.5L230.9,71.24L229.3,71.21L228.5,70.87L227.8,70.24L227.6,69.33L228,67.7L227.6,64.55L228.4,62.98L229.2,61.86L231.8,61.71L230.9,60.46L230.5,59.74L230.2,59.54L230.1,59.22L230.2,58.87L230.9,58.76L231.3,58.34L232,57.75L232.4,57.51L232.5,56.78L232.8,56.28L233.3,55.66L233.8,54.94L233.6,54.1L234,53.09L234.2,52.47L234.5,51.92L234.2,51.12L234,50.44L234,49.65L234.4,49.45L234.9,49.14L235,48.52L235.3,47.72L235.5,47.08L235.8,46.57L235.9,46.06L235.7,45.21L236.5,45.1L236.9,45.55L237.3,46.17L238.6,47.28L239.4,47.61L240.4,47.79L241.7,47.63L242.7,47.41L243.1,47.48L244.2,48.27L245.5,49.42L246,49.93L246.1,50.7L246.5,50.95L247.3,50.17L248.1,49.91L248.9,50.06L249.7,50.15L250.5,49.87L250.8,49.67L252.2,48.67L253.5,47.9L254.3,47.43L254.6,45.88L254.9,44.99L255.5,44.46L255.3,43.84L255,43.33L254.8,42.68L255,42.32L255.6,42.17L256.8,42.17L259.1,41.46L261,40.77L262.7,40.19L263.5,40.1L264.2,40.19L264.6,40.03L264.6,39.47L265.1,38.89L266,38.42L267.8,37.44L269.4,35.96L270,34.84L270.4,33.2L271.1,30.66L271.9,27.86L272.2,26.64L272.6,25.69L274,24.9L275.4,24.31L277.7,24.2L280.3,24.13L280.8,22.61L281.2,21.31L281.6,20.63L282.2,20.09L282.4,19.97L283.9,20.77L286,22L288.5,22.61L289.8,22.9Z" fill="#D8E2E7" stroke="#3F464B" stroke-width="0.85" vector-effect="non-scaling-stroke"/><path d="M209.2,227.3L208.6,227.4L208.4,227.3L208.4,225.9L209.9,224.2L210.9,222.1L211.6,223.9L210.4,225L209.8,226.7ZM150.6,266.4L150,264.9L149.4,263.5L148.8,262.1L148.1,260.7L147.7,259.6L146.9,259.3L146.5,258.2L146,257.1L145.6,256L145.1,255L144.7,253.9L144.2,252.8L143.8,251.7L143.3,250.6L142.8,249.5L142.4,248.4L141.9,247.3L141.4,246.2L141,245.1L140.5,244L140.1,242.9L139.6,241.8L139.2,240.7L140.6,240.2L142.4,239.6L144.2,239L146,238.3L147.8,237.7L149.6,237.1L151.3,236.4L153.1,235.8L154.9,235.2L156.7,234.6L158.5,233.9L160.3,233.3L162.1,232.7L163.9,232L165.6,231.4L167.4,230.7L169.2,230.1L170.3,229.7L170.8,228.2L171.2,227L171.5,225.8L171.9,224.6L172.3,223.3L172.7,222.1L173.1,220.9L173.4,219.6L173.8,218.4L174.2,217.2L174.6,216L175,214.7L175.3,213.5L175.7,212.2L176.1,211L176.5,209.8L176.9,208.5L177.2,207.4L176.6,206.3L175.7,204.8L174.7,203.3L173.9,201.8L173.2,200.8L172.5,199.5L172.6,197.8L172.6,197L172.6,195.8L173.4,194L174.2,191.8L174.9,190.3L175.4,189L175.8,187.9L176.1,186.9L175.9,186.1L175.7,185.9L175.4,185.5L176.2,184.9L177.8,184.6L178.7,184.6L179.8,184.4L180.8,184.1L180.9,183.8L180.6,183.2L180.2,182.4L178.9,182.3L178.4,182.1L178.9,180.8L178.9,180.5L178.7,180L178.6,179.2L178.6,178.2L178.9,177.6L178.9,177L178.8,175.9L178.8,174.9L179.1,174.4L179.6,173.9L180.1,173.7L180.6,173.7L181,173.9L181.1,174.5L181,174.8L180.7,174.9L180.7,175L181,175.7L181.6,176.4L182,176.3L182.6,175.7L183.1,175.3L183.7,174.9L184.2,174.2L184.6,173.7L185,173.6L186,176.6L187.6,179.5L189,181L190.4,183.1L192.6,185L193.6,185.7L197.7,187.1L199.9,187.6L203,188L205.1,189.1L205.8,189.1L206.9,188.9L207.7,188.9L209.8,190.3L210.4,191.7L211.2,192.4L212,193.5L212.5,194.7L214.1,196.5L215.4,198.5L216.6,200L217.7,200.9L219.3,201.3L220.7,201.7L220.8,202.7L220.7,204L220.4,204.9L219.2,206.8L218.9,208L217.5,209.8L216,213L215.3,213.7L212.8,215.4L211,217.3L208.9,220.7L207.3,224.1L206.7,225.2L205.4,225.4L204.5,225.3L203.9,225L204.2,224.1L204.3,223L203.5,223.1L202.8,223.4L201.2,225.9L200.3,227L200.1,228.4L199.7,230.2L199.1,231.8L198.8,233.2L198.8,234L199.3,235.9L199.3,237.9L199.6,239.1L199.8,240.5L199,241L198.4,241.2L195.8,241.3L193.2,241.8L190.9,242.6L189.5,243.4L187.8,245.2L186.7,249.8L184.9,251.8L183.8,252.2L180.9,252.4L176.9,252.9L175.5,253.4L173.2,256.2L173,257.1L173.5,257.7L173.6,258.4L173.4,259.1L172.3,260.9L171.2,262.1L168.2,262.9L167.1,262.5L166.1,262.2L164.1,262.2L160.9,262.5L159.7,263.5L157.8,264.1L156.1,265.2L152.9,265.6ZM184.1,165.9L183.8,166.2L183.5,166.2L182.9,166L182.5,165.5L182.5,164.8L182.6,163.6L182.8,162.5L182.7,161.3L182.2,161.1L181.8,161.1L182.7,159.5L183,159.2L183.3,159.3L184.1,159.2L184.5,158.3L184.9,157.7L185.3,157.8L185.4,158.1L185.3,159.5L185.3,160.6L184.8,164.1L184.4,164.7L184.1,165.2ZM183.9,170.7L183.5,171L183.1,171L183.2,170.3L183.4,169.9L183.8,169.9L183.9,170.2Z" fill="#8B341D" stroke="#2C160F" stroke-width="1.1" vector-effect="non-scaling-stroke"/></svg>