<svg xmlns="http://www.w3.org/2000/svg" viewBox="0 0 360 440" width="360" height="440" role="img" aria-label="Regional map with Philippines highlighted"><rect width="100%" height="100%" fill="#7FA6D6"/><path d="M-42,166.5L-41.46,166.5L-37.85,167.5L-37.36,167.4L-35.38,165.6L-34.65,164.5L-34.47,163.6L-34.11,163L-33.08,162.1L-33.08,161.2L-33.57,160.1L-34.07,159.6L-34.52,159.4L-35.96,159.6L-36.23,159.3L-36.41,158.5L-36.5,157.9L-36.95,157.3L-38.48,156.8L-39.79,156.7L-40.11,156.4L-39.61,155.8L-38.71,155.3L-38.03,154.9L-37.49,154.3L-37.4,153.7L-38.08,153.1L-38.94,152.5L-40.33,151.4L-42,150.3L-42,124.6L-42,124.6L-41.73,125.1L-40.96,125.9L-40.06,126L-38.12,124.6L-37.45,124.4L-36.77,124.4L-36.1,124.4L-35.42,123.9L-34.74,123.2L-34.52,121.8L-34.34,120.6L-33.89,120.1L-33.3,119.8L-32.22,119.3L-29.83,118.1L-29.2,117.6L-28.75,117.3L-27.8,117.8L-26.68,118.8L-26,119.5L-25.55,120.3L-25.33,121L-23.52,121.5L-22.4,122.4L-21.63,123L-20.86,123L-20.14,122.8L-19.65,122.3L-18.79,122.3L-17.8,122.4L-17.35,122.6L-16.54,123.7L-16.18,123.9L-15.41,123.8L-14.02,123.4L-12.89,123.2L-11.85,123.7L-9.915,125L-10.46,125.9L-10.86,126.9L-11.72,127.6L-12.39,127.7L-12.75,128.7L-12.93,130.2L-12.75,130.9L-12.26,131.1L-11.72,131.6L-11.49,132.2L-11.4,133.7L-11.45,135.3L-11.36,135.8L-10.95,135.7L-10.55,135.5L-9.734,135.7L-8.698,136.2L-8.067,136.6L-7.526,136.5L-7.076,136.9L-6.895,137.7L-6.355,138.3L-4.913,139.3L-3.741,139.4L-2.75,140.8L-1.713,140.3L-1.263,140.9L0.855,140.7L2.342,140.1L2.883,140.3L4.235,141.4L5.046,142.1L5.046,142.1L4.46,142.3L2.973,142.3L1.711,143.5L0.81,144L-0.542,144.4L-2.029,145.1L-2.434,146.4L-2.479,147.2L-2.705,148.2L-5.093,149.6L-5.769,149.5L-6.22,149L-6.895,149.1L-7.391,149.3L-7.932,149.3L-8.563,149.6L-9.374,149.5L-10.14,149.1L-10.59,149L-11.13,148.9L-11.22,149.5L-10.46,151.5L-10.23,152.5L-12.75,155.3L-12.48,157.1L-13.16,158.5L-14.69,159.6L-17.57,162.4L-18.88,162.5L-19.87,163.1L-21.99,167.8L-22.04,169.4L-22.35,170.6L-22.26,171.7L-23.21,173.9L-24.2,174.8L-24.38,176L-23.03,178.5L-22.85,179L-22.08,180.3L-21.68,181.2L-21.05,182.2L-18.84,184.6L-17.85,185.4L-16.67,185.9L-14.51,188.1L-13.43,189.5L-13.93,190.4L-13.65,192.5L-15.23,191.9L-15.01,192.1L-13.2,193.2L-10.46,197.1L-8.067,199L-5.634,201.2L-4.868,203.3L-2.705,204.6L-0.271,206.6L-0.361,207L0.269,207.6L1.937,208.6L2.928,209.7L3.289,210.8L3.874,210.9L4.595,210.7L5.271,210.6L5.722,210.7L6.488,211.8L7.479,212.9L7.975,213.8L8.381,213.7L8.696,213.8L8.786,214.6L8.966,215.1L10.32,216.6L10.95,218.1L12.62,220.4L13.79,221.7L14.69,222.4L15.64,223.1L16.63,225.6L17.12,227.9L18.16,230.5L18.97,231.6L18.97,233.8L19.6,235.9L20.28,237.4L20.5,238.9L20.68,239.6L20.95,240.2L21.67,242.8L21.49,243.9L21,242.8L21.04,246.2L21.49,248L21.27,250.2L21.76,251L22.62,253.4L23.21,254.3L23.16,257.4L23.48,258.9L22.66,258L22.08,257L21.31,257.5L20.64,258.3L21.72,261.6L20.46,261.3L20.59,265.7L21.09,266.7L21.13,267.2L21,267.8L20.64,267.1L20.59,266.5L20.37,266.6L20.41,266.9L19.96,267.7L19.87,268.7L20.28,269.5L20.37,270.1L20.05,270.9L19.56,271.7L18.38,271.8L18.11,273.4L17.71,275.1L15.64,275.3L14.15,276.8L12.26,277.4L10.59,278.9L8.786,280.2L7.569,280.4L6.578,280.7L5.407,282.9L3.424,283.2L-0.091,285L-1.263,285.9L-2.344,286.3L-3.876,287L-4.192,286.8L-4.732,286.1L-6.039,285.8L-6.715,285L-6.895,284.1L-7.076,283.7L-7.346,284.2L-7.571,286.5L-7.797,287L-8.383,287.2L-9.509,286.6L-10.55,285.3L-12.08,286.2L-11.63,286.3L-10.91,286.2L-10.37,286.4L-9.915,287.3L-9.96,287.8L-10.19,288.3L-11.63,288.4L-13.52,288.2L-13.84,288.3L-12.12,289.2L-10.55,289.6L-9.825,290.2L-9.825,290.6L-10.73,291.3L-11.4,292.2L-11.45,292.8L-11.45,293.4L-12.21,293.9L-12.71,293.8L-14.06,292.9L-17.94,289.3L-17.35,290.3L-13.29,294.4L-12.62,295.7L-12.48,296.7L-12.93,297.1L-13.61,297.7L-14.92,297.7L-17.13,296.2L-20.59,292.6L-21.77,292.1L-18.25,296.2L-17.66,297.3L-17.08,298.4L-17.26,299.1L-17.57,299.8L-25.91,303.6L-27.17,305.3L-28.16,307.3L-29.79,308.4L-30.73,309.5L-33.53,310.1L-35.06,309.9L-33.48,308L-34.47,307.3L-34.52,302.4L-34.11,297.1L-33.39,294.4L-32.36,293.8L-31,293.4L-31,292.8L-31.14,292.1L-31.82,291.2L-32.63,290.8L-33.75,290.6L-34.65,289.5L-35.33,289.6L-36.41,289.9L-37.04,289.4L-37.27,288.7L-38.26,287.8L-39.34,286.9L-38.84,286.7L-38.26,286.2L-37.63,285.5L-36.05,285.4L-34.47,285.5L-34.07,285.3L-33.44,284.6L-32.4,283.7L-31.59,283.2L-31.41,282.8L-31.73,281.8L-31.91,280.8L-31.59,280.5L-30.19,280.7L-28.61,281.1L-28.25,281.3L-27.35,280.1L-27.08,280L-26.5,280L-24.96,279.8L-23.43,279.4L-22.71,279.5L-22.04,280.3L-21.5,281.1L-21.23,281.2L-20.46,280.8L-19.78,281.2L-18.43,282L-17.62,282L-18.03,280.4L-17.57,279.2L-17.66,278.9L-18.43,278.4L-21,276.2L-21.45,275.6L-21.41,274.6L-21.5,273.1L-21.72,272.2L-21.68,271.7L-21.54,271.3L-21.05,271.1L-20.59,271L-20.23,270.7L-19.6,269.7L-18.39,269.8L-16.67,270.3L-15.41,270.7L-14.65,270.6L-14.51,270.5L-14.51,269.9L-14.42,267.7L-14.47,267.3L-13.43,267L-11.76,267L-10.91,266.9L-10.1,265.9L-8.022,265.6L-6.49,264.3L-5.138,263L-4.507,262.7L-3.651,262.5L-3.02,262.5L-2.209,263.3L-1.578,262.8L-0.812,261.9L-0.407,261.1L-0.181,259.7L-0.361,257.5L-0.722,255.9L-1.128,254.6L-1.218,253.4L-0.316,250.9L0.45,248.1L0.269,247.1L-0.542,245.4L-1.353,243.3L-2.254,241L-2.615,240.7L-2.84,240L-3.02,239.3L-2.615,236.9L-2.569,236.1L-1.533,235.1L-0.992,233.8L-0.452,232.5L-0.632,231.8L-0.722,230.3L-0.587,229.6L-0.812,229.1L-1.128,228.2L-0.947,227.7L-0.181,227.2L0.224,226.4L0.765,225.5L1.035,224.7L0.63,223.9L-0.091,222.9L-1.398,221.9L-2.885,220.7L-3.651,219.9L-4.237,219.2L-4.778,218.3L-5.048,217.6L-4.778,217.1L-2.615,216L-2.254,215.6L-2.029,215L-2.164,214.4L-2.75,214.1L-3.426,213.9L-4.417,213.2L-6.265,211.3L-7.121,210.9L-8.022,210.4L-8.473,209.8L-9.013,208.3L-9.239,208.1L-9.734,208.6L-10.41,209.1L-10.95,209L-11.45,208.6L-11.67,208L-12.21,207.1L-12.84,206.5L-12.98,204.3L-13.07,203.5L-13.38,202.5L-13.84,202.2L-14.33,201.9L-15.5,200L-16.27,199.1L-19.6,196.5L-20.01,196.1L-20.86,195L-22.44,193.5L-23.52,192.3L-24.34,191L-24.7,189.9L-24.83,189L-25.69,187.8L-26.45,186.8L-27.17,186.4L-27.98,186.3L-28.75,185.7L-30.15,184.3L-30.73,183.5L-31.09,182.9L-31.09,182.3L-30.78,181.3L-30.37,180.7L-30.33,180.2L-30.73,179.9L-32.27,179.2L-35.73,178.2L-37.04,177.4L-38.21,176.5L-39.12,175.8L-42,173.9L-42,166.5ZM-11.94,308.8L-12.3,308.8L-12.57,308.6L-11.4,307.8L-11.54,308.3L-11.49,308.6ZM-5.048,287L-6.084,287.8L-6.174,287.2L-5.273,286.8L-4.958,286.4L-4.687,286.4ZM-8.833,151.4L-8.968,151.7L-9.599,151.1L-10.05,150.8L-9.689,149.9L-8.968,150.8ZM0.405,146.1L-1.398,147.7L-2.074,147.7L-1.488,145.8L-1.173,145.4L-0.091,146ZM-0.632,149.9L-1.308,150.3L-2.164,150.2L-1.173,149.6L-0.632,148.8L-0.226,148.5L-0.271,149.2ZM-6.76,152.3L-7.256,152.4L-8.247,151.3L-7.752,150.7L-6.58,151.2L-6.355,151.4L-6.355,151.6L-6.625,152.2ZM382.7,298.4L381.7,299.5L381.7,299.1L381.9,298.5L382.4,297.8L382.7,297.4L383.2,297.3L383.6,297.9L383.2,298.4ZM-42,189.3L-40.65,191.2L-39.34,192.8L-37.94,193.9L-36.5,194.8L-35.42,195.9L-34.47,198L-35.2,200.9L-35.38,203.4L-35.28,206.5L-34.43,208.9L-32.81,210.5L-31.86,211.9L-31.59,212.9L-30.33,213.8L-28.03,214.5L-27.08,215.1L-27.49,215.7L-27.49,216.4L-27.17,217.2L-26.41,217.8L-25.15,218.3L-24.38,218.9L-24.15,219.5L-24.2,220.4L-24.47,221.6L-25.01,222.6L-25.78,223.3L-25.87,223.8L-26.05,224.6L-26.05,226.3L-25.51,227.4L-25.33,228.8L-25.64,230L-25.91,232.4L-25.96,233.3L-26.23,234L-26.9,234.8L-27.89,235.5L-29.11,236.1L-29.88,236.4L-30.06,236.6L-30.6,237.3L-31.27,238L-31.77,238L-32.13,237.6L-32.4,237.2L-32.58,236.2L-33.71,235.7L-34.97,235.4L-37.49,235.9L-39.57,236.1L-41.86,235.8L-42,235.8L-42,189.3ZM168.2,127.1L167.4,128.7L166.8,130.4L166.5,132L166.6,133.6L166.4,135.1L166.1,136.5L164.9,136.1L164.2,135.1L164.1,133.4L163.2,131.3L162.9,130.7L161.6,129.5L160.4,128.9L159.5,128.1L159.7,128.2L159,127L158.5,125.8L157.4,122.3L157.1,121.4L156.6,120.7L156.5,119.9L156.6,119.1L157.1,117.8L157.4,116.5L157.1,114.8L157.2,113L157.6,112.3L163.4,101.7L165.1,99.49L166.1,98.37L166.9,97.13L167.6,95.54L168.6,94.11L169.3,93.65L172.7,92.35L173.7,91.11L174.6,90.72L175.5,90.75L176.1,91.35L176.7,92.04L177.3,92.43L178.8,93.1L179.4,93.77L179.7,94.92L178.8,96L178.4,96.98L178.3,98.06L178.4,99.52L178.4,101L177.3,104.4L176.1,106.5L175.8,107.6L175.4,110.2L174.7,112.9L174.1,116.2L173.1,119.6L172.5,121L171.8,122.4L170.1,125ZM135.6,101.1L136.2,102L136,102.6L134.2,102.3L134.1,101.8L134.8,101.9ZM242.1,-42L241.9,-41.76L241,-41.94L241,-42L242.1,-42ZM239.2,-42L238.3,-41.2L238,-39.91L237.3,-39.86L237,-40.41L237,-41.6L236.9,-42L239.2,-42ZM235.1,-42L234.9,-41.55L233.6,-40.7L233.6,-40.7L232.8,-40.47L232.3,-40.99L232,-41.15L232.2,-41.84L232.4,-42L235.1,-42ZM240.1,-40.31L240.3,-39.6L239.3,-39.73L238.8,-40.41L238.8,-41.02L239.5,-41.1ZM234.8,-23.45L234.2,-23.11L233.7,-23.32L233.6,-23.47L232.9,-24.33L232.7,-24.77L233.2,-25.6L234.9,-26.98L239.4,-28.31L240.2,-28.36L241.9,-27.82L242.3,-26.72L242,-25.81L241.6,-25.19L239.6,-24.15L238,-23.65ZM295.4,380L295.2,380.1L295,380L295,379.9L295.2,379.7L295.4,379.6L295.6,379.6L295.6,379.8ZM338.3,325.2L337.5,325.5L337.2,324.5L337.3,323.4L337.8,322.6L338.3,322.3L338.4,322.2L339,321.1L339.1,321.7L338.7,323.7L338.3,324.5ZM-42,396.2L-41.95,396.3L-41.1,399.4L-41.19,400.2L-41.55,400.5L-42,400.7L-42,396.2ZM125.2,365.7L124.7,365.6L123.7,365.4L121.5,364L119.3,363.6L116.1,363.5L114.2,363.3L113.5,363.5L112.9,363.5L112.4,363.3L111.9,363.2L110.7,363.9L110.1,363.7L109.5,363.3L108.5,363.2L107.2,363.3L105.8,364.2L104.2,363.4L103.8,363.4L103.5,363.6L102.8,364.6L101.5,365.4L100.8,366.8L100.4,368.1L100.1,368.6L99.99,371.1L99.81,372.4L100.1,374L100.1,374.7L99.5,375.8L99.41,376L99.14,377.7L99.23,378.2L99.18,378.7L98.69,379.9L97.78,380.2L96.88,380.4L96.07,380L95.35,380.7L94.45,381.7L94.09,382.3L94.09,383L94.18,383.4L94,383.8L93.95,384.3L94,384.9L94.63,385.2L95.26,385.8L95.22,386.3L94.9,386.7L94.09,387.3L92.6,388.5L90.94,389.5L90.3,389.7L90.08,390.2L89.99,390.8L90.35,392.2L90.66,392.6L90.89,393.1L90.66,393.7L90.48,394.2L89.85,394.5L89.27,394.7L89.04,395.1L88.73,396.8L88.37,397.7L87.56,398.9L87.28,399.5L86.88,399.7L85.3,399.1L83.91,399.5L82.06,399.7L80.48,399.7L79.26,399.9L78.41,400.6L77.46,401.5L76.47,402.1L75.75,402.4L74.4,401.5L73.68,401.6L72.46,401.3L69.53,400.3L68.81,400L68.04,399.9L67.82,399.7L67.95,399.2L67.82,398.5L67.23,398.3L61.42,398.4L59.71,398.9L58.58,399.4L57.77,399.9L57.54,401.2L57.05,402.3L56.42,403.6L54.48,404L53.04,405.3L52.54,405.4L51.59,405.2L50.51,405.1L49.75,405.5L48.98,405.4L46.5,404.8L44.2,404.8L42.85,405.1L42.13,405.2L38.12,406.9L36.73,407.1L36.18,406.9L35.42,406.1L34.34,405.4L31.86,403L30.91,402.4L30.28,401.9L29.7,401.2L28.88,400.4L28.12,399.9L27.08,398.8L26.09,397.7L25.86,395.7L25.05,395.3L24.74,394.8L24.65,394.2L25.77,392.5L26.59,394.3L26.9,394.6L28.7,395.8L30.19,396.4L31.81,396.6L33.48,396.7L34.16,396.6L34.79,396.4L35.42,396.6L38.84,398.5L40.2,398.9L41.59,398.7L42.18,398.9L44.16,400.4L44.75,400.5L45.74,400.4L44.48,399.8L43.66,399.3L43.3,398.4L43.48,397.4L44.3,396.8L44.84,396.1L45.06,394.1L45.42,393.1L46.05,392.1L46.28,391.1L45.56,390.4L45.38,389.1L45.51,388.1L45.96,387.4L46.64,387.9L47.31,388.3L47.99,388.3L48.49,388.1L48.58,387.6L48.44,386.6L48.49,384.9L49.34,383.6L50.74,382.6L52.05,382.2L56.91,381.4L64.66,379.5L66.96,378.7L67.82,378.3L68.49,377.8L69.71,376L71.96,373.3L73.54,371.1L76.88,367.8L79.53,364.7L79.89,364.2L80.3,362.5L80.34,361.7L80.25,361L80.61,360.6L81.16,360.4L81.29,360.4L81.65,360.7L82.6,361.2L83.27,361.8L83.72,362.6L84.08,363.3L84.08,364L84.54,364.5L85.71,364.6L86.07,365.2L86.88,366.4L87.64,367.2L88.1,367.5L88.68,367.3L89.54,366.6L90.17,365.7L90.62,364.5L90.26,364.3L90.89,363.3L90.98,362.9L90.71,362.4L90.35,362L90.21,360.9L89.99,359.4L89.81,358.8L90.3,358.3L91.3,357.7L92.29,357L93.32,356.5L93.37,357.5L93.32,359.1L93.64,360.5L94.31,362.9L95.13,363.2L96.07,363.4L96.61,363.4L96.97,363.2L97.06,363L96.48,362.1L96.34,359.8L95.85,358.4L95.08,356.9L94.77,356.5L97.69,356.1L98.33,355.6L99.5,354.6L99.95,354.1L100.3,352.8L98.82,352.1L98.28,351.1L98.23,350L99.95,348.1L100.5,347.7L100.8,348.3L101.6,348.5L102.2,348.5L103,348.5L104,347.5L104.5,346.1L106.3,344.1L106.9,342.6L107.2,341L111.7,336.1L112.2,335.3L114.9,330.4L115.2,330.2L115.9,330.7L116.1,332.3L116,332.9L115.6,334L115.4,335L115.7,335L116.9,334.4L118.2,332.6L119,331.1L119.6,330.5L120.9,330.8L121.2,331.1L121.1,332.2L121.2,332.8L121.7,334.1L122.8,334.9L124.3,335.5L125.7,336.2L126.1,336.7L126.4,337.3L126.7,338.3L126.7,339.2L125.7,340.2L126.2,341.7L126.1,342.6L125.8,343.4L124.3,344.1L128.2,343.4L129.2,343L130.6,342L131.3,342.9L132,344.4L131.4,344.8L129.7,345.4L129.6,345.6L130.2,346.4L130.9,346.3L132.3,345.8L133.7,344.9L134.3,344.9L135,345.1L136.3,345.6L137,346.1L137.6,346.6L138,347.8L139.5,348.2L142.5,349.8L143.1,350L143.7,350L145.3,349.8L145.9,350L146.3,350.6L146.4,351.4L146.4,352.2L146.2,352.8L145.8,353.2L144.7,354L141.9,355L139,355.7L137.4,355.7L135.3,355L134.6,355.1L133.8,355.4L132.8,357.4L134.6,359.4L137.6,361.5L138,362L137.9,362.7L137.4,363L136.8,363.2L135.1,363.6L133.4,363.8L132,364.2L130.6,364.7L129.2,364.5L127.3,363.6L126.8,363.5L126.2,364L125.6,365.3ZM-42,382.9L-41.91,383.2L-41.91,383.7L-41.91,383.7L-42,383.7L-42,382.9ZM119.8,327.9L119.1,328.6L118.8,327.8L118.8,326.8L119.9,325.8L121.4,325.6L121.5,326.4L121.4,327.3L121,327.7ZM47.81,387.7L47.4,387.8L46.82,387.4L46.68,383.6L47.09,383.2L47.36,383.3L47.67,384L47.63,385.6L47.67,387.1ZM129.1,365.5L127.3,365.7L126.1,365.7L126.4,365.2L126.3,364.7L126.9,364.5L127.6,364.6ZM-42,150.3L-40.33,151.4L-38.94,152.5L-38.08,153.1L-37.4,153.7L-37.49,154.3L-38.03,154.9L-38.71,155.3L-39.61,155.8L-40.11,156.4L-39.79,156.7L-38.48,156.8L-36.95,157.3L-36.5,157.9L-36.41,158.5L-36.23,159.3L-35.96,159.6L-34.52,159.4L-34.07,159.6L-33.57,160.1L-33.08,161.2L-33.08,162.1L-34.11,163L-34.47,163.6L-34.65,164.5L-35.38,165.6L-37.36,167.4L-37.85,167.5L-41.46,166.5L-42,166.5L-42,150.3ZM-42,173.9L-39.12,175.8L-38.21,176.5L-37.04,177.4L-35.73,178.2L-32.27,179.2L-30.73,179.9L-30.33,180.2L-30.37,180.7L-30.78,181.3L-31.09,182.3L-31.09,182.9L-30.73,183.5L-30.15,184.3L-28.75,185.7L-27.98,186.3L-27.17,186.4L-26.45,186.8L-25.69,187.8L-24.83,189L-24.7,189.9L-24.34,191L-23.52,192.3L-22.44,193.5L-20.86,195L-20.01,196.1L-19.6,196.5L-16.27,199.1L-15.5,200L-14.33,201.9L-13.84,202.2L-13.38,202.5L-13.07,203.5L-12.98,204.3L-12.84,206.5L-12.21,207.1L-11.67,208L-11.45,208.6L-10.95,209L-10.41,209.1L-9.734,208.6L-9.239,208.1L-9.013,208.3L-8.473,209.8L-8.022,210.4L-7.121,210.9L-6.265,211.3L-4.417,213.2L-3.426,213.9L-2.75,214.1L-2.164,214.4L-2.029,215L-2.254,215.6L-2.615,216L-4.778,217.1L-5.048,217.6L-4.778,218.3L-4.237,219.2L-3.651,219.9L-2.885,220.7L-1.398,221.9L-0.091,222.9L0.63,223.9L1.035,224.7L0.765,225.5L0.224,226.4L-0.181,227.2L-0.947,227.7L-1.128,228.2L-0.812,229.1L-0.587,229.6L-0.722,230.3L-0.632,231.8L-1.308,232.3L-1.939,233.6L-2.389,233.7L-3.471,233.3L-3.876,233.5L-4.552,234.5L-5.769,235.5L-6.355,235.5L-6.76,235.4L-7.256,235.9L-7.932,236.7L-8.247,236.6L-9.419,236.8L-9.87,236.6L-10.41,235.9L-11.36,235.2L-12.17,234.7L-12.62,234.4L-13.02,233.8L-13.38,233.4L-14.06,234.2L-15.23,235L-16.31,234.9L-16.85,234.8L-17.26,235.9L-17.57,236.1L-19.56,236.3L-19.92,236.5L-19.6,237.5L-18.43,239.3L-18.12,240.3L-18.84,241.9L-20.86,241.9L-21.77,241.2L-22.62,240.3L-22.94,239.8L-25.51,238.9L-27.26,239.5L-27.8,239.5L-28.61,238.8L-29.11,238.3L-29.61,237.5L-29.88,236.8L-29.88,236.4L-29.11,236.1L-27.89,235.5L-26.9,234.8L-26.23,234L-25.96,233.3L-25.91,232.4L-25.64,230L-25.33,228.8L-25.51,227.4L-26.05,226.3L-26.05,224.6L-25.87,223.8L-25.78,223.3L-25.01,222.6L-24.47,221.6L-24.2,220.4L-24.15,219.5L-24.38,218.9L-25.15,218.3L-26.41,217.8L-27.17,217.2L-27.49,216.4L-27.49,215.7L-27.08,215.1L-28.03,214.5L-30.33,213.8L-31.59,212.9L-31.86,211.9L-32.81,210.5L-34.43,208.9L-35.28,206.5L-35.38,203.4L-35.2,200.9L-34.47,198L-35.42,195.9L-36.5,194.8L-37.94,193.9L-39.34,192.8L-40.65,191.2L-42,189.3L-42,173.9ZM342.6,-42L342.2,-41.13L342.5,-39.47L342.5,-39.47L341.1,-38.18L339.9,-38.26L339.4,-38.84L339.2,-39.55L340.3,-40.68L341.1,-42L342.6,-42ZM288.5,20.16L287.1,20.46L286.3,20.13L285.6,18.34L287,17.21L288.8,18.32L289.2,18.64ZM292.8,18.22L291.7,18.37L291.6,17.51L292.5,15.62L292.6,14.23L293.4,12.46L293.8,12.08L294,11.93L294.3,12.49L294,14.63L293.2,16.27ZM281.8,-8.644L280.8,-8.131L280.6,-8.619L280.2,-8.85L281,-9.57L281,-9.878L280.5,-10.37L281,-12.19L280.9,-12.97L282.9,-13.28L283.2,-12.53L283.3,-10.29ZM271.7,-36.97L270.9,-36.37L270.6,-37.29L270.9,-39.97L272.4,-39.41L272.4,-38.6ZM273.4,-42L273,-41.41L273.1,-40.47L273.1,-40.47L272.8,-39.73L271.9,-40.23L271.6,-40.7L272,-42L273.4,-42ZM264.1,-16.86L264.5,-16.48L265.2,-16.71L265.8,-16.76L266.2,-16.55L266.7,-15.52L266.9,-14.9L266,-14.82L265.6,-14.7L265.1,-13.92L264.4,-14.21L263.9,-14.57L263.8,-15.06ZM285.5,-11.53L284.4,-11.45L283.9,-11.63L283.8,-12.09L285.3,-13.04L286.5,-12.89L286,-12.01ZM334.5,-42L334,-41.52L333.8,-42L334.5,-42ZM269.2,-17.72L268.9,-17.56L268.5,-18.91L268.2,-19.37L268.7,-19.63L269.6,-22.07L269.8,-21.11L270.1,-20.15L270.5,-20L270.1,-19.3L269.6,-19.04ZM274.4,-23.42L273.5,-22.72L272.9,-22.72L273.4,-23.55L273.5,-23.94L274,-25.06L275,-25.45L275.4,-25.5L274.6,-24.36ZM278.2,-31.31L277.3,-30.69L276.7,-31.18L277,-32.52L277.2,-32.96L277.9,-32.52ZM313,-36.84L312.6,-36.24L311.6,-36.42L312,-36.95L312.3,-37.58L312.6,-37.71L312.8,-37.02ZM309.1,-34.27L309.7,-33.72L311.2,-33.96L311.3,-33.8L310.9,-33.3L310.3,-32.8L309.1,-33.17L308.4,-33.2L308.3,-34.01L308.4,-34.32ZM277.2,-0.194L276.8,0.061L277.1,-1.088L278.1,-2.11L278.2,-1.445ZM295.5,-29.12L297.1,-28.68L297.9,-28.65L298.5,-28.83L299.5,-29.43L300.6,-29.88L301.3,-29.64L302,-29.12L302.3,-28.39L302.1,-27.61L301,-25.97L300,-24.2L302.2,-23.86L304.5,-23.89L303.9,-22.8L303.9,-21.86L304.6,-21.39L305.2,-20.8L305,-20.25L304.7,-19.71L305.9,-18.88L305.8,-18.34L305.5,-17.77L302.4,-14.02L301.5,-12.14L300.9,-10.06L300.3,-8.542L299.9,-6.976L299.6,-5.284L299,-3.542L299.2,-1.982L299,-0.398L297.5,3.503L296.4,3.426L295,2.968L294.2,3.044L293.7,3.91L294.5,5.69L292,7.799L289.3,9.219L289.3,8.56L289.6,8.052L290,7.646L290.2,7.164L290.6,5.487L290.4,3.834L289.6,1.719L289.6,0.98L290.1,0.674L290.5,0.572L290.7,0.291L290.7,-0.398L290.5,-0.934L289.7,-1.088L288.9,-1.113L288.4,-0.322L287.7,1.184L287.4,2.688L287.5,3.528L287.8,4.266L288.8,5.512L288.5,6.25L288.1,6.808L284.7,5.538L283.9,5.436L283.3,5.157L282.6,3.452L284,3.044L284.4,2.841L284.6,2.28L284.8,0.623L284.1,-0.781L283.6,-1.267L283.1,-1.854L283.4,-3.031L283.2,-4.515L283.2,-6.591L283.4,-6.95L284.7,-7.361L285.7,-8.49L286.6,-9.75L287.8,-11.99L288.8,-14.41L287.8,-14.54L287,-14.98L287.9,-16.14L287.6,-17.59L286.3,-19.37L285.5,-21.47L284.3,-22.41L283.7,-22.74L282.9,-22.25L282.3,-21.65L282.9,-20.28L282.9,-19.09L282.9,-17.87L283.5,-17.82L284.3,-18.11L284.8,-17.9L285.2,-17.28L285.2,-16.45L285,-15.65L284.5,-15.26L283.8,-15.29L283.2,-15.73L282.6,-16.35L281.4,-16.68L280.2,-15.96L278.9,-14.46L277.9,-13.71L278.3,-14.8L278.6,-16.01L278.1,-16.84L276.9,-18.23L276.6,-19.04L276.5,-20.02L276.7,-20.98L278,-19.87L278.6,-18.49L279.5,-17.9L280.6,-17.87L279.8,-19.92L279.5,-20.44L278.2,-21.34L276.5,-22.87L275.5,-23.63L275.9,-25.24L276.5,-25.55L277,-25.47L278.8,-24.9L279,-25.71L278.7,-26.12L278.6,-26.64L279.7,-27.32L281.6,-27.89L282,-28.18L282.4,-28.75L282.9,-29.04L284.2,-29.04L285.3,-29.59L286.2,-31.11L286.5,-31.91L286.8,-32.62L289.1,-33.83L289.7,-34.01L291.2,-33.85L292.7,-33.17L293.4,-31.73L294,-30.16ZM335.3,-38.99L337,-38.36L338.8,-38.52L338.8,-35.76L339,-34.85L339.5,-34.01L339.3,-32.8L340.1,-32.39L337.7,-31.03L335.5,-29.2L334.6,-27.97L333.9,-26.67L333.4,-25.29L333.1,-23.78L332.4,-24.38L330.3,-26.8L329,-27.48L326.9,-27.82L326.2,-27.74L321.9,-25.47L321.3,-23.84L320.1,-21.34L319.6,-20.51L318.9,-20.28L318.5,-19.87L318,-17.74L316.7,-16.43L315.8,-16.4L314.4,-16.76L313.8,-16.55L314.7,-18.65L313.3,-18.88L312,-18.86L312,-20.2L311.2,-20.98L311.7,-21.99L311.7,-22.8L312.1,-23.26L312.2,-23.91L312.2,-24.48L311.4,-24.64L310.8,-25.06L310.9,-26.54L310.5,-26.59L309.3,-26.33L306.9,-25.19L306.2,-25.19L307.2,-25.99L309.4,-27.11L310.3,-27.77L312.5,-29.56L313.8,-30.43L314.5,-31.94L314.8,-32.88L315.2,-33.69L315.6,-34.98L316.3,-35.42L317.5,-36.55L318.2,-36.45L318.9,-35.06L320,-34.01L320.7,-34.09L322.1,-34.64L322.7,-34.77L324.2,-34.69L325.6,-35.37L326.2,-36.16L326.3,-37.13L325.8,-38.78L326.5,-38.63L327.2,-38.7L328.6,-39.76L330.2,-40.36L331.7,-40.52L333.5,-39.94ZM366.5,-42L366.9,-41.68L366.9,-40.86L366.5,-40.02L365.8,-39.63L362.7,-38.99L360,-37.78L359.2,-36.55L356.8,-31.76L354.8,-28.5L352,-27.37L349,-28.39L348.3,-29.51L347.7,-30.92L346.5,-32.18L345.5,-33.56L344.9,-35.21L345,-37.86L344.6,-39.47L345,-39.89L346.7,-40.86L347.2,-41.41L347.6,-42L366.5,-42ZM325.1,-42L324.2,-41.63L323.9,-41.65L322.5,-40.94L320.9,-40.31L320.1,-39.68L318.5,-40.1L315.5,-38.97L314,-38.84L312.5,-39.44L311.1,-40.44L309.7,-40.02L308.8,-38.55L308.3,-35.58L307.8,-34.27L307.6,-32.67L306.9,-32.94L302.8,-35.79L302.5,-35.9L299.2,-35.4L298.4,-35.16L297.3,-34.59L296.2,-34.32L295.2,-34.74L294.2,-35.42L293.2,-35.21L292.2,-34.74L291.9,-39.07L292,-39.63L292.7,-40.39L293.3,-41.05L294.9,-41.28L296.6,-41.05L297.7,-41.36L298.4,-42L325.1,-42ZM209.3,101.2L208.6,103.4L208,103.7L207.3,103.5L206.7,102.3L207.2,101.9L207.8,102.1L208.3,102L209.4,100.2L209.7,100.5ZM204.3,104.5L203.5,104.7L202.5,104.4L201.7,104.4L201.7,103.9L202.6,103.5L202.6,102.9L202.8,102.6L204.9,103.3L204.8,103.9ZM223.7,98.08L222.7,98.44L221.5,98.25L221.7,96.31L222.1,96.57L222.3,97.25L223.2,97.63ZM259,71.55L257.8,72.21L257.3,72.96L256.2,73.23L255.1,74.3L254.1,74.52L254.1,75.37L254.5,76.09L253.8,76.24L253.1,77.11L253,77.77L253.3,78.3L253.2,78.56L252.3,79.31L251.4,79.36L251.3,78.52L251.4,77.91L252.3,76.39L252.3,74.61L253.2,74.42L253.5,74.18L254.8,72.92L255.1,72.38L254.3,71.87L254.4,71.26L254.6,71L255.6,71.19L256.1,71.65L256.3,71.7L256.9,71.36L257.2,70.75L258.4,69.53L258.9,68.34L259.9,69.34L259.6,70.61ZM268.2,56.53L267.7,56.8L267,56.43L266.8,54.81L267.1,54.02L267.6,53.85L268.1,55.25L268.4,55.84ZM273.9,49.62L272.8,50.77L271.7,49.74L270.3,49.02L271,48.85L271.3,48.58L271.4,48.14L272.3,47.47L274.1,46.98L274.6,46.93L275.2,46.46L275.5,46.04L275.7,45.81L276.9,45.22L277.2,45.91L277.1,46.43L276.3,46.73L275.4,47.45L274.7,48.33L273.9,48.7L273.7,48.98ZM272.3,51.09L272.4,51.41L271.1,51.15L270.6,49.84L271.5,50.09L271.7,50.53ZM-19.11,438.8L-18.66,439.7L-18.07,440.4L-17.62,441.3L-17.03,445.3L-15.1,448.8L-9.419,450.1L-10.37,450.7L-10.82,451.2L-11.18,451.8L-11.99,454.2L-11.94,454.7L-11.45,455.5L-11.31,456.4L-12.03,456.4L-12.8,456.2L-13.47,455.8L-14.06,455.4L-14.69,455.1L-15.37,454.8L-16.54,454.1L-18.07,453.7L-19.69,453.3L-20.46,452.3L-20.82,451L-20.41,449.1L-20.82,448.6L-21.41,448.2L-22.08,446.8L-22.35,445.2L-23.34,444.6L-24.7,444.2L-25.28,443.9L-27.89,444.5L-28.52,444.4L-29.07,443.9L-30.51,443.5L-30.46,442.6L-29.79,441.9L-28.21,441.2L-27.49,440.6L-27.35,439.8L-27.62,439.3L-27.49,438.7L-26.99,438.1L-26.41,437.6L-24.88,437L-24.15,438.1L-23.84,438.9L-23.39,439.6L-22.76,438.7L-23.16,437.1L-21.95,436.8L-20.77,436.7L-19.92,437.2L-19.33,437.9ZM190.4,482L190.6,481.2L190.7,480.6L190.9,479.9L191.2,478.4L191.3,475.8L192.5,473.6L193.6,473L194.1,472.9L194,473.5L195.4,474.9L195.4,474.9L195.7,477.6L195.6,478.3L194.9,477.3L194.6,477.1L194.4,477.3L194.2,477.4L193.8,477.4L193.4,478.5L193.3,479.4L193,480.1L192.8,482L190.4,482ZM185,482L185.6,481.5L185.5,480.6L184.8,478.6L185.3,477.6L187.2,476.9L188.9,476L189.4,475.8L189.9,476.5L190.1,479.7L188.5,482L185,482ZM9.327,371.7L7.615,372.1L6.623,371.5L7.705,370.7L8.065,370.6L8.336,370.5L8.426,370.2L6.488,369.6L5.947,369.2L5.407,368L5.407,367.3L7.885,365.3L8.471,365.1L8.561,365.9L10.27,368L10.36,369.4L10.32,369.9ZM7.975,455.4L7.75,456.8L7.479,457.3L6.398,457.9L6.082,458.3L5.091,458.3L4.956,457.6L4.64,457.1L3.604,456.6L3.334,456.7L3.153,457.5L1.126,458.1L0.54,458.1L0.81,457L0.314,456.2L0.269,455.2L0.179,454.7L-0.091,454.5L0.405,453.8L0.36,453L0.9,452.1L1.216,450L3.334,449.6L3.784,450L6.308,450.4L8.065,451.7L9.011,453.4ZM348.1,426.1L350.8,426.5L351.8,426.5L352.7,427.1L353.9,426.8L354.5,427L356.7,428.9L357.8,430.2L359.4,431.2L360.5,431.6L359.7,432.6L357.9,433.1L357.3,433.1L355.9,432.5L354.8,432.7L353.8,431.9L353.6,430.8L352.7,428.2L351.4,428.9L349.9,427.8L349.5,427.7L349.4,427.9L348.7,427.5L348.2,426.7ZM349.3,437.8L354.2,438.5L355.5,438.4L358.4,438.6L360.7,439.5L364.8,439.6L366.1,439.9L367,440.4L364.7,440.9L363.7,441.4L361.6,441.6L359.9,441.4L358.7,441.6L358.2,441.2L356.5,440.7L354.2,439.9L349.5,438.8L349.2,438.1ZM290.9,418L293.1,418.5L293.6,418.4L296.7,419.8L297.2,420.5L297,420.9L297.5,421.6L296.5,422.5L296,422.6L295.5,422.2L294.5,422L293.4,422.4L292.6,422.1L292,421.3L290.9,420.7L289.3,418.9L288.5,419L288.8,419.7L289.4,420.2L290.3,421.6L290.8,421.7L291.3,421.6L292,422.2L292,423.1L290.2,423.5L289.5,422.8L289.4,421.6L288.4,422L287.9,422.4L287.6,422.5L287,421.2L285,421.2L283.7,420.5L284.3,419.8L284.4,419.2L285.3,418.8L286.1,419.1L287,418.7L287.6,418.8L288.1,418.5L289.8,418.3ZM261.4,392.2L259.4,392.4L259,391.8L258.4,389.1L259.8,387L261.6,385.7L262.8,385.4L263.3,385.4L264.3,386.9L263.5,390.1L262.6,391.6ZM257.6,438.7L256.9,439.2L256.5,439.4L254.6,439L252.5,439.1L250.2,439.5L248.9,439.2L248.1,438.5L248.2,437.8L248.9,436.1L250.6,434.8L251.3,434.6L252.5,434.9L254.5,435.9L256.1,437.1L257.6,438ZM231.3,448.6L231.2,448.8L230.4,448.2L229.9,446.2L229.5,445.7L229,443.9L229.1,443.4L229.7,442.6L230.2,442.6L230.6,443.1L230.4,445L231.5,447.5ZM231,440.3L234.8,440.7L234.3,441.2L230.1,441.9L228.6,441.8L224.1,442.2L223.6,442.2L223.5,441.5L223,441L223.7,440.5L224.7,440.5L227.2,440.6ZM217.8,439.3L219,439.7L219.4,439.7L219.8,439.2L220,439.1L220.5,439.4L220.6,440.2L221.4,440.1L222,440.4L222.2,440.6L222.1,441.4L219.9,441.5L218.2,442.2L216.1,441.6L213.6,442.7L212.2,443L210.9,443L209.8,441.2L210.4,439L210.9,438.7L211.7,438.5L214,438.4ZM293.3,434.4L292.9,434.7L291.3,434.4L290.6,433.6L290,432.6L289.7,431.7L289.6,431L289.1,430.2L289.2,429.9L292,429L292.5,429.4L293.7,429.4L294.2,430L293.9,432.8ZM-42,431.1L-41.46,431.1L-40.2,430.9L-39.93,431.4L-39.38,433.6L-39.12,435L-38.71,437.9L-38.21,439.2L-38.26,440.7L-37.58,442L-36.23,442.8L-34.79,443.5L-34.11,444.1L-34.11,445.1L-34.34,445.9L-34.83,446.5L-36.32,447.8L-36.59,448.3L-36.82,449.7L-36.55,450.4L-35.96,450.4L-35.51,450.1L-33.71,448.2L-33.21,447.9L-32.54,447.6L-31.86,447.4L-28.61,447.4L-27.22,447.7L-26,448.3L-24.88,449.1L-20.91,454.1L-19.11,456.8L-18.97,457.5L-18.93,458.2L-19.24,458.8L-20.91,460.6L-21.09,461.1L-21.63,463.2L-21.54,464.6L-20.95,465.3L-20.55,465.9L-20.55,466.5L-21.68,469.6L-21.77,470.1L-21.09,475L-21.05,476.3L-21.18,478L-21.09,480.7L-21.22,482L-42,482ZM148.3,482L148.5,481.6L149.6,479L149.5,477.3L149.9,475.9L150.5,474.6L150.7,473.3L150.9,468.4L150.7,468L149.2,465.1L149.1,464.6L149.1,463.8L149.2,463.1L149.2,462.4L148.9,461.9L148.3,461.4L147.6,461.2L146,461.4L143,462.2L142.1,461.5L141.4,460.5L141,459L140.7,457.4L140.8,456L141.3,454.6L140.9,453.6L140.4,452.5L140.4,452L140.7,451.5L141.2,451.1L141.9,450.9L142.5,450.4L144.2,449L144.7,447.7L144.8,446.2L145.2,444.7L146.1,443.3L147.1,442.1L147.4,440.8L146.9,438.7L147.1,437.7L146.9,436.6L146.9,435.5L147.5,433.5L149.4,429.3L151.2,427L151.9,426.4L152.9,427.5L153.6,428.7L153.7,427.6L153.4,426.5L152.7,424L152.1,419L152.3,418.6L152.9,418.6L153.6,418.2L153.9,417.4L153.2,415.6L153.2,414.9L154.5,412.3L155.6,411.4L156,410.8L156.3,409.2L156.8,408.6L157.5,408.2L158.4,407.1L158.9,405.8L159.2,405.6L159.6,405.6L160.2,406.8L160.8,407.3L162,407.7L163.1,407.2L163.4,406.6L163.8,406.1L164.5,405.6L165,404.9L165.6,403.5L166.5,402.2L167,401.8L167.7,401.5L168.4,401.3L169.1,401.3L170.7,402.1L171.6,402.3L172.5,402.2L173.2,402.3L173.6,402.7L174,403.4L174.5,404.1L175,404.4L175.5,404.5L178.9,404.3L182,405L186.1,405.2L187.5,405.6L188.9,406.1L190.5,407.1L191.1,407.3L191.8,407.3L192.6,406.4L193.3,406.1L193.9,406.1L196.6,406.3L203.7,407.4L204.8,407.3L209.1,405.1L210.8,403.1L212.3,402.5L212.8,401.6L213.1,400.5L213.7,400.2L215,399.9L215.5,399.5L216.4,398.2L217.5,397L218,396.6L219.5,396.8L220.2,397.3L221.1,399.1L220.9,399.4L219.9,400.3L219.6,400.6L218.5,403.1L217.7,404.4L216.8,405.4L216.8,405.4L214.4,407.6L213.6,408.6L213,409.7L212.1,410.9L211,412L210.4,412.3L209.1,412.9L208.4,413.1L206.9,413.2L202.6,414.1L201.2,414.2L199.7,414.1L197,413.9L196.5,413.8L195.4,412.7L194.2,411.8L193.1,411.7L192,411.8L184.1,411.9L181.4,412.1L178.6,412.4L177.1,412.3L175.7,411.8L174.6,411.7L173.4,411.7L168.3,412.4L167,412.3L164.3,411.5L162.8,411.3L161.3,411.5L159.9,412.3L159.4,412.8L158,414.6L157.2,415.8L156.5,417.4L156,419L155.7,420.4L155.7,421.7L156,423.3L156.4,424.9L156.8,426L158.6,428.8L158.9,429.2L160.9,429.9L162,430.9L163.2,433.7L163.9,435.1L164.7,435.1L165.6,435L167,435.2L168.5,435.5L170,434.7L170.7,433.1L171.6,431.9L173.5,429.7L174.6,428.6L175.3,428.3L176,428.4L176.6,429L177.3,429.5L178.8,429.7L180.2,429.6L181.8,428.9L182.3,428.4L182.8,427.9L184.1,427.4L187.2,427.4L188.9,427.5L191.7,427.4L191.7,426.9L191.2,426.5L191,426.2L191.5,425.9L193.4,425.4L195.3,425L196.7,425.3L197.9,426L198.4,426.8L198.5,427.7L198.1,429.9L197.9,430.5L196.9,430.7L196,430.4L195,429.3L193.8,428.8L191.9,429.2L191.3,429.5L190.7,430L189.7,431.2L188.8,432.6L187,434.8L184.8,436.7L183.8,437.4L182.6,437.9L178.9,439.1L177.9,440L177.1,441.2L176.2,441.6L175.2,441.8L174.5,441.5L173,440.9L172.5,441.4L172.5,442.3L173.2,442.6L174.4,443.5L175.3,444.8L175.9,445.1L177.2,445.5L177.7,446L178.7,447.1L180.2,449.7L180.8,451.2L181.6,452.3L184.3,454.3L184.4,454.9L184.3,455.5L184.4,456.1L185.4,457.3L185.6,458L184.6,458.9L184.5,460.3L183.9,462.1L183.8,462.7L183.8,463.3L184.2,463.8L184.7,464.2L185.4,464.4L186.1,464.8L187.2,466.2L187.9,466.5L188.2,467L188.2,467.8L188.8,468.3L189.3,469.1L190,469.3L190.3,469.1L190.6,468.7L191.2,468.8L191.6,469.4L191.8,470.1L191.9,470.9L191.8,472.4L191.5,472.9L190.8,472.9L189.6,472.3L189.6,472.7L189.7,473.2L189,473.3L188.3,473.3L186.5,473.3L183.2,474.2L182.1,474.8L181.3,475.8L181.2,476.5L181.5,478L181.1,478.5L179.6,478.7L177.5,478.3L176.2,477.9L175.5,477.6L174.5,476.6L174.2,475.3L174.9,471.6L175.1,471.1L175.4,470.7L175.7,470L175.8,469.2L174.8,468.2L173.3,467.8L172,467L167,462.5L166.7,462L166.7,461.3L166.9,460.5L168.6,458.1L168.8,457.6L169,455.6L168.9,454L168.8,452.4L168,451.4L166.6,451L165.2,451L163.8,451.3L162.4,452.1L159.8,453.8L158.8,454.8L158.8,456.1L159.3,457.4L160.1,458.6L160.5,459.8L161.1,464.3L161,464.8L160.4,466.2L160.1,469.1L160.4,473.2L160.8,475.8L160.6,477.1L159.5,480.1L159.1,481.7L159.1,482L148.3,482ZM25.77,392.5L24.65,394.2L24.74,394.8L25.05,395.3L25.86,395.7L26.09,397.7L27.08,398.8L28.12,399.9L28.88,400.4L29.7,401.2L30.28,401.9L30.91,402.4L31.86,403L34.34,405.4L35.42,406.1L36.18,406.9L36.73,407.1L38.12,406.9L42.13,405.2L42.85,405.1L44.2,404.8L46.5,404.8L48.98,405.4L49.75,405.5L50.51,405.1L51.59,405.2L52.54,405.4L53.04,405.3L54.48,404L56.42,403.6L57.05,402.3L57.54,401.2L57.77,399.9L58.58,399.4L59.71,398.9L61.42,398.4L67.23,398.3L67.82,398.5L67.95,399.2L67.82,399.7L68.04,399.9L68.81,400L69.53,400.3L72.46,401.3L73.68,401.6L74.4,401.5L75.75,402.4L76.47,402.1L77.46,401.5L78.41,400.6L79.26,399.9L80.48,399.7L82.06,399.7L83.91,399.5L85.3,399.1L86.88,399.7L87.28,399.5L87.56,398.9L88.37,397.7L88.73,396.8L89.04,395.1L89.27,394.7L89.85,394.5L90.48,394.2L90.66,393.7L90.89,393.1L90.66,392.6L90.35,392.2L89.99,390.8L90.08,390.2L90.3,389.7L90.94,389.5L92.6,388.5L94.09,387.3L94.9,386.7L95.22,386.3L95.26,385.8L94.63,385.2L94,384.9L93.95,384.3L94,383.8L94.18,383.4L94.09,383L94.09,382.3L94.45,381.7L95.35,380.7L96.07,380L96.88,380.4L97.78,380.2L98.69,379.9L99.18,378.7L99.23,378.2L99.14,377.7L99.41,376L99.5,375.8L100.1,374.7L100.1,374L99.81,372.4L99.99,371.1L100.1,368.6L100.4,368.1L100.8,366.8L101.5,365.4L102.8,364.6L103.5,363.6L103.8,363.4L104.2,363.4L105.8,364.2L107.2,363.3L108.5,363.2L109.5,363.3L110.1,363.7L110.7,363.9L111.9,363.2L112.4,363.3L112.9,363.5L113.5,363.5L114.2,363.3L116.1,363.5L119.3,363.6L121.5,364L123.7,365.4L124.7,365.6L125.2,365.7L125.1,365.8L124.2,366.1L123.8,366.8L125,367.9L125.1,368.7L126,369.3L127.1,370.3L127.2,370.7L127.6,371.1L127.8,371.7L127,372.3L125.9,372.4L125.1,371.8L124.4,371.2L124.2,372L123.7,372.5L121.6,372.3L120.2,372.3L118.7,372.5L119.5,372.6L120.1,372.9L122.3,375L122.8,375.8L122.1,377.3L122.4,377.9L123.3,378.3L124.4,379L125.1,379.1L125.7,379.5L125.7,380.3L126,381L125.1,381.2L126,381.4L126.8,381.7L126.4,382.1L126,382.5L126.4,382.7L127.4,383.2L127.8,383.5L128.1,384.5L129.1,386.1L130.9,388.1L131.4,388.9L131.4,389.6L131.1,390.2L130,390.9L129.1,391.8L129.1,392.1L127.9,392.5L128.4,392.8L128.8,393.3L129.6,394.5L131.5,396.6L132.5,397.4L136.4,400.2L138.5,401.4L141.2,404.2L142.6,404.8L142.9,405.6L141.7,406.8L140,407.4L137.2,407.7L134.4,407.3L133,407L131.7,406.3L130.7,404.9L129.4,404.1L130,405L130.3,405.8L130.1,406.8L129.6,407.5L128.7,408L127.8,408.5L127.3,408.8L125,413.6L124.6,414.9L123.8,420.4L123.8,422L124.9,424.9L125,426.4L125.2,427L125,427.5L124.6,427.9L122.5,428.8L121,429.5L119.9,430.5L118.9,431.8L118.1,432.8L116.9,433.2L116.1,433.2L115.5,432.7L115,431.9L114.8,431L114.6,431.7L114.6,432.3L115,433L115.2,433.8L115,434.5L114.5,435.1L113.2,435.8L112.4,436.4L112.3,437.4L112,437.9L111.5,438.4L109.7,439.4L109.3,439.7L109,440.3L110,440.2L110.8,440.3L110.9,441.2L111.2,442L110.8,443.6L109.5,444.7L110.1,444.9L110.8,445.3L112.1,445.5L112.6,446.7L112.4,448.1L112.1,449.4L111.2,449.7L110.5,449.5L109.9,449.5L109.5,449.9L109.4,450.5L110.2,450.2L110.2,451.8L110,453.4L109.6,454.2L109.1,455L108.3,455.2L107.6,454.7L107.4,455.3L107.7,455.8L108.7,457.1L108.1,457.3L107.6,457.8L107.4,458.4L106.2,459.8L105.7,460.9L105.5,462L104.9,462.9L96.21,466.9L89.18,470.1L88.64,469.9L88.32,469.4L88.05,464.3L87.19,461.7L87.06,460.2L86.07,461.5L85.44,461.4L84.76,461L84.27,460.6L84.27,460.1L84.76,458.4L84.13,459.3L83.41,460L82.69,459.9L82.06,459.6L81.83,459.1L81.52,459L79.94,460.4L77.91,461.2L76.78,461.2L75.88,460.7L75.93,459.6L75.84,458.6L75.61,457.9L75.03,457.7L74.53,457.8L73.09,458.3L72.55,458.3L72.23,458.6L68.4,454.6L67.59,457.8L64.93,459.5L62.95,460.5L61.01,460.1L58.98,459.5L57,460.3L54.88,462.1L54.3,462.4L53.67,462.4L53.22,462.1L53.35,460.7L53.4,459.3L53.22,456.2L53.04,455.6L52.45,454.7L51.64,454.1L51.15,454.6L50.74,455.2L49.12,455.1L47.54,454.6L46.19,454.9L43.48,456.2L42.04,456.4L41.28,456.1L40.78,455.4L41.05,454.8L41.68,454.3L40.55,454.7L39.61,455.3L39.2,455.7L38.75,455.5L37.58,454.1L35.15,454.6L34.79,454.8L34.2,455.3L33.62,455.1L33.3,454.5L33.21,451.6L31.95,445.9L31.63,443L31.36,442.3L29.92,441.2L29.96,439.7L30.69,438.5L30.87,437L30.64,435.4L30.19,433.9L29.65,432.7L28.84,431.7L27.76,430.6L26.41,429.7L23.57,428.8L22.08,428.9L21.49,428.5L21.13,428L21.27,427.1L21.81,426.4L22.48,426.3L22.57,425.9L21.09,425.1L19.92,424.1L19.51,423.5L19.42,422.8L19.42,421.2L19.78,420.2L19.96,419.7L20.32,418L21.13,417.5L21,417.2L20.64,417L20.14,416.4L19.74,415.8L18.84,414.7L17.21,413.4L16.94,411.2L16.72,408L16.85,406.5L17.35,403.7L18.29,402.8L19.02,402.6L19.56,402.2L19.11,402.2L18.7,402.3L18.02,402.4L18.57,399.9L18.84,399.2L19.96,397.8L21.31,396.6L21.85,395.1L22.62,393.8ZM252.3,407.3L253.3,407.6L254.2,407.5L254.7,406.9L254.8,406.2L255.3,404.9L256.4,403.9L257.2,403.8L257.7,403.4L257.6,402.4L257.7,401.4L258.5,400.4L261,398.9L262.4,398.4L264.3,398.2L264.6,398.8L264.3,399.6L264.7,400.8L264.5,404.1L264.1,404.5L262.2,405.6L260.1,406.6L259.5,406.9L258.9,407.8L259,408.7L260.7,409.9L263.3,411L263.9,411.6L264.3,412.4L264.4,413.4L265,413.9L265.9,414.1L266.5,414.6L267,415.2L262.5,413.7L261.3,413L259.9,412.9L258.5,412.7L257,412.1L255.5,412L254.8,412.4L254.5,413.2L254.3,414.2L254.6,415.3L254.6,416L254.3,417.3L255.5,421L256.9,424L258.9,427.1L259.9,428.1L261,429.1L259.2,428.8L258.7,427.8L256.3,426.7L255.9,426.1L254.3,423.2L253.9,422.7L252.5,421.7L251.9,420.9L251.6,419.9L251.8,418.9L251.7,417.5L251.8,416.1L252.1,414.3L251.6,413.7L250.9,413.1L250.1,411.8L249.9,410.3L250,409.4L250.3,408.6L250.7,407.9L250.8,407.3L249.7,406.3L248.6,403.6L248.5,402.2L249.9,399.5L249.9,398.2L250.2,397.4L250.3,396.6L251.1,394.8L252.3,393.3L254.5,391.1L255.3,390.7L256.2,390.4L256.3,390.9L256.1,391.4L254.6,393.6L254.3,394L254.3,395L255.1,395.5L255.9,396.6L256,398.1L256,399.6L255.9,401.2L255.5,401.8L254.3,403.4L251.4,405.2L251.1,405.7L251.1,406.2L251.7,406.8ZM277.7,453.8L280.6,455.2L282,455.4L284.6,455.2L285.5,455.3L287.9,457.1L288.6,458.3L288.8,459.4L289.2,460.4L289.7,460.6L290.4,460.7L291.3,462.2L291.5,462.6L290.8,466.2L288,464.9L285.3,463.3L284.1,462.7L281,461.4L280.5,461L280.2,460.4L278.8,459.6L276.1,459.4L275.1,459.5L274.7,459.6L274.7,460L274.7,460.9L274.1,461.2L272.4,460.6L270.9,460.4L269.6,459.9L267.8,459.6L267.6,459.3L267.8,458.9L267.7,458.5L267.3,458.4L266.5,458.4L265.7,458.8L265.1,459.3L264.2,460.4L263.7,460.9L262.2,461.1L261.5,461L261,460.7L259.2,458.5L258.6,458L258,457.6L257.3,457.4L256.8,457.8L256.4,458.5L256.3,459.3L256.1,459.8L255.3,461L254.7,461.8L254.5,461.7L254.8,460.4L254.8,459.8L254.4,459L254.2,458.3L257.1,454.7L258.2,453.8L262.8,453.5L265.6,453.7L267.1,453.6L268.1,453.3L269,453.4L269.2,454.2L269.7,454.7L270.4,454.6L271.7,454.1L272.9,453.2L273.6,452.9L274.3,452.8L275,452.9L275.7,453.1ZM241.4,456.6L243.5,457.6L244,458.2L244.4,458.9L244.8,459.4L245.2,459.7L246,460.4L246.3,461.4L246.1,463.4L245.1,463.6L244.3,463.9L242.5,465.1L241.6,465.3L240.6,465.4L240,465.7L239.3,465.8L237.5,465.2L235.8,464.4L233.4,463.1L232.9,462.7L232.5,462L231.4,460.8L231.1,459.9L231,457.6L231.3,457.1L231.8,456.8L233.4,457.3L234.5,456.8L237.6,456.3L240.8,456.3ZM374.5,482L372.2,480.8L371.9,479.9L371.4,480.3L370.8,480.5L370.2,479.9L369.5,479.6L368.7,479.7L368.1,479.4L367.3,479.3L366.6,479.2L363.6,478.3L360.8,476.8L358.5,476.2L357.1,475.3L355.6,474.7L352.3,474L349,473.6L347.7,473.6L346.8,473.7L345.8,473.7L340.3,470.5L339.3,469L339.4,468.2L339.7,467.4L341.9,467.2L340.3,467L339.7,467.1L338.4,467.7L337.6,467.8L336.7,467.4L335.7,466.9L334.1,467.3L333.4,466.6L333.1,465.8L332.6,465.5L332.1,465.5L331.3,465.8L330.5,465.7L330,465.2L329.6,464.5L329.1,464L328.4,463.6L327.3,462.7L326.8,461.5L326.8,459.4L327,458.6L328.1,457.3L328.8,456.2L327.9,456L327.1,456.6L326.7,457.1L326.6,457.8L326.5,460L325.8,460.7L324.8,460.6L325.1,462L324.7,463.2L323.5,464.7L323.4,465.3L323.6,466L323.3,466.7L321.4,468.8L320.8,468.9L319.4,468.9L317.9,469.2L317.2,468.7L316.7,468.1L316.2,467.4L315.7,465.9L315.2,464.3L316.7,462.4L316.2,460.6L315.2,459.2L312.7,457.1L310.2,455.2L309,454.8L307.1,454.6L306.5,454.4L305.9,453.7L305.4,452.8L306.6,452.5L308.7,451.5L309.8,451.5L313,452.1L313.9,452.6L314.8,452.8L317,451.2L318.7,449L319.8,448.6L320.7,448.4L321.6,448.6L323.5,449.4L324.9,449.7L325.9,449.8L326.5,450.5L327.1,450.8L327.2,449.8L327.7,448.6L328.7,448.2L329.3,448.2L329.6,447.9L329.5,446.8L328.2,446.6L329,445.7L329.6,445.2L329.8,444.8L329.9,444.2L327.2,445.3L324.4,445.8L322.8,445.7L321.1,445.6L317.8,446.4L316.6,446.3L313.7,446L312.1,445.7L310.8,446L309.6,446L308.4,445.2L307.3,444.1L306.8,443.4L306.1,442.8L305.7,442.1L305,439.4L304.9,437.4L303.7,437.4L302.4,437.2L297,435.4L296.3,435.8L295.5,436L294.8,436.1L294,436L293.2,435.7L293.3,435.2L293.9,434L294.4,433.5L295.2,433.2L295.7,432.5L296.5,430.5L296.5,429.8L296.4,429.1L296.5,428.6L297,428.4L299,427.7L303.3,426.7L304.4,426.1L305.3,425.2L306.4,424.6L306.8,424L307.4,423.6L310.7,422.4L312.1,422.3L313.6,422.4L316.5,423.1L319.3,424.3L321.7,425.9L324.2,427L327.4,427.2L329,427.1L330.5,427.2L331.1,427.5L332.2,428.5L331.9,429.1L331.7,430.4L332.3,431.7L333.2,433L333.9,434.3L334,435L333.8,436.4L333.5,437L332.6,438.2L332.2,439.5L332.5,441L332.6,442.5L332.6,444L332.8,445.4L333.2,446.8L335.4,450.7L336.6,453.4L337,451.9L336.9,450.2L337.3,449.7L337.9,449.3L338.7,449.7L338.9,450.3L339,451.8L339.6,454.6L340.4,454.8L341.4,454.3L341.5,455.2L341.5,456.8L341.9,458.1L342.3,458.6L343.8,459.6L344.5,459.8L346.5,460.1L348,460.2L349.4,459.8L350.4,458.8L351.2,457.8L354.1,455.4L354.9,454.3L355.7,452.5L356,452.1L358.9,450.2L359.2,449.6L359.6,448.3L360.3,447L360.7,446.4L363.5,445.8L366.4,445.4L369.3,444.3L370.5,443.3L370.6,442.6L370,441.5L369.9,441L370.6,440.5L373.1,439L376.1,437.5L378.5,436.5L379.8,436.5L381,437.4L382.3,438.1L389,440.3L390.1,441L391,441.9L392.4,442.5L393.9,442.9L395.3,443.4L396.5,444.2L399.4,445.6L402,446.7L402,482ZM-37.36,402.7L-37.31,403.6L-36.59,404.1L-36.41,404.8L-36.55,405.9L-37.18,407.2L-37.49,407.5L-38.39,407.2L-38.66,406.8L-38.8,406.5L-38.66,406.2L-39.34,405.9L-38.89,405.4L-39.2,404.8L-41.01,405.2L-41.55,405.2L-41.64,404.4L-41.55,404.1L-40.15,403.1L-39.34,402.9L-38.44,403.1ZM-34.97,420.1L-34.61,420.3L-34.16,419.7L-33.3,420.6L-32.81,421L-32.13,421.4L-32.81,421.5L-33.08,421.9L-33.26,422L-35.92,420.5L-37.63,421L-38.75,420.6L-39.12,420.3L-38.48,419.5L-37.9,417.7L-36.73,418.1L-36.46,418.7L-36.55,418.9L-35.78,419.2ZM-38.75,422.1L-37.58,423.3L-37.31,423.7L-37.9,424.4L-38.35,425.4L-38.62,425.6L-39.52,425.2L-40.15,426.2L-40.56,424.7L-41.46,423.7L-40.92,422.7L-40.69,422.7L-40.42,422.7L-40.15,422.9ZM26.77,432.7L24.29,434L23.7,433.9L23.25,433.4L23.52,431L23.84,430.2L25.59,430.2L26.63,430.5L27.17,430.9L27.4,431.7L27.31,432.2ZM342.9,431.9L342.3,432.1L341.6,431.9L340.9,430.9L341.2,430.2L341.9,429.7L342.6,430.2L342.8,430.8L343.3,430.9ZM246.3,424.1L245.5,424.4L244.7,424.4L244.5,423.1L244.8,421.4L245.6,421.1L246.8,421.5L246.4,421.9L246.7,422.8ZM250.3,421.9L251.7,423.8L250.8,425.5L251.4,426.5L253.2,426.6L253.7,427L254,427.4L254.2,428L253.7,428.5L252.7,429L251.5,428.3L251.2,427.7L251,427.5L249.4,428L249,428L248.7,427.2L249.1,426L248,425.4L246.9,424.2L246.9,423.7L247.3,422.8L247.3,422.1L247.8,422.1L248.9,423L249.4,422.1L249.8,421.7ZM259.2,463.9L258.8,464.4L258.1,464.7L257.5,464.7L257.7,464.2L257.5,464L257.1,464.1L256.4,464.4L255.5,465.2L254.9,464.8L254.8,464.2L254.8,464L255.9,463L257.2,462.8L259,461.9L259.8,462L259.6,462.5L259.4,463L259.2,463.4ZM240.9,367.4L240.4,367.6L239.6,367.6L239.5,366.9L240.3,365.8L240.9,364.5L240.3,364.2L239.7,363.5L239.7,362.6L240.2,360.9L240.9,361.1L241.5,361.8L241.8,363.1L242.2,364.2L241.3,365.5ZM226.4,374.9L226.1,375.3L224.5,374.6L224.6,373.5L224.5,372.9L224,372.3L223.9,371.8L224,371.1L224.9,371.9L225.5,373.2L226.2,374.4ZM285.2,439.1L285.3,439.8L286.1,440.5L285.8,441.6L285.5,441.7L285.7,442.2L286,442.6L285.4,442.9L285,442.7L284.3,443.1L283.8,443.5L282.4,443.7L281.9,443.3L279.3,442.8L277.7,441.6L277.4,441.3L280.6,439.9L282.1,439.6L283.3,439.6L284.7,439.1ZM179,482L178.9,481.8L179.5,481.5L180.2,481.5L180.4,482L179,482ZM195.8,432.6L196.1,433.4L195.6,434L196.1,435.3L197.4,433.6L198.6,433.4L199.3,433.7L199.7,434L200,434.7L199.5,436L198.7,436.7L197.7,436.8L197.2,436L196.6,435.9L196.1,437.7L195.9,437.9L195.3,438.1L194.8,437.7L194.7,437.4L195.4,436.6L195,434.2L194.4,434.7L192.9,436.8L191.7,437.8L191.4,437.3L190.7,435.8L191,434L192,432.7L192.8,432.8L195.1,432.4ZM178.9,423L179.4,423.5L179.1,424.2L178.7,424L177.5,424L177.1,424.1L176.6,424.5L176.3,424.5L176.5,423.9L177.5,423L178.1,423.1ZM109.3,466.4L106.7,468.7L106.3,468.1L106.5,465.7L105.7,464.3L105.8,463.1L106.3,461.2L107,459.7L108.5,458.7L108.9,458.6L108.8,460.4L109.1,461.1L109.2,461.7L109,462.2L109.3,464.5L109.5,465L109.1,465.8ZM-42,406.9L-41.86,406.9L-41.68,407.5L-41.68,407.5L-42,407.6L-42,406.9ZM-36.05,417.2L-35.96,417.5L-36.55,417.1L-36.91,416.9L-37.13,416.7L-38.44,415L-37.9,415.1L-36.46,416.6ZM-16.09,378.4L-16.13,379.2L-16.99,378.7L-17.17,377.8L-16.85,377.5L-16.27,377.6ZM-22.67,382.1L-23.21,382.1L-23.34,381.7L-23.3,381.1L-23.39,380.6L-23.52,380.2L-23.52,379.6L-23.03,379.9L-22.67,380.2L-22.22,380.4L-21.9,380.5L-21.72,380.6L-22.04,381.6ZM16.49,381.5L15.86,382.2L15.23,381.8L16.22,380.4L16.45,380.4ZM17.3,438.2L15.86,438.7L15.41,437.5L16.36,437.2L17.35,437.5ZM-1.218,454.2L-1.713,454.5L-2.029,454.2L-2.119,453.9L-1.894,453.4L-1.218,453.4L-0.902,453.5ZM-8.563,455.6L-8.788,455.8L-9.464,455.7L-9.96,455.3L-10.28,455L-10.37,454.6L-9.689,454.2L-8.247,454.6ZM200.6,439.2L199.8,439.3L199.2,439L199.2,437.1L199.8,436.7L200,436.8L200.2,437.3L200.4,437.8L200.8,438.3ZM196.2,469.4L194.9,470.9L194.1,470.9L193,469.9L192.8,468.8L192.7,468.4L193.5,467.8L195.8,468L196.2,468.5ZM203.7,442.4L204,442.9L203.2,442.9L202.9,441.9L202.9,441.4ZM195,440.7L194.1,441.7L194,441.1L194.2,440.6L194.4,440.3L194.8,440.1ZM126.1,365.7L127.3,365.7L129.1,365.5L129.5,366.7L129.6,367.1L127.3,367.8L125.9,366.3ZM126.3,376.8L126.1,377.2L125,376.2L124.7,375.5L124.9,374.9L126,374.9L126.5,375.2ZM110.8,461.3L110.4,463.5L109.6,462.2L110.4,460.8L110.9,460.5ZM247.8,408L247.4,408.4L247,408.3L246.8,407.8L246.8,407.4L247.2,407.1L247.6,407.3ZM335.5,444.5L335.1,444.7L335,444.1L335.2,443.4L335.4,443.3L335.7,443.3L336.1,443.6ZM325.4,471.1L326.1,471.8L324.6,471.3L322.5,470.1L322.3,469.4L324.1,470.5ZM292.1,427.6L291.8,428.3L291.1,428.7L285.8,429.5L286.2,429L286.5,428.6L286.8,428.3L287.4,428.4L287.6,428.2L287.9,428.2L288.2,428.3L288.7,428.1L289.8,428.2L290.9,428.1L290.8,427.5ZM288.6,424.5L287.9,424.5L286.6,424L287.3,423.5L287.8,423.4L288.2,423.1L288.4,423.1L289,423.4L289.3,423.8ZM275.1,420.2L274.6,420.3L274.1,419.6L272.9,418.7L272.1,417.3L275,419.7ZM248.9,418L248.8,418.4L248.4,417.8L248.2,417.7L248.4,416.4L248.6,416.1L248.8,417.1ZM248.5,409.9L248,410L247.9,410L247.8,409.4L248,408.6L248.5,408.6L248.7,408.7L248.8,409.4ZM246.9,427.7L246.8,427.9L245.5,427.6L245.1,427.4L245.8,425.7L246.4,425.7L247,427.4ZM264.7,462.3L264.7,462.9L264.6,463L264,462.8L263.5,462.9L263,461.9L263.2,461.7L264.1,462L264.4,462.1ZM262.8,462.8L260.6,463.5L261.1,462.3L261.4,461.9L262.4,462.3ZM239.7,369.4L239.7,369.9L239,368.7L238.6,367.3L239.3,367.8L240,368.8ZM241.4,370.7L241.1,370.8L240.7,370.5L240.4,370.1L240.5,369.8L240.8,369.6L241.4,370.1L241.4,370.5ZM223.3,384.7L223.1,385L222.7,383.5L223.1,382.8L223.6,383.1L223.7,383.3L223.2,384ZM255.5,454.7L254.9,455.7L253.8,455.7L253.7,455.5L255,454.9ZM250.8,459.4L251.1,460L249.8,459.6L249.3,459.1L249.8,458.8L250.1,458.7ZM132.8,101.5L132.4,102.3L131.7,102.2L131.7,101.6L131.5,101.4L131.7,100.9L131.9,100.7L132.7,101.2ZM178.9,2.229L177.9,2.637L174.6,1.388L172.3,-0.015L170.9,-1.675L170.7,-2.391L172.3,-2.263L173.9,-1.65L174.3,-0.73L174.9,-0.449L175.3,0.087L178.2,1.337L178.7,1.719ZM184.3,24.48L184.1,24.78L182.6,23.95L180.9,23.77L180.3,23.05L180.2,21.89L182,21.94L184.2,22.97L184.7,23.5ZM182.8,28.58L182.7,28.86L181.6,27.93L181.1,27.76L181.4,27.23L182.1,27.11L182.7,28.28ZM185.7,25.5L185.6,26.18L185.2,26.08L184.8,24.9L185,24.6L185.7,24.68ZM153.3,88.22L152.4,88.87L151.8,88.56L151.8,87.69L152.1,86.92L151.8,86.37L152.1,85.69L152.8,85.5L153,85.91L153.4,86.15L153.6,86.37L153.6,86.8L153.2,87.52L153.5,87.91ZM35.24,147.7L35.69,148.2L36.95,147.8L37.17,148.4L37.13,148.7L36.73,149.4L35.69,148.9L34.65,149L33.93,148.9L33.71,148.6L34.29,148ZM171.2,51.37L170.2,51.69L169.7,51.69L169.7,50.65L170.7,49.69L171,50.01L171.2,50.53ZM74.89,124.6L75.03,125.2L74.04,124.3L73.77,124.2L73.27,123.9L73,123.3L73.77,123.3L74.49,124ZM65.34,140.9L65.07,141.1L64.71,140.7L64.62,140L64.35,139.6L64.98,139.1L65.25,138.6L65.92,138.7L66.24,138.8L65.61,139.4L65.47,139.6ZM63.49,140.4L62.27,140.6L62.01,140.6L62.45,139.9L63.54,139.4ZM154.7,-42L155.1,-41.89L158.1,-40.02L158.9,-39.26L159.6,-37.65L160.9,-33.09L161.8,-30.84L161.9,-29.64L163.3,-27.43L164.8,-23.63L166.5,-20.33L166.8,-17.77L166.2,-16.58L166.3,-15.06L167.9,-13.64L171.8,-12.01L172.4,-11.55L173.1,-10.75L173.1,-8.311L173.7,-7.515L174.3,-7.053L176.6,-6.001L177.5,-5.155L178.5,-3.773L178.8,-2.545L178.9,-0.883L177.6,-0.832L176.6,-1.011L172.5,-3.158L171.4,-3.235L169.9,-2.928L167.8,-3.338L165.5,-5.719L163.8,-6.437L162.1,-6.822L157.9,-4.746L156.8,-4.899L156.5,-4.669L156,-4.31L158,-3.875L159.9,-4.541L161.8,-5.54L164.5,-5.002L165,-4.105L165.4,-2.596L167.3,-1.573L168.8,-1.113L170.7,0.214L172.5,2.331L176.4,4.75L177.9,7.037L178.5,8.534L179.1,10.64L177.7,11.32L176.6,11.42L174.7,11.75L173.4,12.49L172,13.8L168.1,15.87L167.3,17.16L166.8,18.27L165.9,18.82L163.4,18.29L161.2,18.34L158.7,19.85L158,20.46L158.4,20.36L158.8,20.16L160,20.38L161.8,19.58L163.5,22.04L166.9,21.64L170.1,19.58L171.3,19.55L172.4,19.88L173.5,20.68L176.6,24.25L178.3,24.65L179.9,25.48L180.8,25.58L181.6,25.83L179.4,27.13L176.6,29.96L175.3,30.63L174.4,31.38L176.7,31.01L178.4,29.66L179.2,29.33L179.9,29.63L180.2,31.31L179.6,36.42L178.8,36.49L178,35.1L177.1,34.67L176.3,34.95L174.8,34.95L174.2,35.57L173.7,36.47L174.6,36.64L176.4,38.18L176.6,39L176.1,39.55L174.8,39.32L176.4,40.47L176,41.66L175.5,42.13L174.6,42.42L174,43.46L174.8,45.17L175.7,47.37L175.7,48.43L174.5,47.99L172.5,49.32L171.5,49.42L170.8,47.67L169.9,47.94L169.3,48.46L168.5,50.36L167.6,52.06L166.7,52.52L165.7,52.4L164.9,52.45L165.2,52.89L166,53.46L166,54.12L164.2,56.19L163.8,57L163.9,57.68L162.9,58.52L163.4,59.91L163.2,60.89L162.3,62.21L161.5,63.09L160.4,64.51L159.1,65.32L157.3,68.29L156.8,69.78L156.7,71.31L156.1,71.82L155.2,72.5L154.1,72.16L154.1,71.14L153.6,71.04L153.3,70.39L153.3,69.53L153.4,68.85L152.9,69.05L152.7,69.85L151.9,70.51L151.2,70.24L150.4,69.7L150.5,70.48L150.9,71.24L151,72.02L152.1,72.16L152.9,73.06L153.5,74.4L153.6,74.91L154,75.51L154.1,76.02L153,76.51L151.7,77.38L150.1,78.9L148.8,79.92L147.7,79.92L147,79.8L146,79.22L144.8,78.98L146.4,81.03L147.2,81.39L148.3,81.32L149.3,80.55L150.8,80.62L151.2,81.81L150.8,83.13L150,84.87L149.8,86.37L150.8,88.48L150.9,89.13L150.5,89.45L149.3,88.89L148.3,88.2L147.4,88.36L146.4,88.08L145.3,88.32L144.9,88.82L145.2,89.64L146.1,90.31L146.6,91.35L146,91.71L143.4,91.47L142.8,91.66L142,92.79L142.5,94.49L141.9,95.52L140.8,95.78L139.4,96.62L138.5,96.81L138.6,97.17L139.2,97.56L139.6,98.06L138.7,99.78L137.6,100.3L135.7,100L134.2,100.4L133,99.71L131.6,99.69L130.7,100.6L130.6,101.7L129.7,101.8L129.2,101.7L128.6,101.8L128.7,102.4L129,102.9L130.9,103.1L131.2,103.8L131.3,104.9L129.3,106.8L128.5,108.1L127.3,108.1L126.4,109.1L125.9,110.6L125.3,110.3L123.9,110.5L123.4,111.1L123.8,111.4L123.8,111.9L123.2,113.5L122.6,113.9L122.3,113.3L122.2,112.3L121.7,112.2L120.9,113.1L119.9,113.8L119.1,114.1L118.4,113.4L116.9,113.1L116.3,115.8L115,116.7L114.4,117L113.4,117.1L114.1,117.5L114.3,118.2L113.9,118.8L112.8,119L112.2,119.5L112,121.9L111.4,122.7L109.8,122.7L108.6,122.2L108.3,122.6L108.1,123.1L107.5,123.5L106.3,123.6L103.6,124.7L102.5,124.3L101,123.9L99.99,124.3L99.68,125.1L99.23,125.8L97.78,125.8L96.61,125L95.44,124.4L94.13,124.9L93.14,125.9L91.93,126.2L91.7,126.8L91.16,127.2L89.85,127L89.36,125.5L88.64,125.3L87.92,126L87.64,126.7L87.28,127.1L87.42,128.4L86.7,128.4L85.75,127.6L84.72,127.5L83.81,128.2L83.32,128L82.82,127.9L82.01,127.9L81.7,128L81.11,128.2L80.7,128.5L80.66,128.6L79.62,128.3L78.32,127.3L77.42,125.6L76.24,124.7L75.7,123.8L75.52,122.4L75.3,121.7L75.39,120.9L75.7,120.2L74.44,120.6L73.54,121.2L73.72,122L73.5,122.8L72.1,123.1L72.19,123.5L72.28,123.8L73.36,124.8L73.59,125.7L74.04,126.1L74.89,127.5L74.85,130L75.34,130.8L75.16,131.5L74.85,132.5L74.8,132.5L74.53,132.2L74.13,132.2L73.99,132.6L73.95,132.9L73.9,132.9L73.18,133.1L72.55,133.3L72.05,133.5L71.29,134.3L69.8,134.5L69.08,132.7L68.04,133.9L67.77,136.3L67.37,136.8L66.74,137.1L65.56,136.2L64.53,136.8L63.72,137.4L63.36,137.9L62.77,138.5L61.64,137.9L60.7,137.1L60.92,136.5L60.83,136.1L60.38,135.7L59.93,135.8L60.16,136.6L60.34,138.2L59.89,138.6L59.26,139L57.86,138.7L56.91,138.1L55.74,137.6L54.75,137.5L54.52,138.5L53.85,139.3L53.26,139.4L52.63,139.3L51.82,140.1L51.46,140.8L50.47,141.5L47.85,141.8L46.91,142.4L45.69,142.3L44.75,142.5L44.16,142.4L43.71,142.1L43.12,142.1L42.9,143.2L41.41,143.7L40.06,143.8L38.57,145.2L37.49,146.1L36.73,146.2L36.14,145.9L35.82,144.6L35.55,144.4L35.37,145.6L35.1,146.6L34.56,147.2L32.85,148.5L32.35,149.7L32.67,150.8L34.97,151.1L35.28,151.8L35.06,152.3L34.47,152.7L34.34,153.4L36.81,155.4L36.91,156.2L36.5,156.6L36.05,157.6L34.74,158.4L31.95,158.8L29.65,158.4L28.93,157.5L28.97,156.8L29.56,157L30.19,156.9L30.01,156.3L29.74,156L28.66,155.4L27.8,154L27.98,152.8L27.49,151.9L26.99,151.1L26.45,150.6L26.18,150.1L26.72,148.2L26.41,147.2L27.4,145.9L27.67,144.4L29.43,143.9L29.56,142.5L28.25,142.5L27.4,141.4L27.17,141.9L26.5,141.9L25.32,139.9L24.96,139.7L24.42,139.6L24.69,141.7L23.34,142.5L22.21,142.9L20.64,143L19.74,143.2L18.93,143L19.11,142.4L19.56,141.6L19.15,141L18.25,140.5L16.9,140.6L15.95,140.4L15.05,140.5L14.69,140.2L13.83,139.2L13.07,138.6L12.75,138L13.07,137.3L12.8,136.8L11.36,136.8L11.4,137.8L11.54,139L11.94,139.9L11.67,140.5L10.95,140.8L10.18,139.8L9.823,139.6L9.417,139.6L9.147,140.6L8.471,141.5L7.209,141.4L6.218,141.9L5.046,142.1L5.046,142.1L4.235,141.4L2.883,140.3L2.342,140.1L0.855,140.7L-1.263,140.9L-1.713,140.3L-2.75,140.8L-3.741,139.4L-4.913,139.3L-6.355,138.3L-6.895,137.7L-7.076,136.9L-7.526,136.5L-8.067,136.6L-8.698,136.2L-9.734,135.7L-10.55,135.5L-10.95,135.7L-11.36,135.8L-11.45,135.3L-11.4,133.7L-11.49,132.2L-11.72,131.6L-12.26,131.1L-12.75,130.9L-12.93,130.2L-12.75,128.7L-12.39,127.7L-11.72,127.6L-10.86,126.9L-10.46,125.9L-9.915,125L-11.85,123.7L-12.89,123.2L-14.02,123.4L-15.41,123.8L-16.18,123.9L-16.54,123.7L-17.35,122.6L-17.8,122.4L-18.79,122.3L-19.65,122.3L-20.14,122.8L-20.86,123L-21.63,123L-22.4,122.4L-23.52,121.5L-25.33,121L-25.55,120.3L-26,119.5L-26.68,118.8L-27.8,117.8L-28.75,117.3L-29.2,117.6L-29.83,118.1L-32.22,119.3L-33.3,119.8L-33.89,120.1L-34.34,120.6L-34.52,121.8L-34.74,123.2L-35.42,123.9L-36.1,124.4L-36.77,124.4L-37.45,124.4L-38.12,124.6L-40.06,126L-40.96,125.9L-41.73,125.1L-42,124.6L-42,-42ZM41.55,162.4L42.13,163L42.54,163.9L42.9,165.4L43.08,166.9L41.82,167.8L40.69,168.2L38.44,171.7L37.94,172.8L37.58,173.3L37.45,173.8L37.49,174.3L36.91,176L36.36,178.1L36.05,178.9L35.42,179.6L34.56,179.9L34.07,180L33.57,180.2L32.35,181.3L31,182.1L31.23,182.5L31.23,182.9L30.64,183.3L30.01,183.2L28.12,183.6L27.4,184.2L26.68,185.4L26.41,185.5L25.28,185.8L24.38,185.9L22.89,185.1L22.17,184.8L20.19,184.5L18.25,184L16.9,183.3L14.15,181.7L13.83,178.9L13.34,177.4L13.34,176.8L13.52,172.1L13.7,171.6L14.06,171.1L15.28,170.1L16.67,169.2L18.66,167.5L20.14,166.6L21.36,165.5L20.64,165.5L20.1,165.4L20.64,164.4L21.18,163.9L21.81,163.6L23.12,163.8L24.33,163.6L25.19,162.7L26.05,162.5L29.24,162.8L31.45,162.4L32.53,161.6L33.08,161.6L34.7,161.8L35.33,162.7L35.28,162.1L35.33,161.5L35.64,161.6L37.76,162.6L37.76,161.4L37.9,161L38.57,160.5L38.89,160.5L39.74,161.5L40.51,162.1ZM73.95,132.9L73.99,132.6L74.13,132.2L74.53,132.2L74.8,132.5L74.8,132.5L74.22,132.8L74.04,132.8ZM80.66,128.6L80.7,128.5L81.11,128.2L81.7,128L82.01,127.9L82.82,127.9L83.32,128L83.81,128.2L83.86,128.2L84.13,128.8L84.04,129.3L84.54,129.6L84.67,130.1L84.13,130.4L84.08,131.1L83.81,131.5L82.19,130.8L80.89,130.4L79.67,130.6L79.26,130.1L79.17,129.7L80.57,129ZM83.36,132.7L83.05,132.9L82.19,131.9L82.15,131.5L82.82,131.5L83.54,131.9L83.54,132.3ZM80.44,132.7L78.95,132.7L78.63,132.5L78.45,132.2L78.99,131.7L81.02,131L80.53,131.8ZM-42,235.8L-41.86,235.8L-39.57,236.1L-37.49,235.9L-34.97,235.4L-33.71,235.7L-32.58,236.2L-32.4,237.2L-32.13,237.6L-31.77,238L-31.27,238L-30.6,237.3L-30.06,236.6L-29.88,236.4L-29.88,236.8L-29.61,237.5L-29.11,238.3L-28.61,238.8L-27.8,239.5L-27.26,239.5L-25.51,238.9L-22.94,239.8L-22.62,240.3L-21.77,241.2L-20.86,241.9L-18.84,241.9L-18.12,240.3L-18.43,239.3L-19.6,237.5L-19.92,236.5L-19.56,236.3L-17.57,236.1L-17.26,235.9L-16.85,234.8L-16.31,234.9L-15.23,235L-14.06,234.2L-13.38,233.4L-13.02,233.8L-12.62,234.4L-12.17,234.7L-11.36,235.2L-10.41,235.9L-9.87,236.6L-9.419,236.8L-8.247,236.6L-7.932,236.7L-7.256,235.9L-6.76,235.4L-6.355,235.5L-5.769,235.5L-4.552,234.5L-3.876,233.5L-3.471,233.3L-2.389,233.7L-1.939,233.6L-1.308,232.3L-0.632,231.8L-0.632,231.8L-0.452,232.5L-0.992,233.8L-1.533,235.1L-2.569,236.1L-2.615,236.9L-3.02,239.3L-2.84,240L-2.615,240.7L-2.254,241L-1.353,243.3L-0.542,245.4L0.269,247.1L0.45,248.1L-0.316,250.9L-1.218,253.4L-1.128,254.6L-0.722,255.9L-0.361,257.5L-0.181,259.7L-0.407,261.1L-0.812,261.9L-1.578,262.8L-2.209,263.3L-3.02,262.5L-3.651,262.5L-4.507,262.7L-5.138,263L-6.49,264.3L-8.022,265.6L-10.1,265.9L-10.91,266.9L-11.76,267L-13.43,267L-14.47,267.3L-14.42,267.7L-14.51,269.9L-14.51,270.5L-14.65,270.6L-15.41,270.7L-16.67,270.3L-18.39,269.8L-19.6,269.7L-20.23,270.7L-20.59,271L-21.05,271.1L-21.54,271.3L-21.68,271.7L-21.72,272.2L-21.5,273.1L-21.41,274.6L-21.45,275.6L-21,276.2L-18.43,278.4L-17.66,278.9L-17.57,279.2L-18.03,280.4L-17.62,282L-18.43,282L-19.78,281.2L-20.46,280.8L-21.23,281.2L-21.5,281.1L-22.04,280.3L-22.71,279.5L-23.43,279.4L-24.96,279.8L-26.5,280L-27.08,280L-27.35,280.1L-28.25,281.3L-28.61,281.1L-30.19,280.7L-31.59,280.5L-31.91,280.8L-31.73,281.8L-31.41,282.8L-31.59,283.2L-32.4,283.7L-33.44,284.6L-34.07,285.3L-34.47,285.5L-36.05,285.4L-37.63,285.5L-38.26,286.2L-38.84,286.7L-39.34,286.9L-41.41,285.2L-42,285.1L-42,235.8ZM94.77,356.5L95.08,356.9L95.85,358.4L96.34,359.8L96.48,362.1L97.06,363L96.97,363.2L96.61,363.4L96.07,363.4L95.13,363.2L94.31,362.9L93.64,360.5L93.32,359.1L93.37,357.5L93.32,356.5ZM93.32,356.5L92.29,357L91.3,357.7L90.3,358.3L89.81,358.8L89.99,359.4L90.21,360.9L90.35,362L90.71,362.4L90.98,362.9L90.89,363.3L90.26,364.3L90.62,364.5L90.17,365.7L89.54,366.6L88.68,367.3L88.1,367.5L87.64,367.2L86.88,366.4L86.07,365.2L85.71,364.6L84.54,364.5L84.08,364L84.08,363.3L83.72,362.6L83.27,361.8L82.6,361.2L81.65,360.7L81.29,360.4L82.69,360.4L84.22,360.2L85.8,359.5L87.28,358.7L88.55,357.8L89.76,356.7L90.98,355.9L92.92,355L93.59,355L93.59,355.7Z" fill="#D8E2E7" stroke="#3F464B" stroke-width="0.85" vector-effect="non-scaling-stroke"/><path d="M169.3,180.7L171.3,181.4L175.5,183.8L177,184.5L178.7,184.9L179.9,185L181.1,184.5L181.6,183.9L182.5,182.4L183.4,182.2L183.9,182.7L184.3,183.5L184.6,184.6L184.3,185.7L183.4,186.7L182.9,188L182.5,192L182.5,193.2L182.8,194.4L183.6,196.2L184,196.7L185.2,197.4L185.5,197.9L185.5,198.8L185.7,199.6L186.5,199.9L187.1,200.3L186.9,201.2L186.5,202L185.9,204.2L183.4,209.3L183.3,210.4L182.3,212.6L180.3,212.9L177.9,214L176.7,214.8L175.6,215.8L175.1,217.2L175.5,217.9L175.7,218.6L175.7,219.3L175.3,219.9L174.2,221.3L173.8,222.6L173.3,223.1L173,223.8L173.1,224.5L173.5,225.2L174.9,228L176.4,230.7L176.7,231L176.8,231.4L175.9,232.1L176,233.4L176.2,234.7L177.5,237.9L177.7,238.7L178.1,239.4L178.8,240.1L179.5,240.6L181.6,241.6L182.4,241.8L183.3,241.8L183.4,241.2L184.2,240.9L184,240.3L183.1,239.5L183.1,239L183.6,238.6L184.2,238.4L185.4,237.5L186.7,236.7L188.4,236.8L190.1,237.2L191.3,237.7L192.3,238.5L193.3,239.9L194,241.4L194,242.2L193.9,242.9L193.9,243.6L194.4,244.1L196,244.1L196.8,243L197,241.7L196.4,241.2L196.7,240.6L197.1,240.1L197.9,240.5L198.5,241.3L201.1,242.2L201.7,242.2L202.2,242.4L203.3,243L203.9,243.5L203.2,244.5L200.7,244.7L200,245.5L200.8,247L201.9,248.2L202.7,249.2L203.4,250.3L203.4,251.3L203,252.3L204,252.3L205.1,252.5L206.5,253.4L207,253.4L207.4,253.3L207.4,256.4L206.4,259.3L205.2,259L204.1,257.8L204.3,256.3L205,254.8L204.6,254.5L204,254.7L203.2,255L202.3,255.1L201,254.9L198.2,253.3L197,253.2L196.7,252.5L196.8,251L195.7,249.2L195.5,248.6L195.2,248.1L191.8,246.2L191.4,245.8L190.4,244.3L188,242.1L187.4,241.9L186.7,241.8L186.5,242.4L186.8,243.2L186.9,243.9L186.9,244.7L187,245.3L188.1,246.5L188.2,247.1L189,248.7L189.1,250.5L188.1,251.3L187.1,250.4L187,249.7L186.8,249.1L185.7,247.4L185.3,247.1L183.2,245.4L181.5,243.6L177.8,241.7L177.4,241.6L176.7,241.8L176.1,242L174.3,242.9L173.7,243.6L173.7,244.6L172.4,245.4L170.7,245.5L169.3,245L168.2,244L167.2,244L166.1,242.4L164.7,242.2L163.5,243.4L163.3,241L163.3,238.5L163.6,237.7L164.2,237.1L167.1,234.5L167.5,233.7L167.4,232.6L166.7,231.7L165.6,231.1L164.4,230.9L163.6,230.4L162.9,229.5L162.4,231L162.9,233.2L162.9,234.7L162.5,235.2L161.8,235.2L161.1,235L160.6,234.5L160.2,233L159.1,232.1L158.7,230.6L158.3,230.4L157.3,230.6L156.6,229.9L156.1,228.2L156,226.5L155.6,225L155.1,223.6L154.7,222.4L154.2,217.1L154.1,216.6L153.8,216.2L153.2,215.6L152.7,214.9L152.6,214.3L152.7,211.7L152.9,211L153.4,210.7L154.2,211.2L154.7,211.9L155.4,212.2L156,212.6L157.1,214.1L157.6,214.3L159,214.3L159.8,214.1L160.2,213.6L160.4,212.9L160.5,212.1L159.7,209.8L159.4,208.1L159.4,206.6L159.6,205L160.7,202.5L160.8,200.7L160.7,198.4L160.9,197L160.9,196.2L160.2,194.9L160.1,193.6L161.9,186.7L162.5,185.3L162.9,183.9L163.1,182.1L164.5,181.6L165.8,180.8L166.5,180.9L167.1,181.1L168.8,180.7ZM121.9,311.9L120.8,312.8L120.9,311.7L121.2,310.6L122.4,308.4L123.2,307.7L124.6,306L125.5,305.2L127.3,303.5L129.1,301.7L129.7,301.6L130.3,301.6L130.9,301.4L132,300.4L134.8,297.1L137.2,294.7L139.6,291.7L140.8,290.7L141.1,290.4L143.3,287.6L144.1,287.2L144.8,286.9L145.4,286.5L145.9,286L146.6,284.8L147,283.3L146.8,282.5L146.3,281.3L146.9,279.7L147.3,278.9L148.9,275.6L149.3,274.9L150,275.4L150.1,276L149.7,277.4L149.7,278.1L150.1,278.8L149.7,280L150.8,283.1L151.6,285.1L151.7,285.7L150.5,286.9L149.8,287.3L148.3,287.6L147.7,287.9L146.6,288.9L146,290.2L145.8,290.8L145.5,291.3L142.4,292.2L141,292.7L140.3,293.2L140,293.8L140.2,295.1L137.7,299.4L136.9,300.6L136,301.6L134.9,302.2L133.4,302.7L132.2,303.5L131.4,305L130.4,306.3L129.1,307.3L127.8,308.2L126.5,308.9L125.2,309.3L124.8,309.9L124.5,310.6L123.9,311L123.2,311.2ZM186.8,271.5L188.3,272.2L189.7,271.6L191.1,271.8L192.3,272.6L191.9,273.1L191.8,273.7L194.4,272.5L195.1,272.5L195.1,273.7L194.9,274.7L194.6,275.7L194.1,276.9L193.3,277.9L192.4,278.6L191.2,279.1L190.7,279.5L190.5,280.1L190.5,280.9L190.3,281.6L189,281.9L187.1,283.3L183.1,284.2L182,284.8L181.2,285.6L180.5,286.3L180,286.4L179.8,286.1L179.8,285.8L180.4,284L180.2,283.2L180,282.5L180.2,281L180.9,279.6L181.2,278.1L181.4,275.2L181.9,271.2L181.9,270.7L181.5,270.1L179.9,269.7L179.3,269.3L179.6,268.5L180.2,267.9L181,267.9L181.7,268.4L184.3,269.5L185.6,270.4ZM194.8,304L193.9,304.1L193,304L192.5,303.4L191.5,300.7L190.3,300.1L188.9,299.6L188.3,299.2L187.6,298.7L185.7,296L185.6,294.3L185.9,293.4L186.5,292.6L187.1,292.4L188.7,292.3L189.5,292.2L191.3,291L191.5,290.5L191.5,288.5L191.3,287.1L190.8,285.7L191.3,285.1L192,284.4L192.6,283.2L192.7,282.4L192.7,281.4L192.9,280.8L193.5,280.5L195.9,279.5L196.3,279.4L199.5,280.3L200.2,281.7L200.2,282.2L199.7,283.7L199.3,284.7L198.2,286.3L197.4,288L196.8,290.5L196.5,291.3L195.5,292.9L195.2,293.8L195.2,295.7L195,296.4L195,297.1L197,300.3L197.1,300.8L197.1,301.3L196.8,302L196,303.2L195.5,303.7ZM212.8,275L213.7,275.4L214.7,275.2L215.9,274.2L217.3,274.6L218.1,276.1L218.5,276.7L218.7,277.6L218.6,280L218.3,282.1L218.6,282.5L219.2,282.9L219.8,283.4L220.2,284L220.5,284.7L220.6,286.3L221.4,287.7L221.5,288.2L221.3,288.7L220,288.6L219.9,289.1L219.9,289.7L219.5,289.3L218.7,288L218,287.4L218.2,289.6L218.5,290.6L218.5,291.7L217.3,290.9L215.8,290.4L215.4,290L215.6,288.6L215.5,287.9L214.9,286.5L215.6,283.4L215.6,282.8L215.5,282.2L214.9,280.9L214,279.9L213.4,279.9L211.9,280.6L211.2,280.3L210.8,277.4L210.2,274.6L209.8,273.9L209.5,273.2L209.8,272.5L210.3,272.8L211.1,273.5L212.1,274L212.5,274.3ZM221.2,259.8L222.1,260.9L222.2,261.6L222.2,262.5L222.6,262.8L223.3,262.9L224.2,263.4L224.9,264.1L224.5,264.9L224.6,265.9L223.9,267.2L224,269.5L224.4,270.3L224.4,271L224.3,271.8L224.5,272.4L225.6,274.5L225.8,275.2L225.4,275.8L225.4,276.3L226,276.4L227,277.3L227.5,278.4L227.4,278.7L226.6,277.8L226,277.7L223.6,277.9L222.1,277.6L221.1,277.5L220.1,276L219.3,275.7L218.6,275L217.5,273.3L217.1,272.2L217.9,271.2L218.1,270.4L218.1,269.6L217.3,269.7L216.7,269.5L215.9,268.5L215.6,267.9L215,267.4L214.1,266.3L212.8,265.9L212.3,265.6L211.2,264.6L210.5,263.5L209.7,261.4L209.3,259.3L212.7,259.9L216.2,259.7L220,259.3ZM164.4,247.6L165,247.7L167,247.3L167.9,247.5L168.4,248.3L169.1,248.5L169.6,248.9L170.7,248.2L171.6,249L172.5,250.4L173.6,251.3L174.6,252.1L174.8,252.6L174.2,253.5L174,254.6L174.1,255.9L174.8,258.4L174.6,259.1L173.8,260.1L173.3,261.2L173.3,261.6L173.1,262L173,262.7L172.5,262.6L172.1,262.7L171.7,263.1L171.1,263.8L170,263.6L169.6,263.3L169.4,262.7L169.1,262.3L168.7,262L167.6,260.9L167.1,260L167.1,259.1L166.8,258.3L166.3,257.6L165.6,257L165.3,256.5L165.2,255.8L165.2,254.2L164.1,252.1L163.7,251.6L162.8,251.1L162,250.4L161.6,249.8L161.3,248.7L161.1,248.5L160.4,248.6L159.8,248.5L160,247.7L160.6,247.1L161.5,247.1L163.8,247.4ZM230.8,300.7L231.8,301.5L233.1,301.3L233.1,303.2L233.3,303.8L234.5,305.4L234.7,306.7L234,308L233.4,308.6L232.4,309.5L232.4,309.9L232.8,310.3L234.2,310.6L235.3,311.3L235.4,313.3L236.4,314.9L236.4,315.6L236,318.4L236.1,319.5L236.8,320.5L237.5,320.9L237.8,321.5L238.1,323.2L238.1,326L238,326.9L237.5,327.9L236.2,329.9L234.4,331.6L233.4,331.4L233.1,331.9L233.7,333.4L233.5,336.6L233.1,338.8L232.5,337.7L232.1,336.5L231.7,333.4L231.2,332L230.5,330.8L230.2,329.6L229.5,328.6L228.5,325.9L227.8,326L226.8,326.8L226.6,327.3L226.4,328.1L226.2,328.8L224.9,329.9L224,331.2L223.2,332.6L222.9,334L223.6,335L224.3,335.4L225.2,336.4L225.5,336.8L226.6,339.8L226.5,342.9L225.8,344.3L223.9,346.9L222.5,347.7L221.8,347.3L221.2,345.7L221.1,345.1L221.5,343.6L221.5,342.2L221.1,341.8L220.5,341.9L220.4,342.1L219.1,343.8L218.6,344.3L217.8,344.3L217.2,344.2L213.6,342.7L210.6,341.2L208.3,339.7L206.6,337.6L206.2,336L206.2,334.3L205.5,331.8L205.4,331L205.5,330.2L206.2,328.6L207.1,327.9L207.6,327.3L208.1,326.7L208.3,325.9L208.2,325.1L207.9,324.6L206.5,322.8L205.3,321.7L202.7,320.7L202.1,320.2L201.5,319.7L200.8,319.6L200,319.6L199.3,319.9L199.1,320.5L199.2,321.1L199.1,321.7L198,324.9L196.7,324.2L195.3,323.4L195,322.8L194.8,322.1L194.6,321.7L194.4,321.2L193.7,322.3L193,323.2L192.1,323.4L191.2,323.4L190.8,323L190.5,321L189.5,320.3L188.3,320.4L186.8,321.6L186.6,322L186.2,323L184.6,325.8L183.8,327.9L182.8,330L182.4,330.7L181.8,331.2L181,331L180.2,330.5L179.4,329.1L179.7,327.5L180.5,326.6L181.2,325.5L182.1,321.7L182.1,320.4L182.3,319.8L183.7,318.1L184.8,317.1L185.4,316.9L188,316.3L189,315.8L190.7,315.8L192,315.5L193.1,314.7L193.2,313.8L193.1,312.9L193.4,312.4L193.8,312L194.3,311.4L195,310.9L196.8,310.6L197.4,310.2L197.9,309.6L198.6,308.5L199.4,308.8L200.2,309.3L201.7,309.6L202.9,310.5L203.8,312L203.9,312.7L204.1,315L203.8,315.6L202.6,316.7L203.1,316.8L204.8,315.8L205.6,315.4L207.6,314.9L208.1,314.5L208.5,314L209.2,312.6L209.7,311L210.1,310.4L210.7,309.9L211.3,309.8L213.4,310.8L214.8,310.3L215.2,308.7L215.5,306.4L215.8,305.8L216.5,305.1L217.5,305.3L218.7,306.2L219.9,306.5L220.4,305.8L220.8,304.4L221.3,304.5L222.9,304.9L224.4,304.6L224.9,303L224.5,301.3L223.3,296.3L224,295.2L224.7,295.2L226.2,296.5L229.1,298.3L230.1,299.4ZM197.8,299.1L197.3,299.4L197.1,298.6L197.2,297.5L198.2,293.5L198,292.5L199.6,290.3L200.6,288.3L202,286.1L202.2,284.9L203.5,282.8L204.8,279.8L204.7,278.8L205,278.3L205.2,277.6L205.2,277L206.1,275.9L206.4,276.6L206.1,278L206.2,278.7L206.3,279L206.3,280.3L206,282.3L206.3,284.7L205.7,287L205,288.1L204.1,288.8L203,289.3L201.9,290.5L201.2,291.8L201.1,293.1L199.3,297.3ZM179.6,177L178.9,177.9L178.4,177.7L178.9,176.8L178.9,176.4L179.2,175.7L179.9,175.5L180.5,176.2ZM174.6,170.8L174.8,172L174,172L172.9,171.2L172.8,170.9L172.8,170.6L173,170.3ZM180.1,157.4L179.9,157.6L179.5,157.5L179.9,156.3L180.5,155.9L181,156.1ZM179.1,151.9L178.5,153L178,153L178.1,152.4L178.7,151.1L178.9,151.1ZM170.1,341.7L170.8,342.6L171.6,342.4L173,342.6L173.3,343.1L173.2,343.4L171.8,344.3L170.8,343.4L169.1,344L168.3,343.6L167.2,344L166.5,343.3L166.8,342.6L168.6,341.5ZM119,318.9L118.4,319.9L117.7,318.8L117.7,317.2L117.9,316.8L119,316.6ZM154.5,285.9L153,286.3L152.6,285.1L153.7,283.9L155,284.4L155.7,284.9L155.3,285.3ZM156.8,264.4L157.5,264.6L158,264.5L158.4,263.8L158.8,264.8L159.8,265.6L159.5,266.4L158.6,266.5L157.8,266.3L156.8,266.7L155.7,266.5L155.1,265.7L154.3,264.3L153.9,264L153.9,263.5L154.2,263.1L154.1,263L154.2,262.7L154.3,262.6L154.5,262.5L155.1,263.1L156.5,264.1ZM156,270.4L155.1,270.8L154.9,270.5L154.7,269.9L154.7,269.5L153.8,267.2L154.5,266.8L155,267.1L155.6,267.5L156,267.7L156.5,268.4L156.4,268.9L156.5,269.4ZM188.7,286.1L188.4,286.3L188.1,286.2L187.4,286.7L187.1,285.8L187.3,284.4L188.4,283.3L188.7,282.9L189,282.7L189.4,282.7L189.8,283.1L189.8,283.8L189.1,285.8ZM213.1,294.8L213,295.3L212,295.2L211.6,295.3L210.7,296.5L210.2,296.8L207.2,297.2L204.9,296.9L204,296.2L203.5,295.1L203.4,294.4L204,293.6L204.5,293.1L206.4,292.1L206.8,291.3L207.8,290.4L209.9,290.1L210,290.3L210.3,290.4L210.7,290.5L211.7,291.3L212.9,291.8L212.6,293.6L212.9,294.3ZM158.7,352L158.4,352.8L158,353.1L157.4,352.9L157,352.5L156.8,353.1L155.7,353.3L155.1,354.2L154,354.5L153.3,354.4L153.4,353.6L155.4,352.4L156.6,351.9L157.6,351.1L158.2,351L158.4,351.7ZM181.8,337.3L180.5,337.4L180.1,337.4L179.1,336.1L179,335.6L178.2,334.9L178.5,334.3L179.5,334.2L181.3,333.3L184.2,334.6L184.7,335.1L183.8,335.4L183.1,336.6ZM231.4,295.1L231.3,295.1L230.6,294.1L230.7,293L231.6,291.3L232.3,292.8L232.3,293.5L232.2,293.8L232.8,294.6L232.4,295.1ZM226.8,293.2L226.6,293.5L226.3,292.8L225.5,292.1L224.9,290.9L224.4,290.6L224.7,289.7L224.7,288.2L225.4,287.5L225.8,287.3L226.3,286.5L226.5,286.5L226.8,287.1L226.3,289L227,291.2L226.7,292.6L226.8,292.9ZM159,244.1L159,245L156.9,243.7L156.8,243.3L156.9,242.9L157.1,242.7L158.2,243.2ZM179.5,246.8L180.3,246.9L180.6,246.7L182.1,247.8L182,248.3L182.1,249.1L181.3,250.3L181.1,250.7L180.7,251.1L179.1,250.2L178.5,249.6L178.3,248.3L178.9,246.5ZM181.8,262.1L180.8,265.2L180.1,264.1L180.4,263.5L179.8,262.9L179.7,262.3L179.9,261.7L180.5,261L180.6,258.9L181.9,258.3L182.4,258.2L182.2,258.7L182.3,259.7ZM188.8,262.6L188.2,262.9L186.9,261.7L186.1,261.1L185.9,260.8L186.5,260.3L188.2,260.3L189,261.2L189.2,261.7ZM196.7,255.6L197.7,257.6L196.6,256.3L195.2,255.4L193.8,253.9L192.8,253.3L192.5,253L192.6,252.4L193.4,252.3L193.7,252.3L195.7,255ZM202.8,260.8L202.9,261.9L202.4,261.5L200.9,259.3L200.5,258.5L200.9,257.9L202,258.8ZM202.1,262.9L204.5,264.4L206.2,267L206.3,269L206.2,269.8L205.4,268.9L203.7,267.7L202.6,267.4L202.2,267.2L202.3,266.5L201.6,265.9L201.5,265.7L200.8,265.4L199.8,264.1L199,263.8L198.4,264.1L196.8,266.1L195.1,267.5L195.1,267L195.7,265.2L196.2,262.4L196.5,261.5L196.1,260.3L196.1,259.1L197.3,259.7L198.9,260.2L200.1,260.9L200.3,261.4ZM210.1,245.6L209.7,246.5L209.3,246.2L208.8,246.2L207.8,246.9L206.3,246L206.1,245.2L207.2,243.6L207.2,241.2L207.6,240.6L208,240.1L208.5,239.9L209.5,241.6L209.9,241.8L210.8,242.6L210.6,244.1L210.7,245ZM182.8,240.3L182.8,240.8L180.1,238.9L179.9,238.5L179.9,238.3L180.1,237.9ZM181,227.9L181.2,228.4L181,228.3L180.8,228.4L180.2,229.3L180.9,231.1L180.5,232.3L179.8,232.4L179.5,232.3L179.6,231.7L179.8,231.4L179.7,230.6L179.2,230L178.9,229.1L178.4,228.4L178.6,227.5L180.2,227.4ZM209.6,284.4L209.3,284.5L209.9,283.1L210.3,283.3L210.4,283.4L210.4,284.1ZM221.7,292.3L221.8,293L220.2,291.3L219.8,290.1L220.4,290.2L221.1,290.6ZM192.3,324.9L192.5,325.2L192.4,325.5L191.1,326.1L190.7,326.1L190.6,325.1L190.9,324.7L191.5,325.1L192.1,324.6ZM228,330.5L227.8,331.2L227,329.6L226.7,329.1L227.1,327.7L228,328.4ZM213.3,273.1L211.7,273.2L211,272.6L210.2,270.9L211.1,270.5L212.1,270.6L212.7,271.2L213.4,272.3ZM215.8,303L215.4,303.7L214,303.1L213.6,302.6L213.8,301.9L214.5,301.7L214.9,301.7L215.5,302.4ZM171.2,174.5L171.2,175.4L170.6,174.9L170.4,174.3L170.5,173.8L170.7,173.2L171.1,173.7ZM153.8,272.7L154.1,273.3L153.8,274.4L153.4,274.6L153.1,274.2L152.2,273.9L152.1,273.3L152.6,273.3L153.4,272.8ZM202.6,275.8L203.3,277.4L202.3,277.4L202,276.2L202.4,275.8ZM184.5,259.8L184.1,260.2L183.9,260.1L183.7,259.5L184.1,259L184.2,259ZM230.3,297.3L230.1,297.6L229.7,296.9L230,295.4L230.3,295.2L230.6,296.1ZM216.3,271.8L216.1,272.4L215.8,272.3L215.4,271.9L214.9,271L214.8,270.2L215.5,270.6L215.9,271.4ZM122.5,314.7L121.6,315L121.4,314.2L121.5,313.5L122.2,313.5L122.4,313.8ZM201.9,301.8L202,303.1L200.8,303.5L199.9,303.1L199.3,302.3L199.3,302.1L199.8,302.1L201,301.4L201.3,301.2Z" fill="#8B341D" stroke="#2C160F" stroke-width="1.1" vector-effect="non-scaling-stroke"/></svg>