<svg xmlns="http://www.w3.org/2000/svg" viewBox="0 0 360 440" width="360" height="440" role="img" aria-label="Regional map with Portugal highlighted"><rect width="100%" height="100%" fill="#7FA6D6"/><path d="M387.5,189.2L387.4,189.2L387.4,189.2L387.4,189.1L387.5,189.1ZM239.6,81.86L239.7,82.65L239.2,82.84L238.9,82.57L238.1,82.57L237.4,82.73L237.5,81.31L238.9,81.51ZM234.6,77.74L234.2,78.78L233.2,78.43L233.2,78.15L234.2,77.55L234.5,77.55ZM215.1,0.01L213.1,2.221L212.2,1.828L211.5,2.01L211.3,1.949L211.7,1.162L212.2,-0.688L213.1,-1.417L214.1,-3.366L215,-3.884L215.3,-3.823L215.5,-3.64L215.9,-1.478L215.3,-0.688ZM232.9,-42L232.8,-41.91L231.9,-41.33L229.1,-40.69L228.3,-40.27L227.4,-39.5L226.4,-39.12L227.5,-39.18L228.7,-39.6L230.7,-39.76L233.1,-38.28L232.9,-37.1L231.9,-36.14L229.8,-35.98L227.8,-33.91L226.8,-33.27L225.9,-32.96L224.7,-33.05L222.5,-33.59L221.5,-34.17L222.4,-33.24L223.3,-32.73L229.1,-31.56L229.4,-31.69L231.2,-32.93L233.6,-32.93L238.3,-30.67L239.6,-28.93L241.5,-26.47L242.6,-25.5L243.3,-24.62L243.8,-23.33L244.7,-19.02L245.7,-14.86L247,-10.35L247.6,-9.119L248.4,-8.259L252.5,-6.237L253.4,-5.594L255,-3.671L256.5,-1.63L257.9,-0.081L259.4,1.162L258.6,1.828L258.1,2.856L258.5,4.245L259.1,5.571L260.3,7.706L261.4,10.01L261,9.654L260.6,9.475L260,9.505L259.5,9.415L258.5,8.696L257.5,7.796L255.5,8.156L254.4,8.006L253.5,8.006L255.3,8.516L257.2,8.576L261.6,12.43L263,14.7L263.9,17.69L263.3,19.05L262.4,19.91L261.5,20.91L260.7,22.03L263.1,23.68L263.6,23.62L264.2,23.39L264.6,22.83L265.5,21.47L266,21L267.4,20.82L268.7,20.91L269.9,21.21L271.1,21.12L273.3,21.71L274.4,22.24L277.2,24.59L277.8,25.88L278.1,27.55L278.1,29.39L277.6,31.07L277.1,32.58L276.8,34.53L276.5,35.25L276.2,35.77L274.7,37.33L273.7,37.93L273.3,37.67L272.9,37.7L272.8,38.08L273.3,38.85L273.3,39.8L272.4,40.49L271.5,40.78L270,40.41L267.9,41.7L269.4,42.36L269.7,43.07L269.4,44.3L268.4,44.87L267.4,45.1L266.3,45.16L265.4,45.47L264.6,46.04L265.6,45.73L266.4,46.01L266.9,47.04L267.3,47.35L269.4,47.78L270.6,47.78L273.1,47.52L274.3,47.55L274.7,47.72L274.7,48.57L274.5,50.7L274.2,51.13L270.9,52.88L270.2,54.12L270.1,54.85L268.1,54.74L267.3,55.5L265.7,56.04L264.5,56.6L263.3,57.3L262.3,57.5L258.2,56.65L255.6,56.74L252.2,57.47L251.3,57.33L250,56.65L248.7,56.18L247.1,55.98L245.8,55.33L246.6,56.57L244.7,57.75L243.9,57.97L243,57.95L241.2,58.28L239.5,58.11L239.7,58.95L240.2,59.68L239.8,59.99L239.4,60.07L236.2,59.52L235.7,59.63L235.4,60.13L234.2,59.88L233.1,59.01L231.8,58.42L230.6,58.14L229.6,58.25L225.4,59.6L224.6,60.97L224.2,62.89L223.6,64.59L222.6,65.9L221.5,66.09L220.4,65.18L218.3,64.17L217.6,63.48L217.3,63.45L217.1,63.7L216.3,64.01L215.5,64.01L214.2,64.29L211.9,65.09L211,65.65L209,67.17L208.6,67.59L207.9,69.11L206.8,69.39L205.8,68.42L204.7,68.06L203.5,68.42L202.8,68.92L202.4,68.5L202.4,67.64L203.3,66.59L205.6,65.81L207.7,63.76L208.7,62.5L209,61.81L209.6,61.36L210.2,61.19L210.5,60.41L213.4,57.27L213.6,56.57L213.8,55.28L214,54.04L216.3,53.22L217.4,50.59L217.7,50.39L220.9,49.91L223.3,49.94L225.7,50.45L226.9,50.5L228.2,50.3L229.1,49.6L230.8,47.04L231.7,45.9L232.8,44.87L233.8,43.7L235.4,41.53L234.3,42.27L232.9,43.47L232.9,43.47L232.2,44.16L229.8,44.84L228.7,45.56L226.9,47.15L226.6,47.3L223.8,46.9L221.8,44.84L220.5,43.99L219.9,43.87L219.4,44.13L218.1,44.39L216.9,44.36L217.6,43.39L218.4,42.84L216.5,42.47L216,42.19L215.4,41.53L213.9,41.41L213.2,41.58L212,42.47L210.1,43.42L207.8,42.1L207.4,41.53L207.4,40.41L207.1,39.52L206.4,39.23L207.2,38.08L208.2,37.3L210.3,36.52L213.6,34.73L215.4,33.95L217.1,32.61L217.8,31.8L218.3,30.67L218.8,29.3L219.5,28.16L218.8,27.9L218.5,27.05L218.6,26.2L218.9,25.44L218.7,24.47L218.1,23.47L218.2,22.71L218.3,21.86L217,21.92L215.7,22.18L214.5,22.77L213.4,23.56L212.4,23.71L212.4,23.06L212.8,22.27L213.9,21.15L215.2,20.21L215.6,19.47L216,18.64L216.6,17.96L218.2,16.69L221.3,15.26L221.8,15.17L223,15.35L224.1,15.14L225.2,14.61L226.2,14.49L228.6,16L227.9,13.69L228.9,13.15L230.4,15.23L231,15.44L232.1,15.14L231.7,14.79L231.1,14.76L230.4,14.46L229.9,13.77L228.9,11.66L229,10.4L229.6,9.085L230.3,7.856L229.7,7.616L229.2,7.165L229.1,5.932L229.3,4.878L230.6,3.913L231,2.463L231.1,0.859L230.9,0.131L229.6,0.253L229,0.556L228.5,1.041L227.9,1.01L226.3,-0.779L225.4,-2.117L223.7,-4.953L223.5,-6.665L224.8,-10.35L226.8,-12.72L229.2,-13.56L228.7,-13.71L225.1,-13.74L223.9,-13.43L222.8,-12.48L222.2,-12.17L221.6,-12.07L220.9,-11.58L220.4,-10.9L219.8,-10.47L218.5,-10.6L218,-10.44L217.6,-10.84L217.2,-11.49L216.7,-11.64L216.2,-11.46L215.2,-10.6L214.1,-10.07L212.7,-10.63L211,-11.64L210.6,-11.27L210.2,-10.32L210,-8.874L208.8,-10.13L207.7,-11.86L207.4,-12.91L207.4,-14.11L207.9,-14.61L208.5,-14.18L209.5,-17.06L211.3,-20.83L212,-21.92L212.4,-23.36L212.3,-24.34L211.9,-25.12L210.2,-26.95L210.2,-28.46L210.4,-30.14L210.9,-31.15L211.1,-31.34L213.4,-31.31L212.5,-31.85L210.7,-33.37L210.7,-33.91L211.1,-35.34L211,-35.19L210.6,-34.55L209.9,-32.96L209.4,-32.58L208.2,-32.2L207.9,-31.43L207.7,-31.21L207.1,-31.15L206.9,-30.42L206.8,-30.36L206.6,-31.15L206.6,-32.45L206.8,-33.66L207.3,-34.58L209.1,-36.72L208.2,-36.05L206.2,-34.07L205.2,-32.8L204.9,-32.35L204.8,-31.97L204.8,-31.56L205.3,-29.28L205.1,-28.24L203.4,-21.36L203.1,-20.67L202.8,-20.33L202.5,-20.24L201.6,-20.36L201.2,-20.89L201.2,-21.45L201.4,-22.33L202.1,-25.59L202.5,-26.5L202.9,-27.36L203.9,-28.84L203.9,-28.93L203.2,-28.65L202.9,-28.74L202.8,-29.03L202.9,-33.43L203.4,-34.9L203.6,-37.04L204.1,-38.86L204.7,-40.21L205.1,-41.91L205.2,-42L232.9,-42ZM217.3,14.93L217.7,15.26L218.8,15.2L218.5,15.91L217.3,16.72L216.5,17.49L215.5,18.14L215.1,17.4L214.5,17.43L213.7,15.97L213.5,13.83L214.6,13.27L216.1,13.3ZM208,-22.42L206.7,-22.42L206.3,-22.58L205.7,-23.02L205.1,-25.5L205.3,-26.38L205.6,-26.79L205.8,-27.14L206.5,-27.29L207.2,-26.82L207.5,-26.38L208,-24.68L208.1,-23.24ZM200.6,-42L201.3,-41.46L201.2,-38.76L201.2,-38.76L197.1,-37.74L195.7,-37.84L195.5,-38.35L195.8,-38.67L197,-38.99L197.5,-41.46L196.6,-42L200.6,-42ZM197.6,-31.18L197.9,-28.84L198.3,-27.39L198.3,-26.88L198,-26.19L196.3,-25.28L195.8,-25.28L195.8,-25.5L196.1,-26.44L195.8,-27.48L195.9,-28.3L195.8,-28.43L195.5,-28.33L194.2,-27.04L193.8,-26.91L193.8,-27.17L194.1,-28.24L194.1,-28.93L194.3,-29.38L194.7,-29.79L195.1,-30.1L195.4,-30.14L195.7,-29.82L196.7,-30.7ZM199.2,-29.06L199,-28.87L198.4,-28.9L198.3,-29.22L198.2,-29.66L198.2,-30.48L198.4,-31.09L199.8,-31.97L199.2,-32.29L199.1,-32.51L199.5,-33.27L200.9,-34.42L201.3,-34.64L201.7,-34.61L200.9,-32.55ZM196.6,1.677L195.8,1.586L195.2,1.889L194.8,2.161L194.4,2.131L193.3,2.221L192.2,2.221L192.1,1.768L192.3,0.374L192,0.01L191,-0.172L190.7,-0.506L190.1,-1.448L190,-1.904L189.9,-2.513L189.3,-3.305L188.6,-3.884L188.1,-3.915L187.3,-2.97L186.6,-2.026L186.8,-1.569L187.1,-0.962L186.7,-0.506L185.5,0.526L185.3,0.92L185,1.132L184.5,0.829L183.1,0.889L182.5,0.738L181.7,-0.02L179.9,-0.536L179.6,-1.722L179.3,-1.934L177.2,-4.006L176.9,-4.708L177.2,-5.105L178,-5.747L180.6,-6.788L181,-7.186L181,-7.554L180.3,-7.983L179.6,-8.444L179.4,-8.751L179.3,-9.027L179.7,-9.365L180.5,-9.396L181.1,-9.242L181.6,-9.55L182.5,-9.857L183,-10.26L183.5,-11.27L184.1,-12.2L184.1,-12.69L184.6,-14.46L184.8,-14.89L186.4,-16.04L186.8,-15.38L187.6,-15.23L188.4,-15.82L189.2,-17.65L189.8,-17.74L190.5,-17.62L191.7,-17.84L194,-18.68L195.1,-18.71L196.5,-18.27L197.6,-18.27L198.5,-16.97L199,-14.92L200.2,-12.88L201.8,-11.12L201.8,-10.07L201.3,-9.488L200.1,-8.781L200.1,-8.014L200.9,-8.413L201.5,-8.566L203.2,-8.413L203.7,-7.615L204.1,-6.482L204.3,-5.533L204.2,-4.494L203.7,-4.83L203.3,-5.747L202.8,-6.176L202.2,-6.39L202.5,-5.136L202.4,-3.427L202.6,-3.274L203.4,-3.244L202.9,-1.539L201.9,-1.053L200.7,-0.87L200.4,-0.263L200.1,0.526L199.5,1.677L198.7,2.342L197.7,2.221ZM249.4,58.67L248.5,59.23L248.2,59.88L248,60.13L247.4,60.3L246.9,60.33L244.8,59.01L244.2,59.07L244.7,58.45L246.1,57.97L246.8,57.33L248.6,57.95ZM377.9,301.9L377.9,302.2L377.5,304.5L377.5,305.3L377.4,306.8L377.4,308.4L378.2,309.9L378.2,310.5L377.9,311.2L376.4,312L374.5,313.1L372.8,314.1L371,315.3L370.4,316L369.5,316.5L368.7,317.1L368.6,317.6L368.1,318.6L367.4,319.4L365.6,319.8L365.3,320L364.5,321.2L364.2,321.7L363.7,322.7L364.3,325.2L365,327.8L365.2,328.9L365.1,329.8L364.7,330.8L363.8,332.2L363.1,333.2L361.8,335L361.4,335.5L360.6,336L358.8,336.8L357.6,337.4L357,334.6L356.4,332.2L356,330.2L355.2,326.7L354.6,323.8L353.9,320.8L353.3,318.1L352.7,315.4L352.5,315L350.7,313.7L349,312.5L347.3,311.1L345.5,309.6L345.2,307.8L344.2,305L343.2,303.4L342.8,303L340.8,302L339.6,301.3L339.3,300.8L339.1,299.7L338.2,297.4L337.3,295.3L337,293.9L336.9,292.1L337.1,290.8L337.5,290.3L339.5,288.7L340.4,286.8L341.6,286L342.5,285.5L343.3,284.8L344,283.8L344.6,282.7L344.6,281.6L344.9,279.7L345.2,278.4L346.1,276.9L345.8,275.7L345.3,274.4L345.4,272.1L345.3,271.2L344.9,270.4L344.6,269.4L344.6,268.5L344.9,266.2L345.2,264.5L345.6,262.2L345.5,261.6L345.2,261.1L344.2,260.6L344.2,260.3L344.4,259.9L345.8,258.8L346.6,257.2L347.2,256.8L348.2,256.3L348.2,255.6L348,254.9L350.5,254.2L352.9,252.1L353.7,251.6L359.3,249.8L360,249.9L360.8,250.2L360.6,250.9L360.3,251.4L360.8,252.4L361.4,251.8L361.3,251.4L361.3,250.9L362.4,250.8L363.4,250.9L364.5,251.5L364.5,253.7L365.9,255.9L365.5,256.9L366.7,257.6L367.8,256.8L368.4,255.7L370.3,255L372.3,253.4L373.3,253.2L373.5,254.6L374,255.8L373.3,256.2L372.4,257.4L370.7,260.6L369.1,261.5L367.9,262.8L367.5,263.6L367.4,264.6L367.7,266.4L368.5,268.3L369.6,269.4L370.5,269.7L372.8,271.5L372.7,272.5L373.1,273.7L373.2,275.2L374,276.4L372.3,279L371.4,280.9L369.6,283.4L368,285.1L364.6,287.6L363.7,288.4L363.2,289.2L362.9,290.1L363,291.1L364.1,293.7L365.6,295.2L367.1,296L369.8,295.7L369.7,296.6L369.9,297.8L371,297.7L371.7,297.6L372.3,296.4L373.6,297.2L374.3,299.6L375.4,300.3L375.5,300.6L375.1,300.8L374.8,301.1L375.1,301.3L376.2,301.5L376.8,301.4ZM375.6,282.5L374,283.4L374.3,282.6L375.4,281.7L375.6,281.9ZM372.3,295.2L372,295.3L371.6,295.7L371.3,295.7L370.5,295.3L370.3,295.3L369.9,295.1L370,293.6L370.1,293.2L371.9,293.2L372.9,294L373.1,294.2L373.1,294.5L372.7,294.9ZM357.6,108.2L357.9,108.3L358.7,109L358.5,110.2L357.7,112L357.2,113.5L357.2,114.6L357.3,115.1L357.4,115.1L358.2,115.2L358.6,115.2L359.9,115.5L360.9,115.9L361.1,116.4L361.3,117L362.5,117.8L363.9,118.3L364.3,118.1L366.1,116.3L366.8,116.6L367.2,117.6L367.1,118.1L366.7,120L366.6,121.1L367,121.7L367,122.3L366.9,122.8L366.2,122.8L365.3,122.5L364.5,121.7L363.9,121.8L363.4,122L363.1,122.8L362.9,123.8L363,124.3L363.4,124.7L363.6,125.6L363.8,126.7L364,127.2L363.8,127.4L363.4,127.5L362.9,127.4L362.2,126.1L361.9,125.6L361.3,125.5L360.3,125.8L358.8,126.5L358.2,126.5L357.7,126.4L357.2,125.8L356.8,124.6L356.7,123.8L356.4,123.8L355.4,123.6L355,123.9L355,125.1L354.8,126.7L354.4,127.7L353,129.4L352.5,130.2L352.3,130.7L352.3,131.2L352.5,132L352.7,132.7L352.5,133.2L351.8,133.4L351.3,132.9L351.1,132.1L350,131L350.5,130L350.4,129.8L348.6,129.3L347.9,128.6L346.7,127.3L346.5,126.7L346.6,125L346.5,124.5L346.4,124.3L345.9,124.3L345.1,124.9L344.4,125.9L343,126.9L342.9,127.1L343.4,128.2L343.3,128.5L342.2,130.2L342,130.7L340.6,131.7L339.9,132.1L337.9,131.3L337.4,131.2L336.4,131.7L335.2,132.2L333.2,132.7L332.4,132.3L332.1,132L331.9,131.5L331.4,130.7L330.8,130.2L330.4,129.6L329.8,129L329.5,128.5L330,126.8L329.6,126.3L329.4,125.5L329.6,124.9L329.4,124.8L327.5,124.5L326,124.6L324.9,125.1L324,126L323.9,126.2L324,126.4L324.4,127.2L323.7,128.1L322.5,128.7L321.7,128.8L321.3,128.7L321.3,127.7L322,127.4L322.6,126.8L322.8,125.9L322.9,125.3L322.2,124.6L322.3,124.1L322.7,123.3L322.9,122.5L323.3,121.9L324.5,120.8L325.8,119.7L326,118.6L326.1,117.2L326.3,116.8L328,116L328.4,115.6L328.6,115.2L330,113.6L331.4,112L331.6,111.5L331.8,111.2L331.8,110.9L331.7,110.8L331,110.6L330.8,110.1L331.5,109.2L332.4,108.7L333.2,108.7L333.6,108.9L333.5,109.2L333.9,109.5L334.6,109.6L335.3,109.5L336.1,109.2L336.6,108.4L336.9,107.8L338.1,107.1L339,107.5L341.3,107.6L343,107.4L344.1,106.9L345.4,106.9L346.3,107.2L346.5,107.1L346.7,107.1L346.9,106.8L347.8,106.6L347.9,106.4L347.9,106.2L347.7,106.1L346.7,106.2L346.3,106.1L346.2,105.7L346.5,105L347.3,104.5L347.9,104.3L348.4,104.5L349.5,105.5L349.8,105.5L350,105.3L350.2,105.2L350.6,105.4L351,106.1L351.1,106.2L353.6,105.9L354.1,105.9L355.9,107ZM402,-21.93L401.5,-22.05L396.5,-20.58L392,-21.77L392.6,-23.02L392.6,-23.96L392.8,-25.37L393,-26.85L392.9,-27.86L392.6,-28.9L391.5,-30.29L389,-34.96L388.3,-36.94L387.8,-37.77L388.2,-37.8L390.2,-36.75L390.7,-36.88L391.1,-37.29L390.6,-38.8L390,-39.5L389.7,-40.53L390.9,-40.82L391.7,-40.75L392.4,-41.94L392.4,-42L402,-42ZM276.5,232.5L276.3,232.6L275.7,232.5L274.6,232.5L274.6,232L274.7,231.6L274.9,231.2L275.5,232L276.5,232.1ZM292.4,217.7L293.4,218.2L294.4,217.8L295,217.9L295.5,218.1L295.6,218.9L295.2,219.9L294.5,220.8L293.9,221.9L293.4,223.1L292.5,223.8L291.7,224.2L289.9,223.3L288.9,223.1L288.6,222.8L288.3,221.4L287.9,221L287.2,220.8L286.6,221.2L285.8,221.9L285.4,221.2L284.7,221L284.5,220.6L284.5,220.1L288.7,216.9L289.9,216.2L292.6,215.3L293,215.4L292.6,215.9L292.6,216.2L293,216.4L292.9,216.8L292.6,217.1ZM304.1,217L304,217.2L300.8,215.6L299.8,215.5L299.5,215.2L299.6,214.4L299.7,214.1L301.8,213.9L303.4,214.5L304.4,216L304.4,216.3ZM275,229.3L274.7,230L273.1,229.8L272.7,229.4L273.1,228.5L273.6,228.4L273.6,227.8L274,227.1L276.2,226.6L276.8,227L276.9,227.7L275.5,229.1ZM241.9,168.2L241.9,168.7L242.3,169.4L242.7,169.6L243.6,170L244.3,170L245.2,170.2L245.8,170.6L245.9,171.2L245.7,171.9L245.3,172.5L245.1,173L245.3,173.2L245.6,173.4L246,173.5L246.2,173.4L246.4,173.1L246.8,172.6L246.9,172.5L246.9,172.8L247.1,173.1L248.2,173.7L250.7,174.7L251.6,174.7L252.5,174.8L252.7,175.2L254.3,176.8L254.6,176.7L255.3,176.7L256.2,176.6L256.8,176.3L257.2,176.4L257.6,176.7L258.1,176.9L258.8,177.4L259.4,178.1L259.8,178.3L262.3,177.8L262.8,178.2L263.4,178.2L264.1,178.1L265.5,178.3L266.7,178.3L266.8,178.1L266.9,176.7L267.1,176.2L267.4,176.1L268.1,176.2L270.6,177L271.6,177.5L272.6,177.9L273.5,178L274,178.3L274.8,179.6L274.7,180.2L274.8,180.5L274.9,180.9L274.8,181.4L275.1,181.8L275.4,181.8L275.9,181.7L276.5,181.5L277.4,181L277.7,180.9L279.3,181.5L280,181.9L280.2,182.4L280.5,182.9L281,182.9L281.7,182.5L282.8,182L284.5,182.4L286.5,183.1L287.4,183.1L287.4,182.8L287.5,182.4L287.9,182.2L288.4,182.1L289.1,181.9L289.8,181.5L290.6,181.4L291.4,181.6L292.5,181.9L293.1,181.9L293.4,182.7L293.9,183.1L294.1,183.8L293.2,184.2L292.6,184.3L292.5,185.6L292.7,186L293.2,186.3L293.4,186.7L293.5,188.6L292.4,189.7L291,191L283.9,195.1L282.2,197.1L281.5,197.6L276.3,198.8L272.6,200.2L270.8,200.6L268.6,202.9L267.6,203.9L268.4,204.1L269.4,205.2L269,205.7L267.6,206.5L267,206.7L266.7,206.6L266.3,206.7L264,210.7L261.8,213.5L260.7,214.7L259.5,216.6L256.9,221.3L256.9,222.7L258.2,227.4L258.9,228.6L259.9,229.6L261.8,230.5L262.3,231.3L261.6,232.2L259.7,233.6L256.4,235.6L254.9,237.1L254.6,238.6L253.6,239.3L253.3,241.4L252.7,242.7L252.5,243.2L251.9,244.2L251.8,245L252.9,246L252.3,246.5L251.8,246.7L250.7,246.8L246.7,246.9L243.5,249.2L241.9,251.2L240.4,254.8L238.7,257L237.9,257.4L236.7,256.4L235.2,256.3L233.7,256.6L232.9,257.4L231.7,257.8L230.6,257.4L228,257.2L226.9,257.3L225.1,257.9L223.6,257.5L221.1,257.3L215.6,257.7L214.9,258L214.2,258.9L212.4,260.4L209.8,260.5L207.4,261.5L206.8,262.1L205.7,263.9L205.4,265.1L205.2,265.2L205,264.9L204.6,264.9L204.4,265.9L203.5,266.4L202.7,266.5L200.8,265.7L199.3,264.6L198.5,264.5L197.2,262.6L196.6,261.4L196.2,260.2L196.2,259.7L196.1,259.3L194.9,258.8L194.7,257.6L195.5,256.1L196.2,255.4L196.7,255.2L195.6,255.3L194.8,256.3L193.8,254.7L189.8,251.6L190.1,251L190.1,250.6L189.4,251.4L188.9,251.6L186.8,251.5L184.5,251.8L183.9,248.6L183.6,247.4L183.5,246.6L184.1,244.8L184.8,244L185.7,242.5L186.8,241.2L187.9,240.9L188.4,240.7L188.8,239.7L189.1,238.8L188.9,238.7L187.6,238.9L185.2,235.3L185.2,234.7L185.5,233.8L185.7,232.8L185.8,231.9L186.4,231.2L187.4,230.5L188.2,229.4L188.6,228.4L188.7,227.4L188.2,226.8L186.9,226.4L185.5,223.7L185.2,222L184.9,221.9L184.1,221.1L183.3,219.7L183.2,219.4L184,219.2L187.4,219.2L188.2,218.9L188.3,218.7L188.9,217.6L189.6,215.8L189.7,214.6L189.5,214.2L188.4,213L188.3,212.7L188.5,212.1L189.2,211.6L190.1,210.9L190.6,210.3L190.5,209.9L190.2,209.4L190.2,209L190.3,208.5L190.4,206.6L190.5,206.1L190.3,204.5L190.1,203.1L189.4,201.4L189.5,201L189.9,200.6L190.9,200L191.8,198.6L193.1,197.3L194.8,196.4L195.9,195.3L196.4,194.5L196.7,194.2L196.6,193.8L196.4,193.3L195.7,192.7L194.9,192.4L193.9,192.4L193.3,192.3L193.2,191.9L193.2,190.7L193.2,189.5L193,189L192.6,188.6L191.7,188.7L190.9,188.4L190.3,188.3L190,188.6L188.4,188.5L187.7,188.3L187.1,188.1L186.8,188.2L186.7,188.4L186.6,188.8L186.5,189.3L185.9,189.7L184.5,190.1L183.4,190.1L182.4,189.8L182.1,189.5L181.6,189.3L179.5,189.6L179.2,189.4L178.5,189.8L177.5,190.4L176.9,190.4L176.7,190.3L176.6,190.1L176.1,189.3L176.2,188.8L177.1,187.6L177,187.3L176.7,186.9L176.4,186.3L176.2,186L175.7,185.9L175.1,186.2L172.9,186.9L172.4,187.1L171.5,187.7L170.5,188.6L169.7,188.8L169.4,188.5L169.4,186.4L170.5,184.9L171.3,184L171,183.9L170.1,183.9L170.1,183.2L170.6,182.9L171,182.1L170.5,181.8L170.1,181.3L170.1,180L170.2,179.5L170.1,179L168.3,179.7L167.8,179.6L167.8,178.6L168.8,177.2L169,176.8L167.8,176.5L166.9,175.8L166.4,175.2L165.8,174.3L165.8,173.4L166.4,171.5L167.2,170.9L168,170.6L169.5,169.3L171.6,169.5L172.9,169.2L174.1,168.5L174.8,168.4L175.9,167.8L175.8,167L175.5,166.4L175.8,165.8L177,165.1L178.4,164.2L179.9,164L181.5,163.2L182.6,163.7L183.5,163.5L184.6,164.2L186,165.6L188,166.2L189.7,165.7L192.6,165.6L194,165.8L196.6,165.5L198.1,165.6L200.4,164.9L202.3,165.8L205.9,166.2L208,166.9L214,168.1L216.2,168.1L219.2,167.4L220.5,166.9L221.6,167.2L223.4,166.7L224.2,166.8L225.3,167.6L229.1,168.7L230.1,167.8L230.8,167.6L233.6,168.2L236.3,169.3L237.8,169.4L239.9,169.1L241.6,168.3ZM93.18,359.1L92.34,361.7L91.53,362.8L91.05,363.1L89.87,363.4L88.47,361.7L87.77,360.1L87.37,359.5L87.99,359.1L88.91,359.2L90.9,358.8L91.31,358.7L93.33,357L95.36,356.8L95.39,357.3ZM120,352.9L119.3,353.6L118.5,353.4L118.9,351.7L119.2,351.2L120.7,350.4L121.8,350.1L122.2,349.4L122.6,349.1L123,349.5L122.6,350.1L122.4,351.8L121.6,352.3ZM115.1,361.5L113.7,362.8L112.3,362.5L112,362.3L113.4,362L114.7,361L115.5,358.8L116.8,356.3L117,355.3L117.5,354.9L118.2,354.8L118.5,354.9L118.8,355.4L118.8,356.7L118.5,358.7L117.8,360.5ZM102.8,361.8L102.7,362.7L102.9,363.5L102.9,364.9L102.4,365.7L101.1,366.4L100.1,366.3L99.59,366L98.6,364.8L98.56,363.5L99.48,362.7L99.85,361.7L102.2,361.9L102.4,361.7L102.6,361.6ZM84.5,363.2L84.09,363.3L83.57,363L83.06,362.1L83.43,361.4L83.72,361.1L84.2,361.2L85.05,361.7L85.34,362.2L85.34,362.5ZM77.31,365.7L76.32,367.6L75.07,366.9L74.78,366.6L74.52,366.2L75.73,366.2L76.95,365.2ZM77.87,357.7L77.61,357.8L77.35,356.9L76.14,354.7L76.87,353.7L78.24,353.6L78.79,354.3L78.97,355.1L78.71,355.5L78.79,356.3L78.64,356.9ZM402,139.2L399.5,138.6L399.1,138L399.7,137.7L400.6,137L401.1,137.1L401.8,136.9L402,136.7L402,139.2ZM402,136.3L401.7,135.6L400.6,134.4L400,134L399.2,133.7L399,133.3L399.5,131.5L399.3,131.2L398.4,131.3L398.2,131.1L398.1,130.8L398.2,130.3L398.8,129.6L399.5,129L399.7,128.6L399.7,128.3L398.8,128L398.2,127.7L397.8,127.6L397.5,127.8L397.3,127.6L397.1,127.1L397.3,126.2L398.1,125.5L399,124.8L399.7,124.3L400.1,124.1L400.4,123.2L400.8,123.3L401.7,123.3L402,123.4L402,136.3ZM387.9,161.3L387.3,161.4L387,160.8L387.5,160.1L388.1,160L388.2,160.5ZM303.6,482L303.5,479.3L303.5,476.6L303.5,473.3L303.5,470.3L303.5,467.2L303.5,464.3L303.5,462.4L305.7,462L308,461.5L311.4,460.8L315,460.1L319,459.3L319.9,458.8L322.9,456.1L324.3,454.8L327,452.3L329.1,450.4L331.7,448L334.5,445.6L336.8,443.6L340.3,441.4L345.6,438L350.9,434.7L356.2,431.3L361.4,428L366.7,424.6L372,421.2L377.3,417.8L382.6,414.4L388,415.7L393,416.9L398.1,418.2L399.3,418.8L402,421.2L402,482ZM321.5,57.69L320.5,57.66L319.5,57.64L319,57.55L318.5,57.3L318.2,56.79L317.9,56.2L318,55.81L318.9,54.77L319.1,54.46L318.9,54.32L319.1,53.84L319.8,52.26L319.8,51.61L319.5,51.16L319.1,50.9L317.6,50.42L316.9,49.77L316.6,49.17L316.3,49L315.8,49.2L314.6,49.43L313.6,49.11L312.4,48.01L312.1,47.01L312,46.27L311.7,45.98L311.3,46.38L310.8,47.01L309.8,47.07L309.6,46.92L309.5,46.58L309.5,46.27L309.2,45.87L308.9,45.64L307.6,46.78L307.2,46.75L306.6,46.33L306.3,45.9L305.7,46.16L305.1,46.67L305.3,47.66L305,47.84L304.3,47.75L303.4,47.35L302.6,47.1L301.2,46.41L299.3,46.98L298,46.3L296.9,46.24L296.2,45.7L295.5,44.82L296,44.22L296.5,44.02L298.5,43.9L300,44.27L302.6,46.21L303.3,46.19L304,45.96L303.6,45.41L302.9,45.16L302,44.64L301.2,43.9L303,43.67L302.8,43.3L302.5,42.64L300.6,40.38L300.9,39.75L301.4,38.42L302,37.33L302.5,37.04L303.3,36.26L305,33.95L306.1,32.06L306.9,29.85L308.1,23.65L308.5,22.59L309,21.41L309.7,21.65L310.2,21.97L312,21.09L315,18.79L315.9,16.77L316.8,15.86L320.3,14.01L322.2,13.48L325.2,13.33L327.4,13L330,12.88L331,14.01L331.5,14.85L332.4,15.29L333.9,15.62L333.8,17.25L333.8,20.44L333.7,21L333,22.36L332.4,24.74L332.2,26.32L332,26.64L329.3,26.61L328.9,26.9L328.8,27.23L329,27.63L328.9,28.04L328.7,28.36L328.8,28.89L329.3,29.47L330.1,29.85L331,29.88L331.5,29.82L331.8,30.23L332.2,30.87L332.2,31.71L332,32.79L331.6,33.8L330.4,34.96L329.8,35.37L329.3,35.6L329,35.88L328.9,36.29L328.9,36.64L329.8,37.56L329.8,37.76L329.5,38.25L329.2,38.71L326.9,39.66L325.9,39.57L325.4,40.03L325.2,40.15L324.7,39.69L323.3,39.2L322.8,39.37L322.5,39.66L321.7,39.98L321.1,40.49L321.1,41.15L322.2,42.87L322.5,43.22L322.5,43.87L323,44.67L323.6,45.67L323.6,46.3L323.6,46.95L323.3,47.86L322.4,49.99L322.4,50.42L322.4,50.73L322.8,50.81L323,50.98L322.9,51.27L321.2,52.74L321,52.99L320.3,52.91L320.2,53.16L320.2,53.56L320.5,53.92L321.2,54.09L321.7,54.46L322.1,55.19ZM303.4,47.35L303.3,47.98L302.9,48.66L301.6,49.62L300.1,50.28L299.4,50.19L298.9,49.85L298.7,49.51L297.9,49.17L296.9,49L296.2,49.37L295.8,49.71L295.4,49.65L295.1,49.37L294.8,48.91L294.5,47.49L295.3,47.24L297,47.12L298.3,47.64L300,47.86L301.3,47.18L302.3,47.78ZM325,11.69L323.6,12.28L323.2,12.16L323.3,11.99L324.6,11.63ZM320.9,12.58L318.9,12.85L318.2,12.64L318.1,12.46L318.6,12.34L320.3,12.31L320.9,12.49ZM312.5,15.17L310.6,16.42L310.4,16.24L311.7,15.14ZM314.7,13.83L313.8,13.98L313.3,13.74L315.6,13.06L317.1,12.85L317.3,12.94ZM310.2,19.23L309.2,20.44L308.6,20.09L308.4,19.82L308.7,18.88L310.2,17.31ZM300.6,41.55L301.6,42.44L301.8,42.73L301.9,43.04L300.7,43.39L299.3,42.3L298.4,42.56L298.1,42.04L298.1,41.7L299,41.44ZM329.1,10.46L328.2,10.52L328.4,10.07L329.3,9.714L329.8,9.714ZM237.5,278.1L237.8,279.1L238.4,279.8L240.6,281.5L241.9,282.5L241.9,282.9L241.5,283.7L241.3,284.3L241.7,284.9L242.4,285.7L242.5,286.1L242.3,286.5L241.9,287.3L242.8,289.7L242.9,292L242.7,293.6L242.7,294.5L242.8,295.3L243.5,297.2L243.1,300.2L243.6,301.9L244.4,303.2L244.8,305.6L245.4,306.7L246.4,307.7L247,308L248.1,308.9L248.9,309.5L249.4,310.6L248.4,311.4L247.6,312.1L247.3,312.9L247.7,314.2L247.7,314.9L247.2,315.1L245.1,315.1L243.5,315L241.7,315L239.1,314.8L237.4,314.8L235.2,314.6L234.5,314.7L232.4,315.1L231,315.3L230.7,315.4L230.3,315.7L230,316.7L229.7,317.7L229.4,318.2L225.1,319.8L223.4,320L222.4,319.8L221.7,320L221.1,320.3L220.9,320.8L220.9,321.4L221,322.1L221.4,323L221.5,323.9L221.2,324.5L221.2,325.2L221.1,325.8L221.3,326.2L221.7,326.3L222.1,326.6L222.7,326.9L223.2,327.4L223.2,328.2L222.7,328.6L222.4,328.9L220.8,329.1L219.5,329.2L217.8,330.5L216,331.8L213.9,332.7L213,332.9L211.4,333.5L209.4,334.6L208.5,336.2L207.3,338.1L206.1,339.4L204.5,340.6L203,341.1L201.2,341.6L198.9,342.1L197.2,342.2L196.7,342.3L195.2,342.4L194.5,342.3L194,342.2L193.8,342.3L193.7,342.6L193.7,343.3L193.5,344.1L193.1,344.7L192.8,345.1L192.4,345.2L191.2,345L190.1,344.8L187.7,344.5L187.2,344.6L187,344.6L186.3,345.1L185.1,346L184.3,346.9L183.7,347.2L182.3,347.4L181.7,347.7L179,349.8L178.5,350.3L175.7,352.1L175,352.7L174.3,353.2L172.7,354.5L171.7,355.1L171.5,355.5L171.4,356.3L171.4,358L171.4,359.7L171.4,362.2L171.4,364.6L171.4,367.4L170.1,367.4L170.1,367.5L170.1,367.9L170.4,368.9L170.5,369.7L170.4,370.2L170.2,370.8L170.3,371.5L170.5,372.1L170.7,372.8L170.7,373.3L170.3,373.6L169.3,373.8L168.2,374L167.3,374L166.1,373.9L165.3,373.9L164.6,373.9L164,374L163.2,374.4L162.4,375.1L161.3,376L160.7,376.6L159.8,376.7L159,376.7L158.2,376.3L157.7,376L157.3,376.1L156.7,376.4L156,376.6L155.4,376.6L154.3,376.1L153.1,375.5L152.3,375.1L151.3,375L150.2,374.8L149.5,374.9L148.5,374.9L147.3,375.3L146.2,375.7L145.1,376L143.7,376.4L144.1,377.4L144.5,377.9L144.5,378.6L144.3,379.2L143.7,379.8L142.9,380.5L142.5,381.1L142.1,381.9L141.8,382.3L141.2,383.1L140.8,384L140.6,384.6L140.4,385.2L140,385.5L138.7,385.6L137.9,385.9L137.2,386.1L136.9,386.5L136.9,386.5L136.7,387.3L136.7,387.9L136.5,388.4L136.2,389.5L135.8,390.5L135.5,391.9L135.2,393L134.8,394.8L134.3,396.5L133.8,398.1L133.4,399.1L133.1,399.7L132.4,400.4L131.8,400.8L131.1,401.4L130.3,401.9L129.1,402.6L128.2,403.2L127.8,403.4L127.4,403.7L126.7,404.5L126.1,405.6L125.7,406.5L124.9,408L124.4,408.8L124.1,409.2L123.3,409.7L122.4,410L121.3,410.4L120.5,410.9L119.4,411.3L118.7,411.8L118.2,412.4L117.8,413.2L117.3,414.4L116.9,415.6L116.6,416.4L116,419L115.8,420.6L115.6,421.6L115.3,422.8L115.1,424.7L115.1,426.2L114.9,427.1L114.8,427.8L114.3,428.6L113.9,429.1L113.2,429.9L112.5,430.3L112.4,430.8L111.7,431.3L111.1,432.2L110.6,432.8L110.7,433.2L110.8,434L110.5,434.8L110.2,435.6L109.4,436.7L108.5,437.3L107.1,437.4L105.3,437.4L103.9,437.3L102.1,437.3L100.6,437.1L99.15,436.8L97.42,436.7L96.2,436.7L94.66,436.9L90.68,436.9L89.13,437.1L86.89,437.5L86.34,437.6L87.11,432.3L88.51,429.5L89.61,428.2L91.34,427.5L92.93,424.7L93.52,422L94.55,420.8L94.88,419.8L94.47,419.1L95.47,417.6L96.64,415.4L97.2,414L98.6,411.8L98.78,411.3L98.63,410.8L98.08,411.2L97.49,412L96.79,412.7L97.09,411.9L97.64,410.7L98.89,409.5L100.8,408.2L104.9,403.6L106.4,402.8L107.8,400.9L108.3,399.2L108.5,395.3L108.9,393.2L109.8,391.6L110.9,388.6L111.7,387.3L112.3,384.6L112.8,383.5L113.9,383.1L115.3,381.7L117.6,380.9L120.2,379.1L121.4,378L122.2,376.5L123.1,373.3L124.7,370L125.5,367.5L125.5,367.5L126.9,366.1L127.8,364.5L129.4,363.7L132.7,363.4L137.7,362L142.1,359.9L143.3,359L144.7,357.4L146.9,355.2L151.1,352.5L153,351.1L155.9,347.4L157.9,344.3L159.5,342.3L160.6,340.6L161.4,338.8L161.8,335.9L161.5,334.8L160.3,332.9L159.5,332.4L159.2,331.6L159.7,330L159.7,327.4L159.9,323.1L161.3,319.7L164.6,315.2L165.3,313.3L165.6,310.3L165.7,309.3L169.9,305.1L172.3,301.8L173.2,301L175.4,299.5L182.9,296.3L187.2,293.9L189.7,292.2L191.2,290.2L195.3,282.2L199.3,270.9L199.7,269.6L201.5,269.2L202.8,269L203.8,268.6L205,267.7L206.3,268.1L205.7,268.7L205.7,270.1L206.5,271.7L208,273.6L210.8,275.9L212.9,276.8L216,277.4L219.5,276.4L221.5,276.4L222.5,275.9L223.5,276.6L225.5,276.8L227.5,276.4L228.9,275.4L229.9,274.3L230,274.9L230,275.5L230.3,275.8L230.9,277.3L231.2,277.8L232.3,277.7L233.3,278L235.4,277.9ZM171.4,367.4L171.4,369.4L171.4,371.7L171.5,373.6L171.5,375.9L171.5,378.2L171.5,380.8L171.5,383.3L171.5,385.2L171.5,386.5L169.4,386.5L167.5,386.5L165.6,386.5L163.7,386.5L161.7,386.5L159.9,386.5L157.9,386.5L156,386.5L154.1,386.5L152.2,386.5L150.3,386.5L148.4,386.5L146.5,386.5L144.6,386.5L142.7,386.5L140.8,386.5L138.9,386.5L137.4,386.5L137.4,387.8L137.4,389.4L137.4,390.9L137.4,392.5L137.4,394L137.4,395.6L137.4,397.1L137.4,398.6L137.4,400.2L137.4,401.7L137.4,403.2L137.4,404.8L137.4,406.3L137.4,407.8L137.4,409.3L137.4,410.9L137.4,412.4L137.4,413.7L137.3,414.9L136.7,415.3L135.2,416L133.7,416.6L131.8,416.9L131.2,417.1L130,418L128.3,419.2L127,420.1L126.1,421.4L125.7,422.1L125.6,422.9L125.7,423.6L126.2,425L126.3,425.7L126.4,427L126.5,428.4L126.6,429.8L126.7,431.3L126.8,432.8L126.9,434.4L126.9,435.9L127,437.1L127.1,438.6L125.6,438.6L123.2,438.6L120.9,438.6L118.6,438.6L116.2,438.6L113.8,438.6L111.5,438.6L109.2,438.6L106.8,438.6L104.5,438.6L102.1,438.6L99.77,438.6L97.45,438.6L95.1,438.6L92.74,438.6L90.39,438.6L88.07,438.6L86.74,438.6L86.34,440.7L85.97,442.1L85.75,443.3L85.89,444.3L85.38,443.8L86.3,438.1L86.34,437.6L86.89,437.5L89.13,437.1L90.68,436.9L94.66,436.9L96.2,436.7L97.42,436.7L99.15,436.8L100.6,437.1L102.1,437.3L103.9,437.3L105.3,437.4L107.1,437.4L108.5,437.3L109.4,436.7L110.2,435.6L110.5,434.8L110.8,434L110.7,433.2L110.6,432.8L111.1,432.2L111.7,431.3L112.4,430.8L112.5,430.3L113.2,429.9L113.9,429.1L114.3,428.6L114.8,427.8L114.9,427.1L115.1,426.2L115.1,424.7L115.3,422.8L115.6,421.6L115.8,420.6L116,419L116.6,416.4L116.9,415.6L117.3,414.4L117.8,413.2L118.2,412.4L118.7,411.8L119.4,411.3L120.5,410.9L121.3,410.4L122.4,410L123.3,409.7L124.1,409.2L124.4,408.8L124.9,408L125.7,406.5L126.1,405.6L126.7,404.5L127.4,403.7L127.8,403.4L128.2,403.2L129.1,402.6L130.3,401.9L131.1,401.4L131.8,400.8L132.4,400.4L133.1,399.7L133.4,399.1L133.8,398.1L134.3,396.5L134.8,394.8L135.2,393L135.5,391.9L135.8,390.5L136.2,389.5L136.5,388.4L136.7,387.9L136.7,387.3L136.9,386.5L136.9,386.5L137.2,386.1L137.9,385.9L138.7,385.6L140,385.5L140.4,385.2L140.6,384.6L140.8,384L141.2,383.1L141.8,382.3L142.1,381.9L142.5,381.1L142.9,380.5L143.7,379.8L144.3,379.2L144.5,378.6L144.5,377.9L144.1,377.4L143.7,376.4L145.1,376L146.2,375.7L147.3,375.3L148.5,374.9L149.5,374.9L150.2,374.8L151.3,375L152.3,375.1L153.1,375.5L154.3,376.1L155.4,376.6L156,376.6L156.7,376.4L157.3,376.1L157.7,376L158.2,376.3L159,376.7L159.8,376.7L160.7,376.6L161.3,376L162.4,375.1L163.2,374.4L164,374L164.6,373.9L165.3,373.9L166.1,373.9L167.3,374L168.2,374L169.3,373.8L170.3,373.6L170.7,373.3L170.7,372.8L170.5,372.1L170.3,371.5L170.2,370.8L170.4,370.2L170.5,369.7L170.4,368.9L170.1,367.9L170.1,367.5L170.1,367.4ZM336.3,163.4L335.7,163.6L335.7,163.3L335.9,163.2L336.1,163.1L336.3,163.2ZM92.78,456.3L92.15,457.4L91.86,457L91.75,456.3L92.3,455.3L92.59,454.8L93.11,454.6ZM94.97,482L95.8,479.6L96.31,476L96.13,472.4L95.72,469.1L95.06,467L94.44,464L93.48,462.3L91.75,460.9L91.34,460.1L91.75,459.8L92.82,459.5L93.48,458.4L92.08,458.9L93.7,455.4L94.22,453.1L94.14,451.6L94.47,450.6L93.18,448.6L92.23,446L91.71,445.6L91.2,445.4L91.16,446L90.86,446.6L90.24,446.2L89.17,444.3L87.66,441.3L87.11,440.9L86.67,441.4L86.41,441.8L85.89,444.3L85.75,443.3L85.97,442.1L86.34,440.7L86.74,438.6L88.07,438.6L90.39,438.6L92.74,438.6L95.1,438.6L97.45,438.6L99.77,438.6L102.1,438.6L104.5,438.6L106.8,438.6L109.2,438.6L111.5,438.6L113.8,438.6L116.2,438.6L118.6,438.6L120.9,438.6L123.2,438.6L125.6,438.6L127.1,438.6L127,437.1L126.9,435.9L126.9,434.4L126.8,432.8L126.7,431.3L126.6,429.8L126.5,428.4L126.4,427L126.3,425.7L126.2,425L125.7,423.6L125.6,422.9L125.7,422.1L126.1,421.4L127,420.1L128.3,419.2L130,418L131.2,417.1L131.8,416.9L133.7,416.6L135.2,416L136.7,415.3L137.3,414.9L137.4,413.7L137.4,412.4L137.4,410.9L137.4,409.3L137.4,407.8L137.4,406.3L137.4,404.8L137.4,403.2L137.4,401.7L137.4,400.2L137.4,398.6L137.4,397.1L137.4,395.6L137.4,394L137.4,392.5L137.4,390.9L137.4,389.4L137.4,387.8L137.4,386.5L138.9,386.5L140.8,386.5L142.7,386.5L144.6,386.5L146.5,386.5L148.4,386.5L150.3,386.5L152.2,386.5L154.1,386.5L156,386.5L157.9,386.5L159.9,386.5L161.7,386.5L163.7,386.5L165.6,386.5L167.5,386.5L169.4,386.5L171.5,386.5L171.5,385.2L171.5,383.3L171.5,380.8L171.5,378.2L171.5,375.9L171.5,373.6L171.4,371.7L173.4,373L175.3,374.3L177.2,375.5L179.1,376.8L181.1,378.1L183,379.3L184.9,380.6L186.8,381.9L188.8,383.1L190.7,384.4L192.6,385.6L194.5,386.9L196.5,388.2L198.4,389.4L200.3,390.7L202.2,391.9L203.8,393L206.3,394.7L208.6,396.2L210.9,397.8L207.4,397.8L202.6,397.8L199.3,397.8L195.9,397.8L192.8,397.8L193.1,400.4L193.4,403.2L193.7,406L194,408.8L194.2,411.6L194.5,414.3L194.8,417.1L195.1,419.9L195.4,422.6L195.7,425.4L196,428.1L196.3,430.9L196.6,433.6L196.9,436.4L197.2,439.1L197.5,441.8L197.7,444.5L198,447.3L198.3,450L198.6,452.7L198.9,455.4L199.2,458.1L199.5,460.8L199.8,463.5L200.1,466.2L200.4,468.8L200.7,471.5L200.9,474.2L201.2,476.9L201.5,479.5L201.8,482L94.97,482ZM201.8,482L201.5,479.5L201.2,476.9L200.9,474.2L200.7,471.5L200.4,468.8L200.1,466.2L199.8,463.5L199.5,460.8L199.2,458.1L198.9,455.4L198.6,452.7L198.3,450L198,447.3L197.7,444.5L197.5,441.8L197.2,439.1L196.9,436.4L196.6,433.6L196.3,430.9L196,428.1L195.7,425.4L195.4,422.6L195.1,419.9L194.8,417.1L194.5,414.3L194.2,411.6L194,408.8L193.7,406L193.4,403.2L193.1,400.4L192.8,397.8L195.9,397.8L199.3,397.8L202.6,397.8L207.4,397.8L210.9,397.8L214.1,400L216.9,402L220.2,404.4L223.6,406.8L226.9,409.2L230.3,411.6L233.6,414L237,416.4L240.3,418.8L243.7,421.1L247,423.5L250.4,425.9L253.7,428.3L257.1,430.6L260.4,433L263.8,435.3L267.1,437.7L270.5,440.1L272,441.1L272.1,441.5L272.2,442.4L272.2,443.4L272.2,444.2L272.6,444.8L273.4,445.4L276.7,447.1L277,447.4L277.1,448.1L277.5,449L278.2,449.5L279,449.9L280,450.2L282.9,450.4L283.6,450.9L284.9,452.4L285.6,452.7L287.5,453.2L288.9,453.5L289.6,453.6L290.9,454.1L292.3,454.8L293,455.4L293,455.6L293,456.2L293,457.9L293.3,458.9L293.5,459.5L293.5,459.9L293.2,460.3L292.9,460.6L292.7,461.1L292.3,461.7L292,462.4L292.1,462.9L292.7,463.2L293.5,463.8L294.2,464.1L294.6,464.1L295,464.1L295.4,464L297.9,463.5L300.2,463.1L303.5,462.4L303.5,464.3L303.5,467.2L303.5,470.3L303.5,473.3L303.5,476.6L303.5,479.3L303.6,482L201.8,482ZM322.8,67.81L322.7,68.23L322.7,69.19L323,70.13L323.7,71.07L324.2,71.76L324.9,72.31L326.1,72.83L326.6,72.94L326.6,73.63L326.6,74.37L326.2,74.78L325.8,75.36L325.5,76.07L325.2,77.44L325.1,78.4L324.4,78.02L324.1,77.74L323.4,77.66L322.8,77.88L322.4,78.37L321.7,78.51L321.2,78.37L320.9,78.02L320.6,77.8L319.8,77.58L319.5,77.06L319.7,76.81L319.9,76.4L320.1,75.88L320.4,75.36L319.6,73.99L319.4,73.55L318.8,72.78L318.8,72.39L318.9,72.01L318.9,71.71L319,71.02L319.4,70.36L319.7,69.53L320.2,68.42L321.4,67.06L322.2,67.28L322.5,67.28L322.7,67.76ZM358.2,115.2L357.4,115.1L357.3,115.1L357.2,114.6L357.2,113.5L357.7,112L357.8,112.2L357.8,112.5L357.9,112.9L358,113.3L358.1,113.7L358.4,114.1L358.5,114.5L358.4,114.9ZM402,421.2L399.3,418.8L398.1,418.2L393,416.9L388,415.7L382.6,414.4L381.7,412.4L380.6,410.2L379.1,407.4L378.2,405.7L377.9,405.5L373.8,404.1L369.5,402.8L367,403.6L366.6,403.6L365.9,403.1L365.1,402.4L364.8,401.4L363.7,400.1L362.8,397.2L362.7,394.9L362.5,394L360.3,390.7L358.2,387.7L356.9,385.7L356.6,384.8L356.8,383.6L357.3,382.6L359.3,381.4L361.1,380.1L361.3,379.2L361.4,376.8L360.8,376L360.4,374.5L360,372.5L359.9,371.2L360.7,368.6L361.7,366L361.1,363L360.6,357L360.9,352.2L360.7,350.5L360.5,349.8L359.9,347.5L359.2,345.2L358.8,344.4L357.9,342.5L356.3,340.2L355.5,338.7L356.6,338L357.6,337.4L357.6,337.4L358.8,336.8L360.6,336L361.4,335.5L361.8,335L363.1,333.2L363.8,332.2L364.7,330.8L365.1,329.8L365.2,328.9L365,327.8L364.3,325.2L363.7,322.7L364.2,321.7L364.5,321.2L365.3,320L365.6,319.8L367.4,319.4L368.1,318.6L368.6,317.6L368.7,317.1L369.5,316.5L370.4,316L371,315.3L372.8,314.1L374.5,313.1L376.4,312L377.9,311.2L378.2,310.5L378.2,309.9L377.4,308.4L377.4,306.8L377.5,305.3L377.5,304.5L377.9,302.2L377.9,301.9L379.5,302.7L381.1,302.9L385.8,305.8L387.3,306.2L390.7,306.5L394.6,305.3L396.1,305.1L398.7,306.2L399.8,306.5L401.8,306.6L402,306.7L402,421.2ZM387.5,189.2L387.5,189.1L387.4,189.1L387.4,189.2L387.4,189.2ZM387.9,161.3L388.2,160.5L388.1,160L387.5,160.1L387,160.8L387.3,161.4ZM402,136.7L401.8,136.9L401.1,137.1L400.6,137L401.2,136.4L399.6,134.3L398.9,134.3L398,135.2L395.3,134.3L394.8,134.6L394.4,135.4L393.5,136.2L392.2,136.6L390.7,137.6L389.2,138.3L388.1,138.8L387.4,138.7L388.5,137.6L388,137.6L386.6,138.4L385.8,139L385.5,140.1L385.3,142L385.9,142.5L387,144.9L388.3,146L388.1,147L387.7,147.7L386.9,148.4L386.2,147.9L385.8,147.9L385.5,149.5L386.1,153.7L387,156.7L387.9,157.9L390,159.9L392.3,161L396.2,164.3L398.4,165.3L399,165.9L400.3,168.5L401.4,171.4L402,173.6L402,199.8L402,199.8L402,199.7L400.7,198.3L400.1,198L398.9,198.3L396.9,197.7L395.7,197.5L395.1,197.7L394.1,198.2L393.6,197.9L393.4,197.4L391.7,195.9L389.4,195.1L385.1,190.4L383.7,188.6L381,186.7L379.3,183.8L377.8,182.8L375.8,182L375.3,182.1L374.7,182.4L374.2,182.4L373.8,182.1L374.2,181.7L374.6,181.5L374.5,180.4L372.1,177.6L370.7,176.7L370.3,176.1L370.1,175.3L369.8,174.8L369.1,174.5L368.5,174.6L367.8,174.4L367.8,173L368,172L367.8,171.1L367.1,168.7L365.8,166.7L365,161.9L364.4,160.6L363,159.6L359.7,158.4L355.3,155.3L354.3,155.2L351.6,154L349.9,153.8L347.7,154.9L345.1,157.9L342.9,161L342.1,161.6L339.3,162.7L336.9,163.2L336.8,162.4L336.8,161.8L337.2,161.1L337.9,160.3L338.5,159.4L338.8,158.7L338.6,158.2L338.4,157.5L337.9,157.5L335.6,158L335.1,157.9L333.3,157L331.5,155.8L330.8,155L330.5,154.3L330.7,153.7L330.6,153.2L330.2,152.6L330.5,151.8L331.1,150.8L331.4,150.2L331.9,150L332.1,149.6L331.8,148L331.5,147.7L331.2,147.5L330.7,147.5L329.8,147.2L329.1,146.6L329,145.9L328.7,145.2L328.1,144.5L328,143.8L328.7,143.4L329.6,143.4L330.2,143.6L331.7,142.4L332.2,142.3L332.6,142L333,140.5L333.3,140L333.4,139.7L333.1,139.4L332,138.2L331.4,137.1L330.6,135.8L329.8,135.2L329.7,134.7L329.7,134.1L329.8,133.7L331.2,132.9L332.1,132L332.1,132L332.4,132.3L333.2,132.7L335.2,132.2L336.4,131.7L337.4,131.2L337.9,131.3L339.9,132.1L340.6,131.7L342,130.7L342.2,130.2L343.3,128.5L343.4,128.2L342.9,127.1L343,126.9L344.4,125.9L345.1,124.9L345.9,124.3L346.4,124.3L346.5,124.5L346.6,125L346.5,126.7L346.7,127.3L347.9,128.6L348.6,129.3L350.4,129.8L350.5,130L350,131L351.1,132.1L351.3,132.9L351.8,133.4L352.5,133.2L352.7,132.7L352.5,132L352.3,131.2L352.3,130.7L352.5,130.2L353,129.4L354.4,127.7L354.8,126.7L355,125.1L355,123.9L355.4,123.6L356.4,123.8L356.7,123.8L356.8,124.6L357.2,125.8L357.7,126.4L358.2,126.5L358.8,126.5L360.3,125.8L361.3,125.5L361.9,125.6L362.2,126.1L362.9,127.4L363.4,127.5L363.8,127.4L364,127.2L363.8,126.7L363.6,125.6L363.4,124.7L363,124.3L362.9,123.8L363.1,122.8L363.4,122L363.9,121.8L364.5,121.7L365.3,122.5L366.2,122.8L366.9,122.8L367,122.3L367,121.7L366.6,121.1L366.7,120L367.1,118.1L367.4,118.2L368.4,118.2L369.6,118.4L370.3,119.2L371,119.4L372,119.5L372.7,119.4L373,119.1L373.4,118.2L374.1,117L375.2,116.4L377.2,116.3L378.2,116.1L379.1,116.1L379.9,116.3L380.7,116.3L382.6,115.5L384.7,114.8L385,114.9L385,115.2L384.7,115.6L384.3,116.3L384.6,117L385.7,118.5L386.3,119.7L387,120.5L387.9,120.9L389.1,121.2L390.1,121.3L391.2,121.6L394.9,122.4L396.8,122.7L398.2,122.7L400.4,123.2L400.1,124.1L399.7,124.3L399,124.8L398.1,125.5L397.3,126.2L397.1,127.1L397.3,127.6L397.5,127.8L397.8,127.6L398.2,127.7L398.8,128L399.7,128.3L399.7,128.6L399.5,129L398.8,129.6L398.2,130.3L398.1,130.8L398.2,131.1L398.4,131.3L399.3,131.2L399.5,131.5L399,133.3L399.2,133.7L400,134L400.6,134.4L401.7,135.6L402,136.3L402,136.7ZM366.6,175.9L366.9,176.5L366.9,176.8L366.7,177.1L366.8,177.9L365.9,177.3L364.6,177.6L363.9,177.5L363.6,177L363.8,176.6L365,176.5L365.5,176.3L366.2,176.4ZM402,205.3L401.9,205.2L402,205L402,205.3ZM383.5,257.2L383,257.4L382.4,257L382.3,256.3L382.4,256.1L383.2,256.4L383.5,257ZM402,252.7L401.4,252.4L399.2,250.9L396.9,249.7L395.9,248.9L395.5,248.3L394.9,248L393.6,247.6L392.4,246.8L391.9,246.7L390.7,246.8L390.1,246.8L389.5,246.5L388.4,245.5L387.6,244.2L387.4,243.6L387.9,242L388.6,240.6L389.1,240.1L389.8,239.8L390.2,239.4L390.5,238.9L391.7,240.4L392.2,240.8L392.7,240.7L393.7,240.2L393.8,239.6L394.8,238.8L396.2,238.8L396.8,238.9L397.1,239.6L397.6,239.8L398.2,239.9L400.2,241.2L400.7,241.4L401.3,241.5L402,241.2L402,252.7ZM358.8,203.1L359.3,203.9L360.4,207.5L360.5,208.2L360.3,209L360,209.6L358.9,211.3L359,212.8L359.4,213.7L359.5,214.7L359.3,215.9L358.6,223.5L358.3,224.8L358.1,226L357.3,226.3L356.2,226L355,225.3L354.4,225.4L353.8,225.6L353.3,225.4L352.9,225L352.5,227.6L351.9,228.7L351.1,229.3L350.2,229.4L349.4,229.1L348.7,229.1L348.1,228.7L347.7,227.8L347,226.7L346.3,225.5L346.3,224.3L346.2,221.8L346.3,221.3L346.6,220.7L346.8,219.6L346.7,218.6L346.9,218.3L347.3,218.6L347.6,218.5L347.6,218L347.7,217.1L347.1,216.3L346.2,216L346.2,215.2L346.2,214.4L346.7,213.9L346.9,213.2L346.9,211L346.2,210.2L346,209L345.7,208.2L345.1,207.4L344.4,206.8L344,206.2L343.9,204.6L344.1,203.2L344.4,202.7L344.6,202.7L345.2,203.4L345.8,203.5L346.9,203.7L347.9,203.5L349.2,202.9L350.5,202.2L352.3,200L353.4,199.5L354,199L354.1,198.2L354.6,198L355.2,198.7L355.9,198.8L356.9,199.4L357.4,200L357.8,200.7L358.2,201.1L358.6,201.2L358.6,201.4L358.3,201.6L357.9,202.4L358.2,202.6ZM347,227.3L346.4,228.6L345.8,227.7L345.7,226.9L345.8,226.6L346.6,227ZM345,200.9L344.6,201.5L344.2,201.5L344.4,201.1L344.8,200.1L345.3,199.8L345.6,200.1L345.3,200.6ZM158.5,4.728L158.5,5.24L157.7,4.607L157.3,3.943L155.3,3.611L156.1,2.947L156.5,3.128L158,3.158L158.4,3.46ZM186.4,-16.04L184.8,-14.89L184.6,-14.46L184.1,-12.69L184.1,-12.2L183.5,-11.27L183,-10.26L182.5,-9.857L181.6,-9.55L181.1,-9.242L180.5,-9.396L179.7,-9.365L179.3,-9.027L179.4,-8.751L179.6,-8.444L180.3,-7.983L181,-7.554L181,-7.186L180.6,-6.788L178,-5.747L177.2,-5.105L176.9,-4.708L177.2,-4.006L179.3,-1.934L179.6,-1.722L179.9,-0.536L181.7,-0.02L182.5,0.738L183.1,0.889L184.5,0.829L185,1.132L185.3,0.92L185.5,0.526L186.7,-0.506L187.1,-0.962L186.8,-1.569L186.6,-2.026L187.3,-2.97L188.1,-3.915L188.6,-3.884L189.3,-3.305L189.9,-2.513L190,-1.904L190.1,-1.448L190.7,-0.506L191,-0.172L192,0.01L192.3,0.374L192.1,1.768L192.2,2.221L193.3,2.221L194.4,2.131L194.8,2.161L195.2,1.889L195.8,1.586L196.6,1.677L197.1,2.312L197.3,2.947L196.5,3.158L195.7,3.038L195.4,3.46L195.3,4.245L195.6,5.27L196.1,5.992L196.5,7.646L196.9,9.445L197.4,10.55L197.5,11.9L197.5,12.55L197.6,13.74L197.3,14.16L197.5,15.29L198.2,17.61L198.4,18.88L198.6,21.65L198.2,22.71L197.6,23.68L197.2,24.85L196.9,26.11L196.7,28.16L195.4,30.52L194.8,31.1L194.1,31.48L195.6,33.11L194.4,33.86L193.1,34.09L191.7,33.69L190.9,33.72L190.1,34.27L189.8,34.58L189.5,34.41L189,33.08L188.6,34.47L187.8,34.9L186.4,34.81L184.2,35.19L183.3,35.6L182.9,36.2L182.6,36.92L182.2,37.33L181.8,37.56L180.1,38.08L179.7,38.31L178.9,39.46L177.8,40.12L176.9,40.32L176.2,39.66L175.8,39.26L175.5,39.03L174.3,39.09L174.6,39.29L174.9,39.75L175,40.66L174.8,41.55L174.3,41.98L173.6,42.07L172.4,42.99L170.9,43.24L170.1,44.1L165.2,45.53L164.9,45.53L164.2,45.16L163.5,45.02L162.7,45.13L160.7,45.93L159.6,45.76L160.9,43.79L162.7,42.79L162.8,42.5L162.3,42.38L159,43.07L157.9,43.67L156.7,43.84L157.2,42.93L158.7,41.7L159.5,41.1L160,40.87L160.5,40.15L162.1,39.31L157.1,41.01L155.8,40.81L155.5,40.35L154.5,40.55L154.1,39.4L155.6,37.65L156.5,36.9L157.5,36.49L158.5,35.91L158.9,35.19L158.4,34.96L155.4,35.13L154,34.99L154,34.41L154.3,33.77L155.8,32.7L156.6,32.53L157.4,32.64L158.1,32.9L158.6,33.28L160.3,33.05L159.6,32.38L159.5,30.96L158.9,30.49L159.6,29.85L160.4,29.44L161.7,28.07L162.2,27.87L164.8,27.55L167.6,26.84L170.4,25.85L169,25.29L168.3,24.56L167.2,26.05L166.4,26.61L164.2,26.9L163.5,26.73L162.5,26.29L162.1,26.46L161.8,26.82L160.4,27.52L158.8,27.69L160.6,26.38L162.9,24.15L163.4,23.42L164.2,22.18L163.9,21.65L163.5,21.33L165.1,18.76L165.7,18.32L166.8,18.23L167.6,17.81L167.9,17.81L168.2,17.66L168.9,16.89L167.8,16.42L166.8,16.15L163.4,16.42L163,16.36L162.5,16.12L162.3,15.8L162,14.9L161.8,14.73L161,14.73L160.3,14.99L159.8,14.96L159.2,14.58L160.1,13.69L159,13.48L157.9,13.65L157,13.39L157,12.82L157.4,12.25L156.9,11.72L156.8,11.03L157.4,10.7L157.9,10.82L159.2,10.31L160.8,10.07L159.5,9.594L158.9,9.175L158.9,8.516L159,7.976L160.6,7.015L162.3,6.624L162.1,5.992L162.3,5.33L160.6,5.119L158.9,5.601L159.1,4.305L159.5,3.158L159.5,2.403L159.5,1.586L158.6,1.919L158.5,0.768L158.2,-0.02L157,0.526L157.1,-0.536L157.4,-1.265L158,-1.6L158.6,-1.448L159.8,-1.448L160.9,-2.026L162.4,-2.147L165,-1.995L166.7,-0.415L167.2,-0.688L167.8,-1.691L168.2,-1.782L170.8,-1.357L172.4,-0.81L172.9,-0.992L172.6,-2.056L172,-2.817L172.7,-3.823L173.6,-4.494L174.2,-4.83L175.5,-5.258L176.1,-5.655L176.5,-6.941L177.1,-8.014L173.7,-7.462L170.6,-8.72L171.1,-9.611L171.8,-10.13L172.9,-10.53L173,-11L173.6,-11.4L174.6,-12.41L174.2,-13.74L174.4,-14.73L175.1,-15.38L175.3,-16.32L175.6,-17L177,-17.25L178.4,-17.87L178.9,-17.81L180.4,-17.96L181,-17.71L180.8,-18.83L181.8,-18.96L182.2,-18.74L182.4,-17.96L182.8,-17.43L182.9,-16.56L182.7,-15.88L182.2,-15.35L182.6,-14.83L181.9,-13.87L182.7,-14.27L183.8,-15.23L183.7,-16L183.5,-16.97L183.2,-17.84L183.3,-18.8L184,-19.43L185.6,-19.74L184.9,-20.83L185.5,-20.92L186.1,-20.7L187.1,-19.83L188,-19.18L189.1,-18.65L188.1,-17.56L186.9,-16.84ZM402,57.66L400.4,58.25L398.9,58.45L398.6,58.62L398,59.85L397.7,60.1L397.3,59.99L397,59.77L396.7,59.94L396.3,60.35L395.9,60.52L395.6,60.49L395.1,61.58L393.4,61.89L393.2,62.45L392.8,63.09L392.6,63.23L391.8,62.98L390.8,62.84L390.2,63.2L389.5,63.4L388.6,63.45L387.6,64.15L386.6,65.37L386.1,66.45L385.8,66.84L385.3,65.84L384.7,65.12L384.3,64.76L384,64.76L383.9,64.93L383.9,65.45L384.3,66.34L384.7,66.92L384.8,67.37L385.1,68.17L385.8,69.06L386.9,69.75L387.7,70.44L388.2,71.4L388.2,71.68L388.1,72.06L387.8,72.42L387.6,72.92L387,73.88L387.1,74.29L387.7,74.81L388.1,75.44L388.6,76.46L389.4,78.26L389.9,79L390.6,79.76L391.3,80.33L392.3,80.31L393.4,81.42L394.6,83L395.5,83.73L396.2,83.95L396.7,84.55L397.1,85.36L397.3,85.85L397.7,86.17L398.8,86.12L400.2,87.41L401.1,88.36L401.5,89.11L401.4,89.41L401.3,90.35L401.3,91.37L401.2,91.88L400.6,92.58L400.3,92.74L400.1,92.87L398.2,91.96L398,92.12L397.9,92.23L397.4,94.88L397,95.36L396.5,95.84L395.4,96.3L394.6,96.48L394,96.7L392.1,97.79L391.3,98.46L390.7,99.28L390.7,99.76L391.7,101.1L392.7,102.6L392.7,103.8L392.3,104.8L392.1,105.2L392.5,105.3L393.1,105.3L393.5,105.5L393.8,106.2L393.7,107.3L393.5,108.4L393.4,108.8L392.9,108.9L392,108.4L391.3,107.9L391,107.6L391,107.2L391.1,106.9L390.9,106.4L390,106L389.1,106.2L388.4,106.5L387.9,106.5L387.4,106L386.7,105.7L385.7,105.5L385.1,105.2L385,105.3L385,106.3L384.9,106.7L380.1,107.3L378.6,107.8L377.6,108.4L376.8,108.7L376.6,109.1L375.8,109.7L374.9,109.8L374.7,109.7L374.1,109.9L373.2,110.1L372.6,110.1L372.3,109.6L371.7,109L371.4,108.5L371.5,108.2L370.1,108.2L369.2,107.8L367.4,107.9L367,107.7L366.9,107.9L366.6,109.8L366.3,110.6L365.7,111.3L365,111.8L364.4,111.9L364.4,111.3L364.6,110.6L364.1,110.4L363.5,110.3L363.2,110.1L363.3,109.6L363.1,109.3L362.9,108.9L362.2,108.5L360.9,107.7L360,107.4L359.6,107.7L358.9,108.1L357.9,108L357.6,108.2L357.6,108.2L355.9,107L354.1,105.9L353.6,105.9L351.1,106.2L351,106.1L350.6,105.4L350.2,105.2L350,105.3L349.8,105.5L349.5,105.5L348.4,104.5L347.9,104.3L347.3,104.5L346.5,105L346.2,105.7L346.3,106.1L346.7,106.2L347.7,106.1L347.9,106.2L347.9,106.4L347.8,106.6L346.9,106.8L346.7,107.1L346.5,107.1L346.3,107.2L345.4,106.9L344.1,106.9L343,107.4L341.3,107.6L339,107.5L338.1,107.1L337.6,106.9L337.2,105.9L337.4,104.4L337.9,102.4L338.1,100.9L337.8,99.95L338.1,98.51L339.1,96.62L339.6,94.61L340,92.53L340.4,91.13L341.3,90.16L343.3,87.47L343.5,87.25L343.4,85.9L342.9,85.71L342.1,85.31L340,84.82L338.1,84.52L337.2,84.14L336.4,83.11L336,83.08L335,83.46L333.9,83.71L333.1,83.49L332.5,83.54L332.2,83.73L332.1,83.57L331.8,82.67L331.4,82.43L330.7,82.24L330.3,82.32L330,82.76L329.6,83.08L329.1,82.97L327.8,80.93L327.5,80.47L327.4,80.06L327.1,79.3L326.3,78.56L325.5,78.32L325.1,78.4L325.2,77.44L325.5,76.07L325.8,75.36L326.2,74.78L326.6,74.37L326.6,73.63L326.6,72.94L326.1,72.83L324.9,72.31L324.2,71.76L323.7,71.07L323,70.13L322.7,69.19L322.7,68.23L322.8,67.81L322.9,67.51L323.4,66.04L325.3,64.68L325.1,63.34L325.1,62.5L324.6,61.97L323.7,61.75L323.4,61.39L323.3,61L324,60.19L323.2,59.52L322.8,58.84L321.7,58L321.5,57.69L322.1,55.19L321.7,54.46L321.2,54.09L320.5,53.92L320.2,53.56L320.2,53.16L320.3,52.91L321,52.99L321.2,52.74L322.9,51.27L323,50.98L322.8,50.81L322.4,50.73L322.4,50.42L322.4,49.99L323.3,47.86L323.6,46.95L323.6,46.3L323.6,45.67L323,44.67L322.5,43.87L322.5,43.22L322.2,42.87L321.1,41.15L321.1,40.49L321.7,39.98L322.5,39.66L322.8,39.37L323.3,39.2L324.7,39.69L325.2,40.15L325.4,40.03L325.9,39.57L326.9,39.66L329.2,38.71L329.5,38.25L329.8,37.76L329.8,37.56L328.9,36.64L328.9,36.29L329,35.88L329.3,35.6L329.8,35.37L330.4,34.96L331.6,33.8L332,32.79L332.2,31.71L332.2,30.87L331.8,30.23L331.5,29.82L331,29.88L330.1,29.85L329.3,29.47L328.8,28.89L328.7,28.36L328.9,28.04L329,27.63L328.8,27.23L328.9,26.9L329.3,26.61L332,26.64L332.2,26.32L332.4,24.74L333,22.36L333.7,21L333.8,20.44L333.8,17.25L333.9,15.62L333.4,14.85L332.4,14.01L332.6,12.25L332.9,10.91L333.9,9.205L334.7,8.756L338.3,8.486L342.1,8.606L343.8,11.12L343.2,12.43L344.1,13.03L344.6,12.82L344.9,11.69L345.1,10.43L345.5,10.04L346.7,11L347.1,11.63L347.1,13.69L347.6,10.91L347.2,8.935L347.4,7.045L348,6.023L348.4,5.39L351.2,6.083L354.4,5.722L355.6,6.474L358.3,10.16L359.2,10.76L360.3,10.94L358.8,10.16L355.5,5.691L354.5,5.119L353,4.969L352,4.517L351.5,3.823L351.3,3.219L351.4,-1.326L350.8,-1.995L350,-2.239L349.6,-1.934L348.7,-1.904L348.5,-2.939L348.7,-3.732L350.6,-4.25L351.8,-4.953L351.9,-6.206L351.1,-7.186L350.1,-8.966L349,-10.69L348.9,-12.66L350.8,-12.63L351.3,-12.54L354.2,-11.61L354.9,-10.96L355.8,-10.93L357.4,-11.55L358.6,-11.8L359,-11.43L359.7,-11.27L359.9,-11.27L359.9,-10.96L361.4,-10.47L362,-9.734L362.7,-8.597L362.8,-6.941L361.9,-5.778L361.2,-5.044L364,-5.319L364.3,-4.647L364.7,-3.915L366.2,-4.433L370,-2.3L372.3,-3.335L372.9,-3.396L373.4,-1.661L372.8,0.071L370.8,1.919L371.3,3.068L371.9,3.309L373.8,3.068L376.8,4.185L377.5,3.853L379.9,1.253L380.9,0.707L384.1,0.283L384.7,-0.719L386,-1.722L386.8,-2.817L388.9,-4.953L390.9,-4.555L392.1,-4.159L393.5,-3.945L394.7,-1.691L397.8,0.768L400.6,0.556L401.6,2.887L402,5.469L402,57.66ZM400.5,-3.457L400.7,-2.269L400.4,-1.691L399.3,-2.665L398.1,-2.665L397.4,-1.114L396.9,-1.053L395.1,-2.452L394.9,-3.152L394.8,-3.701L395.1,-5.686L395,-6.298L395.6,-6.972L395.6,-7.953L396.6,-8.996L397.5,-9.027L397.8,-8.167L398.2,-7.554L399.7,-6.88L399.9,-6.573L400.1,-6.145L399.4,-5.319L399.1,-4.891L399.4,-4.189ZM402,2.507L401.6,2.191L401.6,1.616L401.6,1.01L402,1.279L402,2.507ZM375.6,-4.067L374.1,-4.037L373.5,-4.739L372.9,-4.922L373.2,-5.808L373.6,-6.114L375.1,-5.533L375.6,-4.433ZM345.2,-10.6L345,-10.23L345.1,-12.75L346.2,-15.41L346.7,-15.35L346.2,-14.64L346,-14.14L345.9,-13.13L345.9,-12.6L348.5,-12.45L348.2,-11.98L345.6,-11.67ZM348.1,-9.273L347.7,-8.843L346.7,-8.904L346.2,-9.304L346.3,-9.734L346.9,-10.07L347.3,-10.13L347.9,-9.919ZM357.2,176.7L356.9,178.7L357.1,179.3L357.5,179.7L357.7,180.2L358,185.6L357.9,186L356.7,188.2L356.4,188.8L356.3,191.5L356.1,192.2L355.7,192.9L354.9,195.2L354.2,196.2L352.3,195L351.2,194.5L350.7,193.9L350.3,193.5L350.5,192.9L351.1,192.4L351.1,191.9L350,191.4L349.4,191.1L349.4,190.5L349.8,189.6L349.6,188.8L349,188.9L348.4,188.8L348.4,188.4L348.7,187.9L349.3,187.2L349.2,186.5L348.6,186.2L348.1,185.6L347.9,184.8L348.3,184.3L349,183.9L348.5,183.1L348.1,183.1L347.9,182.9L348.1,182.5L348.6,181.9L349.4,180.2L350.4,179.4L352.2,178.9L352.7,178.7L353.2,178.1L353.7,177.7L354.3,177.7L354.9,177.9L355.2,178.2L355.5,177.9L355.7,177.2L355.6,176.5L355.7,174.7L356,173.7L356.5,173.6L357,174.2L357,174.7L357.2,175.9ZM338.1,107.1L336.9,107.8L336.6,108.4L336.1,109.2L335.3,109.5L334.6,109.6L333.9,109.5L333.5,109.2L333.6,108.9L333.2,108.7L332.4,108.7L331.5,109.2L330.8,110.1L331,110.6L331.7,110.8L331.8,110.9L331.8,111.2L331.6,111.5L331.4,112L330,113.6L328.6,115.2L328.4,115.6L328,116L326.3,116.8L326.1,117.2L326,118.6L325.8,119.7L324.5,120.8L323.3,121.9L322.9,122.5L322.7,123.3L322.3,124.1L322.2,124.6L322.9,125.3L322.8,125.9L322.6,126.8L322,127.4L321.3,127.7L321.3,128.7L321.7,128.8L322.5,128.7L323.7,128.1L324.4,127.2L324,126.4L323.9,126.2L324,126L324.9,125.1L326,124.6L327.5,124.5L329.4,124.8L329.6,124.9L329.4,125.5L329.6,126.3L330,126.8L329.5,128.5L329.8,129L330.4,129.6L330.8,130.2L331.4,130.7L331.9,131.5L332.1,132L331.2,132.9L329.8,133.7L329.7,134.1L329.7,134.7L329.8,135.2L330.6,135.8L331.4,137.1L332,138.2L333.1,139.4L333.4,139.7L333.3,140L333,140.5L332.6,142L332.2,142.3L331.7,142.4L330.2,143.6L329.6,143.4L328.7,143.4L328,143.8L328.1,144.5L328.7,145.2L329,145.9L329.1,146.6L329.8,147.2L330.7,147.5L331.2,147.5L331.5,147.7L331.8,148L332.1,149.6L331.9,150L331.4,150.2L331.1,150.8L330.5,151.8L330.2,152.6L330.6,153.2L330.7,153.7L330.5,154.3L330.8,155L331.5,155.8L333.3,157L335.1,157.9L335.6,158L337.9,157.5L338.4,157.5L338.6,158.2L338.8,158.7L338.5,159.4L337.9,160.3L337.2,161.1L336.8,161.8L336.8,162.4L336.9,163.2L336.3,163.4L336.3,163.2L336.1,163.1L335.9,163.2L335.7,163.3L335.7,163.6L334.5,164.2L333.7,164.7L330.4,167.8L328.9,168.7L328.6,169.3L328.3,170.3L327.5,171.2L326.6,171.6L324.7,172L322.8,172.9L321.9,172.5L319.6,172.6L318.3,171.4L315.5,170.7L314.6,169.1L313.4,169L312.6,169.1L312.1,168.8L312,168.3L312,167.7L311.1,168L310.5,168L310.1,168.2L309.8,168.4L309.4,168.3L309.2,168.3L309.2,168.6L308.4,168.7L307.6,168.5L305.3,167.7L305,167.5L303.4,167.2L302.8,166.9L302.3,166L301.9,165.8L301.7,165.6L300.2,166L299.7,166.7L299,167.5L293.6,171.3L292.6,172.8L291.4,175.1L291.4,176.2L291.9,179.6L293,181.4L293.1,181.9L292.5,181.9L291.4,181.6L290.6,181.4L289.8,181.5L289.1,181.9L288.4,182.1L287.9,182.2L287.5,182.4L287.4,182.8L287.4,183.1L286.5,183.1L284.5,182.4L282.8,182L281.7,182.5L281,182.9L280.5,182.9L280.2,182.4L280,181.9L279.3,181.5L277.7,180.9L277.8,180.6L278,180.1L278,179.9L277.7,179.5L276.3,179L275.6,178.9L275.2,179.2L274.8,179.6L274,178.3L273.5,178L272.6,177.9L271.6,177.5L270.6,177L268.1,176.2L267.4,176.1L267.1,176.2L266.9,176.7L266.8,178.1L266.7,178.3L265.5,178.3L264.1,178.1L263.4,178.2L262.8,178.2L262.3,177.8L259.8,178.3L259.4,178.1L258.8,177.4L258.1,176.9L257.6,176.7L257.2,176.4L256.8,176.3L256.2,176.6L255.3,176.7L254.6,176.7L254.3,176.8L252.7,175.2L252.5,174.8L251.6,174.7L250.7,174.7L248.2,173.7L247.1,173.1L246.9,172.8L246.9,172.5L246.8,172.6L246.4,173.1L246.2,173.4L246,173.5L245.6,173.4L245.3,173.2L245.1,173L245.3,172.5L245.7,171.9L245.9,171.2L245.8,170.6L245.2,170.2L244.3,170L243.6,170L242.7,169.6L242.3,169.4L241.9,168.7L241.9,168.2L243.5,167.8L245.1,166L246.5,159.6L247.5,151.8L248.3,150.4L249.2,150L248.4,148.9L248,149.4L247.8,150L247.5,150.3L248.1,143.2L248.5,140.5L249.2,137.8L250.6,138.9L251.8,140L252.4,141L253.2,144.2L253.7,144.8L254.6,145.5L254.3,144.8L253.7,144.2L252.8,139.9L252.2,138.7L251.2,137.7L248.3,135.5L248,135.1L247.9,134.3L248.8,134.3L249.7,134.7L249.6,134.3L249.3,133.8L249,132L248.6,127.9L248.7,127.2L248.5,126.3L247.6,126.1L246.8,126.1L246,125.7L242,123.3L240.6,120.8L239.2,118.9L238.8,118.1L238.9,117.2L239.6,115.5L238.9,114.4L238.3,114.2L237.8,113.6L238.3,112.7L238.7,112.1L239.5,111.9L240.6,112.2L241.6,112.7L242.4,112.8L240.1,111.4L236.2,111.9L235.3,111.7L234.6,111.4L234.4,110.3L234.9,109.8L235.4,109L234.9,108.3L234.1,108.1L233,108.1L231.9,108.3L231.7,108L232.3,107L231.7,106.6L231,106.8L229.9,107L228.9,106.7L227.9,105.6L227.3,105.6L226.9,105.7L226.2,105.3L225.5,105.2L225,105.3L224.4,104.7L220.4,103.4L218.6,103.2L217,103.8L216.2,103.6L215.5,102.8L215,101.4L212.4,100.3L212.9,99.6L214.1,99.44L215.5,98.94L216,98.32L214.9,97.58L214.1,97.39L213.8,97.13L213.4,96.48L213.9,96.16L214.2,96.32L215.2,96.43L216.9,96.27L216.3,95.6L215.6,95.44L215.3,95.28L214,95.2L213.4,95.44L212,95.34L211.7,94.61L211.6,94L212,92.63L213.9,91.4L218.7,90.03L220.8,90.22L222.3,89.97L224,89.14L224.7,88.38L227.2,87.95L229.5,88.73L231.7,91.67L232.7,92.66L235.2,90.94L239,91L239.8,91.96L240.1,91.16L240.7,90.19L241.3,90.62L241.6,91.21L245.5,91.05L246.2,90.89L245.1,90.19L244.2,88.52L244.1,82.32L243,80.58L241.7,77.8L241.1,76.16L241.1,75.58L241.3,74.76L242.8,74.78L244,75L246.3,74.37L247.4,74.81L247.3,76.1L247.6,77.74L248,78.51L248.6,79.41L250.4,79.33L252.4,79.84L254.9,79.93L258.6,80.85L260.1,80.31L261.6,79.19L264.5,78.45L264.8,78.07L263.1,78.23L261.6,77.52L261.4,76.73L261.6,76.05L262.1,74.46L266.6,71.93L269.7,71.16L273,69.78L274.6,68.34L275.7,66.45L276.1,66.06L276.5,65.7L276.1,65.04L276.4,57.89L276.7,56.6L277.3,55.53L278.3,54.71L279.8,53.81L285.3,52.57L286.1,52.09L286.2,52.85L286.6,53.84L286.8,54.37L286.6,55.08L286.8,55.67L287.5,56.71L288.5,57.69L289.3,58.34L289.5,58.25L290.1,58.09L291.2,57.44L292,57.24L292.5,57.72L292.8,58L293.3,59.12L293.5,60.27L293.7,61.22L294.2,61.61L295.8,61.75L297,62.11L297.3,62.42L297.7,64.54L298,64.84L298.3,64.59L298.6,64.26L299,64.2L299.7,64.34L300.7,64.37L301.6,64.59L302.9,65.81L302.9,66.2L302.6,66.9L302.5,67.45L302.8,67.67L303.1,68.23L303,68.89L302.7,69.36L302.6,69.75L302.6,70L302.7,70.19L303,70.36L304.9,70.6L306.7,70.36L307.9,69.69L308.1,69L308.4,68.2L309,67.51L309.5,67.28L310,67.56L309.2,70.38L309.7,71.1L309.8,72.17L310,73.11L310.7,73.08L311.4,73.25L312,73.6L312.7,74.15L313.6,74.67L314.2,74.84L314.5,75.28L315,75.77L315.8,76.79L316.6,77.47L316.9,77.47L317.6,77.2L318.7,77.03L319.5,77.06L319.8,77.58L320.6,77.8L320.9,78.02L321.2,78.37L321.7,78.51L322.4,78.37L322.8,77.88L323.4,77.66L324.1,77.74L324.4,78.02L325.1,78.4L325.5,78.32L326.3,78.56L327.1,79.3L327.4,80.06L327.5,80.47L327.8,80.93L329.1,82.97L329.6,83.08L330,82.76L330.3,82.32L330.7,82.24L331.4,82.43L331.8,82.67L332.1,83.57L332.2,83.73L332.5,83.54L333.1,83.49L333.9,83.71L335,83.46L336,83.08L336.4,83.11L337.2,84.14L338.1,84.52L340,84.82L342.1,85.31L342.9,85.71L343.4,85.9L343.5,87.25L343.3,87.47L341.3,90.16L340.4,91.13L340,92.53L339.6,94.61L339.1,96.62L338.1,98.51L337.8,99.95L338.1,100.9L337.9,102.4L337.4,104.4L337.2,105.9L337.6,106.9ZM248.2,132.3L247.8,133.6L247.2,132.4L246.2,131.4L246.1,130.4L246.1,130.2L247.1,130.9ZM388.8,-28.52L388.8,-26.69L388.5,-26.16L388.2,-25.81L387.1,-25.47L386.3,-24.93L385.4,-24.02L385.2,-22.74L385.8,-21.8L386.9,-21.3L387.2,-19.49L386.3,-18.61L383.9,-17.74L383.6,-15.63L383.7,-13.96L383.7,-12.75L383.5,-11.09L381.6,-10.35L380.3,-12.88L380.3,-13.9L379.9,-15.07L379.9,-16.1L379.4,-17.71L377.6,-18.15L376.9,-18.21L375.9,-17.93L375.7,-18.02L374.5,-20.27L374.7,-22.74L374.1,-23.99L374,-24.56L374,-25.18L373.5,-25.69L372.8,-25.97L372.5,-27.36L373.3,-27.7L375,-27.55L375.6,-27.64L376.1,-27.92L377.5,-30.23L377.5,-30.74L377.6,-31.4L379.1,-31.66L379.8,-30.77L379.7,-29.31L379.8,-27.51L380.8,-27.01L381.1,-26.91L381.5,-28.27L381.8,-28.93L382.2,-29.31L382.3,-30.55L382.1,-31.31L381.6,-31.85L383.4,-33.4L385.2,-34.61L386.3,-34.67L387.4,-34.39L388.4,-33.98L388.9,-33.63L389.2,-33.05L388.5,-31.69L388.4,-30.96ZM348.2,-42L348.3,-41.91L348.9,-41.56L349.2,-42L371.2,-42L371.2,-42L371.5,-41.52L372,-40.59L371.7,-39.02L371.3,-37.87L370.2,-36.88L368.9,-36.14L368,-36.11L366.9,-37.52L366.3,-37.07L365.8,-36.33L364.8,-32.55L364.4,-29.98L364.2,-29.76L363.6,-30.14L362.7,-30.17L361.5,-29.57L362.1,-29.03L362.8,-28.08L362.5,-27.61L361.5,-27.1L360.6,-26.1L360.2,-25.31L359,-24.4L358.3,-23.24L358.7,-21.8L358.8,-20.55L359.2,-19.14L358.9,-18.05L357.5,-16.47L356.9,-15.07L358.1,-15.11L358.9,-14.79L359.3,-14.39L359.8,-13.8L359.5,-13.09L359.9,-11.27L359.9,-11.27L359.7,-11.27L359,-11.43L358.6,-11.8L357.4,-11.55L355.8,-10.93L354.9,-10.96L354.2,-11.61L351.3,-12.54L350.8,-12.63L348.9,-12.66L348.8,-14.14L348.6,-15.2L347.9,-16.78L348.9,-17.15L348.7,-20.27L348.4,-21.89L345.6,-23.55L343.4,-25.15L343.9,-30.64L344.1,-32.1L343.3,-34.99L343.4,-38.35L343.6,-42L348.2,-42ZM369.1,-25.34L369.5,-24.4L370.1,-22.39L370.9,-20.14L370.5,-19.21L370.8,-18.02L370.5,-16.75L368.9,-15.32L367,-15.26L365.1,-15.94L362.4,-17.31L362.2,-18.05L361.8,-18.46L361.1,-20.77L361.1,-23.65L362.5,-23.99L365.5,-25.34L366.1,-25.15L366.9,-24.43L367.7,-24.4L368.9,-25.4ZM376.4,-12.45L378.3,-11.34L379.5,-11.4L380.3,-10.96L380.5,-10.26L380.6,-8.689L379.7,-8.229L378.7,-8.382L377.4,-7.799L373.1,-10.35L373.2,-12.48L373.3,-13.31L375.4,-13.53ZM370,-9.949L369.6,-9.857L368.9,-11.27L368.9,-11.74L369.6,-12.66L370.1,-13.71L371.3,-15.32L372,-17.21L372.2,-17.18L371.9,-15.48L370.3,-10.81ZM388.6,-13.77L388.2,-13.5L386.6,-13.71L384.9,-12.48L384.2,-12.85L384.4,-13.65L384.6,-13.93L385.2,-14.27L385.6,-14.77L385.8,-15.54L386.1,-15.11L387.2,-14.95L387.8,-14.7L388.2,-14.33ZM389.8,-25.09L388.8,-24.34L388.6,-24.37L388.3,-25.44L388.8,-26.07L389.1,-26.6L389.3,-26.6L389.6,-26ZM367.5,-11.67L366.8,-11.49L366,-11.86L364.7,-13.34L364.6,-13.71L365.2,-13.46L366.1,-12.69L366.7,-12.54L367.7,-11.89ZM363.1,-12.35L362.1,-12.11L361.5,-12.54L360.5,-12.69L360.2,-15.45L360.3,-15.6L360.8,-15.41L362.5,-14.14L363.1,-12.75ZM368.7,-28.49L368.5,-28.14L367.9,-28.49L367.8,-29.66L368.1,-30.74L367.8,-31.69L368.1,-32.29L369,-30.86L369.3,-30.2L368.9,-29.41ZM402,89.32L401.8,89.22L401.5,89.11L401.1,88.36L400.2,87.41L398.8,86.12L397.7,86.17L397.3,85.85L397.1,85.36L396.7,84.55L396.2,83.95L395.5,83.73L394.6,83L393.4,81.42L392.3,80.31L391.3,80.33L390.6,79.76L389.9,79L389.4,78.26L388.6,76.46L388.1,75.44L387.7,74.81L387.1,74.29L387,73.88L387.6,72.92L387.8,72.42L388.1,72.06L388.2,71.68L388.2,71.4L387.7,70.44L386.9,69.75L385.8,69.06L385.1,68.17L384.8,67.37L384.7,66.92L384.3,66.34L383.9,65.45L383.9,64.93L384,64.76L384.3,64.76L384.7,65.12L385.3,65.84L385.8,66.84L386.1,66.45L386.6,65.37L387.6,64.15L388.6,63.45L389.5,63.4L390.2,63.2L390.8,62.84L391.8,62.98L392.6,63.23L392.8,63.09L393.2,62.45L393.4,61.89L395.1,61.58L395.6,60.49L395.9,60.52L396.3,60.35L396.7,59.94L397,59.77L397.3,59.99L397.7,60.1L398,59.85L398.6,58.62L398.9,58.45L400.4,58.25L402,57.66L402,89.32ZM402,147.8L400.8,145.6L399.6,143.9L399.5,143.1L399.4,142.1L398.5,138.5L399.1,138L399.1,138L399.5,138.6L402,139.2L402,147.8ZM303.4,47.35L304.3,47.75L305,47.84L305.3,47.66L305.1,46.67L305.7,46.16L306.3,45.9L306.6,46.33L307.2,46.75L307.6,46.78L308.9,45.64L309.2,45.87L309.5,46.27L309.5,46.58L309.6,46.92L309.8,47.07L310.8,47.01L311.3,46.38L311.7,45.98L312,46.27L312.1,47.01L312.4,48.01L313.6,49.11L314.6,49.43L315.8,49.2L316.3,49L316.6,49.17L316.9,49.77L317.6,50.42L319.1,50.9L319.5,51.16L319.8,51.61L319.8,52.26L319.1,53.84L318.9,54.32L319.1,54.46L318.9,54.77L318,55.81L317.9,56.2L318.2,56.79L318.5,57.3L319,57.55L319.5,57.64L320.5,57.66L321.5,57.69L321.7,58L322.8,58.84L323.2,59.52L324,60.19L323.3,61L323.4,61.39L323.7,61.75L324.6,61.97L325.1,62.5L325.1,63.34L325.3,64.68L323.4,66.04L322.9,67.51L322.8,67.81L322.7,67.76L322.5,67.28L322.2,67.28L321.4,67.06L320.2,68.42L319.7,69.53L319.4,70.36L319,71.02L318.9,71.71L318.9,72.01L318.8,72.39L318.8,72.78L319.4,73.55L319.6,73.99L320.4,75.36L320.1,75.88L319.9,76.4L319.7,76.81L319.5,77.06L318.7,77.03L317.6,77.2L316.9,77.47L316.6,77.47L315.8,76.79L315,75.77L314.5,75.28L314.2,74.84L313.6,74.67L312.7,74.15L312,73.6L311.4,73.25L310.7,73.08L310,73.11L309.8,72.17L309.7,71.1L309.2,70.38L310,67.56L309.5,67.28L309,67.51L308.4,68.2L308.1,69L307.9,69.69L306.7,70.36L304.9,70.6L303,70.36L302.7,70.19L302.6,70L302.6,69.75L302.7,69.36L303,68.89L303.1,68.23L302.8,67.67L302.5,67.45L302.6,66.9L302.9,66.2L302.9,65.81L301.6,64.59L300.7,64.37L299.7,64.34L299,64.2L298.6,64.26L298.3,64.59L298,64.84L297.7,64.54L297.3,62.42L297,62.11L295.8,61.75L294.2,61.61L293.7,61.22L293.5,60.27L293.3,59.12L292.8,58L292.5,57.72L292,57.24L291.2,57.44L290.1,58.09L289.5,58.25L289.3,58.34L288.5,57.69L287.5,56.71L286.8,55.67L286.6,55.08L286.8,54.37L286.6,53.84L286.2,52.85L286.1,52.09L290.5,49.34L293.2,47.92L294.5,47.49L294.8,48.91L295.1,49.37L295.4,49.65L295.8,49.71L296.2,49.37L296.9,49L297.9,49.17L298.7,49.51L298.9,49.85L299.4,50.19L300.1,50.28L301.6,49.62L302.9,48.66L303.3,47.98ZM402,123.4L401.7,123.3L400.8,123.3L400.4,123.2L398.2,122.7L396.8,122.7L394.9,122.4L391.2,121.6L390.1,121.3L389.1,121.2L387.9,120.9L387,120.5L386.3,119.7L385.7,118.5L384.6,117L384.3,116.3L384.7,115.6L385,115.2L385,114.9L384.7,114.8L382.6,115.5L380.7,116.3L379.9,116.3L379.1,116.1L378.2,116.1L377.2,116.3L375.2,116.4L374.1,117L373.4,118.2L373,119.1L372.7,119.4L372,119.5L371,119.4L370.3,119.2L369.6,118.4L368.4,118.2L367.4,118.2L367.1,118.1L367.2,117.6L366.8,116.6L366.1,116.3L364.3,118.1L363.9,118.3L362.5,117.8L361.3,117L361.1,116.4L360.9,115.9L359.9,115.5L358.6,115.2L358.2,115.2L358.4,114.9L358.5,114.5L358.4,114.1L358.1,113.7L358,113.3L357.9,112.9L357.8,112.5L357.8,112.2L357.7,112L357.7,112L358.5,110.2L358.7,109L357.9,108.3L357.6,108.2L357.9,108L358.9,108.1L359.6,107.7L360,107.4L360.9,107.7L362.2,108.5L362.9,108.9L363.1,109.3L363.3,109.6L363.2,110.1L363.5,110.3L364.1,110.4L364.6,110.6L364.4,111.3L364.4,111.9L365,111.8L365.7,111.3L366.3,110.6L366.6,109.8L366.9,107.9L367,107.7L367.4,107.9L369.2,107.8L370.1,108.2L371.5,108.2L371.4,108.5L371.7,109L372.3,109.6L372.6,110.1L373.2,110.1L374.1,109.9L374.7,109.7L374.9,109.8L375.8,109.7L376.6,109.1L376.8,108.7L377.6,108.4L378.6,107.8L380.1,107.3L384.9,106.7L385,106.3L385,105.3L385.1,105.2L385.7,105.5L386.7,105.7L387.4,106L387.9,106.5L388.4,106.5L389.1,106.2L390,106L390.9,106.4L391.1,106.9L391,107.2L391,107.6L391.3,107.9L392,108.4L392.9,108.9L393.4,108.8L393.5,108.4L393.7,107.3L393.8,106.2L393.5,105.5L393.1,105.3L392.5,105.3L392.1,105.2L392.3,104.8L392.7,103.8L392.7,102.6L391.7,101.1L390.7,99.76L390.7,99.28L391.3,98.46L392.1,97.79L394,96.7L394.6,96.48L395.4,96.3L396.5,95.84L397,95.36L397.4,94.88L397.9,92.23L398,92.12L398.2,91.96L400.1,92.87L400.3,92.74L400.6,92.58L401.2,91.88L401.3,91.37L401.3,90.35L401.4,89.41L401.5,89.11L401.8,89.22L402,89.32L402,123.4ZM277.7,180.9L277.4,181L276.5,181.5L275.9,181.7L275.4,181.8L275.1,181.8L274.8,181.4L274.9,180.9L274.8,180.5L274.7,180.2L274.8,179.6L275.2,179.2L275.6,178.9L276.3,179L277.7,179.5L278,179.9L278,180.1L277.8,180.6ZM348,254.9L348.2,255.6L348.2,256.3L347.2,256.8L346.6,257.2L345.8,258.8L344.4,259.9L344.2,260.3L344.2,260.6L345.2,261.1L345.5,261.6L345.6,262.2L345.2,264.5L344.9,266.2L344.6,268.5L344.6,269.4L344.9,270.4L345.3,271.2L345.4,272.1L345.3,274.4L345.8,275.7L346.1,276.9L345.2,278.4L344.9,279.7L344.6,281.6L344.6,282.7L344,283.8L343.3,284.8L342.5,285.5L341.6,286L340.4,286.8L339.5,288.7L337.5,290.3L337.1,290.8L336.9,292.1L337,293.9L337.3,295.3L338.2,297.4L339.1,299.7L339.3,300.8L339.6,301.3L340.8,302L342.8,303L343.2,303.4L344.2,305L345.2,307.8L345.5,309.6L347.3,311.1L349,312.5L350.7,313.7L352.5,315L352.7,315.4L353.3,318.1L353.9,320.8L354.6,323.8L355.2,326.7L356,330.2L356.4,332.2L357,334.6L357.6,337.4L356.6,338L355.5,338.7L356.3,340.2L357.9,342.5L358.8,344.4L359.2,345.2L359.9,347.5L360.5,349.8L360.7,350.5L360.9,352.2L360.6,357L361.1,363L361.7,366L360.7,368.6L359.9,371.2L360,372.5L360.4,374.5L360.8,376L361.4,376.8L361.3,379.2L361.1,380.1L359.3,381.4L357.3,382.6L356.8,383.6L356.6,384.8L356.9,385.7L358.2,387.7L360.3,390.7L362.5,394L362.7,394.9L362.8,397.2L363.7,400.1L364.8,401.4L365.1,402.4L365.9,403.1L366.6,403.6L367,403.6L369.5,402.8L373.8,404.1L377.9,405.5L378.2,405.7L379.1,407.4L380.6,410.2L381.7,412.4L382.6,414.4L377.3,417.8L372,421.2L366.7,424.6L361.4,428L356.2,431.3L350.9,434.7L345.6,438L340.3,441.4L336.8,443.6L334.5,445.6L331.7,448L329.1,450.4L327,452.3L324.3,454.8L322.9,456.1L319.9,458.8L319,459.3L315,460.1L311.4,460.8L308,461.5L305.7,462L303.5,462.4L300.2,463.1L297.9,463.5L295.4,464L295,464.1L294.6,464.1L294.2,464.1L293.5,463.8L292.7,463.2L292.1,462.9L292,462.4L292.3,461.7L292.7,461.1L292.9,460.6L293.2,460.3L293.5,459.9L293.5,459.5L293.3,458.9L293,457.9L293,456.2L293,455.6L293,455.4L292.3,454.8L290.9,454.1L289.6,453.6L288.9,453.5L287.5,453.2L285.6,452.7L284.9,452.4L283.6,450.9L282.9,450.4L280,450.2L279,449.9L278.2,449.5L277.5,449L277.1,448.1L277,447.4L276.7,447.1L273.4,445.4L272.6,444.8L272.2,444.2L272.2,443.4L272.2,442.4L272.1,441.5L272,441.1L270.5,440.1L267.1,437.7L263.8,435.3L260.4,433L257.1,430.6L253.7,428.3L250.4,425.9L247,423.5L243.7,421.1L240.3,418.8L237,416.4L233.6,414L230.3,411.6L226.9,409.2L223.6,406.8L220.2,404.4L216.9,402L214.1,400L210.9,397.8L208.6,396.2L206.3,394.7L203.8,393L202.2,391.9L200.3,390.7L198.4,389.4L196.5,388.2L194.5,386.9L192.6,385.6L190.7,384.4L188.8,383.1L186.8,381.9L184.9,380.6L183,379.3L181.1,378.1L179.1,376.8L177.2,375.5L175.3,374.3L173.4,373L171.4,371.7L171.4,369.4L171.4,367.4L171.4,364.6L171.4,362.2L171.4,359.7L171.4,358L171.4,356.3L171.5,355.5L171.7,355.1L172.7,354.5L174.3,353.2L175,352.7L175.7,352.1L178.5,350.3L179,349.8L181.7,347.7L182.3,347.4L183.7,347.2L184.3,346.9L185.1,346L186.3,345.1L187,344.6L187.2,344.6L187.7,344.5L190.1,344.8L191.2,345L192.4,345.2L192.8,345.1L193.1,344.7L193.5,344.1L193.7,343.3L193.7,342.6L193.8,342.3L194,342.2L194.5,342.3L195.2,342.4L196.7,342.3L197.2,342.2L198.9,342.1L201.2,341.6L203,341.1L204.5,340.6L206.1,339.4L207.3,338.1L208.5,336.2L209.4,334.6L211.4,333.5L213,332.9L213.9,332.7L216,331.8L217.8,330.5L219.5,329.2L220.8,329.1L222.4,328.9L222.7,328.6L223.2,328.2L223.2,327.4L222.7,326.9L222.1,326.6L221.7,326.3L221.3,326.2L221.1,325.8L221.2,325.2L221.2,324.5L221.5,323.9L221.4,323L221,322.1L220.9,321.4L220.9,320.8L221.1,320.3L221.7,320L222.4,319.8L223.4,320L225.1,319.8L229.4,318.2L229.7,317.7L230,316.7L230.3,315.7L230.7,315.4L231,315.3L232.4,315.1L234.5,314.7L235.2,314.6L237.4,314.8L239.1,314.8L241.7,315L243.5,315L245.1,315.1L247.2,315.1L247.7,314.9L247.7,314.2L247.3,312.9L247.6,312.1L248.4,311.4L249.4,310.6L248.9,309.5L248.1,308.9L247,308L246.4,307.7L245.4,306.7L244.8,305.6L244.4,303.2L243.6,301.9L243.1,300.2L243.5,297.2L242.8,295.3L242.7,294.5L242.7,293.6L242.9,292L242.8,289.7L241.9,287.3L242.3,286.5L242.5,286.1L242.4,285.7L241.7,284.9L241.3,284.3L241.5,283.7L241.9,282.9L241.9,282.5L240.6,281.5L238.4,279.8L237.8,279.1L237.5,278.1L239.6,278.4L240.7,278.2L243.1,277.1L245.1,275.6L246.6,274.9L247.9,273.2L249.1,272.2L250.9,271L255.9,268.6L256.7,268.6L258.3,269.1L259.7,269L260.7,268.1L261.8,266.1L263.4,264.8L265.5,263.5L268.3,262.3L270.2,261.2L273.1,260.3L280.4,259.7L284.2,259.1L286.8,259.2L289.3,257.5L290.6,256.9L296.2,256.8L298.9,255.5L308.9,255.5L310.1,255.9L311.3,256.6L313.4,258.3L314.4,258.6L315.7,258.3L318.8,256.7L322.3,255.9L324.1,254.9L325,253.6L326.6,253L327.5,254.1L331.1,255.2L333.3,254.9L334.3,254.5L333.9,253L336.3,253.4L338.1,254.1L339.9,255.7L341.2,256L343.4,255.3Z" fill="#D8E2E7" stroke="#3F464B" stroke-width="0.85" vector-effect="non-scaling-stroke"/><path d="M84.42,305.7L85.82,306.3L87.11,306L88.69,306.9L89.54,307.1L88.8,307.6L88.03,308.4L86.19,308.2L84.64,307.5L84.09,306.9L83.91,306.4ZM170.5,188.6L171.5,187.7L172.4,187.1L172.9,186.9L175.1,186.2L175.7,185.9L176.2,186L176.4,186.3L176.7,186.9L177,187.3L177.1,187.6L176.2,188.8L176.1,189.3L176.6,190.1L176.7,190.3L176.9,190.4L177.5,190.4L178.5,189.8L179.2,189.4L179.5,189.6L181.6,189.3L182.1,189.5L182.4,189.8L183.4,190.1L184.5,190.1L185.9,189.7L186.5,189.3L186.6,188.8L186.7,188.4L186.8,188.2L187.1,188.1L187.7,188.3L188.4,188.5L190,188.6L190.3,188.3L190.9,188.4L191.7,188.7L192.6,188.6L193,189L193.2,189.5L193.2,190.7L193.2,191.9L193.3,192.3L193.9,192.4L194.9,192.4L195.7,192.7L196.4,193.3L196.6,193.8L196.7,194.2L196.4,194.5L195.9,195.3L194.8,196.4L193.1,197.3L191.8,198.6L190.9,200L189.9,200.6L189.5,201L189.4,201.4L190.1,203.1L190.3,204.5L190.5,206.1L190.4,206.6L190.3,208.5L190.2,209L190.2,209.4L190.5,209.9L190.6,210.3L190.1,210.9L189.2,211.6L188.5,212.1L188.3,212.7L188.4,213L189.5,214.2L189.7,214.6L189.6,215.8L188.9,217.6L188.3,218.7L188.2,218.9L187.4,219.2L184,219.2L183.2,219.4L183.3,219.7L184.1,221.1L184.9,221.9L185.2,222L185.5,223.7L186.9,226.4L188.2,226.8L188.7,227.4L188.6,228.4L188.2,229.4L187.4,230.5L186.4,231.2L185.8,231.9L185.7,232.8L185.5,233.8L185.2,234.7L185.2,235.3L187.6,238.9L188.9,238.7L189.1,238.8L188.8,239.7L188.4,240.7L187.9,240.9L186.8,241.2L185.7,242.5L184.8,244L184.1,244.8L183.5,246.6L183.6,247.4L183.9,248.6L184.5,251.8L183.6,252L180.1,254.1L179,254.1L177,253.2L173.5,252.8L172.3,252.6L170.9,253.2L169.8,253.2L168.8,253.9L168.2,253.7L169,252L170.1,248.6L170.1,246.5L170.3,244.7L170,242.9L169.4,241.8L170.2,238.9L170.1,237.3L169.4,235.4L171.6,235.7L170.9,235L170.2,234.5L169.6,234.6L169.1,234.6L167.2,235.3L166.3,235.6L166,235.4L166.1,234.2L165.6,232.7L166.4,232.3L167.3,232.2L168,231.5L168.4,230.8L168.2,229.5L168.8,228.2L170.3,227.1L169.5,227.3L168.7,228L167.3,230.3L166.8,231.6L165.6,231.9L164.5,232.1L164,232L163.4,231.7L163.3,230.8L163.4,230.1L163.8,228.7L163.9,226.7L164.6,224.9L164.5,224.4L164.4,223.7L164.9,223L165.6,222.6L166.7,221L168.1,217.3L169.9,213.4L169.7,212.9L169.4,212.5L169.5,211.5L170.5,206.8L170.9,206.2L171.4,204.8L171.5,202.6L171.7,201.1L171.7,200.3L171.5,199.4L170.9,197.6L170.2,193.8L170.1,192.6L170.7,192L169.8,191.9L169.4,191L169.4,190.1ZM4.306,254.6L4.232,254.9L3.68,254.8L2.944,254.9L2.539,254.2L2.907,253.9L3.717,253.8L4.122,254.1ZM-16.64,232.8L-16.86,233L-19,232.6L-19.59,232.1L-19.85,231.3L-19.48,231L-18.56,230.8L-17.2,230.9L-16.31,231.6L-16.31,232.4ZM-23.86,234L-24.34,234.2L-27.06,233.2L-28.02,232.7L-29.27,231.5L-25.74,232.9ZM-32.66,234.4L-33.73,234.4L-34.72,233.4L-33.25,232.9L-32.81,233.2L-32.51,233.6L-32.29,234.1ZM-27.61,235.3L-26.77,235.9L-28.06,236L-28.46,236.2L-29.53,235.9L-30.75,235.9L-31.55,235.2L-31.74,234.5L-31.33,234L-30.23,234ZM-2.064,243.3L-1.438,243.4L1.839,243.2L2.723,243.3L2.612,244.3L1.986,244.7L0.072,244.9L-2.947,244.3L-3.941,243.5L-4.089,242.9L-4.089,242.6L-3.463,242.4Z" fill="#8B341D" stroke="#2C160F" stroke-width="1.1" vector-effect="non-scaling-stroke"/></svg>