<svg xmlns="http://www.w3.org/2000/svg" viewBox="0 0 360 440" width="360" height="440" role="img" aria-label="Regional map with Paraguay highlighted"><rect width="100%" height="100%" fill="#7FA6D6"/><path d="M125.1,-42L125.1,-41.94L126.1,-39.97L126.4,-38.73L126.2,-37.81L126,-37.3L126,-37.09L126.2,-36.88L127.2,-36.6L129.3,-36.43L130.5,-36.43L132.4,-36.22L132.5,-35.53L132.3,-34.39L132,-33.74L131.6,-33.55L130.6,-33.4L129.5,-32.7L128,-32.01L127.1,-31.93L126.7,-31.8L126.4,-31.58L126.1,-31.33L125.8,-30.04L125.4,-28.56L124.5,-27.71L123.5,-26.99L122.6,-26.91L121.8,-26.96L121.4,-26.76L120.9,-26.17L120.1,-25.43L119.4,-25.05L118.6,-25.08L117.7,-24.71L116.6,-24.13L115.8,-23.64L115.2,-22.81L114.3,-21.94L113.4,-21.34L112.9,-20.58L112.3,-19.63L111.5,-19.59L111.4,-20.16L111.8,-21.08L111.4,-21.89L110.6,-22.32L110.3,-22.44L109.9,-22.39L109,-22L107.9,-21.28L107.2,-20.77L106.6,-20.53L105.3,-20.31L104.3,-20.21L103.9,-20.36L103.1,-20.88L101.2,-22.52L98.76,-24.75L98.58,-25.4L98.69,-26.05L98.24,-27.02L97.96,-28.05L97.75,-28.4L97.68,-29.15L97.13,-30.54L96.71,-31.66L96.29,-32.25L96.47,-32.73L96.29,-33.22L95.98,-33.62L95.5,-34.89L95.67,-35.45L95.53,-36L95.11,-36.38L94.56,-36.78L93.8,-37.64L92.86,-38.44L92.41,-38.78L92.09,-38.9L91.82,-39.67L91.61,-39.9L91.12,-39.97L90.19,-40.29L89.28,-39.9L89.25,-40.49L89.53,-40.85L90.77,-42L125.1,-42ZM228.9,332.9L228.5,333.3L227.9,334.1L227.3,336.1L225.3,338.8L224.9,340.3L222.8,341.9L221.2,343.7L220.2,343.6L219.3,344.4L214.2,346.8L212.3,346.3L210.9,346.3L209.6,345.3L206.7,344.9L204.9,345.3L202.4,346.5L201.7,346.5L201.2,346.4L199.8,345.9L199.1,344.9L195.4,343.7L192.3,341.1L188.7,341.1L186,341.4L185.5,341.1L185.3,340.4L184.7,339.4L182.3,337.1L180.4,334.8L180.1,332.6L180.3,330.2L180.9,327.3L180.8,326.4L181.5,325.9L182.2,325.8L182.8,325L183.4,323.9L183.5,323.1L183.1,321.5L182.7,319.3L182.4,318.2L183.1,316.5L183.1,315.7L182.7,315L182.6,314.2L182.8,313.4L182.8,312.7L182.5,312L182.7,311.4L183.4,311L183.9,310.3L184.3,309.3L184.4,308.6L184.4,308.1L184.2,307.6L183.8,307.1L184,306.2L184.8,304.9L185.3,303.8L185.6,302.7L185.6,301.9L185.3,301.3L185.4,300.8L185.9,300.6L186.1,300L186.1,298.3L185.5,297L185.9,295.9L187.1,294.7L187.7,293.7L187.7,292.9L188.1,292.5L188.6,293.3L190.3,293.5L191.9,293.5L192.1,293.3L192.8,292L193.6,291.6L194.6,291.5L195.6,291.6L196.6,292.5L199.7,295.4L201.9,297.4L202.6,298.4L203.2,299.1L203.6,299.7L203.4,301.5L203.4,302.2L203.5,302.4L204,302.5L204.8,302.4L205.4,302L205.9,301.4L206.4,301L206.8,300.7L206.9,300.3L207.2,300L207.4,299.9L207.8,300.2L208.9,301.2L209.7,302.1L209.9,302.6L210.2,303.2L210.5,303.6L210.8,304.1L211.6,304.7L212.4,305.1L212.9,304.7L214.2,306L217.2,307L217.7,307.7L218.3,308.6L219.3,310L220.7,311.2L221.9,311.8L223,312L223.6,312.3L224,312.8L224.7,313.3L225.2,313.5L225.3,314L225.7,315L226.2,316.3L226.7,317.5L227.8,318.6L229,319.5L230.3,320L231,320.6L231.3,321.3L230.4,322.2L229.5,323.5L228.7,324.4L227.8,325.1L227.6,325.5L227.4,326.3L227.4,330.1L227.3,331.5L227.4,331.9L227.5,332.1L228,332.5L228.7,332.8ZM221.2,-42L221.2,-41.83L221,-40.69L221,-40.13L220.4,-39.13L219,-36.7L218.2,-36.25L217.7,-35.55L217.4,-35.55L217,-35.48L216.9,-35.4L216.5,-35.4L216.1,-35.71L216.1,-36.08L215.9,-36.5L215.5,-36.63L214.6,-36.48L214.4,-36.58L213.9,-37.04L213.5,-37.54L213.4,-38.01L213.2,-37.96L212.5,-37.54L212.1,-37.44L211.8,-37.55L211.4,-37.52L210.4,-37.07L209.9,-36.95L209.5,-36.5L206.9,-36.28L206.2,-36.16L204.6,-36.97L204.2,-37.22L204,-37.27L203.8,-37.22L203.6,-37.04L203.4,-36.03L203.2,-35.76L202.7,-35.53L202.3,-35.13L202.3,-34.74L202.9,-34.52L203.4,-33.77L204,-33.17L204.4,-32.62L204.3,-32.01L204.3,-31.16L203.9,-30.86L203.4,-30.72L201.4,-31.14L199.9,-31.51L199.2,-31.59L198.9,-31.68L198.5,-32L198.2,-32.3L197.5,-32.4L196.8,-32.6L196.3,-33.35L195.7,-34.42L195.5,-34.91L195,-35.38L194.6,-36.05L194.5,-36.65L194.1,-37.19L194,-37.37L193.7,-38.13L193.7,-38.39L193.5,-38.43L193.4,-38.66L193,-39.45L192.9,-39.65L192.8,-39.72L192.4,-40.29L192.1,-40.47L191.9,-40.76L192,-41.54L191.8,-41.93L191.8,-42L221.2,-42ZM68.99,27.89L68.92,28.53L68.6,28.78L68.12,28.83L67.39,28.4L66.87,28.5L66.35,28.53L65.59,28.01L65.34,27.49L64.75,27.07L63.54,27.24L62.53,27.26L61.7,27.16L60.94,27.29L60.31,27.84L59.83,28.48L59.27,29L57.6,29.37L56.74,29.37L55.94,29.72L54.8,29.86L54,30.16L52.57,30.33L50.87,30.5L49.9,30.96L49.56,31.17L48.58,31.82L46.88,32.86L45.98,33.22L44.84,34.34L43.52,35.38L42.65,35.94L41.37,36.2L40.81,36.47L40.64,36.81L40.74,37.21L40.53,38.22L40.12,40.09L40.01,40.99L39.95,41.43L39.08,42.93L38.17,44.32L37.72,45.25L37.45,45.92L37.76,46.49L38.11,47.5L38.42,48.31L38.52,48.85L38.42,49.49L38.04,50.06L37.41,50.43L36.61,50.55L34.91,51.56L33.04,53.06L32.41,53.75L32.24,54.41L31.96,55.45L32.1,55.98L32.41,56.35L32.76,57.23L32.8,57.68L32.52,57.93L31.96,57.98L31.51,58.07L31.13,58.3L30.78,58.24L30.44,58.35L30.44,58.73L30.54,59.15L30.51,59.59L30.26,59.87L30.09,60.08L30.26,60.36L30.61,60.62L31.1,61.04L31.82,61.85L32.35,62L32.8,62.27L32.83,62.73L32.69,63.18L32.28,63.39L32.24,63.77L32.8,64.25L33.14,64.6L33.53,65.11L33.84,65.8L33.84,66.26L34.22,66.83L34.43,67.31L34.43,67.76L35.02,68.22L35.54,68.56L35.88,68.86L36.27,69.07L36.34,69.4L36.3,69.91L36.82,70.76L37.79,71.4L38.56,72.33L39.04,72.99L39.98,74.08L40.01,75.31L38.87,76.74L37.72,78.16L39.6,78.11L41.54,78.14L43.55,78.55L44.91,78.94L45.7,79.13L46.29,79.57L46.57,80.28L46.81,80.86L46.85,81.71L47.72,82.39L47.65,83.03L47.61,83.95L47.99,83.97L50.46,83.97L53.16,83.97L55.73,83.8L56.7,83.58L57.88,82.47L58.61,82.13L59.31,81.62L60.14,80.67L60.8,80.25L61.35,79.72L62.15,79.2L62.5,78.81L62.77,78.67L63.44,78.42L63.16,78.92L62.95,79.45L62.88,80.2L63.19,81.03L62.91,81.64L62.5,82.18L62.5,83.63L62.5,85.68L62.5,87.45L62.46,89.65L62.46,92.15L62.46,93.82L62.91,93.48L63.5,93.19L64.3,93.96L64.86,94.3L65.34,94.36L65.86,94.35L66.52,94.18L68.02,93.55L69.02,93.02L70.2,93.05L71.8,93.26L72.7,93.24L73.91,95.37L74.78,96.92L75.79,98.72L76.62,100.2L77.83,102.3L78.91,104.2L80.02,106.2L81.3,108.5L80.92,109.1L80.58,109.5L80.61,110.3L80.09,110.7L79.57,111L78.91,111.7L78.49,112.2L78.46,113L78.56,117.2L78.46,118.3L78.11,119.3L77.77,119.8L77.56,120.2L78.08,121.1L78.53,123.1L78.88,123.5L79.33,124.3L79.53,125L79.43,125.3L78.56,125.7L78.25,126L78.15,127.1L77.77,127.5L77.14,128L76.72,128.6L76.38,129L76.03,129.3L75.86,130L75.61,130.8L74.81,131.2L74.68,132.2L74.68,132.9L75.09,133.7L76.48,135.3L76.62,135.6L75.82,136.6L75.37,137.3L74.26,139.3L74.22,139.7L74.5,140.6L76.2,144.8L76.48,145.1L77,145.5L77.83,145.5L79.12,145.9L79.74,146.4L79.81,146.7L79.67,146.8L78.98,147.2L78.22,147.6L77.97,148.1L77.9,148.7L78.08,149.7L77.77,150.1L77,150.5L76.38,151L75.72,151.9L74.61,153.4L74.22,153.7L74.05,154.2L73.43,154.4L72.25,155.4L72.07,155.8L72.25,156.3L72.84,156.7L73.25,157.3L73.36,158L73.36,158.4L72.63,159.1L71.69,159.9L70.51,160.1L70.06,160.4L70.17,161.3L70.55,162.4L70.55,163.3L70.2,164.4L69.37,165.5L68.08,166.3L66.87,166.7L65.93,166.7L65,166.8L64.61,167L63.92,166.3L60.76,164L59.58,162.8L58.47,162.2L55.77,160.2L55.49,159.6L55.18,157.6L54.8,157L53.89,156.3L51.53,155.4L50.63,154.9L49.69,154L48.31,153.4L46.78,152.1L45.88,151.1L44.87,150.4L41.71,149.5L40.15,148.5L37.2,147.2L35.88,146.3L32.73,145.3L31.79,144.8L28.67,142.4L26.52,141.6L24.75,140.3L19.44,137.4L18.61,136.5L17.81,135.1L16.63,134.2L15.31,132.3L13.33,131.1L11.46,129.6L10.76,128.3L9.515,126.5L9.133,125.6L8.023,124.7L7.954,122.8L7.19,122L7.745,121.6L8.335,121.4L9.064,118.5L8.648,117.1L6.705,114.5L5.976,113.3L5.455,111.7L4.692,110.7L3.512,108.7L2.784,107L1.222,105.7L0.806,105.2L0.563,104.6L-0.304,104.2L-0.339,102.8L-0.929,100.2L-1.796,98.94L-4.919,96.55L-4.988,95.61L-5.231,93.92L-5.925,92.12L-9.36,86.47L-10.26,84.78L-11.13,82.05L-11.89,80.5L-12.76,77.75L-14.04,75.67L-14.88,73.86L-15.74,71.6L-15.81,70.4L-17.38,68.34L-18.21,66.44L-19.66,64.86L-21.12,63.64L-21.75,62.8L-23.76,58.74L-24.04,57.55L-25.43,55.32L-26.81,53.72L-27.68,52.44L-28.79,51.27L-35.56,47.7L-37.95,46.22L-38.75,45.52L-39.1,44.41L-38.96,43.77L-38.26,43.16L-37.29,43.62L-36.7,43.43L-36.25,42.64L-36.22,41.43L-36.81,39.88L-38.99,36.91L-38.82,36.27L-38.4,35.57L-39.23,34.12L-40.17,32.98L-40.62,32.09L-40.1,28.73L-39.62,27.88L-36.32,24.47L-35.42,23.03L-34.03,22.13L-32.57,20.75L-30.87,19.71L-30.59,19.89L-30.35,20.06L-30.35,20.41L-30.28,20.72L-30.11,21L-30.07,21.54L-29.87,21.89L-29.83,22.28L-29.83,22.83L-29.94,23.1L-29.83,23.57L-29.45,24.44L-29.59,24.71L-29.97,24.89L-30.32,25.13L-30.66,25.66L-31.18,25.65L-31.95,25.41L-32.47,25.71L-32.64,26.3L-32.5,26.77L-32.43,27.22L-32.12,27.61L-31.15,27.64L-32.02,28.87L-32.43,29.42L-32.33,29.77L-31.81,30.07L-31.43,30.11L-30.56,29.66L-29.97,29L-29.62,28.63L-29.07,28.48L-28.34,28.78L-27.37,29.39L-26.22,29.92L-25.77,30.23L-24.94,30.14L-24.25,30.02L-23.66,30.46L-23.07,30.83L-22.93,32.11L-22.48,33.03L-21.95,33.73L-21.3,34.59L-20.67,34.88L-19.91,34.88L-18.83,35.2L-18.42,34.99L-18.04,34.41L-17.86,34.07L-17.31,33.92L-17.27,33.53L-17.38,33.06L-17.2,32.53L-16.75,32.06L-15.61,31.35L-15.09,31.05L-14.95,30.63L-14.74,30.04L-14.84,29.72L-15.05,29.34L-15.02,28.77L-14.7,28.01L-14.29,27.14L-13.91,26.02L-13.77,25.5L-13.35,25.16L-13.21,24.67L-13,24.1L-12.52,23.47L-12.52,22.78L-12.31,22.48L-12.31,21.71L-11.79,20.13L-11.79,19.8L-11.58,19.71L-11.2,19.81L-10.89,20.18L-10.78,20.53L-10.64,20.68L-10.33,20.65L-9.985,20.45L-10.02,20.13L-10.26,19.83L-10.33,19.64L-10.23,19.34L-9.707,18.7L-9.117,17.97L-7.868,16.43L-7.105,15.79L-5.162,15.12L-3.705,14.62L-2.282,14.13L-0.374,13.43L2.333,12.46L4.276,11.75L6.011,10.48L7.364,9.508L8.509,8.671L9.966,7.6L11.91,5.289L13.3,3.699L14.27,2.527L14.96,1.791L15.52,-0.268L16.14,-2.644L16.42,-3.682L16.52,-4.05L16.8,-3.899L17.11,-3.648L17.46,-3.632L17.84,-3.648L18.05,-3.782L17.74,-6.142L17.77,-6.66L17.95,-7.28L17.91,-7.614L17.32,-8.083L16.35,-9.02L15.97,-9.856L15.73,-10.58L15.07,-11.03L14.37,-11.45L14.41,-11.78L14.82,-11.78L15.87,-11.45L16.63,-11.56L17.18,-11.6L17.7,-11.93L18.29,-12.57L18.68,-12.57L19.13,-12.48L19.92,-11.83L20.41,-11.46L21,-11.14L21.52,-11.04L22.04,-11.01L22.35,-11.03L22.56,-10.61L22.8,-10.09L23.43,-9.739L24.16,-9.388L24.75,-8.819L25.13,-8.434L25.61,-7.966L26.07,-7.363L26.48,-6.292L26.69,-5.573L26.93,-5.171L26.86,-4.77L27.35,-4.017L27.73,-3.615L28.36,-3.347L29.57,-3.046L30.23,-2.377L30.78,-2.109L31.41,-1.423L31.96,-1.222L32.66,-1.255L33.32,-0.921L33.84,-0.268L34.19,0.552L34.7,1.004L34.98,1.858L34.67,2.828L34.95,3.364L35.5,3.783L36.37,4.235L37.17,4.117L37.59,4.268L37.83,4.687L38,5.172L38.35,6.344L38.52,7.097L38.17,7.817L38.07,8.32L38.24,9.006L39.08,9.324L39.84,9.592L40.29,10.11L40.81,10.26L41.54,10.23L42.48,10.1L43,9.793L43.34,9.709L43.73,9.843L44.56,10.13L45.56,10.45L46.47,10.26L47.27,10.18L48.06,9.994L48.86,9.441L49.52,9.475L50.01,9.107L50.67,8.52L51.26,7.918L51.74,7.784L52.54,8.068L53.62,8.487L54.24,9.006L54.69,9.157L55.18,9.542L56.11,9.542L57.12,9.341L57.92,8.688L58.75,8.487L59.31,8.32L59.83,8.42L61.84,9.609L62.39,10.23L63.09,10.35L63.68,10.68L64.61,11.05L65.14,11.42L65.79,11.65L66.28,12.17L67.04,12.49L67.74,12.67L68.02,13.09L68.02,13.36L67.94,13.56L67.22,14.65L65.86,16.81L64.61,18.76L62.67,21.81L61.56,23.52L61.84,23.58L63.54,24.34L63.95,24.36L64.58,24.17L65,23.87L65.38,23.84L65.76,24.12L66.35,24.49L66.73,25.58L67.04,26.1L67.74,26.52L68.47,27.19ZM191.8,-42L191.8,-41.93L192,-41.54L191.9,-40.76L192.1,-40.47L192.4,-40.29L192.8,-39.72L192.9,-39.65L193,-39.45L193.4,-38.66L193.5,-38.43L193.7,-38.39L193.7,-38.13L194,-37.37L194.1,-37.19L194.5,-36.65L194.6,-36.05L195,-35.38L195.5,-34.91L195.7,-34.42L196.3,-33.35L196.8,-32.6L197.5,-32.4L198.2,-32.3L198.5,-32L198.9,-31.68L198.5,-31.54L198.2,-31.34L197.6,-31.49L196.9,-31.41L196.2,-31.21L195.5,-31.09L194.2,-31.44L193.9,-31.48L193.6,-31.63L193.1,-32.3L192.8,-32.38L192.1,-32.06L191.3,-31.84L190.9,-31.9L190.4,-31.66L190,-31.36L189.1,-30.05L188.7,-29.6L188.2,-29.39L187.3,-29.4L186.3,-29.35L185.5,-29.03L184.8,-28.87L184.5,-28.85L184.4,-28.15L184.2,-27.81L184,-27.61L183.4,-27.56L182.9,-27.58L182.6,-27.88L182.1,-28.03L181.6,-28.15L181.3,-28.31L181,-28.26L180.8,-27.96L180.6,-27.71L180.5,-27.24L179.7,-27.09L179.4,-26.82L179.6,-25.95L179.5,-25.62L179.4,-25.35L178.5,-25.28L177.7,-25.32L177.3,-24.98L176.7,-24.61L176.4,-24.55L176,-24.56L175.5,-25L175,-25.54L173.7,-25.92L172.5,-26.22L171.6,-27.07L171.4,-27.49L171,-27.68L170.1,-28.7L169.5,-29.35L168.9,-29.52L168.3,-29.8L168.3,-30.27L168.2,-30.72L167.9,-30.91L167.5,-31.02L167.4,-31.28L167.4,-31.88L167.5,-33.42L167.4,-34.89L166.5,-35.4L166.1,-35.75L165.4,-37.92L165.1,-38.9L165.1,-39.63L165.3,-41.79L165.4,-42L191.8,-42ZM238.5,-42L238.3,-41.63L238.1,-40.96L237.8,-40.57L236.8,-38.49L236.7,-37.77L236.5,-37.34L235.8,-36.35L235.4,-35.75L234.6,-35.29L233.7,-34.81L233.4,-34.29L232.8,-34.01L232.4,-33.99L231.7,-34.19L230.7,-34.27L230.3,-34.22L230.1,-34.49L229.7,-35.09L229.3,-35.51L229,-35.36L228.3,-34.94L227.6,-34.69L227.1,-34.77L225.9,-35.06L225.4,-35.21L225.3,-35.48L225.1,-35.66L224.8,-35.58L224.5,-35.26L224,-34.93L223.4,-34.49L222,-33.69L221.6,-33.4L221.2,-33.57L220.6,-33.72L220,-33.74L218.7,-34.24L217.9,-34.61L217.6,-35.08L217.1,-35.26L216.9,-35.4L216.9,-35.4L217,-35.48L217.4,-35.55L217.7,-35.55L218.2,-36.25L219,-36.7L220.4,-39.13L221,-40.13L221,-40.69L221.2,-41.83L221.2,-42L238.5,-42ZM17.7,-11.93L17.18,-11.6L16.63,-11.56L15.87,-11.45L14.82,-11.78L14.41,-11.78L14.37,-11.45L15.07,-11.03L15.73,-10.58L15.97,-9.856L16.35,-9.02L17.32,-8.083L17.91,-7.614L17.95,-7.28L17.77,-6.66L17.74,-6.142L18.05,-3.782L17.84,-3.648L17.46,-3.632L17.11,-3.648L16.8,-3.899L16.52,-4.05L16.42,-3.682L16.14,-2.644L15.52,-0.268L14.96,1.791L14.27,2.527L13.3,3.699L11.91,5.289L9.966,7.6L8.509,8.671L7.364,9.508L6.011,10.48L4.276,11.75L2.333,12.46L-0.374,13.43L-2.282,14.13L-3.705,14.62L-5.162,15.12L-7.105,15.79L-7.868,16.43L-9.117,17.97L-9.707,18.7L-10.23,19.34L-10.33,19.64L-10.26,19.83L-10.02,20.13L-9.985,20.45L-10.33,20.65L-10.64,20.68L-10.78,20.53L-10.89,20.18L-11.2,19.81L-11.58,19.71L-11.79,19.8L-11.79,20.13L-12.31,21.71L-12.31,22.48L-12.52,22.78L-12.52,23.47L-13,24.1L-13.21,24.67L-13.35,25.16L-13.77,25.5L-13.91,26.02L-14.29,27.14L-14.7,28.01L-15.02,28.77L-15.05,29.34L-14.84,29.72L-14.74,30.04L-14.95,30.63L-15.09,31.05L-15.61,31.35L-16.75,32.06L-17.2,32.53L-17.38,33.06L-17.27,33.53L-17.31,33.92L-17.86,34.07L-18.04,34.41L-18.42,34.99L-18.83,35.2L-19.91,34.88L-20.67,34.88L-21.3,34.59L-21.95,33.73L-22.48,33.03L-22.93,32.11L-23.07,30.83L-23.66,30.46L-24.25,30.02L-24.94,30.14L-25.77,30.23L-26.22,29.92L-27.37,29.39L-28.34,28.78L-29.07,28.48L-29.62,28.63L-29.97,29L-30.56,29.66L-31.43,30.11L-31.81,30.07L-32.33,29.77L-32.43,29.42L-32.02,28.87L-31.15,27.64L-32.12,27.61L-32.43,27.22L-32.5,26.77L-32.64,26.3L-32.47,25.71L-31.95,25.41L-31.18,25.65L-30.66,25.66L-30.32,25.13L-29.97,24.89L-29.59,24.71L-29.45,24.44L-29.83,23.57L-29.94,23.1L-29.83,22.83L-29.83,22.28L-29.87,21.89L-30.07,21.54L-30.11,21L-30.28,20.72L-30.35,20.41L-30.35,20.06L-30.59,19.89L-30.87,19.71L-30.66,19.58L-29.28,19.09L-28.69,18.61L-27.99,18.17L-27.37,17.48L-26.99,16.83L-26.02,13.81L-25.11,11.9L-25.29,11L-26.02,9.76L-26.19,7.934L-26.12,7.382L-26.22,6.963L-26.71,7.717L-26.57,10.4L-27.02,11.6L-27.61,11.9L-28.03,11.69L-27.79,9.726L-28.24,10.1L-28.96,11.42L-30.14,12.41L-30.18,12.72L-30.49,13.14L-31.39,12.76L-32.09,12.36L-34.34,10.14L-35.83,9.676L-36.7,8.906L-36.91,8.587L-37.01,8.135L-36.11,7.683L-35.14,7.064L-35.07,5.691L-35.07,4.603L-35.77,2.778L-35.45,0.368L-35.63,-0.569L-36.42,-2.561L-35.83,-3.565L-33.75,-4.301L-33.06,-4.786L-32.61,-6.376L-32.12,-7.313L-31.18,-6.945L-30.46,-6.978L-31.43,-7.33L-32.26,-8.752L-32.37,-9.421L-30.84,-11.36L-30,-11.86L-29.03,-12.9L-28.17,-14.46L-27.96,-16.92L-28.3,-18.67L-28.58,-20.53L-28.06,-21L-26.81,-21.25L-25.77,-21.85L-25.25,-22.41L-24,-22.32L-22.58,-23.18L-20.29,-23.61L-17.13,-24.58L-16.44,-25.45L-16.75,-26.99L-16.44,-26.79L-15.57,-26.05L-15.02,-25.33L-14.11,-24.88L-13.38,-24.51L-11.48,-23.04L-10.19,-22.3L-8.805,-21.62L-6.827,-20.92L-5.578,-21.03L-5.301,-20.5L-5.058,-19.93L-4.607,-19.61L-3.878,-19.33L-3.462,-19.24L-3.323,-19.09L-2.907,-17.05L-2.629,-16.77L-1.623,-16.43L-0.408,-16.32L0.077,-16.38L1.153,-15.81L1.951,-15.54L2.818,-15.34L3.408,-15.29L3.686,-15.38L3.79,-15.58L4.276,-15.54L5.004,-15.28L6.045,-15.23L6.705,-15.48L6.774,-15.9L6.843,-16.62L7.086,-16.87L7.815,-17.29L8.197,-17.2L10.17,-16.3L10.56,-15.98L11.08,-15.34L11.98,-14.42L12.98,-13.82L14.51,-13.57L15.97,-12.6ZM-29,15.71L-29.17,16.07L-30.11,16.04L-30.35,15.92L-30.35,15.51L-30.14,14.15L-29.9,13.58L-29.14,13.04L-28.51,12.77L-27.71,12.82L-26.85,13.31L-27.85,14.23L-28.41,14.37L-28.62,14.48ZM-17.24,-25.03L-17.76,-24.97L-18,-25.43L-17.34,-25.97L-17.13,-26.07ZM90.77,-42L89.53,-40.85L89.25,-40.49L89.28,-39.9L90.19,-40.29L91.12,-39.97L91.61,-39.9L91.82,-39.67L92.09,-38.9L92.41,-38.78L92.86,-38.44L93.8,-37.64L94.56,-36.78L95.11,-36.38L95.53,-36L95.67,-35.45L95.5,-34.89L95.98,-33.62L96.29,-33.22L96.47,-32.73L96.29,-32.25L96.71,-31.66L97.13,-30.54L97.68,-29.15L97.75,-28.4L97.96,-28.05L98.24,-27.02L98.69,-26.05L98.58,-25.4L98.76,-24.75L96.92,-24.31L96.78,-24.38L96.67,-24.63L96.71,-26.45L96.71,-28.53L96.4,-29.39L95.56,-30.74L94.49,-32.55L94.18,-33.07L93.69,-33.37L93.14,-33.4L92.75,-33.28L92.2,-32.95L91.68,-32.58L90.71,-31.49L89.7,-30.22L89.11,-29.94L88.56,-29.82L88.03,-29.85L87.62,-30.2L87.17,-30.89L86.68,-31.81L86.06,-32.11L85.81,-31.83L85.61,-31.29L85.47,-30.76L85.88,-30.07L86.23,-29.54L85.61,-29.55L83.66,-29.55L81.37,-29.55L79.12,-29.55L77.11,-29.55L75.2,-29.55L74.47,-29.6L73.74,-29.9L73.05,-30.05L72.7,-30.04L72,-29.74L71.17,-29.69L70.58,-29.4L70.1,-29.43L70.1,-27.84L70.1,-25.59L70.06,-23.18L70.58,-23.36L71.03,-23.34L71.38,-23.18L72.32,-23.31L72.8,-23.24L73.29,-23.18L73.74,-23.16L74.02,-22.97L74.4,-23.01L74.81,-23.23L75.27,-23.09L75.79,-22.76L76.13,-22.24L76.41,-21.62L76.72,-21.28L76.69,-20.7L76.69,-20.23L76.58,-19.83L76.72,-19.58L76.79,-19.31L76.79,-19.16L76.62,-19.09L76.24,-19.04L75.82,-18.99L75.54,-19.01L75.34,-19.24L75.13,-19.28L74.81,-19.24L74.5,-19.39L74.22,-19.7L73.74,-20L73.22,-19.86L72.84,-19.71L72.46,-19.53L72.14,-19.33L71.8,-19.38L71.35,-19.23L71,-18.99L70.51,-18.82L69.99,-18.72L69.37,-18.64L68.78,-18.61L68.12,-18.54L68.08,-17.27L68.02,-14.79L67.98,-13.14L67.98,-11.63L68.22,-11.08L69.4,-9.906L70.31,-9.287L71.07,-8.601L71.87,-8.317L72.18,-8.049L72.39,-7.631L72.49,-7.179L72.59,-6.794L72.49,-6.393L72.32,-6.008L72.39,-5.606L72.66,-5.288L72.73,-4.887L72.94,-4.502L73.05,-4.117L73.29,-3.849L73.57,-3.648L73.95,-3.33L74.02,-3.046L73.95,-2.695L73.95,-2.444L74.33,-1.858L74.43,-1.439L74.26,-0.954L74.09,0.736L73.67,2.678L73.39,4.151L72.98,6.545L72.46,9.341L71.83,12.76L71.24,16.13L70.62,19.39L70.1,22.34L69.51,25.6L69.16,27.56L68.99,27.89L68.47,27.19L67.74,26.52L67.04,26.1L66.73,25.58L66.35,24.49L65.76,24.12L65.38,23.84L65,23.87L64.58,24.17L63.95,24.36L63.54,24.34L61.84,23.58L61.56,23.52L62.67,21.81L64.61,18.76L65.86,16.81L67.22,14.65L67.94,13.56L68.02,13.36L68.02,13.09L67.74,12.67L67.04,12.49L66.28,12.17L65.79,11.65L65.14,11.42L64.61,11.05L63.68,10.68L63.09,10.35L62.39,10.23L61.84,9.609L59.83,8.42L59.31,8.32L58.75,8.487L57.92,8.688L57.12,9.341L56.11,9.542L55.18,9.542L54.69,9.157L54.24,9.006L53.62,8.487L52.54,8.068L51.74,7.784L51.26,7.918L50.67,8.52L50.01,9.107L49.52,9.475L48.86,9.441L48.06,9.994L47.27,10.18L46.47,10.26L45.56,10.45L44.56,10.13L43.73,9.843L43.34,9.709L43,9.793L42.48,10.1L41.54,10.23L40.81,10.26L40.29,10.11L39.84,9.592L39.08,9.324L38.24,9.006L38.07,8.32L38.17,7.817L38.52,7.097L38.35,6.344L38,5.172L37.83,4.687L37.59,4.268L37.17,4.117L36.37,4.235L35.5,3.783L34.95,3.364L34.67,2.828L34.98,1.858L34.7,1.004L34.19,0.552L33.84,-0.268L33.32,-0.921L32.66,-1.255L31.96,-1.222L31.41,-1.423L30.78,-2.109L30.23,-2.377L29.57,-3.046L28.36,-3.347L27.73,-3.615L27.35,-4.017L26.86,-4.77L26.93,-5.171L26.69,-5.573L26.48,-6.292L26.07,-7.363L25.61,-7.966L25.13,-8.434L24.75,-8.819L24.16,-9.388L23.43,-9.739L22.8,-10.09L22.56,-10.61L22.35,-11.03L22.04,-11.01L21.52,-11.04L21,-11.14L20.41,-11.46L19.92,-11.83L19.13,-12.48L18.68,-12.57L18.29,-12.57L17.7,-11.93L15.97,-12.6L14.51,-13.57L12.98,-13.82L11.98,-14.42L11.08,-15.34L10.56,-15.98L10.17,-16.3L8.197,-17.2L7.815,-17.29L7.086,-16.87L6.843,-16.62L6.774,-15.9L6.705,-15.48L6.045,-15.23L5.004,-15.28L4.276,-15.54L3.79,-15.58L3.686,-15.38L3.408,-15.29L2.818,-15.34L1.951,-15.54L1.153,-15.81L0.077,-16.38L-0.408,-16.32L-1.623,-16.43L-2.629,-16.77L-2.907,-17.05L-3.323,-19.09L-3.462,-19.24L-3.878,-19.33L-4.607,-19.61L-5.058,-19.93L-5.301,-20.5L-5.578,-21.03L-6.827,-20.92L-8.805,-21.62L-10.19,-22.3L-11.48,-23.04L-13.38,-24.51L-14.11,-24.88L-15.02,-25.33L-15.57,-26.05L-16.44,-26.79L-16.75,-26.99L-17.03,-27.66L-18.35,-28.61L-17.69,-29.85L-16.09,-30.79L-14.01,-30.05L-13.77,-31.51L-14.53,-32.78L-14.39,-35.19L-14.15,-35.68L-13.59,-36.33L-12.9,-36.77L-12.48,-36.9L-11.75,-36.68L-11.3,-37.17L-9.603,-36.95L-9.083,-37.15L-8.736,-37.49L-8.319,-37.72L-7.799,-38.31L-7.487,-38.98L-7.244,-39.25L-6.654,-39.15L-6.619,-39.45L-6.307,-39.83L-5.266,-40.72L-5.301,-41.11L-5.578,-41.96L-5.57,-42L90.77,-42ZM-9.568,-37.47L-9.811,-37.25L-10.3,-37.64L-10.47,-38.13L-10.19,-38.48L-9.777,-38.36L-9.603,-38.06ZM-16.2,331.8L-17.93,332L-18,331.9L-17.9,331.7L-17.51,331.4L-17.03,330.9L-16.92,330.9L-16.75,331L-16.54,331L-16.02,331.3L-15.88,331.5L-15.92,331.7ZM29.15,482L28.91,480.5L29.15,480L29.74,479.5L30.51,479.3L30.85,479.3L31.79,479.9L31.58,480.6L31.24,481.5L31.14,482L29.15,482ZM32.29,482L32.69,480.3L34.43,480.4L36.09,479L37.17,478.5L37.79,478.6L39.95,479.9L40.36,479.9L40.29,479.4L39.98,479.1L39.11,478.7L37.55,477.2L35.43,477L35.82,475.1L36.23,473.4L37.27,473.2L38.97,472.7L42.23,470.1L42.82,468.2L42.96,466.1L41.4,465.6L39.74,464.2L38.38,463.4L37.17,462.5L37.41,461.1L37.59,458.9L39.08,458.4L39.77,455.3L38.77,453L39.01,451.2L40.33,449.7L40.53,448.7L40.92,447.6L42.06,447.5L42.1,446.9L41.99,445.7L41.23,444.4L41.19,442.6L41.92,440.5L43.07,440.6L43.27,440.5L42.48,439.2L41.82,437.8L41.92,437.2L42.55,436.7L43.27,436.5L44.07,437.2L45.22,439.5L45.39,438.9L44.94,436.6L44.56,433.6L43.34,434L42.27,433.8L41.85,433.4L41.44,432.7L41.82,431.9L42.2,431.3L43,430.6L44.7,430.3L45.91,429.3L46.29,427.4L45.91,427.6L45.25,429.3L44.14,429.9L43.59,429.8L42.93,429.5L41.61,428L40.88,427.6L40.19,427.6L39.6,428L38.07,430.6L37.41,431L34.7,431.2L33.73,430.9L32.66,430.6L32.76,429.9L33.11,429.2L33.7,428.9L33.73,428.5L32.9,428.4L31.93,427.6L31.48,426.7L31.3,425.1L30.44,422.5L30.26,420.7L30.85,419.4L32.17,414.3L32.59,411.6L33.28,409.4L33.28,407.9L35.09,406.5L35.78,405.7L37.34,401.1L37.55,398.6L35.09,391.2L34.7,389.8L34.6,388L35.19,385.1L35.26,384L34.74,382.4L33.35,379.8L33.32,378.5L33.91,377.2L33.35,375.5L33.63,374.5L33.94,373.6L36.13,374.1L37.13,373.9L37.66,373.4L38.07,372L38.28,369.9L38.42,369L38.59,367.6L39.67,367.1L40.05,365.8L40.95,364.1L41.85,359.1L42.79,357.9L43.73,356.5L43.34,354.5L43.97,353.5L44.49,352.8L44.98,351.6L45.63,350.4L47.23,348.7L47.61,346.6L48.83,343L49.07,340.8L49.45,339.2L49.35,337.8L50.08,336L50.77,334.6L51.01,333.8L52.61,331.8L52.89,330.3L52.3,329.2L52.3,327.6L51.85,325.4L52.89,324.6L53.3,323.9L54.66,320.4L54.55,319L54.93,317.3L54.07,315.2L53.93,310.7L53.44,307.1L52.64,303.5L52.71,301.4L52.19,298.9L52.19,297.4L52.57,294.1L55.14,292L55.66,289.6L55.98,286.5L55.87,284.2L55.59,283.2L54.34,281.5L54,278.5L54.24,277.7L55.31,276.9L56.04,275.7L56.43,273.9L57.22,272.5L57.54,269L58.16,266.3L58.51,265.4L59.55,264.2L59.72,263.8L59.9,262.9L59.83,260.8L60,259.5L60.8,256.9L60.9,255.8L61.8,253.1L62.01,251.2L62.43,250.2L62.26,249.1L62.53,246.6L61.91,245.2L61.77,244.4L62.53,241.8L63.09,241.2L63.92,240L64.3,238.7L64.37,237.9L63.26,233.7L63.12,232.2L63.37,228.9L63.75,226.8L63.64,225.1L63.75,224.2L63.95,223.1L64.68,221.8L64.86,220.9L64.61,220.5L63.71,220L62.98,218.8L62.91,217.6L63.16,216.7L63.23,215.5L64.3,215.3L64.89,214.6L65.45,213.3L66.14,210.3L66.45,206.5L66.87,204.2L67.15,203.1L67.39,200.8L67.81,199.2L67.88,197.8L67.81,196.7L66.77,191.3L66.77,189.3L67.22,186.2L67.22,181.8L67.15,180.8L66.73,179.9L66.63,178.6L66,176.3L65.41,171.9L65.41,169.5L65.17,167.5L64.61,167L64.61,167L65,166.8L65.93,166.7L66.87,166.7L68.08,166.3L69.37,165.5L70.2,164.4L70.55,163.3L70.55,162.4L70.17,161.3L70.06,160.4L70.51,160.1L71.69,159.9L72.63,159.1L73.36,158.4L73.53,159.6L74.85,161.1L75.27,162.9L75.58,163.1L77.38,164L77.42,164.2L77.14,164.5L76.9,164.9L77.07,165.5L77.38,166.3L77.52,167.1L77.69,167.8L77.9,169L78.04,170.1L78.49,171.7L78.6,172.7L78.6,173.3L78.94,173.9L79.64,174.6L80.61,175.3L81.37,176.1L81.93,176.6L82.66,177.1L83.18,177.5L83.39,177.8L83.45,178L83.25,178.3L82.38,179.3L81.2,181L81.2,181.2L82.34,182.4L82.52,182.8L82.52,183.5L82.14,184.3L80.92,184.5L80.64,184.8L80.61,185L80.89,185.4L80.85,186.2L81.3,187L81.06,187.3L80.61,187.7L80.61,188.1L80.75,188.5L81.23,188.9L83.11,190.1L83.25,190.3L83.21,190.4L82.48,191.2L82.41,191.7L82.45,192.6L82.55,193.1L82.8,193.3L83.73,193.6L84.91,195.5L86.02,197.2L86.02,198.8L86.13,200.5L86.86,201.9L86.96,203L87.17,204.3L88.03,205.1L88.38,206.6L88.45,207.4L88.42,208L89.08,209.6L89.14,211L88.97,212.1L89.01,212.7L89.08,213.1L89.67,213.4L89.91,213.7L90.74,213.8L91.96,213.8L94.07,213.4L95.67,213L97.47,214.9L96.71,217.5L95.46,221.6L94.49,224.7L94.31,225.2L94.14,225.8L92.06,226.7L89.01,228L87.48,228.7L85.5,229.6L85.05,230.3L84.46,230.7L83.84,231.2L83.63,231.7L83.04,232.1L82.52,233.3L82.52,234.3L82.83,234.9L83.42,235.2L83.63,236L83.8,236.6L84.22,237L84.11,237.3L83.77,237.6L83.14,237.8L82.73,238.5L82.21,240.5L82.14,241.2L82.69,243L83,243.9L83.8,247.4L83.94,248.3L82.83,249.7L82.38,250.5L82.21,251.2L82.21,251.7L82.31,252.3L83.25,253.9L84.32,255.4L84.84,256.1L84.84,257.2L84.6,257.8L84.01,258L82.76,258.4L82.21,259L81.65,259.1L81.09,258.6L80.51,258.7L79.78,259.1L79.5,260.1L78.84,261.9L78.28,262.3L77.87,263.7L77.14,265.5L76.79,266.7L76.62,267.5L75.86,268L74.99,269.1L74.33,270.1L74.09,270.4L73.57,270.5L73.22,271.5L71.97,272.9L71.66,274.5L71.21,275.4L71.14,276.9L70.44,279.8L70.31,280.4L69.61,280.9L68.67,282.1L68.4,282.9L68.81,285.3L69.33,287.8L69.37,289L69.16,290.6L69.02,291.3L69.37,291.5L69.96,291.7L70.17,292.3L69.72,292.7L69.54,293.5L69.06,294.4L67.67,294.7L67.18,294.4L67.01,294.7L67.08,295.3L66.77,296L66.04,297.9L65.59,299.7L65.31,300.5L65.41,301.1L65.66,301.5L65.66,301.8L65.27,302.2L64.89,302.9L64.51,303L64.09,302.8L63.64,303.2L63.54,304.1L63.3,305.1L63.19,306.4L63.02,308L63.57,309.1L64.3,311.1L64.86,311.6L65.45,311.5L65.93,311.9L66.21,312.4L65.83,313.2L65.2,313.3L65.14,313.8L65.34,314.9L65.55,315.9L66.18,316.4L66.42,317.8L67.01,318.2L66.94,320L67.53,322.1L68.15,322.7L68.43,323L68.26,323.9L67.74,324.6L67.63,325.8L67.84,326.6L68.47,327.4L68.95,327.5L69.64,327.2L70.37,327.6L70.48,328.3L70.58,328.9L70.2,329.7L69.78,331.2L69.68,332.7L69.78,335L69.99,336.8L70.03,338L70.06,338.5L69.82,338.8L69.16,339L68.6,339.1L68.15,339.4L68.05,339.9L67.67,340.9L67.29,341.6L66.63,342.6L66.21,343.7L65.86,344.4L65.9,344.9L65.66,345.8L65.38,346.6L64.86,349.3L64.16,349.8L63.57,350.1L63.3,350.5L63.5,351.2L64.13,351.4L64.34,352L64.23,352.9L64.65,353.7L64.61,354.8L65,356.7L64.65,357.9L64.75,359L64.75,360.1L64.23,361L63.23,361.1L62.67,361.9L61.7,362.8L61.6,363.5L61.42,364.1L61.04,364.3L60.42,364.3L59.93,364.4L59.24,365.2L58.47,365.6L58.3,366.3L58.37,367.1L57.99,367.6L57.47,368.5L57.15,369.5L57.47,370.4L57.81,372.1L57.88,372.8L57.43,374.1L57.09,375L57.43,376.1L57.71,376.8L57.43,378.2L57.22,379L57.4,380.6L58.09,382.4L58.75,384L58.82,385.9L58.99,387.4L59.31,389L59.97,389.6L60.48,390.2L60.38,390.9L60,391.9L59.48,392.6L58.16,392.8L57.12,393.5L56.25,393.9L55.59,394.5L55.14,395L54.9,395.7L55.07,398.4L54.97,399.4L54.52,400.9L54.1,402L53.93,402.3L53.89,402.9L53.82,403.3L53.34,403.5L52.71,403.2L52.33,403.4L52.05,403.8L52.3,404.7L52.54,406.2L52.85,406.9L52.78,407.4L52.64,408.6L52.23,409.5L51.64,409.5L51.29,409.9L51.12,410.6L51.29,411.4L52.05,412.1L52.3,412.6L52.19,413.2L51.6,413.4L51.26,413.9L50.94,415L50.49,416.2L50.04,417.1L49.94,418.3L50.6,419.6L50.53,420.9L50.46,424.7L50.42,426L50.6,428.2L50.35,428.8L50.22,429.3L50.87,430.9L51.6,433.5L51.78,434.5L51.67,435.2L50.7,435.8L49.9,436L49.45,435.6L49.1,435.8L48.76,436.5L48.34,437.1L48.17,437.8L48.62,438.5L48.86,440L48.34,440.7L47.99,441.4L48.13,442.3L48.27,444L47.96,446.8L48.38,447.8L48.86,448.3L50.35,448.9L51.46,449.1L51.78,450.1L51.64,450.8L51.12,451.2L50.28,451.5L50.28,452.8L50.98,453.9L51.78,454.8L51.95,455.5L51.91,456.3L51.36,456.9L52.12,458.3L52.47,459.3L52.12,460L51.6,461.1L51.19,461.7L51.19,462.3L51.01,463.5L50.98,464.7L51.12,465.4L55.87,466L56.95,466.2L57.57,466.9L57.47,467.8L56.88,468.7L56.49,470.5L55.56,470.8L54.62,470.3L53.62,470.5L52.71,470.6L51.46,470.7L49.8,470.9L48.76,470.7L48.69,471.3L48.97,472.4L51.19,472.8L53.27,473.5L53.89,474.7L54.73,476L55.59,476.9L55.63,478.3L54.27,479.7L54.1,480.8L52.33,481.1L51.81,481.7L51.77,482L32.29,482ZM32.28,451.5L31.55,451.8L30.89,451.9L30.2,451.7L28.98,451.7L27.8,451.2L26.69,450.4L26.38,450L26.48,449.4L27.32,448L28.08,445.4L28.6,441.6L28.18,440.1L28.22,439.5L28.43,438.8L28.49,438.1L28.46,437.4L28.56,436.7L29.4,435.3L29.54,434.6L29.54,433.9L29.92,432.5L29.81,432L29.5,431.6L29.74,431.2L32.69,432.3L34.64,432.5L34.74,433.6L35.12,434.5L35.36,436L35.64,436.4L35.5,437.5L34.6,438L34.67,439L35.19,439.9L34.43,440.3L33.63,440.5L33.42,440.8L32.83,441L32.14,441.5L32.35,442L33.25,443.1L34.25,443.8L34.81,444.9L35.54,446.1L35.19,446.9L34.53,447.9L33.46,448.6L32.52,449.1L32.62,450.8ZM32.66,465.5L32.17,466.1L31.41,466.2L30.26,466.9L30.13,467.5L30.09,468.2L30.89,469.1L31.27,470.1L31.76,471.6L32.1,473L32.07,473.5L32.14,474.2L32.73,475.4L32.76,475.9L32.73,476.4L32.48,477.4L32.31,477.5L31.72,477.6L31.69,478.2L31.55,478.4L29.95,478.5L29.15,478.2L29.22,476.4L28.22,475.7L27.52,474.6L26.73,472.5L26.07,471.9L25.3,470.3L24.16,469L25.48,468.1L25.27,466.6L26.03,466.1L27.18,465.6L28.04,466L28.81,465.8L29.15,465.5L29.05,463.9L29.29,462.7L30.16,462.1L31.06,462.1L31.41,462.7L31.86,463.4L32.97,463.9L32.94,464.6ZM39.88,470.8L37.52,471.8L36.37,471.5L35.92,470.7L35.68,470L35.43,468.9L35.85,468.3L36.68,467.4L37.03,466.8L37.17,466.2L37.1,465.5L37.24,464.9L37.72,464.7L39.46,465.4L41.26,466.4L41.89,467.1L41.99,467.6L41.23,468.8L40.71,469.8ZM20.06,472.3L19.82,472.5L19.51,472.4L19.27,472L19.09,471.2L19.44,471L19.68,471L19.99,471.4L20.13,472ZM23.64,455L22.28,455.2L21.97,454.8L21.97,454.5L22.21,454.2L22.91,454.1L23.36,454.3L23.6,454.6L23.67,454.9ZM33.63,471.3L33.32,471.5L33.04,471.5L32.76,471L32.66,470.4L32.03,469.5L31.86,469L31.86,468.5L32.21,467.8L32.76,467.6L33.11,467.6L33.56,468.5L33.66,469.4L33.8,470.4ZM31.93,457.9L32.14,458.6L31.69,458.7L31.03,458.6L30.68,459.1L30.51,459.2L28.95,458.7L28.7,458.5L28.74,457.8L30.4,457.8L31.48,457.3L31.62,457.4ZM23.87,482L23.88,482L24.71,481L25.34,479.6L25.27,477.6L25.75,477.2L26.03,476.5L27.11,476.1L27.35,477.5L27.07,480.1L27.77,481.6L27.84,482L23.87,482ZM165.4,-42L165.3,-41.79L165.1,-39.63L165.1,-38.9L165.4,-37.92L166.1,-35.75L166.5,-35.4L167.4,-34.89L167.5,-33.42L167.4,-31.88L167.4,-31.28L167.5,-31.02L167.9,-30.91L168.2,-30.72L168.3,-30.27L168.3,-29.8L168.9,-29.52L169.5,-29.35L170.1,-28.7L171,-27.68L171.4,-27.49L171.6,-27.07L172.5,-26.22L173.7,-25.92L175,-25.54L175.5,-25L176,-24.56L176.4,-24.55L176.7,-24.61L177.3,-24.98L177.7,-25.32L178.5,-25.28L179.4,-25.35L179.5,-25.62L179.6,-25.95L179.4,-26.82L179.7,-27.09L180.5,-27.24L180.6,-27.71L180.8,-27.96L181,-28.26L181.3,-28.31L181.6,-28.15L182.1,-28.03L182.6,-27.88L182.9,-27.58L183.4,-27.56L184,-27.61L184.2,-27.81L184.4,-28.15L184.5,-28.85L184.8,-28.87L185.5,-29.03L186.3,-29.35L187.3,-29.4L188.2,-29.39L188.7,-29.6L189.1,-30.05L190,-31.36L190.4,-31.66L190.9,-31.9L191.3,-31.84L192.1,-32.06L192.8,-32.38L193.1,-32.3L193.6,-31.63L193.9,-31.48L194.2,-31.44L195.5,-31.09L196.2,-31.21L196.9,-31.41L197.6,-31.49L198.2,-31.34L198.5,-31.54L198.9,-31.68L199.2,-31.59L199.9,-31.51L201.4,-31.14L203.4,-30.72L203.9,-30.86L204.3,-31.16L204.3,-32.01L204.4,-32.62L204,-33.17L203.4,-33.77L202.9,-34.52L202.3,-34.74L202.3,-35.13L202.7,-35.53L203.2,-35.76L203.4,-36.03L203.6,-37.04L203.8,-37.22L204,-37.27L204.2,-37.22L204.6,-36.97L206.2,-36.16L206.9,-36.28L209.5,-36.5L209.9,-36.95L210.4,-37.07L211.4,-37.52L211.8,-37.55L212.1,-37.44L212.5,-37.54L213.2,-37.96L213.4,-38.01L213.5,-37.54L213.9,-37.04L214.4,-36.58L214.6,-36.48L215.5,-36.63L215.9,-36.5L216.1,-36.08L216.1,-35.71L216.5,-35.4L216.9,-35.4L217.1,-35.26L217.6,-35.08L217.9,-34.61L218.7,-34.24L220,-33.74L220.6,-33.72L221.2,-33.57L221.6,-33.4L222,-33.69L223.4,-34.49L224,-34.93L224.5,-35.26L224.8,-35.58L225.1,-35.66L225.3,-35.48L225.4,-35.21L225.9,-35.06L227.1,-34.77L227.6,-34.69L228.3,-34.94L229,-35.36L229.3,-35.51L229.7,-35.09L230.1,-34.49L230.3,-34.22L230.7,-34.27L231.7,-34.19L232.4,-33.99L232.8,-34.01L233.4,-34.29L233.7,-34.81L234.6,-35.29L235.4,-35.75L235.8,-36.35L236.5,-37.34L236.7,-37.77L236.8,-38.49L237.8,-40.57L238.1,-40.96L238.3,-41.63L238.5,-42L252.1,-42L252.1,-42L253.4,-38.53L253.5,-37.77L253.8,-36.85L254.3,-35.88L254.9,-34.27L254.9,-33.97L254.5,-33.54L255.1,-33.5L255.6,-33.25L255.9,-32.23L256.2,-31.54L257,-30.61L258.5,-30.29L259.6,-30.17L260.9,-29.65L261.8,-28.97L262.6,-26.66L262.3,-25.2L262.4,-24.18L262,-23.78L261,-23.11L260.7,-22.74L258.6,-21.02L258.1,-20.2L256.9,-19.11L255.8,-17.02L254.1,-15.11L253.5,-14.63L252.6,-14.51L252.1,-14.22L250.8,-12.67L249,-12.15L248.9,-11.24L247.9,-9.17L247,-8.049L246.4,-7.664L245,-5.623L244.8,-4.719L244.8,-3.146L243.9,-2.193L242.9,-1.573L242.8,-0.234L242.3,0.217L242,0.519L239.9,0.167L236.8,1.64L235.7,1.992L239.1,2.075L240.3,2.845L242.6,2.326L245.5,0.485L246.6,0.084L248.9,-1.172L249.8,-2.008L251.5,-3.013L251.8,-3.448L252.8,-3.933L253.3,-3.33L253.3,-2.946L252.6,-2.209L252.8,-1.741L253.3,-1.138L253.4,-0.318L253.5,0.301L253.8,1.406L254.9,2.879L254.9,3.381L254.8,4.017L255.2,4.553L255.8,4.871L257.5,6.461L258.9,5.574L259.8,5.323L260.3,4.938L261.4,4.703L262.4,5.072L264.1,5.607L265.4,5.038L268,3.732L267.2,6.043L266.6,8.169L266.2,9.023L265.7,11.33L265.3,11.95L264.9,12.66L265.5,12.41L266,12.07L266.6,11.18L267.1,9.642L269,5.507L269.6,5.139L271.1,4.67L273.8,1.372L274.9,1.389L275.6,2.142L276.2,2.594L276.4,1.69L277.3,1.322L276.3,0.87L276.2,0.468L276.1,-0.201L276.8,-1.121L276.3,-1.925L277.7,-2.946L277.6,-3.699L278.1,-4.334L278.7,-4.987L279.5,-5.305L279.6,-5.857L280,-6.091L280.4,-6.158L281.1,-5.539L281.8,-6.276L282.5,-6.56L282.9,-6.443L283.3,-6.108L283.7,-5.974L284,-6.041L284.9,-6.51L285.8,-5.74L286.3,-5.573L286.2,-6.008L285.9,-6.393L286.1,-6.727L286.5,-6.928L287.7,-6.744L288.4,-6.409L289.1,-5.774L290.1,-5.723L290.9,-5.79L291.4,-5.439L292.2,-5.456L292.5,-4.903L293.8,-4.134L294,-3.615L295,-3.347L295.9,-3.029L296.9,-2.946L297.8,-3.029L297.9,-2.36L298.6,-2.176L299.5,-2.326L300.2,-1.523L302.1,-0.904L303.4,0.033L304.2,-0.134L305.2,0.117L306.2,2.142L306.4,3.598L306.9,3.398L307.3,2.745L307.8,1.556L308.8,1.171L309.3,1.623L310.4,2.36L311.2,3.146L311.6,3.665L312.3,3.749L311.7,4.385L312.3,4.318L312.9,3.866L313.5,4.787L314,5.791L314.1,6.829L313.6,7.415L313.3,7.784L312.9,8.52L312.4,8.638L311.9,8.872L312.5,9.408L312.8,9.91L313.7,8.537L314.2,8.152L315,7.934L315.5,8.922L315.5,9.843L314.2,10.23L314.2,10.96L313.8,11.37L313.6,11.85L313.4,12.84L313.1,13.68L312.3,17.33L312.3,17.93L313.2,17.3L315,15.42L315.6,13.44L316.3,11.48L317,10.87L317.5,10.87L318.2,11.08L318.3,11.72L318.1,12.09L317.4,13.06L317.1,13.6L317.4,14.13L319.1,12.51L319.9,11.95L320.5,12.05L321.9,11.32L324.5,11.17L324.7,10.31L325.2,9.944L326.6,10.04L329.5,10.8L330.5,11.42L332,12L332.8,12.69L336.1,13.96L338.5,14.1L339.7,13.51L341.2,14.11L342,14.8L343.5,15.15L345.1,15.35L346.3,14.87L349.3,14.7L353.2,14L355.5,14.16L358.1,14.63L360,15.82L361.6,16.51L362.5,17.18L364,17.87L367.3,19.73L368.4,20.8L370.4,22.28L372.5,22.9L373.6,24.42L374.5,25.13L376.6,27.71L379,29.52L380.7,31.35L383.8,32.51L385,34.44L387.1,34.67L388,34.96L389.1,35.78L390.7,36.24L392.6,36.1L394.8,36.2L396.5,35.82L400.7,36.54L401.4,36.89L402,37.53L402,77.26L402,77.26L400.2,79.42L398.6,81L398,81.17L397.4,80.84L397.8,81.69L397.4,82.42L395.8,84.65L394.2,86.11L392.5,88.66L392.4,88.71L390.2,89.7L388.9,90.5L387.3,91.94L385.8,94.25L385.5,94.55L384.9,94.38L384.9,95.56L383.7,97.4L383.3,97.67L383.3,97.16L383.5,96.75L383.6,96.33L383.6,95.83L383.2,96.19L382.5,97.59L382.7,98.6L382.2,100.1L380.1,104.5L377.5,108.2L376.9,109.4L374.7,111.9L373.2,113.1L372.8,113.1L372.2,113L372,111.1L370.7,109.9L370.4,109.7L369.9,110.9L369.5,111.3L368.8,111.3L369.5,111.9L369.7,112.5L369,113.8L369,114.9L367.8,116.1L367.1,117L366.8,118.2L366.6,119.3L367.1,119L367.3,119.2L367.5,119.5L367.4,120L367,120.9L367.1,123.2L367,123.8L367.3,124.3L367.8,123.4L368,123.6L366.9,129.8L367.3,132.6L367.5,135.8L368,138.9L368.5,141.7L368.6,141.9L367.8,145.2L366.8,148.3L366.2,151L365.9,153.8L365.5,155.1L365.3,156.5L365.8,159.8L365.9,160.4L364.7,161.9L363.5,162.6L362.7,163.3L361.2,166L360.3,170L360.3,172L360.7,176.4L360.4,178.3L359.9,179.4L359.3,180.2L357.8,181.2L356.4,183.5L355.8,186L354.9,186.8L354.7,188.2L354,189.7L352,191.9L350.8,192.5L350.2,193.2L349.8,194.4L348.6,196.6L347.7,199.3L347.9,200.3L348,200.4L348.3,203.7L348.2,204.5L347,205.4L342.5,207L341.4,207.7L338.7,210.5L338.5,211.2L338.7,212.2L339.1,212.7L338.6,213.3L338.1,214.4L337.3,214.3L332.9,214.3L330.5,214.6L329.3,214.6L328.7,214.3L328.1,213.9L327.9,213.4L328.2,212.5L328,212L327.4,212L326.7,212.3L326.5,212.8L326.6,213.1L326.9,213.6L327,214.3L326.7,214.8L325.3,214.9L323.7,215.4L321.8,215.6L320.2,216L319.5,215.5L320.2,215.3L321.2,215.4L322.3,215L322.1,214.6L320.5,214L318.8,214.3L317.8,215L315.7,215L313.1,215.5L312.7,216L312.7,217.1L313.3,217.3L313.7,217.8L313.3,218.2L312.8,218.4L310.1,218.9L307.5,221L306.5,221.2L305.5,222.1L305.4,222.9L305.1,223.3L304.5,223.4L303.2,223L301.5,222.9L300.2,223.3L293.9,226.6L291.6,227.9L289,230.6L284.6,233.7L282.3,235.5L281.9,236L281.5,236L280.8,236.4L281.1,236.7L281.6,236.8L281.4,237.8L280.5,238.5L278.7,240.5L278.3,240.3L278.9,239.3L278,239.3L276.8,238.9L276.3,239.3L276.6,240.3L276.1,240.7L275.3,240.8L274.5,240.7L273.6,240L274,241.3L275.8,241.6L276.5,241.9L276.8,242.4L275.4,244.7L274.3,245L274.2,245.4L274.8,245.4L275.1,246L274.7,248.6L274.2,249.1L273.8,249.1L273.5,249.6L273.9,250.4L274.4,251.1L274.3,252.3L274.2,253.3L274.2,254.3L274.7,256.1L274.9,258.1L275.2,258.8L275.3,259.6L274.9,260.3L275.2,261.5L274.5,263.5L274.8,266.4L274.7,269.2L274.4,270.6L274,271.7L273,273.2L273,274.6L270.8,276L268.4,277.9L266.2,280.1L263.8,283.3L261.1,288.2L258.5,295.1L255.4,300.4L254.2,302.3L252.5,304.5L250.3,307L247.3,309.5L244.1,311.7L242.9,312.7L241.7,314.2L241.5,313.6L241.7,312.6L241.6,311.9L241.5,310.9L242.2,310.8L243.2,311.4L243.7,311L244,310.5L245.2,310.3L247.5,307.9L249.1,306.9L250.1,305.4L250.2,304.6L250.2,302.9L250.8,302.5L252,302.6L252.2,302.2L252.1,301.6L252.3,300.5L254,299.5L254.8,298.2L254.5,295.1L254.8,295L255.5,295.5L255.8,295.3L256.1,293.9L256,293.2L255.2,293L252.4,294.5L251.5,294.5L251.4,293.3L250,292.7L249.5,291.7L249.4,291L248.9,290.8L248.9,292L249.1,293.1L250.2,294.4L250,295L249.4,295.6L249,297L249,298.8L248.7,298.2L248.3,297.9L248.1,299.8L247.3,300.6L247.1,301.3L247.3,302.2L246.9,302.7L244.9,304.3L242.9,305.4L242.4,305.9L242.2,307.1L241.9,308.3L241,309.4L240.3,311.6L240.3,312.5L240.5,313.9L240.9,314.8L240.3,315.4L239.5,316.6L238.8,317.9L237.2,322.9L235.8,325.9L234.8,327.4L233.2,328.9L228.9,332.9L228.7,332.8L228,332.5L227.5,332.1L227.4,331.9L227.3,331.5L227.4,330.1L227.4,326.3L227.6,325.5L227.8,325.1L228.7,324.4L229.5,323.5L230.4,322.2L231.3,321.3L231,320.6L230.3,320L229,319.5L227.8,318.6L226.7,317.5L226.2,316.3L225.7,315L225.3,314L225.2,313.5L224.7,313.3L224,312.8L223.6,312.3L223,312L221.9,311.8L220.7,311.2L219.3,310L218.3,308.6L217.7,307.7L217.2,307L214.2,306L212.9,304.7L212.4,305.1L211.6,304.7L210.8,304.1L210.5,303.6L210.2,303.2L209.9,302.6L209.7,302.1L208.9,301.2L207.8,300.2L207.4,299.9L207.2,300L206.9,300.3L206.8,300.7L206.4,301L205.9,301.4L205.4,302L204.8,302.4L204,302.5L203.5,302.4L203.4,302.2L203.4,301.5L203.6,299.7L203.2,299.1L202.6,298.4L201.9,297.4L199.7,295.4L196.6,292.5L195.6,291.6L194.6,291.5L193.6,291.6L192.8,292L192.1,293.3L191.9,293.5L190.3,293.5L188.6,293.3L188.1,292.5L188.5,291.9L190,290.8L190.9,289.7L191.1,288.8L191.8,288L193.1,287.2L194.5,285.9L196.2,283.9L197.1,282.5L197.4,281.5L198.1,280.8L199,280.3L199.8,279.3L200.5,277.7L201.4,276.4L202.6,275.5L203.3,274.7L203.4,274.1L203.7,273.7L204.2,273.5L204.5,273.2L204.5,272.7L204.7,272.4L204.9,272.2L205.4,272.3L206.2,272.6L206.6,272.5L206.7,272.1L206.6,271.6L206,271.1L206.2,270.6L207.6,269.7L208.6,269.3L209.3,268.7L209.9,267.9L210.9,267.2L212.3,266.9L212.6,266.5L212.6,266.1L212.8,265.8L213.6,265.6L214.1,265.2L214.2,264.5L214.4,264L214.9,263.4L215.4,263.2L215.9,263.4L216.4,263.2L216.9,262.6L217.5,262.4L218.2,262.4L218.5,262.3L219.7,262.1L220.3,261.6L220.9,260.6L221.3,260.2L221.8,260.5L222.5,260.1L223.5,259.2L223.7,259.2L224.4,258.8L225.2,257.2L225.6,256.2L225.5,255.4L225.2,254.8L225.3,253.9L225.6,251.5L225.6,250.5L226.1,249.8L226,249.1L225.3,247.6L224.6,246.3L224.2,244L223.9,243.2L223.3,242.9L222.7,242.2L222,242.1L221.7,241.8L221.4,241.6L220.9,241.7L220.4,242.1L219.6,242.1L219.2,242.3L218.6,242.7L218,242.5L217.7,242.2L216.9,242.2L217,240.6L218.3,238.4L218.6,237.3L218.5,236.7L218.9,234.6L219.8,231L220.2,228.7L219.8,227.6L219.8,226.8L220.3,226.1L220.5,225.9L219.3,225.1L218.6,224.4L217.8,223.9L216.8,223.4L216.4,223.6L215.9,223.9L215,224.3L213.9,224.9L213.4,225.2L212.4,225.4L211.3,225.6L210.4,225.5L209.7,225.3L209.2,224.9L209,224L209,223.2L208.8,222.1L208.2,221.5L208,221L208,220.4L208.1,219.8L208.2,219.3L208.1,218.7L207.9,218.3L207.9,217.5L207.8,216.5L207.4,215.9L207.2,215.2L207.2,214.5L206.9,213.7L206.9,212.9L207.2,212.2L207.3,211.5L207,211L206.4,210.6L206,209.8L206,208.7L205.5,208.2L205,207.7L204.5,207.7L203.6,207.4L202.9,207.4L201.7,207.4L201.2,207.2L200.9,206.9L200.2,206.3L199.8,205.5L199.3,205.3L198.5,205.5L198.3,205.9L198,206.4L197.5,206.9L196.8,206.9L196.1,207.2L195.4,207.2L194.6,207.3L193.7,207L192.6,206.7L191.6,206.5L190.7,206.7L190.1,206.5L189.4,206.5L188.4,206.4L187.8,205.8L187,205.5L186.6,205.6L186,206L185.5,205.9L184.7,205.6L184.5,205L184.5,204.6L184.7,204.1L184.9,203.6L184.8,202.9L184.8,202.4L185,201.9L185.1,201.4L185,200.8L185,200.3L184.9,199.8L184.8,199.2L185.2,198.4L185.5,197.8L185.3,197.2L185.4,196.9L185.6,196.3L186,195.5L186,194.1L185.6,193.3L185.3,193.1L185.3,192.8L185.4,192.5L185.3,192.2L185.2,191.8L185.4,191.5L185.1,190.9L184.7,190.8L184.5,190.6L184.4,189.9L184.2,189.2L184.3,188.6L184,188.1L183.7,187.8L183.4,187.3L183.1,186.8L183,186.3L182.8,185.5L183.4,185.4L183.7,185L184.1,184.4L184.7,184.3L185.4,184L185.6,183.6L184,182.1L183,181.2L183.6,180L184.6,177.9L185.5,175.9L186.2,174.4L186.4,174.2L187,174.1L186.9,173.3L186.9,172.8L186.4,172.7L187,170.9L187.8,168.3L188.4,166.3L188.6,165.9L189.1,165.9L189.2,165.6L188.6,165.3L188.3,164.7L187.6,162.9L186.4,160.1L186.3,159.1L185.9,158.5L185.2,158.7L184.4,158.5L182.3,157L181,156.2L180.5,155.7L180.3,154.1L179.9,152.5L179.7,150.3L179.8,149.8L180.9,148.2L180.9,147.4L181,146.7L181,146.1L180.7,146.1L180.2,146.4L179.5,146.6L179.1,146.6L175.1,146.4L170.5,146.3L166.7,146.1L163.3,146L163.2,144.6L163.1,142.3L162.9,140.7L162.7,138.1L161.3,136.5L159.9,134.7L159.4,134.3L161.1,134.2L162.4,134.2L162.1,129.5L161.8,129L161.4,127.5L161.2,126.6L160.6,125.9L160.4,125.2L160.6,124.6L160.9,124.3L161.1,123.5L161,122.7L160.6,122L160.1,121.3L159.3,120.8L158.1,120L156.2,119L154.7,118.3L154.1,118.4L151.4,118.6L150.5,118.8L149.8,118.6L147.8,118.6L147,118.1L146.3,117.4L144.8,115.8L144.6,115L144.1,114.7L143.2,114.8L142.3,114.7L140.7,114.1L139.1,113.4L138.4,113.4L137.7,113L136.5,111.9L136,111.5L135.7,111L135.5,110.1L135,110L134.4,110.1L133.7,110.5L132.8,110.3L131.6,109.5L130.9,108.9L130.5,108.7L129.5,108.3L128.5,108.2L127.1,108.8L125.9,108.5L124,108.3L122.4,107.9L121.8,106.8L121.5,106L120.6,105.6L119.8,105L118.9,104.1L118.5,103.8L117.7,103.6L116.9,103.3L116.8,102.8L116.6,102L116.5,101.9L116,101L115.7,100.9L115.4,101.1L115.3,101.2L115.1,101.1L115,100.7L115.1,100.1L114.9,99.42L114.1,98.73L113.7,98.03L113.7,97.3L113.5,96.8L113.3,96.56L113.1,96.14L113.1,95.53L113.3,94.79L113.7,93.96L113.6,92.66L112.9,90.91L112.6,89.65L112.5,88.88L112.6,88.3L113,87.76L113.8,86.38L114,85.34L113.7,84.17L113.7,83.29L113.8,82.66L113.6,81.86L113,81.1L112.6,81.08L112.1,81.28L111.5,81.93L110.7,82.05L110,81.64L107.9,81.81L104.7,82.22L103.3,82.63L102.6,82.8L101.7,82.93L100.2,83.68L96.5,86.55L95.74,86.96L94.87,87.01L94.35,87.42L93.55,87.72L91.96,88.86L91.12,89.78L90.6,90.6L89.98,90.63L89.53,90.41L88,90.52L87.24,90.8L86.4,91.61L85.36,93.05L84.91,93.46L84.08,93.91L83.11,94.25L81.93,94.79L81.37,94.83L80.92,94.91L80.51,94.67L80.37,94.14L79.74,93.82L78.28,93.65L76.1,93.27L73.84,93.21L72.7,93.24L71.8,93.26L70.2,93.05L69.02,93.02L68.02,93.55L66.52,94.18L65.86,94.35L65.34,94.36L64.86,94.3L64.3,93.96L63.5,93.19L62.91,93.48L62.46,93.82L62.46,92.15L62.46,89.65L62.5,87.45L62.5,85.68L62.5,83.63L62.5,82.18L62.91,81.64L63.19,81.03L62.88,80.2L62.95,79.45L63.16,78.92L63.44,78.42L62.77,78.67L62.5,78.81L62.15,79.2L61.35,79.72L60.8,80.25L60.14,80.67L59.31,81.62L58.61,82.13L57.88,82.47L56.7,83.58L55.73,83.8L53.16,83.97L50.46,83.97L47.99,83.97L47.61,83.95L47.65,83.03L47.72,82.39L46.85,81.71L46.81,80.86L46.57,80.28L46.29,79.57L45.7,79.13L44.91,78.94L43.55,78.55L41.54,78.14L39.6,78.11L37.72,78.16L38.87,76.74L40.01,75.31L39.98,74.08L39.04,72.99L38.56,72.33L37.79,71.4L36.82,70.76L36.3,69.91L36.34,69.4L36.27,69.07L35.88,68.86L35.54,68.56L35.02,68.22L34.43,67.76L34.43,67.31L34.22,66.83L33.84,66.26L33.84,65.8L33.53,65.11L33.14,64.6L32.8,64.25L32.24,63.77L32.28,63.39L32.69,63.18L32.83,62.73L32.8,62.27L32.35,62L31.82,61.85L31.1,61.04L30.61,60.62L30.26,60.36L30.09,60.08L30.26,59.87L30.51,59.59L30.54,59.15L30.44,58.73L30.44,58.35L30.78,58.24L31.13,58.3L31.51,58.07L31.96,57.98L32.52,57.93L32.8,57.68L32.76,57.23L32.41,56.35L32.1,55.98L31.96,55.45L32.24,54.41L32.41,53.75L33.04,53.06L34.91,51.56L36.61,50.55L37.41,50.43L38.04,50.06L38.42,49.49L38.52,48.85L38.42,48.31L38.11,47.5L37.76,46.49L37.45,45.92L37.72,45.25L38.17,44.32L39.08,42.93L39.95,41.43L40.01,40.99L40.12,40.09L40.53,38.22L40.74,37.21L40.64,36.81L40.81,36.47L41.37,36.2L42.65,35.94L43.52,35.38L44.84,34.34L45.98,33.22L46.88,32.86L48.58,31.82L49.56,31.17L49.9,30.96L50.87,30.5L52.57,30.33L54,30.16L54.8,29.86L55.94,29.72L56.74,29.37L57.6,29.37L59.27,29L59.83,28.48L60.31,27.84L60.94,27.29L61.7,27.16L62.53,27.26L63.54,27.24L64.75,27.07L65.34,27.49L65.59,28.01L66.35,28.53L66.87,28.5L67.39,28.4L68.12,28.83L68.6,28.78L68.92,28.53L68.99,27.89L69.16,27.56L69.51,25.6L70.1,22.34L70.62,19.39L71.24,16.13L71.83,12.76L72.46,9.341L72.98,6.545L73.39,4.151L73.67,2.678L74.09,0.736L74.26,-0.954L74.43,-1.439L74.33,-1.858L73.95,-2.444L73.95,-2.695L74.02,-3.046L73.95,-3.33L73.57,-3.648L73.29,-3.849L73.05,-4.117L72.94,-4.502L72.73,-4.887L72.66,-5.288L72.39,-5.606L72.32,-6.008L72.49,-6.393L72.59,-6.794L72.49,-7.179L72.39,-7.631L72.18,-8.049L71.87,-8.317L71.07,-8.601L70.31,-9.287L69.4,-9.906L68.22,-11.08L67.98,-11.63L67.98,-13.14L68.02,-14.79L68.08,-17.27L68.12,-18.54L68.78,-18.61L69.37,-18.64L69.99,-18.72L70.51,-18.82L71,-18.99L71.35,-19.23L71.8,-19.38L72.14,-19.33L72.46,-19.53L72.84,-19.71L73.22,-19.86L73.74,-20L74.22,-19.7L74.5,-19.39L74.81,-19.24L75.13,-19.28L75.34,-19.24L75.54,-19.01L75.82,-18.99L76.24,-19.04L76.62,-19.09L76.79,-19.16L76.79,-19.31L76.72,-19.58L76.58,-19.83L76.69,-20.23L76.69,-20.7L76.72,-21.28L76.41,-21.62L76.13,-22.24L75.79,-22.76L75.27,-23.09L74.81,-23.23L74.4,-23.01L74.02,-22.97L73.74,-23.16L73.29,-23.18L72.8,-23.24L72.32,-23.31L71.38,-23.18L71.03,-23.34L70.58,-23.36L70.06,-23.18L70.1,-25.59L70.1,-27.84L70.1,-29.43L70.58,-29.4L71.17,-29.69L72,-29.74L72.7,-30.04L73.05,-30.05L73.74,-29.9L74.47,-29.6L75.2,-29.55L77.11,-29.55L79.12,-29.55L81.37,-29.55L83.66,-29.55L85.61,-29.55L86.23,-29.54L85.88,-30.07L85.47,-30.76L85.61,-31.29L85.81,-31.83L86.06,-32.11L86.68,-31.81L87.17,-30.89L87.62,-30.2L88.03,-29.85L88.56,-29.82L89.11,-29.94L89.7,-30.22L90.71,-31.49L91.68,-32.58L92.2,-32.95L92.75,-33.28L93.14,-33.4L93.69,-33.37L94.18,-33.07L94.49,-32.55L95.56,-30.74L96.4,-29.39L96.71,-28.53L96.71,-26.45L96.67,-24.63L96.78,-24.38L96.92,-24.31L98.76,-24.75L98.76,-24.75L101.2,-22.52L103.1,-20.88L103.9,-20.36L104.3,-20.21L105.3,-20.31L106.6,-20.53L107.2,-20.77L107.9,-21.28L109,-22L109.9,-22.39L110.3,-22.44L110.6,-22.32L111.4,-21.89L111.8,-21.08L111.4,-20.16L111.5,-19.59L112.3,-19.63L112.9,-20.58L113.4,-21.34L114.3,-21.94L115.2,-22.81L115.8,-23.64L116.6,-24.13L117.7,-24.71L118.6,-25.08L119.4,-25.05L120.1,-25.43L120.9,-26.17L121.4,-26.76L121.8,-26.96L122.6,-26.91L123.5,-26.99L124.5,-27.71L125.4,-28.56L125.8,-30.04L126.1,-31.33L126.4,-31.58L126.7,-31.8L127.1,-31.93L128,-32.01L129.5,-32.7L130.6,-33.4L131.6,-33.55L132,-33.74L132.3,-34.39L132.5,-35.53L132.4,-36.22L130.5,-36.43L129.3,-36.43L127.2,-36.6L126.2,-36.88L126,-37.09L126,-37.3L126.2,-37.81L126.4,-38.73L126.1,-39.97L125.1,-41.94L125.1,-42L165.4,-42ZM265,-10.76L265.9,-10.71L267.2,-10.89L268,-11.35L269,-11.43L269.9,-11.38L273.1,-10.88L275,-10.73L275.7,-10.58L276.4,-10.34L276.9,-10.09L277,-9.555L276.5,-8.702L276.2,-7.815L275.9,-6.56L275.6,-6.292L275.2,-6.359L275.5,-5.238L275.4,-4.786L275.2,-4.351L274.7,-3.448L273.9,-2.293L273.7,-2.059L273.1,-1.657L272.6,-1.138L272.7,-0.653L272.9,-0.168L272.7,0.435L271.7,1.322L271.2,1.54L270.7,1.64L270.2,1.54L269.4,0.653L269.3,1.356L269.1,2.058L268.8,2.46L267.7,2.41L267.1,2.025L266.2,1.607L266,2.762L265.4,3.548L264.8,3.799L263.8,3.967L263.3,4.302L262.3,4.034L261.3,3.515L260.8,3.465L260.3,3.883L258.2,3.967L257.1,4.402L256.5,4.268L255.6,3.398L255.4,2.828L254.9,1.657L254.4,0.251L254.1,-1.004L254.4,-2.109L255,-2.059L255.7,-1.908L255.8,-1.975L255.8,-2.326L255.7,-2.628L254.6,-2.577L253.9,-3.23L253.7,-4.234L253.9,-6.309L254,-6.744L254.5,-7.346L254.6,-7.865L254.5,-8.434L254.7,-9.455L255.2,-10.32L257,-11.45L259,-11.85ZM318,216.4L318.3,216.7L317.7,216.7L317.1,216.9L316.1,217.1L315.8,216.7L316.6,216.1L316.9,215.7L317.1,215.8L317.4,216.1ZM275.1,251L274.9,251.1L274.3,249.8L275.5,248.5L275.9,249L275.6,250.1L275.2,250.8ZM307.1,224.3L307.1,224.8L306.7,224.5L305.6,224.7L305.2,224.3L306.7,222.6L307,222.8L307.2,223.1L307.4,223.6L307.2,223.9ZM314.4,15.39L313.5,16.33L313.8,15.24L313.6,14.48L313.7,13.9L314.4,13.33L314.6,13.24L314.5,13.93L314.6,14.15ZM369.9,114.4L369.5,114.6L369.5,114L370.5,113.2L370.6,112.2L371.1,112.7L371.3,113.1L371.3,113.4ZM368.4,118.1L368,118.7L367.7,118.6L367.5,118.2L367.2,117.8L367.3,117.5L367.6,117.4L368.3,117.4ZM310.7,-0.251L310.1,0.201L309.9,0.452L309.4,0.268L309.5,0L309.6,0.033L309.8,-0.753L310.7,-0.653ZM263.9,-15.54L264.3,-15.04L262.9,-13.04L262.2,-12.73L261.4,-12.68L260.3,-13.29L258.6,-13.24L258.1,-13.39L258.1,-14.26L258.8,-15.19L260.2,-15.14L262.6,-15.9ZM258.5,-31.64L257.6,-31.21L257,-31.38L256.5,-32.53L256.7,-33.49L257.4,-33.8L257.9,-33.74L258.1,-33.6L258.6,-32.05ZM255.1,-11.7L252.5,-9.806L251.6,-10.43L251.4,-10.79L251.6,-11.14L251.5,-11.29L251.8,-11.95L253.3,-12.48L254,-12.57L255,-12.4L255.1,-11.95ZM266.8,-11.88L264.2,-11.58L263,-12.06L263.3,-12.47L264.2,-13.1L265.2,-13.57L266.2,-13.77L267.2,-13.52L267.5,-12.97L267.4,-12.43ZM257.3,-14.31L257.1,-12.88L255.4,-13.49L255.5,-14.94L256.4,-15.34L257,-16.11L257.3,-17.05L257.3,-18.34L257.6,-18.57L257.8,-18.66L258,-18.57L258.1,-16.63L258.2,-15.46ZM259.9,-16.75L258.9,-16.43L258.7,-16.73L258.7,-17.94L259,-18.61L260.3,-18.79L260.4,-18.99L260.8,-19.11L261.1,-18.69L261,-18ZM243.8,0.853L242.7,1.038L244,-1.372L245.2,-2.494L245.2,-4.719L246.5,-6.694L247.7,-7.514L249.3,-7.748L250.2,-6.543L249.1,-3.113L248.8,-3.096L247.3,-1.289L245.6,-0.034ZM276,265.8L275.3,266.3L275.5,263.7L275.8,262.8L276.2,262.2L276.7,261.8L277,262.4L276.8,263.6L275.9,265.1ZM73.36,158.4L73.36,158L73.25,157.3L72.84,156.7L72.25,156.3L72.07,155.8L72.25,155.4L73.43,154.4L74.05,154.2L74.22,153.7L74.61,153.4L75.72,151.9L76.38,151L77,150.5L77.77,150.1L78.08,149.7L77.9,148.7L77.97,148.1L78.22,147.6L78.98,147.2L79.67,146.8L79.81,146.7L79.74,146.4L79.12,145.9L77.83,145.5L77,145.5L76.48,145.1L76.2,144.8L74.5,140.6L74.22,139.7L74.26,139.3L75.37,137.3L75.82,136.6L76.62,135.6L76.48,135.3L75.09,133.7L74.68,132.9L74.68,132.2L74.81,131.2L75.61,130.8L75.86,130L76.03,129.3L76.38,129L76.72,128.6L77.14,128L77.77,127.5L78.15,127.1L78.25,126L78.56,125.7L79.43,125.3L79.53,125L79.33,124.3L78.88,123.5L78.53,123.1L78.08,121.1L77.56,120.2L77.77,119.8L78.11,119.3L78.46,118.3L78.56,117.2L78.46,113L78.49,112.2L78.91,111.7L79.57,111L80.09,110.7L80.61,110.3L80.58,109.5L80.92,109.1L81.3,108.5L80.02,106.2L78.91,104.2L77.83,102.3L76.62,100.2L75.79,98.72L74.78,96.92L73.91,95.37L72.7,93.24L73.84,93.21L76.1,93.27L78.28,93.65L79.74,93.82L80.37,94.14L80.51,94.67L80.92,94.91L81.37,94.83L81.93,94.79L83.11,94.25L84.08,93.91L84.91,93.46L85.36,93.05L86.4,91.61L87.24,90.8L88,90.52L89.53,90.41L89.98,90.63L90.6,90.6L91.12,89.78L91.96,88.86L93.55,87.72L94.35,87.42L94.87,87.01L95.74,86.96L96.5,86.55L100.2,83.68L101.7,82.93L102.6,82.8L103.3,82.63L104.7,82.22L107.9,81.81L110,81.64L110.7,82.05L111.5,81.93L112.1,81.28L112.6,81.08L113,81.1L113.6,81.86L113.8,82.66L113.7,83.29L113.7,84.17L114,85.34L113.8,86.38L113,87.76L112.6,88.3L112.5,88.88L112.6,89.65L112.9,90.91L113.6,92.66L113.7,93.96L113.3,94.79L113.1,95.53L113.1,96.14L113.3,96.56L113.5,96.8L113.7,97.3L113.7,98.03L114.1,98.73L114.9,99.42L115.1,100.1L115,100.7L115.1,101.1L115.3,101.2L115.4,101.1L115.7,100.9L116,101L116.5,101.9L116.6,102L116.8,102.8L116.9,103.3L117.7,103.6L118.5,103.8L118.9,104.1L119.8,105L120.6,105.6L121.5,106L121.8,106.8L122.4,107.9L124,108.3L125.9,108.5L127.1,108.8L128.5,108.2L129.5,108.3L130.5,108.7L130.9,108.9L131.6,109.5L132.8,110.3L133.7,110.5L134.4,110.1L135,110L135.5,110.1L135.7,111L136,111.5L136.5,111.9L137.7,113L138.4,113.4L139.1,113.4L140.7,114.1L142.3,114.7L143.2,114.8L144.1,114.7L144.6,115L144.8,115.8L146.3,117.4L147,118.1L147.8,118.6L149.8,118.6L150.5,118.8L151.4,118.6L154.1,118.4L154.7,118.3L156.2,119L158.1,120L159.3,120.8L160.1,121.3L160.6,122L161,122.7L161.1,123.5L160.9,124.3L160.6,124.6L160.4,125.2L160.6,125.9L161.2,126.6L161.4,127.5L161.8,129L162.1,129.5L162.4,134.2L161.1,134.2L159.4,134.3L159.9,134.7L161.3,136.5L162.7,138.1L162.9,140.7L163.1,142.3L163.2,144.6L163.3,146L166.7,146.1L170.5,146.3L175.1,146.4L179.1,146.6L179.5,146.6L180.2,146.4L180.7,146.1L181,146.1L181,146.7L180.9,147.4L180.9,148.2L179.8,149.8L179.7,150.3L179.9,152.5L180.3,154.1L180.5,155.7L181,156.2L182.3,157L184.4,158.5L185.2,158.7L185.9,158.5L186.3,159.1L186.4,160.1L187.6,162.9L188.3,164.7L188.6,165.3L189.2,165.6L189.1,165.9L188.6,165.9L188.4,166.3L187.8,168.3L187,170.9L186.4,172.7L186.9,172.8L186.9,173.3L187,174.1L186.4,174.2L186.2,174.4L185.5,175.9L184.6,177.9L183.6,180L183,181.2L184,182.1L185.6,183.6L185.4,184L184.7,184.3L184.1,184.4L183.7,185L183.4,185.4L182.8,185.5L183,183.8L182.8,182.3L182.6,182L179.7,180.2L177.2,178.6L173.8,176.5L169.5,176.6L165,176.6L160.7,177.6L156.5,178.5L154.5,178.9L150.5,179.8L148.1,180.2L147.5,181.9L146.6,184.4L145.6,185.9L144.6,187.4L143.1,189.6L143.1,192.3L143.1,194.8L142,198.4L141.2,201.4L140.3,204.4L139.7,206.4L139.5,206.9L139.4,206.8L138.6,206.1L137.9,205L137.7,204.5L137.6,204.5L133.5,204.5L129.6,204.5L129.2,204.8L128.6,204.8L128.2,204.5L127.8,204.6L127.2,204.8L126.7,205.2L125.2,208.3L124.5,209.6L123.9,210.8L123.5,212.8L123.4,213.1L122.9,212.4L122.2,210.6L121.9,209.5L121.4,208.3L120.7,206.9L119.7,206.4L119.2,206.3L118.4,206L116.9,205.6L116.3,205.5L112.2,205.5L111.8,205.5L110.2,205.6L109.4,205.5L108.5,204.7L106.6,203.2L106.3,202.8L105.5,202.5L105.1,202.4L104.8,202.7L104.5,203.9L104.1,205L103.7,205.7L102.3,206.1L101,206.6L100.4,206.7L99.97,207.3L99.8,208.1L99.48,208.7L97.65,209.8L97.23,210.2L97.02,211.3L96.02,212.6L95.67,213L94.07,213.4L91.96,213.8L90.74,213.8L89.91,213.7L89.67,213.4L89.08,213.1L89.01,212.7L88.97,212.1L89.14,211L89.08,209.6L88.42,208L88.45,207.4L88.38,206.6L88.03,205.1L87.17,204.3L86.96,203L86.86,201.9L86.13,200.5L86.02,198.8L86.02,197.2L84.91,195.5L83.73,193.6L82.8,193.3L82.55,193.1L82.45,192.6L82.41,191.7L82.48,191.2L83.21,190.4L83.25,190.3L83.11,190.1L81.23,188.9L80.75,188.5L80.61,188.1L80.61,187.7L81.06,187.3L81.3,187L80.85,186.2L80.89,185.4L80.61,185L80.64,184.8L80.92,184.5L82.14,184.3L82.52,183.5L82.52,182.8L82.34,182.4L81.2,181.2L81.2,181L82.38,179.3L83.25,178.3L83.45,178L83.39,177.8L83.18,177.5L82.66,177.1L81.93,176.6L81.37,176.1L80.61,175.3L79.64,174.6L78.94,173.9L78.6,173.3L78.6,172.7L78.49,171.7L78.04,170.1L77.9,169L77.69,167.8L77.52,167.1L77.38,166.3L77.07,165.5L76.9,164.9L77.14,164.5L77.42,164.2L77.38,164L75.58,163.1L75.27,162.9L74.85,161.1L73.53,159.6ZM51.77,482L51.81,481.7L52.33,481.1L54.1,480.8L54.27,479.7L55.63,478.3L55.59,476.9L54.73,476L53.89,474.7L53.27,473.5L51.19,472.8L48.97,472.4L48.69,471.3L48.76,470.7L49.8,470.9L51.46,470.7L52.71,470.6L53.62,470.5L54.62,470.3L55.56,470.8L56.49,470.5L56.88,468.7L57.47,467.8L57.57,466.9L56.95,466.2L55.87,466L51.12,465.4L50.98,464.7L51.01,463.5L51.19,462.3L51.19,461.7L51.6,461.1L52.12,460L52.47,459.3L52.12,458.3L51.36,456.9L51.91,456.3L51.95,455.5L51.78,454.8L50.98,453.9L50.28,452.8L50.28,451.5L51.12,451.2L51.64,450.8L51.78,450.1L51.46,449.1L50.35,448.9L48.86,448.3L48.38,447.8L47.96,446.8L48.27,444L48.13,442.3L47.99,441.4L48.34,440.7L48.86,440L48.62,438.5L48.17,437.8L48.34,437.1L48.76,436.5L49.1,435.8L49.45,435.6L49.9,436L50.7,435.8L51.67,435.2L51.78,434.5L51.6,433.5L50.87,430.9L50.22,429.3L50.35,428.8L50.6,428.2L50.42,426L50.46,424.7L50.53,420.9L50.6,419.6L49.94,418.3L50.04,417.1L50.49,416.2L50.94,415L51.26,413.9L51.6,413.4L52.19,413.2L52.3,412.6L52.05,412.1L51.29,411.4L51.12,410.6L51.29,409.9L51.64,409.5L52.23,409.5L52.64,408.6L52.78,407.4L52.85,406.9L52.54,406.2L52.3,404.7L52.05,403.8L52.33,403.4L52.71,403.2L53.34,403.5L53.82,403.3L53.89,402.9L53.93,402.3L54.1,402L54.52,400.9L54.97,399.4L55.07,398.4L54.9,395.7L55.14,395L55.59,394.5L56.25,393.9L57.12,393.5L58.16,392.8L59.48,392.6L60,391.9L60.38,390.9L60.48,390.2L59.97,389.6L59.31,389L58.99,387.4L58.82,385.9L58.75,384L58.09,382.4L57.4,380.6L57.22,379L57.43,378.2L57.71,376.8L57.43,376.1L57.09,375L57.43,374.1L57.88,372.8L57.81,372.1L57.47,370.4L57.15,369.5L57.47,368.5L57.99,367.6L58.37,367.1L58.3,366.3L58.47,365.6L59.24,365.2L59.93,364.4L60.42,364.3L61.04,364.3L61.42,364.1L61.6,363.5L61.7,362.8L62.67,361.9L63.23,361.1L64.23,361L64.75,360.1L64.75,359L64.65,357.9L65,356.7L64.61,354.8L64.65,353.7L64.23,352.9L64.34,352L64.13,351.4L63.5,351.2L63.3,350.5L63.57,350.1L64.16,349.8L64.86,349.3L65.38,346.6L65.66,345.8L65.9,344.9L65.86,344.4L66.21,343.7L66.63,342.6L67.29,341.6L67.67,340.9L68.05,339.9L68.15,339.4L68.6,339.1L69.16,339L69.82,338.8L70.06,338.5L70.03,338L69.99,336.8L69.78,335L69.68,332.7L69.78,331.2L70.2,329.7L70.58,328.9L70.48,328.3L70.37,327.6L69.64,327.2L68.95,327.5L68.47,327.4L67.84,326.6L67.63,325.8L67.74,324.6L68.26,323.9L68.43,323L68.15,322.7L67.53,322.1L66.94,320L67.01,318.2L66.42,317.8L66.18,316.4L65.55,315.9L65.34,314.9L65.14,313.8L65.2,313.3L65.83,313.2L66.21,312.4L65.93,311.9L65.45,311.5L64.86,311.6L64.3,311.1L63.57,309.1L63.02,308L63.19,306.4L63.3,305.1L63.54,304.1L63.64,303.2L64.09,302.8L64.51,303L64.89,302.9L65.27,302.2L65.66,301.8L65.66,301.5L65.41,301.1L65.31,300.5L65.59,299.7L66.04,297.9L66.77,296L67.08,295.3L67.01,294.7L67.18,294.4L67.67,294.7L69.06,294.4L69.54,293.5L69.72,292.7L70.17,292.3L69.96,291.7L69.37,291.5L69.02,291.3L69.16,290.6L69.37,289L69.33,287.8L68.81,285.3L68.4,282.9L68.67,282.1L69.61,280.9L70.31,280.4L70.44,279.8L71.14,276.9L71.21,275.4L71.66,274.5L71.97,272.9L73.22,271.5L73.57,270.5L74.09,270.4L74.33,270.1L74.99,269.1L75.86,268L76.62,267.5L76.79,266.7L77.14,265.5L77.87,263.7L78.28,262.3L78.84,261.9L79.5,260.1L79.78,259.1L80.51,258.7L81.09,258.6L81.65,259.1L82.21,259L82.76,258.4L84.01,258L84.6,257.8L84.84,257.2L84.84,256.1L84.32,255.4L83.25,253.9L82.31,252.3L82.21,251.7L82.21,251.2L82.38,250.5L82.83,249.7L83.94,248.3L83.8,247.4L83,243.9L82.69,243L82.14,241.2L82.21,240.5L82.73,238.5L83.14,237.8L83.77,237.6L84.11,237.3L84.22,237L83.8,236.6L83.63,236L83.42,235.2L82.83,234.9L82.52,234.3L82.52,233.3L83.04,232.1L83.63,231.7L83.84,231.2L84.46,230.7L85.05,230.3L85.5,229.6L87.48,228.7L89.01,228L92.06,226.7L94.14,225.8L94.31,225.2L94.49,224.7L95.46,221.6L96.71,217.5L97.47,214.9L95.67,213L96.02,212.6L97.02,211.3L97.23,210.2L97.65,209.8L99.48,208.7L99.8,208.1L99.97,207.3L100.4,206.7L101,206.6L102.3,206.1L103.7,205.7L104.1,205L104.5,203.9L104.8,202.7L105.1,202.4L105.5,202.5L106.3,202.8L106.6,203.2L108.5,204.7L109.4,205.5L110.2,205.6L111.8,205.5L112.2,205.5L116.3,205.5L116.9,205.6L118.4,206L119.2,206.3L119.7,206.4L120.7,206.9L121.4,208.3L121.9,209.5L122.2,210.6L122.9,212.4L123.4,213.1L123.5,212.8L123.9,210.8L124.5,209.6L125.2,208.3L126.7,205.2L127.2,204.8L127.8,204.6L128.2,204.5L128.6,204.8L129.2,204.8L129.6,204.5L133.5,204.5L137.6,204.5L137.7,204.5L137.9,205L138.6,206.1L139.4,206.8L139.5,206.9L139.7,207.2L139.7,207.5L140.5,208.1L142.2,209.1L143.7,210.9L145.1,213.6L146.4,215.5L147.7,216.8L148.8,217.7L149.9,218.3L150.5,218.7L150.5,219L151.5,219.7L153.4,220.8L154.6,221.8L155.1,222.8L156.9,223.9L160.2,225L162.5,225.6L164,225.5L166.1,226.4L168.8,228.2L170.5,229.5L171.1,230.2L172.9,231.4L177.3,233.7L179.3,234.4L180.2,234.9L180.8,235.6L181.3,235.8L181.9,235.5L183,235.8L184.7,236.6L186,237.5L187.7,239.5L188.3,240.3L188.5,241.1L188.4,241.7L187.9,242.4L187,243.1L186.7,243.5L186.6,243.8L186.4,244.4L185.6,245.7L185.4,246.3L185.4,246.8L184.8,247.3L183.5,248.2L183.2,248.6L183.2,249.1L183,249.4L182.8,249.5L182.6,250L182.3,250.8L182.3,251.8L182.5,253.1L182.4,253.5L182.2,253.7L182,254L181.9,254.6L181.7,255L181.2,255.3L181.1,255.6L181.2,255.9L180.9,256.3L180.1,256.6L179.6,257.1L179.5,257.8L179,258.4L178.4,258.9L178.1,259.6L178.5,260.9L182.7,260.4L186.1,260.9L190.2,262.1L192.9,262.6L194.2,262.2L195.2,262.2L195.8,262.7L196.7,262.8L197.7,262.5L198.7,262.8L199.4,263.5L200,263.3L200.6,262.2L201.3,261.4L202,261L202.9,260.8L204.1,261L204.9,261.4L205.6,262L206.3,262L207.1,261.3L207.5,260.6L207.5,259.7L207.8,259.1L208.4,258.7L208.9,258.2L209.1,257.6L209.9,257.2L211.2,257L211.9,256.7L212,256.2L212.4,255.8L213.1,255.4L213.6,254.9L213.8,254.3L214.3,253.9L214.9,253.7L215.6,252.4L216.3,250L216.8,246.8L216.9,242.2L217.7,242.2L218,242.5L218.6,242.7L219.2,242.3L219.6,242.1L220.4,242.1L220.9,241.7L221.4,241.6L221.7,241.8L222,242.1L222.7,242.2L223.3,242.9L223.9,243.2L224.2,244L224.6,246.3L225.3,247.6L226,249.1L226.1,249.8L225.6,250.5L225.6,251.5L225.3,253.9L225.2,254.8L225.5,255.4L225.6,256.2L225.2,257.2L224.4,258.8L223.7,259.2L223.5,259.2L222.5,260.1L221.8,260.5L221.3,260.2L220.9,260.6L220.3,261.6L219.7,262.1L218.5,262.3L218.2,262.4L217.5,262.4L216.9,262.6L216.4,263.2L215.9,263.4L215.4,263.2L214.9,263.4L214.4,264L214.2,264.5L214.1,265.2L213.6,265.6L212.8,265.8L212.6,266.1L212.6,266.5L212.3,266.9L210.9,267.2L209.9,267.9L209.3,268.7L208.6,269.3L207.6,269.7L206.2,270.6L206,271.1L206.6,271.6L206.7,272.1L206.6,272.5L206.2,272.6L205.4,272.3L204.9,272.2L204.7,272.4L204.5,272.7L204.5,273.2L204.2,273.5L203.7,273.7L203.4,274.1L203.3,274.7L202.6,275.5L201.4,276.4L200.5,277.7L199.8,279.3L199,280.3L198.1,280.8L197.4,281.5L197.1,282.5L196.2,283.9L194.5,285.9L193.1,287.2L191.8,288L191.1,288.8L190.9,289.7L190,290.8L188.5,291.9L188.1,292.5L188.1,292.5L187.7,292.9L187.7,293.7L187.1,294.7L185.9,295.9L185.5,297L186.1,298.3L186.1,300L185.9,300.6L185.4,300.8L185.3,301.3L185.6,301.9L185.6,302.7L185.3,303.8L184.8,304.9L184,306.2L183.8,307.1L184.2,307.6L184.4,308.1L184.4,308.6L184.3,309.3L183.9,310.3L183.4,311L182.7,311.4L182.5,312L182.8,312.7L182.8,313.4L182.6,314.2L182.7,315L183.1,315.7L183.1,316.5L182.4,318.2L182.2,319.3L182.7,323.8L182.4,324.5L181.9,325.2L181.3,325.2L180.7,325.1L180.2,325.6L179.9,327.6L179,332L179.2,333L179.9,334.7L180.2,335.7L180.4,336.6L180.5,338.1L180.1,338.8L179.7,338.9L179.3,339.3L179.8,341.2L180.3,342.1L181.6,343.8L186.6,346.3L188.7,347.8L191,349.8L192.3,351.8L192.4,353.5L190.5,356.1L190.3,358.2L190.7,359.7L191.4,361.1L193.2,362.9L194.6,363.6L196.4,363.5L196.7,364L196.8,364.5L197.1,368.2L197.1,369.6L196.6,370.9L193.1,376.8L190.1,380.4L189,382.4L188.7,384.6L187.7,385.6L182.6,388.9L174.6,391.8L168.2,393.3L166.7,393.8L156.3,395.5L154.3,395.8L151.7,395.6L149.6,395.8L147.2,395.4L145.1,394.8L143.9,393.5L142.5,393.4L142.1,394L142.8,395.7L142.5,397.7L142.9,398.9L143.7,399.1L144.5,399.7L145.3,400.5L144,400.6L144.5,401.2L145,401.6L144.9,402.9L144.5,406.1L143.3,406.8L143,407L142.6,407.7L141.9,410.8L141.6,412.8L142,414.1L143.4,416.9L142.9,418.6L142,419.6L138.1,421.6L136.5,422.4L134.1,423L130.1,423.1L128.7,422.9L125.3,421.1L122.8,420L120.5,419.1L118.3,418.6L118.6,418.4L118.7,417.9L118.1,417.6L117.6,417.6L116.2,418.5L115.5,419.5L115.4,420.3L115.3,422.4L115.6,424.1L116.7,428.3L116.8,430.6L116.3,433.5L117,435.2L117.8,436L119.7,436.7L120.5,437.3L121.3,437.2L121.6,437.4L121.4,437.8L120.9,438.5L121,439.3L122.4,439.5L123.9,439.4L125.5,439L125.9,438.5L125.9,437.3L124.1,437.1L124.3,436.7L125.7,436.2L127.5,435.5L128.5,435.3L129.1,435.9L129.5,436.3L130.1,437.6L130.4,439.2L130.4,441.1L130.2,443L129.9,443.6L129.4,444.4L126.1,445.4L125.2,445.1L124.4,443.7L124.1,442.3L123.4,441.3L121.8,440.6L120.2,440.8L118.6,442.1L117.1,442.6L116.6,443.8L120.4,445.7L122.2,446.3L122.8,446.3L123.4,446.5L122.9,447.3L122.3,447.7L119.6,448.7L118.4,449.4L117,450.8L115,453.9L114.4,454.5L114.1,455.3L113.9,457.4L114.5,460.9L113.8,462.4L114.3,464L114.1,465.1L113.4,466.7L110.6,469.1L110.1,471L111.1,472L111,473L110.7,473.8L109.5,473.8L105.4,473.3L103.9,474.2L102.4,475.4L102.1,475.9L101.6,476.2L98.69,476.9L98.13,477.3L95.08,481.6L94.91,482L51.77,482ZM147,398L147.1,398.8L146.5,398.7L145.4,397.9L144.9,397.2L144.9,396.9L146.1,397.2L146.6,397.5Z" fill="#D8E2E7" stroke="#3F464B" stroke-width="0.85" vector-effect="non-scaling-stroke"/><path d="M182.8,185.5L183,186.3L183.1,186.8L183.4,187.3L183.7,187.8L184,188.1L184.3,188.6L184.2,189.2L184.4,189.9L184.5,190.6L184.7,190.8L185.1,190.9L185.4,191.5L185.2,191.8L185.3,192.2L185.4,192.5L185.3,192.8L185.3,193.1L185.6,193.3L186,194.1L186,195.5L185.6,196.3L185.4,196.9L185.3,197.2L185.5,197.8L185.2,198.4L184.8,199.2L184.9,199.8L185,200.3L185,200.8L185.1,201.4L185,201.9L184.8,202.4L184.8,202.9L184.9,203.6L184.7,204.1L184.5,204.6L184.5,205L184.7,205.6L185.5,205.9L186,206L186.6,205.6L187,205.5L187.8,205.8L188.4,206.4L189.4,206.5L190.1,206.5L190.7,206.7L191.6,206.5L192.6,206.7L193.7,207L194.6,207.3L195.4,207.2L196.1,207.2L196.8,206.9L197.5,206.9L198,206.4L198.3,205.9L198.5,205.5L199.3,205.3L199.8,205.5L200.2,206.3L200.9,206.9L201.2,207.2L201.7,207.4L202.9,207.4L203.6,207.4L204.5,207.7L205,207.7L205.5,208.2L206,208.7L206,209.8L206.4,210.6L207,211L207.3,211.5L207.2,212.2L206.9,212.9L206.9,213.7L207.2,214.5L207.2,215.2L207.4,215.9L207.8,216.5L207.9,217.5L207.9,218.3L208.1,218.7L208.2,219.3L208.1,219.8L208,220.4L208,221L208.2,221.5L208.8,222.1L209,223.2L209,224L209.2,224.9L209.7,225.3L210.4,225.5L211.3,225.6L212.4,225.4L213.4,225.2L213.9,224.9L215,224.3L215.9,223.9L216.4,223.6L216.8,223.4L217.8,223.9L218.6,224.4L219.3,225.1L220.5,225.9L220.3,226.1L219.8,226.8L219.8,227.6L220.2,228.7L219.8,231L218.9,234.6L218.5,236.7L218.6,237.3L218.3,238.4L217,240.6L216.9,242.2L216.8,246.8L216.3,250L215.6,252.4L214.9,253.7L214.3,253.9L213.8,254.3L213.6,254.9L213.1,255.4L212.4,255.8L212,256.2L211.9,256.7L211.2,257L209.9,257.2L209.1,257.6L208.9,258.2L208.4,258.7L207.8,259.1L207.5,259.7L207.5,260.6L207.1,261.3L206.3,262L205.6,262L204.9,261.4L204.1,261L202.9,260.8L202,261L201.3,261.4L200.6,262.2L200,263.3L199.4,263.5L198.7,262.8L197.7,262.5L196.7,262.8L195.8,262.7L195.2,262.2L194.2,262.2L192.9,262.6L190.2,262.1L186.1,260.9L182.7,260.4L178.5,260.9L178.1,259.6L178.4,258.9L179,258.4L179.5,257.8L179.6,257.1L180.1,256.6L180.9,256.3L181.2,255.9L181.1,255.6L181.2,255.3L181.7,255L181.9,254.6L182,254L182.2,253.7L182.4,253.5L182.5,253.1L182.3,251.8L182.3,250.8L182.6,250L182.8,249.5L183,249.4L183.2,249.1L183.2,248.6L183.5,248.2L184.8,247.3L185.4,246.8L185.4,246.3L185.6,245.7L186.4,244.4L186.6,243.8L186.7,243.5L187,243.1L187.9,242.4L188.4,241.7L188.5,241.1L188.3,240.3L187.7,239.5L186,237.5L184.7,236.6L183,235.8L181.9,235.5L181.3,235.8L180.8,235.6L180.2,234.9L179.3,234.4L177.3,233.7L172.9,231.4L171.1,230.2L170.5,229.5L168.8,228.2L166.1,226.4L164,225.5L162.5,225.6L160.2,225L156.9,223.9L155.1,222.8L154.6,221.8L153.4,220.8L151.5,219.7L150.5,219L150.5,218.7L149.9,218.3L148.8,217.7L147.7,216.8L146.4,215.5L145.1,213.6L143.7,210.9L142.2,209.1L140.5,208.1L139.7,207.5L139.7,207.2L139.5,206.9L139.7,206.4L140.3,204.4L141.2,201.4L142,198.4L143.1,194.8L143.1,192.3L143.1,189.6L144.6,187.4L145.6,185.9L146.6,184.4L147.5,181.9L148.1,180.2L150.5,179.8L154.5,178.9L156.5,178.5L160.7,177.6L165,176.6L169.5,176.6L173.8,176.5L177.2,178.6L179.7,180.2L182.6,182L182.8,182.3L183,183.8Z" fill="#8B341D" stroke="#2C160F" stroke-width="1.1" vector-effect="non-scaling-stroke"/></svg>