<svg xmlns="http://www.w3.org/2000/svg" viewBox="0 0 360 440" width="360" height="440" role="img" aria-label="Regional map with Qatar highlighted"><rect width="100%" height="100%" fill="#7FA6D6"/><path d="M-42,475.9L-39.01,473.6L-37.76,472.5L-36.99,471.5L-35.83,469.3L-34.2,468.6L-33.62,466.3L-33.72,465.2L-34.77,464.2L-35.55,461.5L-35.26,458.2L-34.97,456.8L-34.49,454.2L-32.76,453.2L-32.27,452.5L-33.62,450.9L-33.52,449.9L-30.54,447.2L-29.39,446.3L-27.46,445.5L-25.93,445.5L-24.19,445.9L-22.65,446.7L-21.21,448.1L-19.57,449.7L-17.17,450.3L-15.54,450.1L-14.09,450.9L-13.03,450.5L-11.69,449.6L-9.666,449.7L-7.742,448.8L-2.451,448.3L2.648,448.6L8.035,447.8L13.42,447.9L18.71,448L19.96,448.1L21.12,448.6L25.64,451L29.1,451.5L36.03,452.1L43.44,452.8L49.79,453.5L55.27,452.9L59.79,452.4L60.95,452.5L62.29,454L65.08,457.7L67.59,461.2L72.11,461.4L74.99,460.1L78.17,458.2L80.09,456.8L82.31,451.1L83.75,447.4L87.02,443.2L89.81,439.7L93.56,435.1L95.58,432.6L99.62,427.5L103.4,425.5L110.8,421.7L118.1,417.9L122.8,415.5L126.8,414.4L133.6,413.4L141.6,412.3L149.5,411.2L157.9,410L167.3,408.6L173.8,407.8L182.1,406.6L188.9,405.6L195,404.7L201.3,403.8L202.5,406.6L203.6,409.5L204.8,412.3L206,415.1L207.2,417.9L208.3,420.7L209.6,423.6L210.7,426.4L211.9,429.2L213.1,432L214.3,434.8L215.5,437.6L216.6,440.4L217.9,443.2L219,446L220.2,448.8L221.3,451.5L223.2,452.4L224.4,455L226,458.7L227.7,462.4L229.3,466L230.8,469.7L230.8,469.7L217.4,474.7L213.8,476.9L210.6,479.6L209,482L-42,482ZM316.8,211.5L318.5,213.8L318.7,230.2L319.2,231.3L318.2,231.5L317.1,232.7L315.9,234.6L314.3,235.6L312.9,236.7L311.6,238.1L310.5,238.4L309,236.6L308,234.9L308.2,234.4L309,234.3L309.3,233.4L308.8,232L307.8,231.6L306.6,231.5L305.3,232.1L304.1,233.3L303.3,234.6L303.2,237.1L303.6,240L303.5,241.4L302.8,243.1L302.6,245.7L303.1,247.7L303.5,248.8L303.6,249.8L302.3,253L303.4,253.5L306.8,253.8L307.9,255.9L308.6,257.3L308.4,258.2L305.9,258.9L302.9,259.6L300.7,259.4L296.6,260.3L294.5,261.8L295.2,262.7L295.9,263.4L296.3,265.4L295.6,268.1L294.5,270.8L293.1,274.1L291.5,277.9L289.2,283.7L287.4,288.2L287.2,291.4L287.2,293.6L287,297.8L285.2,300.1L284.8,300.2L282.7,299.9L282,299.8L280,299.5L276.8,299.1L272.8,298.6L267.9,297.9L262.5,297.2L256.8,296.5L250.9,295.7L244.9,294.9L239.1,294.1L233.7,293.4L228.9,292.7L224.8,292.2L221.7,291.8L219.7,291.5L218.9,291.4L216.7,291.1L215.5,289.6L214,287.7L212.6,285.8L211.1,283.9L209.6,282L208.1,280L206.7,278.2L205.2,276.2L203.7,274.3L202.3,272.4L200.8,270.5L199.3,268.6L197.8,266.7L196.4,264.8L194.9,262.9L193.4,260.9L192,259L191,257.7L190.4,256.3L190.3,252.5L190.3,251.7L191.3,250.2L191.8,251.2L192.9,252.7L194.8,252.4L195.6,252.6L196.3,257.8L197.7,259.7L199.4,260.5L205.1,260.9L208.5,260.2L215.5,256.8L219.2,255.5L229.3,255.8L237.4,257.2L250,258L252.5,257.8L259.2,255L263.5,252.6L266,251.9L267.6,249.6L268.7,246.5L269.6,244.5L270.9,243.5L272,241.9L272.9,239L275.3,236.3L284.6,229.5L290.1,223.7L290.6,221.8L293.7,219L296,216L307.2,207.2L309.4,203.6L310.8,199.5L310.9,199.2L311.8,199L313.2,199.7L313.4,202.7L312.9,205.6L312.8,208.6L312.6,210.3L313.7,211.6L315.4,212.2L316.2,212.1ZM316.3,223.7L316.5,222.5L316.2,221.8L315,221.7L314.5,222.8L314.3,224.4L315.2,224.5ZM237.5,252.5L235.5,252.7L233.7,251.5L237.5,250.1L238.5,249.4L239.6,248L240.5,249.2L239.5,251L238.8,251.8ZM218.3,251.6L217.9,251.8L217.5,250.2L217.5,249.8L218.7,249L219.4,250.3ZM253.4,254.8L253.4,255.9L250.7,255.6L250,256.1L247.7,255.8L245.6,255.1L247,253.9L250.9,252.5L252.5,253.8ZM267.8,247.1L267.5,247.7L266.7,247.6L264.9,247.1L264.2,246.2L265.5,245.3L266,245.2L266.7,246.2ZM-42,65.05L-35.93,70.04L-26.89,77.39L-17.94,84.62L-9.281,91.72L-2.259,97.38L6.496,104.5L7.266,104.8L16.12,105.6L28.14,106.7L40.17,107.7L51.04,108.8L55.75,107.7L60.85,108.4L67.78,109.3L71.92,109.9L79.8,111L82.21,115.6L83.07,118.9L83.84,122L86.15,124.9L91.54,124.8L96.25,124.8L102.1,124.7L106.8,124.6L108.3,127.5L109,130.3L111.7,137.1L115.7,142.3L116.6,144.2L117.2,147.1L116.6,148.2L116.3,149.4L119.2,152.3L124.1,154.7L125.9,155.3L128,156.4L126.4,158.1L129.3,161.9L132.5,165.8L136.1,166.7L140.9,172.6L148,176.3L152.4,181.3L152.1,181.4L150.7,180.9L149.2,180.2L148.7,180.9L148.7,182.9L149.2,185.4L151.4,187.5L153.4,189L154.2,191.9L152.5,198.1L152.1,198.1L151,197.5L149.8,197.4L149.3,197.8L150.6,202.2L151.9,205.6L153.5,208.3L154.8,212.3L155.9,213.9L160.6,218.2L162,221.6L163.3,228.2L166.2,231.7L167.8,234.6L169.9,236.9L171.3,240.1L173.2,242.6L174.3,243.2L175.7,243.5L177.6,243.5L179.9,242.9L182.3,242.3L184.2,243.5L186.1,243.3L186.3,244.5L185.1,246.1L183.4,250.1L185.7,250.7L187.8,251L189.5,251.7L190.3,251.7L190.3,252.5L190.4,256.3L191,257.7L192,259L193.4,260.9L194.9,262.9L196.4,264.8L197.8,266.7L199.3,268.6L200.8,270.5L202.3,272.4L203.7,274.3L205.2,276.2L206.7,278.2L208.1,280L209.6,282L211.1,283.9L212.6,285.8L214,287.7L215.5,289.6L216.7,291.1L218.9,291.4L219.7,291.5L221.7,291.8L224.8,292.2L228.9,292.7L233.7,293.4L239.1,294.1L244.9,294.9L250.9,295.7L256.8,296.5L262.5,297.2L267.9,297.9L272.8,298.6L276.8,299.1L280,299.5L282,299.8L282.7,299.9L284.8,300.2L285.2,300.1L287,297.8L289,301L290.6,303.8L292.8,307.5L295.2,311.5L297.5,315.2L299.1,318.1L298.3,321L297.3,324.2L296.4,327.3L295.3,330.5L294.3,333.7L293.4,336.9L292.4,340.1L291.5,343.2L290.4,346.4L289.4,349.6L288.5,352.8L287.5,355.9L286.5,359.1L285.6,362.2L284.5,365.4L283.6,368.5L282.6,371.7L281.4,375.5L278.6,376.5L274,378.1L269.4,379.7L264.8,381.4L260.2,383L255.6,384.7L251,386.3L246.4,387.9L241.8,389.5L237.2,391.2L232.6,392.8L228.1,394.4L223.4,396L218.8,397.6L214.2,399.3L209.7,400.9L205.1,402.5L201.3,403.8L201.3,403.8L195,404.7L188.9,405.6L182.1,406.6L173.8,407.8L167.3,408.6L157.9,410L149.5,411.2L141.6,412.3L133.6,413.4L126.8,414.4L122.8,415.5L118.1,417.9L110.8,421.7L103.4,425.5L99.62,427.5L95.58,432.6L93.56,435.1L89.81,439.7L87.02,443.2L83.75,447.4L82.31,451.1L80.09,456.8L78.17,458.2L74.99,460.1L72.11,461.4L67.59,461.2L65.08,457.7L62.29,454L60.95,452.5L59.79,452.4L55.27,452.9L49.79,453.5L43.44,452.8L36.03,452.1L29.1,451.5L25.64,451L21.12,448.6L19.96,448.1L18.71,448L13.42,447.9L8.035,447.8L2.648,448.6L-2.451,448.3L-7.742,448.8L-9.666,449.7L-11.69,449.6L-13.03,450.5L-14.09,450.9L-15.54,450.1L-17.17,450.3L-19.57,449.7L-21.21,448.1L-22.65,446.7L-24.19,445.9L-25.93,445.5L-27.46,445.5L-29.39,446.3L-30.54,447.2L-33.52,449.9L-33.62,450.9L-32.27,452.5L-32.76,453.2L-34.49,454.2L-34.97,456.8L-35.26,458.2L-35.55,461.5L-34.77,464.2L-33.72,465.2L-33.62,466.3L-34.2,468.6L-35.83,469.3L-36.99,471.5L-37.76,472.5L-39.01,473.6L-42,475.9L-42,65.05ZM381.5,369.2L379.9,369.6L379.3,369.4L379.4,365.8L383.2,361.2L385.8,356L387.7,360.7L384.5,363.3L382.8,367.8ZM402,326L398.8,332.5L397.1,334.4L390.7,338.6L386.1,343.6L380.6,352.4L376.5,361L374.9,363.8L371.5,364.4L369.3,364.1L367.8,363.3L368.4,361L368.8,358.3L366.8,358.6L365,359.1L360.8,365.6L358.5,368.4L358,372L356.9,376.7L355.3,380.9L354.6,384.5L354.6,386.5L355.8,391.5L355.9,396.6L356.6,399.6L357.2,403.2L355.2,404.4L353.5,404.9L347,405.3L340.2,406.5L334.4,408.6L330.8,410.7L326.3,415.4L323.5,427.2L319,432.3L316,433.3L308.7,433.7L298.5,435.1L294.8,436.3L288.9,443.5L288.4,445.8L289.5,447.5L289.9,449.3L289.4,451L286.6,455.5L283.8,458.8L276,460.9L273.1,459.7L270.5,459.1L265.4,459L257.1,459.8L254.1,462.2L249.3,464L244.9,466.6L236.5,467.6L230.8,469.7L230.8,469.7L229.3,466L227.7,462.4L226,458.7L224.4,455L223.2,452.4L221.3,451.5L220.2,448.8L219,446L217.9,443.2L216.6,440.4L215.5,437.6L214.3,434.8L213.1,432L211.9,429.2L210.7,426.4L209.6,423.6L208.3,420.7L207.2,417.9L206,415.1L204.8,412.3L203.6,409.5L202.5,406.6L201.3,403.8L205.1,402.5L209.7,400.9L214.2,399.3L218.8,397.6L223.4,396L228.1,394.4L232.6,392.8L237.2,391.2L241.8,389.5L246.4,387.9L251,386.3L255.6,384.7L260.2,383L264.8,381.4L269.4,379.7L274,378.1L278.6,376.5L281.4,375.5L282.6,371.7L283.6,368.5L284.5,365.4L285.6,362.2L286.5,359.1L287.5,355.9L288.5,352.8L289.4,349.6L290.4,346.4L291.5,343.2L292.4,340.1L293.4,336.9L294.3,333.7L295.3,330.5L296.4,327.3L297.3,324.2L298.3,321L299.1,318.1L297.5,315.2L295.2,311.5L292.8,307.5L290.6,303.8L289,301L287,297.8L287.2,293.6L287.2,291.4L287.4,288.2L289.2,283.7L291.5,277.9L293.1,274.1L294.5,270.8L295.6,268.1L296.3,265.4L295.9,263.4L295.2,262.7L294.5,261.8L296.6,260.3L300.7,259.4L302.9,259.6L305.9,258.9L308.4,258.2L308.6,257.3L307.9,255.9L306.8,253.8L303.4,253.5L302.3,253L303.6,249.8L303.5,248.8L303.1,247.7L302.6,245.7L302.8,243.1L303.5,241.4L303.6,240L303.2,237.1L303.3,234.6L304.1,233.3L305.3,232.1L306.6,231.5L307.8,231.6L308.8,232L309.3,233.4L309,234.3L308.2,234.4L308,234.9L309,236.6L310.5,238.4L311.6,238.1L312.9,236.7L314.3,235.6L315.9,234.6L317.1,232.7L318.2,231.5L319.2,231.3L321.9,239L325.9,246.3L329.5,250.3L333.1,255.7L338.8,260.6L341.4,262.3L351.8,265.8L357.5,267.1L365.4,268.3L370.9,271L372.7,271.2L375.5,270.4L377.7,270.5L382.8,274.2L384.4,277.7L386.6,279.5L388.5,282.4L389.8,285.4L394.1,290L397.3,295.2L400.5,299L402,300.3L402,326ZM316.8,211.5L316.2,212.1L315.4,212.2L313.7,211.6L312.6,210.3L312.8,208.6L312.9,205.6L313.4,202.7L313.2,199.7L311.8,199L310.9,199.2L313.2,194.9L314.1,194.2L314.8,194.5L316.9,194.1L318,191.8L318.9,190.5L319.8,190.6L320.2,191.3L319.9,194.9L319.9,197.9L318.8,206.9L317.5,208.4L316.9,209.7ZM316.3,223.7L315.2,224.5L314.3,224.4L314.5,222.8L315,221.7L316.2,221.8L316.5,222.5ZM102.3,91.56L100.8,92.26L99.81,91.94L98.76,90.28L97.12,86.17L98.08,84.62L97.99,83.98L98.18,83.5L98.66,83.17L99.24,81.25L99.91,80.61L101.1,81.94L104.2,86.65L104.2,88.63L104,89.38ZM106.8,124.6L102.1,124.7L96.25,124.8L91.54,124.8L86.15,124.9L83.84,122L83.07,118.9L82.21,115.6L79.8,111L71.92,109.9L67.78,109.3L60.85,108.4L55.75,107.7L60.08,102.8L62.1,100L65.76,94.23L67.59,90.07L69.41,85.42L70.95,81.84L71.34,81.19L72.2,79.96L74.22,78.68L77.11,77.5L82.02,77.01L85.48,76.96L86.25,77.01L88.37,77.6L94.43,80.5L94.23,81.62L95.1,85.05L97.02,88.73L98.66,91.72L98.85,93.17L97.41,92.95L96.25,92.36L94.14,91.78L90.1,95.78L87.6,97.91L87.6,98.65L90.87,99.51L93.27,99.45L94.91,98.87L96.35,99.83L97.31,102.3L97.7,104.2L99.91,111.3L101.7,113.7L104,117.9L104.9,120.1L105.4,121.9ZM28.67,-42L32.86,-36.01L34.49,-33.34L36.8,-34.06L37.67,-34.01L38.34,-33.56L38.72,-32.67L38.72,-31.5L38.15,-29.77L41.03,-29.11L42.09,-27.33L45.46,-21.39L45.27,-19.61L43.73,-16.84L43.73,-14.96L44.02,-13.3L44.5,-12.69L49.5,-12.47L51.62,-11.81L56.72,-8.771L62.58,-4.137L67.39,-0.336L71.53,2.855L75.86,2.635L77.11,3.24L78.17,4.229L79.42,6.866L81.92,12.85L84.04,14.87L87.31,19.63L90.39,24.11L88.37,30.16L86.44,36.47L86.44,44.56L86.44,48.89L90.58,49.06L95.29,49.27L95.29,54.46L95.29,59.65L95.39,65.57L96.73,65.84L98.95,67.08L99.81,69.01L101.1,70.04L102.4,70.2L103.9,71.16L105.2,72.88L105.7,74.17L105.3,75.03L105.6,76.58L106.5,78.84L107.8,79.86L109.5,81.14L107.1,81.89L104.4,81.3L98.76,78.73L96.93,78.62L94.52,79.64L94.43,80.5L88.37,77.6L86.25,77.01L85.48,76.96L82.02,77.01L77.11,77.5L74.22,78.68L72.2,79.96L71.34,81.19L70.95,81.84L69.41,85.42L67.59,90.07L65.76,94.23L62.1,100L60.08,102.8L55.75,107.7L51.04,108.8L40.17,107.7L28.14,106.7L16.12,105.6L7.266,104.8L6.496,104.5L-2.259,97.38L-9.281,91.72L-17.94,84.62L-26.89,77.39L-35.93,70.04L-42,65.05L-42,-42ZM313.8,173.6L311.3,177.2L307.5,180.2L305.9,179.3L304.7,179.3L302,180.5L300.1,180.6L296.6,182.7L293.4,183.7L291.2,183.6L290.4,183.4L289.9,182L289.9,181.5L291.4,181.8L296.3,179.9L302.4,176.9L303,175.5L302,173.3L302.3,172.8L306.3,173.9L310.7,171.7L314.4,171.1L316.3,172.7ZM402,216.9L401.1,216.5L395,218L390.2,218.4L383.5,214.3L376.4,213.2L370.6,213.5L367.6,213.2L362.8,211.7L360.5,210.2L356.8,211.4L355,209.3L344.5,207.3L342.4,203.5L341,200L340.9,196.4L338.3,190L337.4,180.8L336.5,177.2L335,174.1L333.1,171.4L330.5,168.5L328.2,167.4L318.3,165.2L316.4,165.5L311.9,166.9L307.2,170.1L299.4,171.9L297.8,173.2L295.9,176.3L293.4,178.1L289.9,177.6L286.2,179.5L279.2,184.5L275.6,186L272.5,185.9L269.2,183.5L261.9,180.3L257.2,179.3L250.6,180L247.5,179.4L242.1,175.7L240.8,172.9L237.7,171.1L228.2,167L220.4,161.5L218.9,159.5L218,156.4L214.6,152.7L207,149.6L202.7,146.4L197.7,145.7L192.9,145.8L190.9,145.2L189,143.8L182.5,137.1L182.5,134.4L178.6,127.9L177.6,125.5L176.8,119L175.7,117.3L171.6,114.6L170.9,112.9L171.9,110.6L171.9,108.8L169.7,107.1L166.5,106.2L165.7,104.2L166.3,100.3L165.8,97.8L162.9,93.91L158.8,89.86L154.6,83.92L152.9,82.42L151.9,78.52L150.3,73.85L148,73.53L136.6,79.11L133.2,75.94L123.2,70.47L122.4,69.66L121.7,68.42L123,67.67L124.3,67.4L126.8,68.37L128.3,67.24L127.7,65.36L125.2,64.23L121.7,64.33L122.7,66.06L119.4,67.67L118.8,69.88L119.2,72.51L119.5,76.26L118.2,78.03L117.2,78.89L112.9,79.11L110.9,80.77L109.5,81.14L107.8,79.86L106.5,78.84L105.6,76.58L105.3,75.03L105.7,74.17L105.2,72.88L103.9,71.16L102.4,70.2L101.1,70.04L99.81,69.01L98.95,67.08L96.73,65.84L95.39,65.57L95.29,59.65L95.29,54.46L95.29,49.27L90.58,49.06L86.44,48.89L86.44,44.56L86.44,36.47L88.37,30.16L90.39,24.11L87.31,19.63L84.04,14.87L81.92,12.85L79.42,6.866L78.17,4.229L77.11,3.24L75.86,2.635L71.53,2.855L67.39,-0.336L62.58,-4.137L56.72,-8.771L51.62,-11.81L49.5,-12.47L44.5,-12.69L44.02,-13.3L43.73,-14.96L43.73,-16.84L45.27,-19.61L45.46,-21.39L42.09,-27.33L41.03,-29.11L38.15,-29.77L38.72,-31.5L38.72,-32.67L38.34,-33.56L37.67,-34.01L36.8,-34.06L34.49,-33.34L32.86,-36.01L28.67,-42L402,-42ZM164.7,204.6L163.8,206.8L162.9,206L160.9,202.1L161.5,199.4L160.5,195.4L161,194.3L163.5,193.7L164.1,193.9L163.3,195.2L164.8,197.4L164.9,201Z" fill="#D8E2E7" stroke="#3F464B" stroke-width="0.85" vector-effect="non-scaling-stroke"/><path d="M182.3,242.3L179.9,242.9L177.6,243.5L175.7,243.5L174.3,243.2L173.2,242.6L171.3,240.1L169.9,236.9L170.7,235.1L171,234L169.2,225.4L168.6,218.9L168.8,217.5L169.8,216L171.7,212.6L172.5,209.3L175.2,201.6L178,198.7L182.2,196.5L185.5,200.7L189.7,204L190.4,207.6L189.2,210.5L188.1,215.2L188.8,217.3L189,219.2L190.2,222.3L191.2,226.3L191.4,229.1L190.8,231.7L189.4,233.9L186.6,240.5L185.7,241.1Z" fill="#8B341D" stroke="#2C160F" stroke-width="1.1" vector-effect="non-scaling-stroke"/></svg>