<svg xmlns="http://www.w3.org/2000/svg" viewBox="0 0 360 440" width="360" height="440" role="img" aria-label="Regional map with Rwanda highlighted"><rect width="100%" height="100%" fill="#7FA6D6"/><path d="M169.1,482L169.2,482L172.9,480.4L177.5,479.4L182.4,479.4L187.2,479.4L189.9,479.4L189.9,482L169.1,482ZM32.9,482L32.9,480.9L32.9,474.7L32.9,468.5L32.9,462.3L32.9,456.2L32.9,450L32.9,443.8L32.9,437.6L32.9,431.5L32.9,428.5L37.19,428.5L42.03,428.5L47.13,428.5L52.71,428.5L58.21,428.5L63.79,428.5L67.68,428.5L68.69,428.5L69.9,428.3L69.97,427.7L68.35,424.6L68.49,423.6L68.89,421.5L69.56,419.8L70.44,417.4L70.5,416.1L69.83,411.6L69.9,409.2L70.1,406.6L70.3,404.1L70.03,402.4L70.3,401.5L70.84,400.2L71.11,398.7L71.44,398L71.38,397.5L71.04,396.4L70.77,393.9L70.37,390.4L69.97,387.9L70.64,388L72.05,388.3L72.72,389.5L73.12,390.8L74.06,390.9L76.55,391.7L77.42,392.8L77.96,395.2L77.62,396.4L76.81,397.4L77.62,398.3L79.3,398.9L80.24,398.7L83.06,397.1L84.14,396.8L85.61,396.5L86.96,396L90.65,395.3L92.66,395L93.81,394.4L94.61,394.4L95.22,394.8L94.68,396.5L94.48,398L95.22,400.9L95.75,402.2L96.96,403.2L97.83,403.7L98.78,404.7L100.8,404.5L105.2,405.9L106.5,406.6L108.4,407.3L109.7,407.5L114.2,408L115.9,408.4L119,408.9L121.5,408.9L123.3,408.7L124.5,408.3L125.2,407.8L125.6,407.5L126.1,406L127,403L127.4,402.1L128.3,401.6L129.5,401.4L130.2,401.8L131,405.3L134.4,408.3L135.6,410.9L136.5,413.1L137.3,413.7L138.5,414.5L140.7,414.8L142.6,414.8L146.5,416.4L149.6,417.7L151.9,418.6L152.9,419.3L153.6,420.4L154,421.3L154.7,423.5L155.5,425.3L156.7,425.7L157.7,425.8L158.8,427.1L159.6,428.1L161.2,430.8L162.4,432.6L162.8,434.4L164.1,435.5L165.9,436L167.6,436.1L168.6,435.6L171,434.7L172.8,433.6L174.2,433.3L175,433.5L175.6,434.2L175.9,435.6L176,436.4L177.3,437.2L178.3,436.9L178.7,436L178.7,435.6L178.7,431.7L178.7,428.3L178.7,425.2L178.7,421.3L178.7,418L178.7,415.2L178.7,412.3L177.8,412.5L176.7,413.2L174.3,413.2L173.3,413.7L173,414.5L173.2,415.5L173.3,416.7L172.9,417.4L171.8,417.6L170.2,417.1L167.4,416.4L165.1,416L163.4,414.3L161,411.7L159.6,410.3L155.9,407.6L155.3,407.1L154.2,405.8L153.2,403.6L152.8,402.2L152.4,401.1L151.8,399.5L152.7,397.1L154,392.4L154.8,389.1L155.3,386.6L157.1,384.1L157.3,381.8L156.5,378.9L156.7,377.3L156.8,373.3L156.9,369.8L156.9,368.2L156.5,365.3L155.3,362.1L152.6,357.7L152.6,356.7L154.2,355.7L156.7,353.8L157.9,352.7L159.3,351.2L160,350.4L161.4,348.4L162.3,346.8L162.6,344.7L162,342.7L163.3,342.3L167.9,341.7L172.8,340.9L178.2,340.1L183.5,339.3L188.6,338.4L193.3,337.7L196.5,337.2L197,338.6L198,340.9L199.2,342.5L200.6,344L201.8,344.9L202.6,345.1L207.7,345L209.5,345.9L211.1,347.1L211.5,348.8L212.6,349.9L213.7,350.7L214.2,350.8L215,350.6L216.4,350.6L217.7,351L218.3,351.4L218.4,352.8L218.7,353.5L220.5,353.7L222.2,353.8L224,354.8L225.8,355L227.9,355.4L228.9,356.5L231.1,357.6L233.9,358.5L235.9,359.7L237,360.1L237,360.7L237.5,361.6L238.1,362.3L238.1,363.3L238.4,364.2L239.2,364.4L239.8,364.5L240.4,363.9L241.2,363.9L242.1,364.3L242.4,365.4L243.2,366.8L244.2,367.8L245,368.8L244.8,370.5L244.3,372.1L245.8,373.7L247.8,375.2L248.3,375.8L248.5,378L248.8,378.8L250.1,380.6L250.8,381.8L250.7,382.6L247.1,386.2L246,386.6L244.9,386.8L243.9,387.6L243.4,388.3L243.6,388.7L244,390L244.8,392L245.6,393.4L244.9,395.1L243.5,398L242.8,398.3L242.7,400.5L243.2,401.3L243.8,402L244.1,403.5L244.2,405.6L244.1,407.2L243.2,411.5L244.8,415.3L245.4,415.7L247.7,415.7L248,416L247.5,417.1L246.5,418.2L245.9,418.7L243,420L238.9,421.4L238,422.8L237.5,424.7L237.9,425.9L238.5,426.6L238.3,428.3L237.9,430.1L238.1,431.5L237.9,432.8L237.3,433.4L236.6,435.3L235.7,437.2L235,438.1L234,439L232.3,439.8L232.3,440.2L234.2,441.1L234.7,441.7L234.8,442.1L234.4,442.5L234.1,443.1L235,443.7L236,444.2L237,445.4L237.9,447.2L238.1,447.8L238.3,448.1L238.7,448.1L239.3,447.9L240.4,446.9L241.2,446.5L242.2,447.9L238.2,449.3L236.1,450L230.1,452.1L224.9,453.9L223.6,454.2L220.8,455.1L219.5,455.7L214.8,457.2L212.8,458L211.2,458.8L207.3,459.9L203.6,461L199.6,462.2L195.1,463.5L192.5,464.4L190.8,465.2L186.8,466.7L186.6,467.1L186.7,468.2L187.2,470.5L188.2,472.5L189,473.7L189.6,476.7L189.9,479.4L189.9,479.4L187.2,479.4L182.4,479.4L177.5,479.4L172.9,480.4L169.2,482L169.1,482L32.9,482ZM255.3,202.6L253.3,202.6L249.9,202.6L246.7,202.6L243.4,202.6L240,202.6L236.7,202.6L233.4,202.6L230.1,202.6L226.8,202.6L223.4,202.6L220.1,202.6L216.8,202.6L213.5,202.6L210.2,202.6L206.8,202.6L203.5,202.6L200.2,202.6L198.2,202.6L197.9,202.5L197.6,202.4L196.4,202.7L195.1,203.5L193.7,203.8L192.2,203.7L192,203.8L191.2,203.8L190.2,203.7L189.2,203.9L188.5,204.7L187.7,205.9L186.3,207.3L185.3,208.5L184.4,209.4L182.3,210.9L181.2,211.3L180.6,211.2L180.3,211L179.6,209.1L179.2,208.8L175.2,209.7L174.6,209.8L174.7,209.2L174.4,204.8L174.3,202.1L174.9,200.4L175.1,198.5L175.2,196.8L175.9,193.9L175.7,192.1L176.6,186L176.9,185L177.2,182.1L177.8,181.1L178.4,180.8L179,179L180.4,176.1L181.3,174.6L181.1,171.3L181.2,169.1L181.4,168.6L183.4,167.8L185.9,165.7L187,163.3L188.5,161.8L191.4,160.8L191.4,160.8L200.1,152.5L204.1,148L205.9,145.7L206,144.9L206.3,143.8L205.6,143L204.7,142.2L204.5,141.5L203.7,141.2L202.7,141.2L202,140.7L201.3,139.7L200.4,139L198,139.1L196.1,138.1L196.1,136.7L196.9,133.9L198.3,130.7L198.4,129.9L198.2,129.1L197.8,128.5L197.2,127.8L196.6,127.1L197,124.8L198,122.6L198.7,121.5L199.4,120.3L199.2,119.2L198.2,118.7L198.7,117.7L199.8,116L202.1,114.4L204,113.2L205.3,113.2L207.8,114.1L210.1,115.2L211.4,115.2L212.9,114.8L216,112.9L216.8,113.5L217.7,114.6L218.7,116.5L220.7,117.4L221.7,118L222.3,118.2L222.7,118L223.5,116.5L224.4,115.7L226.1,114.7L229.8,113.9L232.4,113.6L233.6,113.4L235.4,113L238.4,111.4L241.3,113.4L244.5,113.8L247.6,113.8L248.5,113.2L249.1,112.7L252.3,109.5L256.7,105.1L259.6,111.3L260.6,111.6L260.4,112.2L260.2,112.7L262.1,114.2L264.4,115L265.3,115.7L265.4,116.6L264.6,120.2L264.7,121.2L265.5,124.8L266.9,125.6L268.1,129.3L270.6,130.8L271,131.3L271.6,133.1L272.3,135L272.9,135.4L273.2,135.6L274,137.6L273.6,138.8L274.2,142.3L275.1,145.4L275.3,149.1L275.4,150.8L275.3,151.8L275.1,153.2L274.7,154L273.9,154.8L273,156.1L272.2,157.4L271.8,158.1L272.1,160.1L272,160.6L271.8,160.9L270.7,161.2L269.2,161.8L268.3,162.3L267.1,163.3L266.1,164.4L264.8,167.7L262.6,170.2L262.2,171.1L260.1,172.6L259.2,174.4L258.6,176.7L257.8,178.4L256.1,180.6L255.7,184.2L255.7,191.3L255.2,199.4ZM359.7,299.3L361.1,303.3L360.9,304L359.9,304.5L359.3,304.5L358.7,303.9L358.3,302.5L357.5,302.9L356.3,301.2L354.9,301.2L353.8,299.2L354.2,297.6L354,294.7L355.4,293.3L356.2,290.8L357.1,292.5L357.3,295.1L358.5,298.2L359.5,299.1ZM366.5,275.5L366.7,276.5L366.3,277.3L366.4,280.2L366.3,282.1L365.2,284.7L364.4,285.6L363.6,285.3L363,284.9L362.4,284.2L363.4,279.4L363,275.9L365,276.2ZM237,360.1L235.9,359.7L233.9,358.5L231.1,357.6L228.9,356.5L227.9,355.4L225.8,355L224,354.8L222.2,353.8L220.5,353.7L218.7,353.5L218.4,352.8L218.3,351.4L217.7,351L216.4,350.6L215,350.6L214.2,350.8L213.7,350.7L212.6,349.9L211.5,348.8L211.1,347.1L209.5,345.9L207.7,345L202.6,345.1L201.8,344.9L200.6,344L199.2,342.5L198,340.9L197,338.6L196.5,337.2L195.9,335.6L194.7,333.1L192.9,329.5L191.6,326.6L190.1,323.4L189.5,321.2L188.4,318.6L186.5,315.5L185.5,314.3L184.5,313.2L181.8,311.1L178.8,309L177.1,307.6L174.9,303.4L173.9,301.9L173.3,299.2L172.8,296.5L173,295.4L175,291.8L175.2,290.8L174.9,289.4L174,286.6L173.3,284.8L172.7,283.2L171.7,280.6L170.2,277L169.9,275.4L169.9,274.2L170.7,271.1L171.4,267.9L171.4,266.9L177.2,267.1L178.2,266.4L181.5,264.3L185.3,260.2L186,258.4L187.5,255.7L189,254.4L189.6,253.5L190,252.1L190.4,250.9L192.4,249.1L194.3,247.7L194.1,247.1L193.9,246.7L194.2,246.4L195.2,245.7L197.2,245L197.6,243.6L197.6,242.1L197.3,241.1L197.4,240.1L197,239.6L195.7,239.4L193.8,238.7L192.1,238.3L191,237.9L190.6,237.5L190.4,236.6L190.7,235.5L190.9,235.2L191.3,234.1L190.6,233.5L190.4,233.2L190.8,232.7L192.5,229.2L192.9,228.7L193.6,228.6L194.7,228.2L195.8,228L196.8,228.1L197.4,228L198,227.5L198.4,226.1L198.8,223.9L198.6,222L197.8,220.6L197.6,218.4L198,215.5L197.6,213L196.7,211.1L195.7,209.9L194.3,209.4L192,206.4L191.2,205L191.4,204.1L192,203.8L192.2,203.7L193.7,203.8L195.1,203.5L196.4,202.7L197.6,202.4L197.9,202.5L198.2,202.6L200.2,202.6L203.5,202.6L206.8,202.6L210.2,202.6L213.5,202.6L216.8,202.6L220.1,202.6L223.4,202.6L226.8,202.6L230.1,202.6L233.4,202.6L236.7,202.6L240,202.6L243.4,202.6L246.7,202.6L249.9,202.6L253.3,202.6L255.3,202.6L256.7,202.6L258.1,203.3L259.5,204.1L263.6,206.3L267.5,208.5L271.5,210.8L275.5,213L279.4,215.2L283.5,217.4L287.4,219.7L291.4,221.9L295.3,224.1L299.3,226.3L303.3,228.5L307.3,230.8L311.3,233L315.2,235.2L319.2,237.4L323.2,239.7L325.1,240.7L325.4,241.2L325.7,243.2L325.9,244.5L325.8,245.6L324.8,247.5L324.4,248.5L324.4,249.2L324.7,249.4L325.6,249.5L326.4,250L326.6,250.3L327.2,251.8L328,252.5L329.7,253.7L332.5,255.7L335.4,257.8L338.3,259.9L341.1,261.9L344,264L346.8,266.1L349.7,268.1L352.6,270.2L354,271.2L354.5,271.5L354.2,273.1L352.7,276.9L352.6,278.5L352,280.4L351.5,281.6L350,287L348.7,289L347.1,293.7L346.7,297.3L347.7,299.9L348.1,302.2L350.1,304.6L351.6,305.4L352.8,306.4L354.6,308.9L355.8,311.3L359.2,312.5L360.5,315.2L360.1,317.1L358.5,318.7L357,321.2L355.8,324.5L355.7,329.6L356.6,328.8L358.4,330.1L358.6,333.8L356.7,338.2L356.2,340.2L356,342L357.5,347.2L359.5,349.8L359.3,350.7L358.8,351.4L362.4,356.1L362,360.2L363.4,363.4L364,366.2L364.8,368.3L365,369.7L363.9,371.4L366.5,371.8L368,373.1L368.7,374.4L370.6,374.3L371.6,375.2L373.1,375.9L376.3,378.1L377.1,379.1L377.5,379.8L377.7,380.2L375.5,381.8L372.2,384.4L368.8,387L365.7,388.7L363.4,389.5L360.9,389.9L358.6,391L356.4,392.7L353.6,393.5L350.1,393.5L346.6,394.7L343,396.9L340.9,398.2L337.6,396.3L335,395.6L332.1,395.7L330.3,396L329.6,396.4L329.1,397.6L328.6,399.5L326.6,401.4L323.2,403.2L320.1,403.9L317.2,403.4L315.2,402.7L314.2,401.6L312.7,401.1L310.7,401.2L308.8,401.9L307,403.4L304.1,404L300.1,403.8L298,403.1L297.7,401.9L295.9,400.6L292.8,399L290.4,399L288.9,400.5L287.6,401.4L286.3,401.8L285.2,401.8L284.2,401.5L283.6,401.4L279.2,401.3L275,401.4L274.9,400.7L274.6,399.2L273.7,397.8L273,397L272,396.8L271.6,396.9L271.2,396.2L270.7,394.9L270,393.7L269,392.8L268.5,391.9L268.3,391L268.4,390.2L269.3,387.9L269.6,386.4L269.5,384.8L269,383.2L268,381.3L268.1,380.8L267.8,379.5L267.7,378.6L267.9,377.4L267.7,376L266.9,372.8L266.9,371.9L266,370.4L263.2,366.7L263.1,366.3L258.7,362.6L257.1,361.8L256.4,362.5L256.2,363.1L256.4,364.3L256.3,364.9L256.1,365.2L255,365.1L254.4,365L252.8,364L251.5,363.8L248.3,364L247.2,364.2L246.3,364L244.6,362.3L242.7,361.9L240.9,361.8L238,359.9L237.3,360ZM363.6,333.2L362.6,333.4L362.2,333.2L361.6,332.4L362.7,331.7L363.8,330.4L366.2,328.5L367,327.3L367.3,327L367.1,328.5L365.8,331.7L364.6,331.9ZM241.4,-42L241,-40.5L241,-38.32L240.7,-35.77L240.7,-35.57L240.5,-35.04L240.2,-34.71L240,-34.41L239.9,-34.31L239.8,-34.12L239.8,-33.85L241.7,-19.75L241.6,-19.39L241.5,-19.16L241,-18.27L240.9,-17.97L240.9,-17.78L241.1,-17.61L245.2,-16.1L245.4,-16L245.6,-15.87L247.1,-14.05L255.1,-7.403L255.4,-7.074L256.2,-4.968L256.3,-4.64L256.3,-4.146L256.3,-3.752L256.1,-2.502L256.2,-1.943L256.3,-1.549L256.5,-1.121L256.5,-0.99L256.4,-0.891L256.4,-0.694L255.2,1.738L254.8,3.446L254.6,4.891L254.7,5.712L254.8,6.27L254.9,6.401L255,6.467L255,6.533L255.1,6.566L258.5,6.566L258.6,6.566L258.5,7.353L258.7,11.16L258.8,14.51L259,19.98L259,21.39L258.9,23.19L258.5,23.88L257.5,24.89L256.3,25.81L253.1,26.04L250.5,26.01L248.7,25.81L246.1,25.71L243.7,25.91L242.8,26.69L241.5,29.41L239.7,33.4L238.7,35.07L238.5,36.05L238.7,36.64L240,37.49L242.7,38.66L245.8,39.35L248.1,39.65L249.7,39.97L250.9,40.36L255.3,43.4L256.7,44.81L257.5,46.05L257.7,47.39L258.3,48.73L260.9,51.37L262.3,52.9L266.1,54.89L267.6,57.11L269,58.19L270.4,59.36L271.1,61.09L272.8,66.11L273.9,68.75L275,70.89L275.5,74.41L276.3,75.97L277.3,77.86L278.8,79.59L280.5,80.92L280.8,81.28L277.3,84.66L273.5,88.43L269.1,92.82L264.2,97.6L260.4,101.4L256.7,105.1L256.7,105.1L252.3,109.5L249.1,112.7L248.5,113.2L247.6,113.8L244.5,113.8L241.3,113.4L238.4,111.4L235.4,113L233.6,113.4L232.4,113.6L229.8,113.9L226.1,114.7L224.4,115.7L223.5,116.5L222.7,118L222.3,118.2L221.7,118L220.7,117.4L218.7,116.5L217.7,114.6L216.8,113.5L216,112.9L212.9,114.8L211.4,115.2L210.1,115.2L207.8,114.1L205.3,113.2L204,113.2L202.1,114.4L199.8,116L198.7,117.7L198.2,118.7L197.8,117.9L197.4,117.2L196.6,116.2L195.5,115.8L194.6,116L193.5,116.2L192.9,115.7L192.9,114.4L192.5,113.2L192,112.3L190.4,111.4L186.1,109.5L182.9,105.9L181.2,104.2L180.1,103.1L178.4,100.2L176.5,98.22L174.1,97.31L172.6,97.76L171,99.87L168,101.9L166.7,102L164.9,100.8L162.7,100.1L158.7,99.74L157.1,100.7L155,102.2L153.2,103.1L152,103.3L151,102.9L149.8,102.7L148.8,102.6L146.7,101.3L145.6,100.2L144.8,99.25L143.6,98.57L142.2,98.02L141.2,97.14L140.7,96.04L139.9,94.64L138.9,93.37L135.7,91.1L134.7,89.77L134,88.43L132.8,87L131.3,85.05L130.9,82.22L130.8,79.94L130.5,78.9L129.9,77.83L129.2,76.95L128.1,75.94L125.4,74.48L122.8,72.78L121.4,71.77L119,71.42L117.4,70.44L116.2,68.32L115.7,66.59L114.5,65.26L114,64.31L113.6,63.21L114.6,59.82L113.2,58.61L111.1,57.08L109.5,55.38L108.6,53.82L105.8,51.76L99.78,48.66L96.36,46.7L94.41,44.94L92.8,43.21L92.6,42.49L93.67,40.76L93.87,39.35L93,37.78L89.37,34.81L86.49,31.57L84.34,30.55L79.1,29.64L77.55,29.28L76.01,28.66L74.47,27.18L73.93,25.45L74.67,22.7L74.2,21.85L73.32,21.62L73.59,21.03L74.53,19.68L76.14,18.8L80.51,17.42L80.71,16.9L80.84,15.16L81.18,14.31L82.66,11.91L82.86,10.96L82.93,8.896L83.13,7.944L83.6,7.255L84.74,6.04L85.14,5.318L85.34,3.741L85.21,0.653L85.81,-0.596L88.57,-3.423L89.31,-4.672L89.51,-5.791L89.51,-6.942L89.64,-8.094L90.45,-9.18L91.19,-9.542L93.2,-9.871L94.54,-9.641L104.1,-11.58L105.2,-11.32L105.8,-10.17L105.7,-8.357L105.9,-7.469L106.4,-6.843L107.9,-5.955L108.9,-4.508L109.5,-3.982L111.1,-2.962L118.2,5.351L120.2,6.139L122.1,5.843L126,4.136L127.9,3.676L141.5,4.168L143,3.906L143,3.971L145.1,8.141L146.1,9.093L161,9.126L160.7,7.944L160.8,6.631L162.6,4.924L163.4,4.07L163.8,3.774L166.1,2.526L168.3,1.705L172.6,0.752L174.3,-0.76L175.1,-2.14L175.1,-4.837L175.7,-5.297L176.7,-5.922L181.7,-8.357L182.6,-8.884L191.4,-3.225L196.3,1.245L196.6,1.475L196.8,1.541L197.1,1.409L197.4,1.179L197.7,1.048L197.9,0.982L200,0.949L204,0.719L205.4,0.193L213.3,-7.798L215.4,-10.37L216,-10.89L217.1,-12.7L218.3,-15.83L218.6,-16.2L227.4,-23.68L227.6,-24.27L227.7,-24.77L226.4,-27.28L226.1,-28.57L226.1,-30.55L226.3,-33.62L226.2,-35.57L226.2,-35.8L226.1,-36.1L226,-36.2L221.1,-41.76L233.6,-41.83L233.6,-42L241.4,-42ZM233.6,-42L233.6,-41.83L221.1,-41.76L226,-36.2L226.1,-36.1L226.2,-35.8L226.2,-35.57L226.3,-33.62L226.1,-30.55L226.1,-28.57L226.4,-27.28L227.7,-24.77L227.6,-24.27L227.4,-23.68L218.6,-16.2L218.3,-15.83L217.1,-12.7L216,-10.89L215.4,-10.37L213.3,-7.798L205.4,0.193L204,0.719L200,0.949L197.9,0.982L197.7,1.048L197.4,1.179L197.1,1.409L196.8,1.541L196.6,1.475L196.3,1.245L191.4,-3.225L182.6,-8.884L181.7,-8.357L176.7,-5.922L175.7,-5.297L175.1,-4.837L175.1,-2.14L174.3,-0.76L172.6,0.752L168.3,1.705L166.1,2.526L163.8,3.774L163.4,4.07L162.6,4.924L160.8,6.631L160.7,7.944L161,9.126L146.1,9.093L145.1,8.141L143,3.971L143,3.906L141.5,4.168L127.9,3.676L126,4.136L122.1,5.843L120.2,6.139L118.2,5.351L111.1,-2.962L109.5,-3.982L108.9,-4.508L107.9,-5.955L106.4,-6.843L105.9,-7.469L105.7,-8.357L105.8,-10.17L105.2,-11.32L104.1,-11.58L94.54,-9.641L93.2,-9.871L91.19,-9.542L90.45,-9.18L89.64,-8.094L89.51,-6.942L89.51,-5.791L89.31,-4.672L88.57,-3.423L85.81,-0.596L85.21,0.653L85.34,3.741L85.14,5.318L84.74,6.04L83.6,7.255L83.13,7.944L82.93,8.896L82.86,10.96L82.66,11.91L81.18,14.31L80.84,15.16L80.71,16.9L80.51,17.42L76.14,18.8L74.53,19.68L73.59,21.03L73.32,21.62L71.44,21.13L69.09,20.77L64.59,20.34L62.78,19.72L61.97,18.77L62.24,16.38L61.77,15.85L61.03,15.42L60.56,14.38L60.63,13.13L63.05,10.34L63.52,8.863L63.92,3.676L64.19,1.869L63.99,-0.267L62.11,-4.179L60.43,-6.909L57.74,-10.96L56.67,-12.31L51.23,-17.88L50.62,-18.7L49.28,-21.07L49.95,-23.15L50.76,-26.25L50.83,-27.67L50.49,-29.16L49.08,-30.25L47.87,-30.38L47.33,-30.94L46.26,-31.77L45.25,-32.4L44.31,-33.62L43.64,-35.34L44.11,-41.43L43.88,-42L233.6,-42ZM281.2,-42L280.5,-40.8L277.9,-38.12L277.3,-36.83L276.9,-34.41L275.9,-30.58L275.1,-27.84L275.2,-25.66L274.4,-21.86L274.5,-20.02L273.6,-19L272.4,-18.01L271.5,-17.78L269.7,-18.9L268.3,-20.02L267.8,-20.32L266.6,-19.62L265.2,-18.57L263.5,-16.1L262.2,-13.63L263,-8.39L262.9,-7.238L262.6,-5.988L260.6,-2.075L260.1,-0.858L259.3,1.508L258.6,5.581L258.6,6.566L258.6,6.566L258.5,6.566L255.1,6.566L255,6.533L255,6.467L254.9,6.401L254.8,6.27L254.7,5.712L254.6,4.891L254.8,3.446L255.2,1.738L256.4,-0.694L256.4,-0.891L256.5,-0.99L256.5,-1.121L256.3,-1.549L256.2,-1.943L256.1,-2.502L256.3,-3.752L256.3,-4.146L256.3,-4.64L256.2,-4.968L255.4,-7.074L255.1,-7.403L247.1,-14.05L245.6,-15.87L245.4,-16L245.2,-16.1L241.1,-17.61L240.9,-17.78L240.9,-17.97L241,-18.27L241.5,-19.16L241.6,-19.39L241.7,-19.75L239.8,-33.85L239.8,-34.12L239.9,-34.31L240,-34.41L240.2,-34.71L240.5,-35.04L240.7,-35.57L240.7,-35.77L241,-38.32L241,-40.5L241.4,-42L281.2,-42ZM402,209.3L401.4,210.6L399.5,213.3L397.6,215.5L397.6,215.5L397.8,214L397.4,213.2L395.7,210.9L392.4,206.6L389.8,203.4L387.3,200.1L387.3,197.5L387.3,189.6L387.2,173.9L387.1,158.2L387.1,142.4L387.1,134.6L387,131.3L387.3,130.8L390.2,127.9L394.1,124.1L399.2,116.9L401.9,112.9L402,112.8L402,209.3ZM269.1,409.7L268.7,409.1L268.1,408.8L267.5,409.1L267.2,409.8L267.9,410.6L268.7,410.6ZM270.6,411.5L271,411.1L271.2,410.5L271.2,410L270.9,409.6L270.4,409.4L269.8,409.6L269.6,410.3L269.5,411.3L269.9,411.6ZM189.9,482L189.9,479.4L189.6,476.7L189,473.7L188.2,472.5L187.2,470.5L186.7,468.2L186.6,467.1L186.8,466.7L190.8,465.2L192.5,464.4L195.1,463.5L199.6,462.2L203.6,461L207.3,459.9L211.2,458.8L212.8,458L214.8,457.2L219.5,455.7L220.8,455.1L223.6,454.2L224.9,453.9L230.1,452.1L236.1,450L238.2,449.3L242.2,447.9L243,448.5L245.7,453.3L247.9,456L250.3,458.6L250.7,458.5L251.4,457.9L252.7,457.6L256.5,457L258.1,457L259,456.3L261,455.8L263.3,455.5L264.1,455.9L266.5,459.2L266.9,461.8L267.4,465.4L267.5,467.2L267.5,469.7L267.2,472.7L265.3,476.2L264.9,477.9L263.8,480.6L262.4,481.9L262.3,482L189.9,482ZM290.9,482L291,480.1L291.2,475L290.8,472.1L291.4,467.6L292.5,464.9L291.9,464.3L291.6,460.6L288.6,456.6L284.9,451.6L282.8,448.8L280.4,445.7L276,440.8L274.1,439.1L273,438.4L269.5,437.8L268.5,436.9L267.6,435.4L267.3,432.6L267.3,430.6L266.9,427.1L266.1,422.1L265.8,420.7L264.8,416.9L263.8,413.4L263.8,412.5L264.1,411.7L265.7,409.1L266.9,407.2L267.5,406.2L268.4,403.5L268.7,402.1L269.4,401.5L272.5,401.3L275,401.4L279.2,401.3L283.6,401.4L284.2,401.5L285.2,401.8L286.3,401.8L287.6,401.4L288.9,400.5L290.4,399L292.8,399L295.9,400.6L297.7,401.9L298,403.1L300.1,403.8L304.1,404L307,403.4L308.8,401.9L310.7,401.2L312.7,401.1L314.2,401.6L315.2,402.7L317.2,403.4L320.1,403.9L323.2,403.2L326.6,401.4L328.6,399.5L329.1,397.6L329.6,396.4L330.3,396L332.1,395.7L335,395.6L337.6,396.3L340.9,398.2L343,396.9L346.6,394.7L350.1,393.5L353.6,393.5L356.4,392.7L358.6,391L360.9,389.9L363.4,389.5L365.7,388.7L368.8,387L372.2,384.4L375.5,381.8L377.7,380.2L378.7,382.1L380.4,383.9L379.4,384.9L378.1,385.9L380.2,387.1L378.7,389L378.5,390.3L378.9,390.8L379.2,391.6L378.2,393.8L376.9,395.4L376.5,396.7L377.7,398.9L377.1,402.8L378.3,406.4L378.5,408.2L378.9,409.5L378.4,411.7L378.5,415.4L378.8,416.9L378.1,418.8L379.3,419.4L379.9,421.5L379.7,423.9L379.4,425.1L377.4,426.7L377.1,427.3L377.2,428.2L379.6,428.2L379.8,429.6L379.6,430.7L379.7,432.8L379.4,434.1L379.9,435.6L379.2,437.3L379.5,438.7L379.5,440.4L380.1,444.7L380.2,450L380.3,450.9L381.2,451.5L382.4,451.8L382.4,453.3L381,455.2L380.9,456.4L381.1,458L382.6,455.8L383.5,455.8L384.3,456.7L384.2,458L384.5,458.6L384.3,459.9L384.8,461.5L384.6,462.9L383.5,463.9L382.1,465.6L381.8,467.2L382,468.2L381,468.5L380.6,469.2L381.2,470.7L381.2,472L379.5,476.1L374.9,481.7L374.6,482L290.9,482ZM270.6,411.5L269.9,411.6L269.5,411.3L269.6,410.3L269.8,409.6L270.4,409.4L270.9,409.6L271.2,410L271.2,410.5L271,411.1ZM269.1,409.7L268.7,410.6L267.9,410.6L267.2,409.8L267.5,409.1L268.1,408.8L268.7,409.1ZM262.3,482L262.4,481.9L263.8,480.6L264.9,477.9L265.3,476.2L267.2,472.7L267.5,469.7L267.5,467.2L267.4,465.4L266.9,461.8L266.5,459.2L264.1,455.9L263.3,455.5L261,455.8L259,456.3L258.1,457L256.5,457L252.7,457.6L251.4,457.9L250.7,458.5L250.3,458.6L247.9,456L245.7,453.3L243,448.5L242.2,447.9L242.2,447.9L241.2,446.5L240.4,446.9L239.3,447.9L238.7,448.1L238.3,448.1L238.1,447.8L237.9,447.2L237,445.4L236,444.2L235,443.7L234.1,443.1L234.4,442.5L234.8,442.1L234.7,441.7L234.2,441.1L232.3,440.2L232.3,439.8L234,439L235,438.1L235.7,437.2L236.6,435.3L237.3,433.4L237.9,432.8L238.1,431.5L237.9,430.1L238.3,428.3L238.5,426.6L237.9,425.9L237.5,424.7L238,422.8L238.9,421.4L243,420L245.9,418.7L246.5,418.2L247.5,417.1L248,416L247.7,415.7L245.4,415.7L244.8,415.3L243.2,411.5L244.1,407.2L244.2,405.6L244.1,403.5L243.8,402L243.2,401.3L242.7,400.5L242.8,398.3L243.5,398L244.9,395.1L245.6,393.4L244.8,392L244,390L243.6,388.7L243.4,388.3L243.9,387.6L244.9,386.8L246,386.6L247.1,386.2L250.7,382.6L250.8,381.8L250.1,380.6L248.8,378.8L248.5,378L248.3,375.8L247.8,375.2L245.8,373.7L244.3,372.1L244.8,370.5L245,368.8L244.2,367.8L243.2,366.8L242.4,365.4L242.1,364.3L241.2,363.9L240.4,363.9L239.8,364.5L239.2,364.4L238.4,364.2L238.1,363.3L238.1,362.3L237.5,361.6L237,360.7L237,360.1L237.3,360L238,359.9L240.9,361.8L242.7,361.9L244.6,362.3L246.3,364L247.2,364.2L248.3,364L251.5,363.8L252.8,364L254.4,365L255,365.1L256.1,365.2L256.3,364.9L256.4,364.3L256.2,363.1L256.4,362.5L257.1,361.8L258.7,362.6L263.1,366.3L263.2,366.7L266,370.4L266.9,371.9L266.9,372.8L267.7,376L267.9,377.4L267.7,378.6L267.8,379.5L268.1,380.8L268,381.3L269,383.2L269.5,384.8L269.6,386.4L269.3,387.9L268.4,390.2L268.3,391L268.5,391.9L269,392.8L270,393.7L270.7,394.9L271.2,396.2L271.6,396.9L272,396.8L273,397L273.7,397.8L274.6,399.2L274.9,400.7L275,401.4L272.5,401.3L269.4,401.5L268.7,402.1L268.4,403.5L267.5,406.2L266.9,407.2L265.7,409.1L264.1,411.7L263.8,412.5L263.8,413.4L264.8,416.9L265.8,420.7L266.1,422.1L266.9,427.1L267.3,430.6L267.3,432.6L267.6,435.4L268.5,436.9L269.5,437.8L273,438.4L274.1,439.1L276,440.8L280.4,445.7L282.8,448.8L284.9,451.6L288.6,456.6L291.6,460.6L291.9,464.3L292.5,464.9L291.4,467.6L290.8,472.1L291.2,475L291,480.1L290.9,482L262.3,482ZM387.6,224.2L386.9,224.3L387.3,223.3L389.3,221.9L390.2,222.2L390.3,222.5L390.2,222.8L389.9,223.1ZM402,112.8L401.9,112.9L399.2,116.9L394.1,124.1L390.2,127.9L387.3,130.8L387,131.3L387.1,134.6L387.1,142.4L387.1,158.2L387.2,173.9L387.3,189.6L387.3,197.5L387.3,200.1L389.8,203.4L392.4,206.6L395.7,210.9L397.4,213.2L397.8,214L397.6,215.5L394.9,218.7L392.7,220.2L389.7,220.9L388.8,220.7L387.6,220.3L387.1,221L386.8,222.2L386.1,222L385.7,221.6L385.9,223.8L386.3,224.8L385.8,226.2L384.3,227.5L384.2,228.5L381,231.3L376.6,231.6L374.2,232.9L373.2,234L372.4,236.5L372.7,240.2L371.4,243.1L371.2,244.6L368.9,246.4L367.9,248.1L367.1,249.9L366.5,250.7L365.7,254.5L364.6,256.9L364.3,257.7L364,258.4L363.2,259.8L362.7,260.8L362.3,261.4L359.5,267.5L357.4,270.3L355.8,269.9L354.6,271L354.5,271.5L354,271.2L352.6,270.2L349.7,268.1L346.8,266.1L344,264L341.1,261.9L338.3,259.9L335.4,257.8L332.5,255.7L329.7,253.7L328,252.5L327.2,251.8L326.6,250.3L326.4,250L325.6,249.5L324.7,249.4L324.4,249.2L324.4,248.5L324.8,247.5L325.8,245.6L325.9,244.5L325.7,243.2L325.4,241.2L325.1,240.7L323.2,239.7L319.2,237.4L315.2,235.2L311.3,233L307.3,230.8L303.3,228.5L299.3,226.3L295.3,224.1L291.4,221.9L287.4,219.7L283.5,217.4L279.4,215.2L275.5,213L271.5,210.8L267.5,208.5L263.6,206.3L259.5,204.1L258.1,203.3L256.7,202.6L255.3,202.6L255.3,202.6L255.2,199.4L255.7,191.3L255.7,184.2L256.1,180.6L257.8,178.4L258.6,176.7L259.2,174.4L260.1,172.6L262.2,171.1L262.6,170.2L264.8,167.7L266.1,164.4L267.1,163.3L268.3,162.3L269.2,161.8L270.7,161.2L271.8,160.9L272,160.6L272.1,160.1L271.8,158.1L272.2,157.4L273,156.1L273.9,154.8L274.7,154L275.1,153.2L275.3,151.8L275.4,150.8L275.3,149.1L275.1,145.4L274.2,142.3L273.6,138.8L274,137.6L273.2,135.6L272.9,135.4L272.3,135L271.6,133.1L271,131.3L270.6,130.8L268.1,129.3L266.9,125.6L265.5,124.8L264.7,121.2L264.6,120.2L265.4,116.6L265.3,115.7L264.4,115L262.1,114.2L260.2,112.7L260.4,112.2L260.6,111.6L259.6,111.3L256.7,105.1L260.4,101.4L264.2,97.6L269.1,92.82L273.5,88.43L277.3,84.66L280.8,81.28L280.7,81.9L280.7,82.77L281.2,83.3L281.8,83.65L282.8,83.26L283.7,82.74L284.5,82.64L289.7,84.04L290.5,85.28L290.5,86.58L290.7,87.56L290.3,88.5L289.9,91.42L290,94.09L291.6,96.04L292.9,97.6L294,99.78L294.9,100.5L295.9,100.8L299.5,100.9L304.7,101L309.8,101.1L310.2,101.2L311.3,101.5L316,104.5L320.2,107.1L323.8,109.5L327.3,111.7L330.7,113.9L333.4,115.8L336,116.3L340.1,116.6L343.1,116.7L345.8,117.4L349.8,118.1L352.8,118.5L354.6,118.9L359.6,119.4L360.4,119.1L362.6,117.1L365.1,113.8L366.1,112L369.3,110.2L374.9,107.7L378.9,105.9L383.3,104.1L385.3,105.7L388.1,108.1L389.3,109.4L390.3,109.9L391.8,110.3L393.7,110.3L394.7,110.2L396.7,109.9L401.4,109.6L402,109.6L402,112.8ZM402,-33.85L402,-33.79L402,-30.45L402,-30.24L402,109.6L402,109.6L401.4,109.6L396.7,109.9L394.7,110.2L393.7,110.3L391.8,110.3L390.3,109.9L389.3,109.4L388.1,108.1L385.3,105.7L383.3,104.1L378.9,105.9L374.9,107.7L369.3,110.2L366.1,112L365.1,113.8L362.6,117.1L360.4,119.1L359.6,119.4L354.6,118.9L352.8,118.5L349.8,118.1L345.8,117.4L343.1,116.7L340.1,116.6L336,116.3L333.4,115.8L330.7,113.9L327.3,111.7L323.8,109.5L320.2,107.1L316,104.5L311.3,101.5L310.2,101.2L309.8,101.1L304.7,101L299.5,100.9L295.9,100.8L294.9,100.5L294,99.78L292.9,97.6L291.6,96.04L290,94.09L289.9,91.42L290.3,88.5L290.7,87.56L290.5,86.58L290.5,85.28L289.7,84.04L284.5,82.64L283.7,82.74L282.8,83.26L281.8,83.65L281.2,83.3L280.7,82.77L280.7,81.9L280.8,81.28L280.8,81.28L280.5,80.92L278.8,79.59L277.3,77.86L276.3,75.97L275.5,74.41L275,70.89L273.9,68.75L272.8,66.11L271.1,61.09L270.4,59.36L269,58.19L267.6,57.11L266.1,54.89L262.3,52.9L260.9,51.37L258.3,48.73L257.7,47.39L257.5,46.05L256.7,44.81L255.3,43.4L250.9,40.36L249.7,39.97L248.1,39.65L245.8,39.35L242.7,38.66L240,37.49L238.7,36.64L238.5,36.05L238.7,35.07L239.7,33.4L241.5,29.41L242.8,26.69L243.7,25.91L246.1,25.71L248.7,25.81L250.5,26.01L253.1,26.04L256.3,25.81L257.5,24.89L258.5,23.88L258.9,23.19L259,21.39L259,19.98L258.8,14.51L258.7,11.16L258.5,7.353L258.6,6.566L258.6,5.581L259.3,1.508L260.1,-0.858L260.6,-2.075L262.6,-5.988L262.9,-7.238L263,-8.39L262.2,-13.63L263.5,-16.1L265.2,-18.57L266.6,-19.62L267.8,-20.32L268.3,-20.02L269.7,-18.9L271.5,-17.78L272.4,-18.01L273.6,-19L274.5,-20.02L274.4,-21.86L275.2,-25.66L275.1,-27.84L275.9,-30.58L276.9,-34.41L277.3,-36.83L277.9,-38.12L280.5,-40.8L281.2,-42L402,-42ZM402,-30.24L402,-30.45L402,-33.79L402,-33.85L402,-30.24ZM-42,159.8L-41.11,157.3L-40.24,155.2L-39.97,151.8L-40.04,146.3L-37.42,138.8L-34.93,134.3L-32.18,129.3L-31.17,126.3L-29.76,122.2L-29.96,119L-30.23,115.2L-29.56,110.1L-29.76,107L-30.77,104.4L-30.3,102.7L-28.28,102L-25.87,99.42L-21.43,92.53L-16.67,89.15L-13.38,88.11L-9.883,88.2L-7.667,88.82L-6.592,89.9L-3.973,91.52L0.19,93.67L3.279,96.36L5.025,99.06L6.369,100.6L8.048,101L10.73,100.8L13.76,101.5L16.98,103L18.93,103.5L19.6,103.2L21.14,103.4L24.64,104.6L27.46,103.9L31.55,104.5L41.16,106.7L41.63,106.3L41.89,106.2L42.7,105.3L44.78,100.9L46.53,98.12L47.33,97.11L49.41,95.65L51.77,95.29L54.12,95.42L56,96.04L57.74,96.79L59.69,96.79L61.7,96.07L64.66,94.77L67.75,93.93L70.44,92.98L74.8,91.36L76.55,90.61L78.76,90.29L84.87,91.78L88.84,90.81L90.45,91.1L93.87,90.03L94.54,89.31L96.69,85.7L99.04,84.63L102.5,85.18L104.5,85.73L111.1,87.3L119.7,88.89L122.2,89.15L123.2,89.31L124.1,89.08L126.9,87.03L127.9,86.74L128.7,86.78L134,88.43L134.7,89.77L135.7,91.1L138.9,93.37L139.9,94.64L140.7,96.04L141.2,97.14L142.2,98.02L143.6,98.57L144.8,99.25L145.6,100.2L146.7,101.3L148.8,102.6L149.8,102.7L151,102.9L152,103.3L153.2,103.1L155,102.2L157.1,100.7L158.7,99.74L162.7,100.1L164.9,100.8L166.7,102L168,101.9L171,99.87L172.6,97.76L174.1,97.31L176.5,98.22L178.4,100.2L180.1,103.1L181.2,104.2L182.9,105.9L186.1,109.5L190.4,111.4L192,112.3L192.5,113.2L192.9,114.4L192.9,115.7L193.5,116.2L194.6,116L195.5,115.8L196.6,116.2L197.4,117.2L197.8,117.9L198.2,118.7L199.2,119.2L199.4,120.3L198.7,121.5L198,122.6L197,124.8L196.6,127.1L197.2,127.8L197.8,128.5L198.2,129.1L198.4,129.9L198.3,130.7L196.9,133.9L196.1,136.7L196.1,138.1L198,139.1L200.4,139L201.3,139.7L202,140.7L202.7,141.2L203.7,141.2L204.5,141.5L204.7,142.2L205.6,143L206.3,143.8L206,144.9L205.9,145.7L204.1,148L200.1,152.5L191.4,160.8L191.4,160.8L188.5,161.8L187,163.3L185.9,165.7L183.4,167.8L181.4,168.6L181.2,169.1L181.1,171.3L181.3,174.6L180.4,176.1L179,179L178.4,180.8L177.8,181.1L177.2,182.1L176.9,185L176.6,186L175.7,192.1L175.9,193.9L175.2,196.8L175.1,198.5L174.9,200.4L174.3,202.1L174.4,204.8L174.7,209.2L174.6,209.8L173.9,210.2L172.6,211.3L171.4,212L170.4,212.2L168.8,214.1L167.5,216L166.5,217.7L166.3,218.6L166.5,220.9L166.6,223.6L166.3,224.8L165.9,225.6L163.6,227L162.2,228.1L161.6,228.7L161.2,229.5L161.8,231.6L161.9,233L162.4,233.9L164.1,234.6L164.1,235.3L164.2,236.1L165.1,237.1L166.7,239L168,240.9L168.1,242.4L167.8,245.1L167.7,246.7L167.9,248.7L167.9,252.7L167.8,255.5L168,256.9L170,260.3L170.9,264.2L171.4,266.9L171.4,267.9L170.7,271.1L169.9,274.2L169.9,275.4L170.2,277L171.7,280.6L172.7,283.2L173.3,284.8L174,286.6L174.9,289.4L175.2,290.8L175,291.8L173,295.4L172.8,296.5L173.3,299.2L173.9,301.9L174.9,303.4L177.1,307.6L178.8,309L181.8,311.1L184.5,313.2L185.5,314.3L186.5,315.5L188.4,318.6L189.5,321.2L190.1,323.4L191.6,326.6L192.9,329.5L194.7,333.1L195.9,335.6L196.5,337.2L196.5,337.2L193.3,337.7L188.6,338.4L183.5,339.3L178.2,340.1L172.8,340.9L167.9,341.7L163.3,342.3L162,342.7L162.6,344.7L162.3,346.8L161.4,348.4L160,350.4L159.3,351.2L157.9,352.7L156.7,353.8L154.2,355.7L152.6,356.7L152.6,357.7L155.3,362.1L156.5,365.3L156.9,368.2L156.9,369.8L156.8,373.3L156.7,377.3L156.5,378.9L157.3,381.8L157.1,384.1L155.3,386.6L154.8,389.1L154,392.4L152.7,397.1L151.8,399.5L152.4,401.1L152.8,402.2L153.2,403.6L154.2,405.8L155.3,407.1L155.9,407.6L159.6,410.3L161,411.7L163.4,414.3L165.1,416L167.4,416.4L170.2,417.1L171.8,417.6L172.9,417.4L173.3,416.7L173.2,415.5L173,414.5L173.3,413.7L174.3,413.2L176.7,413.2L177.8,412.5L178.7,412.3L178.7,415.2L178.7,418L178.7,421.3L178.7,425.2L178.7,428.3L178.7,431.7L178.7,435.6L178.7,436L178.3,436.9L177.3,437.2L176,436.4L175.9,435.6L175.6,434.2L175,433.5L174.2,433.3L172.8,433.6L171,434.7L168.6,435.6L167.6,436.1L165.9,436L164.1,435.5L162.8,434.4L162.4,432.6L161.2,430.8L159.6,428.1L158.8,427.1L157.7,425.8L156.7,425.7L155.5,425.3L154.7,423.5L154,421.3L153.6,420.4L152.9,419.3L151.9,418.6L149.6,417.7L146.5,416.4L142.6,414.8L140.7,414.8L138.5,414.5L137.3,413.7L136.5,413.1L135.6,410.9L134.4,408.3L131,405.3L130.2,401.8L129.5,401.4L128.3,401.6L127.4,402.1L127,403L126.1,406L125.6,407.5L125.2,407.8L124.5,408.3L123.3,408.7L121.5,408.9L119,408.9L115.9,408.4L114.2,408L109.7,407.5L108.4,407.3L106.5,406.6L105.2,405.9L100.8,404.5L98.78,404.7L97.83,403.7L96.96,403.2L95.75,402.2L95.22,400.9L94.48,398L94.68,396.5L95.22,394.8L94.61,394.4L93.81,394.4L92.66,395L90.65,395.3L86.96,396L85.61,396.5L84.14,396.8L83.06,397.1L80.24,398.7L79.3,398.9L77.62,398.3L76.81,397.4L77.62,396.4L77.96,395.2L77.42,392.8L76.55,391.7L74.06,390.9L73.12,390.8L72.72,389.5L72.05,388.3L70.64,388L69.97,387.9L69.23,388.3L68.82,389.3L68.76,390L67.48,390.6L64.93,390.5L62.38,389.9L60.56,389.8L59.35,389.9L54.85,391.8L53.38,392L48.48,391.9L45.72,391.5L43.71,391.4L42.36,392L40.62,393.4L39.14,394.1L38.47,394L38.07,393.5L37.46,392.7L37.33,390.6L36.59,388.3L37.06,387.1L38.47,386.2L39.01,384.5L38.54,381.8L38.54,380L38.94,378.9L38.4,376.3L36.92,372.1L34.91,368.8L32.29,366.2L30.61,363.7L29.81,361.3L30.07,355.7L30.88,350.6L31.48,346.7L31.35,340L29.54,335.7L29.13,331.1L30.14,326.1L30.34,322.7L29.67,321L29.2,320.7L28.6,320.5L24.16,320.4L18.19,320.1L12.95,320.1L7.309,320L6.369,319.4L5.966,318.2L5.966,317.1L7.107,313.6L6.973,313.3L4.958,313.2L-0.481,313.8L-4.108,314.3L-6.391,314.5L-10.35,315.5L-12.84,317.5L-13.64,320L-13.58,322.1L-13.71,323.7L-14.85,325.3L-15.79,327.1L-15.79,328.1L-16.33,333L-20.02,333.6L-23.72,333.6L-24.59,333.6L-29.16,332.4L-30.84,332.4L-32.31,333L-35.13,333.6L-37.75,334L-40.44,335.5L-41.18,335.6L-42,335.3L-42,159.8ZM-42,117.6L-41.18,117.6L-39.97,117.4L-39.3,117.6L-38.36,118.5L-37.75,118.4L-36.95,117.8L-35.4,117L-32.52,116.2L-32.05,116.6L-31.04,118.3L-29.96,119L-29.76,122.2L-31.17,126.3L-32.18,129.3L-34.93,134.3L-37.42,138.8L-40.04,146.3L-39.97,151.8L-40.24,155.2L-41.11,157.3L-42,159.8L-42,117.6ZM43.88,-42L44.11,-41.43L43.64,-35.34L44.31,-33.62L45.25,-32.4L46.26,-31.77L47.33,-30.94L47.87,-30.38L49.08,-30.25L50.49,-29.16L50.83,-27.67L50.76,-26.25L49.95,-23.15L49.28,-21.07L48.54,-21.21L46.86,-21.73L44.92,-22.16L42.5,-22.52L40.15,-21.67L37.66,-20.58L36.86,-19.75L36.19,-19.29L35.11,-19.36L34.1,-19.23L33.5,-18.44L32.63,-17.58L29,-15.8L28.26,-15.17L27.79,-14.51L27.79,-13.82L28.13,-12.37L28.13,-10.56L27.32,-9.114L26.45,-8.127L25.37,-7.765L24.43,-7.567L23.9,-6.942L22.02,-3.653L21.21,-3.028L19.53,-3.127L14.76,1.803L14.29,3.282L12.61,5.318L10.4,7.616L8.45,8.732L8.249,9.159L7.712,9.585L6.503,10.11L2.339,12.9L-2.697,12.77L-4.914,13.88L-7.063,14.38L-10.22,14.9L-11.16,14.83L-15.26,15.06L-19.96,15L-21.77,15.39L-23.52,16.44L-24.79,17.39L-24.99,17.69L-24.79,18.08L-24.79,18.37L-21.5,20.67L-20.7,21.78L-21.5,22.86L-21.9,23.03L-21.97,23.09L-22.51,23.94L-24.46,26.53L-27.41,29.57L-28.89,30.42L-29.56,30.98L-30.3,33.01L-30.84,33.3L-32.85,33.56L-36.88,33.76L-42,34.36L-42,-42ZM-42,34.36L-36.88,33.76L-32.85,33.56L-30.84,33.3L-30.3,33.01L-29.56,30.98L-28.89,30.42L-27.41,29.57L-24.46,26.53L-22.51,23.94L-21.97,23.09L-21.9,23.03L-21.5,22.86L-20.7,21.78L-21.5,20.67L-24.79,18.37L-24.79,18.08L-24.99,17.69L-24.79,17.39L-23.52,16.44L-21.77,15.39L-19.96,15L-15.26,15.06L-11.16,14.83L-10.22,14.9L-7.063,14.38L-4.914,13.88L-2.697,12.77L2.339,12.9L6.503,10.11L7.712,9.585L8.249,9.159L8.45,8.732L10.4,7.616L12.61,5.318L14.29,3.282L14.76,1.803L19.53,-3.127L21.21,-3.028L22.02,-3.653L23.9,-6.942L24.43,-7.567L25.37,-7.765L26.45,-8.127L27.32,-9.114L28.13,-10.56L28.13,-12.37L27.79,-13.82L27.79,-14.51L28.26,-15.17L29,-15.8L32.63,-17.58L33.5,-18.44L34.1,-19.23L35.11,-19.36L36.19,-19.29L36.86,-19.75L37.66,-20.58L40.15,-21.67L42.5,-22.52L44.92,-22.16L46.86,-21.73L48.54,-21.21L49.28,-21.07L50.62,-18.7L51.23,-17.88L56.67,-12.31L57.74,-10.96L60.43,-6.909L62.11,-4.179L63.99,-0.267L64.19,1.869L63.92,3.676L63.52,8.863L63.05,10.34L60.63,13.13L60.56,14.38L61.03,15.42L61.77,15.85L62.24,16.38L61.97,18.77L62.78,19.72L64.59,20.34L69.09,20.77L71.44,21.13L73.32,21.62L73.32,21.62L74.2,21.85L74.67,22.7L73.93,25.45L74.47,27.18L76.01,28.66L77.55,29.28L79.1,29.64L84.34,30.55L86.49,31.57L89.37,34.81L93,37.78L93.87,39.35L93.67,40.76L92.6,42.49L92.8,43.21L94.41,44.94L96.36,46.7L99.78,48.66L105.8,51.76L108.6,53.82L109.5,55.38L111.1,57.08L113.2,58.61L114.6,59.82L113.6,63.21L114,64.31L114.5,65.26L115.7,66.59L116.2,68.32L117.4,70.44L119,71.42L121.4,71.77L122.8,72.78L125.4,74.48L128.1,75.94L129.2,76.95L129.9,77.83L130.5,78.9L130.8,79.94L130.9,82.22L131.3,85.05L132.8,87L134,88.43L128.7,86.78L127.9,86.74L126.9,87.03L124.1,89.08L123.2,89.31L122.2,89.15L119.7,88.89L111.1,87.3L104.5,85.73L102.5,85.18L99.04,84.63L96.69,85.7L94.54,89.31L93.87,90.03L90.45,91.1L88.84,90.81L84.87,91.78L78.76,90.29L76.55,90.61L74.8,91.36L70.44,92.98L67.75,93.93L64.66,94.77L61.7,96.07L59.69,96.79L57.74,96.79L56,96.04L54.12,95.42L51.77,95.29L49.41,95.65L47.33,97.11L46.53,98.12L44.78,100.9L42.7,105.3L41.89,106.2L41.63,106.3L41.16,106.7L31.55,104.5L27.46,103.9L24.64,104.6L21.14,103.4L19.6,103.2L18.93,103.5L16.98,103L13.76,101.5L10.73,100.8L8.048,101L6.369,100.6L5.025,99.06L3.279,96.36L0.19,93.67L-3.973,91.52L-6.592,89.9L-7.667,88.82L-9.883,88.2L-13.38,88.11L-16.67,89.15L-21.43,92.53L-25.87,99.42L-28.28,102L-30.3,102.7L-30.77,104.4L-29.76,107L-29.56,110.1L-30.23,115.2L-29.96,119L-31.04,118.3L-32.05,116.6L-32.52,116.2L-35.4,117L-36.95,117.8L-37.75,118.4L-38.36,118.5L-39.3,117.6L-39.97,117.4L-41.18,117.6L-42,117.6L-42,34.36ZM192.9,228.7L192.5,229.2L190.8,232.7L190.4,233.2L190.6,233.5L191.3,234.1L190.9,235.2L190.7,235.5L190.4,236.6L190.6,237.5L191,237.9L192.1,238.3L193.8,238.7L195.7,239.4L197,239.6L197.4,240.1L197.3,241.1L197.6,242.1L197.6,243.6L197.2,245L195.2,245.7L194.2,246.4L193.9,246.7L194.1,247.1L194.3,247.7L192.4,249.1L190.4,250.9L190,252.1L189.6,253.5L189,254.4L187.5,255.7L186,258.4L185.3,260.2L181.5,264.3L178.2,266.4L177.2,267.1L171.4,266.9L170.9,264.2L170,260.3L168,256.9L167.8,255.5L167.9,252.7L167.9,248.7L167.7,246.7L167.8,245.1L168.1,242.4L168,240.9L166.7,239L165.1,237.1L164.2,236.1L164.1,235.3L164.1,234.6L164.4,233.6L165.1,232.5L165.7,232.3L167.5,232.8L169.4,233.8L170.4,236L171.1,236.3L172.5,236.3L176,236L176.9,236L178.5,235.5L180,234.6L180.5,233.6L180.8,231.4L181.2,227.5L182,227.5L184.2,228.9L184.7,229L185.1,228.9L185.9,228.2L186.9,227.7L187.6,227.7L190.1,227L191.5,228.2L192.4,228.6ZM-42,335.3L-41.18,335.6L-40.44,335.5L-37.75,334L-35.13,333.6L-32.31,333L-30.84,332.4L-29.16,332.4L-24.59,333.6L-23.72,333.6L-20.02,333.6L-16.33,333L-15.79,328.1L-15.79,327.1L-14.85,325.3L-13.71,323.7L-13.58,322.1L-13.64,320L-12.84,317.5L-10.35,315.5L-6.391,314.5L-4.108,314.3L-0.481,313.8L4.958,313.2L6.973,313.3L7.107,313.6L5.966,317.1L5.966,318.2L6.369,319.4L7.309,320L12.95,320.1L18.19,320.1L24.16,320.4L28.6,320.5L29.2,320.7L29.67,321L30.34,322.7L30.14,326.1L29.13,331.1L29.54,335.7L31.35,340L31.48,346.7L30.88,350.6L30.07,355.7L29.81,361.3L30.61,363.7L32.29,366.2L34.91,368.8L36.92,372.1L38.4,376.3L38.94,378.9L38.54,380L38.54,381.8L39.01,384.5L38.47,386.2L37.06,387.1L36.59,388.3L37.33,390.6L37.46,392.7L38.07,393.5L38.47,394L39.14,394.1L40.62,393.4L42.36,392L43.71,391.4L45.72,391.5L48.48,391.9L53.38,392L54.85,391.8L59.35,389.9L60.56,389.8L62.38,389.9L64.93,390.5L67.48,390.6L68.76,390L68.82,389.3L69.23,388.3L69.97,387.9L69.97,387.9L70.37,390.4L70.77,393.9L71.04,396.4L71.38,397.5L71.44,398L71.11,398.7L70.84,400.2L70.3,401.5L70.03,402.4L70.3,404.1L70.1,406.6L69.9,409.2L69.83,411.6L70.5,416.1L70.44,417.4L69.56,419.8L68.89,421.5L68.49,423.6L68.35,424.6L69.97,427.7L69.9,428.3L68.69,428.5L67.68,428.5L63.79,428.5L58.21,428.5L52.71,428.5L47.13,428.5L42.03,428.5L37.19,428.5L32.9,428.5L32.9,431.5L32.9,437.6L32.9,443.8L32.9,450L32.9,456.2L32.9,462.3L32.9,468.5L32.9,474.7L32.9,480.9L32.9,482L-42,482Z" fill="#D8E2E7" stroke="#3F464B" stroke-width="0.85" vector-effect="non-scaling-stroke"/><path d="M174.6,209.8L175.2,209.7L179.2,208.8L179.6,209.1L180.3,211L180.6,211.2L181.2,211.3L182.3,210.9L184.4,209.4L185.3,208.5L186.3,207.3L187.7,205.9L188.5,204.7L189.2,203.9L190.2,203.7L191.2,203.8L192,203.8L191.4,204.1L191.2,205L192,206.4L194.3,209.4L195.7,209.9L196.7,211.1L197.6,213L198,215.5L197.6,218.4L197.8,220.6L198.6,222L198.8,223.9L198.4,226.1L198,227.5L197.4,228L196.8,228.1L195.8,228L194.7,228.2L193.6,228.6L192.9,228.7L192.4,228.6L191.5,228.2L190.1,227L187.6,227.7L186.9,227.7L185.9,228.2L185.1,228.9L184.7,229L184.2,228.9L182,227.5L181.2,227.5L180.8,231.4L180.5,233.6L180,234.6L178.5,235.5L176.9,236L176,236L172.5,236.3L171.1,236.3L170.4,236L169.4,233.8L167.5,232.8L165.7,232.3L165.1,232.5L164.4,233.6L164.1,234.6L162.4,233.9L161.9,233L161.8,231.6L161.2,229.5L161.6,228.7L162.2,228.1L163.6,227L165.9,225.6L166.3,224.8L166.6,223.6L166.5,220.9L166.3,218.6L166.5,217.7L167.5,216L168.8,214.1L170.4,212.2L171.4,212L172.6,211.3L173.9,210.2Z" fill="#8B341D" stroke="#2C160F" stroke-width="1.1" vector-effect="non-scaling-stroke"/></svg>