<svg xmlns="http://www.w3.org/2000/svg" viewBox="0 0 360 440" width="360" height="440" role="img" aria-label="Regional map with Suriname highlighted"><rect width="100%" height="100%" fill="#7FA6D6"/><path d="M124,158.7L122.6,159.1L122.6,158.8L123,158.2L123.7,158.1L124,157.8L124.5,157.7L124.7,157.7L125,157.9L124.3,158.2ZM88.67,135.1L89.05,136.6L88.92,136.9L87.87,137.9L86.99,138L86.27,138L85.73,137.8L85.01,137.1L84.34,137.3L82.66,137.1L82.2,136.8L82.83,136L84,135.7L84.42,135.6L84.76,136.1L85.6,136.5L86.57,136.6L86.82,135.8L88.17,134.6ZM72.74,137.7L72.11,138L70.98,137.7L70.39,137.3L70.77,136.9L71.69,136.9L72.58,137.4ZM121.9,161.9L121.2,162.1L121.1,160.9L121.3,160.6L122.6,159.7L122.9,159.5L123.2,159.7L123.1,159.9L123.7,160.4L123.5,160.9L122.9,161.5ZM133.4,165.6L135.6,168.5L135.6,168.8L135.4,169.2L134,169.9L133.7,170.2L133.2,171.5L131.5,172.2L130.4,173.1L129.6,173.8L129.1,174.1L127.6,174.3L127.1,174.8L126.5,176.3L126,176.9L125.2,177.6L125.2,178L126.3,179.6L126.5,180.1L126.2,180.9L126.2,181.4L126.8,182L127.5,182.2L128.2,181.9L129,181.9L129.6,182.1L129.8,182.3L129.8,182.8L129.5,183.8L129,184.5L126.7,185.6L125.8,186.2L125.2,186.6L124,186.4L123.4,186.4L122.9,186.7L122.6,187L121.8,187.1L120.7,187.3L120.2,187.5L119.8,188L119.6,188.7L119.8,189.6L120.1,190.4L120.1,191.1L120.4,193.1L120.1,193.6L119.3,194.1L118.4,195.1L117.4,196.3L117.5,196.7L120,199.5L122.5,202.2L124.9,205L125.3,205.1L125.7,205.4L126.2,206.4L126.5,207.4L126.5,207.9L126.3,208.6L125.6,209.4L124.9,210L123.9,210.5L123,211L122.3,212.3L121.9,212.8L121.5,213L120.7,213.2L119.5,213.1L118.6,213L117.6,214L116.3,214.4L115.4,215.7L112.3,216.8L109.3,217.6L108.5,217.9L105.4,217.2L104.7,217.4L103.9,218.1L103.1,218.6L102.5,218.6L101.9,218.9L101.6,219.8L101.3,222.9L100.2,223.8L98.92,223.8L98.04,222.7L96.99,221.9L95.14,220L94.64,219.7L94.13,219.7L92.41,220.3L91.61,220.1L90.94,219.8L89.85,219.9L87.91,219.9L86.65,219.9L86.06,219.4L85.48,218.3L85.1,217.9L84.64,217.6L83.92,217.4L80.77,217.4L80.18,217.4L79.72,217.2L79.13,216.3L78.46,215.9L77.7,215.8L77.37,216.3L78.71,218L79.09,218.9L80.27,220.2L83.67,223L84.3,223.9L84.26,225L84.22,226.7L84.34,228.4L85.22,230.7L86.44,233.1L86.78,234.6L86.57,235.7L86.32,236.3L86.36,236.6L86.61,236.8L87.79,237.2L90.27,237.4L91.74,237.4L94.05,237.6L94.22,238.5L93.96,239.8L93.54,240.6L93.17,240.9L91.91,241L90.6,241.9L88.71,242.7L87.62,242.8L87.2,243L86.82,243.3L86.48,243.6L86.11,245.1L85.56,246.9L84.51,247.9L83.33,248.8L82.16,248.9L81.23,248.8L80.77,249.1L80.1,249.8L79.13,250.7L78.37,251.2L77.37,251.1L76.27,251.6L74.93,252.3L74,252.9L73.25,253.9L72.16,254.9L71.02,255.7L70.47,256.6L69.72,257.7L68.75,257.8L68.67,257.1L69.13,256L68.63,255L67.7,254.5L67.28,254.3L66.86,254.4L65.77,254.8L64.42,255.7L63.58,256.3L62.87,256.6L61.31,256.9L60.05,257L59.51,256.8L58.54,256.2L56.31,254.2L53.33,251.5L53.12,250.7L53.25,249.9L52.7,248.8L52.36,247.5L52.11,247.1L52.03,246.2L51.35,244.5L50.85,243.2L50.35,242.4L50.56,241.9L50.35,241.3L49.97,240.8L49.38,239.2L49.59,238.6L49.42,237.9L48.92,237.4L48.25,236.9L47.32,235.9L46.19,234.9L45.64,234.5L45.26,234.4L44.93,233.5L44.67,233.2L44.09,233.1L42.95,232.7L41.86,233.2L41.82,232.5L42.15,232L45.89,228.6L47.74,227L47.95,226.8L48.12,226.4L48.25,225.9L47.83,225.3L46.06,222.7L45.43,222.2L44.84,221.8L44.17,220.7L43.33,218.1L42.74,216.7L42.57,215.8L42.62,214.6L42.36,213.7L41.9,213.1L41.9,211.3L42.36,208.2L42.49,205.8L42.24,204.2L42.7,203L43.79,202.1L44.38,200.8L44.51,199.1L45.18,197.6L46.35,196.4L46.77,195.3L46.4,194.2L46.27,193.5L45.26,192.8L43.41,192.3L41.86,192.2L40.93,192.8L38.54,193.3L34.72,193.8L31.61,193.8L29.25,193.3L27.49,193.5L26.27,194.3L25.43,194.5L24.93,194L24.38,193.9L23.54,194.2L23.41,194L21.61,191.9L19.92,189.8L17.99,187.4L15.76,184.6L15.34,184.4L14.67,184.5L13.75,184.5L12.36,184.2L11.39,183.8L10.6,183.4L9.209,182.9L8.243,182.8L7.402,183L5.049,183.9L3.705,184L2.654,184.1L-0.161,183.6L-2.052,183.5L-4.279,183.8L-5.204,184L-6.548,183.5L-7.473,182.7L-8.313,180.9L-8.901,179.5L-9.952,179.2L-11.09,179L-11.63,178.5L-11.97,177.7L-12.05,176.7L-11.97,175L-11.84,174.4L-11.68,172.5L-11.04,171.6L-10.67,171.1L-10.71,170.3L-11.04,168.7L-11.34,167.6L-12.6,166.3L-14.24,164.7L-14.95,162.1L-15.79,159L-16.42,158.7L-17.05,158.9L-17.68,158.7L-18.27,157.5L-18.82,157.3L-19.74,157.7L-20.41,158L-22.1,158.3L-22.43,158L-22.31,157.6L-21.59,156.5L-20.75,155.1L-19.79,153.8L-18.9,152.4L-18.23,151L-17.77,148.1L-17.47,146.2L-16.63,142.7L-15.12,139.8L-14.53,138.6L-13.14,136.9L-12.52,136L-11.68,135.2L-9.364,134.3L-6.632,129.4L-6.002,128.7L-3.187,127.9L-1.044,127.4L0.511,126.8L1.057,126.5L1.478,126.3L1.099,126.9L0.343,127.6L-0.497,128.1L-4.951,129.1L-5.414,129.4L-5.96,129.8L-5.96,130.9L-5.876,131.7L-4.531,134.3L-4.027,135L-2.304,136.4L-2.682,136.6L-3.355,136.7L-2.85,138.6L-1.8,139.9L-1.758,140.7L-2.556,143.2L-4.069,144.7L-5.12,146.5L-5.96,147.2L-7.809,150.7L-6.38,152.7L-6.212,153.8L-4.993,155.3L-4.195,155.7L-3.691,156.3L-3.943,157.4L-3.439,158.7L-2.808,159.4L-2.052,159.7L-1.086,159.7L1.73,158.8L2.36,158.4L2.78,157.7L4.209,156.2L4.293,154.3L4.587,152L4.251,150.5L2.78,148.3L2.15,146.8L0.679,145.3L-0.203,142.9L-0.581,142.2L-0.833,141.1L-1.17,139.2L-0.203,138.6L-0.287,137L2.108,136.6L7.276,134.1L10.51,133.5L14.17,132.2L15.01,131.5L15.72,130.4L16.31,130.3L18.2,131.3L19.13,131L19.5,130.2L19,128.6L17.91,128.6L14.63,129.2L14.29,128.5L14.29,127.9L13.54,126.1L14,124.7L14.5,123.5L15.43,123.1L16.82,122.6L17.86,123.3L18.5,124.1L18.83,124.7L19.08,126.6L19.63,128.6L20.22,129.9L21.18,130.9L21.9,130.8L22.4,130.7L25.81,130.4L27.91,131.1L30.56,131.5L33.03,132.9L35.56,134.7L36.19,136L36.44,137.2L37.03,138L36.44,138.9L36.73,140.3L37.49,141.7L38.58,142.6L41.69,142.9L45.09,142.3L50.35,141.7L52.03,141.2L60.68,141L62.32,141.7L62.49,142.3L62.49,142.9L65.31,145.4L67.58,145.8L69.51,146.6L71.53,147L73.71,147.7L74.97,147.6L75.89,147.3L76.99,147.3L84.72,143L88.84,143.2L89.47,142.9L90.01,142.5L88.5,141.8L85.06,141.6L84,142L83.42,140.9L84.55,141L88.38,140.6L92.79,140.8L96.36,140.1L98.17,139.9L99.17,140.1L102,139.6L107.4,140.2L111.7,139.7L111.2,140.4L109.8,140.8L107.5,141L105.8,142L102.2,141.8L99.59,142.2L100.4,142.5L100.4,143.5L100.8,143.7L101.1,143.7L102,144.5L102.2,145L102.5,146.1L102.1,147.3L101.6,147.8L102.7,147.6L103.3,147.1L103.2,146.5L103.3,145.9L103.8,146.1L104.2,146.4L105.6,149.4L106.5,151L106.7,151L106.9,150.9L107.2,150.6L107.7,149.9L108,150.3L108.3,150.5L108.5,150.6L108.3,149.9L108.5,149L108.4,148.7L108.8,148.7L109.3,148.8L110.1,149L111.3,150L112.2,151.1L112.2,151.6L112.5,152L113,152.3L113.3,152.8L113.4,152L113,151.4L113,150.7L114.6,150.7L115.1,149.7L115.9,150.3L118.3,152.8L119.2,153.2L121.8,153.7L123.4,155L124.3,156L123.8,157.2L122.2,157.8L121.7,158.5L121.3,159.2L121.3,159.9L120.8,160.7L120.8,161L120.5,162.2L119.8,163.6L119,165L114.7,165.1L115.8,165.7L116.7,166.1L118.4,167.3L119.6,166.4L121.5,166.3L123.5,165.3L124.3,165.1L128,165.7L128.9,164.9L129.6,164.7L131.6,164.8ZM77.03,48.11L76.15,48.22L74.97,47.64L75.89,47.42L76.53,47.55ZM79.22,47.81L78.42,48.13L77.91,48.09L77.7,47.96L78.12,47.58ZM77.95,54.67L78.96,55.23L80.14,55.23L78.88,55.76L76.53,55.82L76.57,54.95ZM62.03,46.68L62.41,46.93L62.74,46.89L62.49,46.4L62.74,46.4L64.97,46.7L66.4,47.21L67.87,47.47L68,49.17L66.86,49.86L66.11,50.58L65.47,51.46L63.88,52.46L61.99,52.78L60.68,52.8L60.22,52.78L59.76,52.59L58.79,52.76L57.57,52.31L56.57,52.42L54.55,52.31L53.79,52.71L53.04,52.8L52.32,52.71L51.73,52.54L50.22,52.56L49.59,52.22L49.84,50.28L49.88,49.41L49.51,48.66L49.09,48.22L48.79,47.68L49.38,47.32L49.88,46.81L50.05,46.02L50.56,45.82L51.19,45.74L54.09,46.1L61.36,46.31L61.78,46.38ZM70.27,50.86L69.34,50.92L68.75,50.84L68.54,50.48L69.68,50.13L70.94,50.18L71.69,50.39L71.78,50.52ZM41.69,51.41L41.61,51.44L41.48,51.41L41.44,51.39L41.35,51.27L41.02,51.09L40.93,50.92L41.02,50.73L41.15,50.67L41.82,50.65L41.9,50.67L42.03,50.8L42.03,50.88L41.98,50.97L41.86,51.18L41.82,51.22L41.77,51.29L41.73,51.39ZM98.54,49.43L96.69,50.05L96.78,49.69L98.25,48.83L98.8,48.9ZM82.28,46.44L81.99,46.53L81.78,46.51L81.74,46.34L81.95,45.84L83.12,45.8ZM79.97,47.21L79.05,47.25L78.8,47.1L79.3,46.72L80.27,46.68L80.52,46.76ZM83.54,43.04L83.71,43.45L83.58,43.45L82.95,43.17L82.41,43.15L82.2,43.06L82.11,42.91L83.12,42.89ZM-2.514,5.414L-2.556,5.588L-3.229,5.086L-4.489,5.086L-4.699,4.432L-4.195,4.322L-2.598,4.562L-2.22,5.13ZM-5.078,4.453L-5.288,4.606L-5.96,4.17L-6.044,3.82L-6.296,3.798L-6.716,3.493L-6.59,3.078L-5.666,3.056L-5.288,4.191ZM-10.37,4.322L-9.027,5.021L-8.229,4.912L-8.145,5.064L-8.607,5.217L-8.691,5.348L-9.994,5.545L-10.37,5.501L-10.46,5.021ZM108.5,67.55L108.5,68.27L107.7,68.06L107.6,67.43L108,66.77L108.2,66.71ZM124.8,134.5L124.1,134.6L124.2,134.1L125.3,133.3L127,132.8L127.5,132.7L127.2,133.5ZM121.8,146.9L119.9,147.6L114.9,147.7L112.9,147.5L111.4,147.7L114.2,146.2L114.5,145.6L115.7,145.5L116.1,145.3L116.5,142.1L116.3,141.3L116.1,140.9L115.6,140.6L114.5,140.2L114.3,139.9L115,139.6L116.5,139.4L117.6,139L119.9,138.9L121,138.6L122.9,138.5L121.9,140L121.5,140.5L121.7,141.9L121.5,142.8L121.7,143.9L122.3,144.6L121.9,145.4L121.9,146.5ZM119.9,110.8L119.6,111L118.7,110.2L118.8,109.3L119.3,108.8L119.8,108.5L120.3,108.4L120.5,109.2L120.4,110.3ZM119.3,112.8L119.1,112.9L119.2,112.9L119.1,113L119,112.9L118.9,112.9L118.8,112.9L118.7,112.9L118.7,112.8L118.8,112.8L119.1,112.8L119.1,112.7L119,112.6L119,112.5L119.1,112.4L119.4,112.2L119.6,112.1L119.6,112.2L119.6,112.2L119.6,112.2L119.6,112.3L119.5,112.5ZM118,116.4L117.9,116.4L117.8,116.4L117.8,116.3L118,116.3L118,116.2L118,116.1L118,116L118.1,115.9L118.2,115.9L118.2,115.9L118.3,116.1L118.2,116.2L118.1,116.2L118.1,116.3ZM123.1,102.9L122.5,104.1L121.2,103.3L121.1,102.3L121.2,101.7L121.9,100.6L122.6,99.86L123,99.61L123.3,100.6ZM104,62.91L103.5,63.17L103,62.81L103.1,61.96L103.5,61.94L104,62.32ZM102.9,61.47L102.6,61.64L102,60.9L101.2,60.69L100.4,60.24L100.4,60.16L100.4,59.92L100.6,59.67L101,59.48L101.9,60.07L102.4,60.84L102.8,61.2ZM9.97,482L7.318,480.1L5.89,478.6L4.545,477.9L1.268,475.5L0.931,474.8L0.553,472.4L0.091,471.7L-1.002,470.8L-3.859,469.6L-4.951,469L-6.086,468L-7.767,467.2L-9.616,465.7L-10.71,464.4L-11.93,463.6L-15.75,462.5L-17.64,461.4L-21.21,459.8L-22.81,458.7L-26.63,457.5L-27.77,456.9L-31.55,454L-34.16,453L-36.3,451.4L-42,448.3L-42,267.3L-42,267.3L-41.55,267.6L-40.84,268L-40.21,268.1L-39.58,268.2L-39.2,268.1L-38.95,268.6L-38.65,269.3L-37.9,269.7L-37.01,270.1L-36.3,270.8L-35.84,271.3L-35.25,271.8L-34.7,272.6L-34.2,273.9L-33.95,274.7L-33.65,275.2L-33.73,275.7L-33.15,276.6L-32.69,277.1L-31.93,277.4L-30.46,277.8L-29.66,278.6L-28.99,278.9L-28.23,279.8L-27.56,280L-26.72,280L-25.92,280.4L-25.29,281.2L-24.87,282.2L-24.24,282.7L-23.9,283.7L-24.28,284.9L-23.95,285.6L-23.27,286.1L-22.22,286.6L-21.25,286.5L-20.75,286.7L-20.46,287.2L-20.25,287.8L-19.83,289.2L-19.62,290.1L-20.04,291L-20.16,291.6L-19.95,292.4L-18.94,292.8L-18.02,293.1L-17.47,293.7L-16.84,293.9L-15.96,293.9L-14.83,293.7L-14.2,293.4L-13.78,293.3L-13.31,293.4L-12.3,293.8L-11.09,294.1L-9.994,293.9L-9.027,293.8L-8.061,293.6L-7.094,292.9L-6.296,293L-5.708,292.5L-4.909,291.8L-4.195,291.1L-3.607,290.9L-2.64,291.3L-1.338,291.8L-0.581,292.4L-0.035,292.6L0.553,293.1L1.688,293.1L2.906,292.8L3.873,292L4.881,291.8L5.554,291.6L6.184,291.7L8.621,293.1L9.293,293.9L10.13,294L10.85,294.4L11.98,294.9L12.61,295.3L13.41,295.6L14,296.2L14.92,296.6L15.76,296.8L16.1,297.4L16.1,297.7L16.02,297.9L15.13,299.2L13.49,301.9L11.98,304.2L9.63,307.9L8.285,310L8.621,310.1L10.68,311L11.18,311L11.94,310.8L12.45,310.4L12.91,310.4L13.37,310.7L14.08,311.2L14.55,312.5L14.92,313.1L15.76,313.6L16.65,314.4L17.28,315.3L17.28,315.3L17.19,316L16.82,316.4L16.23,316.4L15.34,315.9L14.71,316L14.08,316L13.16,315.4L12.87,314.8L12.15,314.3L10.68,314.5L9.461,314.5L8.453,314.4L7.529,314.5L6.772,315.2L6.184,316L5.512,316.6L3.495,317.1L2.444,317.1L1.478,317.5L0.091,317.7L-0.876,318L-2.598,318.2L-4.657,318.4L-5.834,319L-6.254,319.2L-7.431,320L-9.49,321.3L-10.58,321.7L-11.97,323.1L-13.57,324.3L-14.62,325L-16.17,325.3L-16.84,325.7L-17.05,326.1L-16.93,326.6L-17.18,327.8L-17.68,330L-17.81,331.1L-17.89,331.7L-18.94,333.5L-20.04,335.2L-20.58,336.3L-20.92,337.1L-20.54,337.8L-20.12,339L-19.74,340L-19.62,340.7L-19.74,341.4L-20.2,342.1L-20.96,342.6L-21.93,342.7L-23.99,343.9L-26.26,345.8L-27.01,346.6L-27.22,347.4L-27.56,348.7L-27.39,349.3L-27.01,349.7L-26.59,350.8L-26.55,351.3L-26.89,351.7L-27.56,351.7L-28.11,351.8L-28.57,352.1L-28.99,352L-29.41,352.2L-29.41,352.6L-29.28,353.1L-29.32,353.7L-29.62,354L-29.83,354.3L-29.62,354.6L-29.2,354.9L-28.61,355.4L-27.73,356.4L-27.1,356.6L-26.55,356.9L-26.51,357.5L-26.68,358L-27.18,358.3L-27.22,358.7L-26.55,359.3L-26.13,359.7L-25.67,360.3L-25.29,361.2L-25.29,361.7L-24.83,362.4L-24.57,363L-24.57,363.6L-23.86,364.1L-23.23,364.5L-22.81,364.9L-22.35,365.1L-22.26,365.5L-22.31,366.2L-21.68,367.2L-20.5,368L-19.57,369.1L-18.99,369.9L-17.85,371.2L-17.81,372.7L-19.2,374.4L-20.58,376.2L-18.31,376.1L-15.96,376.1L-13.52,376.6L-11.88,377.1L-10.92,377.3L-10.2,377.9L-9.868,378.7L-9.574,379.4L-9.532,380.4L-8.481,381.3L-8.565,382.1L-8.607,383.2L-8.145,383.2L-5.162,383.2L-1.884,383.2L1.225,383L2.402,382.7L3.831,381.4L4.713,381L5.554,380.3L6.562,379.2L7.36,378.7L8.033,378L8.999,377.4L9.419,376.9L9.756,376.8L10.55,376.5L10.22,377.1L9.966,377.7L9.882,378.6L10.26,379.6L9.924,380.4L9.419,381L9.419,382.8L9.419,385.3L9.419,387.4L9.377,390.1L9.377,393.1L9.377,395.1L9.924,394.7L10.64,394.4L11.6,395.3L12.28,395.7L12.87,395.8L13.49,395.8L14.29,395.5L16.1,394.8L17.32,394.1L18.75,394.2L20.68,394.4L21.77,394.4L23.24,397L24.3,398.9L25.51,401L26.52,402.8L27.99,405.4L29.3,407.7L30.64,410.1L32.19,412.9L31.73,413.6L31.31,414.2L31.35,415.1L30.72,415.6L30.09,415.9L29.3,416.7L28.79,417.4L28.75,418.4L28.88,423.4L28.75,424.8L28.33,426L27.91,426.6L27.66,427L28.29,428.2L28.83,430.6L29.25,431L29.8,432L30.05,432.9L29.93,433.2L28.88,433.7L28.5,434.1L28.37,435.4L27.91,435.9L27.15,436.5L26.65,437.3L26.23,437.8L25.81,438.1L25.6,438.9L25.3,439.9L24.34,440.4L24.17,441.6L24.17,442.5L24.67,443.4L26.35,445.3L26.52,445.8L25.55,446.9L25.01,447.7L23.66,450.2L23.62,450.7L23.96,451.8L26.02,456.8L26.35,457.2L26.98,457.7L27.99,457.7L29.55,458.2L30.3,458.8L30.39,459.1L30.22,459.3L29.38,459.8L28.45,460.3L28.16,460.8L28.08,461.6L28.29,462.8L27.91,463.2L26.98,463.7L26.23,464.4L25.43,465.5L24.08,467.2L23.62,467.7L23.41,468.3L22.66,468.5L21.23,469.6L21.02,470.2L21.23,470.8L21.94,471.3L22.45,472L22.57,472.8L22.57,473.4L21.69,474.2L20.55,475.1L19.13,475.3L18.58,475.8L18.71,476.8L19.17,478.2L19.17,479.3L18.75,480.6L17.74,482L17.7,482L9.97,482ZM37.83,123L37.24,124.3L36.9,123.7L36.86,122.6L36.61,122.2L36.14,122L35.89,121.6L35.89,121.1L37.66,121.9ZM99.3,58.33L99.01,58.59L98.75,58.56L98.59,58.33L98.59,57.91L98.8,58.03L98.92,58.08L98.96,58.16ZM95.86,56.78L95.77,56.82L95.6,56.72L95.64,56.5L95.77,56.42L95.86,56.48L95.94,56.63ZM18.03,119.3L18.08,119.6L17.53,119.5L16.82,118.7L16.1,118.2L16.27,117.6L16.44,117.4L17.19,117.9L17.91,119ZM31.44,124L30.85,124.2L28.58,123L26.73,121.1L26.69,120.2L27.15,120.2L27.66,120.6L28.37,121.9L30.56,122.8ZM-3.901,30.96L-3.649,31.33L-3.103,33.82L-3.061,34.64L-3.607,35.84L-3.523,36.31L-2.346,37.43L-2.346,37.82L-2.472,38.22L-3.481,39.27L-4.237,40L-3.985,40.84L-3.355,41.61L-3.271,42.27L-3.481,43.15L-4.405,44.22L-4.909,44.6L-6.338,44.65L-6.464,44.8L-5.792,45.84L-4.993,47.04L-3.691,47.96L-3.397,48.83L-3.733,49.65L-3.775,51.67L-4.741,50.69L-5.834,49.88L-6.506,49.56L-7.179,49.35L-12.35,49.45L-12.94,49.6L-13.4,49.86L-13.86,49.99L-15.29,50.24L-16.72,50.28L-20.04,49.62L-21.34,49.28L-22.64,49.07L-24.16,49.13L-25.67,49.35L-26.89,49.81L-27.77,50.67L-27.94,51.44L-28.48,51.65L-29.7,50.39L-30.84,49.52L-32.1,48.85L-34.7,47.9L-35.21,47.32L-35.42,46.63L-34.32,44.48L-33.15,44.07L-32.48,44.01L-31,44.26L-29.53,44.75L-28.23,45.08L-26.17,45.2L-25.04,45.74L-17.18,46.55L-15.71,46.81L-15.12,46.72L-14.62,46.4L-14.2,45.82L-13.69,45.37L-11.34,45.29L-10.88,45.1L-10.54,44.48L-10.54,43.86L-11.93,43L-14.07,41.16L-15.96,38.95L-15.12,38.22L-15.46,36.87L-15.12,35.63L-14.7,34.4L-16.55,33.35L-18.78,32.3L-21.84,31.97L-22.77,31.69L-23.27,30.92L-22.81,29.86L-21.84,29.26L-20.71,28.91L-19.53,28.66L-16.72,28.36L-13.9,28.7L-11.51,29.78L-9.027,30.64L-5.96,30.92L-4.531,31.22ZM-15.88,42.59L-16.09,43.45L-19.07,42.42L-21.46,41.12L-21.38,40.41L-20.12,40.26L-18.94,40.69L-17.22,41.55ZM-14.24,27L-13.73,27.28L-13.94,27.64L-15.12,27.43L-16.34,27.02L-16.72,27.13L-16.97,27.08L-17.68,26.69L-17.05,26.39L-16.42,26.31L-15.71,26.33ZM124.9,205L122.5,202.2L120,199.5L117.5,196.7L117.4,196.3L118.4,195.1L119.3,194.1L120.1,193.6L120.4,193.1L120.1,191.1L120.1,190.4L119.8,189.6L119.6,188.7L119.8,188L120.2,187.5L120.7,187.3L121.8,187.1L122.6,187L122.9,186.7L123.4,186.4L124,186.4L125.2,186.6L125.8,186.2L126.7,185.6L129,184.5L129.5,183.8L129.8,182.8L129.8,182.3L129.6,182.1L129,181.9L128.2,181.9L127.5,182.2L126.8,182L126.2,181.4L126.2,180.9L126.5,180.1L126.3,179.6L125.2,178L125.2,177.6L126,176.9L126.5,176.3L127.1,174.8L127.6,174.3L129.1,174.1L129.6,173.8L130.4,173.1L131.5,172.2L133.2,171.5L133.7,170.2L134,169.9L135.4,169.2L135.6,168.8L135.6,168.5L133.4,165.6L133.8,165.8L135.5,167.7L136.4,168.1L136.6,168.1L136.6,167.6L137.5,167.8L139.7,169.1L142.9,171.2L147.5,175.2L148.8,176.8L149.6,177.5L151,179.2L151.4,180L151.3,183.4L150.1,185.7L149.9,187.4L149.8,189.7L149.1,191L150,190.3L150.3,188.3L151.1,187L152.1,185.6L153.5,185.3L154.9,185.9L156.1,186L157.1,186.4L159.3,188.6L161.5,190.4L162.3,191.7L164.6,192.4L165.9,193.5L166.4,194.5L166.7,197L166.2,200.7L166.3,200.9L165.7,201.7L165.6,202.1L165.2,203L164.9,203.4L165.4,204.5L165.9,204.5L166.1,204.7L166.2,204.9L166.2,205.1L165.9,205.3L165.5,205.5L165,206.1L165,206.8L164.7,207.1L163.8,207.3L162,207.3L161,207.4L160.3,207.5L159.8,207.9L159.2,208.2L158.8,208.3L158.3,208.8L157.9,209.5L158,209.9L158.5,210.6L158.7,211.2L158.4,212.3L158,213.1L157.8,213.8L157.5,215L156.8,216.3L156.3,217.1L156.3,217.9L156.6,219L158,220.8L158.5,221.6L158.9,222.9L160.2,223.9L161,224.7L160.9,225.8L161.1,226.2L161.6,226.4L162.2,226.6L162.9,226.6L163.5,226.5L163.6,226.4L165.1,226.4L165.2,226.6L165.3,228.2L165.4,228.9L165.7,229.1L165.9,229.5L165.9,229.8L166,230.7L166.2,231.2L166.2,232.1L166.3,232.5L166.7,232.7L167.2,233.4L167.4,233.5L167.5,233.7L167.9,234.7L168.1,235L168.3,235L168.3,235.3L168.6,236.2L168.8,236.5L169.3,237.1L169.4,237.8L169.9,238.7L170.5,239.2L170.7,239.8L171.4,241.1L172,242L173,242.3L173.7,242.4L174.2,242.7L174.6,243.1L174.1,243.3L173.7,243.5L173.1,243.4L172.2,243.5L171.3,243.7L170.5,243.8L169,243.4L168.5,243.4L168.2,243.2L167.5,242.4L167.2,242.3L166.4,242.7L165.4,242.9L164.9,242.9L164.3,243.2L163.8,243.5L162.8,245.1L162.2,245.6L161.7,245.9L160.5,245.9L159.3,245.9L158.4,246.3L157.5,246.5L157.1,246.6L157,247.4L156.8,247.8L156.5,248.1L155.9,248.1L155.3,248.1L154.9,247.7L154.3,247.6L153.6,247.4L153.3,247.2L153,247.3L152.7,247.6L152.5,247.9L152.3,248.5L151.4,248.7L151,249L151.2,250.1L151.2,250.5L150.9,250.8L149.9,250.9L148.9,250.8L148.4,251.2L147.8,251.7L147.3,251.8L146.9,251.7L146.2,251.2L145.6,250.6L144.1,250.1L142.6,249.7L141.6,248.7L141.3,248.2L140.9,248L139.7,246.7L139,245.9L138.3,245.7L137.5,245.4L137.5,244.8L137.5,244.3L137.1,244.1L136.6,243.9L136.4,243.6L136.5,242.9L136.6,241L136.4,239.2L135.4,238.6L134.9,238.2L134.1,235.6L133.7,234.4L133.6,233.5L133.9,230.9L134.2,229.7L135.1,227.5L135.6,226.7L135.6,226.1L135.5,225.4L135.3,223.9L136.7,223L137.3,222.6L137.5,222L138.2,221.2L138.5,220.4L138.8,219.8L138.8,219.5L138.4,219.3L138,218.8L137.2,217.2L136.9,216.9L136.7,216.4L136.8,215.7L137.1,214.9L137,214.6L136.6,214.2L135.5,213.5L134.7,213.5L134,213.2L133,213.2L132.3,213.1L131.9,212.8L131.9,212.4L132.1,212.1L132.8,211.3L133.2,210.4L133.3,209.6L133.4,208.4L133.6,207.5L133.7,206.4L132.7,205.7L132.4,205.1L131.9,204.6L131.5,204.6L130.8,204.3L129.7,205L128.8,204.9L128.2,205.2L126.9,205.1L126,204.8ZM113.5,124.6L112.8,124.6L113.1,124.2L113.2,123.4L113.6,122.5L114.2,121.9L114.8,122L114.6,124.1ZM123.9,94.78L123.8,95.47L123.5,95.6L123.1,95.03L121.2,95.11L120.9,94.59L120.9,94.36L121.8,93.48L120.7,93.25L120.3,92.88L119.3,91.05L119.4,90.51L119.8,90.23L120.4,90.19L121.6,90.78L122.5,91.62L122.7,91.64L122.9,91.87L122.7,92.48L123.2,92.98L123.4,93.34ZM118.1,73.77L116.7,73.89L115.8,73.79L115.6,72.92L116.1,72.18L115.7,71.3L115.9,70.77L116.4,70.41L117.2,70.87L117.3,71.55L117.7,72.16L119.9,73.45ZM115,76.49L114.1,77.03L113.6,76.87L113,75.81L112.7,72.9L113,72.44L113.2,72.25L114.4,72.61L114.9,73.01L115.5,73.28L115.2,73.81L115.4,75.98ZM119.2,77.9L118.6,77.94L118.3,77.83L118.2,77.12L118.7,76.61L119,76.49L119.4,77.06L119.6,77.52ZM196.4,238.6L196.6,238.5L197,238.4L197.4,238.4L198,237.6L198.9,237L200.6,234.1L201.3,232.9L201.4,232.2L201.6,230.8L201.2,229.2L201.4,228.7L202.9,226.6L203.5,225.5L203.6,224.6L203.7,223.9L203.6,223.5L203.2,223.4L202.7,222.5L202.3,221.8L201.3,221L200.7,220.2L199.5,218.4L199.6,217.4L199.3,217.1L199,216.7L199,216.2L198.8,215.1L198.5,214.1L198.4,213.4L198.6,212.2L198.5,211L198.1,210.3L198,209.3L198.1,208.4L198.4,207.8L198.3,207.2L199.8,205.2L200.8,204L201.8,203.1L202.6,202.5L203.8,199.4L204.6,198.3L205.4,198.2L210,200.8L212.1,201L216.5,202.4L218,204.2L221.7,207.1L223.6,208L223.6,208.8L223.2,210L224.4,209L226.3,210.7L226.8,211.5L227.4,213.1L227.2,214L227,214.6L226.9,214.9L227.5,214.4L227.8,214L227.9,212.9L228.3,211.6L229,211.6L229.5,212.4L230.5,215.7L230.9,216.4L231,217.4L230.9,217.9L231,218.4L230.7,218.6L229.7,219.1L229.2,219.9L229,220.6L228.4,221.1L227.8,221.7L227.6,222.2L227.1,222.6L227,223.2L225.6,225.5L225.1,226.5L224.3,227.6L223.8,228L223.1,228.6L222.8,229.4L222.8,230.2L222.3,231.1L222.1,231.9L221.7,232.4L220.5,234.9L220.4,235.7L220.2,236.3L219.4,237.5L218.8,238.2L217.8,238.8L216.8,239.3L216.4,240L215.7,240.3L215.2,240.3L214.4,240.1L213.2,240L212.6,240L212.3,239.7L212,239L211.4,238.5L211,238.7L210.2,239.2L209.4,239.5L208.7,239.4L207.3,239L206.7,238.9L206.5,238.5L206.3,238.3L206,238.4L205.6,238.8L205.1,239.2L204.3,239.7L202.6,240.7L202.1,241L201.7,240.8L200.9,240.7L200.2,240.6L198.6,240L197.6,239.6L197.2,239L196.7,238.8ZM98.46,51.31L97.11,51.31L97.24,51.03L97.83,50.73L98.29,50.77L98.46,50.88ZM100.5,53.67L100.4,53.69L100.2,53.59L100.1,53.4L100,53.23L100.1,53.1L100.1,53.16L100.9,53.27L100.8,53.42L100.7,53.57ZM-3.775,51.67L-3.733,49.65L-3.397,48.83L-3.691,47.96L-4.993,47.04L-5.792,45.84L-6.464,44.8L-6.338,44.65L-4.909,44.6L-4.405,44.22L-3.481,43.15L-3.271,42.27L-3.355,41.61L-3.985,40.84L-4.237,40L-3.481,39.27L-2.472,38.22L-2.346,37.82L-2.346,37.43L-3.523,36.31L-3.607,35.84L-3.061,34.64L-3.103,33.82L-3.649,31.33L-3.901,30.96L-3.397,30.75L-3.061,30.01L-2.598,29.35L-2.01,28.98L-1.296,28.76L0.049,28.79L1.898,29.37L2.444,29.35L4.251,28.83L5.722,28.53L7.15,28.87L7.697,29.32L8.873,30.04L9.461,30.25L11.27,30.23L11.77,30.29L13.33,31.48L14.59,31.95L15.34,31.97L16.69,31.52L17.36,31.54L18.12,32.55L18.29,33.99L18.92,35.3L19.92,36.14L24.76,35.8L25.81,36.48L25.47,37.06L24.76,37.37L22.49,37.24L21.48,37.3L21.27,37.86L21.27,38.4L22.61,38.52L23.92,38.78L25.26,39.21L26.65,39.49L28.16,39.68L29.67,39.98L32.24,41.03L35.01,43.36L35.77,43.9L36.27,44.63L36.02,45.55L35.01,47.02L34.46,47.49L33.62,47.79L33.08,48.39L32.53,49.43L32.19,49.52L31.82,49.47L31.14,48.88L30.64,47.98L29.3,47.15L27.7,47.25L25.34,46.74L23.92,47L22.49,47.04L21.02,46.78L19.55,46.7L18.08,47.02L16.65,47.55L16.14,47.92L15.22,48.75L14.71,49.07L11.27,49.49L10.26,48.88L9.335,48.02L7.991,47.92L6.058,48.56L4.881,48.79L4.377,49.09L4.251,49.39L4.251,50.58L3.957,51.29L2.066,53.99L1.015,55.91L0.595,56.5L0.091,56.63L-0.876,55.52L-1.464,55.12L-2.178,54.93L-2.472,54.35L-2.472,53.52L-2.682,52.71L-3.103,52.1ZM118.6,85.66L117.5,85.93L117.1,83.83L116.3,82.32L116.4,81.37L116.6,81.02L118.2,81.6L118.7,82.3L119,84.17ZM-42,18.91L-41.01,19.09L-40.12,19.37L-38.36,20.32L-37.56,20.97L-35.79,22.68L-34.32,23.35L-33.02,23.52L-32.56,23.41L-32.14,23.59L-31.76,23.82L-31.42,24.58L-31.63,25.38L-32.35,26L-32.77,26.48L-34.62,26.52L-37.22,26.74L-39.74,27.43L-40.96,27.99L-41.55,28.36L-42,28.47L-42,18.91ZM-42,137.3L-40.59,135.9L-39.66,135.3L-35.12,136.7L-33.69,136.6L-33.95,136.9L-34.62,137L-35.58,137.4L-35.84,138.2L-35.21,139.1L-34.49,139.4L-33.9,138.8L-33.31,137.2L-32.39,135.3L-32.14,133.4L-31.51,132.8L-30.5,132.6L-28.78,132.9L-27.43,133.3L-26.05,133.4L-21.8,133.1L-14.91,128.1L-11.68,127.1L-9.7,126L-8.397,124L-8.061,122.4L-7.137,121.9L-6.128,121.9L-5.666,121.5L-5.54,121L-3.145,119.7L-1.758,119.5L-0.581,119.5L2.15,120.7L3.369,122.7L3.579,124.1L1.898,125.7L1.478,126.3L1.478,126.3L1.057,126.5L0.511,126.8L-1.044,127.4L-3.187,127.9L-6.002,128.7L-6.632,129.4L-9.364,134.3L-11.68,135.2L-12.52,136L-13.14,136.9L-14.53,138.6L-15.12,139.8L-16.63,142.7L-17.47,146.2L-17.77,148.1L-18.23,151L-18.9,152.4L-19.79,153.8L-20.75,155.1L-21.59,156.5L-22.31,157.6L-22.43,158L-22.1,158.3L-20.41,158L-19.74,157.7L-18.82,157.3L-18.27,157.5L-17.68,158.7L-17.05,158.9L-16.42,158.7L-15.79,159L-14.95,162.1L-14.24,164.7L-12.6,166.3L-11.34,167.6L-11.04,168.7L-10.71,170.3L-10.67,171.1L-11.04,171.6L-11.68,172.5L-11.84,174.4L-11.97,175L-12.05,176.7L-11.97,177.7L-11.63,178.5L-11.09,179L-9.952,179.2L-8.901,179.5L-8.313,180.9L-7.473,182.7L-6.548,183.5L-5.204,184L-4.279,183.8L-2.052,183.5L-0.161,183.6L2.654,184.1L3.705,184L5.049,183.9L7.402,183L8.243,182.8L9.209,182.9L10.6,183.4L11.39,183.8L12.36,184.2L13.75,184.5L14.67,184.5L15.34,184.4L15.76,184.6L17.99,187.4L19.92,189.8L21.61,191.9L23.41,194L23.54,194.2L24.38,193.9L24.93,194L25.43,194.5L26.27,194.3L27.49,193.5L29.25,193.3L31.61,193.8L34.72,193.8L38.54,193.3L40.93,192.8L41.86,192.2L43.41,192.3L45.26,192.8L46.27,193.5L46.4,194.2L46.77,195.3L46.35,196.4L45.18,197.6L44.51,199.1L44.38,200.8L43.79,202.1L42.7,203L42.24,204.2L42.49,205.8L42.36,208.2L41.9,211.3L41.9,213.1L42.36,213.7L42.62,214.6L42.57,215.8L42.74,216.7L43.33,218.1L44.17,220.7L44.84,221.8L45.43,222.2L46.06,222.7L47.83,225.3L48.25,225.9L48.12,226.4L47.95,226.8L47.74,227L45.89,228.6L42.15,232L41.82,232.5L41.86,233.2L42.95,232.7L44.09,233.1L44.67,233.2L44.93,233.5L45.26,234.4L45.64,234.5L46.19,234.9L47.32,235.9L48.25,236.9L48.92,237.4L49.42,237.9L49.59,238.6L49.38,239.2L49.97,240.8L50.35,241.3L50.56,241.9L50.35,242.4L50.85,243.2L51.35,244.5L52.03,246.2L52.11,247.1L52.36,247.5L52.7,248.8L53.25,249.9L53.12,250.7L53.33,251.5L51.1,252.1L50.94,252L50.81,251.7L50.85,249.5L50.85,246.9L50.47,245.9L49.47,244.3L48.16,242.1L47.78,241.4L47.2,241.1L46.52,241L46.06,241.2L45.39,241.6L44.76,242L43.58,243.4L42.36,244.9L41.65,245.2L40.98,245.4L40.35,245.3L39.84,244.9L39.3,244.1L38.71,243L37.95,242.6L37.66,242.9L37.41,243.6L37.24,244.2L37.74,245.1L38.16,245.7L37.41,245.7L35.05,245.7L32.28,245.7L29.55,245.7L27.11,245.7L24.8,245.7L23.92,245.6L23.03,245.3L22.19,245.1L21.77,245.1L20.93,245.5L19.92,245.5L19.21,245.9L18.62,245.8L18.62,247.8L18.62,250.5L18.58,253.4L19.21,253.2L19.76,253.2L20.18,253.4L21.31,253.3L21.9,253.3L22.49,253.4L23.03,253.4L23.37,253.7L23.83,253.6L24.34,253.4L24.88,253.5L25.51,253.9L25.93,254.6L26.27,255.3L26.65,255.7L26.61,256.4L26.61,257L26.48,257.5L26.65,257.8L26.73,258.1L26.73,258.3L26.52,258.4L26.06,258.4L25.55,258.5L25.22,258.5L24.97,258.2L24.71,258.1L24.34,258.2L23.96,258L23.62,257.6L23.03,257.3L22.4,257.4L21.94,257.6L21.48,257.8L21.1,258.1L20.68,258L20.14,258.2L19.71,258.5L19.13,258.7L18.5,258.8L17.74,258.9L17.02,259L16.23,259L16.18,260.6L16.1,263.6L16.06,265.6L16.06,267.4L16.35,268.1L17.78,269.5L18.87,270.2L19.8,271.1L20.77,271.4L21.14,271.7L21.39,272.3L21.52,272.8L21.65,273.3L21.52,273.8L21.31,274.2L21.39,274.7L21.73,275.1L21.82,275.6L22.07,276L22.19,276.5L22.49,276.8L22.82,277.1L23.29,277.5L23.37,277.8L23.29,278.2L23.29,278.5L23.75,279.2L23.87,279.8L23.66,280.3L23.45,282.4L22.95,284.7L22.61,286.5L22.11,289.4L21.48,292.8L20.72,296.9L20.01,301L19.25,305L18.62,308.6L17.91,312.5L17.49,314.9L17.28,315.3L16.65,314.4L15.76,313.6L14.92,313.1L14.55,312.5L14.08,311.2L13.37,310.7L12.91,310.4L12.45,310.4L11.94,310.8L11.18,311L10.68,311L8.621,310.1L8.285,310L9.63,307.9L11.98,304.2L13.49,301.9L15.13,299.2L16.02,297.9L16.1,297.7L16.1,297.4L15.76,296.8L14.92,296.6L14,296.2L13.41,295.6L12.61,295.3L11.98,294.9L10.85,294.4L10.13,294L9.293,293.9L8.621,293.1L6.184,291.7L5.554,291.6L4.881,291.8L3.873,292L2.906,292.8L1.688,293.1L0.553,293.1L-0.035,292.6L-0.581,292.4L-1.338,291.8L-2.64,291.3L-3.607,290.9L-4.195,291.1L-4.909,291.8L-5.708,292.5L-6.296,293L-7.094,292.9L-8.061,293.6L-9.027,293.8L-9.994,293.9L-11.09,294.1L-12.3,293.8L-13.31,293.4L-13.78,293.3L-14.2,293.4L-14.83,293.7L-15.96,293.9L-16.84,293.9L-17.47,293.7L-18.02,293.1L-18.94,292.8L-19.95,292.4L-20.16,291.6L-20.04,291L-19.62,290.1L-19.83,289.2L-20.25,287.8L-20.46,287.2L-20.75,286.7L-21.25,286.5L-22.22,286.6L-23.27,286.1L-23.95,285.6L-24.28,284.9L-23.9,283.7L-24.24,282.7L-24.87,282.2L-25.29,281.2L-25.92,280.4L-26.72,280L-27.56,280L-28.23,279.8L-28.99,278.9L-29.66,278.6L-30.46,277.8L-31.93,277.4L-32.69,277.1L-33.15,276.6L-33.73,275.7L-33.65,275.2L-33.95,274.7L-34.2,273.9L-34.7,272.6L-35.25,271.8L-35.84,271.3L-36.3,270.8L-37.01,270.1L-37.9,269.7L-38.65,269.3L-38.95,268.6L-39.2,268.1L-39.58,268.2L-40.21,268.1L-40.84,268L-41.55,267.6L-42,267.3L-42,137.3ZM17.7,482L17.74,482L18.75,480.6L19.17,479.3L19.17,478.2L18.71,476.8L18.58,475.8L19.13,475.3L20.55,475.1L21.69,474.2L22.57,473.4L22.78,474.8L24.38,476.6L24.88,478.7L25.26,479L27.45,480.1L27.49,480.3L27.15,480.7L26.86,481.2L27.07,481.9L27.09,482L17.7,482ZM402,394L401,395.6L400.6,396L399.9,395.8L399.9,397.2L398.4,399.5L397.9,399.8L397.9,399.2L398.2,398.7L398.3,398.2L398.3,397.6L397.9,398L396.9,399.7L397.2,400.9L396.6,402.8L394,408.1L390.9,412.6L390.2,414L387.6,417L385.7,418.4L385.2,418.5L384.5,418.3L384.2,416L382.7,414.6L382.3,414.3L381.7,415.8L381.2,416.3L380.4,416.3L381.2,417L381.5,417.7L380.7,419.3L380.6,420.6L379.2,422.1L378.4,423.2L377.9,424.6L377.6,425.9L378.3,425.6L378.6,425.8L378.8,426.2L378.7,426.8L378.2,428L378.3,430.8L378.1,431.4L378.6,432.1L379.1,430.9L379.4,431.2L378,438.7L378.6,442.1L378.7,446L379.4,449.7L380,453.1L380.1,453.4L379.2,457.3L378,461.1L377.3,464.3L376.8,467.7L376.3,469.4L376.2,471.1L376.7,475.1L376.9,475.8L375.5,477.6L373.9,478.5L373,479.3L371.4,482L162.7,482L162.7,482L162.2,481.7L161.7,480.9L160.9,478.8L159.5,475.4L159.4,474.2L158.9,473.5L158,473.7L157,473.5L154.5,471.6L152.9,470.6L152.3,470.1L152.1,468.2L151.6,466.1L151.4,463.6L151.4,462.9L152.8,461L152.8,460L153,459.2L152.9,458.5L152.5,458.5L152,458.8L151.2,459L150.6,459L145.8,458.8L140.2,458.6L135.6,458.4L131.5,458.3L131.4,456.6L131.2,453.8L131,451.8L130.8,448.7L129.1,446.8L127.4,444.6L126.8,444.1L128.9,444L130.4,444L130.1,438.3L129.6,437.7L129.2,435.9L129,434.9L128.2,434L128,433.1L128.2,432.4L128.6,432.1L128.9,431.1L128.7,430.1L128.2,429.2L127.7,428.3L126.7,427.8L125.1,426.8L122.9,425.6L121,424.7L120.4,424.8L117.1,425.2L115.9,425.4L115.2,425.1L112.7,425.2L111.7,424.5L110.9,423.7L109.1,421.7L108.9,420.8L108.2,420.5L107.2,420.6L106.1,420.4L104.1,419.6L102.2,418.8L101.3,418.8L100.5,418.3L99.05,417L98.38,416.5L98.08,415.9L97.79,414.9L97.2,414.7L96.44,414.9L95.64,415.4L94.51,415L93.12,414.1L92.24,413.4L91.74,413.1L90.52,412.6L89.38,412.5L87.62,413.2L86.19,412.9L83.92,412.7L81.99,412.1L81.27,410.8L80.9,409.9L79.76,409.3L78.84,408.6L77.74,407.6L77.2,407.3L76.23,407L75.31,406.6L75.22,405.9L74.89,405.1L74.8,404.9L74.17,403.8L73.88,403.7L73.54,403.9L73.33,404.1L73.08,403.9L73,403.4L73.16,402.7L72.83,401.9L71.94,401.1L71.48,400.2L71.44,399.3L71.23,398.7L70.89,398.4L70.69,397.9L70.64,397.2L70.89,396.3L71.44,395.3L71.31,393.7L70.52,391.6L70.1,390.1L70.01,389.1L70.14,388.4L70.6,387.8L71.57,386.1L71.73,384.8L71.44,383.4L71.4,382.4L71.61,381.6L71.27,380.6L70.6,379.7L70.14,379.7L69.47,379.9L68.71,380.7L67.78,380.9L66.99,380.4L64.42,380.6L60.47,381.1L58.88,381.6L57.95,381.8L56.86,381.9L55.05,382.8L50.6,386.3L49.67,386.8L48.62,386.9L47.99,387.4L47.03,387.7L45.09,389.1L44.09,390.2L43.46,391.2L42.7,391.3L42.15,391L40.3,391.1L39.38,391.5L38.37,392.4L37.11,394.2L36.56,394.7L35.56,395.2L34.38,395.6L32.95,396.3L32.28,396.3L31.73,396.4L31.23,396.1L31.06,395.5L30.3,395.1L28.54,394.9L25.89,394.5L23.16,394.4L21.77,394.4L20.68,394.4L18.75,394.2L17.32,394.1L16.1,394.8L14.29,395.5L13.49,395.8L12.87,395.8L12.28,395.7L11.6,395.3L10.64,394.4L9.924,394.7L9.377,395.1L9.377,393.1L9.377,390.1L9.419,387.4L9.419,385.3L9.419,382.8L9.419,381L9.924,380.4L10.26,379.6L9.882,378.6L9.966,377.7L10.22,377.1L10.55,376.5L9.756,376.8L9.419,376.9L8.999,377.4L8.033,378L7.36,378.7L6.562,379.2L5.554,380.3L4.713,381L3.831,381.4L2.402,382.7L1.225,383L-1.884,383.2L-5.162,383.2L-8.145,383.2L-8.607,383.2L-8.565,382.1L-8.481,381.3L-9.532,380.4L-9.574,379.4L-9.868,378.7L-10.2,377.9L-10.92,377.3L-11.88,377.1L-13.52,376.6L-15.96,376.1L-18.31,376.1L-20.58,376.2L-19.2,374.4L-17.81,372.7L-17.85,371.2L-18.99,369.9L-19.57,369.1L-20.5,368L-21.68,367.2L-22.31,366.2L-22.26,365.5L-22.35,365.1L-22.81,364.9L-23.23,364.5L-23.86,364.1L-24.57,363.6L-24.57,363L-24.83,362.4L-25.29,361.7L-25.29,361.2L-25.67,360.3L-26.13,359.7L-26.55,359.3L-27.22,358.7L-27.18,358.3L-26.68,358L-26.51,357.5L-26.55,356.9L-27.1,356.6L-27.73,356.4L-28.61,355.4L-29.2,354.9L-29.62,354.6L-29.83,354.3L-29.62,354L-29.32,353.7L-29.28,353.1L-29.41,352.6L-29.41,352.2L-28.99,352L-28.57,352.1L-28.11,351.8L-27.56,351.7L-26.89,351.7L-26.55,351.3L-26.59,350.8L-27.01,349.7L-27.39,349.3L-27.56,348.7L-27.22,347.4L-27.01,346.6L-26.26,345.8L-23.99,343.9L-21.93,342.7L-20.96,342.6L-20.2,342.1L-19.74,341.4L-19.62,340.7L-19.74,340L-20.12,339L-20.54,337.8L-20.92,337.1L-20.58,336.3L-20.04,335.2L-18.94,333.5L-17.89,331.7L-17.81,331.1L-17.68,330L-17.18,327.8L-16.93,326.6L-17.05,326.1L-16.84,325.7L-16.17,325.3L-14.62,325L-13.57,324.3L-11.97,323.1L-10.58,321.7L-9.49,321.3L-7.431,320L-6.254,319.2L-5.834,319L-4.657,318.4L-2.598,318.2L-0.876,318L0.091,317.7L1.478,317.5L2.444,317.1L3.495,317.1L5.512,316.6L6.184,316L6.772,315.2L7.529,314.5L8.453,314.4L9.461,314.5L10.68,314.5L12.15,314.3L12.87,314.8L13.16,315.4L14.08,316L14.71,316L15.34,315.9L16.23,316.4L16.82,316.4L17.19,316L17.28,315.3L17.49,314.9L17.91,312.5L18.62,308.6L19.25,305L20.01,301L20.72,296.9L21.48,292.8L22.11,289.4L22.61,286.5L22.95,284.7L23.45,282.4L23.66,280.3L23.87,279.8L23.75,279.2L23.29,278.5L23.29,278.2L23.37,277.8L23.29,277.5L22.82,277.1L22.49,276.8L22.19,276.5L22.07,276L21.82,275.6L21.73,275.1L21.39,274.7L21.31,274.2L21.52,273.8L21.65,273.3L21.52,272.8L21.39,272.3L21.14,271.7L20.77,271.4L19.8,271.1L18.87,270.2L17.78,269.5L16.35,268.1L16.06,267.4L16.06,265.6L16.1,263.6L16.18,260.6L16.23,259L17.02,259L17.74,258.9L18.5,258.8L19.13,258.7L19.71,258.5L20.14,258.2L20.68,258L21.1,258.1L21.48,257.8L21.94,257.6L22.4,257.4L23.03,257.3L23.62,257.6L23.96,258L24.34,258.2L24.71,258.1L24.97,258.2L25.22,258.5L25.55,258.5L26.06,258.4L26.52,258.4L26.73,258.3L26.73,258.1L26.65,257.8L26.48,257.5L26.61,257L26.61,256.4L26.65,255.7L26.27,255.3L25.93,254.6L25.51,253.9L24.88,253.5L24.34,253.4L23.83,253.6L23.37,253.7L23.03,253.4L22.49,253.4L21.9,253.3L21.31,253.3L20.18,253.4L19.76,253.2L19.21,253.2L18.58,253.4L18.62,250.5L18.62,247.8L18.62,245.8L19.21,245.9L19.92,245.5L20.93,245.5L21.77,245.1L22.19,245.1L23.03,245.3L23.92,245.6L24.8,245.7L27.11,245.7L29.55,245.7L32.28,245.7L35.05,245.7L37.41,245.7L38.16,245.7L37.74,245.1L37.24,244.2L37.41,243.6L37.66,242.9L37.95,242.6L38.71,243L39.3,244.1L39.84,244.9L40.35,245.3L40.98,245.4L41.65,245.2L42.36,244.9L43.58,243.4L44.76,242L45.39,241.6L46.06,241.2L46.52,241L47.2,241.1L47.78,241.4L48.16,242.1L49.47,244.3L50.47,245.9L50.85,246.9L50.85,249.5L50.81,251.7L50.94,252L51.1,252.1L53.33,251.5L53.33,251.5L56.31,254.2L58.54,256.2L59.51,256.8L60.05,257L61.31,256.9L62.87,256.6L63.58,256.3L64.42,255.7L65.77,254.8L66.86,254.4L67.28,254.3L67.7,254.5L68.63,255L69.13,256L68.67,257.1L68.75,257.8L69.72,257.7L70.47,256.6L71.02,255.7L72.16,254.9L73.25,253.9L74,252.9L74.93,252.3L76.27,251.6L77.37,251.1L78.37,251.2L79.13,250.7L80.1,249.8L80.77,249.1L81.23,248.8L82.16,248.9L83.33,248.8L84.51,247.9L85.56,246.9L86.11,245.1L86.48,243.6L86.82,243.3L87.2,243L87.62,242.8L88.71,242.7L90.6,241.9L91.91,241L93.17,240.9L93.54,240.6L93.96,239.8L94.22,238.5L94.05,237.6L91.74,237.4L90.27,237.4L87.79,237.2L86.61,236.8L86.36,236.6L86.32,236.3L86.57,235.7L86.78,234.6L86.44,233.1L85.22,230.7L84.34,228.4L84.22,226.7L84.26,225L84.3,223.9L83.67,223L80.27,220.2L79.09,218.9L78.71,218L77.37,216.3L77.7,215.8L78.46,215.9L79.13,216.3L79.72,217.2L80.18,217.4L80.77,217.4L83.92,217.4L84.64,217.6L85.1,217.9L85.48,218.3L86.06,219.4L86.65,219.9L87.91,219.9L89.85,219.9L90.94,219.8L91.61,220.1L92.41,220.3L94.13,219.7L94.64,219.7L95.14,220L96.99,221.9L98.04,222.7L98.92,223.8L100.2,223.8L101.3,222.9L101.6,219.8L101.9,218.9L102.5,218.6L103.1,218.6L103.9,218.1L104.7,217.4L105.4,217.2L108.5,217.9L109.3,217.6L112.3,216.8L115.4,215.7L116.3,214.4L117.6,214L118.6,213L119.5,213.1L120.7,213.2L121.5,213L121.9,212.8L122.3,212.3L123,211L123.9,210.5L124.9,210L125.6,209.4L126.3,208.6L126.5,207.9L126.5,207.4L126.2,206.4L125.7,205.4L125.3,205.1L124.9,205L126,204.8L126.9,205.1L128.2,205.2L128.8,204.9L129.7,205L130.8,204.3L131.5,204.6L131.9,204.6L132.4,205.1L132.7,205.7L133.7,206.4L133.6,207.5L133.4,208.4L133.3,209.6L133.2,210.4L132.8,211.3L132.1,212.1L131.9,212.4L131.9,212.8L132.3,213.1L133,213.2L134,213.2L134.7,213.5L135.5,213.5L136.6,214.2L137,214.6L137.1,214.9L136.8,215.7L136.7,216.4L136.9,216.9L137.2,217.2L138,218.8L138.4,219.3L138.8,219.5L138.8,219.8L138.5,220.4L138.2,221.2L137.5,222L137.3,222.6L136.7,223L135.3,223.9L135.5,225.4L135.6,226.1L135.6,226.7L135.1,227.5L134.2,229.7L133.9,230.9L133.6,233.5L133.7,234.4L134.1,235.6L134.9,238.2L135.4,238.6L136.4,239.2L136.6,241L136.5,242.9L136.4,243.6L136.6,243.9L137.1,244.1L137.5,244.3L137.5,244.8L137.5,245.4L138.3,245.7L139,245.9L139.7,246.7L140.9,248L141.3,248.2L141.6,248.7L142.6,249.7L144.1,250.1L145.6,250.6L146.2,251.2L146.9,251.7L147.3,251.8L147.8,251.7L148.4,251.2L148.9,250.8L149.9,250.9L150.9,250.8L151.2,250.5L151.2,250.1L151,249L151.4,248.7L152.3,248.5L152.5,247.9L152.7,247.6L153,247.3L153.3,247.2L153.6,247.4L154.3,247.6L154.9,247.7L155.3,248.1L155.9,248.1L156.5,248.1L156.8,247.8L157,247.4L157.1,246.6L157.5,246.5L158.4,246.3L159.3,245.9L160.5,245.9L161.7,245.9L162.2,245.6L162.8,245.1L163.8,243.5L164.3,243.2L164.9,242.9L165.4,242.9L166.4,242.7L167.2,242.3L167.5,242.4L168.2,243.2L168.5,243.4L169,243.4L170.5,243.8L171.3,243.7L172.2,243.5L173.1,243.4L173.7,243.5L174.1,243.3L174.6,243.1L175,243.2L175.8,243.3L177.6,243.8L180.1,244.3L180.7,244.1L181.1,243.8L181.2,242.7L181.3,242L180.7,241.3L180.1,240.6L179.4,239.7L178.7,239.4L178.8,239L179.3,238.5L179.8,238.2L180,237.9L180.4,236.6L180.6,236.4L180.8,236.4L181,236.4L181.5,236.7L183.4,237.7L184.3,237.6L187.5,237.3L187.9,236.7L188.6,236.6L189.8,236.1L190.2,236L190.6,236.2L191.1,236L191.9,235.5L192.2,235.5L192.3,236L192.8,236.6L193.4,237.2L193.7,237.3L194.7,237.1L195.2,237.3L195.4,237.8L195.5,238.2L195.9,238.6L196.4,238.6L196.7,238.8L197.2,239L197.6,239.6L198.6,240L200.2,240.6L200.9,240.7L201.7,240.8L202.1,241L202.6,240.7L204.3,239.7L205.1,239.2L205.6,238.8L206,238.4L206.3,238.3L206.5,238.5L206.7,238.9L207.3,239L208.7,239.4L209.4,239.5L210.2,239.2L211,238.7L211.4,238.5L212,239L212.3,239.7L212.6,240L213.2,240L214.4,240.1L215.2,240.3L215.7,240.3L216.4,240L216.8,239.3L217.8,238.8L218.8,238.2L219.4,237.5L220.2,236.3L220.4,235.7L220.5,234.9L221.7,232.4L222.1,231.9L222.3,231.1L222.8,230.2L222.8,229.4L223.1,228.6L223.8,228L224.3,227.6L225.1,226.5L225.6,225.5L227,223.2L227.1,222.6L227.6,222.2L227.8,221.7L228.4,221.1L229,220.6L229.2,219.9L229.7,219.1L230.7,218.6L231,218.4L232.1,216.3L232.3,215.4L233.3,215.4L234.8,216.4L236.1,218L237.8,222.9L238,227.5L238.7,229.9L240.7,234.8L240.8,235.7L241.1,236.9L241.7,238L242.4,240L242.4,240.4L242,240.9L242.6,240.9L243.2,241.2L243.6,242.5L244.1,243.3L244.9,244.4L246.7,244.8L248.1,245L249.7,245.6L250.8,246.4L251.7,249.2L251.4,251L251.5,252.2L251,252.7L249.8,253.5L249.5,254L246.9,256L246.3,257L244.9,258.4L243.5,260.9L241.5,263.2L240.8,263.8L239.7,263.9L239,264.3L237.5,266.2L235.3,266.8L235.2,267.9L233.9,270.4L232.8,271.7L232.2,272.2L230.4,274.7L230.2,275.8L230.2,277.7L229.1,278.8L227.9,279.6L227.7,281.2L227.2,281.8L226.7,282.1L224.3,281.7L220.5,283.5L219.2,283.9L223.3,284L224.7,284.9L227.6,284.3L231.1,282.1L232.4,281.6L235.2,280.1L236.3,279.1L238.3,277.8L238.7,277.3L239.9,276.7L240.5,277.5L240.5,277.9L239.6,278.8L239.9,279.4L240.4,280.1L240.7,281.1L240.7,281.9L241.1,283.2L242.4,285L242.4,285.6L242.3,286.4L242.8,287L243.5,287.4L245.6,289.3L247.3,288.2L248.3,287.9L248.9,287.5L250.3,287.2L251.5,287.6L253.6,288.3L255.2,287.6L258.3,286L257.3,288.8L256.6,291.4L256.1,292.4L255.5,295.2L255,296L254.6,296.8L255.3,296.5L255.9,296.1L256.6,295L257.2,293.2L259.5,288.2L260.2,287.7L262.1,287.1L265.4,283.2L266.7,283.2L267.5,284.1L268.3,284.6L268.4,283.5L269.6,283.1L268.4,282.5L268.2,282.1L268.1,281.3L268.9,280.1L268.4,279.2L270.1,277.9L269.9,277L270.5,276.2L271.3,275.5L272.2,275.1L272.3,274.4L272.8,274.1L273.3,274L274.1,274.8L275,273.9L275.9,273.6L276.3,273.7L276.8,274.1L277.3,274.3L277.7,274.2L278.8,273.6L279.8,274.5L280.4,274.7L280.3,274.2L279.9,273.8L280.2,273.3L280.7,273.1L282.2,273.3L283,273.7L283.9,274.5L285,274.6L286,274.5L286.6,274.9L287.6,274.9L288,275.6L289.5,276.5L289.8,277.1L291,277.4L292.1,277.8L293.3,277.9L294.4,277.8L294.5,278.6L295.4,278.9L296.5,278.7L297.3,279.6L299.6,280.4L301.2,281.5L302.2,281.3L303.3,281.6L304.6,284.1L304.8,285.9L305.4,285.6L305.9,284.8L306.5,283.4L307.8,282.9L308.4,283.5L309.6,284.4L310.7,285.3L311.1,285.9L311.9,286L311.3,286.8L311.9,286.7L312.7,286.2L313.4,287.3L314,288.5L314.1,289.8L313.6,290.5L313.1,290.9L312.6,291.8L312.1,292L311.5,292.2L312.2,292.9L312.6,293.5L313.6,291.8L314.3,291.4L315.2,291.1L315.8,292.3L315.9,293.4L314.3,293.9L314.3,294.8L313.8,295.3L313.5,295.8L313.2,297L312.9,298.1L311.9,302.5L311.9,303.2L313.1,302.4L315.2,300.2L315.9,297.8L316.8,295.4L317.7,294.7L318.3,294.7L319.1,294.9L319.1,295.7L319,296.1L318.1,297.3L317.7,298L318.1,298.6L320.2,296.6L321.1,296L321.9,296.1L323.5,295.2L326.7,295L326.9,294L327.6,293.5L329.3,293.7L332.8,294.6L334,295.3L335.8,296L336.8,296.9L340.8,298.4L343.7,298.6L345.1,297.9L346.9,298.6L347.9,299.4L349.7,299.8L351.6,300.1L353.1,299.5L356.8,299.3L361.5,298.4L364.3,298.6L367.4,299.2L369.7,300.7L371.6,301.5L372.7,302.3L374.6,303.1L378.5,305.4L379.9,306.7L382.3,308.5L384.8,309.2L386.2,311.1L387.2,311.9L389.8,315.1L392.8,317.2L394.7,319.5L398.5,320.9L400,323.2L402,323.4L402,394ZM254.6,268.5L255.7,268.5L257.3,268.3L258.3,267.8L259.5,267.7L260.6,267.7L264.5,268.3L266.8,268.5L267.6,268.7L268.5,269L269.1,269.3L269.2,269.9L268.6,271L268.2,272L267.8,273.6L267.5,273.9L267,273.8L267.3,275.2L267.3,275.7L267,276.2L266.4,277.3L265.4,278.7L265.2,279L264.4,279.5L263.9,280.1L264,280.7L264.3,281.3L263.9,282L262.8,283.1L262.1,283.4L261.5,283.5L261,283.4L260,282.3L259.9,283.1L259.6,284L259.3,284.5L258,284.4L257.3,283.9L256.1,283.4L255.9,284.8L255.1,285.8L254.4,286.1L253.3,286.3L252.6,286.7L251.3,286.4L250.2,285.8L249.5,285.7L249,286.2L246.4,286.3L245.2,286.8L244.4,286.7L243.3,285.6L243.1,284.9L242.5,283.5L241.9,281.8L241.5,280.3L241.8,278.9L242.5,279L243.3,279.2L243.5,279.1L243.6,278.7L243.4,278.3L242,278.4L241.2,277.6L241,276.4L241.2,273.9L241.3,273.3L241.9,272.6L242.1,272L242,271.3L242.2,270L242.8,269L244.9,267.6L247.4,267.1ZM314.5,300.1L313.4,301.3L313.7,299.9L313.6,299L313.7,298.3L314.5,297.6L314.7,297.5L314.7,298.4L314.7,298.6ZM381.7,420L381.3,420.3L381.2,419.5L382.4,418.5L382.6,417.4L383.2,417.9L383.4,418.5L383.4,418.8ZM379.8,424.5L379.4,425.2L379,425.1L378.8,424.7L378.4,424.2L378.6,423.8L378.9,423.6L379.8,423.7ZM310,281.2L309.3,281.7L309.1,282L308.4,281.8L308.6,281.5L308.7,281.5L308.9,280.6L310,280.7ZM253.3,262.7L253.8,263.3L252.2,265.7L251.3,266.1L250.3,266.1L249,265.4L247,265.5L246.3,265.3L246.3,264.2L247.1,263.1L248.8,263.2L251.7,262.2ZM246.8,243.2L245.7,243.7L245,243.5L244.4,242.1L244.6,240.9L245.4,240.6L246.1,240.6L246.3,240.8L246.9,242.7ZM242.7,267.3L239.5,269.6L238.4,268.9L238.2,268.4L238.4,268L238.3,267.8L238.7,267L240.5,266.4L241.4,266.3L242.5,266.5L242.7,267ZM256.8,267.1L253.7,267.5L252.3,266.9L252.6,266.4L253.7,265.6L254.9,265.1L256.1,264.8L257.3,265.1L257.6,265.8L257.5,266.4ZM245.3,264.2L245.1,265.9L243,265.2L243.2,263.4L244.2,262.9L245,262L245.3,260.8L245.4,259.3L245.7,259L246,258.9L246.2,259L246.3,261.4L246.4,262.8ZM248.5,261.2L247.3,261.6L247,261.2L247,259.8L247.4,259L249,258.7L249.1,258.5L249.6,258.4L249.9,258.9L249.9,259.7ZM228.9,282.5L227.7,282.8L229.3,279.8L230.7,278.5L230.7,275.8L232.3,273.4L233.7,272.4L235.7,272.1L236.7,273.6L235.4,277.7L235,277.7L233.2,279.9L231.2,281.5ZM27.09,482L27.07,481.9L26.86,481.2L27.15,480.7L27.49,480.3L27.45,480.1L25.26,479L24.88,478.7L24.38,476.6L22.78,474.8L22.57,473.4L22.57,473.4L22.57,472.8L22.45,472L21.94,471.3L21.23,470.8L21.02,470.2L21.23,469.6L22.66,468.5L23.41,468.3L23.62,467.7L24.08,467.2L25.43,465.5L26.23,464.4L26.98,463.7L27.91,463.2L28.29,462.8L28.08,461.6L28.16,460.8L28.45,460.3L29.38,459.8L30.22,459.3L30.39,459.1L30.3,458.8L29.55,458.2L27.99,457.7L26.98,457.7L26.35,457.2L26.02,456.8L23.96,451.8L23.62,450.7L23.66,450.2L25.01,447.7L25.55,446.9L26.52,445.8L26.35,445.3L24.67,443.4L24.17,442.5L24.17,441.6L24.34,440.4L25.3,439.9L25.6,438.9L25.81,438.1L26.23,437.8L26.65,437.3L27.15,436.5L27.91,435.9L28.37,435.4L28.5,434.1L28.88,433.7L29.93,433.2L30.05,432.9L29.8,432L29.25,431L28.83,430.6L28.29,428.2L27.66,427L27.91,426.6L28.33,426L28.75,424.8L28.88,423.4L28.75,418.4L28.79,417.4L29.3,416.7L30.09,415.9L30.72,415.6L31.35,415.1L31.31,414.2L31.73,413.6L32.19,412.9L30.64,410.1L29.3,407.7L27.99,405.4L26.52,402.8L25.51,401L24.3,398.9L23.24,397L21.77,394.4L23.16,394.4L25.89,394.5L28.54,394.9L30.3,395.1L31.06,395.5L31.23,396.1L31.73,396.4L32.28,396.3L32.95,396.3L34.38,395.6L35.56,395.2L36.56,394.7L37.11,394.2L38.37,392.4L39.38,391.5L40.3,391.1L42.15,391L42.7,391.3L43.46,391.2L44.09,390.2L45.09,389.1L47.03,387.7L47.99,387.4L48.62,386.9L49.67,386.8L50.6,386.3L55.05,382.8L56.86,381.9L57.95,381.8L58.88,381.6L60.47,381.1L64.42,380.6L66.99,380.4L67.78,380.9L68.71,380.7L69.47,379.9L70.14,379.7L70.6,379.7L71.27,380.6L71.61,381.6L71.4,382.4L71.44,383.4L71.73,384.8L71.57,386.1L70.6,387.8L70.14,388.4L70.01,389.1L70.1,390.1L70.52,391.6L71.31,393.7L71.44,395.3L70.89,396.3L70.64,397.2L70.69,397.9L70.89,398.4L71.23,398.7L71.44,399.3L71.48,400.2L71.94,401.1L72.83,401.9L73.16,402.7L73,403.4L73.08,403.9L73.33,404.1L73.54,403.9L73.88,403.7L74.17,403.8L74.8,404.9L74.89,405.1L75.22,405.9L75.31,406.6L76.23,407L77.2,407.3L77.74,407.6L78.84,408.6L79.76,409.3L80.9,409.9L81.27,410.8L81.99,412.1L83.92,412.7L86.19,412.9L87.62,413.2L89.38,412.5L90.52,412.6L91.74,413.1L92.24,413.4L93.12,414.1L94.51,415L95.64,415.4L96.44,414.9L97.2,414.7L97.79,414.9L98.08,415.9L98.38,416.5L99.05,417L100.5,418.3L101.3,418.8L102.2,418.8L104.1,419.6L106.1,420.4L107.2,420.6L108.2,420.5L108.9,420.8L109.1,421.7L110.9,423.7L111.7,424.5L112.7,425.2L115.2,425.1L115.9,425.4L117.1,425.2L120.4,424.8L121,424.7L122.9,425.6L125.1,426.8L126.7,427.8L127.7,428.3L128.2,429.2L128.7,430.1L128.9,431.1L128.6,432.1L128.2,432.4L128,433.1L128.2,434L129,434.9L129.2,435.9L129.6,437.7L130.1,438.3L130.4,444L128.9,444L126.8,444.1L127.4,444.6L129.1,446.8L130.8,448.7L131,451.8L131.2,453.8L131.4,456.6L131.5,458.3L135.6,458.4L140.2,458.6L145.8,458.8L150.6,459L151.2,459L152,458.8L152.5,458.5L152.9,458.5L153,459.2L152.8,460L152.8,461L151.4,462.9L151.4,463.6L151.6,466.1L152.1,468.2L152.3,470.1L152.9,470.6L154.5,471.6L157,473.5L158,473.7L158.9,473.5L159.4,474.2L159.5,475.4L160.9,478.8L161.7,480.9L162.2,481.7L162.7,482L27.09,482ZM139.5,111.8L139.2,112L138.1,111.5L137.7,110.9L137.7,109.1L138.3,108.9L139.6,110.4L140.3,110.9ZM-18.48,12.6L-18.82,13.51L-20.08,15.27L-22.81,15.71L-25.88,15.79L-26.09,15.31L-26.17,14.88L-25.96,14.23L-25.96,13.97L-26.09,13.71L-25,13.43L-24.24,12.62L-23.1,12.47L-21.68,13.06L-20.88,13.08L-19.74,12.45L-18.82,11.08L-18.27,11.25ZM-30.5,-6.671L-30.25,-6.451L-30.96,-5.946L-32.64,-6.561L-33.02,-6.517L-33.36,-7.198L-33.48,-7.682L-33.4,-8.143L-32.39,-7.792L-31.89,-7.132ZM-34.83,-23.78L-35.75,-22.39L-36.26,-22.52L-35.96,-24.25L-35.33,-24.52L-35.08,-24.52ZM-32.22,-0.246L-33.06,0.148L-32.85,-0.509L-31.3,-1.626L-30.42,-2.59L-29.95,-2.94L-29.74,-3.204L-29.07,-3.576L-28.73,-4.19L-28.82,-4.717L-29.53,-5.551L-29.53,-6.144L-29.28,-6.583L-28.06,-6.781L-28.4,-6.144L-27.89,-4.344L-29.53,-2.086L-30.92,-1.407ZM-42,-11.96L-40.75,-11.29L-39.7,-10.17L-39.62,-8.847L-39.62,-8.847L-39.7,-8.517L-41.17,-11.05L-42,-11.32L-42,-11.96ZM-18.61,-2.962L-17.89,-2.765L-17.52,-2.787L-16.17,-2.414L-15.37,-1.889L-15.2,-1.67L-15.63,-1.21L-16.84,-2.086L-17.94,-2.195L-19.45,-2.173L-20.04,-2.349L-19.62,-3.291ZM-17.18,8.662L-18.73,9.271L-18.86,8.553L-18.1,7.965ZM113.5,63.93L113.2,64.42L111.9,64.23L111.6,63.61L111.6,63.19L112.4,62.32L113.3,62.7L113.7,63.1L113.9,63.19L113.9,63.55L113.8,63.8ZM113.2,57.37L113,57.69L112.1,57.1L111.8,56.01L111.8,55.78L111.9,55.65L112.3,55.86L112.8,55.95L113.2,56.31ZM97.11,51.31L98.46,51.31L98.42,51.61L98.29,51.93L97.54,51.65L97.11,51.37Z" fill="#D8E2E7" stroke="#3F464B" stroke-width="0.85" vector-effect="non-scaling-stroke"/><path d="M201.8,203.1L200.8,204L199.8,205.2L198.3,207.2L198.4,207.8L198.1,208.4L198,209.3L198.1,210.3L198.5,211L198.6,212.2L198.4,213.4L198.5,214.1L198.8,215.1L199,216.2L199,216.7L199.3,217.1L199.6,217.4L199.5,218.4L200.7,220.2L201.3,221L202.3,221.8L202.7,222.5L203.2,223.4L203.6,223.5L203.7,223.9L203.6,224.6L203.5,225.5L202.9,226.6L201.4,228.7L201.2,229.2L201.6,230.8L201.4,232.2L201.3,232.9L200.6,234.1L198.9,237L198,237.6L197.4,238.4L197,238.4L196.6,238.5L196.4,238.6L195.9,238.6L195.5,238.2L195.4,237.8L195.2,237.3L194.7,237.1L193.7,237.3L193.4,237.2L192.8,236.6L192.3,236L192.2,235.5L191.9,235.5L191.1,236L190.6,236.2L190.2,236L189.8,236.1L188.6,236.6L187.9,236.7L187.5,237.3L184.3,237.6L183.4,237.7L181.5,236.7L181,236.4L180.8,236.4L180.6,236.4L180.4,236.6L180,237.9L179.8,238.2L179.3,238.5L178.8,239L178.7,239.4L179.4,239.7L180.1,240.6L180.7,241.3L181.3,242L181.2,242.7L181.1,243.8L180.7,244.1L180.1,244.3L177.6,243.8L175.8,243.3L175,243.2L174.6,243.1L174.2,242.7L173.7,242.4L173,242.3L172,242L171.4,241.1L170.7,239.8L170.5,239.2L169.9,238.7L169.4,237.8L169.3,237.1L168.8,236.5L168.6,236.2L168.3,235.3L168.3,235L168.1,235L167.9,234.7L167.5,233.7L167.4,233.5L167.2,233.4L166.7,232.7L166.3,232.5L166.2,232.1L166.2,231.2L166,230.7L165.9,229.8L165.9,229.5L165.7,229.1L165.4,228.9L165.3,228.2L165.2,226.6L165.1,226.4L163.6,226.4L163.5,226.5L162.9,226.6L162.2,226.6L161.6,226.4L161.1,226.2L160.9,225.8L161,224.7L160.2,223.9L158.9,222.9L158.5,221.6L158,220.8L156.6,219L156.3,217.9L156.3,217.1L156.8,216.3L157.5,215L157.8,213.8L158,213.1L158.4,212.3L158.7,211.2L158.5,210.6L158,209.9L157.9,209.5L158.3,208.8L158.8,208.3L159.2,208.2L159.8,207.9L160.3,207.5L161,207.4L162,207.3L163.8,207.3L164.7,207.1L165,206.8L165,206.1L165.5,205.5L165.9,205.3L166.2,205.1L166.2,204.9L166.1,204.7L165.9,204.5L165.4,204.5L164.9,203.4L165.2,203L165.6,202.1L165.7,201.7L166.3,200.9L166.5,201.2L167,199.8L167,198.7L167.4,197.6L168,196.3L169,195.7L174.9,196.4L177.5,197L181,198L181.5,199.2L181.5,198L181.3,196.9L182.3,196.1L184.4,195.8L187.5,196.2L190.2,195.7L193.9,195.8L199.5,196.7L202,197.3L203,197.9L203.2,198.9L203.1,200.2L202.7,201.5Z" fill="#8B341D" stroke="#2C160F" stroke-width="1.1" vector-effect="non-scaling-stroke"/></svg>