<svg xmlns="http://www.w3.org/2000/svg" viewBox="0 0 360 440" width="360" height="440" role="img" aria-label="Regional map with Timor-Leste highlighted"><rect width="100%" height="100%" fill="#7FA6D6"/><path d="M187.6,-42L187.7,-41.55L187.7,-38L187.6,-36.78L187,-35.62L185.3,-33.02L183,-30.94L181.7,-31.08L181.4,-30.47L182.1,-28.59L181.9,-24.57L181.3,-21.81L180.6,-23.22L180.1,-24.68L179.6,-28.56L179,-30.33L178.1,-31.91L177.7,-33.35L176.8,-34.68L175.5,-38.14L174.7,-37.95L173.4,-37.01L173.1,-36.37L173,-35.37L172.6,-34.48L171.1,-33.07L169.8,-31.41L168.9,-29.55L168.5,-27.87L169.4,-26.57L170.2,-26.01L171.4,-24.85L171.8,-24.3L173.1,-20.45L173.1,-16.56L172.1,-14.82L169.7,-11.53L168,-10.51L167,-11.03L166.3,-13.02L166.2,-13.82L166.7,-15.7L166.7,-17.41L166.2,-17.99L165.5,-17.88L165.3,-17.64L163.7,-15.4L163,-14.82L162.1,-14.76L161.3,-14.9L156.7,-16.86L153,-18.8L150,-20.59L147.9,-23.33L147.4,-25.38L147.4,-27.51L146.5,-30.64L146.3,-31.69L146.5,-32.71L147.4,-34.65L148.5,-35.62L149.2,-36.31L149.7,-37.09L150,-38.11L149.9,-39.14L149.5,-39.78L147.8,-42L187.6,-42ZM137.9,-42L137,-39.33L135.3,-40.22L133.6,-41.27L133.2,-41.99L133.2,-42L137.9,-42ZM131,-42L130.7,-41.55L129.5,-41.27L128.3,-41.27L127.9,-41.74L127.9,-42L131,-42ZM122.2,-42L122.1,-41.77L120.1,-38.25L119,-35.54L117.8,-32.88L117.3,-32.02L116.5,-31.44L115.5,-31.69L114.4,-32.32L113.5,-34.01L113.8,-36.01L114.9,-37.25L115.7,-38.61L116.5,-42L122.2,-42ZM101.7,-18.08L102.6,-16.94L103.7,-17.25L105.4,-16.92L105.7,-16.31L105.6,-15.92L103.8,-14.82L102.6,-15.98L100.5,-15.18L99.44,-15.64L98.07,-15.23L97.21,-16.14L97.56,-17L99.78,-18.41ZM87.3,-5.068L86.9,-4.102L86.38,-3.66L85.7,-3.909L85.19,-4.406L84.9,-3.66L83.53,-3.385L82.68,-2.253L81.37,-1.922L80.51,-2.088L80.63,-3.109L83.08,-4.599L84.62,-5.178L85.93,-6.255L86.61,-6.393L86.95,-5.482ZM116.5,-23.72L114.9,-23.5L114.4,-23.5L113.1,-25.13L113,-25.85L112,-26.65L112.3,-27.45L113.6,-27.65L115.9,-28.7L119.6,-27.07L120.1,-26.48L119,-26.12L118.2,-24.57ZM129.8,-39.36L130,-38.97L129.9,-38.58L128.3,-37.84L127.8,-37.86L127.6,-39.08L128,-39.66L128.8,-39.17L129.5,-39.75ZM174.9,-32.21L174.7,-31.33L173.7,-33.46L173.3,-33.98L173.8,-35.79L174.9,-34.9ZM260.2,30.34L259.9,30.43L259.7,30.37L259.7,30.15L259.9,29.9L260.2,29.79L260.4,29.88L260.4,30.1ZM315.2,-42L315,-40.83L314.5,-39.8L314.4,-38.92L314.4,-38.92L313.5,-38.58L313,-39.8L313.2,-41.22L313.6,-42L315.2,-42ZM-42,32.19L-41.46,32.11L-31.66,29.66L-28.75,28.69L-27.66,28.2L-26.81,27.51L-25.27,25.31L-22.42,21.86L-20.43,19.03L-16.21,14.87L-12.85,11.04L-12.39,10.32L-11.88,8.227L-11.82,7.235L-11.93,6.242L-11.48,5.773L-10.79,5.498L-10.62,5.498L-10.17,5.939L-8.971,6.545L-8.116,7.317L-7.546,8.337L-7.09,9.275L-7.09,10.07L-6.52,10.73L-5.038,10.85L-4.582,11.67L-3.556,13.11L-2.587,14.13L-2.017,14.51L-1.276,14.32L-0.193,13.38L0.605,12.22L1.175,10.68L0.719,10.43L1.517,9.275L1.631,8.668L1.289,8.089L0.833,7.538L0.662,6.132L0.377,4.312L0.149,3.512L0.776,2.905L2.03,2.161L3.284,1.306L4.595,0.616L4.652,1.857L4.595,3.926L4.993,5.663L5.848,8.696L6.874,9.109L8.071,9.385L8.755,9.302L9.211,9.109L9.325,8.861L8.584,7.648L8.413,4.836L7.786,2.988L6.817,1.14L6.418,0.616L10.12,0.092L10.92,-0.487L12.4,-1.756L12.97,-2.474L13.37,-4.074L11.55,-5.013L10.86,-6.227L10.81,-7.552L12.97,-9.982L13.71,-10.56L14.06,-9.706L15.03,-9.485L15.88,-9.458L16.79,-9.513L18.05,-10.73L18.73,-12.49L20.95,-15.01L21.75,-16.94L22.21,-18.93L27.85,-25.18L28.53,-26.18L31.9,-32.46L32.3,-32.66L33.21,-32.05L33.44,-30.05L33.32,-29.2L32.81,-27.89L32.47,-26.54L32.87,-26.57L34.46,-27.4L36.11,-29.58L37.08,-31.49L37.88,-32.32L39.48,-31.85L39.82,-31.52L39.7,-30.16L39.88,-29.36L40.5,-27.67L41.87,-26.65L43.75,-25.99L45.52,-25.05L46.09,-24.44L46.43,-23.69L46.83,-22.45L46.83,-21.23L45.58,-20.01L46.15,-18.05L46.03,-16.92L45.63,-15.95L43.75,-15.04L48.77,-15.95L50.02,-16.45L51.73,-17.75L52.64,-16.61L53.5,-14.71L52.81,-14.21L50.65,-13.49L50.53,-13.21L51.27,-12.22L52.19,-12.3L53.95,-12.96L55.61,-14.02L56.4,-14.02L57.26,-13.79L58.91,-13.13L59.82,-12.58L60.56,-11.86L61.08,-10.4L62.96,-9.872L66.83,-7.801L67.52,-7.608L68.32,-7.58L70.31,-7.828L71.05,-7.552L71.56,-6.807L71.74,-5.868L71.68,-4.875L71.45,-4.13L71,-3.523L69.57,-2.584L66.09,-1.343L62.33,-0.405L60.39,-0.46L57.72,-1.26L56.75,-1.177L55.78,-0.791L54.58,1.747L56.8,4.284L60.56,6.931L61.08,7.593L60.96,8.392L60.34,8.889L59.54,9.137L57.43,9.578L55.26,9.881L53.55,10.35L51.79,10.93L50.02,10.73L47.57,9.55L46.89,9.467L46.15,10.07L45.4,11.73L44.95,12.2L44.95,12.2L44.32,12.17L42.95,11.84L40.22,10.16L37.42,9.55L33.38,9.495L31.04,9.275L30.13,9.523L29.33,9.523L28.76,9.192L28.13,9.026L26.59,10.02L25.85,9.716L25.06,9.275L23.75,9.137L22.15,9.275L20.32,10.29L18.39,9.357L17.82,9.385L17.42,9.605L16.56,10.87L14.91,11.84L14.11,13.6L13.6,15.28L13.2,15.86L13.03,19.14L12.8,20.71L13.2,22.8L13.14,23.68L12.4,25.03L12.29,25.33L11.95,27.45L12.06,28.03L12,28.72L11.38,30.21L10.24,30.62L9.097,30.87L8.071,30.34L7.159,31.17L6.019,32.44L5.563,33.29L5.563,34.09L5.677,34.61L5.449,35.16L5.392,35.74L5.449,36.56L6.247,36.92L7.045,37.64L6.988,38.32L6.589,38.79L5.563,39.53L3.683,41.05L1.574,42.34L0.776,42.64L0.491,43.25L0.377,44.05L0.833,45.81L1.232,46.3L1.517,46.93L1.232,47.65L1.004,48.28L0.206,48.69L-0.535,48.97L-0.82,49.49L-1.219,51.58L-1.675,52.68L-2.701,54.3L-3.043,55.05L-3.556,55.29L-5.551,54.52L-7.318,54.99L-9.655,55.29L-11.65,55.24L-13.19,55.57L-14.27,56.42L-15.47,57.52L-16.72,58.32L-17.63,58.7L-19.34,57.58L-20.26,57.66L-21.8,57.27L-25.5,55.98L-26.41,55.62L-27.38,55.57L-27.66,55.21L-27.49,54.58L-27.66,53.78L-28.41,53.48L-35.76,53.59L-37.92,54.3L-39.35,54.85L-40.38,55.48L-40.66,57.11L-41.29,58.59L-42,60.02L-42,32.19ZM38.11,-35.51L37.14,-34.65L36.8,-35.67L36.85,-36.98L38.16,-38.2L40.05,-38.42L40.27,-37.45L40.05,-36.34L39.65,-35.76ZM49.85,11.95L47.63,12.25L46.09,12.22L46.37,11.67L46.32,10.93L47.06,10.73L47.91,10.9ZM30.13,215.2L28.13,218.5L28.88,219L29.27,219.5L25.97,220.2L24.6,219.9L23.8,219.9L20.44,219.3L18.05,218.6L17.76,218L17.93,217.3L18.67,217.5L20.5,217.6L21.24,217.3L21.24,215.1L20.95,212.4L23.46,210.1L24.83,209.2L26.37,208.6L30.24,209.9L30.87,210.2L31.38,210.7L31.61,211.6ZM11.26,207.8L12.86,208.7L15.14,211.2L15.31,211.9L14.63,212.5L13.03,213.6L9.439,215.2L8.869,216L8.071,217.5L7.9,218.1L7.672,218.5L7.273,218.7L6.475,218.9L5.62,218.6L6.361,217.7L6.418,216.5L5.848,215.4L5.05,214.5L3.398,213.3L1.688,212.2L-0.079,211.7L-1.96,211.4L-2.644,210.9L-3.727,209.5L-4.069,208.8L-4.24,208L-4.126,207.3L-3.67,207.2L-1.846,207.4L1.517,208.3L3.227,208.3L4.139,208.1L6.589,206.4L7.216,206.4L9.553,207.2ZM133.7,150.4L134,153.8L133.9,154.7L133.1,153.4L132.7,153.1L132.5,153.4L132.2,153.6L131.7,153.6L131.1,154.9L131.1,156.1L130.6,156.9L130.4,159.7L130.6,160.5L131.2,160.1L131.6,160L133.2,161.1L134,161.9L133.8,162.8L132.7,163.8L131.5,164.2L130.6,163.8L130.3,164L129.8,164.5L129.4,165.1L129.5,165.8L128.4,167.7L127.9,168.2L126.6,167.6L125.8,168.1L125.2,168.1L124.3,166.2L124.3,165.3L125.1,164.3L125.2,163.6L125.6,162.8L126.6,161.7L127.1,160.9L127.1,160.4L127.6,158.4L127.7,157.6L128,156.7L128.4,154.9L128.5,151.5L130,148.7L131.4,147.9L132,147.8L131.9,148.5ZM125.2,161.8L124.8,162.9L123.9,163.7L123.2,163.8L122.5,163.6L121.2,162.9L120.9,163.6L119.8,163.6L119.5,162.6L120.2,159.7L121.3,158.7L121.2,157.5L120.3,155.1L120.9,153.8L123.3,152.9L125.4,151.7L126.1,151.5L126.7,152.4L127,156.5L124.7,159.7ZM326.9,88.61L330.3,89.21L331.5,89.18L332.7,89.87L334.1,89.54L334.9,89.76L337.7,92.18L339.1,93.77L341.1,95.15L342.6,95.62L341.5,96.85L339.3,97.51L338.4,97.54L336.7,96.8L335.3,96.94L334.1,96L333.9,94.57L332.7,91.3L331,92.23L329.1,90.75L328.6,90.72L328.4,90.97L327.6,90.45L327,89.43ZM328.3,103.5L334.6,104.3L336.3,104.2L339.8,104.5L342.8,105.5L348,105.7L349.6,106.1L350.8,106.8L347.9,107.4L346.5,107.9L343.9,108.2L341.8,107.9L340.2,108.3L339.7,107.7L337.5,107.2L334.5,106L328.6,104.7L328.3,103.9ZM254.5,78.36L257.3,79.01L257.9,78.9L261.9,80.66L262.5,81.52L262.3,82.09L262.8,82.89L261.6,84.07L261,84.21L260.3,83.77L259,83.49L257.6,83.99L256.6,83.63L255.8,82.53L254.5,81.87L252.5,79.56L251.5,79.65L251.8,80.55L252.6,81.13L253.7,82.89L254.4,83.06L255,83L255.9,83.74L255.8,84.87L253.6,85.31L252.8,84.48L252.6,82.97L251.3,83.49L250.8,84.02L250.4,84.07L249.5,82.5L247.1,82.42L245.4,81.6L246.2,80.72L246.3,79.89L247.4,79.43L248.5,79.84L249.6,79.23L250.4,79.4L250.9,79.01L253.1,78.77ZM217.2,45.78L214.7,46.05L214.1,45.31L213.4,41.9L215.2,39.18L217.5,37.58L219,37.17L219.5,37.14L220.9,39.09L219.9,43.06L218.7,45.06ZM212.4,104.6L211.4,105.2L211,105.4L208.6,105L205.9,105L203.1,105.7L201.4,105.2L200.4,104.3L200.4,103.5L201.4,101.3L203.5,99.66L204.4,99.38L205.9,99.82L208.5,101.1L210.5,102.5L212.3,103.7ZM179.2,117.1L178.9,117.4L178,116.5L177.3,114.1L176.8,113.5L176.2,111.2L176.3,110.5L177.1,109.6L177.7,109.6L178.2,110.1L177.9,112.6L179.3,115.7ZM178.7,106.6L183.6,107.1L182.9,107.7L177.6,108.6L175.8,108.5L170.1,109L169.4,109L169.3,108.1L168.6,107.5L169.5,106.9L170.7,106.8L173.9,107ZM162,105.3L163.5,105.8L164,105.8L164.5,105.2L164.8,105.1L165.5,105.4L165.6,106.5L166.6,106.3L167.3,106.7L167.5,106.9L167.5,108L164.6,108.2L162.6,109.1L159.9,108.3L156.8,109.6L154.9,110.1L153.3,110L151.9,107.7L152.7,105L153.3,104.6L154.3,104.3L157.2,104.2ZM262.6,205.3L262.4,205.5L260.4,205.3L259.3,205.3L259.4,204.1L258.9,203.2L259.7,201.9L259.7,200.3L260.5,200.1L260.6,199.2L261.6,196.9L262.2,196.4L263,196.2L264,194.8L264.6,194.4L265.1,193.4L266,192.9L265.9,192L266.4,191.6L267.7,191.2L268.6,191.6L269.2,192.5L267.7,193.6L268.4,196.4L267.3,199.4L266.7,200.3L265.4,201L265,201.8L263.5,203.3L263,204.5L262.9,205.1ZM191,200L191.2,200.8L191.2,201.2L189.3,201.4L187.5,202.3L186.5,203.3L185.8,204.6L183.3,204L181.1,203.9L180,203.5L178.9,203.5L177.6,203.9L175.6,205L175.1,205.1L175.3,203.4L175.9,202.4L177.9,200L179.7,200.5L181.7,200.7L184,200.2L185.7,199.1L188,198.5L189.8,200ZM155.7,207.6L156.1,208.6L157.4,208L158.6,207.9L161.3,208L163.3,208.2L164.5,208.6L164.6,210.6L164,211L153.7,212.5L152.7,212L152.3,211.5L153.4,210.1L152.9,209.4L153.5,208.3L154.7,207.5ZM257.5,99.11L257,99.55L255,99.14L254.1,98.17L253.4,96.85L252.9,95.78L252.8,94.9L252.2,93.86L252.3,93.47L255.8,92.37L256.5,92.78L258,92.81L258.7,93.61L258.2,97.1ZM127.4,215.1L125.1,215.7L123.8,216.3L122.5,217L121.6,217.1L120.1,217.2L118,217L116.5,217.3L112.4,219.1L110.8,219.3L109.5,219.7L109,219L108.4,218.5L107.1,218.4L105.7,218.4L104.3,220L102.2,219.7L101.3,219.8L100.5,220.2L99.72,220.3L98.87,220.2L95.67,218.9L92.03,218.2L88.38,218.5L85.24,217.8L83.53,218.3L81.88,219.1L81.42,218.3L80.8,217.6L80.28,216.5L80.28,215.3L80.46,214.5L80.91,213.7L81.2,212.9L81.37,212.1L82.05,212.5L82.74,212.3L84.9,211.4L87.01,210L88.95,209.5L90.09,209.3L91,209.6L91.97,209.5L93,209.2L94.59,210.3L95.22,210.5L97.38,210.6L99.32,211.2L101,212.1L103.5,213L105.1,214.2L106.2,214.6L107.1,214.7L107.8,214.6L108.8,213.8L110,213.4L111,213.4L112.8,213.2L113.6,213.1L114.5,212.6L115.3,212.9L116.1,213.3L119.2,215.4L120.1,215.4L121.8,215L122.4,214.4L122.6,213.6L123.1,212.9L123.8,212.2L124.6,211.8L126.9,211L128.4,210.2L129.5,208.9L127,208.3L127.5,207.4L128.4,206.8L129.5,207L130.5,207.8L130.9,210.6L130.1,211L129.6,211.4L129.3,212L127.8,213.1L128.4,214.3L128,214.9ZM83.53,227.4L84.28,228.1L86.84,229.5L87.24,230.1L87.41,231L87.92,231.8L89.12,231.9L90.37,231.7L91.29,232.2L92.14,232.9L93.34,234.3L94.42,235.9L95.73,236.7L96.53,238L96.07,239.2L94.36,240.7L93.45,241.1L92.25,241.2L90.26,242.1L89.58,241.6L87.35,241.3L85.64,240.6L84.16,239.4L83.31,238.1L82.22,236.9L80.34,236.1L77.04,233.8L74.93,233.6L74.07,233.7L73.22,233.7L68.83,232.7L68.14,232.1L67.63,231.3L67.12,230.6L66.83,229.7L67.4,228.9L67.97,228.4L70.42,227.5L72.19,227.2L74.19,227.3L77.21,227L80.11,227.5L80.97,227.1L82.39,226.2L82.91,226.5ZM55.49,210.4L56.29,211.1L57.03,211L58.51,210.1L59.42,209.7L60.39,209.7L61.36,209.8L62.27,210.5L62.62,211.6L62.96,212L63.53,210.6L64.27,210.2L65.07,210L66.32,210.1L67.29,210.7L68.2,212.7L68.14,214.3L68.49,214.9L69.11,215.4L69.57,216.1L69.17,216.7L68.77,217L67.58,217.3L67.06,217.2L66.55,216.8L65.98,216.6L64.67,216.8L63.47,217.1L63.64,217.7L64.61,218L64.9,218.3L64.84,218.7L64.44,218.8L63.19,218.3L62.33,218.3L59.25,219.1L58.46,219L57.94,218.4L58,216.6L57.66,216.1L55.38,218.3L54.69,218.8L53.73,219.1L52.81,219L49.45,220.3L48.42,220.1L47.4,220.1L43.87,221.5L41.98,221.9L41.02,221.9L40.05,221.8L39.19,221.9L38.39,222.5L36.8,223L35.2,222.6L33.78,222.1L32.47,221.5L32.18,220.6L32.24,219.7L32.81,218.3L32.41,216L32.69,214.9L33.21,213.9L34.06,213.5L35.09,213.4L36.85,212.5L38.45,211.2L39.36,211.3L41.47,212.2L42.73,212.3L44.83,212.2L45.69,212.7L46.03,213.9L46.49,214.4L47.11,214.7L48.6,216.7L49.96,216.6L51.16,217L53.33,215.8L54.92,215.8L55.38,214.8L54.41,213.8L53.27,212.9L52.64,212.8L51.96,212.8L51.33,212.7L48.77,210.8L47.97,209.8L47.51,208.6L47.8,207.8L49.56,207L50.42,206.8L53.55,207.3L54.07,207.8L54.87,209.6ZM160.8,62.52L157.7,65.22L156.8,66.51L156,67.91L154.8,69.45L153.4,70.82L152.7,71.24L151.1,71.98L150.1,72.25L148.3,72.36L142.8,73.44L141,73.57L139.2,73.52L135.7,73.24L135.1,73.11L133.7,71.7L132.2,70.6L130.8,70.47L129.4,70.58L119.4,70.66L116,70.88L112.5,71.37L110.6,71.15L108.7,70.58L107.4,70.38L105.9,70.44L99.38,71.29L97.73,71.21L94.42,70.14L92.48,69.92L90.6,70.19L88.83,71.18L88.21,71.81L86.38,74.04L85.36,75.63L84.56,77.64L83.93,79.7L83.53,81.38L83.53,83.14L83.82,85.12L84.33,87.07L84.9,88.58L87.13,92.04L87.58,92.51L90.09,93.5L91.51,94.74L92.94,98.2L93.91,99.99L94.88,99.99L95.96,99.88L97.84,100.1L99.72,100.6L101.5,99.49L102.5,97.48L103.5,95.97L106,93.14L107.4,91.82L108.3,91.41L109.2,91.58L109.9,92.34L110.8,92.95L112.7,93.25L114.5,93.06L116.5,92.13L117.2,91.58L117.8,90.86L119.4,90.26L123.4,90.26L125.4,90.48L129.1,90.23L129,89.71L128.3,89.16L128.1,88.72L128.8,88.41L131.1,87.78L133.5,87.31L135.3,87.64L136.8,88.55L137.5,89.49L137.7,90.61L137.1,93.5L136.8,94.19L135.6,94.52L134.4,94.13L133.2,92.65L131.6,92.1L129.3,92.54L128.5,92.98L127.8,93.58L126.5,95.12L125.4,96.88L123,99.63L120.3,102L119,102.9L117.5,103.5L112.8,105.1L111.5,106.3L110.5,107.8L109.5,108.3L108.2,108.5L107.3,108.2L105.4,107.3L104.8,108L104.7,109.1L105.6,109.5L107.1,110.7L108.3,112.3L109,112.7L110.7,113.2L111.3,113.8L112.6,115.2L114.5,118.5L115.2,120.4L116.3,121.8L119.6,124.3L119.8,125L119.6,125.9L119.8,126.6L121,128L121.3,129L120,130.2L120,131.9L119.2,134.2L119,134.9L119,135.6L119.6,136.3L120.2,136.8L121.1,137.1L121.9,137.5L123.4,139.3L124.2,139.8L124.6,140.4L124.6,141.4L125.3,142L125.9,143L126.9,143.2L127.3,143L127.6,142.5L128.4,142.7L128.9,143.4L129.1,144.3L129.2,145.3L129.2,147.2L128.8,147.9L127.9,147.8L126.4,147.1L126.3,147.6L126.5,148.2L125.7,148.4L124.7,148.3L122.5,148.4L118.3,149.5L116.8,150.2L115.9,151.5L115.8,152.4L116.1,154.2L115.6,154.9L113.7,155.1L111,154.6L109.4,154.1L108.5,153.7L107.3,152.5L106.8,150.9L107.8,146.1L108,145.5L108.4,145L108.8,144.2L109,143.1L107.7,141.9L105.8,141.4L104.1,140.4L97.78,134.6L97.44,134L97.44,133.1L97.67,132.2L99.78,129.1L100,128.5L100.3,126L100.2,123.9L100,121.9L99.04,120.6L97.27,120.2L95.45,120.1L93.68,120.5L91.97,121.5L88.72,123.7L87.47,125L87.35,126.6L88.09,128.2L89.06,129.7L89.52,131.3L90.26,137L90.2,137.7L89.41,139.3L89.06,143L89.41,148.3L89.97,151.5L89.75,153.2L88.27,156.9L87.81,159L87.75,159.9L89.52,163.8L89.92,165.3L90.15,166.9L88.27,166.2L87.41,166.2L86.5,166.4L84.56,166.7L82.56,166.7L81.88,167L80.46,168.1L79.6,168.5L78.86,168.6L76.35,167.3L74.81,165.8L73.45,164.3L73.22,162.6L73.67,160.7L74.36,158.8L75.73,155.6L75.67,153.4L76.13,151.7L76.92,150L77.21,148.4L77.38,142.2L77.21,141.6L75.33,138L75.1,137.4L75.1,136.4L75.27,135.4L75.33,134.6L74.93,133.9L74.13,133.3L73.22,133.1L71.28,133.3L67.4,134.3L66.26,133.5L65.41,132.1L64.84,130.2L64.55,128.3L64.67,126.4L65.24,124.7L64.78,123.4L64.1,122.1L64.1,121.4L64.5,120.8L65.18,120.3L66.04,120L66.83,119.4L68.94,117.6L69.63,116L69.68,114L70.25,112.2L71.34,110.4L72.59,108.8L72.99,107.2L72.36,104.6L72.65,103.4L72.42,102L72.42,100.6L73.16,97.98L75.56,92.65L77.83,89.82L78.75,89.07L79.94,90.37L80.86,91.93L80.91,90.53L80.63,89.16L79.72,85.94L78.92,79.67L79.14,79.1L79.94,79.18L80.8,78.63L81.2,77.64L80.34,75.33L80.34,74.51L81.94,71.24L83.31,70.05L83.88,69.31L84.22,67.31L84.9,66.56L85.81,66.01L86.95,64.64L87.58,62.91L87.98,62.77L88.44,62.72L89.12,64.23L89.92,64.83L91.51,65.33L92.88,64.75L93.28,64.01L93.79,63.35L94.59,62.66L95.28,61.89L96.07,60.08L97.1,58.45L97.78,57.88L98.64,57.52L99.55,57.3L100.5,57.27L102.5,58.29L103.7,58.48L104.8,58.43L105.6,58.59L106.2,59.06L106.7,59.99L107.3,60.79L107.9,61.18L108.6,61.37L112.9,61.04L116.7,61.95L121.9,62.16L123.7,62.69L125.4,63.4L127.5,64.61L128.3,64.89L129.1,64.83L130.2,63.68L131,63.4L131.9,63.38L135.2,63.59L144.2,65.02L145.5,64.8L151,62.08L153.2,59.53L155.1,58.81L155.7,57.63L156.1,56.23L156.8,55.87L158.5,55.46L159.1,55.05L160.3,53.34L161.7,51.8L162.3,51.36L164.2,51.58L165.1,52.27L166.2,54.49L166,54.88L164.8,55.98L164.4,56.45L162.9,59.61L162,61.15ZM-42,187.6L-41.91,187.7L-41.17,187.9L-38.38,187.7L-36.44,187.8L-34.79,188.2L-34.05,190.2L-33.42,192.2L-33.02,192.9L-31.43,193.6L-30.74,194.2L-30.91,196.3L-30.74,198.2L-27.27,199.9L-23.56,200.8L-19.63,201L-15.64,200.6L-13.64,200.2L-11.08,199.5L-10.57,199.5L-5.608,201.7L-5.152,202L-4.639,203.7L-4.639,205.4L-5.551,209.6L-5.608,210.7L-5.551,211.8L-4.525,214.3L-4.012,215L-2.245,216.3L-2.188,217L-2.416,217.7L-4.411,217.2L-5.608,216.6L-6.292,215.7L-7.261,215.2L-9.142,215.4L-12.62,214.4L-16.55,213L-23.5,209.9L-25.39,210L-27.21,210.4L-29.09,211.1L-31.09,211.7L-32.57,211.9L-34.05,211.7L-37.75,211L-41.52,210.5L-42,210.5L-42,187.6ZM-42,60.02L-41.29,58.59L-40.66,57.11L-40.38,55.48L-39.35,54.85L-37.92,54.3L-35.76,53.59L-28.41,53.48L-27.66,53.78L-27.49,54.58L-27.66,55.21L-27.38,55.57L-26.41,55.62L-25.5,55.98L-21.8,57.27L-20.26,57.66L-19.34,57.58L-17.63,58.7L-16.72,58.32L-15.47,57.52L-14.27,56.42L-13.19,55.57L-11.65,55.24L-9.655,55.29L-7.318,54.99L-5.551,54.52L-3.556,55.29L-3.043,55.05L-2.701,54.3L-1.675,52.68L-1.219,51.58L-0.82,49.49L-0.535,48.97L0.206,48.69L1.004,48.28L1.232,47.65L1.517,46.93L1.232,46.3L0.833,45.81L0.377,44.05L0.491,43.25L0.776,42.64L1.574,42.34L3.683,41.05L5.563,39.53L6.589,38.79L6.988,38.32L7.045,37.64L6.247,36.92L5.449,36.56L5.392,35.74L5.449,35.16L5.677,34.61L5.563,34.09L5.563,33.29L6.019,32.44L7.159,31.17L8.071,30.34L9.097,30.87L10.24,30.62L11.38,30.21L12,28.72L12.06,28.03L11.95,27.45L12.29,25.33L12.4,25.03L13.14,23.68L13.2,22.8L12.8,20.71L13.03,19.14L13.2,15.86L13.6,15.28L14.11,13.6L14.91,11.84L16.56,10.87L17.42,9.605L17.82,9.385L18.39,9.357L20.32,10.29L22.15,9.275L23.75,9.137L25.06,9.275L25.85,9.716L26.59,10.02L28.13,9.026L28.76,9.192L29.33,9.523L30.13,9.523L31.04,9.275L33.38,9.495L37.42,9.55L40.22,10.16L42.95,11.84L44.32,12.17L44.95,12.2L44.78,12.33L43.69,12.78L43.18,13.68L44.72,15.09L44.78,16.03L45.97,16.85L47.34,18.12L47.4,18.56L47.91,19.14L48.14,19.83L47.17,20.54L45.8,20.68L44.83,20.02L43.92,19.19L43.69,20.21L42.95,20.79L40.39,20.63L38.56,20.63L36.74,20.9L37.65,21.04L38.45,21.37L41.3,24.01L41.93,24.98L40.96,26.9L41.41,27.7L42.5,28.14L43.87,29.11L44.83,29.22L45.52,29.74L45.52,30.68L45.92,31.55L44.83,31.89L45.92,32.11L46.89,32.55L46.37,32.99L45.97,33.54L46.37,33.81L47.68,34.34L48.25,34.77L48.6,36.01L49.85,38.02L52.19,40.63L52.7,41.57L52.7,42.45L52.36,43.19L50.99,44.07L49.91,45.23L49.79,45.64L48.31,46.19L48.99,46.58L49.51,47.1L50.53,48.72L52.93,51.33L54.18,52.3L59.14,55.84L61.76,57.41L65.18,60.93L66.95,61.75L67.29,62.74L65.81,64.23L63.64,65L60.11,65.41L56.58,64.86L54.75,64.45L53.16,63.57L51.9,61.84L50.25,60.87L50.93,61.95L51.33,63.02L51.1,64.2L50.48,65.11L49.34,65.79L48.14,66.34L47.63,66.73L44.61,72.89L44.09,74.53L43.18,81.46L43.18,83.41L44.55,87.07L44.66,88.96L44.95,89.79L44.72,90.48L44.09,90.89L41.47,92.02L39.65,92.95L38.16,94.27L36.97,95.89L35.88,97.1L34.46,97.65L33.44,97.57L32.64,97.02L32.07,95.97L31.73,94.82L31.5,95.67L31.55,96.5L32.01,97.4L32.24,98.34L31.95,99.3L31.33,100.1L29.67,100.9L28.76,101.6L28.65,102.9L28.19,103.6L27.56,104.1L25.28,105.4L24.77,105.9L24.37,106.6L25.63,106.4L26.71,106.6L26.82,107.8L27.16,108.7L26.71,110.8L25,112.2L25.85,112.5L26.65,112.9L28.36,113.2L28.93,114.7L28.7,116.5L28.36,118.1L27.16,118.5L26.37,118.2L25.57,118.2L25,118.7L24.89,119.5L25.97,119.1L25.91,121.2L25.63,123.1L25.23,124.2L24.6,125.2L23.57,125.4L22.66,124.8L22.43,125.5L22.72,126.2L24.09,127.8L23.23,128.2L22.66,128.7L22.38,129.5L20.89,131.3L20.27,132.7L19.98,134.1L19.3,135.2L8.242,140.2L-0.649,144.3L-1.333,144.1L-1.732,143.4L-2.074,137L-3.157,133.6L-3.328,131.8L-4.582,133.4L-5.38,133.3L-6.235,132.8L-6.862,132.3L-6.862,131.6L-6.235,129.5L-7.033,130.7L-7.945,131.5L-8.857,131.4L-9.655,131L-9.939,130.3L-10.34,130.2L-12.33,132.1L-14.9,133L-16.32,133L-17.46,132.4L-17.41,131.1L-17.52,129.7L-17.8,128.9L-18.55,128.6L-19.17,128.7L-21,129.4L-21.68,129.3L-22.08,129.7L-26.92,124.7L-27.95,128.8L-31.31,130.9L-33.82,132.1L-36.27,131.7L-38.84,130.9L-41.34,131.8L-42,132.4L-42,60.02ZM205.7,64.86L206.9,65.22L208.1,65.11L208.7,64.39L208.9,63.48L209.5,61.78L210.9,60.63L211.8,60.43L212.5,59.94L212.4,58.67L212.5,57.44L213.5,56.12L216.7,54.25L218.5,53.59L220.9,53.4L221.2,54.08L220.9,55.1L221.4,56.64L221.1,60.76L220.6,61.34L218.2,62.77L215.5,63.92L214.7,64.39L214.1,65.55L214.1,66.67L216.3,68.16L219.6,69.59L220.4,70.25L220.8,71.35L221,72.58L221.8,73.16L222.9,73.44L223.6,74.04L224.3,74.86L218.6,72.94L217.1,72.09L215.3,71.98L213.5,71.73L211.7,70.99L209.7,70.82L208.8,71.35L208.4,72.39L208.2,73.57L208.6,75.03L208.6,75.91L208.2,77.5L209.7,82.2L211.4,85.97L214,89.87L215.3,91.22L216.7,92.43L214.4,92.07L213.7,90.75L210.7,89.46L210.2,88.69L208.2,84.98L207.7,84.29L205.9,83.03L205.1,82.12L204.8,80.86L205.1,79.54L204.9,77.72L205,75.94L205.4,73.71L204.8,72.94L203.9,72.23L202.9,70.52L202.7,68.6L202.7,67.5L203.1,66.54L203.7,65.68L203.8,64.86L202.4,63.65L200.9,60.24L200.8,58.45L202.7,55.05L202.6,53.4L203,52.41L203.2,51.36L204.1,49.08L205.7,47.15L208.4,44.43L209.4,43.85L210.6,43.47L210.7,44.13L210.5,44.71L208.5,47.48L208.2,48.09L208.2,49.27L209.2,49.93L210.2,51.33L210.3,53.2L210.4,55.18L210.2,57.19L209.8,57.88L208.2,59.88L204.5,62.22L204.2,62.8L204.2,63.46L204.9,64.25ZM237.8,123.7L241.4,125.4L243.3,125.7L246.5,125.5L247.7,125.6L250.7,127.9L251.6,129.4L251.8,130.7L252.3,132L253,132.3L253.9,132.4L255,134.3L255.3,134.8L254.4,139.4L250.8,137.7L247.4,135.7L245.9,135L242,133.3L241.4,132.8L240.9,132L239.2,131L235.8,130.8L234.5,130.9L233.9,131L234.1,131.6L234.1,132.7L233.2,133L231.1,132.3L229.2,132L227.5,131.3L225.3,131L225.1,130.6L225.2,130.1L225.2,129.6L224.7,129.4L223.6,129.5L222.7,130L221.9,130.6L220.7,132.1L220.1,132.7L218.2,132.9L217.4,132.8L216.6,132.4L214.4,129.6L213.7,129L212.9,128.5L212.1,128.3L211.3,128.7L210.9,129.6L210.7,130.6L210.5,131.2L209.5,132.8L208.8,133.8L208.5,133.7L208.9,132.1L208.9,131.2L208.4,130.3L208.1,129.3L211.8,124.8L213.1,123.7L219,123.3L222.5,123.5L224.4,123.4L225.7,123.1L226.8,123.2L227,124.1L227.7,124.8L228.6,124.7L230.2,124.1L231.7,123L232.6,122.5L233.5,122.4L234.4,122.5L235.3,122.7ZM191.9,127.2L194.6,128.4L195.1,129.2L195.6,130.2L196.2,130.7L196.7,131.2L197.8,132L198,133.3L197.8,135.8L196.6,136.1L195.5,136.4L193.3,137.9L192.1,138.2L190.9,138.3L190.1,138.7L189.2,138.9L187,138L184.8,137.1L181.7,135.4L181.2,135L180.7,134.1L179.2,132.5L178.9,131.4L178.8,128.5L179.1,127.8L179.7,127.5L181.8,128.2L183.2,127.4L187.1,126.8L191.1,126.9ZM161.3,220.5L161.2,221.9L161.5,222.2L162.1,222.4L164.1,221.4L164.5,221.6L164.9,222L164.9,223.3L164.1,224.4L162.1,224.5L161.8,224.8L161.8,225.4L162,226.1L162.5,226.6L163,227.5L163.6,229.6L162.5,230.4L161.9,232L160,233.5L157.9,236L156.2,237.3L154.7,238.8L153.4,239.8L151.8,240.2L149.4,240.4L146.2,242.2L144.4,242.9L142.6,243L141,242.4L140.4,241.7L140.5,240.9L141.1,240.1L141.8,239.5L142.2,238.7L140.3,237.6L140.2,236.9L140.9,234.8L141.4,232.7L142.1,231.2L144.7,228.6L146.3,227.4L147.3,226.8L147.5,227.4L148.1,228.1L148.5,228.1L148.8,228L151.1,228.2L151.7,228L152.6,227L153.2,226.4L153.6,225.2L153.7,224.4L155.7,223.8L156.9,223.2L157.9,222.3L160.8,220.9ZM316.8,168.8L316.7,169.4L316.6,170.5L316.9,171.6L316.2,172.7L316.9,174.2L317,175L316.9,176.2L316.8,176.7L316.3,178.2L315.8,178.7L315.5,178.8L315.1,179.3L312,178.8L310.6,177.7L309.4,176.6L309.2,176.2L307.8,174.9L307.4,174.5L307.4,173.8L308.6,173.6L309.8,173.6L309.7,173L310.4,170.8L308.6,169.4L308.2,168.8L308.9,168.4L310.4,168.9L312.2,166.4L312.8,165.9L313,164.5L314,164.3L314.8,164.5L315.2,165.4L315.4,166.1L315.2,166.8L316.1,167.1ZM313.5,180.5L313.2,181.6L312.9,182.9L311.5,184.3L310.6,186.4L310.1,187L308.2,187.9L306.4,186.7L305.9,185.7L306.7,181L307.4,181.1L307.9,181.1L308,180.8L307,180.2L306.7,177.5L306.8,176.5L307.6,176.3L308.7,177.1L310,178.5L311.6,179.6ZM376.8,209.7L373,211.8L368.1,211.5L366.3,211.4L363.4,211.9L362.8,211.5L363.3,209.6L365.7,204.3L368.5,199.6L369.6,198.4L371.3,197.3L373,196.4L376.9,195.4L380.5,195.6L381,196L382.5,197.5L383.6,198.8L384,200.5L382.4,203.5L380.8,206.3L378,208.5ZM402,210.5L401.6,210.2L400,208.5L399.7,208L399.9,207.6L400.5,206.7L401.8,204.1L400.5,205.7L398.9,207L396.7,207.1L394.4,207.4L392.3,208.1L390.2,208.4L389.2,208L388.6,207.1L388.2,206.1L388.1,205.1L387.2,206.7L385.4,207.6L383.1,209.6L382.4,209.2L382,208.4L381.9,207.7L382.3,206.9L382.6,206L383.1,204L384.2,202.8L384.9,200.4L385.3,199.6L385.6,198.8L384.9,197.8L383.9,197.5L383.2,196.9L382.3,195.3L381.8,194.8L380.9,194.2L380.1,193.4L380.9,192.8L382,192.6L382.9,192.6L384.4,193L385.2,193L386.9,192.4L386,192.6L384.9,192.6L381.7,191.6L379.7,190.5L377.8,188.4L377.8,188L379.1,187.6L382,187.1L381.1,186L379.8,185.1L379.3,183.4L378.5,182.4L376.6,180.7L375.2,178.9L374.2,175.3L373,172.6L373.3,171.7L374.3,171L372.8,170.9L371.5,170.4L372.2,169.1L373.7,168.3L372.3,168.5L371,168.9L370.3,168.9L369.7,168.8L369.4,168.3L369.3,167.5L369.5,166.2L369.3,165L368.1,164.3L367.1,163.4L366.5,163.1L365.8,163.1L365.1,162.5L364.5,161.6L357.3,157.8L356.9,156.7L356.3,157.2L355.6,157.4L354.8,156.8L353.9,156.3L353,156.4L352.1,156.1L351.2,155.9L350.2,155.8L346.5,154.7L342.9,152.8L340,152L338.2,150.9L336.3,150.1L332.2,149.3L327.9,148.7L326.4,148.7L325.1,148.9L323.9,148.8L316.9,144.8L315.7,142.9L315.9,141.8L316.2,140.9L319,140.7L317,140.4L316.2,140.5L314.5,141.3L313.6,141.3L312.4,140.8L311.2,140.2L309.2,140.8L308.2,139.9L307.8,138.9L307.3,138.4L306.6,138.5L305.6,138.8L304.6,138.8L303.9,138.1L303.5,137.2L302.8,136.6L301.9,136.1L300.6,135L299.9,133.4L299.9,130.7L300.2,129.7L301.5,128.2L302.5,126.7L301.3,126.5L300.2,127.2L299.8,127.9L299.6,128.7L299.5,131.6L298.6,132.4L297.4,132.3L297.7,134L297.2,135.6L295.7,137.4L295.6,138.3L295.8,139.2L295.5,140.1L293.1,142.6L292.3,142.8L290.5,142.8L288.7,143.2L287.8,142.6L287.1,141.8L286.6,140.8L285.8,138.9L285.2,137L287.1,134.5L286.4,132.3L285.2,130.5L282.1,127.9L278.9,125.4L277.4,124.9L274.9,124.7L274.2,124.4L273.4,123.5L272.9,122.5L274.4,122L277,120.7L278.5,120.8L282.4,121.5L283.6,122.1L284.8,122.5L287.5,120.4L289.7,117.7L291.1,117.1L292.2,116.9L293.3,117.1L295.7,118.1L297.5,118.5L298.8,118.6L299.5,119.5L300.2,119.8L300.4,118.6L301.1,117.1L302.3,116.6L303,116.5L303.5,116.2L303.4,114.8L301.7,114.6L302.6,113.4L303.4,112.9L303.7,112.3L303.8,111.6L300.4,112.9L296.9,113.5L294.8,113.4L292.7,113.4L288.5,114.3L287,114.2L283.3,113.9L281.3,113.4L279.7,113.8L278.2,113.8L276.6,112.7L275.3,111.4L274.6,110.5L273.7,109.8L273.3,108.9L272.3,105.4L272.2,103L270.7,102.9L269.1,102.7L262.2,100.3L261.3,100.9L260.3,101.2L259.4,101.3L258.4,101.2L257.4,100.8L257.5,100.2L258.2,98.61L258.9,98.03L259.9,97.57L260.5,96.74L261.5,94.21L261.6,93.36L261.5,92.48L261.5,91.82L262.2,91.49L264.8,90.67L270.2,89.43L271.6,88.69L272.7,87.51L274.1,86.79L274.6,86.05L275.3,85.47L279.5,83.91L281.4,83.8L283.2,83.96L286.9,84.9L290.4,86.38L293.4,88.36L296.6,89.79L300.6,90.01L302.6,89.87L304.6,90.06L305.4,90.48L306.7,91.69L306.3,92.48L306.1,94.13L306.8,95.73L308,97.32L308.9,99.03L309.1,99.85L308.7,101.6L308.4,102.5L307.3,103.9L306.7,105.5L307.1,107.5L307.3,109.4L307.2,111.3L307.5,113L308,114.8L310.7,119.8L312.3,123.1L312.8,121.3L312.7,119.2L313.2,118.4L314,118L314.9,118.5L315.2,119.3L315.3,121.1L316.1,124.7L317.2,124.9L318.4,124.4L318.5,125.5L318.5,127.5L319,129.1L319.5,129.8L321.4,131.1L322.3,131.3L324.8,131.7L326.7,131.7L328.5,131.3L329.7,130.1L330.7,128.8L334.4,125.7L335.5,124.3L336.5,122.1L336.9,121.6L340.5,119.2L340.9,118.3L341.4,116.7L342.2,115.1L342.8,114.3L346.3,113.5L350,113.1L353.6,111.6L355.2,110.4L355.3,109.5L354.5,108.1L354.4,107.4L355.3,106.8L358.5,105L362.2,103.1L365.3,101.8L366.9,101.8L368.5,102.9L370.1,103.9L378.6,106.6L380,107.5L381.2,108.6L382.9,109.4L384.8,109.8L386.5,110.6L388.1,111.5L391.8,113.3L396.7,115.5L397.9,115.6L402,115.5L402,210.5ZM382.5,211.6L381.7,211.8L377.7,211.3L377.3,210.6L377.2,210.3L378.1,209.6L379,208.5L380.4,208.1L380.9,208.1L382.5,210.7ZM-14.1,191.1L-14.44,191.3L-17.12,191.2L-18.83,192.5L-20.03,192.9L-24.36,192.9L-24.87,192.7L-25.27,192.7L-25.5,193L-26.87,192.8L-31.26,191.6L-31.83,190.6L-31.14,189.4L-29.6,187.8L-26.41,187.5L-12.05,187.3L-10.51,188.8L-10.34,189.2L-13.47,190.2ZM320.2,95.95L319.5,96.25L318.6,95.92L317.8,94.71L318.1,93.77L319,93.14L319.9,93.77L320.1,94.6L320.8,94.65ZM198.1,86.13L197.1,86.55L196,86.52L195.8,84.84L196.2,82.7L197.2,82.34L198.7,82.78L198.2,83.33L198.6,84.48ZM203.1,83.33L204.9,85.69L203.7,87.95L204.6,89.21L206.9,89.27L207.4,89.73L207.8,90.31L208.1,91.08L207.5,91.71L206.2,92.26L204.7,91.47L204.3,90.7L204,90.42L202,91L201.5,91.05L201.1,89.98L201.6,88.47L200.2,87.78L198.9,86.22L198.8,85.56L199.3,84.48L199.3,83.6L200,83.52L201.3,84.7L202,83.6L202.5,83.14ZM288,171.9L286.7,173.3L287.9,170L288.1,168.4L289.3,167.4L290.9,162.5L291.3,162.6L291.9,163.1L291.1,166.7L288.7,169.2ZM286.1,171.1L285.1,172.6L284.5,172.1L284.1,172.1L283.9,171.2L284.1,169.3L283.3,167.2L284.4,167.2L284.7,167.9L285,168.1L286,170.1ZM214.3,136.5L213.9,137.1L213,137.5L212.2,137.4L212.5,136.9L212.3,136.6L211.7,136.7L210.8,137.1L209.7,138L208.9,137.6L208.8,136.9L208.9,136.6L210.2,135.3L211.9,135.1L214.2,133.9L215.2,134L215,134.7L214.6,135.3L214.4,135.8ZM191.3,14.37L190.6,14.7L189.6,14.59L189.5,13.77L190.5,12.33L191.2,10.79L190.5,10.4L189.8,9.44L189.7,8.31L190.3,6.214L191.2,6.38L192,7.29L192.3,8.999L192.9,10.29L191.8,12.06ZM172.9,23.85L172.5,24.34L170.6,23.46L170.7,22.06L170.5,21.37L169.9,20.63L169.7,19.91L169.9,19.14L171.1,20.13L171.8,21.7L172.7,23.21ZM255.3,210.4L254,210.9L254.9,209.7L257.8,206.8L258.9,207.3L260.3,207.4L258.2,208.7L256,209.3ZM239.1,204.6L238.2,206.1L237.1,206L235.2,204L235.3,202.6L235.5,202.2L236.2,202.1L238.7,202.5L239.2,203.6ZM207.2,206.9L210,207.6L211.5,207.5L211.9,208.1L210.3,209.4L207.2,208.4L206.6,207.3ZM247.2,105L247.5,106L248.4,106.9L248.1,108.2L247.7,108.4L247.9,109L248.3,109.5L247.6,109.8L247,109.7L246.1,110.1L245.6,110.7L243.8,111L243.1,110.4L239.9,109.7L237.8,108.3L237.5,107.9L241.5,106.1L243.4,105.7L244.8,105.7L246.7,105.1ZM115.7,164.5L114.7,164.9L112.8,163.1L112,161.6L112.1,160.8L112.7,160L113,159.8L112.9,159.1L113.6,158.7L114.5,158.7L115,159.8L115.6,160.1L116,161.1ZM134.2,96.83L134.5,97.81L134,98.67L134.6,100.3L136.2,98.14L137.7,97.87L138.6,98.23L139.2,98.64L139.5,99.47L138.9,101.2L137.9,102L136.7,102.2L136,101.1L135.2,101L134.6,103.3L134.3,103.6L133.6,103.9L132.9,103.3L132.8,102.9L133.7,101.9L133.2,98.94L132.5,99.49L130.6,102.2L129.1,103.4L128.6,102.8L127.8,100.9L128.2,98.58L129.4,96.99L130.4,97.1L133.3,96.61ZM112.8,84.73L113.5,85.42L113.1,86.24L112.6,86.05L111.1,86.05L110.6,86.11L109.9,86.6L109.5,86.6L109.8,85.86L111,84.73L111.8,84.9ZM91.69,178.2L91.06,180.8L90.72,179.9L90.6,177.5L90.2,176.3L90.49,175L90.43,171.5L90.89,169.9L91.8,171.9L92.03,173ZM10.12,188.9L8.869,189.2L7.672,188.6L7.672,187.9L7.957,187.2L9.781,186.8L10.75,186.8L11.78,187.3L12.46,187.8L12.8,188.4L10.86,188.4ZM24.83,139.6L21.46,142.5L20.95,141.8L21.24,138.8L20.27,136.9L20.38,135.5L21.01,133.1L21.86,131.2L23.8,129.9L24.26,129.8L24.14,132.1L24.54,132.9L24.66,133.7L24.49,134.3L24.83,137.2L25.06,137.9L24.6,138.8ZM130,252L128.6,252.1L128.1,251.9L127.9,250.5L128.4,249.7L131.8,248.7L133.1,247.7L135.1,245.7L136.2,245.2L136.5,245L136.7,245L136.9,246.6L137.4,247.4L137.5,247.9L135.7,248.7L134.3,250.4L130.9,251.5ZM151.2,210.6L150.2,211.6L149.6,213.3L149,213.9L147.7,214.2L146.9,212.4L145.5,212.5L146.2,211L146.9,210.4L147.8,210.4L148.2,211.1L148.4,211.2L150.4,208.6L150.8,208.6L151.2,208.7L151.5,209ZM145.5,209.7L143.3,210.1L141.9,212.1L140.8,212.1L140.2,213L140.1,213.4L140.1,213.7L140,214.1L139.6,214.4L138.6,213.9L137.7,214.6L137.3,214.8L136,213.9L134.8,214L134.5,213.8L136,212.4L138,211L138.4,210.5L137.6,210.4L137.1,210.2L137,209.8L138.3,209.6L139.2,209.6L139.9,210L140.4,210L143.1,208.4L144.2,208.8L145,209.2ZM135.9,211L135.5,211.7L131.2,211.7L131.4,210.7L132.6,209.7L132.9,209.4L134.3,209.1L136.1,209.7ZM316.3,182.2L315.5,182.4L315,181L315.7,180.7L316.5,181.5ZM-5.152,191.5L-5.38,192.1L-6.178,192L-6.919,190.9L-6.577,190.7L-6.121,190.6L-5.608,190.7ZM-31.94,170.4L-32.28,171L-33.76,171L-34.05,170.3L-33.08,169.2L-32.4,169.1L-31.83,169.5ZM140.3,105.3L139.2,105.4L138.5,104.9L138.5,102.6L139.2,102.1L139.5,102.2L139.7,102.8L140,103.5L140.6,104.1ZM134.7,143.5L133.1,145.4L132,145.3L130.7,144L130.4,142.6L130.3,142.1L131.2,141.4L134.2,141.6L134.7,142.3ZM144.2,109.3L144.5,109.9L143.6,109.9L143.2,108.7L143.2,108ZM133.2,107.1L132.1,108.3L132,107.7L132.2,107L132.5,106.6L133,106.3ZM74.87,217.2L74.24,217.4L73.62,217.1L73.84,215.7L73.5,214.8L74.13,214L74.3,212.6L74.59,212.2L74.93,212.6L75.16,212.9L75.44,213.1L76.18,213.1L76.35,213.7L76.3,214.2L76.01,214.8L75.16,215.4L74.53,216.1ZM68.66,209.2L67.97,209.2L67.86,208.6L68.09,207.9L68.77,207.6L69.06,207.6L69.51,208.2L69.63,208.5L69.17,208.9ZM13.83,217.7L13.37,218.2L12.12,217.3L11.78,216.8L12.74,216.2L13.09,216.1L13.88,216.8ZM46.09,12.22L47.63,12.25L49.85,11.95L50.36,13.46L50.48,14.04L47.51,14.84L45.75,12.97ZM46.26,26.33L46.09,26.85L44.72,25.55L44.32,24.65L44.49,23.9L45.92,23.85L46.6,24.32ZM147.5,173L147.3,173.8L146.7,172.9L146.2,172.5L146.3,171.6L147,171.9ZM140.8,161.9L140.7,163.5L140.1,163.4L139.6,162.8L139.4,162.3L139.4,161.9L139.7,161.5ZM95.62,191.3L93.96,191.4L93.51,191.2L93.34,189.7L95.16,190.3L95.73,190.4ZM44.66,211.2L44.26,211.2L43.58,210.9L43.87,210.3L43.47,209.2L43.58,208.3L44.49,207.8L46.37,207.7L46.43,208.4ZM26.71,133.2L26.14,135.9L25.17,134.3L26.25,132.5L26.77,132.1ZM200,65.77L199.5,66.26L199,66.1L198.7,65.44L198.8,64.94L199.2,64.64L199.7,64.86ZM310.9,111.9L310.4,112.1L310.3,111.5L310.6,110.5L310.8,110.4L311.2,110.4L311.6,110.8ZM298.2,145.6L299,146.4L297.1,145.8L294.4,144.3L294.2,143.4L296.5,144.8ZM256,90.59L255.6,91.41L254.8,91.93L248,92.92L248.6,92.34L248.9,91.77L249.3,91.47L250,91.55L250.4,91.36L250.6,91.3L251,91.38L251.7,91.14L253.1,91.3L254.5,91.16L254.4,90.39ZM251.6,86.66L250.6,86.68L249.1,86L250,85.39L250.6,85.25L251.1,84.9L251.4,84.9L252.1,85.2L252.5,85.72ZM234.5,81.24L233.8,81.3L233.3,80.36L231.7,79.34L230.7,77.56L234.4,80.5ZM201.3,78.38L201.3,78.85L200.8,78.19L200.4,78.03L200.8,76.32L201,76.02L201.3,77.2ZM200.8,68.1L200.3,68.3L200.1,68.24L199.9,67.58L200.2,66.51L200.9,66.51L201.2,66.67L201.2,67.47ZM198.9,90.64L198.7,90.97L197.1,90.56L196.6,90.34L197.5,88.08L198.3,88.14L199,90.28ZM221.4,134.5L221.4,135.1L221.3,135.4L220.4,135.1L219.8,135.1L219.2,133.9L219.4,133.7L220.6,134L221,134.1ZM218.9,135.1L216.2,135.9L216.8,134.4L217.1,134L218.5,134.4ZM189.7,16.88L189.8,17.57L188.8,16.03L188.4,14.23L189.2,14.87L190.1,16.22ZM191.8,18.59L191.5,18.75L191,18.34L190.6,17.87L190.7,17.4L191.1,17.16L191.9,17.87L191.9,18.29ZM169,36.29L168.8,36.65L168.2,34.77L168.7,33.84L169.4,34.2L169.5,34.53L168.9,35.41ZM273,192.6L272.8,193.4L272.1,193L271.5,192.1L270.5,191.9L269.8,191.7L269.4,191.3L272.1,191.1ZM220.6,192.3L219.9,192.7L218.7,191.9L218.4,191.5L219.1,190.7L219.9,190.5L220.4,190.8L220.7,191.2L220.6,191.6ZM200.8,199.3L199.8,199.7L200.1,198.5L200,197.6L201.7,197.9L201.7,198.6L201.5,198.9ZM137.4,242.3L136,242.8L136,241.7L137.1,240.2L138.1,239.7L138.6,240.3L138.7,240.5L137.2,241.1ZM113.2,246.9L112.4,247.1L110.7,246.6L110.3,246.4L111.7,245.6L112.9,244.5L114.2,244.4L115,244.6L114.7,245.9ZM318,180.4L317.6,180.5L317.6,179.7L318,179L318.5,178.6L319,178.6ZM315.7,185.4L315.4,185.6L315,185.1L314.9,184.8L315.5,183.9L316,183.4L316.6,183.4L316.5,184.1ZM209.8,124.8L209,126.1L207.6,126.1L207.4,125.9L209,125ZM203.7,130.8L204.1,131.5L202.5,131L201.9,130.4L202.5,129.9L202.9,129.8ZM130.5,214.1L130,215L129.1,214.8L129.3,213.8L129.8,213.3L131,212.5L132.3,212.4L133,212.7L133.2,213L131.3,213.3ZM6.418,0.616L6.817,1.14L7.786,2.988L8.413,4.836L8.584,7.648L9.325,8.861L9.211,9.109L8.755,9.302L8.071,9.385L6.874,9.109L5.848,8.696L4.993,5.663L4.595,3.926L4.652,1.857L4.595,0.616ZM4.595,0.616L3.284,1.306L2.03,2.161L0.776,2.905L0.149,3.512L0.377,4.312L0.662,6.132L0.833,7.538L1.289,8.089L1.631,8.668L1.517,9.275L0.719,10.43L1.175,10.68L0.605,12.22L-0.193,13.38L-1.276,14.32L-2.017,14.51L-2.587,14.13L-3.556,13.11L-4.582,11.67L-5.038,10.85L-6.52,10.73L-7.09,10.07L-7.09,9.275L-7.546,8.337L-8.116,7.317L-8.971,6.545L-10.17,5.939L-10.62,5.498L-8.857,5.525L-6.919,5.249L-4.924,4.422L-3.043,3.402L-1.447,2.216L0.092,0.92L1.631,-0.129L4.082,-1.343L4.936,-1.232L4.936,-0.377ZM-18.46,482L-18.49,481.9L-19.52,480.2L-20.88,477.4L-20.94,474.3L-20.83,472.2L-19.74,467.6L-18.72,465.2L-15.53,459.8L-15.35,457.5L-15.35,455.7L-14.9,453L-14.9,451.1L-15.35,449.4L-16.66,446.4L-14.9,441.1L-12.33,434.4L-11.31,433.5L-9.712,432.5L-9.427,433.9L-10.17,438.6L-9.085,441L-9.427,443.7L-8.401,443.3L-6.862,442.7L-5.665,441.3L-5.038,440L-2.131,434.5L-0.421,432.4L1.916,431L6.76,429.2L11.38,426.8L13.6,424.5L16.39,422.6L18.33,420.4L20.15,419L29.62,413.6L31.21,412.6L33.26,412.5L35.77,412.7L38.05,412.4L40.5,413.6L42.27,413.8L46.66,412.4L48.99,411.2L53.04,408.6L54.81,407.9L58.91,407.1L63.59,406L69.17,401.5L73.16,401.8L76.75,402.2L79.66,400.9L86.44,400L90.2,398.9L97.27,395.9L99.15,394.9L102,392.8L104.5,390.1L107,386.5L108.5,383.3L109.1,381.7L110.6,379.1L111.6,377L112.4,376L115.1,374.6L119.2,370.7L120.5,369.9L120.7,368.7L119.8,368L118.8,367.5L118,363.4L117.3,360.6L117.3,358.6L117.6,356.7L119.2,353.7L120.2,352.4L121.8,351L123.3,350.5L124.5,349.2L126.4,348L127.3,346.7L128.4,344.1L129.5,342.1L130.4,342.2L132,346.8L133.1,349.2L135.1,352.1L136.9,356.3L138.4,358.3L139.2,359.5L139.7,360.1L139.9,359.3L139.7,358.3L140.5,355.1L140.1,352.8L140.2,352L140.6,351.6L141.3,351.8L142.8,353.1L143.5,353.6L144,353.5L143.9,351.4L144.7,350.1L144.4,349.2L143.2,349.3L142.6,348.2L141.6,346.9L140.4,346L139,343.9L138.6,343.1L139.2,342.7L140,342.7L140.8,341.8L141,340.6L140.4,338.6L141.1,337.9L142.4,338.1L144.4,341.3L145.3,340.9L146.1,339.7L147.4,339.3L148.7,339.6L149.6,340.4L151.4,341.4L153.8,341.3L155.1,341.5L157.6,341.3L158.9,341.6L158.7,341.1L157.2,340.5L155.7,340.4L153.9,340.5L153.1,339.9L152.8,338.3L153.2,337.2L153.5,336.7L154.7,336.9L155.8,336.8L155.9,335.3L156.3,333.9L156.9,332.8L156.9,331.8L156.3,332L154.7,334.5L153.9,332.5L152.7,331L153,328.8L153.6,326.6L154.7,326.3L155.6,326.7L156.9,325.4L157.6,324.4L157.5,323.6L157.6,323L158.5,323.2L162.1,325.2L162.8,326.2L163.5,325.8L163.7,324.7L163.7,323.6L162.9,323.7L161,323.6L160.7,323L160.8,322.5L160,321.1L161.2,320.3L162.1,320.3L162.9,319.7L162.9,318.9L163.1,318.6L163.7,319.1L165.5,319.3L167.3,320.3L168.1,320.5L168.5,319.9L168.6,318.8L166.3,317.6L166.3,316.5L165.3,315.1L165.3,313.9L166.7,312.8L167,311.7L167.8,311.3L169.4,311.3L170.5,310.4L171.7,310.1L172,308.1L171.9,306.7L172.4,306.4L173.6,306.9L173.3,308.5L173.3,310L173,310.8L173.4,310.8L173.7,310.4L174.2,309.4L175.5,309.8L175.8,310.9L176,311.9L176.6,312.3L177.5,310.7L178.7,310.3L178.6,308.2L179.1,306.8L179.2,305.7L179.9,305.2L180.1,304L179.5,303.3L179.2,301.8L180.2,301.5L181.2,302.2L182,304L182.4,304.8L183,304.4L183.4,303.2L184.7,302.5L186,303.4L187.3,304.8L189.1,303.6L190.7,301.4L190.4,300.1L190.6,298.7L192.6,298L194.3,298.5L195.7,300L198.8,301.1L201.4,302.7L202.5,303.7L204.8,305.3L206.2,307.1L208.2,310.1L212.9,313.8L213.1,314.5L212.5,315.7L211.9,317.3L211.3,320L211.1,323.9L211.8,323.7L212.5,322.2L213.2,322.5L214,323.4L214.1,322.5L213.6,322L212.7,320.2L212.7,319.2L213.4,318.4L214.5,317.5L215.7,316.9L216.4,316.4L216.5,315.7L217.5,315.1L219.1,314.8L220,314.9L226.8,316.6L228.4,318.3L228.6,320.4L229.2,321.1L229.6,319.8L229.5,317L230.1,316.4L231.8,316.8L233.1,317.4L234.8,319.3L235.1,320.2L235.9,320.8L236.1,319.9L235.8,318.7L235.5,317.3L235.9,316.1L237.9,316L239.2,315.7L238.6,315.3L237.8,315.1L236.3,313.9L235.4,312.8L236.9,311.6L236.9,311.3L235.4,311.3L233.5,310.2L231.8,308.6L233.1,305.7L235.7,302.8L237.1,301.8L237.2,300.9L237.9,299.1L238.3,297.6L238.4,296.4L239.1,295.2L240.7,294.1L242.8,293.6L243.8,293.2L244.8,292.1L245.7,290.8L243.8,288.3L244,286.9L244.3,285.2L246.7,284L248,280.8L248.8,280.3L250.7,280.4L251.4,280.1L251.3,277.6L251.5,276.7L252.3,276.3L253.3,276.6L254,277.7L255.4,278.7L255.9,278.1L255.7,277L255.5,275.6L256.8,275.3L257.9,275.2L257.9,274.1L257.8,273.1L258.2,272.7L261,272.5L261.7,271.6L262.1,270.8L262.4,271.2L262.9,273.1L264.4,274.1L269,274.2L271.6,273.4L272.6,273.9L274.4,274.2L276.2,273.4L277.3,272.7L279.2,273.6L279.8,274.5L280.3,272.5L281.4,271.8L282.6,271.4L284,271.8L284.6,271.7L283.3,270.2L283.4,268.9L283.3,267L283.5,265.3L284,264L280.9,261.5L277.7,261.1L275.4,261.6L274.5,261.2L272.4,259.2L270.5,258.4L270.4,257.9L272.7,256.4L273.6,256.7L275,258.1L275.8,258.5L276.5,258.4L276.9,257.4L277.5,256.8L278.6,257.1L282.2,259.4L284.1,261.7L285.1,261.1L286.9,259.8L288.5,260.1L289.5,260.8L290.9,263.6L292.1,264.9L294.8,265.3L296.2,265.8L297.6,266.7L299.5,266.6L303.5,267L307.2,268.7L308.7,269.8L310.6,270.1L311.6,270.5L313.5,270.7L316.5,269.4L317.9,270.5L318.5,271.3L321.3,272.8L324.3,273.2L326.4,271.8L329.5,270.7L331.7,269L333.3,268.2L334.8,266.8L335.4,266.8L334.1,268.1L334,268.9L335,269.2L334.9,269.6L333.6,270.5L331.9,272.1L332,273.1L332.6,273.6L333.3,273.4L334.4,272.6L335.7,272.1L336.8,272.8L337.2,275L338,276.5L339.7,276.7L340.8,276.7L341.8,274.6L341.3,272.9L340.6,272.5L340.9,271.8L343.7,268.9L345.2,269L346.3,271.8L348.1,273.3L349.9,273.2L350.8,273.6L351.6,275.3L345.1,282.4L344.9,283.2L345.7,284.5L346.1,285.9L343.9,289.6L343.2,289.7L342.4,288.7L341.3,288.1L340.3,288.6L339.3,288.8L335.5,290.8L335.5,296L336.5,299.1L335.9,301.1L334.8,304.7L333.6,306L332.6,306.9L329.4,311.7L328.3,312.9L327.2,314.6L327.6,316.2L328,317.3L329.2,318.5L334,321.1L336.1,323L339.9,325.1L340.8,326.6L341.3,327.9L343.9,329.3L345.9,330.1L346.5,329.9L346.9,329.6L347.3,329.6L347.8,329.8L347.7,330.9L347.5,331.5L347.7,332.2L349.1,333.2L351.2,333.2L352.5,333L353.9,334L355.2,334.7L357.2,336L360.8,337.7L363.6,338.8L366.9,342.8L369.4,345.1L372.2,346.8L376.3,348L378.2,347.8L381.3,349.2L384.3,349.8L385.9,351.7L386.4,353.1L386.6,354.3L388.1,356.9L391.1,357.8L395.1,360.4L398.3,361.6L399.1,362.3L400.5,363.1L402,363.1L402,482ZM392.2,344.4L391,345.9L390.3,345.7L389.8,346.4L388.6,346.8L387.9,346.8L386.7,347.2L386.5,346.7L386.7,345.3L387.8,343.7L388.8,342.7L391.4,342.2L393.5,341.5L393.7,341.6L395.2,343.5L393,343.7ZM347.9,299L348.6,299.7L349.4,299.6L350,298.1L350.4,298.3L350.7,298.7L351,299.3L350,300.5L349.5,300.6L349.1,301.3L348.5,303.4L348.5,304L349.1,304.8L350.7,305.4L351.4,305.1L351.7,305.2L351.4,306.2L350.8,307L348.7,306.6L346.9,306.7L343.9,306L342.4,305.9L342,305.6L342.9,305L343.4,304.2L343.2,302.3L343.4,300L345.1,298.8L345.9,297.6L347,296.9L347.8,297L347.7,297.7ZM248.9,264.5L250.2,264.9L250.8,265.4L251.2,266L251.3,266.7L249.6,267L246.7,266L243.8,266.8L242.9,266.8L242.3,266.2L242.8,264.5L243.9,264.8L244.8,264.1L244.6,262.3L244.1,261.2L245.6,259.3L246.3,259L247,259L247.6,260.3L247.7,261.7L248.5,263.1ZM251.4,259.6L253.6,259.7L256.1,258.5L257.3,259L257.8,258.9L259.7,257.8L260.9,257.4L261.8,256.6L262.6,257.5L264.4,258.6L265,259.7L265.8,260.2L266,260.6L264.9,261.7L264.7,263L263.5,262.9L262.1,265L256.7,268.5L251.8,265.5L249.7,263.5L248.4,260.7L248.1,258.4L247.5,257L247.7,256.6L248,256.4L248.4,256.5L249.8,258L250.5,258.5ZM346.1,259.6L345,260.6L344.9,259.9L345.5,259.3L346.9,256.9L347.5,256.4L347.9,256.1L348.2,255.2L348.2,253.9L349,253.7L348.4,256.7ZM342,263.2L339.5,264.5L340.9,262.8L343.8,261.4L344.2,261L344.1,261.7L342.6,262.9ZM354,331.3L353.3,332.1L352.4,331.3L352.3,330.4L351.6,330.2L351.9,329.4L352.3,329.2L352.6,328.3L353.5,329.4L353.6,330.6ZM350.3,328.7L350,328.8L350,327.4L350.5,326.8L350.7,328.2ZM346,328.8L345,328.9L344.8,328.8L344.6,328.1L344.9,327.4L345.9,327.3L346.3,327.4ZM391.4,353.4L390.8,353.7L390.6,353L391.4,352.3L391.9,351.3L393,352.2L393.2,353ZM340.4,299.3L340,299.5L338.6,299.2L338.6,298.6L338.8,298.2L339.2,297.9L340.1,296.7L340.7,297.4L341,298.8ZM282.7,258.4L282.4,258.6L281.1,256.2L281.5,255.4L281,254.1L281.8,254L282.5,253L282.7,253.5L282.8,255.2L283.3,256.2ZM165.7,311.6L164.6,312.7L164,311.8L164.4,310.2L165,309.6L165.6,309.9L165.6,311.2ZM156.1,325.1L155.5,325.6L154.9,325.4L154.9,324.8L154.3,324.1L154.7,323.3L154.9,322.9L155.4,323L155.6,323.6L156.3,324.4ZM11.26,414.9L10.29,416.2L9.211,415.9L9.04,415.3L9.781,414.2L11.04,412.8L11.43,413.7ZM140.2,276.6L140.2,276.7L139.9,276.7L139.9,276.5Z" fill="#D8E2E7" stroke="#3F464B" stroke-width="0.85" vector-effect="non-scaling-stroke"/><path d="M172.7,207.6L171.7,210.3L170.5,209.7L171.8,208.2L172.3,207.8ZM163.6,229.6L163,227.5L162.5,226.6L162,226.1L161.8,225.4L161.8,224.8L162.1,224.5L164.1,224.4L164.9,223.3L164.9,222L164.5,221.6L164.1,221.4L162.1,222.4L161.5,222.2L161.2,221.9L161.3,220.5L162.9,219.1L164.4,216.7L165.3,215.7L167.6,214.8L168.5,214.6L175.2,213.2L176.8,213.1L181.1,213.2L186.8,212.9L188.1,212.7L189.9,212.1L191.7,211.4L192.6,210.8L193.7,210.4L195.1,210.9L197.6,211.3L198.2,211.7L198.8,212.1L196,214.7L192.8,216.8L190.9,217.4L188.9,217.9L187.3,218.7L186,219.9L184.4,220.7L182.5,220.9L180.9,221.3L179.5,222.1L177.5,223.3L176.7,223.5L175.8,223.5L174.2,223.9L169,225.8L165.8,227.8ZM147.3,226.8L149.8,225.5L153.7,224.4L153.6,225.2L153.2,226.4L152.6,227L151.7,228L151.1,228.2L148.8,228L148.5,228.1L148.1,228.1L147.5,227.4Z" fill="#8B341D" stroke="#2C160F" stroke-width="1.1" vector-effect="non-scaling-stroke"/></svg>