<svg xmlns="http://www.w3.org/2000/svg" viewBox="0 0 360 440" width="360" height="440" role="img" aria-label="Regional map with Tanzania highlighted"><rect width="100%" height="100%" fill="#7FA6D6"/><path d="M147.7,368.7L146.9,368.2L145.8,367.8L144.4,367.6L142.5,367.7L140.3,368L137.9,367.6L135.3,366.6L133.1,366.2L130.6,366.7L130.5,366.7L130,366.3L129.3,365.6L128.2,365.5L127.8,365.3L127.6,365L127.4,364.6L127.3,364.2L127.5,363L127.4,362.9L127.1,362.7L126.5,362.6L124.9,362L123,361.4L119.9,360.9L118.7,360.7L118.4,360.5L118,360.1L117.4,358.6L116.9,357.7L115.5,356.3L115.3,355.8L115.3,354.7L115.5,353.7L115.6,353L115.5,352.2L115.5,351.3L115.6,350.7L115.4,350.4L114.9,350.3L113.5,350.2L111.8,350.2L111.8,349.3L111.6,347.8L111.3,347L110.9,346.6L110.1,346.1L108.5,345.5L106.4,344.6L104.6,343.2L102.5,341.5L101.8,341.2L101,339.6L99.89,336.9L99.95,336L99.79,335.5L98.63,334.2L98.4,333.5L98.18,332.8L96.37,330.8L95.76,330L95.28,328.9L94.82,328L94.4,327.7L93.89,327.1L93.53,326.4L93.37,325.9L93.5,325.2L93.69,324.7L95.4,325.2L96.37,325.3L97.11,325L98.02,325.3L99.11,326.2L100.3,326.4L101.6,325.8L103.3,326L105.5,326.9L107.3,327.1L109.5,326.3L111.4,324.1L113.2,322.1L115,319.7L116.1,317.9L117.6,316.3L119.7,315.1L121.8,314.1L125,312.9L125.7,311.9L125.9,310.8L125.9,309.3L126.1,308.3L126.4,307.8L126.9,307.5L127.7,307L129.8,305.9L131.6,305.1L133.8,304.6L136.1,304.6L138.4,304.6L139.7,304.6L139.7,306.1L139.8,307.7L140.1,307.9L141.8,307.9L144.6,308.1L147.2,308.2L148.9,309.4L149.5,309.6L151.3,309.9L153.6,311.9L156.3,312.1L158.1,312.8L159.8,313.4L160.7,314.3L161.3,314.5L162.2,314.5L162.6,314.6L162.5,315.2L161.9,316.2L162,317.6L162.8,319.6L162.9,321.4L162.6,324.5L162.6,327.5L162.7,328.5L162.8,329.2L163,329.6L163,330.1L162.5,331.3L162.2,332.7L162.1,333.2L162,333.6L161.7,333.9L160.6,334.5L160.4,334.9L160.4,335.6L160.5,336.1L160.9,336.4L161.5,336.7L161.7,337.1L161.7,337.6L161.5,338.4L161,339.8L161.5,341.4L162.1,342.5L162.8,343.7L163.1,344.4L163.1,345L163,345.5L161.9,347.7L161.1,349.1L160.1,350.5L158.8,351.5L158.5,351.9L158.4,352.4L158.4,353.6L158.4,354.7L157.3,356.5L157.9,358L157.8,358.2L157.4,358.4L155.8,360.1L154.2,361.9L153.1,363.2L151.7,364.7L150.2,366.3L149,367.7ZM139.7,304.6L138.4,304.6L136.1,304.6L133.8,304.6L131.6,305.1L129.8,305.9L127.7,307L126.9,307.5L126.4,307.8L126.1,308.3L125.9,309.3L125.9,310.8L125.7,311.9L125,312.9L121.8,314.1L119.7,315.1L117.6,316.3L116.1,317.9L115,319.7L113.2,322.1L111.4,324.1L109.5,326.3L107.3,327.1L105.5,326.9L103.3,326L101.6,325.8L100.3,326.4L99.11,326.2L98.02,325.3L97.11,325L96.37,325.3L95.4,325.2L93.69,324.7L92.18,323.2L91.37,322.6L90.76,322.4L88.99,322.1L84.86,321.8L84.44,321.9L82.73,322.2L80.6,322.5L78.79,322.9L76.86,323.3L75.08,321.7L73.05,320L70.96,318L69.38,316.4L68.6,315.5L67.22,314.4L66.22,313.8L65.83,313.5L64.86,310.4L64.31,307.5L64.31,305.4L64.31,302.4L64.31,299.4L64.31,296.4L64.31,293.5L64.31,290.5L64.31,287.5L64.31,284.6L64.31,281.6L64.31,280.2L66.38,280.2L68.7,280.2L71.15,280.2L73.83,280.2L76.47,280.2L79.15,280.2L81.02,280.2L81.5,280.2L82.08,280.1L82.12,279.8L81.34,278.3L81.41,277.8L81.6,276.8L81.92,276L82.34,274.9L82.37,274.2L82.05,272.1L82.08,270.9L82.18,269.6L82.28,268.5L82.15,267.7L82.28,267.2L82.54,266.6L82.67,265.9L82.83,265.6L82.79,265.3L82.63,264.7L82.5,263.5L82.31,261.9L82.12,260.7L82.44,260.8L83.12,260.9L83.44,261.4L83.63,262.1L84.08,262.1L85.28,262.5L85.7,263L85.95,264.2L85.79,264.8L85.41,265.3L85.79,265.7L86.6,265.9L87.05,265.9L88.41,265.1L88.92,264.9L89.63,264.8L90.28,264.6L92.05,264.2L93.02,264.1L93.57,263.8L93.95,263.8L94.24,264L93.98,264.8L93.89,265.6L94.24,266.9L94.5,267.6L95.08,268L95.5,268.3L95.95,268.7L96.92,268.6L99.02,269.3L99.66,269.7L100.6,270L101.2,270.1L103.4,270.3L104.2,270.5L105.7,270.7L106.9,270.8L107.7,270.7L108.3,270.5L108.7,270.3L108.8,270.1L109.1,269.4L109.5,267.9L109.7,267.5L110.1,267.3L110.7,267.1L111,267.4L111.4,269L113.1,270.5L113.7,271.7L114.1,272.8L114.4,273.1L115,273.4L116.1,273.6L117,273.6L118.9,274.4L120.4,275L121.5,275.4L121.9,275.7L122.3,276.3L122.5,276.7L122.8,277.8L123.2,278.7L123.8,278.8L124.3,278.9L124.8,279.5L125.2,280L125.9,281.3L126.5,282.1L126.7,283L127.3,283.6L128.2,283.8L129,283.8L129.5,283.6L130.6,283.1L131.5,282.6L132.2,282.5L132.6,282.6L132.8,282.9L133,283.6L133,284L133.7,284.3L134.1,284.2L134.3,283.8L134.3,283.6L134.3,281.7L134.3,280.1L134.3,278.6L134.3,276.7L134.3,275.1L134.3,273.8L134.3,272.4L133.9,272.5L133.4,272.8L132.2,272.8L131.8,273.1L131.6,273.5L131.7,273.9L131.7,274.5L131.6,274.8L131,274.9L130.3,274.7L128.9,274.4L127.8,274.2L127,273.4L125.8,272.1L125.1,271.5L123.4,270.2L123.1,269.9L122.6,269.3L122.1,268.2L121.9,267.6L121.7,267L121.4,266.3L121.8,265.1L122.5,262.9L122.9,261.2L123.1,260.1L124,258.8L124,257.8L123.7,256.4L123.8,255.6L123.8,253.6L123.9,252L123.9,251.2L123.7,249.8L123.1,248.3L121.8,246.2L121.8,245.7L122.6,245.2L123.8,244.3L124.3,243.8L125,243.1L125.4,242.7L126,241.7L126.5,240.9L126.6,240L126.3,239L126.9,238.8L129.1,238.5L131.5,238.1L134.1,237.7L136.6,237.3L139.1,236.9L141.3,236.6L142.9,236.4L143.1,237L143.6,238.1L144.2,238.9L144.8,239.6L145.4,240L145.8,240.1L148.3,240.1L149.1,240.5L149.9,241.1L150.1,241.9L150.6,242.4L151.2,242.8L151.4,242.9L151.8,242.8L152.5,242.8L153.1,243L153.4,243.1L153.4,243.8L153.6,244.2L154.4,244.3L155.2,244.3L156.1,244.8L156.9,244.9L158,245.1L158.5,245.6L159.5,246.1L160.8,246.6L161.8,247.1L162.3,247.4L162.4,247.6L162.6,248.1L162.8,248.4L162.9,248.9L163,249.3L163.4,249.4L163.7,249.4L164,249.1L164.4,249.1L164.8,249.3L164.9,249.9L165.3,250.6L165.8,251L166.2,251.5L166.1,252.3L165.8,253.1L166.6,253.8L167.5,254.6L167.8,254.9L167.8,255.9L168,256.3L168.6,257.2L169,257.8L168.9,258.1L167.2,259.9L166.6,260.1L166.1,260.1L165.6,260.5L165.4,260.9L165.5,261.1L165.7,261.7L166.1,262.6L166.5,263.3L166.1,264.1L165.5,265.5L165.1,265.7L165.1,266.7L165.3,267.1L165.6,267.4L165.7,268.2L165.8,269.2L165.7,270L165.3,272L166.1,273.8L166.4,274L167.5,274L167.6,274.2L167.4,274.7L166.9,275.2L166.6,275.5L165.2,276.1L163.2,276.8L162.8,277.4L162.6,278.4L162.8,278.9L163,279.3L162.9,280.1L162.8,280.9L162.8,281.6L162.7,282.2L162.5,282.5L162.1,283.5L161.7,284.4L161.4,284.8L160.9,285.2L160.1,285.6L160.1,285.8L161,286.2L161.2,286.5L161.3,286.7L161.1,286.9L160.9,287.2L161.4,287.5L161.8,287.7L162.3,288.3L162.7,289.2L162.9,289.5L163,289.6L163.1,289.6L163.4,289.5L164,289L164.4,288.8L164.8,289.5L162.9,290.2L161.9,290.5L159,291.5L156.5,292.4L155.9,292.5L154.6,293L153.9,293.2L151.7,294L150.7,294.3L149.9,294.7L148.1,295.3L146.3,295.8L144.4,296.4L142.2,297L141,297.4L140.2,297.8L138.2,298.5L138.1,298.7L138.2,299.3L138.4,300.3L138.9,301.3L139.3,301.9L139.6,303.3ZM343,11.4L338.5,13.07L337.3,13.8L336.2,14.73L335.4,15.86L334.8,17.87L335.2,19.69L335.2,20.66L334,21.31L332.9,21.78L331.7,22.49L331,22.66L330.4,23.23L329.7,23.63L327.2,24.65L324.4,25.45L320.1,26.41L318.4,27.43L316.8,28.14L314.5,28.35L311.3,29.33L309.5,30.11L307.3,31.39L306.8,31.79L306.4,32.72L305.7,33.54L304.4,34.87L303.4,35.55L302.8,35.58L301.4,35.95L299.9,36.03L297.3,35.56L296.7,35.88L296.1,36.41L294.1,37.31L292.1,39.14L290.6,39.62L288.2,40.19L286.6,40.94L285.4,41.25L284,41.41L281.3,41.33L278.8,41.6L276.4,42.11L275.3,43.07L274.1,44.6L272,45.24L271.5,45.78L270.9,46.92L269.6,47.2L268.3,47.4L267.1,46.9L264.8,48.26L263.9,48.49L262.6,48.54L261.6,48.83L261,48.75L260.1,48.21L258.3,47.57L257,47.98L256.9,46.71L254.7,42.77L255.1,39.33L255.1,38.85L254.7,37.31L253.4,35.92L253.5,34.14L253,32.85L252.7,31.55L252.8,31.2L252.8,30.88L252.1,28.87L251.9,28.45L251.9,28.03L252.1,27.71L252.1,27.32L251.7,26.71L251.3,25.52L249.6,24.6L249.9,23.73L250.3,24.04L250.7,24.29L250.8,23.73L250.8,23.31L250.1,20.68L251.2,17.16L250.8,14L252.5,12.72L252.9,12.33L253.2,11.99L253.6,11.26L254.1,11.03L254.3,10.27L254.3,9.875L253.9,9.551L253.7,8.657L253.8,7.534L253.9,7.063L254,6.2L254.6,5.874L254.8,5.614L254.3,5.076L254.3,4.75L255.3,3.838L255.7,3.56L256.4,3.267L256.9,3.283L257.5,3.43L258,3.691L258.5,4.164L259,4.685L259.8,4.897L260.4,4.832L260.9,5.076L261.2,4.946L261.7,4.669L262.3,4.685L263,4.375L264.8,4.229L266.5,4.327L268.3,4.066L270.1,4.082L271.9,4.115L272.3,4.147L272.7,4.31L274.2,5.125L275.3,5.288L277.7,5.5L280.1,5.744L282.3,5.956L284.1,5.76L285.6,5.597L286,5.63L286.5,6.135L287.4,7.372L288.2,8.559L289.8,8.608L290.7,8.169L291.8,7.551L292.4,7.063L293.2,5.158L293.7,3.903L294.8,2.516L295.7,1.341L296.9,-0.21L297.6,-1.06L299,-2.762L300.2,-3.417L302.7,-4.694L305.2,-5.957L306.7,-6.76L308.1,-7.138L310.4,-7.466L313,-7.844L315.7,-8.221L318.5,-8.615L321.7,-9.075L323.8,-9.371L326.6,-9.766L328.9,-10.1L330.9,-10.39L333.1,-10.69L333.5,-9.749L333.8,-8.796L334.2,-7.844L334.6,-6.908L335,-5.957L335.4,-5.022L335.8,-4.072L336.2,-3.138L336.6,-2.189L337,-1.257L337.4,-0.308L337.8,0.623L338.2,1.57L338.6,2.5L339,3.446L339.4,4.392L339.8,5.304L340.4,5.597L340.8,6.477L341.4,7.697L341.9,8.933L342.5,10.17ZM249,23.94L248.7,24.15L248.6,23.78L248.8,22.97L249.1,22.75L249.3,23.34L249.1,23.67ZM250.4,38.73L249.9,39.02L250.2,38.29L250.7,38.14L250.8,38.17ZM250.7,36.27L250.6,36.48L250.4,36.43L249.9,35.93L250.5,35.39L250.8,35.9ZM349.1,48.56L349.6,48.67L350.4,48.35L352.8,48.3L355.7,49.34L355.2,49.59L354.9,49.98L353.6,50.31L352.3,51.09L348.6,51.47L347.6,51.27L346.7,50.5L345,49.52L345.7,48.88L345.8,48.59L346.1,48.32L347,47.84L347.9,47.91ZM171.1,171.7L170.2,171.7L168.6,171.7L167,171.7L165.4,171.7L163.8,171.7L162.2,171.7L160.6,171.7L159,171.7L157.4,171.7L155.8,171.7L154.2,171.7L152.6,171.7L151,171.7L149.5,171.7L147.8,171.7L146.3,171.7L144.7,171.7L143.7,171.7L143.6,171.7L143.4,171.6L142.8,171.7L142.2,172.1L141.5,172.3L140.8,172.2L140.7,172.3L140.4,172.2L139.8,172.2L139.4,172.3L139,172.7L138.7,173.3L138,173.9L137.5,174.5L137.1,175L136.1,175.7L135.5,175.9L135.3,175.8L135.1,175.7L134.8,174.8L134.6,174.7L132.7,175.1L132.4,175.1L132.4,174.9L132.3,172.7L132.2,171.4L132.5,170.6L132.6,169.7L132.7,168.9L133,167.5L132.9,166.7L133.3,163.7L133.5,163.2L133.6,161.8L133.9,161.4L134.2,161.2L134.5,160.3L135.1,158.9L135.6,158.2L135.5,156.7L135.6,155.6L135.7,155.4L136.6,155L137.8,154L138.3,152.8L139,152.1L140.4,151.6L140.5,151.6L144.6,147.6L146.6,145.5L147.4,144.4L147.4,144L147.6,143.5L147.2,143.1L146.8,142.7L146.7,142.4L146.4,142.2L145.8,142.2L145.5,142L145.2,141.5L144.8,141.2L143.6,141.2L142.7,140.7L142.7,140L143.1,138.7L143.7,137.2L143.8,136.8L143.7,136.4L143.5,136.1L143.2,135.8L142.9,135.4L143.1,134.3L143.6,133.3L143.9,132.7L144.3,132.1L144.2,131.6L143.7,131.4L143.9,130.9L144.5,130.1L145.6,129.3L146.5,128.8L147.1,128.8L148.3,129.2L149.4,129.7L150,129.7L150.7,129.5L152.3,128.6L152.6,128.9L153.1,129.4L153.6,130.4L154.5,130.8L155,131.1L155.3,131.1L155.5,131.1L155.8,130.4L156.3,130L157.1,129.5L158.9,129.1L160.1,129L160.7,128.9L161.6,128.6L163,127.9L164.4,128.9L165.9,129L167.4,129L167.9,128.7L168.1,128.5L169.7,127L171.8,124.9L173.2,127.8L173.6,128L173.6,128.3L173.5,128.5L174.4,129.2L175.5,129.6L175.9,130L176,130.4L175.6,132.1L175.6,132.6L176,134.3L176.7,134.7L177.3,136.5L178.5,137.2L178.6,137.4L178.9,138.3L179.3,139.2L179.6,139.4L179.7,139.5L180.1,140.5L179.9,141L180.2,142.7L180.6,144.2L180.7,146L180.8,146.8L180.7,147.3L180.6,148L180.4,148.4L180,148.8L179.6,149.4L179.3,150L179,150.3L179.2,151.3L179.2,151.5L179.1,151.7L178.5,151.8L177.8,152.1L177.4,152.3L176.8,152.8L176.3,153.4L175.7,154.9L174.6,156.1L174.5,156.6L173.5,157.3L173,158.2L172.7,159.3L172.3,160.1L171.5,161.1L171.3,162.8L171.3,166.3L171.1,170.1ZM153.6,403.6L153.8,403.8L154.6,404.2L154.7,405.2L154.6,406.2L154.5,406.9L154.5,407.5L154.8,408.5L155,409.3L155.1,412.5L154.8,412.3L154.3,412.2L154,412.2L153.8,413.7L153.6,415.8L153.7,417.2L151.8,417.2L149.3,417.1L147.6,416.5L145.7,415.2L144.6,413.2L144.1,412L143.4,411.9L143.3,411.7L143.2,410.2L143.2,408.6L143.4,408.2L144.6,406.2L145.4,405L145.9,403.9L147,402.5L148.1,401.6L148.6,401.5L148.8,401.5L150.8,402.7L152.9,403.9L153.4,403.7ZM171.8,124.9L169.7,127L168.1,128.5L167.9,128.7L167.4,129L165.9,129L164.4,128.9L163,127.9L161.6,128.6L160.7,128.9L160.1,129L158.9,129.1L157.1,129.5L156.3,130L155.8,130.4L155.5,131.1L155.3,131.1L155,131.1L154.5,130.8L153.6,130.4L153.1,129.4L152.6,128.9L152.3,128.6L150.7,129.5L150,129.7L149.4,129.7L148.3,129.2L147.1,128.8L146.5,128.8L145.6,129.3L144.5,130.1L143.9,130.9L143.7,131.4L143.5,131L143.3,130.7L142.9,130.2L142.4,130L142,130.1L141.4,130.2L141.2,129.9L141.1,129.3L141,128.7L140.7,128.3L139.9,127.9L137.9,127L136.4,125.2L135.6,124.4L135,123.9L134.2,122.5L133.3,121.6L132.1,121.1L131.4,121.3L130.7,122.4L129.2,123.3L128.6,123.4L127.7,122.8L126.7,122.5L124.8,122.3L124,122.7L122.9,123.5L122.1,123.9L121.5,124L121,123.8L120.5,123.7L120,123.7L118.9,123L118.4,122.5L118.1,122.1L117.5,121.7L116.8,121.5L116.3,121L116.1,120.5L115.7,119.8L115.2,119.2L113.7,118.1L113.2,117.5L112.9,116.9L112.3,116.2L111.6,115.2L111.4,113.9L111.3,112.8L111.2,112.3L110.9,111.8L110.6,111.3L110,110.9L108.8,110.2L107.5,109.3L106.8,108.9L105.7,108.7L104.9,108.2L104.3,107.2L104.1,106.4L103.5,105.7L103.2,105.3L103.1,104.7L103.6,103.1L102.9,102.5L101.9,101.8L101.1,101L100.7,100.2L99.34,99.25L96.44,97.76L94.79,96.82L93.86,95.97L93.08,95.14L92.98,94.8L93.5,93.97L93.6,93.29L93.18,92.54L91.44,91.11L90.05,89.55L89.02,89.07L86.5,88.63L85.76,88.45L85.02,88.16L84.28,87.45L84.02,86.61L84.37,85.29L84.15,84.88L83.73,84.77L83.86,84.49L84.31,83.85L85.08,83.42L87.18,82.76L87.28,82.51L87.34,81.67L87.5,81.26L88.21,80.11L88.31,79.66L88.34,78.66L88.44,78.21L88.66,77.88L89.21,77.29L89.41,76.95L89.5,76.19L89.44,74.71L89.73,74.11L91.05,72.75L91.41,72.15L91.5,71.61L91.5,71.06L91.57,70.5L91.95,69.98L92.31,69.81L93.28,69.65L93.92,69.76L98.53,68.83L99.05,68.96L99.31,69.51L99.27,70.38L99.37,70.81L99.6,71.11L100.3,71.53L100.8,72.23L101.1,72.48L101.9,72.97L105.3,76.96L106.2,77.34L107.2,77.2L109,76.38L109.9,76.16L116.5,76.39L117.2,76.27L117.2,76.3L118.2,78.3L118.7,78.76L125.8,78.78L125.7,78.21L125.8,77.58L126.6,76.76L127,76.35L127.2,76.2L128.3,75.61L129.4,75.21L131.4,74.75L132.2,74.03L132.6,73.36L132.6,72.07L132.9,71.85L133.4,71.55L135.8,70.38L136.2,70.13L140.4,72.84L142.8,74.99L142.9,75.1L143,75.13L143.2,75.07L143.3,74.96L143.5,74.89L143.6,74.86L144.6,74.85L146.5,74.74L147.1,74.48L151,70.65L152,69.41L152.2,69.16L152.8,68.29L153.4,66.79L153.5,66.61L157.7,63.02L157.8,62.73L157.9,62.5L157.3,61.29L157.1,60.67L157.1,59.72L157.2,58.25L157.2,57.31L157.2,57.2L157.1,57.05L157.1,57.01L154.7,54.34L160.7,54.3L160.7,54.08L160.7,53.97L160.7,53.86L160.6,53.54L160.5,53.13L160.5,53L160.5,52.89L160.5,52.67L160.5,52.56L160.5,52.49L160.5,52.44L160.5,52.4L160.6,52.35L164.8,52.41L164.8,53.16L164.3,54.94L164.3,55.99L164.1,57.21L164.1,57.31L164,57.56L163.9,57.72L163.8,57.87L163.7,57.91L163.7,58.01L163.7,58.13L164.6,64.91L164.6,65.08L164.5,65.19L164.3,65.62L164.2,65.76L164.2,65.86L164.3,65.93L166.3,66.66L166.4,66.71L166.5,66.77L167.2,67.64L171,70.84L171.2,71L171.6,72.01L171.6,72.16L171.6,72.4L171.6,72.59L171.5,73.19L171.6,73.46L171.6,73.65L171.7,73.85L171.7,73.92L171.6,73.96L171.6,74.06L171.1,75.23L170.9,76.05L170.8,76.74L170.8,77.14L170.9,77.4L170.9,77.47L171,77.5L171,77.53L171,77.55L172.7,77.55L172.7,77.55L172.7,77.92L172.7,79.75L172.8,81.36L172.9,83.99L172.9,84.66L172.8,85.53L172.6,85.86L172.2,86.35L171.6,86.79L170.1,86.9L168.8,86.88L167.9,86.79L166.7,86.74L165.6,86.83L165.1,87.21L164.5,88.52L163.6,90.43L163.2,91.23L163,91.7L163.2,91.99L163.8,92.4L165.1,92.96L166.6,93.29L167.6,93.43L168.4,93.59L169,93.78L171.1,95.24L171.8,95.91L172.2,96.51L172.3,97.15L172.6,97.79L173.8,99.06L174.5,99.8L176.3,100.8L177,101.8L177.7,102.3L178.4,102.9L178.7,103.7L179.5,106.1L180,107.4L180.6,108.4L180.8,110.1L181.2,110.9L181.7,111.8L182.4,112.6L183.2,113.3L183.4,113.4L181.7,115L179.9,116.9L177.7,119L175.4,121.3L173.6,123.1ZM172.7,77.55L172.7,77.55L171,77.55L171,77.53L171,77.5L170.9,77.47L170.9,77.4L170.8,77.14L170.8,76.74L170.9,76.05L171.1,75.23L171.6,74.06L171.6,73.96L171.7,73.92L171.7,73.85L171.6,73.65L171.6,73.46L171.5,73.19L171.6,72.59L171.6,72.4L171.6,72.16L171.6,72.01L171.2,71L171,70.84L167.2,67.64L166.5,66.77L166.4,66.71L166.3,66.66L164.3,65.93L164.2,65.86L164.2,65.76L164.3,65.62L164.5,65.19L164.6,65.08L164.6,64.91L163.7,58.13L163.7,58.01L163.7,57.91L163.8,57.87L163.9,57.72L164,57.56L164.1,57.31L164.1,57.21L164.3,55.99L164.3,54.94L164.8,53.16L164.8,52.41L160.6,52.35L160.5,52.4L160.5,52.44L160.5,52.49L160.5,52.56L160.5,52.67L160.5,52.89L160.5,53L160.5,53.13L160.6,53.54L160.7,53.86L160.7,53.97L160.7,54.08L160.7,54.3L154.7,54.34L157.1,57.01L157.1,57.05L157.2,57.2L157.2,57.31L157.2,58.25L157.1,59.72L157.1,60.67L157.3,61.29L157.9,62.5L157.8,62.73L157.7,63.02L153.5,66.61L153.4,66.79L152.8,68.29L152.2,69.16L152,69.41L151,70.65L147.1,74.48L146.5,74.74L144.6,74.85L143.6,74.86L143.5,74.89L143.3,74.96L143.2,75.07L143,75.13L142.9,75.1L142.8,74.99L140.4,72.84L136.2,70.13L135.8,70.38L133.4,71.55L132.9,71.85L132.6,72.07L132.6,73.36L132.2,74.03L131.4,74.75L129.4,75.21L128.3,75.61L127.2,76.2L127,76.35L126.6,76.76L125.8,77.58L125.7,78.21L125.8,78.78L118.7,78.76L118.2,78.3L117.2,76.3L117.2,76.27L116.5,76.39L109.9,76.16L109,76.38L107.2,77.2L106.2,77.34L105.3,76.96L101.9,72.97L101.1,72.48L100.8,72.23L100.3,71.53L99.6,71.11L99.37,70.81L99.27,70.38L99.31,69.51L99.05,68.96L98.53,68.83L93.92,69.76L93.28,69.65L92.31,69.81L91.95,69.98L91.57,70.5L91.5,71.06L91.5,71.61L91.41,72.15L91.05,72.75L89.73,74.11L89.44,74.71L89.5,76.19L89.41,76.95L89.21,77.29L88.66,77.88L88.44,78.21L88.34,78.66L88.31,79.66L88.21,80.11L87.5,81.26L87.34,81.67L87.28,82.51L87.18,82.76L85.08,83.42L84.31,83.85L83.86,84.49L83.73,84.77L82.83,84.54L81.7,84.36L79.54,84.16L78.67,83.86L78.28,83.41L78.41,82.26L78.18,82L77.83,81.8L77.6,81.3L77.63,80.7L78.79,79.36L79.02,78.65L79.21,76.16L79.34,75.29L79.25,74.26L78.34,72.39L77.54,71.07L76.25,69.13L75.73,68.48L73.12,65.81L72.83,65.41L72.18,64.27L72.5,63.27L72.89,61.78L72.92,61.1L72.76,60.39L72.09,59.86L71.51,59.8L71.25,59.53L70.73,59.13L70.25,58.83L69.8,58.25L69.47,57.42L69.7,54.5L69.54,54.1L68.89,53.99L68.73,53.78L68.76,53.21L68.38,51.54L67.99,50.15L68.22,49.39L67.64,48.34L66.57,47.89L65.57,48.03L64.51,48.24L63.86,48.18L63.41,47.98L63.09,47.6L62.93,47.16L63.09,46.47L63.67,45.21L64.41,44.19L65.89,43.24L66.31,42.75L66.54,42.19L66.57,41.55L66.47,40.88L66.31,40.27L65.86,39.46L65.44,38.49L65.44,37.85L65.64,37.39L66.06,36.83L66.83,36.2L67.02,36.08L67.54,35.74L67.96,35.5L69.05,34.83L69.31,34.52L69.22,34.14L68.96,33.81L68.51,33.38L68.44,32.85L68.31,31.94L68.09,31.34L67.93,30.93L68.22,30.6L68.67,30.15L69.25,29.88L70.15,29.64L70.51,29.33L70.6,28.72L70.57,28.13L70.89,27.69L71.34,26.77L71.67,26.34L72.25,25.86L72.86,25.25L73.12,24.55L73.18,23.86L72.86,21.81L73.54,20.94L74.41,20.23L75.63,20.28L77.57,20.13L78.86,19.82L79.79,19.84L81.92,20.23L82.08,20.13L82.15,20.05L82.25,19.5L82.25,18.13L82.25,13.96L82.25,9.794L82.25,5.614L82.25,1.423L82.25,-2.778L82.25,-6.99L82.25,-11.2L82.25,-15.43L82.25,-16.62L82.25,-17.81L82.25,-19L82.25,-20.19L84.44,-20.19L86.66,-20.19L88.86,-20.19L91.08,-20.19L91.11,-20.21L91.11,-20.22L91.15,-20.24L91.18,-20.26L91.18,-25.01L91.18,-29.79L91.18,-34.58L91.18,-39.38L94.63,-39.38L98.05,-39.38L101.5,-39.38L104.9,-39.38L108.3,-39.38L111.7,-39.38L115.1,-39.38L118.6,-39.38L122,-39.38L125.4,-39.38L128.8,-39.38L132.3,-39.38L135.7,-39.38L139.1,-39.38L142.5,-39.37L145.9,-39.37L147,-39.37L147.5,-39.45L148.3,-41.24L148.7,-41.38L149.3,-41.28L149.5,-40.86L149.3,-40.24L149,-39.38L150.7,-39.38L153.6,-39.38L156.6,-39.38L159.5,-39.38L162.5,-39.38L165.4,-39.38L168.3,-39.38L171.3,-39.38L174.2,-39.38L177.1,-39.38L180.1,-39.38L183,-39.38L186,-39.38L188.9,-39.38L191.8,-39.38L194.8,-39.38L197.7,-39.4L197.8,-37.19L198.2,-35.43L199.6,-32.92L200.8,-31.57L201.2,-30.84L201.2,-30.49L201.2,-30.17L200.8,-30.54L200.2,-30.79L200.1,-29.62L200.3,-28.79L200.4,-27.22L200.9,-25.55L200.5,-24L200.6,-21.38L201.2,-18.24L201.1,-16.26L202.1,-11.59L203.1,-9.026L203.6,-8.385L204.3,-8.057L205.4,-7.827L207.1,-6.531L208.5,-5.137L209,-4.416L209.6,-3.629L210.1,-3.777L210.4,-3.973L210.8,-3.335L213,-1.96L213.3,-1.322L212.5,-0.701L211.6,0.378L211.4,0.802L211.3,1.064L211.2,1.39L210.9,1.701L210.4,2.141L210.2,2.337L210.1,2.631L209.8,2.826L209.4,2.843L209.2,2.973L208.7,3.169L208.1,3.071L207.4,3.267L207.1,3.495L206.6,3.707L206.1,3.756L205.9,3.821L205.4,4.18L204.8,4.669L204,4.978L203.8,5.076L203.4,5.418L202.9,7.095L202.5,7.534L201.9,7.583L201.1,7.583L200.4,7.73L199.4,7.534L199,7.567L198.8,7.925L198.6,9.372L198.7,9.989L198.3,10.72L197.9,11.63L198,13.17L198.1,14.69L197.3,16.99L197.2,17.51L196.4,19.34L196,20L195,23.39L194.6,24.44L193.7,25.54L193.9,27.31L194.1,29.2L194.3,30.97L194.6,33.64L193.9,36.13L193.9,37.47L193.4,39.46L193,40.38L192.7,40.93L192.4,41.49L191.8,42.73L191.4,44.36L191.1,46.04L191.1,47.01L191,47.46L190.9,47.73L189.8,47.92L188.3,48.11L187.5,48.34L187,48.69L186.3,49.47L185,51.65L184.3,52.97L183.2,54.8L182,56.09L181.7,56.7L181.5,57.87L181,59.71L180.6,61.02L180.7,62.07L180.3,63.89L180.4,64.78L179.9,65.27L179.3,65.74L178.9,65.86L178,65.32L177.4,64.78L177.1,64.64L176.5,64.97L175.9,65.47L175.1,66.66L174.5,67.85L174.8,70.36L174.8,70.92L174.6,71.52L173.6,73.4L173.4,73.98L173.1,75.12L172.7,77.07ZM124.8,445.7L126.3,445.1L127,444.6L127.5,444.3L128.1,443.8L128.3,442.6L128.5,441.6L128.9,441.1L129.4,440.7L129.8,440.2L130.3,438.9L130.7,437.6L130.7,437.1L130.5,436.6L130.2,436L129.9,435.3L129.5,435.2L128.8,434.7L127.7,433.9L126.8,433.1L125.9,432.1L125.6,431.9L124.7,431.2L124.3,430.8L124.1,430.3L123.8,430.1L123.5,430.2L122.5,430.4L120.3,431.3L119,432.1L117.9,433.1L116.7,433.4L115.9,433.8L115.2,434.8L114.6,435.9L114,436.8L113.7,437.2L113.4,437.5L113.1,438.1L112.5,439L111.9,439.7L111.1,440.1L110.1,440.5L109.8,440.8L109.8,441.2L110.1,442.1L110.5,443L111,444.1L111.4,444.8L112.1,445.7L112.5,446.3L112.4,447.2L112.6,447.5L112.8,447.9L112.9,448L113.1,448.2L113.7,448.4L113.8,448.6L114.2,448.9L114.6,449.5L115.3,450.3L116,450.9L117.4,451.1L118.4,451.3L118.8,451.2L119.1,450.7L119.4,450.1L119.5,449.3L119.8,448.9L121.1,446.9L121.8,446.2L122.2,446.1L122.7,446L123.4,445.9L123.9,446L124,446ZM31.57,482L31.42,481.7L31,480.7L30.06,480L29.32,478.4L28.58,477.8L28.29,476.7L27.58,475.8L27.32,474.3L27.71,473.5L28.35,473.1L29,473.8L29.77,473.5L30.9,472.5L31.58,470.9L31.61,468.4L31.45,466.9L30.55,462.8L30.13,461.9L28.09,459.1L25.77,455.2L22.81,449.3L21.39,445.7L19.26,438.5L17.36,434.5L15.03,430.7L14.74,430.4L15.1,430L16.36,429.1L16.9,428.9L17.23,429L17.52,428.8L17.81,428.2L17.87,427.6L18,426.9L18.29,426.4L18.58,425.5L19.1,424.9L20.19,424.5L21.03,425L21.39,425.5L21.55,426.2L21.9,426.5L22.48,426.5L22.9,426.9L23.16,427.8L23.1,428.4L22.77,428.8L22.81,429.3L23.26,429.9L23.42,430.5L23.71,431.3L25.23,431.7L25.97,432L27.22,432.1L28.45,432.4L29.58,433L31.45,433.2L34.03,432.9L36.16,433L37.84,433.6L39.06,433.7L39.83,433.4L40.16,432.8L40.06,432.1L40.41,431.6L41.25,431.4L41.93,430.9L42.45,430L43.64,429.3L45.48,428.7L46.41,428.8L46.41,427.3L46.41,422.8L46.41,418.3L46.41,413.8L46.41,409.4L46.41,404.9L46.41,400.5L46.41,396.1L46.41,391.9L46.83,392.2L49.67,394.4L50.45,395.6L50.8,396.3L52.03,399L52.93,401.4L53.67,403.2L53.73,404.1L53.83,404.9L53.96,405.3L53.86,405.7L53.35,406.7L52.83,407.4L52.19,408.5L52.12,409.9L52.32,411.5L52.7,412.3L53.22,412.5L54.38,412.1L55.12,412.3L56.15,412.6L59.6,412.4L60.02,412.5L61.31,412.6L61.77,412.5L62.15,412.1L62.6,411.1L62.99,410.8L63.73,410.7L64.6,410.4L65.31,409.8L66.44,407.9L68.7,406.2L69.41,405.8L69.86,405.4L70.22,404.8L71.02,402.6L71.64,400.9L71.83,400L72.38,398.7L73.02,397.8L73.63,397.3L73.96,397.2L74.8,397L75.83,396.8L76.92,397L78.12,397.5L79.47,398.4L80.83,399.5L81.47,400.1L82.15,400.3L83.34,400.4L84.15,400.4L85.37,401.5L85.99,401.6L87.41,401.9L89.11,402.2L90.21,402.2L91.37,401.6L92.21,401.6L93.28,401.6L94.47,401.5L95.34,401.2L96.02,400.7L96.6,400.1L97.28,398.5L97.66,397.1L98.27,395.6L99.02,393.5L99.27,392L99.53,391.6L100.6,391.2L101.5,390.9L103.9,390.3L104.4,390L104.8,389.3L105.9,388.2L107.1,387.2L107.8,386.6L109,382L109.2,381.4L110,380.2L110.6,379.6L110.9,379.6L111.4,379.3L112.1,378.7L112.9,378.3L113.8,378.1L114.3,377.7L114.6,377L115,376.6L115.7,376.7L116.1,376.4L116.2,376L116.6,375.6L117.3,375.2L117.6,374.9L117.7,374.4L118.5,373.3L120.1,371.5L121.7,370.6L123.1,370.4L124.5,370L125.8,369.5L126.7,368.6L127.3,367.5L128.4,366.9L130.5,366.7L130.5,366.7L130.6,366.7L133.1,366.2L135.3,366.6L137.9,367.6L140.3,368L142.5,367.7L144.4,367.6L145.8,367.8L146.9,368.2L147.7,368.7L147.7,369.2L147.8,369.5L148.2,370.8L148.9,372.8L149.3,374.7L149.9,377.2L149.9,378.7L150,379.2L150.5,379.9L151.2,381.1L151.4,381.8L151.6,382.3L152.3,383.2L152.8,384.7L153.3,386.6L153.7,387.5L153.8,388L153.9,388.8L153.9,390.6L153.9,392.6L153.9,394.9L154,396.7L153.9,397.7L153.9,400.4L153.4,401.8L153.4,402.9L153.6,403.6L153.4,403.7L152.9,403.9L150.8,402.7L148.8,401.5L148.6,401.5L148.1,401.6L147,402.5L145.9,403.9L145.4,405L144.6,406.2L143.4,408.2L143.2,408.6L143.2,410.2L143.3,411.7L143.4,411.9L144.1,412L144.6,413.2L145.7,415.2L147.6,416.5L149.3,417.1L151.8,417.2L153.7,417.2L153.6,415.8L153.8,413.7L154,412.2L154.3,412.2L154.8,412.3L155.1,412.5L155.9,412.4L157.2,412.7L158.4,412.6L159.4,412.6L161,412.6L162,412.6L161.7,414.9L160.4,418.5L160,420.2L158.9,426.2L157.5,429.2L156.7,430.5L154.3,432.7L153.7,433.2L153.1,433.5L152.1,433.7L148.1,438.2L146.7,440.4L145.3,443.6L144,445.4L142.1,449.2L140.4,452.1L138.8,454.7L135.9,458.4L134.7,459.5L133.8,460L131.5,462.1L128.3,465.6L125.9,468.7L122.3,472.2L120.2,473.7L117,476.8L116.1,477.2L112.5,480L110,481.8L109.5,482L31.57,482ZM239.5,177.9L239.5,177.2L239.4,176.8L238.5,175.7L237,173.6L235.7,172.1L234.5,170.5L234.5,169.2L234.5,165.4L234.5,157.9L234.4,150.3L234.4,142.8L234.4,139L234.4,137.5L234.5,137.2L235.9,135.8L237.8,134L240.2,130.5L241.5,128.6L242.6,127L242.9,126.6L243.9,125.6L245.7,125L246.9,124.9L250.8,124.2L251.3,123.9L251.7,123.6L252,122.8L252.8,121.8L253.8,121L255.6,120.1L257.4,119.3L257.9,119.2L260,118.6L260.6,118.5L261.5,118.3L261.8,118.3L264.9,118.5L267.3,118.6L269.8,118.8L270,118.6L271.7,116.8L274.5,113.8L276.2,111.8L278.9,108.9L281,106.7L283.3,104.4L285.5,102.2L288.2,99.59L289.9,97.95L292.5,95.41L295,92.98L297.2,90.83L298.6,88.78L299.8,86.79L301.3,84.65L302.9,82.05L304.5,79.63L305.8,77.64L305.8,76.61L305.8,74.41L305.8,72.89L305.8,68.7L305.8,66.16L305.8,63.7L305.8,61.18L306.9,61.07L309.8,60.42L312.1,59.42L316.3,58.71L319.5,56.9L320.1,56.02L321,54.91L322.4,54.54L326,55.85L326.6,55.94L326.4,56.74L326.3,57.53L325.5,58.93L325,60.48L325.4,62.84L325.6,66.68L325.5,67.23L325.2,67.77L325.1,68.21L324.7,68.36L324.6,68.61L324.9,68.7L326,68.29L326,67.83L326,67.61L326.9,68.12L327.6,68.32L327.8,68.81L327.7,69.13L326.7,68.99L326.2,68.73L324.6,69.14L323.7,69.6L323.4,70.35L323.2,73.35L322.8,75.29L322.7,77.84L321.5,79.55L321,80.74L319.2,83.14L318.2,85.18L317.9,86.19L316.3,88.99L314,91.14L313.2,93.87L312.4,95.6L311.5,97.15L309.5,99.92L308.5,101.8L307.2,105.2L306.8,107.3L303.2,113.4L299.5,118.3L297.2,122.4L293,127.1L287.4,133.3L279.9,140.5L277.9,142L269.8,146.5L264.6,150.2L261.9,152.8L259,155L256.8,157.1L250.1,164.3L249.3,164.9L248.7,165.6L247.8,166.8L247.2,167.3L245.6,169.3L244.6,170.4L243.5,171.4L243,172.2L242.7,173L242.3,173.5L241.3,175.5L240.4,176.8ZM365,204.8L365,205.6L364.6,205.3L364.4,204.8L363.9,204.4L363.6,204L364.2,203.6ZM243.6,10.79L244.2,10.83L244,10.53L243.9,10.38L244.2,9.957L245.2,10.85L245.1,11.89L245.1,12.13L244.8,11.9L244.6,11.69L244.6,11.45L244.3,11.19L243.3,11.35L242.8,11.08L241.9,10.18L241.7,9.551L242,9.421L242.4,9.112L242.6,8.608L242.4,8.087L242.9,8.169L243.2,8.705L243.2,9.924L243.3,10.18L243.2,10.46ZM364.3,-42L364.5,-41.65L365.3,-40.39L365.9,-39.43L365.6,-38.46L365.3,-37.39L364.9,-36.33L364.6,-35.26L364.3,-34.19L363.9,-33.12L363.6,-32.05L363.3,-31L362.9,-29.94L362.6,-28.87L362.3,-27.81L362,-26.76L361.6,-25.69L361.3,-24.63L361,-23.57L360.6,-22.52L360.3,-21.46L359.9,-20.19L359,-19.86L357.4,-19.31L355.9,-18.77L354.4,-18.22L352.8,-17.66L351.3,-17.11L349.7,-16.57L348.2,-16.02L346.6,-15.48L345.1,-14.94L343.5,-14.39L342,-13.85L340.5,-13.3L338.9,-12.76L337.4,-12.22L335.9,-11.67L334.3,-11.13L333.1,-10.69L333.1,-10.69L330.9,-10.39L328.9,-10.1L326.6,-9.766L323.8,-9.371L321.7,-9.075L318.5,-8.615L315.7,-8.221L313,-7.844L310.4,-7.466L308.1,-7.138L306.7,-6.76L305.2,-5.957L302.7,-4.694L300.2,-3.417L299,-2.762L297.6,-1.06L296.9,-0.21L295.7,1.341L294.8,2.516L293.7,3.903L293.2,5.158L292.4,7.063L291.8,7.551L290.7,8.169L289.8,8.608L288.2,8.559L287.4,7.372L286.5,6.135L286,5.63L285.6,5.597L284.1,5.76L282.3,5.956L280.1,5.744L277.7,5.5L275.3,5.288L274.2,5.125L272.7,4.31L272.3,4.147L271.9,4.115L270.1,4.082L268.3,4.066L266.5,4.327L264.8,4.229L263,4.375L262.3,4.685L261.7,4.669L261.2,4.946L260.9,5.076L260.4,4.832L259.8,4.897L259,4.685L258.5,4.164L258,3.691L257.5,3.43L256.9,3.283L256.4,3.267L255.7,3.56L255.3,3.838L254.3,4.75L254.3,5.076L254.8,5.614L254.6,5.874L254,6.2L253.9,7.063L253.8,7.534L253.7,8.657L253.9,9.551L254.3,9.875L254.3,10.27L254.1,11.03L253.6,11.26L253.2,11.99L252.9,12.33L252.5,12.72L250.8,14L250.7,13.25L250.2,12.15L250.2,11.35L249.9,10.57L249.5,9.973L248.6,9.356L248.5,8.494L247.9,7.648L247.1,6.965L246.6,5.711L246.3,4.033L244.1,1.831L241.4,-0.194L240.6,-1.355L239.2,-3.695L238.6,-5.547L236.8,-7.679L236.7,-8.5L236.4,-9.503L236,-10.62L235.8,-11.51L233.9,-15.38L233.3,-15.99L232.8,-16.87L232.7,-17.53L232.5,-17.89L231.3,-18.54L230.1,-20.17L226.5,-22.77L224.7,-23.02L223.3,-23.95L222.3,-25.18L221.2,-27.27L219.3,-29.54L217.6,-32.77L218.2,-33.96L218.1,-34.78L217.6,-36.18L217.1,-37.25L216.7,-38.27L217,-39.75L217.1,-41.4L217.3,-42L364.3,-42ZM132.4,175.1L132.7,175.1L134.6,174.7L134.8,174.8L135.1,175.7L135.3,175.8L135.5,175.9L136.1,175.7L137.1,175L137.5,174.5L138,173.9L138.7,173.3L139,172.7L139.4,172.3L139.8,172.2L140.4,172.2L140.7,172.3L140.4,172.4L140.4,172.8L140.7,173.5L141.8,174.9L142.5,175.2L143,175.8L143.4,176.7L143.6,177.9L143.4,179.3L143.5,180.3L143.9,181L144,181.9L143.8,183L143.6,183.6L143.3,183.9L143,184L142.6,183.9L142,184L141.5,184.2L141.1,184.2L140.9,184.2L140.5,184L139.8,183.4L138.6,183.7L138.3,183.7L137.8,184L137.4,184.3L137.2,184.3L137,184.3L135.9,183.6L135.5,183.7L135.4,185.5L135.2,186.6L135,187L134.2,187.5L133.5,187.7L133,187.7L131.4,187.9L130.7,187.9L130.3,187.7L129.8,186.7L129,186.2L128.1,186L127.8,186L127.5,186.6L127.3,187.1L126.5,186.7L126.3,186.3L126.2,185.6L125.9,184.6L126.1,184.2L126.4,183.9L127.1,183.4L128.2,182.7L128.4,182.4L128.5,181.8L128.5,180.5L128.4,179.4L128.5,179L129,178.1L129.6,177.2L130.4,176.3L130.8,176.2L131.4,175.9L132,175.3ZM393.5,-22.31L392.9,-22.18L392.7,-22.24L392.8,-23.45L394.1,-24.96L394.9,-26.73L395.5,-25.16L394.5,-24.28L393.9,-22.77ZM402,-39.73L401.8,-38.95L400.6,-37.32L399.3,-34.59L398.7,-33.97L396.6,-32.57L395,-30.87L393.2,-27.94L391.8,-25.05L391.2,-24.12L390.1,-23.92L389.4,-24L388.9,-24.28L389.1,-25.06L389.2,-25.96L388.5,-25.86L387.9,-25.68L386.5,-23.5L385.8,-22.56L385.6,-21.35L385.2,-19.79L384.7,-18.37L384.4,-17.16L384.4,-16.49L384.9,-14.82L384.9,-13.12L385.1,-12.1L385.3,-10.88L384.7,-10.51L384.1,-10.32L381.9,-10.19L379.6,-9.799L377.7,-9.092L376.5,-8.385L375,-6.826L374,-2.844L372.5,-1.159L371.5,-0.815L369.1,-0.668L365.6,-0.21L364.4,0.198L362.4,2.614L362.3,3.381L362.6,3.935L362.8,4.538L362.6,5.109L361.7,6.639L360.7,7.746L358.1,8.445L357.1,8.039L356.3,7.827L354.5,7.795L351.8,8.071L350.8,8.884L349.2,9.469L347.7,10.36L344.9,10.7L343,11.4L343,11.4L342.5,10.17L341.9,8.933L341.4,7.697L340.8,6.477L340.4,5.597L339.8,5.304L339.4,4.392L339,3.446L338.6,2.5L338.2,1.57L337.8,0.623L337.4,-0.308L337,-1.257L336.6,-2.189L336.2,-3.138L335.8,-4.072L335.4,-5.022L335,-5.957L334.6,-6.908L334.2,-7.844L333.8,-8.796L333.5,-9.749L333.1,-10.69L334.3,-11.13L335.9,-11.67L337.4,-12.22L338.9,-12.76L340.5,-13.3L342,-13.85L343.5,-14.39L345.1,-14.94L346.6,-15.48L348.2,-16.02L349.7,-16.57L351.3,-17.11L352.8,-17.66L354.4,-18.22L355.9,-18.77L357.4,-19.31L359,-19.86L359.9,-20.19L360.3,-21.46L360.6,-22.52L361,-23.57L361.3,-24.63L361.6,-25.69L362,-26.76L362.3,-27.81L362.6,-28.87L362.9,-29.94L363.3,-31L363.6,-32.05L363.9,-33.12L364.3,-34.19L364.6,-35.26L364.9,-36.33L365.3,-37.39L365.6,-38.46L365.9,-39.43L365.3,-40.39L364.5,-41.65L364.3,-42L402,-42ZM-42,43.04L-41.34,42.73L-40.96,42.64L-38.76,42.19L-34.41,41.81L-30.38,41.97L-29.57,42.09L-27.83,42.48L-25.18,43.45L-24.02,44.4L-22.25,44.54L-20.96,44.36L-20.51,43.44L-19.22,42.22L-18.28,41.73L-17.28,41.09L-15.7,40.3L-14.41,39.95L-13.22,39.04L-12.32,38.77L-10.7,38.73L-10.7,38.73L-9.285,40.72L-7.769,42.85L-6.608,44.51L-5.737,48.78L-5.64,49.59L-5.576,49.96L-5.511,50.3L-5.415,50.88L-4.737,51.14L-3.447,51.25L-2.512,51.66L-1.964,52.37L-1.931,52.48L-1.641,53.02L-1.544,53.4L-1.641,54.53L-1.835,55.96L-2.157,56.88L-1.964,58.13L-2.028,58.67L-2.157,59.04L-2.738,59.47L-3.512,59.88L-5.35,61.09L-5.898,61.28L-6.672,61.31L-7.35,61.61L-8.156,62.26L-9.865,64.7L-11.35,67.14L-11.87,69.16L-12.41,71.09L-13.7,72.32L-13.9,73.02L-13.96,73.41L-13.99,74.34L-14.15,75.87L-14.35,76.61L-14.57,76.84L-15.96,77.31L-16.77,77.86L-17.25,78.98L-17.41,80.19L-17.7,81.56L-17.86,82.76L-18.09,83.39L-18.54,84.05L-19.25,84.74L-19.86,85.15L-21.48,85.4L-22.31,86.99L-22.99,88.23L-23.02,88.74L-23.7,91.31L-24.86,93.26L-24.96,93.95L-24.96,94.5L-26.41,96.21L-26.8,96.71L-27.18,97.37L-26.8,98.01L-26.41,98.59L-26.35,98.78L-26.99,99.33L-28.15,100.3L-28.86,100.8L-29.02,101.1L-29.12,102.6L-29.31,102.9L-29.77,103.5L-30.44,104L-31.15,104.5L-31.93,104.8L-32.67,104.9L-33.09,104.7L-33.34,104.3L-33.76,102.6L-33.99,102.2L-34.47,101.8L-35.44,100.9L-36.41,99.94L-37.57,99.27L-37.83,99.31L-38.02,99.5L-38.38,100.5L-38.7,100.8L-39.31,100.9L-40.38,100.9L-41.18,100.8L-41.34,100.6L-41.5,100.2L-41.73,99.86L-42,100.1L-42,43.04ZM2.811,-42L3.326,-38.68L3.39,-35.61L3.422,-34.83L3.713,-34.29L4.422,-33.74L7.228,-29.35L6.615,-28.59L7.035,-27.24L7.776,-26.66L10.1,-24.05L10.42,-23.54L10.29,-23.12L8.647,-20.06L8.357,-19.31L8.034,-15.43L7.809,-12.68L7.486,-8.928L7.131,-4.448L6.809,-0.684L6.422,4.278L6.035,8.982L3.68,11.55L-0.48,16.09L-3.866,19.79L-5.576,22.26L-8.898,27.07L-10.38,30.19L-11.54,31.79L-12.12,32.5L-11.61,34.76L-10.7,38.73L-10.7,38.73L-12.32,38.77L-13.22,39.04L-14.41,39.95L-15.7,40.3L-17.28,41.09L-18.28,41.73L-19.22,42.22L-20.51,43.44L-20.96,44.36L-22.25,44.54L-24.02,44.4L-25.18,43.45L-27.83,42.48L-29.57,42.09L-30.38,41.97L-34.41,41.81L-38.76,42.19L-40.96,42.64L-41.34,42.73L-42,43.04L-42,-42ZM76.86,323.3L78.79,322.9L80.6,322.5L82.73,322.2L84.44,321.9L84.86,321.8L88.99,322.1L90.76,322.4L91.37,322.6L92.18,323.2L93.69,324.7L93.31,324.7L90.57,325L89.5,325.4L87.15,327.2L86.66,326.9L86.12,326.6L85.63,326.5L84.6,326.9L83.57,327.4L82.44,328.1L81.5,328.8L81.18,329.2L79.73,330.7L79.25,330.9L78.83,331L78.67,330.9L78.47,330.3L77.57,328.9L76.12,326.9L75.7,326.7L75.41,326.7L74.34,326.8L71.25,327.3L68.6,327.8L64.6,328.5L60.28,329.2L57.6,329.6L55.31,329.7L55.31,331.6L55.31,335.4L55.31,339.3L55.31,343.2L55.31,347.1L55.35,351L55.35,354.9L55.35,358.8L55.35,362.7L55.35,364.4L55.28,364.8L53.96,364.8L50.93,364.8L48.41,364.8L46.38,364.8L46.38,367.2L46.38,369.9L46.38,372.7L46.38,375.5L46.38,378.3L46.38,381.1L46.38,383.9L46.38,386.7L46.38,389.6L46.41,391.7L46.41,391.9L46.41,396.1L46.41,400.5L46.41,404.9L46.41,409.4L46.41,413.8L46.41,418.3L46.41,422.8L46.41,427.3L46.41,428.8L45.48,428.7L43.64,429.3L42.45,430L41.93,430.9L41.25,431.4L40.41,431.6L40.06,432.1L40.16,432.8L39.83,433.4L39.06,433.7L37.84,433.6L36.16,433L34.03,432.9L31.45,433.2L29.58,433L28.45,432.4L27.22,432.1L25.97,432L25.23,431.7L23.71,431.3L23.42,430.5L23.26,429.9L22.81,429.3L22.77,428.8L23.1,428.4L23.16,427.8L22.9,426.9L22.48,426.5L21.9,426.5L21.55,426.2L21.39,425.5L21.03,425L20.19,424.5L19.1,424.9L18.58,425.5L18.29,426.4L18,426.9L17.87,427.6L17.81,428.2L17.52,428.8L17.23,429L16.9,428.9L16.36,429.1L15.1,430L14.74,430.4L13.74,429.6L10.81,426.5L9.776,425.7L8.228,423.8L4.841,418L4.358,416.8L3.713,414L2.971,411.9L2.874,410.7L3.229,410.1L3.035,409.1L2.648,408.3L1.487,407.2L1.165,403.6L0.391,401.3L0.552,399.4L0.197,397.7L0.165,396.6L0.326,394.5L-0.287,392L-1.544,389.7L-2.673,386.3L-2.834,384.8L-2.738,380.8L-2.931,379.2L-2.931,377.3L-3.383,375.3L-3.576,374.2L-3.254,373.3L-3.06,373.6L-2.738,373.8L-2.512,372.6L-2.48,371.6L-3.028,369.2L-4.286,366.7L-7.414,362.6L-8.188,361L-8.607,359.7L-12.09,354.4L-13.57,350.6L-14.64,347.4L-15.77,345.9L-20.99,335.4L-22.15,333.8L-24.25,331.8L-24.73,331.1L-25.54,329.2L-27.09,326.7L-27.48,324.3L-27.6,321.7L-27.41,319.6L-25.96,319.4L-24.96,318.9L-24.06,318.8L-23.18,319.3L-22.25,319.3L-21.86,319.2L-20.19,319.3L-19.22,318.8L-18.06,318.3L-17.41,317.9L-16.48,317.4L-15.22,317L-14.54,317L-13.67,317.2L-12.51,317.3L-11.87,317.7L-11.09,318.6L-9.93,319.5L-9.027,320L-8.027,320.7L-7.737,320.9L-7.285,321.1L-7.027,321.1L-5.157,321L-3.447,320.9L-1.641,320.9L1.778,320.9L5.228,320.9L8.647,320.9L12.07,320.9L15.48,320.9L18.93,320.9L22.35,321L25.77,321L27.19,321L29.64,321L32.22,321L32.48,321.1L32.77,321.3L33.03,321.4L33.93,322.6L35.09,323.9L36.06,324.5L37.22,324.8L38.29,325L39.32,324.9L41,325L43.35,325.4L45.8,325.6L48.32,325.4L50.09,325.6L51.12,326.2L52.19,326.6L53.25,326.9L54.7,326.7L56.54,326.3L58.12,326.3L58.83,326.7L59.28,326.7L61.96,326.2L64.15,325.8L67.41,325.1L70.09,324.6L74.05,323.8ZM147.7,368.7L149,367.7L150.2,366.3L151.7,364.7L153.1,363.2L154.2,361.9L155.8,360.1L157.4,358.4L157.8,358.2L157.9,358L157.3,356.5L158.4,354.7L158.4,353.6L158.4,352.4L158.5,351.9L158.8,351.5L160.1,350.5L161.1,349.1L161.9,347.7L163,345.5L163.1,345L163.1,344.4L162.8,343.7L162.1,342.5L161.5,341.4L161,339.8L161.5,338.4L161.7,337.6L161.7,337.1L161.5,336.7L160.9,336.4L160.5,336.1L160.4,335.6L160.4,334.9L160.6,334.5L161.7,333.9L162,333.6L162.1,333.2L162.2,332.7L162.5,331.3L163,330.1L163,329.6L162.8,329.2L162.7,328.5L162.6,327.5L162.6,324.5L162.9,321.4L162.8,319.6L162,317.6L161.9,316.2L162.5,315.2L162.6,314.6L162.2,314.5L161.3,314.5L160.7,314.3L159.8,313.4L158.1,312.8L156.3,312.1L153.6,311.9L151.3,309.9L149.5,309.6L148.9,309.4L147.2,308.2L144.6,308.1L141.8,307.9L140.1,307.9L139.8,307.7L139.7,306.1L139.7,304.6L139.6,303.3L139.3,301.9L138.9,301.3L138.4,300.3L138.2,299.3L138.1,298.7L138.2,298.5L140.2,297.8L141,297.4L142.2,297L144.4,296.4L146.3,295.8L148.1,295.3L149.9,294.7L150.7,294.3L151.7,294L153.9,293.2L154.6,293L155.9,292.5L156.5,292.4L159,291.5L161.9,290.5L162.9,290.2L164.8,289.5L165.2,289.8L166.5,292.1L167.6,293.4L168.7,294.6L168.9,294.6L169.3,294.3L169.9,294.2L171.7,293.9L172.5,293.9L172.9,293.5L173.9,293.3L175,293.2L175.4,293.3L176.5,294.9L176.7,296.1L176.9,297.9L177,298.8L177,299.9L176.8,301.4L175.9,303.1L175.7,303.9L175.2,305.2L174.5,305.8L174.2,306.4L174.2,306.9L174.6,307.3L175.4,308.2L175.6,308.7L175.5,309.2L175.5,309.8L175.7,310.2L175.9,310.5L176.7,310.9L177.5,312L178.8,313.2L180.4,315L181.1,315.6L181.7,315.7L182,316.3L181.8,317L181.4,317.4L181.5,318L181.8,318.3L182.1,318.5L182.8,318.5L183.4,318.4L183.5,318.2L183.5,315.5L183,313.9L182.5,313.3L182.5,313.2L182.6,312.7L183.1,311.4L183.6,310.2L183.8,309.7L184.2,309.4L186.3,309.1L187.3,308.8L187.7,308.5L188,307.6L188.3,305L188.4,302.5L188.2,301.1L188.5,299L189,297.6L188.7,297.4L188.5,295.6L187.1,293.7L185.3,291.3L184.3,289.9L183.2,288.4L181.1,286.1L180.1,285.3L179.6,284.9L177.9,284.7L177.5,284.2L177,283.5L176.9,282.2L176.9,281.2L176.7,279.5L176.3,277.1L176.2,276.4L175.7,274.6L175.2,272.9L175.2,272.5L175.4,272.1L176.1,270.8L176.7,270L177,269.5L177.4,268.2L177.5,267.5L177.9,267.2L179.4,267.1L180.6,267.1L182.6,267.1L184.7,267.2L185,267.2L185.5,267.4L186,267.4L186.6,267.2L187.3,266.7L188,266L189.1,266L190.6,266.8L191.5,267.4L191.6,268L192.6,268.3L194.5,268.4L196,268.1L196.8,267.4L197.7,267.1L198.7,267L199.4,267.3L199.9,267.8L200.8,268.1L202.2,268.3L203.7,268L205.4,267.2L206.3,266.3L206.5,265.3L206.8,264.7L207.1,264.6L208,264.4L209.4,264.4L210.6,264.7L212.3,265.6L213.3,265L215,264L216.7,263.4L218.3,263.4L219.7,263L220.7,262.2L221.8,261.7L223,261.4L224.1,261.1L225.6,260.2L227.2,259L228.9,257.8L229.9,257L230.4,257.9L231.2,258.8L230.7,259.3L230.1,259.7L231.1,260.3L230.4,261.2L230.3,261.8L230.5,262.1L230.6,262.5L230.2,263.5L229.5,264.3L229.3,264.9L229.9,266L229.6,267.9L230.2,269.6L230.3,270.4L230.5,271L230.2,272.1L230.3,273.9L230.4,274.6L230.1,275.5L230.7,275.8L231,276.8L230.9,278L230.7,278.6L229.8,279.3L229.6,279.6L229.7,280L230.8,280L230.9,280.7L230.8,281.2L230.9,282.2L230.7,282.9L231,283.6L230.6,284.4L230.8,285.1L230.8,285.9L231.1,288L231.1,290.5L231.2,290.9L231.6,291.2L232.2,291.4L232.2,292.1L231.5,293L231.4,293.6L231.5,294.4L232.2,293.3L232.7,293.3L233.1,293.7L233,294.3L233.2,294.7L233.1,295.3L233.3,296L233.2,296.7L232.7,297.2L232,298L231.9,298.8L232,299.2L231.5,299.4L231.3,299.7L231.6,300.4L231.6,301.1L230.8,303L228.6,305.7L227.6,306.7L226.7,307.7L226.7,308.2L226.6,308.6L225.6,310L224.5,310.3L223.9,310.7L224.3,312L223.6,312.3L222.4,313.4L219,315.3L218.4,315.8L217.5,317L216.4,317.3L215.8,317.7L214.6,317.8L214.2,317.7L213.8,317.8L213.5,318L211.3,318.9L209.1,319.6L208.6,319.9L208.3,320.3L206.4,321L203.4,322.6L201.1,324.2L199.3,325.8L198.9,326.1L198.3,326.6L198.2,327.4L198,327.9L196.7,329.6L194.7,331.6L194.4,332.1L193.6,333.2L193.5,333.9L192.8,334.2L192.3,333.5L192,334.8L191.5,334.9L191,334.6L189.7,335.3L188.6,336.1L186.8,337.7L184.2,340.8L180.5,343.8L180,343.9L179.6,343.9L178.5,342.9L177.8,342.8L178.4,343.4L178.8,343.9L178.7,344.9L178.7,346.5L178.3,349.5L178.3,350.1L178.8,351L179.8,352L180.8,353.3L182,357.1L182.1,359L183.4,361.4L183.4,362.5L183.9,365.2L183.9,367.3L183.8,368.7L184.4,369.2L184.6,368.7L184.5,367.9L184.7,366.5L185,365.9L185.4,366L185.5,366.7L185.7,367.2L185.8,367.7L185.8,368.5L185.4,371.2L185.5,372.3L186.1,374.2L185.4,376.3L184.3,381.4L184.3,382.3L184.5,382.7L185.1,382.8L185.3,382.2L185.6,382.2L185.8,382.6L185.4,384.9L184.9,386L183.2,388.5L182.4,389.6L180.9,390.7L177.5,392.4L170.5,394.8L167.8,396L166.2,396.7L162.7,399L161.2,400.5L160.6,402.3L159.9,403.1L159.4,404.1L159.9,405L160.4,405.6L161,406.1L161.3,406.5L161.7,406.7L162.1,405.4L162.3,404.9L162.6,404.9L162.5,406.6L162,412.4L162,412.6L161,412.6L159.4,412.6L158.4,412.6L157.2,412.7L155.9,412.4L155.1,412.5L155,409.3L154.8,408.5L154.5,407.5L154.5,406.9L154.6,406.2L154.7,405.2L154.6,404.2L153.8,403.8L153.6,403.6L153.4,402.9L153.4,401.8L153.9,400.4L153.9,397.7L154,396.7L153.9,394.9L153.9,392.6L153.9,390.6L153.9,388.8L153.8,388L153.7,387.5L153.3,386.6L152.8,384.7L152.3,383.2L151.6,382.3L151.4,381.8L151.2,381.1L150.5,379.9L150,379.2L149.9,378.7L149.9,377.2L149.3,374.7L148.9,372.8L148.2,370.8L147.8,369.5L147.7,369.2ZM177.7,271.1L177.6,270.9L177.3,270.7L177,270.8L176.8,271.2L177.2,271.6L177.6,271.6ZM178.5,272L178.7,271.8L178.8,271.5L178.8,271.3L178.6,271.1L178.4,271L178.1,271.1L178,271.4L177.9,271.9L178.1,272.1ZM383.9,350.3L382.7,350.5L381.5,350.4L381,349.9L380.9,349.7L381.3,349.5L381.3,348.9L381.5,347.8L381.8,347.4L382.4,347L382.7,346.2L383.2,345.6L383.9,345.5L384.6,346.6L385.2,347.7L385.1,348.7L384.5,349.2L384.4,349.8ZM178.5,272L178.1,272.1L177.9,271.9L178,271.4L178.1,271.1L178.4,271L178.6,271.1L178.8,271.3L178.8,271.5L178.7,271.8ZM177.7,271.1L177.6,271.6L177.2,271.6L176.8,271.2L177,270.8L177.3,270.7L177.6,270.9ZM164.8,289.5L164.4,288.8L164,289L163.4,289.5L163.1,289.6L163,289.6L162.9,289.5L162.7,289.2L162.3,288.3L161.8,287.7L161.4,287.5L160.9,287.2L161.1,286.9L161.3,286.7L161.2,286.5L161,286.2L160.1,285.8L160.1,285.6L160.9,285.2L161.4,284.8L161.7,284.4L162.1,283.5L162.5,282.5L162.7,282.2L162.8,281.6L162.8,280.9L162.9,280.1L163,279.3L162.8,278.9L162.6,278.4L162.8,277.4L163.2,276.8L165.2,276.1L166.6,275.5L166.9,275.2L167.4,274.7L167.6,274.2L167.5,274L166.4,274L166.1,273.8L165.3,272L165.7,270L165.8,269.2L165.7,268.2L165.6,267.4L165.3,267.1L165.1,266.7L165.1,265.7L165.5,265.5L166.1,264.1L166.5,263.3L166.1,262.6L165.7,261.7L165.5,261.1L165.4,260.9L165.6,260.5L166.1,260.1L166.6,260.1L167.2,259.9L168.9,258.1L169,257.8L168.6,257.2L168,256.3L167.8,255.9L167.8,254.9L167.5,254.6L166.6,253.8L165.8,253.1L166.1,252.3L166.2,251.5L165.8,251L165.3,250.6L164.9,249.9L164.8,249.3L164.4,249.1L164,249.1L163.7,249.4L163.4,249.4L163,249.3L162.9,248.9L162.8,248.4L162.6,248.1L162.4,247.6L162.3,247.4L162.5,247.3L162.8,247.2L164.2,248.2L165.1,248.2L166,248.4L166.8,249.2L167.2,249.3L167.8,249.2L169.3,249.1L169.9,249.2L170.7,249.7L171,249.7L171.5,249.8L171.6,249.6L171.6,249.4L171.6,248.8L171.6,248.5L172,248.2L172.8,248.5L174.9,250.3L174.9,250.5L176.3,252.3L176.7,253L176.7,253.4L177.1,254.9L177.2,255.7L177.1,256.2L177.1,256.6L177.3,257.3L177.2,257.5L177.7,258.4L177.9,259.2L178,260L177.8,260.7L177.4,261.8L177.4,262.2L177.5,262.6L177.7,263L178.2,263.5L178.5,264L178.7,264.7L178.9,265L179.2,265L179.6,265.1L180,265.4L180.4,266.1L180.5,266.8L180.6,267.1L179.4,267.1L177.9,267.2L177.5,267.5L177.4,268.2L177,269.5L176.7,270L176.1,270.8L175.4,272.1L175.2,272.5L175.2,272.9L175.7,274.6L176.2,276.4L176.3,277.1L176.7,279.5L176.9,281.2L176.9,282.2L177,283.5L177.5,284.2L177.9,284.7L179.6,284.9L180.1,285.3L181.1,286.1L183.2,288.4L184.3,289.9L185.3,291.3L187.1,293.7L188.5,295.6L188.7,297.4L189,297.6L188.5,299L188.2,301.1L188.4,302.5L188.3,305L188,307.6L187.7,308.5L187.3,308.8L186.3,309.1L184.2,309.4L183.8,309.7L183.6,310.2L183.1,311.4L182.6,312.7L182.5,313.2L182.5,313.3L183,313.9L183.5,315.5L183.5,318.2L183.4,318.4L182.8,318.5L182.1,318.5L181.8,318.3L181.5,318L181.4,317.4L181.8,317L182,316.3L181.7,315.7L181.1,315.6L180.4,315L178.8,313.2L177.5,312L176.7,310.9L175.9,310.5L175.7,310.2L175.5,309.8L175.5,309.2L175.6,308.7L175.4,308.2L174.6,307.3L174.2,306.9L174.2,306.4L174.5,305.8L175.2,305.2L175.7,303.9L175.9,303.1L176.8,301.4L177,299.9L177,298.8L176.9,297.9L176.7,296.1L176.5,294.9L175.4,293.3L175,293.2L173.9,293.3L172.9,293.5L172.5,293.9L171.7,293.9L169.9,294.2L169.3,294.3L168.9,294.6L168.7,294.6L167.6,293.4L166.5,292.1L165.2,289.8ZM311.2,275L311.6,275.9L312.1,276.8L313.6,279.1L314.2,279.9L314.8,280.8L315,282.7L316,285.5L316.9,289.8L317.2,294.1L317.5,296.2L318.1,298.1L319.3,300L319.6,302.2L319,304.5L317.9,306.6L317.7,307L317.2,307.6L317,307.6L316.2,307L315.5,306.1L314.7,304L314.4,302.9L314,302.7L313,302.8L312.3,303.5L312.2,303.9L312.4,305.1L312.6,306.2L312.7,307.3L312.7,308.7L313,309.1L313.4,309.4L313.8,310.3L313.9,312.5L313.7,313.6L312.9,314.5L313,315L313.3,315.5L313,315.9L312.1,316.3L311.7,316.6L311.2,317.6L310.4,319.5L310.3,320.5L310.8,323.6L310.7,325.7L309.6,329.9L309,331.8L308.2,334.1L306.9,337.3L305.7,341.2L304.6,345.2L303.7,347.6L302.8,350L301.6,354.2L300.6,358.5L299,363.3L296.8,368.6L296.6,369.3L296.1,372.1L295.7,374.4L295.1,376.8L293.9,380.7L293.7,381.9L293.5,383.1L292.3,385.5L291.8,386.4L291.5,387.4L291.3,388.6L290.9,389.8L290,392L288.8,393.9L287.9,394.6L286,395.6L285.1,395.8L283,395.8L280.9,396.4L278.8,397.5L276.8,398.8L275.9,399.4L275.1,399.7L272.4,399.8L271.6,399.5L268.9,397.4L267.8,397.1L265.8,396.8L265.2,396.6L264.7,396.4L263.9,395.3L262.3,394.4L261.9,394.1L261.7,393.5L261.5,392.8L261.1,392L260.8,390.6L260.2,389.6L258.8,387.8L258.6,387.2L258.5,385.4L258.6,384.1L258.4,381.8L258.6,380.7L259.1,379.7L258.9,378.6L258.3,377.5L258.1,376.4L257.7,375.3L256.2,373.4L255.8,372.5L255.6,371.5L255,368.5L254.9,367.5L255,365.3L255.2,364.2L255.6,363.4L255.7,362.8L256,362.3L256.3,361.9L256.5,361.4L257.1,358.6L257.9,358L258.9,357.6L259.8,356.9L260.3,355.9L260.8,353.9L262.1,351.9L262.6,350.8L263.7,349.3L264.7,347L265,346L265.2,344.9L265.5,342.5L265.6,341.3L265.6,340.2L265,339L263.7,336.8L263.7,336.4L263.8,334.8L263.7,333.7L263.2,332.5L262.6,331.4L262,329.4L261.6,326L261.7,324.8L261.5,323.8L261.1,322.7L261.4,321L265.4,314.5L265.5,313.7L265.3,311.8L265.4,310.6L265.6,310.2L265.9,310L266.5,309.8L269.7,309.6L270.1,309.4L270.9,308.8L272,307.8L272.5,307.5L273,307.6L273.2,308L273.6,308.3L274.9,307.8L275.4,307.8L275.9,307.9L276.1,307.4L276.3,306.9L276.5,306.4L276.8,306.2L278.5,306.1L279.5,305.9L280.9,305.5L281.2,305.6L282.3,307L282.7,307.2L283.1,307.2L283.5,307L282.6,306.2L282.4,305.8L282.5,305.3L282.9,304.2L283.8,303.4L285.6,302.2L287.4,300.8L287.9,300.7L288.4,300.9L288.8,302.6L288.7,302.8L289,302.9L289.3,302.7L289.7,302L289.7,301.4L289.4,300.9L289.3,300.4L289.3,300L290.2,299L291,298.1L291.3,297L291.6,296.5L292.4,295.9L292.6,296L292.8,296.5L292.9,297L292.7,297.5L292.4,297.9L292.3,298.6L292.8,298.7L293.2,298.6L293.8,297.4L294.5,296.3L294.9,295.7L295.4,295.3L296.3,295.4L297.1,295.6L295.7,294.4L295.4,292.8L297,290L297,289.4L297.3,289.2L297.4,289L296.5,288.1L296.4,287.6L296.5,286.9L296.9,286.3L297.3,285.8L297.8,285.7L298.2,285.9L299.1,286.7L299.7,286.8L300.5,286.1L301,285.1L301.9,284.5L303,284.1L304.6,282.6L305.6,279.6L305.7,278.7L305.4,277.6L305.1,276.6L304.5,275.3L304.6,275L305.5,275.2L305.8,275L306.7,273.9L308.2,271.7L308.7,271.7L309.2,272.1L309.3,272.7L309.7,273.2L310.7,274.2ZM300.5,283.5L300.5,283.9L299.3,283.7L299.1,282.6L299.7,282.5L299.8,282.1L300.2,282L300.6,283ZM314.8,316.4L313.7,318.1L314,316.6L315.2,314.6L315.6,314.4ZM91.18,-42L91.18,-41.55L91.18,-39.38L91.18,-34.58L91.18,-29.79L91.18,-25.01L91.18,-20.26L91.15,-20.24L91.11,-20.22L91.11,-20.21L91.08,-20.19L88.86,-20.19L86.66,-20.19L84.44,-20.19L82.25,-20.19L82.25,-19L82.25,-17.81L82.25,-16.62L82.25,-15.43L77.96,-17.69L73.63,-19.94L69.34,-22.19L65.06,-24.45L60.77,-26.73L56.48,-28.99L52.19,-31.25L47.9,-33.54L43.61,-35.81L39.32,-38.09L35.03,-40.37L31.99,-42L91.18,-42ZM124.8,445.7L124,446L123.9,446L123.4,445.9L122.7,446L122.2,446.1L121.8,446.2L121.1,446.9L119.8,448.9L119.5,449.3L119.4,450.1L119.1,450.7L118.8,451.2L118.4,451.3L117.4,451.1L116,450.9L115.3,450.3L114.6,449.5L114.2,448.9L113.8,448.6L113.7,448.4L113.1,448.2L112.9,448L112.8,447.9L112.6,447.5L112.4,447.2L112.5,446.3L112.1,445.7L111.4,444.8L111,444.1L110.5,443L110.1,442.1L109.8,441.2L109.8,440.8L110.1,440.5L111.1,440.1L111.9,439.7L112.5,439L113.1,438.1L113.4,437.5L113.7,437.2L114,436.8L114.6,435.9L115.2,434.8L115.9,433.8L116.7,433.4L117.9,433.1L119,432.1L120.3,431.3L122.5,430.4L123.5,430.2L123.8,430.1L124.1,430.3L124.3,430.8L124.7,431.2L125.6,431.9L125.9,432.1L126.8,433.1L127.7,433.9L128.8,434.7L129.5,435.2L129.9,435.3L130.2,436L130.5,436.6L130.7,437.1L130.7,437.6L130.3,438.9L129.8,440.2L129.4,440.7L128.9,441.1L128.5,441.6L128.3,442.6L128.1,443.8L127.5,444.3L127,444.6L126.3,445.1ZM234.7,182L234.3,182.1L234.5,181.6L235.5,180.9L235.9,181.1L236,181.3L235.9,181.4L235.8,181.5ZM171.1,171.7L171.1,170.1L171.3,166.3L171.3,162.8L171.5,161.1L172.3,160.1L172.7,159.3L173,158.2L173.5,157.3L174.5,156.6L174.6,156.1L175.7,154.9L176.3,153.4L176.8,152.8L177.4,152.3L177.8,152.1L178.5,151.8L179.1,151.7L179.2,151.5L179.2,151.3L179,150.3L179.3,150L179.6,149.4L180,148.8L180.4,148.4L180.6,148L180.7,147.3L180.8,146.8L180.7,146L180.6,144.2L180.2,142.7L179.9,141L180.1,140.5L179.7,139.5L179.6,139.4L179.3,139.2L178.9,138.3L178.6,137.4L178.5,137.2L177.3,136.5L176.7,134.7L176,134.3L175.6,132.6L175.6,132.1L176,130.4L175.9,130L175.5,129.6L174.4,129.2L173.5,128.5L173.6,128.3L173.6,128L173.2,127.8L171.8,124.9L173.6,123.1L175.4,121.3L177.7,119L179.9,116.9L181.7,115L183.4,113.4L183.3,113.7L183.3,114.1L183.5,114.4L183.9,114.6L184.4,114.4L184.7,114.1L185.2,114.1L187.6,114.8L188,115.3L188,116L188.1,116.4L187.9,116.9L187.7,118.3L187.8,119.6L188.5,120.5L189.2,121.3L189.7,122.3L190.1,122.6L190.6,122.8L192.4,122.8L194.9,122.9L197.3,123L197.5,123L198,123.1L200.3,124.6L202.3,125.8L204,127L205.7,128L207.3,129.1L208.6,130L209.9,130.3L211.9,130.4L213.3,130.4L214.6,130.8L216.5,131.1L217.9,131.3L218.8,131.5L221.2,131.7L221.6,131.6L222.7,130.6L223.9,129L224.3,128.2L225.9,127.3L228.6,126.1L230.5,125.2L232.6,124.4L233.6,125.1L234.9,126.3L235.5,126.9L236,127.2L236.7,127.3L237.6,127.3L238.1,127.3L239,127.2L241.3,127L242.6,127L241.5,128.6L240.2,130.5L237.8,134L235.9,135.8L234.5,137.2L234.4,137.5L234.4,139L234.4,142.8L234.4,150.3L234.5,157.9L234.5,165.4L234.5,169.2L234.5,170.5L235.7,172.1L237,173.6L238.5,175.7L239.4,176.8L239.5,177.2L239.5,177.9L238.2,179.4L237.1,180.1L235.7,180.5L235.2,180.4L234.7,180.2L234.4,180.6L234.3,181.1L234,181L233.7,180.8L233.9,181.9L234,182.4L233.8,183L233.1,183.6L233,184.1L231.5,185.5L229.4,185.6L228.2,186.3L227.7,186.8L227.3,188L227.5,189.8L226.9,191.1L226.8,191.8L225.7,192.7L225.2,193.6L224.8,194.4L224.5,194.8L224.1,196.6L223.6,197.8L223.5,198.2L223.3,198.5L223,199.2L222.7,199.6L222.5,199.9L221.2,202.9L220.2,204.2L219.4,204L218.8,204.5L218.8,204.8L218.5,204.7L217.8,204.2L216.4,203.2L215.1,202.2L213.7,201.2L212.3,200.2L211,199.2L209.6,198.2L208.2,197.2L206.8,196.2L206,195.6L205.7,195.3L205.4,194.6L205.3,194.4L204.9,194.2L204.4,194.2L204.3,194.1L204.3,193.7L204.5,193.2L205,192.3L205,191.8L204.9,191.2L204.8,190.2L204.6,190L203.7,189.5L201.8,188.4L199.9,187.4L198,186.3L196.1,185.2L194.2,184.1L192.3,183.1L190.4,182L188.4,181L186.5,179.9L184.6,178.8L182.7,177.8L180.8,176.7L178.9,175.6L177,174.5L175.1,173.5L173.2,172.4L172.5,172L171.8,171.7ZM-42,153.7L-41.41,153.7L-40.18,153.7L-37.76,153.7L-35.31,153.7L-32.89,153.7L-31.05,153.7L-31.05,152.7L-31.05,151L-31.09,149L-31.09,147.1L-31.09,145.3L-31.12,143.3L-31.02,142.7L-30.89,142.4L-30.93,142.1L-29.05,142.1L-25.64,142.2L-24.15,142.2L-23.73,142.2L-21.86,142.1L-20.35,142.3L-19.7,142.4L-19.12,142.5L-17.32,142.6L-14.96,142.5L-14.15,142.5L-13.7,142.8L-13.51,143.3L-13.51,143.3L-13.54,143.9L-14.25,145.5L-14.61,146.7L-14.67,147.9L-14.48,148.9L-14.15,149.7L-13.93,150.5L-14.09,151L-14.45,151.2L-14.19,151.5L-13.67,151.6L-12.8,151.3L-11.45,150.9L-9.672,150.3L-8.511,150L-6.576,150.2L-5.544,150.4L-5.028,150.9L-4.447,152.7L-4.189,152.9L-3.705,153.7L-3.318,154.6L-3.254,155.1L-3.286,155.4L-3.673,155.9L-4.124,156.7L-4.286,157.1L-4.64,157.4L-5.092,157.8L-6.382,157.9L-6.576,158.1L-6.963,158.9L-7.64,159.5L-7.93,160.2L-8.22,161L-8.156,162L-8.285,163.5L-8.446,164.5L-8.091,164.9L-6.543,165.1L-6.253,165.3L-5.834,165.9L-5.318,166.5L-3.931,166.9L-3.383,167.3L-2.931,167.8L-2.867,168.2L-3.189,169.9L-3.512,171.4L-3.383,172.6L-3.254,173.7L-3.092,175.4L-3.157,176.4L-3.576,177L-3.576,177.5L-3.383,178L-3.737,179.6L-3.963,179.9L-4.608,180.2L-4.931,180.6L-5.028,181.3L-5.382,182.2L-5.705,182.6L-5.705,183L-5.382,183.3L-5.382,183.8L-6.027,184.4L-6.382,184.8L-7.221,185L-8.188,184.8L-8.414,184.5L-8.188,184L-8.253,183.6L-8.607,183.2L-9.123,182.1L-9.575,181.9L-9.801,182.3L-10.61,183.1L-11.96,184.2L-12.93,184.3L-14.7,183.9L-16.22,183.4L-16.9,182.2L-17.35,181.2L-17.99,180L-18.7,179.4L-19.48,179.1L-19.8,179.1L-20.89,179.7L-21.22,180L-21.22,180.5L-21.12,181L-20.96,181.3L-20.8,181.6L-20.83,182.1L-21.02,182.8L-21.09,183.6L-24.51,184.3L-25.12,184.1L-25.54,183.7L-26.06,183.8L-27.54,184.2L-28.09,183.9L-28.64,183.7L-28.86,183.8L-28.89,184.2L-28.64,186L-28.73,186.6L-29.05,187.5L-29.25,188.1L-28.31,188.3L-27.99,188.6L-27.67,189L-27.25,189.4L-27.22,189.7L-27.7,190.2L-27.89,190.7L-27.64,191.2L-27.02,191.6L-26.12,192.1L-25.67,192.4L-25.73,192.7L-26.15,193.4L-26.31,193.9L-26.6,194.4L-26.54,194.8L-26.12,195.2L-26.18,195.6L-26.44,195.8L-27.02,195.8L-27.48,195.8L-27.89,195.7L-29.25,194.3L-29.54,194.3L-31.47,195.3L-31.96,195.8L-32.34,196.4L-32.89,197.8L-33.76,197L-34.54,195.5L-35.41,194.6L-37.28,193.2L-37.76,192.1L-39.89,189.7L-42,188.1L-42,153.7ZM272.1,280L271.6,280L271.3,279.8L271.2,279.2L271.3,278.7L271.4,278.2L270.9,277.4L271.4,277L271.8,277.5L271.9,277.5L272.5,277.9L272.4,278.6L272.4,278.8L272.1,279.4ZM367.3,358.5L366,358.7L365.1,358.6L363.4,357.8L362.9,357.3L362.2,355.8L362.4,355.2L362.9,354.3L364.2,353.9L365.5,354L366.1,354.3L366.7,355.4L367.6,356.5L367.5,357.9ZM183.4,113.4L183.2,113.3L182.4,112.6L181.7,111.8L181.2,110.9L180.8,110.1L180.6,108.4L180,107.4L179.5,106.1L178.7,103.7L178.4,102.9L177.7,102.3L177,101.8L176.3,100.8L174.5,99.8L173.8,99.06L172.6,97.79L172.3,97.15L172.2,96.51L171.8,95.91L171.1,95.24L169,93.78L168.4,93.59L167.6,93.43L166.6,93.29L165.1,92.96L163.8,92.4L163.2,91.99L163,91.7L163.2,91.23L163.6,90.43L164.5,88.52L165.1,87.21L165.6,86.83L166.7,86.74L167.9,86.79L168.8,86.88L170.1,86.9L171.6,86.79L172.2,86.35L172.6,85.86L172.8,85.53L172.9,84.66L172.9,83.99L172.8,81.36L172.7,79.75L172.7,77.92L172.7,77.55L172.7,77.07L173.1,75.12L173.4,73.98L173.6,73.4L174.6,71.52L174.8,70.92L174.8,70.36L174.5,67.85L175.1,66.66L175.9,65.47L176.5,64.97L177.1,64.64L177.4,64.78L178,65.32L178.9,65.86L179.3,65.74L179.9,65.27L180.4,64.78L180.3,63.89L180.7,62.07L180.6,61.02L181,59.71L181.5,57.87L181.7,56.7L182,56.09L183.2,54.8L184.3,52.97L185,51.65L186.3,49.47L187,48.69L187.5,48.34L188.3,48.11L189.8,47.92L190.9,47.73L191,47.46L191.1,47.01L191.1,46.04L191.4,44.36L191.8,42.73L192.4,41.49L192.7,40.93L193,40.38L193.4,39.46L193.9,37.47L193.9,36.13L194.6,33.64L194.8,33.62L196,33.17L197.2,33.09L198.4,33.41L199.1,33.49L199.4,33.33L199.8,32.92L200.1,32.26L200.5,31.89L201.2,31.81L202,32.56L203.4,34.57L203.8,34.68L204,34.63L204.7,33.03L205.2,31.78L206.2,29.46L206.8,28.13L207.3,28.51L207.9,29.19L208.4,29.51L209.1,29.7L209.4,29.74L209.8,30.01L211.2,31.66L211.7,32.05L212.3,32.08L215.1,31.55L216.8,30.59L217,30.2L217.4,30.2L218,30.64L218.2,31.04L218.6,31.58L219.2,31.66L220.8,31.28L221.5,31.05L222.2,31.25L223.1,31.39L223.6,31.39L224.8,31.94L226.3,31.76L227,31.79L227.7,32.03L228.9,32.88L230.4,33.93L232.6,34.68L233.1,34.99L234.2,36.17L235.8,38.45L238,40.62L240.3,42.33L241.6,43.53L242.4,44.99L243.2,46.31L244.1,46.87L244.9,47.33L245.7,48.34L246.3,49.16L247.1,50.12L246.2,51.43L245,53.18L243.6,55.2L243.2,55.7L242,56.93L241.8,57.28L241.6,58.17L241.6,59.77L241.7,61.83L241.9,63.72L242.5,63.94L243.3,64.08L244.1,63.83L245.1,63.62L246.4,63.49L247.8,63.12L248.7,62.8L249.5,62.83L250.3,63.16L250.7,63.46L251.2,63.56L251.9,63.54L251.8,63.91L251.4,64.43L250.9,64.95L250.5,65.49L249.6,66.99L249.5,67.18L249.7,67.48L250.1,68.18L250.7,69.29L251,70.31L251.2,70.81L251.9,71.37L252.8,72.54L253.2,73.33L254.2,73.74L254.6,74.74L255.3,76.2L256.1,77.37L257,78.29L257.8,78.65L258.2,78.68L260,80.37L261.4,81.66L261.8,81.86L264.3,82.71L267.2,83.67L269.6,84.46L272.6,85.45L275.5,86.42L278.3,87.35L282.1,88.67L285.3,89.73L287.8,90.56L288.3,90.83L291.2,90.83L294.2,90.83L297.2,90.83L295,92.98L292.5,95.41L289.9,97.95L288.2,99.59L285.5,102.2L283.3,104.4L281,106.7L278.9,108.9L276.2,111.8L274.5,113.8L271.7,116.8L270,118.6L269.8,118.8L267.3,118.6L264.9,118.5L261.8,118.3L261.5,118.3L260.6,118.5L260,118.6L257.9,119.2L257.4,119.3L255.6,120.1L253.8,121L252.8,121.8L252,122.8L251.7,123.6L251.3,123.9L250.8,124.2L246.9,124.9L245.7,125L243.9,125.6L242.9,126.6L242.6,127L241.3,127L239,127.2L238.1,127.3L237.6,127.3L236.7,127.3L236,127.2L235.5,126.9L234.9,126.3L233.6,125.1L232.6,124.4L230.5,125.2L228.6,126.1L225.9,127.3L224.3,128.2L223.9,129L222.7,130.6L221.6,131.6L221.2,131.7L218.8,131.5L217.9,131.3L216.5,131.1L214.6,130.8L213.3,130.4L211.9,130.4L209.9,130.3L208.6,130L207.3,129.1L205.7,128L204,127L202.3,125.8L200.3,124.6L198,123.1L197.5,123L197.3,123L194.9,122.9L192.4,122.8L190.6,122.8L190.1,122.6L189.7,122.3L189.2,121.3L188.5,120.5L187.8,119.6L187.7,118.3L187.9,116.9L188.1,116.4L188,116L188,115.3L187.6,114.8L185.2,114.1L184.7,114.1L184.4,114.4L183.9,114.6L183.5,114.4L183.3,114.1L183.3,113.7ZM194.6,33.64L194.3,30.97L194.1,29.2L193.9,27.31L193.7,25.54L194.6,24.44L195,23.39L196,20L196.4,19.34L197.2,17.51L197.3,16.99L198.1,14.69L198,13.17L197.9,11.63L198.3,10.72L198.7,9.989L198.6,9.372L198.8,7.925L199,7.567L199.4,7.534L200.4,7.73L201.1,7.583L201.9,7.583L202.5,7.534L202.9,7.095L203.4,5.418L203.8,5.076L204,4.978L204.8,4.669L205.4,4.18L205.9,3.821L206.1,3.756L206.6,3.707L207.1,3.495L207.4,3.267L208.1,3.071L208.7,3.169L209.2,2.973L209.4,2.843L209.8,2.826L210.1,2.631L210.2,2.337L210.4,2.141L210.9,1.701L211.2,1.39L211.3,1.064L211.4,0.802L211.6,0.378L212.5,-0.701L213.3,-1.322L216,4.115L217.1,7.307L218.1,10.65L218.8,15.65L219.5,18.19L220.6,19.45L221.3,21.81L222,21.91L222.4,22.55L223.2,24.78L223.8,25.6L224.1,24.89L224.1,24.49L223.9,23.8L224.1,22.92L224.5,22.39L225.5,23.1L226.1,23.65L226.3,24.75L226.5,25.34L227.6,26.63L228.5,27L229.7,27.1L230.6,27.37L231.4,27.84L232.9,29.14L236.3,30.28L239,33.75L240.6,36.17L245.9,39.81L246.8,41.57L247.2,43.26L248.3,43.18L250.2,45.05L250.8,46.47L252.3,46.98L252.6,46.15L253.4,46.84L253.7,47.91L252.7,48.32L251.6,48.7L251.4,48.69L251.1,49.18L250.5,50.52L250,50.92L249.7,50.95L248,49.69L247.7,49.63L247.3,49.87L247.1,50.12L246.3,49.16L245.7,48.34L244.9,47.33L244.1,46.87L243.2,46.31L242.4,44.99L241.6,43.53L240.3,42.33L238,40.62L235.8,38.45L234.2,36.17L233.1,34.99L232.6,34.68L230.4,33.93L228.9,32.88L227.7,32.03L227,31.79L226.3,31.76L224.8,31.94L223.6,31.39L223.1,31.39L222.2,31.25L221.5,31.05L220.8,31.28L219.2,31.66L218.6,31.58L218.2,31.04L218,30.64L217.4,30.2L217,30.2L216.8,30.59L215.1,31.55L212.3,32.08L211.7,32.05L211.2,31.66L209.8,30.01L209.4,29.74L209.1,29.7L208.4,29.51L207.9,29.19L207.3,28.51L206.8,28.13L206.2,29.46L205.2,31.78L204.7,33.03L204,34.63L203.8,34.68L203.4,34.57L202,32.56L201.2,31.81L200.5,31.89L200.1,32.26L199.8,32.92L199.4,33.33L199.1,33.49L198.4,33.41L197.2,33.09L196,33.17L194.8,33.62ZM226.4,16.69L226.7,17.59L225.9,17.25L225.7,17.06L226.1,16.7L226.2,16.49ZM227,20.29L227.4,20.78L227.6,20.73L227.9,20.57L228,20.23L229.4,20.91L229.3,21.37L228.5,21.39L227.5,21.2L226.6,21.26L225.5,21.07L225.3,20.29L226,20.66L226.3,20.57L226.4,20.47L225.9,19.94L225.2,19.84L225.2,19.42L225.6,19.26L225.8,19.06L225.3,18.48L226.1,18.63L226.6,18.97L226.9,19.37ZM-42,143.3L-40.25,143.3L-38.51,143.3L-35.92,143.3L-33.18,143.3L-31.12,143.3L-31.12,143.3L-31.09,145.3L-31.09,147.1L-31.09,149L-31.05,151L-31.05,152.7L-31.05,153.7L-32.89,153.7L-35.31,153.7L-37.76,153.7L-40.18,153.7L-41.41,153.7L-42,153.7L-42,143.3ZM195.2,-42L197.4,-40.37L197.7,-39.58L197.7,-39.4L197.7,-39.4L194.8,-39.38L191.8,-39.38L188.9,-39.38L186,-39.38L183,-39.38L180.1,-39.38L177.1,-39.38L174.2,-39.38L171.3,-39.38L168.3,-39.38L165.4,-39.38L162.5,-39.38L159.5,-39.38L156.6,-39.38L153.6,-39.38L150.7,-39.38L149,-39.38L149.3,-40.24L149.5,-40.86L149.3,-41.28L148.7,-41.38L148.3,-41.24L147.5,-39.45L147,-39.37L145.9,-39.37L142.5,-39.37L139.1,-39.38L135.7,-39.38L132.3,-39.38L128.8,-39.38L125.4,-39.38L122,-39.38L118.6,-39.38L115.1,-39.38L111.7,-39.38L108.3,-39.38L104.9,-39.38L101.5,-39.38L98.05,-39.38L94.63,-39.38L91.18,-39.38L91.18,-41.55L91.18,-42L195.2,-42ZM254.8,58.98L254.1,60.2L253.1,61.77L251.9,63.54L251.2,63.56L250.7,63.46L250.3,63.16L249.5,62.83L248.7,62.8L247.8,63.12L246.4,63.49L245.1,63.62L244.1,63.83L243.3,64.08L242.5,63.94L241.9,63.72L241.7,61.83L241.6,59.77L241.6,58.17L241.8,57.28L242,56.93L243.2,55.7L243.6,55.2L245,53.18L246.2,51.43L247.1,50.12L247.3,49.87L247.7,49.63L248,49.69L249.7,50.95L250,50.92L250.5,50.52L251.1,49.18L251.4,48.69L251.6,48.7L252.7,48.32L253.7,47.91L253.8,48.34L255.3,50.15L255.8,51.04L256.3,52.67L256,53.56L255.6,54.15L255.1,54.67L253.1,55.96L250.8,56.78L249.4,58.42L248.3,58.31L248.5,58.93L248.9,59.01L249.5,58.88L250.7,58.4L251.8,58.18L253,58.17L254.1,58.37ZM142.9,236.4L141.3,236.6L139.1,236.9L136.6,237.3L134.1,237.7L131.5,238.1L129.1,238.5L126.9,238.8L126.3,239L126.6,240L126.5,240.9L126,241.7L125.4,242.7L125,243.1L124.3,243.8L123.8,244.3L122.6,245.2L121.8,245.7L121.8,246.2L123.1,248.3L123.7,249.8L123.9,251.2L123.9,252L123.8,253.6L123.8,255.6L123.7,256.4L124,257.8L124,258.8L123.1,260.1L122.9,261.2L122.5,262.9L121.8,265.1L121.4,266.3L121.7,267L121.9,267.6L122.1,268.2L122.6,269.3L123.1,269.9L123.4,270.2L125.1,271.5L125.8,272.1L127,273.4L127.8,274.2L128.9,274.4L130.3,274.7L131,274.9L131.6,274.8L131.7,274.5L131.7,273.9L131.6,273.5L131.8,273.1L132.2,272.8L133.4,272.8L133.9,272.5L134.3,272.4L134.3,273.8L134.3,275.1L134.3,276.7L134.3,278.6L134.3,280.1L134.3,281.7L134.3,283.6L134.3,283.8L134.1,284.2L133.7,284.3L133,284L133,283.6L132.8,282.9L132.6,282.6L132.2,282.5L131.5,282.6L130.6,283.1L129.5,283.6L129,283.8L128.2,283.8L127.3,283.6L126.7,283L126.5,282.1L125.9,281.3L125.2,280L124.8,279.5L124.3,278.9L123.8,278.8L123.2,278.7L122.8,277.8L122.5,276.7L122.3,276.3L121.9,275.7L121.5,275.4L120.4,275L118.9,274.4L117,273.6L116.1,273.6L115,273.4L114.4,273.1L114.1,272.8L113.7,271.7L113.1,270.5L111.4,269L111,267.4L110.7,267.1L110.1,267.3L109.7,267.5L109.5,267.9L109.1,269.4L108.8,270.1L108.7,270.3L108.3,270.5L107.7,270.7L106.9,270.8L105.7,270.7L104.2,270.5L103.4,270.3L101.2,270.1L100.6,270L99.66,269.7L99.02,269.3L96.92,268.6L95.95,268.7L95.5,268.3L95.08,268L94.5,267.6L94.24,266.9L93.89,265.6L93.98,264.8L94.24,264L93.95,263.8L93.57,263.8L93.02,264.1L92.05,264.2L90.28,264.6L89.63,264.8L88.92,264.9L88.41,265.1L87.05,265.9L86.6,265.9L85.79,265.7L85.41,265.3L85.79,264.8L85.95,264.2L85.7,263L85.28,262.5L84.08,262.1L83.63,262.1L83.44,261.4L83.12,260.9L82.44,260.8L82.12,260.7L81.76,260.9L81.57,261.3L81.54,261.7L80.92,262L79.7,261.9L78.47,261.7L77.6,261.6L77.02,261.6L74.86,262.5L74.15,262.7L71.8,262.6L70.47,262.4L69.51,262.4L68.86,262.7L68.02,263.3L67.31,263.7L66.99,263.6L66.8,263.3L66.51,263L66.44,262L66.09,260.9L66.31,260.3L66.99,259.9L67.25,259L67.02,257.8L67.02,256.9L67.22,256.4L66.96,255.1L66.25,253.1L65.28,251.5L64.02,250.3L63.22,249.1L62.83,247.9L62.96,245.2L63.35,242.8L63.64,240.9L63.57,237.7L62.7,235.6L62.51,233.4L62.99,231L63.09,229.4L62.77,228.5L62.54,228.4L62.25,228.3L60.12,228.3L57.25,228.1L54.73,228.1L52.03,228.1L51.57,227.8L51.38,227.2L51.38,226.7L51.93,225L51.86,224.8L50.9,224.8L48.28,225.1L46.54,225.4L45.45,225.4L43.54,225.9L42.35,226.9L41.96,228.1L41.99,229.1L41.93,229.8L41.38,230.6L40.93,231.5L40.93,232L40.67,234.3L38.9,234.6L37.13,234.6L36.71,234.6L34.51,234L33.71,234L33,234.3L31.64,234.6L30.39,234.8L29.09,235.5L28.74,235.6L27.87,235.2L26.68,235.3L25.45,235.4L24.9,235.5L24.52,235.3L23.39,233.5L21.9,231.2L21.1,229.7L20.77,229.3L20.26,228.8L19.55,227.9L19.26,227L19.39,226.1L18.97,225L18.03,223.5L17.39,222.1L17.1,220.8L17.03,219.7L17.16,218.7L17,218L16.48,217.6L16.19,217L15.97,216.8L15.55,216.2L14.61,215.6L13.55,215.3L11.29,215.3L8.292,215.3L5.583,215.4L2.584,215.4L-0.448,215.5L-1.286,215.6L-3.608,215.6L-5.479,215.4L-6.156,215.3L-7.382,215.3L-9.285,215.2L-10.32,215.3L-12.8,215.3L-13.03,215.3L-13.41,215.5L-14.48,215.3L-15.51,215.3L-16.12,215.1L-17.38,215.2L-17.99,215.4L-18.99,216.2L-20.48,216.6L-21.02,216.6L-21.41,216.4L-22.28,215.6L-22.93,214.8L-23.18,214.4L-22.8,214.3L-21.64,214.1L-20.77,214L-20.57,213.8L-20.44,211.4L-20.41,208.9L-20.73,208.6L-21.02,208.4L-21.06,208.2L-20.61,207.9L-19.96,207.5L-19.77,207.4L-19.06,206.7L-17.67,205.2L-16.61,204.8L-15.64,204.4L-15.48,204.3L-15.35,204L-14.9,204L-14.77,204.1L-14.54,204.4L-14.15,204.9L-13.48,205.4L-12.77,206L-12.41,206.1L-11.87,205.8L-11.19,205.4L-10.22,205L-9.994,204.7L-9.865,204.1L-9.801,203.4L-9.704,202.6L-9.51,202.5L-9.156,202.5L-8.511,202.7L-8.22,202.9L-7.704,202.9L-7.382,202.7L-6.769,202.3L-5.963,202.2L-5.157,201.8L-4.35,201.3L-3.963,201.3L-3.576,201.9L-3.221,202.3L-3.157,202.6L-3.512,203.1L-3.899,203.8L-3.576,204.7L-3.479,205.5L-3.512,206L-3.221,206.2L-3.028,206.3L-2.738,206.2L-2.189,206.2L-1.512,206.5L-0.835,206.5L-0.19,206.2L1.004,204.9L2.745,202.7L4.164,201.3L5.325,200.8L6.099,200.1L6.486,199.3L7.164,198.8L8.55,198.4L9.582,198L10.65,196.5L12.07,193.8L12.45,191.3L12.68,189.9L12.55,184.8L12.45,183.1L12.68,182.2L13.2,181.6L14.61,180.3L15.58,179.2L16.32,177.9L17.74,175L18.36,174.1L18.61,173.7L19.48,172.9L20.68,172.2L22.19,171.7L24.55,169.6L26.45,167.6L26.19,165.2L26.61,163.2L27.64,160.6L28,157.9L27.64,155L27.77,152.7L28.77,150L29.19,148.9L29.32,147.3L29.29,144.7L30.55,141.1L31.74,138.9L33.06,136.5L33.55,135L34.22,133.1L34.13,131.5L34,129.7L34.32,127.3L34.22,125.8L33.74,124.5L33.97,123.7L34.93,123.4L36.09,122.1L38.22,118.8L40.51,117.2L42.09,116.7L43.77,116.8L44.83,117L45.35,117.6L46.61,118.3L48.61,119.4L50.09,120.7L50.93,122L51.57,122.7L52.38,122.9L53.67,122.8L55.12,123.1L56.67,123.9L57.6,124.1L57.93,123.9L58.67,124L60.35,124.6L61.7,124.3L63.67,124.6L68.28,125.6L68.51,125.4L68.64,125.4L69.02,125L70.02,122.8L70.86,121.5L71.25,121L72.25,120.3L73.38,120.2L74.5,120.2L75.41,120.5L76.25,120.9L77.18,120.9L78.15,120.5L79.57,119.9L81.05,119.5L82.34,119L84.44,118.3L85.28,117.9L86.34,117.8L89.28,118.5L91.18,118L91.95,118.1L93.6,117.6L93.92,117.3L94.95,115.5L96.08,115L97.76,115.3L98.73,115.6L101.9,116.3L106,117.1L107.2,117.2L107.7,117.3L108.1,117.2L109.5,116.2L109.9,116L110.3,116.1L112.9,116.9L113.2,117.5L113.7,118.1L115.2,119.2L115.7,119.8L116.1,120.5L116.3,121L116.8,121.5L117.5,121.7L118.1,122.1L118.4,122.5L118.9,123L120,123.7L120.5,123.7L121,123.8L121.5,124L122.1,123.9L122.9,123.5L124,122.7L124.8,122.3L126.7,122.5L127.7,122.8L128.6,123.4L129.2,123.3L130.7,122.4L131.4,121.3L132.1,121.1L133.3,121.6L134.2,122.5L135,123.9L135.6,124.4L136.4,125.2L137.9,127L139.9,127.9L140.7,128.3L141,128.7L141.1,129.3L141.2,129.9L141.4,130.2L142,130.1L142.4,130L142.9,130.2L143.3,130.7L143.5,131L143.7,131.4L144.2,131.6L144.3,132.1L143.9,132.7L143.6,133.3L143.1,134.3L142.9,135.4L143.2,135.8L143.5,136.1L143.7,136.4L143.8,136.8L143.7,137.2L143.1,138.7L142.7,140L142.7,140.7L143.6,141.2L144.8,141.2L145.2,141.5L145.5,142L145.8,142.2L146.4,142.2L146.7,142.4L146.8,142.7L147.2,143.1L147.6,143.5L147.4,144L147.4,144.4L146.6,145.5L144.6,147.6L140.5,151.6L140.4,151.6L139,152.1L138.3,152.8L137.8,154L136.6,155L135.7,155.4L135.6,155.6L135.5,156.7L135.6,158.2L135.1,158.9L134.5,160.3L134.2,161.2L133.9,161.4L133.6,161.8L133.5,163.2L133.3,163.7L132.9,166.7L133,167.5L132.7,168.9L132.6,169.7L132.5,170.6L132.2,171.4L132.3,172.7L132.4,174.9L132.4,175.1L132,175.3L131.4,175.9L130.8,176.2L130.4,176.3L129.6,177.2L129,178.1L128.5,179L128.4,179.4L128.5,180.5L128.5,181.8L128.4,182.4L128.2,182.7L127.1,183.4L126.4,183.9L126.1,184.2L125.9,184.6L126.2,185.6L126.3,186.3L126.5,186.7L127.3,187.1L127.3,187.4L127.4,187.8L127.8,188.3L128.6,189.2L129.2,190.1L129.2,190.8L129.1,192.1L129.1,192.9L129.1,193.8L129.1,195.7L129.1,197.1L129.2,197.8L130.2,199.4L130.6,201.3L130.8,202.6L130.8,203L130.5,204.6L130.1,206.1L130.1,206.6L130.3,207.4L131,209.1L131.5,210.4L131.7,211.2L132.1,212L132.5,213.4L132.7,214.1L132.6,214.5L131.6,216.2L131.5,216.8L131.8,218.1L132,219.4L132.5,220.1L133.6,222.1L134.4,222.8L135.8,223.8L137.1,224.8L137.6,225.3L138.1,225.9L139,227.4L139.5,228.6L139.8,229.7L140.5,231.2L141.2,232.6L142,234.3L142.6,235.6ZM-32.89,197.8L-32.34,196.4L-31.96,195.8L-31.47,195.3L-29.54,194.3L-29.25,194.3L-27.89,195.7L-27.48,195.8L-27.02,195.8L-26.44,195.8L-26.18,195.6L-26.12,195.2L-26.54,194.8L-26.6,194.4L-26.31,193.9L-26.15,193.4L-25.73,192.7L-25.67,192.4L-26.12,192.1L-27.02,191.6L-27.64,191.2L-27.89,190.7L-27.7,190.2L-27.22,189.7L-27.25,189.4L-27.67,189L-27.99,188.6L-28.31,188.3L-29.25,188.1L-29.05,187.5L-28.73,186.6L-28.64,186L-28.89,184.2L-28.86,183.8L-28.64,183.7L-28.09,183.9L-27.54,184.2L-26.06,183.8L-25.54,183.7L-25.12,184.1L-24.51,184.3L-21.09,183.6L-21.02,182.8L-20.83,182.1L-20.8,181.6L-20.96,181.3L-21.12,181L-21.22,180.5L-21.22,180L-20.89,179.7L-19.8,179.1L-19.48,179.1L-18.7,179.4L-17.99,180L-17.35,181.2L-16.9,182.2L-16.22,183.4L-14.7,183.9L-12.93,184.3L-11.96,184.2L-10.61,183.1L-9.801,182.3L-9.575,181.9L-9.123,182.1L-8.607,183.2L-8.253,183.6L-8.188,184L-8.414,184.5L-8.188,184.8L-7.221,185L-6.382,184.8L-6.027,184.4L-5.382,183.8L-5.382,183.3L-5.705,183L-5.705,182.6L-5.382,182.2L-5.028,181.3L-4.931,180.6L-4.608,180.2L-3.963,179.9L-3.737,179.6L-3.383,178L-3.576,177.5L-3.576,177L-3.157,176.4L-3.092,175.4L-3.254,173.7L-3.383,172.6L-3.512,171.4L-3.189,169.9L-2.867,168.2L-2.931,167.8L-3.383,167.3L-3.931,166.9L-5.318,166.5L-5.834,165.9L-6.253,165.3L-6.543,165.1L-8.091,164.9L-8.446,164.5L-8.285,163.5L-8.156,162L-8.22,161L-7.93,160.2L-7.64,159.5L-6.963,158.9L-6.576,158.1L-6.382,157.9L-5.092,157.8L-4.64,157.4L-4.286,157.1L-4.124,156.7L-3.673,155.9L-3.286,155.4L-3.254,155.1L-3.318,154.6L-3.705,153.7L-4.189,152.9L-4.447,152.7L-5.028,150.9L-5.544,150.4L-6.576,150.2L-8.511,150L-9.672,150.3L-11.45,150.9L-12.8,151.3L-13.67,151.6L-14.19,151.5L-14.45,151.2L-14.09,151L-13.93,150.5L-14.15,149.7L-14.48,148.9L-14.67,147.9L-14.61,146.7L-14.25,145.5L-13.54,143.9L-13.51,143.3L-11.35,143.3L-9.22,143.4L-6.866,143.4L-4.608,143.3L-2.834,143.4L-1.996,143L-1.19,143.6L-0.803,143.7L-0.641,143.7L-0.351,144.1L0.649,144.1L0.81,144.2L0.907,144.7L1.842,144.6L2.294,144.8L2.681,144.8L3.229,144.5L3.616,144.6L4.325,144.9L4.809,145.3L5.519,145.2L7.164,145.2L8.421,145.5L9.679,146.4L10.52,146.9L11.26,147.7L11.55,147.5L11.81,147.3L11.97,147.2L11.94,146.6L11.52,145.5L11.36,144.6L11.45,143.8L11.78,143.3L12.32,142.9L12.39,142.4L12.39,142.4L13,141.1L13.61,139.9L14.32,138.5L14.94,137.3L14.87,136.7L14.9,135.9L15.03,134.9L15,134.3L15.19,133.9L15.61,132.5L15.84,131.7L16.23,131.3L16.77,131L17.58,131L19.71,130.8L21.71,130.4L22.39,130.3L23.61,129.7L24.1,129.6L24.52,129.9L26.93,130.6L27.58,130.8L27.84,130.8L28.19,130.9L28.74,130.9L29.32,130.8L29.64,130.9L30.09,131.3L30.39,131.3L30.77,130.9L31.51,130.6L32.9,130.2L33.13,130.4L33.61,131.2L34.13,131.5L34.22,133.1L33.55,135L33.06,136.5L31.74,138.9L30.55,141.1L29.29,144.7L29.32,147.3L29.19,148.9L28.77,150L27.77,152.7L27.64,155L28,157.9L27.64,160.6L26.61,163.2L26.19,165.2L26.45,167.6L24.55,169.6L22.19,171.7L20.68,172.2L19.48,172.9L18.61,173.7L18.36,174.1L17.74,175L16.32,177.9L15.58,179.2L14.61,180.3L13.2,181.6L12.68,182.2L12.45,183.1L12.55,184.8L12.68,189.9L12.45,191.3L12.07,193.8L10.65,196.5L9.582,198L8.55,198.4L7.164,198.8L6.486,199.3L6.099,200.1L5.325,200.8L4.164,201.3L2.745,202.7L1.004,204.9L-0.19,206.2L-0.835,206.5L-1.512,206.5L-2.189,206.2L-2.738,206.2L-3.028,206.3L-3.221,206.2L-3.512,206L-3.479,205.5L-3.576,204.7L-3.899,203.8L-3.512,203.1L-3.157,202.6L-3.221,202.3L-3.576,201.9L-3.963,201.3L-4.35,201.3L-5.157,201.8L-5.963,202.2L-6.769,202.3L-7.382,202.7L-7.704,202.9L-8.22,202.9L-8.511,202.7L-9.156,202.5L-9.51,202.5L-9.704,202.6L-9.801,203.4L-9.865,204.1L-9.994,204.7L-10.22,205L-11.19,205.4L-11.87,205.8L-12.41,206.1L-12.77,206L-13.48,205.4L-14.15,204.9L-14.54,204.4L-14.77,204.1L-14.9,204L-15.35,204L-15.48,204.3L-15.7,204.1L-16.38,203.5L-17.19,202.6L-17.51,202.4L-17.93,202.4L-18.64,202.8L-19.35,203.3L-20.61,203.8L-21.64,204.1L-21.73,204.5L-21.99,205.1L-22.35,205.4L-23.25,205.6L-23.6,206.1L-24.41,207.1L-24.93,207.6L-25.06,207.4L-25.38,207.1L-26.06,206.3L-26.7,205.4L-26.86,204.9L-27.05,204.6L-27.09,203.6L-28.05,202.5L-30.54,200.4L-30.8,199.7ZM265.9,271.7L266.3,273L266.3,274L266.1,274.3L265.7,274.1L265,273.3L263.6,272.6L264.2,272.5L264.6,272.6L265,272.5L265.2,272.1L265.3,271.8L265.6,271.7ZM259.7,273.8L260.3,274.4L258.6,274.1L258.3,273.6L258.3,273.3L258.9,273.3ZM256.8,270.1L256.6,270.2L255.8,269.7L255.3,269.6L254.7,268.7L254.9,265.8L255.1,265.4L255.3,265.3L255.7,265.2L256.1,265.6L256,267.5L256.6,268.7L257,269.7ZM31.99,-42L35.03,-40.37L39.32,-38.09L43.61,-35.81L47.9,-33.54L52.19,-31.25L56.48,-28.99L60.77,-26.73L65.06,-24.45L69.34,-22.19L73.63,-19.94L77.96,-17.69L82.25,-15.43L82.25,-15.43L82.25,-11.2L82.25,-6.99L82.25,-2.778L82.25,1.423L82.25,5.614L82.25,9.794L82.25,13.96L82.25,18.13L82.25,19.5L82.15,20.05L82.08,20.13L81.92,20.23L79.79,19.84L78.86,19.82L77.57,20.13L75.63,20.28L74.41,20.23L73.54,20.94L72.86,21.81L73.18,23.86L73.12,24.55L72.86,25.25L72.25,25.86L71.67,26.34L71.34,26.77L70.89,27.69L70.57,28.13L70.6,28.72L70.51,29.33L70.15,29.64L69.25,29.88L68.67,30.15L68.22,30.6L67.93,30.93L68.09,31.34L68.31,31.94L68.44,32.85L68.51,33.38L68.96,33.81L69.22,34.14L69.31,34.52L69.05,34.83L67.96,35.5L67.54,35.74L67.02,36.08L66.83,36.2L66.06,36.83L65.64,37.39L65.44,37.85L65.44,38.49L65.86,39.46L66.31,40.27L66.47,40.88L66.57,41.55L66.54,42.19L66.31,42.75L65.89,43.24L64.41,44.19L63.67,45.21L63.09,46.47L62.93,47.16L63.09,47.6L63.41,47.98L63.86,48.18L64.51,48.24L65.57,48.03L66.57,47.89L67.64,48.34L68.22,49.39L67.99,50.15L68.38,51.54L68.76,53.21L68.73,53.78L68.89,53.99L69.54,54.1L69.7,54.5L69.47,57.42L69.8,58.25L70.25,58.83L70.73,59.13L71.25,59.53L71.51,59.8L72.09,59.86L72.76,60.39L72.92,61.1L72.89,61.78L72.5,63.27L72.18,64.27L71.83,64.21L71.02,63.95L70.09,63.75L68.92,63.57L67.8,63.99L66.6,64.51L66.22,64.91L65.89,65.13L65.38,65.09L64.89,65.16L64.6,65.54L64.18,65.95L62.44,66.8L62.09,67.11L61.86,67.42L61.86,67.75L62.02,68.45L62.02,69.32L61.64,70.02L61.22,70.49L60.7,70.66L60.25,70.76L59.99,71.06L59.09,72.64L58.7,72.94L57.9,72.89L55.61,75.26L55.38,75.97L54.57,76.95L53.51,78.05L52.57,78.59L52.48,78.79L52.22,79L51.64,79.25L49.64,80.59L47.22,80.52L46.16,81.06L45.12,81.3L43.61,81.55L43.16,81.52L41.19,81.63L38.93,81.59L38.06,81.78L37.22,82.29L36.61,82.74L36.51,82.89L36.61,83.07L36.61,83.22L38.19,84.32L38.58,84.85L38.19,85.37L38,85.45L37.96,85.48L37.71,85.89L36.77,87.13L35.35,88.59L34.64,89L34.32,89.27L33.97,90.24L33.71,90.39L32.74,90.51L30.8,90.61L28.13,90.92L26.52,91.03L25.52,90.95L24.13,91.61L23.61,91.78L23.29,91.85L21.9,92.49L20.74,93.49L20.36,93.68L18.71,94.11L18.07,94.8L17.77,94.86L16.74,93.95L16,93.12L15.68,92.29L15.61,92.02L15.42,92.07L14.87,92.43L14.36,92.85L14.13,93.65L12.45,94.2L11,94.67L10.36,95.25L9.357,95.53L8.067,95.42L7.067,95.17L6.067,95.09L6.551,94.37L6.744,93.82L6.777,93.17L6.712,92.71L6.132,92.49L5.745,92.13L4.906,90.04L4.035,87.87L2.81,85.75L1.487,84.4L0.52,83.56L0.229,83.45L-0.254,83.2L-0.609,82.95L-2.383,81.5L-4.189,79.89L-4.673,79.15L-5.576,78.05L-6.608,76.91L-7.124,76.39L-7.382,75.46L-6.672,74.61L-5.931,73.55L-4.995,72.84L-3.802,72.8L-1.835,73.08L0.326,73.19L2.423,72.97L2.971,72.81L3.519,72.83L4.648,73.06L6.615,73.02L7.647,72.59L6.551,71.85L5.358,70.68L4.261,69.4L3.584,68.24L2.971,66.74L2.39,64.91L2.036,62.5L2.1,61.15L2.294,60.18L2.874,58.59L2.487,57.67L2.552,56.93L2.519,55.82L2.326,55.24L1.552,53.41L1.391,53.21L0.713,51.94L0.423,49.8L-0.351,48.38L-1.609,47.7L-2.286,46.87L-2.544,45.42L-3.028,45.02L-4.995,44.51L-6.608,44.51L-7.769,42.85L-9.285,40.72L-10.7,38.73L-11.61,34.76L-12.12,32.5L-11.54,31.79L-10.38,30.19L-8.898,27.07L-5.576,22.26L-3.866,19.79L-0.48,16.09L3.68,11.55L6.035,8.982L6.422,4.278L6.809,-0.684L7.131,-4.448L7.486,-8.928L7.809,-12.68L8.034,-15.43L8.357,-19.31L8.647,-20.06L10.29,-23.12L10.42,-23.54L10.1,-24.05L7.776,-26.66L7.035,-27.24L6.615,-28.59L7.228,-29.35L4.422,-33.74L3.713,-34.29L3.422,-34.83L3.39,-35.61L3.326,-38.68L2.811,-42L31.99,-42ZM83.73,84.77L84.15,84.88L84.37,85.29L84.02,86.61L84.28,87.45L85.02,88.16L85.76,88.45L86.5,88.63L89.02,89.07L90.05,89.55L91.44,91.11L93.18,92.54L93.6,93.29L93.5,93.97L92.98,94.8L93.08,95.14L93.86,95.97L94.79,96.82L96.44,97.76L99.34,99.25L100.7,100.2L101.1,101L101.9,101.8L102.9,102.5L103.6,103.1L103.1,104.7L103.2,105.3L103.5,105.7L104.1,106.4L104.3,107.2L104.9,108.2L105.7,108.7L106.8,108.9L107.5,109.3L108.8,110.2L110,110.9L110.6,111.3L110.9,111.8L111.2,112.3L111.3,112.8L111.4,113.9L111.6,115.2L112.3,116.2L112.9,116.9L110.3,116.1L109.9,116L109.5,116.2L108.1,117.2L107.7,117.3L107.2,117.2L106,117.1L101.9,116.3L98.73,115.6L97.76,115.3L96.08,115L94.95,115.5L93.92,117.3L93.6,117.6L91.95,118.1L91.18,118L89.28,118.5L86.34,117.8L85.28,117.9L84.44,118.3L82.34,119L81.05,119.5L79.57,119.9L78.15,120.5L77.18,120.9L76.25,120.9L75.41,120.5L74.5,120.2L73.38,120.2L72.25,120.3L71.25,121L70.86,121.5L70.02,122.8L69.02,125L68.64,125.4L68.51,125.4L68.28,125.6L63.67,124.6L61.7,124.3L60.35,124.6L58.67,124L57.93,123.9L57.6,124.1L56.67,123.9L55.12,123.1L53.67,122.8L52.38,122.9L51.57,122.7L50.93,122L50.09,120.7L48.61,119.4L46.61,118.3L45.35,117.6L44.83,117L43.77,116.8L42.09,116.7L40.51,117.2L38.22,118.8L36.09,122.1L34.93,123.4L33.97,123.7L33.74,124.5L34.22,125.8L34.32,127.3L34,129.7L34.13,131.5L33.61,131.2L33.13,130.4L32.9,130.2L31.51,130.6L30.77,130.9L30.39,131.3L30.09,131.3L29.64,130.9L29.32,130.8L28.74,130.9L28.19,130.9L27.84,130.8L27.58,130.8L26.93,130.6L24.52,129.9L24.1,129.6L23.61,129.7L22.39,130.3L21.71,130.4L19.71,130.8L17.58,131L16.77,131L16.23,131.3L15.84,131.7L15.61,132.5L15.19,133.9L15,134.3L15.03,134.9L14.9,135.9L14.87,136.7L14.94,137.3L14.32,138.5L13.61,139.9L13,141.1L12.39,142.4L11.97,141.5L11.71,140.5L11.58,139.4L11.65,139.1L11.48,138.8L11.48,138.7L11.26,137.8L11.48,137.3L11.32,136.6L10.81,136L10.36,135.6L10.1,135.1L9.873,134.9L9.389,134.9L8.712,134.7L7.841,133.8L6.97,132.9L5.874,131.7L5.003,130.7L3.938,129.5L2.939,128.4L2.326,127.3L2.1,126.7L2.39,126.6L2.81,126.6L3.003,126.5L3.003,126.2L2.552,125.4L2.358,124.3L1.971,123.6L0.842,122.6L-0.287,121.8L-0.641,121.4L-0.835,120.9L-1.254,117.3L-1.448,116.2L-1.77,115.8L-2.028,115.6L-2.125,115.3L-2.093,114.7L-1.931,114.1L-1.964,113.9L-1.641,113.4L-1.641,110.1L-1.802,109.9L-1.996,109.6L-2.318,109.6L-2.673,109.6L-3.028,109.1L-3.318,108.5L-3.221,108.1L-2.931,107.7L-2.576,107.4L-2.157,107.1L-0.899,106.6L-0.545,106.3L-0.319,106L-0.19,105.5L0.552,103.8L1.616,102.1L2.1,101.8L2.552,100.6L3.197,99.25L3.455,98.61L3.648,97.97L3.971,97.45L5.164,96.6L6.067,95.09L7.067,95.17L8.067,95.42L9.357,95.53L10.36,95.25L11,94.67L12.45,94.2L14.13,93.65L14.36,92.85L14.87,92.43L15.42,92.07L15.61,92.02L15.68,92.29L16,93.12L16.74,93.95L17.77,94.86L18.07,94.8L18.71,94.11L20.36,93.68L20.74,93.49L21.9,92.49L23.29,91.85L23.61,91.78L24.13,91.61L25.52,90.95L26.52,91.03L28.13,90.92L30.8,90.61L32.74,90.51L33.71,90.39L33.97,90.24L34.32,89.27L34.64,89L35.35,88.59L36.77,87.13L37.71,85.89L37.96,85.48L38,85.45L38.19,85.37L38.58,84.85L38.19,84.32L36.61,83.22L36.61,83.07L36.51,82.89L36.61,82.74L37.22,82.29L38.06,81.78L38.93,81.59L41.19,81.63L43.16,81.52L43.61,81.55L45.12,81.3L46.16,81.06L47.22,80.52L49.64,80.59L51.64,79.25L52.22,79L52.48,78.79L52.57,78.59L53.51,78.05L54.57,76.95L55.38,75.97L55.61,75.26L57.9,72.89L58.7,72.94L59.09,72.64L59.99,71.06L60.25,70.76L60.7,70.66L61.22,70.49L61.64,70.02L62.02,69.32L62.02,68.45L61.86,67.75L61.86,67.42L62.09,67.11L62.44,66.8L64.18,65.95L64.6,65.54L64.89,65.16L65.38,65.09L65.89,65.13L66.22,64.91L66.6,64.51L67.8,63.99L68.92,63.57L70.09,63.75L71.02,63.95L71.83,64.21L72.18,64.27L72.83,65.41L73.12,65.81L75.73,68.48L76.25,69.13L77.54,71.07L78.34,72.39L79.25,74.26L79.34,75.29L79.21,76.16L79.02,78.65L78.79,79.36L77.63,80.7L77.6,81.3L77.83,81.8L78.18,82L78.41,82.26L78.28,83.41L78.67,83.86L79.54,84.16L81.7,84.36L82.83,84.54ZM-42,100.1L-41.73,99.86L-41.5,100.2L-41.34,100.6L-41.18,100.8L-40.38,100.9L-39.31,100.9L-38.7,100.8L-38.38,100.5L-38.02,99.5L-37.83,99.31L-37.57,99.27L-36.41,99.94L-35.44,100.9L-34.47,101.8L-33.99,102.2L-33.76,102.6L-33.34,104.3L-33.09,104.7L-32.67,104.9L-31.93,104.8L-31.15,104.5L-30.44,104L-29.77,103.5L-29.31,102.9L-29.12,102.6L-29.02,101.1L-28.86,100.8L-28.15,100.3L-26.99,99.33L-26.35,98.78L-26.41,98.59L-26.8,98.01L-27.18,97.37L-26.8,96.71L-26.41,96.21L-24.96,94.5L-24.96,93.95L-24.86,93.26L-23.7,91.31L-23.02,88.74L-22.99,88.23L-22.31,86.99L-21.48,85.4L-19.86,85.15L-19.25,84.74L-18.54,84.05L-18.09,83.39L-17.86,82.76L-17.7,81.56L-17.41,80.19L-17.25,78.98L-16.77,77.86L-15.96,77.31L-14.57,76.84L-14.35,76.61L-14.15,75.87L-13.99,74.34L-13.96,73.41L-13.9,73.02L-13.7,72.32L-12.41,71.09L-11.87,69.16L-11.35,67.14L-9.865,64.7L-8.156,62.26L-7.35,61.61L-6.672,61.31L-5.898,61.28L-5.35,61.09L-3.512,59.88L-2.738,59.47L-2.157,59.04L-2.028,58.67L-1.964,58.13L-2.157,56.88L-1.835,55.96L-1.641,54.53L-1.544,53.4L-1.641,53.02L-1.931,52.48L-1.964,52.37L-2.512,51.66L-3.447,51.25L-4.737,51.14L-5.415,50.88L-5.511,50.3L-5.576,49.96L-5.64,49.59L-5.737,48.78L-6.608,44.51L-4.995,44.51L-3.028,45.02L-2.544,45.42L-2.286,46.87L-1.609,47.7L-0.351,48.38L0.423,49.8L0.713,51.94L1.391,53.21L1.552,53.41L2.326,55.24L2.519,55.82L2.552,56.93L2.487,57.67L2.874,58.59L2.294,60.18L2.1,61.15L2.036,62.5L2.39,64.91L2.971,66.74L3.584,68.24L4.261,69.4L5.358,70.68L6.551,71.85L7.647,72.59L6.615,73.02L4.648,73.06L3.519,72.83L2.971,72.81L2.423,72.97L0.326,73.19L-1.835,73.08L-3.802,72.8L-4.995,72.84L-5.931,73.55L-6.672,74.61L-7.382,75.46L-7.124,76.39L-6.608,76.91L-5.576,78.05L-4.673,79.15L-4.189,79.89L-2.383,81.5L-0.609,82.95L-0.254,83.2L0.229,83.45L0.52,83.56L1.487,84.4L2.81,85.75L4.035,87.87L4.906,90.04L5.745,92.13L6.132,92.49L6.712,92.71L6.777,93.17L6.744,93.82L6.551,94.37L6.067,95.09L5.164,96.6L3.971,97.45L3.648,97.97L3.455,98.61L3.197,99.25L2.552,100.6L2.1,101.8L1.616,102.1L0.552,103.8L-0.19,105.5L-0.319,106L-0.545,106.3L-0.899,106.6L-2.157,107.1L-2.576,107.4L-2.931,107.7L-3.221,108.1L-3.318,108.5L-3.028,109.1L-2.673,109.6L-2.318,109.6L-1.996,109.6L-1.802,109.9L-1.641,110.1L-1.641,113.4L-1.964,113.9L-1.931,114.1L-2.093,114.7L-2.125,115.3L-2.028,115.6L-1.77,115.8L-1.448,116.2L-1.254,117.3L-0.835,120.9L-0.641,121.4L-0.287,121.8L0.842,122.6L1.971,123.6L2.358,124.3L2.552,125.4L3.003,126.2L3.003,126.5L2.81,126.6L2.39,126.6L2.1,126.7L2.326,127.3L2.939,128.4L3.938,129.5L5.003,130.7L5.874,131.7L6.97,132.9L7.841,133.8L8.712,134.7L9.389,134.9L9.873,134.9L10.1,135.1L10.36,135.6L10.81,136L11.32,136.6L11.48,137.3L11.26,137.8L11.48,138.7L11.48,138.8L11.65,139.1L11.58,139.4L11.71,140.5L11.97,141.5L12.39,142.4L12.39,142.4L12.32,142.9L11.78,143.3L11.45,143.8L11.36,144.6L11.52,145.5L11.94,146.6L11.97,147.2L11.81,147.3L11.55,147.5L11.26,147.7L10.52,146.9L9.679,146.4L8.421,145.5L7.164,145.2L5.519,145.2L4.809,145.3L4.325,144.9L3.616,144.6L3.229,144.5L2.681,144.8L2.294,144.8L1.842,144.6L0.907,144.7L0.81,144.2L0.649,144.1L-0.351,144.1L-0.641,143.7L-0.803,143.7L-1.19,143.6L-1.996,143L-2.834,143.4L-4.608,143.3L-6.866,143.4L-9.22,143.4L-11.35,143.3L-13.51,143.3L-13.7,142.8L-14.15,142.5L-14.96,142.5L-17.32,142.6L-19.12,142.5L-19.7,142.4L-20.35,142.3L-21.86,142.1L-23.73,142.2L-24.15,142.2L-25.64,142.2L-29.05,142.1L-30.93,142.1L-30.89,142.4L-31.02,142.7L-31.12,143.3L-33.18,143.3L-35.92,143.3L-38.51,143.3L-40.25,143.3L-42,143.3L-42,100.1ZM141.1,184.2L140.9,184.4L140.1,186.1L140,186.4L140,186.5L140.4,186.8L140.2,187.4L140.1,187.5L140,188L140,188.5L140.2,188.6L140.8,188.8L141.6,189L142.5,189.4L143.1,189.5L143.3,189.7L143.3,190.2L143.4,190.6L143.4,191.4L143.2,192.1L142.3,192.4L141.8,192.7L141.6,192.9L141.8,193.1L141.8,193.3L140.9,194L140,194.9L139.8,195.5L139.6,196.1L139.3,196.6L138.6,197.2L137.8,198.5L137.5,199.3L135.7,201.3L134.1,202.3L133.6,202.7L130.8,202.6L130.6,201.3L130.2,199.4L129.2,197.8L129.1,197.1L129.1,195.7L129.1,193.8L129.1,192.9L129.1,192.1L129.2,190.8L129.2,190.1L128.6,189.2L127.8,188.3L127.4,187.8L127.3,187.4L127.3,187.1L127.5,186.6L127.8,186L128.1,186L129,186.2L129.8,186.7L130.3,187.7L130.7,187.9L131.4,187.9L133,187.7L133.5,187.7L134.2,187.5L135,187L135.2,186.6L135.4,185.5L135.5,183.7L135.9,183.6L137,184.3L137.2,184.3L137.4,184.3L137.8,184L138.3,183.7L138.6,183.7L139.8,183.4L140.5,184L140.9,184.2ZM93.69,324.7L93.5,325.2L93.37,325.9L93.53,326.4L93.89,327.1L94.4,327.7L94.82,328L95.28,328.9L95.76,330L96.37,330.8L98.18,332.8L98.4,333.5L98.63,334.2L99.79,335.5L99.95,336L99.89,336.9L101,339.6L101.8,341.2L102.5,341.5L104.6,343.2L106.4,344.6L108.5,345.5L110.1,346.1L110.9,346.6L111.3,347L111.6,347.8L111.8,349.3L111.8,350.2L113.5,350.2L114.9,350.3L115.4,350.4L115.6,350.7L115.5,351.3L115.5,352.2L115.6,353L115.5,353.7L115.3,354.7L115.3,355.8L115.5,356.3L116.9,357.7L117.4,358.6L118,360.1L118.4,360.5L118.7,360.7L119.9,360.9L123,361.4L124.9,362L126.5,362.6L127.1,362.7L127.4,362.9L127.5,363L127.3,364.2L127.4,364.6L127.6,365L127.8,365.3L128.2,365.5L129.3,365.6L130,366.3L130.5,366.7L128.4,366.9L127.3,367.5L126.7,368.6L125.8,369.5L124.5,370L123.1,370.4L121.7,370.6L120.1,371.5L118.5,373.3L117.7,374.4L117.6,374.9L117.3,375.2L116.6,375.6L116.2,376L116.1,376.4L115.7,376.7L115,376.6L114.6,377L114.3,377.7L113.8,378.1L112.9,378.3L112.1,378.7L111.4,379.3L110.9,379.6L110.6,379.6L110,380.2L109.2,381.4L109,382L107.8,386.6L107.1,387.2L105.9,388.2L104.8,389.3L104.4,390L103.9,390.3L101.5,390.9L100.6,391.2L99.53,391.6L99.27,392L99.02,393.5L98.27,395.6L97.66,397.1L97.28,398.5L96.6,400.1L96.02,400.7L95.34,401.2L94.47,401.5L93.28,401.6L92.21,401.6L91.37,401.6L90.21,402.2L89.11,402.2L87.41,401.9L85.99,401.6L85.37,401.5L84.15,400.4L83.34,400.4L82.15,400.3L81.47,400.1L80.83,399.5L79.47,398.4L78.12,397.5L76.92,397L75.83,396.8L74.8,397L73.96,397.2L73.63,397.3L73.02,397.8L72.38,398.7L71.83,400L71.64,400.9L71.02,402.6L70.22,404.8L69.86,405.4L69.41,405.8L68.7,406.2L66.44,407.9L65.31,409.8L64.6,410.4L63.73,410.7L62.99,410.8L62.6,411.1L62.15,412.1L61.77,412.5L61.31,412.6L60.02,412.5L59.6,412.4L56.15,412.6L55.12,412.3L54.38,412.1L53.22,412.5L52.7,412.3L52.32,411.5L52.12,409.9L52.19,408.5L52.83,407.4L53.35,406.7L53.86,405.7L53.96,405.3L53.83,404.9L53.73,404.1L53.67,403.2L52.93,401.4L52.03,399L50.8,396.3L50.45,395.6L49.67,394.4L46.83,392.2L46.41,391.9L46.41,391.7L46.38,389.6L46.38,386.7L46.38,383.9L46.38,381.1L46.38,378.3L46.38,375.5L46.38,372.7L46.38,369.9L46.38,367.2L46.38,364.8L48.41,364.8L50.93,364.8L53.96,364.8L55.28,364.8L55.35,364.4L55.35,362.7L55.35,358.8L55.35,354.9L55.35,351L55.31,347.1L55.31,343.2L55.31,339.3L55.31,335.4L55.31,331.6L55.31,329.7L57.6,329.6L60.28,329.2L64.6,328.5L68.6,327.8L71.25,327.3L74.34,326.8L75.41,326.7L75.7,326.7L76.12,326.9L77.57,328.9L78.47,330.3L78.67,330.9L78.83,331L79.25,330.9L79.73,330.7L81.18,329.2L81.5,328.8L82.44,328.1L83.57,327.4L84.6,326.9L85.63,326.5L86.12,326.6L86.66,326.9L87.15,327.2L89.5,325.4L90.57,325L93.31,324.7ZM-15.48,204.3L-15.64,204.4L-16.61,204.8L-17.67,205.2L-19.06,206.7L-19.77,207.4L-19.96,207.5L-20.61,207.9L-21.06,208.2L-21.02,208.4L-20.73,208.6L-20.41,208.9L-20.44,211.4L-20.57,213.8L-20.77,214L-21.64,214.1L-22.8,214.3L-23.18,214.4L-23.31,214.1L-23.7,213.2L-23.48,212.4L-23.25,211.8L-23.51,210.5L-24.09,209.3L-24.73,207.9L-24.93,207.6L-24.41,207.1L-23.6,206.1L-23.25,205.6L-22.35,205.4L-21.99,205.1L-21.73,204.5L-21.64,204.1L-20.61,203.8L-19.35,203.3L-18.64,202.8L-17.93,202.4L-17.51,202.4L-17.19,202.6L-16.38,203.5L-15.7,204.1ZM82.12,260.7L82.31,261.9L82.5,263.5L82.63,264.7L82.79,265.3L82.83,265.6L82.67,265.9L82.54,266.6L82.28,267.2L82.15,267.7L82.28,268.5L82.18,269.6L82.08,270.9L82.05,272.1L82.37,274.2L82.34,274.9L81.92,276L81.6,276.8L81.41,277.8L81.34,278.3L82.12,279.8L82.08,280.1L81.5,280.2L81.02,280.2L79.15,280.2L76.47,280.2L73.83,280.2L71.15,280.2L68.7,280.2L66.38,280.2L64.31,280.2L64.31,281.6L64.31,284.6L64.31,287.5L64.31,290.5L64.31,293.5L64.31,296.4L64.31,299.4L64.31,302.4L64.31,305.4L64.31,307.5L64.86,310.4L65.83,313.5L66.22,313.8L67.22,314.4L68.6,315.5L69.38,316.4L70.96,318L73.05,320L75.08,321.7L76.86,323.3L74.05,323.8L70.09,324.6L67.41,325.1L64.15,325.8L61.96,326.2L59.28,326.7L58.83,326.7L58.12,326.3L56.54,326.3L54.7,326.7L53.25,326.9L52.19,326.6L51.12,326.2L50.09,325.6L48.32,325.4L45.8,325.6L43.35,325.4L41,325L39.32,324.9L38.29,325L37.22,324.8L36.06,324.5L35.09,323.9L33.93,322.6L33.03,321.4L32.77,321.3L32.48,321.1L32.22,321L29.64,321L27.19,321L25.77,321L22.35,321L18.93,320.9L15.48,320.9L12.07,320.9L8.647,320.9L5.228,320.9L1.778,320.9L-1.641,320.9L-3.447,320.9L-5.157,321L-7.027,321.1L-7.285,321.1L-7.737,320.9L-8.027,320.7L-9.027,320L-9.93,319.5L-11.09,318.6L-11.87,317.7L-12.51,317.3L-13.67,317.2L-14.54,317L-15.22,317L-16.48,317.4L-17.41,317.9L-18.06,318.3L-19.22,318.8L-20.19,319.3L-21.86,319.2L-22.25,319.3L-23.18,319.3L-24.06,318.8L-24.96,318.9L-25.96,319.4L-27.41,319.6L-27.05,316.1L-26.7,314.5L-26.7,312.6L-26.93,307.8L-27.15,307.1L-27.31,306.4L-26.44,305.8L-25.99,305.3L-25.38,304.5L-24.96,303.4L-24.44,300.9L-22.57,295.3L-21.7,289.7L-20.57,287.1L-20.15,284.2L-17.06,280.4L-16.28,278.1L-14.67,277L-12.41,275.8L-10.77,273.6L-9.994,272.1L-9.091,269.3L-9.123,266.3L-8.543,262.4L-8.672,261.2L-9.51,259.6L-9.672,258.5L-10.45,257.4L-11.32,256.6L-11.7,255.1L-13.15,252.7L-13.57,251.2L-14.25,250L-14.38,248.7L-14.73,247.2L-15.45,245.7L-16.15,244.1L-16.15,243.6L-15.7,243L-15.32,242.8L-15.45,243.1L-15.7,243.4L-15.64,243.7L-12.93,240.8L-12.74,240.3L-12.83,239.6L-12.87,238.9L-12.74,238L-15.32,232.6L-17.38,227.7L-17.7,225.2L-20.41,221.9L-21.48,219.7L-22.09,218.2L-22.57,217.7L-22.38,217.4L-21.7,217.3L-20.12,217L-18.02,216.6L-16.06,215.7L-15.51,215.3L-14.48,215.3L-13.41,215.5L-13.03,215.3L-12.8,215.3L-10.32,215.3L-9.285,215.2L-7.382,215.3L-6.156,215.3L-5.479,215.4L-3.608,215.6L-1.286,215.6L-0.448,215.5L2.584,215.4L5.583,215.4L8.292,215.3L11.29,215.3L13.55,215.3L14.61,215.6L15.55,216.2L15.97,216.8L16.19,217L16.48,217.6L17,218L17.16,218.7L17.03,219.7L17.1,220.8L17.39,222.1L18.03,223.5L18.97,225L19.39,226.1L19.26,227L19.55,227.9L20.26,228.8L20.77,229.3L21.1,229.7L21.9,231.2L23.39,233.5L24.52,235.3L24.9,235.5L25.45,235.4L26.68,235.3L27.87,235.2L28.74,235.6L29.09,235.5L30.39,234.8L31.64,234.6L33,234.3L33.71,234L34.51,234L36.71,234.6L37.13,234.6L38.9,234.6L40.67,234.3L40.93,232L40.93,231.5L41.38,230.6L41.93,229.8L41.99,229.1L41.96,228.1L42.35,226.9L43.54,225.9L45.45,225.4L46.54,225.4L48.28,225.1L50.9,224.8L51.86,224.8L51.93,225L51.38,226.7L51.38,227.2L51.57,227.8L52.03,228.1L54.73,228.1L57.25,228.1L60.12,228.3L62.25,228.3L62.54,228.4L62.77,228.5L63.09,229.4L62.99,231L62.51,233.4L62.7,235.6L63.57,237.7L63.64,240.9L63.35,242.8L62.96,245.2L62.83,247.9L63.22,249.1L64.02,250.3L65.28,251.5L66.25,253.1L66.96,255.1L67.22,256.4L67.02,256.9L67.02,257.8L67.25,259L66.99,259.9L66.31,260.3L66.09,260.9L66.44,262L66.51,263L66.8,263.3L66.99,263.6L67.31,263.7L68.02,263.3L68.86,262.7L69.51,262.4L70.47,262.4L71.8,262.6L74.15,262.7L74.86,262.5L77.02,261.6L77.6,261.6L78.47,261.7L79.7,261.9L80.92,262L81.54,261.7L81.57,261.3L81.76,260.9Z" fill="#D8E2E7" stroke="#3F464B" stroke-width="0.85" vector-effect="non-scaling-stroke"/><path d="M221.3,218.1L221.9,220L221.8,220.4L221.3,220.6L221.1,220.6L220.8,220.3L220.6,219.7L220.2,219.8L219.6,219.1L219,219L218.4,218.1L218.6,217.3L218.5,215.9L219.2,215.2L219.6,214L220,214.9L220.1,216.1L220.7,217.6L221.2,218ZM224.5,206.7L224.6,207.2L224.4,207.6L224.5,208.9L224.4,209.9L223.9,211.1L223.5,211.5L223.1,211.4L222.8,211.2L222.6,210.9L223.1,208.6L222.8,206.9L223.8,207.1ZM162.3,247.4L161.8,247.1L160.8,246.6L159.5,246.1L158.5,245.6L158,245.1L156.9,244.9L156.1,244.8L155.2,244.3L154.4,244.3L153.6,244.2L153.4,243.8L153.4,243.1L153.1,243L152.5,242.8L151.8,242.8L151.4,242.9L151.2,242.8L150.6,242.4L150.1,241.9L149.9,241.1L149.1,240.5L148.3,240.1L145.8,240.1L145.4,240L144.8,239.6L144.2,238.9L143.6,238.1L143.1,237L142.9,236.4L142.6,235.6L142,234.3L141.2,232.6L140.5,231.2L139.8,229.7L139.5,228.6L139,227.4L138.1,225.9L137.6,225.3L137.1,224.8L135.8,223.8L134.4,222.8L133.6,222.1L132.5,220.1L132,219.4L131.8,218.1L131.5,216.8L131.6,216.2L132.6,214.5L132.7,214.1L132.5,213.4L132.1,212L131.7,211.2L131.5,210.4L131,209.1L130.3,207.4L130.1,206.6L130.1,206.1L130.5,204.6L130.8,203L130.8,202.6L133.6,202.7L134.1,202.3L135.7,201.3L137.5,199.3L137.8,198.5L138.6,197.2L139.3,196.6L139.6,196.1L139.8,195.5L140,194.9L140.9,194L141.8,193.3L141.8,193.1L141.6,192.9L141.8,192.7L142.3,192.4L143.2,192.1L143.4,191.4L143.4,190.6L143.3,190.2L143.3,189.7L143.1,189.5L142.5,189.4L141.6,189L140.8,188.8L140.2,188.6L140,188.5L140,188L140.1,187.5L140.2,187.4L140.4,186.8L140,186.5L140,186.4L140.1,186.1L140.9,184.4L141.1,184.2L141.5,184.2L142,184L142.6,183.9L143,184L143.3,183.9L143.6,183.6L143.8,183L144,181.9L143.9,181L143.5,180.3L143.4,179.3L143.6,177.9L143.4,176.7L143,175.8L142.5,175.2L141.8,174.9L140.7,173.5L140.4,172.8L140.4,172.4L140.7,172.3L140.8,172.2L141.5,172.3L142.2,172.1L142.8,171.7L143.4,171.6L143.6,171.7L143.7,171.7L144.7,171.7L146.3,171.7L147.8,171.7L149.5,171.7L151,171.7L152.6,171.7L154.2,171.7L155.8,171.7L157.4,171.7L159,171.7L160.6,171.7L162.2,171.7L163.8,171.7L165.4,171.7L167,171.7L168.6,171.7L170.2,171.7L171.1,171.7L171.8,171.7L172.5,172L173.2,172.4L175.1,173.5L177,174.5L178.9,175.6L180.8,176.7L182.7,177.8L184.6,178.8L186.5,179.9L188.4,181L190.4,182L192.3,183.1L194.2,184.1L196.1,185.2L198,186.3L199.9,187.4L201.8,188.4L203.7,189.5L204.6,190L204.8,190.2L204.9,191.2L205,191.8L205,192.3L204.5,193.2L204.3,193.7L204.3,194.1L204.4,194.2L204.9,194.2L205.3,194.4L205.4,194.6L205.7,195.3L206,195.6L206.8,196.2L208.2,197.2L209.6,198.2L211,199.2L212.3,200.2L213.7,201.2L215.1,202.2L216.4,203.2L217.8,204.2L218.5,204.7L218.8,204.8L218.6,205.5L217.9,207.4L217.9,208.1L217.6,209L217.3,209.6L216.6,212.2L216,213.2L215.2,215.4L215,217.2L215.5,218.4L215.7,219.5L216.6,220.7L217.4,221L217.9,221.6L218.8,222.7L219.4,223.9L221,224.5L221.7,225.8L221.4,226.7L220.7,227.4L220,228.6L219.4,230.2L219.3,232.7L219.8,232.3L220.6,232.9L220.7,234.7L219.8,236.8L219.6,237.8L219.5,238.6L220.2,241.1L221.2,242.4L221.1,242.8L220.8,243.1L222.5,245.4L222.4,247.4L223,248.9L223.3,250.2L223.7,251.3L223.8,252L223.3,252.7L224.5,252.9L225.2,253.6L225.6,254.2L226.5,254.2L227,254.6L227.7,254.9L229.2,256L229.6,256.5L229.8,256.8L229.9,257L228.9,257.8L227.2,259L225.6,260.2L224.1,261.1L223,261.4L221.8,261.7L220.7,262.2L219.7,263L218.3,263.4L216.7,263.4L215,264L213.3,265L212.3,265.6L210.6,264.7L209.4,264.4L208,264.4L207.1,264.6L206.8,264.7L206.5,265.3L206.3,266.3L205.4,267.2L203.7,268L202.2,268.3L200.8,268.1L199.9,267.8L199.4,267.3L198.7,267L197.7,267.1L196.8,267.4L196,268.1L194.5,268.4L192.6,268.3L191.6,268L191.5,267.4L190.6,266.8L189.1,266L188,266L187.3,266.7L186.6,267.2L186,267.4L185.5,267.4L185,267.2L184.7,267.2L182.6,267.1L180.6,267.1L180.5,266.8L180.4,266.1L180,265.4L179.6,265.1L179.2,265L178.9,265L178.7,264.7L178.5,264L178.2,263.5L177.7,263L177.5,262.6L177.4,262.2L177.4,261.8L177.8,260.7L178,260L177.9,259.2L177.7,258.4L177.2,257.5L177.3,257.3L177.1,256.6L177.1,256.2L177.2,255.7L177.1,254.9L176.7,253.4L176.7,253L176.3,252.3L174.9,250.5L174.9,250.3L172.8,248.5L172,248.2L171.6,248.5L171.6,248.8L171.6,249.4L171.6,249.6L171.5,249.8L171,249.7L170.7,249.7L169.9,249.2L169.3,249.1L167.8,249.2L167.2,249.3L166.8,249.2L166,248.4L165.1,248.2L164.2,248.2L162.8,247.2L162.5,247.3ZM223.2,234.4L222.7,234.5L222.5,234.4L222.2,234L222.7,233.7L223.2,233.1L224.4,232.2L224.8,231.6L224.9,231.4L224.8,232.1L224.2,233.7L223.6,233.8Z" fill="#8B341D" stroke="#2C160F" stroke-width="1.1" vector-effect="non-scaling-stroke"/></svg>