<svg xmlns="http://www.w3.org/2000/svg" viewBox="0 0 360 440" width="360" height="440" role="img" aria-label="Regional map with Uruguay highlighted"><rect width="100%" height="100%" fill="#7FA6D6"/><path d="M147.6,482L147.1,481.8L146.4,482L146.4,482L142.6,482L142.6,482L143.1,481.2L142.7,480.5L145.3,478.2L145.8,477.5L146.6,477.1L147.4,477L147.8,476.7L147.7,476.1L147.4,475.2L147.4,473.6L149.5,471.5L149.2,470.2L149.8,470.1L149.8,470.1L151.3,471L153.2,470.7L154,471L154.5,471.8L154.2,472.5L153.6,472.4L153.1,472.5L153.2,473.5L153.5,473.9L155.5,474.9L155.9,475L155.8,474.6L155.5,473.9L155.3,473.1L155.7,472.4L156.2,472.2L158.4,471.9L158.9,472.2L160.1,474.1L159,474.3L158.6,475.1L159.5,475.4L160.2,475.9L159.8,476.7L159.8,477.1L158.1,477.6L156.7,478L156,478.9L154.9,479.5L151.5,480.7L151.9,481.6L151.9,482L147.6,482ZM129.8,482L131,480.8L132.7,480.9L134.1,479.7L135.2,479.1L135.7,478.5L136.2,478.1L136.2,477.5L135.8,477.2L135.3,477.2L134.8,477.5L133.6,477.8L132.8,477.1L133.3,476.9L133.9,476.9L135.8,476.2L136.1,475.9L135.6,475L134.5,474.5L133.5,473.5L133.4,473.2L133.4,472.6L132.9,471.5L133.5,471.4L134.2,472.2L135.7,473.1L135.7,473.1L137.2,473.4L138.5,472.4L139.4,472L140.1,472.2L140.6,472.9L141.4,472.8L143.5,472.1L143.8,472.4L144.6,471.6L145.2,471.9L145.7,472.6L145.5,473.4L144.9,473.9L144.5,474.7L144.1,475.2L143.3,475.8L142.7,476.6L141.3,478.6L139.3,481.2L138.6,481.4L137.2,481.6L136.6,481.4L136.1,481.5L136,482L129.8,482ZM128.5,478.3L129.2,478.5L129.9,478.4L129.6,480.1L129.2,480.8L128.4,480.8L127.6,479.7L127.3,479.1L128.2,478.7ZM153,482L153.3,481.7L153.7,481.7L153.9,481.9L153.9,481.9L153.9,482L153,482ZM137.4,472.1L136.1,472.1L135.8,471.6L135.8,470.3L136.8,470.2L137.9,470.7L137.8,471.3ZM3.541,-42L3.714,-41.9L3.75,-41.43L3.608,-40.97L3.184,-40.76L3.148,-40.36L3.714,-39.88L4.068,-39.52L4.457,-39L4.776,-38.3L4.776,-37.83L5.165,-37.24L5.377,-36.76L5.377,-36.3L5.979,-35.83L6.509,-35.49L6.863,-35.17L7.252,-34.97L7.323,-34.62L7.287,-34.11L7.818,-33.24L8.809,-32.59L9.587,-31.64L10.08,-30.96L11.04,-29.86L11.07,-28.6L9.905,-27.15L8.738,-25.69L10.65,-25.75L12.63,-25.71L14.68,-25.3L16.06,-24.9L16.88,-24.71L17.48,-24.26L17.76,-23.53L18.01,-22.94L18.04,-22.08L18.93,-21.39L18.86,-20.73L18.82,-19.79L19.21,-19.77L21.72,-19.77L24.48,-19.77L27.1,-19.95L28.09,-20.17L29.29,-21.3L30.04,-21.65L30.74,-22.16L31.59,-23.13L32.26,-23.57L32.83,-24.1L33.64,-24.64L34,-25.04L34.28,-25.18L34.95,-25.43L34.67,-24.92L34.46,-24.38L34.39,-23.62L34.7,-22.77L34.42,-22.15L34,-21.59L34,-20.12L34,-18.02L34,-16.22L33.96,-13.98L33.96,-11.43L33.96,-9.729L34.42,-10.08L35.02,-10.37L35.84,-9.59L36.4,-9.242L36.9,-9.173L37.43,-9.19L38.1,-9.364L39.62,-10.01L40.65,-10.55L41.85,-10.51L43.48,-10.3L44.4,-10.32L45.64,-8.147L46.52,-6.564L47.55,-4.737L48.4,-3.274L49.63,-1.061L50.73,0.857L51.86,2.917L53.17,5.24L52.78,5.834L52.43,6.306L52.46,7.11L51.93,7.53L51.4,7.792L50.73,8.457L50.31,9.052L50.27,9.874L50.38,14.11L50.27,15.27L49.92,16.25L49.56,16.76L49.35,17.15L49.88,18.13L50.34,20.12L50.7,20.51L51.16,21.32L51.37,22.09L51.26,22.37L50.38,22.74L50.06,23.06L49.95,24.18L49.56,24.59L48.93,25.14L48.5,25.75L48.15,26.18L47.8,26.42L47.62,27.16L47.37,27.94L46.56,28.43L46.41,29.37L46.41,30.14L46.84,30.9L48.26,32.53L48.4,32.92L47.58,33.91L47.12,34.58L45.99,36.65L45.95,37.04L46.24,38.02L47.97,42.24L48.26,42.58L48.78,42.98L49.63,42.93L50.94,43.39L51.58,43.91L51.65,44.18L51.51,44.34L50.8,44.69L50.02,45.15L49.78,45.58L49.7,46.27L49.88,47.29L49.56,47.61L48.78,48.02L48.15,48.59L47.48,49.53L46.34,50.98L45.95,51.37L45.78,51.87L45.14,52.03L43.94,53.01L43.76,53.51L43.94,54L44.54,54.39L44.96,54.96L45.07,55.69L45.07,56.16L44.33,56.86L43.37,57.64L42.17,57.81L41.71,58.2L41.82,59.04L42.2,60.22L42.2,61.16L41.85,62.23L41,63.4L39.69,64.19L38.45,64.62L37.5,64.62L36.55,64.71L36.16,64.84L35.45,64.14L32.23,61.8L31.03,60.56L29.89,59.97L27.13,57.98L26.85,57.34L26.53,55.3L26.14,54.73L25.22,54L22.82,53.01L21.9,52.51L20.94,51.62L19.53,50.98L17.97,49.7L17.05,48.64L16.03,47.97L12.81,47.01L11.21,46.04L8.207,44.69L6.863,43.82L3.644,42.77L2.688,42.27L-0.496,39.83L-2.689,39.01L-4.493,37.64L-9.906,34.7L-10.76,33.77L-11.57,32.34L-12.77,31.47L-14.12,29.49L-16.13,28.33L-18.04,26.79L-18.75,25.38L-20.02,23.6L-20.41,22.65L-21.55,21.72L-21.62,19.84L-22.39,18.98L-21.83,18.55L-21.23,18.36L-20.48,15.46L-20.91,14.01L-22.89,11.36L-23.63,10.1L-24.16,8.474L-24.94,7.512L-26.14,5.484L-26.89,3.702L-28.48,2.393L-28.9,1.922L-29.15,1.258L-30.04,0.805L-30.07,-0.573L-30.67,-3.187L-31.56,-4.511L-34.74,-6.947L-34.81,-7.904L-35.06,-9.625L-35.77,-11.47L-39.27,-17.23L-40.19,-18.94L-41.07,-21.73L-41.85,-23.31L-42,-23.78L-42,-42ZM156.6,83.78L156.8,84.54L157,85.12L157.3,85.54L157.6,86.1L157.9,86.41L158.2,86.92L158.1,87.52L158.2,88.27L158.4,88.95L158.6,89.11L159,89.29L159.3,89.89L159.1,90.19L159.2,90.53L159.3,90.88L159.2,91.21L159.2,91.46L159.6,91.68L159.9,92.52L159.9,93.95L159.6,94.72L159.3,95.34L159.2,95.72L159.4,96.29L159.1,96.95L158.7,97.76L158.8,98.31L158.9,98.84L158.9,99.39L159,99.92L158.9,100.5L158.7,101L158.7,101.5L158.8,102.2L158.6,102.8L158.4,103.2L158.3,103.6L158.6,104.3L159.4,104.5L159.9,104.6L160.5,104.3L160.9,104.2L161.7,104.5L162.4,105L163.3,105.1L164.2,105.2L164.8,105.4L165.7,105.2L166.6,105.4L167.7,105.7L168.6,106L169.5,105.9L170.2,105.9L170.9,105.6L171.6,105.6L172.1,105L172.4,104.5L172.7,104.2L173.5,103.9L173.9,104.1L174.4,105L175.1,105.5L175.4,105.9L176,106.1L177.2,106.1L177.9,106.1L178.8,106.4L179.3,106.4L179.8,106.9L180.3,107.5L180.3,108.5L180.7,109.4L181.3,109.7L181.6,110.2L181.5,111L181.2,111.7L181.3,112.5L181.6,113.3L181.6,114L181.8,114.8L182.2,115.4L182.3,116.4L182.2,117.2L182.5,117.6L182.6,118.2L182.4,118.7L182.3,119.3L182.4,120L182.6,120.4L183.1,121.1L183.3,122.2L183.3,123L183.6,123.9L184.1,124.4L184.8,124.5L185.8,124.6L186.9,124.4L187.9,124.2L188.4,123.9L189.5,123.3L190.4,122.9L190.9,122.6L191.4,122.4L192.3,122.9L193.2,123.4L193.9,124.2L195.1,125L194.9,125.2L194.4,125.8L194.4,126.6L194.8,127.8L194.4,130.1L193.4,133.8L193.1,136L193.2,136.6L192.8,137.6L191.5,140L191.5,141.5L191.3,146.2L190.8,149.5L190.1,152L189.4,153.3L188.8,153.4L188.3,153.9L188,154.5L187.5,155L186.8,155.4L186.4,155.9L186.3,156.4L185.6,156.7L184.3,156.8L183.5,157.2L183.3,157.9L182.8,158.4L182.1,158.8L181.8,159.4L181.8,160.3L181.4,161.1L180.6,161.7L179.9,161.7L179.2,161.1L178.3,160.7L177.2,160.5L176.3,160.7L175.5,161.2L174.8,162L174.2,163.1L173.6,163.2L172.8,162.5L171.9,162.3L170.8,162.6L169.9,162.5L169.3,162L168.3,161.9L166.9,162.3L164.2,161.9L160,160.6L156.5,160.1L152.3,160.6L151.9,159.3L152.1,158.6L152.8,158.1L153.3,157.4L153.4,156.8L153.9,156.3L154.7,155.9L155,155.6L154.9,155.2L155.1,154.9L155.5,154.6L155.8,154.2L155.8,153.6L156,153.3L156.3,153L156.3,152.6L156.2,151.4L156.2,150.3L156.4,149.5L156.7,149L156.9,148.9L157,148.6L157.1,148.1L157.4,147.7L158.7,146.7L159.3,146.2L159.3,145.8L159.5,145.1L160.3,143.8L160.6,143.1L160.6,142.8L160.9,142.5L161.9,141.8L162.4,141.1L162.5,140.4L162.2,139.7L161.7,138.8L159.9,136.7L158.6,135.8L156.9,135L155.7,134.8L155.2,135L154.6,134.8L154,134.1L153.1,133.6L151.1,132.9L146.5,130.5L144.7,129.4L144.1,128.6L142.4,127.3L139.6,125.5L137.4,124.6L136,124.6L133.6,124.1L130.3,122.9L128.4,121.8L127.9,120.8L126.7,119.7L124.7,118.6L123.8,117.9L123.7,117.6L123.1,117.2L122,116.6L120.8,115.7L119.6,114.4L118.2,112.3L116.8,109.6L115.2,107.8L113.6,106.8L112.7,106.2L112.7,105.9L112.5,105.6L112.7,105.1L113.3,103L114.2,99.98L115.1,96.88L116.2,93.24L116.2,90.66L116.2,87.94L117.7,85.72L118.8,84.14L119.7,82.63L120.6,80.06L121.3,78.35L123.7,77.94L127.8,77.05L129.8,76.61L134.1,75.67L138.5,74.71L143.1,74.66L147.5,74.61L150.9,76.72L153.5,78.35L156.4,80.15L156.6,80.53L156.8,82.03ZM11.66,482L12.31,481.1L12.81,480.9L13.37,481L13.8,481.5L13.8,482L11.66,482ZM14.51,482L14.47,481.8L14.47,480.8L15.46,479.9L15.74,479.3L15.81,477.9L15.28,477L13.13,474.9L9.552,472.8L9.127,473L8.844,473.4L9.198,473.7L9.658,473.8L12.84,475.6L13.69,476.6L14.22,476.9L14.89,477.5L14.72,478.5L11.5,479.4L8.95,481.5L8.258,482L5.524,482L5.524,482L5.059,481L4.387,479.4L3.396,478.4L2.83,478.5L2.37,478.3L1.981,477.8L1.238,478.3L-0.496,477.1L-0.955,476.6L0.283,475L1.662,475.6L1.981,471.1L1.556,470.1L-0.248,469L-1.097,469.1L-2.3,469L-3.113,468.5L-4.033,468.2L-4.812,467.9L-5.838,467.3L-7.04,466.9L-8.703,464.1L-9.411,462.6L-9.8,461L-7.253,460.9L-5.767,460.6L-5.413,460L-5.944,458.7L-6.651,457.7L-6.121,456.7L-5.378,456L-4.599,456.3L-2.618,457.9L-2.3,459L-0.92,462.4L-0.566,462.8L-0.425,463.1L2.476,465L2.865,465L2.688,463.4L3.502,461.2L4.316,460.5L4.705,460.5L4.74,460.1L3.962,459.2L4.351,458L4.104,458L3.431,458.8L2.016,462.5L1.167,463.2L0,461.5L-0.637,460.3L-0.991,459.8L-0.849,457.9L1.45,458.3L0.672,457.7L-2.052,456.6L-2.724,456L-3.22,455.8L-4.104,454.5L-5.236,453.4L-3.29,451.5L-2.335,450.1L0.778,450.8L1.379,450.4L0.849,449.4L0.247,449.7L-0.708,449L-2.229,447.1L-2.158,446.2L-1.911,444.4L-1.309,444.1L-0.036,443.7L1.415,444.3L2.016,444.7L2.582,444.5L2.016,443.2L1.061,442.7L0.035,441.8L0.141,440.8L0.46,439.9L0.743,439L0.92,437.7L0.813,436.7L1.096,436.2L1.556,436L1.592,435.6L0.672,435.7L0.354,437L0.247,438.2L-0.425,439.1L-0.672,440.1L-0.849,441.4L-1.203,442.8L-2.017,442.3L-2.477,441.7L-2.654,441.4L-2.547,440.6L-2.76,436L-2.795,432.2L-2.406,429.3L-1.274,428.1L-0.779,427.8L-0.319,427.9L0.389,427.9L0.884,427.5L-0.708,426.8L-1.698,427.2L-2.406,427.8L-3.715,427.3L-3.963,425.8L-4.705,424.5L-4.847,422.9L-4.776,420.5L-2.972,420.7L-1.486,421.2L2.405,421.1L5.589,423.4L7.004,423.1L6.934,422.6L5.872,422.1L5.2,420.8L4.811,420.4L4.599,419.6L4.563,418.7L3.75,415.5L3.431,415.5L3.113,416.6L2.476,418.5L1.556,419.4L0.141,419.8L-1.274,420L-2.477,419.7L-2.76,418.9L-2.724,418L-3.255,417.6L-4.635,417.2L-5.024,417L-5.484,416.1L-4.812,414.9L-4.281,414.2L-3.644,414.3L-3.007,414.6L-2.194,415.6L-1.415,415.8L-0.531,415L-0.354,414.5L-0.92,414.2L-1.415,414L-2.229,413.6L-3.786,412.2L-3.007,410.7L-1.168,409L-0.602,408.6L-1.097,407.1L-0.531,405.6L-1.097,404.3L-2.123,402.9L-3.503,402.6L-3.786,403L-3.856,403.6L-3.644,404L-3.75,404.3L-4.069,404.3L-5.838,404L-7.005,403.1L-8.915,402.2L-9.163,401.6L-9.375,400.6L-8.703,398.9L-9.057,398.9L-10.29,400.2L-12.17,400.9L-13.59,401.1L-14.19,401.6L-14.43,402.1L-14.04,402.3L-13.27,402.4L-12.66,404L-12.81,404.6L-13.09,405L-13.76,405.1L-15.11,404L-15.81,402.7L-15.81,401.7L-15.32,400.4L-13.16,398.5L-12.56,397.8L-11.29,396.9L-9.588,395L-8.137,393.9L-8.845,393L-9.588,391.7L-9.517,389.9L-6.545,389.2L-5.236,389.5L-3.573,389.4L-2.654,389L-2.017,388.9L-0.602,388.4L0,387.7L0.141,387.1L0.141,386.6L0,386.1L-0.248,384.6L0,384.1L0.601,383.5L1.379,383.3L1.733,383.3L2.688,383.9L2.476,384.7L2.122,385.6L1.344,389.3L0.955,390.2L0.354,390.9L0.778,392.5L0.141,393.5L-2.547,394.7L-2.901,394.7L-2.689,395.2L-1.132,395.1L0.07,394.8L1.273,393.9L1.662,392.4L2.158,389.5L2.795,389.1L3.573,389L3.962,389.7L3.82,391.2L3.82,392.7L2.83,397L1.592,398.8L1.45,399.2L1.521,399.8L2.476,399.7L3.219,398.8L3.75,397.6L4.28,395.9L4.21,394.7L4.387,393.9L4.599,391.5L4.988,390.2L4.953,388.5L4.28,387.9L3.361,387.5L3.113,386.4L3.608,384.3L5.377,384.4L7.075,383L8.172,382.5L8.809,382.6L11,383.9L11.43,384L11.36,383.5L11.04,383.1L10.15,382.7L8.561,381.2L6.403,381L6.792,379.1L7.217,377.3L8.278,377.1L10.01,376.5L13.34,374L13.94,372L14.08,369.8L12.49,369.3L10.79,367.9L9.41,367.1L8.172,366.2L8.42,364.8L8.596,362.5L10.12,362L10.82,358.9L9.799,356.5L10.05,354.7L11.39,353.2L11.6,352.1L11.99,351L13.16,350.9L13.2,350.2L13.09,349.1L12.31,347.7L12.28,345.9L13.02,343.7L14.19,343.8L14.4,343.7L13.59,342.4L12.91,341L13.02,340.4L13.65,339.9L14.4,339.6L15.21,340.4L16.38,342.8L16.56,342.1L16.1,339.7L15.71,336.7L14.47,337.1L13.37,336.9L12.95,336.5L12.52,335.8L12.91,335L13.3,334.4L14.12,333.6L15.85,333.3L17.09,332.4L17.48,330.4L17.09,330.6L16.41,332.3L15.28,332.9L14.72,332.8L14.04,332.5L12.7,331L11.96,330.6L11.25,330.6L10.65,331L9.092,333.6L8.42,334.1L5.66,334.3L4.67,334L3.573,333.6L3.679,332.9L4.033,332.2L4.634,331.9L4.67,331.5L3.82,331.4L2.83,330.6L2.37,329.7L2.193,328L1.309,325.4L1.132,323.5L1.733,322.2L3.078,317L3.502,314.3L4.21,312L4.21,310.5L6.049,309.1L6.757,308.2L8.349,303.6L8.561,301.1L6.049,293.5L5.66,292L5.554,290.2L6.155,287.3L6.226,286.2L5.695,284.5L4.28,281.9L4.245,280.6L4.846,279.2L4.28,277.5L4.563,276.4L4.882,275.6L7.111,276L8.137,275.8L8.667,275.3L9.092,273.9L9.304,271.7L9.446,270.8L9.622,269.4L10.72,268.9L11.11,267.6L12.03,265.8L12.95,260.8L13.9,259.6L14.86,258.1L14.47,256L15.11,255.1L15.64,254.3L16.13,253.1L16.8,251.9L18.43,250.1L18.82,248L20.06,244.4L20.31,242L20.7,240.5L20.59,239L21.33,237.2L22.04,235.7L22.29,234.9L23.91,232.9L24.2,231.4L23.6,230.3L23.6,228.7L23.14,226.4L24.2,225.5L24.62,224.9L26,221.3L25.9,219.9L26.29,218.1L25.4,216L25.26,211.4L24.76,207.8L23.95,204L24.02,201.9L23.49,199.3L23.49,197.8L23.88,194.4L26.5,192.3L27.03,189.9L27.35,186.7L27.24,184.4L26.96,183.3L25.68,181.6L25.33,178.6L25.58,177.8L26.67,176.9L27.42,175.7L27.81,173.9L28.62,172.4L28.94,168.9L29.57,166.1L29.93,165.2L30.99,164L31.17,163.6L31.34,162.7L31.27,160.5L31.45,159.2L32.26,156.6L32.37,155.4L33.29,152.7L33.5,150.8L33.93,149.8L33.75,148.6L34.03,146.1L33.4,144.6L33.25,143.8L34.03,141.2L34.6,140.6L35.45,139.3L35.84,138L35.91,137.1L34.78,132.9L34.63,131.4L34.88,128L35.27,125.9L35.16,124.1L35.27,123.2L35.48,122.1L36.23,120.8L36.4,119.8L36.16,119.4L35.24,118.9L34.49,117.7L34.42,116.5L34.67,115.6L34.74,114.4L35.84,114.1L36.44,113.4L37.01,112.1L37.71,109L38.03,105.1L38.45,102.8L38.74,101.7L38.99,99.3L39.41,97.74L39.48,96.31L39.41,95.21L38.35,89.66L38.35,87.61L38.81,84.45L38.81,80.02L38.74,78.98L38.31,78.01L38.21,76.7L37.57,74.41L36.97,69.84L36.97,67.43L36.72,65.38L36.16,64.84L36.16,64.84L36.55,64.71L37.5,64.62L38.45,64.62L39.69,64.19L41,63.4L41.85,62.23L42.2,61.16L42.2,60.22L41.82,59.04L41.71,58.2L42.17,57.81L43.37,57.64L44.33,56.86L45.07,56.16L45.25,57.34L46.59,58.9L47.02,60.67L47.34,60.91L49.17,61.78L49.21,62L48.93,62.32L48.68,62.75L48.86,63.36L49.17,64.19L49.32,64.94L49.49,65.74L49.7,66.96L49.85,68.06L50.31,69.68L50.41,70.69L50.41,71.3L50.77,71.9L51.47,72.6L52.46,73.31L53.24,74.15L53.81,74.71L54.55,75.18L55.08,75.6L55.3,75.89L55.37,76.13L55.15,76.36L54.27,77.46L53.07,79.13L53.07,79.35L54.23,80.55L54.41,81.03L54.41,81.71L54.02,82.52L52.78,82.78L52.5,83L52.46,83.27L52.75,83.61L52.71,84.41L53.17,85.3L52.92,85.59L52.46,86.01L52.46,86.41L52.61,86.85L53.1,87.22L55.01,88.47L55.15,88.64L55.12,88.76L54.38,89.6L54.3,90.11L54.34,90.97L54.45,91.52L54.69,91.74L55.65,91.99L56.85,93.91L57.98,95.71L57.98,97.26L58.09,99.06L58.83,100.5L58.94,101.6L59.15,102.9L60.03,103.7L60.39,105.3L60.46,106.1L60.42,106.6L61.1,108.3L61.17,109.8L60.99,110.9L61.03,111.4L61.1,111.8L61.7,112.2L61.95,112.5L62.8,112.6L64.03,112.6L66.19,112.2L67.82,111.8L69.66,113.8L68.88,116.4L67.61,120.5L66.61,123.8L66.44,124.2L66.26,124.8L64.14,125.7L61.03,127.1L59.47,127.8L57.45,128.7L56.99,129.4L56.39,129.8L55.76,130.3L55.54,130.9L54.94,131.3L54.41,132.5L54.41,133.5L54.73,134.2L55.33,134.4L55.54,135.3L55.72,135.8L56.14,136.3L56.04,136.6L55.68,136.9L55.05,137L54.62,137.8L54.09,139.8L54.02,140.5L54.59,142.3L54.91,143.3L55.72,146.9L55.86,147.8L54.73,149.2L54.27,150L54.09,150.7L54.09,151.3L54.2,151.8L55.15,153.5L56.25,155L56.78,155.8L56.78,156.8L56.53,157.4L55.93,157.7L54.66,158.1L54.09,158.7L53.53,158.8L52.96,158.3L52.36,158.4L51.62,158.8L51.33,159.8L50.66,161.6L50.09,162.1L49.67,163.4L48.93,165.4L48.57,166.5L48.4,167.4L47.62,167.9L46.73,169L46.06,170.1L45.81,170.3L45.28,170.4L44.93,171.4L43.66,172.8L43.34,174.5L42.88,175.4L42.81,177L42.1,179.9L41.96,180.6L41.25,181.1L40.3,182.2L40.01,183L40.44,185.5L40.97,188.1L41,189.3L40.79,190.9L40.65,191.6L41,191.9L41.6,192.1L41.82,192.7L41.36,193.1L41.18,193.9L40.68,194.8L39.27,195.1L38.77,194.8L38.6,195.1L38.67,195.7L38.35,196.4L37.61,198.4L37.15,200.2L36.86,201L36.97,201.6L37.22,202L37.22,202.4L36.83,202.8L36.44,203.5L36.05,203.6L35.63,203.4L35.16,203.8L35.06,204.6L34.81,205.7L34.7,207L34.53,208.6L35.09,209.7L35.84,211.8L36.4,212.3L37.01,212.2L37.5,212.6L37.78,213.1L37.39,214L36.76,214.1L36.69,214.6L36.9,215.7L37.11,216.7L37.75,217.2L37.99,218.6L38.6,219.1L38.53,220.9L39.13,223L39.76,223.6L40.05,223.9L39.87,224.8L39.34,225.6L39.23,226.8L39.45,227.6L40.08,228.4L40.58,228.5L41.28,228.2L42.03,228.6L42.13,229.3L42.24,229.9L41.85,230.8L41.43,232.3L41.32,233.9L41.43,236.2L41.64,238L41.67,239.2L41.71,239.7L41.46,240.1L40.79,240.3L40.22,240.3L39.76,240.6L39.66,241.2L39.27,242.2L38.88,242.9L38.21,244L37.78,245.1L37.43,245.8L37.46,246.3L37.22,247.2L36.93,248L36.4,250.7L35.7,251.3L35.09,251.6L34.81,251.9L35.02,252.7L35.66,252.9L35.87,253.5L35.77,254.4L36.19,255.3L36.16,256.3L36.55,258.3L36.19,259.6L36.3,260.7L36.3,261.8L35.77,262.7L34.74,262.8L34.17,263.6L33.18,264.5L33.08,265.2L32.9,265.8L32.51,266.1L31.88,266.1L31.38,266.2L30.67,267L29.89,267.4L29.72,268.1L29.79,268.9L29.4,269.4L28.87,270.3L28.55,271.4L28.87,272.3L29.22,274L29.29,274.7L28.83,276.1L28.48,277L28.83,278.1L29.11,278.8L28.83,280.2L28.62,281.1L28.8,282.7L29.5,284.5L30.18,286.2L30.25,288.1L30.42,289.6L30.74,291.2L31.41,291.9L31.95,292.4L31.84,293.2L31.45,294.2L30.92,294.9L29.57,295.1L28.51,295.8L27.63,296.3L26.96,296.8L26.5,297.4L26.25,298L26.43,300.8L26.32,301.8L25.86,303.3L25.44,304.5L25.26,304.8L25.22,305.4L25.15,305.9L24.66,306L24.02,305.8L23.63,305.9L23.35,306.3L23.6,307.2L23.84,308.8L24.16,309.5L24.09,310L23.95,311.2L23.53,312.2L22.92,312.2L22.57,312.6L22.39,313.2L22.57,314.1L23.35,314.8L23.6,315.3L23.49,315.9L22.89,316.1L22.54,316.6L22.22,317.7L21.76,318.9L21.3,319.9L21.19,321.1L21.86,322.5L21.79,323.8L21.72,327.7L21.69,329L21.86,331.2L21.61,331.8L21.47,332.4L22.15,334L22.89,336.6L23.07,337.6L22.96,338.3L21.97,338.9L21.16,339.2L20.7,338.8L20.34,338.9L19.99,339.7L19.56,340.3L19.39,341L19.85,341.7L20.09,343.3L19.56,343.9L19.21,344.7L19.35,345.6L19.49,347.3L19.17,350.2L19.6,351.2L20.09,351.7L21.61,352.3L22.75,352.6L23.07,353.5L22.92,354.3L22.39,354.7L21.55,355L21.55,356.2L22.25,357.4L23.07,358.3L23.24,359L23.21,359.8L22.64,360.5L23.42,361.9L23.77,362.9L23.42,363.7L22.89,364.8L22.46,365.3L22.46,365.9L22.29,367.2L22.25,368.4L22.39,369.1L27.24,369.7L28.34,369.9L28.97,370.7L28.87,371.6L28.27,372.5L27.88,374.3L26.92,374.7L25.97,374.2L24.94,374.3L24.02,374.5L22.75,374.5L21.05,374.8L19.99,374.5L19.92,375.2L20.2,376.3L22.46,376.7L24.59,377.4L25.22,378.6L26.07,380L26.96,380.9L26.99,382.3L25.61,383.8L25.44,384.8L23.63,385.1L23.1,385.7L22.85,387.8L23.07,389.4L23.77,390L24.23,391L23.7,392.3L22.5,393.1L21.83,393.9L22.25,394.6L22.78,395.6L22.96,396.2L23.24,397.7L23.6,399.9L23.56,400.9L23.24,401.7L22.04,402.9L21.19,403.5L21.05,405L20.98,406.2L21.05,407.2L21.58,408L21.55,408.9L20.84,409L20.2,409.4L19.6,410.9L17.83,412.4L17.23,413.1L17.26,414.2L16.56,415.9L15.99,417.3L15.53,418.7L15.6,420.1L16.59,420.7L17.41,422.1L17.72,423.9L17.12,425.9L15.71,426.7L14.89,427.5L14.65,428.2L14.86,430.3L14.79,431.3L14.57,432.2L14.22,433L13.44,433.8L12.1,434.5L10.97,435L10.47,435.5L9.87,436.8L9.339,438.1L9.446,439.8L6.262,440L6.049,441.3L5.342,442.3L5.129,444.1L5.837,445.8L6.155,447.3L5.589,449.1L5.802,450.9L5.872,452.4L7.004,454L7.712,456L8.101,457.7L8.313,459L8.596,459.9L9.056,460.8L9.269,461.8L9.976,462.2L11.21,461.2L12.1,460.5L12.7,460.3L14.5,460.4L15.6,459.8L16.1,459.9L16.77,460.2L17.26,461L17.65,462.6L17.9,464.5L17.58,466.4L17.09,466.8L16.91,467.4L17.09,468.6L17.65,469.4L17.62,470.6L17.02,473.3L16.59,474.4L17.34,475.7L17.97,476.8L19.28,477.6L20.34,478.8L21.09,479.8L20.91,481.1L21.4,481.5L23.38,481.5L26.36,481.6L30.99,481.7L35.52,481.7L40.65,481.8L41.05,482L14.51,482ZM3.184,355L2.441,355.3L1.769,355.3L1.061,355.1L-0.177,355.1L-1.38,354.6L-2.512,353.9L-2.83,353.4L-2.724,352.8L-1.875,351.4L-1.097,348.7L-0.566,344.8L-0.991,343.4L-0.955,342.8L-0.743,342.1L-0.672,341.3L-0.708,340.6L-0.602,339.9L0.247,338.4L0.389,337.7L0.389,337L0.778,335.6L0.672,335.1L0.354,334.7L0.601,334.3L3.608,335.4L5.589,335.6L5.695,336.7L6.085,337.6L6.332,339.2L6.615,339.5L6.474,340.7L5.554,341.2L5.625,342.2L6.155,343.2L5.377,343.5L4.563,343.7L4.351,344L3.75,344.2L3.042,344.8L3.254,345.3L4.174,346.4L5.2,347.1L5.766,348.3L6.509,349.5L6.155,350.2L5.483,351.3L4.387,352L3.431,352.5L3.537,354.3ZM-3.715,437.5L-3.644,439.8L-3.786,442L-4.175,444.7L-4.104,445.3L-3.68,445.4L-3.538,445.7L-3.68,447.2L-3.927,448.3L-4.387,449.2L-4.635,450.3L-4.882,450.6L-5.944,450.7L-6.545,450.6L-7.005,449.4L-7.147,448.6L-7.111,447.6L-7.677,446.3L-7.713,445.8L-7.5,444.9L-7.005,444.4L-6.934,443.1L-6.722,442.7L-6.191,442.1L-6.121,441.9L-6.156,441.7L-6.333,441.7L-8.491,443.3L-8.668,443.8L-8.774,444.4L-8.809,446.7L-9.163,448L-9.517,448.2L-10.51,448.3L-11.82,448.1L-13.3,447L-14.26,447.3L-14.47,445.8L-13.97,444.7L-12.17,444.8L-11.89,442.8L-12.45,442.3L-13.09,441.5L-13.44,440.7L-13.13,440.2L-12.06,439.4L-11.53,439.3L-11,439.7L-9.729,439.4L-9.8,438.1L-10.93,437.5L-10.68,436.6L-9.234,435.7L-8.385,434.7L-8.314,433.7L-8.668,432.6L-8.562,432.2L-7.854,431.3L-6.828,430.9L-6.368,431L-5.448,431.6L-4.599,431.7L-4.422,431.8L-4.246,432.5ZM-13.87,431.8L-15,431.8L-15.25,429.2L-13.97,425.3L-13.87,423.9L-14.29,422.8L-14.47,421.9L-14.36,421.5L-12.7,420.8L-12.21,421.6L-11.57,423.7L-10.4,426.8L-10.44,429.7L-11.07,430.4L-13.13,431.2ZM-4.599,429.2L-4.812,429.6L-6.014,429.4L-8.102,429.7L-8.986,428.4L-9.375,426.3L-9.658,425.8L-10.15,424.6L-10.44,423.8L-10.97,422.6L-11.18,421.3L-11.29,420.9L-10.83,420.1L-8.632,419.4L-7.854,418.1L-7.182,418.3L-7.359,420.8L-6.97,421.6L-6.191,422.4L-6.085,422.6L-5.944,423.5L-5.555,424.9L-5.095,425.6L-4.953,425.9L-4.953,426.3L-5.13,426.8ZM-9.07,482L-9.375,480.2L-9.906,478.3L-8.951,477.3L-8.031,477.5L-7.996,476.1L-7.111,475.8L-7.111,475.8L-6.722,478.9L-6.404,479.3L-5.413,479.6L-4.316,481.1L-4.281,481.6L-4.49,482L-9.07,482ZM3.573,369.3L3.078,369.9L2.299,370L1.132,370.7L0.99,371.3L0.955,372L1.769,372.9L2.158,373.9L2.653,375.4L3.007,376.9L2.971,377.4L3.042,378.1L3.644,379.3L3.679,379.8L3.644,380.4L3.396,381.4L3.219,381.5L2.618,381.6L2.582,382.2L2.441,382.4L0.813,382.5L0,382.2L0.07,380.4L-0.955,379.7L-1.663,378.5L-2.477,376.4L-3.149,375.8L-3.927,374.2L-5.095,372.8L-3.75,371.9L-3.963,370.4L-3.184,369.8L-2.017,369.3L-1.132,369.7L-0.354,369.6L0,369.2L-0.106,367.6L0.141,366.4L1.026,365.8L1.945,365.7L2.299,366.4L2.759,367.1L3.891,367.6L3.856,368.3ZM10.93,374.6L8.526,375.7L7.358,375.3L6.898,374.5L6.651,373.8L6.403,372.7L6.828,372L7.677,371.2L8.03,370.6L8.172,369.9L8.101,369.3L8.243,368.7L8.738,368.5L10.51,369.1L12.35,370.2L12.98,370.8L13.09,371.4L12.31,372.6L11.78,373.7ZM-9.269,376.1L-9.517,376.3L-9.835,376.3L-10.08,375.8L-10.26,375.1L-9.906,374.8L-9.658,374.8L-9.34,375.2L-9.198,375.8ZM-11.85,460.9L-12.1,462.4L-12.91,462.2L-13.16,461.9L-13.3,461L-13.55,460.5L-13.23,459.6L-12.98,458.6L-13.05,457.8L-11.85,457.9L-10.4,458.1L-10.01,458.3L-10.44,459L-10.86,459.4L-11.75,459.6ZM-9.906,432.9L-10.01,434.1L-11.46,436.4L-12.7,437.7L-13.83,438.8L-14.58,438.8L-15.18,438.3L-14.51,437.4L-13.66,436.6L-13.94,435.5L-14.19,435.1L-14.54,435L-15.14,434.5L-14.96,433.6L-14.61,433.2L-14.12,432.9L-13.69,433.1L-11.78,432.5L-11.18,432L-10.05,431.9ZM-9.977,418.1L-10.68,418.3L-10.79,417.8L-11.43,417L-10.86,416.5L-9.764,416L-8.915,416L-8.137,416.4L-8.031,416.9L-9.375,417.6L-9.694,417.9ZM-5.625,358.5L-7.005,358.8L-7.323,358.4L-7.323,358L-7.076,357.7L-6.368,357.6L-5.908,357.8L-5.661,358.1L-5.59,358.4ZM4.563,375.2L4.245,375.3L3.962,375.3L3.679,374.8L3.573,374.2L2.936,373.3L2.759,372.8L2.759,372.3L3.113,371.5L3.679,371.3L4.033,371.4L4.493,372.3L4.599,373.2L4.74,374.2ZM-4.529,470.2L-4.564,471.6L-4.847,472L-5.13,472.1L-5.838,471.7L-6.227,471.7L-6.863,472.4L-7.43,472.7L-8.243,472.6L-9.34,472.2L-10.29,474.1L-10.76,474.8L-11.71,475.7L-11.82,474.7L-11.21,473L-10.93,471.9L-10.37,470.3L-9.269,470.9L-7.713,470.3L-6.262,469.2L-5.059,469.1L-4.635,469.8ZM-9.411,455L-11.32,456.2L-11.89,455.7L-13.27,455.7L-12.91,454.4L-12.77,453.4L-12.56,453L-12.49,452.2L-12.06,450.6L-10.93,451.1L-10.08,451.3L-8.915,451.8L-7.642,452.1L-7.288,453.5L-8.491,454.1ZM2.83,361.5L3.042,362.2L2.582,362.3L1.91,362.2L1.556,362.7L1.379,362.8L-0.213,362.3L-0.46,362.1L-0.425,361.4L1.273,361.4L2.37,360.9L2.512,361ZM-0.425,480.6L-0.743,480.8L-1.805,480.4L-2.371,480.1L-3.22,479.2L-3.326,478.4L-3.715,477.3L-3.467,477.3L-2.583,477.7L-2.229,478L-1.769,478.7L-0.354,479.6L-0.177,479.9L-0.213,480.3ZM-2.123,387.3L-2.654,387.9L-3.609,388.2L-4.564,387.7L-5.696,388L-5.802,386.9L-5.378,386L-4.529,385L-3.892,383.6L-3.963,381.6L-3.467,381.2L-3.184,380.5L-2.088,380L-1.84,381.5L-2.123,384.1L-1.415,385.7L-1.309,386.2L-1.451,386.8ZM385.5,-42L385.8,-41L385.8,-40.02L385.3,-38.81L384.6,-35.69L382.7,-30.48L380.9,-27.49L378.4,-24.41L376.7,-22.8L376.1,-22.63L375.5,-22.96L375.9,-22.1L375.5,-21.35L373.8,-19.08L372.2,-17.59L370.5,-14.99L370.3,-14.94L368.1,-13.93L366.8,-13.12L365.2,-11.64L363.6,-9.295L363.3,-8.982L362.8,-9.156L362.8,-7.956L361.5,-6.077L361.1,-5.799L361.1,-6.321L361.3,-6.738L361.4,-7.173L361.4,-7.678L361,-7.312L360.2,-5.886L360.5,-4.859L359.9,-3.292L357.8,1.189L355.2,4.977L354.6,6.131L352.4,8.684L350.8,9.909L350.3,9.927L349.8,9.822L349.6,7.862L348.3,6.673L347.9,6.463L347.4,7.722L347,8.072L346.3,8.142L347,8.684L347.2,9.314L346.6,10.59L346.5,11.75L345.3,13.01L344.6,13.94L344.3,15.11L344,16.2L344.6,15.9L344.8,16.13L345,16.46L344.9,16.97L344.5,17.92L344.6,20.28L344.4,20.8L344.8,21.39L345.2,20.4L345.5,20.68L344.3,27L344.8,29.86L344.9,33.09L345.5,36.26L346,39.1L346.1,39.33L345.3,42.61L344.3,45.87L343.7,48.54L343.3,51.41L342.9,52.8L342.8,54.21L343.2,57.57L343.4,58.2L342.2,59.7L340.9,60.44L340.1,61.16L338.5,63.87L337.6,67.89L337.6,70.02L338,74.52L337.7,76.36L337.2,77.57L336.6,78.39L335.1,79.35L333.7,81.72L333.1,84.21L332.1,85.12L331.9,86.5L331.2,88.02L329.2,90.28L327.9,90.93L327.3,91.56L326.9,92.87L325.7,95.05L324.8,97.87L325,98.84L325,98.99L325.4,102.3L325.3,103.1L324.1,104L319.5,105.7L318.3,106.4L315.6,109.3L315.5,109.9L315.6,110.9L316,111.5L315.5,112.1L315,113.2L314.2,113.1L309.7,113.1L307.3,113.5L306,113.4L305.4,113.1L304.8,112.7L304.6,112.1L305,111.3L304.7,110.8L304.1,110.8L303.4,111.1L303.2,111.6L303.3,111.9L303.5,112.4L303.7,113.1L303.4,113.6L302,113.7L300.4,114.2L298.4,114.5L296.8,114.8L296,114.4L296.8,114.1L297.8,114.2L298.9,113.8L298.7,113.4L297.1,112.8L295.3,113.1L294.3,113.9L292.1,113.8L289.5,114.3L289.1,114.9L289.1,115.9L289.7,116.2L290.2,116.7L289.7,117.1L289.2,117.3L286.4,117.8L283.8,119.9L282.7,120.2L281.8,121.1L281.7,121.9L281.4,122.3L280.8,122.4L279.4,121.9L277.6,121.9L276.4,122.3L269.9,125.7L267.6,127L264.9,129.8L260.5,132.9L258.1,134.7L257.7,135.2L257.3,135.3L256.6,135.6L256.9,136L257.4,136L257.2,137.1L256.2,137.8L254.5,139.8L254.1,139.6L254.6,138.6L253.8,138.6L252.5,138.2L252,138.6L252.3,139.6L251.8,140.1L250.9,140.1L250.1,140L249.3,139.3L249.7,140.6L251.5,140.9L252.2,141.2L252.5,141.7L251.1,144.1L249.9,144.5L249.8,144.8L250.4,144.8L250.8,145.4L250.4,148.1L249.8,148.6L249.4,148.6L249.1,149.1L249.6,150L250,150.6L250,151.8L249.8,152.9L249.8,153.9L250.4,155.8L250.6,157.8L250.9,158.5L251,159.3L250.6,160L250.8,161.2L250.2,163.3L250.5,166.3L250.4,169L250.1,170.5L249.7,171.7L248.6,173.1L248.6,174.6L246.4,176L244,177.9L241.7,180.2L239.3,183.5L236.5,188.4L233.9,195.5L230.7,200.9L229.5,202.9L227.8,205L225.5,207.6L222.5,210.2L219.1,212.5L217.9,213.5L216.8,214.9L216.5,214.3L216.7,213.4L216.6,212.6L216.5,211.7L217.2,211.5L218.2,212.1L218.7,211.7L219.1,211.2L220.3,211L222.6,208.5L224.3,207.6L225.3,206L225.4,205.1L225.4,203.4L226,203L227.2,203.2L227.4,202.7L227.3,202.2L227.5,201L229.2,199.9L230,198.7L229.8,195.5L230.1,195.4L230.8,195.9L231.1,195.7L231.4,194.3L231.3,193.6L230.4,193.4L227.7,194.9L226.7,194.9L226.6,193.6L225.2,193.1L224.7,192.1L224.5,191.4L224,191.1L224.1,192.3L224.2,193.5L225.4,194.8L225.1,195.4L224.5,196L224.2,197.4L224.2,199.2L223.9,198.7L223.4,198.4L223.3,200.3L222.5,201.1L222.2,201.8L222.4,202.7L222,203.3L219.9,204.9L217.9,206L217.4,206.5L217.2,207.7L216.9,209L216,210.1L215.2,212.3L215.3,213.2L215.5,214.6L215.9,215.6L215.3,216.2L214.5,217.4L213.8,218.7L212.2,223.8L210.7,226.9L209.6,228.4L208.1,230L203.7,234L203.4,233.9L202.8,233.6L202.2,233.2L202.1,233L202,232.6L202.1,231.1L202.1,227.3L202.3,226.5L202.6,226.1L203.5,225.4L204.3,224.4L205.2,223.2L206.1,222.2L205.8,221.5L205,220.9L203.8,220.4L202.5,219.4L201.4,218.3L200.9,217.1L200.4,215.8L200,214.7L199.8,214.3L199.4,214.1L198.7,213.5L198.3,213.1L197.7,212.8L196.5,212.5L195.3,211.9L193.9,210.7L192.8,209.2L192.3,208.3L191.7,207.7L188.7,206.6L187.3,205.3L186.8,205.7L186,205.3L185.2,204.7L184.9,204.2L184.6,203.7L184.3,203.2L184.1,202.6L183.3,201.7L182.2,200.7L181.7,200.4L181.5,200.5L181.3,200.8L181.1,201.2L180.7,201.5L180.2,201.9L179.7,202.5L179.1,202.9L178.3,203L177.8,203L177.7,202.8L177.7,202L177.8,200.2L177.4,199.5L176.8,198.8L176.1,197.8L173.8,195.8L170.8,192.8L169.7,191.9L168.6,191.8L167.7,191.9L166.8,192.3L166.2,193.7L165.9,193.9L164.3,193.9L162.6,193.6L162,192.8L162.5,192.3L164,191.1L164.9,190L165.1,189.1L165.8,188.2L167.2,187.5L168.6,186.1L170.3,184.1L171.3,182.6L171.6,181.7L172.3,180.9L173.2,180.4L174,179.4L174.7,177.7L175.6,176.4L176.9,175.5L177.5,174.7L177.7,174.1L178,173.7L178.5,173.5L178.8,173.2L178.8,172.7L178.9,172.3L179.2,172.1L179.8,172.2L180.5,172.5L180.9,172.5L181.1,172.1L180.9,171.6L180.4,171.1L180.5,170.5L181.9,169.6L183,169.2L183.6,168.6L184.3,167.7L185.3,167.1L186.7,166.7L187,166.4L187,165.9L187.3,165.6L188.1,165.4L188.6,165L188.6,164.3L188.9,163.7L189.3,163.2L189.9,163L190.4,163.1L191,163L191.5,162.4L192.1,162.1L192.7,162.2L193.1,162.1L194.3,161.8L194.9,161.3L195.5,160.3L196,159.9L196.4,160.2L197.1,159.8L198.1,158.9L198.3,158.9L199.1,158.5L199.9,156.9L200.3,155.8L200.2,155L199.9,154.4L200,153.4L200.3,151L200.3,150L200.8,149.3L200.7,148.6L200,147.1L199.2,145.7L198.8,143.4L198.6,142.5L197.9,142.3L197.4,141.5L196.7,141.5L196.3,141.2L196,140.9L195.5,141L195,141.5L194.2,141.5L193.7,141.7L193.1,142L192.6,141.9L192.2,141.5L191.5,141.5L191.5,140L192.8,137.6L193.2,136.6L193.1,136L193.4,133.8L194.4,130.1L194.8,127.8L194.4,126.6L194.4,125.8L194.9,125.2L195.1,125L193.9,124.2L193.2,123.4L192.3,122.9L191.4,122.4L190.9,122.6L190.4,122.9L189.5,123.3L188.4,123.9L187.9,124.2L186.9,124.4L185.8,124.6L184.8,124.5L184.1,124.4L183.6,123.9L183.3,123L183.3,122.2L183.1,121.1L182.6,120.4L182.4,120L182.3,119.3L182.4,118.7L182.6,118.2L182.5,117.6L182.2,117.2L182.3,116.4L182.2,115.4L181.8,114.8L181.6,114L181.6,113.3L181.3,112.5L181.2,111.7L181.5,111L181.6,110.2L181.3,109.7L180.7,109.4L180.3,108.5L180.3,107.5L179.8,106.9L179.3,106.4L178.8,106.4L177.9,106.1L177.2,106.1L176,106.1L175.4,105.9L175.1,105.5L174.4,105L173.9,104.1L173.5,103.9L172.7,104.2L172.4,104.5L172.1,105L171.6,105.6L170.9,105.6L170.2,105.9L169.5,105.9L168.6,106L167.7,105.7L166.6,105.4L165.7,105.2L164.8,105.4L164.2,105.2L163.3,105.1L162.4,105L161.7,104.5L160.9,104.2L160.5,104.3L159.9,104.6L159.4,104.5L158.6,104.3L158.3,103.6L158.4,103.2L158.6,102.8L158.8,102.2L158.7,101.5L158.7,101L158.9,100.5L159,99.92L158.9,99.39L158.9,98.84L158.8,98.31L158.7,97.76L159.1,96.95L159.4,96.29L159.2,95.72L159.3,95.34L159.6,94.72L159.9,93.95L159.9,92.52L159.6,91.68L159.2,91.46L159.2,91.21L159.3,90.88L159.2,90.53L159.1,90.19L159.3,89.89L159,89.29L158.6,89.11L158.4,88.95L158.2,88.27L158.1,87.52L158.2,86.92L157.9,86.41L157.6,86.1L157.3,85.54L157,85.12L156.8,84.54L156.6,83.78L157.3,83.63L157.5,83.21L158,82.63L158.6,82.49L159.3,82.27L159.6,81.83L157.9,80.31L156.9,79.38L157.5,78.13L158.5,76.03L159.4,74.01L160.2,72.47L160.3,72.19L161,72.08L160.9,71.28L160.8,70.76L160.3,70.74L160.9,68.85L161.7,66.19L162.4,64.16L162.6,63.81L163.1,63.72L163.2,63.49L162.6,63.15L162.2,62.52L161.5,60.73L160.4,57.88L160.3,56.86L159.8,56.23L159.1,56.45L158.3,56.23L156.2,54.69L154.8,53.85L154.3,53.37L154.1,51.78L153.7,50.05L153.5,47.9L153.6,47.36L154.7,45.74L154.7,44.91L154.8,44.19L154.8,43.63L154.5,43.61L154,43.86L153.3,44.05L152.9,44.07L148.8,43.91L144.1,43.73L140.2,43.59L136.8,43.47L136.7,42.06L136.5,39.7L136.4,38.03L136.2,35.4L134.8,33.75L133.3,31.96L132.8,31.52L134.6,31.45L135.8,31.42L135.6,26.63L135.2,26.14L134.9,24.61L134.6,23.74L134,23.02L133.9,22.23L134,21.7L134.3,21.37L134.6,20.56L134.4,19.73L134,18.98L133.5,18.24L132.7,17.78L131.4,16.97L129.6,15.92L128,15.2L127.4,15.29L124.6,15.57L123.7,15.73L123,15.55L121,15.57L120.1,15.01L119.4,14.36L117.9,12.69L117.7,11.87L117.2,11.61L116.3,11.71L115.4,11.59L113.7,10.91L112.1,10.21L111.4,10.22L110.7,9.787L109.5,8.719L108.9,8.299L108.6,7.74L108.4,6.918L107.9,6.743L107.3,6.9L106.6,7.32L105.6,7.04L104.5,6.271L103.7,5.694L103.3,5.414L102.3,4.995L101.3,4.908L99.83,5.519L98.63,5.274L96.72,5.047L95.09,4.611L94.49,3.475L94.17,2.707L93.22,2.236L92.44,1.66L91.52,0.787L91.06,0.491L90.25,0.247L89.47,-0.05L89.4,-0.608L89.11,-1.34L89.05,-1.514L88.51,-2.403L88.27,-2.473L87.98,-2.298L87.81,-2.159L87.59,-2.333L87.52,-2.717L87.67,-3.361L87.38,-4.023L86.64,-4.72L86.25,-5.433L86.21,-6.182L86.04,-6.686L85.75,-6.93L85.58,-7.365L85.54,-7.991L85.75,-8.738L86.21,-9.59L86.11,-10.91L85.44,-12.7L85.08,-13.98L85.01,-14.77L85.12,-15.36L85.51,-15.91L86.32,-17.31L86.46,-18.37L86.21,-19.57L86.18,-20.47L86.36,-21.11L86.07,-21.92L85.51,-22.7L85.12,-22.72L84.55,-22.51L83.92,-21.85L83.14,-21.73L82.46,-22.15L80.31,-21.98L76.98,-21.56L75.64,-21.14L74.86,-20.97L73.94,-20.83L72.42,-20.07L68.67,-17.14L67.89,-16.73L67,-16.67L66.47,-16.26L65.66,-15.95L64.03,-14.78L63.18,-13.85L62.65,-13.01L62.02,-12.98L61.56,-13.2L60,-13.1L59.22,-12.8L58.37,-11.99L57.31,-10.51L56.85,-10.09L56,-9.642L55.01,-9.295L53.81,-8.738L53.24,-8.704L52.78,-8.617L52.36,-8.86L52.22,-9.399L51.58,-9.729L50.09,-9.903L47.87,-10.29L45.57,-10.36L44.4,-10.32L43.48,-10.3L41.85,-10.51L40.65,-10.55L39.62,-10.01L38.1,-9.364L37.43,-9.19L36.9,-9.173L36.4,-9.242L35.84,-9.59L35.02,-10.37L34.42,-10.08L33.96,-9.729L33.96,-11.43L33.96,-13.98L34,-16.22L34,-18.02L34,-20.12L34,-21.59L34.42,-22.15L34.7,-22.77L34.39,-23.62L34.46,-24.38L34.67,-24.92L34.95,-25.43L34.28,-25.18L34,-25.04L33.64,-24.64L32.83,-24.1L32.26,-23.57L31.59,-23.13L30.74,-22.16L30.04,-21.65L29.29,-21.3L28.09,-20.17L27.1,-19.95L24.48,-19.77L21.72,-19.77L19.21,-19.77L18.82,-19.79L18.86,-20.73L18.93,-21.39L18.04,-22.08L18.01,-22.94L17.76,-23.53L17.48,-24.26L16.88,-24.71L16.06,-24.9L14.68,-25.3L12.63,-25.71L10.65,-25.75L8.738,-25.69L9.905,-27.15L11.07,-28.6L11.04,-29.86L10.08,-30.96L9.587,-31.64L8.809,-32.59L7.818,-33.24L7.287,-34.11L7.323,-34.62L7.252,-34.97L6.863,-35.17L6.509,-35.49L5.979,-35.83L5.377,-36.3L5.377,-36.76L5.165,-37.24L4.776,-37.83L4.776,-38.3L4.457,-39L4.068,-39.52L3.714,-39.88L3.148,-40.36L3.184,-40.76L3.608,-40.97L3.75,-41.43L3.714,-41.9L3.541,-42L385.5,-42ZM294.5,115.3L294.8,115.6L294.2,115.5L293.6,115.8L292.6,116L292.2,115.6L293.1,115L293.4,114.5L293.6,114.6L293.9,114.9ZM250.7,150.6L250.5,150.7L249.9,149.3L251.1,148L251.6,148.5L251.3,149.6L250.9,150.3ZM283.4,123.3L283.4,123.8L283,123.5L281.9,123.8L281.5,123.3L283,121.5L283.3,121.8L283.5,122.1L283.7,122.6L283.5,122.9ZM347.4,11.24L347.1,11.45L347,10.82L348,9.997L348.1,9.052L348.7,9.489L348.8,9.979L348.8,10.19ZM345.8,15.04L345.5,15.62L345.1,15.54L345,15.15L344.7,14.76L344.8,14.45L345.1,14.27L345.8,14.31ZM251.7,165.6L251,166.1L251.1,163.5L251.5,162.6L251.9,162L252.4,161.6L252.7,162.1L252.5,163.4L251.6,165ZM45.07,56.16L45.07,55.69L44.96,54.96L44.54,54.39L43.94,54L43.76,53.51L43.94,53.01L45.14,52.03L45.78,51.87L45.95,51.37L46.34,50.98L47.48,49.53L48.15,48.59L48.78,48.02L49.56,47.61L49.88,47.29L49.7,46.27L49.78,45.58L50.02,45.15L50.8,44.69L51.51,44.34L51.65,44.18L51.58,43.91L50.94,43.39L49.63,42.93L48.78,42.98L48.26,42.58L47.97,42.24L46.24,38.02L45.95,37.04L45.99,36.65L47.12,34.58L47.58,33.91L48.4,32.92L48.26,32.53L46.84,30.9L46.41,30.14L46.41,29.37L46.56,28.43L47.37,27.94L47.62,27.16L47.8,26.42L48.15,26.18L48.5,25.75L48.93,25.14L49.56,24.59L49.95,24.18L50.06,23.06L50.38,22.74L51.26,22.37L51.37,22.09L51.16,21.32L50.7,20.51L50.34,20.12L49.88,18.13L49.35,17.15L49.56,16.76L49.92,16.25L50.27,15.27L50.38,14.11L50.27,9.874L50.31,9.052L50.73,8.457L51.4,7.792L51.93,7.53L52.46,7.11L52.43,6.306L52.78,5.834L53.17,5.24L51.86,2.917L50.73,0.857L49.63,-1.061L48.4,-3.274L47.55,-4.737L46.52,-6.564L45.64,-8.147L44.4,-10.32L45.57,-10.36L47.87,-10.29L50.09,-9.903L51.58,-9.729L52.22,-9.399L52.36,-8.86L52.78,-8.617L53.24,-8.704L53.81,-8.738L55.01,-9.295L56,-9.642L56.85,-10.09L57.31,-10.51L58.37,-11.99L59.22,-12.8L60,-13.1L61.56,-13.2L62.02,-12.98L62.65,-13.01L63.18,-13.85L64.03,-14.78L65.66,-15.95L66.47,-16.26L67,-16.67L67.89,-16.73L68.67,-17.14L72.42,-20.07L73.94,-20.83L74.86,-20.97L75.64,-21.14L76.98,-21.56L80.31,-21.98L82.46,-22.15L83.14,-21.73L83.92,-21.85L84.55,-22.51L85.12,-22.72L85.51,-22.7L86.07,-21.92L86.36,-21.11L86.18,-20.47L86.21,-19.57L86.46,-18.37L86.32,-17.31L85.51,-15.91L85.12,-15.36L85.01,-14.77L85.08,-13.98L85.44,-12.7L86.11,-10.91L86.21,-9.59L85.75,-8.738L85.54,-7.991L85.58,-7.365L85.75,-6.93L86.04,-6.686L86.21,-6.182L86.25,-5.433L86.64,-4.72L87.38,-4.023L87.67,-3.361L87.52,-2.717L87.59,-2.333L87.81,-2.159L87.98,-2.298L88.27,-2.473L88.51,-2.403L89.05,-1.514L89.11,-1.34L89.4,-0.608L89.47,-0.05L90.25,0.247L91.06,0.491L91.52,0.787L92.44,1.66L93.22,2.236L94.17,2.707L94.49,3.475L95.09,4.611L96.72,5.047L98.63,5.274L99.83,5.519L101.3,4.908L102.3,4.995L103.3,5.414L103.7,5.694L104.5,6.271L105.6,7.04L106.6,7.32L107.3,6.9L107.9,6.743L108.4,6.918L108.6,7.74L108.9,8.299L109.5,8.719L110.7,9.787L111.4,10.22L112.1,10.21L113.7,10.91L115.4,11.59L116.3,11.71L117.2,11.61L117.7,11.87L117.9,12.69L119.4,14.36L120.1,15.01L121,15.57L123,15.55L123.7,15.73L124.6,15.57L127.4,15.29L128,15.2L129.6,15.92L131.4,16.97L132.7,17.78L133.5,18.24L134,18.98L134.4,19.73L134.6,20.56L134.3,21.37L134,21.7L133.9,22.23L134,23.02L134.6,23.74L134.9,24.61L135.2,26.14L135.6,26.63L135.8,31.42L134.6,31.45L132.8,31.52L133.3,31.96L134.8,33.75L136.2,35.4L136.4,38.03L136.5,39.7L136.7,42.06L136.8,43.47L140.2,43.59L144.1,43.73L148.8,43.91L152.9,44.07L153.3,44.05L154,43.86L154.5,43.61L154.8,43.63L154.8,44.19L154.7,44.91L154.7,45.74L153.6,47.36L153.5,47.9L153.7,50.05L154.1,51.78L154.3,53.37L154.8,53.85L156.2,54.69L158.3,56.23L159.1,56.45L159.8,56.23L160.3,56.86L160.4,57.88L161.5,60.73L162.2,62.52L162.6,63.15L163.2,63.49L163.1,63.72L162.6,63.81L162.4,64.16L161.7,66.19L160.9,68.85L160.3,70.74L160.8,70.76L160.9,71.28L161,72.08L160.3,72.19L160.2,72.47L159.4,74.01L158.5,76.03L157.5,78.13L156.9,79.38L157.9,80.31L159.6,81.83L159.3,82.27L158.6,82.49L158,82.63L157.5,83.21L157.3,83.63L156.6,83.78L156.8,82.03L156.6,80.53L156.4,80.15L153.5,78.35L150.9,76.72L147.5,74.61L143.1,74.66L138.5,74.71L134.1,75.67L129.8,76.61L127.8,77.05L123.7,77.94L121.3,78.35L120.6,80.06L119.7,82.63L118.8,84.14L117.7,85.72L116.2,87.94L116.2,90.66L116.2,93.24L115.1,96.88L114.2,99.98L113.3,103L112.7,105.1L112.5,105.6L112.4,105.4L111.6,104.8L110.9,103.6L110.7,103.1L110.6,103.1L106.4,103.1L102.4,103.2L102,103.4L101.4,103.4L101,103.2L100.6,103.2L100,103.4L99.48,103.9L97.92,107L97.18,108.3L96.61,109.5L96.19,111.6L96.05,111.9L95.55,111.2L94.85,109.3L94.53,108.3L94.07,107L93.29,105.5L92.33,105.1L91.77,104.9L90.95,104.6L89.47,104.3L88.83,104.2L84.62,104.2L84.3,104.1L82.68,104.3L81.83,104.2L80.94,103.3L79,101.8L78.61,101.4L77.86,101L77.41,101L77.16,101.3L76.8,102.6L76.42,103.7L75.99,104.3L74.61,104.8L73.3,105.3L72.59,105.4L72.2,106L72.03,106.8L71.71,107.5L69.83,108.5L69.41,109L69.2,110L68.17,111.3L67.82,111.8L66.19,112.2L64.03,112.6L62.8,112.6L61.95,112.5L61.7,112.2L61.1,111.8L61.03,111.4L60.99,110.9L61.17,109.8L61.1,108.3L60.42,106.6L60.46,106.1L60.39,105.3L60.03,103.7L59.15,102.9L58.94,101.6L58.83,100.5L58.09,99.06L57.98,97.26L57.98,95.71L56.85,93.91L55.65,91.99L54.69,91.74L54.45,91.52L54.34,90.97L54.3,90.11L54.38,89.6L55.12,88.76L55.15,88.64L55.01,88.47L53.1,87.22L52.61,86.85L52.46,86.41L52.46,86.01L52.92,85.59L53.17,85.3L52.71,84.41L52.75,83.61L52.46,83.27L52.5,83L52.78,82.78L54.02,82.52L54.41,81.71L54.41,81.03L54.23,80.55L53.07,79.35L53.07,79.13L54.27,77.46L55.15,76.36L55.37,76.13L55.3,75.89L55.08,75.6L54.55,75.18L53.81,74.71L53.24,74.15L52.46,73.31L51.47,72.6L50.77,71.9L50.41,71.3L50.41,70.69L50.31,69.68L49.85,68.06L49.7,66.96L49.49,65.74L49.32,64.94L49.17,64.19L48.86,63.36L48.68,62.75L48.93,62.32L49.21,62L49.17,61.78L47.34,60.91L47.02,60.67L46.59,58.9L45.25,57.34ZM41.05,482L40.65,481.8L35.52,481.7L30.99,481.7L26.36,481.6L23.38,481.5L21.4,481.5L20.91,481.1L21.09,479.8L20.34,478.8L19.28,477.6L17.97,476.8L17.34,475.7L16.59,474.4L17.02,473.3L17.62,470.6L17.65,469.4L17.09,468.6L16.91,467.4L17.09,466.8L17.58,466.4L17.9,464.5L17.65,462.6L17.26,461L16.77,460.2L16.1,459.9L15.6,459.8L14.5,460.4L12.7,460.3L12.1,460.5L11.21,461.2L9.976,462.2L9.269,461.8L9.056,460.8L8.596,459.9L8.313,459L8.101,457.7L7.712,456L7.004,454L5.872,452.4L5.802,450.9L5.589,449.1L6.155,447.3L5.837,445.8L5.129,444.1L5.342,442.3L6.049,441.3L6.262,440L9.446,439.8L9.339,438.1L9.87,436.8L10.47,435.5L10.97,435L12.1,434.5L13.44,433.8L14.22,433L14.57,432.2L14.79,431.3L14.86,430.3L14.65,428.2L14.89,427.5L15.71,426.7L17.12,425.9L17.72,423.9L17.41,422.1L16.59,420.7L15.6,420.1L15.53,418.7L15.99,417.3L16.56,415.9L17.26,414.2L17.23,413.1L17.83,412.4L19.6,410.9L20.2,409.4L20.84,409L21.55,408.9L21.58,408L21.05,407.2L20.98,406.2L21.05,405L21.19,403.5L22.04,402.9L23.24,401.7L23.56,400.9L23.6,399.9L23.24,397.7L22.96,396.2L22.78,395.6L22.25,394.6L21.83,393.9L22.5,393.1L23.7,392.3L24.23,391L23.77,390L23.07,389.4L22.85,387.8L23.1,385.7L23.63,385.1L25.44,384.8L25.61,383.8L26.99,382.3L26.96,380.9L26.07,380L25.22,378.6L24.59,377.4L22.46,376.7L20.2,376.3L19.92,375.2L19.99,374.5L21.05,374.8L22.75,374.5L24.02,374.5L24.94,374.3L25.97,374.2L26.92,374.7L27.88,374.3L28.27,372.5L28.87,371.6L28.97,370.7L28.34,369.9L27.24,369.7L22.39,369.1L22.25,368.4L22.29,367.2L22.46,365.9L22.46,365.3L22.89,364.8L23.42,363.7L23.77,362.9L23.42,361.9L22.64,360.5L23.21,359.8L23.24,359L23.07,358.3L22.25,357.4L21.55,356.2L21.55,355L22.39,354.7L22.92,354.3L23.07,353.5L22.75,352.6L21.61,352.3L20.09,351.7L19.6,351.2L19.17,350.2L19.49,347.3L19.35,345.6L19.21,344.7L19.56,343.9L20.09,343.3L19.85,341.7L19.39,341L19.56,340.3L19.99,339.7L20.34,338.9L20.7,338.8L21.16,339.2L21.97,338.9L22.96,338.3L23.07,337.6L22.89,336.6L22.15,334L21.47,332.4L21.61,331.8L21.86,331.2L21.69,329L21.72,327.7L21.79,323.8L21.86,322.5L21.19,321.1L21.3,319.9L21.76,318.9L22.22,317.7L22.54,316.6L22.89,316.1L23.49,315.9L23.6,315.3L23.35,314.8L22.57,314.1L22.39,313.2L22.57,312.6L22.92,312.2L23.53,312.2L23.95,311.2L24.09,310L24.16,309.5L23.84,308.8L23.6,307.2L23.35,306.3L23.63,305.9L24.02,305.8L24.66,306L25.15,305.9L25.22,305.4L25.26,304.8L25.44,304.5L25.86,303.3L26.32,301.8L26.43,300.8L26.25,298L26.5,297.4L26.96,296.8L27.63,296.3L28.51,295.8L29.57,295.1L30.92,294.9L31.45,294.2L31.84,293.2L31.95,292.4L31.41,291.9L30.74,291.2L30.42,289.6L30.25,288.1L30.18,286.2L29.5,284.5L28.8,282.7L28.62,281.1L28.83,280.2L29.11,278.8L28.83,278.1L28.48,277L28.83,276.1L29.29,274.7L29.22,274L28.87,272.3L28.55,271.4L28.87,270.3L29.4,269.4L29.79,268.9L29.72,268.1L29.89,267.4L30.67,267L31.38,266.2L31.88,266.1L32.51,266.1L32.9,265.8L33.08,265.2L33.18,264.5L34.17,263.6L34.74,262.8L35.77,262.7L36.3,261.8L36.3,260.7L36.19,259.6L36.55,258.3L36.16,256.3L36.19,255.3L35.77,254.4L35.87,253.5L35.66,252.9L35.02,252.7L34.81,251.9L35.09,251.6L35.7,251.3L36.4,250.7L36.93,248L37.22,247.2L37.46,246.3L37.43,245.8L37.78,245.1L38.21,244L38.88,242.9L39.27,242.2L39.66,241.2L39.76,240.6L40.22,240.3L40.79,240.3L41.46,240.1L41.71,239.7L41.67,239.2L41.64,238L41.43,236.2L41.32,233.9L41.43,232.3L41.85,230.8L42.24,229.9L42.13,229.3L42.03,228.6L41.28,228.2L40.58,228.5L40.08,228.4L39.45,227.6L39.23,226.8L39.34,225.6L39.87,224.8L40.05,223.9L39.76,223.6L39.13,223L38.53,220.9L38.6,219.1L37.99,218.6L37.75,217.2L37.11,216.7L36.9,215.7L36.69,214.6L36.76,214.1L37.39,214L37.78,213.1L37.5,212.6L37.01,212.2L36.4,212.3L35.84,211.8L35.09,209.7L34.53,208.6L34.7,207L34.81,205.7L35.06,204.6L35.16,203.8L35.63,203.4L36.05,203.6L36.44,203.5L36.83,202.8L37.22,202.4L37.22,202L36.97,201.6L36.86,201L37.15,200.2L37.61,198.4L38.35,196.4L38.67,195.7L38.6,195.1L38.77,194.8L39.27,195.1L40.68,194.8L41.18,193.9L41.36,193.1L41.82,192.7L41.6,192.1L41,191.9L40.65,191.6L40.79,190.9L41,189.3L40.97,188.1L40.44,185.5L40.01,183L40.3,182.2L41.25,181.1L41.96,180.6L42.1,179.9L42.81,177L42.88,175.4L43.34,174.5L43.66,172.8L44.93,171.4L45.28,170.4L45.81,170.3L46.06,170.1L46.73,169L47.62,167.9L48.4,167.4L48.57,166.5L48.93,165.4L49.67,163.4L50.09,162.1L50.66,161.6L51.33,159.8L51.62,158.8L52.36,158.4L52.96,158.3L53.53,158.8L54.09,158.7L54.66,158.1L55.93,157.7L56.53,157.4L56.78,156.8L56.78,155.8L56.25,155L55.15,153.5L54.2,151.8L54.09,151.3L54.09,150.7L54.27,150L54.73,149.2L55.86,147.8L55.72,146.9L54.91,143.3L54.59,142.3L54.02,140.5L54.09,139.8L54.62,137.8L55.05,137L55.68,136.9L56.04,136.6L56.14,136.3L55.72,135.8L55.54,135.3L55.33,134.4L54.73,134.2L54.41,133.5L54.41,132.5L54.94,131.3L55.54,130.9L55.76,130.3L56.39,129.8L56.99,129.4L57.45,128.7L59.47,127.8L61.03,127.1L64.14,125.7L66.26,124.8L66.44,124.2L66.61,123.8L67.61,120.5L68.88,116.4L69.66,113.8L67.82,111.8L68.17,111.3L69.2,110L69.41,109L69.83,108.5L71.71,107.5L72.03,106.8L72.2,106L72.59,105.4L73.3,105.3L74.61,104.8L75.99,104.3L76.42,103.7L76.8,102.6L77.16,101.3L77.41,101L77.86,101L78.61,101.4L79,101.8L80.94,103.3L81.83,104.2L82.68,104.3L84.3,104.1L84.62,104.2L88.83,104.2L89.47,104.3L90.95,104.6L91.77,104.9L92.33,105.1L93.29,105.5L94.07,107L94.53,108.3L94.85,109.3L95.55,111.2L96.05,111.9L96.19,111.6L96.61,109.5L97.18,108.3L97.92,107L99.48,103.9L100,103.4L100.6,103.2L101,103.2L101.4,103.4L102,103.4L102.4,103.2L106.4,103.1L110.6,103.1L110.7,103.1L110.9,103.6L111.6,104.8L112.4,105.4L112.5,105.6L112.7,105.9L112.7,106.2L113.6,106.8L115.2,107.8L116.8,109.6L118.2,112.3L119.6,114.4L120.8,115.7L122,116.6L123.1,117.2L123.7,117.6L123.8,117.9L124.7,118.6L126.7,119.7L127.9,120.8L128.4,121.8L130.3,122.9L133.6,124.1L136,124.6L137.4,124.6L139.6,125.5L142.4,127.3L144.1,128.6L144.7,129.4L146.5,130.5L151.1,132.9L153.1,133.6L154,134.1L154.6,134.8L155.2,135L155.7,134.8L156.9,135L158.6,135.8L159.9,136.7L161.7,138.8L162.2,139.7L162.5,140.4L162.4,141.1L161.9,141.8L160.9,142.5L160.6,142.8L160.6,143.1L160.3,143.8L159.5,145.1L159.3,145.8L159.3,146.2L158.7,146.7L157.4,147.7L157.1,148.1L157,148.6L156.9,148.9L156.7,149L156.4,149.5L156.2,150.3L156.2,151.4L156.3,152.6L156.3,153L156,153.3L155.8,153.6L155.8,154.2L155.5,154.6L155.1,154.9L154.9,155.2L155,155.6L154.7,155.9L153.9,156.3L153.4,156.8L153.3,157.4L152.8,158.1L152.1,158.6L151.9,159.3L152.3,160.6L156.5,160.1L160,160.6L164.2,161.9L166.9,162.3L168.3,161.9L169.3,162L169.9,162.5L170.8,162.6L171.9,162.3L172.8,162.5L173.6,163.2L174.2,163.1L174.8,162L175.5,161.2L176.3,160.7L177.2,160.5L178.3,160.7L179.2,161.1L179.9,161.7L180.6,161.7L181.4,161.1L181.8,160.3L181.8,159.4L182.1,158.8L182.8,158.4L183.3,157.9L183.5,157.2L184.3,156.8L185.6,156.7L186.3,156.4L186.4,155.9L186.8,155.4L187.5,155L188,154.5L188.3,153.9L188.8,153.4L189.4,153.3L190.1,152L190.8,149.5L191.3,146.2L191.5,141.5L192.2,141.5L192.6,141.9L193.1,142L193.7,141.7L194.2,141.5L195,141.5L195.5,141L196,140.9L196.3,141.2L196.7,141.5L197.4,141.5L197.9,142.3L198.6,142.5L198.8,143.4L199.2,145.7L200,147.1L200.7,148.6L200.8,149.3L200.3,150L200.3,151L200,153.4L199.9,154.4L200.2,155L200.3,155.8L199.9,156.9L199.1,158.5L198.3,158.9L198.1,158.9L197.1,159.8L196.4,160.2L196,159.9L195.5,160.3L194.9,161.3L194.3,161.8L193.1,162.1L192.7,162.2L192.1,162.1L191.5,162.4L191,163L190.4,163.1L189.9,163L189.3,163.2L188.9,163.7L188.6,164.3L188.6,165L188.1,165.4L187.3,165.6L187,165.9L187,166.4L186.7,166.7L185.3,167.1L184.3,167.7L183.6,168.6L183,169.2L181.9,169.6L180.5,170.5L180.4,171.1L180.9,171.6L181.1,172.1L180.9,172.5L180.5,172.5L179.8,172.2L179.2,172.1L178.9,172.3L178.8,172.7L178.8,173.2L178.5,173.5L178,173.7L177.7,174.1L177.5,174.7L176.9,175.5L175.6,176.4L174.7,177.7L174,179.4L173.2,180.4L172.3,180.9L171.6,181.7L171.3,182.6L170.3,184.1L168.6,186.1L167.2,187.5L165.8,188.2L165.1,189.1L164.9,190L164,191.1L162.5,192.3L162,192.8L162,192.8L161.7,193.3L161.6,194L161,195.1L159.8,196.3L159.4,197.4L160,198.8L160,200.5L159.8,201.1L159.3,201.4L159.2,201.8L159.5,202.4L159.5,203.3L159.2,204.3L158.7,205.5L157.9,206.9L157.7,207.8L158.1,208.2L158.3,208.7L158.3,209.2L158.1,210L157.8,210.9L157.3,211.7L156.5,212.1L156.3,212.7L156.6,213.5L156.7,214.2L156.4,215L156.6,215.8L157,216.5L157,217.3L156.2,219.1L156,220.2L156.5,224.8L156.2,225.4L155.7,226.2L155.2,226.2L154.5,226.1L154,226.6L153.7,228.6L152.8,233.1L153,234.1L153.7,235.8L154,236.9L154.2,237.8L154.4,239.3L153.9,240L153.5,240.2L153,240.6L153.6,242.5L154.1,243.4L155.4,245.2L160.5,247.7L162.6,249.2L165,251.2L166.3,253.3L166.4,255.1L164.5,257.7L164.3,259.8L164.7,261.4L165.4,262.8L167.3,264.7L168.6,265.3L170.5,265.3L170.8,265.8L171,266.2L171.3,270L171.2,271.4L170.7,272.7L167.2,278.8L164.1,282.5L163,284.5L162.6,286.7L161.7,287.8L156.4,291.1L148.3,294.1L141.7,295.7L140.2,296.2L129.7,297.9L127.6,298.1L125,298L122.8,298.2L120.4,297.7L118.2,297.2L117,295.8L115.6,295.7L115.2,296.4L115.9,298.1L115.6,300.1L116,301.3L116.8,301.5L117.6,302.1L118.4,302.9L117.1,303L117.6,303.7L118.1,304.1L118.1,305.4L117.6,308.7L116.4,309.4L116.1,309.6L115.7,310.3L114.9,313.5L114.7,315.5L115,316.9L116.5,319.6L115.9,321.5L115,322.5L111,324.5L109.5,325.3L107,325.9L102.9,326L101.5,325.8L98.03,324L95.45,322.9L93.11,322L90.85,321.5L91.17,321.2L91.31,320.7L90.67,320.4L90.21,320.4L88.73,321.3L88.09,322.3L87.91,323.2L87.88,325.3L88.16,327L89.22,331.3L89.33,333.6L88.83,336.6L89.54,338.4L90.39,339.1L92.37,339.9L93.11,340.4L93.96,340.4L94.21,340.6L94.07,341L93.57,341.7L93.61,342.5L95.09,342.8L96.61,342.6L98.24,342.2L98.63,341.7L98.63,340.5L96.76,340.3L96.97,339.9L98.42,339.4L100.3,338.6L101.3,338.5L101.9,339L102.3,339.5L102.9,340.7L103.2,342.4L103.2,344.4L103,346.3L102.7,346.9L102.2,347.7L98.88,348.7L97.96,348.5L97.08,347L96.79,345.6L96.05,344.6L94.42,343.8L92.83,344L91.24,345.4L89.68,345.9L89.15,347.1L93.04,349.1L94.88,349.6L95.48,349.6L96.08,349.9L95.55,350.6L94.99,351.1L92.19,352.1L90.99,352.9L89.54,354.3L87.52,357.4L86.92,358L86.6,358.8L86.39,361L87.06,364.5L86.36,366L86.78,367.7L86.57,368.8L85.86,370.4L83.03,373L82.53,374.8L83.53,375.9L83.45,376.9L83.14,377.7L81.97,377.7L77.72,377.2L76.17,378.1L74.72,379.3L74.33,379.8L73.83,380.2L70.9,380.8L70.33,381.2L67.22,385.7L65.87,388.5L64.28,391.3L63.86,392.4L63.75,394L64,395.5L64.21,396.6L64.78,398L65.94,399.5L71.96,406L73.2,406.6L79.6,407.3L81.01,408.2L81.83,409.7L82.15,410.9L81.79,414.2L81.4,415.2L80.7,416.1L79.17,417.3L77.37,417.9L77.86,418.4L78.61,418.4L80.24,417.9L80.91,418.4L81.44,419.6L80.45,420.2L80.13,420.8L79.42,421.7L75.71,425.5L73.73,426.7L71.89,428.2L69.41,429.8L68.45,430.7L67.15,432.5L65.17,434.6L63.01,439L62.94,439.9L63.26,440.5L62.05,448.3L61.63,449.2L60.78,450.2L58.48,451.9L57.38,452L55.93,451.1L55.12,450.1L54.34,448.4L53.35,446.7L53.31,447.3L53.63,448.4L53.42,449.5L50.94,450L50.31,450.5L52.53,450.3L54.06,450.6L54.69,451L55.26,451.9L55.79,452.9L55.37,453.4L54.13,453.9L52.57,454.8L50.7,456.3L49.67,458.1L49.21,459.4L48.71,462.1L48.57,463.8L47.8,465.1L46.56,466.3L46.63,466.6L47.48,466L48.11,465.8L48.68,467.4L49.46,470.7L49.81,472.9L49.74,473.6L49.53,474.5L47.94,474.7L46.56,474.7L45.53,475.1L46.06,475.5L47.02,475.3L48.33,476.3L49.78,475.9L50.45,476.5L50.91,477.2L53.14,481.9L53.2,482L41.05,482ZM120.1,300.4L120.2,301.2L119.7,301.1L118.5,300.3L118.1,299.6L118,299.3L119.2,299.6L119.8,299.9Z" fill="#D8E2E7" stroke="#3F464B" stroke-width="0.85" vector-effect="non-scaling-stroke"/><path d="M203.7,234L203.2,234.4L202.7,235.3L202.1,237.3L200,240L199.6,241.6L197.4,243.2L195.8,245L194.8,245L193.9,245.8L188.6,248.2L186.7,247.7L185.3,247.7L184,246.7L181.1,246.3L179.2,246.7L176.7,247.9L175.9,247.9L175.4,247.8L174,247.3L173.3,246.3L169.5,245.1L166.3,242.4L162.7,242.4L159.9,242.7L159.4,242.4L159.2,241.7L158.6,240.7L156.2,238.3L154.2,236L153.9,233.7L154.1,231.2L154.7,228.3L154.6,227.4L155.3,226.9L156,226.8L156.7,226L157.3,224.9L157.4,224L156.9,222.4L156.6,220.2L156.2,219.1L157,217.3L157,216.5L156.6,215.8L156.4,215L156.7,214.2L156.6,213.5L156.3,212.7L156.5,212.1L157.3,211.7L157.8,210.9L158.1,210L158.3,209.2L158.3,208.7L158.1,208.2L157.7,207.8L157.9,206.9L158.7,205.5L159.2,204.3L159.5,203.3L159.5,202.4L159.2,201.8L159.3,201.4L159.8,201.1L160,200.5L160,198.8L159.4,197.4L159.8,196.3L161,195.1L161.6,194L161.7,193.3L162,192.8L162.6,193.6L164.3,193.9L165.9,193.9L166.2,193.7L166.8,192.3L167.7,191.9L168.6,191.8L169.7,191.9L170.8,192.8L173.8,195.8L176.1,197.8L176.8,198.8L177.4,199.5L177.8,200.2L177.7,202L177.7,202.8L177.8,203L178.3,203L179.1,202.9L179.7,202.5L180.2,201.9L180.7,201.5L181.1,201.2L181.3,200.8L181.5,200.5L181.7,200.4L182.2,200.7L183.3,201.7L184.1,202.6L184.3,203.2L184.6,203.7L184.9,204.2L185.2,204.7L186,205.3L186.8,205.7L187.3,205.3L188.7,206.6L191.7,207.7L192.3,208.3L192.8,209.2L193.9,210.7L195.3,211.9L196.5,212.5L197.7,212.8L198.3,213.1L198.7,213.5L199.4,214.1L199.8,214.3L200,214.7L200.4,215.8L200.9,217.1L201.4,218.3L202.5,219.4L203.8,220.4L205,220.9L205.8,221.5L206.1,222.2L205.2,223.2L204.3,224.4L203.5,225.4L202.6,226.1L202.3,226.5L202.1,227.3L202.1,231.1L202,232.6L202.1,233L202.2,233.2L202.8,233.6L203.4,233.9Z" fill="#8B341D" stroke="#2C160F" stroke-width="1.1" vector-effect="non-scaling-stroke"/></svg>